<?xml version="1.0" encoding="UTF-8" standalone="no"?>
<!DOCTYPE svg PUBLIC "-//W3C//DTD SVG 1.1//EN"
 "http://www.w3.org/Graphics/SVG/1.1/DTD/svg11.dtd">
<!-- Generated by graphviz version 2.50.0 (0)
 -->
<!-- Title: oneDegreeRelationshipsDiagram Pages: 1 -->
<svg width="465pt" height="381pt"
 viewBox="0.00 0.00 465.00 381.00" xmlns="http://www.w3.org/2000/svg" xmlns:xlink="http://www.w3.org/1999/xlink">
<g id="graph0" class="graph" transform="scale(1 1) rotate(0) translate(4 377)">
<title>oneDegreeRelationshipsDiagram</title>
<polygon fill="#ffffff" stroke="transparent" points="-4,4 -4,-377 461,-377 461,4 -4,4"/>
<text text-anchor="middle" x="79.5" y="-7.2" font-family="Helvetica,sans-Serif" font-size="11.00">Generated by SchemaSpy</text>
<!-- bereikbaarheid -->
<g id="node1" class="node">
<title>bereikbaarheid</title>
<g id="a_node1"><a xlink:href="../../tables/bereikbaarheid.html" xlink:title="bereikbaarheid" target="_top">
<polygon fill="#ffffff" stroke="transparent" points="195,-83 195,-369 449,-369 449,-83 195,-83"/>
<polygon fill="#f5f5f5" stroke="transparent" points="197,-345 197,-367 447,-367 447,-345 197,-345"/>
<polygon fill="none" stroke="black" points="197,-345 197,-367 447,-367 447,-345 197,-345"/>
<text text-anchor="start" x="202" y="-354.2" font-family="Helvetica,sans-Serif" font-weight="bold" font-size="11.00">bereikbaarheid</text>
<text text-anchor="start" x="405" y="-353.2" font-family="Helvetica,sans-Serif" font-size="11.00">[table]</text>
<polygon fill="none" stroke="black" points="197,-323 197,-345 311,-345 311,-323 197,-323"/>
<image xlink:href="../../images/primaryKeys.png" width="11px" height="12px" preserveAspectRatio="xMinYMin meet" x="202" y="-340"/>
<text text-anchor="start" x="217" y="-331.2" font-family="Helvetica,sans-Serif" font-size="11.00">uuid</text>
<polygon fill="none" stroke="black" points="311,-323 311,-345 447,-345 447,-323 311,-323"/>
<text text-anchor="start" x="314" y="-331.2" font-family="Helvetica,sans-Serif" font-size="11.00">uuid[2147483647]</text>
<polygon fill="#ffffff" stroke="transparent" points="197,-301 197,-323 311,-323 311,-301 197,-301"/>
<polygon fill="none" stroke="black" points="197,-301 197,-323 311,-323 311,-301 197,-301"/>
<text text-anchor="start" x="217" y="-309.2" font-family="Helvetica,sans-Serif" font-size="11.00">geom</text>
<polygon fill="none" stroke="black" points="311,-301 311,-323 447,-323 447,-301 311,-301"/>
<text text-anchor="start" x="314" y="-309.2" font-family="Helvetica,sans-Serif" font-size="11.00">geometry[2147483647]</text>
<polygon fill="none" stroke="black" points="197,-279 197,-301 311,-301 311,-279 197,-279"/>
<text text-anchor="start" x="217" y="-287.2" font-family="Helvetica,sans-Serif" font-size="11.00">datumtijd</text>
<polygon fill="none" stroke="black" points="311,-279 311,-301 447,-301 447,-279 311,-279"/>
<text text-anchor="start" x="314" y="-287.2" font-family="Helvetica,sans-Serif" font-size="11.00">timestamptz[35,6]</text>
<polygon fill="none" stroke="black" points="197,-257 197,-279 311,-279 311,-257 197,-257"/>
<text text-anchor="start" x="217" y="-265.2" font-family="Helvetica,sans-Serif" font-size="11.00">gebruiker</text>
<polygon fill="none" stroke="black" points="311,-257 311,-279 447,-279 447,-257 311,-257"/>
<text text-anchor="start" x="314" y="-265.2" font-family="Helvetica,sans-Serif" font-size="11.00">varchar[255]</text>
<polygon fill="none" stroke="black" points="197,-235 197,-257 311,-257 311,-235 197,-235"/>
<text text-anchor="start" x="217" y="-243.2" font-family="Helvetica,sans-Serif" font-size="11.00">label</text>
<polygon fill="none" stroke="black" points="311,-235 311,-257 447,-257 447,-235 311,-235"/>
<text text-anchor="start" x="314" y="-243.2" font-family="Helvetica,sans-Serif" font-size="11.00">text[2147483647]</text>
<polygon fill="none" stroke="black" points="197,-213 197,-235 311,-235 311,-213 197,-213"/>
<text text-anchor="start" x="217" y="-221.2" font-family="Helvetica,sans-Serif" font-size="11.00">rotatie</text>
<polygon fill="none" stroke="black" points="311,-213 311,-235 447,-235 447,-213 311,-213"/>
<text text-anchor="start" x="314" y="-221.2" font-family="Helvetica,sans-Serif" font-size="11.00">int4[10]</text>
<polygon fill="none" stroke="black" points="197,-191 197,-213 311,-213 311,-191 197,-191"/>
<text text-anchor="start" x="217" y="-199.2" font-family="Helvetica,sans-Serif" font-size="11.00">bijzonderheden</text>
<polygon fill="none" stroke="black" points="311,-191 311,-213 447,-213 447,-191 311,-191"/>
<text text-anchor="start" x="314" y="-199.2" font-family="Helvetica,sans-Serif" font-size="11.00">text[2147483647]</text>
<polygon fill="none" stroke="black" points="197,-169 197,-191 311,-191 311,-169 197,-169"/>
<text text-anchor="start" x="217" y="-177.2" font-family="Helvetica,sans-Serif" font-size="11.00">plusinfo</text>
<polygon fill="none" stroke="black" points="311,-169 311,-191 447,-191 447,-169 311,-169"/>
<text text-anchor="start" x="314" y="-177.2" font-family="Helvetica,sans-Serif" font-size="11.00">jsonb[2147483647]</text>
<polygon fill="#ffffff" stroke="transparent" points="197,-147 197,-169 311,-169 311,-147 197,-147"/>
<polygon fill="none" stroke="black" points="197,-147 197,-169 311,-169 311,-147 197,-147"/>
<image xlink:href="../../images/foreignKeys.png" width="11px" height="12px" preserveAspectRatio="xMinYMin meet" x="202" y="-164"/>
<text text-anchor="start" x="217" y="-155.2" font-family="Helvetica,sans-Serif" font-size="11.00">object_uuid</text>
<polygon fill="none" stroke="black" points="311,-147 311,-169 447,-169 447,-147 311,-147"/>
<text text-anchor="start" x="314" y="-155.2" font-family="Helvetica,sans-Serif" font-size="11.00">uuid[2147483647]</text>
<polygon fill="none" stroke="black" points="197,-125 197,-147 311,-147 311,-125 197,-125"/>
<image xlink:href="../../images/foreignKeys.png" width="11px" height="12px" preserveAspectRatio="xMinYMin meet" x="202" y="-142"/>
<text text-anchor="start" x="217" y="-133.2" font-family="Helvetica,sans-Serif" font-size="11.00">verbinding_id</text>
<polygon fill="none" stroke="black" points="311,-125 311,-147 447,-147 447,-125 311,-125"/>
<text text-anchor="start" x="314" y="-133.2" font-family="Helvetica,sans-Serif" font-size="11.00">int2[5]</text>
<polygon fill="none" stroke="black" points="197,-103 197,-125 311,-125 311,-103 197,-103"/>
<text text-anchor="start" x="217" y="-111.2" font-family="Helvetica,sans-Serif" font-size="11.00">obstakels</text>
<polygon fill="none" stroke="black" points="311,-103 311,-125 447,-125 447,-103 311,-103"/>
<text text-anchor="start" x="314" y="-111.2" font-family="Helvetica,sans-Serif" font-size="11.00">varchar[50]</text>
<polygon fill="#ffffff" stroke="transparent" points="197,-85 197,-103 260,-103 260,-85 197,-85"/>
<polygon fill="none" stroke="black" points="197,-85 197,-103 260,-103 260,-85 197,-85"/>
<text text-anchor="start" x="200" y="-91.2" font-family="Helvetica,sans-Serif" font-size="11.00">&lt; 2</text>
<polygon fill="#ffffff" stroke="transparent" points="260,-85 260,-103 311,-103 311,-85 260,-85"/>
<polygon fill="none" stroke="black" points="260,-85 260,-103 311,-103 311,-85 260,-85"/>
<text text-anchor="start" x="300" y="-91.2" font-family="Helvetica,sans-Serif" font-size="11.00"> &#160;</text>
<polygon fill="#ffffff" stroke="transparent" points="311,-85 311,-103 447,-103 447,-85 311,-85"/>
<polygon fill="none" stroke="black" points="311,-85 311,-103 447,-103 447,-85 311,-85"/>
<text text-anchor="start" x="424" y="-91.2" font-family="Helvetica,sans-Serif" font-size="11.00">0 &gt;</text>
<polygon fill="none" stroke="black" stroke-width="2" points="196,-84 196,-368 448,-368 448,-84 196,-84"/>
</a>
</g>
</g>
<!-- object -->
<g id="node2" class="node">
<title>object</title>
<g id="a_node2"><a xlink:href="../../tables/object.html" xlink:title="object" target="_top">
<polygon fill="#ffffff" stroke="transparent" points="12.5,-116 12.5,-262 141.5,-262 141.5,-116 12.5,-116"/>
<polygon fill="#f5f5f5" stroke="transparent" points="13,-240 13,-262 142,-262 142,-240 13,-240"/>
<polygon fill="none" stroke="black" points="13,-240 13,-262 142,-262 142,-240 13,-240"/>
<text text-anchor="start" x="18" y="-249.2" font-family="Helvetica,sans-Serif" font-weight="bold" font-size="11.00">object</text>
<text text-anchor="start" x="100" y="-248.2" font-family="Helvetica,sans-Serif" font-size="11.00">[table]</text>
<polygon fill="none" stroke="black" points="13,-218 13,-240 142,-240 142,-218 13,-218"/>
<image xlink:href="../../images/primaryKeys.png" width="11px" height="12px" preserveAspectRatio="xMinYMin meet" x="18" y="-235"/>
<text text-anchor="start" x="33" y="-226.2" font-family="Helvetica,sans-Serif" font-size="11.00">uuid</text>
<polygon fill="#ffffff" stroke="transparent" points="13,-196 13,-218 142,-218 142,-196 13,-196"/>
<polygon fill="none" stroke="black" points="13,-196 13,-218 142,-218 142,-196 13,-196"/>
<text text-anchor="start" x="33" y="-204.2" font-family="Helvetica,sans-Serif" font-size="11.00">geom</text>
<polygon fill="#ffffff" stroke="transparent" points="13,-174 13,-196 142,-196 142,-174 13,-174"/>
<polygon fill="none" stroke="black" points="13,-174 13,-196 142,-196 142,-174 13,-174"/>
<text text-anchor="start" x="33" y="-182.2" font-family="Helvetica,sans-Serif" font-size="11.00">revisie_frequentie</text>
<polygon fill="#ffffff" stroke="transparent" points="13,-152 13,-174 142,-174 142,-152 13,-152"/>
<polygon fill="none" stroke="black" points="13,-152 13,-174 142,-174 142,-152 13,-152"/>
<image xlink:href="../../images/foreignKeys.png" width="11px" height="12px" preserveAspectRatio="xMinYMin meet" x="18" y="-169"/>
<text text-anchor="start" x="33" y="-160.2" font-family="Helvetica,sans-Serif" font-size="11.00">fase_id</text>
<polygon fill="none" stroke="black" points="13,-134 13,-152 142,-152 142,-134 13,-134"/>
<text text-anchor="start" x="16" y="-140.2" font-family="Helvetica,sans-Serif" font-size="11.00">...</text>
<polygon fill="#ffffff" stroke="transparent" points="13,-116 13,-134 67,-134 67,-116 13,-116"/>
<polygon fill="none" stroke="black" points="13,-116 13,-134 67,-134 67,-116 13,-116"/>
<text text-anchor="start" x="16" y="-122.2" font-family="Helvetica,sans-Serif" font-size="11.00">&lt; 1</text>
<polygon fill="#ffffff" stroke="transparent" points="67,-116 67,-134 95,-134 95,-116 67,-116"/>
<polygon fill="none" stroke="black" points="67,-116 67,-134 95,-134 95,-116 67,-116"/>
<text text-anchor="start" x="84" y="-122.2" font-family="Helvetica,sans-Serif" font-size="11.00"> &#160;</text>
<polygon fill="#ffffff" stroke="transparent" points="95,-116 95,-134 142,-134 142,-116 95,-116"/>
<polygon fill="none" stroke="black" points="95,-116 95,-134 142,-134 142,-116 95,-116"/>
<text text-anchor="start" x="112" y="-122.2" font-family="Helvetica,sans-Serif" font-size="11.00">10 &gt;</text>
</a>
</g>
</g>
<!-- bereikbaarheid&#45;&gt;object -->
<g id="edge1" class="edge">
<title>bereikbaarheid:w&#45;&gt;object:e</title>
<path fill="none" stroke="black" d="M182.08,-162.44C162.96,-177.99 176.38,-229 143,-229"/>
<polygon fill="black" stroke="black" points="188.38,-160.43 197.09,-161.43 192.19,-159.22 196,-158 196,-158 196,-158 192.19,-159.22 194.91,-154.57 188.38,-160.43 188.38,-160.43"/>
<ellipse fill="none" stroke="black" cx="185.33" cy="-161.4" rx="3.2" ry="3.2"/>
</g>
<!-- roi.verbinding -->
<g id="node3" class="node">
<title>roi.verbinding</title>
<g id="a_node3"><a xlink:href="../../../roi/tables/verbinding.html" xlink:title="roi.verbinding" target="_top">
<polygon fill="#ffffff" stroke="transparent" points="8,-37 8,-95 146,-95 146,-37 8,-37"/>
<polygon fill="#f5f5f5" stroke="transparent" points="8,-73 8,-95 146,-95 146,-73 8,-73"/>
<polygon fill="none" stroke="black" points="8,-73 8,-95 146,-95 146,-73 8,-73"/>
<text text-anchor="start" x="13" y="-82.2" font-family="Helvetica,sans-Serif" font-weight="bold" font-size="11.00">roi.verbinding</text>
<text text-anchor="start" x="104" y="-81.2" font-family="Helvetica,sans-Serif" font-size="11.00">[table]</text>
<polygon fill="none" stroke="black" points="8,-55 8,-73 146,-73 146,-55 8,-55"/>
<text text-anchor="start" x="11" y="-61.2" font-family="Helvetica,sans-Serif" font-size="11.00">...</text>
<polygon fill="#ffffff" stroke="transparent" points="8,-37 8,-55 64,-55 64,-37 8,-37"/>
<polygon fill="none" stroke="black" points="8,-37 8,-55 64,-55 64,-37 8,-37"/>
<text text-anchor="start" x="11" y="-43.2" font-family="Helvetica,sans-Serif" font-size="11.00"> &#160;</text>
<polygon fill="#ffffff" stroke="transparent" points="64,-37 64,-55 99,-55 99,-37 64,-37"/>
<polygon fill="none" stroke="black" points="64,-37 64,-55 99,-55 99,-37 64,-37"/>
<text text-anchor="start" x="88" y="-43.2" font-family="Helvetica,sans-Serif" font-size="11.00"> &#160;</text>
<polygon fill="#ffffff" stroke="transparent" points="99,-37 99,-55 146,-55 146,-37 99,-37"/>
<polygon fill="none" stroke="black" points="99,-37 99,-55 146,-55 146,-37 99,-37"/>
<text text-anchor="start" x="123" y="-43.2" font-family="Helvetica,sans-Serif" font-size="11.00">1 &gt;</text>
</a>
</g>
</g>
<!-- bereikbaarheid&#45;&gt;roi.verbinding -->
<g id="edge2" class="edge">
<title>bereikbaarheid:w&#45;&gt;roi.verbinding:e</title>
<path fill="none" stroke="black" d="M181.86,-132.65C171.9,-126.88 168.34,-114.84 154,-106 150.32,-103.73 146.5,-101.46 142.61,-99.22"/>
<polygon fill="black" stroke="black" points="188.22,-134.15 195.17,-139.5 192.11,-135.08 196,-136 196,-136 196,-136 192.11,-135.08 196.83,-132.5 188.22,-134.15 188.22,-134.15"/>
<ellipse fill="none" stroke="black" cx="185.1" cy="-133.41" rx="3.2" ry="3.2"/>
</g>
</g>
</svg>
