<?xml version="1.0" encoding="UTF-8" standalone="no"?>
<!DOCTYPE svg PUBLIC "-//W3C//DTD SVG 1.1//EN"
 "http://www.w3.org/Graphics/SVG/1.1/DTD/svg11.dtd">
<!-- Generated by graphviz version 2.40.1 (20161225.0304)
 -->
<!-- Title: oneDegreeRelationshipsDiagram Pages: 1 -->
<svg width="428pt" height="398pt"
 viewBox="0.00 0.00 428.00 397.70" xmlns="http://www.w3.org/2000/svg" xmlns:xlink="http://www.w3.org/1999/xlink">
<g id="graph0" class="graph" transform="scale(1 1) rotate(0) translate(4 393.7)">
<title>oneDegreeRelationshipsDiagram</title>
<polygon fill="#ffffff" stroke="transparent" points="-4,4 -4,-393.7 424,-393.7 424,4 -4,4"/>
<text text-anchor="middle" x="72.4936" y="-7.3" font-family="Helvetica,sans-Serif" font-size="11.00" fill="#000000">Generated by SchemaSpy</text>
<!-- bereikbaarheid -->
<g id="node1" class="node">
<title>bereikbaarheid</title>
<g id="a_node1"><a xlink:href="../../tables/bereikbaarheid.html" xlink:title="bereikbaarheid" target="_top">
<polygon fill="#ffffff" stroke="transparent" points="180,-75.7 180,-385.7 412,-385.7 412,-75.7 180,-75.7"/>
<polygon fill="#f5f5f5" stroke="transparent" points="182,-360.7 182,-383.7 410,-383.7 410,-360.7 182,-360.7"/>
<polygon fill="none" stroke="#000000" points="182,-360.7 182,-383.7 410,-383.7 410,-360.7 182,-360.7"/>
<text text-anchor="start" x="187" y="-369.3" font-family="Helvetica,sans-Serif" font-weight="bold" font-size="11.00" fill="#000000">bereikbaarheid</text>
<text text-anchor="start" x="375.0437" y="-368.8" font-family="Helvetica,sans-Serif" font-size="11.00" fill="#000000">[table]</text>
<polygon fill="none" stroke="#000000" points="182,-338.7 182,-360.7 291,-360.7 291,-338.7 182,-338.7"/>
<image xlink:href="../../images/primaryKeys.png" width="11px" height="12px" preserveAspectRatio="xMinYMin meet" x="187" y="-355.7"/>
<text text-anchor="start" x="202" y="-345.8" font-family="Helvetica,sans-Serif" font-size="11.00" fill="#000000">uuid</text>
<polygon fill="none" stroke="#000000" points="291,-338.7 291,-360.7 410,-360.7 410,-338.7 291,-338.7"/>
<text text-anchor="start" x="294" y="-346.4" font-family="Helvetica,sans-Serif" font-size="11.00" fill="#000000">uuid[2147483647]</text>
<polygon fill="#ffffff" stroke="transparent" points="182,-316.7 182,-338.7 291,-338.7 291,-316.7 182,-316.7"/>
<polygon fill="none" stroke="#000000" points="182,-316.7 182,-338.7 291,-338.7 291,-316.7 182,-316.7"/>
<text text-anchor="start" x="202" y="-323.8" font-family="Helvetica,sans-Serif" font-size="11.00" fill="#000000">geom</text>
<polygon fill="none" stroke="#000000" points="291,-316.7 291,-338.7 410,-338.7 410,-316.7 291,-316.7"/>
<text text-anchor="start" x="293.9485" y="-324.4" font-family="Helvetica,sans-Serif" font-size="11.00" fill="#000000">geometry[2147483647]</text>
<polygon fill="none" stroke="#000000" points="182,-294.7 182,-316.7 291,-316.7 291,-294.7 182,-294.7"/>
<text text-anchor="start" x="202" y="-301.8" font-family="Helvetica,sans-Serif" font-size="11.00" fill="#000000">datumtijd</text>
<polygon fill="none" stroke="#000000" points="291,-294.7 291,-316.7 410,-316.7 410,-294.7 291,-294.7"/>
<text text-anchor="start" x="294" y="-302.4" font-family="Helvetica,sans-Serif" font-size="11.00" fill="#000000">timestamptz[35,6]</text>
<polygon fill="none" stroke="#000000" points="182,-272.7 182,-294.7 291,-294.7 291,-272.7 182,-272.7"/>
<text text-anchor="start" x="202" y="-279.8" font-family="Helvetica,sans-Serif" font-size="11.00" fill="#000000">gebruiker</text>
<polygon fill="none" stroke="#000000" points="291,-272.7 291,-294.7 410,-294.7 410,-272.7 291,-272.7"/>
<text text-anchor="start" x="294" y="-280.4" font-family="Helvetica,sans-Serif" font-size="11.00" fill="#000000">varchar[255]</text>
<polygon fill="none" stroke="#000000" points="182,-250.7 182,-272.7 291,-272.7 291,-250.7 182,-250.7"/>
<text text-anchor="start" x="202" y="-257.8" font-family="Helvetica,sans-Serif" font-size="11.00" fill="#000000">label</text>
<polygon fill="none" stroke="#000000" points="291,-250.7 291,-272.7 410,-272.7 410,-250.7 291,-250.7"/>
<text text-anchor="start" x="294" y="-258.4" font-family="Helvetica,sans-Serif" font-size="11.00" fill="#000000">text[2147483647]</text>
<polygon fill="none" stroke="#000000" points="182,-228.7 182,-250.7 291,-250.7 291,-228.7 182,-228.7"/>
<text text-anchor="start" x="202" y="-235.8" font-family="Helvetica,sans-Serif" font-size="11.00" fill="#000000">rotatie</text>
<polygon fill="none" stroke="#000000" points="291,-228.7 291,-250.7 410,-250.7 410,-228.7 291,-228.7"/>
<text text-anchor="start" x="294" y="-236.4" font-family="Helvetica,sans-Serif" font-size="11.00" fill="#000000">int4[10]</text>
<polygon fill="none" stroke="#000000" points="182,-206.7 182,-228.7 291,-228.7 291,-206.7 182,-206.7"/>
<text text-anchor="start" x="202" y="-213.8" font-family="Helvetica,sans-Serif" font-size="11.00" fill="#000000">bijzonderheden</text>
<polygon fill="none" stroke="#000000" points="291,-206.7 291,-228.7 410,-228.7 410,-206.7 291,-206.7"/>
<text text-anchor="start" x="294" y="-214.4" font-family="Helvetica,sans-Serif" font-size="11.00" fill="#000000">text[2147483647]</text>
<polygon fill="none" stroke="#000000" points="182,-184.7 182,-206.7 291,-206.7 291,-184.7 182,-184.7"/>
<text text-anchor="start" x="202" y="-191.8" font-family="Helvetica,sans-Serif" font-size="11.00" fill="#000000">plusinfo</text>
<polygon fill="none" stroke="#000000" points="291,-184.7 291,-206.7 410,-206.7 410,-184.7 291,-184.7"/>
<text text-anchor="start" x="294" y="-192.4" font-family="Helvetica,sans-Serif" font-size="11.00" fill="#000000">jsonb[2147483647]</text>
<polygon fill="#ffffff" stroke="transparent" points="182,-162.7 182,-184.7 291,-184.7 291,-162.7 182,-162.7"/>
<polygon fill="none" stroke="#000000" points="182,-162.7 182,-184.7 291,-184.7 291,-162.7 182,-162.7"/>
<image xlink:href="../../images/foreignKeys.png" width="11px" height="12px" preserveAspectRatio="xMinYMin meet" x="187" y="-179.7"/>
<text text-anchor="start" x="202" y="-169.8" font-family="Helvetica,sans-Serif" font-size="11.00" fill="#000000">object_uuid</text>
<polygon fill="none" stroke="#000000" points="291,-162.7 291,-184.7 410,-184.7 410,-162.7 291,-162.7"/>
<text text-anchor="start" x="294" y="-170.4" font-family="Helvetica,sans-Serif" font-size="11.00" fill="#000000">uuid[2147483647]</text>
<polygon fill="none" stroke="#000000" points="182,-140.7 182,-162.7 291,-162.7 291,-140.7 182,-140.7"/>
<text text-anchor="start" x="202" y="-147.8" font-family="Helvetica,sans-Serif" font-size="11.00" fill="#000000">bouwlaag</text>
<polygon fill="none" stroke="#000000" points="291,-140.7 291,-162.7 410,-162.7 410,-140.7 291,-140.7"/>
<text text-anchor="start" x="294" y="-148.4" font-family="Helvetica,sans-Serif" font-size="11.00" fill="#000000">int2[5]</text>
<polygon fill="none" stroke="#000000" points="182,-118.7 182,-140.7 291,-140.7 291,-118.7 182,-118.7"/>
<image xlink:href="../../images/foreignKeys.png" width="11px" height="12px" preserveAspectRatio="xMinYMin meet" x="187" y="-135.7"/>
<text text-anchor="start" x="202" y="-125.8" font-family="Helvetica,sans-Serif" font-size="11.00" fill="#000000">verbinding_id</text>
<polygon fill="none" stroke="#000000" points="291,-118.7 291,-140.7 410,-140.7 410,-118.7 291,-118.7"/>
<text text-anchor="start" x="294" y="-126.4" font-family="Helvetica,sans-Serif" font-size="11.00" fill="#000000">int2[5]</text>
<polygon fill="none" stroke="#000000" points="182,-96.7 182,-118.7 291,-118.7 291,-96.7 182,-96.7"/>
<text text-anchor="start" x="202" y="-103.8" font-family="Helvetica,sans-Serif" font-size="11.00" fill="#000000">obstakels</text>
<polygon fill="none" stroke="#000000" points="291,-96.7 291,-118.7 410,-118.7 410,-96.7 291,-96.7"/>
<text text-anchor="start" x="294" y="-104.4" font-family="Helvetica,sans-Serif" font-size="11.00" fill="#000000">varchar[50]</text>
<polygon fill="#ffffff" stroke="transparent" points="182,-77.7 182,-96.7 241,-96.7 241,-77.7 182,-77.7"/>
<polygon fill="none" stroke="#000000" points="182,-77.7 182,-96.7 241,-96.7 241,-77.7 182,-77.7"/>
<text text-anchor="start" x="185" y="-83.8" font-family="Helvetica,sans-Serif" font-size="11.00" fill="#000000">&lt; 2</text>
<polygon fill="#ffffff" stroke="transparent" points="241,-77.7 241,-96.7 291,-96.7 291,-77.7 241,-77.7"/>
<polygon fill="none" stroke="#000000" points="241,-77.7 241,-96.7 291,-96.7 291,-77.7 241,-77.7"/>
<text text-anchor="start" x="281.8862" y="-83.8" font-family="Helvetica,sans-Serif" font-size="11.00" fill="#000000"> &#160;</text>
<polygon fill="#ffffff" stroke="transparent" points="291,-77.7 291,-96.7 410,-96.7 410,-77.7 291,-77.7"/>
<polygon fill="none" stroke="#000000" points="291,-77.7 291,-96.7 410,-96.7 410,-77.7 291,-77.7"/>
<text text-anchor="start" x="391.4053" y="-83.8" font-family="Helvetica,sans-Serif" font-size="11.00" fill="#000000">0 &gt;</text>
<polygon fill="none" stroke="#000000" stroke-width="2" points="181,-76.7 181,-384.7 411,-384.7 411,-76.7 181,-76.7"/>
</a>
</g>
</g>
<!-- object -->
<g id="node2" class="node">
<title>object</title>
<g id="a_node2"><a xlink:href="../../tables/object.html" xlink:title="object" target="_top">
<polygon fill="#ffffff" stroke="transparent" points="8,-120.2 8,-269.2 131,-269.2 131,-120.2 8,-120.2"/>
<polygon fill="#f5f5f5" stroke="transparent" points="8.5,-245.7 8.5,-268.7 131.5,-268.7 131.5,-245.7 8.5,-245.7"/>
<polygon fill="none" stroke="#000000" points="8.5,-245.7 8.5,-268.7 131.5,-268.7 131.5,-245.7 8.5,-245.7"/>
<text text-anchor="start" x="13.5" y="-254.3" font-family="Helvetica,sans-Serif" font-weight="bold" font-size="11.00" fill="#000000">object</text>
<text text-anchor="start" x="96.5437" y="-253.8" font-family="Helvetica,sans-Serif" font-size="11.00" fill="#000000">[table]</text>
<polygon fill="none" stroke="#000000" points="8.5,-223.7 8.5,-245.7 131.5,-245.7 131.5,-223.7 8.5,-223.7"/>
<image xlink:href="../../images/primaryKeys.png" width="11px" height="12px" preserveAspectRatio="xMinYMin meet" x="13.5" y="-240.7"/>
<text text-anchor="start" x="28.5" y="-230.8" font-family="Helvetica,sans-Serif" font-size="11.00" fill="#000000">uuid</text>
<polygon fill="#ffffff" stroke="transparent" points="8.5,-201.7 8.5,-223.7 131.5,-223.7 131.5,-201.7 8.5,-201.7"/>
<polygon fill="none" stroke="#000000" points="8.5,-201.7 8.5,-223.7 131.5,-223.7 131.5,-201.7 8.5,-201.7"/>
<text text-anchor="start" x="28.5" y="-208.8" font-family="Helvetica,sans-Serif" font-size="11.00" fill="#000000">geom</text>
<polygon fill="#ffffff" stroke="transparent" points="8.5,-179.7 8.5,-201.7 131.5,-201.7 131.5,-179.7 8.5,-179.7"/>
<polygon fill="none" stroke="#000000" points="8.5,-179.7 8.5,-201.7 131.5,-201.7 131.5,-179.7 8.5,-179.7"/>
<text text-anchor="start" x="28.5" y="-186.8" font-family="Helvetica,sans-Serif" font-size="11.00" fill="#000000">revisie_frequentie</text>
<polygon fill="#ffffff" stroke="transparent" points="8.5,-157.7 8.5,-179.7 131.5,-179.7 131.5,-157.7 8.5,-157.7"/>
<polygon fill="none" stroke="#000000" points="8.5,-157.7 8.5,-179.7 131.5,-179.7 131.5,-157.7 8.5,-157.7"/>
<image xlink:href="../../images/foreignKeys.png" width="11px" height="12px" preserveAspectRatio="xMinYMin meet" x="13.5" y="-174.7"/>
<text text-anchor="start" x="28.5" y="-164.8" font-family="Helvetica,sans-Serif" font-size="11.00" fill="#000000">fase_id</text>
<polygon fill="none" stroke="#000000" points="8.5,-138.7 8.5,-157.7 131.5,-157.7 131.5,-138.7 8.5,-138.7"/>
<text text-anchor="start" x="11.5" y="-144.8" font-family="Helvetica,sans-Serif" font-size="11.00" fill="#000000">...</text>
<polygon fill="#ffffff" stroke="transparent" points="8.5,-119.7 8.5,-138.7 60.5,-138.7 60.5,-119.7 8.5,-119.7"/>
<polygon fill="none" stroke="#000000" points="8.5,-119.7 8.5,-138.7 60.5,-138.7 60.5,-119.7 8.5,-119.7"/>
<text text-anchor="start" x="11.5" y="-125.8" font-family="Helvetica,sans-Serif" font-size="11.00" fill="#000000">&lt; 1</text>
<polygon fill="#ffffff" stroke="transparent" points="60.5,-119.7 60.5,-138.7 88.5,-138.7 88.5,-119.7 60.5,-119.7"/>
<polygon fill="none" stroke="#000000" points="60.5,-119.7 60.5,-138.7 88.5,-138.7 88.5,-119.7 60.5,-119.7"/>
<text text-anchor="start" x="79.3862" y="-125.8" font-family="Helvetica,sans-Serif" font-size="11.00" fill="#000000"> &#160;</text>
<polygon fill="#ffffff" stroke="transparent" points="88.5,-119.7 88.5,-138.7 131.5,-138.7 131.5,-119.7 88.5,-119.7"/>
<polygon fill="none" stroke="#000000" points="88.5,-119.7 88.5,-138.7 131.5,-138.7 131.5,-119.7 88.5,-119.7"/>
<text text-anchor="start" x="106.7904" y="-125.8" font-family="Helvetica,sans-Serif" font-size="11.00" fill="#000000">10 &gt;</text>
</a>
</g>
</g>
<!-- bereikbaarheid&#45;&gt;object -->
<g id="edge1" class="edge">
<title>bereikbaarheid:w&#45;&gt;object:e</title>
<path fill="none" stroke="#000000" d="M168.1747,-178.4866C152.0145,-192.8667 160.6468,-234.7 131.5,-234.7"/>
<polygon fill="#000000" stroke="#000000" points="174.4403,-176.3174 183.1778,-177.1019 178.2201,-175.0087 182,-173.7 182,-173.7 182,-173.7 178.2201,-175.0087 180.8222,-170.2981 174.4403,-176.3174 174.4403,-176.3174"/>
<ellipse fill="none" stroke="#000000" cx="171.4164" cy="-177.3643" rx="3.2" ry="3.2"/>
</g>
<!-- roi.verbinding -->
<g id="node3" class="node">
<title>roi.verbinding</title>
<g id="a_node3"><a xlink:href="../../../roi/tables/verbinding.html" xlink:title="roi.verbinding" target="_top">
<polygon fill="#ffffff" stroke="transparent" points="10,-38.2 10,-99.2 129,-99.2 129,-38.2 10,-38.2"/>
<polygon fill="#f5f5f5" stroke="transparent" points="10.5,-75.7 10.5,-98.7 129.5,-98.7 129.5,-75.7 10.5,-75.7"/>
<polygon fill="none" stroke="#000000" points="10.5,-75.7 10.5,-98.7 129.5,-98.7 129.5,-75.7 10.5,-75.7"/>
<text text-anchor="start" x="15.5" y="-84.3" font-family="Helvetica,sans-Serif" font-weight="bold" font-size="11.00" fill="#000000">roi.verbinding</text>
<text text-anchor="start" x="95.0219" y="-83.8" font-family="Helvetica,sans-Serif" font-size="11.00" fill="#000000">[table]</text>
<polygon fill="none" stroke="#000000" points="10.5,-56.7 10.5,-75.7 129.5,-75.7 129.5,-56.7 10.5,-56.7"/>
<text text-anchor="start" x="13.5" y="-62.8" font-family="Helvetica,sans-Serif" font-size="11.00" fill="#000000">...</text>
<polygon fill="#ffffff" stroke="transparent" points="10.5,-37.7 10.5,-56.7 59.5,-56.7 59.5,-37.7 10.5,-37.7"/>
<polygon fill="none" stroke="#000000" points="10.5,-37.7 10.5,-56.7 59.5,-56.7 59.5,-37.7 10.5,-37.7"/>
<text text-anchor="start" x="13.5" y="-43.8" font-family="Helvetica,sans-Serif" font-size="11.00" fill="#000000"> &#160;</text>
<polygon fill="#ffffff" stroke="transparent" points="59.5,-37.7 59.5,-56.7 89.5,-56.7 89.5,-37.7 59.5,-37.7"/>
<polygon fill="none" stroke="#000000" points="59.5,-37.7 59.5,-56.7 89.5,-56.7 89.5,-37.7 59.5,-37.7"/>
<text text-anchor="start" x="80.3862" y="-43.8" font-family="Helvetica,sans-Serif" font-size="11.00" fill="#000000"> &#160;</text>
<polygon fill="#ffffff" stroke="transparent" points="89.5,-37.7 89.5,-56.7 129.5,-56.7 129.5,-37.7 89.5,-37.7"/>
<polygon fill="none" stroke="#000000" points="89.5,-37.7 89.5,-56.7 129.5,-56.7 129.5,-37.7 89.5,-37.7"/>
<text text-anchor="start" x="110.9053" y="-43.8" font-family="Helvetica,sans-Serif" font-size="11.00" fill="#000000">1 &gt;</text>
</a>
</g>
</g>
<!-- bereikbaarheid&#45;&gt;roi.verbinding -->
<g id="edge2" class="edge">
<title>bereikbaarheid:w&#45;&gt;roi.verbinding:e</title>
<path fill="none" stroke="#000000" d="M168.4789,-123.8182C158.6551,-118.839 144.7352,-111.2588 130.428,-103.2993"/>
<polygon fill="#000000" stroke="#000000" points="174.664,-126.5088 180.5639,-133.0012 178.332,-128.1044 182,-129.7 182,-129.7 182,-129.7 178.332,-128.1044 183.4361,-126.3988 174.664,-126.5088 174.664,-126.5088"/>
<ellipse fill="none" stroke="#000000" cx="171.7297" cy="-125.2323" rx="3.2" ry="3.2"/>
</g>
</g>
</svg>
