<?xml version="1.0" encoding="UTF-8" standalone="no"?>
<!DOCTYPE svg PUBLIC "-//W3C//DTD SVG 1.1//EN"
 "http://www.w3.org/Graphics/SVG/1.1/DTD/svg11.dtd">
<!-- Generated by graphviz version 2.40.1 (20161225.0304)
 -->
<!-- Title: twoDegreesRelationshipsDiagram Pages: 1 -->
<svg width="558pt" height="1099pt"
 viewBox="0.00 0.00 558.00 1098.70" xmlns="http://www.w3.org/2000/svg" xmlns:xlink="http://www.w3.org/1999/xlink">
<g id="graph0" class="graph" transform="scale(1 1) rotate(0) translate(4 1094.7)">
<title>twoDegreesRelationshipsDiagram</title>
<polygon fill="#ffffff" stroke="transparent" points="-4,4 -4,-1094.7 554,-1094.7 554,4 -4,4"/>
<text text-anchor="middle" x="72.4936" y="-7.3" font-family="Helvetica,sans-Serif" font-size="11.00" fill="#000000">Generated by SchemaSpy</text>
<!-- bereikbaarheid -->
<g id="node1" class="node">
<title>bereikbaarheid</title>
<g id="a_node1"><a xlink:href="../../tables/bereikbaarheid.html" xlink:title="bereikbaarheid" target="_top">
<polygon fill="#ffffff" stroke="transparent" points="310,-776.7 310,-1086.7 542,-1086.7 542,-776.7 310,-776.7"/>
<polygon fill="#f5f5f5" stroke="transparent" points="312,-1061.7 312,-1084.7 540,-1084.7 540,-1061.7 312,-1061.7"/>
<polygon fill="none" stroke="#000000" points="312,-1061.7 312,-1084.7 540,-1084.7 540,-1061.7 312,-1061.7"/>
<text text-anchor="start" x="317" y="-1070.3" font-family="Helvetica,sans-Serif" font-weight="bold" font-size="11.00" fill="#000000">bereikbaarheid</text>
<text text-anchor="start" x="505.0437" y="-1069.8" font-family="Helvetica,sans-Serif" font-size="11.00" fill="#000000">[table]</text>
<polygon fill="none" stroke="#000000" points="312,-1039.7 312,-1061.7 421,-1061.7 421,-1039.7 312,-1039.7"/>
<image xlink:href="../../images/primaryKeys.png" width="11px" height="12px" preserveAspectRatio="xMinYMin meet" x="317" y="-1056.7"/>
<text text-anchor="start" x="332" y="-1046.8" font-family="Helvetica,sans-Serif" font-size="11.00" fill="#000000">uuid</text>
<polygon fill="none" stroke="#000000" points="421,-1039.7 421,-1061.7 540,-1061.7 540,-1039.7 421,-1039.7"/>
<text text-anchor="start" x="424" y="-1047.4" font-family="Helvetica,sans-Serif" font-size="11.00" fill="#000000">uuid[2147483647]</text>
<polygon fill="#ffffff" stroke="transparent" points="312,-1017.7 312,-1039.7 421,-1039.7 421,-1017.7 312,-1017.7"/>
<polygon fill="none" stroke="#000000" points="312,-1017.7 312,-1039.7 421,-1039.7 421,-1017.7 312,-1017.7"/>
<text text-anchor="start" x="332" y="-1024.8" font-family="Helvetica,sans-Serif" font-size="11.00" fill="#000000">geom</text>
<polygon fill="none" stroke="#000000" points="421,-1017.7 421,-1039.7 540,-1039.7 540,-1017.7 421,-1017.7"/>
<text text-anchor="start" x="423.9485" y="-1025.4" font-family="Helvetica,sans-Serif" font-size="11.00" fill="#000000">geometry[2147483647]</text>
<polygon fill="none" stroke="#000000" points="312,-995.7 312,-1017.7 421,-1017.7 421,-995.7 312,-995.7"/>
<text text-anchor="start" x="332" y="-1002.8" font-family="Helvetica,sans-Serif" font-size="11.00" fill="#000000">datumtijd</text>
<polygon fill="none" stroke="#000000" points="421,-995.7 421,-1017.7 540,-1017.7 540,-995.7 421,-995.7"/>
<text text-anchor="start" x="424" y="-1003.4" font-family="Helvetica,sans-Serif" font-size="11.00" fill="#000000">timestamptz[35,6]</text>
<polygon fill="none" stroke="#000000" points="312,-973.7 312,-995.7 421,-995.7 421,-973.7 312,-973.7"/>
<text text-anchor="start" x="332" y="-980.8" font-family="Helvetica,sans-Serif" font-size="11.00" fill="#000000">gebruiker</text>
<polygon fill="none" stroke="#000000" points="421,-973.7 421,-995.7 540,-995.7 540,-973.7 421,-973.7"/>
<text text-anchor="start" x="424" y="-981.4" font-family="Helvetica,sans-Serif" font-size="11.00" fill="#000000">varchar[255]</text>
<polygon fill="none" stroke="#000000" points="312,-951.7 312,-973.7 421,-973.7 421,-951.7 312,-951.7"/>
<text text-anchor="start" x="332" y="-958.8" font-family="Helvetica,sans-Serif" font-size="11.00" fill="#000000">label</text>
<polygon fill="none" stroke="#000000" points="421,-951.7 421,-973.7 540,-973.7 540,-951.7 421,-951.7"/>
<text text-anchor="start" x="424" y="-959.4" font-family="Helvetica,sans-Serif" font-size="11.00" fill="#000000">text[2147483647]</text>
<polygon fill="none" stroke="#000000" points="312,-929.7 312,-951.7 421,-951.7 421,-929.7 312,-929.7"/>
<text text-anchor="start" x="332" y="-936.8" font-family="Helvetica,sans-Serif" font-size="11.00" fill="#000000">rotatie</text>
<polygon fill="none" stroke="#000000" points="421,-929.7 421,-951.7 540,-951.7 540,-929.7 421,-929.7"/>
<text text-anchor="start" x="424" y="-937.4" font-family="Helvetica,sans-Serif" font-size="11.00" fill="#000000">int4[10]</text>
<polygon fill="none" stroke="#000000" points="312,-907.7 312,-929.7 421,-929.7 421,-907.7 312,-907.7"/>
<text text-anchor="start" x="332" y="-914.8" font-family="Helvetica,sans-Serif" font-size="11.00" fill="#000000">bijzonderheden</text>
<polygon fill="none" stroke="#000000" points="421,-907.7 421,-929.7 540,-929.7 540,-907.7 421,-907.7"/>
<text text-anchor="start" x="424" y="-915.4" font-family="Helvetica,sans-Serif" font-size="11.00" fill="#000000">text[2147483647]</text>
<polygon fill="none" stroke="#000000" points="312,-885.7 312,-907.7 421,-907.7 421,-885.7 312,-885.7"/>
<text text-anchor="start" x="332" y="-892.8" font-family="Helvetica,sans-Serif" font-size="11.00" fill="#000000">plusinfo</text>
<polygon fill="none" stroke="#000000" points="421,-885.7 421,-907.7 540,-907.7 540,-885.7 421,-885.7"/>
<text text-anchor="start" x="424" y="-893.4" font-family="Helvetica,sans-Serif" font-size="11.00" fill="#000000">jsonb[2147483647]</text>
<polygon fill="#ffffff" stroke="transparent" points="312,-863.7 312,-885.7 421,-885.7 421,-863.7 312,-863.7"/>
<polygon fill="none" stroke="#000000" points="312,-863.7 312,-885.7 421,-885.7 421,-863.7 312,-863.7"/>
<image xlink:href="../../images/foreignKeys.png" width="11px" height="12px" preserveAspectRatio="xMinYMin meet" x="317" y="-880.7"/>
<text text-anchor="start" x="332" y="-870.8" font-family="Helvetica,sans-Serif" font-size="11.00" fill="#000000">object_uuid</text>
<polygon fill="none" stroke="#000000" points="421,-863.7 421,-885.7 540,-885.7 540,-863.7 421,-863.7"/>
<text text-anchor="start" x="424" y="-871.4" font-family="Helvetica,sans-Serif" font-size="11.00" fill="#000000">uuid[2147483647]</text>
<polygon fill="none" stroke="#000000" points="312,-841.7 312,-863.7 421,-863.7 421,-841.7 312,-841.7"/>
<text text-anchor="start" x="332" y="-848.8" font-family="Helvetica,sans-Serif" font-size="11.00" fill="#000000">bouwlaag</text>
<polygon fill="none" stroke="#000000" points="421,-841.7 421,-863.7 540,-863.7 540,-841.7 421,-841.7"/>
<text text-anchor="start" x="424" y="-849.4" font-family="Helvetica,sans-Serif" font-size="11.00" fill="#000000">int2[5]</text>
<polygon fill="none" stroke="#000000" points="312,-819.7 312,-841.7 421,-841.7 421,-819.7 312,-819.7"/>
<image xlink:href="../../images/foreignKeys.png" width="11px" height="12px" preserveAspectRatio="xMinYMin meet" x="317" y="-836.7"/>
<text text-anchor="start" x="332" y="-826.8" font-family="Helvetica,sans-Serif" font-size="11.00" fill="#000000">verbinding_id</text>
<polygon fill="none" stroke="#000000" points="421,-819.7 421,-841.7 540,-841.7 540,-819.7 421,-819.7"/>
<text text-anchor="start" x="424" y="-827.4" font-family="Helvetica,sans-Serif" font-size="11.00" fill="#000000">int2[5]</text>
<polygon fill="none" stroke="#000000" points="312,-797.7 312,-819.7 421,-819.7 421,-797.7 312,-797.7"/>
<text text-anchor="start" x="332" y="-804.8" font-family="Helvetica,sans-Serif" font-size="11.00" fill="#000000">obstakels</text>
<polygon fill="none" stroke="#000000" points="421,-797.7 421,-819.7 540,-819.7 540,-797.7 421,-797.7"/>
<text text-anchor="start" x="424" y="-805.4" font-family="Helvetica,sans-Serif" font-size="11.00" fill="#000000">varchar[50]</text>
<polygon fill="#ffffff" stroke="transparent" points="312,-778.7 312,-797.7 371,-797.7 371,-778.7 312,-778.7"/>
<polygon fill="none" stroke="#000000" points="312,-778.7 312,-797.7 371,-797.7 371,-778.7 312,-778.7"/>
<text text-anchor="start" x="315" y="-784.8" font-family="Helvetica,sans-Serif" font-size="11.00" fill="#000000">&lt; 2</text>
<polygon fill="#ffffff" stroke="transparent" points="371,-778.7 371,-797.7 421,-797.7 421,-778.7 371,-778.7"/>
<polygon fill="none" stroke="#000000" points="371,-778.7 371,-797.7 421,-797.7 421,-778.7 371,-778.7"/>
<text text-anchor="start" x="411.8862" y="-784.8" font-family="Helvetica,sans-Serif" font-size="11.00" fill="#000000"> &#160;</text>
<polygon fill="#ffffff" stroke="transparent" points="421,-778.7 421,-797.7 540,-797.7 540,-778.7 421,-778.7"/>
<polygon fill="none" stroke="#000000" points="421,-778.7 421,-797.7 540,-797.7 540,-778.7 421,-778.7"/>
<text text-anchor="start" x="521.4053" y="-784.8" font-family="Helvetica,sans-Serif" font-size="11.00" fill="#000000">0 &gt;</text>
<polygon fill="none" stroke="#000000" stroke-width="2" points="311,-777.7 311,-1085.7 541,-1085.7 541,-777.7 311,-777.7"/>
</a>
</g>
</g>
<!-- object -->
<g id="node2" class="node">
<title>object</title>
<g id="a_node2"><a xlink:href="../../tables/object.html" xlink:title="object" target="_top">
<polygon fill="#ffffff" stroke="transparent" points="138,-320.2 138,-469.2 261,-469.2 261,-320.2 138,-320.2"/>
<polygon fill="#f5f5f5" stroke="transparent" points="138.5,-445.7 138.5,-468.7 261.5,-468.7 261.5,-445.7 138.5,-445.7"/>
<polygon fill="none" stroke="#000000" points="138.5,-445.7 138.5,-468.7 261.5,-468.7 261.5,-445.7 138.5,-445.7"/>
<text text-anchor="start" x="143.5" y="-454.3" font-family="Helvetica,sans-Serif" font-weight="bold" font-size="11.00" fill="#000000">object</text>
<text text-anchor="start" x="226.5437" y="-453.8" font-family="Helvetica,sans-Serif" font-size="11.00" fill="#000000">[table]</text>
<polygon fill="none" stroke="#000000" points="138.5,-423.7 138.5,-445.7 261.5,-445.7 261.5,-423.7 138.5,-423.7"/>
<image xlink:href="../../images/primaryKeys.png" width="11px" height="12px" preserveAspectRatio="xMinYMin meet" x="143.5" y="-440.7"/>
<text text-anchor="start" x="158.5" y="-430.8" font-family="Helvetica,sans-Serif" font-size="11.00" fill="#000000">uuid</text>
<polygon fill="#ffffff" stroke="transparent" points="138.5,-401.7 138.5,-423.7 261.5,-423.7 261.5,-401.7 138.5,-401.7"/>
<polygon fill="none" stroke="#000000" points="138.5,-401.7 138.5,-423.7 261.5,-423.7 261.5,-401.7 138.5,-401.7"/>
<text text-anchor="start" x="158.5" y="-408.8" font-family="Helvetica,sans-Serif" font-size="11.00" fill="#000000">geom</text>
<polygon fill="#ffffff" stroke="transparent" points="138.5,-379.7 138.5,-401.7 261.5,-401.7 261.5,-379.7 138.5,-379.7"/>
<polygon fill="none" stroke="#000000" points="138.5,-379.7 138.5,-401.7 261.5,-401.7 261.5,-379.7 138.5,-379.7"/>
<text text-anchor="start" x="158.5" y="-386.8" font-family="Helvetica,sans-Serif" font-size="11.00" fill="#000000">revisie_frequentie</text>
<polygon fill="#ffffff" stroke="transparent" points="138.5,-357.7 138.5,-379.7 261.5,-379.7 261.5,-357.7 138.5,-357.7"/>
<polygon fill="none" stroke="#000000" points="138.5,-357.7 138.5,-379.7 261.5,-379.7 261.5,-357.7 138.5,-357.7"/>
<image xlink:href="../../images/foreignKeys.png" width="11px" height="12px" preserveAspectRatio="xMinYMin meet" x="143.5" y="-374.7"/>
<text text-anchor="start" x="158.5" y="-364.8" font-family="Helvetica,sans-Serif" font-size="11.00" fill="#000000">fase_id</text>
<polygon fill="none" stroke="#000000" points="138.5,-338.7 138.5,-357.7 261.5,-357.7 261.5,-338.7 138.5,-338.7"/>
<text text-anchor="start" x="141.5" y="-344.8" font-family="Helvetica,sans-Serif" font-size="11.00" fill="#000000">...</text>
<polygon fill="#ffffff" stroke="transparent" points="138.5,-319.7 138.5,-338.7 190.5,-338.7 190.5,-319.7 138.5,-319.7"/>
<polygon fill="none" stroke="#000000" points="138.5,-319.7 138.5,-338.7 190.5,-338.7 190.5,-319.7 138.5,-319.7"/>
<text text-anchor="start" x="141.5" y="-325.8" font-family="Helvetica,sans-Serif" font-size="11.00" fill="#000000">&lt; 1</text>
<polygon fill="#ffffff" stroke="transparent" points="190.5,-319.7 190.5,-338.7 218.5,-338.7 218.5,-319.7 190.5,-319.7"/>
<polygon fill="none" stroke="#000000" points="190.5,-319.7 190.5,-338.7 218.5,-338.7 218.5,-319.7 190.5,-319.7"/>
<text text-anchor="start" x="209.3862" y="-325.8" font-family="Helvetica,sans-Serif" font-size="11.00" fill="#000000"> &#160;</text>
<polygon fill="#ffffff" stroke="transparent" points="218.5,-319.7 218.5,-338.7 261.5,-338.7 261.5,-319.7 218.5,-319.7"/>
<polygon fill="none" stroke="#000000" points="218.5,-319.7 218.5,-338.7 261.5,-338.7 261.5,-319.7 218.5,-319.7"/>
<text text-anchor="start" x="236.7904" y="-325.8" font-family="Helvetica,sans-Serif" font-size="11.00" fill="#000000">10 &gt;</text>
</a>
</g>
</g>
<!-- bereikbaarheid&#45;&gt;object -->
<g id="edge1" class="edge">
<title>bereikbaarheid:w&#45;&gt;object:e</title>
<path fill="none" stroke="#000000" d="M297.969,-870.8962C228.8542,-827.8909 354.5373,-434.7 261.5,-434.7"/>
<polygon fill="#000000" stroke="#000000" points="304.2787,-872.6067 311.058,-878.1746 308.1394,-873.6534 312,-874.7 312,-874.7 312,-874.7 308.1394,-873.6534 312.942,-871.2254 304.2787,-872.6067 304.2787,-872.6067"/>
<ellipse fill="none" stroke="#000000" cx="301.1902" cy="-871.7694" rx="3.2" ry="3.2"/>
</g>
<!-- roi.verbinding -->
<g id="node3" class="node">
<title>roi.verbinding</title>
<g id="a_node3"><a xlink:href="../../../roi/tables/verbinding.html" xlink:title="roi.verbinding" target="_top">
<polygon fill="#ffffff" stroke="transparent" points="140,-800.2 140,-861.2 259,-861.2 259,-800.2 140,-800.2"/>
<polygon fill="#f5f5f5" stroke="transparent" points="140.5,-837.7 140.5,-860.7 259.5,-860.7 259.5,-837.7 140.5,-837.7"/>
<polygon fill="none" stroke="#000000" points="140.5,-837.7 140.5,-860.7 259.5,-860.7 259.5,-837.7 140.5,-837.7"/>
<text text-anchor="start" x="145.5" y="-846.3" font-family="Helvetica,sans-Serif" font-weight="bold" font-size="11.00" fill="#000000">roi.verbinding</text>
<text text-anchor="start" x="225.0219" y="-845.8" font-family="Helvetica,sans-Serif" font-size="11.00" fill="#000000">[table]</text>
<polygon fill="none" stroke="#000000" points="140.5,-818.7 140.5,-837.7 259.5,-837.7 259.5,-818.7 140.5,-818.7"/>
<text text-anchor="start" x="143.5" y="-824.8" font-family="Helvetica,sans-Serif" font-size="11.00" fill="#000000">...</text>
<polygon fill="#ffffff" stroke="transparent" points="140.5,-799.7 140.5,-818.7 189.5,-818.7 189.5,-799.7 140.5,-799.7"/>
<polygon fill="none" stroke="#000000" points="140.5,-799.7 140.5,-818.7 189.5,-818.7 189.5,-799.7 140.5,-799.7"/>
<text text-anchor="start" x="143.5" y="-805.8" font-family="Helvetica,sans-Serif" font-size="11.00" fill="#000000"> &#160;</text>
<polygon fill="#ffffff" stroke="transparent" points="189.5,-799.7 189.5,-818.7 219.5,-818.7 219.5,-799.7 189.5,-799.7"/>
<polygon fill="none" stroke="#000000" points="189.5,-799.7 189.5,-818.7 219.5,-818.7 219.5,-799.7 189.5,-799.7"/>
<text text-anchor="start" x="210.3862" y="-805.8" font-family="Helvetica,sans-Serif" font-size="11.00" fill="#000000"> &#160;</text>
<polygon fill="#ffffff" stroke="transparent" points="219.5,-799.7 219.5,-818.7 259.5,-818.7 259.5,-799.7 219.5,-799.7"/>
<polygon fill="none" stroke="#000000" points="219.5,-799.7 219.5,-818.7 259.5,-818.7 259.5,-799.7 219.5,-799.7"/>
<text text-anchor="start" x="240.9053" y="-805.8" font-family="Helvetica,sans-Serif" font-size="11.00" fill="#000000">1 &gt;</text>
</a>
</g>
</g>
<!-- bereikbaarheid&#45;&gt;roi.verbinding -->
<g id="edge2" class="edge">
<title>bereikbaarheid:w&#45;&gt;roi.verbinding:e</title>
<path fill="none" stroke="#000000" d="M297.3999,-830.7C287.2906,-830.7 276.9771,-830.7 267.0202,-830.7"/>
<polygon fill="#000000" stroke="#000000" points="304,-830.7001 312,-834.3 308,-830.7 312,-830.7 312,-830.7 312,-830.7 308,-830.7 312,-827.1 304,-830.7001 304,-830.7001"/>
<ellipse fill="none" stroke="#000000" cx="300.8" cy="-830.7001" rx="3.2" ry="3.2"/>
</g>
<!-- roi.fase -->
<g id="node6" class="node">
<title>roi.fase</title>
<g id="a_node6"><a xlink:href="../../../roi/tables/fase.html" xlink:title="roi.fase" target="_top">
<polygon fill="#ffffff" stroke="transparent" points="8,-341.2 8,-402.2 89,-402.2 89,-341.2 8,-341.2"/>
<polygon fill="#f5f5f5" stroke="transparent" points="8.5,-378.7 8.5,-401.7 89.5,-401.7 89.5,-378.7 8.5,-378.7"/>
<polygon fill="none" stroke="#000000" points="8.5,-378.7 8.5,-401.7 89.5,-401.7 89.5,-378.7 8.5,-378.7"/>
<text text-anchor="start" x="13.5" y="-387.3" font-family="Helvetica,sans-Serif" font-weight="bold" font-size="11.00" fill="#000000">roi.fase</text>
<text text-anchor="start" x="55.0219" y="-386.8" font-family="Helvetica,sans-Serif" font-size="11.00" fill="#000000">[table]</text>
<polygon fill="none" stroke="#000000" points="8.5,-359.7 8.5,-378.7 89.5,-378.7 89.5,-359.7 8.5,-359.7"/>
<text text-anchor="start" x="11.5" y="-365.8" font-family="Helvetica,sans-Serif" font-size="11.00" fill="#000000">...</text>
<polygon fill="#ffffff" stroke="transparent" points="8.5,-340.7 8.5,-359.7 38.5,-359.7 38.5,-340.7 8.5,-340.7"/>
<polygon fill="none" stroke="#000000" points="8.5,-340.7 8.5,-359.7 38.5,-359.7 38.5,-340.7 8.5,-340.7"/>
<text text-anchor="start" x="11.5" y="-346.8" font-family="Helvetica,sans-Serif" font-size="11.00" fill="#000000"> &#160;</text>
<polygon fill="#ffffff" stroke="transparent" points="38.5,-340.7 38.5,-359.7 59.5,-359.7 59.5,-340.7 38.5,-340.7"/>
<polygon fill="none" stroke="#000000" points="38.5,-340.7 38.5,-359.7 59.5,-359.7 59.5,-340.7 38.5,-340.7"/>
<text text-anchor="start" x="50.3862" y="-346.8" font-family="Helvetica,sans-Serif" font-size="11.00" fill="#000000"> &#160;</text>
<polygon fill="#ffffff" stroke="transparent" points="59.5,-340.7 59.5,-359.7 89.5,-359.7 89.5,-340.7 59.5,-340.7"/>
<polygon fill="none" stroke="#000000" points="59.5,-340.7 59.5,-359.7 89.5,-359.7 89.5,-340.7 59.5,-340.7"/>
<text text-anchor="start" x="70.9053" y="-346.8" font-family="Helvetica,sans-Serif" font-size="11.00" fill="#000000">1 &gt;</text>
</a>
</g>
</g>
<!-- object&#45;&gt;roi.fase -->
<g id="edge5" class="edge">
<title>object:w&#45;&gt;roi.fase:e</title>
<path fill="none" stroke="#000000" d="M123.9909,-368.7C112.6774,-368.7 105.4931,-368.7 89.5,-368.7"/>
<polygon fill="#000000" stroke="#000000" points="130.5,-368.7001 138.5,-372.3 134.5,-368.7 138.5,-368.7 138.5,-368.7 138.5,-368.7 134.5,-368.7 138.5,-365.1 130.5,-368.7001 130.5,-368.7001"/>
<ellipse fill="none" stroke="#000000" cx="127.3" cy="-368.7001" rx="3.2" ry="3.2"/>
</g>
<!-- gevaarlijkestof -->
<g id="node4" class="node">
<title>gevaarlijkestof</title>
<g id="a_node4"><a xlink:href="../../tables/gevaarlijkestof.html" xlink:title="gevaarlijkestof" target="_top">
<polygon fill="#ffffff" stroke="transparent" points="364.5,-448.2 364.5,-509.2 487.5,-509.2 487.5,-448.2 364.5,-448.2"/>
<polygon fill="#f5f5f5" stroke="transparent" points="365,-485.7 365,-508.7 488,-508.7 488,-485.7 365,-485.7"/>
<polygon fill="none" stroke="#000000" points="365,-485.7 365,-508.7 488,-508.7 488,-485.7 365,-485.7"/>
<text text-anchor="start" x="370" y="-494.3" font-family="Helvetica,sans-Serif" font-weight="bold" font-size="11.00" fill="#000000">gevaarlijkestof</text>
<text text-anchor="start" x="453.5219" y="-493.8" font-family="Helvetica,sans-Serif" font-size="11.00" fill="#000000">[table]</text>
<polygon fill="none" stroke="#000000" points="365,-466.7 365,-485.7 488,-485.7 488,-466.7 365,-466.7"/>
<text text-anchor="start" x="368" y="-472.8" font-family="Helvetica,sans-Serif" font-size="11.00" fill="#000000">...</text>
<polygon fill="#ffffff" stroke="transparent" points="365,-447.7 365,-466.7 425,-466.7 425,-447.7 365,-447.7"/>
<polygon fill="none" stroke="#000000" points="365,-447.7 365,-466.7 425,-466.7 425,-447.7 365,-447.7"/>
<text text-anchor="start" x="368" y="-453.8" font-family="Helvetica,sans-Serif" font-size="11.00" fill="#000000">&lt; 1</text>
<polygon fill="#ffffff" stroke="transparent" points="425,-447.7 425,-466.7 456,-466.7 456,-447.7 425,-447.7"/>
<polygon fill="none" stroke="#000000" points="425,-447.7 425,-466.7 456,-466.7 456,-447.7 425,-447.7"/>
<text text-anchor="start" x="446.8862" y="-453.8" font-family="Helvetica,sans-Serif" font-size="11.00" fill="#000000"> &#160;</text>
<polygon fill="#ffffff" stroke="transparent" points="456,-447.7 456,-466.7 488,-466.7 488,-447.7 456,-447.7"/>
<polygon fill="none" stroke="#000000" points="456,-447.7 456,-466.7 488,-466.7 488,-447.7 456,-447.7"/>
<text text-anchor="start" x="478.8862" y="-453.8" font-family="Helvetica,sans-Serif" font-size="11.00" fill="#000000"> &#160;</text>
</a>
</g>
</g>
<!-- gevaarlijkestof&#45;&gt;object -->
<g id="edge3" class="edge">
<title>gevaarlijkestof:w&#45;&gt;object:e</title>
<path fill="none" stroke="#000000" d="M350.2601,-474.3359C313.9906,-467.2217 305.5661,-434.7 261.5,-434.7"/>
<polygon fill="#000000" stroke="#000000" points="357.034,-474.9627 364.6682,-479.2847 361.017,-475.3314 365,-475.7 365,-475.7 365,-475.7 361.017,-475.3314 365.3318,-472.1153 357.034,-474.9627 357.034,-474.9627"/>
<ellipse fill="none" stroke="#000000" cx="353.8477" cy="-474.6678" rx="3.2" ry="3.2"/>
</g>
<!-- label -->
<g id="node5" class="node">
<title>label</title>
<g id="a_node5"><a xlink:href="../../tables/label.html" xlink:title="label" target="_top">
<polygon fill="#ffffff" stroke="transparent" points="393,-366.2 393,-427.2 459,-427.2 459,-366.2 393,-366.2"/>
<polygon fill="#f5f5f5" stroke="transparent" points="393,-403.7 393,-426.7 459,-426.7 459,-403.7 393,-403.7"/>
<polygon fill="none" stroke="#000000" points="393,-403.7 393,-426.7 459,-426.7 459,-403.7 393,-403.7"/>
<text text-anchor="start" x="397.8868" y="-412.3" font-family="Helvetica,sans-Serif" font-weight="bold" font-size="11.00" fill="#000000">label</text>
<text text-anchor="start" x="424.5219" y="-411.8" font-family="Helvetica,sans-Serif" font-size="11.00" fill="#000000">[table]</text>
<polygon fill="none" stroke="#000000" points="393,-384.7 393,-403.7 459,-403.7 459,-384.7 393,-384.7"/>
<text text-anchor="start" x="396" y="-390.8" font-family="Helvetica,sans-Serif" font-size="11.00" fill="#000000">...</text>
<polygon fill="#ffffff" stroke="transparent" points="393,-365.7 393,-384.7 424,-384.7 424,-365.7 393,-365.7"/>
<polygon fill="none" stroke="#000000" points="393,-365.7 393,-384.7 424,-384.7 424,-365.7 393,-365.7"/>
<text text-anchor="start" x="396" y="-371.8" font-family="Helvetica,sans-Serif" font-size="11.00" fill="#000000">&lt; 2</text>
<polygon fill="#ffffff" stroke="transparent" points="424,-365.7 424,-384.7 441,-384.7 441,-365.7 424,-365.7"/>
<polygon fill="none" stroke="#000000" points="424,-365.7 424,-384.7 441,-384.7 441,-365.7 424,-365.7"/>
<text text-anchor="start" x="431.8862" y="-371.8" font-family="Helvetica,sans-Serif" font-size="11.00" fill="#000000"> &#160;</text>
<polygon fill="#ffffff" stroke="transparent" points="441,-365.7 441,-384.7 459,-384.7 459,-365.7 441,-365.7"/>
<polygon fill="none" stroke="#000000" points="441,-365.7 441,-384.7 459,-384.7 459,-365.7 441,-365.7"/>
<text text-anchor="start" x="449.8862" y="-371.8" font-family="Helvetica,sans-Serif" font-size="11.00" fill="#000000"> &#160;</text>
</a>
</g>
</g>
<!-- label&#45;&gt;object -->
<g id="edge4" class="edge">
<title>label:w&#45;&gt;object:e</title>
<path fill="none" stroke="#000000" d="M378.6175,-394.519C329.8908,-400.2975 317.5778,-434.7 261.5,-434.7"/>
<polygon fill="#000000" stroke="#000000" points="385.0129,-394.1549 393.2047,-397.2942 389.0065,-393.9274 393,-393.7 393,-393.7 393,-393.7 389.0065,-393.9274 392.7953,-390.1058 385.0129,-394.1549 385.0129,-394.1549"/>
<ellipse fill="none" stroke="#000000" cx="381.8181" cy="-394.3368" rx="3.2" ry="3.2"/>
</g>
<!-- opstelplaats -->
<g id="node7" class="node">
<title>opstelplaats</title>
<g id="a_node7"><a xlink:href="../../tables/opstelplaats.html" xlink:title="opstelplaats" target="_top">
<polygon fill="#ffffff" stroke="transparent" points="371.5,-284.2 371.5,-345.2 480.5,-345.2 480.5,-284.2 371.5,-284.2"/>
<polygon fill="#f5f5f5" stroke="transparent" points="372,-321.7 372,-344.7 481,-344.7 481,-321.7 372,-321.7"/>
<polygon fill="none" stroke="#000000" points="372,-321.7 372,-344.7 481,-344.7 481,-321.7 372,-321.7"/>
<text text-anchor="start" x="377" y="-330.3" font-family="Helvetica,sans-Serif" font-weight="bold" font-size="11.00" fill="#000000">opstelplaats</text>
<text text-anchor="start" x="446.5219" y="-329.8" font-family="Helvetica,sans-Serif" font-size="11.00" fill="#000000">[table]</text>
<polygon fill="none" stroke="#000000" points="372,-302.7 372,-321.7 481,-321.7 481,-302.7 372,-302.7"/>
<text text-anchor="start" x="375" y="-308.8" font-family="Helvetica,sans-Serif" font-size="11.00" fill="#000000">...</text>
<polygon fill="#ffffff" stroke="transparent" points="372,-283.7 372,-302.7 425,-302.7 425,-283.7 372,-283.7"/>
<polygon fill="none" stroke="#000000" points="372,-283.7 372,-302.7 425,-302.7 425,-283.7 372,-283.7"/>
<text text-anchor="start" x="375" y="-289.8" font-family="Helvetica,sans-Serif" font-size="11.00" fill="#000000">&lt; 2</text>
<polygon fill="#ffffff" stroke="transparent" points="425,-283.7 425,-302.7 453,-302.7 453,-283.7 425,-283.7"/>
<polygon fill="none" stroke="#000000" points="425,-283.7 425,-302.7 453,-302.7 453,-283.7 425,-283.7"/>
<text text-anchor="start" x="443.8862" y="-289.8" font-family="Helvetica,sans-Serif" font-size="11.00" fill="#000000"> &#160;</text>
<polygon fill="#ffffff" stroke="transparent" points="453,-283.7 453,-302.7 481,-302.7 481,-283.7 453,-283.7"/>
<polygon fill="none" stroke="#000000" points="453,-283.7 453,-302.7 481,-302.7 481,-283.7 453,-283.7"/>
<text text-anchor="start" x="471.8862" y="-289.8" font-family="Helvetica,sans-Serif" font-size="11.00" fill="#000000"> &#160;</text>
</a>
</g>
</g>
<!-- opstelplaats&#45;&gt;object -->
<g id="edge6" class="edge">
<title>opstelplaats:w&#45;&gt;object:e</title>
<path fill="none" stroke="#000000" d="M357.3618,-312.7955C332.3894,-316.9433 323.1386,-332.6272 302,-355.7 275.3463,-384.7925 300.9562,-434.7 261.5,-434.7"/>
<polygon fill="#000000" stroke="#000000" points="364.0223,-312.2971 372.2687,-315.29 368.0112,-311.9985 372,-311.7 372,-311.7 372,-311.7 368.0112,-311.9985 371.7313,-308.11 364.0223,-312.2971 364.0223,-312.2971"/>
<ellipse fill="none" stroke="#000000" cx="360.8312" cy="-312.5359" rx="3.2" ry="3.2"/>
</g>
<!-- pand -->
<g id="node8" class="node">
<title>pand</title>
<g id="a_node8"><a xlink:href="../../tables/pand.html" xlink:title="pand" target="_top">
<polygon fill="#ffffff" stroke="transparent" points="392.5,-202.2 392.5,-263.2 459.5,-263.2 459.5,-202.2 392.5,-202.2"/>
<polygon fill="#f5f5f5" stroke="transparent" points="393,-239.7 393,-262.7 460,-262.7 460,-239.7 393,-239.7"/>
<polygon fill="none" stroke="#000000" points="393,-239.7 393,-262.7 460,-262.7 460,-239.7 393,-239.7"/>
<text text-anchor="start" x="397.7702" y="-248.3" font-family="Helvetica,sans-Serif" font-weight="bold" font-size="11.00" fill="#000000">pand</text>
<text text-anchor="start" x="425.5219" y="-247.8" font-family="Helvetica,sans-Serif" font-size="11.00" fill="#000000">[table]</text>
<polygon fill="none" stroke="#000000" points="393,-220.7 393,-239.7 460,-239.7 460,-220.7 393,-220.7"/>
<text text-anchor="start" x="396" y="-226.8" font-family="Helvetica,sans-Serif" font-size="11.00" fill="#000000">...</text>
<polygon fill="#ffffff" stroke="transparent" points="393,-201.7 393,-220.7 425,-220.7 425,-201.7 393,-201.7"/>
<polygon fill="none" stroke="#000000" points="393,-201.7 393,-220.7 425,-220.7 425,-201.7 393,-201.7"/>
<text text-anchor="start" x="396" y="-207.8" font-family="Helvetica,sans-Serif" font-size="11.00" fill="#000000">&lt; 1</text>
<polygon fill="#ffffff" stroke="transparent" points="425,-201.7 425,-220.7 442,-220.7 442,-201.7 425,-201.7"/>
<polygon fill="none" stroke="#000000" points="425,-201.7 425,-220.7 442,-220.7 442,-201.7 425,-201.7"/>
<text text-anchor="start" x="432.8862" y="-207.8" font-family="Helvetica,sans-Serif" font-size="11.00" fill="#000000"> &#160;</text>
<polygon fill="#ffffff" stroke="transparent" points="442,-201.7 442,-220.7 460,-220.7 460,-201.7 442,-201.7"/>
<polygon fill="none" stroke="#000000" points="442,-201.7 442,-220.7 460,-220.7 460,-201.7 442,-201.7"/>
<text text-anchor="start" x="450.8862" y="-207.8" font-family="Helvetica,sans-Serif" font-size="11.00" fill="#000000"> &#160;</text>
</a>
</g>
</g>
<!-- pand&#45;&gt;object -->
<g id="edge7" class="edge">
<title>pand:w&#45;&gt;object:e</title>
<path fill="none" stroke="#000000" d="M378.2667,-230.1042C343.7792,-232.2007 327.0433,-242.9476 302,-273.7 255.4081,-330.9135 335.2848,-434.7 261.5,-434.7"/>
<polygon fill="#000000" stroke="#000000" points="385.003,-229.9194 393.0987,-233.2986 389.0015,-229.8097 393,-229.7 393,-229.7 393,-229.7 389.0015,-229.8097 392.9013,-226.1014 385.003,-229.9194 385.003,-229.9194"/>
<ellipse fill="none" stroke="#000000" cx="381.8042" cy="-230.0072" rx="3.2" ry="3.2"/>
</g>
<!-- risico -->
<g id="node9" class="node">
<title>risico</title>
<g id="a_node9"><a xlink:href="../../tables/risico.html" xlink:title="risico" target="_top">
<polygon fill="#ffffff" stroke="transparent" points="390.5,-120.2 390.5,-181.2 461.5,-181.2 461.5,-120.2 390.5,-120.2"/>
<polygon fill="#f5f5f5" stroke="transparent" points="391,-157.7 391,-180.7 462,-180.7 462,-157.7 391,-157.7"/>
<polygon fill="none" stroke="#000000" points="391,-157.7 391,-180.7 462,-180.7 462,-157.7 391,-157.7"/>
<text text-anchor="start" x="396" y="-166.3" font-family="Helvetica,sans-Serif" font-weight="bold" font-size="11.00" fill="#000000">risico</text>
<text text-anchor="start" x="427.5219" y="-165.8" font-family="Helvetica,sans-Serif" font-size="11.00" fill="#000000">[table]</text>
<polygon fill="none" stroke="#000000" points="391,-138.7 391,-157.7 462,-157.7 462,-138.7 391,-138.7"/>
<text text-anchor="start" x="394" y="-144.8" font-family="Helvetica,sans-Serif" font-size="11.00" fill="#000000">...</text>
<polygon fill="#ffffff" stroke="transparent" points="391,-119.7 391,-138.7 425,-138.7 425,-119.7 391,-119.7"/>
<polygon fill="none" stroke="#000000" points="391,-119.7 391,-138.7 425,-138.7 425,-119.7 391,-119.7"/>
<text text-anchor="start" x="394" y="-125.8" font-family="Helvetica,sans-Serif" font-size="11.00" fill="#000000">&lt; 2</text>
<polygon fill="#ffffff" stroke="transparent" points="425,-119.7 425,-138.7 443,-138.7 443,-119.7 425,-119.7"/>
<polygon fill="none" stroke="#000000" points="425,-119.7 425,-138.7 443,-138.7 443,-119.7 425,-119.7"/>
<text text-anchor="start" x="433.8862" y="-125.8" font-family="Helvetica,sans-Serif" font-size="11.00" fill="#000000"> &#160;</text>
<polygon fill="#ffffff" stroke="transparent" points="443,-119.7 443,-138.7 462,-138.7 462,-119.7 443,-119.7"/>
<polygon fill="none" stroke="#000000" points="443,-119.7 443,-138.7 462,-138.7 462,-119.7 443,-119.7"/>
<text text-anchor="start" x="452.8862" y="-125.8" font-family="Helvetica,sans-Serif" font-size="11.00" fill="#000000"> &#160;</text>
</a>
</g>
</g>
<!-- risico&#45;&gt;object -->
<g id="edge8" class="edge">
<title>risico:w&#45;&gt;object:e</title>
<path fill="none" stroke="#000000" d="M376.4861,-148.0823C342.4139,-150.0764 325.2135,-160.4176 302,-191.7 269.3769,-235.6628 316.2449,-434.7 261.5,-434.7"/>
<polygon fill="#000000" stroke="#000000" points="383.0028,-147.9107 391.0948,-151.2988 387.0014,-147.8054 391,-147.7 391,-147.7 391,-147.7 387.0014,-147.8054 390.9052,-144.1012 383.0028,-147.9107 383.0028,-147.9107"/>
<ellipse fill="none" stroke="#000000" cx="379.8039" cy="-147.995" rx="3.2" ry="3.2"/>
</g>
<!-- scenario -->
<g id="node10" class="node">
<title>scenario</title>
<g id="a_node10"><a xlink:href="../../tables/scenario.html" xlink:title="scenario" target="_top">
<polygon fill="#ffffff" stroke="transparent" points="382,-38.2 382,-99.2 470,-99.2 470,-38.2 382,-38.2"/>
<polygon fill="#f5f5f5" stroke="transparent" points="382,-75.7 382,-98.7 470,-98.7 470,-75.7 382,-75.7"/>
<polygon fill="none" stroke="#000000" points="382,-75.7 382,-98.7 470,-98.7 470,-75.7 382,-75.7"/>
<text text-anchor="start" x="387" y="-84.3" font-family="Helvetica,sans-Serif" font-weight="bold" font-size="11.00" fill="#000000">scenario</text>
<text text-anchor="start" x="435.5219" y="-83.8" font-family="Helvetica,sans-Serif" font-size="11.00" fill="#000000">[table]</text>
<polygon fill="none" stroke="#000000" points="382,-56.7 382,-75.7 470,-75.7 470,-56.7 382,-56.7"/>
<text text-anchor="start" x="385" y="-62.8" font-family="Helvetica,sans-Serif" font-size="11.00" fill="#000000">...</text>
<polygon fill="#ffffff" stroke="transparent" points="382,-37.7 382,-56.7 424,-56.7 424,-37.7 382,-37.7"/>
<polygon fill="none" stroke="#000000" points="382,-37.7 382,-56.7 424,-56.7 424,-37.7 382,-37.7"/>
<text text-anchor="start" x="385" y="-43.8" font-family="Helvetica,sans-Serif" font-size="11.00" fill="#000000">&lt; 2</text>
<polygon fill="#ffffff" stroke="transparent" points="424,-37.7 424,-56.7 447,-56.7 447,-37.7 424,-37.7"/>
<polygon fill="none" stroke="#000000" points="424,-37.7 424,-56.7 447,-56.7 447,-37.7 424,-37.7"/>
<text text-anchor="start" x="437.8862" y="-43.8" font-family="Helvetica,sans-Serif" font-size="11.00" fill="#000000"> &#160;</text>
<polygon fill="#ffffff" stroke="transparent" points="447,-37.7 447,-56.7 470,-56.7 470,-37.7 447,-37.7"/>
<polygon fill="none" stroke="#000000" points="447,-37.7 447,-56.7 470,-56.7 470,-37.7 447,-37.7"/>
<text text-anchor="start" x="460.8862" y="-43.8" font-family="Helvetica,sans-Serif" font-size="11.00" fill="#000000"> &#160;</text>
</a>
</g>
</g>
<!-- scenario&#45;&gt;object -->
<g id="edge9" class="edge">
<title>scenario:w&#45;&gt;object:e</title>
<path fill="none" stroke="#000000" d="M367.4362,-66.2466C337.0284,-68.7706 321.8409,-80.446 302,-109.7 261.1476,-169.934 334.2808,-434.7 261.5,-434.7"/>
<polygon fill="#000000" stroke="#000000" points="374.0056,-66.0001 382.135,-69.2975 378.0028,-65.85 382,-65.7 382,-65.7 382,-65.7 378.0028,-65.85 381.865,-62.1025 374.0056,-66.0001 374.0056,-66.0001"/>
<ellipse fill="none" stroke="#000000" cx="370.8079" cy="-66.1201" rx="3.2" ry="3.2"/>
</g>
<!-- scheiding -->
<g id="node11" class="node">
<title>scheiding</title>
<g id="a_node11"><a xlink:href="../../tables/scheiding.html" xlink:title="scheiding" target="_top">
<polygon fill="#ffffff" stroke="transparent" points="378.5,-694.2 378.5,-755.2 473.5,-755.2 473.5,-694.2 378.5,-694.2"/>
<polygon fill="#f5f5f5" stroke="transparent" points="379,-731.7 379,-754.7 474,-754.7 474,-731.7 379,-731.7"/>
<polygon fill="none" stroke="#000000" points="379,-731.7 379,-754.7 474,-754.7 474,-731.7 379,-731.7"/>
<text text-anchor="start" x="384" y="-740.3" font-family="Helvetica,sans-Serif" font-weight="bold" font-size="11.00" fill="#000000">scheiding</text>
<text text-anchor="start" x="439.5219" y="-739.8" font-family="Helvetica,sans-Serif" font-size="11.00" fill="#000000">[table]</text>
<polygon fill="none" stroke="#000000" points="379,-712.7 379,-731.7 474,-731.7 474,-712.7 379,-712.7"/>
<text text-anchor="start" x="382" y="-718.8" font-family="Helvetica,sans-Serif" font-size="11.00" fill="#000000">...</text>
<polygon fill="#ffffff" stroke="transparent" points="379,-693.7 379,-712.7 425,-712.7 425,-693.7 379,-693.7"/>
<polygon fill="none" stroke="#000000" points="379,-693.7 379,-712.7 425,-712.7 425,-693.7 379,-693.7"/>
<text text-anchor="start" x="382" y="-699.8" font-family="Helvetica,sans-Serif" font-size="11.00" fill="#000000">&lt; 2</text>
<polygon fill="#ffffff" stroke="transparent" points="425,-693.7 425,-712.7 449,-712.7 449,-693.7 425,-693.7"/>
<polygon fill="none" stroke="#000000" points="425,-693.7 425,-712.7 449,-712.7 449,-693.7 425,-693.7"/>
<text text-anchor="start" x="439.8862" y="-699.8" font-family="Helvetica,sans-Serif" font-size="11.00" fill="#000000"> &#160;</text>
<polygon fill="#ffffff" stroke="transparent" points="449,-693.7 449,-712.7 474,-712.7 474,-693.7 449,-693.7"/>
<polygon fill="none" stroke="#000000" points="449,-693.7 449,-712.7 474,-712.7 474,-693.7 449,-693.7"/>
<text text-anchor="start" x="464.8862" y="-699.8" font-family="Helvetica,sans-Serif" font-size="11.00" fill="#000000"> &#160;</text>
</a>
</g>
</g>
<!-- scheiding&#45;&gt;object -->
<g id="edge10" class="edge">
<title>scheiding:w&#45;&gt;object:e</title>
<path fill="none" stroke="#000000" d="M364.509,-721.2487C336.3003,-719.2625 321.59,-710.1881 302,-683.7 268.6651,-638.6271 317.5605,-434.7 261.5,-434.7"/>
<polygon fill="#000000" stroke="#000000" points="371.0039,-721.4509 378.8879,-725.2983 375.0019,-721.5755 379,-721.7 379,-721.7 379,-721.7 375.0019,-721.5755 379.1121,-718.1017 371.0039,-721.4509 371.0039,-721.4509"/>
<ellipse fill="none" stroke="#000000" cx="367.8054" cy="-721.3513" rx="3.2" ry="3.2"/>
</g>
<!-- sector -->
<g id="node12" class="node">
<title>sector</title>
<g id="a_node12"><a xlink:href="../../tables/sector.html" xlink:title="sector" target="_top">
<polygon fill="#ffffff" stroke="transparent" points="388.5,-612.2 388.5,-673.2 463.5,-673.2 463.5,-612.2 388.5,-612.2"/>
<polygon fill="#f5f5f5" stroke="transparent" points="389,-649.7 389,-672.7 464,-672.7 464,-649.7 389,-649.7"/>
<polygon fill="none" stroke="#000000" points="389,-649.7 389,-672.7 464,-672.7 464,-649.7 389,-649.7"/>
<text text-anchor="start" x="394" y="-658.3" font-family="Helvetica,sans-Serif" font-weight="bold" font-size="11.00" fill="#000000">sector</text>
<text text-anchor="start" x="429.5219" y="-657.8" font-family="Helvetica,sans-Serif" font-size="11.00" fill="#000000">[table]</text>
<polygon fill="none" stroke="#000000" points="389,-630.7 389,-649.7 464,-649.7 464,-630.7 389,-630.7"/>
<text text-anchor="start" x="392" y="-636.8" font-family="Helvetica,sans-Serif" font-size="11.00" fill="#000000">...</text>
<polygon fill="#ffffff" stroke="transparent" points="389,-611.7 389,-630.7 425,-630.7 425,-611.7 389,-611.7"/>
<polygon fill="none" stroke="#000000" points="389,-611.7 389,-630.7 425,-630.7 425,-611.7 389,-611.7"/>
<text text-anchor="start" x="392" y="-617.8" font-family="Helvetica,sans-Serif" font-size="11.00" fill="#000000">&lt; 2</text>
<polygon fill="#ffffff" stroke="transparent" points="425,-611.7 425,-630.7 444,-630.7 444,-611.7 425,-611.7"/>
<polygon fill="none" stroke="#000000" points="425,-611.7 425,-630.7 444,-630.7 444,-611.7 425,-611.7"/>
<text text-anchor="start" x="434.8862" y="-617.8" font-family="Helvetica,sans-Serif" font-size="11.00" fill="#000000"> &#160;</text>
<polygon fill="#ffffff" stroke="transparent" points="444,-611.7 444,-630.7 464,-630.7 464,-611.7 444,-611.7"/>
<polygon fill="none" stroke="#000000" points="444,-611.7 444,-630.7 464,-630.7 464,-611.7 444,-611.7"/>
<text text-anchor="start" x="454.8862" y="-617.8" font-family="Helvetica,sans-Serif" font-size="11.00" fill="#000000"> &#160;</text>
</a>
</g>
</g>
<!-- sector&#45;&gt;object -->
<g id="edge11" class="edge">
<title>sector:w&#45;&gt;object:e</title>
<path fill="none" stroke="#000000" d="M374.2602,-639.3926C342.2397,-637.8624 325.7408,-629.9746 302,-601.7 252.889,-543.2103 337.8737,-434.7 261.5,-434.7"/>
<polygon fill="#000000" stroke="#000000" points="381.0017,-639.5331 388.9249,-643.2992 385.0009,-639.6166 389,-639.7 389,-639.7 389,-639.7 385.0009,-639.6166 389.0751,-636.1008 381.0017,-639.5331 381.0017,-639.5331"/>
<ellipse fill="none" stroke="#000000" cx="377.8024" cy="-639.4664" rx="3.2" ry="3.2"/>
</g>
<!-- voorziening -->
<g id="node13" class="node">
<title>voorziening</title>
<g id="a_node13"><a xlink:href="../../tables/voorziening.html" xlink:title="voorziening" target="_top">
<polygon fill="#ffffff" stroke="transparent" points="373,-530.2 373,-591.2 479,-591.2 479,-530.2 373,-530.2"/>
<polygon fill="#f5f5f5" stroke="transparent" points="373,-567.7 373,-590.7 479,-590.7 479,-567.7 373,-567.7"/>
<polygon fill="none" stroke="#000000" points="373,-567.7 373,-590.7 479,-590.7 479,-567.7 373,-567.7"/>
<text text-anchor="start" x="378" y="-576.3" font-family="Helvetica,sans-Serif" font-weight="bold" font-size="11.00" fill="#000000">voorziening</text>
<text text-anchor="start" x="444.5219" y="-575.8" font-family="Helvetica,sans-Serif" font-size="11.00" fill="#000000">[table]</text>
<polygon fill="none" stroke="#000000" points="373,-548.7 373,-567.7 479,-567.7 479,-548.7 373,-548.7"/>
<text text-anchor="start" x="376" y="-554.8" font-family="Helvetica,sans-Serif" font-size="11.00" fill="#000000">...</text>
<polygon fill="#ffffff" stroke="transparent" points="373,-529.7 373,-548.7 424,-548.7 424,-529.7 373,-529.7"/>
<polygon fill="none" stroke="#000000" points="373,-529.7 373,-548.7 424,-548.7 424,-529.7 373,-529.7"/>
<text text-anchor="start" x="376" y="-535.8" font-family="Helvetica,sans-Serif" font-size="11.00" fill="#000000">&lt; 2</text>
<polygon fill="#ffffff" stroke="transparent" points="424,-529.7 424,-548.7 451,-548.7 451,-529.7 424,-529.7"/>
<polygon fill="none" stroke="#000000" points="424,-529.7 424,-548.7 451,-548.7 451,-529.7 424,-529.7"/>
<text text-anchor="start" x="441.8862" y="-535.8" font-family="Helvetica,sans-Serif" font-size="11.00" fill="#000000"> &#160;</text>
<polygon fill="#ffffff" stroke="transparent" points="451,-529.7 451,-548.7 479,-548.7 479,-529.7 451,-529.7"/>
<polygon fill="none" stroke="#000000" points="451,-529.7 451,-548.7 479,-548.7 479,-529.7 451,-529.7"/>
<text text-anchor="start" x="469.8862" y="-535.8" font-family="Helvetica,sans-Serif" font-size="11.00" fill="#000000"> &#160;</text>
</a>
</g>
</g>
<!-- voorziening&#45;&gt;object -->
<g id="edge12" class="edge">
<title>voorziening:w&#45;&gt;object:e</title>
<path fill="none" stroke="#000000" d="M358.6044,-556.8942C333.7789,-553.8019 323.0415,-541.7494 302,-519.7 273.1098,-489.426 303.3469,-434.7 261.5,-434.7"/>
<polygon fill="#000000" stroke="#000000" points="365.0125,-557.2529 372.7988,-561.2944 369.0063,-557.4764 373,-557.7 373,-557.7 373,-557.7 369.0063,-557.4764 373.2012,-554.1056 365.0125,-557.2529 365.0125,-557.2529"/>
<ellipse fill="none" stroke="#000000" cx="361.8175" cy="-557.074" rx="3.2" ry="3.2"/>
</g>
</g>
</svg>
