<?xml version="1.0" encoding="UTF-8" standalone="no"?>
<!DOCTYPE svg PUBLIC "-//W3C//DTD SVG 1.1//EN"
 "http://www.w3.org/Graphics/SVG/1.1/DTD/svg11.dtd">
<!-- Generated by graphviz version 2.50.0 (0)
 -->
<!-- Title: twoDegreesRelationshipsDiagram Pages: 1 -->
<svg width="613pt" height="1046pt"
 viewBox="0.00 0.00 613.00 1046.00" xmlns="http://www.w3.org/2000/svg" xmlns:xlink="http://www.w3.org/1999/xlink">
<g id="graph0" class="graph" transform="scale(1 1) rotate(0) translate(4 1042)">
<title>twoDegreesRelationshipsDiagram</title>
<polygon fill="#ffffff" stroke="transparent" points="-4,4 -4,-1042 609,-1042 609,4 -4,4"/>
<text text-anchor="middle" x="79.5" y="-7.2" font-family="Helvetica,sans-Serif" font-size="11.00">Generated by SchemaSpy</text>
<!-- bereikbaarheid -->
<g id="node1" class="node">
<title>bereikbaarheid</title>
<g id="a_node1"><a xlink:href="../../tables/bereikbaarheid.html" xlink:title="bereikbaarheid" target="_top">
<polygon fill="#ffffff" stroke="transparent" points="343,-748 343,-1034 597,-1034 597,-748 343,-748"/>
<polygon fill="#f5f5f5" stroke="transparent" points="345,-1010 345,-1032 595,-1032 595,-1010 345,-1010"/>
<polygon fill="none" stroke="black" points="345,-1010 345,-1032 595,-1032 595,-1010 345,-1010"/>
<text text-anchor="start" x="350" y="-1019.2" font-family="Helvetica,sans-Serif" font-weight="bold" font-size="11.00">bereikbaarheid</text>
<text text-anchor="start" x="553" y="-1018.2" font-family="Helvetica,sans-Serif" font-size="11.00">[table]</text>
<polygon fill="none" stroke="black" points="345,-988 345,-1010 459,-1010 459,-988 345,-988"/>
<image xlink:href="../../images/primaryKeys.png" width="11px" height="12px" preserveAspectRatio="xMinYMin meet" x="350" y="-1005"/>
<text text-anchor="start" x="365" y="-996.2" font-family="Helvetica,sans-Serif" font-size="11.00">uuid</text>
<polygon fill="none" stroke="black" points="459,-988 459,-1010 595,-1010 595,-988 459,-988"/>
<text text-anchor="start" x="462" y="-996.2" font-family="Helvetica,sans-Serif" font-size="11.00">uuid[2147483647]</text>
<polygon fill="#ffffff" stroke="transparent" points="345,-966 345,-988 459,-988 459,-966 345,-966"/>
<polygon fill="none" stroke="black" points="345,-966 345,-988 459,-988 459,-966 345,-966"/>
<text text-anchor="start" x="365" y="-974.2" font-family="Helvetica,sans-Serif" font-size="11.00">geom</text>
<polygon fill="none" stroke="black" points="459,-966 459,-988 595,-988 595,-966 459,-966"/>
<text text-anchor="start" x="462" y="-974.2" font-family="Helvetica,sans-Serif" font-size="11.00">geometry[2147483647]</text>
<polygon fill="none" stroke="black" points="345,-944 345,-966 459,-966 459,-944 345,-944"/>
<text text-anchor="start" x="365" y="-952.2" font-family="Helvetica,sans-Serif" font-size="11.00">datumtijd</text>
<polygon fill="none" stroke="black" points="459,-944 459,-966 595,-966 595,-944 459,-944"/>
<text text-anchor="start" x="462" y="-952.2" font-family="Helvetica,sans-Serif" font-size="11.00">timestamptz[35,6]</text>
<polygon fill="none" stroke="black" points="345,-922 345,-944 459,-944 459,-922 345,-922"/>
<text text-anchor="start" x="365" y="-930.2" font-family="Helvetica,sans-Serif" font-size="11.00">gebruiker</text>
<polygon fill="none" stroke="black" points="459,-922 459,-944 595,-944 595,-922 459,-922"/>
<text text-anchor="start" x="462" y="-930.2" font-family="Helvetica,sans-Serif" font-size="11.00">varchar[255]</text>
<polygon fill="none" stroke="black" points="345,-900 345,-922 459,-922 459,-900 345,-900"/>
<text text-anchor="start" x="365" y="-908.2" font-family="Helvetica,sans-Serif" font-size="11.00">label</text>
<polygon fill="none" stroke="black" points="459,-900 459,-922 595,-922 595,-900 459,-900"/>
<text text-anchor="start" x="462" y="-908.2" font-family="Helvetica,sans-Serif" font-size="11.00">text[2147483647]</text>
<polygon fill="none" stroke="black" points="345,-878 345,-900 459,-900 459,-878 345,-878"/>
<text text-anchor="start" x="365" y="-886.2" font-family="Helvetica,sans-Serif" font-size="11.00">rotatie</text>
<polygon fill="none" stroke="black" points="459,-878 459,-900 595,-900 595,-878 459,-878"/>
<text text-anchor="start" x="462" y="-886.2" font-family="Helvetica,sans-Serif" font-size="11.00">int4[10]</text>
<polygon fill="none" stroke="black" points="345,-856 345,-878 459,-878 459,-856 345,-856"/>
<text text-anchor="start" x="365" y="-864.2" font-family="Helvetica,sans-Serif" font-size="11.00">bijzonderheden</text>
<polygon fill="none" stroke="black" points="459,-856 459,-878 595,-878 595,-856 459,-856"/>
<text text-anchor="start" x="462" y="-864.2" font-family="Helvetica,sans-Serif" font-size="11.00">text[2147483647]</text>
<polygon fill="none" stroke="black" points="345,-834 345,-856 459,-856 459,-834 345,-834"/>
<text text-anchor="start" x="365" y="-842.2" font-family="Helvetica,sans-Serif" font-size="11.00">plusinfo</text>
<polygon fill="none" stroke="black" points="459,-834 459,-856 595,-856 595,-834 459,-834"/>
<text text-anchor="start" x="462" y="-842.2" font-family="Helvetica,sans-Serif" font-size="11.00">jsonb[2147483647]</text>
<polygon fill="#ffffff" stroke="transparent" points="345,-812 345,-834 459,-834 459,-812 345,-812"/>
<polygon fill="none" stroke="black" points="345,-812 345,-834 459,-834 459,-812 345,-812"/>
<image xlink:href="../../images/foreignKeys.png" width="11px" height="12px" preserveAspectRatio="xMinYMin meet" x="350" y="-829"/>
<text text-anchor="start" x="365" y="-820.2" font-family="Helvetica,sans-Serif" font-size="11.00">object_uuid</text>
<polygon fill="none" stroke="black" points="459,-812 459,-834 595,-834 595,-812 459,-812"/>
<text text-anchor="start" x="462" y="-820.2" font-family="Helvetica,sans-Serif" font-size="11.00">uuid[2147483647]</text>
<polygon fill="none" stroke="black" points="345,-790 345,-812 459,-812 459,-790 345,-790"/>
<image xlink:href="../../images/foreignKeys.png" width="11px" height="12px" preserveAspectRatio="xMinYMin meet" x="350" y="-807"/>
<text text-anchor="start" x="365" y="-798.2" font-family="Helvetica,sans-Serif" font-size="11.00">verbinding_id</text>
<polygon fill="none" stroke="black" points="459,-790 459,-812 595,-812 595,-790 459,-790"/>
<text text-anchor="start" x="462" y="-798.2" font-family="Helvetica,sans-Serif" font-size="11.00">int2[5]</text>
<polygon fill="none" stroke="black" points="345,-768 345,-790 459,-790 459,-768 345,-768"/>
<text text-anchor="start" x="365" y="-776.2" font-family="Helvetica,sans-Serif" font-size="11.00">obstakels</text>
<polygon fill="none" stroke="black" points="459,-768 459,-790 595,-790 595,-768 459,-768"/>
<text text-anchor="start" x="462" y="-776.2" font-family="Helvetica,sans-Serif" font-size="11.00">varchar[50]</text>
<polygon fill="#ffffff" stroke="transparent" points="345,-750 345,-768 408,-768 408,-750 345,-750"/>
<polygon fill="none" stroke="black" points="345,-750 345,-768 408,-768 408,-750 345,-750"/>
<text text-anchor="start" x="348" y="-756.2" font-family="Helvetica,sans-Serif" font-size="11.00">&lt; 2</text>
<polygon fill="#ffffff" stroke="transparent" points="408,-750 408,-768 459,-768 459,-750 408,-750"/>
<polygon fill="none" stroke="black" points="408,-750 408,-768 459,-768 459,-750 408,-750"/>
<text text-anchor="start" x="448" y="-756.2" font-family="Helvetica,sans-Serif" font-size="11.00"> &#160;</text>
<polygon fill="#ffffff" stroke="transparent" points="459,-750 459,-768 595,-768 595,-750 459,-750"/>
<polygon fill="none" stroke="black" points="459,-750 459,-768 595,-768 595,-750 459,-750"/>
<text text-anchor="start" x="572" y="-756.2" font-family="Helvetica,sans-Serif" font-size="11.00">0 &gt;</text>
<polygon fill="none" stroke="black" stroke-width="2" points="344,-749 344,-1033 596,-1033 596,-749 344,-749"/>
</a>
</g>
</g>
<!-- object -->
<g id="node2" class="node">
<title>object</title>
<g id="a_node2"><a xlink:href="../../tables/object.html" xlink:title="object" target="_top">
<polygon fill="#ffffff" stroke="transparent" points="160.5,-307 160.5,-453 289.5,-453 289.5,-307 160.5,-307"/>
<polygon fill="#f5f5f5" stroke="transparent" points="161,-431 161,-453 290,-453 290,-431 161,-431"/>
<polygon fill="none" stroke="black" points="161,-431 161,-453 290,-453 290,-431 161,-431"/>
<text text-anchor="start" x="166" y="-440.2" font-family="Helvetica,sans-Serif" font-weight="bold" font-size="11.00">object</text>
<text text-anchor="start" x="248" y="-439.2" font-family="Helvetica,sans-Serif" font-size="11.00">[table]</text>
<polygon fill="none" stroke="black" points="161,-409 161,-431 290,-431 290,-409 161,-409"/>
<image xlink:href="../../images/primaryKeys.png" width="11px" height="12px" preserveAspectRatio="xMinYMin meet" x="166" y="-426"/>
<text text-anchor="start" x="181" y="-417.2" font-family="Helvetica,sans-Serif" font-size="11.00">uuid</text>
<polygon fill="#ffffff" stroke="transparent" points="161,-387 161,-409 290,-409 290,-387 161,-387"/>
<polygon fill="none" stroke="black" points="161,-387 161,-409 290,-409 290,-387 161,-387"/>
<text text-anchor="start" x="181" y="-395.2" font-family="Helvetica,sans-Serif" font-size="11.00">geom</text>
<polygon fill="#ffffff" stroke="transparent" points="161,-365 161,-387 290,-387 290,-365 161,-365"/>
<polygon fill="none" stroke="black" points="161,-365 161,-387 290,-387 290,-365 161,-365"/>
<text text-anchor="start" x="181" y="-373.2" font-family="Helvetica,sans-Serif" font-size="11.00">revisie_frequentie</text>
<polygon fill="#ffffff" stroke="transparent" points="161,-343 161,-365 290,-365 290,-343 161,-343"/>
<polygon fill="none" stroke="black" points="161,-343 161,-365 290,-365 290,-343 161,-343"/>
<image xlink:href="../../images/foreignKeys.png" width="11px" height="12px" preserveAspectRatio="xMinYMin meet" x="166" y="-360"/>
<text text-anchor="start" x="181" y="-351.2" font-family="Helvetica,sans-Serif" font-size="11.00">fase_id</text>
<polygon fill="none" stroke="black" points="161,-325 161,-343 290,-343 290,-325 161,-325"/>
<text text-anchor="start" x="164" y="-331.2" font-family="Helvetica,sans-Serif" font-size="11.00">...</text>
<polygon fill="#ffffff" stroke="transparent" points="161,-307 161,-325 215,-325 215,-307 161,-307"/>
<polygon fill="none" stroke="black" points="161,-307 161,-325 215,-325 215,-307 161,-307"/>
<text text-anchor="start" x="164" y="-313.2" font-family="Helvetica,sans-Serif" font-size="11.00">&lt; 1</text>
<polygon fill="#ffffff" stroke="transparent" points="215,-307 215,-325 243,-325 243,-307 215,-307"/>
<polygon fill="none" stroke="black" points="215,-307 215,-325 243,-325 243,-307 215,-307"/>
<text text-anchor="start" x="232" y="-313.2" font-family="Helvetica,sans-Serif" font-size="11.00"> &#160;</text>
<polygon fill="#ffffff" stroke="transparent" points="243,-307 243,-325 290,-325 290,-307 243,-307"/>
<polygon fill="none" stroke="black" points="243,-307 243,-325 290,-325 290,-307 243,-307"/>
<text text-anchor="start" x="260" y="-313.2" font-family="Helvetica,sans-Serif" font-size="11.00">10 &gt;</text>
</a>
</g>
</g>
<!-- bereikbaarheid&#45;&gt;object -->
<g id="edge1" class="edge">
<title>bereikbaarheid:w&#45;&gt;object:e</title>
<path fill="none" stroke="black" d="M329.89,-818.75C268.33,-775.68 375.86,-420 291,-420"/>
<polygon fill="black" stroke="black" points="336.34,-820.69 342.96,-826.45 340.17,-821.85 344,-823 344,-823 344,-823 340.17,-821.85 345.04,-819.55 336.34,-820.69 336.34,-820.69"/>
<ellipse fill="none" stroke="black" cx="333.28" cy="-819.77" rx="3.2" ry="3.2"/>
</g>
<!-- roi.verbinding -->
<g id="node3" class="node">
<title>roi.verbinding</title>
<g id="a_node3"><a xlink:href="../../../roi/tables/verbinding.html" xlink:title="roi.verbinding" target="_top">
<polygon fill="#ffffff" stroke="transparent" points="156,-772 156,-830 294,-830 294,-772 156,-772"/>
<polygon fill="#f5f5f5" stroke="transparent" points="156,-808 156,-830 294,-830 294,-808 156,-808"/>
<polygon fill="none" stroke="black" points="156,-808 156,-830 294,-830 294,-808 156,-808"/>
<text text-anchor="start" x="161" y="-817.2" font-family="Helvetica,sans-Serif" font-weight="bold" font-size="11.00">roi.verbinding</text>
<text text-anchor="start" x="252" y="-816.2" font-family="Helvetica,sans-Serif" font-size="11.00">[table]</text>
<polygon fill="none" stroke="black" points="156,-790 156,-808 294,-808 294,-790 156,-790"/>
<text text-anchor="start" x="159" y="-796.2" font-family="Helvetica,sans-Serif" font-size="11.00">...</text>
<polygon fill="#ffffff" stroke="transparent" points="156,-772 156,-790 212,-790 212,-772 156,-772"/>
<polygon fill="none" stroke="black" points="156,-772 156,-790 212,-790 212,-772 156,-772"/>
<text text-anchor="start" x="159" y="-778.2" font-family="Helvetica,sans-Serif" font-size="11.00"> &#160;</text>
<polygon fill="#ffffff" stroke="transparent" points="212,-772 212,-790 247,-790 247,-772 212,-772"/>
<polygon fill="none" stroke="black" points="212,-772 212,-790 247,-790 247,-772 212,-772"/>
<text text-anchor="start" x="236" y="-778.2" font-family="Helvetica,sans-Serif" font-size="11.00"> &#160;</text>
<polygon fill="#ffffff" stroke="transparent" points="247,-772 247,-790 294,-790 294,-772 247,-772"/>
<polygon fill="none" stroke="black" points="247,-772 247,-790 294,-790 294,-772 247,-772"/>
<text text-anchor="start" x="271" y="-778.2" font-family="Helvetica,sans-Serif" font-size="11.00">1 &gt;</text>
</a>
</g>
</g>
<!-- bereikbaarheid&#45;&gt;roi.verbinding -->
<g id="edge2" class="edge">
<title>bereikbaarheid:w&#45;&gt;roi.verbinding:e</title>
<path fill="none" stroke="black" d="M329.48,-801C320.42,-801 311.19,-801 302.17,-801"/>
<polygon fill="black" stroke="black" points="336,-801 344,-804.6 340,-801 344,-801 344,-801 344,-801 340,-801 344,-797.4 336,-801 336,-801"/>
<ellipse fill="none" stroke="black" cx="332.8" cy="-801" rx="3.2" ry="3.2"/>
</g>
<!-- roi.fase -->
<g id="node6" class="node">
<title>roi.fase</title>
<g id="a_node6"><a xlink:href="../../../roi/tables/fase.html" xlink:title="roi.fase" target="_top">
<polygon fill="#ffffff" stroke="transparent" points="8,-327 8,-385 107,-385 107,-327 8,-327"/>
<polygon fill="#f5f5f5" stroke="transparent" points="8.5,-363 8.5,-385 107.5,-385 107.5,-363 8.5,-363"/>
<polygon fill="none" stroke="black" points="8.5,-363 8.5,-385 107.5,-385 107.5,-363 8.5,-363"/>
<text text-anchor="start" x="13.5" y="-372.2" font-family="Helvetica,sans-Serif" font-weight="bold" font-size="11.00">roi.fase</text>
<text text-anchor="start" x="65.5" y="-371.2" font-family="Helvetica,sans-Serif" font-size="11.00">[table]</text>
<polygon fill="none" stroke="black" points="8.5,-345 8.5,-363 107.5,-363 107.5,-345 8.5,-345"/>
<text text-anchor="start" x="11.5" y="-351.2" font-family="Helvetica,sans-Serif" font-size="11.00">...</text>
<polygon fill="#ffffff" stroke="transparent" points="8.5,-327 8.5,-345 44.5,-345 44.5,-327 8.5,-327"/>
<polygon fill="none" stroke="black" points="8.5,-327 8.5,-345 44.5,-345 44.5,-327 8.5,-327"/>
<text text-anchor="start" x="11.5" y="-333.2" font-family="Helvetica,sans-Serif" font-size="11.00"> &#160;</text>
<polygon fill="#ffffff" stroke="transparent" points="44.5,-327 44.5,-345 69.5,-345 69.5,-327 44.5,-327"/>
<polygon fill="none" stroke="black" points="44.5,-327 44.5,-345 69.5,-345 69.5,-327 44.5,-327"/>
<text text-anchor="start" x="58.5" y="-333.2" font-family="Helvetica,sans-Serif" font-size="11.00"> &#160;</text>
<polygon fill="#ffffff" stroke="transparent" points="69.5,-327 69.5,-345 107.5,-345 107.5,-327 69.5,-327"/>
<polygon fill="none" stroke="black" points="69.5,-327 69.5,-345 107.5,-345 107.5,-327 69.5,-327"/>
<text text-anchor="start" x="84.5" y="-333.2" font-family="Helvetica,sans-Serif" font-size="11.00">1 &gt;</text>
</a>
</g>
</g>
<!-- object&#45;&gt;roi.fase -->
<g id="edge5" class="edge">
<title>object:w&#45;&gt;roi.fase:e</title>
<path fill="none" stroke="black" d="M145.52,-354C133.18,-354 125.67,-354 108.5,-354"/>
<polygon fill="black" stroke="black" points="152,-354 160,-357.6 156,-354 160,-354 160,-354 160,-354 156,-354 160,-350.4 152,-354 152,-354"/>
<ellipse fill="none" stroke="black" cx="148.8" cy="-354" rx="3.2" ry="3.2"/>
</g>
<!-- gevaarlijkestof -->
<g id="node4" class="node">
<title>gevaarlijkestof</title>
<g id="a_node4"><a xlink:href="../../tables/gevaarlijkestof.html" xlink:title="gevaarlijkestof" target="_top">
<polygon fill="#ffffff" stroke="transparent" points="398,-432 398,-490 542,-490 542,-432 398,-432"/>
<polygon fill="#f5f5f5" stroke="transparent" points="398,-468 398,-490 542,-490 542,-468 398,-468"/>
<polygon fill="none" stroke="black" points="398,-468 398,-490 542,-490 542,-468 398,-468"/>
<text text-anchor="start" x="403" y="-477.2" font-family="Helvetica,sans-Serif" font-weight="bold" font-size="11.00">gevaarlijkestof</text>
<text text-anchor="start" x="500" y="-476.2" font-family="Helvetica,sans-Serif" font-size="11.00">[table]</text>
<polygon fill="none" stroke="black" points="398,-450 398,-468 542,-468 542,-450 398,-450"/>
<text text-anchor="start" x="401" y="-456.2" font-family="Helvetica,sans-Serif" font-size="11.00">...</text>
<polygon fill="#ffffff" stroke="transparent" points="398,-432 398,-450 469,-450 469,-432 398,-432"/>
<polygon fill="none" stroke="black" points="398,-432 398,-450 469,-450 469,-432 398,-432"/>
<text text-anchor="start" x="401" y="-438.2" font-family="Helvetica,sans-Serif" font-size="11.00">&lt; 1</text>
<polygon fill="#ffffff" stroke="transparent" points="469,-432 469,-450 505,-450 505,-432 469,-432"/>
<polygon fill="none" stroke="black" points="469,-432 469,-450 505,-450 505,-432 469,-432"/>
<text text-anchor="start" x="494" y="-438.2" font-family="Helvetica,sans-Serif" font-size="11.00"> &#160;</text>
<polygon fill="#ffffff" stroke="transparent" points="505,-432 505,-450 542,-450 542,-432 505,-432"/>
<polygon fill="none" stroke="black" points="505,-432 505,-450 542,-450 542,-432 505,-432"/>
<text text-anchor="start" x="531" y="-438.2" font-family="Helvetica,sans-Serif" font-size="11.00"> &#160;</text>
</a>
</g>
</g>
<!-- gevaarlijkestof&#45;&gt;object -->
<g id="edge3" class="edge">
<title>gevaarlijkestof:w&#45;&gt;object:e</title>
<path fill="none" stroke="black" d="M382.5,-457.79C345.12,-451.21 335.9,-420 291,-420"/>
<polygon fill="black" stroke="black" points="389.03,-458.33 396.7,-462.59 393.01,-458.67 397,-459 397,-459 397,-459 393.01,-458.67 397.3,-455.41 389.03,-458.33 389.03,-458.33"/>
<ellipse fill="none" stroke="black" cx="385.84" cy="-458.07" rx="3.2" ry="3.2"/>
</g>
<!-- label -->
<g id="node5" class="node">
<title>label</title>
<g id="a_node5"><a xlink:href="../../tables/label.html" xlink:title="label" target="_top">
<polygon fill="#ffffff" stroke="transparent" points="429,-353 429,-411 511,-411 511,-353 429,-353"/>
<polygon fill="#f5f5f5" stroke="transparent" points="429,-389 429,-411 511,-411 511,-389 429,-389"/>
<polygon fill="none" stroke="black" points="429,-389 429,-411 511,-411 511,-389 429,-389"/>
<text text-anchor="start" x="434" y="-398.2" font-family="Helvetica,sans-Serif" font-weight="bold" font-size="11.00">label</text>
<text text-anchor="start" x="469" y="-397.2" font-family="Helvetica,sans-Serif" font-size="11.00">[table]</text>
<polygon fill="none" stroke="black" points="429,-371 429,-389 511,-389 511,-371 429,-371"/>
<text text-anchor="start" x="432" y="-377.2" font-family="Helvetica,sans-Serif" font-size="11.00">...</text>
<polygon fill="#ffffff" stroke="transparent" points="429,-353 429,-371 469,-371 469,-353 429,-353"/>
<polygon fill="none" stroke="black" points="429,-353 429,-371 469,-371 469,-353 429,-353"/>
<text text-anchor="start" x="432" y="-359.2" font-family="Helvetica,sans-Serif" font-size="11.00">&lt; 2</text>
<polygon fill="#ffffff" stroke="transparent" points="469,-353 469,-371 490,-371 490,-353 469,-353"/>
<polygon fill="none" stroke="black" points="469,-353 469,-371 490,-371 490,-353 469,-353"/>
<text text-anchor="start" x="479" y="-359.2" font-family="Helvetica,sans-Serif" font-size="11.00"> &#160;</text>
<polygon fill="#ffffff" stroke="transparent" points="490,-353 490,-371 511,-371 511,-353 490,-353"/>
<polygon fill="none" stroke="black" points="490,-353 490,-371 511,-371 511,-353 490,-353"/>
<text text-anchor="start" x="500" y="-359.2" font-family="Helvetica,sans-Serif" font-size="11.00"> &#160;</text>
</a>
</g>
</g>
<!-- label&#45;&gt;object -->
<g id="edge4" class="edge">
<title>label:w&#45;&gt;object:e</title>
<path fill="none" stroke="black" d="M413.41,-380.76C362.55,-386.29 349.23,-420 291,-420"/>
<polygon fill="black" stroke="black" points="420.01,-380.42 428.19,-383.6 424.01,-380.21 428,-380 428,-380 428,-380 424.01,-380.21 427.81,-376.4 420.01,-380.42 420.01,-380.42"/>
<ellipse fill="none" stroke="black" cx="416.82" cy="-380.59" rx="3.2" ry="3.2"/>
</g>
<!-- opstelplaats -->
<g id="node7" class="node">
<title>opstelplaats</title>
<g id="a_node7"><a xlink:href="../../tables/opstelplaats.html" xlink:title="opstelplaats" target="_top">
<polygon fill="#ffffff" stroke="transparent" points="406,-274 406,-332 534,-332 534,-274 406,-274"/>
<polygon fill="#f5f5f5" stroke="transparent" points="406,-310 406,-332 534,-332 534,-310 406,-310"/>
<polygon fill="none" stroke="black" points="406,-310 406,-332 534,-332 534,-310 406,-310"/>
<text text-anchor="start" x="411" y="-319.2" font-family="Helvetica,sans-Serif" font-weight="bold" font-size="11.00">opstelplaats</text>
<text text-anchor="start" x="492" y="-318.2" font-family="Helvetica,sans-Serif" font-size="11.00">[table]</text>
<polygon fill="none" stroke="black" points="406,-292 406,-310 534,-310 534,-292 406,-292"/>
<text text-anchor="start" x="409" y="-298.2" font-family="Helvetica,sans-Serif" font-size="11.00">...</text>
<polygon fill="#ffffff" stroke="transparent" points="406,-274 406,-292 469,-292 469,-274 406,-274"/>
<polygon fill="none" stroke="black" points="406,-274 406,-292 469,-292 469,-274 406,-274"/>
<text text-anchor="start" x="409" y="-280.2" font-family="Helvetica,sans-Serif" font-size="11.00">&lt; 2</text>
<polygon fill="#ffffff" stroke="transparent" points="469,-274 469,-292 501,-292 501,-274 469,-274"/>
<polygon fill="none" stroke="black" points="469,-274 469,-292 501,-292 501,-274 469,-274"/>
<text text-anchor="start" x="490" y="-280.2" font-family="Helvetica,sans-Serif" font-size="11.00"> &#160;</text>
<polygon fill="#ffffff" stroke="transparent" points="501,-274 501,-292 534,-292 534,-274 501,-274"/>
<polygon fill="none" stroke="black" points="501,-274 501,-292 534,-292 534,-274 501,-274"/>
<text text-anchor="start" x="523" y="-280.2" font-family="Helvetica,sans-Serif" font-size="11.00"> &#160;</text>
</a>
</g>
</g>
<!-- opstelplaats&#45;&gt;object -->
<g id="edge6" class="edge">
<title>opstelplaats:w&#45;&gt;object:e</title>
<path fill="none" stroke="black" d="M390.61,-302C366.01,-305.77 356.53,-320.11 335,-342 307.09,-370.37 330.8,-420 291,-420"/>
<polygon fill="black" stroke="black" points="397.02,-301.55 405.25,-304.59 401.01,-301.28 405,-301 405,-301 405,-301 401.01,-301.28 404.75,-297.41 397.02,-301.55 397.02,-301.55"/>
<ellipse fill="none" stroke="black" cx="393.83" cy="-301.77" rx="3.2" ry="3.2"/>
</g>
<!-- pand -->
<g id="node8" class="node">
<title>pand</title>
<g id="a_node8"><a xlink:href="../../tables/pand.html" xlink:title="pand" target="_top">
<polygon fill="#ffffff" stroke="transparent" points="429,-195 429,-253 511,-253 511,-195 429,-195"/>
<polygon fill="#f5f5f5" stroke="transparent" points="429,-231 429,-253 511,-253 511,-231 429,-231"/>
<polygon fill="none" stroke="black" points="429,-231 429,-253 511,-253 511,-231 429,-231"/>
<text text-anchor="start" x="434" y="-240.2" font-family="Helvetica,sans-Serif" font-weight="bold" font-size="11.00">pand</text>
<text text-anchor="start" x="469" y="-239.2" font-family="Helvetica,sans-Serif" font-size="11.00">[table]</text>
<polygon fill="none" stroke="black" points="429,-213 429,-231 511,-231 511,-213 429,-213"/>
<text text-anchor="start" x="432" y="-219.2" font-family="Helvetica,sans-Serif" font-size="11.00">...</text>
<polygon fill="#ffffff" stroke="transparent" points="429,-195 429,-213 469,-213 469,-195 429,-195"/>
<polygon fill="none" stroke="black" points="429,-195 429,-213 469,-213 469,-195 429,-195"/>
<text text-anchor="start" x="432" y="-201.2" font-family="Helvetica,sans-Serif" font-size="11.00">&lt; 1</text>
<polygon fill="#ffffff" stroke="transparent" points="469,-195 469,-213 490,-213 490,-195 469,-195"/>
<polygon fill="none" stroke="black" points="469,-195 469,-213 490,-213 490,-195 469,-195"/>
<text text-anchor="start" x="479" y="-201.2" font-family="Helvetica,sans-Serif" font-size="11.00"> &#160;</text>
<polygon fill="#ffffff" stroke="transparent" points="490,-195 490,-213 511,-213 511,-195 490,-195"/>
<polygon fill="none" stroke="black" points="490,-195 490,-213 511,-213 511,-195 490,-195"/>
<text text-anchor="start" x="500" y="-201.2" font-family="Helvetica,sans-Serif" font-size="11.00"> &#160;</text>
</a>
</g>
</g>
<!-- pand&#45;&gt;object -->
<g id="edge7" class="edge">
<title>pand:w&#45;&gt;object:e</title>
<path fill="none" stroke="black" d="M413.17,-222.32C378.4,-223.99 361.13,-232.87 335,-263 287.52,-317.75 363.47,-420 291,-420"/>
<polygon fill="black" stroke="black" points="420,-222.17 428.08,-225.6 424,-222.09 428,-222 428,-222 428,-222 424,-222.09 427.92,-218.4 420,-222.17 420,-222.17"/>
<ellipse fill="none" stroke="black" cx="416.8" cy="-222.24" rx="3.2" ry="3.2"/>
</g>
<!-- risico -->
<g id="node9" class="node">
<title>risico</title>
<g id="a_node9"><a xlink:href="../../tables/risico.html" xlink:title="risico" target="_top">
<polygon fill="#ffffff" stroke="transparent" points="427.5,-116 427.5,-174 512.5,-174 512.5,-116 427.5,-116"/>
<polygon fill="#f5f5f5" stroke="transparent" points="428,-152 428,-174 513,-174 513,-152 428,-152"/>
<polygon fill="none" stroke="black" points="428,-152 428,-174 513,-174 513,-152 428,-152"/>
<text text-anchor="start" x="433" y="-161.2" font-family="Helvetica,sans-Serif" font-weight="bold" font-size="11.00">risico</text>
<text text-anchor="start" x="471" y="-160.2" font-family="Helvetica,sans-Serif" font-size="11.00">[table]</text>
<polygon fill="none" stroke="black" points="428,-134 428,-152 513,-152 513,-134 428,-134"/>
<text text-anchor="start" x="431" y="-140.2" font-family="Helvetica,sans-Serif" font-size="11.00">...</text>
<polygon fill="#ffffff" stroke="transparent" points="428,-116 428,-134 469,-134 469,-116 428,-116"/>
<polygon fill="none" stroke="black" points="428,-116 428,-134 469,-134 469,-116 428,-116"/>
<text text-anchor="start" x="431" y="-122.2" font-family="Helvetica,sans-Serif" font-size="11.00">&lt; 1</text>
<polygon fill="#ffffff" stroke="transparent" points="469,-116 469,-134 491,-134 491,-116 469,-116"/>
<polygon fill="none" stroke="black" points="469,-116 469,-134 491,-134 491,-116 469,-116"/>
<text text-anchor="start" x="480" y="-122.2" font-family="Helvetica,sans-Serif" font-size="11.00"> &#160;</text>
<polygon fill="#ffffff" stroke="transparent" points="491,-116 491,-134 513,-134 513,-116 491,-116"/>
<polygon fill="none" stroke="black" points="491,-116 491,-134 513,-134 513,-116 491,-116"/>
<text text-anchor="start" x="502" y="-122.2" font-family="Helvetica,sans-Serif" font-size="11.00"> &#160;</text>
</a>
</g>
</g>
<!-- risico&#45;&gt;object -->
<g id="edge8" class="edge">
<title>risico:w&#45;&gt;object:e</title>
<path fill="none" stroke="black" d="M412.25,-143.28C377.55,-144.77 359.48,-152.97 335,-184 301.96,-225.88 344.35,-420 291,-420"/>
<polygon fill="black" stroke="black" points="419,-143.15 427.07,-146.6 423,-143.08 427,-143 427,-143 427,-143 423,-143.08 426.93,-139.4 419,-143.15 419,-143.15"/>
<ellipse fill="none" stroke="black" cx="415.8" cy="-143.21" rx="3.2" ry="3.2"/>
</g>
<!-- scenario -->
<g id="node10" class="node">
<title>scenario</title>
<g id="a_node10"><a xlink:href="../../tables/scenario.html" xlink:title="scenario" target="_top">
<polygon fill="#ffffff" stroke="transparent" points="418,-37 418,-95 522,-95 522,-37 418,-37"/>
<polygon fill="#f5f5f5" stroke="transparent" points="418,-73 418,-95 522,-95 522,-73 418,-73"/>
<polygon fill="none" stroke="black" points="418,-73 418,-95 522,-95 522,-73 418,-73"/>
<text text-anchor="start" x="423" y="-82.2" font-family="Helvetica,sans-Serif" font-weight="bold" font-size="11.00">scenario</text>
<text text-anchor="start" x="480" y="-81.2" font-family="Helvetica,sans-Serif" font-size="11.00">[table]</text>
<polygon fill="none" stroke="black" points="418,-55 418,-73 522,-73 522,-55 418,-55"/>
<text text-anchor="start" x="421" y="-61.2" font-family="Helvetica,sans-Serif" font-size="11.00">...</text>
<polygon fill="#ffffff" stroke="transparent" points="418,-37 418,-55 469,-55 469,-37 418,-37"/>
<polygon fill="none" stroke="black" points="418,-37 418,-55 469,-55 469,-37 418,-37"/>
<text text-anchor="start" x="421" y="-43.2" font-family="Helvetica,sans-Serif" font-size="11.00">&lt; 2</text>
<polygon fill="#ffffff" stroke="transparent" points="469,-37 469,-55 495,-55 495,-37 469,-37"/>
<polygon fill="none" stroke="black" points="469,-37 469,-55 495,-55 495,-37 469,-37"/>
<text text-anchor="start" x="484" y="-43.2" font-family="Helvetica,sans-Serif" font-size="11.00"> &#160;</text>
<polygon fill="#ffffff" stroke="transparent" points="495,-37 495,-55 522,-55 522,-37 495,-37"/>
<polygon fill="none" stroke="black" points="495,-37 495,-55 522,-55 522,-37 495,-37"/>
<text text-anchor="start" x="511" y="-43.2" font-family="Helvetica,sans-Serif" font-size="11.00"> &#160;</text>
</a>
</g>
</g>
<!-- scenario&#45;&gt;object -->
<g id="edge9" class="edge">
<title>scenario:w&#45;&gt;object:e</title>
<path fill="none" stroke="black" d="M402.34,-64.43C371.64,-66.46 355.71,-76.17 335,-105 293.76,-162.4 361.68,-420 291,-420"/>
<polygon fill="black" stroke="black" points="409,-64.24 417.11,-67.6 413,-64.12 417,-64 417,-64 417,-64 413,-64.12 416.89,-60.4 409,-64.24 409,-64.24"/>
<ellipse fill="none" stroke="black" cx="405.8" cy="-64.33" rx="3.2" ry="3.2"/>
</g>
<!-- scheiding -->
<g id="node11" class="node">
<title>scheiding</title>
<g id="a_node11"><a xlink:href="../../tables/scheiding.html" xlink:title="scheiding" target="_top">
<polygon fill="#ffffff" stroke="transparent" points="415,-669 415,-727 525,-727 525,-669 415,-669"/>
<polygon fill="#f5f5f5" stroke="transparent" points="415,-705 415,-727 525,-727 525,-705 415,-705"/>
<polygon fill="none" stroke="black" points="415,-705 415,-727 525,-727 525,-705 415,-705"/>
<text text-anchor="start" x="420" y="-714.2" font-family="Helvetica,sans-Serif" font-weight="bold" font-size="11.00">scheiding</text>
<text text-anchor="start" x="483" y="-713.2" font-family="Helvetica,sans-Serif" font-size="11.00">[table]</text>
<polygon fill="none" stroke="black" points="415,-687 415,-705 525,-705 525,-687 415,-687"/>
<text text-anchor="start" x="418" y="-693.2" font-family="Helvetica,sans-Serif" font-size="11.00">...</text>
<polygon fill="#ffffff" stroke="transparent" points="415,-669 415,-687 469,-687 469,-669 415,-669"/>
<polygon fill="none" stroke="black" points="415,-669 415,-687 469,-687 469,-669 415,-669"/>
<text text-anchor="start" x="418" y="-675.2" font-family="Helvetica,sans-Serif" font-size="11.00">&lt; 2</text>
<polygon fill="#ffffff" stroke="transparent" points="469,-669 469,-687 497,-687 497,-669 469,-669"/>
<polygon fill="none" stroke="black" points="469,-669 469,-687 497,-687 497,-669 469,-669"/>
<text text-anchor="start" x="486" y="-675.2" font-family="Helvetica,sans-Serif" font-size="11.00"> &#160;</text>
<polygon fill="#ffffff" stroke="transparent" points="497,-669 497,-687 525,-687 525,-669 497,-669"/>
<polygon fill="none" stroke="black" points="497,-669 497,-687 525,-687 525,-669 497,-669"/>
<text text-anchor="start" x="514" y="-675.2" font-family="Helvetica,sans-Serif" font-size="11.00"> &#160;</text>
</a>
</g>
</g>
<!-- scheiding&#45;&gt;object -->
<g id="edge10" class="edge">
<title>scheiding:w&#45;&gt;object:e</title>
<path fill="none" stroke="black" d="M399.27,-695.6C370.57,-693.82 355.45,-685.49 335,-659 302,-616.25 345,-420 291,-420"/>
<polygon fill="black" stroke="black" points="406,-695.78 413.9,-699.6 410,-695.89 414,-696 414,-696 414,-696 410,-695.89 414.1,-692.4 406,-695.78 406,-695.78"/>
<ellipse fill="none" stroke="black" cx="402.8" cy="-695.7" rx="3.2" ry="3.2"/>
</g>
<!-- sector -->
<g id="node12" class="node">
<title>sector</title>
<g id="a_node12"><a xlink:href="../../tables/sector.html" xlink:title="sector" target="_top">
<polygon fill="#ffffff" stroke="transparent" points="424.5,-590 424.5,-648 515.5,-648 515.5,-590 424.5,-590"/>
<polygon fill="#f5f5f5" stroke="transparent" points="425,-626 425,-648 516,-648 516,-626 425,-626"/>
<polygon fill="none" stroke="black" points="425,-626 425,-648 516,-648 516,-626 425,-626"/>
<text text-anchor="start" x="430" y="-635.2" font-family="Helvetica,sans-Serif" font-weight="bold" font-size="11.00">sector</text>
<text text-anchor="start" x="474" y="-634.2" font-family="Helvetica,sans-Serif" font-size="11.00">[table]</text>
<polygon fill="none" stroke="black" points="425,-608 425,-626 516,-626 516,-608 425,-608"/>
<text text-anchor="start" x="428" y="-614.2" font-family="Helvetica,sans-Serif" font-size="11.00">...</text>
<polygon fill="#ffffff" stroke="transparent" points="425,-590 425,-608 469,-608 469,-590 425,-590"/>
<polygon fill="none" stroke="black" points="425,-590 425,-608 469,-608 469,-590 425,-590"/>
<text text-anchor="start" x="428" y="-596.2" font-family="Helvetica,sans-Serif" font-size="11.00">&lt; 2</text>
<polygon fill="#ffffff" stroke="transparent" points="469,-590 469,-608 492,-608 492,-590 469,-590"/>
<polygon fill="none" stroke="black" points="469,-590 469,-608 492,-608 492,-590 469,-590"/>
<text text-anchor="start" x="481" y="-596.2" font-family="Helvetica,sans-Serif" font-size="11.00"> &#160;</text>
<polygon fill="#ffffff" stroke="transparent" points="492,-590 492,-608 516,-608 516,-590 492,-590"/>
<polygon fill="none" stroke="black" points="492,-590 492,-608 516,-608 516,-590 492,-590"/>
<text text-anchor="start" x="505" y="-596.2" font-family="Helvetica,sans-Serif" font-size="11.00"> &#160;</text>
</a>
</g>
</g>
<!-- sector&#45;&gt;object -->
<g id="edge11" class="edge">
<title>sector:w&#45;&gt;object:e</title>
<path fill="none" stroke="black" d="M409.47,-616.75C376.69,-615.42 359.9,-608.24 335,-580 286.23,-524.68 364.75,-420 291,-420"/>
<polygon fill="black" stroke="black" points="416,-616.86 423.94,-620.6 420,-616.93 424,-617 424,-617 424,-617 420,-616.93 424.06,-613.4 416,-616.86 416,-616.86"/>
<ellipse fill="none" stroke="black" cx="412.8" cy="-616.8" rx="3.2" ry="3.2"/>
</g>
<!-- voorziening -->
<g id="node13" class="node">
<title>voorziening</title>
<g id="a_node13"><a xlink:href="../../tables/voorziening.html" xlink:title="voorziening" target="_top">
<polygon fill="#ffffff" stroke="transparent" points="408,-511 408,-569 532,-569 532,-511 408,-511"/>
<polygon fill="#f5f5f5" stroke="transparent" points="408,-547 408,-569 532,-569 532,-547 408,-547"/>
<polygon fill="none" stroke="black" points="408,-547 408,-569 532,-569 532,-547 408,-547"/>
<text text-anchor="start" x="413" y="-556.2" font-family="Helvetica,sans-Serif" font-weight="bold" font-size="11.00">voorziening</text>
<text text-anchor="start" x="490" y="-555.2" font-family="Helvetica,sans-Serif" font-size="11.00">[table]</text>
<polygon fill="none" stroke="black" points="408,-529 408,-547 532,-547 532,-529 408,-529"/>
<text text-anchor="start" x="411" y="-535.2" font-family="Helvetica,sans-Serif" font-size="11.00">...</text>
<polygon fill="#ffffff" stroke="transparent" points="408,-511 408,-529 469,-529 469,-511 408,-511"/>
<polygon fill="none" stroke="black" points="408,-511 408,-529 469,-529 469,-511 408,-511"/>
<text text-anchor="start" x="411" y="-517.2" font-family="Helvetica,sans-Serif" font-size="11.00">&lt; 2</text>
<polygon fill="#ffffff" stroke="transparent" points="469,-511 469,-529 500,-529 500,-511 469,-511"/>
<polygon fill="none" stroke="black" points="469,-511 469,-529 500,-529 500,-511 469,-511"/>
<text text-anchor="start" x="489" y="-517.2" font-family="Helvetica,sans-Serif" font-size="11.00"> &#160;</text>
<polygon fill="#ffffff" stroke="transparent" points="500,-511 500,-529 532,-529 532,-511 500,-511"/>
<polygon fill="none" stroke="black" points="500,-511 500,-529 532,-529 532,-511 500,-511"/>
<text text-anchor="start" x="521" y="-517.2" font-family="Helvetica,sans-Serif" font-size="11.00"> &#160;</text>
</a>
</g>
</g>
<!-- voorziening&#45;&gt;object -->
<g id="edge12" class="edge">
<title>voorziening:w&#45;&gt;object:e</title>
<path fill="none" stroke="black" d="M392.54,-537.21C367.63,-534.19 356.91,-522.41 335,-501 305.7,-472.36 331.97,-420 291,-420"/>
<polygon fill="black" stroke="black" points="399.01,-537.56 406.8,-541.59 403.01,-537.78 407,-538 407,-538 407,-538 403.01,-537.78 407.2,-534.41 399.01,-537.56 399.01,-537.56"/>
<ellipse fill="none" stroke="black" cx="395.82" cy="-537.39" rx="3.2" ry="3.2"/>
</g>
</g>
</svg>
