<?xml version="1.0" encoding="UTF-8" standalone="no"?>
<!DOCTYPE svg PUBLIC "-//W3C//DTD SVG 1.1//EN"
 "http://www.w3.org/Graphics/SVG/1.1/DTD/svg11.dtd">
<!-- Generated by graphviz version 2.50.0 (0)
 -->
<!-- Title: oneDegreeRelationshipsDiagram Pages: 1 -->
<svg width="494pt" height="489pt"
 viewBox="0.00 0.00 494.00 489.00" xmlns="http://www.w3.org/2000/svg" xmlns:xlink="http://www.w3.org/1999/xlink">
<g id="graph0" class="graph" transform="scale(1 1) rotate(0) translate(4 485)">
<title>oneDegreeRelationshipsDiagram</title>
<polygon fill="#ffffff" stroke="transparent" points="-4,4 -4,-485 490,-485 490,4 -4,4"/>
<text text-anchor="middle" x="79.5" y="-7.2" font-family="Helvetica,sans-Serif" font-size="11.00">Generated by SchemaSpy</text>
<!-- gevaarlijkestof -->
<g id="node1" class="node">
<title>gevaarlijkestof</title>
<g id="a_node1"><a xlink:href="../../tables/gevaarlijkestof.html" xlink:title="gevaarlijkestof" target="_top">
<polygon fill="#ffffff" stroke="transparent" points="186,-37 186,-477 478,-477 478,-37 186,-37"/>
<polygon fill="#f5f5f5" stroke="transparent" points="188,-453 188,-475 476,-475 476,-453 188,-453"/>
<polygon fill="none" stroke="black" points="188,-453 188,-475 476,-475 476,-453 188,-453"/>
<text text-anchor="start" x="193" y="-462.2" font-family="Helvetica,sans-Serif" font-weight="bold" font-size="11.00">gevaarlijkestof</text>
<text text-anchor="start" x="434" y="-461.2" font-family="Helvetica,sans-Serif" font-size="11.00">[table]</text>
<polygon fill="none" stroke="black" points="188,-431 188,-453 340,-453 340,-431 188,-431"/>
<image xlink:href="../../images/primaryKeys.png" width="11px" height="12px" preserveAspectRatio="xMinYMin meet" x="193" y="-448"/>
<text text-anchor="start" x="208" y="-439.2" font-family="Helvetica,sans-Serif" font-size="11.00">uuid</text>
<polygon fill="none" stroke="black" points="340,-431 340,-453 476,-453 476,-431 340,-431"/>
<text text-anchor="start" x="343" y="-439.2" font-family="Helvetica,sans-Serif" font-size="11.00">uuid[2147483647]</text>
<polygon fill="#ffffff" stroke="transparent" points="188,-409 188,-431 340,-431 340,-409 188,-409"/>
<polygon fill="none" stroke="black" points="188,-409 188,-431 340,-431 340,-409 188,-409"/>
<text text-anchor="start" x="208" y="-417.2" font-family="Helvetica,sans-Serif" font-size="11.00">geom</text>
<polygon fill="none" stroke="black" points="340,-409 340,-431 476,-431 476,-409 340,-409"/>
<text text-anchor="start" x="343" y="-417.2" font-family="Helvetica,sans-Serif" font-size="11.00">geometry[2147483647]</text>
<polygon fill="none" stroke="black" points="188,-387 188,-409 340,-409 340,-387 188,-387"/>
<text text-anchor="start" x="208" y="-395.2" font-family="Helvetica,sans-Serif" font-size="11.00">datumtijd</text>
<polygon fill="none" stroke="black" points="340,-387 340,-409 476,-409 476,-387 340,-387"/>
<text text-anchor="start" x="343" y="-395.2" font-family="Helvetica,sans-Serif" font-size="11.00">timestamptz[35,6]</text>
<polygon fill="none" stroke="black" points="188,-365 188,-387 340,-387 340,-365 188,-365"/>
<text text-anchor="start" x="208" y="-373.2" font-family="Helvetica,sans-Serif" font-size="11.00">gebruiker</text>
<polygon fill="none" stroke="black" points="340,-365 340,-387 476,-387 476,-365 340,-365"/>
<text text-anchor="start" x="343" y="-373.2" font-family="Helvetica,sans-Serif" font-size="11.00">varchar[255]</text>
<polygon fill="none" stroke="black" points="188,-343 188,-365 340,-365 340,-343 188,-343"/>
<text text-anchor="start" x="208" y="-351.2" font-family="Helvetica,sans-Serif" font-size="11.00">label</text>
<polygon fill="none" stroke="black" points="340,-343 340,-365 476,-365 476,-343 340,-343"/>
<text text-anchor="start" x="343" y="-351.2" font-family="Helvetica,sans-Serif" font-size="11.00">text[2147483647]</text>
<polygon fill="none" stroke="black" points="188,-321 188,-343 340,-343 340,-321 188,-321"/>
<text text-anchor="start" x="208" y="-329.2" font-family="Helvetica,sans-Serif" font-size="11.00">rotatie</text>
<polygon fill="none" stroke="black" points="340,-321 340,-343 476,-343 476,-321 340,-321"/>
<text text-anchor="start" x="343" y="-329.2" font-family="Helvetica,sans-Serif" font-size="11.00">int4[10]</text>
<polygon fill="none" stroke="black" points="188,-299 188,-321 340,-321 340,-299 188,-299"/>
<text text-anchor="start" x="208" y="-307.2" font-family="Helvetica,sans-Serif" font-size="11.00">bijzonderheden</text>
<polygon fill="none" stroke="black" points="340,-299 340,-321 476,-321 476,-299 340,-299"/>
<text text-anchor="start" x="343" y="-307.2" font-family="Helvetica,sans-Serif" font-size="11.00">text[2147483647]</text>
<polygon fill="none" stroke="black" points="188,-277 188,-299 340,-299 340,-277 188,-277"/>
<text text-anchor="start" x="208" y="-285.2" font-family="Helvetica,sans-Serif" font-size="11.00">plusinfo</text>
<polygon fill="none" stroke="black" points="340,-277 340,-299 476,-299 476,-277 340,-277"/>
<text text-anchor="start" x="343" y="-285.2" font-family="Helvetica,sans-Serif" font-size="11.00">jsonb[2147483647]</text>
<polygon fill="#ffffff" stroke="transparent" points="188,-255 188,-277 340,-277 340,-255 188,-255"/>
<polygon fill="none" stroke="black" points="188,-255 188,-277 340,-277 340,-255 188,-255"/>
<image xlink:href="../../images/foreignKeys.png" width="11px" height="12px" preserveAspectRatio="xMinYMin meet" x="193" y="-272"/>
<text text-anchor="start" x="208" y="-263.2" font-family="Helvetica,sans-Serif" font-size="11.00">object_uuid</text>
<polygon fill="none" stroke="black" points="340,-255 340,-277 476,-277 476,-255 340,-255"/>
<text text-anchor="start" x="343" y="-263.2" font-family="Helvetica,sans-Serif" font-size="11.00">uuid[2147483647]</text>
<polygon fill="#ffffff" stroke="transparent" points="188,-233 188,-255 340,-255 340,-233 188,-233"/>
<polygon fill="none" stroke="black" points="188,-233 188,-255 340,-255 340,-233 188,-233"/>
<text text-anchor="start" x="208" y="-241.2" font-family="Helvetica,sans-Serif" font-size="11.00">bouwlaag</text>
<polygon fill="none" stroke="black" points="340,-233 340,-255 476,-255 476,-233 340,-233"/>
<text text-anchor="start" x="343" y="-241.2" font-family="Helvetica,sans-Serif" font-size="11.00">int2[5]</text>
<polygon fill="none" stroke="black" points="188,-211 188,-233 340,-233 340,-211 188,-211"/>
<text text-anchor="start" x="208" y="-219.2" font-family="Helvetica,sans-Serif" font-size="11.00">ghs_categorie</text>
<polygon fill="none" stroke="black" points="340,-211 340,-233 476,-233 476,-211 340,-211"/>
<text text-anchor="start" x="343" y="-219.2" font-family="Helvetica,sans-Serif" font-size="11.00">int4[10]</text>
<polygon fill="none" stroke="black" points="188,-189 188,-211 340,-211 340,-189 188,-189"/>
<text text-anchor="start" x="208" y="-197.2" font-family="Helvetica,sans-Serif" font-size="11.00">ghs_divisie</text>
<polygon fill="none" stroke="black" points="340,-189 340,-211 476,-211 476,-189 340,-189"/>
<text text-anchor="start" x="343" y="-197.2" font-family="Helvetica,sans-Serif" font-size="11.00">int4[10]</text>
<polygon fill="none" stroke="black" points="188,-167 188,-189 340,-189 340,-167 188,-167"/>
<text text-anchor="start" x="208" y="-175.2" font-family="Helvetica,sans-Serif" font-size="11.00">identificatie_gevaar</text>
<polygon fill="none" stroke="black" points="340,-167 340,-189 476,-189 476,-167 340,-167"/>
<text text-anchor="start" x="343" y="-175.2" font-family="Helvetica,sans-Serif" font-size="11.00">text[2147483647]</text>
<polygon fill="none" stroke="black" points="188,-145 188,-167 340,-167 340,-145 188,-145"/>
<text text-anchor="start" x="208" y="-153.2" font-family="Helvetica,sans-Serif" font-size="11.00">identificatie_stof</text>
<polygon fill="none" stroke="black" points="340,-145 340,-167 476,-167 476,-145 340,-145"/>
<text text-anchor="start" x="343" y="-153.2" font-family="Helvetica,sans-Serif" font-size="11.00">int4[10]</text>
<polygon fill="none" stroke="black" points="188,-123 188,-145 340,-145 340,-123 188,-123"/>
<text text-anchor="start" x="208" y="-131.2" font-family="Helvetica,sans-Serif" font-size="11.00">hoeveelheid</text>
<polygon fill="none" stroke="black" points="340,-123 340,-145 476,-145 476,-123 340,-123"/>
<text text-anchor="start" x="343" y="-131.2" font-family="Helvetica,sans-Serif" font-size="11.00">int4[10]</text>
<polygon fill="none" stroke="black" points="188,-101 188,-123 340,-123 340,-101 188,-101"/>
<text text-anchor="start" x="208" y="-109.2" font-family="Helvetica,sans-Serif" font-size="11.00">eenheid</text>
<polygon fill="none" stroke="black" points="340,-101 340,-123 476,-123 476,-101 340,-101"/>
<text text-anchor="start" x="343" y="-109.2" font-family="Helvetica,sans-Serif" font-size="11.00">text[2147483647]</text>
<polygon fill="none" stroke="black" points="188,-79 188,-101 340,-101 340,-79 188,-79"/>
<text text-anchor="start" x="208" y="-87.2" font-family="Helvetica,sans-Serif" font-size="11.00">toestand</text>
<polygon fill="none" stroke="black" points="340,-79 340,-101 476,-101 476,-79 340,-79"/>
<text text-anchor="start" x="343" y="-87.2" font-family="Helvetica,sans-Serif" font-size="11.00">text[2147483647]</text>
<polygon fill="none" stroke="black" points="188,-57 188,-79 340,-79 340,-57 188,-57"/>
<text text-anchor="start" x="208" y="-65.2" font-family="Helvetica,sans-Serif" font-size="11.00">handelingsaanwijzing</text>
<polygon fill="none" stroke="black" points="340,-57 340,-79 476,-79 476,-57 340,-57"/>
<text text-anchor="start" x="343" y="-65.2" font-family="Helvetica,sans-Serif" font-size="11.00">text[2147483647]</text>
<polygon fill="#ffffff" stroke="transparent" points="188,-39 188,-57 270,-57 270,-39 188,-39"/>
<polygon fill="none" stroke="black" points="188,-39 188,-57 270,-57 270,-39 188,-39"/>
<text text-anchor="start" x="191" y="-45.2" font-family="Helvetica,sans-Serif" font-size="11.00">&lt; 1</text>
<polygon fill="#ffffff" stroke="transparent" points="270,-39 270,-57 340,-57 340,-39 270,-39"/>
<polygon fill="none" stroke="black" points="270,-39 270,-57 340,-57 340,-39 270,-39"/>
<text text-anchor="start" x="329" y="-45.2" font-family="Helvetica,sans-Serif" font-size="11.00"> &#160;</text>
<polygon fill="#ffffff" stroke="transparent" points="340,-39 340,-57 476,-57 476,-39 340,-39"/>
<polygon fill="none" stroke="black" points="340,-39 340,-57 476,-57 476,-39 340,-39"/>
<text text-anchor="start" x="453" y="-45.2" font-family="Helvetica,sans-Serif" font-size="11.00">0 &gt;</text>
<polygon fill="none" stroke="black" stroke-width="2" points="187,-38 187,-476 477,-476 477,-38 187,-38"/>
</a>
</g>
</g>
<!-- object -->
<g id="node2" class="node">
<title>object</title>
<g id="a_node2"><a xlink:href="../../tables/object.html" xlink:title="object" target="_top">
<polygon fill="#ffffff" stroke="transparent" points="8,-153 8,-299 137,-299 137,-153 8,-153"/>
<polygon fill="#f5f5f5" stroke="transparent" points="8.5,-277 8.5,-299 137.5,-299 137.5,-277 8.5,-277"/>
<polygon fill="none" stroke="black" points="8.5,-277 8.5,-299 137.5,-299 137.5,-277 8.5,-277"/>
<text text-anchor="start" x="13.5" y="-286.2" font-family="Helvetica,sans-Serif" font-weight="bold" font-size="11.00">object</text>
<text text-anchor="start" x="95.5" y="-285.2" font-family="Helvetica,sans-Serif" font-size="11.00">[table]</text>
<polygon fill="none" stroke="black" points="8.5,-255 8.5,-277 137.5,-277 137.5,-255 8.5,-255"/>
<image xlink:href="../../images/primaryKeys.png" width="11px" height="12px" preserveAspectRatio="xMinYMin meet" x="13.5" y="-272"/>
<text text-anchor="start" x="28.5" y="-263.2" font-family="Helvetica,sans-Serif" font-size="11.00">uuid</text>
<polygon fill="#ffffff" stroke="transparent" points="8.5,-233 8.5,-255 137.5,-255 137.5,-233 8.5,-233"/>
<polygon fill="none" stroke="black" points="8.5,-233 8.5,-255 137.5,-255 137.5,-233 8.5,-233"/>
<text text-anchor="start" x="28.5" y="-241.2" font-family="Helvetica,sans-Serif" font-size="11.00">geom</text>
<polygon fill="#ffffff" stroke="transparent" points="8.5,-211 8.5,-233 137.5,-233 137.5,-211 8.5,-211"/>
<polygon fill="none" stroke="black" points="8.5,-211 8.5,-233 137.5,-233 137.5,-211 8.5,-211"/>
<text text-anchor="start" x="28.5" y="-219.2" font-family="Helvetica,sans-Serif" font-size="11.00">revisie_frequentie</text>
<polygon fill="#ffffff" stroke="transparent" points="8.5,-189 8.5,-211 137.5,-211 137.5,-189 8.5,-189"/>
<polygon fill="none" stroke="black" points="8.5,-189 8.5,-211 137.5,-211 137.5,-189 8.5,-189"/>
<image xlink:href="../../images/foreignKeys.png" width="11px" height="12px" preserveAspectRatio="xMinYMin meet" x="13.5" y="-206"/>
<text text-anchor="start" x="28.5" y="-197.2" font-family="Helvetica,sans-Serif" font-size="11.00">fase_id</text>
<polygon fill="none" stroke="black" points="8.5,-171 8.5,-189 137.5,-189 137.5,-171 8.5,-171"/>
<text text-anchor="start" x="11.5" y="-177.2" font-family="Helvetica,sans-Serif" font-size="11.00">...</text>
<polygon fill="#ffffff" stroke="transparent" points="8.5,-153 8.5,-171 62.5,-171 62.5,-153 8.5,-153"/>
<polygon fill="none" stroke="black" points="8.5,-153 8.5,-171 62.5,-171 62.5,-153 8.5,-153"/>
<text text-anchor="start" x="11.5" y="-159.2" font-family="Helvetica,sans-Serif" font-size="11.00">&lt; 1</text>
<polygon fill="#ffffff" stroke="transparent" points="62.5,-153 62.5,-171 90.5,-171 90.5,-153 62.5,-153"/>
<polygon fill="none" stroke="black" points="62.5,-153 62.5,-171 90.5,-171 90.5,-153 62.5,-153"/>
<text text-anchor="start" x="79.5" y="-159.2" font-family="Helvetica,sans-Serif" font-size="11.00"> &#160;</text>
<polygon fill="#ffffff" stroke="transparent" points="90.5,-153 90.5,-171 137.5,-171 137.5,-153 90.5,-153"/>
<polygon fill="none" stroke="black" points="90.5,-153 90.5,-171 137.5,-171 137.5,-153 90.5,-153"/>
<text text-anchor="start" x="107.5" y="-159.2" font-family="Helvetica,sans-Serif" font-size="11.00">10 &gt;</text>
</a>
</g>
</g>
<!-- gevaarlijkestof&#45;&gt;object -->
<g id="edge1" class="edge">
<title>gevaarlijkestof:w&#45;&gt;object:e</title>
<path fill="none" stroke="black" d="M172.28,-266C161.29,-266 154.16,-266 138.5,-266"/>
<polygon fill="black" stroke="black" points="179,-266 187,-269.6 183,-266 187,-266 187,-266 187,-266 183,-266 187,-262.4 179,-266 179,-266"/>
<ellipse fill="none" stroke="black" cx="175.8" cy="-266" rx="3.2" ry="3.2"/>
</g>
</g>
</svg>
