<?xml version="1.0" encoding="UTF-8" standalone="no"?>
<!DOCTYPE svg PUBLIC "-//W3C//DTD SVG 1.1//EN"
 "http://www.w3.org/Graphics/SVG/1.1/DTD/svg11.dtd">
<!-- Generated by graphviz version 2.50.0 (0)
 -->
<!-- Title: twoDegreesRelationshipsDiagram Pages: 1 -->
<svg width="642pt" height="1200pt"
 viewBox="0.00 0.00 642.00 1200.00" xmlns="http://www.w3.org/2000/svg" xmlns:xlink="http://www.w3.org/1999/xlink">
<g id="graph0" class="graph" transform="scale(1 1) rotate(0) translate(4 1196)">
<title>twoDegreesRelationshipsDiagram</title>
<polygon fill="#ffffff" stroke="transparent" points="-4,4 -4,-1196 638,-1196 638,4 -4,4"/>
<text text-anchor="middle" x="79.5" y="-7.2" font-family="Helvetica,sans-Serif" font-size="11.00">Generated by SchemaSpy</text>
<!-- bereikbaarheid -->
<g id="node1" class="node">
<title>bereikbaarheid</title>
<g id="a_node1"><a xlink:href="../../tables/bereikbaarheid.html" xlink:title="bereikbaarheid" target="_top">
<polygon fill="#ffffff" stroke="transparent" points="407.5,-1130 407.5,-1188 552.5,-1188 552.5,-1130 407.5,-1130"/>
<polygon fill="#f5f5f5" stroke="transparent" points="408,-1166 408,-1188 553,-1188 553,-1166 408,-1166"/>
<polygon fill="none" stroke="black" points="408,-1166 408,-1188 553,-1188 553,-1166 408,-1166"/>
<text text-anchor="start" x="413" y="-1175.2" font-family="Helvetica,sans-Serif" font-weight="bold" font-size="11.00">bereikbaarheid</text>
<text text-anchor="start" x="511" y="-1174.2" font-family="Helvetica,sans-Serif" font-size="11.00">[table]</text>
<polygon fill="none" stroke="black" points="408,-1148 408,-1166 553,-1166 553,-1148 408,-1148"/>
<text text-anchor="start" x="411" y="-1154.2" font-family="Helvetica,sans-Serif" font-size="11.00">...</text>
<polygon fill="#ffffff" stroke="transparent" points="408,-1130 408,-1148 479,-1148 479,-1130 408,-1130"/>
<polygon fill="none" stroke="black" points="408,-1130 408,-1148 479,-1148 479,-1130 408,-1130"/>
<text text-anchor="start" x="411" y="-1136.2" font-family="Helvetica,sans-Serif" font-size="11.00">&lt; 2</text>
<polygon fill="#ffffff" stroke="transparent" points="479,-1130 479,-1148 516,-1148 516,-1130 479,-1130"/>
<polygon fill="none" stroke="black" points="479,-1130 479,-1148 516,-1148 516,-1130 479,-1130"/>
<text text-anchor="start" x="505" y="-1136.2" font-family="Helvetica,sans-Serif" font-size="11.00"> &#160;</text>
<polygon fill="#ffffff" stroke="transparent" points="516,-1130 516,-1148 553,-1148 553,-1130 516,-1130"/>
<polygon fill="none" stroke="black" points="516,-1130 516,-1148 553,-1148 553,-1130 516,-1130"/>
<text text-anchor="start" x="542" y="-1136.2" font-family="Helvetica,sans-Serif" font-size="11.00"> &#160;</text>
</a>
</g>
</g>
<!-- object -->
<g id="node2" class="node">
<title>object</title>
<g id="a_node2"><a xlink:href="../../tables/object.html" xlink:title="object" target="_top">
<polygon fill="#ffffff" stroke="transparent" points="156,-306 156,-452 285,-452 285,-306 156,-306"/>
<polygon fill="#f5f5f5" stroke="transparent" points="156.5,-430 156.5,-452 285.5,-452 285.5,-430 156.5,-430"/>
<polygon fill="none" stroke="black" points="156.5,-430 156.5,-452 285.5,-452 285.5,-430 156.5,-430"/>
<text text-anchor="start" x="161.5" y="-439.2" font-family="Helvetica,sans-Serif" font-weight="bold" font-size="11.00">object</text>
<text text-anchor="start" x="243.5" y="-438.2" font-family="Helvetica,sans-Serif" font-size="11.00">[table]</text>
<polygon fill="none" stroke="black" points="156.5,-408 156.5,-430 285.5,-430 285.5,-408 156.5,-408"/>
<image xlink:href="../../images/primaryKeys.png" width="11px" height="12px" preserveAspectRatio="xMinYMin meet" x="161.5" y="-425"/>
<text text-anchor="start" x="176.5" y="-416.2" font-family="Helvetica,sans-Serif" font-size="11.00">uuid</text>
<polygon fill="#ffffff" stroke="transparent" points="156.5,-386 156.5,-408 285.5,-408 285.5,-386 156.5,-386"/>
<polygon fill="none" stroke="black" points="156.5,-386 156.5,-408 285.5,-408 285.5,-386 156.5,-386"/>
<text text-anchor="start" x="176.5" y="-394.2" font-family="Helvetica,sans-Serif" font-size="11.00">geom</text>
<polygon fill="#ffffff" stroke="transparent" points="156.5,-364 156.5,-386 285.5,-386 285.5,-364 156.5,-364"/>
<polygon fill="none" stroke="black" points="156.5,-364 156.5,-386 285.5,-386 285.5,-364 156.5,-364"/>
<text text-anchor="start" x="176.5" y="-372.2" font-family="Helvetica,sans-Serif" font-size="11.00">revisie_frequentie</text>
<polygon fill="#ffffff" stroke="transparent" points="156.5,-342 156.5,-364 285.5,-364 285.5,-342 156.5,-342"/>
<polygon fill="none" stroke="black" points="156.5,-342 156.5,-364 285.5,-364 285.5,-342 156.5,-342"/>
<image xlink:href="../../images/foreignKeys.png" width="11px" height="12px" preserveAspectRatio="xMinYMin meet" x="161.5" y="-359"/>
<text text-anchor="start" x="176.5" y="-350.2" font-family="Helvetica,sans-Serif" font-size="11.00">fase_id</text>
<polygon fill="none" stroke="black" points="156.5,-324 156.5,-342 285.5,-342 285.5,-324 156.5,-324"/>
<text text-anchor="start" x="159.5" y="-330.2" font-family="Helvetica,sans-Serif" font-size="11.00">...</text>
<polygon fill="#ffffff" stroke="transparent" points="156.5,-306 156.5,-324 210.5,-324 210.5,-306 156.5,-306"/>
<polygon fill="none" stroke="black" points="156.5,-306 156.5,-324 210.5,-324 210.5,-306 156.5,-306"/>
<text text-anchor="start" x="159.5" y="-312.2" font-family="Helvetica,sans-Serif" font-size="11.00">&lt; 1</text>
<polygon fill="#ffffff" stroke="transparent" points="210.5,-306 210.5,-324 238.5,-324 238.5,-306 210.5,-306"/>
<polygon fill="none" stroke="black" points="210.5,-306 210.5,-324 238.5,-324 238.5,-306 210.5,-306"/>
<text text-anchor="start" x="227.5" y="-312.2" font-family="Helvetica,sans-Serif" font-size="11.00"> &#160;</text>
<polygon fill="#ffffff" stroke="transparent" points="238.5,-306 238.5,-324 285.5,-324 285.5,-306 238.5,-306"/>
<polygon fill="none" stroke="black" points="238.5,-306 238.5,-324 285.5,-324 285.5,-306 238.5,-306"/>
<text text-anchor="start" x="255.5" y="-312.2" font-family="Helvetica,sans-Serif" font-size="11.00">10 &gt;</text>
</a>
</g>
</g>
<!-- bereikbaarheid&#45;&gt;object -->
<g id="edge1" class="edge">
<title>bereikbaarheid:w&#45;&gt;object:e</title>
<path fill="none" stroke="black" d="M392.26,-1156.72C362.29,-1155.35 345.36,-1148.34 326,-1120 282,-1055.58 364.51,-419 286.5,-419"/>
<polygon fill="black" stroke="black" points="399,-1156.85 406.93,-1160.6 403,-1156.92 407,-1157 407,-1157 407,-1157 403,-1156.92 407.07,-1153.4 399,-1156.85 399,-1156.85"/>
<ellipse fill="none" stroke="black" cx="395.8" cy="-1156.78" rx="3.2" ry="3.2"/>
</g>
<!-- roi.fase -->
<g id="node5" class="node">
<title>roi.fase</title>
<g id="a_node5"><a xlink:href="../../../roi/tables/fase.html" xlink:title="roi.fase" target="_top">
<polygon fill="#ffffff" stroke="transparent" points="8,-326 8,-384 107,-384 107,-326 8,-326"/>
<polygon fill="#f5f5f5" stroke="transparent" points="8.5,-362 8.5,-384 107.5,-384 107.5,-362 8.5,-362"/>
<polygon fill="none" stroke="black" points="8.5,-362 8.5,-384 107.5,-384 107.5,-362 8.5,-362"/>
<text text-anchor="start" x="13.5" y="-371.2" font-family="Helvetica,sans-Serif" font-weight="bold" font-size="11.00">roi.fase</text>
<text text-anchor="start" x="65.5" y="-370.2" font-family="Helvetica,sans-Serif" font-size="11.00">[table]</text>
<polygon fill="none" stroke="black" points="8.5,-344 8.5,-362 107.5,-362 107.5,-344 8.5,-344"/>
<text text-anchor="start" x="11.5" y="-350.2" font-family="Helvetica,sans-Serif" font-size="11.00">...</text>
<polygon fill="#ffffff" stroke="transparent" points="8.5,-326 8.5,-344 44.5,-344 44.5,-326 8.5,-326"/>
<polygon fill="none" stroke="black" points="8.5,-326 8.5,-344 44.5,-344 44.5,-326 8.5,-326"/>
<text text-anchor="start" x="11.5" y="-332.2" font-family="Helvetica,sans-Serif" font-size="11.00"> &#160;</text>
<polygon fill="#ffffff" stroke="transparent" points="44.5,-326 44.5,-344 69.5,-344 69.5,-326 44.5,-326"/>
<polygon fill="none" stroke="black" points="44.5,-326 44.5,-344 69.5,-344 69.5,-326 44.5,-326"/>
<text text-anchor="start" x="58.5" y="-332.2" font-family="Helvetica,sans-Serif" font-size="11.00"> &#160;</text>
<polygon fill="#ffffff" stroke="transparent" points="69.5,-326 69.5,-344 107.5,-344 107.5,-326 69.5,-326"/>
<polygon fill="none" stroke="black" points="69.5,-326 69.5,-344 107.5,-344 107.5,-326 69.5,-326"/>
<text text-anchor="start" x="84.5" y="-332.2" font-family="Helvetica,sans-Serif" font-size="11.00">1 &gt;</text>
</a>
</g>
</g>
<!-- object&#45;&gt;roi.fase -->
<g id="edge4" class="edge">
<title>object:w&#45;&gt;roi.fase:e</title>
<path fill="none" stroke="black" d="M140.9,-353C130.43,-353 123.51,-353 108.5,-353"/>
<polygon fill="black" stroke="black" points="147.5,-353 155.5,-356.6 151.5,-353 155.5,-353 155.5,-353 155.5,-353 151.5,-353 155.5,-349.4 147.5,-353 147.5,-353"/>
<ellipse fill="none" stroke="black" cx="144.3" cy="-353" rx="3.2" ry="3.2"/>
</g>
<!-- gevaarlijkestof -->
<g id="node3" class="node">
<title>gevaarlijkestof</title>
<g id="a_node3"><a xlink:href="../../tables/gevaarlijkestof.html" xlink:title="gevaarlijkestof" target="_top">
<polygon fill="#ffffff" stroke="transparent" points="334,-669 334,-1109 626,-1109 626,-669 334,-669"/>
<polygon fill="#f5f5f5" stroke="transparent" points="336,-1085 336,-1107 624,-1107 624,-1085 336,-1085"/>
<polygon fill="none" stroke="black" points="336,-1085 336,-1107 624,-1107 624,-1085 336,-1085"/>
<text text-anchor="start" x="341" y="-1094.2" font-family="Helvetica,sans-Serif" font-weight="bold" font-size="11.00">gevaarlijkestof</text>
<text text-anchor="start" x="582" y="-1093.2" font-family="Helvetica,sans-Serif" font-size="11.00">[table]</text>
<polygon fill="none" stroke="black" points="336,-1063 336,-1085 488,-1085 488,-1063 336,-1063"/>
<image xlink:href="../../images/primaryKeys.png" width="11px" height="12px" preserveAspectRatio="xMinYMin meet" x="341" y="-1080"/>
<text text-anchor="start" x="356" y="-1071.2" font-family="Helvetica,sans-Serif" font-size="11.00">uuid</text>
<polygon fill="none" stroke="black" points="488,-1063 488,-1085 624,-1085 624,-1063 488,-1063"/>
<text text-anchor="start" x="491" y="-1071.2" font-family="Helvetica,sans-Serif" font-size="11.00">uuid[2147483647]</text>
<polygon fill="#ffffff" stroke="transparent" points="336,-1041 336,-1063 488,-1063 488,-1041 336,-1041"/>
<polygon fill="none" stroke="black" points="336,-1041 336,-1063 488,-1063 488,-1041 336,-1041"/>
<text text-anchor="start" x="356" y="-1049.2" font-family="Helvetica,sans-Serif" font-size="11.00">geom</text>
<polygon fill="none" stroke="black" points="488,-1041 488,-1063 624,-1063 624,-1041 488,-1041"/>
<text text-anchor="start" x="491" y="-1049.2" font-family="Helvetica,sans-Serif" font-size="11.00">geometry[2147483647]</text>
<polygon fill="none" stroke="black" points="336,-1019 336,-1041 488,-1041 488,-1019 336,-1019"/>
<text text-anchor="start" x="356" y="-1027.2" font-family="Helvetica,sans-Serif" font-size="11.00">datumtijd</text>
<polygon fill="none" stroke="black" points="488,-1019 488,-1041 624,-1041 624,-1019 488,-1019"/>
<text text-anchor="start" x="491" y="-1027.2" font-family="Helvetica,sans-Serif" font-size="11.00">timestamptz[35,6]</text>
<polygon fill="none" stroke="black" points="336,-997 336,-1019 488,-1019 488,-997 336,-997"/>
<text text-anchor="start" x="356" y="-1005.2" font-family="Helvetica,sans-Serif" font-size="11.00">gebruiker</text>
<polygon fill="none" stroke="black" points="488,-997 488,-1019 624,-1019 624,-997 488,-997"/>
<text text-anchor="start" x="491" y="-1005.2" font-family="Helvetica,sans-Serif" font-size="11.00">varchar[255]</text>
<polygon fill="none" stroke="black" points="336,-975 336,-997 488,-997 488,-975 336,-975"/>
<text text-anchor="start" x="356" y="-983.2" font-family="Helvetica,sans-Serif" font-size="11.00">label</text>
<polygon fill="none" stroke="black" points="488,-975 488,-997 624,-997 624,-975 488,-975"/>
<text text-anchor="start" x="491" y="-983.2" font-family="Helvetica,sans-Serif" font-size="11.00">text[2147483647]</text>
<polygon fill="none" stroke="black" points="336,-953 336,-975 488,-975 488,-953 336,-953"/>
<text text-anchor="start" x="356" y="-961.2" font-family="Helvetica,sans-Serif" font-size="11.00">rotatie</text>
<polygon fill="none" stroke="black" points="488,-953 488,-975 624,-975 624,-953 488,-953"/>
<text text-anchor="start" x="491" y="-961.2" font-family="Helvetica,sans-Serif" font-size="11.00">int4[10]</text>
<polygon fill="none" stroke="black" points="336,-931 336,-953 488,-953 488,-931 336,-931"/>
<text text-anchor="start" x="356" y="-939.2" font-family="Helvetica,sans-Serif" font-size="11.00">bijzonderheden</text>
<polygon fill="none" stroke="black" points="488,-931 488,-953 624,-953 624,-931 488,-931"/>
<text text-anchor="start" x="491" y="-939.2" font-family="Helvetica,sans-Serif" font-size="11.00">text[2147483647]</text>
<polygon fill="none" stroke="black" points="336,-909 336,-931 488,-931 488,-909 336,-909"/>
<text text-anchor="start" x="356" y="-917.2" font-family="Helvetica,sans-Serif" font-size="11.00">plusinfo</text>
<polygon fill="none" stroke="black" points="488,-909 488,-931 624,-931 624,-909 488,-909"/>
<text text-anchor="start" x="491" y="-917.2" font-family="Helvetica,sans-Serif" font-size="11.00">jsonb[2147483647]</text>
<polygon fill="#ffffff" stroke="transparent" points="336,-887 336,-909 488,-909 488,-887 336,-887"/>
<polygon fill="none" stroke="black" points="336,-887 336,-909 488,-909 488,-887 336,-887"/>
<image xlink:href="../../images/foreignKeys.png" width="11px" height="12px" preserveAspectRatio="xMinYMin meet" x="341" y="-904"/>
<text text-anchor="start" x="356" y="-895.2" font-family="Helvetica,sans-Serif" font-size="11.00">object_uuid</text>
<polygon fill="none" stroke="black" points="488,-887 488,-909 624,-909 624,-887 488,-887"/>
<text text-anchor="start" x="491" y="-895.2" font-family="Helvetica,sans-Serif" font-size="11.00">uuid[2147483647]</text>
<polygon fill="#ffffff" stroke="transparent" points="336,-865 336,-887 488,-887 488,-865 336,-865"/>
<polygon fill="none" stroke="black" points="336,-865 336,-887 488,-887 488,-865 336,-865"/>
<text text-anchor="start" x="356" y="-873.2" font-family="Helvetica,sans-Serif" font-size="11.00">bouwlaag</text>
<polygon fill="none" stroke="black" points="488,-865 488,-887 624,-887 624,-865 488,-865"/>
<text text-anchor="start" x="491" y="-873.2" font-family="Helvetica,sans-Serif" font-size="11.00">int2[5]</text>
<polygon fill="none" stroke="black" points="336,-843 336,-865 488,-865 488,-843 336,-843"/>
<text text-anchor="start" x="356" y="-851.2" font-family="Helvetica,sans-Serif" font-size="11.00">ghs_categorie</text>
<polygon fill="none" stroke="black" points="488,-843 488,-865 624,-865 624,-843 488,-843"/>
<text text-anchor="start" x="491" y="-851.2" font-family="Helvetica,sans-Serif" font-size="11.00">int4[10]</text>
<polygon fill="none" stroke="black" points="336,-821 336,-843 488,-843 488,-821 336,-821"/>
<text text-anchor="start" x="356" y="-829.2" font-family="Helvetica,sans-Serif" font-size="11.00">ghs_divisie</text>
<polygon fill="none" stroke="black" points="488,-821 488,-843 624,-843 624,-821 488,-821"/>
<text text-anchor="start" x="491" y="-829.2" font-family="Helvetica,sans-Serif" font-size="11.00">int4[10]</text>
<polygon fill="none" stroke="black" points="336,-799 336,-821 488,-821 488,-799 336,-799"/>
<text text-anchor="start" x="356" y="-807.2" font-family="Helvetica,sans-Serif" font-size="11.00">identificatie_gevaar</text>
<polygon fill="none" stroke="black" points="488,-799 488,-821 624,-821 624,-799 488,-799"/>
<text text-anchor="start" x="491" y="-807.2" font-family="Helvetica,sans-Serif" font-size="11.00">text[2147483647]</text>
<polygon fill="none" stroke="black" points="336,-777 336,-799 488,-799 488,-777 336,-777"/>
<text text-anchor="start" x="356" y="-785.2" font-family="Helvetica,sans-Serif" font-size="11.00">identificatie_stof</text>
<polygon fill="none" stroke="black" points="488,-777 488,-799 624,-799 624,-777 488,-777"/>
<text text-anchor="start" x="491" y="-785.2" font-family="Helvetica,sans-Serif" font-size="11.00">int4[10]</text>
<polygon fill="none" stroke="black" points="336,-755 336,-777 488,-777 488,-755 336,-755"/>
<text text-anchor="start" x="356" y="-763.2" font-family="Helvetica,sans-Serif" font-size="11.00">hoeveelheid</text>
<polygon fill="none" stroke="black" points="488,-755 488,-777 624,-777 624,-755 488,-755"/>
<text text-anchor="start" x="491" y="-763.2" font-family="Helvetica,sans-Serif" font-size="11.00">int4[10]</text>
<polygon fill="none" stroke="black" points="336,-733 336,-755 488,-755 488,-733 336,-733"/>
<text text-anchor="start" x="356" y="-741.2" font-family="Helvetica,sans-Serif" font-size="11.00">eenheid</text>
<polygon fill="none" stroke="black" points="488,-733 488,-755 624,-755 624,-733 488,-733"/>
<text text-anchor="start" x="491" y="-741.2" font-family="Helvetica,sans-Serif" font-size="11.00">text[2147483647]</text>
<polygon fill="none" stroke="black" points="336,-711 336,-733 488,-733 488,-711 336,-711"/>
<text text-anchor="start" x="356" y="-719.2" font-family="Helvetica,sans-Serif" font-size="11.00">toestand</text>
<polygon fill="none" stroke="black" points="488,-711 488,-733 624,-733 624,-711 488,-711"/>
<text text-anchor="start" x="491" y="-719.2" font-family="Helvetica,sans-Serif" font-size="11.00">text[2147483647]</text>
<polygon fill="none" stroke="black" points="336,-689 336,-711 488,-711 488,-689 336,-689"/>
<text text-anchor="start" x="356" y="-697.2" font-family="Helvetica,sans-Serif" font-size="11.00">handelingsaanwijzing</text>
<polygon fill="none" stroke="black" points="488,-689 488,-711 624,-711 624,-689 488,-689"/>
<text text-anchor="start" x="491" y="-697.2" font-family="Helvetica,sans-Serif" font-size="11.00">text[2147483647]</text>
<polygon fill="#ffffff" stroke="transparent" points="336,-671 336,-689 418,-689 418,-671 336,-671"/>
<polygon fill="none" stroke="black" points="336,-671 336,-689 418,-689 418,-671 336,-671"/>
<text text-anchor="start" x="339" y="-677.2" font-family="Helvetica,sans-Serif" font-size="11.00">&lt; 1</text>
<polygon fill="#ffffff" stroke="transparent" points="418,-671 418,-689 488,-689 488,-671 418,-671"/>
<polygon fill="none" stroke="black" points="418,-671 418,-689 488,-689 488,-671 418,-671"/>
<text text-anchor="start" x="477" y="-677.2" font-family="Helvetica,sans-Serif" font-size="11.00"> &#160;</text>
<polygon fill="#ffffff" stroke="transparent" points="488,-671 488,-689 624,-689 624,-671 488,-671"/>
<polygon fill="none" stroke="black" points="488,-671 488,-689 624,-689 624,-671 488,-671"/>
<text text-anchor="start" x="601" y="-677.2" font-family="Helvetica,sans-Serif" font-size="11.00">0 &gt;</text>
<polygon fill="none" stroke="black" stroke-width="2" points="335,-670 335,-1108 625,-1108 625,-670 335,-670"/>
</a>
</g>
</g>
<!-- gevaarlijkestof&#45;&gt;object -->
<g id="edge2" class="edge">
<title>gevaarlijkestof:w&#45;&gt;object:e</title>
<path fill="none" stroke="black" d="M320.74,-894.42C244.11,-850.59 388.06,-419 286.5,-419"/>
<polygon fill="black" stroke="black" points="327.24,-896.05 334.12,-901.49 331.12,-897.03 335,-898 335,-898 335,-898 331.12,-897.03 335.88,-894.51 327.24,-896.05 327.24,-896.05"/>
<ellipse fill="none" stroke="black" cx="324.14" cy="-895.27" rx="3.2" ry="3.2"/>
</g>
<!-- label -->
<g id="node4" class="node">
<title>label</title>
<g id="a_node4"><a xlink:href="../../tables/label.html" xlink:title="label" target="_top">
<polygon fill="#ffffff" stroke="transparent" points="439,-590 439,-648 521,-648 521,-590 439,-590"/>
<polygon fill="#f5f5f5" stroke="transparent" points="439,-626 439,-648 521,-648 521,-626 439,-626"/>
<polygon fill="none" stroke="black" points="439,-626 439,-648 521,-648 521,-626 439,-626"/>
<text text-anchor="start" x="444" y="-635.2" font-family="Helvetica,sans-Serif" font-weight="bold" font-size="11.00">label</text>
<text text-anchor="start" x="479" y="-634.2" font-family="Helvetica,sans-Serif" font-size="11.00">[table]</text>
<polygon fill="none" stroke="black" points="439,-608 439,-626 521,-626 521,-608 439,-608"/>
<text text-anchor="start" x="442" y="-614.2" font-family="Helvetica,sans-Serif" font-size="11.00">...</text>
<polygon fill="#ffffff" stroke="transparent" points="439,-590 439,-608 479,-608 479,-590 439,-590"/>
<polygon fill="none" stroke="black" points="439,-590 439,-608 479,-608 479,-590 439,-590"/>
<text text-anchor="start" x="442" y="-596.2" font-family="Helvetica,sans-Serif" font-size="11.00">&lt; 2</text>
<polygon fill="#ffffff" stroke="transparent" points="479,-590 479,-608 500,-608 500,-590 479,-590"/>
<polygon fill="none" stroke="black" points="479,-590 479,-608 500,-608 500,-590 479,-590"/>
<text text-anchor="start" x="489" y="-596.2" font-family="Helvetica,sans-Serif" font-size="11.00"> &#160;</text>
<polygon fill="#ffffff" stroke="transparent" points="500,-590 500,-608 521,-608 521,-590 500,-590"/>
<polygon fill="none" stroke="black" points="500,-590 500,-608 521,-608 521,-590 500,-590"/>
<text text-anchor="start" x="510" y="-596.2" font-family="Helvetica,sans-Serif" font-size="11.00"> &#160;</text>
</a>
</g>
</g>
<!-- label&#45;&gt;object -->
<g id="edge3" class="edge">
<title>label:w&#45;&gt;object:e</title>
<path fill="none" stroke="black" d="M423.42,-617C380.78,-616.91 358.11,-614.74 326,-580 275.99,-525.9 360.18,-419 286.5,-419"/>
<polygon fill="black" stroke="black" points="430,-617 438,-620.6 434,-617 438,-617 438,-617 438,-617 434,-617 438,-613.4 430,-617 430,-617"/>
<ellipse fill="none" stroke="black" cx="426.8" cy="-617" rx="3.2" ry="3.2"/>
</g>
<!-- opstelplaats -->
<g id="node6" class="node">
<title>opstelplaats</title>
<g id="a_node6"><a xlink:href="../../tables/opstelplaats.html" xlink:title="opstelplaats" target="_top">
<polygon fill="#ffffff" stroke="transparent" points="416,-511 416,-569 544,-569 544,-511 416,-511"/>
<polygon fill="#f5f5f5" stroke="transparent" points="416,-547 416,-569 544,-569 544,-547 416,-547"/>
<polygon fill="none" stroke="black" points="416,-547 416,-569 544,-569 544,-547 416,-547"/>
<text text-anchor="start" x="421" y="-556.2" font-family="Helvetica,sans-Serif" font-weight="bold" font-size="11.00">opstelplaats</text>
<text text-anchor="start" x="502" y="-555.2" font-family="Helvetica,sans-Serif" font-size="11.00">[table]</text>
<polygon fill="none" stroke="black" points="416,-529 416,-547 544,-547 544,-529 416,-529"/>
<text text-anchor="start" x="419" y="-535.2" font-family="Helvetica,sans-Serif" font-size="11.00">...</text>
<polygon fill="#ffffff" stroke="transparent" points="416,-511 416,-529 479,-529 479,-511 416,-511"/>
<polygon fill="none" stroke="black" points="416,-511 416,-529 479,-529 479,-511 416,-511"/>
<text text-anchor="start" x="419" y="-517.2" font-family="Helvetica,sans-Serif" font-size="11.00">&lt; 2</text>
<polygon fill="#ffffff" stroke="transparent" points="479,-511 479,-529 511,-529 511,-511 479,-511"/>
<polygon fill="none" stroke="black" points="479,-511 479,-529 511,-529 511,-511 479,-511"/>
<text text-anchor="start" x="500" y="-517.2" font-family="Helvetica,sans-Serif" font-size="11.00"> &#160;</text>
<polygon fill="#ffffff" stroke="transparent" points="511,-511 511,-529 544,-529 544,-511 511,-511"/>
<polygon fill="none" stroke="black" points="511,-511 511,-529 544,-529 544,-511 511,-511"/>
<text text-anchor="start" x="533" y="-517.2" font-family="Helvetica,sans-Serif" font-size="11.00"> &#160;</text>
</a>
</g>
</g>
<!-- opstelplaats&#45;&gt;object -->
<g id="edge5" class="edge">
<title>opstelplaats:w&#45;&gt;object:e</title>
<path fill="none" stroke="black" d="M400.58,-537.64C368.28,-535.85 353.34,-526.88 326,-501 296.62,-473.19 326.95,-419 286.5,-419"/>
<polygon fill="black" stroke="black" points="407,-537.8 414.91,-541.6 411,-537.9 415,-538 415,-538 415,-538 411,-537.9 415.09,-534.4 407,-537.8 407,-537.8"/>
<ellipse fill="none" stroke="black" cx="403.8" cy="-537.72" rx="3.2" ry="3.2"/>
</g>
<!-- pand -->
<g id="node7" class="node">
<title>pand</title>
<g id="a_node7"><a xlink:href="../../tables/pand.html" xlink:title="pand" target="_top">
<polygon fill="#ffffff" stroke="transparent" points="439,-432 439,-490 521,-490 521,-432 439,-432"/>
<polygon fill="#f5f5f5" stroke="transparent" points="439,-468 439,-490 521,-490 521,-468 439,-468"/>
<polygon fill="none" stroke="black" points="439,-468 439,-490 521,-490 521,-468 439,-468"/>
<text text-anchor="start" x="444" y="-477.2" font-family="Helvetica,sans-Serif" font-weight="bold" font-size="11.00">pand</text>
<text text-anchor="start" x="479" y="-476.2" font-family="Helvetica,sans-Serif" font-size="11.00">[table]</text>
<polygon fill="none" stroke="black" points="439,-450 439,-468 521,-468 521,-450 439,-450"/>
<text text-anchor="start" x="442" y="-456.2" font-family="Helvetica,sans-Serif" font-size="11.00">...</text>
<polygon fill="#ffffff" stroke="transparent" points="439,-432 439,-450 479,-450 479,-432 439,-432"/>
<polygon fill="none" stroke="black" points="439,-432 439,-450 479,-450 479,-432 439,-432"/>
<text text-anchor="start" x="442" y="-438.2" font-family="Helvetica,sans-Serif" font-size="11.00">&lt; 1</text>
<polygon fill="#ffffff" stroke="transparent" points="479,-432 479,-450 500,-450 500,-432 479,-432"/>
<polygon fill="none" stroke="black" points="479,-432 479,-450 500,-450 500,-432 479,-432"/>
<text text-anchor="start" x="489" y="-438.2" font-family="Helvetica,sans-Serif" font-size="11.00"> &#160;</text>
<polygon fill="#ffffff" stroke="transparent" points="500,-432 500,-450 521,-450 521,-432 500,-432"/>
<polygon fill="none" stroke="black" points="500,-432 500,-450 521,-450 521,-432 500,-432"/>
<text text-anchor="start" x="510" y="-438.2" font-family="Helvetica,sans-Serif" font-size="11.00"> &#160;</text>
</a>
</g>
</g>
<!-- pand&#45;&gt;object -->
<g id="edge6" class="edge">
<title>pand:w&#45;&gt;object:e</title>
<path fill="none" stroke="black" d="M423.4,-458.37C366.23,-453.28 350.97,-419 286.5,-419"/>
<polygon fill="black" stroke="black" points="430.01,-458.66 437.85,-462.6 434,-458.83 438,-459 438,-459 438,-459 434,-458.83 438.15,-455.4 430.01,-458.66 430.01,-458.66"/>
<ellipse fill="none" stroke="black" cx="426.81" cy="-458.52" rx="3.2" ry="3.2"/>
</g>
<!-- risico -->
<g id="node8" class="node">
<title>risico</title>
<g id="a_node8"><a xlink:href="../../tables/risico.html" xlink:title="risico" target="_top">
<polygon fill="#ffffff" stroke="transparent" points="437.5,-353 437.5,-411 522.5,-411 522.5,-353 437.5,-353"/>
<polygon fill="#f5f5f5" stroke="transparent" points="438,-389 438,-411 523,-411 523,-389 438,-389"/>
<polygon fill="none" stroke="black" points="438,-389 438,-411 523,-411 523,-389 438,-389"/>
<text text-anchor="start" x="443" y="-398.2" font-family="Helvetica,sans-Serif" font-weight="bold" font-size="11.00">risico</text>
<text text-anchor="start" x="481" y="-397.2" font-family="Helvetica,sans-Serif" font-size="11.00">[table]</text>
<polygon fill="none" stroke="black" points="438,-371 438,-389 523,-389 523,-371 438,-371"/>
<text text-anchor="start" x="441" y="-377.2" font-family="Helvetica,sans-Serif" font-size="11.00">...</text>
<polygon fill="#ffffff" stroke="transparent" points="438,-353 438,-371 479,-371 479,-353 438,-353"/>
<polygon fill="none" stroke="black" points="438,-353 438,-371 479,-371 479,-353 438,-353"/>
<text text-anchor="start" x="441" y="-359.2" font-family="Helvetica,sans-Serif" font-size="11.00">&lt; 1</text>
<polygon fill="#ffffff" stroke="transparent" points="479,-353 479,-371 501,-371 501,-353 479,-353"/>
<polygon fill="none" stroke="black" points="479,-353 479,-371 501,-371 501,-353 479,-353"/>
<text text-anchor="start" x="490" y="-359.2" font-family="Helvetica,sans-Serif" font-size="11.00"> &#160;</text>
<polygon fill="#ffffff" stroke="transparent" points="501,-353 501,-371 523,-371 523,-353 501,-353"/>
<polygon fill="none" stroke="black" points="501,-353 501,-371 523,-371 523,-353 501,-353"/>
<text text-anchor="start" x="512" y="-359.2" font-family="Helvetica,sans-Serif" font-size="11.00"> &#160;</text>
</a>
</g>
</g>
<!-- risico&#45;&gt;object -->
<g id="edge7" class="edge">
<title>risico:w&#45;&gt;object:e</title>
<path fill="none" stroke="black" d="M422.51,-380.61C365.76,-385.57 350.47,-419 286.5,-419"/>
<polygon fill="black" stroke="black" points="429.01,-380.34 437.15,-383.6 433,-380.17 437,-380 437,-380 437,-380 433,-380.17 436.85,-376.4 429.01,-380.34 429.01,-380.34"/>
<ellipse fill="none" stroke="black" cx="425.81" cy="-380.47" rx="3.2" ry="3.2"/>
</g>
<!-- scenario -->
<g id="node9" class="node">
<title>scenario</title>
<g id="a_node9"><a xlink:href="../../tables/scenario.html" xlink:title="scenario" target="_top">
<polygon fill="#ffffff" stroke="transparent" points="428,-274 428,-332 532,-332 532,-274 428,-274"/>
<polygon fill="#f5f5f5" stroke="transparent" points="428,-310 428,-332 532,-332 532,-310 428,-310"/>
<polygon fill="none" stroke="black" points="428,-310 428,-332 532,-332 532,-310 428,-310"/>
<text text-anchor="start" x="433" y="-319.2" font-family="Helvetica,sans-Serif" font-weight="bold" font-size="11.00">scenario</text>
<text text-anchor="start" x="490" y="-318.2" font-family="Helvetica,sans-Serif" font-size="11.00">[table]</text>
<polygon fill="none" stroke="black" points="428,-292 428,-310 532,-310 532,-292 428,-292"/>
<text text-anchor="start" x="431" y="-298.2" font-family="Helvetica,sans-Serif" font-size="11.00">...</text>
<polygon fill="#ffffff" stroke="transparent" points="428,-274 428,-292 479,-292 479,-274 428,-274"/>
<polygon fill="none" stroke="black" points="428,-274 428,-292 479,-292 479,-274 428,-274"/>
<text text-anchor="start" x="431" y="-280.2" font-family="Helvetica,sans-Serif" font-size="11.00">&lt; 2</text>
<polygon fill="#ffffff" stroke="transparent" points="479,-274 479,-292 505,-292 505,-274 479,-274"/>
<polygon fill="none" stroke="black" points="479,-274 479,-292 505,-292 505,-274 479,-274"/>
<text text-anchor="start" x="494" y="-280.2" font-family="Helvetica,sans-Serif" font-size="11.00"> &#160;</text>
<polygon fill="#ffffff" stroke="transparent" points="505,-274 505,-292 532,-292 532,-274 505,-274"/>
<polygon fill="none" stroke="black" points="505,-274 505,-292 532,-292 532,-274 505,-274"/>
<text text-anchor="start" x="521" y="-280.2" font-family="Helvetica,sans-Serif" font-size="11.00"> &#160;</text>
</a>
</g>
</g>
<!-- scenario&#45;&gt;object -->
<g id="edge8" class="edge">
<title>scenario:w&#45;&gt;object:e</title>
<path fill="none" stroke="black" d="M412.13,-301.35C374.53,-303.28 357.89,-313.72 326,-343 297.96,-368.75 324.57,-419 286.5,-419"/>
<polygon fill="black" stroke="black" points="419,-301.19 427.08,-304.6 423,-301.09 427,-301 427,-301 427,-301 423,-301.09 426.92,-297.4 419,-301.19 419,-301.19"/>
<ellipse fill="none" stroke="black" cx="415.8" cy="-301.26" rx="3.2" ry="3.2"/>
</g>
<!-- scheiding -->
<g id="node10" class="node">
<title>scheiding</title>
<g id="a_node10"><a xlink:href="../../tables/scheiding.html" xlink:title="scheiding" target="_top">
<polygon fill="#ffffff" stroke="transparent" points="425,-195 425,-253 535,-253 535,-195 425,-195"/>
<polygon fill="#f5f5f5" stroke="transparent" points="425,-231 425,-253 535,-253 535,-231 425,-231"/>
<polygon fill="none" stroke="black" points="425,-231 425,-253 535,-253 535,-231 425,-231"/>
<text text-anchor="start" x="430" y="-240.2" font-family="Helvetica,sans-Serif" font-weight="bold" font-size="11.00">scheiding</text>
<text text-anchor="start" x="493" y="-239.2" font-family="Helvetica,sans-Serif" font-size="11.00">[table]</text>
<polygon fill="none" stroke="black" points="425,-213 425,-231 535,-231 535,-213 425,-213"/>
<text text-anchor="start" x="428" y="-219.2" font-family="Helvetica,sans-Serif" font-size="11.00">...</text>
<polygon fill="#ffffff" stroke="transparent" points="425,-195 425,-213 479,-213 479,-195 425,-195"/>
<polygon fill="none" stroke="black" points="425,-195 425,-213 479,-213 479,-195 425,-195"/>
<text text-anchor="start" x="428" y="-201.2" font-family="Helvetica,sans-Serif" font-size="11.00">&lt; 2</text>
<polygon fill="#ffffff" stroke="transparent" points="479,-195 479,-213 507,-213 507,-195 479,-195"/>
<polygon fill="none" stroke="black" points="479,-195 479,-213 507,-213 507,-195 479,-195"/>
<text text-anchor="start" x="496" y="-201.2" font-family="Helvetica,sans-Serif" font-size="11.00"> &#160;</text>
<polygon fill="#ffffff" stroke="transparent" points="507,-195 507,-213 535,-213 535,-195 507,-195"/>
<polygon fill="none" stroke="black" points="507,-195 507,-213 535,-213 535,-195 507,-195"/>
<text text-anchor="start" x="524" y="-201.2" font-family="Helvetica,sans-Serif" font-size="11.00"> &#160;</text>
</a>
</g>
</g>
<!-- scheiding&#45;&gt;object -->
<g id="edge9" class="edge">
<title>scheiding:w&#45;&gt;object:e</title>
<path fill="none" stroke="black" d="M409.39,-222.25C372.15,-223.67 353.44,-231.93 326,-264 279.78,-318.02 357.59,-419 286.5,-419"/>
<polygon fill="black" stroke="black" points="416,-222.14 424.06,-225.6 420,-222.07 424,-222 424,-222 424,-222 420,-222.07 423.94,-218.4 416,-222.14 416,-222.14"/>
<ellipse fill="none" stroke="black" cx="412.8" cy="-222.19" rx="3.2" ry="3.2"/>
</g>
<!-- sector -->
<g id="node11" class="node">
<title>sector</title>
<g id="a_node11"><a xlink:href="../../tables/sector.html" xlink:title="sector" target="_top">
<polygon fill="#ffffff" stroke="transparent" points="434.5,-116 434.5,-174 525.5,-174 525.5,-116 434.5,-116"/>
<polygon fill="#f5f5f5" stroke="transparent" points="435,-152 435,-174 526,-174 526,-152 435,-152"/>
<polygon fill="none" stroke="black" points="435,-152 435,-174 526,-174 526,-152 435,-152"/>
<text text-anchor="start" x="440" y="-161.2" font-family="Helvetica,sans-Serif" font-weight="bold" font-size="11.00">sector</text>
<text text-anchor="start" x="484" y="-160.2" font-family="Helvetica,sans-Serif" font-size="11.00">[table]</text>
<polygon fill="none" stroke="black" points="435,-134 435,-152 526,-152 526,-134 435,-134"/>
<text text-anchor="start" x="438" y="-140.2" font-family="Helvetica,sans-Serif" font-size="11.00">...</text>
<polygon fill="#ffffff" stroke="transparent" points="435,-116 435,-134 479,-134 479,-116 435,-116"/>
<polygon fill="none" stroke="black" points="435,-116 435,-134 479,-134 479,-116 435,-116"/>
<text text-anchor="start" x="438" y="-122.2" font-family="Helvetica,sans-Serif" font-size="11.00">&lt; 2</text>
<polygon fill="#ffffff" stroke="transparent" points="479,-116 479,-134 502,-134 502,-116 479,-116"/>
<polygon fill="none" stroke="black" points="479,-116 479,-134 502,-134 502,-116 479,-116"/>
<text text-anchor="start" x="491" y="-122.2" font-family="Helvetica,sans-Serif" font-size="11.00"> &#160;</text>
<polygon fill="#ffffff" stroke="transparent" points="502,-116 502,-134 526,-134 526,-116 502,-116"/>
<polygon fill="none" stroke="black" points="502,-116 502,-134 526,-134 526,-116 502,-116"/>
<text text-anchor="start" x="515" y="-122.2" font-family="Helvetica,sans-Serif" font-size="11.00"> &#160;</text>
</a>
</g>
</g>
<!-- sector&#45;&gt;object -->
<g id="edge10" class="edge">
<title>sector:w&#45;&gt;object:e</title>
<path fill="none" stroke="black" d="M419.39,-143.1C377.64,-143.79 355.29,-149.05 326,-185 292.69,-225.89 339.24,-419 286.5,-419"/>
<polygon fill="black" stroke="black" points="426,-143.05 434.02,-146.6 430,-143.03 434,-143 434,-143 434,-143 430,-143.03 433.98,-139.4 426,-143.05 426,-143.05"/>
<ellipse fill="none" stroke="black" cx="422.8" cy="-143.07" rx="3.2" ry="3.2"/>
</g>
<!-- voorziening -->
<g id="node12" class="node">
<title>voorziening</title>
<g id="a_node12"><a xlink:href="../../tables/voorziening.html" xlink:title="voorziening" target="_top">
<polygon fill="#ffffff" stroke="transparent" points="418,-37 418,-95 542,-95 542,-37 418,-37"/>
<polygon fill="#f5f5f5" stroke="transparent" points="418,-73 418,-95 542,-95 542,-73 418,-73"/>
<polygon fill="none" stroke="black" points="418,-73 418,-95 542,-95 542,-73 418,-73"/>
<text text-anchor="start" x="423" y="-82.2" font-family="Helvetica,sans-Serif" font-weight="bold" font-size="11.00">voorziening</text>
<text text-anchor="start" x="500" y="-81.2" font-family="Helvetica,sans-Serif" font-size="11.00">[table]</text>
<polygon fill="none" stroke="black" points="418,-55 418,-73 542,-73 542,-55 418,-55"/>
<text text-anchor="start" x="421" y="-61.2" font-family="Helvetica,sans-Serif" font-size="11.00">...</text>
<polygon fill="#ffffff" stroke="transparent" points="418,-37 418,-55 479,-55 479,-37 418,-37"/>
<polygon fill="none" stroke="black" points="418,-37 418,-55 479,-55 479,-37 418,-37"/>
<text text-anchor="start" x="421" y="-43.2" font-family="Helvetica,sans-Serif" font-size="11.00">&lt; 2</text>
<polygon fill="#ffffff" stroke="transparent" points="479,-37 479,-55 510,-55 510,-37 479,-37"/>
<polygon fill="none" stroke="black" points="479,-37 479,-55 510,-55 510,-37 479,-37"/>
<text text-anchor="start" x="499" y="-43.2" font-family="Helvetica,sans-Serif" font-size="11.00"> &#160;</text>
<polygon fill="#ffffff" stroke="transparent" points="510,-37 510,-55 542,-55 542,-37 510,-37"/>
<polygon fill="none" stroke="black" points="510,-37 510,-55 542,-55 542,-37 510,-37"/>
<text text-anchor="start" x="531" y="-43.2" font-family="Helvetica,sans-Serif" font-size="11.00"> &#160;</text>
</a>
</g>
</g>
<!-- voorziening&#45;&gt;object -->
<g id="edge11" class="edge">
<title>voorziening:w&#45;&gt;object:e</title>
<path fill="none" stroke="black" d="M402.3,-64.29C367.65,-65.83 349.23,-74.27 326,-106 284.59,-162.57 356.61,-419 286.5,-419"/>
<polygon fill="black" stroke="black" points="409,-64.16 417.07,-67.6 413,-64.08 417,-64 417,-64 417,-64 413,-64.08 416.93,-60.4 409,-64.16 409,-64.16"/>
<ellipse fill="none" stroke="black" cx="405.8" cy="-64.22" rx="3.2" ry="3.2"/>
</g>
</g>
</svg>
