<?xml version="1.0" encoding="UTF-8" standalone="no"?>
<!DOCTYPE svg PUBLIC "-//W3C//DTD SVG 1.1//EN"
 "http://www.w3.org/Graphics/SVG/1.1/DTD/svg11.dtd">
<!-- Generated by graphviz version 2.40.1 (20161225.0304)
 -->
<!-- Title: twoDegreesRelationshipsDiagram Pages: 1 -->
<svg width="594pt" height="1209pt"
 viewBox="0.00 0.00 594.00 1209.20" xmlns="http://www.w3.org/2000/svg" xmlns:xlink="http://www.w3.org/1999/xlink">
<g id="graph0" class="graph" transform="scale(1 1) rotate(0) translate(4 1205.2)">
<title>twoDegreesRelationshipsDiagram</title>
<polygon fill="#ffffff" stroke="transparent" points="-4,4 -4,-1205.2 590,-1205.2 590,4 -4,4"/>
<text text-anchor="middle" x="72.4936" y="-7.3" font-family="Helvetica,sans-Serif" font-size="11.00" fill="#000000">Generated by SchemaSpy</text>
<!-- bereikbaarheid -->
<g id="node1" class="node">
<title>bereikbaarheid</title>
<g id="a_node1"><a xlink:href="../../tables/bereikbaarheid.html" xlink:title="bereikbaarheid" target="_top">
<polygon fill="#ffffff" stroke="transparent" points="382,-1136.2 382,-1197.2 506,-1197.2 506,-1136.2 382,-1136.2"/>
<polygon fill="#f5f5f5" stroke="transparent" points="382,-1173.7 382,-1196.7 506,-1196.7 506,-1173.7 382,-1173.7"/>
<polygon fill="none" stroke="#000000" points="382,-1173.7 382,-1196.7 506,-1196.7 506,-1173.7 382,-1173.7"/>
<text text-anchor="start" x="387" y="-1182.3" font-family="Helvetica,sans-Serif" font-weight="bold" font-size="11.00" fill="#000000">bereikbaarheid</text>
<text text-anchor="start" x="471.5219" y="-1181.8" font-family="Helvetica,sans-Serif" font-size="11.00" fill="#000000">[table]</text>
<polygon fill="none" stroke="#000000" points="382,-1154.7 382,-1173.7 506,-1173.7 506,-1154.7 382,-1154.7"/>
<text text-anchor="start" x="385" y="-1160.8" font-family="Helvetica,sans-Serif" font-size="11.00" fill="#000000">...</text>
<polygon fill="#ffffff" stroke="transparent" points="382,-1135.7 382,-1154.7 442,-1154.7 442,-1135.7 382,-1135.7"/>
<polygon fill="none" stroke="#000000" points="382,-1135.7 382,-1154.7 442,-1154.7 442,-1135.7 382,-1135.7"/>
<text text-anchor="start" x="385" y="-1141.8" font-family="Helvetica,sans-Serif" font-size="11.00" fill="#000000">&lt; 2</text>
<polygon fill="#ffffff" stroke="transparent" points="442,-1135.7 442,-1154.7 474,-1154.7 474,-1135.7 442,-1135.7"/>
<polygon fill="none" stroke="#000000" points="442,-1135.7 442,-1154.7 474,-1154.7 474,-1135.7 442,-1135.7"/>
<text text-anchor="start" x="464.8862" y="-1141.8" font-family="Helvetica,sans-Serif" font-size="11.00" fill="#000000"> &#160;</text>
<polygon fill="#ffffff" stroke="transparent" points="474,-1135.7 474,-1154.7 506,-1154.7 506,-1135.7 474,-1135.7"/>
<polygon fill="none" stroke="#000000" points="474,-1135.7 474,-1154.7 506,-1154.7 506,-1135.7 474,-1135.7"/>
<text text-anchor="start" x="496.8862" y="-1141.8" font-family="Helvetica,sans-Serif" font-size="11.00" fill="#000000"> &#160;</text>
</a>
</g>
</g>
<!-- object -->
<g id="node2" class="node">
<title>object</title>
<g id="a_node2"><a xlink:href="../../tables/object.html" xlink:title="object" target="_top">
<polygon fill="#ffffff" stroke="transparent" points="138,-320.2 138,-469.2 261,-469.2 261,-320.2 138,-320.2"/>
<polygon fill="#f5f5f5" stroke="transparent" points="138.5,-445.7 138.5,-468.7 261.5,-468.7 261.5,-445.7 138.5,-445.7"/>
<polygon fill="none" stroke="#000000" points="138.5,-445.7 138.5,-468.7 261.5,-468.7 261.5,-445.7 138.5,-445.7"/>
<text text-anchor="start" x="143.5" y="-454.3" font-family="Helvetica,sans-Serif" font-weight="bold" font-size="11.00" fill="#000000">object</text>
<text text-anchor="start" x="226.5437" y="-453.8" font-family="Helvetica,sans-Serif" font-size="11.00" fill="#000000">[table]</text>
<polygon fill="none" stroke="#000000" points="138.5,-423.7 138.5,-445.7 261.5,-445.7 261.5,-423.7 138.5,-423.7"/>
<image xlink:href="../../images/primaryKeys.png" width="11px" height="12px" preserveAspectRatio="xMinYMin meet" x="143.5" y="-440.7"/>
<text text-anchor="start" x="158.5" y="-430.8" font-family="Helvetica,sans-Serif" font-size="11.00" fill="#000000">uuid</text>
<polygon fill="#ffffff" stroke="transparent" points="138.5,-401.7 138.5,-423.7 261.5,-423.7 261.5,-401.7 138.5,-401.7"/>
<polygon fill="none" stroke="#000000" points="138.5,-401.7 138.5,-423.7 261.5,-423.7 261.5,-401.7 138.5,-401.7"/>
<text text-anchor="start" x="158.5" y="-408.8" font-family="Helvetica,sans-Serif" font-size="11.00" fill="#000000">geom</text>
<polygon fill="#ffffff" stroke="transparent" points="138.5,-379.7 138.5,-401.7 261.5,-401.7 261.5,-379.7 138.5,-379.7"/>
<polygon fill="none" stroke="#000000" points="138.5,-379.7 138.5,-401.7 261.5,-401.7 261.5,-379.7 138.5,-379.7"/>
<text text-anchor="start" x="158.5" y="-386.8" font-family="Helvetica,sans-Serif" font-size="11.00" fill="#000000">revisie_frequentie</text>
<polygon fill="#ffffff" stroke="transparent" points="138.5,-357.7 138.5,-379.7 261.5,-379.7 261.5,-357.7 138.5,-357.7"/>
<polygon fill="none" stroke="#000000" points="138.5,-357.7 138.5,-379.7 261.5,-379.7 261.5,-357.7 138.5,-357.7"/>
<image xlink:href="../../images/foreignKeys.png" width="11px" height="12px" preserveAspectRatio="xMinYMin meet" x="143.5" y="-374.7"/>
<text text-anchor="start" x="158.5" y="-364.8" font-family="Helvetica,sans-Serif" font-size="11.00" fill="#000000">fase_id</text>
<polygon fill="none" stroke="#000000" points="138.5,-338.7 138.5,-357.7 261.5,-357.7 261.5,-338.7 138.5,-338.7"/>
<text text-anchor="start" x="141.5" y="-344.8" font-family="Helvetica,sans-Serif" font-size="11.00" fill="#000000">...</text>
<polygon fill="#ffffff" stroke="transparent" points="138.5,-319.7 138.5,-338.7 190.5,-338.7 190.5,-319.7 138.5,-319.7"/>
<polygon fill="none" stroke="#000000" points="138.5,-319.7 138.5,-338.7 190.5,-338.7 190.5,-319.7 138.5,-319.7"/>
<text text-anchor="start" x="141.5" y="-325.8" font-family="Helvetica,sans-Serif" font-size="11.00" fill="#000000">&lt; 1</text>
<polygon fill="#ffffff" stroke="transparent" points="190.5,-319.7 190.5,-338.7 218.5,-338.7 218.5,-319.7 190.5,-319.7"/>
<polygon fill="none" stroke="#000000" points="190.5,-319.7 190.5,-338.7 218.5,-338.7 218.5,-319.7 190.5,-319.7"/>
<text text-anchor="start" x="209.3862" y="-325.8" font-family="Helvetica,sans-Serif" font-size="11.00" fill="#000000"> &#160;</text>
<polygon fill="#ffffff" stroke="transparent" points="218.5,-319.7 218.5,-338.7 261.5,-338.7 261.5,-319.7 218.5,-319.7"/>
<polygon fill="none" stroke="#000000" points="218.5,-319.7 218.5,-338.7 261.5,-338.7 261.5,-319.7 218.5,-319.7"/>
<text text-anchor="start" x="236.7904" y="-325.8" font-family="Helvetica,sans-Serif" font-size="11.00" fill="#000000">10 &gt;</text>
</a>
</g>
</g>
<!-- bereikbaarheid&#45;&gt;object -->
<g id="edge1" class="edge">
<title>bereikbaarheid:w&#45;&gt;object:e</title>
<path fill="none" stroke="#000000" d="M367.3565,-1163.3652C337.6265,-1161.7959 321.0748,-1154.0081 302,-1125.7 259.0225,-1061.9191 338.4095,-434.7 261.5,-434.7"/>
<polygon fill="#000000" stroke="#000000" points="374.0021,-1163.5171 381.9177,-1167.2991 378.001,-1163.6085 382,-1163.7 382,-1163.7 382,-1163.7 378.001,-1163.6085 382.0823,-1160.1009 374.0021,-1163.5171 374.0021,-1163.5171"/>
<ellipse fill="none" stroke="#000000" cx="370.8029" cy="-1163.4439" rx="3.2" ry="3.2"/>
</g>
<!-- roi.fase -->
<g id="node5" class="node">
<title>roi.fase</title>
<g id="a_node5"><a xlink:href="../../../roi/tables/fase.html" xlink:title="roi.fase" target="_top">
<polygon fill="#ffffff" stroke="transparent" points="8,-341.2 8,-402.2 89,-402.2 89,-341.2 8,-341.2"/>
<polygon fill="#f5f5f5" stroke="transparent" points="8.5,-378.7 8.5,-401.7 89.5,-401.7 89.5,-378.7 8.5,-378.7"/>
<polygon fill="none" stroke="#000000" points="8.5,-378.7 8.5,-401.7 89.5,-401.7 89.5,-378.7 8.5,-378.7"/>
<text text-anchor="start" x="13.5" y="-387.3" font-family="Helvetica,sans-Serif" font-weight="bold" font-size="11.00" fill="#000000">roi.fase</text>
<text text-anchor="start" x="55.0219" y="-386.8" font-family="Helvetica,sans-Serif" font-size="11.00" fill="#000000">[table]</text>
<polygon fill="none" stroke="#000000" points="8.5,-359.7 8.5,-378.7 89.5,-378.7 89.5,-359.7 8.5,-359.7"/>
<text text-anchor="start" x="11.5" y="-365.8" font-family="Helvetica,sans-Serif" font-size="11.00" fill="#000000">...</text>
<polygon fill="#ffffff" stroke="transparent" points="8.5,-340.7 8.5,-359.7 38.5,-359.7 38.5,-340.7 8.5,-340.7"/>
<polygon fill="none" stroke="#000000" points="8.5,-340.7 8.5,-359.7 38.5,-359.7 38.5,-340.7 8.5,-340.7"/>
<text text-anchor="start" x="11.5" y="-346.8" font-family="Helvetica,sans-Serif" font-size="11.00" fill="#000000"> &#160;</text>
<polygon fill="#ffffff" stroke="transparent" points="38.5,-340.7 38.5,-359.7 59.5,-359.7 59.5,-340.7 38.5,-340.7"/>
<polygon fill="none" stroke="#000000" points="38.5,-340.7 38.5,-359.7 59.5,-359.7 59.5,-340.7 38.5,-340.7"/>
<text text-anchor="start" x="50.3862" y="-346.8" font-family="Helvetica,sans-Serif" font-size="11.00" fill="#000000"> &#160;</text>
<polygon fill="#ffffff" stroke="transparent" points="59.5,-340.7 59.5,-359.7 89.5,-359.7 89.5,-340.7 59.5,-340.7"/>
<polygon fill="none" stroke="#000000" points="59.5,-340.7 59.5,-359.7 89.5,-359.7 89.5,-340.7 59.5,-340.7"/>
<text text-anchor="start" x="70.9053" y="-346.8" font-family="Helvetica,sans-Serif" font-size="11.00" fill="#000000">1 &gt;</text>
</a>
</g>
</g>
<!-- object&#45;&gt;roi.fase -->
<g id="edge4" class="edge">
<title>object:w&#45;&gt;roi.fase:e</title>
<path fill="none" stroke="#000000" d="M123.9909,-368.7C112.6774,-368.7 105.4931,-368.7 89.5,-368.7"/>
<polygon fill="#000000" stroke="#000000" points="130.5,-368.7001 138.5,-372.3 134.5,-368.7 138.5,-368.7 138.5,-368.7 138.5,-368.7 134.5,-368.7 138.5,-365.1 130.5,-368.7001 130.5,-368.7001"/>
<ellipse fill="none" stroke="#000000" cx="127.3" cy="-368.7001" rx="3.2" ry="3.2"/>
</g>
<!-- gevaarlijkestof -->
<g id="node3" class="node">
<title>gevaarlijkestof</title>
<g id="a_node3"><a xlink:href="../../tables/gevaarlijkestof.html" xlink:title="gevaarlijkestof" target="_top">
<polygon fill="#ffffff" stroke="transparent" points="310,-694.7 310,-1114.7 578,-1114.7 578,-694.7 310,-694.7"/>
<polygon fill="#f5f5f5" stroke="transparent" points="312,-1089.7 312,-1112.7 576,-1112.7 576,-1089.7 312,-1089.7"/>
<polygon fill="none" stroke="#000000" points="312,-1089.7 312,-1112.7 576,-1112.7 576,-1089.7 312,-1089.7"/>
<text text-anchor="start" x="317" y="-1098.3" font-family="Helvetica,sans-Serif" font-weight="bold" font-size="11.00" fill="#000000">gevaarlijkestof</text>
<text text-anchor="start" x="541.0437" y="-1097.8" font-family="Helvetica,sans-Serif" font-size="11.00" fill="#000000">[table]</text>
<polygon fill="none" stroke="#000000" points="312,-1067.7 312,-1089.7 457,-1089.7 457,-1067.7 312,-1067.7"/>
<image xlink:href="../../images/primaryKeys.png" width="11px" height="12px" preserveAspectRatio="xMinYMin meet" x="317" y="-1084.7"/>
<text text-anchor="start" x="332" y="-1074.8" font-family="Helvetica,sans-Serif" font-size="11.00" fill="#000000">uuid</text>
<polygon fill="none" stroke="#000000" points="457,-1067.7 457,-1089.7 576,-1089.7 576,-1067.7 457,-1067.7"/>
<text text-anchor="start" x="460" y="-1075.4" font-family="Helvetica,sans-Serif" font-size="11.00" fill="#000000">uuid[2147483647]</text>
<polygon fill="#ffffff" stroke="transparent" points="312,-1045.7 312,-1067.7 457,-1067.7 457,-1045.7 312,-1045.7"/>
<polygon fill="none" stroke="#000000" points="312,-1045.7 312,-1067.7 457,-1067.7 457,-1045.7 312,-1045.7"/>
<text text-anchor="start" x="332" y="-1052.8" font-family="Helvetica,sans-Serif" font-size="11.00" fill="#000000">geom</text>
<polygon fill="none" stroke="#000000" points="457,-1045.7 457,-1067.7 576,-1067.7 576,-1045.7 457,-1045.7"/>
<text text-anchor="start" x="459.9485" y="-1053.4" font-family="Helvetica,sans-Serif" font-size="11.00" fill="#000000">geometry[2147483647]</text>
<polygon fill="none" stroke="#000000" points="312,-1023.7 312,-1045.7 457,-1045.7 457,-1023.7 312,-1023.7"/>
<text text-anchor="start" x="332" y="-1030.8" font-family="Helvetica,sans-Serif" font-size="11.00" fill="#000000">datumtijd</text>
<polygon fill="none" stroke="#000000" points="457,-1023.7 457,-1045.7 576,-1045.7 576,-1023.7 457,-1023.7"/>
<text text-anchor="start" x="460" y="-1031.4" font-family="Helvetica,sans-Serif" font-size="11.00" fill="#000000">timestamptz[35,6]</text>
<polygon fill="none" stroke="#000000" points="312,-1001.7 312,-1023.7 457,-1023.7 457,-1001.7 312,-1001.7"/>
<text text-anchor="start" x="332" y="-1008.8" font-family="Helvetica,sans-Serif" font-size="11.00" fill="#000000">gebruiker</text>
<polygon fill="none" stroke="#000000" points="457,-1001.7 457,-1023.7 576,-1023.7 576,-1001.7 457,-1001.7"/>
<text text-anchor="start" x="460" y="-1009.4" font-family="Helvetica,sans-Serif" font-size="11.00" fill="#000000">varchar[255]</text>
<polygon fill="none" stroke="#000000" points="312,-979.7 312,-1001.7 457,-1001.7 457,-979.7 312,-979.7"/>
<text text-anchor="start" x="332" y="-986.8" font-family="Helvetica,sans-Serif" font-size="11.00" fill="#000000">label</text>
<polygon fill="none" stroke="#000000" points="457,-979.7 457,-1001.7 576,-1001.7 576,-979.7 457,-979.7"/>
<text text-anchor="start" x="460" y="-987.4" font-family="Helvetica,sans-Serif" font-size="11.00" fill="#000000">text[2147483647]</text>
<polygon fill="none" stroke="#000000" points="312,-957.7 312,-979.7 457,-979.7 457,-957.7 312,-957.7"/>
<text text-anchor="start" x="332" y="-964.8" font-family="Helvetica,sans-Serif" font-size="11.00" fill="#000000">rotatie</text>
<polygon fill="none" stroke="#000000" points="457,-957.7 457,-979.7 576,-979.7 576,-957.7 457,-957.7"/>
<text text-anchor="start" x="460" y="-965.4" font-family="Helvetica,sans-Serif" font-size="11.00" fill="#000000">int4[10]</text>
<polygon fill="none" stroke="#000000" points="312,-935.7 312,-957.7 457,-957.7 457,-935.7 312,-935.7"/>
<text text-anchor="start" x="332" y="-942.8" font-family="Helvetica,sans-Serif" font-size="11.00" fill="#000000">bijzonderheden</text>
<polygon fill="none" stroke="#000000" points="457,-935.7 457,-957.7 576,-957.7 576,-935.7 457,-935.7"/>
<text text-anchor="start" x="460" y="-943.4" font-family="Helvetica,sans-Serif" font-size="11.00" fill="#000000">text[2147483647]</text>
<polygon fill="none" stroke="#000000" points="312,-913.7 312,-935.7 457,-935.7 457,-913.7 312,-913.7"/>
<text text-anchor="start" x="332" y="-920.8" font-family="Helvetica,sans-Serif" font-size="11.00" fill="#000000">plusinfo</text>
<polygon fill="none" stroke="#000000" points="457,-913.7 457,-935.7 576,-935.7 576,-913.7 457,-913.7"/>
<text text-anchor="start" x="460" y="-921.4" font-family="Helvetica,sans-Serif" font-size="11.00" fill="#000000">jsonb[2147483647]</text>
<polygon fill="#ffffff" stroke="transparent" points="312,-891.7 312,-913.7 457,-913.7 457,-891.7 312,-891.7"/>
<polygon fill="none" stroke="#000000" points="312,-891.7 312,-913.7 457,-913.7 457,-891.7 312,-891.7"/>
<image xlink:href="../../images/foreignKeys.png" width="11px" height="12px" preserveAspectRatio="xMinYMin meet" x="317" y="-908.7"/>
<text text-anchor="start" x="332" y="-898.8" font-family="Helvetica,sans-Serif" font-size="11.00" fill="#000000">object_uuid</text>
<polygon fill="none" stroke="#000000" points="457,-891.7 457,-913.7 576,-913.7 576,-891.7 457,-891.7"/>
<text text-anchor="start" x="460" y="-899.4" font-family="Helvetica,sans-Serif" font-size="11.00" fill="#000000">uuid[2147483647]</text>
<polygon fill="#ffffff" stroke="transparent" points="312,-869.7 312,-891.7 457,-891.7 457,-869.7 312,-869.7"/>
<polygon fill="none" stroke="#000000" points="312,-869.7 312,-891.7 457,-891.7 457,-869.7 312,-869.7"/>
<text text-anchor="start" x="332" y="-876.8" font-family="Helvetica,sans-Serif" font-size="11.00" fill="#000000">bouwlaag</text>
<polygon fill="none" stroke="#000000" points="457,-869.7 457,-891.7 576,-891.7 576,-869.7 457,-869.7"/>
<text text-anchor="start" x="460" y="-877.4" font-family="Helvetica,sans-Serif" font-size="11.00" fill="#000000">int2[5]</text>
<polygon fill="#ffffff" stroke="transparent" points="312,-847.7 312,-869.7 457,-869.7 457,-847.7 312,-847.7"/>
<polygon fill="none" stroke="#000000" points="312,-847.7 312,-869.7 457,-869.7 457,-847.7 312,-847.7"/>
<text text-anchor="start" x="332" y="-854.8" font-family="Helvetica,sans-Serif" font-size="11.00" fill="#000000">ghs</text>
<polygon fill="none" stroke="#000000" points="457,-847.7 457,-869.7 576,-869.7 576,-847.7 457,-847.7"/>
<text text-anchor="start" x="460" y="-855.4" font-family="Helvetica,sans-Serif" font-size="11.00" fill="#000000">int4[10]</text>
<polygon fill="#ffffff" stroke="transparent" points="312,-825.7 312,-847.7 457,-847.7 457,-825.7 312,-825.7"/>
<polygon fill="none" stroke="#000000" points="312,-825.7 312,-847.7 457,-847.7 457,-825.7 312,-825.7"/>
<text text-anchor="start" x="332" y="-832.8" font-family="Helvetica,sans-Serif" font-size="11.00" fill="#000000">gevi</text>
<polygon fill="none" stroke="#000000" points="457,-825.7 457,-847.7 576,-847.7 576,-825.7 457,-825.7"/>
<text text-anchor="start" x="460" y="-833.4" font-family="Helvetica,sans-Serif" font-size="11.00" fill="#000000">text[2147483647]</text>
<polygon fill="#ffffff" stroke="transparent" points="312,-803.7 312,-825.7 457,-825.7 457,-803.7 312,-803.7"/>
<polygon fill="none" stroke="#000000" points="312,-803.7 312,-825.7 457,-825.7 457,-803.7 312,-803.7"/>
<text text-anchor="start" x="332" y="-810.8" font-family="Helvetica,sans-Serif" font-size="11.00" fill="#000000">stid</text>
<polygon fill="none" stroke="#000000" points="457,-803.7 457,-825.7 576,-825.7 576,-803.7 457,-803.7"/>
<text text-anchor="start" x="460" y="-811.4" font-family="Helvetica,sans-Serif" font-size="11.00" fill="#000000">int4[10]</text>
<polygon fill="none" stroke="#000000" points="312,-781.7 312,-803.7 457,-803.7 457,-781.7 312,-781.7"/>
<text text-anchor="start" x="332" y="-788.8" font-family="Helvetica,sans-Serif" font-size="11.00" fill="#000000">hoeveelheid</text>
<polygon fill="none" stroke="#000000" points="457,-781.7 457,-803.7 576,-803.7 576,-781.7 457,-781.7"/>
<text text-anchor="start" x="460" y="-789.4" font-family="Helvetica,sans-Serif" font-size="11.00" fill="#000000">int4[10]</text>
<polygon fill="none" stroke="#000000" points="312,-759.7 312,-781.7 457,-781.7 457,-759.7 312,-759.7"/>
<text text-anchor="start" x="332" y="-766.8" font-family="Helvetica,sans-Serif" font-size="11.00" fill="#000000">eenheid</text>
<polygon fill="none" stroke="#000000" points="457,-759.7 457,-781.7 576,-781.7 576,-759.7 457,-759.7"/>
<text text-anchor="start" x="460" y="-767.4" font-family="Helvetica,sans-Serif" font-size="11.00" fill="#000000">text[2147483647]</text>
<polygon fill="none" stroke="#000000" points="312,-737.7 312,-759.7 457,-759.7 457,-737.7 312,-737.7"/>
<text text-anchor="start" x="332" y="-744.8" font-family="Helvetica,sans-Serif" font-size="11.00" fill="#000000">toestand</text>
<polygon fill="none" stroke="#000000" points="457,-737.7 457,-759.7 576,-759.7 576,-737.7 457,-737.7"/>
<text text-anchor="start" x="460" y="-745.4" font-family="Helvetica,sans-Serif" font-size="11.00" fill="#000000">text[2147483647]</text>
<polygon fill="none" stroke="#000000" points="312,-715.7 312,-737.7 457,-737.7 457,-715.7 312,-715.7"/>
<text text-anchor="start" x="332" y="-722.8" font-family="Helvetica,sans-Serif" font-size="11.00" fill="#000000">handelingsaanwijzing</text>
<polygon fill="none" stroke="#000000" points="457,-715.7 457,-737.7 576,-737.7 576,-715.7 457,-715.7"/>
<text text-anchor="start" x="460" y="-723.4" font-family="Helvetica,sans-Serif" font-size="11.00" fill="#000000">text[2147483647]</text>
<polygon fill="#ffffff" stroke="transparent" points="312,-696.7 312,-715.7 389,-715.7 389,-696.7 312,-696.7"/>
<polygon fill="none" stroke="#000000" points="312,-696.7 312,-715.7 389,-715.7 389,-696.7 312,-696.7"/>
<text text-anchor="start" x="315" y="-702.8" font-family="Helvetica,sans-Serif" font-size="11.00" fill="#000000">&lt; 1</text>
<polygon fill="#ffffff" stroke="transparent" points="389,-696.7 389,-715.7 457,-715.7 457,-696.7 389,-696.7"/>
<polygon fill="none" stroke="#000000" points="389,-696.7 389,-715.7 457,-715.7 457,-696.7 389,-696.7"/>
<text text-anchor="start" x="447.8862" y="-702.8" font-family="Helvetica,sans-Serif" font-size="11.00" fill="#000000"> &#160;</text>
<polygon fill="#ffffff" stroke="transparent" points="457,-696.7 457,-715.7 576,-715.7 576,-696.7 457,-696.7"/>
<polygon fill="none" stroke="#000000" points="457,-696.7 457,-715.7 576,-715.7 576,-696.7 457,-696.7"/>
<text text-anchor="start" x="557.4053" y="-702.8" font-family="Helvetica,sans-Serif" font-size="11.00" fill="#000000">0 &gt;</text>
<polygon fill="none" stroke="#000000" stroke-width="2" points="311,-695.7 311,-1113.7 577,-1113.7 577,-695.7 311,-695.7"/>
</a>
</g>
</g>
<!-- gevaarlijkestof&#45;&gt;object -->
<g id="edge2" class="edge">
<title>gevaarlijkestof:w&#45;&gt;object:e</title>
<path fill="none" stroke="#000000" d="M297.5709,-898.9329C223.4027,-854.6421 360.5875,-434.7 261.5,-434.7"/>
<polygon fill="#000000" stroke="#000000" points="304.2595,-900.6791 311.0906,-906.1832 308.1297,-901.6895 312,-902.7 312,-902.7 312,-902.7 308.1297,-901.6895 312.9094,-899.2168 304.2595,-900.6791 304.2595,-900.6791"/>
<ellipse fill="none" stroke="#000000" cx="301.1632" cy="-899.8707" rx="3.2" ry="3.2"/>
</g>
<!-- label -->
<g id="node4" class="node">
<title>label</title>
<g id="a_node4"><a xlink:href="../../tables/label.html" xlink:title="label" target="_top">
<polygon fill="#ffffff" stroke="transparent" points="411,-612.2 411,-673.2 477,-673.2 477,-612.2 411,-612.2"/>
<polygon fill="#f5f5f5" stroke="transparent" points="411,-649.7 411,-672.7 477,-672.7 477,-649.7 411,-649.7"/>
<polygon fill="none" stroke="#000000" points="411,-649.7 411,-672.7 477,-672.7 477,-649.7 411,-649.7"/>
<text text-anchor="start" x="415.8868" y="-658.3" font-family="Helvetica,sans-Serif" font-weight="bold" font-size="11.00" fill="#000000">label</text>
<text text-anchor="start" x="442.5219" y="-657.8" font-family="Helvetica,sans-Serif" font-size="11.00" fill="#000000">[table]</text>
<polygon fill="none" stroke="#000000" points="411,-630.7 411,-649.7 477,-649.7 477,-630.7 411,-630.7"/>
<text text-anchor="start" x="414" y="-636.8" font-family="Helvetica,sans-Serif" font-size="11.00" fill="#000000">...</text>
<polygon fill="#ffffff" stroke="transparent" points="411,-611.7 411,-630.7 442,-630.7 442,-611.7 411,-611.7"/>
<polygon fill="none" stroke="#000000" points="411,-611.7 411,-630.7 442,-630.7 442,-611.7 411,-611.7"/>
<text text-anchor="start" x="414" y="-617.8" font-family="Helvetica,sans-Serif" font-size="11.00" fill="#000000">&lt; 2</text>
<polygon fill="#ffffff" stroke="transparent" points="442,-611.7 442,-630.7 459,-630.7 459,-611.7 442,-611.7"/>
<polygon fill="none" stroke="#000000" points="442,-611.7 442,-630.7 459,-630.7 459,-611.7 442,-611.7"/>
<text text-anchor="start" x="449.8862" y="-617.8" font-family="Helvetica,sans-Serif" font-size="11.00" fill="#000000"> &#160;</text>
<polygon fill="#ffffff" stroke="transparent" points="459,-611.7 459,-630.7 477,-630.7 477,-611.7 459,-611.7"/>
<polygon fill="none" stroke="#000000" points="459,-611.7 459,-630.7 477,-630.7 477,-611.7 459,-611.7"/>
<text text-anchor="start" x="467.8862" y="-617.8" font-family="Helvetica,sans-Serif" font-size="11.00" fill="#000000"> &#160;</text>
</a>
</g>
</g>
<!-- label&#45;&gt;object -->
<g id="edge3" class="edge">
<title>label:w&#45;&gt;object:e</title>
<path fill="none" stroke="#000000" d="M396.4657,-639.6625C354.9567,-639.3234 333.0328,-635.9172 302,-601.7 250.6922,-545.1275 337.8737,-434.7 261.5,-434.7"/>
<polygon fill="#000000" stroke="#000000" points="403,-639.6793 410.9907,-643.3 407,-639.6897 411,-639.7 411,-639.7 411,-639.7 407,-639.6897 411.0093,-636.1 403,-639.6793 403,-639.6793"/>
<ellipse fill="none" stroke="#000000" cx="399.8" cy="-639.671" rx="3.2" ry="3.2"/>
</g>
<!-- opstelplaats -->
<g id="node6" class="node">
<title>opstelplaats</title>
<g id="a_node6"><a xlink:href="../../tables/opstelplaats.html" xlink:title="opstelplaats" target="_top">
<polygon fill="#ffffff" stroke="transparent" points="389.5,-530.2 389.5,-591.2 498.5,-591.2 498.5,-530.2 389.5,-530.2"/>
<polygon fill="#f5f5f5" stroke="transparent" points="390,-567.7 390,-590.7 499,-590.7 499,-567.7 390,-567.7"/>
<polygon fill="none" stroke="#000000" points="390,-567.7 390,-590.7 499,-590.7 499,-567.7 390,-567.7"/>
<text text-anchor="start" x="395" y="-576.3" font-family="Helvetica,sans-Serif" font-weight="bold" font-size="11.00" fill="#000000">opstelplaats</text>
<text text-anchor="start" x="464.5219" y="-575.8" font-family="Helvetica,sans-Serif" font-size="11.00" fill="#000000">[table]</text>
<polygon fill="none" stroke="#000000" points="390,-548.7 390,-567.7 499,-567.7 499,-548.7 390,-548.7"/>
<text text-anchor="start" x="393" y="-554.8" font-family="Helvetica,sans-Serif" font-size="11.00" fill="#000000">...</text>
<polygon fill="#ffffff" stroke="transparent" points="390,-529.7 390,-548.7 443,-548.7 443,-529.7 390,-529.7"/>
<polygon fill="none" stroke="#000000" points="390,-529.7 390,-548.7 443,-548.7 443,-529.7 390,-529.7"/>
<text text-anchor="start" x="393" y="-535.8" font-family="Helvetica,sans-Serif" font-size="11.00" fill="#000000">&lt; 2</text>
<polygon fill="#ffffff" stroke="transparent" points="443,-529.7 443,-548.7 471,-548.7 471,-529.7 443,-529.7"/>
<polygon fill="none" stroke="#000000" points="443,-529.7 443,-548.7 471,-548.7 471,-529.7 443,-529.7"/>
<text text-anchor="start" x="461.8862" y="-535.8" font-family="Helvetica,sans-Serif" font-size="11.00" fill="#000000"> &#160;</text>
<polygon fill="#ffffff" stroke="transparent" points="471,-529.7 471,-548.7 499,-548.7 499,-529.7 471,-529.7"/>
<polygon fill="none" stroke="#000000" points="471,-529.7 471,-548.7 499,-548.7 499,-529.7 471,-529.7"/>
<text text-anchor="start" x="489.8862" y="-535.8" font-family="Helvetica,sans-Serif" font-size="11.00" fill="#000000"> &#160;</text>
</a>
</g>
</g>
<!-- opstelplaats&#45;&gt;object -->
<g id="edge5" class="edge">
<title>opstelplaats:w&#45;&gt;object:e</title>
<path fill="none" stroke="#000000" d="M375.2456,-557.2797C343.4685,-555.2603 328.8418,-545.5662 302,-519.7 271.8672,-490.6625 303.3469,-434.7 261.5,-434.7"/>
<polygon fill="#000000" stroke="#000000" points="382.0032,-557.4721 389.8975,-561.2985 386.0016,-557.5861 390,-557.7 390,-557.7 390,-557.7 386.0016,-557.5861 390.1025,-554.1015 382.0032,-557.4721 382.0032,-557.4721"/>
<ellipse fill="none" stroke="#000000" cx="378.8045" cy="-557.381" rx="3.2" ry="3.2"/>
</g>
<!-- pand -->
<g id="node7" class="node">
<title>pand</title>
<g id="a_node7"><a xlink:href="../../tables/pand.html" xlink:title="pand" target="_top">
<polygon fill="#ffffff" stroke="transparent" points="410.5,-448.2 410.5,-509.2 477.5,-509.2 477.5,-448.2 410.5,-448.2"/>
<polygon fill="#f5f5f5" stroke="transparent" points="411,-485.7 411,-508.7 478,-508.7 478,-485.7 411,-485.7"/>
<polygon fill="none" stroke="#000000" points="411,-485.7 411,-508.7 478,-508.7 478,-485.7 411,-485.7"/>
<text text-anchor="start" x="415.7702" y="-494.3" font-family="Helvetica,sans-Serif" font-weight="bold" font-size="11.00" fill="#000000">pand</text>
<text text-anchor="start" x="443.5219" y="-493.8" font-family="Helvetica,sans-Serif" font-size="11.00" fill="#000000">[table]</text>
<polygon fill="none" stroke="#000000" points="411,-466.7 411,-485.7 478,-485.7 478,-466.7 411,-466.7"/>
<text text-anchor="start" x="414" y="-472.8" font-family="Helvetica,sans-Serif" font-size="11.00" fill="#000000">...</text>
<polygon fill="#ffffff" stroke="transparent" points="411,-447.7 411,-466.7 443,-466.7 443,-447.7 411,-447.7"/>
<polygon fill="none" stroke="#000000" points="411,-447.7 411,-466.7 443,-466.7 443,-447.7 411,-447.7"/>
<text text-anchor="start" x="414" y="-453.8" font-family="Helvetica,sans-Serif" font-size="11.00" fill="#000000">&lt; 1</text>
<polygon fill="#ffffff" stroke="transparent" points="443,-447.7 443,-466.7 460,-466.7 460,-447.7 443,-447.7"/>
<polygon fill="none" stroke="#000000" points="443,-447.7 443,-466.7 460,-466.7 460,-447.7 443,-447.7"/>
<text text-anchor="start" x="450.8862" y="-453.8" font-family="Helvetica,sans-Serif" font-size="11.00" fill="#000000"> &#160;</text>
<polygon fill="#ffffff" stroke="transparent" points="460,-447.7 460,-466.7 478,-466.7 478,-447.7 460,-447.7"/>
<polygon fill="none" stroke="#000000" points="460,-447.7 460,-466.7 478,-466.7 478,-447.7 460,-447.7"/>
<text text-anchor="start" x="468.8862" y="-453.8" font-family="Helvetica,sans-Serif" font-size="11.00" fill="#000000"> &#160;</text>
</a>
</g>
</g>
<!-- pand&#45;&gt;object -->
<g id="edge6" class="edge">
<title>pand:w&#45;&gt;object:e</title>
<path fill="none" stroke="#000000" d="M396.5578,-475.056C340.0497,-469.8399 325.2843,-434.7 261.5,-434.7"/>
<polygon fill="#000000" stroke="#000000" points="403.0079,-475.3436 410.8396,-479.2964 407.004,-475.5218 411,-475.7 411,-475.7 411,-475.7 407.004,-475.5218 411.1604,-472.1036 403.0079,-475.3436 403.0079,-475.3436"/>
<ellipse fill="none" stroke="#000000" cx="399.8111" cy="-475.201" rx="3.2" ry="3.2"/>
</g>
<!-- risico -->
<g id="node8" class="node">
<title>risico</title>
<g id="a_node8"><a xlink:href="../../tables/risico.html" xlink:title="risico" target="_top">
<polygon fill="#ffffff" stroke="transparent" points="408.5,-366.2 408.5,-427.2 479.5,-427.2 479.5,-366.2 408.5,-366.2"/>
<polygon fill="#f5f5f5" stroke="transparent" points="409,-403.7 409,-426.7 480,-426.7 480,-403.7 409,-403.7"/>
<polygon fill="none" stroke="#000000" points="409,-403.7 409,-426.7 480,-426.7 480,-403.7 409,-403.7"/>
<text text-anchor="start" x="414" y="-412.3" font-family="Helvetica,sans-Serif" font-weight="bold" font-size="11.00" fill="#000000">risico</text>
<text text-anchor="start" x="445.5219" y="-411.8" font-family="Helvetica,sans-Serif" font-size="11.00" fill="#000000">[table]</text>
<polygon fill="none" stroke="#000000" points="409,-384.7 409,-403.7 480,-403.7 480,-384.7 409,-384.7"/>
<text text-anchor="start" x="412" y="-390.8" font-family="Helvetica,sans-Serif" font-size="11.00" fill="#000000">...</text>
<polygon fill="#ffffff" stroke="transparent" points="409,-365.7 409,-384.7 443,-384.7 443,-365.7 409,-365.7"/>
<polygon fill="none" stroke="#000000" points="409,-365.7 409,-384.7 443,-384.7 443,-365.7 409,-365.7"/>
<text text-anchor="start" x="412" y="-371.8" font-family="Helvetica,sans-Serif" font-size="11.00" fill="#000000">&lt; 2</text>
<polygon fill="#ffffff" stroke="transparent" points="443,-365.7 443,-384.7 461,-384.7 461,-365.7 443,-365.7"/>
<polygon fill="none" stroke="#000000" points="443,-365.7 443,-384.7 461,-384.7 461,-365.7 443,-365.7"/>
<text text-anchor="start" x="451.8862" y="-371.8" font-family="Helvetica,sans-Serif" font-size="11.00" fill="#000000"> &#160;</text>
<polygon fill="#ffffff" stroke="transparent" points="461,-365.7 461,-384.7 480,-384.7 480,-365.7 461,-365.7"/>
<polygon fill="none" stroke="#000000" points="461,-365.7 461,-384.7 480,-384.7 480,-365.7 461,-365.7"/>
<text text-anchor="start" x="470.8862" y="-371.8" font-family="Helvetica,sans-Serif" font-size="11.00" fill="#000000"> &#160;</text>
</a>
</g>
</g>
<!-- risico&#45;&gt;object -->
<g id="edge7" class="edge">
<title>risico:w&#45;&gt;object:e</title>
<path fill="none" stroke="#000000" d="M394.3871,-394.3774C338.891,-399.7082 324.3582,-434.7 261.5,-434.7"/>
<polygon fill="#000000" stroke="#000000" points="401.0086,-394.0705 409.1667,-397.2961 405.0043,-393.8853 409,-393.7 409,-393.7 409,-393.7 405.0043,-393.8853 408.8333,-390.1039 401.0086,-394.0705 401.0086,-394.0705"/>
<ellipse fill="none" stroke="#000000" cx="397.812" cy="-394.2187" rx="3.2" ry="3.2"/>
</g>
<!-- scenario -->
<g id="node9" class="node">
<title>scenario</title>
<g id="a_node9"><a xlink:href="../../tables/scenario.html" xlink:title="scenario" target="_top">
<polygon fill="#ffffff" stroke="transparent" points="400,-284.2 400,-345.2 488,-345.2 488,-284.2 400,-284.2"/>
<polygon fill="#f5f5f5" stroke="transparent" points="400,-321.7 400,-344.7 488,-344.7 488,-321.7 400,-321.7"/>
<polygon fill="none" stroke="#000000" points="400,-321.7 400,-344.7 488,-344.7 488,-321.7 400,-321.7"/>
<text text-anchor="start" x="405" y="-330.3" font-family="Helvetica,sans-Serif" font-weight="bold" font-size="11.00" fill="#000000">scenario</text>
<text text-anchor="start" x="453.5219" y="-329.8" font-family="Helvetica,sans-Serif" font-size="11.00" fill="#000000">[table]</text>
<polygon fill="none" stroke="#000000" points="400,-302.7 400,-321.7 488,-321.7 488,-302.7 400,-302.7"/>
<text text-anchor="start" x="403" y="-308.8" font-family="Helvetica,sans-Serif" font-size="11.00" fill="#000000">...</text>
<polygon fill="#ffffff" stroke="transparent" points="400,-283.7 400,-302.7 442,-302.7 442,-283.7 400,-283.7"/>
<polygon fill="none" stroke="#000000" points="400,-283.7 400,-302.7 442,-302.7 442,-283.7 400,-283.7"/>
<text text-anchor="start" x="403" y="-289.8" font-family="Helvetica,sans-Serif" font-size="11.00" fill="#000000">&lt; 2</text>
<polygon fill="#ffffff" stroke="transparent" points="442,-283.7 442,-302.7 465,-302.7 465,-283.7 442,-283.7"/>
<polygon fill="none" stroke="#000000" points="442,-283.7 442,-302.7 465,-302.7 465,-283.7 442,-283.7"/>
<text text-anchor="start" x="455.8862" y="-289.8" font-family="Helvetica,sans-Serif" font-size="11.00" fill="#000000"> &#160;</text>
<polygon fill="#ffffff" stroke="transparent" points="465,-283.7 465,-302.7 488,-302.7 488,-283.7 465,-283.7"/>
<polygon fill="none" stroke="#000000" points="465,-283.7 465,-302.7 488,-302.7 488,-283.7 465,-283.7"/>
<text text-anchor="start" x="478.8862" y="-289.8" font-family="Helvetica,sans-Serif" font-size="11.00" fill="#000000"> &#160;</text>
</a>
</g>
</g>
<!-- scenario&#45;&gt;object -->
<g id="edge8" class="edge">
<title>scenario:w&#45;&gt;object:e</title>
<path fill="none" stroke="#000000" d="M385.4195,-312.1131C348.6087,-314.3936 332.8351,-326.4198 302,-355.7 273.3882,-382.869 300.9562,-434.7 261.5,-434.7"/>
<polygon fill="#000000" stroke="#000000" points="392.0032,-311.9266 400.102,-315.2986 396.0016,-311.8133 400,-311.7 400,-311.7 400,-311.7 396.0016,-311.8133 399.898,-308.1014 392.0032,-311.9266 392.0032,-311.9266"/>
<ellipse fill="none" stroke="#000000" cx="388.8045" cy="-312.0173" rx="3.2" ry="3.2"/>
</g>
<!-- scheiding -->
<g id="node10" class="node">
<title>scheiding</title>
<g id="a_node10"><a xlink:href="../../tables/scheiding.html" xlink:title="scheiding" target="_top">
<polygon fill="#ffffff" stroke="transparent" points="396.5,-202.2 396.5,-263.2 491.5,-263.2 491.5,-202.2 396.5,-202.2"/>
<polygon fill="#f5f5f5" stroke="transparent" points="397,-239.7 397,-262.7 492,-262.7 492,-239.7 397,-239.7"/>
<polygon fill="none" stroke="#000000" points="397,-239.7 397,-262.7 492,-262.7 492,-239.7 397,-239.7"/>
<text text-anchor="start" x="402" y="-248.3" font-family="Helvetica,sans-Serif" font-weight="bold" font-size="11.00" fill="#000000">scheiding</text>
<text text-anchor="start" x="457.5219" y="-247.8" font-family="Helvetica,sans-Serif" font-size="11.00" fill="#000000">[table]</text>
<polygon fill="none" stroke="#000000" points="397,-220.7 397,-239.7 492,-239.7 492,-220.7 397,-220.7"/>
<text text-anchor="start" x="400" y="-226.8" font-family="Helvetica,sans-Serif" font-size="11.00" fill="#000000">...</text>
<polygon fill="#ffffff" stroke="transparent" points="397,-201.7 397,-220.7 443,-220.7 443,-201.7 397,-201.7"/>
<polygon fill="none" stroke="#000000" points="397,-201.7 397,-220.7 443,-220.7 443,-201.7 397,-201.7"/>
<text text-anchor="start" x="400" y="-207.8" font-family="Helvetica,sans-Serif" font-size="11.00" fill="#000000">&lt; 2</text>
<polygon fill="#ffffff" stroke="transparent" points="443,-201.7 443,-220.7 467,-220.7 467,-201.7 443,-201.7"/>
<polygon fill="none" stroke="#000000" points="443,-201.7 443,-220.7 467,-220.7 467,-201.7 443,-201.7"/>
<text text-anchor="start" x="457.8862" y="-207.8" font-family="Helvetica,sans-Serif" font-size="11.00" fill="#000000"> &#160;</text>
<polygon fill="#ffffff" stroke="transparent" points="467,-201.7 467,-220.7 492,-220.7 492,-201.7 467,-201.7"/>
<polygon fill="none" stroke="#000000" points="467,-201.7 467,-220.7 492,-220.7 492,-201.7 467,-201.7"/>
<text text-anchor="start" x="482.8862" y="-207.8" font-family="Helvetica,sans-Serif" font-size="11.00" fill="#000000"> &#160;</text>
</a>
</g>
</g>
<!-- scheiding&#45;&gt;object -->
<g id="edge9" class="edge">
<title>scheiding:w&#45;&gt;object:e</title>
<path fill="none" stroke="#000000" d="M382.1986,-230.0427C346.0726,-231.9049 328.319,-241.9244 302,-273.7 254.9339,-330.5241 335.2848,-434.7 261.5,-434.7"/>
<polygon fill="#000000" stroke="#000000" points="389.0021,-229.8852 397.0834,-233.299 393.0011,-229.7926 397,-229.7 397,-229.7 397,-229.7 393.0011,-229.7926 396.9166,-226.101 389.0021,-229.8852 389.0021,-229.8852"/>
<ellipse fill="none" stroke="#000000" cx="385.803" cy="-229.9593" rx="3.2" ry="3.2"/>
</g>
<!-- sector -->
<g id="node11" class="node">
<title>sector</title>
<g id="a_node11"><a xlink:href="../../tables/sector.html" xlink:title="sector" target="_top">
<polygon fill="#ffffff" stroke="transparent" points="406.5,-120.2 406.5,-181.2 481.5,-181.2 481.5,-120.2 406.5,-120.2"/>
<polygon fill="#f5f5f5" stroke="transparent" points="407,-157.7 407,-180.7 482,-180.7 482,-157.7 407,-157.7"/>
<polygon fill="none" stroke="#000000" points="407,-157.7 407,-180.7 482,-180.7 482,-157.7 407,-157.7"/>
<text text-anchor="start" x="412" y="-166.3" font-family="Helvetica,sans-Serif" font-weight="bold" font-size="11.00" fill="#000000">sector</text>
<text text-anchor="start" x="447.5219" y="-165.8" font-family="Helvetica,sans-Serif" font-size="11.00" fill="#000000">[table]</text>
<polygon fill="none" stroke="#000000" points="407,-138.7 407,-157.7 482,-157.7 482,-138.7 407,-138.7"/>
<text text-anchor="start" x="410" y="-144.8" font-family="Helvetica,sans-Serif" font-size="11.00" fill="#000000">...</text>
<polygon fill="#ffffff" stroke="transparent" points="407,-119.7 407,-138.7 443,-138.7 443,-119.7 407,-119.7"/>
<polygon fill="none" stroke="#000000" points="407,-119.7 407,-138.7 443,-138.7 443,-119.7 407,-119.7"/>
<text text-anchor="start" x="410" y="-125.8" font-family="Helvetica,sans-Serif" font-size="11.00" fill="#000000">&lt; 2</text>
<polygon fill="#ffffff" stroke="transparent" points="443,-119.7 443,-138.7 462,-138.7 462,-119.7 443,-119.7"/>
<polygon fill="none" stroke="#000000" points="443,-119.7 443,-138.7 462,-138.7 462,-119.7 443,-119.7"/>
<text text-anchor="start" x="452.8862" y="-125.8" font-family="Helvetica,sans-Serif" font-size="11.00" fill="#000000"> &#160;</text>
<polygon fill="#ffffff" stroke="transparent" points="462,-119.7 462,-138.7 482,-138.7 482,-119.7 462,-119.7"/>
<polygon fill="none" stroke="#000000" points="462,-119.7 462,-138.7 482,-138.7 482,-119.7 462,-119.7"/>
<text text-anchor="start" x="472.8862" y="-125.8" font-family="Helvetica,sans-Serif" font-size="11.00" fill="#000000"> &#160;</text>
</a>
</g>
</g>
<!-- sector&#45;&gt;object -->
<g id="edge10" class="edge">
<title>sector:w&#45;&gt;object:e</title>
<path fill="none" stroke="#000000" d="M392.3997,-147.8664C351.6434,-148.9434 330.2142,-156.0555 302,-191.7 268.0229,-234.625 316.2449,-434.7 261.5,-434.7"/>
<polygon fill="#000000" stroke="#000000" points="399.0005,-147.7912 407.041,-151.2998 403.0003,-147.7456 407,-147.7 407,-147.7 407,-147.7 403.0003,-147.7456 406.959,-144.1002 399.0005,-147.7912 399.0005,-147.7912"/>
<ellipse fill="none" stroke="#000000" cx="395.8007" cy="-147.8277" rx="3.2" ry="3.2"/>
</g>
<!-- voorziening -->
<g id="node12" class="node">
<title>voorziening</title>
<g id="a_node12"><a xlink:href="../../tables/voorziening.html" xlink:title="voorziening" target="_top">
<polygon fill="#ffffff" stroke="transparent" points="391,-38.2 391,-99.2 497,-99.2 497,-38.2 391,-38.2"/>
<polygon fill="#f5f5f5" stroke="transparent" points="391,-75.7 391,-98.7 497,-98.7 497,-75.7 391,-75.7"/>
<polygon fill="none" stroke="#000000" points="391,-75.7 391,-98.7 497,-98.7 497,-75.7 391,-75.7"/>
<text text-anchor="start" x="396" y="-84.3" font-family="Helvetica,sans-Serif" font-weight="bold" font-size="11.00" fill="#000000">voorziening</text>
<text text-anchor="start" x="462.5219" y="-83.8" font-family="Helvetica,sans-Serif" font-size="11.00" fill="#000000">[table]</text>
<polygon fill="none" stroke="#000000" points="391,-56.7 391,-75.7 497,-75.7 497,-56.7 391,-56.7"/>
<text text-anchor="start" x="394" y="-62.8" font-family="Helvetica,sans-Serif" font-size="11.00" fill="#000000">...</text>
<polygon fill="#ffffff" stroke="transparent" points="391,-37.7 391,-56.7 442,-56.7 442,-37.7 391,-37.7"/>
<polygon fill="none" stroke="#000000" points="391,-37.7 391,-56.7 442,-56.7 442,-37.7 391,-37.7"/>
<text text-anchor="start" x="394" y="-43.8" font-family="Helvetica,sans-Serif" font-size="11.00" fill="#000000">&lt; 2</text>
<polygon fill="#ffffff" stroke="transparent" points="442,-37.7 442,-56.7 469,-56.7 469,-37.7 442,-37.7"/>
<polygon fill="none" stroke="#000000" points="442,-37.7 442,-56.7 469,-56.7 469,-37.7 442,-37.7"/>
<text text-anchor="start" x="459.8862" y="-43.8" font-family="Helvetica,sans-Serif" font-size="11.00" fill="#000000"> &#160;</text>
<polygon fill="#ffffff" stroke="transparent" points="469,-37.7 469,-56.7 497,-56.7 497,-37.7 469,-37.7"/>
<polygon fill="none" stroke="#000000" points="469,-37.7 469,-56.7 497,-56.7 497,-37.7 469,-37.7"/>
<text text-anchor="start" x="487.8862" y="-43.8" font-family="Helvetica,sans-Serif" font-size="11.00" fill="#000000"> &#160;</text>
</a>
</g>
</g>
<!-- voorziening&#45;&gt;object -->
<g id="edge11" class="edge">
<title>voorziening:w&#45;&gt;object:e</title>
<path fill="none" stroke="#000000" d="M376.4593,-66.0629C342.2619,-67.966 324.5646,-77.9463 302,-109.7 259.8413,-169.027 334.2808,-434.7 261.5,-434.7"/>
<polygon fill="#000000" stroke="#000000" points="383.0025,-65.8997 391.0898,-69.2989 387.0012,-65.7998 391,-65.7 391,-65.7 391,-65.7 387.0012,-65.7998 390.9102,-62.1011 383.0025,-65.8997 383.0025,-65.8997"/>
<ellipse fill="none" stroke="#000000" cx="379.8035" cy="-65.9795" rx="3.2" ry="3.2"/>
</g>
</g>
</svg>
