<?xml version="1.0" encoding="UTF-8" standalone="no"?>
<!DOCTYPE svg PUBLIC "-//W3C//DTD SVG 1.1//EN"
 "http://www.w3.org/Graphics/SVG/1.1/DTD/svg11.dtd">
<!-- Generated by graphviz version 2.40.1 (20161225.0304)
 -->
<!-- Title: oneDegreeRelationshipsDiagram Pages: 1 -->
<svg width="464pt" height="470pt"
 viewBox="0.00 0.00 464.00 470.20" xmlns="http://www.w3.org/2000/svg" xmlns:xlink="http://www.w3.org/1999/xlink">
<g id="graph0" class="graph" transform="scale(1 1) rotate(0) translate(4 466.2)">
<title>oneDegreeRelationshipsDiagram</title>
<polygon fill="#ffffff" stroke="transparent" points="-4,4 -4,-466.2 460,-466.2 460,4 -4,4"/>
<text text-anchor="middle" x="72.4936" y="-7.3" font-family="Helvetica,sans-Serif" font-size="11.00" fill="#000000">Generated by SchemaSpy</text>
<!-- gevaarlijkestof -->
<g id="node1" class="node">
<title>gevaarlijkestof</title>
<g id="a_node1"><a xlink:href="../../tables/gevaarlijkestof.html" xlink:title="gevaarlijkestof" target="_top">
<polygon fill="#ffffff" stroke="transparent" points="180,-38.2 180,-458.2 448,-458.2 448,-38.2 180,-38.2"/>
<polygon fill="#f5f5f5" stroke="transparent" points="182,-433.2 182,-456.2 446,-456.2 446,-433.2 182,-433.2"/>
<polygon fill="none" stroke="#000000" points="182,-433.2 182,-456.2 446,-456.2 446,-433.2 182,-433.2"/>
<text text-anchor="start" x="187" y="-441.8" font-family="Helvetica,sans-Serif" font-weight="bold" font-size="11.00" fill="#000000">gevaarlijkestof</text>
<text text-anchor="start" x="411.0437" y="-441.3" font-family="Helvetica,sans-Serif" font-size="11.00" fill="#000000">[table]</text>
<polygon fill="none" stroke="#000000" points="182,-411.2 182,-433.2 327,-433.2 327,-411.2 182,-411.2"/>
<image xlink:href="../../images/primaryKeys.png" width="11px" height="12px" preserveAspectRatio="xMinYMin meet" x="187" y="-428.2"/>
<text text-anchor="start" x="202" y="-418.3" font-family="Helvetica,sans-Serif" font-size="11.00" fill="#000000">uuid</text>
<polygon fill="none" stroke="#000000" points="327,-411.2 327,-433.2 446,-433.2 446,-411.2 327,-411.2"/>
<text text-anchor="start" x="330" y="-418.9" font-family="Helvetica,sans-Serif" font-size="11.00" fill="#000000">uuid[2147483647]</text>
<polygon fill="#ffffff" stroke="transparent" points="182,-389.2 182,-411.2 327,-411.2 327,-389.2 182,-389.2"/>
<polygon fill="none" stroke="#000000" points="182,-389.2 182,-411.2 327,-411.2 327,-389.2 182,-389.2"/>
<text text-anchor="start" x="202" y="-396.3" font-family="Helvetica,sans-Serif" font-size="11.00" fill="#000000">geom</text>
<polygon fill="none" stroke="#000000" points="327,-389.2 327,-411.2 446,-411.2 446,-389.2 327,-389.2"/>
<text text-anchor="start" x="329.9485" y="-396.9" font-family="Helvetica,sans-Serif" font-size="11.00" fill="#000000">geometry[2147483647]</text>
<polygon fill="none" stroke="#000000" points="182,-367.2 182,-389.2 327,-389.2 327,-367.2 182,-367.2"/>
<text text-anchor="start" x="202" y="-374.3" font-family="Helvetica,sans-Serif" font-size="11.00" fill="#000000">datumtijd</text>
<polygon fill="none" stroke="#000000" points="327,-367.2 327,-389.2 446,-389.2 446,-367.2 327,-367.2"/>
<text text-anchor="start" x="330" y="-374.9" font-family="Helvetica,sans-Serif" font-size="11.00" fill="#000000">timestamptz[35,6]</text>
<polygon fill="none" stroke="#000000" points="182,-345.2 182,-367.2 327,-367.2 327,-345.2 182,-345.2"/>
<text text-anchor="start" x="202" y="-352.3" font-family="Helvetica,sans-Serif" font-size="11.00" fill="#000000">gebruiker</text>
<polygon fill="none" stroke="#000000" points="327,-345.2 327,-367.2 446,-367.2 446,-345.2 327,-345.2"/>
<text text-anchor="start" x="330" y="-352.9" font-family="Helvetica,sans-Serif" font-size="11.00" fill="#000000">varchar[255]</text>
<polygon fill="none" stroke="#000000" points="182,-323.2 182,-345.2 327,-345.2 327,-323.2 182,-323.2"/>
<text text-anchor="start" x="202" y="-330.3" font-family="Helvetica,sans-Serif" font-size="11.00" fill="#000000">label</text>
<polygon fill="none" stroke="#000000" points="327,-323.2 327,-345.2 446,-345.2 446,-323.2 327,-323.2"/>
<text text-anchor="start" x="330" y="-330.9" font-family="Helvetica,sans-Serif" font-size="11.00" fill="#000000">text[2147483647]</text>
<polygon fill="none" stroke="#000000" points="182,-301.2 182,-323.2 327,-323.2 327,-301.2 182,-301.2"/>
<text text-anchor="start" x="202" y="-308.3" font-family="Helvetica,sans-Serif" font-size="11.00" fill="#000000">rotatie</text>
<polygon fill="none" stroke="#000000" points="327,-301.2 327,-323.2 446,-323.2 446,-301.2 327,-301.2"/>
<text text-anchor="start" x="330" y="-308.9" font-family="Helvetica,sans-Serif" font-size="11.00" fill="#000000">int4[10]</text>
<polygon fill="none" stroke="#000000" points="182,-279.2 182,-301.2 327,-301.2 327,-279.2 182,-279.2"/>
<text text-anchor="start" x="202" y="-286.3" font-family="Helvetica,sans-Serif" font-size="11.00" fill="#000000">bijzonderheden</text>
<polygon fill="none" stroke="#000000" points="327,-279.2 327,-301.2 446,-301.2 446,-279.2 327,-279.2"/>
<text text-anchor="start" x="330" y="-286.9" font-family="Helvetica,sans-Serif" font-size="11.00" fill="#000000">text[2147483647]</text>
<polygon fill="none" stroke="#000000" points="182,-257.2 182,-279.2 327,-279.2 327,-257.2 182,-257.2"/>
<text text-anchor="start" x="202" y="-264.3" font-family="Helvetica,sans-Serif" font-size="11.00" fill="#000000">plusinfo</text>
<polygon fill="none" stroke="#000000" points="327,-257.2 327,-279.2 446,-279.2 446,-257.2 327,-257.2"/>
<text text-anchor="start" x="330" y="-264.9" font-family="Helvetica,sans-Serif" font-size="11.00" fill="#000000">jsonb[2147483647]</text>
<polygon fill="#ffffff" stroke="transparent" points="182,-235.2 182,-257.2 327,-257.2 327,-235.2 182,-235.2"/>
<polygon fill="none" stroke="#000000" points="182,-235.2 182,-257.2 327,-257.2 327,-235.2 182,-235.2"/>
<image xlink:href="../../images/foreignKeys.png" width="11px" height="12px" preserveAspectRatio="xMinYMin meet" x="187" y="-252.2"/>
<text text-anchor="start" x="202" y="-242.3" font-family="Helvetica,sans-Serif" font-size="11.00" fill="#000000">object_uuid</text>
<polygon fill="none" stroke="#000000" points="327,-235.2 327,-257.2 446,-257.2 446,-235.2 327,-235.2"/>
<text text-anchor="start" x="330" y="-242.9" font-family="Helvetica,sans-Serif" font-size="11.00" fill="#000000">uuid[2147483647]</text>
<polygon fill="#ffffff" stroke="transparent" points="182,-213.2 182,-235.2 327,-235.2 327,-213.2 182,-213.2"/>
<polygon fill="none" stroke="#000000" points="182,-213.2 182,-235.2 327,-235.2 327,-213.2 182,-213.2"/>
<text text-anchor="start" x="202" y="-220.3" font-family="Helvetica,sans-Serif" font-size="11.00" fill="#000000">bouwlaag</text>
<polygon fill="none" stroke="#000000" points="327,-213.2 327,-235.2 446,-235.2 446,-213.2 327,-213.2"/>
<text text-anchor="start" x="330" y="-220.9" font-family="Helvetica,sans-Serif" font-size="11.00" fill="#000000">int2[5]</text>
<polygon fill="#ffffff" stroke="transparent" points="182,-191.2 182,-213.2 327,-213.2 327,-191.2 182,-191.2"/>
<polygon fill="none" stroke="#000000" points="182,-191.2 182,-213.2 327,-213.2 327,-191.2 182,-191.2"/>
<text text-anchor="start" x="202" y="-198.3" font-family="Helvetica,sans-Serif" font-size="11.00" fill="#000000">ghs</text>
<polygon fill="none" stroke="#000000" points="327,-191.2 327,-213.2 446,-213.2 446,-191.2 327,-191.2"/>
<text text-anchor="start" x="330" y="-198.9" font-family="Helvetica,sans-Serif" font-size="11.00" fill="#000000">int4[10]</text>
<polygon fill="#ffffff" stroke="transparent" points="182,-169.2 182,-191.2 327,-191.2 327,-169.2 182,-169.2"/>
<polygon fill="none" stroke="#000000" points="182,-169.2 182,-191.2 327,-191.2 327,-169.2 182,-169.2"/>
<text text-anchor="start" x="202" y="-176.3" font-family="Helvetica,sans-Serif" font-size="11.00" fill="#000000">gevi</text>
<polygon fill="none" stroke="#000000" points="327,-169.2 327,-191.2 446,-191.2 446,-169.2 327,-169.2"/>
<text text-anchor="start" x="330" y="-176.9" font-family="Helvetica,sans-Serif" font-size="11.00" fill="#000000">text[2147483647]</text>
<polygon fill="#ffffff" stroke="transparent" points="182,-147.2 182,-169.2 327,-169.2 327,-147.2 182,-147.2"/>
<polygon fill="none" stroke="#000000" points="182,-147.2 182,-169.2 327,-169.2 327,-147.2 182,-147.2"/>
<text text-anchor="start" x="202" y="-154.3" font-family="Helvetica,sans-Serif" font-size="11.00" fill="#000000">stid</text>
<polygon fill="none" stroke="#000000" points="327,-147.2 327,-169.2 446,-169.2 446,-147.2 327,-147.2"/>
<text text-anchor="start" x="330" y="-154.9" font-family="Helvetica,sans-Serif" font-size="11.00" fill="#000000">int4[10]</text>
<polygon fill="none" stroke="#000000" points="182,-125.2 182,-147.2 327,-147.2 327,-125.2 182,-125.2"/>
<text text-anchor="start" x="202" y="-132.3" font-family="Helvetica,sans-Serif" font-size="11.00" fill="#000000">hoeveelheid</text>
<polygon fill="none" stroke="#000000" points="327,-125.2 327,-147.2 446,-147.2 446,-125.2 327,-125.2"/>
<text text-anchor="start" x="330" y="-132.9" font-family="Helvetica,sans-Serif" font-size="11.00" fill="#000000">int4[10]</text>
<polygon fill="none" stroke="#000000" points="182,-103.2 182,-125.2 327,-125.2 327,-103.2 182,-103.2"/>
<text text-anchor="start" x="202" y="-110.3" font-family="Helvetica,sans-Serif" font-size="11.00" fill="#000000">eenheid</text>
<polygon fill="none" stroke="#000000" points="327,-103.2 327,-125.2 446,-125.2 446,-103.2 327,-103.2"/>
<text text-anchor="start" x="330" y="-110.9" font-family="Helvetica,sans-Serif" font-size="11.00" fill="#000000">text[2147483647]</text>
<polygon fill="none" stroke="#000000" points="182,-81.2 182,-103.2 327,-103.2 327,-81.2 182,-81.2"/>
<text text-anchor="start" x="202" y="-88.3" font-family="Helvetica,sans-Serif" font-size="11.00" fill="#000000">toestand</text>
<polygon fill="none" stroke="#000000" points="327,-81.2 327,-103.2 446,-103.2 446,-81.2 327,-81.2"/>
<text text-anchor="start" x="330" y="-88.9" font-family="Helvetica,sans-Serif" font-size="11.00" fill="#000000">text[2147483647]</text>
<polygon fill="none" stroke="#000000" points="182,-59.2 182,-81.2 327,-81.2 327,-59.2 182,-59.2"/>
<text text-anchor="start" x="202" y="-66.3" font-family="Helvetica,sans-Serif" font-size="11.00" fill="#000000">handelingsaanwijzing</text>
<polygon fill="none" stroke="#000000" points="327,-59.2 327,-81.2 446,-81.2 446,-59.2 327,-59.2"/>
<text text-anchor="start" x="330" y="-66.9" font-family="Helvetica,sans-Serif" font-size="11.00" fill="#000000">text[2147483647]</text>
<polygon fill="#ffffff" stroke="transparent" points="182,-40.2 182,-59.2 259,-59.2 259,-40.2 182,-40.2"/>
<polygon fill="none" stroke="#000000" points="182,-40.2 182,-59.2 259,-59.2 259,-40.2 182,-40.2"/>
<text text-anchor="start" x="185" y="-46.3" font-family="Helvetica,sans-Serif" font-size="11.00" fill="#000000">&lt; 1</text>
<polygon fill="#ffffff" stroke="transparent" points="259,-40.2 259,-59.2 327,-59.2 327,-40.2 259,-40.2"/>
<polygon fill="none" stroke="#000000" points="259,-40.2 259,-59.2 327,-59.2 327,-40.2 259,-40.2"/>
<text text-anchor="start" x="317.8862" y="-46.3" font-family="Helvetica,sans-Serif" font-size="11.00" fill="#000000"> &#160;</text>
<polygon fill="#ffffff" stroke="transparent" points="327,-40.2 327,-59.2 446,-59.2 446,-40.2 327,-40.2"/>
<polygon fill="none" stroke="#000000" points="327,-40.2 327,-59.2 446,-59.2 446,-40.2 327,-40.2"/>
<text text-anchor="start" x="427.4053" y="-46.3" font-family="Helvetica,sans-Serif" font-size="11.00" fill="#000000">0 &gt;</text>
<polygon fill="none" stroke="#000000" stroke-width="2" points="181,-39.2 181,-457.2 447,-457.2 447,-39.2 181,-39.2"/>
</a>
</g>
</g>
<!-- object -->
<g id="node2" class="node">
<title>object</title>
<g id="a_node2"><a xlink:href="../../tables/object.html" xlink:title="object" target="_top">
<polygon fill="#ffffff" stroke="transparent" points="8,-131.7 8,-280.7 131,-280.7 131,-131.7 8,-131.7"/>
<polygon fill="#f5f5f5" stroke="transparent" points="8.5,-257.2 8.5,-280.2 131.5,-280.2 131.5,-257.2 8.5,-257.2"/>
<polygon fill="none" stroke="#000000" points="8.5,-257.2 8.5,-280.2 131.5,-280.2 131.5,-257.2 8.5,-257.2"/>
<text text-anchor="start" x="13.5" y="-265.8" font-family="Helvetica,sans-Serif" font-weight="bold" font-size="11.00" fill="#000000">object</text>
<text text-anchor="start" x="96.5437" y="-265.3" font-family="Helvetica,sans-Serif" font-size="11.00" fill="#000000">[table]</text>
<polygon fill="none" stroke="#000000" points="8.5,-235.2 8.5,-257.2 131.5,-257.2 131.5,-235.2 8.5,-235.2"/>
<image xlink:href="../../images/primaryKeys.png" width="11px" height="12px" preserveAspectRatio="xMinYMin meet" x="13.5" y="-252.2"/>
<text text-anchor="start" x="28.5" y="-242.3" font-family="Helvetica,sans-Serif" font-size="11.00" fill="#000000">uuid</text>
<polygon fill="#ffffff" stroke="transparent" points="8.5,-213.2 8.5,-235.2 131.5,-235.2 131.5,-213.2 8.5,-213.2"/>
<polygon fill="none" stroke="#000000" points="8.5,-213.2 8.5,-235.2 131.5,-235.2 131.5,-213.2 8.5,-213.2"/>
<text text-anchor="start" x="28.5" y="-220.3" font-family="Helvetica,sans-Serif" font-size="11.00" fill="#000000">geom</text>
<polygon fill="#ffffff" stroke="transparent" points="8.5,-191.2 8.5,-213.2 131.5,-213.2 131.5,-191.2 8.5,-191.2"/>
<polygon fill="none" stroke="#000000" points="8.5,-191.2 8.5,-213.2 131.5,-213.2 131.5,-191.2 8.5,-191.2"/>
<text text-anchor="start" x="28.5" y="-198.3" font-family="Helvetica,sans-Serif" font-size="11.00" fill="#000000">revisie_frequentie</text>
<polygon fill="#ffffff" stroke="transparent" points="8.5,-169.2 8.5,-191.2 131.5,-191.2 131.5,-169.2 8.5,-169.2"/>
<polygon fill="none" stroke="#000000" points="8.5,-169.2 8.5,-191.2 131.5,-191.2 131.5,-169.2 8.5,-169.2"/>
<image xlink:href="../../images/foreignKeys.png" width="11px" height="12px" preserveAspectRatio="xMinYMin meet" x="13.5" y="-186.2"/>
<text text-anchor="start" x="28.5" y="-176.3" font-family="Helvetica,sans-Serif" font-size="11.00" fill="#000000">fase_id</text>
<polygon fill="none" stroke="#000000" points="8.5,-150.2 8.5,-169.2 131.5,-169.2 131.5,-150.2 8.5,-150.2"/>
<text text-anchor="start" x="11.5" y="-156.3" font-family="Helvetica,sans-Serif" font-size="11.00" fill="#000000">...</text>
<polygon fill="#ffffff" stroke="transparent" points="8.5,-131.2 8.5,-150.2 60.5,-150.2 60.5,-131.2 8.5,-131.2"/>
<polygon fill="none" stroke="#000000" points="8.5,-131.2 8.5,-150.2 60.5,-150.2 60.5,-131.2 8.5,-131.2"/>
<text text-anchor="start" x="11.5" y="-137.3" font-family="Helvetica,sans-Serif" font-size="11.00" fill="#000000">&lt; 1</text>
<polygon fill="#ffffff" stroke="transparent" points="60.5,-131.2 60.5,-150.2 88.5,-150.2 88.5,-131.2 60.5,-131.2"/>
<polygon fill="none" stroke="#000000" points="60.5,-131.2 60.5,-150.2 88.5,-150.2 88.5,-131.2 60.5,-131.2"/>
<text text-anchor="start" x="79.3862" y="-137.3" font-family="Helvetica,sans-Serif" font-size="11.00" fill="#000000"> &#160;</text>
<polygon fill="#ffffff" stroke="transparent" points="88.5,-131.2 88.5,-150.2 131.5,-150.2 131.5,-131.2 88.5,-131.2"/>
<polygon fill="none" stroke="#000000" points="88.5,-131.2 88.5,-150.2 131.5,-150.2 131.5,-131.2 88.5,-131.2"/>
<text text-anchor="start" x="106.7904" y="-137.3" font-family="Helvetica,sans-Serif" font-size="11.00" fill="#000000">10 &gt;</text>
</a>
</g>
</g>
<!-- gevaarlijkestof&#45;&gt;object -->
<g id="edge1" class="edge">
<title>gevaarlijkestof:w&#45;&gt;object:e</title>
<path fill="none" stroke="#000000" d="M167.4203,-246.2C155.5435,-246.2 148.158,-246.2 131.5,-246.2"/>
<polygon fill="#000000" stroke="#000000" points="174,-246.2001 182,-249.8 178,-246.2 182,-246.2 182,-246.2 182,-246.2 178,-246.2 182,-242.6 174,-246.2001 174,-246.2001"/>
<ellipse fill="none" stroke="#000000" cx="170.8" cy="-246.2001" rx="3.2" ry="3.2"/>
</g>
</g>
</svg>
