<?xml version="1.0" encoding="UTF-8" standalone="no"?>
<!DOCTYPE svg PUBLIC "-//W3C//DTD SVG 1.1//EN"
 "http://www.w3.org/Graphics/SVG/1.1/DTD/svg11.dtd">
<!-- Generated by graphviz version 2.50.0 (0)
 -->
<!-- Title: twoDegreesRelationshipsDiagram Pages: 1 -->
<svg width="607pt" height="1046pt"
 viewBox="0.00 0.00 607.00 1046.00" xmlns="http://www.w3.org/2000/svg" xmlns:xlink="http://www.w3.org/1999/xlink">
<g id="graph0" class="graph" transform="scale(1 1) rotate(0) translate(4 1042)">
<title>twoDegreesRelationshipsDiagram</title>
<polygon fill="#ffffff" stroke="transparent" points="-4,4 -4,-1042 603,-1042 603,4 -4,4"/>
<text text-anchor="middle" x="79.5" y="-7.2" font-family="Helvetica,sans-Serif" font-size="11.00">Generated by SchemaSpy</text>
<!-- bereikbaarheid -->
<g id="node1" class="node">
<title>bereikbaarheid</title>
<g id="a_node1"><a xlink:href="../../tables/bereikbaarheid.html" xlink:title="bereikbaarheid" target="_top">
<polygon fill="#ffffff" stroke="transparent" points="391.5,-432 391.5,-490 536.5,-490 536.5,-432 391.5,-432"/>
<polygon fill="#f5f5f5" stroke="transparent" points="392,-468 392,-490 537,-490 537,-468 392,-468"/>
<polygon fill="none" stroke="black" points="392,-468 392,-490 537,-490 537,-468 392,-468"/>
<text text-anchor="start" x="397" y="-477.2" font-family="Helvetica,sans-Serif" font-weight="bold" font-size="11.00">bereikbaarheid</text>
<text text-anchor="start" x="495" y="-476.2" font-family="Helvetica,sans-Serif" font-size="11.00">[table]</text>
<polygon fill="none" stroke="black" points="392,-450 392,-468 537,-468 537,-450 392,-450"/>
<text text-anchor="start" x="395" y="-456.2" font-family="Helvetica,sans-Serif" font-size="11.00">...</text>
<polygon fill="#ffffff" stroke="transparent" points="392,-432 392,-450 463,-450 463,-432 392,-432"/>
<polygon fill="none" stroke="black" points="392,-432 392,-450 463,-450 463,-432 392,-432"/>
<text text-anchor="start" x="395" y="-438.2" font-family="Helvetica,sans-Serif" font-size="11.00">&lt; 2</text>
<polygon fill="#ffffff" stroke="transparent" points="463,-432 463,-450 500,-450 500,-432 463,-432"/>
<polygon fill="none" stroke="black" points="463,-432 463,-450 500,-450 500,-432 463,-432"/>
<text text-anchor="start" x="489" y="-438.2" font-family="Helvetica,sans-Serif" font-size="11.00"> &#160;</text>
<polygon fill="#ffffff" stroke="transparent" points="500,-432 500,-450 537,-450 537,-432 500,-432"/>
<polygon fill="none" stroke="black" points="500,-432 500,-450 537,-450 537,-432 500,-432"/>
<text text-anchor="start" x="526" y="-438.2" font-family="Helvetica,sans-Serif" font-size="11.00"> &#160;</text>
</a>
</g>
</g>
<!-- object -->
<g id="node2" class="node">
<title>object</title>
<g id="a_node2"><a xlink:href="../../tables/object.html" xlink:title="object" target="_top">
<polygon fill="#ffffff" stroke="transparent" points="157.5,-307 157.5,-453 286.5,-453 286.5,-307 157.5,-307"/>
<polygon fill="#f5f5f5" stroke="transparent" points="158,-431 158,-453 287,-453 287,-431 158,-431"/>
<polygon fill="none" stroke="black" points="158,-431 158,-453 287,-453 287,-431 158,-431"/>
<text text-anchor="start" x="163" y="-440.2" font-family="Helvetica,sans-Serif" font-weight="bold" font-size="11.00">object</text>
<text text-anchor="start" x="245" y="-439.2" font-family="Helvetica,sans-Serif" font-size="11.00">[table]</text>
<polygon fill="none" stroke="black" points="158,-409 158,-431 287,-431 287,-409 158,-409"/>
<image xlink:href="../../images/primaryKeys.png" width="11px" height="12px" preserveAspectRatio="xMinYMin meet" x="163" y="-426"/>
<text text-anchor="start" x="178" y="-417.2" font-family="Helvetica,sans-Serif" font-size="11.00">uuid</text>
<polygon fill="#ffffff" stroke="transparent" points="158,-387 158,-409 287,-409 287,-387 158,-387"/>
<polygon fill="none" stroke="black" points="158,-387 158,-409 287,-409 287,-387 158,-387"/>
<text text-anchor="start" x="178" y="-395.2" font-family="Helvetica,sans-Serif" font-size="11.00">geom</text>
<polygon fill="#ffffff" stroke="transparent" points="158,-365 158,-387 287,-387 287,-365 158,-365"/>
<polygon fill="none" stroke="black" points="158,-365 158,-387 287,-387 287,-365 158,-365"/>
<text text-anchor="start" x="178" y="-373.2" font-family="Helvetica,sans-Serif" font-size="11.00">revisie_frequentie</text>
<polygon fill="#ffffff" stroke="transparent" points="158,-343 158,-365 287,-365 287,-343 158,-343"/>
<polygon fill="none" stroke="black" points="158,-343 158,-365 287,-365 287,-343 158,-343"/>
<image xlink:href="../../images/foreignKeys.png" width="11px" height="12px" preserveAspectRatio="xMinYMin meet" x="163" y="-360"/>
<text text-anchor="start" x="178" y="-351.2" font-family="Helvetica,sans-Serif" font-size="11.00">fase_id</text>
<polygon fill="none" stroke="black" points="158,-325 158,-343 287,-343 287,-325 158,-325"/>
<text text-anchor="start" x="161" y="-331.2" font-family="Helvetica,sans-Serif" font-size="11.00">...</text>
<polygon fill="#ffffff" stroke="transparent" points="158,-307 158,-325 212,-325 212,-307 158,-307"/>
<polygon fill="none" stroke="black" points="158,-307 158,-325 212,-325 212,-307 158,-307"/>
<text text-anchor="start" x="161" y="-313.2" font-family="Helvetica,sans-Serif" font-size="11.00">&lt; 1</text>
<polygon fill="#ffffff" stroke="transparent" points="212,-307 212,-325 240,-325 240,-307 212,-307"/>
<polygon fill="none" stroke="black" points="212,-307 212,-325 240,-325 240,-307 212,-307"/>
<text text-anchor="start" x="229" y="-313.2" font-family="Helvetica,sans-Serif" font-size="11.00"> &#160;</text>
<polygon fill="#ffffff" stroke="transparent" points="240,-307 240,-325 287,-325 287,-307 240,-307"/>
<polygon fill="none" stroke="black" points="240,-307 240,-325 287,-325 287,-307 240,-307"/>
<text text-anchor="start" x="257" y="-313.2" font-family="Helvetica,sans-Serif" font-size="11.00">10 &gt;</text>
</a>
</g>
</g>
<!-- bereikbaarheid&#45;&gt;object -->
<g id="edge1" class="edge">
<title>bereikbaarheid:w&#45;&gt;object:e</title>
<path fill="none" stroke="black" d="M376.4,-457.7C340.41,-450.94 331.6,-420 288,-420"/>
<polygon fill="black" stroke="black" points="383.03,-458.29 390.68,-462.59 387.02,-458.65 391,-459 391,-459 391,-459 387.02,-458.65 391.32,-455.41 383.03,-458.29 383.03,-458.29"/>
<ellipse fill="none" stroke="black" cx="379.84" cy="-458.01" rx="3.2" ry="3.2"/>
</g>
<!-- roi.fase -->
<g id="node6" class="node">
<title>roi.fase</title>
<g id="a_node6"><a xlink:href="../../../roi/tables/fase.html" xlink:title="roi.fase" target="_top">
<polygon fill="#ffffff" stroke="transparent" points="8,-327 8,-385 107,-385 107,-327 8,-327"/>
<polygon fill="#f5f5f5" stroke="transparent" points="8.5,-363 8.5,-385 107.5,-385 107.5,-363 8.5,-363"/>
<polygon fill="none" stroke="black" points="8.5,-363 8.5,-385 107.5,-385 107.5,-363 8.5,-363"/>
<text text-anchor="start" x="13.5" y="-372.2" font-family="Helvetica,sans-Serif" font-weight="bold" font-size="11.00">roi.fase</text>
<text text-anchor="start" x="65.5" y="-371.2" font-family="Helvetica,sans-Serif" font-size="11.00">[table]</text>
<polygon fill="none" stroke="black" points="8.5,-345 8.5,-363 107.5,-363 107.5,-345 8.5,-345"/>
<text text-anchor="start" x="11.5" y="-351.2" font-family="Helvetica,sans-Serif" font-size="11.00">...</text>
<polygon fill="#ffffff" stroke="transparent" points="8.5,-327 8.5,-345 44.5,-345 44.5,-327 8.5,-327"/>
<polygon fill="none" stroke="black" points="8.5,-327 8.5,-345 44.5,-345 44.5,-327 8.5,-327"/>
<text text-anchor="start" x="11.5" y="-333.2" font-family="Helvetica,sans-Serif" font-size="11.00"> &#160;</text>
<polygon fill="#ffffff" stroke="transparent" points="44.5,-327 44.5,-345 69.5,-345 69.5,-327 44.5,-327"/>
<polygon fill="none" stroke="black" points="44.5,-327 44.5,-345 69.5,-345 69.5,-327 44.5,-327"/>
<text text-anchor="start" x="58.5" y="-333.2" font-family="Helvetica,sans-Serif" font-size="11.00"> &#160;</text>
<polygon fill="#ffffff" stroke="transparent" points="69.5,-327 69.5,-345 107.5,-345 107.5,-327 69.5,-327"/>
<polygon fill="none" stroke="black" points="69.5,-327 69.5,-345 107.5,-345 107.5,-327 69.5,-327"/>
<text text-anchor="start" x="84.5" y="-333.2" font-family="Helvetica,sans-Serif" font-size="11.00">1 &gt;</text>
</a>
</g>
</g>
<!-- object&#45;&gt;roi.fase -->
<g id="edge5" class="edge">
<title>object:w&#45;&gt;roi.fase:e</title>
<path fill="none" stroke="black" d="M142.28,-354C131.29,-354 124.16,-354 108.5,-354"/>
<polygon fill="black" stroke="black" points="149,-354 157,-357.6 153,-354 157,-354 157,-354 157,-354 153,-354 157,-350.4 149,-354 149,-354"/>
<ellipse fill="none" stroke="black" cx="145.8" cy="-354" rx="3.2" ry="3.2"/>
</g>
<!-- gevaarlijkestof -->
<g id="node3" class="node">
<title>gevaarlijkestof</title>
<g id="a_node3"><a xlink:href="../../tables/gevaarlijkestof.html" xlink:title="gevaarlijkestof" target="_top">
<polygon fill="#ffffff" stroke="transparent" points="392,-353 392,-411 536,-411 536,-353 392,-353"/>
<polygon fill="#f5f5f5" stroke="transparent" points="392,-389 392,-411 536,-411 536,-389 392,-389"/>
<polygon fill="none" stroke="black" points="392,-389 392,-411 536,-411 536,-389 392,-389"/>
<text text-anchor="start" x="397" y="-398.2" font-family="Helvetica,sans-Serif" font-weight="bold" font-size="11.00">gevaarlijkestof</text>
<text text-anchor="start" x="494" y="-397.2" font-family="Helvetica,sans-Serif" font-size="11.00">[table]</text>
<polygon fill="none" stroke="black" points="392,-371 392,-389 536,-389 536,-371 392,-371"/>
<text text-anchor="start" x="395" y="-377.2" font-family="Helvetica,sans-Serif" font-size="11.00">...</text>
<polygon fill="#ffffff" stroke="transparent" points="392,-353 392,-371 463,-371 463,-353 392,-353"/>
<polygon fill="none" stroke="black" points="392,-353 392,-371 463,-371 463,-353 392,-353"/>
<text text-anchor="start" x="395" y="-359.2" font-family="Helvetica,sans-Serif" font-size="11.00">&lt; 1</text>
<polygon fill="#ffffff" stroke="transparent" points="463,-353 463,-371 499,-371 499,-353 463,-353"/>
<polygon fill="none" stroke="black" points="463,-353 463,-371 499,-371 499,-353 463,-353"/>
<text text-anchor="start" x="488" y="-359.2" font-family="Helvetica,sans-Serif" font-size="11.00"> &#160;</text>
<polygon fill="#ffffff" stroke="transparent" points="499,-353 499,-371 536,-371 536,-353 499,-353"/>
<polygon fill="none" stroke="black" points="499,-353 499,-371 536,-371 536,-353 499,-353"/>
<text text-anchor="start" x="525" y="-359.2" font-family="Helvetica,sans-Serif" font-size="11.00"> &#160;</text>
</a>
</g>
</g>
<!-- gevaarlijkestof&#45;&gt;object -->
<g id="edge2" class="edge">
<title>gevaarlijkestof:w&#45;&gt;object:e</title>
<path fill="none" stroke="black" d="M376.36,-381.33C340.31,-388.27 331.74,-420 288,-420"/>
<polygon fill="black" stroke="black" points="383.03,-380.72 391.33,-383.59 387.02,-380.36 391,-380 391,-380 391,-380 387.02,-380.36 390.67,-376.41 383.03,-380.72 383.03,-380.72"/>
<ellipse fill="none" stroke="black" cx="379.85" cy="-381.01" rx="3.2" ry="3.2"/>
</g>
<!-- label -->
<g id="node4" class="node">
<title>label</title>
<g id="a_node4"><a xlink:href="../../tables/label.html" xlink:title="label" target="_top">
<polygon fill="#ffffff" stroke="transparent" points="337,-748 337,-1034 591,-1034 591,-748 337,-748"/>
<polygon fill="#f5f5f5" stroke="transparent" points="339,-1010 339,-1032 589,-1032 589,-1010 339,-1010"/>
<polygon fill="none" stroke="black" points="339,-1010 339,-1032 589,-1032 589,-1010 339,-1010"/>
<text text-anchor="start" x="344" y="-1019.2" font-family="Helvetica,sans-Serif" font-weight="bold" font-size="11.00">label</text>
<text text-anchor="start" x="547" y="-1018.2" font-family="Helvetica,sans-Serif" font-size="11.00">[table]</text>
<polygon fill="none" stroke="black" points="339,-988 339,-1010 453,-1010 453,-988 339,-988"/>
<image xlink:href="../../images/primaryKeys.png" width="11px" height="12px" preserveAspectRatio="xMinYMin meet" x="344" y="-1005"/>
<text text-anchor="start" x="359" y="-996.2" font-family="Helvetica,sans-Serif" font-size="11.00">uuid</text>
<polygon fill="none" stroke="black" points="453,-988 453,-1010 589,-1010 589,-988 453,-988"/>
<text text-anchor="start" x="456" y="-996.2" font-family="Helvetica,sans-Serif" font-size="11.00">uuid[2147483647]</text>
<polygon fill="#ffffff" stroke="transparent" points="339,-966 339,-988 453,-988 453,-966 339,-966"/>
<polygon fill="none" stroke="black" points="339,-966 339,-988 453,-988 453,-966 339,-966"/>
<text text-anchor="start" x="359" y="-974.2" font-family="Helvetica,sans-Serif" font-size="11.00">geom</text>
<polygon fill="none" stroke="black" points="453,-966 453,-988 589,-988 589,-966 453,-966"/>
<text text-anchor="start" x="456" y="-974.2" font-family="Helvetica,sans-Serif" font-size="11.00">geometry[2147483647]</text>
<polygon fill="none" stroke="black" points="339,-944 339,-966 453,-966 453,-944 339,-944"/>
<text text-anchor="start" x="359" y="-952.2" font-family="Helvetica,sans-Serif" font-size="11.00">datumtijd</text>
<polygon fill="none" stroke="black" points="453,-944 453,-966 589,-966 589,-944 453,-944"/>
<text text-anchor="start" x="456" y="-952.2" font-family="Helvetica,sans-Serif" font-size="11.00">timestamptz[35,6]</text>
<polygon fill="none" stroke="black" points="339,-922 339,-944 453,-944 453,-922 339,-922"/>
<text text-anchor="start" x="359" y="-930.2" font-family="Helvetica,sans-Serif" font-size="11.00">gebruiker</text>
<polygon fill="none" stroke="black" points="453,-922 453,-944 589,-944 589,-922 453,-922"/>
<text text-anchor="start" x="456" y="-930.2" font-family="Helvetica,sans-Serif" font-size="11.00">varchar[255]</text>
<polygon fill="none" stroke="black" points="339,-900 339,-922 453,-922 453,-900 339,-900"/>
<text text-anchor="start" x="359" y="-908.2" font-family="Helvetica,sans-Serif" font-size="11.00">label</text>
<polygon fill="none" stroke="black" points="453,-900 453,-922 589,-922 589,-900 453,-900"/>
<text text-anchor="start" x="456" y="-908.2" font-family="Helvetica,sans-Serif" font-size="11.00">text[2147483647]</text>
<polygon fill="none" stroke="black" points="339,-878 339,-900 453,-900 453,-878 339,-878"/>
<text text-anchor="start" x="359" y="-886.2" font-family="Helvetica,sans-Serif" font-size="11.00">rotatie</text>
<polygon fill="none" stroke="black" points="453,-878 453,-900 589,-900 589,-878 453,-878"/>
<text text-anchor="start" x="456" y="-886.2" font-family="Helvetica,sans-Serif" font-size="11.00">int4[10]</text>
<polygon fill="none" stroke="black" points="339,-856 339,-878 453,-878 453,-856 339,-856"/>
<text text-anchor="start" x="359" y="-864.2" font-family="Helvetica,sans-Serif" font-size="11.00">bijzonderheden</text>
<polygon fill="none" stroke="black" points="453,-856 453,-878 589,-878 589,-856 453,-856"/>
<text text-anchor="start" x="456" y="-864.2" font-family="Helvetica,sans-Serif" font-size="11.00">text[2147483647]</text>
<polygon fill="none" stroke="black" points="339,-834 339,-856 453,-856 453,-834 339,-834"/>
<text text-anchor="start" x="359" y="-842.2" font-family="Helvetica,sans-Serif" font-size="11.00">plusinfo</text>
<polygon fill="none" stroke="black" points="453,-834 453,-856 589,-856 589,-834 453,-834"/>
<text text-anchor="start" x="456" y="-842.2" font-family="Helvetica,sans-Serif" font-size="11.00">jsonb[2147483647]</text>
<polygon fill="#ffffff" stroke="transparent" points="339,-812 339,-834 453,-834 453,-812 339,-812"/>
<polygon fill="none" stroke="black" points="339,-812 339,-834 453,-834 453,-812 339,-812"/>
<image xlink:href="../../images/foreignKeys.png" width="11px" height="12px" preserveAspectRatio="xMinYMin meet" x="344" y="-829"/>
<text text-anchor="start" x="359" y="-820.2" font-family="Helvetica,sans-Serif" font-size="11.00">object_uuid</text>
<polygon fill="none" stroke="black" points="453,-812 453,-834 589,-834 589,-812 453,-812"/>
<text text-anchor="start" x="456" y="-820.2" font-family="Helvetica,sans-Serif" font-size="11.00">uuid[2147483647]</text>
<polygon fill="none" stroke="black" points="339,-790 339,-812 453,-812 453,-790 339,-790"/>
<image xlink:href="../../images/foreignKeys.png" width="11px" height="12px" preserveAspectRatio="xMinYMin meet" x="344" y="-807"/>
<text text-anchor="start" x="359" y="-798.2" font-family="Helvetica,sans-Serif" font-size="11.00">annotatie_id</text>
<polygon fill="none" stroke="black" points="453,-790 453,-812 589,-812 589,-790 453,-790"/>
<text text-anchor="start" x="456" y="-798.2" font-family="Helvetica,sans-Serif" font-size="11.00">int2[5]</text>
<polygon fill="#ffffff" stroke="transparent" points="339,-768 339,-790 453,-790 453,-768 339,-768"/>
<polygon fill="none" stroke="black" points="339,-768 339,-790 453,-790 453,-768 339,-768"/>
<text text-anchor="start" x="359" y="-776.2" font-family="Helvetica,sans-Serif" font-size="11.00">bouwlaag</text>
<polygon fill="none" stroke="black" points="453,-768 453,-790 589,-790 589,-768 453,-768"/>
<text text-anchor="start" x="456" y="-776.2" font-family="Helvetica,sans-Serif" font-size="11.00">int2[5]</text>
<polygon fill="#ffffff" stroke="transparent" points="339,-750 339,-768 402,-768 402,-750 339,-750"/>
<polygon fill="none" stroke="black" points="339,-750 339,-768 402,-768 402,-750 339,-750"/>
<text text-anchor="start" x="342" y="-756.2" font-family="Helvetica,sans-Serif" font-size="11.00">&lt; 2</text>
<polygon fill="#ffffff" stroke="transparent" points="402,-750 402,-768 453,-768 453,-750 402,-750"/>
<polygon fill="none" stroke="black" points="402,-750 402,-768 453,-768 453,-750 402,-750"/>
<text text-anchor="start" x="442" y="-756.2" font-family="Helvetica,sans-Serif" font-size="11.00"> &#160;</text>
<polygon fill="#ffffff" stroke="transparent" points="453,-750 453,-768 589,-768 589,-750 453,-750"/>
<polygon fill="none" stroke="black" points="453,-750 453,-768 589,-768 589,-750 453,-750"/>
<text text-anchor="start" x="566" y="-756.2" font-family="Helvetica,sans-Serif" font-size="11.00">0 &gt;</text>
<polygon fill="none" stroke="black" stroke-width="2" points="338,-749 338,-1033 590,-1033 590,-749 338,-749"/>
</a>
</g>
</g>
<!-- label&#45;&gt;object -->
<g id="edge4" class="edge">
<title>label:w&#45;&gt;object:e</title>
<path fill="none" stroke="black" d="M323.94,-818.75C262.75,-775.68 372.78,-420 288,-420"/>
<polygon fill="black" stroke="black" points="330.34,-820.68 336.96,-826.45 334.17,-821.84 338,-823 338,-823 338,-823 334.17,-821.84 339.04,-819.55 330.34,-820.68 330.34,-820.68"/>
<ellipse fill="none" stroke="black" cx="327.28" cy="-819.76" rx="3.2" ry="3.2"/>
</g>
<!-- roi.annotatie -->
<g id="node5" class="node">
<title>roi.annotatie</title>
<g id="a_node5"><a xlink:href="../../../roi/tables/annotatie.html" xlink:title="roi.annotatie" target="_top">
<polygon fill="#ffffff" stroke="transparent" points="156,-772 156,-830 288,-830 288,-772 156,-772"/>
<polygon fill="#f5f5f5" stroke="transparent" points="156,-808 156,-830 288,-830 288,-808 156,-808"/>
<polygon fill="none" stroke="black" points="156,-808 156,-830 288,-830 288,-808 156,-808"/>
<text text-anchor="start" x="161" y="-817.2" font-family="Helvetica,sans-Serif" font-weight="bold" font-size="11.00">roi.annotatie</text>
<text text-anchor="start" x="246" y="-816.2" font-family="Helvetica,sans-Serif" font-size="11.00">[table]</text>
<polygon fill="none" stroke="black" points="156,-790 156,-808 288,-808 288,-790 156,-790"/>
<text text-anchor="start" x="159" y="-796.2" font-family="Helvetica,sans-Serif" font-size="11.00">...</text>
<polygon fill="#ffffff" stroke="transparent" points="156,-772 156,-790 209,-790 209,-772 156,-772"/>
<polygon fill="none" stroke="black" points="156,-772 156,-790 209,-790 209,-772 156,-772"/>
<text text-anchor="start" x="159" y="-778.2" font-family="Helvetica,sans-Serif" font-size="11.00"> &#160;</text>
<polygon fill="#ffffff" stroke="transparent" points="209,-772 209,-790 242,-790 242,-772 209,-772"/>
<polygon fill="none" stroke="black" points="209,-772 209,-790 242,-790 242,-772 209,-772"/>
<text text-anchor="start" x="231" y="-778.2" font-family="Helvetica,sans-Serif" font-size="11.00"> &#160;</text>
<polygon fill="#ffffff" stroke="transparent" points="242,-772 242,-790 288,-790 288,-772 242,-772"/>
<polygon fill="none" stroke="black" points="242,-772 242,-790 288,-790 288,-772 242,-772"/>
<text text-anchor="start" x="265" y="-778.2" font-family="Helvetica,sans-Serif" font-size="11.00">1 &gt;</text>
</a>
</g>
</g>
<!-- label&#45;&gt;roi.annotatie -->
<g id="edge3" class="edge">
<title>label:w&#45;&gt;roi.annotatie:e</title>
<path fill="none" stroke="black" d="M323.41,-801C314.31,-801 305.04,-801 296,-801"/>
<polygon fill="black" stroke="black" points="330,-801 338,-804.6 334,-801 338,-801 338,-801 338,-801 334,-801 338,-797.4 330,-801 330,-801"/>
<ellipse fill="none" stroke="black" cx="326.8" cy="-801" rx="3.2" ry="3.2"/>
</g>
<!-- opstelplaats -->
<g id="node7" class="node">
<title>opstelplaats</title>
<g id="a_node7"><a xlink:href="../../tables/opstelplaats.html" xlink:title="opstelplaats" target="_top">
<polygon fill="#ffffff" stroke="transparent" points="400,-274 400,-332 528,-332 528,-274 400,-274"/>
<polygon fill="#f5f5f5" stroke="transparent" points="400,-310 400,-332 528,-332 528,-310 400,-310"/>
<polygon fill="none" stroke="black" points="400,-310 400,-332 528,-332 528,-310 400,-310"/>
<text text-anchor="start" x="405" y="-319.2" font-family="Helvetica,sans-Serif" font-weight="bold" font-size="11.00">opstelplaats</text>
<text text-anchor="start" x="486" y="-318.2" font-family="Helvetica,sans-Serif" font-size="11.00">[table]</text>
<polygon fill="none" stroke="black" points="400,-292 400,-310 528,-310 528,-292 400,-292"/>
<text text-anchor="start" x="403" y="-298.2" font-family="Helvetica,sans-Serif" font-size="11.00">...</text>
<polygon fill="#ffffff" stroke="transparent" points="400,-274 400,-292 463,-292 463,-274 400,-274"/>
<polygon fill="none" stroke="black" points="400,-274 400,-292 463,-292 463,-274 400,-274"/>
<text text-anchor="start" x="403" y="-280.2" font-family="Helvetica,sans-Serif" font-size="11.00">&lt; 2</text>
<polygon fill="#ffffff" stroke="transparent" points="463,-274 463,-292 495,-292 495,-274 463,-274"/>
<polygon fill="none" stroke="black" points="463,-274 463,-292 495,-292 495,-274 463,-274"/>
<text text-anchor="start" x="484" y="-280.2" font-family="Helvetica,sans-Serif" font-size="11.00"> &#160;</text>
<polygon fill="#ffffff" stroke="transparent" points="495,-274 495,-292 528,-292 528,-274 495,-274"/>
<polygon fill="none" stroke="black" points="495,-274 495,-292 528,-292 528,-274 495,-274"/>
<text text-anchor="start" x="517" y="-280.2" font-family="Helvetica,sans-Serif" font-size="11.00"> &#160;</text>
</a>
</g>
</g>
<!-- opstelplaats&#45;&gt;object -->
<g id="edge6" class="edge">
<title>opstelplaats:w&#45;&gt;object:e</title>
<path fill="none" stroke="black" d="M384.59,-301.97C359.91,-305.68 350.21,-319.8 329,-342 301.95,-370.32 327.16,-420 288,-420"/>
<polygon fill="black" stroke="black" points="391.02,-301.54 399.24,-304.59 395.01,-301.27 399,-301 399,-301 399,-301 395.01,-301.27 398.76,-297.41 391.02,-301.54 391.02,-301.54"/>
<ellipse fill="none" stroke="black" cx="387.83" cy="-301.76" rx="3.2" ry="3.2"/>
</g>
<!-- pand -->
<g id="node8" class="node">
<title>pand</title>
<g id="a_node8"><a xlink:href="../../tables/pand.html" xlink:title="pand" target="_top">
<polygon fill="#ffffff" stroke="transparent" points="423,-195 423,-253 505,-253 505,-195 423,-195"/>
<polygon fill="#f5f5f5" stroke="transparent" points="423,-231 423,-253 505,-253 505,-231 423,-231"/>
<polygon fill="none" stroke="black" points="423,-231 423,-253 505,-253 505,-231 423,-231"/>
<text text-anchor="start" x="428" y="-240.2" font-family="Helvetica,sans-Serif" font-weight="bold" font-size="11.00">pand</text>
<text text-anchor="start" x="463" y="-239.2" font-family="Helvetica,sans-Serif" font-size="11.00">[table]</text>
<polygon fill="none" stroke="black" points="423,-213 423,-231 505,-231 505,-213 423,-213"/>
<text text-anchor="start" x="426" y="-219.2" font-family="Helvetica,sans-Serif" font-size="11.00">...</text>
<polygon fill="#ffffff" stroke="transparent" points="423,-195 423,-213 463,-213 463,-195 423,-195"/>
<polygon fill="none" stroke="black" points="423,-195 423,-213 463,-213 463,-195 423,-195"/>
<text text-anchor="start" x="426" y="-201.2" font-family="Helvetica,sans-Serif" font-size="11.00">&lt; 1</text>
<polygon fill="#ffffff" stroke="transparent" points="463,-195 463,-213 484,-213 484,-195 463,-195"/>
<polygon fill="none" stroke="black" points="463,-195 463,-213 484,-213 484,-195 463,-195"/>
<text text-anchor="start" x="473" y="-201.2" font-family="Helvetica,sans-Serif" font-size="11.00"> &#160;</text>
<polygon fill="#ffffff" stroke="transparent" points="484,-195 484,-213 505,-213 505,-195 484,-195"/>
<polygon fill="none" stroke="black" points="484,-195 484,-213 505,-213 505,-195 484,-195"/>
<text text-anchor="start" x="494" y="-201.2" font-family="Helvetica,sans-Serif" font-size="11.00"> &#160;</text>
</a>
</g>
</g>
<!-- pand&#45;&gt;object -->
<g id="edge7" class="edge">
<title>pand:w&#45;&gt;object:e</title>
<path fill="none" stroke="black" d="M407.16,-222.31C372.34,-223.93 354.86,-232.64 329,-263 282.24,-317.9 360.12,-420 288,-420"/>
<polygon fill="black" stroke="black" points="414,-222.17 422.07,-225.6 418,-222.08 422,-222 422,-222 422,-222 418,-222.08 421.93,-218.4 414,-222.17 414,-222.17"/>
<ellipse fill="none" stroke="black" cx="410.8" cy="-222.23" rx="3.2" ry="3.2"/>
</g>
<!-- risico -->
<g id="node9" class="node">
<title>risico</title>
<g id="a_node9"><a xlink:href="../../tables/risico.html" xlink:title="risico" target="_top">
<polygon fill="#ffffff" stroke="transparent" points="421.5,-116 421.5,-174 506.5,-174 506.5,-116 421.5,-116"/>
<polygon fill="#f5f5f5" stroke="transparent" points="422,-152 422,-174 507,-174 507,-152 422,-152"/>
<polygon fill="none" stroke="black" points="422,-152 422,-174 507,-174 507,-152 422,-152"/>
<text text-anchor="start" x="427" y="-161.2" font-family="Helvetica,sans-Serif" font-weight="bold" font-size="11.00">risico</text>
<text text-anchor="start" x="465" y="-160.2" font-family="Helvetica,sans-Serif" font-size="11.00">[table]</text>
<polygon fill="none" stroke="black" points="422,-134 422,-152 507,-152 507,-134 422,-134"/>
<text text-anchor="start" x="425" y="-140.2" font-family="Helvetica,sans-Serif" font-size="11.00">...</text>
<polygon fill="#ffffff" stroke="transparent" points="422,-116 422,-134 463,-134 463,-116 422,-116"/>
<polygon fill="none" stroke="black" points="422,-116 422,-134 463,-134 463,-116 422,-116"/>
<text text-anchor="start" x="425" y="-122.2" font-family="Helvetica,sans-Serif" font-size="11.00">&lt; 1</text>
<polygon fill="#ffffff" stroke="transparent" points="463,-116 463,-134 485,-134 485,-116 463,-116"/>
<polygon fill="none" stroke="black" points="463,-116 463,-134 485,-134 485,-116 463,-116"/>
<text text-anchor="start" x="474" y="-122.2" font-family="Helvetica,sans-Serif" font-size="11.00"> &#160;</text>
<polygon fill="#ffffff" stroke="transparent" points="485,-116 485,-134 507,-134 507,-116 485,-116"/>
<polygon fill="none" stroke="black" points="485,-116 485,-134 507,-134 507,-116 485,-116"/>
<text text-anchor="start" x="496" y="-122.2" font-family="Helvetica,sans-Serif" font-size="11.00"> &#160;</text>
</a>
</g>
</g>
<!-- risico&#45;&gt;object -->
<g id="edge8" class="edge">
<title>risico:w&#45;&gt;object:e</title>
<path fill="none" stroke="black" d="M406.24,-143.27C371.5,-144.74 353.29,-152.82 329,-184 296.29,-225.99 341.23,-420 288,-420"/>
<polygon fill="black" stroke="black" points="413,-143.15 421.07,-146.6 417,-143.07 421,-143 421,-143 421,-143 417,-143.07 420.93,-139.4 413,-143.15 413,-143.15"/>
<ellipse fill="none" stroke="black" cx="409.8" cy="-143.21" rx="3.2" ry="3.2"/>
</g>
<!-- scenario -->
<g id="node10" class="node">
<title>scenario</title>
<g id="a_node10"><a xlink:href="../../tables/scenario.html" xlink:title="scenario" target="_top">
<polygon fill="#ffffff" stroke="transparent" points="412,-37 412,-95 516,-95 516,-37 412,-37"/>
<polygon fill="#f5f5f5" stroke="transparent" points="412,-73 412,-95 516,-95 516,-73 412,-73"/>
<polygon fill="none" stroke="black" points="412,-73 412,-95 516,-95 516,-73 412,-73"/>
<text text-anchor="start" x="417" y="-82.2" font-family="Helvetica,sans-Serif" font-weight="bold" font-size="11.00">scenario</text>
<text text-anchor="start" x="474" y="-81.2" font-family="Helvetica,sans-Serif" font-size="11.00">[table]</text>
<polygon fill="none" stroke="black" points="412,-55 412,-73 516,-73 516,-55 412,-55"/>
<text text-anchor="start" x="415" y="-61.2" font-family="Helvetica,sans-Serif" font-size="11.00">...</text>
<polygon fill="#ffffff" stroke="transparent" points="412,-37 412,-55 463,-55 463,-37 412,-37"/>
<polygon fill="none" stroke="black" points="412,-37 412,-55 463,-55 463,-37 412,-37"/>
<text text-anchor="start" x="415" y="-43.2" font-family="Helvetica,sans-Serif" font-size="11.00">&lt; 2</text>
<polygon fill="#ffffff" stroke="transparent" points="463,-37 463,-55 489,-55 489,-37 463,-37"/>
<polygon fill="none" stroke="black" points="463,-37 463,-55 489,-55 489,-37 463,-37"/>
<text text-anchor="start" x="478" y="-43.2" font-family="Helvetica,sans-Serif" font-size="11.00"> &#160;</text>
<polygon fill="#ffffff" stroke="transparent" points="489,-37 489,-55 516,-55 516,-37 489,-37"/>
<polygon fill="none" stroke="black" points="489,-37 489,-55 516,-55 516,-37 489,-37"/>
<text text-anchor="start" x="505" y="-43.2" font-family="Helvetica,sans-Serif" font-size="11.00"> &#160;</text>
</a>
</g>
</g>
<!-- scenario&#45;&gt;object -->
<g id="edge9" class="edge">
<title>scenario:w&#45;&gt;object:e</title>
<path fill="none" stroke="black" d="M396.33,-64.43C365.61,-66.43 349.57,-76.08 329,-105 288.08,-162.52 358.59,-420 288,-420"/>
<polygon fill="black" stroke="black" points="403,-64.23 411.1,-67.6 407,-64.12 411,-64 411,-64 411,-64 407,-64.12 410.9,-60.4 403,-64.23 403,-64.23"/>
<ellipse fill="none" stroke="black" cx="399.8" cy="-64.33" rx="3.2" ry="3.2"/>
</g>
<!-- scheiding -->
<g id="node11" class="node">
<title>scheiding</title>
<g id="a_node11"><a xlink:href="../../tables/scheiding.html" xlink:title="scheiding" target="_top">
<polygon fill="#ffffff" stroke="transparent" points="409,-669 409,-727 519,-727 519,-669 409,-669"/>
<polygon fill="#f5f5f5" stroke="transparent" points="409,-705 409,-727 519,-727 519,-705 409,-705"/>
<polygon fill="none" stroke="black" points="409,-705 409,-727 519,-727 519,-705 409,-705"/>
<text text-anchor="start" x="414" y="-714.2" font-family="Helvetica,sans-Serif" font-weight="bold" font-size="11.00">scheiding</text>
<text text-anchor="start" x="477" y="-713.2" font-family="Helvetica,sans-Serif" font-size="11.00">[table]</text>
<polygon fill="none" stroke="black" points="409,-687 409,-705 519,-705 519,-687 409,-687"/>
<text text-anchor="start" x="412" y="-693.2" font-family="Helvetica,sans-Serif" font-size="11.00">...</text>
<polygon fill="#ffffff" stroke="transparent" points="409,-669 409,-687 463,-687 463,-669 409,-669"/>
<polygon fill="none" stroke="black" points="409,-669 409,-687 463,-687 463,-669 409,-669"/>
<text text-anchor="start" x="412" y="-675.2" font-family="Helvetica,sans-Serif" font-size="11.00">&lt; 2</text>
<polygon fill="#ffffff" stroke="transparent" points="463,-669 463,-687 491,-687 491,-669 463,-669"/>
<polygon fill="none" stroke="black" points="463,-669 463,-687 491,-687 491,-669 463,-669"/>
<text text-anchor="start" x="480" y="-675.2" font-family="Helvetica,sans-Serif" font-size="11.00"> &#160;</text>
<polygon fill="#ffffff" stroke="transparent" points="491,-669 491,-687 519,-687 519,-669 491,-669"/>
<polygon fill="none" stroke="black" points="491,-669 491,-687 519,-687 519,-669 491,-669"/>
<text text-anchor="start" x="508" y="-675.2" font-family="Helvetica,sans-Serif" font-size="11.00"> &#160;</text>
</a>
</g>
</g>
<!-- scheiding&#45;&gt;object -->
<g id="edge10" class="edge">
<title>scheiding:w&#45;&gt;object:e</title>
<path fill="none" stroke="black" d="M393.26,-695.61C364.53,-693.85 349.29,-685.62 329,-659 296.33,-616.15 341.89,-420 288,-420"/>
<polygon fill="black" stroke="black" points="400,-695.79 407.9,-699.6 404,-695.89 408,-696 408,-696 408,-696 404,-695.89 408.1,-692.4 400,-695.79 400,-695.79"/>
<ellipse fill="none" stroke="black" cx="396.8" cy="-695.7" rx="3.2" ry="3.2"/>
</g>
<!-- sector -->
<g id="node12" class="node">
<title>sector</title>
<g id="a_node12"><a xlink:href="../../tables/sector.html" xlink:title="sector" target="_top">
<polygon fill="#ffffff" stroke="transparent" points="418.5,-590 418.5,-648 509.5,-648 509.5,-590 418.5,-590"/>
<polygon fill="#f5f5f5" stroke="transparent" points="419,-626 419,-648 510,-648 510,-626 419,-626"/>
<polygon fill="none" stroke="black" points="419,-626 419,-648 510,-648 510,-626 419,-626"/>
<text text-anchor="start" x="424" y="-635.2" font-family="Helvetica,sans-Serif" font-weight="bold" font-size="11.00">sector</text>
<text text-anchor="start" x="468" y="-634.2" font-family="Helvetica,sans-Serif" font-size="11.00">[table]</text>
<polygon fill="none" stroke="black" points="419,-608 419,-626 510,-626 510,-608 419,-608"/>
<text text-anchor="start" x="422" y="-614.2" font-family="Helvetica,sans-Serif" font-size="11.00">...</text>
<polygon fill="#ffffff" stroke="transparent" points="419,-590 419,-608 463,-608 463,-590 419,-590"/>
<polygon fill="none" stroke="black" points="419,-590 419,-608 463,-608 463,-590 419,-590"/>
<text text-anchor="start" x="422" y="-596.2" font-family="Helvetica,sans-Serif" font-size="11.00">&lt; 2</text>
<polygon fill="#ffffff" stroke="transparent" points="463,-590 463,-608 486,-608 486,-590 463,-590"/>
<polygon fill="none" stroke="black" points="463,-590 463,-608 486,-608 486,-590 463,-590"/>
<text text-anchor="start" x="475" y="-596.2" font-family="Helvetica,sans-Serif" font-size="11.00"> &#160;</text>
<polygon fill="#ffffff" stroke="transparent" points="486,-590 486,-608 510,-608 510,-590 486,-590"/>
<polygon fill="none" stroke="black" points="486,-590 486,-608 510,-608 510,-590 486,-590"/>
<text text-anchor="start" x="499" y="-596.2" font-family="Helvetica,sans-Serif" font-size="11.00"> &#160;</text>
</a>
</g>
</g>
<!-- sector&#45;&gt;object -->
<g id="edge11" class="edge">
<title>sector:w&#45;&gt;object:e</title>
<path fill="none" stroke="black" d="M403.46,-616.76C370.63,-615.47 353.65,-608.46 329,-580 280.94,-524.51 361.41,-420 288,-420"/>
<polygon fill="black" stroke="black" points="410,-616.87 417.94,-620.6 414,-616.93 418,-617 418,-617 418,-617 414,-616.93 418.06,-613.4 410,-616.87 410,-616.87"/>
<ellipse fill="none" stroke="black" cx="406.8" cy="-616.81" rx="3.2" ry="3.2"/>
</g>
<!-- voorziening -->
<g id="node13" class="node">
<title>voorziening</title>
<g id="a_node13"><a xlink:href="../../tables/voorziening.html" xlink:title="voorziening" target="_top">
<polygon fill="#ffffff" stroke="transparent" points="402,-511 402,-569 526,-569 526,-511 402,-511"/>
<polygon fill="#f5f5f5" stroke="transparent" points="402,-547 402,-569 526,-569 526,-547 402,-547"/>
<polygon fill="none" stroke="black" points="402,-547 402,-569 526,-569 526,-547 402,-547"/>
<text text-anchor="start" x="407" y="-556.2" font-family="Helvetica,sans-Serif" font-weight="bold" font-size="11.00">voorziening</text>
<text text-anchor="start" x="484" y="-555.2" font-family="Helvetica,sans-Serif" font-size="11.00">[table]</text>
<polygon fill="none" stroke="black" points="402,-529 402,-547 526,-547 526,-529 402,-529"/>
<text text-anchor="start" x="405" y="-535.2" font-family="Helvetica,sans-Serif" font-size="11.00">...</text>
<polygon fill="#ffffff" stroke="transparent" points="402,-511 402,-529 463,-529 463,-511 402,-511"/>
<polygon fill="none" stroke="black" points="402,-511 402,-529 463,-529 463,-511 402,-511"/>
<text text-anchor="start" x="405" y="-517.2" font-family="Helvetica,sans-Serif" font-size="11.00">&lt; 2</text>
<polygon fill="#ffffff" stroke="transparent" points="463,-511 463,-529 494,-529 494,-511 463,-511"/>
<polygon fill="none" stroke="black" points="463,-511 463,-529 494,-529 494,-511 463,-511"/>
<text text-anchor="start" x="483" y="-517.2" font-family="Helvetica,sans-Serif" font-size="11.00"> &#160;</text>
<polygon fill="#ffffff" stroke="transparent" points="494,-511 494,-529 526,-529 526,-511 494,-511"/>
<polygon fill="none" stroke="black" points="494,-511 494,-529 526,-529 526,-511 494,-511"/>
<text text-anchor="start" x="515" y="-517.2" font-family="Helvetica,sans-Serif" font-size="11.00"> &#160;</text>
</a>
</g>
</g>
<!-- voorziening&#45;&gt;object -->
<g id="edge12" class="edge">
<title>voorziening:w&#45;&gt;object:e</title>
<path fill="none" stroke="black" d="M386.52,-537.23C361.53,-534.28 350.6,-522.73 329,-501 300.56,-472.38 328.35,-420 288,-420"/>
<polygon fill="black" stroke="black" points="393.01,-537.58 400.81,-541.59 397.01,-537.79 401,-538 401,-538 401,-538 397.01,-537.79 401.19,-534.41 393.01,-537.58 393.01,-537.58"/>
<ellipse fill="none" stroke="black" cx="389.82" cy="-537.41" rx="3.2" ry="3.2"/>
</g>
</g>
</svg>
