<?xml version="1.0" encoding="UTF-8" standalone="no"?>
<!DOCTYPE svg PUBLIC "-//W3C//DTD SVG 1.1//EN"
 "http://www.w3.org/Graphics/SVG/1.1/DTD/svg11.dtd">
<!-- Generated by graphviz version 2.40.1 (20161225.0304)
 -->
<!-- Title: oneDegreeRelationshipsDiagram Pages: 1 -->
<svg width="428pt" height="387pt"
 viewBox="0.00 0.00 428.00 386.70" xmlns="http://www.w3.org/2000/svg" xmlns:xlink="http://www.w3.org/1999/xlink">
<g id="graph0" class="graph" transform="scale(1 1) rotate(0) translate(4 382.7)">
<title>oneDegreeRelationshipsDiagram</title>
<polygon fill="#ffffff" stroke="transparent" points="-4,4 -4,-382.7 424,-382.7 424,4 -4,4"/>
<text text-anchor="middle" x="72.4936" y="-7.3" font-family="Helvetica,sans-Serif" font-size="11.00" fill="#000000">Generated by SchemaSpy</text>
<!-- label -->
<g id="node1" class="node">
<title>label</title>
<g id="a_node1"><a xlink:href="../../tables/label.html" xlink:title="label" target="_top">
<polygon fill="#ffffff" stroke="transparent" points="180,-86.7 180,-374.7 412,-374.7 412,-86.7 180,-86.7"/>
<polygon fill="#f5f5f5" stroke="transparent" points="182,-349.7 182,-372.7 410,-372.7 410,-349.7 182,-349.7"/>
<polygon fill="none" stroke="#000000" points="182,-349.7 182,-372.7 410,-372.7 410,-349.7 182,-349.7"/>
<text text-anchor="start" x="186.8868" y="-358.3" font-family="Helvetica,sans-Serif" font-weight="bold" font-size="11.00" fill="#000000">label</text>
<text text-anchor="start" x="375.0437" y="-357.8" font-family="Helvetica,sans-Serif" font-size="11.00" fill="#000000">[table]</text>
<polygon fill="none" stroke="#000000" points="182,-327.7 182,-349.7 291,-349.7 291,-327.7 182,-327.7"/>
<image xlink:href="../../images/primaryKeys.png" width="11px" height="12px" preserveAspectRatio="xMinYMin meet" x="187" y="-344.7"/>
<text text-anchor="start" x="202" y="-334.8" font-family="Helvetica,sans-Serif" font-size="11.00" fill="#000000">uuid</text>
<polygon fill="none" stroke="#000000" points="291,-327.7 291,-349.7 410,-349.7 410,-327.7 291,-327.7"/>
<text text-anchor="start" x="294" y="-335.4" font-family="Helvetica,sans-Serif" font-size="11.00" fill="#000000">uuid[2147483647]</text>
<polygon fill="#ffffff" stroke="transparent" points="182,-305.7 182,-327.7 291,-327.7 291,-305.7 182,-305.7"/>
<polygon fill="none" stroke="#000000" points="182,-305.7 182,-327.7 291,-327.7 291,-305.7 182,-305.7"/>
<text text-anchor="start" x="202" y="-312.8" font-family="Helvetica,sans-Serif" font-size="11.00" fill="#000000">geom</text>
<polygon fill="none" stroke="#000000" points="291,-305.7 291,-327.7 410,-327.7 410,-305.7 291,-305.7"/>
<text text-anchor="start" x="293.9485" y="-313.4" font-family="Helvetica,sans-Serif" font-size="11.00" fill="#000000">geometry[2147483647]</text>
<polygon fill="none" stroke="#000000" points="182,-283.7 182,-305.7 291,-305.7 291,-283.7 182,-283.7"/>
<text text-anchor="start" x="202" y="-290.8" font-family="Helvetica,sans-Serif" font-size="11.00" fill="#000000">datumtijd</text>
<polygon fill="none" stroke="#000000" points="291,-283.7 291,-305.7 410,-305.7 410,-283.7 291,-283.7"/>
<text text-anchor="start" x="294" y="-291.4" font-family="Helvetica,sans-Serif" font-size="11.00" fill="#000000">timestamptz[35,6]</text>
<polygon fill="none" stroke="#000000" points="182,-261.7 182,-283.7 291,-283.7 291,-261.7 182,-261.7"/>
<text text-anchor="start" x="202" y="-268.8" font-family="Helvetica,sans-Serif" font-size="11.00" fill="#000000">gebruiker</text>
<polygon fill="none" stroke="#000000" points="291,-261.7 291,-283.7 410,-283.7 410,-261.7 291,-261.7"/>
<text text-anchor="start" x="294" y="-269.4" font-family="Helvetica,sans-Serif" font-size="11.00" fill="#000000">varchar[255]</text>
<polygon fill="none" stroke="#000000" points="182,-239.7 182,-261.7 291,-261.7 291,-239.7 182,-239.7"/>
<text text-anchor="start" x="202" y="-246.8" font-family="Helvetica,sans-Serif" font-size="11.00" fill="#000000">label</text>
<polygon fill="none" stroke="#000000" points="291,-239.7 291,-261.7 410,-261.7 410,-239.7 291,-239.7"/>
<text text-anchor="start" x="294" y="-247.4" font-family="Helvetica,sans-Serif" font-size="11.00" fill="#000000">text[2147483647]</text>
<polygon fill="none" stroke="#000000" points="182,-217.7 182,-239.7 291,-239.7 291,-217.7 182,-217.7"/>
<text text-anchor="start" x="202" y="-224.8" font-family="Helvetica,sans-Serif" font-size="11.00" fill="#000000">rotatie</text>
<polygon fill="none" stroke="#000000" points="291,-217.7 291,-239.7 410,-239.7 410,-217.7 291,-217.7"/>
<text text-anchor="start" x="294" y="-225.4" font-family="Helvetica,sans-Serif" font-size="11.00" fill="#000000">int4[10]</text>
<polygon fill="none" stroke="#000000" points="182,-195.7 182,-217.7 291,-217.7 291,-195.7 182,-195.7"/>
<text text-anchor="start" x="202" y="-202.8" font-family="Helvetica,sans-Serif" font-size="11.00" fill="#000000">bijzonderheden</text>
<polygon fill="none" stroke="#000000" points="291,-195.7 291,-217.7 410,-217.7 410,-195.7 291,-195.7"/>
<text text-anchor="start" x="294" y="-203.4" font-family="Helvetica,sans-Serif" font-size="11.00" fill="#000000">text[2147483647]</text>
<polygon fill="none" stroke="#000000" points="182,-173.7 182,-195.7 291,-195.7 291,-173.7 182,-173.7"/>
<text text-anchor="start" x="202" y="-180.8" font-family="Helvetica,sans-Serif" font-size="11.00" fill="#000000">plusinfo</text>
<polygon fill="none" stroke="#000000" points="291,-173.7 291,-195.7 410,-195.7 410,-173.7 291,-173.7"/>
<text text-anchor="start" x="294" y="-181.4" font-family="Helvetica,sans-Serif" font-size="11.00" fill="#000000">jsonb[2147483647]</text>
<polygon fill="#ffffff" stroke="transparent" points="182,-151.7 182,-173.7 291,-173.7 291,-151.7 182,-151.7"/>
<polygon fill="none" stroke="#000000" points="182,-151.7 182,-173.7 291,-173.7 291,-151.7 182,-151.7"/>
<image xlink:href="../../images/foreignKeys.png" width="11px" height="12px" preserveAspectRatio="xMinYMin meet" x="187" y="-168.7"/>
<text text-anchor="start" x="202" y="-158.8" font-family="Helvetica,sans-Serif" font-size="11.00" fill="#000000">object_uuid</text>
<polygon fill="none" stroke="#000000" points="291,-151.7 291,-173.7 410,-173.7 410,-151.7 291,-151.7"/>
<text text-anchor="start" x="294" y="-159.4" font-family="Helvetica,sans-Serif" font-size="11.00" fill="#000000">uuid[2147483647]</text>
<polygon fill="#ffffff" stroke="transparent" points="182,-129.7 182,-151.7 291,-151.7 291,-129.7 182,-129.7"/>
<polygon fill="none" stroke="#000000" points="182,-129.7 182,-151.7 291,-151.7 291,-129.7 182,-129.7"/>
<image xlink:href="../../images/foreignKeys.png" width="11px" height="12px" preserveAspectRatio="xMinYMin meet" x="187" y="-146.7"/>
<text text-anchor="start" x="202" y="-136.8" font-family="Helvetica,sans-Serif" font-size="11.00" fill="#000000">annotatie_id</text>
<polygon fill="none" stroke="#000000" points="291,-129.7 291,-151.7 410,-151.7 410,-129.7 291,-129.7"/>
<text text-anchor="start" x="294" y="-137.4" font-family="Helvetica,sans-Serif" font-size="11.00" fill="#000000">int2[5]</text>
<polygon fill="#ffffff" stroke="transparent" points="182,-107.7 182,-129.7 291,-129.7 291,-107.7 182,-107.7"/>
<polygon fill="none" stroke="#000000" points="182,-107.7 182,-129.7 291,-129.7 291,-107.7 182,-107.7"/>
<text text-anchor="start" x="202" y="-114.8" font-family="Helvetica,sans-Serif" font-size="11.00" fill="#000000">bouwlaag</text>
<polygon fill="none" stroke="#000000" points="291,-107.7 291,-129.7 410,-129.7 410,-107.7 291,-107.7"/>
<text text-anchor="start" x="294" y="-115.4" font-family="Helvetica,sans-Serif" font-size="11.00" fill="#000000">int2[5]</text>
<polygon fill="#ffffff" stroke="transparent" points="182,-88.7 182,-107.7 241,-107.7 241,-88.7 182,-88.7"/>
<polygon fill="none" stroke="#000000" points="182,-88.7 182,-107.7 241,-107.7 241,-88.7 182,-88.7"/>
<text text-anchor="start" x="185" y="-94.8" font-family="Helvetica,sans-Serif" font-size="11.00" fill="#000000">&lt; 2</text>
<polygon fill="#ffffff" stroke="transparent" points="241,-88.7 241,-107.7 291,-107.7 291,-88.7 241,-88.7"/>
<polygon fill="none" stroke="#000000" points="241,-88.7 241,-107.7 291,-107.7 291,-88.7 241,-88.7"/>
<text text-anchor="start" x="281.8862" y="-94.8" font-family="Helvetica,sans-Serif" font-size="11.00" fill="#000000"> &#160;</text>
<polygon fill="#ffffff" stroke="transparent" points="291,-88.7 291,-107.7 410,-107.7 410,-88.7 291,-88.7"/>
<polygon fill="none" stroke="#000000" points="291,-88.7 291,-107.7 410,-107.7 410,-88.7 291,-88.7"/>
<text text-anchor="start" x="391.4053" y="-94.8" font-family="Helvetica,sans-Serif" font-size="11.00" fill="#000000">0 &gt;</text>
<polygon fill="none" stroke="#000000" stroke-width="2" points="181,-87.7 181,-373.7 411,-373.7 411,-87.7 181,-87.7"/>
</a>
</g>
</g>
<!-- roi.annotatie -->
<g id="node2" class="node">
<title>roi.annotatie</title>
<g id="a_node2"><a xlink:href="../../../roi/tables/annotatie.html" xlink:title="roi.annotatie" target="_top">
<polygon fill="#ffffff" stroke="transparent" points="14,-38.2 14,-99.2 125,-99.2 125,-38.2 14,-38.2"/>
<polygon fill="#f5f5f5" stroke="transparent" points="14.5,-75.7 14.5,-98.7 125.5,-98.7 125.5,-75.7 14.5,-75.7"/>
<polygon fill="none" stroke="#000000" points="14.5,-75.7 14.5,-98.7 125.5,-98.7 125.5,-75.7 14.5,-75.7"/>
<text text-anchor="start" x="19.5" y="-84.3" font-family="Helvetica,sans-Serif" font-weight="bold" font-size="11.00" fill="#000000">roi.annotatie</text>
<text text-anchor="start" x="91.0219" y="-83.8" font-family="Helvetica,sans-Serif" font-size="11.00" fill="#000000">[table]</text>
<polygon fill="none" stroke="#000000" points="14.5,-56.7 14.5,-75.7 125.5,-75.7 125.5,-56.7 14.5,-56.7"/>
<text text-anchor="start" x="17.5" y="-62.8" font-family="Helvetica,sans-Serif" font-size="11.00" fill="#000000">...</text>
<polygon fill="#ffffff" stroke="transparent" points="14.5,-37.7 14.5,-56.7 59.5,-56.7 59.5,-37.7 14.5,-37.7"/>
<polygon fill="none" stroke="#000000" points="14.5,-37.7 14.5,-56.7 59.5,-56.7 59.5,-37.7 14.5,-37.7"/>
<text text-anchor="start" x="17.5" y="-43.8" font-family="Helvetica,sans-Serif" font-size="11.00" fill="#000000"> &#160;</text>
<polygon fill="#ffffff" stroke="transparent" points="59.5,-37.7 59.5,-56.7 87.5,-56.7 87.5,-37.7 59.5,-37.7"/>
<polygon fill="none" stroke="#000000" points="59.5,-37.7 59.5,-56.7 87.5,-56.7 87.5,-37.7 59.5,-37.7"/>
<text text-anchor="start" x="78.3862" y="-43.8" font-family="Helvetica,sans-Serif" font-size="11.00" fill="#000000"> &#160;</text>
<polygon fill="#ffffff" stroke="transparent" points="87.5,-37.7 87.5,-56.7 125.5,-56.7 125.5,-37.7 87.5,-37.7"/>
<polygon fill="none" stroke="#000000" points="87.5,-37.7 87.5,-56.7 125.5,-56.7 125.5,-37.7 87.5,-37.7"/>
<text text-anchor="start" x="106.9053" y="-43.8" font-family="Helvetica,sans-Serif" font-size="11.00" fill="#000000">1 &gt;</text>
</a>
</g>
</g>
<!-- label&#45;&gt;roi.annotatie -->
<g id="edge1" class="edge">
<title>label:w&#45;&gt;roi.annotatie:e</title>
<path fill="none" stroke="#000000" d="M167.7807,-137.4883C157.256,-131.7082 153.6376,-119.2652 139,-109.7 135.7164,-107.5543 132.3196,-105.3874 128.8738,-103.2298"/>
<polygon fill="#000000" stroke="#000000" points="174.1966,-138.9374 181.2068,-144.2115 178.0983,-139.8187 182,-140.7 182,-140.7 182,-140.7 178.0983,-139.8187 182.7932,-137.1885 174.1966,-138.9374 174.1966,-138.9374"/>
<ellipse fill="none" stroke="#000000" cx="171.0752" cy="-138.2324" rx="3.2" ry="3.2"/>
</g>
<!-- object -->
<g id="node3" class="node">
<title>object</title>
<g id="a_node3"><a xlink:href="../../tables/object.html" xlink:title="object" target="_top">
<polygon fill="#ffffff" stroke="transparent" points="8,-120.2 8,-269.2 131,-269.2 131,-120.2 8,-120.2"/>
<polygon fill="#f5f5f5" stroke="transparent" points="8.5,-245.7 8.5,-268.7 131.5,-268.7 131.5,-245.7 8.5,-245.7"/>
<polygon fill="none" stroke="#000000" points="8.5,-245.7 8.5,-268.7 131.5,-268.7 131.5,-245.7 8.5,-245.7"/>
<text text-anchor="start" x="13.5" y="-254.3" font-family="Helvetica,sans-Serif" font-weight="bold" font-size="11.00" fill="#000000">object</text>
<text text-anchor="start" x="96.5437" y="-253.8" font-family="Helvetica,sans-Serif" font-size="11.00" fill="#000000">[table]</text>
<polygon fill="none" stroke="#000000" points="8.5,-223.7 8.5,-245.7 131.5,-245.7 131.5,-223.7 8.5,-223.7"/>
<image xlink:href="../../images/primaryKeys.png" width="11px" height="12px" preserveAspectRatio="xMinYMin meet" x="13.5" y="-240.7"/>
<text text-anchor="start" x="28.5" y="-230.8" font-family="Helvetica,sans-Serif" font-size="11.00" fill="#000000">uuid</text>
<polygon fill="#ffffff" stroke="transparent" points="8.5,-201.7 8.5,-223.7 131.5,-223.7 131.5,-201.7 8.5,-201.7"/>
<polygon fill="none" stroke="#000000" points="8.5,-201.7 8.5,-223.7 131.5,-223.7 131.5,-201.7 8.5,-201.7"/>
<text text-anchor="start" x="28.5" y="-208.8" font-family="Helvetica,sans-Serif" font-size="11.00" fill="#000000">geom</text>
<polygon fill="#ffffff" stroke="transparent" points="8.5,-179.7 8.5,-201.7 131.5,-201.7 131.5,-179.7 8.5,-179.7"/>
<polygon fill="none" stroke="#000000" points="8.5,-179.7 8.5,-201.7 131.5,-201.7 131.5,-179.7 8.5,-179.7"/>
<text text-anchor="start" x="28.5" y="-186.8" font-family="Helvetica,sans-Serif" font-size="11.00" fill="#000000">revisie_frequentie</text>
<polygon fill="#ffffff" stroke="transparent" points="8.5,-157.7 8.5,-179.7 131.5,-179.7 131.5,-157.7 8.5,-157.7"/>
<polygon fill="none" stroke="#000000" points="8.5,-157.7 8.5,-179.7 131.5,-179.7 131.5,-157.7 8.5,-157.7"/>
<image xlink:href="../../images/foreignKeys.png" width="11px" height="12px" preserveAspectRatio="xMinYMin meet" x="13.5" y="-174.7"/>
<text text-anchor="start" x="28.5" y="-164.8" font-family="Helvetica,sans-Serif" font-size="11.00" fill="#000000">fase_id</text>
<polygon fill="none" stroke="#000000" points="8.5,-138.7 8.5,-157.7 131.5,-157.7 131.5,-138.7 8.5,-138.7"/>
<text text-anchor="start" x="11.5" y="-144.8" font-family="Helvetica,sans-Serif" font-size="11.00" fill="#000000">...</text>
<polygon fill="#ffffff" stroke="transparent" points="8.5,-119.7 8.5,-138.7 60.5,-138.7 60.5,-119.7 8.5,-119.7"/>
<polygon fill="none" stroke="#000000" points="8.5,-119.7 8.5,-138.7 60.5,-138.7 60.5,-119.7 8.5,-119.7"/>
<text text-anchor="start" x="11.5" y="-125.8" font-family="Helvetica,sans-Serif" font-size="11.00" fill="#000000">&lt; 1</text>
<polygon fill="#ffffff" stroke="transparent" points="60.5,-119.7 60.5,-138.7 88.5,-138.7 88.5,-119.7 60.5,-119.7"/>
<polygon fill="none" stroke="#000000" points="60.5,-119.7 60.5,-138.7 88.5,-138.7 88.5,-119.7 60.5,-119.7"/>
<text text-anchor="start" x="79.3862" y="-125.8" font-family="Helvetica,sans-Serif" font-size="11.00" fill="#000000"> &#160;</text>
<polygon fill="#ffffff" stroke="transparent" points="88.5,-119.7 88.5,-138.7 131.5,-138.7 131.5,-119.7 88.5,-119.7"/>
<polygon fill="none" stroke="#000000" points="88.5,-119.7 88.5,-138.7 131.5,-138.7 131.5,-119.7 88.5,-119.7"/>
<text text-anchor="start" x="106.7904" y="-125.8" font-family="Helvetica,sans-Serif" font-size="11.00" fill="#000000">10 &gt;</text>
</a>
</g>
</g>
<!-- label&#45;&gt;object -->
<g id="edge2" class="edge">
<title>label:w&#45;&gt;object:e</title>
<path fill="none" stroke="#000000" d="M168.3124,-167.2039C149.7957,-182.9665 164.6319,-234.7 131.5,-234.7"/>
<polygon fill="#000000" stroke="#000000" points="174.4008,-165.2005 183.1252,-166.1196 178.2004,-163.9503 182,-162.7 182,-162.7 182,-162.7 178.2004,-163.9503 180.8748,-159.2804 174.4008,-165.2005 174.4008,-165.2005"/>
<ellipse fill="none" stroke="#000000" cx="171.3612" cy="-166.2008" rx="3.2" ry="3.2"/>
</g>
</g>
</svg>
