<?xml version="1.0" encoding="UTF-8" standalone="no"?>
<!DOCTYPE svg PUBLIC "-//W3C//DTD SVG 1.1//EN"
 "http://www.w3.org/Graphics/SVG/1.1/DTD/svg11.dtd">
<!-- Generated by graphviz version 2.50.0 (0)
 -->
<!-- Title: oneDegreeRelationshipsDiagram Pages: 1 -->
<svg width="459pt" height="381pt"
 viewBox="0.00 0.00 459.00 381.00" xmlns="http://www.w3.org/2000/svg" xmlns:xlink="http://www.w3.org/1999/xlink">
<g id="graph0" class="graph" transform="scale(1 1) rotate(0) translate(4 377)">
<title>oneDegreeRelationshipsDiagram</title>
<polygon fill="#ffffff" stroke="transparent" points="-4,4 -4,-377 455,-377 455,4 -4,4"/>
<text text-anchor="middle" x="79.5" y="-7.2" font-family="Helvetica,sans-Serif" font-size="11.00">Generated by SchemaSpy</text>
<!-- label -->
<g id="node1" class="node">
<title>label</title>
<g id="a_node1"><a xlink:href="../../tables/label.html" xlink:title="label" target="_top">
<polygon fill="#ffffff" stroke="transparent" points="189,-83 189,-369 443,-369 443,-83 189,-83"/>
<polygon fill="#f5f5f5" stroke="transparent" points="191,-345 191,-367 441,-367 441,-345 191,-345"/>
<polygon fill="none" stroke="black" points="191,-345 191,-367 441,-367 441,-345 191,-345"/>
<text text-anchor="start" x="196" y="-354.2" font-family="Helvetica,sans-Serif" font-weight="bold" font-size="11.00">label</text>
<text text-anchor="start" x="399" y="-353.2" font-family="Helvetica,sans-Serif" font-size="11.00">[table]</text>
<polygon fill="none" stroke="black" points="191,-323 191,-345 305,-345 305,-323 191,-323"/>
<image xlink:href="../../images/primaryKeys.png" width="11px" height="12px" preserveAspectRatio="xMinYMin meet" x="196" y="-340"/>
<text text-anchor="start" x="211" y="-331.2" font-family="Helvetica,sans-Serif" font-size="11.00">uuid</text>
<polygon fill="none" stroke="black" points="305,-323 305,-345 441,-345 441,-323 305,-323"/>
<text text-anchor="start" x="308" y="-331.2" font-family="Helvetica,sans-Serif" font-size="11.00">uuid[2147483647]</text>
<polygon fill="#ffffff" stroke="transparent" points="191,-301 191,-323 305,-323 305,-301 191,-301"/>
<polygon fill="none" stroke="black" points="191,-301 191,-323 305,-323 305,-301 191,-301"/>
<text text-anchor="start" x="211" y="-309.2" font-family="Helvetica,sans-Serif" font-size="11.00">geom</text>
<polygon fill="none" stroke="black" points="305,-301 305,-323 441,-323 441,-301 305,-301"/>
<text text-anchor="start" x="308" y="-309.2" font-family="Helvetica,sans-Serif" font-size="11.00">geometry[2147483647]</text>
<polygon fill="none" stroke="black" points="191,-279 191,-301 305,-301 305,-279 191,-279"/>
<text text-anchor="start" x="211" y="-287.2" font-family="Helvetica,sans-Serif" font-size="11.00">datumtijd</text>
<polygon fill="none" stroke="black" points="305,-279 305,-301 441,-301 441,-279 305,-279"/>
<text text-anchor="start" x="308" y="-287.2" font-family="Helvetica,sans-Serif" font-size="11.00">timestamptz[35,6]</text>
<polygon fill="none" stroke="black" points="191,-257 191,-279 305,-279 305,-257 191,-257"/>
<text text-anchor="start" x="211" y="-265.2" font-family="Helvetica,sans-Serif" font-size="11.00">gebruiker</text>
<polygon fill="none" stroke="black" points="305,-257 305,-279 441,-279 441,-257 305,-257"/>
<text text-anchor="start" x="308" y="-265.2" font-family="Helvetica,sans-Serif" font-size="11.00">varchar[255]</text>
<polygon fill="none" stroke="black" points="191,-235 191,-257 305,-257 305,-235 191,-235"/>
<text text-anchor="start" x="211" y="-243.2" font-family="Helvetica,sans-Serif" font-size="11.00">label</text>
<polygon fill="none" stroke="black" points="305,-235 305,-257 441,-257 441,-235 305,-235"/>
<text text-anchor="start" x="308" y="-243.2" font-family="Helvetica,sans-Serif" font-size="11.00">text[2147483647]</text>
<polygon fill="none" stroke="black" points="191,-213 191,-235 305,-235 305,-213 191,-213"/>
<text text-anchor="start" x="211" y="-221.2" font-family="Helvetica,sans-Serif" font-size="11.00">rotatie</text>
<polygon fill="none" stroke="black" points="305,-213 305,-235 441,-235 441,-213 305,-213"/>
<text text-anchor="start" x="308" y="-221.2" font-family="Helvetica,sans-Serif" font-size="11.00">int4[10]</text>
<polygon fill="none" stroke="black" points="191,-191 191,-213 305,-213 305,-191 191,-191"/>
<text text-anchor="start" x="211" y="-199.2" font-family="Helvetica,sans-Serif" font-size="11.00">bijzonderheden</text>
<polygon fill="none" stroke="black" points="305,-191 305,-213 441,-213 441,-191 305,-191"/>
<text text-anchor="start" x="308" y="-199.2" font-family="Helvetica,sans-Serif" font-size="11.00">text[2147483647]</text>
<polygon fill="none" stroke="black" points="191,-169 191,-191 305,-191 305,-169 191,-169"/>
<text text-anchor="start" x="211" y="-177.2" font-family="Helvetica,sans-Serif" font-size="11.00">plusinfo</text>
<polygon fill="none" stroke="black" points="305,-169 305,-191 441,-191 441,-169 305,-169"/>
<text text-anchor="start" x="308" y="-177.2" font-family="Helvetica,sans-Serif" font-size="11.00">jsonb[2147483647]</text>
<polygon fill="#ffffff" stroke="transparent" points="191,-147 191,-169 305,-169 305,-147 191,-147"/>
<polygon fill="none" stroke="black" points="191,-147 191,-169 305,-169 305,-147 191,-147"/>
<image xlink:href="../../images/foreignKeys.png" width="11px" height="12px" preserveAspectRatio="xMinYMin meet" x="196" y="-164"/>
<text text-anchor="start" x="211" y="-155.2" font-family="Helvetica,sans-Serif" font-size="11.00">object_uuid</text>
<polygon fill="none" stroke="black" points="305,-147 305,-169 441,-169 441,-147 305,-147"/>
<text text-anchor="start" x="308" y="-155.2" font-family="Helvetica,sans-Serif" font-size="11.00">uuid[2147483647]</text>
<polygon fill="none" stroke="black" points="191,-125 191,-147 305,-147 305,-125 191,-125"/>
<image xlink:href="../../images/foreignKeys.png" width="11px" height="12px" preserveAspectRatio="xMinYMin meet" x="196" y="-142"/>
<text text-anchor="start" x="211" y="-133.2" font-family="Helvetica,sans-Serif" font-size="11.00">annotatie_id</text>
<polygon fill="none" stroke="black" points="305,-125 305,-147 441,-147 441,-125 305,-125"/>
<text text-anchor="start" x="308" y="-133.2" font-family="Helvetica,sans-Serif" font-size="11.00">int2[5]</text>
<polygon fill="#ffffff" stroke="transparent" points="191,-103 191,-125 305,-125 305,-103 191,-103"/>
<polygon fill="none" stroke="black" points="191,-103 191,-125 305,-125 305,-103 191,-103"/>
<text text-anchor="start" x="211" y="-111.2" font-family="Helvetica,sans-Serif" font-size="11.00">bouwlaag</text>
<polygon fill="none" stroke="black" points="305,-103 305,-125 441,-125 441,-103 305,-103"/>
<text text-anchor="start" x="308" y="-111.2" font-family="Helvetica,sans-Serif" font-size="11.00">int2[5]</text>
<polygon fill="#ffffff" stroke="transparent" points="191,-85 191,-103 254,-103 254,-85 191,-85"/>
<polygon fill="none" stroke="black" points="191,-85 191,-103 254,-103 254,-85 191,-85"/>
<text text-anchor="start" x="194" y="-91.2" font-family="Helvetica,sans-Serif" font-size="11.00">&lt; 2</text>
<polygon fill="#ffffff" stroke="transparent" points="254,-85 254,-103 305,-103 305,-85 254,-85"/>
<polygon fill="none" stroke="black" points="254,-85 254,-103 305,-103 305,-85 254,-85"/>
<text text-anchor="start" x="294" y="-91.2" font-family="Helvetica,sans-Serif" font-size="11.00"> &#160;</text>
<polygon fill="#ffffff" stroke="transparent" points="305,-85 305,-103 441,-103 441,-85 305,-85"/>
<polygon fill="none" stroke="black" points="305,-85 305,-103 441,-103 441,-85 305,-85"/>
<text text-anchor="start" x="418" y="-91.2" font-family="Helvetica,sans-Serif" font-size="11.00">0 &gt;</text>
<polygon fill="none" stroke="black" stroke-width="2" points="190,-84 190,-368 442,-368 442,-84 190,-84"/>
</a>
</g>
</g>
<!-- roi.annotatie -->
<g id="node2" class="node">
<title>roi.annotatie</title>
<g id="a_node2"><a xlink:href="../../../roi/tables/annotatie.html" xlink:title="roi.annotatie" target="_top">
<polygon fill="#ffffff" stroke="transparent" points="8,-37 8,-95 140,-95 140,-37 8,-37"/>
<polygon fill="#f5f5f5" stroke="transparent" points="8,-73 8,-95 140,-95 140,-73 8,-73"/>
<polygon fill="none" stroke="black" points="8,-73 8,-95 140,-95 140,-73 8,-73"/>
<text text-anchor="start" x="13" y="-82.2" font-family="Helvetica,sans-Serif" font-weight="bold" font-size="11.00">roi.annotatie</text>
<text text-anchor="start" x="98" y="-81.2" font-family="Helvetica,sans-Serif" font-size="11.00">[table]</text>
<polygon fill="none" stroke="black" points="8,-55 8,-73 140,-73 140,-55 8,-55"/>
<text text-anchor="start" x="11" y="-61.2" font-family="Helvetica,sans-Serif" font-size="11.00">...</text>
<polygon fill="#ffffff" stroke="transparent" points="8,-37 8,-55 61,-55 61,-37 8,-37"/>
<polygon fill="none" stroke="black" points="8,-37 8,-55 61,-55 61,-37 8,-37"/>
<text text-anchor="start" x="11" y="-43.2" font-family="Helvetica,sans-Serif" font-size="11.00"> &#160;</text>
<polygon fill="#ffffff" stroke="transparent" points="61,-37 61,-55 94,-55 94,-37 61,-37"/>
<polygon fill="none" stroke="black" points="61,-37 61,-55 94,-55 94,-37 61,-37"/>
<text text-anchor="start" x="83" y="-43.2" font-family="Helvetica,sans-Serif" font-size="11.00"> &#160;</text>
<polygon fill="#ffffff" stroke="transparent" points="94,-37 94,-55 140,-55 140,-37 94,-37"/>
<polygon fill="none" stroke="black" points="94,-37 94,-55 140,-55 140,-37 94,-37"/>
<text text-anchor="start" x="117" y="-43.2" font-family="Helvetica,sans-Serif" font-size="11.00">1 &gt;</text>
</a>
</g>
</g>
<!-- label&#45;&gt;roi.annotatie -->
<g id="edge1" class="edge">
<title>label:w&#45;&gt;roi.annotatie:e</title>
<path fill="none" stroke="black" d="M175.76,-132.53C165.79,-126.55 162.41,-114.1 148,-105 144.84,-103.01 141.57,-101.01 138.24,-99.04"/>
<polygon fill="black" stroke="black" points="182.23,-134.1 189.15,-139.5 186.11,-135.05 190,-136 190,-136 190,-136 186.11,-135.05 190.85,-132.5 182.23,-134.1 182.23,-134.1"/>
<ellipse fill="none" stroke="black" cx="179.12" cy="-133.34" rx="3.2" ry="3.2"/>
</g>
<!-- object -->
<g id="node3" class="node">
<title>object</title>
<g id="a_node3"><a xlink:href="../../tables/object.html" xlink:title="object" target="_top">
<polygon fill="#ffffff" stroke="transparent" points="9.5,-116 9.5,-262 138.5,-262 138.5,-116 9.5,-116"/>
<polygon fill="#f5f5f5" stroke="transparent" points="10,-240 10,-262 139,-262 139,-240 10,-240"/>
<polygon fill="none" stroke="black" points="10,-240 10,-262 139,-262 139,-240 10,-240"/>
<text text-anchor="start" x="15" y="-249.2" font-family="Helvetica,sans-Serif" font-weight="bold" font-size="11.00">object</text>
<text text-anchor="start" x="97" y="-248.2" font-family="Helvetica,sans-Serif" font-size="11.00">[table]</text>
<polygon fill="none" stroke="black" points="10,-218 10,-240 139,-240 139,-218 10,-218"/>
<image xlink:href="../../images/primaryKeys.png" width="11px" height="12px" preserveAspectRatio="xMinYMin meet" x="15" y="-235"/>
<text text-anchor="start" x="30" y="-226.2" font-family="Helvetica,sans-Serif" font-size="11.00">uuid</text>
<polygon fill="#ffffff" stroke="transparent" points="10,-196 10,-218 139,-218 139,-196 10,-196"/>
<polygon fill="none" stroke="black" points="10,-196 10,-218 139,-218 139,-196 10,-196"/>
<text text-anchor="start" x="30" y="-204.2" font-family="Helvetica,sans-Serif" font-size="11.00">geom</text>
<polygon fill="#ffffff" stroke="transparent" points="10,-174 10,-196 139,-196 139,-174 10,-174"/>
<polygon fill="none" stroke="black" points="10,-174 10,-196 139,-196 139,-174 10,-174"/>
<text text-anchor="start" x="30" y="-182.2" font-family="Helvetica,sans-Serif" font-size="11.00">revisie_frequentie</text>
<polygon fill="#ffffff" stroke="transparent" points="10,-152 10,-174 139,-174 139,-152 10,-152"/>
<polygon fill="none" stroke="black" points="10,-152 10,-174 139,-174 139,-152 10,-152"/>
<image xlink:href="../../images/foreignKeys.png" width="11px" height="12px" preserveAspectRatio="xMinYMin meet" x="15" y="-169"/>
<text text-anchor="start" x="30" y="-160.2" font-family="Helvetica,sans-Serif" font-size="11.00">fase_id</text>
<polygon fill="none" stroke="black" points="10,-134 10,-152 139,-152 139,-134 10,-134"/>
<text text-anchor="start" x="13" y="-140.2" font-family="Helvetica,sans-Serif" font-size="11.00">...</text>
<polygon fill="#ffffff" stroke="transparent" points="10,-116 10,-134 64,-134 64,-116 10,-116"/>
<polygon fill="none" stroke="black" points="10,-116 10,-134 64,-134 64,-116 10,-116"/>
<text text-anchor="start" x="13" y="-122.2" font-family="Helvetica,sans-Serif" font-size="11.00">&lt; 1</text>
<polygon fill="#ffffff" stroke="transparent" points="64,-116 64,-134 92,-134 92,-116 64,-116"/>
<polygon fill="none" stroke="black" points="64,-116 64,-134 92,-134 92,-116 64,-116"/>
<text text-anchor="start" x="81" y="-122.2" font-family="Helvetica,sans-Serif" font-size="11.00"> &#160;</text>
<polygon fill="#ffffff" stroke="transparent" points="92,-116 92,-134 139,-134 139,-116 92,-116"/>
<polygon fill="none" stroke="black" points="92,-116 92,-134 139,-134 139,-116 92,-116"/>
<text text-anchor="start" x="109" y="-122.2" font-family="Helvetica,sans-Serif" font-size="11.00">10 &gt;</text>
</a>
</g>
</g>
<!-- label&#45;&gt;object -->
<g id="edge2" class="edge">
<title>label:w&#45;&gt;object:e</title>
<path fill="none" stroke="black" d="M176.22,-162.66C158.3,-178.45 172.56,-229 140,-229"/>
<polygon fill="black" stroke="black" points="182.42,-160.56 191.15,-161.41 186.21,-159.28 190,-158 190,-158 190,-158 186.21,-159.28 188.85,-154.59 182.42,-160.56 182.42,-160.56"/>
<ellipse fill="none" stroke="black" cx="179.39" cy="-161.59" rx="3.2" ry="3.2"/>
</g>
</g>
</svg>
