<?xml version="1.0" encoding="UTF-8" standalone="no"?>
<!DOCTYPE svg PUBLIC "-//W3C//DTD SVG 1.1//EN"
 "http://www.w3.org/Graphics/SVG/1.1/DTD/svg11.dtd">
<!-- Generated by graphviz version 2.50.0 (0)
 -->
<!-- Title: twoDegreesRelationshipsDiagram Pages: 1 -->
<svg width="604pt" height="1024pt"
 viewBox="0.00 0.00 604.00 1024.00" xmlns="http://www.w3.org/2000/svg" xmlns:xlink="http://www.w3.org/1999/xlink">
<g id="graph0" class="graph" transform="scale(1 1) rotate(0) translate(4 1020)">
<title>twoDegreesRelationshipsDiagram</title>
<polygon fill="#ffffff" stroke="transparent" points="-4,4 -4,-1020 600,-1020 600,4 -4,4"/>
<text text-anchor="middle" x="79.5" y="-7.2" font-family="Helvetica,sans-Serif" font-size="11.00">Generated by SchemaSpy</text>
<!-- bereikbaarheid -->
<g id="node1" class="node">
<title>bereikbaarheid</title>
<g id="a_node1"><a xlink:href="../../tables/bereikbaarheid.html" xlink:title="bereikbaarheid" target="_top">
<polygon fill="#ffffff" stroke="transparent" points="388.5,-954 388.5,-1012 533.5,-1012 533.5,-954 388.5,-954"/>
<polygon fill="#f5f5f5" stroke="transparent" points="389,-990 389,-1012 534,-1012 534,-990 389,-990"/>
<polygon fill="none" stroke="black" points="389,-990 389,-1012 534,-1012 534,-990 389,-990"/>
<text text-anchor="start" x="394" y="-999.2" font-family="Helvetica,sans-Serif" font-weight="bold" font-size="11.00">bereikbaarheid</text>
<text text-anchor="start" x="492" y="-998.2" font-family="Helvetica,sans-Serif" font-size="11.00">[table]</text>
<polygon fill="none" stroke="black" points="389,-972 389,-990 534,-990 534,-972 389,-972"/>
<text text-anchor="start" x="392" y="-978.2" font-family="Helvetica,sans-Serif" font-size="11.00">...</text>
<polygon fill="#ffffff" stroke="transparent" points="389,-954 389,-972 460,-972 460,-954 389,-954"/>
<polygon fill="none" stroke="black" points="389,-954 389,-972 460,-972 460,-954 389,-954"/>
<text text-anchor="start" x="392" y="-960.2" font-family="Helvetica,sans-Serif" font-size="11.00">&lt; 2</text>
<polygon fill="#ffffff" stroke="transparent" points="460,-954 460,-972 497,-972 497,-954 460,-954"/>
<polygon fill="none" stroke="black" points="460,-954 460,-972 497,-972 497,-954 460,-954"/>
<text text-anchor="start" x="486" y="-960.2" font-family="Helvetica,sans-Serif" font-size="11.00"> &#160;</text>
<polygon fill="#ffffff" stroke="transparent" points="497,-954 497,-972 534,-972 534,-954 497,-954"/>
<polygon fill="none" stroke="black" points="497,-954 497,-972 534,-972 534,-954 497,-954"/>
<text text-anchor="start" x="523" y="-960.2" font-family="Helvetica,sans-Serif" font-size="11.00"> &#160;</text>
</a>
</g>
</g>
<!-- object -->
<g id="node2" class="node">
<title>object</title>
<g id="a_node2"><a xlink:href="../../tables/object.html" xlink:title="object" target="_top">
<polygon fill="#ffffff" stroke="transparent" points="156,-512 156,-658 285,-658 285,-512 156,-512"/>
<polygon fill="#f5f5f5" stroke="transparent" points="156.5,-636 156.5,-658 285.5,-658 285.5,-636 156.5,-636"/>
<polygon fill="none" stroke="black" points="156.5,-636 156.5,-658 285.5,-658 285.5,-636 156.5,-636"/>
<text text-anchor="start" x="161.5" y="-645.2" font-family="Helvetica,sans-Serif" font-weight="bold" font-size="11.00">object</text>
<text text-anchor="start" x="243.5" y="-644.2" font-family="Helvetica,sans-Serif" font-size="11.00">[table]</text>
<polygon fill="none" stroke="black" points="156.5,-614 156.5,-636 285.5,-636 285.5,-614 156.5,-614"/>
<image xlink:href="../../images/primaryKeys.png" width="11px" height="12px" preserveAspectRatio="xMinYMin meet" x="161.5" y="-631"/>
<text text-anchor="start" x="176.5" y="-622.2" font-family="Helvetica,sans-Serif" font-size="11.00">uuid</text>
<polygon fill="#ffffff" stroke="transparent" points="156.5,-592 156.5,-614 285.5,-614 285.5,-592 156.5,-592"/>
<polygon fill="none" stroke="black" points="156.5,-592 156.5,-614 285.5,-614 285.5,-592 156.5,-592"/>
<text text-anchor="start" x="176.5" y="-600.2" font-family="Helvetica,sans-Serif" font-size="11.00">geom</text>
<polygon fill="#ffffff" stroke="transparent" points="156.5,-570 156.5,-592 285.5,-592 285.5,-570 156.5,-570"/>
<polygon fill="none" stroke="black" points="156.5,-570 156.5,-592 285.5,-592 285.5,-570 156.5,-570"/>
<text text-anchor="start" x="176.5" y="-578.2" font-family="Helvetica,sans-Serif" font-size="11.00">revisie_frequentie</text>
<polygon fill="#ffffff" stroke="transparent" points="156.5,-548 156.5,-570 285.5,-570 285.5,-548 156.5,-548"/>
<polygon fill="none" stroke="black" points="156.5,-548 156.5,-570 285.5,-570 285.5,-548 156.5,-548"/>
<image xlink:href="../../images/foreignKeys.png" width="11px" height="12px" preserveAspectRatio="xMinYMin meet" x="161.5" y="-565"/>
<text text-anchor="start" x="176.5" y="-556.2" font-family="Helvetica,sans-Serif" font-size="11.00">fase_id</text>
<polygon fill="none" stroke="black" points="156.5,-530 156.5,-548 285.5,-548 285.5,-530 156.5,-530"/>
<text text-anchor="start" x="159.5" y="-536.2" font-family="Helvetica,sans-Serif" font-size="11.00">...</text>
<polygon fill="#ffffff" stroke="transparent" points="156.5,-512 156.5,-530 210.5,-530 210.5,-512 156.5,-512"/>
<polygon fill="none" stroke="black" points="156.5,-512 156.5,-530 210.5,-530 210.5,-512 156.5,-512"/>
<text text-anchor="start" x="159.5" y="-518.2" font-family="Helvetica,sans-Serif" font-size="11.00">&lt; 1</text>
<polygon fill="#ffffff" stroke="transparent" points="210.5,-512 210.5,-530 238.5,-530 238.5,-512 210.5,-512"/>
<polygon fill="none" stroke="black" points="210.5,-512 210.5,-530 238.5,-530 238.5,-512 210.5,-512"/>
<text text-anchor="start" x="227.5" y="-518.2" font-family="Helvetica,sans-Serif" font-size="11.00"> &#160;</text>
<polygon fill="#ffffff" stroke="transparent" points="238.5,-512 238.5,-530 285.5,-530 285.5,-512 238.5,-512"/>
<polygon fill="none" stroke="black" points="238.5,-512 238.5,-530 285.5,-530 285.5,-512 238.5,-512"/>
<text text-anchor="start" x="255.5" y="-518.2" font-family="Helvetica,sans-Serif" font-size="11.00">10 &gt;</text>
</a>
</g>
</g>
<!-- bereikbaarheid&#45;&gt;object -->
<g id="edge1" class="edge">
<title>bereikbaarheid:w&#45;&gt;object:e</title>
<path fill="none" stroke="black" d="M373.38,-980.11C351.61,-977.13 340.59,-966.36 326,-944 286.98,-884.17 357.93,-625 286.5,-625"/>
<polygon fill="black" stroke="black" points="380.01,-980.51 387.78,-984.59 384.01,-980.76 388,-981 388,-981 388,-981 384.01,-980.76 388.22,-977.41 380.01,-980.51 380.01,-980.51"/>
<ellipse fill="none" stroke="black" cx="376.82" cy="-980.32" rx="3.2" ry="3.2"/>
</g>
<!-- roi.fase -->
<g id="node5" class="node">
<title>roi.fase</title>
<g id="a_node5"><a xlink:href="../../../roi/tables/fase.html" xlink:title="roi.fase" target="_top">
<polygon fill="#ffffff" stroke="transparent" points="8,-532 8,-590 107,-590 107,-532 8,-532"/>
<polygon fill="#f5f5f5" stroke="transparent" points="8.5,-568 8.5,-590 107.5,-590 107.5,-568 8.5,-568"/>
<polygon fill="none" stroke="black" points="8.5,-568 8.5,-590 107.5,-590 107.5,-568 8.5,-568"/>
<text text-anchor="start" x="13.5" y="-577.2" font-family="Helvetica,sans-Serif" font-weight="bold" font-size="11.00">roi.fase</text>
<text text-anchor="start" x="65.5" y="-576.2" font-family="Helvetica,sans-Serif" font-size="11.00">[table]</text>
<polygon fill="none" stroke="black" points="8.5,-550 8.5,-568 107.5,-568 107.5,-550 8.5,-550"/>
<text text-anchor="start" x="11.5" y="-556.2" font-family="Helvetica,sans-Serif" font-size="11.00">...</text>
<polygon fill="#ffffff" stroke="transparent" points="8.5,-532 8.5,-550 44.5,-550 44.5,-532 8.5,-532"/>
<polygon fill="none" stroke="black" points="8.5,-532 8.5,-550 44.5,-550 44.5,-532 8.5,-532"/>
<text text-anchor="start" x="11.5" y="-538.2" font-family="Helvetica,sans-Serif" font-size="11.00"> &#160;</text>
<polygon fill="#ffffff" stroke="transparent" points="44.5,-532 44.5,-550 69.5,-550 69.5,-532 44.5,-532"/>
<polygon fill="none" stroke="black" points="44.5,-532 44.5,-550 69.5,-550 69.5,-532 44.5,-532"/>
<text text-anchor="start" x="58.5" y="-538.2" font-family="Helvetica,sans-Serif" font-size="11.00"> &#160;</text>
<polygon fill="#ffffff" stroke="transparent" points="69.5,-532 69.5,-550 107.5,-550 107.5,-532 69.5,-532"/>
<polygon fill="none" stroke="black" points="69.5,-532 69.5,-550 107.5,-550 107.5,-532 69.5,-532"/>
<text text-anchor="start" x="84.5" y="-538.2" font-family="Helvetica,sans-Serif" font-size="11.00">1 &gt;</text>
</a>
</g>
</g>
<!-- object&#45;&gt;roi.fase -->
<g id="edge4" class="edge">
<title>object:w&#45;&gt;roi.fase:e</title>
<path fill="none" stroke="black" d="M140.9,-559C130.43,-559 123.51,-559 108.5,-559"/>
<polygon fill="black" stroke="black" points="147.5,-559 155.5,-562.6 151.5,-559 155.5,-559 155.5,-559 155.5,-559 151.5,-559 155.5,-555.4 147.5,-559 147.5,-559"/>
<ellipse fill="none" stroke="black" cx="144.3" cy="-559" rx="3.2" ry="3.2"/>
</g>
<!-- gevaarlijkestof -->
<g id="node3" class="node">
<title>gevaarlijkestof</title>
<g id="a_node3"><a xlink:href="../../tables/gevaarlijkestof.html" xlink:title="gevaarlijkestof" target="_top">
<polygon fill="#ffffff" stroke="transparent" points="389,-875 389,-933 533,-933 533,-875 389,-875"/>
<polygon fill="#f5f5f5" stroke="transparent" points="389,-911 389,-933 533,-933 533,-911 389,-911"/>
<polygon fill="none" stroke="black" points="389,-911 389,-933 533,-933 533,-911 389,-911"/>
<text text-anchor="start" x="394" y="-920.2" font-family="Helvetica,sans-Serif" font-weight="bold" font-size="11.00">gevaarlijkestof</text>
<text text-anchor="start" x="491" y="-919.2" font-family="Helvetica,sans-Serif" font-size="11.00">[table]</text>
<polygon fill="none" stroke="black" points="389,-893 389,-911 533,-911 533,-893 389,-893"/>
<text text-anchor="start" x="392" y="-899.2" font-family="Helvetica,sans-Serif" font-size="11.00">...</text>
<polygon fill="#ffffff" stroke="transparent" points="389,-875 389,-893 460,-893 460,-875 389,-875"/>
<polygon fill="none" stroke="black" points="389,-875 389,-893 460,-893 460,-875 389,-875"/>
<text text-anchor="start" x="392" y="-881.2" font-family="Helvetica,sans-Serif" font-size="11.00">&lt; 1</text>
<polygon fill="#ffffff" stroke="transparent" points="460,-875 460,-893 496,-893 496,-875 460,-875"/>
<polygon fill="none" stroke="black" points="460,-875 460,-893 496,-893 496,-875 460,-875"/>
<text text-anchor="start" x="485" y="-881.2" font-family="Helvetica,sans-Serif" font-size="11.00"> &#160;</text>
<polygon fill="#ffffff" stroke="transparent" points="496,-875 496,-893 533,-893 533,-875 496,-875"/>
<polygon fill="none" stroke="black" points="496,-875 496,-893 533,-893 533,-875 496,-875"/>
<text text-anchor="start" x="522" y="-881.2" font-family="Helvetica,sans-Serif" font-size="11.00"> &#160;</text>
</a>
</g>
</g>
<!-- gevaarlijkestof&#45;&gt;object -->
<g id="edge2" class="edge">
<title>gevaarlijkestof:w&#45;&gt;object:e</title>
<path fill="none" stroke="black" d="M373.42,-901.09C351.76,-898.03 341.03,-887.07 326,-865 295.57,-820.33 340.55,-625 286.5,-625"/>
<polygon fill="black" stroke="black" points="380.02,-901.5 387.77,-905.59 384.01,-901.75 388,-902 388,-902 388,-902 384.01,-901.75 388.23,-898.41 380.02,-901.5 380.02,-901.5"/>
<ellipse fill="none" stroke="black" cx="376.82" cy="-901.3" rx="3.2" ry="3.2"/>
</g>
<!-- label -->
<g id="node4" class="node">
<title>label</title>
<g id="a_node4"><a xlink:href="../../tables/label.html" xlink:title="label" target="_top">
<polygon fill="#ffffff" stroke="transparent" points="420,-796 420,-854 502,-854 502,-796 420,-796"/>
<polygon fill="#f5f5f5" stroke="transparent" points="420,-832 420,-854 502,-854 502,-832 420,-832"/>
<polygon fill="none" stroke="black" points="420,-832 420,-854 502,-854 502,-832 420,-832"/>
<text text-anchor="start" x="425" y="-841.2" font-family="Helvetica,sans-Serif" font-weight="bold" font-size="11.00">label</text>
<text text-anchor="start" x="460" y="-840.2" font-family="Helvetica,sans-Serif" font-size="11.00">[table]</text>
<polygon fill="none" stroke="black" points="420,-814 420,-832 502,-832 502,-814 420,-814"/>
<text text-anchor="start" x="423" y="-820.2" font-family="Helvetica,sans-Serif" font-size="11.00">...</text>
<polygon fill="#ffffff" stroke="transparent" points="420,-796 420,-814 460,-814 460,-796 420,-796"/>
<polygon fill="none" stroke="black" points="420,-796 420,-814 460,-814 460,-796 420,-796"/>
<text text-anchor="start" x="423" y="-802.2" font-family="Helvetica,sans-Serif" font-size="11.00">&lt; 2</text>
<polygon fill="#ffffff" stroke="transparent" points="460,-796 460,-814 481,-814 481,-796 460,-796"/>
<polygon fill="none" stroke="black" points="460,-796 460,-814 481,-814 481,-796 460,-796"/>
<text text-anchor="start" x="470" y="-802.2" font-family="Helvetica,sans-Serif" font-size="11.00"> &#160;</text>
<polygon fill="#ffffff" stroke="transparent" points="481,-796 481,-814 502,-814 502,-796 481,-796"/>
<polygon fill="none" stroke="black" points="481,-796 481,-814 502,-814 502,-796 481,-796"/>
<text text-anchor="start" x="491" y="-802.2" font-family="Helvetica,sans-Serif" font-size="11.00"> &#160;</text>
</a>
</g>
</g>
<!-- label&#45;&gt;object -->
<g id="edge3" class="edge">
<title>label:w&#45;&gt;object:e</title>
<path fill="none" stroke="black" d="M404.34,-822.81C369.85,-821.78 351.79,-815.62 326,-786 277.62,-730.43 360.18,-625 286.5,-625"/>
<polygon fill="black" stroke="black" points="411,-822.9 418.95,-826.6 415,-822.95 419,-823 419,-823 419,-823 415,-822.95 419.05,-819.4 411,-822.9 411,-822.9"/>
<ellipse fill="none" stroke="black" cx="407.8" cy="-822.86" rx="3.2" ry="3.2"/>
</g>
<!-- opstelplaats -->
<g id="node6" class="node">
<title>opstelplaats</title>
<g id="a_node6"><a xlink:href="../../tables/opstelplaats.html" xlink:title="opstelplaats" target="_top">
<polygon fill="#ffffff" stroke="transparent" points="334,-37 334,-301 588,-301 588,-37 334,-37"/>
<polygon fill="#f5f5f5" stroke="transparent" points="336,-277 336,-299 586,-299 586,-277 336,-277"/>
<polygon fill="none" stroke="black" points="336,-277 336,-299 586,-299 586,-277 336,-277"/>
<text text-anchor="start" x="341" y="-286.2" font-family="Helvetica,sans-Serif" font-weight="bold" font-size="11.00">opstelplaats</text>
<text text-anchor="start" x="544" y="-285.2" font-family="Helvetica,sans-Serif" font-size="11.00">[table]</text>
<polygon fill="none" stroke="black" points="336,-255 336,-277 450,-277 450,-255 336,-255"/>
<image xlink:href="../../images/primaryKeys.png" width="11px" height="12px" preserveAspectRatio="xMinYMin meet" x="341" y="-272"/>
<text text-anchor="start" x="356" y="-263.2" font-family="Helvetica,sans-Serif" font-size="11.00">uuid</text>
<polygon fill="none" stroke="black" points="450,-255 450,-277 586,-277 586,-255 450,-255"/>
<text text-anchor="start" x="453" y="-263.2" font-family="Helvetica,sans-Serif" font-size="11.00">uuid[2147483647]</text>
<polygon fill="#ffffff" stroke="transparent" points="336,-233 336,-255 450,-255 450,-233 336,-233"/>
<polygon fill="none" stroke="black" points="336,-233 336,-255 450,-255 450,-233 336,-233"/>
<text text-anchor="start" x="356" y="-241.2" font-family="Helvetica,sans-Serif" font-size="11.00">geom</text>
<polygon fill="none" stroke="black" points="450,-233 450,-255 586,-255 586,-233 450,-233"/>
<text text-anchor="start" x="453" y="-241.2" font-family="Helvetica,sans-Serif" font-size="11.00">geometry[2147483647]</text>
<polygon fill="none" stroke="black" points="336,-211 336,-233 450,-233 450,-211 336,-211"/>
<text text-anchor="start" x="356" y="-219.2" font-family="Helvetica,sans-Serif" font-size="11.00">datumtijd</text>
<polygon fill="none" stroke="black" points="450,-211 450,-233 586,-233 586,-211 450,-211"/>
<text text-anchor="start" x="453" y="-219.2" font-family="Helvetica,sans-Serif" font-size="11.00">timestamptz[35,6]</text>
<polygon fill="none" stroke="black" points="336,-189 336,-211 450,-211 450,-189 336,-189"/>
<text text-anchor="start" x="356" y="-197.2" font-family="Helvetica,sans-Serif" font-size="11.00">gebruiker</text>
<polygon fill="none" stroke="black" points="450,-189 450,-211 586,-211 586,-189 450,-189"/>
<text text-anchor="start" x="453" y="-197.2" font-family="Helvetica,sans-Serif" font-size="11.00">varchar[255]</text>
<polygon fill="none" stroke="black" points="336,-167 336,-189 450,-189 450,-167 336,-167"/>
<text text-anchor="start" x="356" y="-175.2" font-family="Helvetica,sans-Serif" font-size="11.00">label</text>
<polygon fill="none" stroke="black" points="450,-167 450,-189 586,-189 586,-167 450,-167"/>
<text text-anchor="start" x="453" y="-175.2" font-family="Helvetica,sans-Serif" font-size="11.00">text[2147483647]</text>
<polygon fill="none" stroke="black" points="336,-145 336,-167 450,-167 450,-145 336,-145"/>
<text text-anchor="start" x="356" y="-153.2" font-family="Helvetica,sans-Serif" font-size="11.00">rotatie</text>
<polygon fill="none" stroke="black" points="450,-145 450,-167 586,-167 586,-145 450,-145"/>
<text text-anchor="start" x="453" y="-153.2" font-family="Helvetica,sans-Serif" font-size="11.00">int4[10]</text>
<polygon fill="none" stroke="black" points="336,-123 336,-145 450,-145 450,-123 336,-123"/>
<text text-anchor="start" x="356" y="-131.2" font-family="Helvetica,sans-Serif" font-size="11.00">bijzonderheden</text>
<polygon fill="none" stroke="black" points="450,-123 450,-145 586,-145 586,-123 450,-123"/>
<text text-anchor="start" x="453" y="-131.2" font-family="Helvetica,sans-Serif" font-size="11.00">text[2147483647]</text>
<polygon fill="none" stroke="black" points="336,-101 336,-123 450,-123 450,-101 336,-101"/>
<text text-anchor="start" x="356" y="-109.2" font-family="Helvetica,sans-Serif" font-size="11.00">plusinfo</text>
<polygon fill="none" stroke="black" points="450,-101 450,-123 586,-123 586,-101 450,-101"/>
<text text-anchor="start" x="453" y="-109.2" font-family="Helvetica,sans-Serif" font-size="11.00">jsonb[2147483647]</text>
<polygon fill="#ffffff" stroke="transparent" points="336,-79 336,-101 450,-101 450,-79 336,-79"/>
<polygon fill="none" stroke="black" points="336,-79 336,-101 450,-101 450,-79 336,-79"/>
<image xlink:href="../../images/foreignKeys.png" width="11px" height="12px" preserveAspectRatio="xMinYMin meet" x="341" y="-96"/>
<text text-anchor="start" x="356" y="-87.2" font-family="Helvetica,sans-Serif" font-size="11.00">object_uuid</text>
<polygon fill="none" stroke="black" points="450,-79 450,-101 586,-101 586,-79 450,-79"/>
<text text-anchor="start" x="453" y="-87.2" font-family="Helvetica,sans-Serif" font-size="11.00">uuid[2147483647]</text>
<polygon fill="none" stroke="black" points="336,-57 336,-79 450,-79 450,-57 336,-57"/>
<image xlink:href="../../images/foreignKeys.png" width="11px" height="12px" preserveAspectRatio="xMinYMin meet" x="341" y="-74"/>
<text text-anchor="start" x="356" y="-65.2" font-family="Helvetica,sans-Serif" font-size="11.00">voertuig_id</text>
<polygon fill="none" stroke="black" points="450,-57 450,-79 586,-79 586,-57 450,-57"/>
<text text-anchor="start" x="453" y="-65.2" font-family="Helvetica,sans-Serif" font-size="11.00">int4[10]</text>
<polygon fill="#ffffff" stroke="transparent" points="336,-39 336,-57 399,-57 399,-39 336,-39"/>
<polygon fill="none" stroke="black" points="336,-39 336,-57 399,-57 399,-39 336,-39"/>
<text text-anchor="start" x="339" y="-45.2" font-family="Helvetica,sans-Serif" font-size="11.00">&lt; 2</text>
<polygon fill="#ffffff" stroke="transparent" points="399,-39 399,-57 450,-57 450,-39 399,-39"/>
<polygon fill="none" stroke="black" points="399,-39 399,-57 450,-57 450,-39 399,-39"/>
<text text-anchor="start" x="439" y="-45.2" font-family="Helvetica,sans-Serif" font-size="11.00"> &#160;</text>
<polygon fill="#ffffff" stroke="transparent" points="450,-39 450,-57 586,-57 586,-39 450,-39"/>
<polygon fill="none" stroke="black" points="450,-39 450,-57 586,-57 586,-39 450,-39"/>
<text text-anchor="start" x="563" y="-45.2" font-family="Helvetica,sans-Serif" font-size="11.00">0 &gt;</text>
<polygon fill="none" stroke="black" stroke-width="2" points="335,-38 335,-300 587,-300 587,-38 335,-38"/>
</a>
</g>
</g>
<!-- opstelplaats&#45;&gt;object -->
<g id="edge5" class="edge">
<title>opstelplaats:w&#45;&gt;object:e</title>
<path fill="none" stroke="black" d="M323.52,-98.84C285.35,-168.4 341.64,-625 286.5,-625"/>
<polygon fill="black" stroke="black" points="328.66,-94.88 337.2,-92.85 331.83,-92.44 335,-90 335,-90 335,-90 331.83,-92.44 332.8,-87.15 328.66,-94.88 328.66,-94.88"/>
<ellipse fill="none" stroke="black" cx="326.13" cy="-96.83" rx="3.2" ry="3.2"/>
</g>
<!-- roi.voertuig -->
<g id="node7" class="node">
<title>roi.voertuig</title>
<g id="a_node7"><a xlink:href="../../../roi/tables/voertuig.html" xlink:title="roi.voertuig" target="_top">
<polygon fill="#ffffff" stroke="transparent" points="158.5,-39 158.5,-97 282.5,-97 282.5,-39 158.5,-39"/>
<polygon fill="#f5f5f5" stroke="transparent" points="158.5,-75 158.5,-97 282.5,-97 282.5,-75 158.5,-75"/>
<polygon fill="none" stroke="black" points="158.5,-75 158.5,-97 282.5,-97 282.5,-75 158.5,-75"/>
<text text-anchor="start" x="163.5" y="-84.2" font-family="Helvetica,sans-Serif" font-weight="bold" font-size="11.00">roi.voertuig</text>
<text text-anchor="start" x="240.5" y="-83.2" font-family="Helvetica,sans-Serif" font-size="11.00">[table]</text>
<polygon fill="none" stroke="black" points="158.5,-57 158.5,-75 282.5,-75 282.5,-57 158.5,-57"/>
<text text-anchor="start" x="161.5" y="-63.2" font-family="Helvetica,sans-Serif" font-size="11.00">...</text>
<polygon fill="#ffffff" stroke="transparent" points="158.5,-39 158.5,-57 207.5,-57 207.5,-39 158.5,-39"/>
<polygon fill="none" stroke="black" points="158.5,-39 158.5,-57 207.5,-57 207.5,-39 158.5,-39"/>
<text text-anchor="start" x="161.5" y="-45.2" font-family="Helvetica,sans-Serif" font-size="11.00"> &#160;</text>
<polygon fill="#ffffff" stroke="transparent" points="207.5,-39 207.5,-57 238.5,-57 238.5,-39 207.5,-39"/>
<polygon fill="none" stroke="black" points="207.5,-39 207.5,-57 238.5,-57 238.5,-39 207.5,-39"/>
<text text-anchor="start" x="227.5" y="-45.2" font-family="Helvetica,sans-Serif" font-size="11.00"> &#160;</text>
<polygon fill="#ffffff" stroke="transparent" points="238.5,-39 238.5,-57 282.5,-57 282.5,-39 238.5,-39"/>
<polygon fill="none" stroke="black" points="238.5,-39 238.5,-57 282.5,-57 282.5,-39 238.5,-39"/>
<text text-anchor="start" x="259.5" y="-45.2" font-family="Helvetica,sans-Serif" font-size="11.00">1 &gt;</text>
</a>
</g>
</g>
<!-- opstelplaats&#45;&gt;roi.voertuig -->
<g id="edge6" class="edge">
<title>opstelplaats:w&#45;&gt;roi.voertuig:e</title>
<path fill="none" stroke="black" d="M320.57,-68C310.58,-68 300.39,-68 290.52,-68"/>
<polygon fill="black" stroke="black" points="327,-68 335,-71.6 331,-68 335,-68 335,-68 335,-68 331,-68 335,-64.4 327,-68 327,-68"/>
<ellipse fill="none" stroke="black" cx="323.8" cy="-68" rx="3.2" ry="3.2"/>
</g>
<!-- pand -->
<g id="node8" class="node">
<title>pand</title>
<g id="a_node8"><a xlink:href="../../tables/pand.html" xlink:title="pand" target="_top">
<polygon fill="#ffffff" stroke="transparent" points="420,-717 420,-775 502,-775 502,-717 420,-717"/>
<polygon fill="#f5f5f5" stroke="transparent" points="420,-753 420,-775 502,-775 502,-753 420,-753"/>
<polygon fill="none" stroke="black" points="420,-753 420,-775 502,-775 502,-753 420,-753"/>
<text text-anchor="start" x="425" y="-762.2" font-family="Helvetica,sans-Serif" font-weight="bold" font-size="11.00">pand</text>
<text text-anchor="start" x="460" y="-761.2" font-family="Helvetica,sans-Serif" font-size="11.00">[table]</text>
<polygon fill="none" stroke="black" points="420,-735 420,-753 502,-753 502,-735 420,-735"/>
<text text-anchor="start" x="423" y="-741.2" font-family="Helvetica,sans-Serif" font-size="11.00">...</text>
<polygon fill="#ffffff" stroke="transparent" points="420,-717 420,-735 460,-735 460,-717 420,-717"/>
<polygon fill="none" stroke="black" points="420,-717 420,-735 460,-735 460,-717 420,-717"/>
<text text-anchor="start" x="423" y="-723.2" font-family="Helvetica,sans-Serif" font-size="11.00">&lt; 1</text>
<polygon fill="#ffffff" stroke="transparent" points="460,-717 460,-735 481,-735 481,-717 460,-717"/>
<polygon fill="none" stroke="black" points="460,-717 460,-735 481,-735 481,-717 460,-717"/>
<text text-anchor="start" x="470" y="-723.2" font-family="Helvetica,sans-Serif" font-size="11.00"> &#160;</text>
<polygon fill="#ffffff" stroke="transparent" points="481,-717 481,-735 502,-735 502,-717 481,-717"/>
<polygon fill="none" stroke="black" points="481,-717 481,-735 502,-735 502,-717 481,-717"/>
<text text-anchor="start" x="491" y="-723.2" font-family="Helvetica,sans-Serif" font-size="11.00"> &#160;</text>
</a>
</g>
</g>
<!-- pand&#45;&gt;object -->
<g id="edge7" class="edge">
<title>pand:w&#45;&gt;object:e</title>
<path fill="none" stroke="black" d="M404.46,-743.7C370.54,-742.11 354.73,-733.78 326,-707 296.41,-679.42 326.95,-625 286.5,-625"/>
<polygon fill="black" stroke="black" points="411,-743.83 418.93,-747.6 415,-743.92 419,-744 419,-744 419,-744 415,-743.92 419.07,-740.4 411,-743.83 411,-743.83"/>
<ellipse fill="none" stroke="black" cx="407.8" cy="-743.77" rx="3.2" ry="3.2"/>
</g>
<!-- risico -->
<g id="node9" class="node">
<title>risico</title>
<g id="a_node9"><a xlink:href="../../tables/risico.html" xlink:title="risico" target="_top">
<polygon fill="#ffffff" stroke="transparent" points="418.5,-638 418.5,-696 503.5,-696 503.5,-638 418.5,-638"/>
<polygon fill="#f5f5f5" stroke="transparent" points="419,-674 419,-696 504,-696 504,-674 419,-674"/>
<polygon fill="none" stroke="black" points="419,-674 419,-696 504,-696 504,-674 419,-674"/>
<text text-anchor="start" x="424" y="-683.2" font-family="Helvetica,sans-Serif" font-weight="bold" font-size="11.00">risico</text>
<text text-anchor="start" x="462" y="-682.2" font-family="Helvetica,sans-Serif" font-size="11.00">[table]</text>
<polygon fill="none" stroke="black" points="419,-656 419,-674 504,-674 504,-656 419,-656"/>
<text text-anchor="start" x="422" y="-662.2" font-family="Helvetica,sans-Serif" font-size="11.00">...</text>
<polygon fill="#ffffff" stroke="transparent" points="419,-638 419,-656 460,-656 460,-638 419,-638"/>
<polygon fill="none" stroke="black" points="419,-638 419,-656 460,-656 460,-638 419,-638"/>
<text text-anchor="start" x="422" y="-644.2" font-family="Helvetica,sans-Serif" font-size="11.00">&lt; 1</text>
<polygon fill="#ffffff" stroke="transparent" points="460,-638 460,-656 482,-656 482,-638 460,-638"/>
<polygon fill="none" stroke="black" points="460,-638 460,-656 482,-656 482,-638 460,-638"/>
<text text-anchor="start" x="471" y="-644.2" font-family="Helvetica,sans-Serif" font-size="11.00"> &#160;</text>
<polygon fill="#ffffff" stroke="transparent" points="482,-638 482,-656 504,-656 504,-638 482,-638"/>
<polygon fill="none" stroke="black" points="482,-638 482,-656 504,-656 504,-638 482,-638"/>
<text text-anchor="start" x="493" y="-644.2" font-family="Helvetica,sans-Serif" font-size="11.00"> &#160;</text>
</a>
</g>
</g>
<!-- risico&#45;&gt;object -->
<g id="edge8" class="edge">
<title>risico:w&#45;&gt;object:e</title>
<path fill="none" stroke="black" d="M403.33,-664.16C354.93,-658.42 342.34,-625 286.5,-625"/>
<polygon fill="black" stroke="black" points="410.01,-664.55 417.8,-668.59 414.01,-664.77 418,-665 418,-665 418,-665 414.01,-664.77 418.2,-661.41 410.01,-664.55 410.01,-664.55"/>
<ellipse fill="none" stroke="black" cx="406.82" cy="-664.36" rx="3.2" ry="3.2"/>
</g>
<!-- scenario -->
<g id="node10" class="node">
<title>scenario</title>
<g id="a_node10"><a xlink:href="../../tables/scenario.html" xlink:title="scenario" target="_top">
<polygon fill="#ffffff" stroke="transparent" points="409,-559 409,-617 513,-617 513,-559 409,-559"/>
<polygon fill="#f5f5f5" stroke="transparent" points="409,-595 409,-617 513,-617 513,-595 409,-595"/>
<polygon fill="none" stroke="black" points="409,-595 409,-617 513,-617 513,-595 409,-595"/>
<text text-anchor="start" x="414" y="-604.2" font-family="Helvetica,sans-Serif" font-weight="bold" font-size="11.00">scenario</text>
<text text-anchor="start" x="471" y="-603.2" font-family="Helvetica,sans-Serif" font-size="11.00">[table]</text>
<polygon fill="none" stroke="black" points="409,-577 409,-595 513,-595 513,-577 409,-577"/>
<text text-anchor="start" x="412" y="-583.2" font-family="Helvetica,sans-Serif" font-size="11.00">...</text>
<polygon fill="#ffffff" stroke="transparent" points="409,-559 409,-577 460,-577 460,-559 409,-559"/>
<polygon fill="none" stroke="black" points="409,-559 409,-577 460,-577 460,-559 409,-559"/>
<text text-anchor="start" x="412" y="-565.2" font-family="Helvetica,sans-Serif" font-size="11.00">&lt; 2</text>
<polygon fill="#ffffff" stroke="transparent" points="460,-559 460,-577 486,-577 486,-559 460,-559"/>
<polygon fill="none" stroke="black" points="460,-559 460,-577 486,-577 486,-559 460,-559"/>
<text text-anchor="start" x="475" y="-565.2" font-family="Helvetica,sans-Serif" font-size="11.00"> &#160;</text>
<polygon fill="#ffffff" stroke="transparent" points="486,-559 486,-577 513,-577 513,-559 486,-559"/>
<polygon fill="none" stroke="black" points="486,-559 486,-577 513,-577 513,-559 486,-559"/>
<text text-anchor="start" x="502" y="-565.2" font-family="Helvetica,sans-Serif" font-size="11.00"> &#160;</text>
</a>
</g>
</g>
<!-- scenario&#45;&gt;object -->
<g id="edge9" class="edge">
<title>scenario:w&#45;&gt;object:e</title>
<path fill="none" stroke="black" d="M393.54,-586.93C349.39,-592.83 338.01,-625 286.5,-625"/>
<polygon fill="black" stroke="black" points="400.02,-586.51 408.23,-589.59 404.01,-586.26 408,-586 408,-586 408,-586 404.01,-586.26 407.77,-582.41 400.02,-586.51 400.02,-586.51"/>
<ellipse fill="none" stroke="black" cx="396.82" cy="-586.72" rx="3.2" ry="3.2"/>
</g>
<!-- scheiding -->
<g id="node11" class="node">
<title>scheiding</title>
<g id="a_node11"><a xlink:href="../../tables/scheiding.html" xlink:title="scheiding" target="_top">
<polygon fill="#ffffff" stroke="transparent" points="406,-480 406,-538 516,-538 516,-480 406,-480"/>
<polygon fill="#f5f5f5" stroke="transparent" points="406,-516 406,-538 516,-538 516,-516 406,-516"/>
<polygon fill="none" stroke="black" points="406,-516 406,-538 516,-538 516,-516 406,-516"/>
<text text-anchor="start" x="411" y="-525.2" font-family="Helvetica,sans-Serif" font-weight="bold" font-size="11.00">scheiding</text>
<text text-anchor="start" x="474" y="-524.2" font-family="Helvetica,sans-Serif" font-size="11.00">[table]</text>
<polygon fill="none" stroke="black" points="406,-498 406,-516 516,-516 516,-498 406,-498"/>
<text text-anchor="start" x="409" y="-504.2" font-family="Helvetica,sans-Serif" font-size="11.00">...</text>
<polygon fill="#ffffff" stroke="transparent" points="406,-480 406,-498 460,-498 460,-480 406,-480"/>
<polygon fill="none" stroke="black" points="406,-480 406,-498 460,-498 460,-480 406,-480"/>
<text text-anchor="start" x="409" y="-486.2" font-family="Helvetica,sans-Serif" font-size="11.00">&lt; 2</text>
<polygon fill="#ffffff" stroke="transparent" points="460,-480 460,-498 488,-498 488,-480 460,-480"/>
<polygon fill="none" stroke="black" points="460,-480 460,-498 488,-498 488,-480 460,-480"/>
<text text-anchor="start" x="477" y="-486.2" font-family="Helvetica,sans-Serif" font-size="11.00"> &#160;</text>
<polygon fill="#ffffff" stroke="transparent" points="488,-480 488,-498 516,-498 516,-480 488,-480"/>
<polygon fill="none" stroke="black" points="488,-480 488,-498 516,-498 516,-480 488,-480"/>
<text text-anchor="start" x="505" y="-486.2" font-family="Helvetica,sans-Serif" font-size="11.00"> &#160;</text>
</a>
</g>
</g>
<!-- scheiding&#45;&gt;object -->
<g id="edge10" class="edge">
<title>scheiding:w&#45;&gt;object:e</title>
<path fill="none" stroke="black" d="M390.56,-507.73C361.95,-510.91 350.27,-524.5 326,-549 299.21,-576.04 324.57,-625 286.5,-625"/>
<polygon fill="black" stroke="black" points="397.01,-507.4 405.18,-510.6 401.01,-507.2 405,-507 405,-507 405,-507 401.01,-507.2 404.82,-503.4 397.01,-507.4 397.01,-507.4"/>
<ellipse fill="none" stroke="black" cx="393.81" cy="-507.57" rx="3.2" ry="3.2"/>
</g>
<!-- sector -->
<g id="node12" class="node">
<title>sector</title>
<g id="a_node12"><a xlink:href="../../tables/sector.html" xlink:title="sector" target="_top">
<polygon fill="#ffffff" stroke="transparent" points="415.5,-401 415.5,-459 506.5,-459 506.5,-401 415.5,-401"/>
<polygon fill="#f5f5f5" stroke="transparent" points="416,-437 416,-459 507,-459 507,-437 416,-437"/>
<polygon fill="none" stroke="black" points="416,-437 416,-459 507,-459 507,-437 416,-437"/>
<text text-anchor="start" x="421" y="-446.2" font-family="Helvetica,sans-Serif" font-weight="bold" font-size="11.00">sector</text>
<text text-anchor="start" x="465" y="-445.2" font-family="Helvetica,sans-Serif" font-size="11.00">[table]</text>
<polygon fill="none" stroke="black" points="416,-419 416,-437 507,-437 507,-419 416,-419"/>
<text text-anchor="start" x="419" y="-425.2" font-family="Helvetica,sans-Serif" font-size="11.00">...</text>
<polygon fill="#ffffff" stroke="transparent" points="416,-401 416,-419 460,-419 460,-401 416,-401"/>
<polygon fill="none" stroke="black" points="416,-401 416,-419 460,-419 460,-401 416,-401"/>
<text text-anchor="start" x="419" y="-407.2" font-family="Helvetica,sans-Serif" font-size="11.00">&lt; 2</text>
<polygon fill="#ffffff" stroke="transparent" points="460,-401 460,-419 483,-419 483,-401 460,-401"/>
<polygon fill="none" stroke="black" points="460,-401 460,-419 483,-419 483,-401 460,-401"/>
<text text-anchor="start" x="472" y="-407.2" font-family="Helvetica,sans-Serif" font-size="11.00"> &#160;</text>
<polygon fill="#ffffff" stroke="transparent" points="483,-401 483,-419 507,-419 507,-401 483,-401"/>
<polygon fill="none" stroke="black" points="483,-401 483,-419 507,-419 507,-401 483,-401"/>
<text text-anchor="start" x="496" y="-407.2" font-family="Helvetica,sans-Serif" font-size="11.00"> &#160;</text>
</a>
</g>
</g>
<!-- sector&#45;&gt;object -->
<g id="edge11" class="edge">
<title>sector:w&#45;&gt;object:e</title>
<path fill="none" stroke="black" d="M400.2,-428.39C366.89,-430.37 350.46,-440.34 326,-470 280.76,-524.84 357.59,-625 286.5,-625"/>
<polygon fill="black" stroke="black" points="407,-428.21 415.1,-431.6 411,-428.11 415,-428 415,-428 415,-428 411,-428.11 414.9,-424.4 407,-428.21 407,-428.21"/>
<ellipse fill="none" stroke="black" cx="403.8" cy="-428.3" rx="3.2" ry="3.2"/>
</g>
<!-- voorziening -->
<g id="node13" class="node">
<title>voorziening</title>
<g id="a_node13"><a xlink:href="../../tables/voorziening.html" xlink:title="voorziening" target="_top">
<polygon fill="#ffffff" stroke="transparent" points="399,-322 399,-380 523,-380 523,-322 399,-322"/>
<polygon fill="#f5f5f5" stroke="transparent" points="399,-358 399,-380 523,-380 523,-358 399,-358"/>
<polygon fill="none" stroke="black" points="399,-358 399,-380 523,-380 523,-358 399,-358"/>
<text text-anchor="start" x="404" y="-367.2" font-family="Helvetica,sans-Serif" font-weight="bold" font-size="11.00">voorziening</text>
<text text-anchor="start" x="481" y="-366.2" font-family="Helvetica,sans-Serif" font-size="11.00">[table]</text>
<polygon fill="none" stroke="black" points="399,-340 399,-358 523,-358 523,-340 399,-340"/>
<text text-anchor="start" x="402" y="-346.2" font-family="Helvetica,sans-Serif" font-size="11.00">...</text>
<polygon fill="#ffffff" stroke="transparent" points="399,-322 399,-340 460,-340 460,-322 399,-322"/>
<polygon fill="none" stroke="black" points="399,-322 399,-340 460,-340 460,-322 399,-322"/>
<text text-anchor="start" x="402" y="-328.2" font-family="Helvetica,sans-Serif" font-size="11.00">&lt; 2</text>
<polygon fill="#ffffff" stroke="transparent" points="460,-322 460,-340 491,-340 491,-322 460,-322"/>
<polygon fill="none" stroke="black" points="460,-322 460,-340 491,-340 491,-322 460,-322"/>
<text text-anchor="start" x="480" y="-328.2" font-family="Helvetica,sans-Serif" font-size="11.00"> &#160;</text>
<polygon fill="#ffffff" stroke="transparent" points="491,-322 491,-340 523,-340 523,-322 491,-322"/>
<polygon fill="none" stroke="black" points="491,-322 491,-340 523,-340 523,-322 491,-322"/>
<text text-anchor="start" x="512" y="-328.2" font-family="Helvetica,sans-Serif" font-size="11.00"> &#160;</text>
</a>
</g>
</g>
<!-- voorziening&#45;&gt;object -->
<g id="edge12" class="edge">
<title>voorziening:w&#45;&gt;object:e</title>
<path fill="none" stroke="black" d="M383.3,-349.74C356.79,-352.73 344.02,-364.93 326,-391 296.01,-434.38 339.24,-625 286.5,-625"/>
<polygon fill="black" stroke="black" points="390.01,-349.4 398.18,-352.6 394.01,-349.2 398,-349 398,-349 398,-349 394.01,-349.2 397.82,-345.4 390.01,-349.4 390.01,-349.4"/>
<ellipse fill="none" stroke="black" cx="386.81" cy="-349.57" rx="3.2" ry="3.2"/>
</g>
</g>
</svg>
