<?xml version="1.0" encoding="UTF-8" standalone="no"?>
<!DOCTYPE svg PUBLIC "-//W3C//DTD SVG 1.1//EN"
 "http://www.w3.org/Graphics/SVG/1.1/DTD/svg11.dtd">
<!-- Generated by graphviz version 2.40.1 (20161225.0304)
 -->
<!-- Title: twoDegreesRelationshipsDiagram Pages: 1 -->
<svg width="558pt" height="1055pt"
 viewBox="0.00 0.00 558.00 1054.70" xmlns="http://www.w3.org/2000/svg" xmlns:xlink="http://www.w3.org/1999/xlink">
<g id="graph0" class="graph" transform="scale(1 1) rotate(0) translate(4 1050.7)">
<title>twoDegreesRelationshipsDiagram</title>
<polygon fill="#ffffff" stroke="transparent" points="-4,4 -4,-1050.7 554,-1050.7 554,4 -4,4"/>
<text text-anchor="middle" x="72.4936" y="-7.3" font-family="Helvetica,sans-Serif" font-size="11.00" fill="#000000">Generated by SchemaSpy</text>
<!-- bereikbaarheid -->
<g id="node1" class="node">
<title>bereikbaarheid</title>
<g id="a_node1"><a xlink:href="../../tables/bereikbaarheid.html" xlink:title="bereikbaarheid" target="_top">
<polygon fill="#ffffff" stroke="transparent" points="364,-981.7 364,-1042.7 488,-1042.7 488,-981.7 364,-981.7"/>
<polygon fill="#f5f5f5" stroke="transparent" points="364,-1019.2 364,-1042.2 488,-1042.2 488,-1019.2 364,-1019.2"/>
<polygon fill="none" stroke="#000000" points="364,-1019.2 364,-1042.2 488,-1042.2 488,-1019.2 364,-1019.2"/>
<text text-anchor="start" x="369" y="-1027.8" font-family="Helvetica,sans-Serif" font-weight="bold" font-size="11.00" fill="#000000">bereikbaarheid</text>
<text text-anchor="start" x="453.5219" y="-1027.3" font-family="Helvetica,sans-Serif" font-size="11.00" fill="#000000">[table]</text>
<polygon fill="none" stroke="#000000" points="364,-1000.2 364,-1019.2 488,-1019.2 488,-1000.2 364,-1000.2"/>
<text text-anchor="start" x="367" y="-1006.3" font-family="Helvetica,sans-Serif" font-size="11.00" fill="#000000">...</text>
<polygon fill="#ffffff" stroke="transparent" points="364,-981.2 364,-1000.2 424,-1000.2 424,-981.2 364,-981.2"/>
<polygon fill="none" stroke="#000000" points="364,-981.2 364,-1000.2 424,-1000.2 424,-981.2 364,-981.2"/>
<text text-anchor="start" x="367" y="-987.3" font-family="Helvetica,sans-Serif" font-size="11.00" fill="#000000">&lt; 2</text>
<polygon fill="#ffffff" stroke="transparent" points="424,-981.2 424,-1000.2 456,-1000.2 456,-981.2 424,-981.2"/>
<polygon fill="none" stroke="#000000" points="424,-981.2 424,-1000.2 456,-1000.2 456,-981.2 424,-981.2"/>
<text text-anchor="start" x="446.8862" y="-987.3" font-family="Helvetica,sans-Serif" font-size="11.00" fill="#000000"> &#160;</text>
<polygon fill="#ffffff" stroke="transparent" points="456,-981.2 456,-1000.2 488,-1000.2 488,-981.2 456,-981.2"/>
<polygon fill="none" stroke="#000000" points="456,-981.2 456,-1000.2 488,-1000.2 488,-981.2 456,-981.2"/>
<text text-anchor="start" x="478.8862" y="-987.3" font-family="Helvetica,sans-Serif" font-size="11.00" fill="#000000"> &#160;</text>
</a>
</g>
</g>
<!-- object -->
<g id="node2" class="node">
<title>object</title>
<g id="a_node2"><a xlink:href="../../tables/object.html" xlink:title="object" target="_top">
<polygon fill="#ffffff" stroke="transparent" points="138,-525.7 138,-674.7 261,-674.7 261,-525.7 138,-525.7"/>
<polygon fill="#f5f5f5" stroke="transparent" points="138.5,-651.2 138.5,-674.2 261.5,-674.2 261.5,-651.2 138.5,-651.2"/>
<polygon fill="none" stroke="#000000" points="138.5,-651.2 138.5,-674.2 261.5,-674.2 261.5,-651.2 138.5,-651.2"/>
<text text-anchor="start" x="143.5" y="-659.8" font-family="Helvetica,sans-Serif" font-weight="bold" font-size="11.00" fill="#000000">object</text>
<text text-anchor="start" x="226.5437" y="-659.3" font-family="Helvetica,sans-Serif" font-size="11.00" fill="#000000">[table]</text>
<polygon fill="none" stroke="#000000" points="138.5,-629.2 138.5,-651.2 261.5,-651.2 261.5,-629.2 138.5,-629.2"/>
<image xlink:href="../../images/primaryKeys.png" width="11px" height="12px" preserveAspectRatio="xMinYMin meet" x="143.5" y="-646.2"/>
<text text-anchor="start" x="158.5" y="-636.3" font-family="Helvetica,sans-Serif" font-size="11.00" fill="#000000">uuid</text>
<polygon fill="#ffffff" stroke="transparent" points="138.5,-607.2 138.5,-629.2 261.5,-629.2 261.5,-607.2 138.5,-607.2"/>
<polygon fill="none" stroke="#000000" points="138.5,-607.2 138.5,-629.2 261.5,-629.2 261.5,-607.2 138.5,-607.2"/>
<text text-anchor="start" x="158.5" y="-614.3" font-family="Helvetica,sans-Serif" font-size="11.00" fill="#000000">geom</text>
<polygon fill="#ffffff" stroke="transparent" points="138.5,-585.2 138.5,-607.2 261.5,-607.2 261.5,-585.2 138.5,-585.2"/>
<polygon fill="none" stroke="#000000" points="138.5,-585.2 138.5,-607.2 261.5,-607.2 261.5,-585.2 138.5,-585.2"/>
<text text-anchor="start" x="158.5" y="-592.3" font-family="Helvetica,sans-Serif" font-size="11.00" fill="#000000">revisie_frequentie</text>
<polygon fill="#ffffff" stroke="transparent" points="138.5,-563.2 138.5,-585.2 261.5,-585.2 261.5,-563.2 138.5,-563.2"/>
<polygon fill="none" stroke="#000000" points="138.5,-563.2 138.5,-585.2 261.5,-585.2 261.5,-563.2 138.5,-563.2"/>
<image xlink:href="../../images/foreignKeys.png" width="11px" height="12px" preserveAspectRatio="xMinYMin meet" x="143.5" y="-580.2"/>
<text text-anchor="start" x="158.5" y="-570.3" font-family="Helvetica,sans-Serif" font-size="11.00" fill="#000000">fase_id</text>
<polygon fill="none" stroke="#000000" points="138.5,-544.2 138.5,-563.2 261.5,-563.2 261.5,-544.2 138.5,-544.2"/>
<text text-anchor="start" x="141.5" y="-550.3" font-family="Helvetica,sans-Serif" font-size="11.00" fill="#000000">...</text>
<polygon fill="#ffffff" stroke="transparent" points="138.5,-525.2 138.5,-544.2 190.5,-544.2 190.5,-525.2 138.5,-525.2"/>
<polygon fill="none" stroke="#000000" points="138.5,-525.2 138.5,-544.2 190.5,-544.2 190.5,-525.2 138.5,-525.2"/>
<text text-anchor="start" x="141.5" y="-531.3" font-family="Helvetica,sans-Serif" font-size="11.00" fill="#000000">&lt; 1</text>
<polygon fill="#ffffff" stroke="transparent" points="190.5,-525.2 190.5,-544.2 218.5,-544.2 218.5,-525.2 190.5,-525.2"/>
<polygon fill="none" stroke="#000000" points="190.5,-525.2 190.5,-544.2 218.5,-544.2 218.5,-525.2 190.5,-525.2"/>
<text text-anchor="start" x="209.3862" y="-531.3" font-family="Helvetica,sans-Serif" font-size="11.00" fill="#000000"> &#160;</text>
<polygon fill="#ffffff" stroke="transparent" points="218.5,-525.2 218.5,-544.2 261.5,-544.2 261.5,-525.2 218.5,-525.2"/>
<polygon fill="none" stroke="#000000" points="218.5,-525.2 218.5,-544.2 261.5,-544.2 261.5,-525.2 218.5,-525.2"/>
<text text-anchor="start" x="236.7904" y="-531.3" font-family="Helvetica,sans-Serif" font-size="11.00" fill="#000000">10 &gt;</text>
</a>
</g>
</g>
<!-- bereikbaarheid&#45;&gt;object -->
<g id="edge1" class="edge">
<title>bereikbaarheid:w&#45;&gt;object:e</title>
<path fill="none" stroke="#000000" d="M349.605,-1008.3022C327.5344,-1005.211 316.6099,-993.926 302,-971.2 261.927,-908.8656 335.6041,-640.2 261.5,-640.2"/>
<polygon fill="#000000" stroke="#000000" points="356.0155,-1008.702 363.7759,-1012.793 360.0078,-1008.951 364,-1009.2 364,-1009.2 364,-1009.2 360.0078,-1008.951 364.2241,-1005.607 356.0155,-1008.702 356.0155,-1008.702"/>
<ellipse fill="none" stroke="#000000" cx="352.8217" cy="-1008.5028" rx="3.2" ry="3.2"/>
</g>
<!-- roi.fase -->
<g id="node5" class="node">
<title>roi.fase</title>
<g id="a_node5"><a xlink:href="../../../roi/tables/fase.html" xlink:title="roi.fase" target="_top">
<polygon fill="#ffffff" stroke="transparent" points="8,-546.7 8,-607.7 89,-607.7 89,-546.7 8,-546.7"/>
<polygon fill="#f5f5f5" stroke="transparent" points="8.5,-584.2 8.5,-607.2 89.5,-607.2 89.5,-584.2 8.5,-584.2"/>
<polygon fill="none" stroke="#000000" points="8.5,-584.2 8.5,-607.2 89.5,-607.2 89.5,-584.2 8.5,-584.2"/>
<text text-anchor="start" x="13.5" y="-592.8" font-family="Helvetica,sans-Serif" font-weight="bold" font-size="11.00" fill="#000000">roi.fase</text>
<text text-anchor="start" x="55.0219" y="-592.3" font-family="Helvetica,sans-Serif" font-size="11.00" fill="#000000">[table]</text>
<polygon fill="none" stroke="#000000" points="8.5,-565.2 8.5,-584.2 89.5,-584.2 89.5,-565.2 8.5,-565.2"/>
<text text-anchor="start" x="11.5" y="-571.3" font-family="Helvetica,sans-Serif" font-size="11.00" fill="#000000">...</text>
<polygon fill="#ffffff" stroke="transparent" points="8.5,-546.2 8.5,-565.2 38.5,-565.2 38.5,-546.2 8.5,-546.2"/>
<polygon fill="none" stroke="#000000" points="8.5,-546.2 8.5,-565.2 38.5,-565.2 38.5,-546.2 8.5,-546.2"/>
<text text-anchor="start" x="11.5" y="-552.3" font-family="Helvetica,sans-Serif" font-size="11.00" fill="#000000"> &#160;</text>
<polygon fill="#ffffff" stroke="transparent" points="38.5,-546.2 38.5,-565.2 59.5,-565.2 59.5,-546.2 38.5,-546.2"/>
<polygon fill="none" stroke="#000000" points="38.5,-546.2 38.5,-565.2 59.5,-565.2 59.5,-546.2 38.5,-546.2"/>
<text text-anchor="start" x="50.3862" y="-552.3" font-family="Helvetica,sans-Serif" font-size="11.00" fill="#000000"> &#160;</text>
<polygon fill="#ffffff" stroke="transparent" points="59.5,-546.2 59.5,-565.2 89.5,-565.2 89.5,-546.2 59.5,-546.2"/>
<polygon fill="none" stroke="#000000" points="59.5,-546.2 59.5,-565.2 89.5,-565.2 89.5,-546.2 59.5,-546.2"/>
<text text-anchor="start" x="70.9053" y="-552.3" font-family="Helvetica,sans-Serif" font-size="11.00" fill="#000000">1 &gt;</text>
</a>
</g>
</g>
<!-- object&#45;&gt;roi.fase -->
<g id="edge4" class="edge">
<title>object:w&#45;&gt;roi.fase:e</title>
<path fill="none" stroke="#000000" d="M123.9909,-574.2C112.6774,-574.2 105.4931,-574.2 89.5,-574.2"/>
<polygon fill="#000000" stroke="#000000" points="130.5,-574.2001 138.5,-577.8 134.5,-574.2 138.5,-574.2 138.5,-574.2 138.5,-574.2 134.5,-574.2 138.5,-570.6 130.5,-574.2001 130.5,-574.2001"/>
<ellipse fill="none" stroke="#000000" cx="127.3" cy="-574.2001" rx="3.2" ry="3.2"/>
</g>
<!-- gevaarlijkestof -->
<g id="node3" class="node">
<title>gevaarlijkestof</title>
<g id="a_node3"><a xlink:href="../../tables/gevaarlijkestof.html" xlink:title="gevaarlijkestof" target="_top">
<polygon fill="#ffffff" stroke="transparent" points="364.5,-899.7 364.5,-960.7 487.5,-960.7 487.5,-899.7 364.5,-899.7"/>
<polygon fill="#f5f5f5" stroke="transparent" points="365,-937.2 365,-960.2 488,-960.2 488,-937.2 365,-937.2"/>
<polygon fill="none" stroke="#000000" points="365,-937.2 365,-960.2 488,-960.2 488,-937.2 365,-937.2"/>
<text text-anchor="start" x="370" y="-945.8" font-family="Helvetica,sans-Serif" font-weight="bold" font-size="11.00" fill="#000000">gevaarlijkestof</text>
<text text-anchor="start" x="453.5219" y="-945.3" font-family="Helvetica,sans-Serif" font-size="11.00" fill="#000000">[table]</text>
<polygon fill="none" stroke="#000000" points="365,-918.2 365,-937.2 488,-937.2 488,-918.2 365,-918.2"/>
<text text-anchor="start" x="368" y="-924.3" font-family="Helvetica,sans-Serif" font-size="11.00" fill="#000000">...</text>
<polygon fill="#ffffff" stroke="transparent" points="365,-899.2 365,-918.2 425,-918.2 425,-899.2 365,-899.2"/>
<polygon fill="none" stroke="#000000" points="365,-899.2 365,-918.2 425,-918.2 425,-899.2 365,-899.2"/>
<text text-anchor="start" x="368" y="-905.3" font-family="Helvetica,sans-Serif" font-size="11.00" fill="#000000">&lt; 1</text>
<polygon fill="#ffffff" stroke="transparent" points="425,-899.2 425,-918.2 456,-918.2 456,-899.2 425,-899.2"/>
<polygon fill="none" stroke="#000000" points="425,-899.2 425,-918.2 456,-918.2 456,-899.2 425,-899.2"/>
<text text-anchor="start" x="446.8862" y="-905.3" font-family="Helvetica,sans-Serif" font-size="11.00" fill="#000000"> &#160;</text>
<polygon fill="#ffffff" stroke="transparent" points="456,-899.2 456,-918.2 488,-918.2 488,-899.2 456,-899.2"/>
<polygon fill="none" stroke="#000000" points="456,-899.2 456,-918.2 488,-918.2 488,-899.2 456,-899.2"/>
<text text-anchor="start" x="478.8862" y="-905.3" font-family="Helvetica,sans-Serif" font-size="11.00" fill="#000000"> &#160;</text>
</a>
</g>
</g>
<!-- gevaarlijkestof&#45;&gt;object -->
<g id="edge2" class="edge">
<title>gevaarlijkestof:w&#45;&gt;object:e</title>
<path fill="none" stroke="#000000" d="M350.4593,-926.2955C328.1986,-923.1836 317.3131,-911.8425 302,-889.2 270.5942,-842.7624 317.5605,-640.2 261.5,-640.2"/>
<polygon fill="#000000" stroke="#000000" points="357.0154,-926.7033 364.7765,-930.7931 361.0077,-926.9516 365,-927.2 365,-927.2 365,-927.2 361.0077,-926.9516 365.2235,-923.6069 357.0154,-926.7033 357.0154,-926.7033"/>
<ellipse fill="none" stroke="#000000" cx="353.8216" cy="-926.5046" rx="3.2" ry="3.2"/>
</g>
<!-- label -->
<g id="node4" class="node">
<title>label</title>
<g id="a_node4"><a xlink:href="../../tables/label.html" xlink:title="label" target="_top">
<polygon fill="#ffffff" stroke="transparent" points="393,-817.7 393,-878.7 459,-878.7 459,-817.7 393,-817.7"/>
<polygon fill="#f5f5f5" stroke="transparent" points="393,-855.2 393,-878.2 459,-878.2 459,-855.2 393,-855.2"/>
<polygon fill="none" stroke="#000000" points="393,-855.2 393,-878.2 459,-878.2 459,-855.2 393,-855.2"/>
<text text-anchor="start" x="397.8868" y="-863.8" font-family="Helvetica,sans-Serif" font-weight="bold" font-size="11.00" fill="#000000">label</text>
<text text-anchor="start" x="424.5219" y="-863.3" font-family="Helvetica,sans-Serif" font-size="11.00" fill="#000000">[table]</text>
<polygon fill="none" stroke="#000000" points="393,-836.2 393,-855.2 459,-855.2 459,-836.2 393,-836.2"/>
<text text-anchor="start" x="396" y="-842.3" font-family="Helvetica,sans-Serif" font-size="11.00" fill="#000000">...</text>
<polygon fill="#ffffff" stroke="transparent" points="393,-817.2 393,-836.2 424,-836.2 424,-817.2 393,-817.2"/>
<polygon fill="none" stroke="#000000" points="393,-817.2 393,-836.2 424,-836.2 424,-817.2 393,-817.2"/>
<text text-anchor="start" x="396" y="-823.3" font-family="Helvetica,sans-Serif" font-size="11.00" fill="#000000">&lt; 2</text>
<polygon fill="#ffffff" stroke="transparent" points="424,-817.2 424,-836.2 441,-836.2 441,-817.2 424,-817.2"/>
<polygon fill="none" stroke="#000000" points="424,-817.2 424,-836.2 441,-836.2 441,-817.2 424,-817.2"/>
<text text-anchor="start" x="431.8862" y="-823.3" font-family="Helvetica,sans-Serif" font-size="11.00" fill="#000000"> &#160;</text>
<polygon fill="#ffffff" stroke="transparent" points="441,-817.2 441,-836.2 459,-836.2 459,-817.2 441,-817.2"/>
<polygon fill="none" stroke="#000000" points="441,-817.2 441,-836.2 459,-836.2 459,-817.2 441,-817.2"/>
<text text-anchor="start" x="449.8862" y="-823.3" font-family="Helvetica,sans-Serif" font-size="11.00" fill="#000000"> &#160;</text>
</a>
</g>
</g>
<!-- label&#45;&gt;object -->
<g id="edge3" class="edge">
<title>label:w&#45;&gt;object:e</title>
<path fill="none" stroke="#000000" d="M378.5699,-844.9692C344.6507,-843.7131 327.1206,-836.6294 302,-807.2 252.4158,-749.1109 337.8737,-640.2 261.5,-640.2"/>
<polygon fill="#000000" stroke="#000000" points="385.001,-845.072 392.9424,-848.7995 389.0005,-845.136 393,-845.2 393,-845.2 393,-845.2 389.0005,-845.136 393.0576,-841.6005 385.001,-845.072 385.001,-845.072"/>
<ellipse fill="none" stroke="#000000" cx="381.8014" cy="-845.0208" rx="3.2" ry="3.2"/>
</g>
<!-- opstelplaats -->
<g id="node6" class="node">
<title>opstelplaats</title>
<g id="a_node6"><a xlink:href="../../tables/opstelplaats.html" xlink:title="opstelplaats" target="_top">
<polygon fill="#ffffff" stroke="transparent" points="310,-38.2 310,-304.2 542,-304.2 542,-38.2 310,-38.2"/>
<polygon fill="#f5f5f5" stroke="transparent" points="312,-279.2 312,-302.2 540,-302.2 540,-279.2 312,-279.2"/>
<polygon fill="none" stroke="#000000" points="312,-279.2 312,-302.2 540,-302.2 540,-279.2 312,-279.2"/>
<text text-anchor="start" x="317" y="-287.8" font-family="Helvetica,sans-Serif" font-weight="bold" font-size="11.00" fill="#000000">opstelplaats</text>
<text text-anchor="start" x="505.0437" y="-287.3" font-family="Helvetica,sans-Serif" font-size="11.00" fill="#000000">[table]</text>
<polygon fill="none" stroke="#000000" points="312,-257.2 312,-279.2 421,-279.2 421,-257.2 312,-257.2"/>
<image xlink:href="../../images/primaryKeys.png" width="11px" height="12px" preserveAspectRatio="xMinYMin meet" x="317" y="-274.2"/>
<text text-anchor="start" x="332" y="-264.3" font-family="Helvetica,sans-Serif" font-size="11.00" fill="#000000">uuid</text>
<polygon fill="none" stroke="#000000" points="421,-257.2 421,-279.2 540,-279.2 540,-257.2 421,-257.2"/>
<text text-anchor="start" x="424" y="-264.9" font-family="Helvetica,sans-Serif" font-size="11.00" fill="#000000">uuid[2147483647]</text>
<polygon fill="#ffffff" stroke="transparent" points="312,-235.2 312,-257.2 421,-257.2 421,-235.2 312,-235.2"/>
<polygon fill="none" stroke="#000000" points="312,-235.2 312,-257.2 421,-257.2 421,-235.2 312,-235.2"/>
<text text-anchor="start" x="332" y="-242.3" font-family="Helvetica,sans-Serif" font-size="11.00" fill="#000000">geom</text>
<polygon fill="none" stroke="#000000" points="421,-235.2 421,-257.2 540,-257.2 540,-235.2 421,-235.2"/>
<text text-anchor="start" x="423.9485" y="-242.9" font-family="Helvetica,sans-Serif" font-size="11.00" fill="#000000">geometry[2147483647]</text>
<polygon fill="none" stroke="#000000" points="312,-213.2 312,-235.2 421,-235.2 421,-213.2 312,-213.2"/>
<text text-anchor="start" x="332" y="-220.3" font-family="Helvetica,sans-Serif" font-size="11.00" fill="#000000">datumtijd</text>
<polygon fill="none" stroke="#000000" points="421,-213.2 421,-235.2 540,-235.2 540,-213.2 421,-213.2"/>
<text text-anchor="start" x="424" y="-220.9" font-family="Helvetica,sans-Serif" font-size="11.00" fill="#000000">timestamptz[35,6]</text>
<polygon fill="none" stroke="#000000" points="312,-191.2 312,-213.2 421,-213.2 421,-191.2 312,-191.2"/>
<text text-anchor="start" x="332" y="-198.3" font-family="Helvetica,sans-Serif" font-size="11.00" fill="#000000">gebruiker</text>
<polygon fill="none" stroke="#000000" points="421,-191.2 421,-213.2 540,-213.2 540,-191.2 421,-191.2"/>
<text text-anchor="start" x="424" y="-198.9" font-family="Helvetica,sans-Serif" font-size="11.00" fill="#000000">varchar[255]</text>
<polygon fill="none" stroke="#000000" points="312,-169.2 312,-191.2 421,-191.2 421,-169.2 312,-169.2"/>
<text text-anchor="start" x="332" y="-176.3" font-family="Helvetica,sans-Serif" font-size="11.00" fill="#000000">label</text>
<polygon fill="none" stroke="#000000" points="421,-169.2 421,-191.2 540,-191.2 540,-169.2 421,-169.2"/>
<text text-anchor="start" x="424" y="-176.9" font-family="Helvetica,sans-Serif" font-size="11.00" fill="#000000">text[2147483647]</text>
<polygon fill="none" stroke="#000000" points="312,-147.2 312,-169.2 421,-169.2 421,-147.2 312,-147.2"/>
<text text-anchor="start" x="332" y="-154.3" font-family="Helvetica,sans-Serif" font-size="11.00" fill="#000000">rotatie</text>
<polygon fill="none" stroke="#000000" points="421,-147.2 421,-169.2 540,-169.2 540,-147.2 421,-147.2"/>
<text text-anchor="start" x="424" y="-154.9" font-family="Helvetica,sans-Serif" font-size="11.00" fill="#000000">int4[10]</text>
<polygon fill="none" stroke="#000000" points="312,-125.2 312,-147.2 421,-147.2 421,-125.2 312,-125.2"/>
<text text-anchor="start" x="332" y="-132.3" font-family="Helvetica,sans-Serif" font-size="11.00" fill="#000000">bijzonderheden</text>
<polygon fill="none" stroke="#000000" points="421,-125.2 421,-147.2 540,-147.2 540,-125.2 421,-125.2"/>
<text text-anchor="start" x="424" y="-132.9" font-family="Helvetica,sans-Serif" font-size="11.00" fill="#000000">text[2147483647]</text>
<polygon fill="none" stroke="#000000" points="312,-103.2 312,-125.2 421,-125.2 421,-103.2 312,-103.2"/>
<text text-anchor="start" x="332" y="-110.3" font-family="Helvetica,sans-Serif" font-size="11.00" fill="#000000">plusinfo</text>
<polygon fill="none" stroke="#000000" points="421,-103.2 421,-125.2 540,-125.2 540,-103.2 421,-103.2"/>
<text text-anchor="start" x="424" y="-110.9" font-family="Helvetica,sans-Serif" font-size="11.00" fill="#000000">jsonb[2147483647]</text>
<polygon fill="#ffffff" stroke="transparent" points="312,-81.2 312,-103.2 421,-103.2 421,-81.2 312,-81.2"/>
<polygon fill="none" stroke="#000000" points="312,-81.2 312,-103.2 421,-103.2 421,-81.2 312,-81.2"/>
<image xlink:href="../../images/foreignKeys.png" width="11px" height="12px" preserveAspectRatio="xMinYMin meet" x="317" y="-98.2"/>
<text text-anchor="start" x="332" y="-88.3" font-family="Helvetica,sans-Serif" font-size="11.00" fill="#000000">object_uuid</text>
<polygon fill="none" stroke="#000000" points="421,-81.2 421,-103.2 540,-103.2 540,-81.2 421,-81.2"/>
<text text-anchor="start" x="424" y="-88.9" font-family="Helvetica,sans-Serif" font-size="11.00" fill="#000000">uuid[2147483647]</text>
<polygon fill="#ffffff" stroke="transparent" points="312,-59.2 312,-81.2 421,-81.2 421,-59.2 312,-59.2"/>
<polygon fill="none" stroke="#000000" points="312,-59.2 312,-81.2 421,-81.2 421,-59.2 312,-59.2"/>
<image xlink:href="../../images/foreignKeys.png" width="11px" height="12px" preserveAspectRatio="xMinYMin meet" x="317" y="-76.2"/>
<text text-anchor="start" x="332" y="-66.3" font-family="Helvetica,sans-Serif" font-size="11.00" fill="#000000">voertuig_id</text>
<polygon fill="none" stroke="#000000" points="421,-59.2 421,-81.2 540,-81.2 540,-59.2 421,-59.2"/>
<text text-anchor="start" x="424" y="-66.9" font-family="Helvetica,sans-Serif" font-size="11.00" fill="#000000">int4[10]</text>
<polygon fill="#ffffff" stroke="transparent" points="312,-40.2 312,-59.2 371,-59.2 371,-40.2 312,-40.2"/>
<polygon fill="none" stroke="#000000" points="312,-40.2 312,-59.2 371,-59.2 371,-40.2 312,-40.2"/>
<text text-anchor="start" x="315" y="-46.3" font-family="Helvetica,sans-Serif" font-size="11.00" fill="#000000">&lt; 2</text>
<polygon fill="#ffffff" stroke="transparent" points="371,-40.2 371,-59.2 421,-59.2 421,-40.2 371,-40.2"/>
<polygon fill="none" stroke="#000000" points="371,-40.2 371,-59.2 421,-59.2 421,-40.2 371,-40.2"/>
<text text-anchor="start" x="411.8862" y="-46.3" font-family="Helvetica,sans-Serif" font-size="11.00" fill="#000000"> &#160;</text>
<polygon fill="#ffffff" stroke="transparent" points="421,-40.2 421,-59.2 540,-59.2 540,-40.2 421,-40.2"/>
<polygon fill="none" stroke="#000000" points="421,-40.2 421,-59.2 540,-59.2 540,-40.2 421,-40.2"/>
<text text-anchor="start" x="521.4053" y="-46.3" font-family="Helvetica,sans-Serif" font-size="11.00" fill="#000000">0 &gt;</text>
<polygon fill="none" stroke="#000000" stroke-width="2" points="311,-39.2 311,-303.2 541,-303.2 541,-39.2 311,-39.2"/>
</a>
</g>
</g>
<!-- opstelplaats&#45;&gt;object -->
<g id="edge5" class="edge">
<title>opstelplaats:w&#45;&gt;object:e</title>
<path fill="none" stroke="#000000" d="M300.2235,-101.2544C261.0191,-172.5048 317.9892,-640.2 261.5,-640.2"/>
<polygon fill="#000000" stroke="#000000" points="305.6578,-97.0762 314.1943,-95.054 308.8289,-94.6381 312,-92.2 312,-92.2 312,-92.2 308.8289,-94.6381 309.8057,-89.346 305.6578,-97.0762 305.6578,-97.0762"/>
<ellipse fill="none" stroke="#000000" cx="303.121" cy="-99.0267" rx="3.2" ry="3.2"/>
</g>
<!-- roi.voertuig -->
<g id="node7" class="node">
<title>roi.voertuig</title>
<g id="a_node7"><a xlink:href="../../../roi/tables/voertuig.html" xlink:title="roi.voertuig" target="_top">
<polygon fill="#ffffff" stroke="transparent" points="147,-39.7 147,-100.7 252,-100.7 252,-39.7 147,-39.7"/>
<polygon fill="#f5f5f5" stroke="transparent" points="147.5,-77.2 147.5,-100.2 252.5,-100.2 252.5,-77.2 147.5,-77.2"/>
<polygon fill="none" stroke="#000000" points="147.5,-77.2 147.5,-100.2 252.5,-100.2 252.5,-77.2 147.5,-77.2"/>
<text text-anchor="start" x="152.5" y="-85.8" font-family="Helvetica,sans-Serif" font-weight="bold" font-size="11.00" fill="#000000">roi.voertuig</text>
<text text-anchor="start" x="218.0219" y="-85.3" font-family="Helvetica,sans-Serif" font-size="11.00" fill="#000000">[table]</text>
<polygon fill="none" stroke="#000000" points="147.5,-58.2 147.5,-77.2 252.5,-77.2 252.5,-58.2 147.5,-58.2"/>
<text text-anchor="start" x="150.5" y="-64.3" font-family="Helvetica,sans-Serif" font-size="11.00" fill="#000000">...</text>
<polygon fill="#ffffff" stroke="transparent" points="147.5,-39.2 147.5,-58.2 189.5,-58.2 189.5,-39.2 147.5,-39.2"/>
<polygon fill="none" stroke="#000000" points="147.5,-39.2 147.5,-58.2 189.5,-58.2 189.5,-39.2 147.5,-39.2"/>
<text text-anchor="start" x="150.5" y="-45.3" font-family="Helvetica,sans-Serif" font-size="11.00" fill="#000000"> &#160;</text>
<polygon fill="#ffffff" stroke="transparent" points="189.5,-39.2 189.5,-58.2 216.5,-58.2 216.5,-39.2 189.5,-39.2"/>
<polygon fill="none" stroke="#000000" points="189.5,-39.2 189.5,-58.2 216.5,-58.2 216.5,-39.2 189.5,-39.2"/>
<text text-anchor="start" x="207.3862" y="-45.3" font-family="Helvetica,sans-Serif" font-size="11.00" fill="#000000"> &#160;</text>
<polygon fill="#ffffff" stroke="transparent" points="216.5,-39.2 216.5,-58.2 252.5,-58.2 252.5,-39.2 216.5,-39.2"/>
<polygon fill="none" stroke="#000000" points="216.5,-39.2 216.5,-58.2 252.5,-58.2 252.5,-39.2 216.5,-39.2"/>
<text text-anchor="start" x="233.9053" y="-45.3" font-family="Helvetica,sans-Serif" font-size="11.00" fill="#000000">1 &gt;</text>
</a>
</g>
</g>
<!-- opstelplaats&#45;&gt;roi.voertuig -->
<g id="edge6" class="edge">
<title>opstelplaats:w&#45;&gt;roi.voertuig:e</title>
<path fill="none" stroke="#000000" d="M297.5561,-70.2C285.0747,-70.2 272.2777,-70.2 260.2207,-70.2"/>
<polygon fill="#000000" stroke="#000000" points="304,-70.2001 312,-73.8 308,-70.2 312,-70.2 312,-70.2 312,-70.2 308,-70.2 312,-66.6 304,-70.2001 304,-70.2001"/>
<ellipse fill="none" stroke="#000000" cx="300.8" cy="-70.2001" rx="3.2" ry="3.2"/>
</g>
<!-- pand -->
<g id="node8" class="node">
<title>pand</title>
<g id="a_node8"><a xlink:href="../../tables/pand.html" xlink:title="pand" target="_top">
<polygon fill="#ffffff" stroke="transparent" points="392.5,-735.7 392.5,-796.7 459.5,-796.7 459.5,-735.7 392.5,-735.7"/>
<polygon fill="#f5f5f5" stroke="transparent" points="393,-773.2 393,-796.2 460,-796.2 460,-773.2 393,-773.2"/>
<polygon fill="none" stroke="#000000" points="393,-773.2 393,-796.2 460,-796.2 460,-773.2 393,-773.2"/>
<text text-anchor="start" x="397.7702" y="-781.8" font-family="Helvetica,sans-Serif" font-weight="bold" font-size="11.00" fill="#000000">pand</text>
<text text-anchor="start" x="425.5219" y="-781.3" font-family="Helvetica,sans-Serif" font-size="11.00" fill="#000000">[table]</text>
<polygon fill="none" stroke="#000000" points="393,-754.2 393,-773.2 460,-773.2 460,-754.2 393,-754.2"/>
<text text-anchor="start" x="396" y="-760.3" font-family="Helvetica,sans-Serif" font-size="11.00" fill="#000000">...</text>
<polygon fill="#ffffff" stroke="transparent" points="393,-735.2 393,-754.2 425,-754.2 425,-735.2 393,-735.2"/>
<polygon fill="none" stroke="#000000" points="393,-735.2 393,-754.2 425,-754.2 425,-735.2 393,-735.2"/>
<text text-anchor="start" x="396" y="-741.3" font-family="Helvetica,sans-Serif" font-size="11.00" fill="#000000">&lt; 1</text>
<polygon fill="#ffffff" stroke="transparent" points="425,-735.2 425,-754.2 442,-754.2 442,-735.2 425,-735.2"/>
<polygon fill="none" stroke="#000000" points="425,-735.2 425,-754.2 442,-754.2 442,-735.2 425,-735.2"/>
<text text-anchor="start" x="432.8862" y="-741.3" font-family="Helvetica,sans-Serif" font-size="11.00" fill="#000000"> &#160;</text>
<polygon fill="#ffffff" stroke="transparent" points="442,-735.2 442,-754.2 460,-754.2 460,-735.2 442,-735.2"/>
<polygon fill="none" stroke="#000000" points="442,-735.2 442,-754.2 460,-754.2 460,-735.2 442,-735.2"/>
<text text-anchor="start" x="450.8862" y="-741.3" font-family="Helvetica,sans-Serif" font-size="11.00" fill="#000000"> &#160;</text>
</a>
</g>
</g>
<!-- pand&#45;&gt;object -->
<g id="edge7" class="edge">
<title>pand:w&#45;&gt;object:e</title>
<path fill="none" stroke="#000000" d="M378.2477,-762.8318C345.1952,-760.9872 329.899,-751.7624 302,-725.2 271.6927,-696.3447 303.3469,-640.2 261.5,-640.2"/>
<polygon fill="#000000" stroke="#000000" points="385.0025,-763.0003 392.9102,-766.7989 389.0012,-763.1002 393,-763.2 393,-763.2 393,-763.2 389.0012,-763.1002 393.0898,-759.6011 385.0025,-763.0003 385.0025,-763.0003"/>
<ellipse fill="none" stroke="#000000" cx="381.8035" cy="-762.9205" rx="3.2" ry="3.2"/>
</g>
<!-- risico -->
<g id="node9" class="node">
<title>risico</title>
<g id="a_node9"><a xlink:href="../../tables/risico.html" xlink:title="risico" target="_top">
<polygon fill="#ffffff" stroke="transparent" points="390.5,-653.7 390.5,-714.7 461.5,-714.7 461.5,-653.7 390.5,-653.7"/>
<polygon fill="#f5f5f5" stroke="transparent" points="391,-691.2 391,-714.2 462,-714.2 462,-691.2 391,-691.2"/>
<polygon fill="none" stroke="#000000" points="391,-691.2 391,-714.2 462,-714.2 462,-691.2 391,-691.2"/>
<text text-anchor="start" x="396" y="-699.8" font-family="Helvetica,sans-Serif" font-weight="bold" font-size="11.00" fill="#000000">risico</text>
<text text-anchor="start" x="427.5219" y="-699.3" font-family="Helvetica,sans-Serif" font-size="11.00" fill="#000000">[table]</text>
<polygon fill="none" stroke="#000000" points="391,-672.2 391,-691.2 462,-691.2 462,-672.2 391,-672.2"/>
<text text-anchor="start" x="394" y="-678.3" font-family="Helvetica,sans-Serif" font-size="11.00" fill="#000000">...</text>
<polygon fill="#ffffff" stroke="transparent" points="391,-653.2 391,-672.2 425,-672.2 425,-653.2 391,-653.2"/>
<polygon fill="none" stroke="#000000" points="391,-653.2 391,-672.2 425,-672.2 425,-653.2 391,-653.2"/>
<text text-anchor="start" x="394" y="-659.3" font-family="Helvetica,sans-Serif" font-size="11.00" fill="#000000">&lt; 2</text>
<polygon fill="#ffffff" stroke="transparent" points="425,-653.2 425,-672.2 443,-672.2 443,-653.2 425,-653.2"/>
<polygon fill="none" stroke="#000000" points="425,-653.2 425,-672.2 443,-672.2 443,-653.2 425,-653.2"/>
<text text-anchor="start" x="433.8862" y="-659.3" font-family="Helvetica,sans-Serif" font-size="11.00" fill="#000000"> &#160;</text>
<polygon fill="#ffffff" stroke="transparent" points="443,-653.2 443,-672.2 462,-672.2 462,-653.2 443,-653.2"/>
<polygon fill="none" stroke="#000000" points="443,-653.2 443,-672.2 462,-672.2 462,-653.2 443,-653.2"/>
<text text-anchor="start" x="452.8862" y="-659.3" font-family="Helvetica,sans-Serif" font-size="11.00" fill="#000000"> &#160;</text>
</a>
</g>
</g>
<!-- risico&#45;&gt;object -->
<g id="edge8" class="edge">
<title>risico:w&#45;&gt;object:e</title>
<path fill="none" stroke="#000000" d="M376.5136,-680.3437C328.7424,-674.4559 316.6831,-640.2 261.5,-640.2"/>
<polygon fill="#000000" stroke="#000000" points="383.0139,-680.7279 390.7875,-684.7937 387.007,-680.9639 391,-681.2 391,-681.2 391,-681.2 387.007,-680.9639 391.2125,-677.6063 383.0139,-680.7279 383.0139,-680.7279"/>
<ellipse fill="none" stroke="#000000" cx="379.8195" cy="-680.539" rx="3.2" ry="3.2"/>
</g>
<!-- scenario -->
<g id="node10" class="node">
<title>scenario</title>
<g id="a_node10"><a xlink:href="../../tables/scenario.html" xlink:title="scenario" target="_top">
<polygon fill="#ffffff" stroke="transparent" points="382,-571.7 382,-632.7 470,-632.7 470,-571.7 382,-571.7"/>
<polygon fill="#f5f5f5" stroke="transparent" points="382,-609.2 382,-632.2 470,-632.2 470,-609.2 382,-609.2"/>
<polygon fill="none" stroke="#000000" points="382,-609.2 382,-632.2 470,-632.2 470,-609.2 382,-609.2"/>
<text text-anchor="start" x="387" y="-617.8" font-family="Helvetica,sans-Serif" font-weight="bold" font-size="11.00" fill="#000000">scenario</text>
<text text-anchor="start" x="435.5219" y="-617.3" font-family="Helvetica,sans-Serif" font-size="11.00" fill="#000000">[table]</text>
<polygon fill="none" stroke="#000000" points="382,-590.2 382,-609.2 470,-609.2 470,-590.2 382,-590.2"/>
<text text-anchor="start" x="385" y="-596.3" font-family="Helvetica,sans-Serif" font-size="11.00" fill="#000000">...</text>
<polygon fill="#ffffff" stroke="transparent" points="382,-571.2 382,-590.2 424,-590.2 424,-571.2 382,-571.2"/>
<polygon fill="none" stroke="#000000" points="382,-571.2 382,-590.2 424,-590.2 424,-571.2 382,-571.2"/>
<text text-anchor="start" x="385" y="-577.3" font-family="Helvetica,sans-Serif" font-size="11.00" fill="#000000">&lt; 2</text>
<polygon fill="#ffffff" stroke="transparent" points="424,-571.2 424,-590.2 447,-590.2 447,-571.2 424,-571.2"/>
<polygon fill="none" stroke="#000000" points="424,-571.2 424,-590.2 447,-590.2 447,-571.2 424,-571.2"/>
<text text-anchor="start" x="437.8862" y="-577.3" font-family="Helvetica,sans-Serif" font-size="11.00" fill="#000000"> &#160;</text>
<polygon fill="#ffffff" stroke="transparent" points="447,-571.2 447,-590.2 470,-590.2 470,-571.2 447,-571.2"/>
<polygon fill="none" stroke="#000000" points="447,-571.2 447,-590.2 470,-590.2 470,-571.2 447,-571.2"/>
<text text-anchor="start" x="460.8862" y="-577.3" font-family="Helvetica,sans-Serif" font-size="11.00" fill="#000000"> &#160;</text>
</a>
</g>
</g>
<!-- scenario&#45;&gt;object -->
<g id="edge9" class="edge">
<title>scenario:w&#45;&gt;object:e</title>
<path fill="none" stroke="#000000" d="M367.5889,-600.173C323.6636,-606.3819 312.8777,-640.2 261.5,-640.2"/>
<polygon fill="#000000" stroke="#000000" points="374.0182,-599.739 382.2425,-602.7918 378.0091,-599.4695 382,-599.2 382,-599.2 382,-599.2 378.0091,-599.4695 381.7575,-595.6082 374.0182,-599.739 374.0182,-599.739"/>
<ellipse fill="none" stroke="#000000" cx="370.8254" cy="-599.9546" rx="3.2" ry="3.2"/>
</g>
<!-- scheiding -->
<g id="node11" class="node">
<title>scheiding</title>
<g id="a_node11"><a xlink:href="../../tables/scheiding.html" xlink:title="scheiding" target="_top">
<polygon fill="#ffffff" stroke="transparent" points="378.5,-489.7 378.5,-550.7 473.5,-550.7 473.5,-489.7 378.5,-489.7"/>
<polygon fill="#f5f5f5" stroke="transparent" points="379,-527.2 379,-550.2 474,-550.2 474,-527.2 379,-527.2"/>
<polygon fill="none" stroke="#000000" points="379,-527.2 379,-550.2 474,-550.2 474,-527.2 379,-527.2"/>
<text text-anchor="start" x="384" y="-535.8" font-family="Helvetica,sans-Serif" font-weight="bold" font-size="11.00" fill="#000000">scheiding</text>
<text text-anchor="start" x="439.5219" y="-535.3" font-family="Helvetica,sans-Serif" font-size="11.00" fill="#000000">[table]</text>
<polygon fill="none" stroke="#000000" points="379,-508.2 379,-527.2 474,-527.2 474,-508.2 379,-508.2"/>
<text text-anchor="start" x="382" y="-514.3" font-family="Helvetica,sans-Serif" font-size="11.00" fill="#000000">...</text>
<polygon fill="#ffffff" stroke="transparent" points="379,-489.2 379,-508.2 425,-508.2 425,-489.2 379,-489.2"/>
<polygon fill="none" stroke="#000000" points="379,-489.2 379,-508.2 425,-508.2 425,-489.2 379,-489.2"/>
<text text-anchor="start" x="382" y="-495.3" font-family="Helvetica,sans-Serif" font-size="11.00" fill="#000000">&lt; 2</text>
<polygon fill="#ffffff" stroke="transparent" points="425,-489.2 425,-508.2 449,-508.2 449,-489.2 425,-489.2"/>
<polygon fill="none" stroke="#000000" points="425,-489.2 425,-508.2 449,-508.2 449,-489.2 425,-489.2"/>
<text text-anchor="start" x="439.8862" y="-495.3" font-family="Helvetica,sans-Serif" font-size="11.00" fill="#000000"> &#160;</text>
<polygon fill="#ffffff" stroke="transparent" points="449,-489.2 449,-508.2 474,-508.2 474,-489.2 449,-489.2"/>
<polygon fill="none" stroke="#000000" points="449,-489.2 449,-508.2 474,-508.2 474,-489.2 449,-489.2"/>
<text text-anchor="start" x="464.8862" y="-495.3" font-family="Helvetica,sans-Serif" font-size="11.00" fill="#000000"> &#160;</text>
</a>
</g>
</g>
<!-- scheiding&#45;&gt;object -->
<g id="edge10" class="edge">
<title>scheiding:w&#45;&gt;object:e</title>
<path fill="none" stroke="#000000" d="M364.3458,-518.0629C336.438,-521.6821 325.5079,-536.5993 302,-561.2 274.7411,-589.7261 300.9562,-640.2 261.5,-640.2"/>
<polygon fill="#000000" stroke="#000000" points="371.0138,-517.6703 379.2117,-520.7938 375.0069,-517.4352 379,-517.2 379,-517.2 379,-517.2 375.0069,-517.4352 378.7883,-513.6062 371.0138,-517.6703 371.0138,-517.6703"/>
<ellipse fill="none" stroke="#000000" cx="367.8194" cy="-517.8585" rx="3.2" ry="3.2"/>
</g>
<!-- sector -->
<g id="node12" class="node">
<title>sector</title>
<g id="a_node12"><a xlink:href="../../tables/sector.html" xlink:title="sector" target="_top">
<polygon fill="#ffffff" stroke="transparent" points="388.5,-407.7 388.5,-468.7 463.5,-468.7 463.5,-407.7 388.5,-407.7"/>
<polygon fill="#f5f5f5" stroke="transparent" points="389,-445.2 389,-468.2 464,-468.2 464,-445.2 389,-445.2"/>
<polygon fill="none" stroke="#000000" points="389,-445.2 389,-468.2 464,-468.2 464,-445.2 389,-445.2"/>
<text text-anchor="start" x="394" y="-453.8" font-family="Helvetica,sans-Serif" font-weight="bold" font-size="11.00" fill="#000000">sector</text>
<text text-anchor="start" x="429.5219" y="-453.3" font-family="Helvetica,sans-Serif" font-size="11.00" fill="#000000">[table]</text>
<polygon fill="none" stroke="#000000" points="389,-426.2 389,-445.2 464,-445.2 464,-426.2 389,-426.2"/>
<text text-anchor="start" x="392" y="-432.3" font-family="Helvetica,sans-Serif" font-size="11.00" fill="#000000">...</text>
<polygon fill="#ffffff" stroke="transparent" points="389,-407.2 389,-426.2 425,-426.2 425,-407.2 389,-407.2"/>
<polygon fill="none" stroke="#000000" points="389,-407.2 389,-426.2 425,-426.2 425,-407.2 389,-407.2"/>
<text text-anchor="start" x="392" y="-413.3" font-family="Helvetica,sans-Serif" font-size="11.00" fill="#000000">&lt; 2</text>
<polygon fill="#ffffff" stroke="transparent" points="425,-407.2 425,-426.2 444,-426.2 444,-407.2 425,-407.2"/>
<polygon fill="none" stroke="#000000" points="425,-407.2 425,-426.2 444,-426.2 444,-407.2 425,-407.2"/>
<text text-anchor="start" x="434.8862" y="-413.3" font-family="Helvetica,sans-Serif" font-size="11.00" fill="#000000"> &#160;</text>
<polygon fill="#ffffff" stroke="transparent" points="444,-407.2 444,-426.2 464,-426.2 464,-407.2 444,-407.2"/>
<polygon fill="none" stroke="#000000" points="444,-407.2 444,-426.2 464,-426.2 464,-407.2 444,-407.2"/>
<text text-anchor="start" x="454.8862" y="-413.3" font-family="Helvetica,sans-Serif" font-size="11.00" fill="#000000"> &#160;</text>
</a>
</g>
</g>
<!-- sector&#45;&gt;object -->
<g id="edge11" class="edge">
<title>sector:w&#45;&gt;object:e</title>
<path fill="none" stroke="#000000" d="M374.3683,-435.6709C341.4937,-438.0075 325.7834,-449.4561 302,-479.2 255.9208,-536.8273 335.2848,-640.2 261.5,-640.2"/>
<polygon fill="#000000" stroke="#000000" points="381.0041,-435.4574 389.1158,-438.7981 385.0021,-435.3287 389,-435.2 389,-435.2 389,-435.2 385.0021,-435.3287 388.8842,-431.6019 381.0041,-435.4574 381.0041,-435.4574"/>
<ellipse fill="none" stroke="#000000" cx="377.8058" cy="-435.5603" rx="3.2" ry="3.2"/>
</g>
<!-- voorziening -->
<g id="node13" class="node">
<title>voorziening</title>
<g id="a_node13"><a xlink:href="../../tables/voorziening.html" xlink:title="voorziening" target="_top">
<polygon fill="#ffffff" stroke="transparent" points="373,-325.7 373,-386.7 479,-386.7 479,-325.7 373,-325.7"/>
<polygon fill="#f5f5f5" stroke="transparent" points="373,-363.2 373,-386.2 479,-386.2 479,-363.2 373,-363.2"/>
<polygon fill="none" stroke="#000000" points="373,-363.2 373,-386.2 479,-386.2 479,-363.2 373,-363.2"/>
<text text-anchor="start" x="378" y="-371.8" font-family="Helvetica,sans-Serif" font-weight="bold" font-size="11.00" fill="#000000">voorziening</text>
<text text-anchor="start" x="444.5219" y="-371.3" font-family="Helvetica,sans-Serif" font-size="11.00" fill="#000000">[table]</text>
<polygon fill="none" stroke="#000000" points="373,-344.2 373,-363.2 479,-363.2 479,-344.2 373,-344.2"/>
<text text-anchor="start" x="376" y="-350.3" font-family="Helvetica,sans-Serif" font-size="11.00" fill="#000000">...</text>
<polygon fill="#ffffff" stroke="transparent" points="373,-325.2 373,-344.2 424,-344.2 424,-325.2 373,-325.2"/>
<polygon fill="none" stroke="#000000" points="373,-325.2 373,-344.2 424,-344.2 424,-325.2 373,-325.2"/>
<text text-anchor="start" x="376" y="-331.3" font-family="Helvetica,sans-Serif" font-size="11.00" fill="#000000">&lt; 2</text>
<polygon fill="#ffffff" stroke="transparent" points="424,-325.2 424,-344.2 451,-344.2 451,-325.2 424,-325.2"/>
<polygon fill="none" stroke="#000000" points="424,-325.2 424,-344.2 451,-344.2 451,-325.2 424,-325.2"/>
<text text-anchor="start" x="441.8862" y="-331.3" font-family="Helvetica,sans-Serif" font-size="11.00" fill="#000000"> &#160;</text>
<polygon fill="#ffffff" stroke="transparent" points="451,-325.2 451,-344.2 479,-344.2 479,-325.2 451,-325.2"/>
<polygon fill="none" stroke="#000000" points="451,-325.2 451,-344.2 479,-344.2 479,-325.2 451,-325.2"/>
<text text-anchor="start" x="469.8862" y="-331.3" font-family="Helvetica,sans-Serif" font-size="11.00" fill="#000000"> &#160;</text>
</a>
</g>
</g>
<!-- voorziening&#45;&gt;object -->
<g id="edge12" class="edge">
<title>voorziening:w&#45;&gt;object:e</title>
<path fill="none" stroke="#000000" d="M358.3076,-354.0386C331.9034,-357.3744 319.6842,-370.821 302,-397.2 271.5159,-442.6722 316.2449,-640.2 261.5,-640.2"/>
<polygon fill="#000000" stroke="#000000" points="365.013,-353.6559 373.2052,-356.7942 369.0065,-353.428 373,-353.2 373,-353.2 373,-353.2 369.0065,-353.428 372.7948,-349.6058 365.013,-353.6559 365.013,-353.6559"/>
<ellipse fill="none" stroke="#000000" cx="361.8182" cy="-353.8383" rx="3.2" ry="3.2"/>
</g>
</g>
</svg>
