<?xml version="1.0" encoding="UTF-8" standalone="no"?>
<!DOCTYPE svg PUBLIC "-//W3C//DTD SVG 1.1//EN"
 "http://www.w3.org/Graphics/SVG/1.1/DTD/svg11.dtd">
<!-- Generated by graphviz version 2.50.0 (0)
 -->
<!-- Title: oneDegreeRelationshipsDiagram Pages: 1 -->
<svg width="456pt" height="401pt"
 viewBox="0.00 0.00 456.00 401.00" xmlns="http://www.w3.org/2000/svg" xmlns:xlink="http://www.w3.org/1999/xlink">
<g id="graph0" class="graph" transform="scale(1 1) rotate(0) translate(4 397)">
<title>oneDegreeRelationshipsDiagram</title>
<polygon fill="#ffffff" stroke="transparent" points="-4,4 -4,-397 452,-397 452,4 -4,4"/>
<text text-anchor="middle" x="79.5" y="-7.2" font-family="Helvetica,sans-Serif" font-size="11.00">Generated by SchemaSpy</text>
<!-- pand -->
<g id="node1" class="node">
<title>pand</title>
<g id="a_node1"><a xlink:href="../../tables/pand.html" xlink:title="pand" target="_top">
<polygon fill="#ffffff" stroke="transparent" points="186,-37 186,-389 440,-389 440,-37 186,-37"/>
<polygon fill="#f5f5f5" stroke="transparent" points="188,-365 188,-387 438,-387 438,-365 188,-365"/>
<polygon fill="none" stroke="black" points="188,-365 188,-387 438,-387 438,-365 188,-365"/>
<text text-anchor="start" x="193" y="-374.2" font-family="Helvetica,sans-Serif" font-weight="bold" font-size="11.00">pand</text>
<text text-anchor="start" x="396" y="-373.2" font-family="Helvetica,sans-Serif" font-size="11.00">[table]</text>
<polygon fill="none" stroke="black" points="188,-343 188,-365 302,-365 302,-343 188,-343"/>
<image xlink:href="../../images/primaryKeys.png" width="11px" height="12px" preserveAspectRatio="xMinYMin meet" x="193" y="-360"/>
<text text-anchor="start" x="208" y="-351.2" font-family="Helvetica,sans-Serif" font-size="11.00">uuid</text>
<polygon fill="none" stroke="black" points="302,-343 302,-365 438,-365 438,-343 302,-343"/>
<text text-anchor="start" x="305" y="-351.2" font-family="Helvetica,sans-Serif" font-size="11.00">uuid[2147483647]</text>
<polygon fill="#ffffff" stroke="transparent" points="188,-321 188,-343 302,-343 302,-321 188,-321"/>
<polygon fill="none" stroke="black" points="188,-321 188,-343 302,-343 302,-321 188,-321"/>
<text text-anchor="start" x="208" y="-329.2" font-family="Helvetica,sans-Serif" font-size="11.00">geom</text>
<polygon fill="none" stroke="black" points="302,-321 302,-343 438,-343 438,-321 302,-321"/>
<text text-anchor="start" x="305" y="-329.2" font-family="Helvetica,sans-Serif" font-size="11.00">geometry[2147483647]</text>
<polygon fill="none" stroke="black" points="188,-299 188,-321 302,-321 302,-299 188,-299"/>
<text text-anchor="start" x="208" y="-307.2" font-family="Helvetica,sans-Serif" font-size="11.00">datumtijd</text>
<polygon fill="none" stroke="black" points="302,-299 302,-321 438,-321 438,-299 302,-299"/>
<text text-anchor="start" x="305" y="-307.2" font-family="Helvetica,sans-Serif" font-size="11.00">timestamptz[35,6]</text>
<polygon fill="none" stroke="black" points="188,-277 188,-299 302,-299 302,-277 188,-277"/>
<text text-anchor="start" x="208" y="-285.2" font-family="Helvetica,sans-Serif" font-size="11.00">gebruiker</text>
<polygon fill="none" stroke="black" points="302,-277 302,-299 438,-299 438,-277 302,-277"/>
<text text-anchor="start" x="305" y="-285.2" font-family="Helvetica,sans-Serif" font-size="11.00">varchar[255]</text>
<polygon fill="none" stroke="black" points="188,-255 188,-277 302,-277 302,-255 188,-255"/>
<text text-anchor="start" x="208" y="-263.2" font-family="Helvetica,sans-Serif" font-size="11.00">label</text>
<polygon fill="none" stroke="black" points="302,-255 302,-277 438,-277 438,-255 302,-255"/>
<text text-anchor="start" x="305" y="-263.2" font-family="Helvetica,sans-Serif" font-size="11.00">text[2147483647]</text>
<polygon fill="none" stroke="black" points="188,-233 188,-255 302,-255 302,-233 188,-233"/>
<text text-anchor="start" x="208" y="-241.2" font-family="Helvetica,sans-Serif" font-size="11.00">rotatie</text>
<polygon fill="none" stroke="black" points="302,-233 302,-255 438,-255 438,-233 302,-233"/>
<text text-anchor="start" x="305" y="-241.2" font-family="Helvetica,sans-Serif" font-size="11.00">int4[10]</text>
<polygon fill="none" stroke="black" points="188,-211 188,-233 302,-233 302,-211 188,-211"/>
<text text-anchor="start" x="208" y="-219.2" font-family="Helvetica,sans-Serif" font-size="11.00">bijzonderheden</text>
<polygon fill="none" stroke="black" points="302,-211 302,-233 438,-233 438,-211 302,-211"/>
<text text-anchor="start" x="305" y="-219.2" font-family="Helvetica,sans-Serif" font-size="11.00">text[2147483647]</text>
<polygon fill="none" stroke="black" points="188,-189 188,-211 302,-211 302,-189 188,-189"/>
<text text-anchor="start" x="208" y="-197.2" font-family="Helvetica,sans-Serif" font-size="11.00">plusinfo</text>
<polygon fill="none" stroke="black" points="302,-189 302,-211 438,-211 438,-189 302,-189"/>
<text text-anchor="start" x="305" y="-197.2" font-family="Helvetica,sans-Serif" font-size="11.00">jsonb[2147483647]</text>
<polygon fill="#ffffff" stroke="transparent" points="188,-167 188,-189 302,-189 302,-167 188,-167"/>
<polygon fill="none" stroke="black" points="188,-167 188,-189 302,-189 302,-167 188,-167"/>
<image xlink:href="../../images/foreignKeys.png" width="11px" height="12px" preserveAspectRatio="xMinYMin meet" x="193" y="-184"/>
<text text-anchor="start" x="208" y="-175.2" font-family="Helvetica,sans-Serif" font-size="11.00">object_uuid</text>
<polygon fill="none" stroke="black" points="302,-167 302,-189 438,-189 438,-167 302,-167"/>
<text text-anchor="start" x="305" y="-175.2" font-family="Helvetica,sans-Serif" font-size="11.00">uuid[2147483647]</text>
<polygon fill="#ffffff" stroke="transparent" points="188,-145 188,-167 302,-167 302,-145 188,-145"/>
<polygon fill="none" stroke="black" points="188,-145 188,-167 302,-167 302,-145 188,-145"/>
<text text-anchor="start" x="208" y="-153.2" font-family="Helvetica,sans-Serif" font-size="11.00">bouwlaag</text>
<polygon fill="none" stroke="black" points="302,-145 302,-167 438,-167 438,-145 302,-145"/>
<text text-anchor="start" x="305" y="-153.2" font-family="Helvetica,sans-Serif" font-size="11.00">int2[5]</text>
<polygon fill="none" stroke="black" points="188,-123 188,-145 302,-145 302,-123 188,-123"/>
<text text-anchor="start" x="208" y="-131.2" font-family="Helvetica,sans-Serif" font-size="11.00">bouwdeel</text>
<polygon fill="none" stroke="black" points="302,-123 302,-145 438,-145 438,-123 302,-123"/>
<text text-anchor="start" x="305" y="-131.2" font-family="Helvetica,sans-Serif" font-size="11.00">text[2147483647]</text>
<polygon fill="none" stroke="black" points="188,-101 188,-123 302,-123 302,-101 188,-101"/>
<text text-anchor="start" x="208" y="-109.2" font-family="Helvetica,sans-Serif" font-size="11.00">imbag_id</text>
<polygon fill="none" stroke="black" points="302,-101 302,-123 438,-123 438,-101 302,-101"/>
<text text-anchor="start" x="305" y="-109.2" font-family="Helvetica,sans-Serif" font-size="11.00">text[2147483647]</text>
<polygon fill="none" stroke="black" points="188,-79 188,-101 302,-101 302,-79 188,-79"/>
<text text-anchor="start" x="208" y="-87.2" font-family="Helvetica,sans-Serif" font-size="11.00">imgeo_id</text>
<polygon fill="none" stroke="black" points="302,-79 302,-101 438,-101 438,-79 302,-79"/>
<text text-anchor="start" x="305" y="-87.2" font-family="Helvetica,sans-Serif" font-size="11.00">text[2147483647]</text>
<polygon fill="#ffffff" stroke="transparent" points="188,-57 188,-79 302,-79 302,-57 188,-57"/>
<polygon fill="none" stroke="black" points="188,-57 188,-79 302,-79 302,-57 188,-57"/>
<text text-anchor="start" x="208" y="-65.2" font-family="Helvetica,sans-Serif" font-size="11.00">handmatig</text>
<polygon fill="none" stroke="black" points="302,-57 302,-79 438,-79 438,-57 302,-57"/>
<text text-anchor="start" x="305" y="-65.2" font-family="Helvetica,sans-Serif" font-size="11.00">bool[1]</text>
<polygon fill="#ffffff" stroke="transparent" points="188,-39 188,-57 251,-57 251,-39 188,-39"/>
<polygon fill="none" stroke="black" points="188,-39 188,-57 251,-57 251,-39 188,-39"/>
<text text-anchor="start" x="191" y="-45.2" font-family="Helvetica,sans-Serif" font-size="11.00">&lt; 1</text>
<polygon fill="#ffffff" stroke="transparent" points="251,-39 251,-57 302,-57 302,-39 251,-39"/>
<polygon fill="none" stroke="black" points="251,-39 251,-57 302,-57 302,-39 251,-39"/>
<text text-anchor="start" x="291" y="-45.2" font-family="Helvetica,sans-Serif" font-size="11.00"> &#160;</text>
<polygon fill="#ffffff" stroke="transparent" points="302,-39 302,-57 438,-57 438,-39 302,-39"/>
<polygon fill="none" stroke="black" points="302,-39 302,-57 438,-57 438,-39 302,-39"/>
<text text-anchor="start" x="415" y="-45.2" font-family="Helvetica,sans-Serif" font-size="11.00">0 &gt;</text>
<polygon fill="none" stroke="black" stroke-width="2" points="187,-38 187,-388 439,-388 439,-38 187,-38"/>
</a>
</g>
</g>
<!-- object -->
<g id="node2" class="node">
<title>object</title>
<g id="a_node2"><a xlink:href="../../tables/object.html" xlink:title="object" target="_top">
<polygon fill="#ffffff" stroke="transparent" points="8,-65 8,-211 137,-211 137,-65 8,-65"/>
<polygon fill="#f5f5f5" stroke="transparent" points="8.5,-189 8.5,-211 137.5,-211 137.5,-189 8.5,-189"/>
<polygon fill="none" stroke="black" points="8.5,-189 8.5,-211 137.5,-211 137.5,-189 8.5,-189"/>
<text text-anchor="start" x="13.5" y="-198.2" font-family="Helvetica,sans-Serif" font-weight="bold" font-size="11.00">object</text>
<text text-anchor="start" x="95.5" y="-197.2" font-family="Helvetica,sans-Serif" font-size="11.00">[table]</text>
<polygon fill="none" stroke="black" points="8.5,-167 8.5,-189 137.5,-189 137.5,-167 8.5,-167"/>
<image xlink:href="../../images/primaryKeys.png" width="11px" height="12px" preserveAspectRatio="xMinYMin meet" x="13.5" y="-184"/>
<text text-anchor="start" x="28.5" y="-175.2" font-family="Helvetica,sans-Serif" font-size="11.00">uuid</text>
<polygon fill="#ffffff" stroke="transparent" points="8.5,-145 8.5,-167 137.5,-167 137.5,-145 8.5,-145"/>
<polygon fill="none" stroke="black" points="8.5,-145 8.5,-167 137.5,-167 137.5,-145 8.5,-145"/>
<text text-anchor="start" x="28.5" y="-153.2" font-family="Helvetica,sans-Serif" font-size="11.00">geom</text>
<polygon fill="#ffffff" stroke="transparent" points="8.5,-123 8.5,-145 137.5,-145 137.5,-123 8.5,-123"/>
<polygon fill="none" stroke="black" points="8.5,-123 8.5,-145 137.5,-145 137.5,-123 8.5,-123"/>
<text text-anchor="start" x="28.5" y="-131.2" font-family="Helvetica,sans-Serif" font-size="11.00">revisie_frequentie</text>
<polygon fill="#ffffff" stroke="transparent" points="8.5,-101 8.5,-123 137.5,-123 137.5,-101 8.5,-101"/>
<polygon fill="none" stroke="black" points="8.5,-101 8.5,-123 137.5,-123 137.5,-101 8.5,-101"/>
<image xlink:href="../../images/foreignKeys.png" width="11px" height="12px" preserveAspectRatio="xMinYMin meet" x="13.5" y="-118"/>
<text text-anchor="start" x="28.5" y="-109.2" font-family="Helvetica,sans-Serif" font-size="11.00">fase_id</text>
<polygon fill="none" stroke="black" points="8.5,-83 8.5,-101 137.5,-101 137.5,-83 8.5,-83"/>
<text text-anchor="start" x="11.5" y="-89.2" font-family="Helvetica,sans-Serif" font-size="11.00">...</text>
<polygon fill="#ffffff" stroke="transparent" points="8.5,-65 8.5,-83 62.5,-83 62.5,-65 8.5,-65"/>
<polygon fill="none" stroke="black" points="8.5,-65 8.5,-83 62.5,-83 62.5,-65 8.5,-65"/>
<text text-anchor="start" x="11.5" y="-71.2" font-family="Helvetica,sans-Serif" font-size="11.00">&lt; 1</text>
<polygon fill="#ffffff" stroke="transparent" points="62.5,-65 62.5,-83 90.5,-83 90.5,-65 62.5,-65"/>
<polygon fill="none" stroke="black" points="62.5,-65 62.5,-83 90.5,-83 90.5,-65 62.5,-65"/>
<text text-anchor="start" x="79.5" y="-71.2" font-family="Helvetica,sans-Serif" font-size="11.00"> &#160;</text>
<polygon fill="#ffffff" stroke="transparent" points="90.5,-65 90.5,-83 137.5,-83 137.5,-65 90.5,-65"/>
<polygon fill="none" stroke="black" points="90.5,-65 90.5,-83 137.5,-83 137.5,-65 90.5,-65"/>
<text text-anchor="start" x="107.5" y="-71.2" font-family="Helvetica,sans-Serif" font-size="11.00">10 &gt;</text>
</a>
</g>
</g>
<!-- pand&#45;&gt;object -->
<g id="edge1" class="edge">
<title>pand:w&#45;&gt;object:e</title>
<path fill="none" stroke="black" d="M172.28,-178C161.29,-178 154.16,-178 138.5,-178"/>
<polygon fill="black" stroke="black" points="179,-178 187,-181.6 183,-178 187,-178 187,-178 187,-178 183,-178 187,-174.4 179,-178 179,-178"/>
<ellipse fill="none" stroke="black" cx="175.8" cy="-178" rx="3.2" ry="3.2"/>
</g>
</g>
</svg>
