<?xml version="1.0" encoding="UTF-8" standalone="no"?>
<!DOCTYPE svg PUBLIC "-//W3C//DTD SVG 1.1//EN"
 "http://www.w3.org/Graphics/SVG/1.1/DTD/svg11.dtd">
<!-- Generated by graphviz version 2.40.1 (20161225.0304)
 -->
<!-- Title: twoDegreesRelationshipsDiagram Pages: 1 -->
<svg width="558pt" height="1143pt"
 viewBox="0.00 0.00 558.00 1143.20" xmlns="http://www.w3.org/2000/svg" xmlns:xlink="http://www.w3.org/1999/xlink">
<g id="graph0" class="graph" transform="scale(1 1) rotate(0) translate(4 1139.2)">
<title>twoDegreesRelationshipsDiagram</title>
<polygon fill="#ffffff" stroke="transparent" points="-4,4 -4,-1139.2 554,-1139.2 554,4 -4,4"/>
<text text-anchor="middle" x="72.4936" y="-7.3" font-family="Helvetica,sans-Serif" font-size="11.00" fill="#000000">Generated by SchemaSpy</text>
<!-- bereikbaarheid -->
<g id="node1" class="node">
<title>bereikbaarheid</title>
<g id="a_node1"><a xlink:href="../../tables/bereikbaarheid.html" xlink:title="bereikbaarheid" target="_top">
<polygon fill="#ffffff" stroke="transparent" points="364,-1070.2 364,-1131.2 488,-1131.2 488,-1070.2 364,-1070.2"/>
<polygon fill="#f5f5f5" stroke="transparent" points="364,-1107.7 364,-1130.7 488,-1130.7 488,-1107.7 364,-1107.7"/>
<polygon fill="none" stroke="#000000" points="364,-1107.7 364,-1130.7 488,-1130.7 488,-1107.7 364,-1107.7"/>
<text text-anchor="start" x="369" y="-1116.3" font-family="Helvetica,sans-Serif" font-weight="bold" font-size="11.00" fill="#000000">bereikbaarheid</text>
<text text-anchor="start" x="453.5219" y="-1115.8" font-family="Helvetica,sans-Serif" font-size="11.00" fill="#000000">[table]</text>
<polygon fill="none" stroke="#000000" points="364,-1088.7 364,-1107.7 488,-1107.7 488,-1088.7 364,-1088.7"/>
<text text-anchor="start" x="367" y="-1094.8" font-family="Helvetica,sans-Serif" font-size="11.00" fill="#000000">...</text>
<polygon fill="#ffffff" stroke="transparent" points="364,-1069.7 364,-1088.7 424,-1088.7 424,-1069.7 364,-1069.7"/>
<polygon fill="none" stroke="#000000" points="364,-1069.7 364,-1088.7 424,-1088.7 424,-1069.7 364,-1069.7"/>
<text text-anchor="start" x="367" y="-1075.8" font-family="Helvetica,sans-Serif" font-size="11.00" fill="#000000">&lt; 2</text>
<polygon fill="#ffffff" stroke="transparent" points="424,-1069.7 424,-1088.7 456,-1088.7 456,-1069.7 424,-1069.7"/>
<polygon fill="none" stroke="#000000" points="424,-1069.7 424,-1088.7 456,-1088.7 456,-1069.7 424,-1069.7"/>
<text text-anchor="start" x="446.8862" y="-1075.8" font-family="Helvetica,sans-Serif" font-size="11.00" fill="#000000"> &#160;</text>
<polygon fill="#ffffff" stroke="transparent" points="456,-1069.7 456,-1088.7 488,-1088.7 488,-1069.7 456,-1069.7"/>
<polygon fill="none" stroke="#000000" points="456,-1069.7 456,-1088.7 488,-1088.7 488,-1069.7 456,-1069.7"/>
<text text-anchor="start" x="478.8862" y="-1075.8" font-family="Helvetica,sans-Serif" font-size="11.00" fill="#000000"> &#160;</text>
</a>
</g>
</g>
<!-- object -->
<g id="node2" class="node">
<title>object</title>
<g id="a_node2"><a xlink:href="../../tables/object.html" xlink:title="object" target="_top">
<polygon fill="#ffffff" stroke="transparent" points="138,-377.2 138,-526.2 261,-526.2 261,-377.2 138,-377.2"/>
<polygon fill="#f5f5f5" stroke="transparent" points="138.5,-502.7 138.5,-525.7 261.5,-525.7 261.5,-502.7 138.5,-502.7"/>
<polygon fill="none" stroke="#000000" points="138.5,-502.7 138.5,-525.7 261.5,-525.7 261.5,-502.7 138.5,-502.7"/>
<text text-anchor="start" x="143.5" y="-511.3" font-family="Helvetica,sans-Serif" font-weight="bold" font-size="11.00" fill="#000000">object</text>
<text text-anchor="start" x="226.5437" y="-510.8" font-family="Helvetica,sans-Serif" font-size="11.00" fill="#000000">[table]</text>
<polygon fill="none" stroke="#000000" points="138.5,-480.7 138.5,-502.7 261.5,-502.7 261.5,-480.7 138.5,-480.7"/>
<image xlink:href="../../images/primaryKeys.png" width="11px" height="12px" preserveAspectRatio="xMinYMin meet" x="143.5" y="-497.7"/>
<text text-anchor="start" x="158.5" y="-487.8" font-family="Helvetica,sans-Serif" font-size="11.00" fill="#000000">uuid</text>
<polygon fill="#ffffff" stroke="transparent" points="138.5,-458.7 138.5,-480.7 261.5,-480.7 261.5,-458.7 138.5,-458.7"/>
<polygon fill="none" stroke="#000000" points="138.5,-458.7 138.5,-480.7 261.5,-480.7 261.5,-458.7 138.5,-458.7"/>
<text text-anchor="start" x="158.5" y="-465.8" font-family="Helvetica,sans-Serif" font-size="11.00" fill="#000000">geom</text>
<polygon fill="#ffffff" stroke="transparent" points="138.5,-436.7 138.5,-458.7 261.5,-458.7 261.5,-436.7 138.5,-436.7"/>
<polygon fill="none" stroke="#000000" points="138.5,-436.7 138.5,-458.7 261.5,-458.7 261.5,-436.7 138.5,-436.7"/>
<text text-anchor="start" x="158.5" y="-443.8" font-family="Helvetica,sans-Serif" font-size="11.00" fill="#000000">revisie_frequentie</text>
<polygon fill="#ffffff" stroke="transparent" points="138.5,-414.7 138.5,-436.7 261.5,-436.7 261.5,-414.7 138.5,-414.7"/>
<polygon fill="none" stroke="#000000" points="138.5,-414.7 138.5,-436.7 261.5,-436.7 261.5,-414.7 138.5,-414.7"/>
<image xlink:href="../../images/foreignKeys.png" width="11px" height="12px" preserveAspectRatio="xMinYMin meet" x="143.5" y="-431.7"/>
<text text-anchor="start" x="158.5" y="-421.8" font-family="Helvetica,sans-Serif" font-size="11.00" fill="#000000">fase_id</text>
<polygon fill="none" stroke="#000000" points="138.5,-395.7 138.5,-414.7 261.5,-414.7 261.5,-395.7 138.5,-395.7"/>
<text text-anchor="start" x="141.5" y="-401.8" font-family="Helvetica,sans-Serif" font-size="11.00" fill="#000000">...</text>
<polygon fill="#ffffff" stroke="transparent" points="138.5,-376.7 138.5,-395.7 190.5,-395.7 190.5,-376.7 138.5,-376.7"/>
<polygon fill="none" stroke="#000000" points="138.5,-376.7 138.5,-395.7 190.5,-395.7 190.5,-376.7 138.5,-376.7"/>
<text text-anchor="start" x="141.5" y="-382.8" font-family="Helvetica,sans-Serif" font-size="11.00" fill="#000000">&lt; 1</text>
<polygon fill="#ffffff" stroke="transparent" points="190.5,-376.7 190.5,-395.7 218.5,-395.7 218.5,-376.7 190.5,-376.7"/>
<polygon fill="none" stroke="#000000" points="190.5,-376.7 190.5,-395.7 218.5,-395.7 218.5,-376.7 190.5,-376.7"/>
<text text-anchor="start" x="209.3862" y="-382.8" font-family="Helvetica,sans-Serif" font-size="11.00" fill="#000000"> &#160;</text>
<polygon fill="#ffffff" stroke="transparent" points="218.5,-376.7 218.5,-395.7 261.5,-395.7 261.5,-376.7 218.5,-376.7"/>
<polygon fill="none" stroke="#000000" points="218.5,-376.7 218.5,-395.7 261.5,-395.7 261.5,-376.7 218.5,-376.7"/>
<text text-anchor="start" x="236.7904" y="-382.8" font-family="Helvetica,sans-Serif" font-size="11.00" fill="#000000">10 &gt;</text>
</a>
</g>
</g>
<!-- bereikbaarheid&#45;&gt;object -->
<g id="edge1" class="edge">
<title>bereikbaarheid:w&#45;&gt;object:e</title>
<path fill="none" stroke="#000000" d="M349.5583,-1096.8315C327.3444,-1093.8299 316.0306,-1082.7881 302,-1059.7 269.1415,-1005.6298 324.7713,-491.7 261.5,-491.7"/>
<polygon fill="#000000" stroke="#000000" points="356.0144,-1097.2197 363.7839,-1101.2935 360.0072,-1097.4599 364,-1097.7 364,-1097.7 364,-1097.7 360.0072,-1097.4599 364.2161,-1094.1065 356.0144,-1097.2197 356.0144,-1097.2197"/>
<ellipse fill="none" stroke="#000000" cx="352.8202" cy="-1097.0276" rx="3.2" ry="3.2"/>
</g>
<!-- roi.fase -->
<g id="node5" class="node">
<title>roi.fase</title>
<g id="a_node5"><a xlink:href="../../../roi/tables/fase.html" xlink:title="roi.fase" target="_top">
<polygon fill="#ffffff" stroke="transparent" points="8,-398.2 8,-459.2 89,-459.2 89,-398.2 8,-398.2"/>
<polygon fill="#f5f5f5" stroke="transparent" points="8.5,-435.7 8.5,-458.7 89.5,-458.7 89.5,-435.7 8.5,-435.7"/>
<polygon fill="none" stroke="#000000" points="8.5,-435.7 8.5,-458.7 89.5,-458.7 89.5,-435.7 8.5,-435.7"/>
<text text-anchor="start" x="13.5" y="-444.3" font-family="Helvetica,sans-Serif" font-weight="bold" font-size="11.00" fill="#000000">roi.fase</text>
<text text-anchor="start" x="55.0219" y="-443.8" font-family="Helvetica,sans-Serif" font-size="11.00" fill="#000000">[table]</text>
<polygon fill="none" stroke="#000000" points="8.5,-416.7 8.5,-435.7 89.5,-435.7 89.5,-416.7 8.5,-416.7"/>
<text text-anchor="start" x="11.5" y="-422.8" font-family="Helvetica,sans-Serif" font-size="11.00" fill="#000000">...</text>
<polygon fill="#ffffff" stroke="transparent" points="8.5,-397.7 8.5,-416.7 38.5,-416.7 38.5,-397.7 8.5,-397.7"/>
<polygon fill="none" stroke="#000000" points="8.5,-397.7 8.5,-416.7 38.5,-416.7 38.5,-397.7 8.5,-397.7"/>
<text text-anchor="start" x="11.5" y="-403.8" font-family="Helvetica,sans-Serif" font-size="11.00" fill="#000000"> &#160;</text>
<polygon fill="#ffffff" stroke="transparent" points="38.5,-397.7 38.5,-416.7 59.5,-416.7 59.5,-397.7 38.5,-397.7"/>
<polygon fill="none" stroke="#000000" points="38.5,-397.7 38.5,-416.7 59.5,-416.7 59.5,-397.7 38.5,-397.7"/>
<text text-anchor="start" x="50.3862" y="-403.8" font-family="Helvetica,sans-Serif" font-size="11.00" fill="#000000"> &#160;</text>
<polygon fill="#ffffff" stroke="transparent" points="59.5,-397.7 59.5,-416.7 89.5,-416.7 89.5,-397.7 59.5,-397.7"/>
<polygon fill="none" stroke="#000000" points="59.5,-397.7 59.5,-416.7 89.5,-416.7 89.5,-397.7 59.5,-397.7"/>
<text text-anchor="start" x="70.9053" y="-403.8" font-family="Helvetica,sans-Serif" font-size="11.00" fill="#000000">1 &gt;</text>
</a>
</g>
</g>
<!-- object&#45;&gt;roi.fase -->
<g id="edge4" class="edge">
<title>object:w&#45;&gt;roi.fase:e</title>
<path fill="none" stroke="#000000" d="M123.9909,-425.7C112.6774,-425.7 105.4931,-425.7 89.5,-425.7"/>
<polygon fill="#000000" stroke="#000000" points="130.5,-425.7001 138.5,-429.3 134.5,-425.7 138.5,-425.7 138.5,-425.7 138.5,-425.7 134.5,-425.7 138.5,-422.1 130.5,-425.7001 130.5,-425.7001"/>
<ellipse fill="none" stroke="#000000" cx="127.3" cy="-425.7001" rx="3.2" ry="3.2"/>
</g>
<!-- gevaarlijkestof -->
<g id="node3" class="node">
<title>gevaarlijkestof</title>
<g id="a_node3"><a xlink:href="../../tables/gevaarlijkestof.html" xlink:title="gevaarlijkestof" target="_top">
<polygon fill="#ffffff" stroke="transparent" points="364.5,-988.2 364.5,-1049.2 487.5,-1049.2 487.5,-988.2 364.5,-988.2"/>
<polygon fill="#f5f5f5" stroke="transparent" points="365,-1025.7 365,-1048.7 488,-1048.7 488,-1025.7 365,-1025.7"/>
<polygon fill="none" stroke="#000000" points="365,-1025.7 365,-1048.7 488,-1048.7 488,-1025.7 365,-1025.7"/>
<text text-anchor="start" x="370" y="-1034.3" font-family="Helvetica,sans-Serif" font-weight="bold" font-size="11.00" fill="#000000">gevaarlijkestof</text>
<text text-anchor="start" x="453.5219" y="-1033.8" font-family="Helvetica,sans-Serif" font-size="11.00" fill="#000000">[table]</text>
<polygon fill="none" stroke="#000000" points="365,-1006.7 365,-1025.7 488,-1025.7 488,-1006.7 365,-1006.7"/>
<text text-anchor="start" x="368" y="-1012.8" font-family="Helvetica,sans-Serif" font-size="11.00" fill="#000000">...</text>
<polygon fill="#ffffff" stroke="transparent" points="365,-987.7 365,-1006.7 425,-1006.7 425,-987.7 365,-987.7"/>
<polygon fill="none" stroke="#000000" points="365,-987.7 365,-1006.7 425,-1006.7 425,-987.7 365,-987.7"/>
<text text-anchor="start" x="368" y="-993.8" font-family="Helvetica,sans-Serif" font-size="11.00" fill="#000000">&lt; 1</text>
<polygon fill="#ffffff" stroke="transparent" points="425,-987.7 425,-1006.7 456,-1006.7 456,-987.7 425,-987.7"/>
<polygon fill="none" stroke="#000000" points="425,-987.7 425,-1006.7 456,-1006.7 456,-987.7 425,-987.7"/>
<text text-anchor="start" x="446.8862" y="-993.8" font-family="Helvetica,sans-Serif" font-size="11.00" fill="#000000"> &#160;</text>
<polygon fill="#ffffff" stroke="transparent" points="456,-987.7 456,-1006.7 488,-1006.7 488,-987.7 456,-987.7"/>
<polygon fill="none" stroke="#000000" points="456,-987.7 456,-1006.7 488,-1006.7 488,-987.7 456,-987.7"/>
<text text-anchor="start" x="478.8862" y="-993.8" font-family="Helvetica,sans-Serif" font-size="11.00" fill="#000000"> &#160;</text>
</a>
</g>
</g>
<!-- gevaarlijkestof&#45;&gt;object -->
<g id="edge2" class="edge">
<title>gevaarlijkestof:w&#45;&gt;object:e</title>
<path fill="none" stroke="#000000" d="M350.387,-1014.8424C327.9047,-1011.8741 316.4175,-1000.923 302,-977.7 273.4191,-931.6633 315.6872,-491.7 261.5,-491.7"/>
<polygon fill="#000000" stroke="#000000" points="357.0137,-1015.2312 364.7891,-1019.2938 361.0069,-1015.4656 365,-1015.7 365,-1015.7 365,-1015.7 361.0069,-1015.4656 365.2109,-1012.1062 357.0137,-1015.2312 357.0137,-1015.2312"/>
<ellipse fill="none" stroke="#000000" cx="353.8192" cy="-1015.0437" rx="3.2" ry="3.2"/>
</g>
<!-- label -->
<g id="node4" class="node">
<title>label</title>
<g id="a_node4"><a xlink:href="../../tables/label.html" xlink:title="label" target="_top">
<polygon fill="#ffffff" stroke="transparent" points="393,-906.2 393,-967.2 459,-967.2 459,-906.2 393,-906.2"/>
<polygon fill="#f5f5f5" stroke="transparent" points="393,-943.7 393,-966.7 459,-966.7 459,-943.7 393,-943.7"/>
<polygon fill="none" stroke="#000000" points="393,-943.7 393,-966.7 459,-966.7 459,-943.7 393,-943.7"/>
<text text-anchor="start" x="397.8868" y="-952.3" font-family="Helvetica,sans-Serif" font-weight="bold" font-size="11.00" fill="#000000">label</text>
<text text-anchor="start" x="424.5219" y="-951.8" font-family="Helvetica,sans-Serif" font-size="11.00" fill="#000000">[table]</text>
<polygon fill="none" stroke="#000000" points="393,-924.7 393,-943.7 459,-943.7 459,-924.7 393,-924.7"/>
<text text-anchor="start" x="396" y="-930.8" font-family="Helvetica,sans-Serif" font-size="11.00" fill="#000000">...</text>
<polygon fill="#ffffff" stroke="transparent" points="393,-905.7 393,-924.7 424,-924.7 424,-905.7 393,-905.7"/>
<polygon fill="none" stroke="#000000" points="393,-905.7 393,-924.7 424,-924.7 424,-905.7 393,-905.7"/>
<text text-anchor="start" x="396" y="-911.8" font-family="Helvetica,sans-Serif" font-size="11.00" fill="#000000">&lt; 2</text>
<polygon fill="#ffffff" stroke="transparent" points="424,-905.7 424,-924.7 441,-924.7 441,-905.7 424,-905.7"/>
<polygon fill="none" stroke="#000000" points="424,-905.7 424,-924.7 441,-924.7 441,-905.7 424,-905.7"/>
<text text-anchor="start" x="431.8862" y="-911.8" font-family="Helvetica,sans-Serif" font-size="11.00" fill="#000000"> &#160;</text>
<polygon fill="#ffffff" stroke="transparent" points="441,-905.7 441,-924.7 459,-924.7 459,-905.7 441,-905.7"/>
<polygon fill="none" stroke="#000000" points="441,-905.7 441,-924.7 459,-924.7 459,-905.7 441,-905.7"/>
<text text-anchor="start" x="449.8862" y="-911.8" font-family="Helvetica,sans-Serif" font-size="11.00" fill="#000000"> &#160;</text>
</a>
</g>
</g>
<!-- label&#45;&gt;object -->
<g id="edge3" class="edge">
<title>label:w&#45;&gt;object:e</title>
<path fill="none" stroke="#000000" d="M378.4838,-933.5377C344.1611,-932.6027 325.0317,-926.7914 302,-895.7 248.2925,-823.1979 351.7278,-491.7 261.5,-491.7"/>
<polygon fill="#000000" stroke="#000000" points="385.0005,-933.6105 392.9597,-937.2998 389.0003,-933.6552 393,-933.7 393,-933.7 393,-933.7 389.0003,-933.6552 393.0403,-930.1002 385.0005,-933.6105 385.0005,-933.6105"/>
<ellipse fill="none" stroke="#000000" cx="381.8007" cy="-933.5747" rx="3.2" ry="3.2"/>
</g>
<!-- opstelplaats -->
<g id="node6" class="node">
<title>opstelplaats</title>
<g id="a_node6"><a xlink:href="../../tables/opstelplaats.html" xlink:title="opstelplaats" target="_top">
<polygon fill="#ffffff" stroke="transparent" points="371.5,-824.2 371.5,-885.2 480.5,-885.2 480.5,-824.2 371.5,-824.2"/>
<polygon fill="#f5f5f5" stroke="transparent" points="372,-861.7 372,-884.7 481,-884.7 481,-861.7 372,-861.7"/>
<polygon fill="none" stroke="#000000" points="372,-861.7 372,-884.7 481,-884.7 481,-861.7 372,-861.7"/>
<text text-anchor="start" x="377" y="-870.3" font-family="Helvetica,sans-Serif" font-weight="bold" font-size="11.00" fill="#000000">opstelplaats</text>
<text text-anchor="start" x="446.5219" y="-869.8" font-family="Helvetica,sans-Serif" font-size="11.00" fill="#000000">[table]</text>
<polygon fill="none" stroke="#000000" points="372,-842.7 372,-861.7 481,-861.7 481,-842.7 372,-842.7"/>
<text text-anchor="start" x="375" y="-848.8" font-family="Helvetica,sans-Serif" font-size="11.00" fill="#000000">...</text>
<polygon fill="#ffffff" stroke="transparent" points="372,-823.7 372,-842.7 425,-842.7 425,-823.7 372,-823.7"/>
<polygon fill="none" stroke="#000000" points="372,-823.7 372,-842.7 425,-842.7 425,-823.7 372,-823.7"/>
<text text-anchor="start" x="375" y="-829.8" font-family="Helvetica,sans-Serif" font-size="11.00" fill="#000000">&lt; 2</text>
<polygon fill="#ffffff" stroke="transparent" points="425,-823.7 425,-842.7 453,-842.7 453,-823.7 425,-823.7"/>
<polygon fill="none" stroke="#000000" points="425,-823.7 425,-842.7 453,-842.7 453,-823.7 425,-823.7"/>
<text text-anchor="start" x="443.8862" y="-829.8" font-family="Helvetica,sans-Serif" font-size="11.00" fill="#000000"> &#160;</text>
<polygon fill="#ffffff" stroke="transparent" points="453,-823.7 453,-842.7 481,-842.7 481,-823.7 453,-823.7"/>
<polygon fill="none" stroke="#000000" points="453,-823.7 453,-842.7 481,-842.7 481,-823.7 453,-823.7"/>
<text text-anchor="start" x="471.8862" y="-829.8" font-family="Helvetica,sans-Serif" font-size="11.00" fill="#000000"> &#160;</text>
</a>
</g>
</g>
<!-- opstelplaats&#45;&gt;object -->
<g id="edge5" class="edge">
<title>opstelplaats:w&#45;&gt;object:e</title>
<path fill="none" stroke="#000000" d="M357.5234,-851.0821C332.1386,-848.6458 319.0034,-838.5919 302,-813.7 261.3208,-754.1483 333.6193,-491.7 261.5,-491.7"/>
<polygon fill="#000000" stroke="#000000" points="364.0073,-851.3588 371.8465,-855.2967 368.0036,-851.5294 372,-851.7 372,-851.7 372,-851.7 368.0036,-851.5294 372.1535,-848.1033 364.0073,-851.3588 364.0073,-851.3588"/>
<ellipse fill="none" stroke="#000000" cx="360.8102" cy="-851.2223" rx="3.2" ry="3.2"/>
</g>
<!-- pand -->
<g id="node7" class="node">
<title>pand</title>
<g id="a_node7"><a xlink:href="../../tables/pand.html" xlink:title="pand" target="_top">
<polygon fill="#ffffff" stroke="transparent" points="310,-448.7 310,-802.7 542,-802.7 542,-448.7 310,-448.7"/>
<polygon fill="#f5f5f5" stroke="transparent" points="312,-777.7 312,-800.7 540,-800.7 540,-777.7 312,-777.7"/>
<polygon fill="none" stroke="#000000" points="312,-777.7 312,-800.7 540,-800.7 540,-777.7 312,-777.7"/>
<text text-anchor="start" x="316.7702" y="-786.3" font-family="Helvetica,sans-Serif" font-weight="bold" font-size="11.00" fill="#000000">pand</text>
<text text-anchor="start" x="505.0437" y="-785.8" font-family="Helvetica,sans-Serif" font-size="11.00" fill="#000000">[table]</text>
<polygon fill="none" stroke="#000000" points="312,-755.7 312,-777.7 421,-777.7 421,-755.7 312,-755.7"/>
<image xlink:href="../../images/primaryKeys.png" width="11px" height="12px" preserveAspectRatio="xMinYMin meet" x="317" y="-772.7"/>
<text text-anchor="start" x="332" y="-762.8" font-family="Helvetica,sans-Serif" font-size="11.00" fill="#000000">uuid</text>
<polygon fill="none" stroke="#000000" points="421,-755.7 421,-777.7 540,-777.7 540,-755.7 421,-755.7"/>
<text text-anchor="start" x="424" y="-763.4" font-family="Helvetica,sans-Serif" font-size="11.00" fill="#000000">uuid[2147483647]</text>
<polygon fill="#ffffff" stroke="transparent" points="312,-733.7 312,-755.7 421,-755.7 421,-733.7 312,-733.7"/>
<polygon fill="none" stroke="#000000" points="312,-733.7 312,-755.7 421,-755.7 421,-733.7 312,-733.7"/>
<text text-anchor="start" x="332" y="-740.8" font-family="Helvetica,sans-Serif" font-size="11.00" fill="#000000">geom</text>
<polygon fill="none" stroke="#000000" points="421,-733.7 421,-755.7 540,-755.7 540,-733.7 421,-733.7"/>
<text text-anchor="start" x="423.9485" y="-741.4" font-family="Helvetica,sans-Serif" font-size="11.00" fill="#000000">geometry[2147483647]</text>
<polygon fill="none" stroke="#000000" points="312,-711.7 312,-733.7 421,-733.7 421,-711.7 312,-711.7"/>
<text text-anchor="start" x="332" y="-718.8" font-family="Helvetica,sans-Serif" font-size="11.00" fill="#000000">datumtijd</text>
<polygon fill="none" stroke="#000000" points="421,-711.7 421,-733.7 540,-733.7 540,-711.7 421,-711.7"/>
<text text-anchor="start" x="424" y="-719.4" font-family="Helvetica,sans-Serif" font-size="11.00" fill="#000000">timestamptz[35,6]</text>
<polygon fill="none" stroke="#000000" points="312,-689.7 312,-711.7 421,-711.7 421,-689.7 312,-689.7"/>
<text text-anchor="start" x="332" y="-696.8" font-family="Helvetica,sans-Serif" font-size="11.00" fill="#000000">gebruiker</text>
<polygon fill="none" stroke="#000000" points="421,-689.7 421,-711.7 540,-711.7 540,-689.7 421,-689.7"/>
<text text-anchor="start" x="424" y="-697.4" font-family="Helvetica,sans-Serif" font-size="11.00" fill="#000000">varchar[255]</text>
<polygon fill="none" stroke="#000000" points="312,-667.7 312,-689.7 421,-689.7 421,-667.7 312,-667.7"/>
<text text-anchor="start" x="332" y="-674.8" font-family="Helvetica,sans-Serif" font-size="11.00" fill="#000000">label</text>
<polygon fill="none" stroke="#000000" points="421,-667.7 421,-689.7 540,-689.7 540,-667.7 421,-667.7"/>
<text text-anchor="start" x="424" y="-675.4" font-family="Helvetica,sans-Serif" font-size="11.00" fill="#000000">text[2147483647]</text>
<polygon fill="none" stroke="#000000" points="312,-645.7 312,-667.7 421,-667.7 421,-645.7 312,-645.7"/>
<text text-anchor="start" x="332" y="-652.8" font-family="Helvetica,sans-Serif" font-size="11.00" fill="#000000">rotatie</text>
<polygon fill="none" stroke="#000000" points="421,-645.7 421,-667.7 540,-667.7 540,-645.7 421,-645.7"/>
<text text-anchor="start" x="424" y="-653.4" font-family="Helvetica,sans-Serif" font-size="11.00" fill="#000000">int4[10]</text>
<polygon fill="none" stroke="#000000" points="312,-623.7 312,-645.7 421,-645.7 421,-623.7 312,-623.7"/>
<text text-anchor="start" x="332" y="-630.8" font-family="Helvetica,sans-Serif" font-size="11.00" fill="#000000">bijzonderheden</text>
<polygon fill="none" stroke="#000000" points="421,-623.7 421,-645.7 540,-645.7 540,-623.7 421,-623.7"/>
<text text-anchor="start" x="424" y="-631.4" font-family="Helvetica,sans-Serif" font-size="11.00" fill="#000000">text[2147483647]</text>
<polygon fill="none" stroke="#000000" points="312,-601.7 312,-623.7 421,-623.7 421,-601.7 312,-601.7"/>
<text text-anchor="start" x="332" y="-608.8" font-family="Helvetica,sans-Serif" font-size="11.00" fill="#000000">plusinfo</text>
<polygon fill="none" stroke="#000000" points="421,-601.7 421,-623.7 540,-623.7 540,-601.7 421,-601.7"/>
<text text-anchor="start" x="424" y="-609.4" font-family="Helvetica,sans-Serif" font-size="11.00" fill="#000000">jsonb[2147483647]</text>
<polygon fill="#ffffff" stroke="transparent" points="312,-579.7 312,-601.7 421,-601.7 421,-579.7 312,-579.7"/>
<polygon fill="none" stroke="#000000" points="312,-579.7 312,-601.7 421,-601.7 421,-579.7 312,-579.7"/>
<image xlink:href="../../images/foreignKeys.png" width="11px" height="12px" preserveAspectRatio="xMinYMin meet" x="317" y="-596.7"/>
<text text-anchor="start" x="332" y="-586.8" font-family="Helvetica,sans-Serif" font-size="11.00" fill="#000000">object_uuid</text>
<polygon fill="none" stroke="#000000" points="421,-579.7 421,-601.7 540,-601.7 540,-579.7 421,-579.7"/>
<text text-anchor="start" x="424" y="-587.4" font-family="Helvetica,sans-Serif" font-size="11.00" fill="#000000">uuid[2147483647]</text>
<polygon fill="#ffffff" stroke="transparent" points="312,-557.7 312,-579.7 421,-579.7 421,-557.7 312,-557.7"/>
<polygon fill="none" stroke="#000000" points="312,-557.7 312,-579.7 421,-579.7 421,-557.7 312,-557.7"/>
<text text-anchor="start" x="332" y="-564.8" font-family="Helvetica,sans-Serif" font-size="11.00" fill="#000000">bouwlaag</text>
<polygon fill="none" stroke="#000000" points="421,-557.7 421,-579.7 540,-579.7 540,-557.7 421,-557.7"/>
<text text-anchor="start" x="424" y="-565.4" font-family="Helvetica,sans-Serif" font-size="11.00" fill="#000000">int2[5]</text>
<polygon fill="none" stroke="#000000" points="312,-535.7 312,-557.7 421,-557.7 421,-535.7 312,-535.7"/>
<text text-anchor="start" x="332" y="-542.8" font-family="Helvetica,sans-Serif" font-size="11.00" fill="#000000">bouwdeel</text>
<polygon fill="none" stroke="#000000" points="421,-535.7 421,-557.7 540,-557.7 540,-535.7 421,-535.7"/>
<text text-anchor="start" x="424" y="-543.4" font-family="Helvetica,sans-Serif" font-size="11.00" fill="#000000">text[2147483647]</text>
<polygon fill="none" stroke="#000000" points="312,-513.7 312,-535.7 421,-535.7 421,-513.7 312,-513.7"/>
<text text-anchor="start" x="332" y="-520.8" font-family="Helvetica,sans-Serif" font-size="11.00" fill="#000000">imbag_id</text>
<polygon fill="none" stroke="#000000" points="421,-513.7 421,-535.7 540,-535.7 540,-513.7 421,-513.7"/>
<text text-anchor="start" x="424" y="-521.4" font-family="Helvetica,sans-Serif" font-size="11.00" fill="#000000">text[2147483647]</text>
<polygon fill="none" stroke="#000000" points="312,-491.7 312,-513.7 421,-513.7 421,-491.7 312,-491.7"/>
<text text-anchor="start" x="332" y="-498.8" font-family="Helvetica,sans-Serif" font-size="11.00" fill="#000000">imgeo_id</text>
<polygon fill="none" stroke="#000000" points="421,-491.7 421,-513.7 540,-513.7 540,-491.7 421,-491.7"/>
<text text-anchor="start" x="424" y="-499.4" font-family="Helvetica,sans-Serif" font-size="11.00" fill="#000000">text[2147483647]</text>
<polygon fill="#ffffff" stroke="transparent" points="312,-469.7 312,-491.7 421,-491.7 421,-469.7 312,-469.7"/>
<polygon fill="none" stroke="#000000" points="312,-469.7 312,-491.7 421,-491.7 421,-469.7 312,-469.7"/>
<text text-anchor="start" x="332" y="-476.8" font-family="Helvetica,sans-Serif" font-size="11.00" fill="#000000">handmatig</text>
<polygon fill="none" stroke="#000000" points="421,-469.7 421,-491.7 540,-491.7 540,-469.7 421,-469.7"/>
<text text-anchor="start" x="424" y="-477.4" font-family="Helvetica,sans-Serif" font-size="11.00" fill="#000000">bool[1]</text>
<polygon fill="#ffffff" stroke="transparent" points="312,-450.7 312,-469.7 371,-469.7 371,-450.7 312,-450.7"/>
<polygon fill="none" stroke="#000000" points="312,-450.7 312,-469.7 371,-469.7 371,-450.7 312,-450.7"/>
<text text-anchor="start" x="315" y="-456.8" font-family="Helvetica,sans-Serif" font-size="11.00" fill="#000000">&lt; 1</text>
<polygon fill="#ffffff" stroke="transparent" points="371,-450.7 371,-469.7 421,-469.7 421,-450.7 371,-450.7"/>
<polygon fill="none" stroke="#000000" points="371,-450.7 371,-469.7 421,-469.7 421,-450.7 371,-450.7"/>
<text text-anchor="start" x="411.8862" y="-456.8" font-family="Helvetica,sans-Serif" font-size="11.00" fill="#000000"> &#160;</text>
<polygon fill="#ffffff" stroke="transparent" points="421,-450.7 421,-469.7 540,-469.7 540,-450.7 421,-450.7"/>
<polygon fill="none" stroke="#000000" points="421,-450.7 421,-469.7 540,-469.7 540,-450.7 421,-450.7"/>
<text text-anchor="start" x="521.4053" y="-456.8" font-family="Helvetica,sans-Serif" font-size="11.00" fill="#000000">0 &gt;</text>
<polygon fill="none" stroke="#000000" stroke-width="2" points="311,-449.7 311,-801.7 541,-801.7 541,-449.7 311,-449.7"/>
</a>
</g>
</g>
<!-- pand&#45;&gt;object -->
<g id="edge6" class="edge">
<title>pand:w&#45;&gt;object:e</title>
<path fill="none" stroke="#000000" d="M298.0064,-586.6965C272.8685,-568.1751 304.9126,-491.7 261.5,-491.7"/>
<polygon fill="#000000" stroke="#000000" points="304.3086,-588.4995 311.0098,-594.1611 308.1543,-589.5997 312,-590.7 312,-590.7 312,-590.7 308.1543,-589.5997 312.9902,-587.2389 304.3086,-588.4995 304.3086,-588.4995"/>
<ellipse fill="none" stroke="#000000" cx="301.232" cy="-587.6193" rx="3.2" ry="3.2"/>
</g>
<!-- risico -->
<g id="node8" class="node">
<title>risico</title>
<g id="a_node8"><a xlink:href="../../tables/risico.html" xlink:title="risico" target="_top">
<polygon fill="#ffffff" stroke="transparent" points="390.5,-366.2 390.5,-427.2 461.5,-427.2 461.5,-366.2 390.5,-366.2"/>
<polygon fill="#f5f5f5" stroke="transparent" points="391,-403.7 391,-426.7 462,-426.7 462,-403.7 391,-403.7"/>
<polygon fill="none" stroke="#000000" points="391,-403.7 391,-426.7 462,-426.7 462,-403.7 391,-403.7"/>
<text text-anchor="start" x="396" y="-412.3" font-family="Helvetica,sans-Serif" font-weight="bold" font-size="11.00" fill="#000000">risico</text>
<text text-anchor="start" x="427.5219" y="-411.8" font-family="Helvetica,sans-Serif" font-size="11.00" fill="#000000">[table]</text>
<polygon fill="none" stroke="#000000" points="391,-384.7 391,-403.7 462,-403.7 462,-384.7 391,-384.7"/>
<text text-anchor="start" x="394" y="-390.8" font-family="Helvetica,sans-Serif" font-size="11.00" fill="#000000">...</text>
<polygon fill="#ffffff" stroke="transparent" points="391,-365.7 391,-384.7 425,-384.7 425,-365.7 391,-365.7"/>
<polygon fill="none" stroke="#000000" points="391,-365.7 391,-384.7 425,-384.7 425,-365.7 391,-365.7"/>
<text text-anchor="start" x="394" y="-371.8" font-family="Helvetica,sans-Serif" font-size="11.00" fill="#000000">&lt; 2</text>
<polygon fill="#ffffff" stroke="transparent" points="425,-365.7 425,-384.7 443,-384.7 443,-365.7 425,-365.7"/>
<polygon fill="none" stroke="#000000" points="425,-365.7 425,-384.7 443,-384.7 443,-365.7 425,-365.7"/>
<text text-anchor="start" x="433.8862" y="-371.8" font-family="Helvetica,sans-Serif" font-size="11.00" fill="#000000"> &#160;</text>
<polygon fill="#ffffff" stroke="transparent" points="443,-365.7 443,-384.7 462,-384.7 462,-365.7 443,-365.7"/>
<polygon fill="none" stroke="#000000" points="443,-365.7 443,-384.7 462,-384.7 462,-365.7 443,-365.7"/>
<text text-anchor="start" x="452.8862" y="-371.8" font-family="Helvetica,sans-Serif" font-size="11.00" fill="#000000"> &#160;</text>
</a>
</g>
</g>
<!-- risico&#45;&gt;object -->
<g id="edge7" class="edge">
<title>risico:w&#45;&gt;object:e</title>
<path fill="none" stroke="#000000" d="M376.2805,-394.4247C343.7682,-397.9096 331.9654,-413.806 302,-438.7 279.1967,-457.644 291.1456,-491.7 261.5,-491.7"/>
<polygon fill="#000000" stroke="#000000" points="383.0097,-394.0934 391.177,-397.2956 387.0048,-393.8967 391,-393.7 391,-393.7 391,-393.7 387.0048,-393.8967 390.823,-390.1044 383.0097,-394.0934 383.0097,-394.0934"/>
<ellipse fill="none" stroke="#000000" cx="379.8135" cy="-394.2508" rx="3.2" ry="3.2"/>
</g>
<!-- scenario -->
<g id="node9" class="node">
<title>scenario</title>
<g id="a_node9"><a xlink:href="../../tables/scenario.html" xlink:title="scenario" target="_top">
<polygon fill="#ffffff" stroke="transparent" points="382,-284.2 382,-345.2 470,-345.2 470,-284.2 382,-284.2"/>
<polygon fill="#f5f5f5" stroke="transparent" points="382,-321.7 382,-344.7 470,-344.7 470,-321.7 382,-321.7"/>
<polygon fill="none" stroke="#000000" points="382,-321.7 382,-344.7 470,-344.7 470,-321.7 382,-321.7"/>
<text text-anchor="start" x="387" y="-330.3" font-family="Helvetica,sans-Serif" font-weight="bold" font-size="11.00" fill="#000000">scenario</text>
<text text-anchor="start" x="435.5219" y="-329.8" font-family="Helvetica,sans-Serif" font-size="11.00" fill="#000000">[table]</text>
<polygon fill="none" stroke="#000000" points="382,-302.7 382,-321.7 470,-321.7 470,-302.7 382,-302.7"/>
<text text-anchor="start" x="385" y="-308.8" font-family="Helvetica,sans-Serif" font-size="11.00" fill="#000000">...</text>
<polygon fill="#ffffff" stroke="transparent" points="382,-283.7 382,-302.7 424,-302.7 424,-283.7 382,-283.7"/>
<polygon fill="none" stroke="#000000" points="382,-283.7 382,-302.7 424,-302.7 424,-283.7 382,-283.7"/>
<text text-anchor="start" x="385" y="-289.8" font-family="Helvetica,sans-Serif" font-size="11.00" fill="#000000">&lt; 2</text>
<polygon fill="#ffffff" stroke="transparent" points="424,-283.7 424,-302.7 447,-302.7 447,-283.7 424,-283.7"/>
<polygon fill="none" stroke="#000000" points="424,-283.7 424,-302.7 447,-302.7 447,-283.7 424,-283.7"/>
<text text-anchor="start" x="437.8862" y="-289.8" font-family="Helvetica,sans-Serif" font-size="11.00" fill="#000000"> &#160;</text>
<polygon fill="#ffffff" stroke="transparent" points="447,-283.7 447,-302.7 470,-302.7 470,-283.7 447,-283.7"/>
<polygon fill="none" stroke="#000000" points="447,-283.7 447,-302.7 470,-302.7 470,-283.7 447,-283.7"/>
<text text-anchor="start" x="460.8862" y="-289.8" font-family="Helvetica,sans-Serif" font-size="11.00" fill="#000000"> &#160;</text>
</a>
</g>
</g>
<!-- scenario&#45;&gt;object -->
<g id="edge8" class="edge">
<title>scenario:w&#45;&gt;object:e</title>
<path fill="none" stroke="#000000" d="M367.5534,-312.3333C337.6342,-315.219 324.1904,-328.1856 302,-355.7 262.4076,-404.7915 324.5677,-491.7 261.5,-491.7"/>
<polygon fill="#000000" stroke="#000000" points="374.0077,-312.0504 382.1577,-315.2965 378.0038,-311.8752 382,-311.7 382,-311.7 382,-311.7 378.0038,-311.8752 381.8423,-308.1035 374.0077,-312.0504 374.0077,-312.0504"/>
<ellipse fill="none" stroke="#000000" cx="370.8107" cy="-312.1906" rx="3.2" ry="3.2"/>
</g>
<!-- scheiding -->
<g id="node10" class="node">
<title>scheiding</title>
<g id="a_node10"><a xlink:href="../../tables/scheiding.html" xlink:title="scheiding" target="_top">
<polygon fill="#ffffff" stroke="transparent" points="378.5,-202.2 378.5,-263.2 473.5,-263.2 473.5,-202.2 378.5,-202.2"/>
<polygon fill="#f5f5f5" stroke="transparent" points="379,-239.7 379,-262.7 474,-262.7 474,-239.7 379,-239.7"/>
<polygon fill="none" stroke="#000000" points="379,-239.7 379,-262.7 474,-262.7 474,-239.7 379,-239.7"/>
<text text-anchor="start" x="384" y="-248.3" font-family="Helvetica,sans-Serif" font-weight="bold" font-size="11.00" fill="#000000">scheiding</text>
<text text-anchor="start" x="439.5219" y="-247.8" font-family="Helvetica,sans-Serif" font-size="11.00" fill="#000000">[table]</text>
<polygon fill="none" stroke="#000000" points="379,-220.7 379,-239.7 474,-239.7 474,-220.7 379,-220.7"/>
<text text-anchor="start" x="382" y="-226.8" font-family="Helvetica,sans-Serif" font-size="11.00" fill="#000000">...</text>
<polygon fill="#ffffff" stroke="transparent" points="379,-201.7 379,-220.7 425,-220.7 425,-201.7 379,-201.7"/>
<polygon fill="none" stroke="#000000" points="379,-201.7 379,-220.7 425,-220.7 425,-201.7 379,-201.7"/>
<text text-anchor="start" x="382" y="-207.8" font-family="Helvetica,sans-Serif" font-size="11.00" fill="#000000">&lt; 2</text>
<polygon fill="#ffffff" stroke="transparent" points="425,-201.7 425,-220.7 449,-220.7 449,-201.7 425,-201.7"/>
<polygon fill="none" stroke="#000000" points="425,-201.7 425,-220.7 449,-220.7 449,-201.7 425,-201.7"/>
<text text-anchor="start" x="439.8862" y="-207.8" font-family="Helvetica,sans-Serif" font-size="11.00" fill="#000000"> &#160;</text>
<polygon fill="#ffffff" stroke="transparent" points="449,-201.7 449,-220.7 474,-220.7 474,-201.7 449,-201.7"/>
<polygon fill="none" stroke="#000000" points="449,-201.7 449,-220.7 474,-220.7 474,-201.7 449,-201.7"/>
<text text-anchor="start" x="464.8862" y="-207.8" font-family="Helvetica,sans-Serif" font-size="11.00" fill="#000000"> &#160;</text>
</a>
</g>
</g>
<!-- scheiding&#45;&gt;object -->
<g id="edge9" class="edge">
<title>scheiding:w&#45;&gt;object:e</title>
<path fill="none" stroke="#000000" d="M364.5236,-230.3477C335.5222,-233.2097 321.7952,-245.8349 302,-273.7 273.464,-313.8692 310.7734,-491.7 261.5,-491.7"/>
<polygon fill="#000000" stroke="#000000" points="371.008,-230.0576 379.1609,-233.2964 375.004,-229.8788 379,-229.7 379,-229.7 379,-229.7 375.004,-229.8788 378.8391,-226.1036 371.008,-230.0576 371.008,-230.0576"/>
<ellipse fill="none" stroke="#000000" cx="367.8112" cy="-230.2006" rx="3.2" ry="3.2"/>
</g>
<!-- sector -->
<g id="node11" class="node">
<title>sector</title>
<g id="a_node11"><a xlink:href="../../tables/sector.html" xlink:title="sector" target="_top">
<polygon fill="#ffffff" stroke="transparent" points="388.5,-120.2 388.5,-181.2 463.5,-181.2 463.5,-120.2 388.5,-120.2"/>
<polygon fill="#f5f5f5" stroke="transparent" points="389,-157.7 389,-180.7 464,-180.7 464,-157.7 389,-157.7"/>
<polygon fill="none" stroke="#000000" points="389,-157.7 389,-180.7 464,-180.7 464,-157.7 389,-157.7"/>
<text text-anchor="start" x="394" y="-166.3" font-family="Helvetica,sans-Serif" font-weight="bold" font-size="11.00" fill="#000000">sector</text>
<text text-anchor="start" x="429.5219" y="-165.8" font-family="Helvetica,sans-Serif" font-size="11.00" fill="#000000">[table]</text>
<polygon fill="none" stroke="#000000" points="389,-138.7 389,-157.7 464,-157.7 464,-138.7 389,-138.7"/>
<text text-anchor="start" x="392" y="-144.8" font-family="Helvetica,sans-Serif" font-size="11.00" fill="#000000">...</text>
<polygon fill="#ffffff" stroke="transparent" points="389,-119.7 389,-138.7 425,-138.7 425,-119.7 389,-119.7"/>
<polygon fill="none" stroke="#000000" points="389,-119.7 389,-138.7 425,-138.7 425,-119.7 389,-119.7"/>
<text text-anchor="start" x="392" y="-125.8" font-family="Helvetica,sans-Serif" font-size="11.00" fill="#000000">&lt; 2</text>
<polygon fill="#ffffff" stroke="transparent" points="425,-119.7 425,-138.7 444,-138.7 444,-119.7 425,-119.7"/>
<polygon fill="none" stroke="#000000" points="425,-119.7 425,-138.7 444,-138.7 444,-119.7 425,-119.7"/>
<text text-anchor="start" x="434.8862" y="-125.8" font-family="Helvetica,sans-Serif" font-size="11.00" fill="#000000"> &#160;</text>
<polygon fill="#ffffff" stroke="transparent" points="444,-119.7 444,-138.7 464,-138.7 464,-119.7 444,-119.7"/>
<polygon fill="none" stroke="#000000" points="444,-119.7 444,-138.7 464,-138.7 464,-119.7 444,-119.7"/>
<text text-anchor="start" x="454.8862" y="-125.8" font-family="Helvetica,sans-Serif" font-size="11.00" fill="#000000"> &#160;</text>
</a>
</g>
</g>
<!-- sector&#45;&gt;object -->
<g id="edge10" class="edge">
<title>sector:w&#45;&gt;object:e</title>
<path fill="none" stroke="#000000" d="M374.2933,-148.1143C341.0805,-150.1957 324.0774,-160.6688 302,-191.7 263.002,-246.5142 328.7714,-491.7 261.5,-491.7"/>
<polygon fill="#000000" stroke="#000000" points="381.0032,-147.9253 389.1014,-151.2986 385.0016,-147.8127 389,-147.7 389,-147.7 389,-147.7 385.0016,-147.8127 388.8986,-144.1014 381.0032,-147.9253 381.0032,-147.9253"/>
<ellipse fill="none" stroke="#000000" cx="377.8044" cy="-148.0154" rx="3.2" ry="3.2"/>
</g>
<!-- voorziening -->
<g id="node12" class="node">
<title>voorziening</title>
<g id="a_node12"><a xlink:href="../../tables/voorziening.html" xlink:title="voorziening" target="_top">
<polygon fill="#ffffff" stroke="transparent" points="373,-38.2 373,-99.2 479,-99.2 479,-38.2 373,-38.2"/>
<polygon fill="#f5f5f5" stroke="transparent" points="373,-75.7 373,-98.7 479,-98.7 479,-75.7 373,-75.7"/>
<polygon fill="none" stroke="#000000" points="373,-75.7 373,-98.7 479,-98.7 479,-75.7 373,-75.7"/>
<text text-anchor="start" x="378" y="-84.3" font-family="Helvetica,sans-Serif" font-weight="bold" font-size="11.00" fill="#000000">voorziening</text>
<text text-anchor="start" x="444.5219" y="-83.8" font-family="Helvetica,sans-Serif" font-size="11.00" fill="#000000">[table]</text>
<polygon fill="none" stroke="#000000" points="373,-56.7 373,-75.7 479,-75.7 479,-56.7 373,-56.7"/>
<text text-anchor="start" x="376" y="-62.8" font-family="Helvetica,sans-Serif" font-size="11.00" fill="#000000">...</text>
<polygon fill="#ffffff" stroke="transparent" points="373,-37.7 373,-56.7 424,-56.7 424,-37.7 373,-37.7"/>
<polygon fill="none" stroke="#000000" points="373,-37.7 373,-56.7 424,-56.7 424,-37.7 373,-37.7"/>
<text text-anchor="start" x="376" y="-43.8" font-family="Helvetica,sans-Serif" font-size="11.00" fill="#000000">&lt; 2</text>
<polygon fill="#ffffff" stroke="transparent" points="424,-37.7 424,-56.7 451,-56.7 451,-37.7 424,-37.7"/>
<polygon fill="none" stroke="#000000" points="424,-37.7 424,-56.7 451,-56.7 451,-37.7 424,-37.7"/>
<text text-anchor="start" x="441.8862" y="-43.8" font-family="Helvetica,sans-Serif" font-size="11.00" fill="#000000"> &#160;</text>
<polygon fill="#ffffff" stroke="transparent" points="451,-37.7 451,-56.7 479,-56.7 479,-37.7 451,-37.7"/>
<polygon fill="none" stroke="#000000" points="451,-37.7 451,-56.7 479,-56.7 479,-37.7 451,-37.7"/>
<text text-anchor="start" x="469.8862" y="-43.8" font-family="Helvetica,sans-Serif" font-size="11.00" fill="#000000"> &#160;</text>
</a>
</g>
</g>
<!-- voorziening&#45;&gt;object -->
<g id="edge11" class="edge">
<title>voorziening:w&#45;&gt;object:e</title>
<path fill="none" stroke="#000000" d="M358.2579,-66.5063C331.6742,-69.7257 318.8915,-82.8065 302,-109.7 256.5965,-181.9886 346.8646,-491.7 261.5,-491.7"/>
<polygon fill="#000000" stroke="#000000" points="365.0119,-66.137 373.1966,-69.2946 369.006,-65.9185 373,-65.7 373,-65.7 373,-65.7 369.006,-65.9185 372.8034,-62.1054 365.0119,-66.137 365.0119,-66.137"/>
<ellipse fill="none" stroke="#000000" cx="361.8167" cy="-66.3118" rx="3.2" ry="3.2"/>
</g>
</g>
</svg>
