<?xml version="1.0" encoding="UTF-8" standalone="no"?>
<!DOCTYPE svg PUBLIC "-//W3C//DTD SVG 1.1//EN"
 "http://www.w3.org/Graphics/SVG/1.1/DTD/svg11.dtd">
<!-- Generated by graphviz version 2.40.1 (20161225.0304)
 -->
<!-- Title: oneDegreeRelationshipsDiagram Pages: 1 -->
<svg width="428pt" height="404pt"
 viewBox="0.00 0.00 428.00 404.20" xmlns="http://www.w3.org/2000/svg" xmlns:xlink="http://www.w3.org/1999/xlink">
<g id="graph0" class="graph" transform="scale(1 1) rotate(0) translate(4 400.2)">
<title>oneDegreeRelationshipsDiagram</title>
<polygon fill="#ffffff" stroke="transparent" points="-4,4 -4,-400.2 424,-400.2 424,4 -4,4"/>
<text text-anchor="middle" x="72.4936" y="-7.3" font-family="Helvetica,sans-Serif" font-size="11.00" fill="#000000">Generated by SchemaSpy</text>
<!-- pand -->
<g id="node1" class="node">
<title>pand</title>
<g id="a_node1"><a xlink:href="../../tables/pand.html" xlink:title="pand" target="_top">
<polygon fill="#ffffff" stroke="transparent" points="180,-38.2 180,-392.2 412,-392.2 412,-38.2 180,-38.2"/>
<polygon fill="#f5f5f5" stroke="transparent" points="182,-367.2 182,-390.2 410,-390.2 410,-367.2 182,-367.2"/>
<polygon fill="none" stroke="#000000" points="182,-367.2 182,-390.2 410,-390.2 410,-367.2 182,-367.2"/>
<text text-anchor="start" x="186.7702" y="-375.8" font-family="Helvetica,sans-Serif" font-weight="bold" font-size="11.00" fill="#000000">pand</text>
<text text-anchor="start" x="375.0437" y="-375.3" font-family="Helvetica,sans-Serif" font-size="11.00" fill="#000000">[table]</text>
<polygon fill="none" stroke="#000000" points="182,-345.2 182,-367.2 291,-367.2 291,-345.2 182,-345.2"/>
<image xlink:href="../../images/primaryKeys.png" width="11px" height="12px" preserveAspectRatio="xMinYMin meet" x="187" y="-362.2"/>
<text text-anchor="start" x="202" y="-352.3" font-family="Helvetica,sans-Serif" font-size="11.00" fill="#000000">uuid</text>
<polygon fill="none" stroke="#000000" points="291,-345.2 291,-367.2 410,-367.2 410,-345.2 291,-345.2"/>
<text text-anchor="start" x="294" y="-352.9" font-family="Helvetica,sans-Serif" font-size="11.00" fill="#000000">uuid[2147483647]</text>
<polygon fill="#ffffff" stroke="transparent" points="182,-323.2 182,-345.2 291,-345.2 291,-323.2 182,-323.2"/>
<polygon fill="none" stroke="#000000" points="182,-323.2 182,-345.2 291,-345.2 291,-323.2 182,-323.2"/>
<text text-anchor="start" x="202" y="-330.3" font-family="Helvetica,sans-Serif" font-size="11.00" fill="#000000">geom</text>
<polygon fill="none" stroke="#000000" points="291,-323.2 291,-345.2 410,-345.2 410,-323.2 291,-323.2"/>
<text text-anchor="start" x="293.9485" y="-330.9" font-family="Helvetica,sans-Serif" font-size="11.00" fill="#000000">geometry[2147483647]</text>
<polygon fill="none" stroke="#000000" points="182,-301.2 182,-323.2 291,-323.2 291,-301.2 182,-301.2"/>
<text text-anchor="start" x="202" y="-308.3" font-family="Helvetica,sans-Serif" font-size="11.00" fill="#000000">datumtijd</text>
<polygon fill="none" stroke="#000000" points="291,-301.2 291,-323.2 410,-323.2 410,-301.2 291,-301.2"/>
<text text-anchor="start" x="294" y="-308.9" font-family="Helvetica,sans-Serif" font-size="11.00" fill="#000000">timestamptz[35,6]</text>
<polygon fill="none" stroke="#000000" points="182,-279.2 182,-301.2 291,-301.2 291,-279.2 182,-279.2"/>
<text text-anchor="start" x="202" y="-286.3" font-family="Helvetica,sans-Serif" font-size="11.00" fill="#000000">gebruiker</text>
<polygon fill="none" stroke="#000000" points="291,-279.2 291,-301.2 410,-301.2 410,-279.2 291,-279.2"/>
<text text-anchor="start" x="294" y="-286.9" font-family="Helvetica,sans-Serif" font-size="11.00" fill="#000000">varchar[255]</text>
<polygon fill="none" stroke="#000000" points="182,-257.2 182,-279.2 291,-279.2 291,-257.2 182,-257.2"/>
<text text-anchor="start" x="202" y="-264.3" font-family="Helvetica,sans-Serif" font-size="11.00" fill="#000000">label</text>
<polygon fill="none" stroke="#000000" points="291,-257.2 291,-279.2 410,-279.2 410,-257.2 291,-257.2"/>
<text text-anchor="start" x="294" y="-264.9" font-family="Helvetica,sans-Serif" font-size="11.00" fill="#000000">text[2147483647]</text>
<polygon fill="none" stroke="#000000" points="182,-235.2 182,-257.2 291,-257.2 291,-235.2 182,-235.2"/>
<text text-anchor="start" x="202" y="-242.3" font-family="Helvetica,sans-Serif" font-size="11.00" fill="#000000">rotatie</text>
<polygon fill="none" stroke="#000000" points="291,-235.2 291,-257.2 410,-257.2 410,-235.2 291,-235.2"/>
<text text-anchor="start" x="294" y="-242.9" font-family="Helvetica,sans-Serif" font-size="11.00" fill="#000000">int4[10]</text>
<polygon fill="none" stroke="#000000" points="182,-213.2 182,-235.2 291,-235.2 291,-213.2 182,-213.2"/>
<text text-anchor="start" x="202" y="-220.3" font-family="Helvetica,sans-Serif" font-size="11.00" fill="#000000">bijzonderheden</text>
<polygon fill="none" stroke="#000000" points="291,-213.2 291,-235.2 410,-235.2 410,-213.2 291,-213.2"/>
<text text-anchor="start" x="294" y="-220.9" font-family="Helvetica,sans-Serif" font-size="11.00" fill="#000000">text[2147483647]</text>
<polygon fill="none" stroke="#000000" points="182,-191.2 182,-213.2 291,-213.2 291,-191.2 182,-191.2"/>
<text text-anchor="start" x="202" y="-198.3" font-family="Helvetica,sans-Serif" font-size="11.00" fill="#000000">plusinfo</text>
<polygon fill="none" stroke="#000000" points="291,-191.2 291,-213.2 410,-213.2 410,-191.2 291,-191.2"/>
<text text-anchor="start" x="294" y="-198.9" font-family="Helvetica,sans-Serif" font-size="11.00" fill="#000000">jsonb[2147483647]</text>
<polygon fill="#ffffff" stroke="transparent" points="182,-169.2 182,-191.2 291,-191.2 291,-169.2 182,-169.2"/>
<polygon fill="none" stroke="#000000" points="182,-169.2 182,-191.2 291,-191.2 291,-169.2 182,-169.2"/>
<image xlink:href="../../images/foreignKeys.png" width="11px" height="12px" preserveAspectRatio="xMinYMin meet" x="187" y="-186.2"/>
<text text-anchor="start" x="202" y="-176.3" font-family="Helvetica,sans-Serif" font-size="11.00" fill="#000000">object_uuid</text>
<polygon fill="none" stroke="#000000" points="291,-169.2 291,-191.2 410,-191.2 410,-169.2 291,-169.2"/>
<text text-anchor="start" x="294" y="-176.9" font-family="Helvetica,sans-Serif" font-size="11.00" fill="#000000">uuid[2147483647]</text>
<polygon fill="#ffffff" stroke="transparent" points="182,-147.2 182,-169.2 291,-169.2 291,-147.2 182,-147.2"/>
<polygon fill="none" stroke="#000000" points="182,-147.2 182,-169.2 291,-169.2 291,-147.2 182,-147.2"/>
<text text-anchor="start" x="202" y="-154.3" font-family="Helvetica,sans-Serif" font-size="11.00" fill="#000000">bouwlaag</text>
<polygon fill="none" stroke="#000000" points="291,-147.2 291,-169.2 410,-169.2 410,-147.2 291,-147.2"/>
<text text-anchor="start" x="294" y="-154.9" font-family="Helvetica,sans-Serif" font-size="11.00" fill="#000000">int2[5]</text>
<polygon fill="none" stroke="#000000" points="182,-125.2 182,-147.2 291,-147.2 291,-125.2 182,-125.2"/>
<text text-anchor="start" x="202" y="-132.3" font-family="Helvetica,sans-Serif" font-size="11.00" fill="#000000">bouwdeel</text>
<polygon fill="none" stroke="#000000" points="291,-125.2 291,-147.2 410,-147.2 410,-125.2 291,-125.2"/>
<text text-anchor="start" x="294" y="-132.9" font-family="Helvetica,sans-Serif" font-size="11.00" fill="#000000">text[2147483647]</text>
<polygon fill="none" stroke="#000000" points="182,-103.2 182,-125.2 291,-125.2 291,-103.2 182,-103.2"/>
<text text-anchor="start" x="202" y="-110.3" font-family="Helvetica,sans-Serif" font-size="11.00" fill="#000000">imbag_id</text>
<polygon fill="none" stroke="#000000" points="291,-103.2 291,-125.2 410,-125.2 410,-103.2 291,-103.2"/>
<text text-anchor="start" x="294" y="-110.9" font-family="Helvetica,sans-Serif" font-size="11.00" fill="#000000">text[2147483647]</text>
<polygon fill="none" stroke="#000000" points="182,-81.2 182,-103.2 291,-103.2 291,-81.2 182,-81.2"/>
<text text-anchor="start" x="202" y="-88.3" font-family="Helvetica,sans-Serif" font-size="11.00" fill="#000000">imgeo_id</text>
<polygon fill="none" stroke="#000000" points="291,-81.2 291,-103.2 410,-103.2 410,-81.2 291,-81.2"/>
<text text-anchor="start" x="294" y="-88.9" font-family="Helvetica,sans-Serif" font-size="11.00" fill="#000000">text[2147483647]</text>
<polygon fill="#ffffff" stroke="transparent" points="182,-59.2 182,-81.2 291,-81.2 291,-59.2 182,-59.2"/>
<polygon fill="none" stroke="#000000" points="182,-59.2 182,-81.2 291,-81.2 291,-59.2 182,-59.2"/>
<text text-anchor="start" x="202" y="-66.3" font-family="Helvetica,sans-Serif" font-size="11.00" fill="#000000">handmatig</text>
<polygon fill="none" stroke="#000000" points="291,-59.2 291,-81.2 410,-81.2 410,-59.2 291,-59.2"/>
<text text-anchor="start" x="294" y="-66.9" font-family="Helvetica,sans-Serif" font-size="11.00" fill="#000000">bool[1]</text>
<polygon fill="#ffffff" stroke="transparent" points="182,-40.2 182,-59.2 241,-59.2 241,-40.2 182,-40.2"/>
<polygon fill="none" stroke="#000000" points="182,-40.2 182,-59.2 241,-59.2 241,-40.2 182,-40.2"/>
<text text-anchor="start" x="185" y="-46.3" font-family="Helvetica,sans-Serif" font-size="11.00" fill="#000000">&lt; 1</text>
<polygon fill="#ffffff" stroke="transparent" points="241,-40.2 241,-59.2 291,-59.2 291,-40.2 241,-40.2"/>
<polygon fill="none" stroke="#000000" points="241,-40.2 241,-59.2 291,-59.2 291,-40.2 241,-40.2"/>
<text text-anchor="start" x="281.8862" y="-46.3" font-family="Helvetica,sans-Serif" font-size="11.00" fill="#000000"> &#160;</text>
<polygon fill="#ffffff" stroke="transparent" points="291,-40.2 291,-59.2 410,-59.2 410,-40.2 291,-40.2"/>
<polygon fill="none" stroke="#000000" points="291,-40.2 291,-59.2 410,-59.2 410,-40.2 291,-40.2"/>
<text text-anchor="start" x="391.4053" y="-46.3" font-family="Helvetica,sans-Serif" font-size="11.00" fill="#000000">0 &gt;</text>
<polygon fill="none" stroke="#000000" stroke-width="2" points="181,-39.2 181,-391.2 411,-391.2 411,-39.2 181,-39.2"/>
</a>
</g>
</g>
<!-- object -->
<g id="node2" class="node">
<title>object</title>
<g id="a_node2"><a xlink:href="../../tables/object.html" xlink:title="object" target="_top">
<polygon fill="#ffffff" stroke="transparent" points="8,-65.7 8,-214.7 131,-214.7 131,-65.7 8,-65.7"/>
<polygon fill="#f5f5f5" stroke="transparent" points="8.5,-191.2 8.5,-214.2 131.5,-214.2 131.5,-191.2 8.5,-191.2"/>
<polygon fill="none" stroke="#000000" points="8.5,-191.2 8.5,-214.2 131.5,-214.2 131.5,-191.2 8.5,-191.2"/>
<text text-anchor="start" x="13.5" y="-199.8" font-family="Helvetica,sans-Serif" font-weight="bold" font-size="11.00" fill="#000000">object</text>
<text text-anchor="start" x="96.5437" y="-199.3" font-family="Helvetica,sans-Serif" font-size="11.00" fill="#000000">[table]</text>
<polygon fill="none" stroke="#000000" points="8.5,-169.2 8.5,-191.2 131.5,-191.2 131.5,-169.2 8.5,-169.2"/>
<image xlink:href="../../images/primaryKeys.png" width="11px" height="12px" preserveAspectRatio="xMinYMin meet" x="13.5" y="-186.2"/>
<text text-anchor="start" x="28.5" y="-176.3" font-family="Helvetica,sans-Serif" font-size="11.00" fill="#000000">uuid</text>
<polygon fill="#ffffff" stroke="transparent" points="8.5,-147.2 8.5,-169.2 131.5,-169.2 131.5,-147.2 8.5,-147.2"/>
<polygon fill="none" stroke="#000000" points="8.5,-147.2 8.5,-169.2 131.5,-169.2 131.5,-147.2 8.5,-147.2"/>
<text text-anchor="start" x="28.5" y="-154.3" font-family="Helvetica,sans-Serif" font-size="11.00" fill="#000000">geom</text>
<polygon fill="#ffffff" stroke="transparent" points="8.5,-125.2 8.5,-147.2 131.5,-147.2 131.5,-125.2 8.5,-125.2"/>
<polygon fill="none" stroke="#000000" points="8.5,-125.2 8.5,-147.2 131.5,-147.2 131.5,-125.2 8.5,-125.2"/>
<text text-anchor="start" x="28.5" y="-132.3" font-family="Helvetica,sans-Serif" font-size="11.00" fill="#000000">revisie_frequentie</text>
<polygon fill="#ffffff" stroke="transparent" points="8.5,-103.2 8.5,-125.2 131.5,-125.2 131.5,-103.2 8.5,-103.2"/>
<polygon fill="none" stroke="#000000" points="8.5,-103.2 8.5,-125.2 131.5,-125.2 131.5,-103.2 8.5,-103.2"/>
<image xlink:href="../../images/foreignKeys.png" width="11px" height="12px" preserveAspectRatio="xMinYMin meet" x="13.5" y="-120.2"/>
<text text-anchor="start" x="28.5" y="-110.3" font-family="Helvetica,sans-Serif" font-size="11.00" fill="#000000">fase_id</text>
<polygon fill="none" stroke="#000000" points="8.5,-84.2 8.5,-103.2 131.5,-103.2 131.5,-84.2 8.5,-84.2"/>
<text text-anchor="start" x="11.5" y="-90.3" font-family="Helvetica,sans-Serif" font-size="11.00" fill="#000000">...</text>
<polygon fill="#ffffff" stroke="transparent" points="8.5,-65.2 8.5,-84.2 60.5,-84.2 60.5,-65.2 8.5,-65.2"/>
<polygon fill="none" stroke="#000000" points="8.5,-65.2 8.5,-84.2 60.5,-84.2 60.5,-65.2 8.5,-65.2"/>
<text text-anchor="start" x="11.5" y="-71.3" font-family="Helvetica,sans-Serif" font-size="11.00" fill="#000000">&lt; 1</text>
<polygon fill="#ffffff" stroke="transparent" points="60.5,-65.2 60.5,-84.2 88.5,-84.2 88.5,-65.2 60.5,-65.2"/>
<polygon fill="none" stroke="#000000" points="60.5,-65.2 60.5,-84.2 88.5,-84.2 88.5,-65.2 60.5,-65.2"/>
<text text-anchor="start" x="79.3862" y="-71.3" font-family="Helvetica,sans-Serif" font-size="11.00" fill="#000000"> &#160;</text>
<polygon fill="#ffffff" stroke="transparent" points="88.5,-65.2 88.5,-84.2 131.5,-84.2 131.5,-65.2 88.5,-65.2"/>
<polygon fill="none" stroke="#000000" points="88.5,-65.2 88.5,-84.2 131.5,-84.2 131.5,-65.2 88.5,-65.2"/>
<text text-anchor="start" x="106.7904" y="-71.3" font-family="Helvetica,sans-Serif" font-size="11.00" fill="#000000">10 &gt;</text>
</a>
</g>
</g>
<!-- pand&#45;&gt;object -->
<g id="edge1" class="edge">
<title>pand:w&#45;&gt;object:e</title>
<path fill="none" stroke="#000000" d="M167.4203,-180.2C155.5435,-180.2 148.158,-180.2 131.5,-180.2"/>
<polygon fill="#000000" stroke="#000000" points="174,-180.2001 182,-183.8 178,-180.2 182,-180.2 182,-180.2 182,-180.2 178,-180.2 182,-176.6 174,-180.2001 174,-180.2001"/>
<ellipse fill="none" stroke="#000000" cx="170.8" cy="-180.2001" rx="3.2" ry="3.2"/>
</g>
</g>
</svg>
