<?xml version="1.0" encoding="UTF-8" standalone="no"?>
<!DOCTYPE svg PUBLIC "-//W3C//DTD SVG 1.1//EN"
 "http://www.w3.org/Graphics/SVG/1.1/DTD/svg11.dtd">
<!-- Generated by graphviz version 2.50.0 (0)
 -->
<!-- Title: twoDegreesRelationshipsDiagram Pages: 1 -->
<svg width="604pt" height="1112pt"
 viewBox="0.00 0.00 604.00 1112.00" xmlns="http://www.w3.org/2000/svg" xmlns:xlink="http://www.w3.org/1999/xlink">
<g id="graph0" class="graph" transform="scale(1 1) rotate(0) translate(4 1108)">
<title>twoDegreesRelationshipsDiagram</title>
<polygon fill="#ffffff" stroke="transparent" points="-4,4 -4,-1108 600,-1108 600,4 -4,4"/>
<text text-anchor="middle" x="79.5" y="-7.2" font-family="Helvetica,sans-Serif" font-size="11.00">Generated by SchemaSpy</text>
<!-- bereikbaarheid -->
<g id="node1" class="node">
<title>bereikbaarheid</title>
<g id="a_node1"><a xlink:href="../../tables/bereikbaarheid.html" xlink:title="bereikbaarheid" target="_top">
<polygon fill="#ffffff" stroke="transparent" points="388.5,-1042 388.5,-1100 533.5,-1100 533.5,-1042 388.5,-1042"/>
<polygon fill="#f5f5f5" stroke="transparent" points="389,-1078 389,-1100 534,-1100 534,-1078 389,-1078"/>
<polygon fill="none" stroke="black" points="389,-1078 389,-1100 534,-1100 534,-1078 389,-1078"/>
<text text-anchor="start" x="394" y="-1087.2" font-family="Helvetica,sans-Serif" font-weight="bold" font-size="11.00">bereikbaarheid</text>
<text text-anchor="start" x="492" y="-1086.2" font-family="Helvetica,sans-Serif" font-size="11.00">[table]</text>
<polygon fill="none" stroke="black" points="389,-1060 389,-1078 534,-1078 534,-1060 389,-1060"/>
<text text-anchor="start" x="392" y="-1066.2" font-family="Helvetica,sans-Serif" font-size="11.00">...</text>
<polygon fill="#ffffff" stroke="transparent" points="389,-1042 389,-1060 460,-1060 460,-1042 389,-1042"/>
<polygon fill="none" stroke="black" points="389,-1042 389,-1060 460,-1060 460,-1042 389,-1042"/>
<text text-anchor="start" x="392" y="-1048.2" font-family="Helvetica,sans-Serif" font-size="11.00">&lt; 2</text>
<polygon fill="#ffffff" stroke="transparent" points="460,-1042 460,-1060 497,-1060 497,-1042 460,-1042"/>
<polygon fill="none" stroke="black" points="460,-1042 460,-1060 497,-1060 497,-1042 460,-1042"/>
<text text-anchor="start" x="486" y="-1048.2" font-family="Helvetica,sans-Serif" font-size="11.00"> &#160;</text>
<polygon fill="#ffffff" stroke="transparent" points="497,-1042 497,-1060 534,-1060 534,-1042 497,-1042"/>
<polygon fill="none" stroke="black" points="497,-1042 497,-1060 534,-1060 534,-1042 497,-1042"/>
<text text-anchor="start" x="523" y="-1048.2" font-family="Helvetica,sans-Serif" font-size="11.00"> &#160;</text>
</a>
</g>
</g>
<!-- object -->
<g id="node2" class="node">
<title>object</title>
<g id="a_node2"><a xlink:href="../../tables/object.html" xlink:title="object" target="_top">
<polygon fill="#ffffff" stroke="transparent" points="156,-363 156,-509 285,-509 285,-363 156,-363"/>
<polygon fill="#f5f5f5" stroke="transparent" points="156.5,-487 156.5,-509 285.5,-509 285.5,-487 156.5,-487"/>
<polygon fill="none" stroke="black" points="156.5,-487 156.5,-509 285.5,-509 285.5,-487 156.5,-487"/>
<text text-anchor="start" x="161.5" y="-496.2" font-family="Helvetica,sans-Serif" font-weight="bold" font-size="11.00">object</text>
<text text-anchor="start" x="243.5" y="-495.2" font-family="Helvetica,sans-Serif" font-size="11.00">[table]</text>
<polygon fill="none" stroke="black" points="156.5,-465 156.5,-487 285.5,-487 285.5,-465 156.5,-465"/>
<image xlink:href="../../images/primaryKeys.png" width="11px" height="12px" preserveAspectRatio="xMinYMin meet" x="161.5" y="-482"/>
<text text-anchor="start" x="176.5" y="-473.2" font-family="Helvetica,sans-Serif" font-size="11.00">uuid</text>
<polygon fill="#ffffff" stroke="transparent" points="156.5,-443 156.5,-465 285.5,-465 285.5,-443 156.5,-443"/>
<polygon fill="none" stroke="black" points="156.5,-443 156.5,-465 285.5,-465 285.5,-443 156.5,-443"/>
<text text-anchor="start" x="176.5" y="-451.2" font-family="Helvetica,sans-Serif" font-size="11.00">geom</text>
<polygon fill="#ffffff" stroke="transparent" points="156.5,-421 156.5,-443 285.5,-443 285.5,-421 156.5,-421"/>
<polygon fill="none" stroke="black" points="156.5,-421 156.5,-443 285.5,-443 285.5,-421 156.5,-421"/>
<text text-anchor="start" x="176.5" y="-429.2" font-family="Helvetica,sans-Serif" font-size="11.00">revisie_frequentie</text>
<polygon fill="#ffffff" stroke="transparent" points="156.5,-399 156.5,-421 285.5,-421 285.5,-399 156.5,-399"/>
<polygon fill="none" stroke="black" points="156.5,-399 156.5,-421 285.5,-421 285.5,-399 156.5,-399"/>
<image xlink:href="../../images/foreignKeys.png" width="11px" height="12px" preserveAspectRatio="xMinYMin meet" x="161.5" y="-416"/>
<text text-anchor="start" x="176.5" y="-407.2" font-family="Helvetica,sans-Serif" font-size="11.00">fase_id</text>
<polygon fill="none" stroke="black" points="156.5,-381 156.5,-399 285.5,-399 285.5,-381 156.5,-381"/>
<text text-anchor="start" x="159.5" y="-387.2" font-family="Helvetica,sans-Serif" font-size="11.00">...</text>
<polygon fill="#ffffff" stroke="transparent" points="156.5,-363 156.5,-381 210.5,-381 210.5,-363 156.5,-363"/>
<polygon fill="none" stroke="black" points="156.5,-363 156.5,-381 210.5,-381 210.5,-363 156.5,-363"/>
<text text-anchor="start" x="159.5" y="-369.2" font-family="Helvetica,sans-Serif" font-size="11.00">&lt; 1</text>
<polygon fill="#ffffff" stroke="transparent" points="210.5,-363 210.5,-381 238.5,-381 238.5,-363 210.5,-363"/>
<polygon fill="none" stroke="black" points="210.5,-363 210.5,-381 238.5,-381 238.5,-363 210.5,-363"/>
<text text-anchor="start" x="227.5" y="-369.2" font-family="Helvetica,sans-Serif" font-size="11.00"> &#160;</text>
<polygon fill="#ffffff" stroke="transparent" points="238.5,-363 238.5,-381 285.5,-381 285.5,-363 238.5,-363"/>
<polygon fill="none" stroke="black" points="238.5,-363 238.5,-381 285.5,-381 285.5,-363 238.5,-363"/>
<text text-anchor="start" x="255.5" y="-369.2" font-family="Helvetica,sans-Serif" font-size="11.00">10 &gt;</text>
</a>
</g>
</g>
<!-- bereikbaarheid&#45;&gt;object -->
<g id="edge1" class="edge">
<title>bereikbaarheid:w&#45;&gt;object:e</title>
<path fill="none" stroke="black" d="M373.33,-1068.14C351.41,-1065.25 340,-1054.74 326,-1032 293.53,-979.26 348.43,-476 286.5,-476"/>
<polygon fill="black" stroke="black" points="380.01,-1068.53 387.79,-1072.59 384.01,-1068.77 388,-1069 388,-1069 388,-1069 384.01,-1068.77 388.21,-1065.41 380.01,-1068.53 380.01,-1068.53"/>
<ellipse fill="none" stroke="black" cx="376.82" cy="-1068.35" rx="3.2" ry="3.2"/>
</g>
<!-- roi.fase -->
<g id="node5" class="node">
<title>roi.fase</title>
<g id="a_node5"><a xlink:href="../../../roi/tables/fase.html" xlink:title="roi.fase" target="_top">
<polygon fill="#ffffff" stroke="transparent" points="8,-383 8,-441 107,-441 107,-383 8,-383"/>
<polygon fill="#f5f5f5" stroke="transparent" points="8.5,-419 8.5,-441 107.5,-441 107.5,-419 8.5,-419"/>
<polygon fill="none" stroke="black" points="8.5,-419 8.5,-441 107.5,-441 107.5,-419 8.5,-419"/>
<text text-anchor="start" x="13.5" y="-428.2" font-family="Helvetica,sans-Serif" font-weight="bold" font-size="11.00">roi.fase</text>
<text text-anchor="start" x="65.5" y="-427.2" font-family="Helvetica,sans-Serif" font-size="11.00">[table]</text>
<polygon fill="none" stroke="black" points="8.5,-401 8.5,-419 107.5,-419 107.5,-401 8.5,-401"/>
<text text-anchor="start" x="11.5" y="-407.2" font-family="Helvetica,sans-Serif" font-size="11.00">...</text>
<polygon fill="#ffffff" stroke="transparent" points="8.5,-383 8.5,-401 44.5,-401 44.5,-383 8.5,-383"/>
<polygon fill="none" stroke="black" points="8.5,-383 8.5,-401 44.5,-401 44.5,-383 8.5,-383"/>
<text text-anchor="start" x="11.5" y="-389.2" font-family="Helvetica,sans-Serif" font-size="11.00"> &#160;</text>
<polygon fill="#ffffff" stroke="transparent" points="44.5,-383 44.5,-401 69.5,-401 69.5,-383 44.5,-383"/>
<polygon fill="none" stroke="black" points="44.5,-383 44.5,-401 69.5,-401 69.5,-383 44.5,-383"/>
<text text-anchor="start" x="58.5" y="-389.2" font-family="Helvetica,sans-Serif" font-size="11.00"> &#160;</text>
<polygon fill="#ffffff" stroke="transparent" points="69.5,-383 69.5,-401 107.5,-401 107.5,-383 69.5,-383"/>
<polygon fill="none" stroke="black" points="69.5,-383 69.5,-401 107.5,-401 107.5,-383 69.5,-383"/>
<text text-anchor="start" x="84.5" y="-389.2" font-family="Helvetica,sans-Serif" font-size="11.00">1 &gt;</text>
</a>
</g>
</g>
<!-- object&#45;&gt;roi.fase -->
<g id="edge4" class="edge">
<title>object:w&#45;&gt;roi.fase:e</title>
<path fill="none" stroke="black" d="M140.9,-410C130.43,-410 123.51,-410 108.5,-410"/>
<polygon fill="black" stroke="black" points="147.5,-410 155.5,-413.6 151.5,-410 155.5,-410 155.5,-410 155.5,-410 151.5,-410 155.5,-406.4 147.5,-410 147.5,-410"/>
<ellipse fill="none" stroke="black" cx="144.3" cy="-410" rx="3.2" ry="3.2"/>
</g>
<!-- gevaarlijkestof -->
<g id="node3" class="node">
<title>gevaarlijkestof</title>
<g id="a_node3"><a xlink:href="../../tables/gevaarlijkestof.html" xlink:title="gevaarlijkestof" target="_top">
<polygon fill="#ffffff" stroke="transparent" points="389,-963 389,-1021 533,-1021 533,-963 389,-963"/>
<polygon fill="#f5f5f5" stroke="transparent" points="389,-999 389,-1021 533,-1021 533,-999 389,-999"/>
<polygon fill="none" stroke="black" points="389,-999 389,-1021 533,-1021 533,-999 389,-999"/>
<text text-anchor="start" x="394" y="-1008.2" font-family="Helvetica,sans-Serif" font-weight="bold" font-size="11.00">gevaarlijkestof</text>
<text text-anchor="start" x="491" y="-1007.2" font-family="Helvetica,sans-Serif" font-size="11.00">[table]</text>
<polygon fill="none" stroke="black" points="389,-981 389,-999 533,-999 533,-981 389,-981"/>
<text text-anchor="start" x="392" y="-987.2" font-family="Helvetica,sans-Serif" font-size="11.00">...</text>
<polygon fill="#ffffff" stroke="transparent" points="389,-963 389,-981 460,-981 460,-963 389,-963"/>
<polygon fill="none" stroke="black" points="389,-963 389,-981 460,-981 460,-963 389,-963"/>
<text text-anchor="start" x="392" y="-969.2" font-family="Helvetica,sans-Serif" font-size="11.00">&lt; 1</text>
<polygon fill="#ffffff" stroke="transparent" points="460,-963 460,-981 496,-981 496,-963 460,-963"/>
<polygon fill="none" stroke="black" points="460,-963 460,-981 496,-981 496,-963 460,-963"/>
<text text-anchor="start" x="485" y="-969.2" font-family="Helvetica,sans-Serif" font-size="11.00"> &#160;</text>
<polygon fill="#ffffff" stroke="transparent" points="496,-963 496,-981 533,-981 533,-963 496,-963"/>
<polygon fill="none" stroke="black" points="496,-963 496,-981 533,-981 533,-963 496,-963"/>
<text text-anchor="start" x="522" y="-969.2" font-family="Helvetica,sans-Serif" font-size="11.00"> &#160;</text>
</a>
</g>
</g>
<!-- gevaarlijkestof&#45;&gt;object -->
<g id="edge2" class="edge">
<title>gevaarlijkestof:w&#45;&gt;object:e</title>
<path fill="none" stroke="black" d="M373.34,-989.14C351.45,-986.22 340.13,-975.65 326,-953 297.86,-907.88 339.68,-476 286.5,-476"/>
<polygon fill="black" stroke="black" points="380.01,-989.53 387.79,-993.59 384.01,-989.76 388,-990 388,-990 388,-990 384.01,-989.76 388.21,-986.41 380.01,-989.53 380.01,-989.53"/>
<ellipse fill="none" stroke="black" cx="376.82" cy="-989.34" rx="3.2" ry="3.2"/>
</g>
<!-- label -->
<g id="node4" class="node">
<title>label</title>
<g id="a_node4"><a xlink:href="../../tables/label.html" xlink:title="label" target="_top">
<polygon fill="#ffffff" stroke="transparent" points="420,-884 420,-942 502,-942 502,-884 420,-884"/>
<polygon fill="#f5f5f5" stroke="transparent" points="420,-920 420,-942 502,-942 502,-920 420,-920"/>
<polygon fill="none" stroke="black" points="420,-920 420,-942 502,-942 502,-920 420,-920"/>
<text text-anchor="start" x="425" y="-929.2" font-family="Helvetica,sans-Serif" font-weight="bold" font-size="11.00">label</text>
<text text-anchor="start" x="460" y="-928.2" font-family="Helvetica,sans-Serif" font-size="11.00">[table]</text>
<polygon fill="none" stroke="black" points="420,-902 420,-920 502,-920 502,-902 420,-902"/>
<text text-anchor="start" x="423" y="-908.2" font-family="Helvetica,sans-Serif" font-size="11.00">...</text>
<polygon fill="#ffffff" stroke="transparent" points="420,-884 420,-902 460,-902 460,-884 420,-884"/>
<polygon fill="none" stroke="black" points="420,-884 420,-902 460,-902 460,-884 420,-884"/>
<text text-anchor="start" x="423" y="-890.2" font-family="Helvetica,sans-Serif" font-size="11.00">&lt; 2</text>
<polygon fill="#ffffff" stroke="transparent" points="460,-884 460,-902 481,-902 481,-884 460,-884"/>
<polygon fill="none" stroke="black" points="460,-884 460,-902 481,-902 481,-884 460,-884"/>
<text text-anchor="start" x="470" y="-890.2" font-family="Helvetica,sans-Serif" font-size="11.00"> &#160;</text>
<polygon fill="#ffffff" stroke="transparent" points="481,-884 481,-902 502,-902 502,-884 481,-884"/>
<polygon fill="none" stroke="black" points="481,-884 481,-902 502,-902 502,-884 481,-884"/>
<text text-anchor="start" x="491" y="-890.2" font-family="Helvetica,sans-Serif" font-size="11.00"> &#160;</text>
</a>
</g>
</g>
<!-- label&#45;&gt;object -->
<g id="edge3" class="edge">
<title>label:w&#45;&gt;object:e</title>
<path fill="none" stroke="black" d="M404.25,-910.89C369.35,-910.19 349.63,-905.37 326,-874 272.53,-803.01 375.38,-476 286.5,-476"/>
<polygon fill="black" stroke="black" points="411,-910.94 418.97,-914.6 415,-910.97 419,-911 419,-911 419,-911 415,-910.97 419.03,-907.4 411,-910.94 411,-910.94"/>
<ellipse fill="none" stroke="black" cx="407.8" cy="-910.91" rx="3.2" ry="3.2"/>
</g>
<!-- opstelplaats -->
<g id="node6" class="node">
<title>opstelplaats</title>
<g id="a_node6"><a xlink:href="../../tables/opstelplaats.html" xlink:title="opstelplaats" target="_top">
<polygon fill="#ffffff" stroke="transparent" points="397,-805 397,-863 525,-863 525,-805 397,-805"/>
<polygon fill="#f5f5f5" stroke="transparent" points="397,-841 397,-863 525,-863 525,-841 397,-841"/>
<polygon fill="none" stroke="black" points="397,-841 397,-863 525,-863 525,-841 397,-841"/>
<text text-anchor="start" x="402" y="-850.2" font-family="Helvetica,sans-Serif" font-weight="bold" font-size="11.00">opstelplaats</text>
<text text-anchor="start" x="483" y="-849.2" font-family="Helvetica,sans-Serif" font-size="11.00">[table]</text>
<polygon fill="none" stroke="black" points="397,-823 397,-841 525,-841 525,-823 397,-823"/>
<text text-anchor="start" x="400" y="-829.2" font-family="Helvetica,sans-Serif" font-size="11.00">...</text>
<polygon fill="#ffffff" stroke="transparent" points="397,-805 397,-823 460,-823 460,-805 397,-805"/>
<polygon fill="none" stroke="black" points="397,-805 397,-823 460,-823 460,-805 397,-805"/>
<text text-anchor="start" x="400" y="-811.2" font-family="Helvetica,sans-Serif" font-size="11.00">&lt; 2</text>
<polygon fill="#ffffff" stroke="transparent" points="460,-805 460,-823 492,-823 492,-805 460,-805"/>
<polygon fill="none" stroke="black" points="460,-805 460,-823 492,-823 492,-805 460,-805"/>
<text text-anchor="start" x="481" y="-811.2" font-family="Helvetica,sans-Serif" font-size="11.00"> &#160;</text>
<polygon fill="#ffffff" stroke="transparent" points="492,-805 492,-823 525,-823 525,-805 492,-805"/>
<polygon fill="none" stroke="black" points="492,-805 492,-823 525,-823 525,-805 492,-805"/>
<text text-anchor="start" x="514" y="-811.2" font-family="Helvetica,sans-Serif" font-size="11.00"> &#160;</text>
</a>
</g>
</g>
<!-- opstelplaats&#45;&gt;object -->
<g id="edge5" class="edge">
<title>opstelplaats:w&#45;&gt;object:e</title>
<path fill="none" stroke="black" d="M381.59,-831.43C356.29,-829.15 343.02,-819.67 326,-795 285.44,-736.2 357.93,-476 286.5,-476"/>
<polygon fill="black" stroke="black" points="388.01,-831.68 395.86,-835.6 392,-831.84 396,-832 396,-832 396,-832 392,-831.84 396.14,-828.4 388.01,-831.68 388.01,-831.68"/>
<ellipse fill="none" stroke="black" cx="384.81" cy="-831.55" rx="3.2" ry="3.2"/>
</g>
<!-- pand -->
<g id="node7" class="node">
<title>pand</title>
<g id="a_node7"><a xlink:href="../../tables/pand.html" xlink:title="pand" target="_top">
<polygon fill="#ffffff" stroke="transparent" points="334,-432 334,-784 588,-784 588,-432 334,-432"/>
<polygon fill="#f5f5f5" stroke="transparent" points="336,-760 336,-782 586,-782 586,-760 336,-760"/>
<polygon fill="none" stroke="black" points="336,-760 336,-782 586,-782 586,-760 336,-760"/>
<text text-anchor="start" x="341" y="-769.2" font-family="Helvetica,sans-Serif" font-weight="bold" font-size="11.00">pand</text>
<text text-anchor="start" x="544" y="-768.2" font-family="Helvetica,sans-Serif" font-size="11.00">[table]</text>
<polygon fill="none" stroke="black" points="336,-738 336,-760 450,-760 450,-738 336,-738"/>
<image xlink:href="../../images/primaryKeys.png" width="11px" height="12px" preserveAspectRatio="xMinYMin meet" x="341" y="-755"/>
<text text-anchor="start" x="356" y="-746.2" font-family="Helvetica,sans-Serif" font-size="11.00">uuid</text>
<polygon fill="none" stroke="black" points="450,-738 450,-760 586,-760 586,-738 450,-738"/>
<text text-anchor="start" x="453" y="-746.2" font-family="Helvetica,sans-Serif" font-size="11.00">uuid[2147483647]</text>
<polygon fill="#ffffff" stroke="transparent" points="336,-716 336,-738 450,-738 450,-716 336,-716"/>
<polygon fill="none" stroke="black" points="336,-716 336,-738 450,-738 450,-716 336,-716"/>
<text text-anchor="start" x="356" y="-724.2" font-family="Helvetica,sans-Serif" font-size="11.00">geom</text>
<polygon fill="none" stroke="black" points="450,-716 450,-738 586,-738 586,-716 450,-716"/>
<text text-anchor="start" x="453" y="-724.2" font-family="Helvetica,sans-Serif" font-size="11.00">geometry[2147483647]</text>
<polygon fill="none" stroke="black" points="336,-694 336,-716 450,-716 450,-694 336,-694"/>
<text text-anchor="start" x="356" y="-702.2" font-family="Helvetica,sans-Serif" font-size="11.00">datumtijd</text>
<polygon fill="none" stroke="black" points="450,-694 450,-716 586,-716 586,-694 450,-694"/>
<text text-anchor="start" x="453" y="-702.2" font-family="Helvetica,sans-Serif" font-size="11.00">timestamptz[35,6]</text>
<polygon fill="none" stroke="black" points="336,-672 336,-694 450,-694 450,-672 336,-672"/>
<text text-anchor="start" x="356" y="-680.2" font-family="Helvetica,sans-Serif" font-size="11.00">gebruiker</text>
<polygon fill="none" stroke="black" points="450,-672 450,-694 586,-694 586,-672 450,-672"/>
<text text-anchor="start" x="453" y="-680.2" font-family="Helvetica,sans-Serif" font-size="11.00">varchar[255]</text>
<polygon fill="none" stroke="black" points="336,-650 336,-672 450,-672 450,-650 336,-650"/>
<text text-anchor="start" x="356" y="-658.2" font-family="Helvetica,sans-Serif" font-size="11.00">label</text>
<polygon fill="none" stroke="black" points="450,-650 450,-672 586,-672 586,-650 450,-650"/>
<text text-anchor="start" x="453" y="-658.2" font-family="Helvetica,sans-Serif" font-size="11.00">text[2147483647]</text>
<polygon fill="none" stroke="black" points="336,-628 336,-650 450,-650 450,-628 336,-628"/>
<text text-anchor="start" x="356" y="-636.2" font-family="Helvetica,sans-Serif" font-size="11.00">rotatie</text>
<polygon fill="none" stroke="black" points="450,-628 450,-650 586,-650 586,-628 450,-628"/>
<text text-anchor="start" x="453" y="-636.2" font-family="Helvetica,sans-Serif" font-size="11.00">int4[10]</text>
<polygon fill="none" stroke="black" points="336,-606 336,-628 450,-628 450,-606 336,-606"/>
<text text-anchor="start" x="356" y="-614.2" font-family="Helvetica,sans-Serif" font-size="11.00">bijzonderheden</text>
<polygon fill="none" stroke="black" points="450,-606 450,-628 586,-628 586,-606 450,-606"/>
<text text-anchor="start" x="453" y="-614.2" font-family="Helvetica,sans-Serif" font-size="11.00">text[2147483647]</text>
<polygon fill="none" stroke="black" points="336,-584 336,-606 450,-606 450,-584 336,-584"/>
<text text-anchor="start" x="356" y="-592.2" font-family="Helvetica,sans-Serif" font-size="11.00">plusinfo</text>
<polygon fill="none" stroke="black" points="450,-584 450,-606 586,-606 586,-584 450,-584"/>
<text text-anchor="start" x="453" y="-592.2" font-family="Helvetica,sans-Serif" font-size="11.00">jsonb[2147483647]</text>
<polygon fill="#ffffff" stroke="transparent" points="336,-562 336,-584 450,-584 450,-562 336,-562"/>
<polygon fill="none" stroke="black" points="336,-562 336,-584 450,-584 450,-562 336,-562"/>
<image xlink:href="../../images/foreignKeys.png" width="11px" height="12px" preserveAspectRatio="xMinYMin meet" x="341" y="-579"/>
<text text-anchor="start" x="356" y="-570.2" font-family="Helvetica,sans-Serif" font-size="11.00">object_uuid</text>
<polygon fill="none" stroke="black" points="450,-562 450,-584 586,-584 586,-562 450,-562"/>
<text text-anchor="start" x="453" y="-570.2" font-family="Helvetica,sans-Serif" font-size="11.00">uuid[2147483647]</text>
<polygon fill="#ffffff" stroke="transparent" points="336,-540 336,-562 450,-562 450,-540 336,-540"/>
<polygon fill="none" stroke="black" points="336,-540 336,-562 450,-562 450,-540 336,-540"/>
<text text-anchor="start" x="356" y="-548.2" font-family="Helvetica,sans-Serif" font-size="11.00">bouwlaag</text>
<polygon fill="none" stroke="black" points="450,-540 450,-562 586,-562 586,-540 450,-540"/>
<text text-anchor="start" x="453" y="-548.2" font-family="Helvetica,sans-Serif" font-size="11.00">int2[5]</text>
<polygon fill="none" stroke="black" points="336,-518 336,-540 450,-540 450,-518 336,-518"/>
<text text-anchor="start" x="356" y="-526.2" font-family="Helvetica,sans-Serif" font-size="11.00">bouwdeel</text>
<polygon fill="none" stroke="black" points="450,-518 450,-540 586,-540 586,-518 450,-518"/>
<text text-anchor="start" x="453" y="-526.2" font-family="Helvetica,sans-Serif" font-size="11.00">text[2147483647]</text>
<polygon fill="none" stroke="black" points="336,-496 336,-518 450,-518 450,-496 336,-496"/>
<text text-anchor="start" x="356" y="-504.2" font-family="Helvetica,sans-Serif" font-size="11.00">imbag_id</text>
<polygon fill="none" stroke="black" points="450,-496 450,-518 586,-518 586,-496 450,-496"/>
<text text-anchor="start" x="453" y="-504.2" font-family="Helvetica,sans-Serif" font-size="11.00">text[2147483647]</text>
<polygon fill="none" stroke="black" points="336,-474 336,-496 450,-496 450,-474 336,-474"/>
<text text-anchor="start" x="356" y="-482.2" font-family="Helvetica,sans-Serif" font-size="11.00">imgeo_id</text>
<polygon fill="none" stroke="black" points="450,-474 450,-496 586,-496 586,-474 450,-474"/>
<text text-anchor="start" x="453" y="-482.2" font-family="Helvetica,sans-Serif" font-size="11.00">text[2147483647]</text>
<polygon fill="#ffffff" stroke="transparent" points="336,-452 336,-474 450,-474 450,-452 336,-452"/>
<polygon fill="none" stroke="black" points="336,-452 336,-474 450,-474 450,-452 336,-452"/>
<text text-anchor="start" x="356" y="-460.2" font-family="Helvetica,sans-Serif" font-size="11.00">handmatig</text>
<polygon fill="none" stroke="black" points="450,-452 450,-474 586,-474 586,-452 450,-452"/>
<text text-anchor="start" x="453" y="-460.2" font-family="Helvetica,sans-Serif" font-size="11.00">bool[1]</text>
<polygon fill="#ffffff" stroke="transparent" points="336,-434 336,-452 399,-452 399,-434 336,-434"/>
<polygon fill="none" stroke="black" points="336,-434 336,-452 399,-452 399,-434 336,-434"/>
<text text-anchor="start" x="339" y="-440.2" font-family="Helvetica,sans-Serif" font-size="11.00">&lt; 1</text>
<polygon fill="#ffffff" stroke="transparent" points="399,-434 399,-452 450,-452 450,-434 399,-434"/>
<polygon fill="none" stroke="black" points="399,-434 399,-452 450,-452 450,-434 399,-434"/>
<text text-anchor="start" x="439" y="-440.2" font-family="Helvetica,sans-Serif" font-size="11.00"> &#160;</text>
<polygon fill="#ffffff" stroke="transparent" points="450,-434 450,-452 586,-452 586,-434 450,-434"/>
<polygon fill="none" stroke="black" points="450,-434 450,-452 586,-452 586,-434 450,-434"/>
<text text-anchor="start" x="563" y="-440.2" font-family="Helvetica,sans-Serif" font-size="11.00">0 &gt;</text>
<polygon fill="none" stroke="black" stroke-width="2" points="335,-433 335,-783 587,-783 587,-433 335,-433"/>
</a>
</g>
</g>
<!-- pand&#45;&gt;object -->
<g id="edge6" class="edge">
<title>pand:w&#45;&gt;object:e</title>
<path fill="none" stroke="black" d="M321.05,-568.83C297.27,-550.27 328.67,-476 286.5,-476"/>
<polygon fill="black" stroke="black" points="327.34,-570.71 333.97,-576.45 331.17,-571.85 335,-573 335,-573 335,-573 331.17,-571.85 336.03,-569.55 327.34,-570.71 327.34,-570.71"/>
<ellipse fill="none" stroke="black" cx="324.27" cy="-569.79" rx="3.2" ry="3.2"/>
</g>
<!-- risico -->
<g id="node8" class="node">
<title>risico</title>
<g id="a_node8"><a xlink:href="../../tables/risico.html" xlink:title="risico" target="_top">
<polygon fill="#ffffff" stroke="transparent" points="418.5,-353 418.5,-411 503.5,-411 503.5,-353 418.5,-353"/>
<polygon fill="#f5f5f5" stroke="transparent" points="419,-389 419,-411 504,-411 504,-389 419,-389"/>
<polygon fill="none" stroke="black" points="419,-389 419,-411 504,-411 504,-389 419,-389"/>
<text text-anchor="start" x="424" y="-398.2" font-family="Helvetica,sans-Serif" font-weight="bold" font-size="11.00">risico</text>
<text text-anchor="start" x="462" y="-397.2" font-family="Helvetica,sans-Serif" font-size="11.00">[table]</text>
<polygon fill="none" stroke="black" points="419,-371 419,-389 504,-389 504,-371 419,-371"/>
<text text-anchor="start" x="422" y="-377.2" font-family="Helvetica,sans-Serif" font-size="11.00">...</text>
<polygon fill="#ffffff" stroke="transparent" points="419,-353 419,-371 460,-371 460,-353 419,-353"/>
<polygon fill="none" stroke="black" points="419,-353 419,-371 460,-371 460,-353 419,-353"/>
<text text-anchor="start" x="422" y="-359.2" font-family="Helvetica,sans-Serif" font-size="11.00">&lt; 1</text>
<polygon fill="#ffffff" stroke="transparent" points="460,-353 460,-371 482,-371 482,-353 460,-353"/>
<polygon fill="none" stroke="black" points="460,-353 460,-371 482,-371 482,-353 460,-353"/>
<text text-anchor="start" x="471" y="-359.2" font-family="Helvetica,sans-Serif" font-size="11.00"> &#160;</text>
<polygon fill="#ffffff" stroke="transparent" points="482,-353 482,-371 504,-371 504,-353 482,-353"/>
<polygon fill="none" stroke="black" points="482,-353 482,-371 504,-371 504,-353 482,-353"/>
<text text-anchor="start" x="493" y="-359.2" font-family="Helvetica,sans-Serif" font-size="11.00"> &#160;</text>
</a>
</g>
</g>
<!-- risico&#45;&gt;object -->
<g id="edge7" class="edge">
<title>risico:w&#45;&gt;object:e</title>
<path fill="none" stroke="black" d="M403.46,-380.56C369.88,-383.39 356.76,-396.93 326,-422 302.95,-440.78 316.24,-476 286.5,-476"/>
<polygon fill="black" stroke="black" points="410.01,-380.31 418.14,-383.6 414,-380.15 418,-380 418,-380 418,-380 414,-380.15 417.86,-376.4 410.01,-380.31 410.01,-380.31"/>
<ellipse fill="none" stroke="black" cx="406.81" cy="-380.43" rx="3.2" ry="3.2"/>
</g>
<!-- scenario -->
<g id="node9" class="node">
<title>scenario</title>
<g id="a_node9"><a xlink:href="../../tables/scenario.html" xlink:title="scenario" target="_top">
<polygon fill="#ffffff" stroke="transparent" points="409,-274 409,-332 513,-332 513,-274 409,-274"/>
<polygon fill="#f5f5f5" stroke="transparent" points="409,-310 409,-332 513,-332 513,-310 409,-310"/>
<polygon fill="none" stroke="black" points="409,-310 409,-332 513,-332 513,-310 409,-310"/>
<text text-anchor="start" x="414" y="-319.2" font-family="Helvetica,sans-Serif" font-weight="bold" font-size="11.00">scenario</text>
<text text-anchor="start" x="471" y="-318.2" font-family="Helvetica,sans-Serif" font-size="11.00">[table]</text>
<polygon fill="none" stroke="black" points="409,-292 409,-310 513,-310 513,-292 409,-292"/>
<text text-anchor="start" x="412" y="-298.2" font-family="Helvetica,sans-Serif" font-size="11.00">...</text>
<polygon fill="#ffffff" stroke="transparent" points="409,-274 409,-292 460,-292 460,-274 409,-274"/>
<polygon fill="none" stroke="black" points="409,-274 409,-292 460,-292 460,-274 409,-274"/>
<text text-anchor="start" x="412" y="-280.2" font-family="Helvetica,sans-Serif" font-size="11.00">&lt; 2</text>
<polygon fill="#ffffff" stroke="transparent" points="460,-274 460,-292 486,-292 486,-274 460,-274"/>
<polygon fill="none" stroke="black" points="460,-274 460,-292 486,-292 486,-274 460,-274"/>
<text text-anchor="start" x="475" y="-280.2" font-family="Helvetica,sans-Serif" font-size="11.00"> &#160;</text>
<polygon fill="#ffffff" stroke="transparent" points="486,-274 486,-292 513,-292 513,-274 486,-274"/>
<polygon fill="none" stroke="black" points="486,-274 486,-292 513,-292 513,-274 486,-274"/>
<text text-anchor="start" x="502" y="-280.2" font-family="Helvetica,sans-Serif" font-size="11.00"> &#160;</text>
</a>
</g>
</g>
<!-- scenario&#45;&gt;object -->
<g id="edge8" class="edge">
<title>scenario:w&#45;&gt;object:e</title>
<path fill="none" stroke="black" d="M393.38,-301.55C363.03,-304.06 348.79,-315.56 326,-343 286.6,-390.44 348.16,-476 286.5,-476"/>
<polygon fill="black" stroke="black" points="400.01,-301.3 408.13,-304.6 404,-301.15 408,-301 408,-301 408,-301 404,-301.15 407.87,-297.4 400.01,-301.3 400.01,-301.3"/>
<ellipse fill="none" stroke="black" cx="396.81" cy="-301.42" rx="3.2" ry="3.2"/>
</g>
<!-- scheiding -->
<g id="node10" class="node">
<title>scheiding</title>
<g id="a_node10"><a xlink:href="../../tables/scheiding.html" xlink:title="scheiding" target="_top">
<polygon fill="#ffffff" stroke="transparent" points="406,-195 406,-253 516,-253 516,-195 406,-195"/>
<polygon fill="#f5f5f5" stroke="transparent" points="406,-231 406,-253 516,-253 516,-231 406,-231"/>
<polygon fill="none" stroke="black" points="406,-231 406,-253 516,-253 516,-231 406,-231"/>
<text text-anchor="start" x="411" y="-240.2" font-family="Helvetica,sans-Serif" font-weight="bold" font-size="11.00">scheiding</text>
<text text-anchor="start" x="474" y="-239.2" font-family="Helvetica,sans-Serif" font-size="11.00">[table]</text>
<polygon fill="none" stroke="black" points="406,-213 406,-231 516,-231 516,-213 406,-213"/>
<text text-anchor="start" x="409" y="-219.2" font-family="Helvetica,sans-Serif" font-size="11.00">...</text>
<polygon fill="#ffffff" stroke="transparent" points="406,-195 406,-213 460,-213 460,-195 406,-195"/>
<polygon fill="none" stroke="black" points="406,-195 406,-213 460,-213 460,-195 406,-195"/>
<text text-anchor="start" x="409" y="-201.2" font-family="Helvetica,sans-Serif" font-size="11.00">&lt; 2</text>
<polygon fill="#ffffff" stroke="transparent" points="460,-195 460,-213 488,-213 488,-195 460,-195"/>
<polygon fill="none" stroke="black" points="460,-195 460,-213 488,-213 488,-195 460,-195"/>
<text text-anchor="start" x="477" y="-201.2" font-family="Helvetica,sans-Serif" font-size="11.00"> &#160;</text>
<polygon fill="#ffffff" stroke="transparent" points="488,-195 488,-213 516,-213 516,-195 488,-195"/>
<polygon fill="none" stroke="black" points="488,-195 488,-213 516,-213 516,-195 488,-195"/>
<text text-anchor="start" x="505" y="-201.2" font-family="Helvetica,sans-Serif" font-size="11.00"> &#160;</text>
</a>
</g>
</g>
<!-- scheiding&#45;&gt;object -->
<g id="edge9" class="edge">
<title>scheiding:w&#45;&gt;object:e</title>
<path fill="none" stroke="black" d="M390.35,-222.55C360.93,-225.03 346.4,-236.2 326,-264 297.64,-302.63 334.42,-476 286.5,-476"/>
<polygon fill="black" stroke="black" points="397.01,-222.3 405.14,-225.6 401,-222.15 405,-222 405,-222 405,-222 401,-222.15 404.86,-218.4 397.01,-222.3 397.01,-222.3"/>
<ellipse fill="none" stroke="black" cx="393.81" cy="-222.42" rx="3.2" ry="3.2"/>
</g>
<!-- sector -->
<g id="node11" class="node">
<title>sector</title>
<g id="a_node11"><a xlink:href="../../tables/sector.html" xlink:title="sector" target="_top">
<polygon fill="#ffffff" stroke="transparent" points="415.5,-116 415.5,-174 506.5,-174 506.5,-116 415.5,-116"/>
<polygon fill="#f5f5f5" stroke="transparent" points="416,-152 416,-174 507,-174 507,-152 416,-152"/>
<polygon fill="none" stroke="black" points="416,-152 416,-174 507,-174 507,-152 416,-152"/>
<text text-anchor="start" x="421" y="-161.2" font-family="Helvetica,sans-Serif" font-weight="bold" font-size="11.00">sector</text>
<text text-anchor="start" x="465" y="-160.2" font-family="Helvetica,sans-Serif" font-size="11.00">[table]</text>
<polygon fill="none" stroke="black" points="416,-134 416,-152 507,-152 507,-134 416,-134"/>
<text text-anchor="start" x="419" y="-140.2" font-family="Helvetica,sans-Serif" font-size="11.00">...</text>
<polygon fill="#ffffff" stroke="transparent" points="416,-116 416,-134 460,-134 460,-116 416,-116"/>
<polygon fill="none" stroke="black" points="416,-116 416,-134 460,-134 460,-116 416,-116"/>
<text text-anchor="start" x="419" y="-122.2" font-family="Helvetica,sans-Serif" font-size="11.00">&lt; 2</text>
<polygon fill="#ffffff" stroke="transparent" points="460,-116 460,-134 483,-134 483,-116 460,-116"/>
<polygon fill="none" stroke="black" points="460,-116 460,-134 483,-134 483,-116 460,-116"/>
<text text-anchor="start" x="472" y="-122.2" font-family="Helvetica,sans-Serif" font-size="11.00"> &#160;</text>
<polygon fill="#ffffff" stroke="transparent" points="483,-116 483,-134 507,-134 507,-116 483,-116"/>
<polygon fill="none" stroke="black" points="483,-116 483,-134 507,-134 507,-116 483,-116"/>
<text text-anchor="start" x="496" y="-122.2" font-family="Helvetica,sans-Serif" font-size="11.00"> &#160;</text>
</a>
</g>
</g>
<!-- sector&#45;&gt;object -->
<g id="edge10" class="edge">
<title>sector:w&#45;&gt;object:e</title>
<path fill="none" stroke="black" d="M400.58,-143.31C366.62,-144.97 348.82,-153.85 326,-185 287.43,-237.64 351.76,-476 286.5,-476"/>
<polygon fill="black" stroke="black" points="407,-143.17 415.08,-146.6 411,-143.09 415,-143 415,-143 415,-143 411,-143.09 414.92,-139.4 407,-143.17 407,-143.17"/>
<ellipse fill="none" stroke="black" cx="403.8" cy="-143.24" rx="3.2" ry="3.2"/>
</g>
<!-- voorziening -->
<g id="node12" class="node">
<title>voorziening</title>
<g id="a_node12"><a xlink:href="../../tables/voorziening.html" xlink:title="voorziening" target="_top">
<polygon fill="#ffffff" stroke="transparent" points="399,-37 399,-95 523,-95 523,-37 399,-37"/>
<polygon fill="#f5f5f5" stroke="transparent" points="399,-73 399,-95 523,-95 523,-73 399,-73"/>
<polygon fill="none" stroke="black" points="399,-73 399,-95 523,-95 523,-73 399,-73"/>
<text text-anchor="start" x="404" y="-82.2" font-family="Helvetica,sans-Serif" font-weight="bold" font-size="11.00">voorziening</text>
<text text-anchor="start" x="481" y="-81.2" font-family="Helvetica,sans-Serif" font-size="11.00">[table]</text>
<polygon fill="none" stroke="black" points="399,-55 399,-73 523,-73 523,-55 399,-55"/>
<text text-anchor="start" x="402" y="-61.2" font-family="Helvetica,sans-Serif" font-size="11.00">...</text>
<polygon fill="#ffffff" stroke="transparent" points="399,-37 399,-55 460,-55 460,-37 399,-37"/>
<polygon fill="none" stroke="black" points="399,-37 399,-55 460,-55 460,-37 399,-37"/>
<text text-anchor="start" x="402" y="-43.2" font-family="Helvetica,sans-Serif" font-size="11.00">&lt; 2</text>
<polygon fill="#ffffff" stroke="transparent" points="460,-37 460,-55 491,-55 491,-37 460,-37"/>
<polygon fill="none" stroke="black" points="460,-37 460,-55 491,-55 491,-37 460,-37"/>
<text text-anchor="start" x="480" y="-43.2" font-family="Helvetica,sans-Serif" font-size="11.00"> &#160;</text>
<polygon fill="#ffffff" stroke="transparent" points="491,-37 491,-55 523,-55 523,-37 491,-37"/>
<polygon fill="none" stroke="black" points="491,-37 491,-55 523,-55 523,-37 491,-37"/>
<text text-anchor="start" x="512" y="-43.2" font-family="Helvetica,sans-Serif" font-size="11.00"> &#160;</text>
</a>
</g>
</g>
<!-- voorziening&#45;&gt;object -->
<g id="edge11" class="edge">
<title>voorziening:w&#45;&gt;object:e</title>
<path fill="none" stroke="black" d="M383.61,-64.67C356.68,-67.47 343.3,-79.27 326,-106 281.06,-175.41 369.19,-476 286.5,-476"/>
<polygon fill="black" stroke="black" points="390.01,-64.37 398.17,-67.6 394,-64.19 398,-64 398,-64 398,-64 394,-64.19 397.83,-60.4 390.01,-64.37 390.01,-64.37"/>
<ellipse fill="none" stroke="black" cx="386.81" cy="-64.52" rx="3.2" ry="3.2"/>
</g>
</g>
</svg>
