<?xml version="1.0" encoding="UTF-8" standalone="no"?>
<!DOCTYPE svg PUBLIC "-//W3C//DTD SVG 1.1//EN"
 "http://www.w3.org/Graphics/SVG/1.1/DTD/svg11.dtd">
<!-- Generated by graphviz version 2.50.0 (0)
 -->
<!-- Title: twoDegreesRelationshipsDiagram Pages: 1 -->
<svg width="604pt" height="1024pt"
 viewBox="0.00 0.00 604.00 1024.00" xmlns="http://www.w3.org/2000/svg" xmlns:xlink="http://www.w3.org/1999/xlink">
<g id="graph0" class="graph" transform="scale(1 1) rotate(0) translate(4 1020)">
<title>twoDegreesRelationshipsDiagram</title>
<polygon fill="#ffffff" stroke="transparent" points="-4,4 -4,-1020 600,-1020 600,4 -4,4"/>
<text text-anchor="middle" x="79.5" y="-7.2" font-family="Helvetica,sans-Serif" font-size="11.00">Generated by SchemaSpy</text>
<!-- bereikbaarheid -->
<g id="node1" class="node">
<title>bereikbaarheid</title>
<g id="a_node1"><a xlink:href="../../tables/bereikbaarheid.html" xlink:title="bereikbaarheid" target="_top">
<polygon fill="#ffffff" stroke="transparent" points="388.5,-954 388.5,-1012 533.5,-1012 533.5,-954 388.5,-954"/>
<polygon fill="#f5f5f5" stroke="transparent" points="389,-990 389,-1012 534,-1012 534,-990 389,-990"/>
<polygon fill="none" stroke="black" points="389,-990 389,-1012 534,-1012 534,-990 389,-990"/>
<text text-anchor="start" x="394" y="-999.2" font-family="Helvetica,sans-Serif" font-weight="bold" font-size="11.00">bereikbaarheid</text>
<text text-anchor="start" x="492" y="-998.2" font-family="Helvetica,sans-Serif" font-size="11.00">[table]</text>
<polygon fill="none" stroke="black" points="389,-972 389,-990 534,-990 534,-972 389,-972"/>
<text text-anchor="start" x="392" y="-978.2" font-family="Helvetica,sans-Serif" font-size="11.00">...</text>
<polygon fill="#ffffff" stroke="transparent" points="389,-954 389,-972 460,-972 460,-954 389,-954"/>
<polygon fill="none" stroke="black" points="389,-954 389,-972 460,-972 460,-954 389,-954"/>
<text text-anchor="start" x="392" y="-960.2" font-family="Helvetica,sans-Serif" font-size="11.00">&lt; 2</text>
<polygon fill="#ffffff" stroke="transparent" points="460,-954 460,-972 497,-972 497,-954 460,-954"/>
<polygon fill="none" stroke="black" points="460,-954 460,-972 497,-972 497,-954 460,-954"/>
<text text-anchor="start" x="486" y="-960.2" font-family="Helvetica,sans-Serif" font-size="11.00"> &#160;</text>
<polygon fill="#ffffff" stroke="transparent" points="497,-954 497,-972 534,-972 534,-954 497,-954"/>
<polygon fill="none" stroke="black" points="497,-954 497,-972 534,-972 534,-954 497,-954"/>
<text text-anchor="start" x="523" y="-960.2" font-family="Helvetica,sans-Serif" font-size="11.00"> &#160;</text>
</a>
</g>
</g>
<!-- object -->
<g id="node2" class="node">
<title>object</title>
<g id="a_node2"><a xlink:href="../../tables/object.html" xlink:title="object" target="_top">
<polygon fill="#ffffff" stroke="transparent" points="156,-422 156,-568 285,-568 285,-422 156,-422"/>
<polygon fill="#f5f5f5" stroke="transparent" points="156.5,-546 156.5,-568 285.5,-568 285.5,-546 156.5,-546"/>
<polygon fill="none" stroke="black" points="156.5,-546 156.5,-568 285.5,-568 285.5,-546 156.5,-546"/>
<text text-anchor="start" x="161.5" y="-555.2" font-family="Helvetica,sans-Serif" font-weight="bold" font-size="11.00">object</text>
<text text-anchor="start" x="243.5" y="-554.2" font-family="Helvetica,sans-Serif" font-size="11.00">[table]</text>
<polygon fill="none" stroke="black" points="156.5,-524 156.5,-546 285.5,-546 285.5,-524 156.5,-524"/>
<image xlink:href="../../images/primaryKeys.png" width="11px" height="12px" preserveAspectRatio="xMinYMin meet" x="161.5" y="-541"/>
<text text-anchor="start" x="176.5" y="-532.2" font-family="Helvetica,sans-Serif" font-size="11.00">uuid</text>
<polygon fill="#ffffff" stroke="transparent" points="156.5,-502 156.5,-524 285.5,-524 285.5,-502 156.5,-502"/>
<polygon fill="none" stroke="black" points="156.5,-502 156.5,-524 285.5,-524 285.5,-502 156.5,-502"/>
<text text-anchor="start" x="176.5" y="-510.2" font-family="Helvetica,sans-Serif" font-size="11.00">geom</text>
<polygon fill="#ffffff" stroke="transparent" points="156.5,-480 156.5,-502 285.5,-502 285.5,-480 156.5,-480"/>
<polygon fill="none" stroke="black" points="156.5,-480 156.5,-502 285.5,-502 285.5,-480 156.5,-480"/>
<text text-anchor="start" x="176.5" y="-488.2" font-family="Helvetica,sans-Serif" font-size="11.00">revisie_frequentie</text>
<polygon fill="#ffffff" stroke="transparent" points="156.5,-458 156.5,-480 285.5,-480 285.5,-458 156.5,-458"/>
<polygon fill="none" stroke="black" points="156.5,-458 156.5,-480 285.5,-480 285.5,-458 156.5,-458"/>
<image xlink:href="../../images/foreignKeys.png" width="11px" height="12px" preserveAspectRatio="xMinYMin meet" x="161.5" y="-475"/>
<text text-anchor="start" x="176.5" y="-466.2" font-family="Helvetica,sans-Serif" font-size="11.00">fase_id</text>
<polygon fill="none" stroke="black" points="156.5,-440 156.5,-458 285.5,-458 285.5,-440 156.5,-440"/>
<text text-anchor="start" x="159.5" y="-446.2" font-family="Helvetica,sans-Serif" font-size="11.00">...</text>
<polygon fill="#ffffff" stroke="transparent" points="156.5,-422 156.5,-440 210.5,-440 210.5,-422 156.5,-422"/>
<polygon fill="none" stroke="black" points="156.5,-422 156.5,-440 210.5,-440 210.5,-422 156.5,-422"/>
<text text-anchor="start" x="159.5" y="-428.2" font-family="Helvetica,sans-Serif" font-size="11.00">&lt; 1</text>
<polygon fill="#ffffff" stroke="transparent" points="210.5,-422 210.5,-440 238.5,-440 238.5,-422 210.5,-422"/>
<polygon fill="none" stroke="black" points="210.5,-422 210.5,-440 238.5,-440 238.5,-422 210.5,-422"/>
<text text-anchor="start" x="227.5" y="-428.2" font-family="Helvetica,sans-Serif" font-size="11.00"> &#160;</text>
<polygon fill="#ffffff" stroke="transparent" points="238.5,-422 238.5,-440 285.5,-440 285.5,-422 238.5,-422"/>
<polygon fill="none" stroke="black" points="238.5,-422 238.5,-440 285.5,-440 285.5,-422 238.5,-422"/>
<text text-anchor="start" x="255.5" y="-428.2" font-family="Helvetica,sans-Serif" font-size="11.00">10 &gt;</text>
</a>
</g>
</g>
<!-- bereikbaarheid&#45;&gt;object -->
<g id="edge1" class="edge">
<title>bereikbaarheid:w&#45;&gt;object:e</title>
<path fill="none" stroke="black" d="M373.35,-980.13C351.51,-977.19 340.28,-966.56 326,-944 301.57,-905.43 332.16,-535 286.5,-535"/>
<polygon fill="black" stroke="black" points="380.01,-980.52 387.79,-984.59 384.01,-980.76 388,-981 388,-981 388,-981 384.01,-980.76 388.21,-977.41 380.01,-980.52 380.01,-980.52"/>
<ellipse fill="none" stroke="black" cx="376.82" cy="-980.33" rx="3.2" ry="3.2"/>
</g>
<!-- roi.fase -->
<g id="node5" class="node">
<title>roi.fase</title>
<g id="a_node5"><a xlink:href="../../../roi/tables/fase.html" xlink:title="roi.fase" target="_top">
<polygon fill="#ffffff" stroke="transparent" points="8,-442 8,-500 107,-500 107,-442 8,-442"/>
<polygon fill="#f5f5f5" stroke="transparent" points="8.5,-478 8.5,-500 107.5,-500 107.5,-478 8.5,-478"/>
<polygon fill="none" stroke="black" points="8.5,-478 8.5,-500 107.5,-500 107.5,-478 8.5,-478"/>
<text text-anchor="start" x="13.5" y="-487.2" font-family="Helvetica,sans-Serif" font-weight="bold" font-size="11.00">roi.fase</text>
<text text-anchor="start" x="65.5" y="-486.2" font-family="Helvetica,sans-Serif" font-size="11.00">[table]</text>
<polygon fill="none" stroke="black" points="8.5,-460 8.5,-478 107.5,-478 107.5,-460 8.5,-460"/>
<text text-anchor="start" x="11.5" y="-466.2" font-family="Helvetica,sans-Serif" font-size="11.00">...</text>
<polygon fill="#ffffff" stroke="transparent" points="8.5,-442 8.5,-460 44.5,-460 44.5,-442 8.5,-442"/>
<polygon fill="none" stroke="black" points="8.5,-442 8.5,-460 44.5,-460 44.5,-442 8.5,-442"/>
<text text-anchor="start" x="11.5" y="-448.2" font-family="Helvetica,sans-Serif" font-size="11.00"> &#160;</text>
<polygon fill="#ffffff" stroke="transparent" points="44.5,-442 44.5,-460 69.5,-460 69.5,-442 44.5,-442"/>
<polygon fill="none" stroke="black" points="44.5,-442 44.5,-460 69.5,-460 69.5,-442 44.5,-442"/>
<text text-anchor="start" x="58.5" y="-448.2" font-family="Helvetica,sans-Serif" font-size="11.00"> &#160;</text>
<polygon fill="#ffffff" stroke="transparent" points="69.5,-442 69.5,-460 107.5,-460 107.5,-442 69.5,-442"/>
<polygon fill="none" stroke="black" points="69.5,-442 69.5,-460 107.5,-460 107.5,-442 69.5,-442"/>
<text text-anchor="start" x="84.5" y="-448.2" font-family="Helvetica,sans-Serif" font-size="11.00">1 &gt;</text>
</a>
</g>
</g>
<!-- object&#45;&gt;roi.fase -->
<g id="edge4" class="edge">
<title>object:w&#45;&gt;roi.fase:e</title>
<path fill="none" stroke="black" d="M140.9,-469C130.43,-469 123.51,-469 108.5,-469"/>
<polygon fill="black" stroke="black" points="147.5,-469 155.5,-472.6 151.5,-469 155.5,-469 155.5,-469 155.5,-469 151.5,-469 155.5,-465.4 147.5,-469 147.5,-469"/>
<ellipse fill="none" stroke="black" cx="144.3" cy="-469" rx="3.2" ry="3.2"/>
</g>
<!-- gevaarlijkestof -->
<g id="node3" class="node">
<title>gevaarlijkestof</title>
<g id="a_node3"><a xlink:href="../../tables/gevaarlijkestof.html" xlink:title="gevaarlijkestof" target="_top">
<polygon fill="#ffffff" stroke="transparent" points="389,-875 389,-933 533,-933 533,-875 389,-875"/>
<polygon fill="#f5f5f5" stroke="transparent" points="389,-911 389,-933 533,-933 533,-911 389,-911"/>
<polygon fill="none" stroke="black" points="389,-911 389,-933 533,-933 533,-911 389,-911"/>
<text text-anchor="start" x="394" y="-920.2" font-family="Helvetica,sans-Serif" font-weight="bold" font-size="11.00">gevaarlijkestof</text>
<text text-anchor="start" x="491" y="-919.2" font-family="Helvetica,sans-Serif" font-size="11.00">[table]</text>
<polygon fill="none" stroke="black" points="389,-893 389,-911 533,-911 533,-893 389,-893"/>
<text text-anchor="start" x="392" y="-899.2" font-family="Helvetica,sans-Serif" font-size="11.00">...</text>
<polygon fill="#ffffff" stroke="transparent" points="389,-875 389,-893 460,-893 460,-875 389,-875"/>
<polygon fill="none" stroke="black" points="389,-875 389,-893 460,-893 460,-875 389,-875"/>
<text text-anchor="start" x="392" y="-881.2" font-family="Helvetica,sans-Serif" font-size="11.00">&lt; 1</text>
<polygon fill="#ffffff" stroke="transparent" points="460,-875 460,-893 496,-893 496,-875 460,-875"/>
<polygon fill="none" stroke="black" points="460,-875 460,-893 496,-893 496,-875 460,-875"/>
<text text-anchor="start" x="485" y="-881.2" font-family="Helvetica,sans-Serif" font-size="11.00"> &#160;</text>
<polygon fill="#ffffff" stroke="transparent" points="496,-875 496,-893 533,-893 533,-875 496,-875"/>
<polygon fill="none" stroke="black" points="496,-875 496,-893 533,-893 533,-875 496,-875"/>
<text text-anchor="start" x="522" y="-881.2" font-family="Helvetica,sans-Serif" font-size="11.00"> &#160;</text>
</a>
</g>
</g>
<!-- gevaarlijkestof&#45;&gt;object -->
<g id="edge2" class="edge">
<title>gevaarlijkestof:w&#45;&gt;object:e</title>
<path fill="none" stroke="black" d="M373.38,-901.11C351.59,-898.14 340.54,-887.39 326,-865 285.78,-803.06 360.36,-535 286.5,-535"/>
<polygon fill="black" stroke="black" points="380.01,-901.52 387.78,-905.59 384.01,-901.76 388,-902 388,-902 388,-902 384.01,-901.76 388.22,-898.41 380.01,-901.52 380.01,-901.52"/>
<ellipse fill="none" stroke="black" cx="376.82" cy="-901.32" rx="3.2" ry="3.2"/>
</g>
<!-- label -->
<g id="node4" class="node">
<title>label</title>
<g id="a_node4"><a xlink:href="../../tables/label.html" xlink:title="label" target="_top">
<polygon fill="#ffffff" stroke="transparent" points="420,-796 420,-854 502,-854 502,-796 420,-796"/>
<polygon fill="#f5f5f5" stroke="transparent" points="420,-832 420,-854 502,-854 502,-832 420,-832"/>
<polygon fill="none" stroke="black" points="420,-832 420,-854 502,-854 502,-832 420,-832"/>
<text text-anchor="start" x="425" y="-841.2" font-family="Helvetica,sans-Serif" font-weight="bold" font-size="11.00">label</text>
<text text-anchor="start" x="460" y="-840.2" font-family="Helvetica,sans-Serif" font-size="11.00">[table]</text>
<polygon fill="none" stroke="black" points="420,-814 420,-832 502,-832 502,-814 420,-814"/>
<text text-anchor="start" x="423" y="-820.2" font-family="Helvetica,sans-Serif" font-size="11.00">...</text>
<polygon fill="#ffffff" stroke="transparent" points="420,-796 420,-814 460,-814 460,-796 420,-796"/>
<polygon fill="none" stroke="black" points="420,-796 420,-814 460,-814 460,-796 420,-796"/>
<text text-anchor="start" x="423" y="-802.2" font-family="Helvetica,sans-Serif" font-size="11.00">&lt; 2</text>
<polygon fill="#ffffff" stroke="transparent" points="460,-796 460,-814 481,-814 481,-796 460,-796"/>
<polygon fill="none" stroke="black" points="460,-796 460,-814 481,-814 481,-796 460,-796"/>
<text text-anchor="start" x="470" y="-802.2" font-family="Helvetica,sans-Serif" font-size="11.00"> &#160;</text>
<polygon fill="#ffffff" stroke="transparent" points="481,-796 481,-814 502,-814 502,-796 481,-796"/>
<polygon fill="none" stroke="black" points="481,-796 481,-814 502,-814 502,-796 481,-796"/>
<text text-anchor="start" x="491" y="-802.2" font-family="Helvetica,sans-Serif" font-size="11.00"> &#160;</text>
</a>
</g>
</g>
<!-- label&#45;&gt;object -->
<g id="edge3" class="edge">
<title>label:w&#45;&gt;object:e</title>
<path fill="none" stroke="black" d="M404.29,-822.86C369.56,-822.03 350.51,-816.68 326,-786 290.75,-741.89 342.96,-535 286.5,-535"/>
<polygon fill="black" stroke="black" points="411,-822.92 418.97,-826.6 415,-822.96 419,-823 419,-823 419,-823 415,-822.96 419.03,-819.4 411,-822.92 411,-822.92"/>
<ellipse fill="none" stroke="black" cx="407.8" cy="-822.89" rx="3.2" ry="3.2"/>
</g>
<!-- opstelplaats -->
<g id="node6" class="node">
<title>opstelplaats</title>
<g id="a_node6"><a xlink:href="../../tables/opstelplaats.html" xlink:title="opstelplaats" target="_top">
<polygon fill="#ffffff" stroke="transparent" points="397,-717 397,-775 525,-775 525,-717 397,-717"/>
<polygon fill="#f5f5f5" stroke="transparent" points="397,-753 397,-775 525,-775 525,-753 397,-753"/>
<polygon fill="none" stroke="black" points="397,-753 397,-775 525,-775 525,-753 397,-753"/>
<text text-anchor="start" x="402" y="-762.2" font-family="Helvetica,sans-Serif" font-weight="bold" font-size="11.00">opstelplaats</text>
<text text-anchor="start" x="483" y="-761.2" font-family="Helvetica,sans-Serif" font-size="11.00">[table]</text>
<polygon fill="none" stroke="black" points="397,-735 397,-753 525,-753 525,-735 397,-735"/>
<text text-anchor="start" x="400" y="-741.2" font-family="Helvetica,sans-Serif" font-size="11.00">...</text>
<polygon fill="#ffffff" stroke="transparent" points="397,-717 397,-735 460,-735 460,-717 397,-717"/>
<polygon fill="none" stroke="black" points="397,-717 397,-735 460,-735 460,-717 397,-717"/>
<text text-anchor="start" x="400" y="-723.2" font-family="Helvetica,sans-Serif" font-size="11.00">&lt; 2</text>
<polygon fill="#ffffff" stroke="transparent" points="460,-717 460,-735 492,-735 492,-717 460,-717"/>
<polygon fill="none" stroke="black" points="460,-717 460,-735 492,-735 492,-717 460,-717"/>
<text text-anchor="start" x="481" y="-723.2" font-family="Helvetica,sans-Serif" font-size="11.00"> &#160;</text>
<polygon fill="#ffffff" stroke="transparent" points="492,-717 492,-735 525,-735 525,-717 492,-717"/>
<polygon fill="none" stroke="black" points="492,-717 492,-735 525,-735 525,-717 492,-717"/>
<text text-anchor="start" x="514" y="-723.2" font-family="Helvetica,sans-Serif" font-size="11.00"> &#160;</text>
</a>
</g>
</g>
<!-- opstelplaats&#45;&gt;object -->
<g id="edge5" class="edge">
<title>opstelplaats:w&#45;&gt;object:e</title>
<path fill="none" stroke="black" d="M381.33,-743.33C356.55,-740.79 344.17,-730.65 326,-707 278.21,-644.8 364.93,-535 286.5,-535"/>
<polygon fill="black" stroke="black" points="388.01,-743.64 395.84,-747.6 392,-743.82 396,-744 396,-744 396,-744 392,-743.82 396.16,-740.4 388.01,-743.64 388.01,-743.64"/>
<ellipse fill="none" stroke="black" cx="384.81" cy="-743.49" rx="3.2" ry="3.2"/>
</g>
<!-- pand -->
<g id="node7" class="node">
<title>pand</title>
<g id="a_node7"><a xlink:href="../../tables/pand.html" xlink:title="pand" target="_top">
<polygon fill="#ffffff" stroke="transparent" points="420,-638 420,-696 502,-696 502,-638 420,-638"/>
<polygon fill="#f5f5f5" stroke="transparent" points="420,-674 420,-696 502,-696 502,-674 420,-674"/>
<polygon fill="none" stroke="black" points="420,-674 420,-696 502,-696 502,-674 420,-674"/>
<text text-anchor="start" x="425" y="-683.2" font-family="Helvetica,sans-Serif" font-weight="bold" font-size="11.00">pand</text>
<text text-anchor="start" x="460" y="-682.2" font-family="Helvetica,sans-Serif" font-size="11.00">[table]</text>
<polygon fill="none" stroke="black" points="420,-656 420,-674 502,-674 502,-656 420,-656"/>
<text text-anchor="start" x="423" y="-662.2" font-family="Helvetica,sans-Serif" font-size="11.00">...</text>
<polygon fill="#ffffff" stroke="transparent" points="420,-638 420,-656 460,-656 460,-638 420,-638"/>
<polygon fill="none" stroke="black" points="420,-638 420,-656 460,-656 460,-638 420,-638"/>
<text text-anchor="start" x="423" y="-644.2" font-family="Helvetica,sans-Serif" font-size="11.00">&lt; 1</text>
<polygon fill="#ffffff" stroke="transparent" points="460,-638 460,-656 481,-656 481,-638 460,-638"/>
<polygon fill="none" stroke="black" points="460,-638 460,-656 481,-656 481,-638 460,-638"/>
<text text-anchor="start" x="470" y="-644.2" font-family="Helvetica,sans-Serif" font-size="11.00"> &#160;</text>
<polygon fill="#ffffff" stroke="transparent" points="481,-638 481,-656 502,-656 502,-638 481,-638"/>
<polygon fill="none" stroke="black" points="481,-638 481,-656 502,-656 502,-638 481,-638"/>
<text text-anchor="start" x="491" y="-644.2" font-family="Helvetica,sans-Serif" font-size="11.00"> &#160;</text>
</a>
</g>
</g>
<!-- pand&#45;&gt;object -->
<g id="edge6" class="edge">
<title>pand:w&#45;&gt;object:e</title>
<path fill="none" stroke="black" d="M404.44,-664.73C370.39,-663.27 354.09,-655.45 326,-628 293.88,-596.61 331.41,-535 286.5,-535"/>
<polygon fill="black" stroke="black" points="411,-664.85 418.93,-668.6 415,-664.92 419,-665 419,-665 419,-665 415,-664.92 419.07,-661.4 411,-664.85 411,-664.85"/>
<ellipse fill="none" stroke="black" cx="407.8" cy="-664.79" rx="3.2" ry="3.2"/>
</g>
<!-- risico -->
<g id="node8" class="node">
<title>risico</title>
<g id="a_node8"><a xlink:href="../../tables/risico.html" xlink:title="risico" target="_top">
<polygon fill="#ffffff" stroke="transparent" points="334,-353 334,-617 588,-617 588,-353 334,-353"/>
<polygon fill="#f5f5f5" stroke="transparent" points="336,-593 336,-615 586,-615 586,-593 336,-593"/>
<polygon fill="none" stroke="black" points="336,-593 336,-615 586,-615 586,-593 336,-593"/>
<text text-anchor="start" x="341" y="-602.2" font-family="Helvetica,sans-Serif" font-weight="bold" font-size="11.00">risico</text>
<text text-anchor="start" x="544" y="-601.2" font-family="Helvetica,sans-Serif" font-size="11.00">[table]</text>
<polygon fill="none" stroke="black" points="336,-571 336,-593 450,-593 450,-571 336,-571"/>
<image xlink:href="../../images/primaryKeys.png" width="11px" height="12px" preserveAspectRatio="xMinYMin meet" x="341" y="-588"/>
<text text-anchor="start" x="356" y="-579.2" font-family="Helvetica,sans-Serif" font-size="11.00">uuid</text>
<polygon fill="none" stroke="black" points="450,-571 450,-593 586,-593 586,-571 450,-571"/>
<text text-anchor="start" x="453" y="-579.2" font-family="Helvetica,sans-Serif" font-size="11.00">uuid[2147483647]</text>
<polygon fill="#ffffff" stroke="transparent" points="336,-549 336,-571 450,-571 450,-549 336,-549"/>
<polygon fill="none" stroke="black" points="336,-549 336,-571 450,-571 450,-549 336,-549"/>
<text text-anchor="start" x="356" y="-557.2" font-family="Helvetica,sans-Serif" font-size="11.00">geom</text>
<polygon fill="none" stroke="black" points="450,-549 450,-571 586,-571 586,-549 450,-549"/>
<text text-anchor="start" x="453" y="-557.2" font-family="Helvetica,sans-Serif" font-size="11.00">geometry[2147483647]</text>
<polygon fill="none" stroke="black" points="336,-527 336,-549 450,-549 450,-527 336,-527"/>
<text text-anchor="start" x="356" y="-535.2" font-family="Helvetica,sans-Serif" font-size="11.00">datumtijd</text>
<polygon fill="none" stroke="black" points="450,-527 450,-549 586,-549 586,-527 450,-527"/>
<text text-anchor="start" x="453" y="-535.2" font-family="Helvetica,sans-Serif" font-size="11.00">timestamptz[35,6]</text>
<polygon fill="none" stroke="black" points="336,-505 336,-527 450,-527 450,-505 336,-505"/>
<text text-anchor="start" x="356" y="-513.2" font-family="Helvetica,sans-Serif" font-size="11.00">gebruiker</text>
<polygon fill="none" stroke="black" points="450,-505 450,-527 586,-527 586,-505 450,-505"/>
<text text-anchor="start" x="453" y="-513.2" font-family="Helvetica,sans-Serif" font-size="11.00">varchar[255]</text>
<polygon fill="none" stroke="black" points="336,-483 336,-505 450,-505 450,-483 336,-483"/>
<text text-anchor="start" x="356" y="-491.2" font-family="Helvetica,sans-Serif" font-size="11.00">label</text>
<polygon fill="none" stroke="black" points="450,-483 450,-505 586,-505 586,-483 450,-483"/>
<text text-anchor="start" x="453" y="-491.2" font-family="Helvetica,sans-Serif" font-size="11.00">text[2147483647]</text>
<polygon fill="none" stroke="black" points="336,-461 336,-483 450,-483 450,-461 336,-461"/>
<text text-anchor="start" x="356" y="-469.2" font-family="Helvetica,sans-Serif" font-size="11.00">rotatie</text>
<polygon fill="none" stroke="black" points="450,-461 450,-483 586,-483 586,-461 450,-461"/>
<text text-anchor="start" x="453" y="-469.2" font-family="Helvetica,sans-Serif" font-size="11.00">int4[10]</text>
<polygon fill="none" stroke="black" points="336,-439 336,-461 450,-461 450,-439 336,-439"/>
<text text-anchor="start" x="356" y="-447.2" font-family="Helvetica,sans-Serif" font-size="11.00">bijzonderheden</text>
<polygon fill="none" stroke="black" points="450,-439 450,-461 586,-461 586,-439 450,-439"/>
<text text-anchor="start" x="453" y="-447.2" font-family="Helvetica,sans-Serif" font-size="11.00">text[2147483647]</text>
<polygon fill="none" stroke="black" points="336,-417 336,-439 450,-439 450,-417 336,-417"/>
<text text-anchor="start" x="356" y="-425.2" font-family="Helvetica,sans-Serif" font-size="11.00">plusinfo</text>
<polygon fill="none" stroke="black" points="450,-417 450,-439 586,-439 586,-417 450,-417"/>
<text text-anchor="start" x="453" y="-425.2" font-family="Helvetica,sans-Serif" font-size="11.00">jsonb[2147483647]</text>
<polygon fill="#ffffff" stroke="transparent" points="336,-395 336,-417 450,-417 450,-395 336,-395"/>
<polygon fill="none" stroke="black" points="336,-395 336,-417 450,-417 450,-395 336,-395"/>
<image xlink:href="../../images/foreignKeys.png" width="11px" height="12px" preserveAspectRatio="xMinYMin meet" x="341" y="-412"/>
<text text-anchor="start" x="356" y="-403.2" font-family="Helvetica,sans-Serif" font-size="11.00">object_uuid</text>
<polygon fill="none" stroke="black" points="450,-395 450,-417 586,-417 586,-395 450,-395"/>
<text text-anchor="start" x="453" y="-403.2" font-family="Helvetica,sans-Serif" font-size="11.00">uuid[2147483647]</text>
<polygon fill="#ffffff" stroke="transparent" points="336,-373 336,-395 450,-395 450,-373 336,-373"/>
<polygon fill="none" stroke="black" points="336,-373 336,-395 450,-395 450,-373 336,-373"/>
<text text-anchor="start" x="356" y="-381.2" font-family="Helvetica,sans-Serif" font-size="11.00">bouwlaag</text>
<polygon fill="none" stroke="black" points="450,-373 450,-395 586,-395 586,-373 450,-373"/>
<text text-anchor="start" x="453" y="-381.2" font-family="Helvetica,sans-Serif" font-size="11.00">int2[5]</text>
<polygon fill="#ffffff" stroke="transparent" points="336,-355 336,-373 399,-373 399,-355 336,-355"/>
<polygon fill="none" stroke="black" points="336,-355 336,-373 399,-373 399,-355 336,-355"/>
<text text-anchor="start" x="339" y="-361.2" font-family="Helvetica,sans-Serif" font-size="11.00">&lt; 1</text>
<polygon fill="#ffffff" stroke="transparent" points="399,-355 399,-373 450,-373 450,-355 399,-355"/>
<polygon fill="none" stroke="black" points="399,-355 399,-373 450,-373 450,-355 399,-355"/>
<text text-anchor="start" x="439" y="-361.2" font-family="Helvetica,sans-Serif" font-size="11.00"> &#160;</text>
<polygon fill="#ffffff" stroke="transparent" points="450,-355 450,-373 586,-373 586,-355 450,-355"/>
<polygon fill="none" stroke="black" points="450,-355 450,-373 586,-373 586,-355 450,-355"/>
<text text-anchor="start" x="563" y="-361.2" font-family="Helvetica,sans-Serif" font-size="11.00">0 &gt;</text>
<polygon fill="none" stroke="black" stroke-width="2" points="335,-354 335,-616 587,-616 587,-354 335,-354"/>
</a>
</g>
</g>
<!-- risico&#45;&gt;object -->
<g id="edge7" class="edge">
<title>risico:w&#45;&gt;object:e</title>
<path fill="none" stroke="black" d="M320.67,-409.45C286.91,-429.97 341.77,-535 286.5,-535"/>
<polygon fill="black" stroke="black" points="327.22,-407.87 335.84,-409.5 331.11,-406.94 335,-406 335,-406 335,-406 331.11,-406.94 334.16,-402.5 327.22,-407.87 327.22,-407.87"/>
<ellipse fill="none" stroke="black" cx="324.11" cy="-408.62" rx="3.2" ry="3.2"/>
</g>
<!-- scenario -->
<g id="node9" class="node">
<title>scenario</title>
<g id="a_node9"><a xlink:href="../../tables/scenario.html" xlink:title="scenario" target="_top">
<polygon fill="#ffffff" stroke="transparent" points="409,-274 409,-332 513,-332 513,-274 409,-274"/>
<polygon fill="#f5f5f5" stroke="transparent" points="409,-310 409,-332 513,-332 513,-310 409,-310"/>
<polygon fill="none" stroke="black" points="409,-310 409,-332 513,-332 513,-310 409,-310"/>
<text text-anchor="start" x="414" y="-319.2" font-family="Helvetica,sans-Serif" font-weight="bold" font-size="11.00">scenario</text>
<text text-anchor="start" x="471" y="-318.2" font-family="Helvetica,sans-Serif" font-size="11.00">[table]</text>
<polygon fill="none" stroke="black" points="409,-292 409,-310 513,-310 513,-292 409,-292"/>
<text text-anchor="start" x="412" y="-298.2" font-family="Helvetica,sans-Serif" font-size="11.00">...</text>
<polygon fill="#ffffff" stroke="transparent" points="409,-274 409,-292 460,-292 460,-274 409,-274"/>
<polygon fill="none" stroke="black" points="409,-274 409,-292 460,-292 460,-274 409,-274"/>
<text text-anchor="start" x="412" y="-280.2" font-family="Helvetica,sans-Serif" font-size="11.00">&lt; 2</text>
<polygon fill="#ffffff" stroke="transparent" points="460,-274 460,-292 486,-292 486,-274 460,-274"/>
<polygon fill="none" stroke="black" points="460,-274 460,-292 486,-292 486,-274 460,-274"/>
<text text-anchor="start" x="475" y="-280.2" font-family="Helvetica,sans-Serif" font-size="11.00"> &#160;</text>
<polygon fill="#ffffff" stroke="transparent" points="486,-274 486,-292 513,-292 513,-274 486,-274"/>
<polygon fill="none" stroke="black" points="486,-274 486,-292 513,-292 513,-274 486,-274"/>
<text text-anchor="start" x="502" y="-280.2" font-family="Helvetica,sans-Serif" font-size="11.00"> &#160;</text>
</a>
</g>
</g>
<!-- scenario&#45;&gt;object -->
<g id="edge8" class="edge">
<title>scenario:w&#45;&gt;object:e</title>
<path fill="none" stroke="black" d="M393.32,-301.5C362.72,-303.81 347.59,-314.61 326,-343 273.26,-412.35 373.62,-535 286.5,-535"/>
<polygon fill="black" stroke="black" points="400,-301.27 408.12,-304.6 404,-301.14 408,-301 408,-301 408,-301 404,-301.14 407.88,-297.4 400,-301.27 400,-301.27"/>
<ellipse fill="none" stroke="black" cx="396.81" cy="-301.38" rx="3.2" ry="3.2"/>
</g>
<!-- scheiding -->
<g id="node10" class="node">
<title>scheiding</title>
<g id="a_node10"><a xlink:href="../../tables/scheiding.html" xlink:title="scheiding" target="_top">
<polygon fill="#ffffff" stroke="transparent" points="406,-195 406,-253 516,-253 516,-195 406,-195"/>
<polygon fill="#f5f5f5" stroke="transparent" points="406,-231 406,-253 516,-253 516,-231 406,-231"/>
<polygon fill="none" stroke="black" points="406,-231 406,-253 516,-253 516,-231 406,-231"/>
<text text-anchor="start" x="411" y="-240.2" font-family="Helvetica,sans-Serif" font-weight="bold" font-size="11.00">scheiding</text>
<text text-anchor="start" x="474" y="-239.2" font-family="Helvetica,sans-Serif" font-size="11.00">[table]</text>
<polygon fill="none" stroke="black" points="406,-213 406,-231 516,-231 516,-213 406,-213"/>
<text text-anchor="start" x="409" y="-219.2" font-family="Helvetica,sans-Serif" font-size="11.00">...</text>
<polygon fill="#ffffff" stroke="transparent" points="406,-195 406,-213 460,-213 460,-195 406,-195"/>
<polygon fill="none" stroke="black" points="406,-195 406,-213 460,-213 460,-195 406,-195"/>
<text text-anchor="start" x="409" y="-201.2" font-family="Helvetica,sans-Serif" font-size="11.00">&lt; 2</text>
<polygon fill="#ffffff" stroke="transparent" points="460,-195 460,-213 488,-213 488,-195 460,-195"/>
<polygon fill="none" stroke="black" points="460,-195 460,-213 488,-213 488,-195 460,-195"/>
<text text-anchor="start" x="477" y="-201.2" font-family="Helvetica,sans-Serif" font-size="11.00"> &#160;</text>
<polygon fill="#ffffff" stroke="transparent" points="488,-195 488,-213 516,-213 516,-195 488,-195"/>
<polygon fill="none" stroke="black" points="488,-195 488,-213 516,-213 516,-195 488,-195"/>
<text text-anchor="start" x="505" y="-201.2" font-family="Helvetica,sans-Serif" font-size="11.00"> &#160;</text>
</a>
</g>
</g>
<!-- scheiding&#45;&gt;object -->
<g id="edge9" class="edge">
<title>scheiding:w&#45;&gt;object:e</title>
<path fill="none" stroke="black" d="M390.33,-222.53C360.78,-224.93 345.85,-235.8 326,-264 290.96,-313.76 347.36,-535 286.5,-535"/>
<polygon fill="black" stroke="black" points="397.01,-222.29 405.13,-225.6 401,-222.15 405,-222 405,-222 405,-222 401,-222.15 404.87,-218.4 397.01,-222.29 397.01,-222.29"/>
<ellipse fill="none" stroke="black" cx="393.81" cy="-222.41" rx="3.2" ry="3.2"/>
</g>
<!-- sector -->
<g id="node11" class="node">
<title>sector</title>
<g id="a_node11"><a xlink:href="../../tables/sector.html" xlink:title="sector" target="_top">
<polygon fill="#ffffff" stroke="transparent" points="415.5,-116 415.5,-174 506.5,-174 506.5,-116 415.5,-116"/>
<polygon fill="#f5f5f5" stroke="transparent" points="416,-152 416,-174 507,-174 507,-152 416,-152"/>
<polygon fill="none" stroke="black" points="416,-152 416,-174 507,-174 507,-152 416,-152"/>
<text text-anchor="start" x="421" y="-161.2" font-family="Helvetica,sans-Serif" font-weight="bold" font-size="11.00">sector</text>
<text text-anchor="start" x="465" y="-160.2" font-family="Helvetica,sans-Serif" font-size="11.00">[table]</text>
<polygon fill="none" stroke="black" points="416,-134 416,-152 507,-152 507,-134 416,-134"/>
<text text-anchor="start" x="419" y="-140.2" font-family="Helvetica,sans-Serif" font-size="11.00">...</text>
<polygon fill="#ffffff" stroke="transparent" points="416,-116 416,-134 460,-134 460,-116 416,-116"/>
<polygon fill="none" stroke="black" points="416,-116 416,-134 460,-134 460,-116 416,-116"/>
<text text-anchor="start" x="419" y="-122.2" font-family="Helvetica,sans-Serif" font-size="11.00">&lt; 2</text>
<polygon fill="#ffffff" stroke="transparent" points="460,-116 460,-134 483,-134 483,-116 460,-116"/>
<polygon fill="none" stroke="black" points="460,-116 460,-134 483,-134 483,-116 460,-116"/>
<text text-anchor="start" x="472" y="-122.2" font-family="Helvetica,sans-Serif" font-size="11.00"> &#160;</text>
<polygon fill="#ffffff" stroke="transparent" points="483,-116 483,-134 507,-134 507,-116 483,-116"/>
<polygon fill="none" stroke="black" points="483,-116 483,-134 507,-134 507,-116 483,-116"/>
<text text-anchor="start" x="496" y="-122.2" font-family="Helvetica,sans-Serif" font-size="11.00"> &#160;</text>
</a>
</g>
</g>
<!-- sector&#45;&gt;object -->
<g id="edge10" class="edge">
<title>sector:w&#45;&gt;object:e</title>
<path fill="none" stroke="black" d="M400.56,-143.3C366.54,-144.91 348.47,-153.6 326,-185 280.45,-248.65 364.77,-535 286.5,-535"/>
<polygon fill="black" stroke="black" points="407,-143.17 415.08,-146.6 411,-143.08 415,-143 415,-143 415,-143 411,-143.08 414.92,-139.4 407,-143.17 407,-143.17"/>
<ellipse fill="none" stroke="black" cx="403.8" cy="-143.23" rx="3.2" ry="3.2"/>
</g>
<!-- voorziening -->
<g id="node12" class="node">
<title>voorziening</title>
<g id="a_node12"><a xlink:href="../../tables/voorziening.html" xlink:title="voorziening" target="_top">
<polygon fill="#ffffff" stroke="transparent" points="399,-37 399,-95 523,-95 523,-37 399,-37"/>
<polygon fill="#f5f5f5" stroke="transparent" points="399,-73 399,-95 523,-95 523,-73 399,-73"/>
<polygon fill="none" stroke="black" points="399,-73 399,-95 523,-95 523,-73 399,-73"/>
<text text-anchor="start" x="404" y="-82.2" font-family="Helvetica,sans-Serif" font-weight="bold" font-size="11.00">voorziening</text>
<text text-anchor="start" x="481" y="-81.2" font-family="Helvetica,sans-Serif" font-size="11.00">[table]</text>
<polygon fill="none" stroke="black" points="399,-55 399,-73 523,-73 523,-55 399,-55"/>
<text text-anchor="start" x="402" y="-61.2" font-family="Helvetica,sans-Serif" font-size="11.00">...</text>
<polygon fill="#ffffff" stroke="transparent" points="399,-37 399,-55 460,-55 460,-37 399,-37"/>
<polygon fill="none" stroke="black" points="399,-37 399,-55 460,-55 460,-37 399,-37"/>
<text text-anchor="start" x="402" y="-43.2" font-family="Helvetica,sans-Serif" font-size="11.00">&lt; 2</text>
<polygon fill="#ffffff" stroke="transparent" points="460,-37 460,-55 491,-55 491,-37 460,-37"/>
<polygon fill="none" stroke="black" points="460,-37 460,-55 491,-55 491,-37 460,-37"/>
<text text-anchor="start" x="480" y="-43.2" font-family="Helvetica,sans-Serif" font-size="11.00"> &#160;</text>
<polygon fill="#ffffff" stroke="transparent" points="491,-37 491,-55 523,-55 523,-37 491,-37"/>
<polygon fill="none" stroke="black" points="491,-37 491,-55 523,-55 523,-37 491,-37"/>
<text text-anchor="start" x="512" y="-43.2" font-family="Helvetica,sans-Serif" font-size="11.00"> &#160;</text>
</a>
</g>
</g>
<!-- voorziening&#45;&gt;object -->
<g id="edge11" class="edge">
<title>voorziening:w&#45;&gt;object:e</title>
<path fill="none" stroke="black" d="M383.6,-64.67C356.63,-67.43 343.11,-79.15 326,-106 300.28,-146.37 334.37,-535 286.5,-535"/>
<polygon fill="black" stroke="black" points="390.01,-64.37 398.17,-67.6 394,-64.18 398,-64 398,-64 398,-64 394,-64.18 397.83,-60.4 390.01,-64.37 390.01,-64.37"/>
<ellipse fill="none" stroke="black" cx="386.81" cy="-64.52" rx="3.2" ry="3.2"/>
</g>
</g>
</svg>
