<?xml version="1.0" encoding="UTF-8" standalone="no"?>
<!DOCTYPE svg PUBLIC "-//W3C//DTD SVG 1.1//EN"
 "http://www.w3.org/Graphics/SVG/1.1/DTD/svg11.dtd">
<!-- Generated by graphviz version 2.40.1 (20161225.0304)
 -->
<!-- Title: oneDegreeRelationshipsDiagram Pages: 1 -->
<svg width="418pt" height="385pt"
 viewBox="0.00 0.00 418.00 384.70" xmlns="http://www.w3.org/2000/svg" xmlns:xlink="http://www.w3.org/1999/xlink">
<g id="graph0" class="graph" transform="scale(1 1) rotate(0) translate(4 380.7)">
<title>oneDegreeRelationshipsDiagram</title>
<polygon fill="#ffffff" stroke="transparent" points="-4,4 -4,-380.7 414,-380.7 414,4 -4,4"/>
<text text-anchor="middle" x="72.4936" y="-7.3" font-family="Helvetica,sans-Serif" font-size="11.00" fill="#000000">Generated by SchemaSpy</text>
<!-- scenario -->
<g id="node1" class="node">
<title>scenario</title>
<g id="a_node1"><a xlink:href="../../tables/scenario.html" xlink:title="scenario" target="_top">
<polygon fill="#ffffff" stroke="transparent" points="180,-128.7 180,-372.7 402,-372.7 402,-128.7 180,-128.7"/>
<polygon fill="#f5f5f5" stroke="transparent" points="182,-347.7 182,-370.7 400,-370.7 400,-347.7 182,-347.7"/>
<polygon fill="none" stroke="#000000" points="182,-347.7 182,-370.7 400,-370.7 400,-347.7 182,-347.7"/>
<text text-anchor="start" x="187" y="-356.3" font-family="Helvetica,sans-Serif" font-weight="bold" font-size="11.00" fill="#000000">scenario</text>
<text text-anchor="start" x="365.0437" y="-355.8" font-family="Helvetica,sans-Serif" font-size="11.00" fill="#000000">[table]</text>
<polygon fill="none" stroke="#000000" points="182,-325.7 182,-347.7 301,-347.7 301,-325.7 182,-325.7"/>
<image xlink:href="../../images/primaryKeys.png" width="11px" height="12px" preserveAspectRatio="xMinYMin meet" x="187" y="-342.7"/>
<text text-anchor="start" x="202" y="-332.8" font-family="Helvetica,sans-Serif" font-size="11.00" fill="#000000">uuid</text>
<polygon fill="none" stroke="#000000" points="301,-325.7 301,-347.7 400,-347.7 400,-325.7 301,-325.7"/>
<text text-anchor="start" x="304" y="-333.4" font-family="Helvetica,sans-Serif" font-size="11.00" fill="#000000">uuid[2147483647]</text>
<polygon fill="none" stroke="#000000" points="182,-303.7 182,-325.7 301,-325.7 301,-303.7 182,-303.7"/>
<text text-anchor="start" x="202" y="-310.8" font-family="Helvetica,sans-Serif" font-size="11.00" fill="#000000">datumtijd</text>
<polygon fill="none" stroke="#000000" points="301,-303.7 301,-325.7 400,-325.7 400,-303.7 301,-303.7"/>
<text text-anchor="start" x="304" y="-311.4" font-family="Helvetica,sans-Serif" font-size="11.00" fill="#000000">timestamptz[35,6]</text>
<polygon fill="none" stroke="#000000" points="182,-281.7 182,-303.7 301,-303.7 301,-281.7 182,-281.7"/>
<text text-anchor="start" x="202" y="-288.8" font-family="Helvetica,sans-Serif" font-size="11.00" fill="#000000">gebruiker</text>
<polygon fill="none" stroke="#000000" points="301,-281.7 301,-303.7 400,-303.7 400,-281.7 301,-281.7"/>
<text text-anchor="start" x="304" y="-289.4" font-family="Helvetica,sans-Serif" font-size="11.00" fill="#000000">varchar[255]</text>
<polygon fill="none" stroke="#000000" points="182,-259.7 182,-281.7 301,-281.7 301,-259.7 182,-259.7"/>
<text text-anchor="start" x="202" y="-266.8" font-family="Helvetica,sans-Serif" font-size="11.00" fill="#000000">label</text>
<polygon fill="none" stroke="#000000" points="301,-259.7 301,-281.7 400,-281.7 400,-259.7 301,-259.7"/>
<text text-anchor="start" x="304" y="-267.4" font-family="Helvetica,sans-Serif" font-size="11.00" fill="#000000">text[2147483647]</text>
<polygon fill="none" stroke="#000000" points="182,-237.7 182,-259.7 301,-259.7 301,-237.7 182,-237.7"/>
<text text-anchor="start" x="202" y="-244.8" font-family="Helvetica,sans-Serif" font-size="11.00" fill="#000000">rotatie</text>
<polygon fill="none" stroke="#000000" points="301,-237.7 301,-259.7 400,-259.7 400,-237.7 301,-237.7"/>
<text text-anchor="start" x="304" y="-245.4" font-family="Helvetica,sans-Serif" font-size="11.00" fill="#000000">int4[10]</text>
<polygon fill="none" stroke="#000000" points="182,-215.7 182,-237.7 301,-237.7 301,-215.7 182,-215.7"/>
<text text-anchor="start" x="202" y="-222.8" font-family="Helvetica,sans-Serif" font-size="11.00" fill="#000000">bijzonderheden</text>
<polygon fill="none" stroke="#000000" points="301,-215.7 301,-237.7 400,-237.7 400,-215.7 301,-215.7"/>
<text text-anchor="start" x="304" y="-223.4" font-family="Helvetica,sans-Serif" font-size="11.00" fill="#000000">text[2147483647]</text>
<polygon fill="none" stroke="#000000" points="182,-193.7 182,-215.7 301,-215.7 301,-193.7 182,-193.7"/>
<text text-anchor="start" x="202" y="-200.8" font-family="Helvetica,sans-Serif" font-size="11.00" fill="#000000">plusinfo</text>
<polygon fill="none" stroke="#000000" points="301,-193.7 301,-215.7 400,-215.7 400,-193.7 301,-193.7"/>
<text text-anchor="start" x="303.7258" y="-201.4" font-family="Helvetica,sans-Serif" font-size="11.00" fill="#000000">jsonb[2147483647]</text>
<polygon fill="#ffffff" stroke="transparent" points="182,-171.7 182,-193.7 301,-193.7 301,-171.7 182,-171.7"/>
<polygon fill="none" stroke="#000000" points="182,-171.7 182,-193.7 301,-193.7 301,-171.7 182,-171.7"/>
<image xlink:href="../../images/foreignKeys.png" width="11px" height="12px" preserveAspectRatio="xMinYMin meet" x="187" y="-188.7"/>
<text text-anchor="start" x="202" y="-178.8" font-family="Helvetica,sans-Serif" font-size="11.00" fill="#000000">object_uuid</text>
<polygon fill="none" stroke="#000000" points="301,-171.7 301,-193.7 400,-193.7 400,-171.7 301,-171.7"/>
<text text-anchor="start" x="304" y="-179.4" font-family="Helvetica,sans-Serif" font-size="11.00" fill="#000000">uuid[2147483647]</text>
<polygon fill="none" stroke="#000000" points="182,-149.7 182,-171.7 301,-171.7 301,-149.7 182,-149.7"/>
<image xlink:href="../../images/foreignKeys.png" width="11px" height="12px" preserveAspectRatio="xMinYMin meet" x="187" y="-166.7"/>
<text text-anchor="start" x="202" y="-156.8" font-family="Helvetica,sans-Serif" font-size="11.00" fill="#000000">scenario_type_id</text>
<polygon fill="none" stroke="#000000" points="301,-149.7 301,-171.7 400,-171.7 400,-149.7 301,-149.7"/>
<text text-anchor="start" x="304" y="-157.4" font-family="Helvetica,sans-Serif" font-size="11.00" fill="#000000">int2[5]</text>
<polygon fill="#ffffff" stroke="transparent" points="182,-130.7 182,-149.7 246,-149.7 246,-130.7 182,-130.7"/>
<polygon fill="none" stroke="#000000" points="182,-130.7 182,-149.7 246,-149.7 246,-130.7 182,-130.7"/>
<text text-anchor="start" x="185" y="-136.8" font-family="Helvetica,sans-Serif" font-size="11.00" fill="#000000">&lt; 2</text>
<polygon fill="#ffffff" stroke="transparent" points="246,-130.7 246,-149.7 301,-149.7 301,-130.7 246,-130.7"/>
<polygon fill="none" stroke="#000000" points="246,-130.7 246,-149.7 301,-149.7 301,-130.7 246,-130.7"/>
<text text-anchor="start" x="291.8862" y="-136.8" font-family="Helvetica,sans-Serif" font-size="11.00" fill="#000000"> &#160;</text>
<polygon fill="#ffffff" stroke="transparent" points="301,-130.7 301,-149.7 400,-149.7 400,-130.7 301,-130.7"/>
<polygon fill="none" stroke="#000000" points="301,-130.7 301,-149.7 400,-149.7 400,-130.7 301,-130.7"/>
<text text-anchor="start" x="381.4053" y="-136.8" font-family="Helvetica,sans-Serif" font-size="11.00" fill="#000000">0 &gt;</text>
<polygon fill="none" stroke="#000000" stroke-width="2" points="181,-129.7 181,-371.7 401,-371.7 401,-129.7 181,-129.7"/>
</a>
</g>
</g>
<!-- object -->
<g id="node2" class="node">
<title>object</title>
<g id="a_node2"><a xlink:href="../../tables/object.html" xlink:title="object" target="_top">
<polygon fill="#ffffff" stroke="transparent" points="8,-142.2 8,-291.2 131,-291.2 131,-142.2 8,-142.2"/>
<polygon fill="#f5f5f5" stroke="transparent" points="8.5,-267.7 8.5,-290.7 131.5,-290.7 131.5,-267.7 8.5,-267.7"/>
<polygon fill="none" stroke="#000000" points="8.5,-267.7 8.5,-290.7 131.5,-290.7 131.5,-267.7 8.5,-267.7"/>
<text text-anchor="start" x="13.5" y="-276.3" font-family="Helvetica,sans-Serif" font-weight="bold" font-size="11.00" fill="#000000">object</text>
<text text-anchor="start" x="96.5437" y="-275.8" font-family="Helvetica,sans-Serif" font-size="11.00" fill="#000000">[table]</text>
<polygon fill="none" stroke="#000000" points="8.5,-245.7 8.5,-267.7 131.5,-267.7 131.5,-245.7 8.5,-245.7"/>
<image xlink:href="../../images/primaryKeys.png" width="11px" height="12px" preserveAspectRatio="xMinYMin meet" x="13.5" y="-262.7"/>
<text text-anchor="start" x="28.5" y="-252.8" font-family="Helvetica,sans-Serif" font-size="11.00" fill="#000000">uuid</text>
<polygon fill="#ffffff" stroke="transparent" points="8.5,-223.7 8.5,-245.7 131.5,-245.7 131.5,-223.7 8.5,-223.7"/>
<polygon fill="none" stroke="#000000" points="8.5,-223.7 8.5,-245.7 131.5,-245.7 131.5,-223.7 8.5,-223.7"/>
<text text-anchor="start" x="28.5" y="-230.8" font-family="Helvetica,sans-Serif" font-size="11.00" fill="#000000">geom</text>
<polygon fill="#ffffff" stroke="transparent" points="8.5,-201.7 8.5,-223.7 131.5,-223.7 131.5,-201.7 8.5,-201.7"/>
<polygon fill="none" stroke="#000000" points="8.5,-201.7 8.5,-223.7 131.5,-223.7 131.5,-201.7 8.5,-201.7"/>
<text text-anchor="start" x="28.5" y="-208.8" font-family="Helvetica,sans-Serif" font-size="11.00" fill="#000000">revisie_frequentie</text>
<polygon fill="#ffffff" stroke="transparent" points="8.5,-179.7 8.5,-201.7 131.5,-201.7 131.5,-179.7 8.5,-179.7"/>
<polygon fill="none" stroke="#000000" points="8.5,-179.7 8.5,-201.7 131.5,-201.7 131.5,-179.7 8.5,-179.7"/>
<image xlink:href="../../images/foreignKeys.png" width="11px" height="12px" preserveAspectRatio="xMinYMin meet" x="13.5" y="-196.7"/>
<text text-anchor="start" x="28.5" y="-186.8" font-family="Helvetica,sans-Serif" font-size="11.00" fill="#000000">fase_id</text>
<polygon fill="none" stroke="#000000" points="8.5,-160.7 8.5,-179.7 131.5,-179.7 131.5,-160.7 8.5,-160.7"/>
<text text-anchor="start" x="11.5" y="-166.8" font-family="Helvetica,sans-Serif" font-size="11.00" fill="#000000">...</text>
<polygon fill="#ffffff" stroke="transparent" points="8.5,-141.7 8.5,-160.7 60.5,-160.7 60.5,-141.7 8.5,-141.7"/>
<polygon fill="none" stroke="#000000" points="8.5,-141.7 8.5,-160.7 60.5,-160.7 60.5,-141.7 8.5,-141.7"/>
<text text-anchor="start" x="11.5" y="-147.8" font-family="Helvetica,sans-Serif" font-size="11.00" fill="#000000">&lt; 1</text>
<polygon fill="#ffffff" stroke="transparent" points="60.5,-141.7 60.5,-160.7 88.5,-160.7 88.5,-141.7 60.5,-141.7"/>
<polygon fill="none" stroke="#000000" points="60.5,-141.7 60.5,-160.7 88.5,-160.7 88.5,-141.7 60.5,-141.7"/>
<text text-anchor="start" x="79.3862" y="-147.8" font-family="Helvetica,sans-Serif" font-size="11.00" fill="#000000"> &#160;</text>
<polygon fill="#ffffff" stroke="transparent" points="88.5,-141.7 88.5,-160.7 131.5,-160.7 131.5,-141.7 88.5,-141.7"/>
<polygon fill="none" stroke="#000000" points="88.5,-141.7 88.5,-160.7 131.5,-160.7 131.5,-141.7 88.5,-141.7"/>
<text text-anchor="start" x="106.7904" y="-147.8" font-family="Helvetica,sans-Serif" font-size="11.00" fill="#000000">10 &gt;</text>
</a>
</g>
</g>
<!-- scenario&#45;&gt;object -->
<g id="edge1" class="edge">
<title>scenario:w&#45;&gt;object:e</title>
<path fill="none" stroke="#000000" d="M168.1154,-187.329C149.4593,-203.5294 165.2515,-256.7 131.5,-256.7"/>
<polygon fill="#000000" stroke="#000000" points="174.4107,-185.2303 183.1386,-186.1152 178.2053,-183.9651 182,-182.7 182,-182.7 182,-182.7 178.2053,-183.9651 180.8614,-179.2848 174.4107,-185.2303 174.4107,-185.2303"/>
<ellipse fill="none" stroke="#000000" cx="171.3749" cy="-186.2424" rx="3.2" ry="3.2"/>
</g>
<!-- scenario_type -->
<g id="node3" class="node">
<title>scenario_type</title>
<g id="a_node3"><a xlink:href="../../tables/scenario_type.html" xlink:title="scenario_type" target="_top">
<polygon fill="#ffffff" stroke="transparent" points="10,-38.2 10,-121.2 129,-121.2 129,-38.2 10,-38.2"/>
<polygon fill="#f5f5f5" stroke="transparent" points="10.5,-97.7 10.5,-120.7 129.5,-120.7 129.5,-97.7 10.5,-97.7"/>
<polygon fill="none" stroke="#000000" points="10.5,-97.7 10.5,-120.7 129.5,-120.7 129.5,-97.7 10.5,-97.7"/>
<text text-anchor="start" x="15.5" y="-106.3" font-family="Helvetica,sans-Serif" font-weight="bold" font-size="11.00" fill="#000000">scenario_type</text>
<text text-anchor="start" x="95.0219" y="-105.8" font-family="Helvetica,sans-Serif" font-size="11.00" fill="#000000">[table]</text>
<polygon fill="none" stroke="#000000" points="10.5,-75.7 10.5,-97.7 129.5,-97.7 129.5,-75.7 10.5,-75.7"/>
<image xlink:href="../../images/primaryKeys.png" width="11px" height="12px" preserveAspectRatio="xMinYMin meet" x="15.5" y="-92.7"/>
<text text-anchor="start" x="39.5" y="-82.8" font-family="Helvetica,sans-Serif" font-size="11.00" fill="#000000">id</text>
<polygon fill="none" stroke="#000000" points="10.5,-56.7 10.5,-75.7 129.5,-75.7 129.5,-56.7 10.5,-56.7"/>
<text text-anchor="start" x="13.5" y="-62.8" font-family="Helvetica,sans-Serif" font-size="11.00" fill="#000000">...</text>
<polygon fill="#ffffff" stroke="transparent" points="10.5,-37.7 10.5,-56.7 59.5,-56.7 59.5,-37.7 10.5,-37.7"/>
<polygon fill="none" stroke="#000000" points="10.5,-37.7 10.5,-56.7 59.5,-56.7 59.5,-37.7 10.5,-37.7"/>
<text text-anchor="start" x="13.5" y="-43.8" font-family="Helvetica,sans-Serif" font-size="11.00" fill="#000000"> &#160;</text>
<polygon fill="#ffffff" stroke="transparent" points="59.5,-37.7 59.5,-56.7 89.5,-56.7 89.5,-37.7 59.5,-37.7"/>
<polygon fill="none" stroke="#000000" points="59.5,-37.7 59.5,-56.7 89.5,-56.7 89.5,-37.7 59.5,-37.7"/>
<text text-anchor="start" x="80.3862" y="-43.8" font-family="Helvetica,sans-Serif" font-size="11.00" fill="#000000"> &#160;</text>
<polygon fill="#ffffff" stroke="transparent" points="89.5,-37.7 89.5,-56.7 129.5,-56.7 129.5,-37.7 89.5,-37.7"/>
<polygon fill="none" stroke="#000000" points="89.5,-37.7 89.5,-56.7 129.5,-56.7 129.5,-37.7 89.5,-37.7"/>
<text text-anchor="start" x="110.9053" y="-43.8" font-family="Helvetica,sans-Serif" font-size="11.00" fill="#000000">1 &gt;</text>
</a>
</g>
</g>
<!-- scenario&#45;&gt;scenario_type -->
<g id="edge2" class="edge">
<title>scenario:w&#45;&gt;scenario_type:e</title>
<path fill="none" stroke="#000000" d="M168.1211,-156.2926C148.5232,-140.3617 163.8394,-86.7 129.5,-86.7"/>
<polygon fill="#000000" stroke="#000000" points="174.3752,-158.2786 180.9104,-164.1311 178.1876,-159.4893 182,-160.7 182,-160.7 182,-160.7 178.1876,-159.4893 183.0896,-157.2689 174.3752,-158.2786 174.3752,-158.2786"/>
<ellipse fill="none" stroke="#000000" cx="171.3253" cy="-157.3101" rx="3.2" ry="3.2"/>
</g>
</g>
</svg>
