<?xml version="1.0" encoding="UTF-8" standalone="no"?>
<!DOCTYPE svg PUBLIC "-//W3C//DTD SVG 1.1//EN"
 "http://www.w3.org/Graphics/SVG/1.1/DTD/svg11.dtd">
<!-- Generated by graphviz version 2.50.0 (0)
 -->
<!-- Title: oneDegreeRelationshipsDiagram Pages: 1 -->
<svg width="405pt" height="201pt"
 viewBox="0.00 0.00 405.00 201.00" xmlns="http://www.w3.org/2000/svg" xmlns:xlink="http://www.w3.org/1999/xlink">
<g id="graph0" class="graph" transform="scale(1 1) rotate(0) translate(4 197)">
<title>oneDegreeRelationshipsDiagram</title>
<polygon fill="#ffffff" stroke="transparent" points="-4,4 -4,-197 401,-197 401,4 -4,4"/>
<text text-anchor="middle" x="79.5" y="-7.2" font-family="Helvetica,sans-Serif" font-size="11.00">Generated by SchemaSpy</text>
<!-- scenario -->
<g id="node1" class="node">
<title>scenario</title>
<g id="a_node1"><a xlink:href="../../tables/scenario.html" xlink:title="scenario" target="_top">
<polygon fill="#ffffff" stroke="transparent" points="270,-65 270,-189 389,-189 389,-65 270,-65"/>
<polygon fill="#f5f5f5" stroke="transparent" points="270.5,-167 270.5,-189 389.5,-189 389.5,-167 270.5,-167"/>
<polygon fill="none" stroke="black" points="270.5,-167 270.5,-189 389.5,-189 389.5,-167 270.5,-167"/>
<text text-anchor="start" x="275.5" y="-176.2" font-family="Helvetica,sans-Serif" font-weight="bold" font-size="11.00">scenario</text>
<text text-anchor="start" x="347.5" y="-175.2" font-family="Helvetica,sans-Serif" font-size="11.00">[table]</text>
<polygon fill="none" stroke="black" points="270.5,-145 270.5,-167 389.5,-167 389.5,-145 270.5,-145"/>
<image xlink:href="../../images/primaryKeys.png" width="11px" height="12px" preserveAspectRatio="xMinYMin meet" x="275.5" y="-162"/>
<text text-anchor="start" x="290.5" y="-153.2" font-family="Helvetica,sans-Serif" font-size="11.00">uuid</text>
<polygon fill="#ffffff" stroke="transparent" points="270.5,-123 270.5,-145 389.5,-145 389.5,-123 270.5,-123"/>
<polygon fill="none" stroke="black" points="270.5,-123 270.5,-145 389.5,-145 389.5,-123 270.5,-123"/>
<image xlink:href="../../images/foreignKeys.png" width="11px" height="12px" preserveAspectRatio="xMinYMin meet" x="275.5" y="-140"/>
<text text-anchor="start" x="290.5" y="-131.2" font-family="Helvetica,sans-Serif" font-size="11.00">object_uuid</text>
<polygon fill="none" stroke="black" points="270.5,-101 270.5,-123 389.5,-123 389.5,-101 270.5,-101"/>
<image xlink:href="../../images/foreignKeys.png" width="11px" height="12px" preserveAspectRatio="xMinYMin meet" x="275.5" y="-118"/>
<text text-anchor="start" x="290.5" y="-109.2" font-family="Helvetica,sans-Serif" font-size="11.00">scenario_type_id</text>
<polygon fill="none" stroke="black" points="270.5,-83 270.5,-101 389.5,-101 389.5,-83 270.5,-83"/>
<text text-anchor="start" x="273.5" y="-89.2" font-family="Helvetica,sans-Serif" font-size="11.00">...</text>
<polygon fill="#ffffff" stroke="transparent" points="270.5,-65 270.5,-83 328.5,-83 328.5,-65 270.5,-65"/>
<polygon fill="none" stroke="black" points="270.5,-65 270.5,-83 328.5,-83 328.5,-65 270.5,-65"/>
<text text-anchor="start" x="273.5" y="-71.2" font-family="Helvetica,sans-Serif" font-size="11.00">&lt; 2</text>
<polygon fill="#ffffff" stroke="transparent" points="328.5,-65 328.5,-83 358.5,-83 358.5,-65 328.5,-65"/>
<polygon fill="none" stroke="black" points="328.5,-65 328.5,-83 358.5,-83 358.5,-65 328.5,-65"/>
<text text-anchor="start" x="347.5" y="-71.2" font-family="Helvetica,sans-Serif" font-size="11.00"> &#160;</text>
<polygon fill="#ffffff" stroke="transparent" points="358.5,-65 358.5,-83 389.5,-83 389.5,-65 358.5,-65"/>
<polygon fill="none" stroke="black" points="358.5,-65 358.5,-83 389.5,-83 389.5,-65 358.5,-65"/>
<text text-anchor="start" x="378.5" y="-71.2" font-family="Helvetica,sans-Serif" font-size="11.00"> &#160;</text>
</a>
</g>
</g>
<!-- scenario_type -->
<g id="node2" class="node">
<title>scenario_type</title>
<g id="a_node2"><a xlink:href="../../tables/scenario_type.html" xlink:title="scenario_type" target="_top">
<polygon fill="#ffffff" stroke="transparent" points="8,-37 8,-147 221,-147 221,-37 8,-37"/>
<polygon fill="#f5f5f5" stroke="transparent" points="10.5,-123 10.5,-145 219.5,-145 219.5,-123 10.5,-123"/>
<polygon fill="none" stroke="black" points="10.5,-123 10.5,-145 219.5,-145 219.5,-123 10.5,-123"/>
<text text-anchor="start" x="15.5" y="-132.2" font-family="Helvetica,sans-Serif" font-weight="bold" font-size="11.00">scenario_type</text>
<text text-anchor="start" x="177.5" y="-131.2" font-family="Helvetica,sans-Serif" font-size="11.00">[table]</text>
<polygon fill="none" stroke="black" points="10.5,-101 10.5,-123 113.5,-123 113.5,-101 10.5,-101"/>
<image xlink:href="../../images/primaryKeys.png" width="11px" height="12px" preserveAspectRatio="xMinYMin meet" x="15.5" y="-118"/>
<text text-anchor="start" x="30.5" y="-109.2" font-family="Helvetica,sans-Serif" font-size="11.00">id</text>
<polygon fill="none" stroke="black" points="113.5,-101 113.5,-123 219.5,-123 219.5,-101 113.5,-101"/>
<text text-anchor="start" x="116.5" y="-109.2" font-family="Helvetica,sans-Serif" font-size="11.00">int2[5]</text>
<polygon fill="none" stroke="black" points="10.5,-79 10.5,-101 113.5,-101 113.5,-79 10.5,-79"/>
<text text-anchor="start" x="30.5" y="-87.2" font-family="Helvetica,sans-Serif" font-size="11.00">naam</text>
<polygon fill="none" stroke="black" points="113.5,-79 113.5,-101 219.5,-101 219.5,-79 113.5,-79"/>
<text text-anchor="start" x="116.5" y="-87.2" font-family="Helvetica,sans-Serif" font-size="11.00">text[2147483647]</text>
<polygon fill="none" stroke="black" points="10.5,-57 10.5,-79 113.5,-79 113.5,-57 10.5,-57"/>
<text text-anchor="start" x="30.5" y="-65.2" font-family="Helvetica,sans-Serif" font-size="11.00">omschrijving</text>
<polygon fill="none" stroke="black" points="113.5,-57 113.5,-79 219.5,-79 219.5,-57 113.5,-57"/>
<text text-anchor="start" x="116.5" y="-65.2" font-family="Helvetica,sans-Serif" font-size="11.00">text[2147483647]</text>
<polygon fill="#ffffff" stroke="transparent" points="10.5,-39 10.5,-57 67.5,-57 67.5,-39 10.5,-39"/>
<polygon fill="none" stroke="black" points="10.5,-39 10.5,-57 67.5,-57 67.5,-39 10.5,-39"/>
<text text-anchor="start" x="13.5" y="-45.2" font-family="Helvetica,sans-Serif" font-size="11.00">&lt; 0</text>
<polygon fill="#ffffff" stroke="transparent" points="67.5,-39 67.5,-57 113.5,-57 113.5,-39 67.5,-39"/>
<polygon fill="none" stroke="black" points="67.5,-39 67.5,-57 113.5,-57 113.5,-39 67.5,-39"/>
<text text-anchor="start" x="102.5" y="-45.2" font-family="Helvetica,sans-Serif" font-size="11.00"> &#160;</text>
<polygon fill="#ffffff" stroke="transparent" points="113.5,-39 113.5,-57 219.5,-57 219.5,-39 113.5,-39"/>
<polygon fill="none" stroke="black" points="113.5,-39 113.5,-57 219.5,-57 219.5,-39 113.5,-39"/>
<text text-anchor="start" x="196.5" y="-45.2" font-family="Helvetica,sans-Serif" font-size="11.00">1 &gt;</text>
<polygon fill="none" stroke="black" stroke-width="2" points="9,-38 9,-146 220,-146 220,-38 9,-38"/>
</a>
</g>
</g>
<!-- scenario&#45;&gt;scenario_type -->
<g id="edge1" class="edge">
<title>scenario:w&#45;&gt;scenario_type:e</title>
<path fill="none" stroke="black" d="M254.99,-112C243.68,-112 236.49,-112 220.5,-112"/>
<polygon fill="black" stroke="black" points="261.5,-112 269.5,-115.6 265.5,-112 269.5,-112 269.5,-112 269.5,-112 265.5,-112 269.5,-108.4 261.5,-112 261.5,-112"/>
<ellipse fill="none" stroke="black" cx="258.3" cy="-112" rx="3.2" ry="3.2"/>
</g>
</g>
</svg>
