<?xml version="1.0" encoding="UTF-8" standalone="no"?>
<!DOCTYPE svg PUBLIC "-//W3C//DTD SVG 1.1//EN"
 "http://www.w3.org/Graphics/SVG/1.1/DTD/svg11.dtd">
<!-- Generated by graphviz version 2.40.1 (20161225.0304)
 -->
<!-- Title: oneDegreeRelationshipsDiagram Pages: 1 -->
<svg width="387pt" height="205pt"
 viewBox="0.00 0.00 387.00 204.70" xmlns="http://www.w3.org/2000/svg" xmlns:xlink="http://www.w3.org/1999/xlink">
<g id="graph0" class="graph" transform="scale(1 1) rotate(0) translate(4 200.7)">
<title>oneDegreeRelationshipsDiagram</title>
<polygon fill="#ffffff" stroke="transparent" points="-4,4 -4,-200.7 383,-200.7 383,4 -4,4"/>
<text text-anchor="middle" x="72.4936" y="-7.3" font-family="Helvetica,sans-Serif" font-size="11.00" fill="#000000">Generated by SchemaSpy</text>
<!-- scenario -->
<g id="node1" class="node">
<title>scenario</title>
<g id="a_node1"><a xlink:href="../../tables/scenario.html" xlink:title="scenario" target="_top">
<polygon fill="#ffffff" stroke="transparent" points="252,-65.7 252,-192.7 371,-192.7 371,-65.7 252,-65.7"/>
<polygon fill="#f5f5f5" stroke="transparent" points="252.5,-169.2 252.5,-192.2 371.5,-192.2 371.5,-169.2 252.5,-169.2"/>
<polygon fill="none" stroke="#000000" points="252.5,-169.2 252.5,-192.2 371.5,-192.2 371.5,-169.2 252.5,-169.2"/>
<text text-anchor="start" x="257.5" y="-177.8" font-family="Helvetica,sans-Serif" font-weight="bold" font-size="11.00" fill="#000000">scenario</text>
<text text-anchor="start" x="336.5437" y="-177.3" font-family="Helvetica,sans-Serif" font-size="11.00" fill="#000000">[table]</text>
<polygon fill="none" stroke="#000000" points="252.5,-147.2 252.5,-169.2 371.5,-169.2 371.5,-147.2 252.5,-147.2"/>
<image xlink:href="../../images/primaryKeys.png" width="11px" height="12px" preserveAspectRatio="xMinYMin meet" x="257.5" y="-164.2"/>
<text text-anchor="start" x="272.5" y="-154.3" font-family="Helvetica,sans-Serif" font-size="11.00" fill="#000000">uuid</text>
<polygon fill="#ffffff" stroke="transparent" points="252.5,-125.2 252.5,-147.2 371.5,-147.2 371.5,-125.2 252.5,-125.2"/>
<polygon fill="none" stroke="#000000" points="252.5,-125.2 252.5,-147.2 371.5,-147.2 371.5,-125.2 252.5,-125.2"/>
<image xlink:href="../../images/foreignKeys.png" width="11px" height="12px" preserveAspectRatio="xMinYMin meet" x="257.5" y="-142.2"/>
<text text-anchor="start" x="272.5" y="-132.3" font-family="Helvetica,sans-Serif" font-size="11.00" fill="#000000">object_uuid</text>
<polygon fill="none" stroke="#000000" points="252.5,-103.2 252.5,-125.2 371.5,-125.2 371.5,-103.2 252.5,-103.2"/>
<image xlink:href="../../images/foreignKeys.png" width="11px" height="12px" preserveAspectRatio="xMinYMin meet" x="257.5" y="-120.2"/>
<text text-anchor="start" x="272.5" y="-110.3" font-family="Helvetica,sans-Serif" font-size="11.00" fill="#000000">scenario_type_id</text>
<polygon fill="none" stroke="#000000" points="252.5,-84.2 252.5,-103.2 371.5,-103.2 371.5,-84.2 252.5,-84.2"/>
<text text-anchor="start" x="255.5" y="-90.3" font-family="Helvetica,sans-Serif" font-size="11.00" fill="#000000">...</text>
<polygon fill="#ffffff" stroke="transparent" points="252.5,-65.2 252.5,-84.2 310.5,-84.2 310.5,-65.2 252.5,-65.2"/>
<polygon fill="none" stroke="#000000" points="252.5,-65.2 252.5,-84.2 310.5,-84.2 310.5,-65.2 252.5,-65.2"/>
<text text-anchor="start" x="255.5" y="-71.3" font-family="Helvetica,sans-Serif" font-size="11.00" fill="#000000">&lt; 2</text>
<polygon fill="#ffffff" stroke="transparent" points="310.5,-65.2 310.5,-84.2 340.5,-84.2 340.5,-65.2 310.5,-65.2"/>
<polygon fill="none" stroke="#000000" points="310.5,-65.2 310.5,-84.2 340.5,-84.2 340.5,-65.2 310.5,-65.2"/>
<text text-anchor="start" x="331.3862" y="-71.3" font-family="Helvetica,sans-Serif" font-size="11.00" fill="#000000"> &#160;</text>
<polygon fill="#ffffff" stroke="transparent" points="340.5,-65.2 340.5,-84.2 371.5,-84.2 371.5,-65.2 340.5,-65.2"/>
<polygon fill="none" stroke="#000000" points="340.5,-65.2 340.5,-84.2 371.5,-84.2 371.5,-65.2 340.5,-65.2"/>
<text text-anchor="start" x="362.3862" y="-71.3" font-family="Helvetica,sans-Serif" font-size="11.00" fill="#000000"> &#160;</text>
</a>
</g>
</g>
<!-- scenario_type -->
<g id="node2" class="node">
<title>scenario_type</title>
<g id="a_node2"><a xlink:href="../../tables/scenario_type.html" xlink:title="scenario_type" target="_top">
<polygon fill="#ffffff" stroke="transparent" points="8,-38.2 8,-150.2 203,-150.2 203,-38.2 8,-38.2"/>
<polygon fill="#f5f5f5" stroke="transparent" points="10.5,-125.2 10.5,-148.2 201.5,-148.2 201.5,-125.2 10.5,-125.2"/>
<polygon fill="none" stroke="#000000" points="10.5,-125.2 10.5,-148.2 201.5,-148.2 201.5,-125.2 10.5,-125.2"/>
<text text-anchor="start" x="15.5" y="-133.8" font-family="Helvetica,sans-Serif" font-weight="bold" font-size="11.00" fill="#000000">scenario_type</text>
<text text-anchor="start" x="166.5437" y="-133.3" font-family="Helvetica,sans-Serif" font-size="11.00" fill="#000000">[table]</text>
<polygon fill="none" stroke="#000000" points="10.5,-103.2 10.5,-125.2 111.5,-125.2 111.5,-103.2 10.5,-103.2"/>
<image xlink:href="../../images/primaryKeys.png" width="11px" height="12px" preserveAspectRatio="xMinYMin meet" x="15.5" y="-120.2"/>
<text text-anchor="start" x="30.5" y="-110.3" font-family="Helvetica,sans-Serif" font-size="11.00" fill="#000000">id</text>
<polygon fill="none" stroke="#000000" points="111.5,-103.2 111.5,-125.2 201.5,-125.2 201.5,-103.2 111.5,-103.2"/>
<text text-anchor="start" x="114.5" y="-110.9" font-family="Helvetica,sans-Serif" font-size="11.00" fill="#000000">int2[5]</text>
<polygon fill="none" stroke="#000000" points="10.5,-81.2 10.5,-103.2 111.5,-103.2 111.5,-81.2 10.5,-81.2"/>
<text text-anchor="start" x="30.5" y="-88.3" font-family="Helvetica,sans-Serif" font-size="11.00" fill="#000000">naam</text>
<polygon fill="none" stroke="#000000" points="111.5,-81.2 111.5,-103.2 201.5,-103.2 201.5,-81.2 111.5,-81.2"/>
<text text-anchor="start" x="114.0042" y="-88.9" font-family="Helvetica,sans-Serif" font-size="11.00" fill="#000000">text[2147483647]</text>
<polygon fill="none" stroke="#000000" points="10.5,-59.2 10.5,-81.2 111.5,-81.2 111.5,-59.2 10.5,-59.2"/>
<text text-anchor="start" x="30.5" y="-66.3" font-family="Helvetica,sans-Serif" font-size="11.00" fill="#000000">omschrijving</text>
<polygon fill="none" stroke="#000000" points="111.5,-59.2 111.5,-81.2 201.5,-81.2 201.5,-59.2 111.5,-59.2"/>
<text text-anchor="start" x="114.0042" y="-66.9" font-family="Helvetica,sans-Serif" font-size="11.00" fill="#000000">text[2147483647]</text>
<polygon fill="#ffffff" stroke="transparent" points="10.5,-40.2 10.5,-59.2 65.5,-59.2 65.5,-40.2 10.5,-40.2"/>
<polygon fill="none" stroke="#000000" points="10.5,-40.2 10.5,-59.2 65.5,-59.2 65.5,-40.2 10.5,-40.2"/>
<text text-anchor="start" x="13.5" y="-46.3" font-family="Helvetica,sans-Serif" font-size="11.00" fill="#000000">&lt; 0</text>
<polygon fill="#ffffff" stroke="transparent" points="65.5,-40.2 65.5,-59.2 111.5,-59.2 111.5,-40.2 65.5,-40.2"/>
<polygon fill="none" stroke="#000000" points="65.5,-40.2 65.5,-59.2 111.5,-59.2 111.5,-40.2 65.5,-40.2"/>
<text text-anchor="start" x="102.3862" y="-46.3" font-family="Helvetica,sans-Serif" font-size="11.00" fill="#000000"> &#160;</text>
<polygon fill="#ffffff" stroke="transparent" points="111.5,-40.2 111.5,-59.2 201.5,-59.2 201.5,-40.2 111.5,-40.2"/>
<polygon fill="none" stroke="#000000" points="111.5,-40.2 111.5,-59.2 201.5,-59.2 201.5,-40.2 111.5,-40.2"/>
<text text-anchor="start" x="182.9053" y="-46.3" font-family="Helvetica,sans-Serif" font-size="11.00" fill="#000000">1 &gt;</text>
<polygon fill="none" stroke="#000000" stroke-width="2" points="9,-39.2 9,-149.2 202,-149.2 202,-39.2 9,-39.2"/>
</a>
</g>
</g>
<!-- scenario&#45;&gt;scenario_type -->
<g id="edge1" class="edge">
<title>scenario:w&#45;&gt;scenario_type:e</title>
<path fill="none" stroke="#000000" d="M237.776,-114.2C225.7815,-114.2 218.3229,-114.2 201.5,-114.2"/>
<polygon fill="#000000" stroke="#000000" points="244.5,-114.2001 252.5,-117.8 248.5,-114.2 252.5,-114.2 252.5,-114.2 252.5,-114.2 248.5,-114.2 252.5,-110.6 244.5,-114.2001 244.5,-114.2001"/>
<ellipse fill="none" stroke="#000000" cx="241.3" cy="-114.2001" rx="3.2" ry="3.2"/>
</g>
</g>
</svg>
