<?xml version="1.0" encoding="UTF-8" standalone="no"?>
<!DOCTYPE svg PUBLIC "-//W3C//DTD SVG 1.1//EN"
 "http://www.w3.org/Graphics/SVG/1.1/DTD/svg11.dtd">
<!-- Generated by graphviz version 2.40.1 (20161225.0304)
 -->
<!-- Title: twoDegreesRelationshipsDiagram Pages: 1 -->
<svg width="548pt" height="1049pt"
 viewBox="0.00 0.00 548.00 1049.20" xmlns="http://www.w3.org/2000/svg" xmlns:xlink="http://www.w3.org/1999/xlink">
<g id="graph0" class="graph" transform="scale(1 1) rotate(0) translate(4 1045.2)">
<title>twoDegreesRelationshipsDiagram</title>
<polygon fill="#ffffff" stroke="transparent" points="-4,4 -4,-1045.2 544,-1045.2 544,4 -4,4"/>
<text text-anchor="middle" x="72.4936" y="-7.3" font-family="Helvetica,sans-Serif" font-size="11.00" fill="#000000">Generated by SchemaSpy</text>
<!-- bereikbaarheid -->
<g id="node1" class="node">
<title>bereikbaarheid</title>
<g id="a_node1"><a xlink:href="../../tables/bereikbaarheid.html" xlink:title="bereikbaarheid" target="_top">
<polygon fill="#ffffff" stroke="transparent" points="359,-976.2 359,-1037.2 483,-1037.2 483,-976.2 359,-976.2"/>
<polygon fill="#f5f5f5" stroke="transparent" points="359,-1013.7 359,-1036.7 483,-1036.7 483,-1013.7 359,-1013.7"/>
<polygon fill="none" stroke="#000000" points="359,-1013.7 359,-1036.7 483,-1036.7 483,-1013.7 359,-1013.7"/>
<text text-anchor="start" x="364" y="-1022.3" font-family="Helvetica,sans-Serif" font-weight="bold" font-size="11.00" fill="#000000">bereikbaarheid</text>
<text text-anchor="start" x="448.5219" y="-1021.8" font-family="Helvetica,sans-Serif" font-size="11.00" fill="#000000">[table]</text>
<polygon fill="none" stroke="#000000" points="359,-994.7 359,-1013.7 483,-1013.7 483,-994.7 359,-994.7"/>
<text text-anchor="start" x="362" y="-1000.8" font-family="Helvetica,sans-Serif" font-size="11.00" fill="#000000">...</text>
<polygon fill="#ffffff" stroke="transparent" points="359,-975.7 359,-994.7 419,-994.7 419,-975.7 359,-975.7"/>
<polygon fill="none" stroke="#000000" points="359,-975.7 359,-994.7 419,-994.7 419,-975.7 359,-975.7"/>
<text text-anchor="start" x="362" y="-981.8" font-family="Helvetica,sans-Serif" font-size="11.00" fill="#000000">&lt; 2</text>
<polygon fill="#ffffff" stroke="transparent" points="419,-975.7 419,-994.7 451,-994.7 451,-975.7 419,-975.7"/>
<polygon fill="none" stroke="#000000" points="419,-975.7 419,-994.7 451,-994.7 451,-975.7 419,-975.7"/>
<text text-anchor="start" x="441.8862" y="-981.8" font-family="Helvetica,sans-Serif" font-size="11.00" fill="#000000"> &#160;</text>
<polygon fill="#ffffff" stroke="transparent" points="451,-975.7 451,-994.7 483,-994.7 483,-975.7 451,-975.7"/>
<polygon fill="none" stroke="#000000" points="451,-975.7 451,-994.7 483,-994.7 483,-975.7 451,-975.7"/>
<text text-anchor="start" x="473.8862" y="-981.8" font-family="Helvetica,sans-Serif" font-size="11.00" fill="#000000"> &#160;</text>
</a>
</g>
</g>
<!-- object -->
<g id="node2" class="node">
<title>object</title>
<g id="a_node2"><a xlink:href="../../tables/object.html" xlink:title="object" target="_top">
<polygon fill="#ffffff" stroke="transparent" points="138,-520.2 138,-669.2 261,-669.2 261,-520.2 138,-520.2"/>
<polygon fill="#f5f5f5" stroke="transparent" points="138.5,-645.7 138.5,-668.7 261.5,-668.7 261.5,-645.7 138.5,-645.7"/>
<polygon fill="none" stroke="#000000" points="138.5,-645.7 138.5,-668.7 261.5,-668.7 261.5,-645.7 138.5,-645.7"/>
<text text-anchor="start" x="143.5" y="-654.3" font-family="Helvetica,sans-Serif" font-weight="bold" font-size="11.00" fill="#000000">object</text>
<text text-anchor="start" x="226.5437" y="-653.8" font-family="Helvetica,sans-Serif" font-size="11.00" fill="#000000">[table]</text>
<polygon fill="none" stroke="#000000" points="138.5,-623.7 138.5,-645.7 261.5,-645.7 261.5,-623.7 138.5,-623.7"/>
<image xlink:href="../../images/primaryKeys.png" width="11px" height="12px" preserveAspectRatio="xMinYMin meet" x="143.5" y="-640.7"/>
<text text-anchor="start" x="158.5" y="-630.8" font-family="Helvetica,sans-Serif" font-size="11.00" fill="#000000">uuid</text>
<polygon fill="#ffffff" stroke="transparent" points="138.5,-601.7 138.5,-623.7 261.5,-623.7 261.5,-601.7 138.5,-601.7"/>
<polygon fill="none" stroke="#000000" points="138.5,-601.7 138.5,-623.7 261.5,-623.7 261.5,-601.7 138.5,-601.7"/>
<text text-anchor="start" x="158.5" y="-608.8" font-family="Helvetica,sans-Serif" font-size="11.00" fill="#000000">geom</text>
<polygon fill="#ffffff" stroke="transparent" points="138.5,-579.7 138.5,-601.7 261.5,-601.7 261.5,-579.7 138.5,-579.7"/>
<polygon fill="none" stroke="#000000" points="138.5,-579.7 138.5,-601.7 261.5,-601.7 261.5,-579.7 138.5,-579.7"/>
<text text-anchor="start" x="158.5" y="-586.8" font-family="Helvetica,sans-Serif" font-size="11.00" fill="#000000">revisie_frequentie</text>
<polygon fill="#ffffff" stroke="transparent" points="138.5,-557.7 138.5,-579.7 261.5,-579.7 261.5,-557.7 138.5,-557.7"/>
<polygon fill="none" stroke="#000000" points="138.5,-557.7 138.5,-579.7 261.5,-579.7 261.5,-557.7 138.5,-557.7"/>
<image xlink:href="../../images/foreignKeys.png" width="11px" height="12px" preserveAspectRatio="xMinYMin meet" x="143.5" y="-574.7"/>
<text text-anchor="start" x="158.5" y="-564.8" font-family="Helvetica,sans-Serif" font-size="11.00" fill="#000000">fase_id</text>
<polygon fill="none" stroke="#000000" points="138.5,-538.7 138.5,-557.7 261.5,-557.7 261.5,-538.7 138.5,-538.7"/>
<text text-anchor="start" x="141.5" y="-544.8" font-family="Helvetica,sans-Serif" font-size="11.00" fill="#000000">...</text>
<polygon fill="#ffffff" stroke="transparent" points="138.5,-519.7 138.5,-538.7 190.5,-538.7 190.5,-519.7 138.5,-519.7"/>
<polygon fill="none" stroke="#000000" points="138.5,-519.7 138.5,-538.7 190.5,-538.7 190.5,-519.7 138.5,-519.7"/>
<text text-anchor="start" x="141.5" y="-525.8" font-family="Helvetica,sans-Serif" font-size="11.00" fill="#000000">&lt; 1</text>
<polygon fill="#ffffff" stroke="transparent" points="190.5,-519.7 190.5,-538.7 218.5,-538.7 218.5,-519.7 190.5,-519.7"/>
<polygon fill="none" stroke="#000000" points="190.5,-519.7 190.5,-538.7 218.5,-538.7 218.5,-519.7 190.5,-519.7"/>
<text text-anchor="start" x="209.3862" y="-525.8" font-family="Helvetica,sans-Serif" font-size="11.00" fill="#000000"> &#160;</text>
<polygon fill="#ffffff" stroke="transparent" points="218.5,-519.7 218.5,-538.7 261.5,-538.7 261.5,-519.7 218.5,-519.7"/>
<polygon fill="none" stroke="#000000" points="218.5,-519.7 218.5,-538.7 261.5,-538.7 261.5,-519.7 218.5,-519.7"/>
<text text-anchor="start" x="236.7904" y="-525.8" font-family="Helvetica,sans-Serif" font-size="11.00" fill="#000000">10 &gt;</text>
</a>
</g>
</g>
<!-- bereikbaarheid&#45;&gt;object -->
<g id="edge1" class="edge">
<title>bereikbaarheid:w&#45;&gt;object:e</title>
<path fill="none" stroke="#000000" d="M344.365,-1002.5197C324.5768,-998.912 315.103,-986.9629 302,-965.7 263.1233,-902.6126 335.6041,-634.7 261.5,-634.7"/>
<polygon fill="#000000" stroke="#000000" points="351.0259,-1003.0569 358.7106,-1007.2883 355.0129,-1003.3784 359,-1003.7 359,-1003.7 359,-1003.7 355.0129,-1003.3784 359.2894,-1000.1117 351.0259,-1003.0569 351.0259,-1003.0569"/>
<ellipse fill="none" stroke="#000000" cx="347.8362" cy="-1002.7996" rx="3.2" ry="3.2"/>
</g>
<!-- roi.fase -->
<g id="node5" class="node">
<title>roi.fase</title>
<g id="a_node5"><a xlink:href="../../../roi/tables/fase.html" xlink:title="roi.fase" target="_top">
<polygon fill="#ffffff" stroke="transparent" points="8,-541.2 8,-602.2 89,-602.2 89,-541.2 8,-541.2"/>
<polygon fill="#f5f5f5" stroke="transparent" points="8.5,-578.7 8.5,-601.7 89.5,-601.7 89.5,-578.7 8.5,-578.7"/>
<polygon fill="none" stroke="#000000" points="8.5,-578.7 8.5,-601.7 89.5,-601.7 89.5,-578.7 8.5,-578.7"/>
<text text-anchor="start" x="13.5" y="-587.3" font-family="Helvetica,sans-Serif" font-weight="bold" font-size="11.00" fill="#000000">roi.fase</text>
<text text-anchor="start" x="55.0219" y="-586.8" font-family="Helvetica,sans-Serif" font-size="11.00" fill="#000000">[table]</text>
<polygon fill="none" stroke="#000000" points="8.5,-559.7 8.5,-578.7 89.5,-578.7 89.5,-559.7 8.5,-559.7"/>
<text text-anchor="start" x="11.5" y="-565.8" font-family="Helvetica,sans-Serif" font-size="11.00" fill="#000000">...</text>
<polygon fill="#ffffff" stroke="transparent" points="8.5,-540.7 8.5,-559.7 38.5,-559.7 38.5,-540.7 8.5,-540.7"/>
<polygon fill="none" stroke="#000000" points="8.5,-540.7 8.5,-559.7 38.5,-559.7 38.5,-540.7 8.5,-540.7"/>
<text text-anchor="start" x="11.5" y="-546.8" font-family="Helvetica,sans-Serif" font-size="11.00" fill="#000000"> &#160;</text>
<polygon fill="#ffffff" stroke="transparent" points="38.5,-540.7 38.5,-559.7 59.5,-559.7 59.5,-540.7 38.5,-540.7"/>
<polygon fill="none" stroke="#000000" points="38.5,-540.7 38.5,-559.7 59.5,-559.7 59.5,-540.7 38.5,-540.7"/>
<text text-anchor="start" x="50.3862" y="-546.8" font-family="Helvetica,sans-Serif" font-size="11.00" fill="#000000"> &#160;</text>
<polygon fill="#ffffff" stroke="transparent" points="59.5,-540.7 59.5,-559.7 89.5,-559.7 89.5,-540.7 59.5,-540.7"/>
<polygon fill="none" stroke="#000000" points="59.5,-540.7 59.5,-559.7 89.5,-559.7 89.5,-540.7 59.5,-540.7"/>
<text text-anchor="start" x="70.9053" y="-546.8" font-family="Helvetica,sans-Serif" font-size="11.00" fill="#000000">1 &gt;</text>
</a>
</g>
</g>
<!-- object&#45;&gt;roi.fase -->
<g id="edge4" class="edge">
<title>object:w&#45;&gt;roi.fase:e</title>
<path fill="none" stroke="#000000" d="M123.9909,-568.7C112.6774,-568.7 105.4931,-568.7 89.5,-568.7"/>
<polygon fill="#000000" stroke="#000000" points="130.5,-568.7001 138.5,-572.3 134.5,-568.7 138.5,-568.7 138.5,-568.7 138.5,-568.7 134.5,-568.7 138.5,-565.1 130.5,-568.7001 130.5,-568.7001"/>
<ellipse fill="none" stroke="#000000" cx="127.3" cy="-568.7001" rx="3.2" ry="3.2"/>
</g>
<!-- gevaarlijkestof -->
<g id="node3" class="node">
<title>gevaarlijkestof</title>
<g id="a_node3"><a xlink:href="../../tables/gevaarlijkestof.html" xlink:title="gevaarlijkestof" target="_top">
<polygon fill="#ffffff" stroke="transparent" points="359.5,-894.2 359.5,-955.2 482.5,-955.2 482.5,-894.2 359.5,-894.2"/>
<polygon fill="#f5f5f5" stroke="transparent" points="360,-931.7 360,-954.7 483,-954.7 483,-931.7 360,-931.7"/>
<polygon fill="none" stroke="#000000" points="360,-931.7 360,-954.7 483,-954.7 483,-931.7 360,-931.7"/>
<text text-anchor="start" x="365" y="-940.3" font-family="Helvetica,sans-Serif" font-weight="bold" font-size="11.00" fill="#000000">gevaarlijkestof</text>
<text text-anchor="start" x="448.5219" y="-939.8" font-family="Helvetica,sans-Serif" font-size="11.00" fill="#000000">[table]</text>
<polygon fill="none" stroke="#000000" points="360,-912.7 360,-931.7 483,-931.7 483,-912.7 360,-912.7"/>
<text text-anchor="start" x="363" y="-918.8" font-family="Helvetica,sans-Serif" font-size="11.00" fill="#000000">...</text>
<polygon fill="#ffffff" stroke="transparent" points="360,-893.7 360,-912.7 420,-912.7 420,-893.7 360,-893.7"/>
<polygon fill="none" stroke="#000000" points="360,-893.7 360,-912.7 420,-912.7 420,-893.7 360,-893.7"/>
<text text-anchor="start" x="363" y="-899.8" font-family="Helvetica,sans-Serif" font-size="11.00" fill="#000000">&lt; 1</text>
<polygon fill="#ffffff" stroke="transparent" points="420,-893.7 420,-912.7 451,-912.7 451,-893.7 420,-893.7"/>
<polygon fill="none" stroke="#000000" points="420,-893.7 420,-912.7 451,-912.7 451,-893.7 420,-893.7"/>
<text text-anchor="start" x="441.8862" y="-899.8" font-family="Helvetica,sans-Serif" font-size="11.00" fill="#000000"> &#160;</text>
<polygon fill="#ffffff" stroke="transparent" points="451,-893.7 451,-912.7 483,-912.7 483,-893.7 451,-893.7"/>
<polygon fill="none" stroke="#000000" points="451,-893.7 451,-912.7 483,-912.7 483,-893.7 451,-893.7"/>
<text text-anchor="start" x="473.8862" y="-899.8" font-family="Helvetica,sans-Serif" font-size="11.00" fill="#000000"> &#160;</text>
</a>
</g>
</g>
<!-- gevaarlijkestof&#45;&gt;object -->
<g id="edge2" class="edge">
<title>gevaarlijkestof:w&#45;&gt;object:e</title>
<path fill="none" stroke="#000000" d="M345.4959,-920.5649C325.3299,-917.0037 315.8353,-905.0019 302,-883.7 271.4646,-836.6855 317.5605,-634.7 261.5,-634.7"/>
<polygon fill="#000000" stroke="#000000" points="352.0244,-921.0758 359.7191,-925.289 356.0122,-921.3879 360,-921.7 360,-921.7 360,-921.7 356.0122,-921.3879 360.2809,-918.111 352.0244,-921.0758 352.0244,-921.0758"/>
<ellipse fill="none" stroke="#000000" cx="348.8341" cy="-920.8261" rx="3.2" ry="3.2"/>
</g>
<!-- label -->
<g id="node4" class="node">
<title>label</title>
<g id="a_node4"><a xlink:href="../../tables/label.html" xlink:title="label" target="_top">
<polygon fill="#ffffff" stroke="transparent" points="388,-812.2 388,-873.2 454,-873.2 454,-812.2 388,-812.2"/>
<polygon fill="#f5f5f5" stroke="transparent" points="388,-849.7 388,-872.7 454,-872.7 454,-849.7 388,-849.7"/>
<polygon fill="none" stroke="#000000" points="388,-849.7 388,-872.7 454,-872.7 454,-849.7 388,-849.7"/>
<text text-anchor="start" x="392.8868" y="-858.3" font-family="Helvetica,sans-Serif" font-weight="bold" font-size="11.00" fill="#000000">label</text>
<text text-anchor="start" x="419.5219" y="-857.8" font-family="Helvetica,sans-Serif" font-size="11.00" fill="#000000">[table]</text>
<polygon fill="none" stroke="#000000" points="388,-830.7 388,-849.7 454,-849.7 454,-830.7 388,-830.7"/>
<text text-anchor="start" x="391" y="-836.8" font-family="Helvetica,sans-Serif" font-size="11.00" fill="#000000">...</text>
<polygon fill="#ffffff" stroke="transparent" points="388,-811.7 388,-830.7 419,-830.7 419,-811.7 388,-811.7"/>
<polygon fill="none" stroke="#000000" points="388,-811.7 388,-830.7 419,-830.7 419,-811.7 388,-811.7"/>
<text text-anchor="start" x="391" y="-817.8" font-family="Helvetica,sans-Serif" font-size="11.00" fill="#000000">&lt; 2</text>
<polygon fill="#ffffff" stroke="transparent" points="419,-811.7 419,-830.7 436,-830.7 436,-811.7 419,-811.7"/>
<polygon fill="none" stroke="#000000" points="419,-811.7 419,-830.7 436,-830.7 436,-811.7 419,-811.7"/>
<text text-anchor="start" x="426.8862" y="-817.8" font-family="Helvetica,sans-Serif" font-size="11.00" fill="#000000"> &#160;</text>
<polygon fill="#ffffff" stroke="transparent" points="436,-811.7 436,-830.7 454,-830.7 454,-811.7 436,-811.7"/>
<polygon fill="none" stroke="#000000" points="436,-811.7 436,-830.7 454,-830.7 454,-811.7 436,-811.7"/>
<text text-anchor="start" x="444.8862" y="-817.8" font-family="Helvetica,sans-Serif" font-size="11.00" fill="#000000"> &#160;</text>
</a>
</g>
</g>
<!-- label&#45;&gt;object -->
<g id="edge3" class="edge">
<title>label:w&#45;&gt;object:e</title>
<path fill="none" stroke="#000000" d="M373.4065,-839.3821C341.7134,-837.8067 325.4522,-829.7519 302,-801.7 253.0136,-743.1059 337.8737,-634.7 261.5,-634.7"/>
<polygon fill="#000000" stroke="#000000" points="380.0019,-839.5257 387.9216,-843.2991 384.0009,-839.6129 388,-839.7 388,-839.7 388,-839.7 384.0009,-839.6129 388.0784,-836.1009 380.0019,-839.5257 380.0019,-839.5257"/>
<ellipse fill="none" stroke="#000000" cx="376.8027" cy="-839.456" rx="3.2" ry="3.2"/>
</g>
<!-- opstelplaats -->
<g id="node6" class="node">
<title>opstelplaats</title>
<g id="a_node6"><a xlink:href="../../tables/opstelplaats.html" xlink:title="opstelplaats" target="_top">
<polygon fill="#ffffff" stroke="transparent" points="366.5,-730.2 366.5,-791.2 475.5,-791.2 475.5,-730.2 366.5,-730.2"/>
<polygon fill="#f5f5f5" stroke="transparent" points="367,-767.7 367,-790.7 476,-790.7 476,-767.7 367,-767.7"/>
<polygon fill="none" stroke="#000000" points="367,-767.7 367,-790.7 476,-790.7 476,-767.7 367,-767.7"/>
<text text-anchor="start" x="372" y="-776.3" font-family="Helvetica,sans-Serif" font-weight="bold" font-size="11.00" fill="#000000">opstelplaats</text>
<text text-anchor="start" x="441.5219" y="-775.8" font-family="Helvetica,sans-Serif" font-size="11.00" fill="#000000">[table]</text>
<polygon fill="none" stroke="#000000" points="367,-748.7 367,-767.7 476,-767.7 476,-748.7 367,-748.7"/>
<text text-anchor="start" x="370" y="-754.8" font-family="Helvetica,sans-Serif" font-size="11.00" fill="#000000">...</text>
<polygon fill="#ffffff" stroke="transparent" points="367,-729.7 367,-748.7 420,-748.7 420,-729.7 367,-729.7"/>
<polygon fill="none" stroke="#000000" points="367,-729.7 367,-748.7 420,-748.7 420,-729.7 367,-729.7"/>
<text text-anchor="start" x="370" y="-735.8" font-family="Helvetica,sans-Serif" font-size="11.00" fill="#000000">&lt; 2</text>
<polygon fill="#ffffff" stroke="transparent" points="420,-729.7 420,-748.7 448,-748.7 448,-729.7 420,-729.7"/>
<polygon fill="none" stroke="#000000" points="420,-729.7 420,-748.7 448,-748.7 448,-729.7 420,-729.7"/>
<text text-anchor="start" x="438.8862" y="-735.8" font-family="Helvetica,sans-Serif" font-size="11.00" fill="#000000"> &#160;</text>
<polygon fill="#ffffff" stroke="transparent" points="448,-729.7 448,-748.7 476,-748.7 476,-729.7 448,-729.7"/>
<polygon fill="none" stroke="#000000" points="448,-729.7 448,-748.7 476,-748.7 476,-729.7 448,-729.7"/>
<text text-anchor="start" x="466.8862" y="-735.8" font-family="Helvetica,sans-Serif" font-size="11.00" fill="#000000"> &#160;</text>
</a>
</g>
</g>
<!-- opstelplaats&#45;&gt;object -->
<g id="edge5" class="edge">
<title>opstelplaats:w&#45;&gt;object:e</title>
<path fill="none" stroke="#000000" d="M352.3445,-756.6303C330.2483,-753.0124 320.9282,-740.2969 302,-719.7 273.6842,-688.888 303.3469,-634.7 261.5,-634.7"/>
<polygon fill="#000000" stroke="#000000" points="359.0212,-757.1176 366.7379,-761.2904 363.0106,-757.4088 367,-757.7 367,-757.7 367,-757.7 363.0106,-757.4088 367.2621,-754.1096 359.0212,-757.1176 359.0212,-757.1176"/>
<ellipse fill="none" stroke="#000000" cx="355.8297" cy="-756.8846" rx="3.2" ry="3.2"/>
</g>
<!-- pand -->
<g id="node7" class="node">
<title>pand</title>
<g id="a_node7"><a xlink:href="../../tables/pand.html" xlink:title="pand" target="_top">
<polygon fill="#ffffff" stroke="transparent" points="387.5,-648.2 387.5,-709.2 454.5,-709.2 454.5,-648.2 387.5,-648.2"/>
<polygon fill="#f5f5f5" stroke="transparent" points="388,-685.7 388,-708.7 455,-708.7 455,-685.7 388,-685.7"/>
<polygon fill="none" stroke="#000000" points="388,-685.7 388,-708.7 455,-708.7 455,-685.7 388,-685.7"/>
<text text-anchor="start" x="392.7702" y="-694.3" font-family="Helvetica,sans-Serif" font-weight="bold" font-size="11.00" fill="#000000">pand</text>
<text text-anchor="start" x="420.5219" y="-693.8" font-family="Helvetica,sans-Serif" font-size="11.00" fill="#000000">[table]</text>
<polygon fill="none" stroke="#000000" points="388,-666.7 388,-685.7 455,-685.7 455,-666.7 388,-666.7"/>
<text text-anchor="start" x="391" y="-672.8" font-family="Helvetica,sans-Serif" font-size="11.00" fill="#000000">...</text>
<polygon fill="#ffffff" stroke="transparent" points="388,-647.7 388,-666.7 420,-666.7 420,-647.7 388,-647.7"/>
<polygon fill="none" stroke="#000000" points="388,-647.7 388,-666.7 420,-666.7 420,-647.7 388,-647.7"/>
<text text-anchor="start" x="391" y="-653.8" font-family="Helvetica,sans-Serif" font-size="11.00" fill="#000000">&lt; 1</text>
<polygon fill="#ffffff" stroke="transparent" points="420,-647.7 420,-666.7 437,-666.7 437,-647.7 420,-647.7"/>
<polygon fill="none" stroke="#000000" points="420,-647.7 420,-666.7 437,-666.7 437,-647.7 420,-647.7"/>
<text text-anchor="start" x="427.8862" y="-653.8" font-family="Helvetica,sans-Serif" font-size="11.00" fill="#000000"> &#160;</text>
<polygon fill="#ffffff" stroke="transparent" points="437,-647.7 437,-666.7 455,-666.7 455,-647.7 437,-647.7"/>
<polygon fill="none" stroke="#000000" points="437,-647.7 437,-666.7 455,-666.7 455,-647.7 437,-647.7"/>
<text text-anchor="start" x="445.8862" y="-653.8" font-family="Helvetica,sans-Serif" font-size="11.00" fill="#000000"> &#160;</text>
</a>
</g>
</g>
<!-- pand&#45;&gt;object -->
<g id="edge6" class="edge">
<title>pand:w&#45;&gt;object:e</title>
<path fill="none" stroke="#000000" d="M373.525,-674.8055C327.0476,-668.8097 315.407,-634.7 261.5,-634.7"/>
<polygon fill="#000000" stroke="#000000" points="380.0152,-675.2065 387.7779,-679.2931 384.0076,-675.4533 388,-675.7 388,-675.7 388,-675.7 384.0076,-675.4533 388.2221,-672.1069 380.0152,-675.2065 380.0152,-675.2065"/>
<ellipse fill="none" stroke="#000000" cx="376.8213" cy="-675.0092" rx="3.2" ry="3.2"/>
</g>
<!-- risico -->
<g id="node8" class="node">
<title>risico</title>
<g id="a_node8"><a xlink:href="../../tables/risico.html" xlink:title="risico" target="_top">
<polygon fill="#ffffff" stroke="transparent" points="385.5,-566.2 385.5,-627.2 456.5,-627.2 456.5,-566.2 385.5,-566.2"/>
<polygon fill="#f5f5f5" stroke="transparent" points="386,-603.7 386,-626.7 457,-626.7 457,-603.7 386,-603.7"/>
<polygon fill="none" stroke="#000000" points="386,-603.7 386,-626.7 457,-626.7 457,-603.7 386,-603.7"/>
<text text-anchor="start" x="391" y="-612.3" font-family="Helvetica,sans-Serif" font-weight="bold" font-size="11.00" fill="#000000">risico</text>
<text text-anchor="start" x="422.5219" y="-611.8" font-family="Helvetica,sans-Serif" font-size="11.00" fill="#000000">[table]</text>
<polygon fill="none" stroke="#000000" points="386,-584.7 386,-603.7 457,-603.7 457,-584.7 386,-584.7"/>
<text text-anchor="start" x="389" y="-590.8" font-family="Helvetica,sans-Serif" font-size="11.00" fill="#000000">...</text>
<polygon fill="#ffffff" stroke="transparent" points="386,-565.7 386,-584.7 420,-584.7 420,-565.7 386,-565.7"/>
<polygon fill="none" stroke="#000000" points="386,-565.7 386,-584.7 420,-584.7 420,-565.7 386,-565.7"/>
<text text-anchor="start" x="389" y="-571.8" font-family="Helvetica,sans-Serif" font-size="11.00" fill="#000000">&lt; 2</text>
<polygon fill="#ffffff" stroke="transparent" points="420,-565.7 420,-584.7 438,-584.7 438,-565.7 420,-565.7"/>
<polygon fill="none" stroke="#000000" points="420,-565.7 420,-584.7 438,-584.7 438,-565.7 420,-565.7"/>
<text text-anchor="start" x="428.8862" y="-571.8" font-family="Helvetica,sans-Serif" font-size="11.00" fill="#000000"> &#160;</text>
<polygon fill="#ffffff" stroke="transparent" points="438,-565.7 438,-584.7 457,-584.7 457,-565.7 438,-565.7"/>
<polygon fill="none" stroke="#000000" points="438,-565.7 438,-584.7 457,-584.7 457,-565.7 438,-565.7"/>
<text text-anchor="start" x="447.8862" y="-571.8" font-family="Helvetica,sans-Serif" font-size="11.00" fill="#000000"> &#160;</text>
</a>
</g>
</g>
<!-- risico&#45;&gt;object -->
<g id="edge7" class="edge">
<title>risico:w&#45;&gt;object:e</title>
<path fill="none" stroke="#000000" d="M371.4424,-594.6334C325.9025,-600.7362 314.5226,-634.7 261.5,-634.7"/>
<polygon fill="#000000" stroke="#000000" points="378.0164,-594.2119 386.2304,-597.2926 382.0082,-593.956 386,-593.7 386,-593.7 386,-593.7 382.0082,-593.956 385.7696,-590.1074 378.0164,-594.2119 378.0164,-594.2119"/>
<ellipse fill="none" stroke="#000000" cx="374.823" cy="-594.4167" rx="3.2" ry="3.2"/>
</g>
<!-- scenario -->
<g id="node9" class="node">
<title>scenario</title>
<g id="a_node9"><a xlink:href="../../tables/scenario.html" xlink:title="scenario" target="_top">
<polygon fill="#ffffff" stroke="transparent" points="310,-54.7 310,-298.7 532,-298.7 532,-54.7 310,-54.7"/>
<polygon fill="#f5f5f5" stroke="transparent" points="312,-273.7 312,-296.7 530,-296.7 530,-273.7 312,-273.7"/>
<polygon fill="none" stroke="#000000" points="312,-273.7 312,-296.7 530,-296.7 530,-273.7 312,-273.7"/>
<text text-anchor="start" x="317" y="-282.3" font-family="Helvetica,sans-Serif" font-weight="bold" font-size="11.00" fill="#000000">scenario</text>
<text text-anchor="start" x="495.0437" y="-281.8" font-family="Helvetica,sans-Serif" font-size="11.00" fill="#000000">[table]</text>
<polygon fill="none" stroke="#000000" points="312,-251.7 312,-273.7 431,-273.7 431,-251.7 312,-251.7"/>
<image xlink:href="../../images/primaryKeys.png" width="11px" height="12px" preserveAspectRatio="xMinYMin meet" x="317" y="-268.7"/>
<text text-anchor="start" x="332" y="-258.8" font-family="Helvetica,sans-Serif" font-size="11.00" fill="#000000">uuid</text>
<polygon fill="none" stroke="#000000" points="431,-251.7 431,-273.7 530,-273.7 530,-251.7 431,-251.7"/>
<text text-anchor="start" x="434" y="-259.4" font-family="Helvetica,sans-Serif" font-size="11.00" fill="#000000">uuid[2147483647]</text>
<polygon fill="none" stroke="#000000" points="312,-229.7 312,-251.7 431,-251.7 431,-229.7 312,-229.7"/>
<text text-anchor="start" x="332" y="-236.8" font-family="Helvetica,sans-Serif" font-size="11.00" fill="#000000">datumtijd</text>
<polygon fill="none" stroke="#000000" points="431,-229.7 431,-251.7 530,-251.7 530,-229.7 431,-229.7"/>
<text text-anchor="start" x="434" y="-237.4" font-family="Helvetica,sans-Serif" font-size="11.00" fill="#000000">timestamptz[35,6]</text>
<polygon fill="none" stroke="#000000" points="312,-207.7 312,-229.7 431,-229.7 431,-207.7 312,-207.7"/>
<text text-anchor="start" x="332" y="-214.8" font-family="Helvetica,sans-Serif" font-size="11.00" fill="#000000">gebruiker</text>
<polygon fill="none" stroke="#000000" points="431,-207.7 431,-229.7 530,-229.7 530,-207.7 431,-207.7"/>
<text text-anchor="start" x="434" y="-215.4" font-family="Helvetica,sans-Serif" font-size="11.00" fill="#000000">varchar[255]</text>
<polygon fill="none" stroke="#000000" points="312,-185.7 312,-207.7 431,-207.7 431,-185.7 312,-185.7"/>
<text text-anchor="start" x="332" y="-192.8" font-family="Helvetica,sans-Serif" font-size="11.00" fill="#000000">label</text>
<polygon fill="none" stroke="#000000" points="431,-185.7 431,-207.7 530,-207.7 530,-185.7 431,-185.7"/>
<text text-anchor="start" x="434" y="-193.4" font-family="Helvetica,sans-Serif" font-size="11.00" fill="#000000">text[2147483647]</text>
<polygon fill="none" stroke="#000000" points="312,-163.7 312,-185.7 431,-185.7 431,-163.7 312,-163.7"/>
<text text-anchor="start" x="332" y="-170.8" font-family="Helvetica,sans-Serif" font-size="11.00" fill="#000000">rotatie</text>
<polygon fill="none" stroke="#000000" points="431,-163.7 431,-185.7 530,-185.7 530,-163.7 431,-163.7"/>
<text text-anchor="start" x="434" y="-171.4" font-family="Helvetica,sans-Serif" font-size="11.00" fill="#000000">int4[10]</text>
<polygon fill="none" stroke="#000000" points="312,-141.7 312,-163.7 431,-163.7 431,-141.7 312,-141.7"/>
<text text-anchor="start" x="332" y="-148.8" font-family="Helvetica,sans-Serif" font-size="11.00" fill="#000000">bijzonderheden</text>
<polygon fill="none" stroke="#000000" points="431,-141.7 431,-163.7 530,-163.7 530,-141.7 431,-141.7"/>
<text text-anchor="start" x="434" y="-149.4" font-family="Helvetica,sans-Serif" font-size="11.00" fill="#000000">text[2147483647]</text>
<polygon fill="none" stroke="#000000" points="312,-119.7 312,-141.7 431,-141.7 431,-119.7 312,-119.7"/>
<text text-anchor="start" x="332" y="-126.8" font-family="Helvetica,sans-Serif" font-size="11.00" fill="#000000">plusinfo</text>
<polygon fill="none" stroke="#000000" points="431,-119.7 431,-141.7 530,-141.7 530,-119.7 431,-119.7"/>
<text text-anchor="start" x="433.7258" y="-127.4" font-family="Helvetica,sans-Serif" font-size="11.00" fill="#000000">jsonb[2147483647]</text>
<polygon fill="#ffffff" stroke="transparent" points="312,-97.7 312,-119.7 431,-119.7 431,-97.7 312,-97.7"/>
<polygon fill="none" stroke="#000000" points="312,-97.7 312,-119.7 431,-119.7 431,-97.7 312,-97.7"/>
<image xlink:href="../../images/foreignKeys.png" width="11px" height="12px" preserveAspectRatio="xMinYMin meet" x="317" y="-114.7"/>
<text text-anchor="start" x="332" y="-104.8" font-family="Helvetica,sans-Serif" font-size="11.00" fill="#000000">object_uuid</text>
<polygon fill="none" stroke="#000000" points="431,-97.7 431,-119.7 530,-119.7 530,-97.7 431,-97.7"/>
<text text-anchor="start" x="434" y="-105.4" font-family="Helvetica,sans-Serif" font-size="11.00" fill="#000000">uuid[2147483647]</text>
<polygon fill="none" stroke="#000000" points="312,-75.7 312,-97.7 431,-97.7 431,-75.7 312,-75.7"/>
<image xlink:href="../../images/foreignKeys.png" width="11px" height="12px" preserveAspectRatio="xMinYMin meet" x="317" y="-92.7"/>
<text text-anchor="start" x="332" y="-82.8" font-family="Helvetica,sans-Serif" font-size="11.00" fill="#000000">scenario_type_id</text>
<polygon fill="none" stroke="#000000" points="431,-75.7 431,-97.7 530,-97.7 530,-75.7 431,-75.7"/>
<text text-anchor="start" x="434" y="-83.4" font-family="Helvetica,sans-Serif" font-size="11.00" fill="#000000">int2[5]</text>
<polygon fill="#ffffff" stroke="transparent" points="312,-56.7 312,-75.7 376,-75.7 376,-56.7 312,-56.7"/>
<polygon fill="none" stroke="#000000" points="312,-56.7 312,-75.7 376,-75.7 376,-56.7 312,-56.7"/>
<text text-anchor="start" x="315" y="-62.8" font-family="Helvetica,sans-Serif" font-size="11.00" fill="#000000">&lt; 2</text>
<polygon fill="#ffffff" stroke="transparent" points="376,-56.7 376,-75.7 431,-75.7 431,-56.7 376,-56.7"/>
<polygon fill="none" stroke="#000000" points="376,-56.7 376,-75.7 431,-75.7 431,-56.7 376,-56.7"/>
<text text-anchor="start" x="421.8862" y="-62.8" font-family="Helvetica,sans-Serif" font-size="11.00" fill="#000000"> &#160;</text>
<polygon fill="#ffffff" stroke="transparent" points="431,-56.7 431,-75.7 530,-75.7 530,-56.7 431,-56.7"/>
<polygon fill="none" stroke="#000000" points="431,-56.7 431,-75.7 530,-75.7 530,-56.7 431,-56.7"/>
<text text-anchor="start" x="511.4053" y="-62.8" font-family="Helvetica,sans-Serif" font-size="11.00" fill="#000000">0 &gt;</text>
<polygon fill="none" stroke="#000000" stroke-width="2" points="311,-55.7 311,-297.7 531,-297.7 531,-55.7 311,-55.7"/>
</a>
</g>
</g>
<!-- scenario&#45;&gt;object -->
<g id="edge8" class="edge">
<title>scenario:w&#45;&gt;object:e</title>
<path fill="none" stroke="#000000" d="M300.4198,-117.8297C262.9772,-187.6771 315.6262,-634.7 261.5,-634.7"/>
<polygon fill="#000000" stroke="#000000" points="305.7176,-113.653 314.2288,-111.5271 308.8588,-111.1765 312,-108.7 312,-108.7 312,-108.7 308.8588,-111.1765 309.7712,-105.8729 305.7176,-113.653 305.7176,-113.653"/>
<ellipse fill="none" stroke="#000000" cx="303.2047" cy="-115.6342" rx="3.2" ry="3.2"/>
</g>
<!-- scenario_type -->
<g id="node10" class="node">
<title>scenario_type</title>
<g id="a_node10"><a xlink:href="../../tables/scenario_type.html" xlink:title="scenario_type" target="_top">
<polygon fill="#ffffff" stroke="transparent" points="140,-38.2 140,-121.2 259,-121.2 259,-38.2 140,-38.2"/>
<polygon fill="#f5f5f5" stroke="transparent" points="140.5,-97.7 140.5,-120.7 259.5,-120.7 259.5,-97.7 140.5,-97.7"/>
<polygon fill="none" stroke="#000000" points="140.5,-97.7 140.5,-120.7 259.5,-120.7 259.5,-97.7 140.5,-97.7"/>
<text text-anchor="start" x="145.5" y="-106.3" font-family="Helvetica,sans-Serif" font-weight="bold" font-size="11.00" fill="#000000">scenario_type</text>
<text text-anchor="start" x="225.0219" y="-105.8" font-family="Helvetica,sans-Serif" font-size="11.00" fill="#000000">[table]</text>
<polygon fill="none" stroke="#000000" points="140.5,-75.7 140.5,-97.7 259.5,-97.7 259.5,-75.7 140.5,-75.7"/>
<image xlink:href="../../images/primaryKeys.png" width="11px" height="12px" preserveAspectRatio="xMinYMin meet" x="145.5" y="-92.7"/>
<text text-anchor="start" x="169.5" y="-82.8" font-family="Helvetica,sans-Serif" font-size="11.00" fill="#000000">id</text>
<polygon fill="none" stroke="#000000" points="140.5,-56.7 140.5,-75.7 259.5,-75.7 259.5,-56.7 140.5,-56.7"/>
<text text-anchor="start" x="143.5" y="-62.8" font-family="Helvetica,sans-Serif" font-size="11.00" fill="#000000">...</text>
<polygon fill="#ffffff" stroke="transparent" points="140.5,-37.7 140.5,-56.7 189.5,-56.7 189.5,-37.7 140.5,-37.7"/>
<polygon fill="none" stroke="#000000" points="140.5,-37.7 140.5,-56.7 189.5,-56.7 189.5,-37.7 140.5,-37.7"/>
<text text-anchor="start" x="143.5" y="-43.8" font-family="Helvetica,sans-Serif" font-size="11.00" fill="#000000"> &#160;</text>
<polygon fill="#ffffff" stroke="transparent" points="189.5,-37.7 189.5,-56.7 219.5,-56.7 219.5,-37.7 189.5,-37.7"/>
<polygon fill="none" stroke="#000000" points="189.5,-37.7 189.5,-56.7 219.5,-56.7 219.5,-37.7 189.5,-37.7"/>
<text text-anchor="start" x="210.3862" y="-43.8" font-family="Helvetica,sans-Serif" font-size="11.00" fill="#000000"> &#160;</text>
<polygon fill="#ffffff" stroke="transparent" points="219.5,-37.7 219.5,-56.7 259.5,-56.7 259.5,-37.7 219.5,-37.7"/>
<polygon fill="none" stroke="#000000" points="219.5,-37.7 219.5,-56.7 259.5,-56.7 259.5,-37.7 219.5,-37.7"/>
<text text-anchor="start" x="240.9053" y="-43.8" font-family="Helvetica,sans-Serif" font-size="11.00" fill="#000000">1 &gt;</text>
</a>
</g>
</g>
<!-- scenario&#45;&gt;scenario_type -->
<g id="edge9" class="edge">
<title>scenario:w&#45;&gt;scenario_type:e</title>
<path fill="none" stroke="#000000" d="M297.2344,-86.7C284.6563,-86.7 277,-86.7 259.5,-86.7"/>
<polygon fill="#000000" stroke="#000000" points="304,-86.7001 312,-90.3 308,-86.7 312,-86.7 312,-86.7 312,-86.7 308,-86.7 312,-83.1 304,-86.7001 304,-86.7001"/>
<ellipse fill="none" stroke="#000000" cx="300.8" cy="-86.7001" rx="3.2" ry="3.2"/>
</g>
<!-- scheiding -->
<g id="node11" class="node">
<title>scheiding</title>
<g id="a_node11"><a xlink:href="../../tables/scheiding.html" xlink:title="scheiding" target="_top">
<polygon fill="#ffffff" stroke="transparent" points="373.5,-484.2 373.5,-545.2 468.5,-545.2 468.5,-484.2 373.5,-484.2"/>
<polygon fill="#f5f5f5" stroke="transparent" points="374,-521.7 374,-544.7 469,-544.7 469,-521.7 374,-521.7"/>
<polygon fill="none" stroke="#000000" points="374,-521.7 374,-544.7 469,-544.7 469,-521.7 374,-521.7"/>
<text text-anchor="start" x="379" y="-530.3" font-family="Helvetica,sans-Serif" font-weight="bold" font-size="11.00" fill="#000000">scheiding</text>
<text text-anchor="start" x="434.5219" y="-529.8" font-family="Helvetica,sans-Serif" font-size="11.00" fill="#000000">[table]</text>
<polygon fill="none" stroke="#000000" points="374,-502.7 374,-521.7 469,-521.7 469,-502.7 374,-502.7"/>
<text text-anchor="start" x="377" y="-508.8" font-family="Helvetica,sans-Serif" font-size="11.00" fill="#000000">...</text>
<polygon fill="#ffffff" stroke="transparent" points="374,-483.7 374,-502.7 420,-502.7 420,-483.7 374,-483.7"/>
<polygon fill="none" stroke="#000000" points="374,-483.7 374,-502.7 420,-502.7 420,-483.7 374,-483.7"/>
<text text-anchor="start" x="377" y="-489.8" font-family="Helvetica,sans-Serif" font-size="11.00" fill="#000000">&lt; 2</text>
<polygon fill="#ffffff" stroke="transparent" points="420,-483.7 420,-502.7 444,-502.7 444,-483.7 420,-483.7"/>
<polygon fill="none" stroke="#000000" points="420,-483.7 420,-502.7 444,-502.7 444,-483.7 420,-483.7"/>
<text text-anchor="start" x="434.8862" y="-489.8" font-family="Helvetica,sans-Serif" font-size="11.00" fill="#000000"> &#160;</text>
<polygon fill="#ffffff" stroke="transparent" points="444,-483.7 444,-502.7 469,-502.7 469,-483.7 444,-483.7"/>
<polygon fill="none" stroke="#000000" points="444,-483.7 444,-502.7 469,-502.7 469,-483.7 444,-483.7"/>
<text text-anchor="start" x="459.8862" y="-489.8" font-family="Helvetica,sans-Serif" font-size="11.00" fill="#000000"> &#160;</text>
</a>
</g>
</g>
<!-- scheiding&#45;&gt;object -->
<g id="edge10" class="edge">
<title>scheiding:w&#45;&gt;object:e</title>
<path fill="none" stroke="#000000" d="M359.3901,-512.7179C333.554,-516.7014 323.821,-532.1819 302,-555.7 275.1634,-584.6238 300.9562,-634.7 261.5,-634.7"/>
<polygon fill="#000000" stroke="#000000" points="366.0193,-512.2561 374.2502,-515.2913 370.0097,-511.978 374,-511.7 374,-511.7 374,-511.7 370.0097,-511.978 373.7498,-508.1087 366.0193,-512.2561 366.0193,-512.2561"/>
<ellipse fill="none" stroke="#000000" cx="362.8271" cy="-512.4785" rx="3.2" ry="3.2"/>
</g>
<!-- sector -->
<g id="node12" class="node">
<title>sector</title>
<g id="a_node12"><a xlink:href="../../tables/sector.html" xlink:title="sector" target="_top">
<polygon fill="#ffffff" stroke="transparent" points="383.5,-402.2 383.5,-463.2 458.5,-463.2 458.5,-402.2 383.5,-402.2"/>
<polygon fill="#f5f5f5" stroke="transparent" points="384,-439.7 384,-462.7 459,-462.7 459,-439.7 384,-439.7"/>
<polygon fill="none" stroke="#000000" points="384,-439.7 384,-462.7 459,-462.7 459,-439.7 384,-439.7"/>
<text text-anchor="start" x="389" y="-448.3" font-family="Helvetica,sans-Serif" font-weight="bold" font-size="11.00" fill="#000000">sector</text>
<text text-anchor="start" x="424.5219" y="-447.8" font-family="Helvetica,sans-Serif" font-size="11.00" fill="#000000">[table]</text>
<polygon fill="none" stroke="#000000" points="384,-420.7 384,-439.7 459,-439.7 459,-420.7 384,-420.7"/>
<text text-anchor="start" x="387" y="-426.8" font-family="Helvetica,sans-Serif" font-size="11.00" fill="#000000">...</text>
<polygon fill="#ffffff" stroke="transparent" points="384,-401.7 384,-420.7 420,-420.7 420,-401.7 384,-401.7"/>
<polygon fill="none" stroke="#000000" points="384,-401.7 384,-420.7 420,-420.7 420,-401.7 384,-401.7"/>
<text text-anchor="start" x="387" y="-407.8" font-family="Helvetica,sans-Serif" font-size="11.00" fill="#000000">&lt; 2</text>
<polygon fill="#ffffff" stroke="transparent" points="420,-401.7 420,-420.7 439,-420.7 439,-401.7 420,-401.7"/>
<polygon fill="none" stroke="#000000" points="420,-401.7 420,-420.7 439,-420.7 439,-401.7 420,-401.7"/>
<text text-anchor="start" x="429.8862" y="-407.8" font-family="Helvetica,sans-Serif" font-size="11.00" fill="#000000"> &#160;</text>
<polygon fill="#ffffff" stroke="transparent" points="439,-401.7 439,-420.7 459,-420.7 459,-401.7 439,-401.7"/>
<polygon fill="none" stroke="#000000" points="439,-401.7 439,-420.7 459,-420.7 459,-401.7 439,-401.7"/>
<text text-anchor="start" x="449.8862" y="-407.8" font-family="Helvetica,sans-Serif" font-size="11.00" fill="#000000"> &#160;</text>
</a>
</g>
</g>
<!-- sector&#45;&gt;object -->
<g id="edge11" class="edge">
<title>sector:w&#45;&gt;object:e</title>
<path fill="none" stroke="#000000" d="M369.2314,-430.2887C338.5504,-432.9883 324.157,-445.2906 302,-473.7 256.623,-531.8818 335.2848,-634.7 261.5,-634.7"/>
<polygon fill="#000000" stroke="#000000" points="376.0063,-430.0187 384.1434,-433.2971 380.0032,-429.8593 384,-429.7 384,-429.7 384,-429.7 380.0032,-429.8593 383.8566,-426.1029 376.0063,-430.0187 376.0063,-430.0187"/>
<ellipse fill="none" stroke="#000000" cx="372.8089" cy="-430.1462" rx="3.2" ry="3.2"/>
</g>
<!-- voorziening -->
<g id="node13" class="node">
<title>voorziening</title>
<g id="a_node13"><a xlink:href="../../tables/voorziening.html" xlink:title="voorziening" target="_top">
<polygon fill="#ffffff" stroke="transparent" points="368,-320.2 368,-381.2 474,-381.2 474,-320.2 368,-320.2"/>
<polygon fill="#f5f5f5" stroke="transparent" points="368,-357.7 368,-380.7 474,-380.7 474,-357.7 368,-357.7"/>
<polygon fill="none" stroke="#000000" points="368,-357.7 368,-380.7 474,-380.7 474,-357.7 368,-357.7"/>
<text text-anchor="start" x="373" y="-366.3" font-family="Helvetica,sans-Serif" font-weight="bold" font-size="11.00" fill="#000000">voorziening</text>
<text text-anchor="start" x="439.5219" y="-365.8" font-family="Helvetica,sans-Serif" font-size="11.00" fill="#000000">[table]</text>
<polygon fill="none" stroke="#000000" points="368,-338.7 368,-357.7 474,-357.7 474,-338.7 368,-338.7"/>
<text text-anchor="start" x="371" y="-344.8" font-family="Helvetica,sans-Serif" font-size="11.00" fill="#000000">...</text>
<polygon fill="#ffffff" stroke="transparent" points="368,-319.7 368,-338.7 419,-338.7 419,-319.7 368,-319.7"/>
<polygon fill="none" stroke="#000000" points="368,-319.7 368,-338.7 419,-338.7 419,-319.7 368,-319.7"/>
<text text-anchor="start" x="371" y="-325.8" font-family="Helvetica,sans-Serif" font-size="11.00" fill="#000000">&lt; 2</text>
<polygon fill="#ffffff" stroke="transparent" points="419,-319.7 419,-338.7 446,-338.7 446,-319.7 419,-319.7"/>
<polygon fill="none" stroke="#000000" points="419,-319.7 419,-338.7 446,-338.7 446,-319.7 419,-319.7"/>
<text text-anchor="start" x="436.8862" y="-325.8" font-family="Helvetica,sans-Serif" font-size="11.00" fill="#000000"> &#160;</text>
<polygon fill="#ffffff" stroke="transparent" points="446,-319.7 446,-338.7 474,-338.7 474,-319.7 446,-319.7"/>
<polygon fill="none" stroke="#000000" points="446,-319.7 446,-338.7 474,-338.7 474,-319.7 446,-319.7"/>
<text text-anchor="start" x="464.8862" y="-325.8" font-family="Helvetica,sans-Serif" font-size="11.00" fill="#000000"> &#160;</text>
</a>
</g>
</g>
<!-- voorziening&#45;&gt;object -->
<g id="edge12" class="edge">
<title>voorziening:w&#45;&gt;object:e</title>
<path fill="none" stroke="#000000" d="M353.4241,-348.7052C329.0353,-352.439 318.2259,-366.6053 302,-391.7 272.2751,-437.6721 316.2449,-634.7 261.5,-634.7"/>
<polygon fill="#000000" stroke="#000000" points="360.019,-348.2504 368.2477,-351.2915 364.0095,-347.9752 368,-347.7 368,-347.7 368,-347.7 364.0095,-347.9752 367.7523,-344.1085 360.019,-348.2504 360.019,-348.2504"/>
<ellipse fill="none" stroke="#000000" cx="356.8265" cy="-348.4706" rx="3.2" ry="3.2"/>
</g>
</g>
</svg>
