<?xml version="1.0" encoding="UTF-8" standalone="no"?>
<!DOCTYPE svg PUBLIC "-//W3C//DTD SVG 1.1//EN"
 "http://www.w3.org/Graphics/SVG/1.1/DTD/svg11.dtd">
<!-- Generated by graphviz version 2.40.1 (20161225.0304)
 -->
<!-- Title: twoDegreesRelationshipsDiagram Pages: 1 -->
<svg width="387pt" height="245pt"
 viewBox="0.00 0.00 387.00 244.70" xmlns="http://www.w3.org/2000/svg" xmlns:xlink="http://www.w3.org/1999/xlink">
<g id="graph0" class="graph" transform="scale(1 1) rotate(0) translate(4 240.7)">
<title>twoDegreesRelationshipsDiagram</title>
<polygon fill="#ffffff" stroke="transparent" points="-4,4 -4,-240.7 383,-240.7 383,4 -4,4"/>
<text text-anchor="middle" x="72.4936" y="-7.3" font-family="Helvetica,sans-Serif" font-size="11.00" fill="#000000">Generated by SchemaSpy</text>
<!-- scenario -->
<g id="node1" class="node">
<title>scenario</title>
<g id="a_node1"><a xlink:href="../../tables/scenario.html" xlink:title="scenario" target="_top">
<polygon fill="#ffffff" stroke="transparent" points="252,-96.7 252,-223.7 371,-223.7 371,-96.7 252,-96.7"/>
<polygon fill="#f5f5f5" stroke="transparent" points="252.5,-200.2 252.5,-223.2 371.5,-223.2 371.5,-200.2 252.5,-200.2"/>
<polygon fill="none" stroke="#000000" points="252.5,-200.2 252.5,-223.2 371.5,-223.2 371.5,-200.2 252.5,-200.2"/>
<text text-anchor="start" x="257.5" y="-208.8" font-family="Helvetica,sans-Serif" font-weight="bold" font-size="11.00" fill="#000000">scenario</text>
<text text-anchor="start" x="336.5437" y="-208.3" font-family="Helvetica,sans-Serif" font-size="11.00" fill="#000000">[table]</text>
<polygon fill="none" stroke="#000000" points="252.5,-178.2 252.5,-200.2 371.5,-200.2 371.5,-178.2 252.5,-178.2"/>
<image xlink:href="../../images/primaryKeys.png" width="11px" height="12px" preserveAspectRatio="xMinYMin meet" x="257.5" y="-195.2"/>
<text text-anchor="start" x="272.5" y="-185.3" font-family="Helvetica,sans-Serif" font-size="11.00" fill="#000000">uuid</text>
<polygon fill="#ffffff" stroke="transparent" points="252.5,-156.2 252.5,-178.2 371.5,-178.2 371.5,-156.2 252.5,-156.2"/>
<polygon fill="none" stroke="#000000" points="252.5,-156.2 252.5,-178.2 371.5,-178.2 371.5,-156.2 252.5,-156.2"/>
<image xlink:href="../../images/foreignKeys.png" width="11px" height="12px" preserveAspectRatio="xMinYMin meet" x="257.5" y="-173.2"/>
<text text-anchor="start" x="272.5" y="-163.3" font-family="Helvetica,sans-Serif" font-size="11.00" fill="#000000">object_uuid</text>
<polygon fill="none" stroke="#000000" points="252.5,-134.2 252.5,-156.2 371.5,-156.2 371.5,-134.2 252.5,-134.2"/>
<image xlink:href="../../images/foreignKeys.png" width="11px" height="12px" preserveAspectRatio="xMinYMin meet" x="257.5" y="-151.2"/>
<text text-anchor="start" x="272.5" y="-141.3" font-family="Helvetica,sans-Serif" font-size="11.00" fill="#000000">scenario_type_id</text>
<polygon fill="none" stroke="#000000" points="252.5,-115.2 252.5,-134.2 371.5,-134.2 371.5,-115.2 252.5,-115.2"/>
<text text-anchor="start" x="255.5" y="-121.3" font-family="Helvetica,sans-Serif" font-size="11.00" fill="#000000">...</text>
<polygon fill="#ffffff" stroke="transparent" points="252.5,-96.2 252.5,-115.2 310.5,-115.2 310.5,-96.2 252.5,-96.2"/>
<polygon fill="none" stroke="#000000" points="252.5,-96.2 252.5,-115.2 310.5,-115.2 310.5,-96.2 252.5,-96.2"/>
<text text-anchor="start" x="255.5" y="-102.3" font-family="Helvetica,sans-Serif" font-size="11.00" fill="#000000">&lt; 2</text>
<polygon fill="#ffffff" stroke="transparent" points="310.5,-96.2 310.5,-115.2 340.5,-115.2 340.5,-96.2 310.5,-96.2"/>
<polygon fill="none" stroke="#000000" points="310.5,-96.2 310.5,-115.2 340.5,-115.2 340.5,-96.2 310.5,-96.2"/>
<text text-anchor="start" x="331.3862" y="-102.3" font-family="Helvetica,sans-Serif" font-size="11.00" fill="#000000"> &#160;</text>
<polygon fill="#ffffff" stroke="transparent" points="340.5,-96.2 340.5,-115.2 371.5,-115.2 371.5,-96.2 340.5,-96.2"/>
<polygon fill="none" stroke="#000000" points="340.5,-96.2 340.5,-115.2 371.5,-115.2 371.5,-96.2 340.5,-96.2"/>
<text text-anchor="start" x="362.3862" y="-102.3" font-family="Helvetica,sans-Serif" font-size="11.00" fill="#000000"> &#160;</text>
</a>
</g>
</g>
<!-- object -->
<g id="node2" class="node">
<title>object</title>
<g id="a_node2"><a xlink:href="../../tables/object.html" xlink:title="object" target="_top">
<polygon fill="#ffffff" stroke="transparent" points="68.5,-171.7 68.5,-232.7 142.5,-232.7 142.5,-171.7 68.5,-171.7"/>
<polygon fill="#f5f5f5" stroke="transparent" points="68.5,-209.2 68.5,-232.2 142.5,-232.2 142.5,-209.2 68.5,-209.2"/>
<polygon fill="none" stroke="#000000" points="68.5,-209.2 68.5,-232.2 142.5,-232.2 142.5,-209.2 68.5,-209.2"/>
<text text-anchor="start" x="73.5" y="-217.8" font-family="Helvetica,sans-Serif" font-weight="bold" font-size="11.00" fill="#000000">object</text>
<text text-anchor="start" x="108.0219" y="-217.3" font-family="Helvetica,sans-Serif" font-size="11.00" fill="#000000">[table]</text>
<polygon fill="none" stroke="#000000" points="68.5,-190.2 68.5,-209.2 142.5,-209.2 142.5,-190.2 68.5,-190.2"/>
<text text-anchor="start" x="71.5" y="-196.3" font-family="Helvetica,sans-Serif" font-size="11.00" fill="#000000">...</text>
<polygon fill="#ffffff" stroke="transparent" points="68.5,-171.2 68.5,-190.2 96.5,-190.2 96.5,-171.2 68.5,-171.2"/>
<polygon fill="none" stroke="#000000" points="68.5,-171.2 68.5,-190.2 96.5,-190.2 96.5,-171.2 68.5,-171.2"/>
<text text-anchor="start" x="71.5" y="-177.3" font-family="Helvetica,sans-Serif" font-size="11.00" fill="#000000">&lt; 1</text>
<polygon fill="#ffffff" stroke="transparent" points="96.5,-171.2 96.5,-190.2 111.5,-190.2 111.5,-171.2 96.5,-171.2"/>
<polygon fill="none" stroke="#000000" points="96.5,-171.2 96.5,-190.2 111.5,-190.2 111.5,-171.2 96.5,-171.2"/>
<text text-anchor="start" x="102.3862" y="-177.3" font-family="Helvetica,sans-Serif" font-size="11.00" fill="#000000"> &#160;</text>
<polygon fill="#ffffff" stroke="transparent" points="111.5,-171.2 111.5,-190.2 142.5,-190.2 142.5,-171.2 111.5,-171.2"/>
<polygon fill="none" stroke="#000000" points="111.5,-171.2 111.5,-190.2 142.5,-190.2 142.5,-171.2 111.5,-171.2"/>
<text text-anchor="start" x="117.7904" y="-177.3" font-family="Helvetica,sans-Serif" font-size="11.00" fill="#000000">10 &gt;</text>
</a>
</g>
</g>
<!-- scenario&#45;&gt;object -->
<g id="edge1" class="edge">
<title>scenario:w&#45;&gt;object:e</title>
<path fill="none" stroke="#000000" d="M237.9677,-168.1577C199.4352,-173.4821 188.145,-199.2 142.5,-199.2"/>
<polygon fill="#000000" stroke="#000000" points="244.5173,-167.7261 252.7368,-170.7922 248.5087,-167.4631 252.5,-167.2 252.5,-167.2 252.5,-167.2 248.5087,-167.4631 252.2632,-163.6078 244.5173,-167.7261 244.5173,-167.7261"/>
<ellipse fill="none" stroke="#000000" cx="241.3242" cy="-167.9366" rx="3.2" ry="3.2"/>
</g>
<!-- scenario_type -->
<g id="node3" class="node">
<title>scenario_type</title>
<g id="a_node3"><a xlink:href="../../tables/scenario_type.html" xlink:title="scenario_type" target="_top">
<polygon fill="#ffffff" stroke="transparent" points="8,-38.2 8,-150.2 203,-150.2 203,-38.2 8,-38.2"/>
<polygon fill="#f5f5f5" stroke="transparent" points="10.5,-125.2 10.5,-148.2 201.5,-148.2 201.5,-125.2 10.5,-125.2"/>
<polygon fill="none" stroke="#000000" points="10.5,-125.2 10.5,-148.2 201.5,-148.2 201.5,-125.2 10.5,-125.2"/>
<text text-anchor="start" x="15.5" y="-133.8" font-family="Helvetica,sans-Serif" font-weight="bold" font-size="11.00" fill="#000000">scenario_type</text>
<text text-anchor="start" x="166.5437" y="-133.3" font-family="Helvetica,sans-Serif" font-size="11.00" fill="#000000">[table]</text>
<polygon fill="none" stroke="#000000" points="10.5,-103.2 10.5,-125.2 111.5,-125.2 111.5,-103.2 10.5,-103.2"/>
<image xlink:href="../../images/primaryKeys.png" width="11px" height="12px" preserveAspectRatio="xMinYMin meet" x="15.5" y="-120.2"/>
<text text-anchor="start" x="30.5" y="-110.3" font-family="Helvetica,sans-Serif" font-size="11.00" fill="#000000">id</text>
<polygon fill="none" stroke="#000000" points="111.5,-103.2 111.5,-125.2 201.5,-125.2 201.5,-103.2 111.5,-103.2"/>
<text text-anchor="start" x="114.5" y="-110.9" font-family="Helvetica,sans-Serif" font-size="11.00" fill="#000000">int2[5]</text>
<polygon fill="none" stroke="#000000" points="10.5,-81.2 10.5,-103.2 111.5,-103.2 111.5,-81.2 10.5,-81.2"/>
<text text-anchor="start" x="30.5" y="-88.3" font-family="Helvetica,sans-Serif" font-size="11.00" fill="#000000">naam</text>
<polygon fill="none" stroke="#000000" points="111.5,-81.2 111.5,-103.2 201.5,-103.2 201.5,-81.2 111.5,-81.2"/>
<text text-anchor="start" x="114.0042" y="-88.9" font-family="Helvetica,sans-Serif" font-size="11.00" fill="#000000">text[2147483647]</text>
<polygon fill="none" stroke="#000000" points="10.5,-59.2 10.5,-81.2 111.5,-81.2 111.5,-59.2 10.5,-59.2"/>
<text text-anchor="start" x="30.5" y="-66.3" font-family="Helvetica,sans-Serif" font-size="11.00" fill="#000000">omschrijving</text>
<polygon fill="none" stroke="#000000" points="111.5,-59.2 111.5,-81.2 201.5,-81.2 201.5,-59.2 111.5,-59.2"/>
<text text-anchor="start" x="114.0042" y="-66.9" font-family="Helvetica,sans-Serif" font-size="11.00" fill="#000000">text[2147483647]</text>
<polygon fill="#ffffff" stroke="transparent" points="10.5,-40.2 10.5,-59.2 65.5,-59.2 65.5,-40.2 10.5,-40.2"/>
<polygon fill="none" stroke="#000000" points="10.5,-40.2 10.5,-59.2 65.5,-59.2 65.5,-40.2 10.5,-40.2"/>
<text text-anchor="start" x="13.5" y="-46.3" font-family="Helvetica,sans-Serif" font-size="11.00" fill="#000000">&lt; 0</text>
<polygon fill="#ffffff" stroke="transparent" points="65.5,-40.2 65.5,-59.2 111.5,-59.2 111.5,-40.2 65.5,-40.2"/>
<polygon fill="none" stroke="#000000" points="65.5,-40.2 65.5,-59.2 111.5,-59.2 111.5,-40.2 65.5,-40.2"/>
<text text-anchor="start" x="102.3862" y="-46.3" font-family="Helvetica,sans-Serif" font-size="11.00" fill="#000000"> &#160;</text>
<polygon fill="#ffffff" stroke="transparent" points="111.5,-40.2 111.5,-59.2 201.5,-59.2 201.5,-40.2 111.5,-40.2"/>
<polygon fill="none" stroke="#000000" points="111.5,-40.2 111.5,-59.2 201.5,-59.2 201.5,-40.2 111.5,-40.2"/>
<text text-anchor="start" x="182.9053" y="-46.3" font-family="Helvetica,sans-Serif" font-size="11.00" fill="#000000">1 &gt;</text>
<polygon fill="none" stroke="#000000" stroke-width="2" points="9,-39.2 9,-149.2 202,-149.2 202,-39.2 9,-39.2"/>
</a>
</g>
</g>
<!-- scenario&#45;&gt;scenario_type -->
<g id="edge2" class="edge">
<title>scenario:w&#45;&gt;scenario_type:e</title>
<path fill="none" stroke="#000000" d="M238.5967,-141.3988C225.5044,-133.1209 222.2231,-114.2 201.5,-114.2"/>
<polygon fill="#000000" stroke="#000000" points="244.7832,-143.0902 251.5506,-148.6726 248.6416,-144.1451 252.5,-145.2 252.5,-145.2 252.5,-145.2 248.6416,-144.1451 253.4494,-141.7274 244.7832,-143.0902 244.7832,-143.0902"/>
<ellipse fill="none" stroke="#000000" cx="241.6965" cy="-142.2462" rx="3.2" ry="3.2"/>
</g>
</g>
</svg>
