<?xml version="1.0" encoding="UTF-8" standalone="no"?>
<!DOCTYPE svg PUBLIC "-//W3C//DTD SVG 1.1//EN"
 "http://www.w3.org/Graphics/SVG/1.1/DTD/svg11.dtd">
<!-- Generated by graphviz version 2.50.0 (0)
 -->
<!-- Title: twoDegreesRelationshipsDiagram Pages: 1 -->
<svg width="405pt" height="238pt"
 viewBox="0.00 0.00 405.00 238.00" xmlns="http://www.w3.org/2000/svg" xmlns:xlink="http://www.w3.org/1999/xlink">
<g id="graph0" class="graph" transform="scale(1 1) rotate(0) translate(4 234)">
<title>twoDegreesRelationshipsDiagram</title>
<polygon fill="#ffffff" stroke="transparent" points="-4,4 -4,-234 401,-234 401,4 -4,4"/>
<text text-anchor="middle" x="79.5" y="-7.2" font-family="Helvetica,sans-Serif" font-size="11.00">Generated by SchemaSpy</text>
<!-- scenario -->
<g id="node1" class="node">
<title>scenario</title>
<g id="a_node1"><a xlink:href="../../tables/scenario.html" xlink:title="scenario" target="_top">
<polygon fill="#ffffff" stroke="transparent" points="270,-95 270,-219 389,-219 389,-95 270,-95"/>
<polygon fill="#f5f5f5" stroke="transparent" points="270.5,-197 270.5,-219 389.5,-219 389.5,-197 270.5,-197"/>
<polygon fill="none" stroke="black" points="270.5,-197 270.5,-219 389.5,-219 389.5,-197 270.5,-197"/>
<text text-anchor="start" x="275.5" y="-206.2" font-family="Helvetica,sans-Serif" font-weight="bold" font-size="11.00">scenario</text>
<text text-anchor="start" x="347.5" y="-205.2" font-family="Helvetica,sans-Serif" font-size="11.00">[table]</text>
<polygon fill="none" stroke="black" points="270.5,-175 270.5,-197 389.5,-197 389.5,-175 270.5,-175"/>
<image xlink:href="../../images/primaryKeys.png" width="11px" height="12px" preserveAspectRatio="xMinYMin meet" x="275.5" y="-192"/>
<text text-anchor="start" x="290.5" y="-183.2" font-family="Helvetica,sans-Serif" font-size="11.00">uuid</text>
<polygon fill="#ffffff" stroke="transparent" points="270.5,-153 270.5,-175 389.5,-175 389.5,-153 270.5,-153"/>
<polygon fill="none" stroke="black" points="270.5,-153 270.5,-175 389.5,-175 389.5,-153 270.5,-153"/>
<image xlink:href="../../images/foreignKeys.png" width="11px" height="12px" preserveAspectRatio="xMinYMin meet" x="275.5" y="-170"/>
<text text-anchor="start" x="290.5" y="-161.2" font-family="Helvetica,sans-Serif" font-size="11.00">object_uuid</text>
<polygon fill="none" stroke="black" points="270.5,-131 270.5,-153 389.5,-153 389.5,-131 270.5,-131"/>
<image xlink:href="../../images/foreignKeys.png" width="11px" height="12px" preserveAspectRatio="xMinYMin meet" x="275.5" y="-148"/>
<text text-anchor="start" x="290.5" y="-139.2" font-family="Helvetica,sans-Serif" font-size="11.00">scenario_type_id</text>
<polygon fill="none" stroke="black" points="270.5,-113 270.5,-131 389.5,-131 389.5,-113 270.5,-113"/>
<text text-anchor="start" x="273.5" y="-119.2" font-family="Helvetica,sans-Serif" font-size="11.00">...</text>
<polygon fill="#ffffff" stroke="transparent" points="270.5,-95 270.5,-113 328.5,-113 328.5,-95 270.5,-95"/>
<polygon fill="none" stroke="black" points="270.5,-95 270.5,-113 328.5,-113 328.5,-95 270.5,-95"/>
<text text-anchor="start" x="273.5" y="-101.2" font-family="Helvetica,sans-Serif" font-size="11.00">&lt; 2</text>
<polygon fill="#ffffff" stroke="transparent" points="328.5,-95 328.5,-113 358.5,-113 358.5,-95 328.5,-95"/>
<polygon fill="none" stroke="black" points="328.5,-95 328.5,-113 358.5,-113 358.5,-95 328.5,-95"/>
<text text-anchor="start" x="347.5" y="-101.2" font-family="Helvetica,sans-Serif" font-size="11.00"> &#160;</text>
<polygon fill="#ffffff" stroke="transparent" points="358.5,-95 358.5,-113 389.5,-113 389.5,-95 358.5,-95"/>
<polygon fill="none" stroke="black" points="358.5,-95 358.5,-113 389.5,-113 389.5,-95 358.5,-95"/>
<text text-anchor="start" x="378.5" y="-101.2" font-family="Helvetica,sans-Serif" font-size="11.00"> &#160;</text>
</a>
</g>
</g>
<!-- object -->
<g id="node2" class="node">
<title>object</title>
<g id="a_node2"><a xlink:href="../../tables/object.html" xlink:title="object" target="_top">
<polygon fill="#ffffff" stroke="transparent" points="69.5,-168 69.5,-226 159.5,-226 159.5,-168 69.5,-168"/>
<polygon fill="#f5f5f5" stroke="transparent" points="69.5,-204 69.5,-226 159.5,-226 159.5,-204 69.5,-204"/>
<polygon fill="none" stroke="black" points="69.5,-204 69.5,-226 159.5,-226 159.5,-204 69.5,-204"/>
<text text-anchor="start" x="74.5" y="-213.2" font-family="Helvetica,sans-Serif" font-weight="bold" font-size="11.00">object</text>
<text text-anchor="start" x="117.5" y="-212.2" font-family="Helvetica,sans-Serif" font-size="11.00">[table]</text>
<polygon fill="none" stroke="black" points="69.5,-186 69.5,-204 159.5,-204 159.5,-186 69.5,-186"/>
<text text-anchor="start" x="72.5" y="-192.2" font-family="Helvetica,sans-Serif" font-size="11.00">...</text>
<polygon fill="#ffffff" stroke="transparent" points="69.5,-168 69.5,-186 103.5,-186 103.5,-168 69.5,-168"/>
<polygon fill="none" stroke="black" points="69.5,-168 69.5,-186 103.5,-186 103.5,-168 69.5,-168"/>
<text text-anchor="start" x="72.5" y="-174.2" font-family="Helvetica,sans-Serif" font-size="11.00">&lt; 1</text>
<polygon fill="#ffffff" stroke="transparent" points="103.5,-168 103.5,-186 121.5,-186 121.5,-168 103.5,-168"/>
<polygon fill="none" stroke="black" points="103.5,-168 103.5,-186 121.5,-186 121.5,-168 103.5,-168"/>
<text text-anchor="start" x="110.5" y="-174.2" font-family="Helvetica,sans-Serif" font-size="11.00"> &#160;</text>
<polygon fill="#ffffff" stroke="transparent" points="121.5,-168 121.5,-186 159.5,-186 159.5,-168 121.5,-168"/>
<polygon fill="none" stroke="black" points="121.5,-168 121.5,-186 159.5,-186 159.5,-168 121.5,-168"/>
<text text-anchor="start" x="129.5" y="-174.2" font-family="Helvetica,sans-Serif" font-size="11.00">10 &gt;</text>
</a>
</g>
</g>
<!-- scenario&#45;&gt;object -->
<g id="edge1" class="edge">
<title>scenario:w&#45;&gt;object:e</title>
<path fill="none" stroke="black" d="M254.87,-164.96C216.92,-170.19 205.55,-195 160.5,-195"/>
<polygon fill="black" stroke="black" points="261.52,-164.52 269.74,-167.59 265.51,-164.26 269.5,-164 269.5,-164 269.5,-164 265.51,-164.26 269.26,-160.41 261.52,-164.52 261.52,-164.52"/>
<ellipse fill="none" stroke="black" cx="258.32" cy="-164.73" rx="3.2" ry="3.2"/>
</g>
<!-- scenario_type -->
<g id="node3" class="node">
<title>scenario_type</title>
<g id="a_node3"><a xlink:href="../../tables/scenario_type.html" xlink:title="scenario_type" target="_top">
<polygon fill="#ffffff" stroke="transparent" points="8,-37 8,-147 221,-147 221,-37 8,-37"/>
<polygon fill="#f5f5f5" stroke="transparent" points="10.5,-123 10.5,-145 219.5,-145 219.5,-123 10.5,-123"/>
<polygon fill="none" stroke="black" points="10.5,-123 10.5,-145 219.5,-145 219.5,-123 10.5,-123"/>
<text text-anchor="start" x="15.5" y="-132.2" font-family="Helvetica,sans-Serif" font-weight="bold" font-size="11.00">scenario_type</text>
<text text-anchor="start" x="177.5" y="-131.2" font-family="Helvetica,sans-Serif" font-size="11.00">[table]</text>
<polygon fill="none" stroke="black" points="10.5,-101 10.5,-123 113.5,-123 113.5,-101 10.5,-101"/>
<image xlink:href="../../images/primaryKeys.png" width="11px" height="12px" preserveAspectRatio="xMinYMin meet" x="15.5" y="-118"/>
<text text-anchor="start" x="30.5" y="-109.2" font-family="Helvetica,sans-Serif" font-size="11.00">id</text>
<polygon fill="none" stroke="black" points="113.5,-101 113.5,-123 219.5,-123 219.5,-101 113.5,-101"/>
<text text-anchor="start" x="116.5" y="-109.2" font-family="Helvetica,sans-Serif" font-size="11.00">int2[5]</text>
<polygon fill="none" stroke="black" points="10.5,-79 10.5,-101 113.5,-101 113.5,-79 10.5,-79"/>
<text text-anchor="start" x="30.5" y="-87.2" font-family="Helvetica,sans-Serif" font-size="11.00">naam</text>
<polygon fill="none" stroke="black" points="113.5,-79 113.5,-101 219.5,-101 219.5,-79 113.5,-79"/>
<text text-anchor="start" x="116.5" y="-87.2" font-family="Helvetica,sans-Serif" font-size="11.00">text[2147483647]</text>
<polygon fill="none" stroke="black" points="10.5,-57 10.5,-79 113.5,-79 113.5,-57 10.5,-57"/>
<text text-anchor="start" x="30.5" y="-65.2" font-family="Helvetica,sans-Serif" font-size="11.00">omschrijving</text>
<polygon fill="none" stroke="black" points="113.5,-57 113.5,-79 219.5,-79 219.5,-57 113.5,-57"/>
<text text-anchor="start" x="116.5" y="-65.2" font-family="Helvetica,sans-Serif" font-size="11.00">text[2147483647]</text>
<polygon fill="#ffffff" stroke="transparent" points="10.5,-39 10.5,-57 67.5,-57 67.5,-39 10.5,-39"/>
<polygon fill="none" stroke="black" points="10.5,-39 10.5,-57 67.5,-57 67.5,-39 10.5,-39"/>
<text text-anchor="start" x="13.5" y="-45.2" font-family="Helvetica,sans-Serif" font-size="11.00">&lt; 0</text>
<polygon fill="#ffffff" stroke="transparent" points="67.5,-39 67.5,-57 113.5,-57 113.5,-39 67.5,-39"/>
<polygon fill="none" stroke="black" points="67.5,-39 67.5,-57 113.5,-57 113.5,-39 67.5,-39"/>
<text text-anchor="start" x="102.5" y="-45.2" font-family="Helvetica,sans-Serif" font-size="11.00"> &#160;</text>
<polygon fill="#ffffff" stroke="transparent" points="113.5,-39 113.5,-57 219.5,-57 219.5,-39 113.5,-39"/>
<polygon fill="none" stroke="black" points="113.5,-39 113.5,-57 219.5,-57 219.5,-39 113.5,-39"/>
<text text-anchor="start" x="196.5" y="-45.2" font-family="Helvetica,sans-Serif" font-size="11.00">1 &gt;</text>
<polygon fill="none" stroke="black" stroke-width="2" points="9,-38 9,-146 220,-146 220,-38 9,-38"/>
</a>
</g>
</g>
<!-- scenario&#45;&gt;scenario_type -->
<g id="edge2" class="edge">
<title>scenario:w&#45;&gt;scenario_type:e</title>
<path fill="none" stroke="black" d="M255.38,-137.83C243.42,-129.59 240.05,-112 220.5,-112"/>
<polygon fill="black" stroke="black" points="261.83,-139.73 268.48,-145.45 265.66,-140.87 269.5,-142 269.5,-142 269.5,-142 265.66,-140.87 270.52,-138.55 261.83,-139.73 261.83,-139.73"/>
<ellipse fill="none" stroke="black" cx="258.76" cy="-138.83" rx="3.2" ry="3.2"/>
</g>
</g>
</svg>
