<?xml version="1.0" encoding="UTF-8" standalone="no"?>
<!DOCTYPE svg PUBLIC "-//W3C//DTD SVG 1.1//EN"
 "http://www.w3.org/Graphics/SVG/1.1/DTD/svg11.dtd">
<!-- Generated by graphviz version 2.50.0 (0)
 -->
<!-- Title: oneDegreeRelationshipsDiagram Pages: 1 -->
<svg width="445pt" height="379pt"
 viewBox="0.00 0.00 445.00 379.00" xmlns="http://www.w3.org/2000/svg" xmlns:xlink="http://www.w3.org/1999/xlink">
<g id="graph0" class="graph" transform="scale(1 1) rotate(0) translate(4 375)">
<title>oneDegreeRelationshipsDiagram</title>
<polygon fill="#ffffff" stroke="transparent" points="-4,4 -4,-375 441,-375 441,4 -4,4"/>
<text text-anchor="middle" x="79.5" y="-7.2" font-family="Helvetica,sans-Serif" font-size="11.00">Generated by SchemaSpy</text>
<!-- scenario -->
<g id="node1" class="node">
<title>scenario</title>
<g id="a_node1"><a xlink:href="../../tables/scenario.html" xlink:title="scenario" target="_top">
<polygon fill="#ffffff" stroke="transparent" points="194,-125 194,-367 429,-367 429,-125 194,-125"/>
<polygon fill="#f5f5f5" stroke="transparent" points="196.5,-343 196.5,-365 427.5,-365 427.5,-343 196.5,-343"/>
<polygon fill="none" stroke="black" points="196.5,-343 196.5,-365 427.5,-365 427.5,-343 196.5,-343"/>
<text text-anchor="start" x="201.5" y="-352.2" font-family="Helvetica,sans-Serif" font-weight="bold" font-size="11.00">scenario</text>
<text text-anchor="start" x="385.5" y="-351.2" font-family="Helvetica,sans-Serif" font-size="11.00">[table]</text>
<polygon fill="none" stroke="black" points="196.5,-321 196.5,-343 315.5,-343 315.5,-321 196.5,-321"/>
<image xlink:href="../../images/primaryKeys.png" width="11px" height="12px" preserveAspectRatio="xMinYMin meet" x="201.5" y="-338"/>
<text text-anchor="start" x="216.5" y="-329.2" font-family="Helvetica,sans-Serif" font-size="11.00">uuid</text>
<polygon fill="none" stroke="black" points="315.5,-321 315.5,-343 427.5,-343 427.5,-321 315.5,-321"/>
<text text-anchor="start" x="318.5" y="-329.2" font-family="Helvetica,sans-Serif" font-size="11.00">uuid[2147483647]</text>
<polygon fill="none" stroke="black" points="196.5,-299 196.5,-321 315.5,-321 315.5,-299 196.5,-299"/>
<text text-anchor="start" x="216.5" y="-307.2" font-family="Helvetica,sans-Serif" font-size="11.00">datumtijd</text>
<polygon fill="none" stroke="black" points="315.5,-299 315.5,-321 427.5,-321 427.5,-299 315.5,-299"/>
<text text-anchor="start" x="318.5" y="-307.2" font-family="Helvetica,sans-Serif" font-size="11.00">timestamptz[35,6]</text>
<polygon fill="none" stroke="black" points="196.5,-277 196.5,-299 315.5,-299 315.5,-277 196.5,-277"/>
<text text-anchor="start" x="216.5" y="-285.2" font-family="Helvetica,sans-Serif" font-size="11.00">gebruiker</text>
<polygon fill="none" stroke="black" points="315.5,-277 315.5,-299 427.5,-299 427.5,-277 315.5,-277"/>
<text text-anchor="start" x="318.5" y="-285.2" font-family="Helvetica,sans-Serif" font-size="11.00">varchar[255]</text>
<polygon fill="none" stroke="black" points="196.5,-255 196.5,-277 315.5,-277 315.5,-255 196.5,-255"/>
<text text-anchor="start" x="216.5" y="-263.2" font-family="Helvetica,sans-Serif" font-size="11.00">label</text>
<polygon fill="none" stroke="black" points="315.5,-255 315.5,-277 427.5,-277 427.5,-255 315.5,-255"/>
<text text-anchor="start" x="318.5" y="-263.2" font-family="Helvetica,sans-Serif" font-size="11.00">text[2147483647]</text>
<polygon fill="none" stroke="black" points="196.5,-233 196.5,-255 315.5,-255 315.5,-233 196.5,-233"/>
<text text-anchor="start" x="216.5" y="-241.2" font-family="Helvetica,sans-Serif" font-size="11.00">rotatie</text>
<polygon fill="none" stroke="black" points="315.5,-233 315.5,-255 427.5,-255 427.5,-233 315.5,-233"/>
<text text-anchor="start" x="318.5" y="-241.2" font-family="Helvetica,sans-Serif" font-size="11.00">int4[10]</text>
<polygon fill="none" stroke="black" points="196.5,-211 196.5,-233 315.5,-233 315.5,-211 196.5,-211"/>
<text text-anchor="start" x="216.5" y="-219.2" font-family="Helvetica,sans-Serif" font-size="11.00">bijzonderheden</text>
<polygon fill="none" stroke="black" points="315.5,-211 315.5,-233 427.5,-233 427.5,-211 315.5,-211"/>
<text text-anchor="start" x="318.5" y="-219.2" font-family="Helvetica,sans-Serif" font-size="11.00">text[2147483647]</text>
<polygon fill="none" stroke="black" points="196.5,-189 196.5,-211 315.5,-211 315.5,-189 196.5,-189"/>
<text text-anchor="start" x="216.5" y="-197.2" font-family="Helvetica,sans-Serif" font-size="11.00">plusinfo</text>
<polygon fill="none" stroke="black" points="315.5,-189 315.5,-211 427.5,-211 427.5,-189 315.5,-189"/>
<text text-anchor="start" x="318.5" y="-197.2" font-family="Helvetica,sans-Serif" font-size="11.00">jsonb[2147483647]</text>
<polygon fill="#ffffff" stroke="transparent" points="196.5,-167 196.5,-189 315.5,-189 315.5,-167 196.5,-167"/>
<polygon fill="none" stroke="black" points="196.5,-167 196.5,-189 315.5,-189 315.5,-167 196.5,-167"/>
<image xlink:href="../../images/foreignKeys.png" width="11px" height="12px" preserveAspectRatio="xMinYMin meet" x="201.5" y="-184"/>
<text text-anchor="start" x="216.5" y="-175.2" font-family="Helvetica,sans-Serif" font-size="11.00">object_uuid</text>
<polygon fill="none" stroke="black" points="315.5,-167 315.5,-189 427.5,-189 427.5,-167 315.5,-167"/>
<text text-anchor="start" x="318.5" y="-175.2" font-family="Helvetica,sans-Serif" font-size="11.00">uuid[2147483647]</text>
<polygon fill="none" stroke="black" points="196.5,-145 196.5,-167 315.5,-167 315.5,-145 196.5,-145"/>
<image xlink:href="../../images/foreignKeys.png" width="11px" height="12px" preserveAspectRatio="xMinYMin meet" x="201.5" y="-162"/>
<text text-anchor="start" x="216.5" y="-153.2" font-family="Helvetica,sans-Serif" font-size="11.00">scenario_type_id</text>
<polygon fill="none" stroke="black" points="315.5,-145 315.5,-167 427.5,-167 427.5,-145 315.5,-145"/>
<text text-anchor="start" x="318.5" y="-153.2" font-family="Helvetica,sans-Serif" font-size="11.00">int2[5]</text>
<polygon fill="#ffffff" stroke="transparent" points="196.5,-127 196.5,-145 261.5,-145 261.5,-127 196.5,-127"/>
<polygon fill="none" stroke="black" points="196.5,-127 196.5,-145 261.5,-145 261.5,-127 196.5,-127"/>
<text text-anchor="start" x="199.5" y="-133.2" font-family="Helvetica,sans-Serif" font-size="11.00">&lt; 2</text>
<polygon fill="#ffffff" stroke="transparent" points="261.5,-127 261.5,-145 315.5,-145 315.5,-127 261.5,-127"/>
<polygon fill="none" stroke="black" points="261.5,-127 261.5,-145 315.5,-145 315.5,-127 261.5,-127"/>
<text text-anchor="start" x="304.5" y="-133.2" font-family="Helvetica,sans-Serif" font-size="11.00"> &#160;</text>
<polygon fill="#ffffff" stroke="transparent" points="315.5,-127 315.5,-145 427.5,-145 427.5,-127 315.5,-127"/>
<polygon fill="none" stroke="black" points="315.5,-127 315.5,-145 427.5,-145 427.5,-127 315.5,-127"/>
<text text-anchor="start" x="404.5" y="-133.2" font-family="Helvetica,sans-Serif" font-size="11.00">0 &gt;</text>
<polygon fill="none" stroke="black" stroke-width="2" points="195,-126 195,-366 428,-366 428,-126 195,-126"/>
</a>
</g>
</g>
<!-- object -->
<g id="node2" class="node">
<title>object</title>
<g id="a_node2"><a xlink:href="../../tables/object.html" xlink:title="object" target="_top">
<polygon fill="#ffffff" stroke="transparent" points="12,-138 12,-284 141,-284 141,-138 12,-138"/>
<polygon fill="#f5f5f5" stroke="transparent" points="12.5,-262 12.5,-284 141.5,-284 141.5,-262 12.5,-262"/>
<polygon fill="none" stroke="black" points="12.5,-262 12.5,-284 141.5,-284 141.5,-262 12.5,-262"/>
<text text-anchor="start" x="17.5" y="-271.2" font-family="Helvetica,sans-Serif" font-weight="bold" font-size="11.00">object</text>
<text text-anchor="start" x="99.5" y="-270.2" font-family="Helvetica,sans-Serif" font-size="11.00">[table]</text>
<polygon fill="none" stroke="black" points="12.5,-240 12.5,-262 141.5,-262 141.5,-240 12.5,-240"/>
<image xlink:href="../../images/primaryKeys.png" width="11px" height="12px" preserveAspectRatio="xMinYMin meet" x="17.5" y="-257"/>
<text text-anchor="start" x="32.5" y="-248.2" font-family="Helvetica,sans-Serif" font-size="11.00">uuid</text>
<polygon fill="#ffffff" stroke="transparent" points="12.5,-218 12.5,-240 141.5,-240 141.5,-218 12.5,-218"/>
<polygon fill="none" stroke="black" points="12.5,-218 12.5,-240 141.5,-240 141.5,-218 12.5,-218"/>
<text text-anchor="start" x="32.5" y="-226.2" font-family="Helvetica,sans-Serif" font-size="11.00">geom</text>
<polygon fill="#ffffff" stroke="transparent" points="12.5,-196 12.5,-218 141.5,-218 141.5,-196 12.5,-196"/>
<polygon fill="none" stroke="black" points="12.5,-196 12.5,-218 141.5,-218 141.5,-196 12.5,-196"/>
<text text-anchor="start" x="32.5" y="-204.2" font-family="Helvetica,sans-Serif" font-size="11.00">revisie_frequentie</text>
<polygon fill="#ffffff" stroke="transparent" points="12.5,-174 12.5,-196 141.5,-196 141.5,-174 12.5,-174"/>
<polygon fill="none" stroke="black" points="12.5,-174 12.5,-196 141.5,-196 141.5,-174 12.5,-174"/>
<image xlink:href="../../images/foreignKeys.png" width="11px" height="12px" preserveAspectRatio="xMinYMin meet" x="17.5" y="-191"/>
<text text-anchor="start" x="32.5" y="-182.2" font-family="Helvetica,sans-Serif" font-size="11.00">fase_id</text>
<polygon fill="none" stroke="black" points="12.5,-156 12.5,-174 141.5,-174 141.5,-156 12.5,-156"/>
<text text-anchor="start" x="15.5" y="-162.2" font-family="Helvetica,sans-Serif" font-size="11.00">...</text>
<polygon fill="#ffffff" stroke="transparent" points="12.5,-138 12.5,-156 66.5,-156 66.5,-138 12.5,-138"/>
<polygon fill="none" stroke="black" points="12.5,-138 12.5,-156 66.5,-156 66.5,-138 12.5,-138"/>
<text text-anchor="start" x="15.5" y="-144.2" font-family="Helvetica,sans-Serif" font-size="11.00">&lt; 1</text>
<polygon fill="#ffffff" stroke="transparent" points="66.5,-138 66.5,-156 94.5,-156 94.5,-138 66.5,-138"/>
<polygon fill="none" stroke="black" points="66.5,-138 66.5,-156 94.5,-156 94.5,-138 66.5,-138"/>
<text text-anchor="start" x="83.5" y="-144.2" font-family="Helvetica,sans-Serif" font-size="11.00"> &#160;</text>
<polygon fill="#ffffff" stroke="transparent" points="94.5,-138 94.5,-156 141.5,-156 141.5,-138 94.5,-138"/>
<polygon fill="none" stroke="black" points="94.5,-138 94.5,-156 141.5,-156 141.5,-138 94.5,-138"/>
<text text-anchor="start" x="111.5" y="-144.2" font-family="Helvetica,sans-Serif" font-size="11.00">10 &gt;</text>
</a>
</g>
</g>
<!-- scenario&#45;&gt;object -->
<g id="edge1" class="edge">
<title>scenario:w&#45;&gt;object:e</title>
<path fill="none" stroke="black" d="M181.65,-182.35C162,-198.06 176.64,-251 142.5,-251"/>
<polygon fill="black" stroke="black" points="187.87,-180.4 196.58,-181.43 191.68,-179.2 195.5,-178 195.5,-178 195.5,-178 191.68,-179.2 194.42,-174.57 187.87,-180.4 187.87,-180.4"/>
<ellipse fill="none" stroke="black" cx="184.81" cy="-181.36" rx="3.2" ry="3.2"/>
</g>
<!-- scenario_type -->
<g id="node3" class="node">
<title>scenario_type</title>
<g id="a_node3"><a xlink:href="../../tables/scenario_type.html" xlink:title="scenario_type" target="_top">
<polygon fill="#ffffff" stroke="transparent" points="8,-37 8,-117 145,-117 145,-37 8,-37"/>
<polygon fill="#f5f5f5" stroke="transparent" points="8.5,-95 8.5,-117 145.5,-117 145.5,-95 8.5,-95"/>
<polygon fill="none" stroke="black" points="8.5,-95 8.5,-117 145.5,-117 145.5,-95 8.5,-95"/>
<text text-anchor="start" x="13.5" y="-104.2" font-family="Helvetica,sans-Serif" font-weight="bold" font-size="11.00">scenario_type</text>
<text text-anchor="start" x="103.5" y="-103.2" font-family="Helvetica,sans-Serif" font-size="11.00">[table]</text>
<polygon fill="none" stroke="black" points="8.5,-73 8.5,-95 145.5,-95 145.5,-73 8.5,-73"/>
<image xlink:href="../../images/primaryKeys.png" width="11px" height="12px" preserveAspectRatio="xMinYMin meet" x="13.5" y="-90"/>
<text text-anchor="start" x="45.5" y="-81.2" font-family="Helvetica,sans-Serif" font-size="11.00">id</text>
<polygon fill="none" stroke="black" points="8.5,-55 8.5,-73 145.5,-73 145.5,-55 8.5,-55"/>
<text text-anchor="start" x="11.5" y="-61.2" font-family="Helvetica,sans-Serif" font-size="11.00">...</text>
<polygon fill="#ffffff" stroke="transparent" points="8.5,-37 8.5,-55 63.5,-55 63.5,-37 8.5,-37"/>
<polygon fill="none" stroke="black" points="8.5,-37 8.5,-55 63.5,-55 63.5,-37 8.5,-37"/>
<text text-anchor="start" x="11.5" y="-43.2" font-family="Helvetica,sans-Serif" font-size="11.00"> &#160;</text>
<polygon fill="#ffffff" stroke="transparent" points="63.5,-37 63.5,-55 98.5,-55 98.5,-37 63.5,-37"/>
<polygon fill="none" stroke="black" points="63.5,-37 63.5,-55 98.5,-55 98.5,-37 63.5,-37"/>
<text text-anchor="start" x="87.5" y="-43.2" font-family="Helvetica,sans-Serif" font-size="11.00"> &#160;</text>
<polygon fill="#ffffff" stroke="transparent" points="98.5,-37 98.5,-55 145.5,-55 145.5,-37 98.5,-37"/>
<polygon fill="none" stroke="black" points="98.5,-37 98.5,-55 145.5,-55 145.5,-37 98.5,-37"/>
<text text-anchor="start" x="122.5" y="-43.2" font-family="Helvetica,sans-Serif" font-size="11.00">1 &gt;</text>
</a>
</g>
</g>
<!-- scenario&#45;&gt;scenario_type -->
<g id="edge2" class="edge">
<title>scenario:w&#45;&gt;scenario_type:e</title>
<path fill="none" stroke="black" d="M181.76,-151.28C164.03,-135.26 179.16,-84 146.5,-84"/>
<polygon fill="black" stroke="black" points="187.93,-153.4 194.33,-159.4 191.72,-154.7 195.5,-156 195.5,-156 195.5,-156 191.72,-154.7 196.67,-152.6 187.93,-153.4 187.93,-153.4"/>
<ellipse fill="none" stroke="black" cx="184.91" cy="-152.36" rx="3.2" ry="3.2"/>
</g>
</g>
</svg>
