<?xml version="1.0" encoding="UTF-8" standalone="no"?>
<!DOCTYPE svg PUBLIC "-//W3C//DTD SVG 1.1//EN"
 "http://www.w3.org/Graphics/SVG/1.1/DTD/svg11.dtd">
<!-- Generated by graphviz version 2.50.0 (0)
 -->
<!-- Title: twoDegreesRelationshipsDiagram Pages: 1 -->
<svg width="593pt" height="1018pt"
 viewBox="0.00 0.00 593.00 1018.00" xmlns="http://www.w3.org/2000/svg" xmlns:xlink="http://www.w3.org/1999/xlink">
<g id="graph0" class="graph" transform="scale(1 1) rotate(0) translate(4 1014)">
<title>twoDegreesRelationshipsDiagram</title>
<polygon fill="#ffffff" stroke="transparent" points="-4,4 -4,-1014 589,-1014 589,4 -4,4"/>
<text text-anchor="middle" x="79.5" y="-7.2" font-family="Helvetica,sans-Serif" font-size="11.00">Generated by SchemaSpy</text>
<!-- bereikbaarheid -->
<g id="node1" class="node">
<title>bereikbaarheid</title>
<g id="a_node1"><a xlink:href="../../tables/bereikbaarheid.html" xlink:title="bereikbaarheid" target="_top">
<polygon fill="#ffffff" stroke="transparent" points="387,-948 387,-1006 532,-1006 532,-948 387,-948"/>
<polygon fill="#f5f5f5" stroke="transparent" points="387.5,-984 387.5,-1006 532.5,-1006 532.5,-984 387.5,-984"/>
<polygon fill="none" stroke="black" points="387.5,-984 387.5,-1006 532.5,-1006 532.5,-984 387.5,-984"/>
<text text-anchor="start" x="392.5" y="-993.2" font-family="Helvetica,sans-Serif" font-weight="bold" font-size="11.00">bereikbaarheid</text>
<text text-anchor="start" x="490.5" y="-992.2" font-family="Helvetica,sans-Serif" font-size="11.00">[table]</text>
<polygon fill="none" stroke="black" points="387.5,-966 387.5,-984 532.5,-984 532.5,-966 387.5,-966"/>
<text text-anchor="start" x="390.5" y="-972.2" font-family="Helvetica,sans-Serif" font-size="11.00">...</text>
<polygon fill="#ffffff" stroke="transparent" points="387.5,-948 387.5,-966 458.5,-966 458.5,-948 387.5,-948"/>
<polygon fill="none" stroke="black" points="387.5,-948 387.5,-966 458.5,-966 458.5,-948 387.5,-948"/>
<text text-anchor="start" x="390.5" y="-954.2" font-family="Helvetica,sans-Serif" font-size="11.00">&lt; 2</text>
<polygon fill="#ffffff" stroke="transparent" points="458.5,-948 458.5,-966 495.5,-966 495.5,-948 458.5,-948"/>
<polygon fill="none" stroke="black" points="458.5,-948 458.5,-966 495.5,-966 495.5,-948 458.5,-948"/>
<text text-anchor="start" x="484.5" y="-954.2" font-family="Helvetica,sans-Serif" font-size="11.00"> &#160;</text>
<polygon fill="#ffffff" stroke="transparent" points="495.5,-948 495.5,-966 532.5,-966 532.5,-948 495.5,-948"/>
<polygon fill="none" stroke="black" points="495.5,-948 495.5,-966 532.5,-966 532.5,-948 495.5,-948"/>
<text text-anchor="start" x="521.5" y="-954.2" font-family="Helvetica,sans-Serif" font-size="11.00"> &#160;</text>
</a>
</g>
</g>
<!-- object -->
<g id="node2" class="node">
<title>object</title>
<g id="a_node2"><a xlink:href="../../tables/object.html" xlink:title="object" target="_top">
<polygon fill="#ffffff" stroke="transparent" points="160,-506 160,-652 289,-652 289,-506 160,-506"/>
<polygon fill="#f5f5f5" stroke="transparent" points="160.5,-630 160.5,-652 289.5,-652 289.5,-630 160.5,-630"/>
<polygon fill="none" stroke="black" points="160.5,-630 160.5,-652 289.5,-652 289.5,-630 160.5,-630"/>
<text text-anchor="start" x="165.5" y="-639.2" font-family="Helvetica,sans-Serif" font-weight="bold" font-size="11.00">object</text>
<text text-anchor="start" x="247.5" y="-638.2" font-family="Helvetica,sans-Serif" font-size="11.00">[table]</text>
<polygon fill="none" stroke="black" points="160.5,-608 160.5,-630 289.5,-630 289.5,-608 160.5,-608"/>
<image xlink:href="../../images/primaryKeys.png" width="11px" height="12px" preserveAspectRatio="xMinYMin meet" x="165.5" y="-625"/>
<text text-anchor="start" x="180.5" y="-616.2" font-family="Helvetica,sans-Serif" font-size="11.00">uuid</text>
<polygon fill="#ffffff" stroke="transparent" points="160.5,-586 160.5,-608 289.5,-608 289.5,-586 160.5,-586"/>
<polygon fill="none" stroke="black" points="160.5,-586 160.5,-608 289.5,-608 289.5,-586 160.5,-586"/>
<text text-anchor="start" x="180.5" y="-594.2" font-family="Helvetica,sans-Serif" font-size="11.00">geom</text>
<polygon fill="#ffffff" stroke="transparent" points="160.5,-564 160.5,-586 289.5,-586 289.5,-564 160.5,-564"/>
<polygon fill="none" stroke="black" points="160.5,-564 160.5,-586 289.5,-586 289.5,-564 160.5,-564"/>
<text text-anchor="start" x="180.5" y="-572.2" font-family="Helvetica,sans-Serif" font-size="11.00">revisie_frequentie</text>
<polygon fill="#ffffff" stroke="transparent" points="160.5,-542 160.5,-564 289.5,-564 289.5,-542 160.5,-542"/>
<polygon fill="none" stroke="black" points="160.5,-542 160.5,-564 289.5,-564 289.5,-542 160.5,-542"/>
<image xlink:href="../../images/foreignKeys.png" width="11px" height="12px" preserveAspectRatio="xMinYMin meet" x="165.5" y="-559"/>
<text text-anchor="start" x="180.5" y="-550.2" font-family="Helvetica,sans-Serif" font-size="11.00">fase_id</text>
<polygon fill="none" stroke="black" points="160.5,-524 160.5,-542 289.5,-542 289.5,-524 160.5,-524"/>
<text text-anchor="start" x="163.5" y="-530.2" font-family="Helvetica,sans-Serif" font-size="11.00">...</text>
<polygon fill="#ffffff" stroke="transparent" points="160.5,-506 160.5,-524 214.5,-524 214.5,-506 160.5,-506"/>
<polygon fill="none" stroke="black" points="160.5,-506 160.5,-524 214.5,-524 214.5,-506 160.5,-506"/>
<text text-anchor="start" x="163.5" y="-512.2" font-family="Helvetica,sans-Serif" font-size="11.00">&lt; 1</text>
<polygon fill="#ffffff" stroke="transparent" points="214.5,-506 214.5,-524 242.5,-524 242.5,-506 214.5,-506"/>
<polygon fill="none" stroke="black" points="214.5,-506 214.5,-524 242.5,-524 242.5,-506 214.5,-506"/>
<text text-anchor="start" x="231.5" y="-512.2" font-family="Helvetica,sans-Serif" font-size="11.00"> &#160;</text>
<polygon fill="#ffffff" stroke="transparent" points="242.5,-506 242.5,-524 289.5,-524 289.5,-506 242.5,-506"/>
<polygon fill="none" stroke="black" points="242.5,-506 242.5,-524 289.5,-524 289.5,-506 242.5,-506"/>
<text text-anchor="start" x="259.5" y="-512.2" font-family="Helvetica,sans-Serif" font-size="11.00">10 &gt;</text>
</a>
</g>
</g>
<!-- bereikbaarheid&#45;&gt;object -->
<g id="edge1" class="edge">
<title>bereikbaarheid:w&#45;&gt;object:e</title>
<path fill="none" stroke="black" d="M372.07,-973.62C354.25,-969.74 345.99,-957.72 334,-938 296.84,-876.86 362.04,-619 290.5,-619"/>
<polygon fill="black" stroke="black" points="378.54,-974.24 386.16,-978.58 382.52,-974.62 386.5,-975 386.5,-975 386.5,-975 382.52,-974.62 386.84,-971.42 378.54,-974.24 378.54,-974.24"/>
<ellipse fill="none" stroke="black" cx="375.35" cy="-973.93" rx="3.2" ry="3.2"/>
</g>
<!-- roi.fase -->
<g id="node5" class="node">
<title>roi.fase</title>
<g id="a_node5"><a xlink:href="../../../roi/tables/fase.html" xlink:title="roi.fase" target="_top">
<polygon fill="#ffffff" stroke="transparent" points="8,-526 8,-584 107,-584 107,-526 8,-526"/>
<polygon fill="#f5f5f5" stroke="transparent" points="8.5,-562 8.5,-584 107.5,-584 107.5,-562 8.5,-562"/>
<polygon fill="none" stroke="black" points="8.5,-562 8.5,-584 107.5,-584 107.5,-562 8.5,-562"/>
<text text-anchor="start" x="13.5" y="-571.2" font-family="Helvetica,sans-Serif" font-weight="bold" font-size="11.00">roi.fase</text>
<text text-anchor="start" x="65.5" y="-570.2" font-family="Helvetica,sans-Serif" font-size="11.00">[table]</text>
<polygon fill="none" stroke="black" points="8.5,-544 8.5,-562 107.5,-562 107.5,-544 8.5,-544"/>
<text text-anchor="start" x="11.5" y="-550.2" font-family="Helvetica,sans-Serif" font-size="11.00">...</text>
<polygon fill="#ffffff" stroke="transparent" points="8.5,-526 8.5,-544 44.5,-544 44.5,-526 8.5,-526"/>
<polygon fill="none" stroke="black" points="8.5,-526 8.5,-544 44.5,-544 44.5,-526 8.5,-526"/>
<text text-anchor="start" x="11.5" y="-532.2" font-family="Helvetica,sans-Serif" font-size="11.00"> &#160;</text>
<polygon fill="#ffffff" stroke="transparent" points="44.5,-526 44.5,-544 69.5,-544 69.5,-526 44.5,-526"/>
<polygon fill="none" stroke="black" points="44.5,-526 44.5,-544 69.5,-544 69.5,-526 44.5,-526"/>
<text text-anchor="start" x="58.5" y="-532.2" font-family="Helvetica,sans-Serif" font-size="11.00"> &#160;</text>
<polygon fill="#ffffff" stroke="transparent" points="69.5,-526 69.5,-544 107.5,-544 107.5,-526 69.5,-526"/>
<polygon fill="none" stroke="black" points="69.5,-526 69.5,-544 107.5,-544 107.5,-526 69.5,-526"/>
<text text-anchor="start" x="84.5" y="-532.2" font-family="Helvetica,sans-Serif" font-size="11.00">1 &gt;</text>
</a>
</g>
</g>
<!-- object&#45;&gt;roi.fase -->
<g id="edge4" class="edge">
<title>object:w&#45;&gt;roi.fase:e</title>
<path fill="none" stroke="black" d="M144.78,-553C132.78,-553 125.32,-553 108.5,-553"/>
<polygon fill="black" stroke="black" points="151.5,-553 159.5,-556.6 155.5,-553 159.5,-553 159.5,-553 159.5,-553 155.5,-553 159.5,-549.4 151.5,-553 151.5,-553"/>
<ellipse fill="none" stroke="black" cx="148.3" cy="-553" rx="3.2" ry="3.2"/>
</g>
<!-- gevaarlijkestof -->
<g id="node3" class="node">
<title>gevaarlijkestof</title>
<g id="a_node3"><a xlink:href="../../tables/gevaarlijkestof.html" xlink:title="gevaarlijkestof" target="_top">
<polygon fill="#ffffff" stroke="transparent" points="387.5,-869 387.5,-927 531.5,-927 531.5,-869 387.5,-869"/>
<polygon fill="#f5f5f5" stroke="transparent" points="387.5,-905 387.5,-927 531.5,-927 531.5,-905 387.5,-905"/>
<polygon fill="none" stroke="black" points="387.5,-905 387.5,-927 531.5,-927 531.5,-905 387.5,-905"/>
<text text-anchor="start" x="392.5" y="-914.2" font-family="Helvetica,sans-Serif" font-weight="bold" font-size="11.00">gevaarlijkestof</text>
<text text-anchor="start" x="489.5" y="-913.2" font-family="Helvetica,sans-Serif" font-size="11.00">[table]</text>
<polygon fill="none" stroke="black" points="387.5,-887 387.5,-905 531.5,-905 531.5,-887 387.5,-887"/>
<text text-anchor="start" x="390.5" y="-893.2" font-family="Helvetica,sans-Serif" font-size="11.00">...</text>
<polygon fill="#ffffff" stroke="transparent" points="387.5,-869 387.5,-887 458.5,-887 458.5,-869 387.5,-869"/>
<polygon fill="none" stroke="black" points="387.5,-869 387.5,-887 458.5,-887 458.5,-869 387.5,-869"/>
<text text-anchor="start" x="390.5" y="-875.2" font-family="Helvetica,sans-Serif" font-size="11.00">&lt; 1</text>
<polygon fill="#ffffff" stroke="transparent" points="458.5,-869 458.5,-887 494.5,-887 494.5,-869 458.5,-869"/>
<polygon fill="none" stroke="black" points="458.5,-869 458.5,-887 494.5,-887 494.5,-869 458.5,-869"/>
<text text-anchor="start" x="483.5" y="-875.2" font-family="Helvetica,sans-Serif" font-size="11.00"> &#160;</text>
<polygon fill="#ffffff" stroke="transparent" points="494.5,-869 494.5,-887 531.5,-887 531.5,-869 494.5,-869"/>
<polygon fill="none" stroke="black" points="494.5,-869 494.5,-887 531.5,-887 531.5,-869 494.5,-869"/>
<text text-anchor="start" x="520.5" y="-875.2" font-family="Helvetica,sans-Serif" font-size="11.00"> &#160;</text>
</a>
</g>
</g>
<!-- gevaarlijkestof&#45;&gt;object -->
<g id="edge2" class="edge">
<title>gevaarlijkestof:w&#45;&gt;object:e</title>
<path fill="none" stroke="black" d="M372.11,-894.59C354.42,-890.64 346.42,-878.46 334,-859 304.84,-813.31 344.7,-619 290.5,-619"/>
<polygon fill="black" stroke="black" points="378.54,-895.22 386.15,-899.58 382.52,-895.61 386.5,-896 386.5,-896 386.5,-896 382.52,-895.61 386.85,-892.42 378.54,-895.22 378.54,-895.22"/>
<ellipse fill="none" stroke="black" cx="375.35" cy="-894.91" rx="3.2" ry="3.2"/>
</g>
<!-- label -->
<g id="node4" class="node">
<title>label</title>
<g id="a_node4"><a xlink:href="../../tables/label.html" xlink:title="label" target="_top">
<polygon fill="#ffffff" stroke="transparent" points="418.5,-790 418.5,-848 500.5,-848 500.5,-790 418.5,-790"/>
<polygon fill="#f5f5f5" stroke="transparent" points="418.5,-826 418.5,-848 500.5,-848 500.5,-826 418.5,-826"/>
<polygon fill="none" stroke="black" points="418.5,-826 418.5,-848 500.5,-848 500.5,-826 418.5,-826"/>
<text text-anchor="start" x="423.5" y="-835.2" font-family="Helvetica,sans-Serif" font-weight="bold" font-size="11.00">label</text>
<text text-anchor="start" x="458.5" y="-834.2" font-family="Helvetica,sans-Serif" font-size="11.00">[table]</text>
<polygon fill="none" stroke="black" points="418.5,-808 418.5,-826 500.5,-826 500.5,-808 418.5,-808"/>
<text text-anchor="start" x="421.5" y="-814.2" font-family="Helvetica,sans-Serif" font-size="11.00">...</text>
<polygon fill="#ffffff" stroke="transparent" points="418.5,-790 418.5,-808 458.5,-808 458.5,-790 418.5,-790"/>
<polygon fill="none" stroke="black" points="418.5,-790 418.5,-808 458.5,-808 458.5,-790 418.5,-790"/>
<text text-anchor="start" x="421.5" y="-796.2" font-family="Helvetica,sans-Serif" font-size="11.00">&lt; 2</text>
<polygon fill="#ffffff" stroke="transparent" points="458.5,-790 458.5,-808 479.5,-808 479.5,-790 458.5,-790"/>
<polygon fill="none" stroke="black" points="458.5,-790 458.5,-808 479.5,-808 479.5,-790 458.5,-790"/>
<text text-anchor="start" x="468.5" y="-796.2" font-family="Helvetica,sans-Serif" font-size="11.00"> &#160;</text>
<polygon fill="#ffffff" stroke="transparent" points="479.5,-790 479.5,-808 500.5,-808 500.5,-790 479.5,-790"/>
<polygon fill="none" stroke="black" points="479.5,-790 479.5,-808 500.5,-808 500.5,-790 479.5,-790"/>
<text text-anchor="start" x="489.5" y="-796.2" font-family="Helvetica,sans-Serif" font-size="11.00"> &#160;</text>
</a>
</g>
</g>
<!-- label&#45;&gt;object -->
<g id="edge3" class="edge">
<title>label:w&#45;&gt;object:e</title>
<path fill="none" stroke="black" d="M402.93,-816.65C372.49,-815 357.02,-806.84 334,-780 285.75,-723.73 364.62,-619 290.5,-619"/>
<polygon fill="black" stroke="black" points="409.5,-816.81 417.41,-820.6 413.5,-816.9 417.5,-817 417.5,-817 417.5,-817 413.5,-816.9 417.59,-813.4 409.5,-816.81 409.5,-816.81"/>
<ellipse fill="none" stroke="black" cx="406.3" cy="-816.73" rx="3.2" ry="3.2"/>
</g>
<!-- opstelplaats -->
<g id="node6" class="node">
<title>opstelplaats</title>
<g id="a_node6"><a xlink:href="../../tables/opstelplaats.html" xlink:title="opstelplaats" target="_top">
<polygon fill="#ffffff" stroke="transparent" points="395.5,-711 395.5,-769 523.5,-769 523.5,-711 395.5,-711"/>
<polygon fill="#f5f5f5" stroke="transparent" points="395.5,-747 395.5,-769 523.5,-769 523.5,-747 395.5,-747"/>
<polygon fill="none" stroke="black" points="395.5,-747 395.5,-769 523.5,-769 523.5,-747 395.5,-747"/>
<text text-anchor="start" x="400.5" y="-756.2" font-family="Helvetica,sans-Serif" font-weight="bold" font-size="11.00">opstelplaats</text>
<text text-anchor="start" x="481.5" y="-755.2" font-family="Helvetica,sans-Serif" font-size="11.00">[table]</text>
<polygon fill="none" stroke="black" points="395.5,-729 395.5,-747 523.5,-747 523.5,-729 395.5,-729"/>
<text text-anchor="start" x="398.5" y="-735.2" font-family="Helvetica,sans-Serif" font-size="11.00">...</text>
<polygon fill="#ffffff" stroke="transparent" points="395.5,-711 395.5,-729 458.5,-729 458.5,-711 395.5,-711"/>
<polygon fill="none" stroke="black" points="395.5,-711 395.5,-729 458.5,-729 458.5,-711 395.5,-711"/>
<text text-anchor="start" x="398.5" y="-717.2" font-family="Helvetica,sans-Serif" font-size="11.00">&lt; 2</text>
<polygon fill="#ffffff" stroke="transparent" points="458.5,-711 458.5,-729 490.5,-729 490.5,-711 458.5,-711"/>
<polygon fill="none" stroke="black" points="458.5,-711 458.5,-729 490.5,-729 490.5,-711 458.5,-711"/>
<text text-anchor="start" x="479.5" y="-717.2" font-family="Helvetica,sans-Serif" font-size="11.00"> &#160;</text>
<polygon fill="#ffffff" stroke="transparent" points="490.5,-711 490.5,-729 523.5,-729 523.5,-711 490.5,-711"/>
<polygon fill="none" stroke="black" points="490.5,-711 490.5,-729 523.5,-729 523.5,-711 490.5,-711"/>
<text text-anchor="start" x="512.5" y="-717.2" font-family="Helvetica,sans-Serif" font-size="11.00"> &#160;</text>
</a>
</g>
</g>
<!-- opstelplaats&#45;&gt;object -->
<g id="edge5" class="edge">
<title>opstelplaats:w&#45;&gt;object:e</title>
<path fill="none" stroke="black" d="M379.91,-736.73C359.95,-732.79 351.8,-719.92 334,-701 305.73,-670.95 331.76,-619 290.5,-619"/>
<polygon fill="black" stroke="black" points="386.53,-737.3 394.19,-741.59 390.52,-737.65 394.5,-738 394.5,-738 394.5,-738 390.52,-737.65 394.81,-734.41 386.53,-737.3 386.53,-737.3"/>
<ellipse fill="none" stroke="black" cx="383.34" cy="-737.03" rx="3.2" ry="3.2"/>
</g>
<!-- pand -->
<g id="node7" class="node">
<title>pand</title>
<g id="a_node7"><a xlink:href="../../tables/pand.html" xlink:title="pand" target="_top">
<polygon fill="#ffffff" stroke="transparent" points="418.5,-632 418.5,-690 500.5,-690 500.5,-632 418.5,-632"/>
<polygon fill="#f5f5f5" stroke="transparent" points="418.5,-668 418.5,-690 500.5,-690 500.5,-668 418.5,-668"/>
<polygon fill="none" stroke="black" points="418.5,-668 418.5,-690 500.5,-690 500.5,-668 418.5,-668"/>
<text text-anchor="start" x="423.5" y="-677.2" font-family="Helvetica,sans-Serif" font-weight="bold" font-size="11.00">pand</text>
<text text-anchor="start" x="458.5" y="-676.2" font-family="Helvetica,sans-Serif" font-size="11.00">[table]</text>
<polygon fill="none" stroke="black" points="418.5,-650 418.5,-668 500.5,-668 500.5,-650 418.5,-650"/>
<text text-anchor="start" x="421.5" y="-656.2" font-family="Helvetica,sans-Serif" font-size="11.00">...</text>
<polygon fill="#ffffff" stroke="transparent" points="418.5,-632 418.5,-650 458.5,-650 458.5,-632 418.5,-632"/>
<polygon fill="none" stroke="black" points="418.5,-632 418.5,-650 458.5,-650 458.5,-632 418.5,-632"/>
<text text-anchor="start" x="421.5" y="-638.2" font-family="Helvetica,sans-Serif" font-size="11.00">&lt; 1</text>
<polygon fill="#ffffff" stroke="transparent" points="458.5,-632 458.5,-650 479.5,-650 479.5,-632 458.5,-632"/>
<polygon fill="none" stroke="black" points="458.5,-632 458.5,-650 479.5,-650 479.5,-632 458.5,-632"/>
<text text-anchor="start" x="468.5" y="-638.2" font-family="Helvetica,sans-Serif" font-size="11.00"> &#160;</text>
<polygon fill="#ffffff" stroke="transparent" points="479.5,-632 479.5,-650 500.5,-650 500.5,-632 479.5,-632"/>
<polygon fill="none" stroke="black" points="479.5,-632 479.5,-650 500.5,-650 500.5,-632 479.5,-632"/>
<text text-anchor="start" x="489.5" y="-638.2" font-family="Helvetica,sans-Serif" font-size="11.00"> &#160;</text>
</a>
</g>
</g>
<!-- pand&#45;&gt;object -->
<g id="edge6" class="edge">
<title>pand:w&#45;&gt;object:e</title>
<path fill="none" stroke="black" d="M403,-658.13C356.41,-652.28 344.48,-619 290.5,-619"/>
<polygon fill="black" stroke="black" points="409.51,-658.52 417.28,-662.59 413.51,-658.76 417.5,-659 417.5,-659 417.5,-659 413.51,-658.76 417.72,-655.41 409.51,-658.52 409.51,-658.52"/>
<ellipse fill="none" stroke="black" cx="406.32" cy="-658.33" rx="3.2" ry="3.2"/>
</g>
<!-- risico -->
<g id="node8" class="node">
<title>risico</title>
<g id="a_node8"><a xlink:href="../../tables/risico.html" xlink:title="risico" target="_top">
<polygon fill="#ffffff" stroke="transparent" points="417,-553 417,-611 502,-611 502,-553 417,-553"/>
<polygon fill="#f5f5f5" stroke="transparent" points="417.5,-589 417.5,-611 502.5,-611 502.5,-589 417.5,-589"/>
<polygon fill="none" stroke="black" points="417.5,-589 417.5,-611 502.5,-611 502.5,-589 417.5,-589"/>
<text text-anchor="start" x="422.5" y="-598.2" font-family="Helvetica,sans-Serif" font-weight="bold" font-size="11.00">risico</text>
<text text-anchor="start" x="460.5" y="-597.2" font-family="Helvetica,sans-Serif" font-size="11.00">[table]</text>
<polygon fill="none" stroke="black" points="417.5,-571 417.5,-589 502.5,-589 502.5,-571 417.5,-571"/>
<text text-anchor="start" x="420.5" y="-577.2" font-family="Helvetica,sans-Serif" font-size="11.00">...</text>
<polygon fill="#ffffff" stroke="transparent" points="417.5,-553 417.5,-571 458.5,-571 458.5,-553 417.5,-553"/>
<polygon fill="none" stroke="black" points="417.5,-553 417.5,-571 458.5,-571 458.5,-553 417.5,-553"/>
<text text-anchor="start" x="420.5" y="-559.2" font-family="Helvetica,sans-Serif" font-size="11.00">&lt; 1</text>
<polygon fill="#ffffff" stroke="transparent" points="458.5,-553 458.5,-571 480.5,-571 480.5,-553 458.5,-553"/>
<polygon fill="none" stroke="black" points="458.5,-553 458.5,-571 480.5,-571 480.5,-553 458.5,-553"/>
<text text-anchor="start" x="469.5" y="-559.2" font-family="Helvetica,sans-Serif" font-size="11.00"> &#160;</text>
<polygon fill="#ffffff" stroke="transparent" points="480.5,-553 480.5,-571 502.5,-571 502.5,-553 480.5,-553"/>
<polygon fill="none" stroke="black" points="480.5,-553 480.5,-571 502.5,-571 502.5,-553 480.5,-553"/>
<text text-anchor="start" x="491.5" y="-559.2" font-family="Helvetica,sans-Serif" font-size="11.00"> &#160;</text>
</a>
</g>
</g>
<!-- risico&#45;&gt;object -->
<g id="edge7" class="edge">
<title>risico:w&#45;&gt;object:e</title>
<path fill="none" stroke="black" d="M401.83,-580.89C355.9,-586.69 343.85,-619 290.5,-619"/>
<polygon fill="black" stroke="black" points="408.51,-580.48 416.72,-583.59 412.51,-580.24 416.5,-580 416.5,-580 416.5,-580 412.51,-580.24 416.28,-576.41 408.51,-580.48 408.51,-580.48"/>
<ellipse fill="none" stroke="black" cx="405.32" cy="-580.68" rx="3.2" ry="3.2"/>
</g>
<!-- scenario -->
<g id="node9" class="node">
<title>scenario</title>
<g id="a_node9"><a xlink:href="../../tables/scenario.html" xlink:title="scenario" target="_top">
<polygon fill="#ffffff" stroke="transparent" points="342,-53 342,-295 577,-295 577,-53 342,-53"/>
<polygon fill="#f5f5f5" stroke="transparent" points="344.5,-271 344.5,-293 575.5,-293 575.5,-271 344.5,-271"/>
<polygon fill="none" stroke="black" points="344.5,-271 344.5,-293 575.5,-293 575.5,-271 344.5,-271"/>
<text text-anchor="start" x="349.5" y="-280.2" font-family="Helvetica,sans-Serif" font-weight="bold" font-size="11.00">scenario</text>
<text text-anchor="start" x="533.5" y="-279.2" font-family="Helvetica,sans-Serif" font-size="11.00">[table]</text>
<polygon fill="none" stroke="black" points="344.5,-249 344.5,-271 463.5,-271 463.5,-249 344.5,-249"/>
<image xlink:href="../../images/primaryKeys.png" width="11px" height="12px" preserveAspectRatio="xMinYMin meet" x="349.5" y="-266"/>
<text text-anchor="start" x="364.5" y="-257.2" font-family="Helvetica,sans-Serif" font-size="11.00">uuid</text>
<polygon fill="none" stroke="black" points="463.5,-249 463.5,-271 575.5,-271 575.5,-249 463.5,-249"/>
<text text-anchor="start" x="466.5" y="-257.2" font-family="Helvetica,sans-Serif" font-size="11.00">uuid[2147483647]</text>
<polygon fill="none" stroke="black" points="344.5,-227 344.5,-249 463.5,-249 463.5,-227 344.5,-227"/>
<text text-anchor="start" x="364.5" y="-235.2" font-family="Helvetica,sans-Serif" font-size="11.00">datumtijd</text>
<polygon fill="none" stroke="black" points="463.5,-227 463.5,-249 575.5,-249 575.5,-227 463.5,-227"/>
<text text-anchor="start" x="466.5" y="-235.2" font-family="Helvetica,sans-Serif" font-size="11.00">timestamptz[35,6]</text>
<polygon fill="none" stroke="black" points="344.5,-205 344.5,-227 463.5,-227 463.5,-205 344.5,-205"/>
<text text-anchor="start" x="364.5" y="-213.2" font-family="Helvetica,sans-Serif" font-size="11.00">gebruiker</text>
<polygon fill="none" stroke="black" points="463.5,-205 463.5,-227 575.5,-227 575.5,-205 463.5,-205"/>
<text text-anchor="start" x="466.5" y="-213.2" font-family="Helvetica,sans-Serif" font-size="11.00">varchar[255]</text>
<polygon fill="none" stroke="black" points="344.5,-183 344.5,-205 463.5,-205 463.5,-183 344.5,-183"/>
<text text-anchor="start" x="364.5" y="-191.2" font-family="Helvetica,sans-Serif" font-size="11.00">label</text>
<polygon fill="none" stroke="black" points="463.5,-183 463.5,-205 575.5,-205 575.5,-183 463.5,-183"/>
<text text-anchor="start" x="466.5" y="-191.2" font-family="Helvetica,sans-Serif" font-size="11.00">text[2147483647]</text>
<polygon fill="none" stroke="black" points="344.5,-161 344.5,-183 463.5,-183 463.5,-161 344.5,-161"/>
<text text-anchor="start" x="364.5" y="-169.2" font-family="Helvetica,sans-Serif" font-size="11.00">rotatie</text>
<polygon fill="none" stroke="black" points="463.5,-161 463.5,-183 575.5,-183 575.5,-161 463.5,-161"/>
<text text-anchor="start" x="466.5" y="-169.2" font-family="Helvetica,sans-Serif" font-size="11.00">int4[10]</text>
<polygon fill="none" stroke="black" points="344.5,-139 344.5,-161 463.5,-161 463.5,-139 344.5,-139"/>
<text text-anchor="start" x="364.5" y="-147.2" font-family="Helvetica,sans-Serif" font-size="11.00">bijzonderheden</text>
<polygon fill="none" stroke="black" points="463.5,-139 463.5,-161 575.5,-161 575.5,-139 463.5,-139"/>
<text text-anchor="start" x="466.5" y="-147.2" font-family="Helvetica,sans-Serif" font-size="11.00">text[2147483647]</text>
<polygon fill="none" stroke="black" points="344.5,-117 344.5,-139 463.5,-139 463.5,-117 344.5,-117"/>
<text text-anchor="start" x="364.5" y="-125.2" font-family="Helvetica,sans-Serif" font-size="11.00">plusinfo</text>
<polygon fill="none" stroke="black" points="463.5,-117 463.5,-139 575.5,-139 575.5,-117 463.5,-117"/>
<text text-anchor="start" x="466.5" y="-125.2" font-family="Helvetica,sans-Serif" font-size="11.00">jsonb[2147483647]</text>
<polygon fill="#ffffff" stroke="transparent" points="344.5,-95 344.5,-117 463.5,-117 463.5,-95 344.5,-95"/>
<polygon fill="none" stroke="black" points="344.5,-95 344.5,-117 463.5,-117 463.5,-95 344.5,-95"/>
<image xlink:href="../../images/foreignKeys.png" width="11px" height="12px" preserveAspectRatio="xMinYMin meet" x="349.5" y="-112"/>
<text text-anchor="start" x="364.5" y="-103.2" font-family="Helvetica,sans-Serif" font-size="11.00">object_uuid</text>
<polygon fill="none" stroke="black" points="463.5,-95 463.5,-117 575.5,-117 575.5,-95 463.5,-95"/>
<text text-anchor="start" x="466.5" y="-103.2" font-family="Helvetica,sans-Serif" font-size="11.00">uuid[2147483647]</text>
<polygon fill="none" stroke="black" points="344.5,-73 344.5,-95 463.5,-95 463.5,-73 344.5,-73"/>
<image xlink:href="../../images/foreignKeys.png" width="11px" height="12px" preserveAspectRatio="xMinYMin meet" x="349.5" y="-90"/>
<text text-anchor="start" x="364.5" y="-81.2" font-family="Helvetica,sans-Serif" font-size="11.00">scenario_type_id</text>
<polygon fill="none" stroke="black" points="463.5,-73 463.5,-95 575.5,-95 575.5,-73 463.5,-73"/>
<text text-anchor="start" x="466.5" y="-81.2" font-family="Helvetica,sans-Serif" font-size="11.00">int2[5]</text>
<polygon fill="#ffffff" stroke="transparent" points="344.5,-55 344.5,-73 409.5,-73 409.5,-55 344.5,-55"/>
<polygon fill="none" stroke="black" points="344.5,-55 344.5,-73 409.5,-73 409.5,-55 344.5,-55"/>
<text text-anchor="start" x="347.5" y="-61.2" font-family="Helvetica,sans-Serif" font-size="11.00">&lt; 2</text>
<polygon fill="#ffffff" stroke="transparent" points="409.5,-55 409.5,-73 463.5,-73 463.5,-55 409.5,-55"/>
<polygon fill="none" stroke="black" points="409.5,-55 409.5,-73 463.5,-73 463.5,-55 409.5,-55"/>
<text text-anchor="start" x="452.5" y="-61.2" font-family="Helvetica,sans-Serif" font-size="11.00"> &#160;</text>
<polygon fill="#ffffff" stroke="transparent" points="463.5,-55 463.5,-73 575.5,-73 575.5,-55 463.5,-55"/>
<polygon fill="none" stroke="black" points="463.5,-55 463.5,-73 575.5,-73 575.5,-55 463.5,-55"/>
<text text-anchor="start" x="552.5" y="-61.2" font-family="Helvetica,sans-Serif" font-size="11.00">0 &gt;</text>
<polygon fill="none" stroke="black" stroke-width="2" points="343,-54 343,-294 576,-294 576,-54 343,-54"/>
</a>
</g>
</g>
<!-- scenario&#45;&gt;object -->
<g id="edge8" class="edge">
<title>scenario:w&#45;&gt;object:e</title>
<path fill="none" stroke="black" d="M329.24,-109.28C244.77,-152.97 399.73,-619 290.5,-619"/>
<polygon fill="black" stroke="black" points="335.7,-107.79 344.31,-109.51 339.6,-106.9 343.5,-106 343.5,-106 343.5,-106 339.6,-106.9 342.69,-102.49 335.7,-107.79 335.7,-107.79"/>
<ellipse fill="none" stroke="black" cx="332.58" cy="-108.51" rx="3.2" ry="3.2"/>
</g>
<!-- scenario_type -->
<g id="node10" class="node">
<title>scenario_type</title>
<g id="a_node10"><a xlink:href="../../tables/scenario_type.html" xlink:title="scenario_type" target="_top">
<polygon fill="#ffffff" stroke="transparent" points="156,-37 156,-117 293,-117 293,-37 156,-37"/>
<polygon fill="#f5f5f5" stroke="transparent" points="156.5,-95 156.5,-117 293.5,-117 293.5,-95 156.5,-95"/>
<polygon fill="none" stroke="black" points="156.5,-95 156.5,-117 293.5,-117 293.5,-95 156.5,-95"/>
<text text-anchor="start" x="161.5" y="-104.2" font-family="Helvetica,sans-Serif" font-weight="bold" font-size="11.00">scenario_type</text>
<text text-anchor="start" x="251.5" y="-103.2" font-family="Helvetica,sans-Serif" font-size="11.00">[table]</text>
<polygon fill="none" stroke="black" points="156.5,-73 156.5,-95 293.5,-95 293.5,-73 156.5,-73"/>
<image xlink:href="../../images/primaryKeys.png" width="11px" height="12px" preserveAspectRatio="xMinYMin meet" x="161.5" y="-90"/>
<text text-anchor="start" x="193.5" y="-81.2" font-family="Helvetica,sans-Serif" font-size="11.00">id</text>
<polygon fill="none" stroke="black" points="156.5,-55 156.5,-73 293.5,-73 293.5,-55 156.5,-55"/>
<text text-anchor="start" x="159.5" y="-61.2" font-family="Helvetica,sans-Serif" font-size="11.00">...</text>
<polygon fill="#ffffff" stroke="transparent" points="156.5,-37 156.5,-55 211.5,-55 211.5,-37 156.5,-37"/>
<polygon fill="none" stroke="black" points="156.5,-37 156.5,-55 211.5,-55 211.5,-37 156.5,-37"/>
<text text-anchor="start" x="159.5" y="-43.2" font-family="Helvetica,sans-Serif" font-size="11.00"> &#160;</text>
<polygon fill="#ffffff" stroke="transparent" points="211.5,-37 211.5,-55 246.5,-55 246.5,-37 211.5,-37"/>
<polygon fill="none" stroke="black" points="211.5,-37 211.5,-55 246.5,-55 246.5,-37 211.5,-37"/>
<text text-anchor="start" x="235.5" y="-43.2" font-family="Helvetica,sans-Serif" font-size="11.00"> &#160;</text>
<polygon fill="#ffffff" stroke="transparent" points="246.5,-37 246.5,-55 293.5,-55 293.5,-37 246.5,-37"/>
<polygon fill="none" stroke="black" points="246.5,-37 246.5,-55 293.5,-55 293.5,-37 246.5,-37"/>
<text text-anchor="start" x="270.5" y="-43.2" font-family="Helvetica,sans-Serif" font-size="11.00">1 &gt;</text>
</a>
</g>
</g>
<!-- scenario&#45;&gt;scenario_type -->
<g id="edge9" class="edge">
<title>scenario:w&#45;&gt;scenario_type:e</title>
<path fill="none" stroke="black" d="M328.99,-84C317.68,-84 310.49,-84 294.5,-84"/>
<polygon fill="black" stroke="black" points="335.5,-84 343.5,-87.6 339.5,-84 343.5,-84 343.5,-84 343.5,-84 339.5,-84 343.5,-80.4 335.5,-84 335.5,-84"/>
<ellipse fill="none" stroke="black" cx="332.3" cy="-84" rx="3.2" ry="3.2"/>
</g>
<!-- scheiding -->
<g id="node11" class="node">
<title>scheiding</title>
<g id="a_node11"><a xlink:href="../../tables/scheiding.html" xlink:title="scheiding" target="_top">
<polygon fill="#ffffff" stroke="transparent" points="404.5,-474 404.5,-532 514.5,-532 514.5,-474 404.5,-474"/>
<polygon fill="#f5f5f5" stroke="transparent" points="404.5,-510 404.5,-532 514.5,-532 514.5,-510 404.5,-510"/>
<polygon fill="none" stroke="black" points="404.5,-510 404.5,-532 514.5,-532 514.5,-510 404.5,-510"/>
<text text-anchor="start" x="409.5" y="-519.2" font-family="Helvetica,sans-Serif" font-weight="bold" font-size="11.00">scheiding</text>
<text text-anchor="start" x="472.5" y="-518.2" font-family="Helvetica,sans-Serif" font-size="11.00">[table]</text>
<polygon fill="none" stroke="black" points="404.5,-492 404.5,-510 514.5,-510 514.5,-492 404.5,-492"/>
<text text-anchor="start" x="407.5" y="-498.2" font-family="Helvetica,sans-Serif" font-size="11.00">...</text>
<polygon fill="#ffffff" stroke="transparent" points="404.5,-474 404.5,-492 458.5,-492 458.5,-474 404.5,-474"/>
<polygon fill="none" stroke="black" points="404.5,-474 404.5,-492 458.5,-492 458.5,-474 404.5,-474"/>
<text text-anchor="start" x="407.5" y="-480.2" font-family="Helvetica,sans-Serif" font-size="11.00">&lt; 2</text>
<polygon fill="#ffffff" stroke="transparent" points="458.5,-474 458.5,-492 486.5,-492 486.5,-474 458.5,-474"/>
<polygon fill="none" stroke="black" points="458.5,-474 458.5,-492 486.5,-492 486.5,-474 458.5,-474"/>
<text text-anchor="start" x="475.5" y="-480.2" font-family="Helvetica,sans-Serif" font-size="11.00"> &#160;</text>
<polygon fill="#ffffff" stroke="transparent" points="486.5,-474 486.5,-492 514.5,-492 514.5,-474 486.5,-474"/>
<polygon fill="none" stroke="black" points="486.5,-474 486.5,-492 514.5,-492 514.5,-474 486.5,-474"/>
<text text-anchor="start" x="503.5" y="-480.2" font-family="Helvetica,sans-Serif" font-size="11.00"> &#160;</text>
</a>
</g>
</g>
<!-- scheiding&#45;&gt;object -->
<g id="edge10" class="edge">
<title>scheiding:w&#45;&gt;object:e</title>
<path fill="none" stroke="black" d="M389.13,-502.05C364.6,-506.02 355.47,-521.01 334,-543 306.81,-570.84 329.42,-619 290.5,-619"/>
<polygon fill="black" stroke="black" points="395.52,-501.58 403.76,-504.59 399.51,-501.29 403.5,-501 403.5,-501 403.5,-501 399.51,-501.29 403.24,-497.41 395.52,-501.58 395.52,-501.58"/>
<ellipse fill="none" stroke="black" cx="392.33" cy="-501.81" rx="3.2" ry="3.2"/>
</g>
<!-- sector -->
<g id="node12" class="node">
<title>sector</title>
<g id="a_node12"><a xlink:href="../../tables/sector.html" xlink:title="sector" target="_top">
<polygon fill="#ffffff" stroke="transparent" points="414,-395 414,-453 505,-453 505,-395 414,-395"/>
<polygon fill="#f5f5f5" stroke="transparent" points="414.5,-431 414.5,-453 505.5,-453 505.5,-431 414.5,-431"/>
<polygon fill="none" stroke="black" points="414.5,-431 414.5,-453 505.5,-453 505.5,-431 414.5,-431"/>
<text text-anchor="start" x="419.5" y="-440.2" font-family="Helvetica,sans-Serif" font-weight="bold" font-size="11.00">sector</text>
<text text-anchor="start" x="463.5" y="-439.2" font-family="Helvetica,sans-Serif" font-size="11.00">[table]</text>
<polygon fill="none" stroke="black" points="414.5,-413 414.5,-431 505.5,-431 505.5,-413 414.5,-413"/>
<text text-anchor="start" x="417.5" y="-419.2" font-family="Helvetica,sans-Serif" font-size="11.00">...</text>
<polygon fill="#ffffff" stroke="transparent" points="414.5,-395 414.5,-413 458.5,-413 458.5,-395 414.5,-395"/>
<polygon fill="none" stroke="black" points="414.5,-395 414.5,-413 458.5,-413 458.5,-395 414.5,-395"/>
<text text-anchor="start" x="417.5" y="-401.2" font-family="Helvetica,sans-Serif" font-size="11.00">&lt; 2</text>
<polygon fill="#ffffff" stroke="transparent" points="458.5,-395 458.5,-413 481.5,-413 481.5,-395 458.5,-395"/>
<polygon fill="none" stroke="black" points="458.5,-395 458.5,-413 481.5,-413 481.5,-395 458.5,-395"/>
<text text-anchor="start" x="470.5" y="-401.2" font-family="Helvetica,sans-Serif" font-size="11.00"> &#160;</text>
<polygon fill="#ffffff" stroke="transparent" points="481.5,-395 481.5,-413 505.5,-413 505.5,-395 481.5,-395"/>
<polygon fill="none" stroke="black" points="481.5,-395 481.5,-413 505.5,-413 505.5,-395 481.5,-395"/>
<text text-anchor="start" x="494.5" y="-401.2" font-family="Helvetica,sans-Serif" font-size="11.00"> &#160;</text>
</a>
</g>
</g>
<!-- sector&#45;&gt;object -->
<g id="edge11" class="edge">
<title>sector:w&#45;&gt;object:e</title>
<path fill="none" stroke="black" d="M398.84,-422.6C369.52,-425.25 355.77,-437.04 334,-464 289.05,-519.67 362.05,-619 290.5,-619"/>
<polygon fill="black" stroke="black" points="405.51,-422.33 413.65,-425.6 409.5,-422.16 413.5,-422 413.5,-422 413.5,-422 409.5,-422.16 413.35,-418.4 405.51,-422.33 405.51,-422.33"/>
<ellipse fill="none" stroke="black" cx="402.31" cy="-422.46" rx="3.2" ry="3.2"/>
</g>
<!-- voorziening -->
<g id="node13" class="node">
<title>voorziening</title>
<g id="a_node13"><a xlink:href="../../tables/voorziening.html" xlink:title="voorziening" target="_top">
<polygon fill="#ffffff" stroke="transparent" points="397.5,-316 397.5,-374 521.5,-374 521.5,-316 397.5,-316"/>
<polygon fill="#f5f5f5" stroke="transparent" points="397.5,-352 397.5,-374 521.5,-374 521.5,-352 397.5,-352"/>
<polygon fill="none" stroke="black" points="397.5,-352 397.5,-374 521.5,-374 521.5,-352 397.5,-352"/>
<text text-anchor="start" x="402.5" y="-361.2" font-family="Helvetica,sans-Serif" font-weight="bold" font-size="11.00">voorziening</text>
<text text-anchor="start" x="479.5" y="-360.2" font-family="Helvetica,sans-Serif" font-size="11.00">[table]</text>
<polygon fill="none" stroke="black" points="397.5,-334 397.5,-352 521.5,-352 521.5,-334 397.5,-334"/>
<text text-anchor="start" x="400.5" y="-340.2" font-family="Helvetica,sans-Serif" font-size="11.00">...</text>
<polygon fill="#ffffff" stroke="transparent" points="397.5,-316 397.5,-334 458.5,-334 458.5,-316 397.5,-316"/>
<polygon fill="none" stroke="black" points="397.5,-316 397.5,-334 458.5,-334 458.5,-316 397.5,-316"/>
<text text-anchor="start" x="400.5" y="-322.2" font-family="Helvetica,sans-Serif" font-size="11.00">&lt; 2</text>
<polygon fill="#ffffff" stroke="transparent" points="458.5,-316 458.5,-334 489.5,-334 489.5,-316 458.5,-316"/>
<polygon fill="none" stroke="black" points="458.5,-316 458.5,-334 489.5,-334 489.5,-316 458.5,-316"/>
<text text-anchor="start" x="478.5" y="-322.2" font-family="Helvetica,sans-Serif" font-size="11.00"> &#160;</text>
<polygon fill="#ffffff" stroke="transparent" points="489.5,-316 489.5,-334 521.5,-334 521.5,-316 489.5,-316"/>
<polygon fill="none" stroke="black" points="489.5,-316 489.5,-334 521.5,-334 521.5,-316 489.5,-316"/>
<text text-anchor="start" x="510.5" y="-322.2" font-family="Helvetica,sans-Serif" font-size="11.00"> &#160;</text>
</a>
</g>
</g>
<!-- voorziening&#45;&gt;object -->
<g id="edge12" class="edge">
<title>voorziening:w&#45;&gt;object:e</title>
<path fill="none" stroke="black" d="M382.05,-344.08C359.42,-347.85 349.44,-361.51 334,-385 304.95,-429.2 343.39,-619 290.5,-619"/>
<polygon fill="black" stroke="black" points="388.52,-343.6 396.77,-346.59 392.51,-343.3 396.5,-343 396.5,-343 396.5,-343 392.51,-343.3 396.23,-339.41 388.52,-343.6 388.52,-343.6"/>
<ellipse fill="none" stroke="black" cx="385.33" cy="-343.83" rx="3.2" ry="3.2"/>
</g>
</g>
</svg>
