<?xml version="1.0" encoding="UTF-8" standalone="no"?>
<!DOCTYPE svg PUBLIC "-//W3C//DTD SVG 1.1//EN"
 "http://www.w3.org/Graphics/SVG/1.1/DTD/svg11.dtd">
<!-- Generated by graphviz version 2.50.0 (0)
 -->
<!-- Title: twoDegreesRelationshipsDiagram Pages: 1 -->
<svg width="419pt" height="253pt"
 viewBox="0.00 0.00 419.00 253.00" xmlns="http://www.w3.org/2000/svg" xmlns:xlink="http://www.w3.org/1999/xlink">
<g id="graph0" class="graph" transform="scale(1 1) rotate(0) translate(4 249)">
<title>twoDegreesRelationshipsDiagram</title>
<polygon fill="#ffffff" stroke="transparent" points="-4,4 -4,-249 415,-249 415,4 -4,4"/>
<text text-anchor="middle" x="79.5" y="-7.2" font-family="Helvetica,sans-Serif" font-size="11.00">Generated by SchemaSpy</text>
<!-- scheiding -->
<g id="node1" class="node">
<title>scheiding</title>
<g id="a_node1"><a xlink:href="../../tables/scheiding.html" xlink:title="scheiding" target="_top">
<polygon fill="#ffffff" stroke="transparent" points="277,-73 277,-241 403,-241 403,-73 277,-73"/>
<polygon fill="#f5f5f5" stroke="transparent" points="277,-219 277,-241 403,-241 403,-219 277,-219"/>
<polygon fill="none" stroke="black" points="277,-219 277,-241 403,-241 403,-219 277,-219"/>
<text text-anchor="start" x="282" y="-228.2" font-family="Helvetica,sans-Serif" font-weight="bold" font-size="11.00">scheiding</text>
<text text-anchor="start" x="361" y="-227.2" font-family="Helvetica,sans-Serif" font-size="11.00">[table]</text>
<polygon fill="none" stroke="black" points="277,-197 277,-219 403,-219 403,-197 277,-197"/>
<image xlink:href="../../images/primaryKeys.png" width="11px" height="12px" preserveAspectRatio="xMinYMin meet" x="282" y="-214"/>
<text text-anchor="start" x="297" y="-205.2" font-family="Helvetica,sans-Serif" font-size="11.00">uuid</text>
<polygon fill="#ffffff" stroke="transparent" points="277,-175 277,-197 403,-197 403,-175 277,-175"/>
<polygon fill="none" stroke="black" points="277,-175 277,-197 403,-197 403,-175 277,-175"/>
<text text-anchor="start" x="297" y="-183.2" font-family="Helvetica,sans-Serif" font-size="11.00">geom</text>
<polygon fill="#ffffff" stroke="transparent" points="277,-153 277,-175 403,-175 403,-153 277,-153"/>
<polygon fill="none" stroke="black" points="277,-153 277,-175 403,-175 403,-153 277,-153"/>
<image xlink:href="../../images/foreignKeys.png" width="11px" height="12px" preserveAspectRatio="xMinYMin meet" x="282" y="-170"/>
<text text-anchor="start" x="297" y="-161.2" font-family="Helvetica,sans-Serif" font-size="11.00">object_uuid</text>
<polygon fill="none" stroke="black" points="277,-131 277,-153 403,-153 403,-131 277,-131"/>
<image xlink:href="../../images/foreignKeys.png" width="11px" height="12px" preserveAspectRatio="xMinYMin meet" x="282" y="-148"/>
<text text-anchor="start" x="297" y="-139.2" font-family="Helvetica,sans-Serif" font-size="11.00">scheiding_type_id</text>
<polygon fill="#ffffff" stroke="transparent" points="277,-109 277,-131 403,-131 403,-109 277,-109"/>
<polygon fill="none" stroke="black" points="277,-109 277,-131 403,-131 403,-109 277,-109"/>
<text text-anchor="start" x="297" y="-117.2" font-family="Helvetica,sans-Serif" font-size="11.00">bouwlaag</text>
<polygon fill="none" stroke="black" points="277,-91 277,-109 403,-109 403,-91 277,-91"/>
<text text-anchor="start" x="280" y="-97.2" font-family="Helvetica,sans-Serif" font-size="11.00">...</text>
<polygon fill="#ffffff" stroke="transparent" points="277,-73 277,-91 339,-91 339,-73 277,-73"/>
<polygon fill="none" stroke="black" points="277,-73 277,-91 339,-91 339,-73 277,-73"/>
<text text-anchor="start" x="280" y="-79.2" font-family="Helvetica,sans-Serif" font-size="11.00">&lt; 2</text>
<polygon fill="#ffffff" stroke="transparent" points="339,-73 339,-91 371,-91 371,-73 339,-73"/>
<polygon fill="none" stroke="black" points="339,-73 339,-91 371,-91 371,-73 339,-73"/>
<text text-anchor="start" x="360" y="-79.2" font-family="Helvetica,sans-Serif" font-size="11.00"> &#160;</text>
<polygon fill="#ffffff" stroke="transparent" points="371,-73 371,-91 403,-91 403,-73 371,-73"/>
<polygon fill="none" stroke="black" points="371,-73 371,-91 403,-91 403,-73 371,-73"/>
<text text-anchor="start" x="392" y="-79.2" font-family="Helvetica,sans-Serif" font-size="11.00"> &#160;</text>
</a>
</g>
</g>
<!-- object -->
<g id="node2" class="node">
<title>object</title>
<g id="a_node2"><a xlink:href="../../tables/object.html" xlink:title="object" target="_top">
<polygon fill="#ffffff" stroke="transparent" points="73,-168 73,-226 163,-226 163,-168 73,-168"/>
<polygon fill="#f5f5f5" stroke="transparent" points="73,-204 73,-226 163,-226 163,-204 73,-204"/>
<polygon fill="none" stroke="black" points="73,-204 73,-226 163,-226 163,-204 73,-204"/>
<text text-anchor="start" x="78" y="-213.2" font-family="Helvetica,sans-Serif" font-weight="bold" font-size="11.00">object</text>
<text text-anchor="start" x="121" y="-212.2" font-family="Helvetica,sans-Serif" font-size="11.00">[table]</text>
<polygon fill="none" stroke="black" points="73,-186 73,-204 163,-204 163,-186 73,-186"/>
<text text-anchor="start" x="76" y="-192.2" font-family="Helvetica,sans-Serif" font-size="11.00">...</text>
<polygon fill="#ffffff" stroke="transparent" points="73,-168 73,-186 107,-186 107,-168 73,-168"/>
<polygon fill="none" stroke="black" points="73,-168 73,-186 107,-186 107,-168 73,-168"/>
<text text-anchor="start" x="76" y="-174.2" font-family="Helvetica,sans-Serif" font-size="11.00">&lt; 1</text>
<polygon fill="#ffffff" stroke="transparent" points="107,-168 107,-186 125,-186 125,-168 107,-168"/>
<polygon fill="none" stroke="black" points="107,-168 107,-186 125,-186 125,-168 107,-168"/>
<text text-anchor="start" x="114" y="-174.2" font-family="Helvetica,sans-Serif" font-size="11.00"> &#160;</text>
<polygon fill="#ffffff" stroke="transparent" points="125,-168 125,-186 163,-186 163,-168 125,-168"/>
<polygon fill="none" stroke="black" points="125,-168 125,-186 163,-186 163,-168 125,-168"/>
<text text-anchor="start" x="133" y="-174.2" font-family="Helvetica,sans-Serif" font-size="11.00">10 &gt;</text>
</a>
</g>
</g>
<!-- scheiding&#45;&gt;object -->
<g id="edge1" class="edge">
<title>scheiding:w&#45;&gt;object:e</title>
<path fill="none" stroke="black" d="M261.5,-164.89C222.14,-169.98 210.4,-195 164,-195"/>
<polygon fill="black" stroke="black" points="268.02,-164.49 276.22,-167.59 272.01,-164.25 276,-164 276,-164 276,-164 272.01,-164.25 275.78,-160.41 268.02,-164.49 268.02,-164.49"/>
<ellipse fill="none" stroke="black" cx="264.82" cy="-164.69" rx="3.2" ry="3.2"/>
</g>
<!-- scheiding_type -->
<g id="node3" class="node">
<title>scheiding_type</title>
<g id="a_node3"><a xlink:href="../../tables/scheiding_type.html" xlink:title="scheiding_type" target="_top">
<polygon fill="#ffffff" stroke="transparent" points="8,-37 8,-147 228,-147 228,-37 8,-37"/>
<polygon fill="#f5f5f5" stroke="transparent" points="10,-123 10,-145 226,-145 226,-123 10,-123"/>
<polygon fill="none" stroke="black" points="10,-123 10,-145 226,-145 226,-123 10,-123"/>
<text text-anchor="start" x="15" y="-132.2" font-family="Helvetica,sans-Serif" font-weight="bold" font-size="11.00">scheiding_type</text>
<text text-anchor="start" x="184" y="-131.2" font-family="Helvetica,sans-Serif" font-size="11.00">[table]</text>
<polygon fill="none" stroke="black" points="10,-101 10,-123 120,-123 120,-101 10,-101"/>
<image xlink:href="../../images/primaryKeys.png" width="11px" height="12px" preserveAspectRatio="xMinYMin meet" x="15" y="-118"/>
<text text-anchor="start" x="30" y="-109.2" font-family="Helvetica,sans-Serif" font-size="11.00">id</text>
<polygon fill="none" stroke="black" points="120,-101 120,-123 226,-123 226,-101 120,-101"/>
<text text-anchor="start" x="123" y="-109.2" font-family="Helvetica,sans-Serif" font-size="11.00">int2[5]</text>
<polygon fill="none" stroke="black" points="10,-79 10,-101 120,-101 120,-79 10,-79"/>
<text text-anchor="start" x="30" y="-87.2" font-family="Helvetica,sans-Serif" font-size="11.00">naam</text>
<polygon fill="none" stroke="black" points="120,-79 120,-101 226,-101 226,-79 120,-79"/>
<text text-anchor="start" x="123" y="-87.2" font-family="Helvetica,sans-Serif" font-size="11.00">text[2147483647]</text>
<polygon fill="none" stroke="black" points="10,-57 10,-79 120,-79 120,-57 10,-57"/>
<text text-anchor="start" x="30" y="-65.2" font-family="Helvetica,sans-Serif" font-size="11.00">omschrijving</text>
<polygon fill="none" stroke="black" points="120,-57 120,-79 226,-79 226,-57 120,-57"/>
<text text-anchor="start" x="123" y="-65.2" font-family="Helvetica,sans-Serif" font-size="11.00">text[2147483647]</text>
<polygon fill="#ffffff" stroke="transparent" points="10,-39 10,-57 71,-57 71,-39 10,-39"/>
<polygon fill="none" stroke="black" points="10,-39 10,-57 71,-57 71,-39 10,-39"/>
<text text-anchor="start" x="13" y="-45.2" font-family="Helvetica,sans-Serif" font-size="11.00">&lt; 0</text>
<polygon fill="#ffffff" stroke="transparent" points="71,-39 71,-57 120,-57 120,-39 71,-39"/>
<polygon fill="none" stroke="black" points="71,-39 71,-57 120,-57 120,-39 71,-39"/>
<text text-anchor="start" x="109" y="-45.2" font-family="Helvetica,sans-Serif" font-size="11.00"> &#160;</text>
<polygon fill="#ffffff" stroke="transparent" points="120,-39 120,-57 226,-57 226,-39 120,-39"/>
<polygon fill="none" stroke="black" points="120,-39 120,-57 226,-57 226,-39 120,-39"/>
<text text-anchor="start" x="203" y="-45.2" font-family="Helvetica,sans-Serif" font-size="11.00">1 &gt;</text>
<polygon fill="none" stroke="black" stroke-width="2" points="9,-38 9,-146 227,-146 227,-38 9,-38"/>
</a>
</g>
</g>
<!-- scheiding&#45;&gt;scheiding_type -->
<g id="edge2" class="edge">
<title>scheiding:w&#45;&gt;scheiding_type:e</title>
<path fill="none" stroke="black" d="M261.88,-137.83C249.92,-129.59 246.55,-112 227,-112"/>
<polygon fill="black" stroke="black" points="268.33,-139.73 274.98,-145.45 272.16,-140.87 276,-142 276,-142 276,-142 272.16,-140.87 277.02,-138.55 268.33,-139.73 268.33,-139.73"/>
<ellipse fill="none" stroke="black" cx="265.26" cy="-138.83" rx="3.2" ry="3.2"/>
</g>
</g>
</svg>
