<?xml version="1.0" encoding="UTF-8" standalone="no"?>
<!DOCTYPE svg PUBLIC "-//W3C//DTD SVG 1.1//EN"
 "http://www.w3.org/Graphics/SVG/1.1/DTD/svg11.dtd">
<!-- Generated by graphviz version 2.50.0 (0)
 -->
<!-- Title: oneDegreeRelationshipsDiagram Pages: 1 -->
<svg width="482pt" height="401pt"
 viewBox="0.00 0.00 482.00 401.00" xmlns="http://www.w3.org/2000/svg" xmlns:xlink="http://www.w3.org/1999/xlink">
<g id="graph0" class="graph" transform="scale(1 1) rotate(0) translate(4 397)">
<title>oneDegreeRelationshipsDiagram</title>
<polygon fill="#ffffff" stroke="transparent" points="-4,4 -4,-397 478,-397 478,4 -4,4"/>
<text text-anchor="middle" x="79.5" y="-7.2" font-family="Helvetica,sans-Serif" font-size="11.00">Generated by SchemaSpy</text>
<!-- scheiding -->
<g id="node1" class="node">
<title>scheiding</title>
<g id="a_node1"><a xlink:href="../../tables/scheiding.html" xlink:title="scheiding" target="_top">
<polygon fill="#ffffff" stroke="transparent" points="200,-103 200,-389 466,-389 466,-103 200,-103"/>
<polygon fill="#f5f5f5" stroke="transparent" points="202,-365 202,-387 464,-387 464,-365 202,-365"/>
<polygon fill="none" stroke="black" points="202,-365 202,-387 464,-387 464,-365 202,-365"/>
<text text-anchor="start" x="207" y="-374.2" font-family="Helvetica,sans-Serif" font-weight="bold" font-size="11.00">scheiding</text>
<text text-anchor="start" x="422" y="-373.2" font-family="Helvetica,sans-Serif" font-size="11.00">[table]</text>
<polygon fill="none" stroke="black" points="202,-343 202,-365 328,-365 328,-343 202,-343"/>
<image xlink:href="../../images/primaryKeys.png" width="11px" height="12px" preserveAspectRatio="xMinYMin meet" x="207" y="-360"/>
<text text-anchor="start" x="222" y="-351.2" font-family="Helvetica,sans-Serif" font-size="11.00">uuid</text>
<polygon fill="none" stroke="black" points="328,-343 328,-365 464,-365 464,-343 328,-343"/>
<text text-anchor="start" x="331" y="-351.2" font-family="Helvetica,sans-Serif" font-size="11.00">uuid[2147483647]</text>
<polygon fill="#ffffff" stroke="transparent" points="202,-321 202,-343 328,-343 328,-321 202,-321"/>
<polygon fill="none" stroke="black" points="202,-321 202,-343 328,-343 328,-321 202,-321"/>
<text text-anchor="start" x="222" y="-329.2" font-family="Helvetica,sans-Serif" font-size="11.00">geom</text>
<polygon fill="none" stroke="black" points="328,-321 328,-343 464,-343 464,-321 328,-321"/>
<text text-anchor="start" x="331" y="-329.2" font-family="Helvetica,sans-Serif" font-size="11.00">geometry[2147483647]</text>
<polygon fill="none" stroke="black" points="202,-299 202,-321 328,-321 328,-299 202,-299"/>
<text text-anchor="start" x="222" y="-307.2" font-family="Helvetica,sans-Serif" font-size="11.00">datumtijd</text>
<polygon fill="none" stroke="black" points="328,-299 328,-321 464,-321 464,-299 328,-299"/>
<text text-anchor="start" x="331" y="-307.2" font-family="Helvetica,sans-Serif" font-size="11.00">timestamptz[35,6]</text>
<polygon fill="none" stroke="black" points="202,-277 202,-299 328,-299 328,-277 202,-277"/>
<text text-anchor="start" x="222" y="-285.2" font-family="Helvetica,sans-Serif" font-size="11.00">gebruiker</text>
<polygon fill="none" stroke="black" points="328,-277 328,-299 464,-299 464,-277 328,-277"/>
<text text-anchor="start" x="331" y="-285.2" font-family="Helvetica,sans-Serif" font-size="11.00">varchar[255]</text>
<polygon fill="none" stroke="black" points="202,-255 202,-277 328,-277 328,-255 202,-255"/>
<text text-anchor="start" x="222" y="-263.2" font-family="Helvetica,sans-Serif" font-size="11.00">label</text>
<polygon fill="none" stroke="black" points="328,-255 328,-277 464,-277 464,-255 328,-255"/>
<text text-anchor="start" x="331" y="-263.2" font-family="Helvetica,sans-Serif" font-size="11.00">text[2147483647]</text>
<polygon fill="none" stroke="black" points="202,-233 202,-255 328,-255 328,-233 202,-233"/>
<text text-anchor="start" x="222" y="-241.2" font-family="Helvetica,sans-Serif" font-size="11.00">rotatie</text>
<polygon fill="none" stroke="black" points="328,-233 328,-255 464,-255 464,-233 328,-233"/>
<text text-anchor="start" x="331" y="-241.2" font-family="Helvetica,sans-Serif" font-size="11.00">int4[10]</text>
<polygon fill="none" stroke="black" points="202,-211 202,-233 328,-233 328,-211 202,-211"/>
<text text-anchor="start" x="222" y="-219.2" font-family="Helvetica,sans-Serif" font-size="11.00">bijzonderheden</text>
<polygon fill="none" stroke="black" points="328,-211 328,-233 464,-233 464,-211 328,-211"/>
<text text-anchor="start" x="331" y="-219.2" font-family="Helvetica,sans-Serif" font-size="11.00">text[2147483647]</text>
<polygon fill="none" stroke="black" points="202,-189 202,-211 328,-211 328,-189 202,-189"/>
<text text-anchor="start" x="222" y="-197.2" font-family="Helvetica,sans-Serif" font-size="11.00">plusinfo</text>
<polygon fill="none" stroke="black" points="328,-189 328,-211 464,-211 464,-189 328,-189"/>
<text text-anchor="start" x="331" y="-197.2" font-family="Helvetica,sans-Serif" font-size="11.00">jsonb[2147483647]</text>
<polygon fill="#ffffff" stroke="transparent" points="202,-167 202,-189 328,-189 328,-167 202,-167"/>
<polygon fill="none" stroke="black" points="202,-167 202,-189 328,-189 328,-167 202,-167"/>
<image xlink:href="../../images/foreignKeys.png" width="11px" height="12px" preserveAspectRatio="xMinYMin meet" x="207" y="-184"/>
<text text-anchor="start" x="222" y="-175.2" font-family="Helvetica,sans-Serif" font-size="11.00">object_uuid</text>
<polygon fill="none" stroke="black" points="328,-167 328,-189 464,-189 464,-167 328,-167"/>
<text text-anchor="start" x="331" y="-175.2" font-family="Helvetica,sans-Serif" font-size="11.00">uuid[2147483647]</text>
<polygon fill="none" stroke="black" points="202,-145 202,-167 328,-167 328,-145 202,-145"/>
<image xlink:href="../../images/foreignKeys.png" width="11px" height="12px" preserveAspectRatio="xMinYMin meet" x="207" y="-162"/>
<text text-anchor="start" x="222" y="-153.2" font-family="Helvetica,sans-Serif" font-size="11.00">scheiding_type_id</text>
<polygon fill="none" stroke="black" points="328,-145 328,-167 464,-167 464,-145 328,-145"/>
<text text-anchor="start" x="331" y="-153.2" font-family="Helvetica,sans-Serif" font-size="11.00">int2[5]</text>
<polygon fill="#ffffff" stroke="transparent" points="202,-123 202,-145 328,-145 328,-123 202,-123"/>
<polygon fill="none" stroke="black" points="202,-123 202,-145 328,-145 328,-123 202,-123"/>
<text text-anchor="start" x="222" y="-131.2" font-family="Helvetica,sans-Serif" font-size="11.00">bouwlaag</text>
<polygon fill="none" stroke="black" points="328,-123 328,-145 464,-145 464,-123 328,-123"/>
<text text-anchor="start" x="331" y="-131.2" font-family="Helvetica,sans-Serif" font-size="11.00">int2[5]</text>
<polygon fill="#ffffff" stroke="transparent" points="202,-105 202,-123 271,-123 271,-105 202,-105"/>
<polygon fill="none" stroke="black" points="202,-105 202,-123 271,-123 271,-105 202,-105"/>
<text text-anchor="start" x="205" y="-111.2" font-family="Helvetica,sans-Serif" font-size="11.00">&lt; 2</text>
<polygon fill="#ffffff" stroke="transparent" points="271,-105 271,-123 328,-123 328,-105 271,-105"/>
<polygon fill="none" stroke="black" points="271,-105 271,-123 328,-123 328,-105 271,-105"/>
<text text-anchor="start" x="317" y="-111.2" font-family="Helvetica,sans-Serif" font-size="11.00"> &#160;</text>
<polygon fill="#ffffff" stroke="transparent" points="328,-105 328,-123 464,-123 464,-105 328,-105"/>
<polygon fill="none" stroke="black" points="328,-105 328,-123 464,-123 464,-105 328,-105"/>
<text text-anchor="start" x="441" y="-111.2" font-family="Helvetica,sans-Serif" font-size="11.00">0 &gt;</text>
<polygon fill="none" stroke="black" stroke-width="2" points="201,-104 201,-388 465,-388 465,-104 201,-104"/>
</a>
</g>
</g>
<!-- object -->
<g id="node2" class="node">
<title>object</title>
<g id="a_node2"><a xlink:href="../../tables/object.html" xlink:title="object" target="_top">
<polygon fill="#ffffff" stroke="transparent" points="15,-138 15,-284 144,-284 144,-138 15,-138"/>
<polygon fill="#f5f5f5" stroke="transparent" points="15.5,-262 15.5,-284 144.5,-284 144.5,-262 15.5,-262"/>
<polygon fill="none" stroke="black" points="15.5,-262 15.5,-284 144.5,-284 144.5,-262 15.5,-262"/>
<text text-anchor="start" x="20.5" y="-271.2" font-family="Helvetica,sans-Serif" font-weight="bold" font-size="11.00">object</text>
<text text-anchor="start" x="102.5" y="-270.2" font-family="Helvetica,sans-Serif" font-size="11.00">[table]</text>
<polygon fill="none" stroke="black" points="15.5,-240 15.5,-262 144.5,-262 144.5,-240 15.5,-240"/>
<image xlink:href="../../images/primaryKeys.png" width="11px" height="12px" preserveAspectRatio="xMinYMin meet" x="20.5" y="-257"/>
<text text-anchor="start" x="35.5" y="-248.2" font-family="Helvetica,sans-Serif" font-size="11.00">uuid</text>
<polygon fill="#ffffff" stroke="transparent" points="15.5,-218 15.5,-240 144.5,-240 144.5,-218 15.5,-218"/>
<polygon fill="none" stroke="black" points="15.5,-218 15.5,-240 144.5,-240 144.5,-218 15.5,-218"/>
<text text-anchor="start" x="35.5" y="-226.2" font-family="Helvetica,sans-Serif" font-size="11.00">geom</text>
<polygon fill="#ffffff" stroke="transparent" points="15.5,-196 15.5,-218 144.5,-218 144.5,-196 15.5,-196"/>
<polygon fill="none" stroke="black" points="15.5,-196 15.5,-218 144.5,-218 144.5,-196 15.5,-196"/>
<text text-anchor="start" x="35.5" y="-204.2" font-family="Helvetica,sans-Serif" font-size="11.00">revisie_frequentie</text>
<polygon fill="#ffffff" stroke="transparent" points="15.5,-174 15.5,-196 144.5,-196 144.5,-174 15.5,-174"/>
<polygon fill="none" stroke="black" points="15.5,-174 15.5,-196 144.5,-196 144.5,-174 15.5,-174"/>
<image xlink:href="../../images/foreignKeys.png" width="11px" height="12px" preserveAspectRatio="xMinYMin meet" x="20.5" y="-191"/>
<text text-anchor="start" x="35.5" y="-182.2" font-family="Helvetica,sans-Serif" font-size="11.00">fase_id</text>
<polygon fill="none" stroke="black" points="15.5,-156 15.5,-174 144.5,-174 144.5,-156 15.5,-156"/>
<text text-anchor="start" x="18.5" y="-162.2" font-family="Helvetica,sans-Serif" font-size="11.00">...</text>
<polygon fill="#ffffff" stroke="transparent" points="15.5,-138 15.5,-156 69.5,-156 69.5,-138 15.5,-138"/>
<polygon fill="none" stroke="black" points="15.5,-138 15.5,-156 69.5,-156 69.5,-138 15.5,-138"/>
<text text-anchor="start" x="18.5" y="-144.2" font-family="Helvetica,sans-Serif" font-size="11.00">&lt; 1</text>
<polygon fill="#ffffff" stroke="transparent" points="69.5,-138 69.5,-156 97.5,-156 97.5,-138 69.5,-138"/>
<polygon fill="none" stroke="black" points="69.5,-138 69.5,-156 97.5,-156 97.5,-138 69.5,-138"/>
<text text-anchor="start" x="86.5" y="-144.2" font-family="Helvetica,sans-Serif" font-size="11.00"> &#160;</text>
<polygon fill="#ffffff" stroke="transparent" points="97.5,-138 97.5,-156 144.5,-156 144.5,-138 97.5,-138"/>
<polygon fill="none" stroke="black" points="97.5,-138 97.5,-156 144.5,-156 144.5,-138 97.5,-138"/>
<text text-anchor="start" x="114.5" y="-144.2" font-family="Helvetica,sans-Serif" font-size="11.00">10 &gt;</text>
</a>
</g>
</g>
<!-- scheiding&#45;&gt;object -->
<g id="edge1" class="edge">
<title>scheiding:w&#45;&gt;object:e</title>
<path fill="none" stroke="black" d="M187.11,-182.13C166.37,-197.58 180.37,-251 145.5,-251"/>
<polygon fill="black" stroke="black" points="193.33,-180.28 202.03,-181.45 197.17,-179.14 201,-178 201,-178 201,-178 197.17,-179.14 199.97,-174.55 193.33,-180.28 193.33,-180.28"/>
<ellipse fill="none" stroke="black" cx="190.27" cy="-181.19" rx="3.2" ry="3.2"/>
</g>
<!-- scheiding_type -->
<g id="node3" class="node">
<title>scheiding_type</title>
<g id="a_node3"><a xlink:href="../../tables/scheiding_type.html" xlink:title="scheiding_type" target="_top">
<polygon fill="#ffffff" stroke="transparent" points="8,-37 8,-117 151,-117 151,-37 8,-37"/>
<polygon fill="#f5f5f5" stroke="transparent" points="8.5,-95 8.5,-117 151.5,-117 151.5,-95 8.5,-95"/>
<polygon fill="none" stroke="black" points="8.5,-95 8.5,-117 151.5,-117 151.5,-95 8.5,-95"/>
<text text-anchor="start" x="13.5" y="-104.2" font-family="Helvetica,sans-Serif" font-weight="bold" font-size="11.00">scheiding_type</text>
<text text-anchor="start" x="109.5" y="-103.2" font-family="Helvetica,sans-Serif" font-size="11.00">[table]</text>
<polygon fill="none" stroke="black" points="8.5,-73 8.5,-95 151.5,-95 151.5,-73 8.5,-73"/>
<image xlink:href="../../images/primaryKeys.png" width="11px" height="12px" preserveAspectRatio="xMinYMin meet" x="13.5" y="-90"/>
<text text-anchor="start" x="45.5" y="-81.2" font-family="Helvetica,sans-Serif" font-size="11.00">id</text>
<polygon fill="none" stroke="black" points="8.5,-55 8.5,-73 151.5,-73 151.5,-55 8.5,-55"/>
<text text-anchor="start" x="11.5" y="-61.2" font-family="Helvetica,sans-Serif" font-size="11.00">...</text>
<polygon fill="#ffffff" stroke="transparent" points="8.5,-37 8.5,-55 66.5,-55 66.5,-37 8.5,-37"/>
<polygon fill="none" stroke="black" points="8.5,-37 8.5,-55 66.5,-55 66.5,-37 8.5,-37"/>
<text text-anchor="start" x="11.5" y="-43.2" font-family="Helvetica,sans-Serif" font-size="11.00"> &#160;</text>
<polygon fill="#ffffff" stroke="transparent" points="66.5,-37 66.5,-55 102.5,-55 102.5,-37 66.5,-37"/>
<polygon fill="none" stroke="black" points="66.5,-37 66.5,-55 102.5,-55 102.5,-37 66.5,-37"/>
<text text-anchor="start" x="91.5" y="-43.2" font-family="Helvetica,sans-Serif" font-size="11.00"> &#160;</text>
<polygon fill="#ffffff" stroke="transparent" points="102.5,-37 102.5,-55 151.5,-55 151.5,-37 102.5,-37"/>
<polygon fill="none" stroke="black" points="102.5,-37 102.5,-55 151.5,-55 151.5,-37 102.5,-37"/>
<text text-anchor="start" x="128.5" y="-43.2" font-family="Helvetica,sans-Serif" font-size="11.00">1 &gt;</text>
</a>
</g>
</g>
<!-- scheiding&#45;&gt;scheiding_type -->
<g id="edge2" class="edge">
<title>scheiding:w&#45;&gt;scheiding_type:e</title>
<path fill="none" stroke="black" d="M187.33,-151.28C169.73,-135.26 185.05,-84 152.5,-84"/>
<polygon fill="black" stroke="black" points="193.44,-153.39 199.82,-159.4 197.22,-154.69 201,-156 201,-156 201,-156 197.22,-154.69 202.18,-152.6 193.44,-153.39 193.44,-153.39"/>
<ellipse fill="none" stroke="black" cx="190.41" cy="-152.34" rx="3.2" ry="3.2"/>
</g>
</g>
</svg>
