<?xml version="1.0" encoding="UTF-8" standalone="no"?>
<!DOCTYPE svg PUBLIC "-//W3C//DTD SVG 1.1//EN"
 "http://www.w3.org/Graphics/SVG/1.1/DTD/svg11.dtd">
<!-- Generated by graphviz version 2.40.1 (20161225.0304)
 -->
<!-- Title: twoDegreesRelationshipsDiagram Pages: 1 -->
<svg width="400pt" height="258pt"
 viewBox="0.00 0.00 400.00 257.70" xmlns="http://www.w3.org/2000/svg" xmlns:xlink="http://www.w3.org/1999/xlink">
<g id="graph0" class="graph" transform="scale(1 1) rotate(0) translate(4 253.7)">
<title>twoDegreesRelationshipsDiagram</title>
<polygon fill="#ffffff" stroke="transparent" points="-4,4 -4,-253.7 396,-253.7 396,4 -4,4"/>
<text text-anchor="middle" x="72.4936" y="-7.3" font-family="Helvetica,sans-Serif" font-size="11.00" fill="#000000">Generated by SchemaSpy</text>
<!-- scheiding -->
<g id="node1" class="node">
<title>scheiding</title>
<g id="a_node1"><a xlink:href="../../tables/scheiding.html" xlink:title="scheiding" target="_top">
<polygon fill="#ffffff" stroke="transparent" points="259,-74.7 259,-245.7 384,-245.7 384,-74.7 259,-74.7"/>
<polygon fill="#f5f5f5" stroke="transparent" points="259.5,-222.2 259.5,-245.2 384.5,-245.2 384.5,-222.2 259.5,-222.2"/>
<polygon fill="none" stroke="#000000" points="259.5,-222.2 259.5,-245.2 384.5,-245.2 384.5,-222.2 259.5,-222.2"/>
<text text-anchor="start" x="264.5" y="-230.8" font-family="Helvetica,sans-Serif" font-weight="bold" font-size="11.00" fill="#000000">scheiding</text>
<text text-anchor="start" x="349.5437" y="-230.3" font-family="Helvetica,sans-Serif" font-size="11.00" fill="#000000">[table]</text>
<polygon fill="none" stroke="#000000" points="259.5,-200.2 259.5,-222.2 384.5,-222.2 384.5,-200.2 259.5,-200.2"/>
<image xlink:href="../../images/primaryKeys.png" width="11px" height="12px" preserveAspectRatio="xMinYMin meet" x="264.5" y="-217.2"/>
<text text-anchor="start" x="279.5" y="-207.3" font-family="Helvetica,sans-Serif" font-size="11.00" fill="#000000">uuid</text>
<polygon fill="#ffffff" stroke="transparent" points="259.5,-178.2 259.5,-200.2 384.5,-200.2 384.5,-178.2 259.5,-178.2"/>
<polygon fill="none" stroke="#000000" points="259.5,-178.2 259.5,-200.2 384.5,-200.2 384.5,-178.2 259.5,-178.2"/>
<text text-anchor="start" x="279.5" y="-185.3" font-family="Helvetica,sans-Serif" font-size="11.00" fill="#000000">geom</text>
<polygon fill="#ffffff" stroke="transparent" points="259.5,-156.2 259.5,-178.2 384.5,-178.2 384.5,-156.2 259.5,-156.2"/>
<polygon fill="none" stroke="#000000" points="259.5,-156.2 259.5,-178.2 384.5,-178.2 384.5,-156.2 259.5,-156.2"/>
<image xlink:href="../../images/foreignKeys.png" width="11px" height="12px" preserveAspectRatio="xMinYMin meet" x="264.5" y="-173.2"/>
<text text-anchor="start" x="279.5" y="-163.3" font-family="Helvetica,sans-Serif" font-size="11.00" fill="#000000">object_uuid</text>
<polygon fill="none" stroke="#000000" points="259.5,-134.2 259.5,-156.2 384.5,-156.2 384.5,-134.2 259.5,-134.2"/>
<image xlink:href="../../images/foreignKeys.png" width="11px" height="12px" preserveAspectRatio="xMinYMin meet" x="264.5" y="-151.2"/>
<text text-anchor="start" x="279.5" y="-141.3" font-family="Helvetica,sans-Serif" font-size="11.00" fill="#000000">scheiding_type_id</text>
<polygon fill="#ffffff" stroke="transparent" points="259.5,-112.2 259.5,-134.2 384.5,-134.2 384.5,-112.2 259.5,-112.2"/>
<polygon fill="none" stroke="#000000" points="259.5,-112.2 259.5,-134.2 384.5,-134.2 384.5,-112.2 259.5,-112.2"/>
<text text-anchor="start" x="279.5" y="-119.3" font-family="Helvetica,sans-Serif" font-size="11.00" fill="#000000">bouwlaag</text>
<polygon fill="none" stroke="#000000" points="259.5,-93.2 259.5,-112.2 384.5,-112.2 384.5,-93.2 259.5,-93.2"/>
<text text-anchor="start" x="262.5" y="-99.3" font-family="Helvetica,sans-Serif" font-size="11.00" fill="#000000">...</text>
<polygon fill="#ffffff" stroke="transparent" points="259.5,-74.2 259.5,-93.2 320.5,-93.2 320.5,-74.2 259.5,-74.2"/>
<polygon fill="none" stroke="#000000" points="259.5,-74.2 259.5,-93.2 320.5,-93.2 320.5,-74.2 259.5,-74.2"/>
<text text-anchor="start" x="262.5" y="-80.3" font-family="Helvetica,sans-Serif" font-size="11.00" fill="#000000">&lt; 2</text>
<polygon fill="#ffffff" stroke="transparent" points="320.5,-74.2 320.5,-93.2 352.5,-93.2 352.5,-74.2 320.5,-74.2"/>
<polygon fill="none" stroke="#000000" points="320.5,-74.2 320.5,-93.2 352.5,-93.2 352.5,-74.2 320.5,-74.2"/>
<text text-anchor="start" x="343.3862" y="-80.3" font-family="Helvetica,sans-Serif" font-size="11.00" fill="#000000"> &#160;</text>
<polygon fill="#ffffff" stroke="transparent" points="352.5,-74.2 352.5,-93.2 384.5,-93.2 384.5,-74.2 352.5,-74.2"/>
<polygon fill="none" stroke="#000000" points="352.5,-74.2 352.5,-93.2 384.5,-93.2 384.5,-74.2 352.5,-74.2"/>
<text text-anchor="start" x="375.3862" y="-80.3" font-family="Helvetica,sans-Serif" font-size="11.00" fill="#000000"> &#160;</text>
</a>
</g>
</g>
<!-- object -->
<g id="node2" class="node">
<title>object</title>
<g id="a_node2"><a xlink:href="../../tables/object.html" xlink:title="object" target="_top">
<polygon fill="#ffffff" stroke="transparent" points="72,-171.7 72,-232.7 146,-232.7 146,-171.7 72,-171.7"/>
<polygon fill="#f5f5f5" stroke="transparent" points="72,-209.2 72,-232.2 146,-232.2 146,-209.2 72,-209.2"/>
<polygon fill="none" stroke="#000000" points="72,-209.2 72,-232.2 146,-232.2 146,-209.2 72,-209.2"/>
<text text-anchor="start" x="77" y="-217.8" font-family="Helvetica,sans-Serif" font-weight="bold" font-size="11.00" fill="#000000">object</text>
<text text-anchor="start" x="111.5219" y="-217.3" font-family="Helvetica,sans-Serif" font-size="11.00" fill="#000000">[table]</text>
<polygon fill="none" stroke="#000000" points="72,-190.2 72,-209.2 146,-209.2 146,-190.2 72,-190.2"/>
<text text-anchor="start" x="75" y="-196.3" font-family="Helvetica,sans-Serif" font-size="11.00" fill="#000000">...</text>
<polygon fill="#ffffff" stroke="transparent" points="72,-171.2 72,-190.2 100,-190.2 100,-171.2 72,-171.2"/>
<polygon fill="none" stroke="#000000" points="72,-171.2 72,-190.2 100,-190.2 100,-171.2 72,-171.2"/>
<text text-anchor="start" x="75" y="-177.3" font-family="Helvetica,sans-Serif" font-size="11.00" fill="#000000">&lt; 1</text>
<polygon fill="#ffffff" stroke="transparent" points="100,-171.2 100,-190.2 115,-190.2 115,-171.2 100,-171.2"/>
<polygon fill="none" stroke="#000000" points="100,-171.2 100,-190.2 115,-190.2 115,-171.2 100,-171.2"/>
<text text-anchor="start" x="105.8862" y="-177.3" font-family="Helvetica,sans-Serif" font-size="11.00" fill="#000000"> &#160;</text>
<polygon fill="#ffffff" stroke="transparent" points="115,-171.2 115,-190.2 146,-190.2 146,-171.2 115,-171.2"/>
<polygon fill="none" stroke="#000000" points="115,-171.2 115,-190.2 146,-190.2 146,-171.2 115,-171.2"/>
<text text-anchor="start" x="121.2904" y="-177.3" font-family="Helvetica,sans-Serif" font-size="11.00" fill="#000000">10 &gt;</text>
</a>
</g>
</g>
<!-- scheiding&#45;&gt;object -->
<g id="edge1" class="edge">
<title>scheiding:w&#45;&gt;object:e</title>
<path fill="none" stroke="#000000" d="M245.0534,-168.0893C204.9263,-173.2575 193.1904,-199.2 146,-199.2"/>
<polygon fill="#000000" stroke="#000000" points="251.5151,-167.6916 259.7212,-170.7932 255.5076,-167.4458 259.5,-167.2 259.5,-167.2 259.5,-167.2 255.5076,-167.4458 259.2788,-163.6068 251.5151,-167.6916 251.5151,-167.6916"/>
<ellipse fill="none" stroke="#000000" cx="248.3212" cy="-167.8882" rx="3.2" ry="3.2"/>
</g>
<!-- scheiding_type -->
<g id="node3" class="node">
<title>scheiding_type</title>
<g id="a_node3"><a xlink:href="../../tables/scheiding_type.html" xlink:title="scheiding_type" target="_top">
<polygon fill="#ffffff" stroke="transparent" points="8,-38.2 8,-150.2 210,-150.2 210,-38.2 8,-38.2"/>
<polygon fill="#f5f5f5" stroke="transparent" points="10,-125.2 10,-148.2 208,-148.2 208,-125.2 10,-125.2"/>
<polygon fill="none" stroke="#000000" points="10,-125.2 10,-148.2 208,-148.2 208,-125.2 10,-125.2"/>
<text text-anchor="start" x="15" y="-133.8" font-family="Helvetica,sans-Serif" font-weight="bold" font-size="11.00" fill="#000000">scheiding_type</text>
<text text-anchor="start" x="173.0437" y="-133.3" font-family="Helvetica,sans-Serif" font-size="11.00" fill="#000000">[table]</text>
<polygon fill="none" stroke="#000000" points="10,-103.2 10,-125.2 118,-125.2 118,-103.2 10,-103.2"/>
<image xlink:href="../../images/primaryKeys.png" width="11px" height="12px" preserveAspectRatio="xMinYMin meet" x="15" y="-120.2"/>
<text text-anchor="start" x="30" y="-110.3" font-family="Helvetica,sans-Serif" font-size="11.00" fill="#000000">id</text>
<polygon fill="none" stroke="#000000" points="118,-103.2 118,-125.2 208,-125.2 208,-103.2 118,-103.2"/>
<text text-anchor="start" x="121" y="-110.9" font-family="Helvetica,sans-Serif" font-size="11.00" fill="#000000">int2[5]</text>
<polygon fill="none" stroke="#000000" points="10,-81.2 10,-103.2 118,-103.2 118,-81.2 10,-81.2"/>
<text text-anchor="start" x="30" y="-88.3" font-family="Helvetica,sans-Serif" font-size="11.00" fill="#000000">naam</text>
<polygon fill="none" stroke="#000000" points="118,-81.2 118,-103.2 208,-103.2 208,-81.2 118,-81.2"/>
<text text-anchor="start" x="120.5042" y="-88.9" font-family="Helvetica,sans-Serif" font-size="11.00" fill="#000000">text[2147483647]</text>
<polygon fill="none" stroke="#000000" points="10,-59.2 10,-81.2 118,-81.2 118,-59.2 10,-59.2"/>
<text text-anchor="start" x="30" y="-66.3" font-family="Helvetica,sans-Serif" font-size="11.00" fill="#000000">omschrijving</text>
<polygon fill="none" stroke="#000000" points="118,-59.2 118,-81.2 208,-81.2 208,-59.2 118,-59.2"/>
<text text-anchor="start" x="120.5042" y="-66.9" font-family="Helvetica,sans-Serif" font-size="11.00" fill="#000000">text[2147483647]</text>
<polygon fill="#ffffff" stroke="transparent" points="10,-40.2 10,-59.2 68,-59.2 68,-40.2 10,-40.2"/>
<polygon fill="none" stroke="#000000" points="10,-40.2 10,-59.2 68,-59.2 68,-40.2 10,-40.2"/>
<text text-anchor="start" x="13" y="-46.3" font-family="Helvetica,sans-Serif" font-size="11.00" fill="#000000">&lt; 0</text>
<polygon fill="#ffffff" stroke="transparent" points="68,-40.2 68,-59.2 118,-59.2 118,-40.2 68,-40.2"/>
<polygon fill="none" stroke="#000000" points="68,-40.2 68,-59.2 118,-59.2 118,-40.2 68,-40.2"/>
<text text-anchor="start" x="108.8862" y="-46.3" font-family="Helvetica,sans-Serif" font-size="11.00" fill="#000000"> &#160;</text>
<polygon fill="#ffffff" stroke="transparent" points="118,-40.2 118,-59.2 208,-59.2 208,-40.2 118,-40.2"/>
<polygon fill="none" stroke="#000000" points="118,-40.2 118,-59.2 208,-59.2 208,-40.2 118,-40.2"/>
<text text-anchor="start" x="189.4053" y="-46.3" font-family="Helvetica,sans-Serif" font-size="11.00" fill="#000000">1 &gt;</text>
<polygon fill="none" stroke="#000000" stroke-width="2" points="9,-39.2 9,-149.2 209,-149.2 209,-39.2 9,-39.2"/>
</a>
</g>
</g>
<!-- scheiding&#45;&gt;scheiding_type -->
<g id="edge2" class="edge">
<title>scheiding:w&#45;&gt;scheiding_type:e</title>
<path fill="none" stroke="#000000" d="M245.4805,-141.3988C232.2585,-133.1209 228.8716,-114.2 208,-114.2"/>
<polygon fill="#000000" stroke="#000000" points="251.7788,-143.1064 258.5579,-148.6745 255.6394,-144.1532 259.5,-145.2 259.5,-145.2 259.5,-145.2 255.6394,-144.1532 260.4421,-141.7255 251.7788,-143.1064 251.7788,-143.1064"/>
<ellipse fill="none" stroke="#000000" cx="248.6903" cy="-142.269" rx="3.2" ry="3.2"/>
</g>
</g>
</svg>
