<?xml version="1.0" encoding="UTF-8" standalone="no"?>
<!DOCTYPE svg PUBLIC "-//W3C//DTD SVG 1.1//EN"
 "http://www.w3.org/Graphics/SVG/1.1/DTD/svg11.dtd">
<!-- Generated by graphviz version 2.40.1 (20161225.0304)
 -->
<!-- Title: twoDegreesRelationshipsDiagram Pages: 1 -->
<svg width="577pt" height="1077pt"
 viewBox="0.00 0.00 577.00 1076.70" xmlns="http://www.w3.org/2000/svg" xmlns:xlink="http://www.w3.org/1999/xlink">
<g id="graph0" class="graph" transform="scale(1 1) rotate(0) translate(4 1072.7)">
<title>twoDegreesRelationshipsDiagram</title>
<polygon fill="#ffffff" stroke="transparent" points="-4,4 -4,-1072.7 573,-1072.7 573,4 -4,4"/>
<text text-anchor="middle" x="72.4936" y="-7.3" font-family="Helvetica,sans-Serif" font-size="11.00" fill="#000000">Generated by SchemaSpy</text>
<!-- bereikbaarheid -->
<g id="node1" class="node">
<title>bereikbaarheid</title>
<g id="a_node1"><a xlink:href="../../tables/bereikbaarheid.html" xlink:title="bereikbaarheid" target="_top">
<polygon fill="#ffffff" stroke="transparent" points="375,-1003.7 375,-1064.7 499,-1064.7 499,-1003.7 375,-1003.7"/>
<polygon fill="#f5f5f5" stroke="transparent" points="375,-1041.2 375,-1064.2 499,-1064.2 499,-1041.2 375,-1041.2"/>
<polygon fill="none" stroke="#000000" points="375,-1041.2 375,-1064.2 499,-1064.2 499,-1041.2 375,-1041.2"/>
<text text-anchor="start" x="380" y="-1049.8" font-family="Helvetica,sans-Serif" font-weight="bold" font-size="11.00" fill="#000000">bereikbaarheid</text>
<text text-anchor="start" x="464.5219" y="-1049.3" font-family="Helvetica,sans-Serif" font-size="11.00" fill="#000000">[table]</text>
<polygon fill="none" stroke="#000000" points="375,-1022.2 375,-1041.2 499,-1041.2 499,-1022.2 375,-1022.2"/>
<text text-anchor="start" x="378" y="-1028.3" font-family="Helvetica,sans-Serif" font-size="11.00" fill="#000000">...</text>
<polygon fill="#ffffff" stroke="transparent" points="375,-1003.2 375,-1022.2 435,-1022.2 435,-1003.2 375,-1003.2"/>
<polygon fill="none" stroke="#000000" points="375,-1003.2 375,-1022.2 435,-1022.2 435,-1003.2 375,-1003.2"/>
<text text-anchor="start" x="378" y="-1009.3" font-family="Helvetica,sans-Serif" font-size="11.00" fill="#000000">&lt; 2</text>
<polygon fill="#ffffff" stroke="transparent" points="435,-1003.2 435,-1022.2 467,-1022.2 467,-1003.2 435,-1003.2"/>
<polygon fill="none" stroke="#000000" points="435,-1003.2 435,-1022.2 467,-1022.2 467,-1003.2 435,-1003.2"/>
<text text-anchor="start" x="457.8862" y="-1009.3" font-family="Helvetica,sans-Serif" font-size="11.00" fill="#000000"> &#160;</text>
<polygon fill="#ffffff" stroke="transparent" points="467,-1003.2 467,-1022.2 499,-1022.2 499,-1003.2 467,-1003.2"/>
<polygon fill="none" stroke="#000000" points="467,-1003.2 467,-1022.2 499,-1022.2 499,-1003.2 467,-1003.2"/>
<text text-anchor="start" x="489.8862" y="-1009.3" font-family="Helvetica,sans-Serif" font-size="11.00" fill="#000000"> &#160;</text>
</a>
</g>
</g>
<!-- object -->
<g id="node2" class="node">
<title>object</title>
<g id="a_node2"><a xlink:href="../../tables/object.html" xlink:title="object" target="_top">
<polygon fill="#ffffff" stroke="transparent" points="139.5,-547.7 139.5,-696.7 262.5,-696.7 262.5,-547.7 139.5,-547.7"/>
<polygon fill="#f5f5f5" stroke="transparent" points="140,-673.2 140,-696.2 263,-696.2 263,-673.2 140,-673.2"/>
<polygon fill="none" stroke="#000000" points="140,-673.2 140,-696.2 263,-696.2 263,-673.2 140,-673.2"/>
<text text-anchor="start" x="145" y="-681.8" font-family="Helvetica,sans-Serif" font-weight="bold" font-size="11.00" fill="#000000">object</text>
<text text-anchor="start" x="228.0437" y="-681.3" font-family="Helvetica,sans-Serif" font-size="11.00" fill="#000000">[table]</text>
<polygon fill="none" stroke="#000000" points="140,-651.2 140,-673.2 263,-673.2 263,-651.2 140,-651.2"/>
<image xlink:href="../../images/primaryKeys.png" width="11px" height="12px" preserveAspectRatio="xMinYMin meet" x="145" y="-668.2"/>
<text text-anchor="start" x="160" y="-658.3" font-family="Helvetica,sans-Serif" font-size="11.00" fill="#000000">uuid</text>
<polygon fill="#ffffff" stroke="transparent" points="140,-629.2 140,-651.2 263,-651.2 263,-629.2 140,-629.2"/>
<polygon fill="none" stroke="#000000" points="140,-629.2 140,-651.2 263,-651.2 263,-629.2 140,-629.2"/>
<text text-anchor="start" x="160" y="-636.3" font-family="Helvetica,sans-Serif" font-size="11.00" fill="#000000">geom</text>
<polygon fill="#ffffff" stroke="transparent" points="140,-607.2 140,-629.2 263,-629.2 263,-607.2 140,-607.2"/>
<polygon fill="none" stroke="#000000" points="140,-607.2 140,-629.2 263,-629.2 263,-607.2 140,-607.2"/>
<text text-anchor="start" x="160" y="-614.3" font-family="Helvetica,sans-Serif" font-size="11.00" fill="#000000">revisie_frequentie</text>
<polygon fill="#ffffff" stroke="transparent" points="140,-585.2 140,-607.2 263,-607.2 263,-585.2 140,-585.2"/>
<polygon fill="none" stroke="#000000" points="140,-585.2 140,-607.2 263,-607.2 263,-585.2 140,-585.2"/>
<image xlink:href="../../images/foreignKeys.png" width="11px" height="12px" preserveAspectRatio="xMinYMin meet" x="145" y="-602.2"/>
<text text-anchor="start" x="160" y="-592.3" font-family="Helvetica,sans-Serif" font-size="11.00" fill="#000000">fase_id</text>
<polygon fill="none" stroke="#000000" points="140,-566.2 140,-585.2 263,-585.2 263,-566.2 140,-566.2"/>
<text text-anchor="start" x="143" y="-572.3" font-family="Helvetica,sans-Serif" font-size="11.00" fill="#000000">...</text>
<polygon fill="#ffffff" stroke="transparent" points="140,-547.2 140,-566.2 192,-566.2 192,-547.2 140,-547.2"/>
<polygon fill="none" stroke="#000000" points="140,-547.2 140,-566.2 192,-566.2 192,-547.2 140,-547.2"/>
<text text-anchor="start" x="143" y="-553.3" font-family="Helvetica,sans-Serif" font-size="11.00" fill="#000000">&lt; 1</text>
<polygon fill="#ffffff" stroke="transparent" points="192,-547.2 192,-566.2 220,-566.2 220,-547.2 192,-547.2"/>
<polygon fill="none" stroke="#000000" points="192,-547.2 192,-566.2 220,-566.2 220,-547.2 192,-547.2"/>
<text text-anchor="start" x="210.8862" y="-553.3" font-family="Helvetica,sans-Serif" font-size="11.00" fill="#000000"> &#160;</text>
<polygon fill="#ffffff" stroke="transparent" points="220,-547.2 220,-566.2 263,-566.2 263,-547.2 220,-547.2"/>
<polygon fill="none" stroke="#000000" points="220,-547.2 220,-566.2 263,-566.2 263,-547.2 220,-547.2"/>
<text text-anchor="start" x="238.2904" y="-553.3" font-family="Helvetica,sans-Serif" font-size="11.00" fill="#000000">10 &gt;</text>
</a>
</g>
</g>
<!-- bereikbaarheid&#45;&gt;object -->
<g id="edge1" class="edge">
<title>bereikbaarheid:w&#45;&gt;object:e</title>
<path fill="none" stroke="#000000" d="M360.5243,-1030.5815C335.1427,-1028.143 322.017,-1018.0826 305,-993.2 263.1446,-931.9983 337.1453,-662.2 263,-662.2"/>
<polygon fill="#000000" stroke="#000000" points="367.0073,-1030.8584 374.8463,-1034.7967 371.0036,-1031.0292 375,-1031.2 375,-1031.2 375,-1031.2 371.0036,-1031.0292 375.1537,-1027.6033 367.0073,-1030.8584 367.0073,-1030.8584"/>
<ellipse fill="none" stroke="#000000" cx="363.8102" cy="-1030.7218" rx="3.2" ry="3.2"/>
</g>
<!-- roi.fase -->
<g id="node5" class="node">
<title>roi.fase</title>
<g id="a_node5"><a xlink:href="../../../roi/tables/fase.html" xlink:title="roi.fase" target="_top">
<polygon fill="#ffffff" stroke="transparent" points="8,-568.7 8,-629.7 89,-629.7 89,-568.7 8,-568.7"/>
<polygon fill="#f5f5f5" stroke="transparent" points="8.5,-606.2 8.5,-629.2 89.5,-629.2 89.5,-606.2 8.5,-606.2"/>
<polygon fill="none" stroke="#000000" points="8.5,-606.2 8.5,-629.2 89.5,-629.2 89.5,-606.2 8.5,-606.2"/>
<text text-anchor="start" x="13.5" y="-614.8" font-family="Helvetica,sans-Serif" font-weight="bold" font-size="11.00" fill="#000000">roi.fase</text>
<text text-anchor="start" x="55.0219" y="-614.3" font-family="Helvetica,sans-Serif" font-size="11.00" fill="#000000">[table]</text>
<polygon fill="none" stroke="#000000" points="8.5,-587.2 8.5,-606.2 89.5,-606.2 89.5,-587.2 8.5,-587.2"/>
<text text-anchor="start" x="11.5" y="-593.3" font-family="Helvetica,sans-Serif" font-size="11.00" fill="#000000">...</text>
<polygon fill="#ffffff" stroke="transparent" points="8.5,-568.2 8.5,-587.2 38.5,-587.2 38.5,-568.2 8.5,-568.2"/>
<polygon fill="none" stroke="#000000" points="8.5,-568.2 8.5,-587.2 38.5,-587.2 38.5,-568.2 8.5,-568.2"/>
<text text-anchor="start" x="11.5" y="-574.3" font-family="Helvetica,sans-Serif" font-size="11.00" fill="#000000"> &#160;</text>
<polygon fill="#ffffff" stroke="transparent" points="38.5,-568.2 38.5,-587.2 59.5,-587.2 59.5,-568.2 38.5,-568.2"/>
<polygon fill="none" stroke="#000000" points="38.5,-568.2 38.5,-587.2 59.5,-587.2 59.5,-568.2 38.5,-568.2"/>
<text text-anchor="start" x="50.3862" y="-574.3" font-family="Helvetica,sans-Serif" font-size="11.00" fill="#000000"> &#160;</text>
<polygon fill="#ffffff" stroke="transparent" points="59.5,-568.2 59.5,-587.2 89.5,-587.2 89.5,-568.2 59.5,-568.2"/>
<polygon fill="none" stroke="#000000" points="59.5,-568.2 59.5,-587.2 89.5,-587.2 89.5,-568.2 59.5,-568.2"/>
<text text-anchor="start" x="70.9053" y="-574.3" font-family="Helvetica,sans-Serif" font-size="11.00" fill="#000000">1 &gt;</text>
</a>
</g>
</g>
<!-- object&#45;&gt;roi.fase -->
<g id="edge4" class="edge">
<title>object:w&#45;&gt;roi.fase:e</title>
<path fill="none" stroke="#000000" d="M125.4203,-596.2C113.5435,-596.2 106.158,-596.2 89.5,-596.2"/>
<polygon fill="#000000" stroke="#000000" points="132,-596.2001 140,-599.8 136,-596.2 140,-596.2 140,-596.2 140,-596.2 136,-596.2 140,-592.6 132,-596.2001 132,-596.2001"/>
<ellipse fill="none" stroke="#000000" cx="128.8" cy="-596.2001" rx="3.2" ry="3.2"/>
</g>
<!-- gevaarlijkestof -->
<g id="node3" class="node">
<title>gevaarlijkestof</title>
<g id="a_node3"><a xlink:href="../../tables/gevaarlijkestof.html" xlink:title="gevaarlijkestof" target="_top">
<polygon fill="#ffffff" stroke="transparent" points="375.5,-921.7 375.5,-982.7 498.5,-982.7 498.5,-921.7 375.5,-921.7"/>
<polygon fill="#f5f5f5" stroke="transparent" points="376,-959.2 376,-982.2 499,-982.2 499,-959.2 376,-959.2"/>
<polygon fill="none" stroke="#000000" points="376,-959.2 376,-982.2 499,-982.2 499,-959.2 376,-959.2"/>
<text text-anchor="start" x="381" y="-967.8" font-family="Helvetica,sans-Serif" font-weight="bold" font-size="11.00" fill="#000000">gevaarlijkestof</text>
<text text-anchor="start" x="464.5219" y="-967.3" font-family="Helvetica,sans-Serif" font-size="11.00" fill="#000000">[table]</text>
<polygon fill="none" stroke="#000000" points="376,-940.2 376,-959.2 499,-959.2 499,-940.2 376,-940.2"/>
<text text-anchor="start" x="379" y="-946.3" font-family="Helvetica,sans-Serif" font-size="11.00" fill="#000000">...</text>
<polygon fill="#ffffff" stroke="transparent" points="376,-921.2 376,-940.2 436,-940.2 436,-921.2 376,-921.2"/>
<polygon fill="none" stroke="#000000" points="376,-921.2 376,-940.2 436,-940.2 436,-921.2 376,-921.2"/>
<text text-anchor="start" x="379" y="-927.3" font-family="Helvetica,sans-Serif" font-size="11.00" fill="#000000">&lt; 1</text>
<polygon fill="#ffffff" stroke="transparent" points="436,-921.2 436,-940.2 467,-940.2 467,-921.2 436,-921.2"/>
<polygon fill="none" stroke="#000000" points="436,-921.2 436,-940.2 467,-940.2 467,-921.2 436,-921.2"/>
<text text-anchor="start" x="457.8862" y="-927.3" font-family="Helvetica,sans-Serif" font-size="11.00" fill="#000000"> &#160;</text>
<polygon fill="#ffffff" stroke="transparent" points="467,-921.2 467,-940.2 499,-940.2 499,-921.2 467,-921.2"/>
<polygon fill="none" stroke="#000000" points="467,-921.2 467,-940.2 499,-940.2 499,-921.2 467,-921.2"/>
<text text-anchor="start" x="489.8862" y="-927.3" font-family="Helvetica,sans-Serif" font-size="11.00" fill="#000000"> &#160;</text>
</a>
</g>
</g>
<!-- gevaarlijkestof&#45;&gt;object -->
<g id="edge2" class="edge">
<title>gevaarlijkestof:w&#45;&gt;object:e</title>
<path fill="none" stroke="#000000" d="M361.3895,-948.5726C335.8134,-946.1031 322.7892,-935.948 305,-911.2 272.2474,-865.6351 319.115,-662.2 263,-662.2"/>
<polygon fill="#000000" stroke="#000000" points="368.0074,-948.8567 375.8455,-952.7967 372.0037,-949.0284 376,-949.2 376,-949.2 376,-949.2 372.0037,-949.0284 376.1545,-945.6033 368.0074,-948.8567 368.0074,-948.8567"/>
<ellipse fill="none" stroke="#000000" cx="364.8103" cy="-948.7194" rx="3.2" ry="3.2"/>
</g>
<!-- label -->
<g id="node4" class="node">
<title>label</title>
<g id="a_node4"><a xlink:href="../../tables/label.html" xlink:title="label" target="_top">
<polygon fill="#ffffff" stroke="transparent" points="404,-839.7 404,-900.7 470,-900.7 470,-839.7 404,-839.7"/>
<polygon fill="#f5f5f5" stroke="transparent" points="404,-877.2 404,-900.2 470,-900.2 470,-877.2 404,-877.2"/>
<polygon fill="none" stroke="#000000" points="404,-877.2 404,-900.2 470,-900.2 470,-877.2 404,-877.2"/>
<text text-anchor="start" x="408.8868" y="-885.8" font-family="Helvetica,sans-Serif" font-weight="bold" font-size="11.00" fill="#000000">label</text>
<text text-anchor="start" x="435.5219" y="-885.3" font-family="Helvetica,sans-Serif" font-size="11.00" fill="#000000">[table]</text>
<polygon fill="none" stroke="#000000" points="404,-858.2 404,-877.2 470,-877.2 470,-858.2 404,-858.2"/>
<text text-anchor="start" x="407" y="-864.3" font-family="Helvetica,sans-Serif" font-size="11.00" fill="#000000">...</text>
<polygon fill="#ffffff" stroke="transparent" points="404,-839.2 404,-858.2 435,-858.2 435,-839.2 404,-839.2"/>
<polygon fill="none" stroke="#000000" points="404,-839.2 404,-858.2 435,-858.2 435,-839.2 404,-839.2"/>
<text text-anchor="start" x="407" y="-845.3" font-family="Helvetica,sans-Serif" font-size="11.00" fill="#000000">&lt; 2</text>
<polygon fill="#ffffff" stroke="transparent" points="435,-839.2 435,-858.2 452,-858.2 452,-839.2 435,-839.2"/>
<polygon fill="none" stroke="#000000" points="435,-839.2 435,-858.2 452,-858.2 452,-839.2 435,-839.2"/>
<text text-anchor="start" x="442.8862" y="-845.3" font-family="Helvetica,sans-Serif" font-size="11.00" fill="#000000"> &#160;</text>
<polygon fill="#ffffff" stroke="transparent" points="452,-839.2 452,-858.2 470,-858.2 470,-839.2 452,-839.2"/>
<polygon fill="none" stroke="#000000" points="452,-839.2 452,-858.2 470,-858.2 470,-839.2 452,-839.2"/>
<text text-anchor="start" x="460.8862" y="-845.3" font-family="Helvetica,sans-Serif" font-size="11.00" fill="#000000"> &#160;</text>
</a>
</g>
</g>
<!-- label&#45;&gt;object -->
<g id="edge3" class="edge">
<title>label:w&#45;&gt;object:e</title>
<path fill="none" stroke="#000000" d="M389.4388,-867.0629C352.2353,-866.2128 332.846,-860.6088 305,-829.2 254.2282,-771.9321 339.5335,-662.2 263,-662.2"/>
<polygon fill="#000000" stroke="#000000" points="396.0004,-867.1246 403.9661,-870.7998 400.0002,-867.1623 404,-867.2 404,-867.2 404,-867.2 400.0002,-867.1623 404.0339,-863.6002 396.0004,-867.1246 396.0004,-867.1246"/>
<ellipse fill="none" stroke="#000000" cx="392.8005" cy="-867.0945" rx="3.2" ry="3.2"/>
</g>
<!-- opstelplaats -->
<g id="node6" class="node">
<title>opstelplaats</title>
<g id="a_node6"><a xlink:href="../../tables/opstelplaats.html" xlink:title="opstelplaats" target="_top">
<polygon fill="#ffffff" stroke="transparent" points="382.5,-757.7 382.5,-818.7 491.5,-818.7 491.5,-757.7 382.5,-757.7"/>
<polygon fill="#f5f5f5" stroke="transparent" points="383,-795.2 383,-818.2 492,-818.2 492,-795.2 383,-795.2"/>
<polygon fill="none" stroke="#000000" points="383,-795.2 383,-818.2 492,-818.2 492,-795.2 383,-795.2"/>
<text text-anchor="start" x="388" y="-803.8" font-family="Helvetica,sans-Serif" font-weight="bold" font-size="11.00" fill="#000000">opstelplaats</text>
<text text-anchor="start" x="457.5219" y="-803.3" font-family="Helvetica,sans-Serif" font-size="11.00" fill="#000000">[table]</text>
<polygon fill="none" stroke="#000000" points="383,-776.2 383,-795.2 492,-795.2 492,-776.2 383,-776.2"/>
<text text-anchor="start" x="386" y="-782.3" font-family="Helvetica,sans-Serif" font-size="11.00" fill="#000000">...</text>
<polygon fill="#ffffff" stroke="transparent" points="383,-757.2 383,-776.2 436,-776.2 436,-757.2 383,-757.2"/>
<polygon fill="none" stroke="#000000" points="383,-757.2 383,-776.2 436,-776.2 436,-757.2 383,-757.2"/>
<text text-anchor="start" x="386" y="-763.3" font-family="Helvetica,sans-Serif" font-size="11.00" fill="#000000">&lt; 2</text>
<polygon fill="#ffffff" stroke="transparent" points="436,-757.2 436,-776.2 464,-776.2 464,-757.2 436,-757.2"/>
<polygon fill="none" stroke="#000000" points="436,-757.2 436,-776.2 464,-776.2 464,-757.2 436,-757.2"/>
<text text-anchor="start" x="454.8862" y="-763.3" font-family="Helvetica,sans-Serif" font-size="11.00" fill="#000000"> &#160;</text>
<polygon fill="#ffffff" stroke="transparent" points="464,-757.2 464,-776.2 492,-776.2 492,-757.2 464,-757.2"/>
<polygon fill="none" stroke="#000000" points="464,-757.2 464,-776.2 492,-776.2 492,-757.2 464,-757.2"/>
<text text-anchor="start" x="482.8862" y="-763.3" font-family="Helvetica,sans-Serif" font-size="11.00" fill="#000000"> &#160;</text>
</a>
</g>
</g>
<!-- opstelplaats&#45;&gt;object -->
<g id="edge5" class="edge">
<title>opstelplaats:w&#45;&gt;object:e</title>
<path fill="none" stroke="#000000" d="M368.5612,-784.5796C340.846,-781.9382 328.6051,-770.6734 305,-747.2 275.1208,-717.4874 305.1379,-662.2 263,-662.2"/>
<polygon fill="#000000" stroke="#000000" points="375.0074,-784.8565 382.8454,-788.7967 379.0037,-785.0283 383,-785.2 383,-785.2 383,-785.2 379.0037,-785.0283 383.1546,-781.6033 375.0074,-784.8565 375.0074,-784.8565"/>
<ellipse fill="none" stroke="#000000" cx="371.8103" cy="-784.7192" rx="3.2" ry="3.2"/>
</g>
<!-- pand -->
<g id="node7" class="node">
<title>pand</title>
<g id="a_node7"><a xlink:href="../../tables/pand.html" xlink:title="pand" target="_top">
<polygon fill="#ffffff" stroke="transparent" points="403.5,-675.7 403.5,-736.7 470.5,-736.7 470.5,-675.7 403.5,-675.7"/>
<polygon fill="#f5f5f5" stroke="transparent" points="404,-713.2 404,-736.2 471,-736.2 471,-713.2 404,-713.2"/>
<polygon fill="none" stroke="#000000" points="404,-713.2 404,-736.2 471,-736.2 471,-713.2 404,-713.2"/>
<text text-anchor="start" x="408.7702" y="-721.8" font-family="Helvetica,sans-Serif" font-weight="bold" font-size="11.00" fill="#000000">pand</text>
<text text-anchor="start" x="436.5219" y="-721.3" font-family="Helvetica,sans-Serif" font-size="11.00" fill="#000000">[table]</text>
<polygon fill="none" stroke="#000000" points="404,-694.2 404,-713.2 471,-713.2 471,-694.2 404,-694.2"/>
<text text-anchor="start" x="407" y="-700.3" font-family="Helvetica,sans-Serif" font-size="11.00" fill="#000000">...</text>
<polygon fill="#ffffff" stroke="transparent" points="404,-675.2 404,-694.2 436,-694.2 436,-675.2 404,-675.2"/>
<polygon fill="none" stroke="#000000" points="404,-675.2 404,-694.2 436,-694.2 436,-675.2 404,-675.2"/>
<text text-anchor="start" x="407" y="-681.3" font-family="Helvetica,sans-Serif" font-size="11.00" fill="#000000">&lt; 1</text>
<polygon fill="#ffffff" stroke="transparent" points="436,-675.2 436,-694.2 453,-694.2 453,-675.2 436,-675.2"/>
<polygon fill="none" stroke="#000000" points="436,-675.2 436,-694.2 453,-694.2 453,-675.2 436,-675.2"/>
<text text-anchor="start" x="443.8862" y="-681.3" font-family="Helvetica,sans-Serif" font-size="11.00" fill="#000000"> &#160;</text>
<polygon fill="#ffffff" stroke="transparent" points="453,-675.2 453,-694.2 471,-694.2 471,-675.2 453,-675.2"/>
<polygon fill="none" stroke="#000000" points="453,-675.2 453,-694.2 471,-694.2 471,-675.2 453,-675.2"/>
<text text-anchor="start" x="461.8862" y="-681.3" font-family="Helvetica,sans-Serif" font-size="11.00" fill="#000000"> &#160;</text>
</a>
</g>
</g>
<!-- pand&#45;&gt;object -->
<g id="edge6" class="edge">
<title>pand:w&#45;&gt;object:e</title>
<path fill="none" stroke="#000000" d="M389.3195,-702.4534C336.7087,-696.8965 323.0362,-662.2 263,-662.2"/>
<polygon fill="#000000" stroke="#000000" points="396.0103,-702.7936 403.8171,-706.7954 400.0052,-702.9968 404,-703.2 404,-703.2 404,-703.2 400.0052,-702.9968 404.1829,-699.6046 396.0103,-702.7936 396.0103,-702.7936"/>
<ellipse fill="none" stroke="#000000" cx="392.8145" cy="-702.631" rx="3.2" ry="3.2"/>
</g>
<!-- risico -->
<g id="node8" class="node">
<title>risico</title>
<g id="a_node8"><a xlink:href="../../tables/risico.html" xlink:title="risico" target="_top">
<polygon fill="#ffffff" stroke="transparent" points="401.5,-593.7 401.5,-654.7 472.5,-654.7 472.5,-593.7 401.5,-593.7"/>
<polygon fill="#f5f5f5" stroke="transparent" points="402,-631.2 402,-654.2 473,-654.2 473,-631.2 402,-631.2"/>
<polygon fill="none" stroke="#000000" points="402,-631.2 402,-654.2 473,-654.2 473,-631.2 402,-631.2"/>
<text text-anchor="start" x="407" y="-639.8" font-family="Helvetica,sans-Serif" font-weight="bold" font-size="11.00" fill="#000000">risico</text>
<text text-anchor="start" x="438.5219" y="-639.3" font-family="Helvetica,sans-Serif" font-size="11.00" fill="#000000">[table]</text>
<polygon fill="none" stroke="#000000" points="402,-612.2 402,-631.2 473,-631.2 473,-612.2 402,-612.2"/>
<text text-anchor="start" x="405" y="-618.3" font-family="Helvetica,sans-Serif" font-size="11.00" fill="#000000">...</text>
<polygon fill="#ffffff" stroke="transparent" points="402,-593.2 402,-612.2 436,-612.2 436,-593.2 402,-593.2"/>
<polygon fill="none" stroke="#000000" points="402,-593.2 402,-612.2 436,-612.2 436,-593.2 402,-593.2"/>
<text text-anchor="start" x="405" y="-599.3" font-family="Helvetica,sans-Serif" font-size="11.00" fill="#000000">&lt; 2</text>
<polygon fill="#ffffff" stroke="transparent" points="436,-593.2 436,-612.2 454,-612.2 454,-593.2 436,-593.2"/>
<polygon fill="none" stroke="#000000" points="436,-593.2 436,-612.2 454,-612.2 454,-593.2 436,-593.2"/>
<text text-anchor="start" x="444.8862" y="-599.3" font-family="Helvetica,sans-Serif" font-size="11.00" fill="#000000"> &#160;</text>
<polygon fill="#ffffff" stroke="transparent" points="454,-593.2 454,-612.2 473,-612.2 473,-593.2 454,-593.2"/>
<polygon fill="none" stroke="#000000" points="454,-593.2 454,-612.2 473,-612.2 473,-593.2 454,-593.2"/>
<text text-anchor="start" x="463.8862" y="-599.3" font-family="Helvetica,sans-Serif" font-size="11.00" fill="#000000"> &#160;</text>
</a>
</g>
</g>
<!-- risico&#45;&gt;object -->
<g id="edge7" class="edge">
<title>risico:w&#45;&gt;object:e</title>
<path fill="none" stroke="#000000" d="M387.5142,-621.9466C335.6124,-627.5035 322.2514,-662.2 263,-662.2"/>
<polygon fill="#000000" stroke="#000000" points="394.0106,-621.6118 402.1853,-624.7952 398.0053,-621.4059 402,-621.2 402,-621.2 402,-621.2 398.0053,-621.4059 401.8147,-617.6048 394.0106,-621.6118 394.0106,-621.6118"/>
<ellipse fill="none" stroke="#000000" cx="390.8148" cy="-621.7766" rx="3.2" ry="3.2"/>
</g>
<!-- scenario -->
<g id="node9" class="node">
<title>scenario</title>
<g id="a_node9"><a xlink:href="../../tables/scenario.html" xlink:title="scenario" target="_top">
<polygon fill="#ffffff" stroke="transparent" points="393,-511.7 393,-572.7 481,-572.7 481,-511.7 393,-511.7"/>
<polygon fill="#f5f5f5" stroke="transparent" points="393,-549.2 393,-572.2 481,-572.2 481,-549.2 393,-549.2"/>
<polygon fill="none" stroke="#000000" points="393,-549.2 393,-572.2 481,-572.2 481,-549.2 393,-549.2"/>
<text text-anchor="start" x="398" y="-557.8" font-family="Helvetica,sans-Serif" font-weight="bold" font-size="11.00" fill="#000000">scenario</text>
<text text-anchor="start" x="446.5219" y="-557.3" font-family="Helvetica,sans-Serif" font-size="11.00" fill="#000000">[table]</text>
<polygon fill="none" stroke="#000000" points="393,-530.2 393,-549.2 481,-549.2 481,-530.2 393,-530.2"/>
<text text-anchor="start" x="396" y="-536.3" font-family="Helvetica,sans-Serif" font-size="11.00" fill="#000000">...</text>
<polygon fill="#ffffff" stroke="transparent" points="393,-511.2 393,-530.2 435,-530.2 435,-511.2 393,-511.2"/>
<polygon fill="none" stroke="#000000" points="393,-511.2 393,-530.2 435,-530.2 435,-511.2 393,-511.2"/>
<text text-anchor="start" x="396" y="-517.3" font-family="Helvetica,sans-Serif" font-size="11.00" fill="#000000">&lt; 2</text>
<polygon fill="#ffffff" stroke="transparent" points="435,-511.2 435,-530.2 458,-530.2 458,-511.2 435,-511.2"/>
<polygon fill="none" stroke="#000000" points="435,-511.2 435,-530.2 458,-530.2 458,-511.2 435,-511.2"/>
<text text-anchor="start" x="448.8862" y="-517.3" font-family="Helvetica,sans-Serif" font-size="11.00" fill="#000000"> &#160;</text>
<polygon fill="#ffffff" stroke="transparent" points="458,-511.2 458,-530.2 481,-530.2 481,-511.2 458,-511.2"/>
<polygon fill="none" stroke="#000000" points="458,-511.2 458,-530.2 481,-530.2 481,-511.2 458,-511.2"/>
<text text-anchor="start" x="471.8862" y="-517.3" font-family="Helvetica,sans-Serif" font-size="11.00" fill="#000000"> &#160;</text>
</a>
</g>
</g>
<!-- scenario&#45;&gt;object -->
<g id="edge8" class="edge">
<title>scenario:w&#45;&gt;object:e</title>
<path fill="none" stroke="#000000" d="M378.3806,-539.7989C345.8628,-542.7122 332.5133,-556.3659 305,-583.2 276.5329,-610.9643 302.7647,-662.2 263,-662.2"/>
<polygon fill="#000000" stroke="#000000" points="385.0067,-539.5275 393.1474,-542.797 389.0034,-539.3637 393,-539.2 393,-539.2 393,-539.2 389.0034,-539.3637 392.8526,-535.603 385.0067,-539.5275 385.0067,-539.5275"/>
<ellipse fill="none" stroke="#000000" cx="381.8094" cy="-539.6585" rx="3.2" ry="3.2"/>
</g>
<!-- scheiding -->
<g id="node10" class="node">
<title>scheiding</title>
<g id="a_node10"><a xlink:href="../../tables/scheiding.html" xlink:title="scheiding" target="_top">
<polygon fill="#ffffff" stroke="transparent" points="313,-38.2 313,-326.2 561,-326.2 561,-38.2 313,-38.2"/>
<polygon fill="#f5f5f5" stroke="transparent" points="315,-301.2 315,-324.2 559,-324.2 559,-301.2 315,-301.2"/>
<polygon fill="none" stroke="#000000" points="315,-301.2 315,-324.2 559,-324.2 559,-301.2 315,-301.2"/>
<text text-anchor="start" x="320" y="-309.8" font-family="Helvetica,sans-Serif" font-weight="bold" font-size="11.00" fill="#000000">scheiding</text>
<text text-anchor="start" x="524.0437" y="-309.3" font-family="Helvetica,sans-Serif" font-size="11.00" fill="#000000">[table]</text>
<polygon fill="none" stroke="#000000" points="315,-279.2 315,-301.2 440,-301.2 440,-279.2 315,-279.2"/>
<image xlink:href="../../images/primaryKeys.png" width="11px" height="12px" preserveAspectRatio="xMinYMin meet" x="320" y="-296.2"/>
<text text-anchor="start" x="335" y="-286.3" font-family="Helvetica,sans-Serif" font-size="11.00" fill="#000000">uuid</text>
<polygon fill="none" stroke="#000000" points="440,-279.2 440,-301.2 559,-301.2 559,-279.2 440,-279.2"/>
<text text-anchor="start" x="443" y="-286.9" font-family="Helvetica,sans-Serif" font-size="11.00" fill="#000000">uuid[2147483647]</text>
<polygon fill="#ffffff" stroke="transparent" points="315,-257.2 315,-279.2 440,-279.2 440,-257.2 315,-257.2"/>
<polygon fill="none" stroke="#000000" points="315,-257.2 315,-279.2 440,-279.2 440,-257.2 315,-257.2"/>
<text text-anchor="start" x="335" y="-264.3" font-family="Helvetica,sans-Serif" font-size="11.00" fill="#000000">geom</text>
<polygon fill="none" stroke="#000000" points="440,-257.2 440,-279.2 559,-279.2 559,-257.2 440,-257.2"/>
<text text-anchor="start" x="442.9485" y="-264.9" font-family="Helvetica,sans-Serif" font-size="11.00" fill="#000000">geometry[2147483647]</text>
<polygon fill="none" stroke="#000000" points="315,-235.2 315,-257.2 440,-257.2 440,-235.2 315,-235.2"/>
<text text-anchor="start" x="335" y="-242.3" font-family="Helvetica,sans-Serif" font-size="11.00" fill="#000000">datumtijd</text>
<polygon fill="none" stroke="#000000" points="440,-235.2 440,-257.2 559,-257.2 559,-235.2 440,-235.2"/>
<text text-anchor="start" x="443" y="-242.9" font-family="Helvetica,sans-Serif" font-size="11.00" fill="#000000">timestamptz[35,6]</text>
<polygon fill="none" stroke="#000000" points="315,-213.2 315,-235.2 440,-235.2 440,-213.2 315,-213.2"/>
<text text-anchor="start" x="335" y="-220.3" font-family="Helvetica,sans-Serif" font-size="11.00" fill="#000000">gebruiker</text>
<polygon fill="none" stroke="#000000" points="440,-213.2 440,-235.2 559,-235.2 559,-213.2 440,-213.2"/>
<text text-anchor="start" x="443" y="-220.9" font-family="Helvetica,sans-Serif" font-size="11.00" fill="#000000">varchar[255]</text>
<polygon fill="none" stroke="#000000" points="315,-191.2 315,-213.2 440,-213.2 440,-191.2 315,-191.2"/>
<text text-anchor="start" x="335" y="-198.3" font-family="Helvetica,sans-Serif" font-size="11.00" fill="#000000">label</text>
<polygon fill="none" stroke="#000000" points="440,-191.2 440,-213.2 559,-213.2 559,-191.2 440,-191.2"/>
<text text-anchor="start" x="443" y="-198.9" font-family="Helvetica,sans-Serif" font-size="11.00" fill="#000000">text[2147483647]</text>
<polygon fill="none" stroke="#000000" points="315,-169.2 315,-191.2 440,-191.2 440,-169.2 315,-169.2"/>
<text text-anchor="start" x="335" y="-176.3" font-family="Helvetica,sans-Serif" font-size="11.00" fill="#000000">rotatie</text>
<polygon fill="none" stroke="#000000" points="440,-169.2 440,-191.2 559,-191.2 559,-169.2 440,-169.2"/>
<text text-anchor="start" x="443" y="-176.9" font-family="Helvetica,sans-Serif" font-size="11.00" fill="#000000">int4[10]</text>
<polygon fill="none" stroke="#000000" points="315,-147.2 315,-169.2 440,-169.2 440,-147.2 315,-147.2"/>
<text text-anchor="start" x="335" y="-154.3" font-family="Helvetica,sans-Serif" font-size="11.00" fill="#000000">bijzonderheden</text>
<polygon fill="none" stroke="#000000" points="440,-147.2 440,-169.2 559,-169.2 559,-147.2 440,-147.2"/>
<text text-anchor="start" x="443" y="-154.9" font-family="Helvetica,sans-Serif" font-size="11.00" fill="#000000">text[2147483647]</text>
<polygon fill="none" stroke="#000000" points="315,-125.2 315,-147.2 440,-147.2 440,-125.2 315,-125.2"/>
<text text-anchor="start" x="335" y="-132.3" font-family="Helvetica,sans-Serif" font-size="11.00" fill="#000000">plusinfo</text>
<polygon fill="none" stroke="#000000" points="440,-125.2 440,-147.2 559,-147.2 559,-125.2 440,-125.2"/>
<text text-anchor="start" x="443" y="-132.9" font-family="Helvetica,sans-Serif" font-size="11.00" fill="#000000">jsonb[2147483647]</text>
<polygon fill="#ffffff" stroke="transparent" points="315,-103.2 315,-125.2 440,-125.2 440,-103.2 315,-103.2"/>
<polygon fill="none" stroke="#000000" points="315,-103.2 315,-125.2 440,-125.2 440,-103.2 315,-103.2"/>
<image xlink:href="../../images/foreignKeys.png" width="11px" height="12px" preserveAspectRatio="xMinYMin meet" x="320" y="-120.2"/>
<text text-anchor="start" x="335" y="-110.3" font-family="Helvetica,sans-Serif" font-size="11.00" fill="#000000">object_uuid</text>
<polygon fill="none" stroke="#000000" points="440,-103.2 440,-125.2 559,-125.2 559,-103.2 440,-103.2"/>
<text text-anchor="start" x="443" y="-110.9" font-family="Helvetica,sans-Serif" font-size="11.00" fill="#000000">uuid[2147483647]</text>
<polygon fill="none" stroke="#000000" points="315,-81.2 315,-103.2 440,-103.2 440,-81.2 315,-81.2"/>
<image xlink:href="../../images/foreignKeys.png" width="11px" height="12px" preserveAspectRatio="xMinYMin meet" x="320" y="-98.2"/>
<text text-anchor="start" x="335" y="-88.3" font-family="Helvetica,sans-Serif" font-size="11.00" fill="#000000">scheiding_type_id</text>
<polygon fill="none" stroke="#000000" points="440,-81.2 440,-103.2 559,-103.2 559,-81.2 440,-81.2"/>
<text text-anchor="start" x="443" y="-88.9" font-family="Helvetica,sans-Serif" font-size="11.00" fill="#000000">int2[5]</text>
<polygon fill="#ffffff" stroke="transparent" points="315,-59.2 315,-81.2 440,-81.2 440,-59.2 315,-59.2"/>
<polygon fill="none" stroke="#000000" points="315,-59.2 315,-81.2 440,-81.2 440,-59.2 315,-59.2"/>
<text text-anchor="start" x="335" y="-66.3" font-family="Helvetica,sans-Serif" font-size="11.00" fill="#000000">bouwlaag</text>
<polygon fill="none" stroke="#000000" points="440,-59.2 440,-81.2 559,-81.2 559,-59.2 440,-59.2"/>
<text text-anchor="start" x="443" y="-66.9" font-family="Helvetica,sans-Serif" font-size="11.00" fill="#000000">int2[5]</text>
<polygon fill="#ffffff" stroke="transparent" points="315,-40.2 315,-59.2 382,-59.2 382,-40.2 315,-40.2"/>
<polygon fill="none" stroke="#000000" points="315,-40.2 315,-59.2 382,-59.2 382,-40.2 315,-40.2"/>
<text text-anchor="start" x="318" y="-46.3" font-family="Helvetica,sans-Serif" font-size="11.00" fill="#000000">&lt; 2</text>
<polygon fill="#ffffff" stroke="transparent" points="382,-40.2 382,-59.2 440,-59.2 440,-40.2 382,-40.2"/>
<polygon fill="none" stroke="#000000" points="382,-40.2 382,-59.2 440,-59.2 440,-40.2 382,-40.2"/>
<text text-anchor="start" x="430.8862" y="-46.3" font-family="Helvetica,sans-Serif" font-size="11.00" fill="#000000"> &#160;</text>
<polygon fill="#ffffff" stroke="transparent" points="440,-40.2 440,-59.2 559,-59.2 559,-40.2 440,-40.2"/>
<polygon fill="none" stroke="#000000" points="440,-40.2 440,-59.2 559,-59.2 559,-40.2 440,-40.2"/>
<text text-anchor="start" x="540.4053" y="-46.3" font-family="Helvetica,sans-Serif" font-size="11.00" fill="#000000">0 &gt;</text>
<polygon fill="none" stroke="#000000" stroke-width="2" points="314,-39.2 314,-325.2 560,-325.2 560,-39.2 314,-39.2"/>
</a>
</g>
</g>
<!-- scheiding&#45;&gt;object -->
<g id="edge9" class="edge">
<title>scheiding:w&#45;&gt;object:e</title>
<path fill="none" stroke="#000000" d="M303.4472,-122.8078C263.5521,-192.5251 319.623,-662.2 263,-662.2"/>
<polygon fill="#000000" stroke="#000000" points="308.5849,-118.9798 317.1509,-117.0868 311.7924,-116.5899 315,-114.2 315,-114.2 315,-114.2 311.7924,-116.5899 312.8491,-111.3132 308.5849,-118.9798 308.5849,-118.9798"/>
<ellipse fill="none" stroke="#000000" cx="306.0188" cy="-120.8917" rx="3.2" ry="3.2"/>
</g>
<!-- scheiding_type -->
<g id="node11" class="node">
<title>scheiding_type</title>
<g id="a_node11"><a xlink:href="../../tables/scheiding_type.html" xlink:title="scheiding_type" target="_top">
<polygon fill="#ffffff" stroke="transparent" points="138,-43.7 138,-126.7 264,-126.7 264,-43.7 138,-43.7"/>
<polygon fill="#f5f5f5" stroke="transparent" points="138,-103.2 138,-126.2 264,-126.2 264,-103.2 138,-103.2"/>
<polygon fill="none" stroke="#000000" points="138,-103.2 138,-126.2 264,-126.2 264,-103.2 138,-103.2"/>
<text text-anchor="start" x="143" y="-111.8" font-family="Helvetica,sans-Serif" font-weight="bold" font-size="11.00" fill="#000000">scheiding_type</text>
<text text-anchor="start" x="229.5219" y="-111.3" font-family="Helvetica,sans-Serif" font-size="11.00" fill="#000000">[table]</text>
<polygon fill="none" stroke="#000000" points="138,-81.2 138,-103.2 264,-103.2 264,-81.2 138,-81.2"/>
<image xlink:href="../../images/primaryKeys.png" width="11px" height="12px" preserveAspectRatio="xMinYMin meet" x="143" y="-98.2"/>
<text text-anchor="start" x="167" y="-88.3" font-family="Helvetica,sans-Serif" font-size="11.00" fill="#000000">id</text>
<polygon fill="none" stroke="#000000" points="138,-62.2 138,-81.2 264,-81.2 264,-62.2 138,-62.2"/>
<text text-anchor="start" x="141" y="-68.3" font-family="Helvetica,sans-Serif" font-size="11.00" fill="#000000">...</text>
<polygon fill="#ffffff" stroke="transparent" points="138,-43.2 138,-62.2 190,-62.2 190,-43.2 138,-43.2"/>
<polygon fill="none" stroke="#000000" points="138,-43.2 138,-62.2 190,-62.2 190,-43.2 138,-43.2"/>
<text text-anchor="start" x="141" y="-49.3" font-family="Helvetica,sans-Serif" font-size="11.00" fill="#000000"> &#160;</text>
<polygon fill="#ffffff" stroke="transparent" points="190,-43.2 190,-62.2 222,-62.2 222,-43.2 190,-43.2"/>
<polygon fill="none" stroke="#000000" points="190,-43.2 190,-62.2 222,-62.2 222,-43.2 190,-43.2"/>
<text text-anchor="start" x="212.8862" y="-49.3" font-family="Helvetica,sans-Serif" font-size="11.00" fill="#000000"> &#160;</text>
<polygon fill="#ffffff" stroke="transparent" points="222,-43.2 222,-62.2 264,-62.2 264,-43.2 222,-43.2"/>
<polygon fill="none" stroke="#000000" points="222,-43.2 222,-62.2 264,-62.2 264,-43.2 222,-43.2"/>
<text text-anchor="start" x="245.4053" y="-49.3" font-family="Helvetica,sans-Serif" font-size="11.00" fill="#000000">1 &gt;</text>
</a>
</g>
</g>
<!-- scheiding&#45;&gt;scheiding_type -->
<g id="edge10" class="edge">
<title>scheiding:w&#45;&gt;scheiding_type:e</title>
<path fill="none" stroke="#000000" d="M300.276,-92.2C288.2815,-92.2 280.8229,-92.2 264,-92.2"/>
<polygon fill="#000000" stroke="#000000" points="307,-92.2001 315,-95.8 311,-92.2 315,-92.2 315,-92.2 315,-92.2 311,-92.2 315,-88.6 307,-92.2001 307,-92.2001"/>
<ellipse fill="none" stroke="#000000" cx="303.8" cy="-92.2001" rx="3.2" ry="3.2"/>
</g>
<!-- sector -->
<g id="node12" class="node">
<title>sector</title>
<g id="a_node12"><a xlink:href="../../tables/sector.html" xlink:title="sector" target="_top">
<polygon fill="#ffffff" stroke="transparent" points="399.5,-429.7 399.5,-490.7 474.5,-490.7 474.5,-429.7 399.5,-429.7"/>
<polygon fill="#f5f5f5" stroke="transparent" points="400,-467.2 400,-490.2 475,-490.2 475,-467.2 400,-467.2"/>
<polygon fill="none" stroke="#000000" points="400,-467.2 400,-490.2 475,-490.2 475,-467.2 400,-467.2"/>
<text text-anchor="start" x="405" y="-475.8" font-family="Helvetica,sans-Serif" font-weight="bold" font-size="11.00" fill="#000000">sector</text>
<text text-anchor="start" x="440.5219" y="-475.3" font-family="Helvetica,sans-Serif" font-size="11.00" fill="#000000">[table]</text>
<polygon fill="none" stroke="#000000" points="400,-448.2 400,-467.2 475,-467.2 475,-448.2 400,-448.2"/>
<text text-anchor="start" x="403" y="-454.3" font-family="Helvetica,sans-Serif" font-size="11.00" fill="#000000">...</text>
<polygon fill="#ffffff" stroke="transparent" points="400,-429.2 400,-448.2 436,-448.2 436,-429.2 400,-429.2"/>
<polygon fill="none" stroke="#000000" points="400,-429.2 400,-448.2 436,-448.2 436,-429.2 400,-429.2"/>
<text text-anchor="start" x="403" y="-435.3" font-family="Helvetica,sans-Serif" font-size="11.00" fill="#000000">&lt; 2</text>
<polygon fill="#ffffff" stroke="transparent" points="436,-429.2 436,-448.2 455,-448.2 455,-429.2 436,-429.2"/>
<polygon fill="none" stroke="#000000" points="436,-429.2 436,-448.2 455,-448.2 455,-429.2 436,-429.2"/>
<text text-anchor="start" x="445.8862" y="-435.3" font-family="Helvetica,sans-Serif" font-size="11.00" fill="#000000"> &#160;</text>
<polygon fill="#ffffff" stroke="transparent" points="455,-429.2 455,-448.2 475,-448.2 475,-429.2 455,-429.2"/>
<polygon fill="none" stroke="#000000" points="455,-429.2 455,-448.2 475,-448.2 475,-429.2 455,-429.2"/>
<text text-anchor="start" x="465.8862" y="-435.3" font-family="Helvetica,sans-Serif" font-size="11.00" fill="#000000"> &#160;</text>
</a>
</g>
</g>
<!-- sector&#45;&gt;object -->
<g id="edge11" class="edge">
<title>sector:w&#45;&gt;object:e</title>
<path fill="none" stroke="#000000" d="M385.204,-457.5471C349.104,-459.4311 331.4577,-469.5397 305,-501.2 257.5798,-557.9448 336.9503,-662.2 263,-662.2"/>
<polygon fill="#000000" stroke="#000000" points="392.0022,-457.3877 400.0845,-460.799 396.0011,-457.2938 400,-457.2 400,-457.2 400,-457.2 396.0011,-457.2938 399.9155,-453.601 392.0022,-457.3877 392.0022,-457.3877"/>
<ellipse fill="none" stroke="#000000" cx="388.8031" cy="-457.4628" rx="3.2" ry="3.2"/>
</g>
<!-- voorziening -->
<g id="node13" class="node">
<title>voorziening</title>
<g id="a_node13"><a xlink:href="../../tables/voorziening.html" xlink:title="voorziening" target="_top">
<polygon fill="#ffffff" stroke="transparent" points="384,-347.7 384,-408.7 490,-408.7 490,-347.7 384,-347.7"/>
<polygon fill="#f5f5f5" stroke="transparent" points="384,-385.2 384,-408.2 490,-408.2 490,-385.2 384,-385.2"/>
<polygon fill="none" stroke="#000000" points="384,-385.2 384,-408.2 490,-408.2 490,-385.2 384,-385.2"/>
<text text-anchor="start" x="389" y="-393.8" font-family="Helvetica,sans-Serif" font-weight="bold" font-size="11.00" fill="#000000">voorziening</text>
<text text-anchor="start" x="455.5219" y="-393.3" font-family="Helvetica,sans-Serif" font-size="11.00" fill="#000000">[table]</text>
<polygon fill="none" stroke="#000000" points="384,-366.2 384,-385.2 490,-385.2 490,-366.2 384,-366.2"/>
<text text-anchor="start" x="387" y="-372.3" font-family="Helvetica,sans-Serif" font-size="11.00" fill="#000000">...</text>
<polygon fill="#ffffff" stroke="transparent" points="384,-347.2 384,-366.2 435,-366.2 435,-347.2 384,-347.2"/>
<polygon fill="none" stroke="#000000" points="384,-347.2 384,-366.2 435,-366.2 435,-347.2 384,-347.2"/>
<text text-anchor="start" x="387" y="-353.3" font-family="Helvetica,sans-Serif" font-size="11.00" fill="#000000">&lt; 2</text>
<polygon fill="#ffffff" stroke="transparent" points="435,-347.2 435,-366.2 462,-366.2 462,-347.2 435,-347.2"/>
<polygon fill="none" stroke="#000000" points="435,-347.2 435,-366.2 462,-366.2 462,-347.2 435,-347.2"/>
<text text-anchor="start" x="452.8862" y="-353.3" font-family="Helvetica,sans-Serif" font-size="11.00" fill="#000000"> &#160;</text>
<polygon fill="#ffffff" stroke="transparent" points="462,-347.2 462,-366.2 490,-366.2 490,-347.2 462,-347.2"/>
<polygon fill="none" stroke="#000000" points="462,-347.2 462,-366.2 490,-366.2 490,-347.2 462,-347.2"/>
<text text-anchor="start" x="480.8862" y="-353.3" font-family="Helvetica,sans-Serif" font-size="11.00" fill="#000000"> &#160;</text>
</a>
</g>
</g>
<!-- voorziening&#45;&gt;object -->
<g id="edge12" class="edge">
<title>voorziening:w&#45;&gt;object:e</title>
<path fill="none" stroke="#000000" d="M369.2145,-375.8179C339.5414,-378.5601 325.1618,-390.7718 305,-419.2 273.2979,-463.9 317.8006,-662.2 263,-662.2"/>
<polygon fill="#000000" stroke="#000000" points="376.007,-375.5341 384.1503,-378.7969 380.0035,-375.367 384,-375.2 384,-375.2 384,-375.2 380.0035,-375.367 383.8497,-371.6031 376.007,-375.5341 376.007,-375.5341"/>
<ellipse fill="none" stroke="#000000" cx="372.8098" cy="-375.6677" rx="3.2" ry="3.2"/>
</g>
</g>
</svg>
