<?xml version="1.0" encoding="UTF-8" standalone="no"?>
<!DOCTYPE svg PUBLIC "-//W3C//DTD SVG 1.1//EN"
 "http://www.w3.org/Graphics/SVG/1.1/DTD/svg11.dtd">
<!-- Generated by graphviz version 2.50.0 (0)
 -->
<!-- Title: twoDegreesRelationshipsDiagram Pages: 1 -->
<svg width="630pt" height="1046pt"
 viewBox="0.00 0.00 630.00 1046.00" xmlns="http://www.w3.org/2000/svg" xmlns:xlink="http://www.w3.org/1999/xlink">
<g id="graph0" class="graph" transform="scale(1 1) rotate(0) translate(4 1042)">
<title>twoDegreesRelationshipsDiagram</title>
<polygon fill="#ffffff" stroke="transparent" points="-4,4 -4,-1042 626,-1042 626,4 -4,4"/>
<text text-anchor="middle" x="79.5" y="-7.2" font-family="Helvetica,sans-Serif" font-size="11.00">Generated by SchemaSpy</text>
<!-- bereikbaarheid -->
<g id="node1" class="node">
<title>bereikbaarheid</title>
<g id="a_node1"><a xlink:href="../../tables/bereikbaarheid.html" xlink:title="bereikbaarheid" target="_top">
<polygon fill="#ffffff" stroke="transparent" points="408.5,-976 408.5,-1034 553.5,-1034 553.5,-976 408.5,-976"/>
<polygon fill="#f5f5f5" stroke="transparent" points="409,-1012 409,-1034 554,-1034 554,-1012 409,-1012"/>
<polygon fill="none" stroke="black" points="409,-1012 409,-1034 554,-1034 554,-1012 409,-1012"/>
<text text-anchor="start" x="414" y="-1021.2" font-family="Helvetica,sans-Serif" font-weight="bold" font-size="11.00">bereikbaarheid</text>
<text text-anchor="start" x="512" y="-1020.2" font-family="Helvetica,sans-Serif" font-size="11.00">[table]</text>
<polygon fill="none" stroke="black" points="409,-994 409,-1012 554,-1012 554,-994 409,-994"/>
<text text-anchor="start" x="412" y="-1000.2" font-family="Helvetica,sans-Serif" font-size="11.00">...</text>
<polygon fill="#ffffff" stroke="transparent" points="409,-976 409,-994 480,-994 480,-976 409,-976"/>
<polygon fill="none" stroke="black" points="409,-976 409,-994 480,-994 480,-976 409,-976"/>
<text text-anchor="start" x="412" y="-982.2" font-family="Helvetica,sans-Serif" font-size="11.00">&lt; 2</text>
<polygon fill="#ffffff" stroke="transparent" points="480,-976 480,-994 517,-994 517,-976 480,-976"/>
<polygon fill="none" stroke="black" points="480,-976 480,-994 517,-994 517,-976 480,-976"/>
<text text-anchor="start" x="506" y="-982.2" font-family="Helvetica,sans-Serif" font-size="11.00"> &#160;</text>
<polygon fill="#ffffff" stroke="transparent" points="517,-976 517,-994 554,-994 554,-976 517,-976"/>
<polygon fill="none" stroke="black" points="517,-976 517,-994 554,-994 554,-976 517,-976"/>
<text text-anchor="start" x="543" y="-982.2" font-family="Helvetica,sans-Serif" font-size="11.00"> &#160;</text>
</a>
</g>
</g>
<!-- object -->
<g id="node2" class="node">
<title>object</title>
<g id="a_node2"><a xlink:href="../../tables/object.html" xlink:title="object" target="_top">
<polygon fill="#ffffff" stroke="transparent" points="163,-534 163,-680 292,-680 292,-534 163,-534"/>
<polygon fill="#f5f5f5" stroke="transparent" points="163.5,-658 163.5,-680 292.5,-680 292.5,-658 163.5,-658"/>
<polygon fill="none" stroke="black" points="163.5,-658 163.5,-680 292.5,-680 292.5,-658 163.5,-658"/>
<text text-anchor="start" x="168.5" y="-667.2" font-family="Helvetica,sans-Serif" font-weight="bold" font-size="11.00">object</text>
<text text-anchor="start" x="250.5" y="-666.2" font-family="Helvetica,sans-Serif" font-size="11.00">[table]</text>
<polygon fill="none" stroke="black" points="163.5,-636 163.5,-658 292.5,-658 292.5,-636 163.5,-636"/>
<image xlink:href="../../images/primaryKeys.png" width="11px" height="12px" preserveAspectRatio="xMinYMin meet" x="168.5" y="-653"/>
<text text-anchor="start" x="183.5" y="-644.2" font-family="Helvetica,sans-Serif" font-size="11.00">uuid</text>
<polygon fill="#ffffff" stroke="transparent" points="163.5,-614 163.5,-636 292.5,-636 292.5,-614 163.5,-614"/>
<polygon fill="none" stroke="black" points="163.5,-614 163.5,-636 292.5,-636 292.5,-614 163.5,-614"/>
<text text-anchor="start" x="183.5" y="-622.2" font-family="Helvetica,sans-Serif" font-size="11.00">geom</text>
<polygon fill="#ffffff" stroke="transparent" points="163.5,-592 163.5,-614 292.5,-614 292.5,-592 163.5,-592"/>
<polygon fill="none" stroke="black" points="163.5,-592 163.5,-614 292.5,-614 292.5,-592 163.5,-592"/>
<text text-anchor="start" x="183.5" y="-600.2" font-family="Helvetica,sans-Serif" font-size="11.00">revisie_frequentie</text>
<polygon fill="#ffffff" stroke="transparent" points="163.5,-570 163.5,-592 292.5,-592 292.5,-570 163.5,-570"/>
<polygon fill="none" stroke="black" points="163.5,-570 163.5,-592 292.5,-592 292.5,-570 163.5,-570"/>
<image xlink:href="../../images/foreignKeys.png" width="11px" height="12px" preserveAspectRatio="xMinYMin meet" x="168.5" y="-587"/>
<text text-anchor="start" x="183.5" y="-578.2" font-family="Helvetica,sans-Serif" font-size="11.00">fase_id</text>
<polygon fill="none" stroke="black" points="163.5,-552 163.5,-570 292.5,-570 292.5,-552 163.5,-552"/>
<text text-anchor="start" x="166.5" y="-558.2" font-family="Helvetica,sans-Serif" font-size="11.00">...</text>
<polygon fill="#ffffff" stroke="transparent" points="163.5,-534 163.5,-552 217.5,-552 217.5,-534 163.5,-534"/>
<polygon fill="none" stroke="black" points="163.5,-534 163.5,-552 217.5,-552 217.5,-534 163.5,-534"/>
<text text-anchor="start" x="166.5" y="-540.2" font-family="Helvetica,sans-Serif" font-size="11.00">&lt; 1</text>
<polygon fill="#ffffff" stroke="transparent" points="217.5,-534 217.5,-552 245.5,-552 245.5,-534 217.5,-534"/>
<polygon fill="none" stroke="black" points="217.5,-534 217.5,-552 245.5,-552 245.5,-534 217.5,-534"/>
<text text-anchor="start" x="234.5" y="-540.2" font-family="Helvetica,sans-Serif" font-size="11.00"> &#160;</text>
<polygon fill="#ffffff" stroke="transparent" points="245.5,-534 245.5,-552 292.5,-552 292.5,-534 245.5,-534"/>
<polygon fill="none" stroke="black" points="245.5,-534 245.5,-552 292.5,-552 292.5,-534 245.5,-534"/>
<text text-anchor="start" x="262.5" y="-540.2" font-family="Helvetica,sans-Serif" font-size="11.00">10 &gt;</text>
</a>
</g>
</g>
<!-- bereikbaarheid&#45;&gt;object -->
<g id="edge1" class="edge">
<title>bereikbaarheid:w&#45;&gt;object:e</title>
<path fill="none" stroke="black" d="M393.61,-1002.35C369.22,-999.88 356.67,-989.93 340,-966 299.04,-907.23 365.14,-647 293.5,-647"/>
<polygon fill="black" stroke="black" points="400.01,-1002.64 407.84,-1006.6 404,-1002.82 408,-1003 408,-1003 408,-1003 404,-1002.82 408.16,-999.4 400.01,-1002.64 400.01,-1002.64"/>
<ellipse fill="none" stroke="black" cx="396.81" cy="-1002.5" rx="3.2" ry="3.2"/>
</g>
<!-- roi.fase -->
<g id="node5" class="node">
<title>roi.fase</title>
<g id="a_node5"><a xlink:href="../../../roi/tables/fase.html" xlink:title="roi.fase" target="_top">
<polygon fill="#ffffff" stroke="transparent" points="8,-554 8,-612 107,-612 107,-554 8,-554"/>
<polygon fill="#f5f5f5" stroke="transparent" points="8.5,-590 8.5,-612 107.5,-612 107.5,-590 8.5,-590"/>
<polygon fill="none" stroke="black" points="8.5,-590 8.5,-612 107.5,-612 107.5,-590 8.5,-590"/>
<text text-anchor="start" x="13.5" y="-599.2" font-family="Helvetica,sans-Serif" font-weight="bold" font-size="11.00">roi.fase</text>
<text text-anchor="start" x="65.5" y="-598.2" font-family="Helvetica,sans-Serif" font-size="11.00">[table]</text>
<polygon fill="none" stroke="black" points="8.5,-572 8.5,-590 107.5,-590 107.5,-572 8.5,-572"/>
<text text-anchor="start" x="11.5" y="-578.2" font-family="Helvetica,sans-Serif" font-size="11.00">...</text>
<polygon fill="#ffffff" stroke="transparent" points="8.5,-554 8.5,-572 44.5,-572 44.5,-554 8.5,-554"/>
<polygon fill="none" stroke="black" points="8.5,-554 8.5,-572 44.5,-572 44.5,-554 8.5,-554"/>
<text text-anchor="start" x="11.5" y="-560.2" font-family="Helvetica,sans-Serif" font-size="11.00"> &#160;</text>
<polygon fill="#ffffff" stroke="transparent" points="44.5,-554 44.5,-572 69.5,-572 69.5,-554 44.5,-554"/>
<polygon fill="none" stroke="black" points="44.5,-554 44.5,-572 69.5,-572 69.5,-554 44.5,-554"/>
<text text-anchor="start" x="58.5" y="-560.2" font-family="Helvetica,sans-Serif" font-size="11.00"> &#160;</text>
<polygon fill="#ffffff" stroke="transparent" points="69.5,-554 69.5,-572 107.5,-572 107.5,-554 69.5,-554"/>
<polygon fill="none" stroke="black" points="69.5,-554 69.5,-572 107.5,-572 107.5,-554 69.5,-554"/>
<text text-anchor="start" x="84.5" y="-560.2" font-family="Helvetica,sans-Serif" font-size="11.00">1 &gt;</text>
</a>
</g>
</g>
<!-- object&#45;&gt;roi.fase -->
<g id="edge4" class="edge">
<title>object:w&#45;&gt;roi.fase:e</title>
<path fill="none" stroke="black" d="M147.72,-581C134.54,-581 126.69,-581 108.5,-581"/>
<polygon fill="black" stroke="black" points="154.5,-581 162.5,-584.6 158.5,-581 162.5,-581 162.5,-581 162.5,-581 158.5,-581 162.5,-577.4 154.5,-581 154.5,-581"/>
<ellipse fill="none" stroke="black" cx="151.3" cy="-581" rx="3.2" ry="3.2"/>
</g>
<!-- gevaarlijkestof -->
<g id="node3" class="node">
<title>gevaarlijkestof</title>
<g id="a_node3"><a xlink:href="../../tables/gevaarlijkestof.html" xlink:title="gevaarlijkestof" target="_top">
<polygon fill="#ffffff" stroke="transparent" points="409,-897 409,-955 553,-955 553,-897 409,-897"/>
<polygon fill="#f5f5f5" stroke="transparent" points="409,-933 409,-955 553,-955 553,-933 409,-933"/>
<polygon fill="none" stroke="black" points="409,-933 409,-955 553,-955 553,-933 409,-933"/>
<text text-anchor="start" x="414" y="-942.2" font-family="Helvetica,sans-Serif" font-weight="bold" font-size="11.00">gevaarlijkestof</text>
<text text-anchor="start" x="511" y="-941.2" font-family="Helvetica,sans-Serif" font-size="11.00">[table]</text>
<polygon fill="none" stroke="black" points="409,-915 409,-933 553,-933 553,-915 409,-915"/>
<text text-anchor="start" x="412" y="-921.2" font-family="Helvetica,sans-Serif" font-size="11.00">...</text>
<polygon fill="#ffffff" stroke="transparent" points="409,-897 409,-915 480,-915 480,-897 409,-897"/>
<polygon fill="none" stroke="black" points="409,-897 409,-915 480,-915 480,-897 409,-897"/>
<text text-anchor="start" x="412" y="-903.2" font-family="Helvetica,sans-Serif" font-size="11.00">&lt; 1</text>
<polygon fill="#ffffff" stroke="transparent" points="480,-897 480,-915 516,-915 516,-897 480,-897"/>
<polygon fill="none" stroke="black" points="480,-897 480,-915 516,-915 516,-897 480,-897"/>
<text text-anchor="start" x="505" y="-903.2" font-family="Helvetica,sans-Serif" font-size="11.00"> &#160;</text>
<polygon fill="#ffffff" stroke="transparent" points="516,-897 516,-915 553,-915 553,-897 516,-897"/>
<polygon fill="none" stroke="black" points="516,-897 516,-915 553,-915 553,-897 516,-897"/>
<text text-anchor="start" x="542" y="-903.2" font-family="Helvetica,sans-Serif" font-size="11.00"> &#160;</text>
</a>
</g>
</g>
<!-- gevaarlijkestof&#45;&gt;object -->
<g id="edge2" class="edge">
<title>gevaarlijkestof:w&#45;&gt;object:e</title>
<path fill="none" stroke="black" d="M393.31,-923.29C369.27,-920.66 357.15,-910.42 340,-887 275.82,-799.33 402.15,-647 293.5,-647"/>
<polygon fill="black" stroke="black" points="400.01,-923.61 407.83,-927.6 404,-923.81 408,-924 408,-924 408,-924 404,-923.81 408.17,-920.4 400.01,-923.61 400.01,-923.61"/>
<ellipse fill="none" stroke="black" cx="396.81" cy="-923.46" rx="3.2" ry="3.2"/>
</g>
<!-- label -->
<g id="node4" class="node">
<title>label</title>
<g id="a_node4"><a xlink:href="../../tables/label.html" xlink:title="label" target="_top">
<polygon fill="#ffffff" stroke="transparent" points="440,-818 440,-876 522,-876 522,-818 440,-818"/>
<polygon fill="#f5f5f5" stroke="transparent" points="440,-854 440,-876 522,-876 522,-854 440,-854"/>
<polygon fill="none" stroke="black" points="440,-854 440,-876 522,-876 522,-854 440,-854"/>
<text text-anchor="start" x="445" y="-863.2" font-family="Helvetica,sans-Serif" font-weight="bold" font-size="11.00">label</text>
<text text-anchor="start" x="480" y="-862.2" font-family="Helvetica,sans-Serif" font-size="11.00">[table]</text>
<polygon fill="none" stroke="black" points="440,-836 440,-854 522,-854 522,-836 440,-836"/>
<text text-anchor="start" x="443" y="-842.2" font-family="Helvetica,sans-Serif" font-size="11.00">...</text>
<polygon fill="#ffffff" stroke="transparent" points="440,-818 440,-836 480,-836 480,-818 440,-818"/>
<polygon fill="none" stroke="black" points="440,-818 440,-836 480,-836 480,-818 440,-818"/>
<text text-anchor="start" x="443" y="-824.2" font-family="Helvetica,sans-Serif" font-size="11.00">&lt; 2</text>
<polygon fill="#ffffff" stroke="transparent" points="480,-818 480,-836 501,-836 501,-818 480,-818"/>
<polygon fill="none" stroke="black" points="480,-818 480,-836 501,-836 501,-818 480,-818"/>
<text text-anchor="start" x="490" y="-824.2" font-family="Helvetica,sans-Serif" font-size="11.00"> &#160;</text>
<polygon fill="#ffffff" stroke="transparent" points="501,-818 501,-836 522,-836 522,-818 501,-818"/>
<polygon fill="none" stroke="black" points="501,-818 501,-836 522,-836 522,-818 501,-818"/>
<text text-anchor="start" x="511" y="-824.2" font-family="Helvetica,sans-Serif" font-size="11.00"> &#160;</text>
</a>
</g>
</g>
<!-- label&#45;&gt;object -->
<g id="edge3" class="edge">
<title>label:w&#45;&gt;object:e</title>
<path fill="none" stroke="black" d="M424.5,-844.87C387.49,-844.06 368.43,-838.69 340,-808 289.39,-753.36 367.98,-647 293.5,-647"/>
<polygon fill="black" stroke="black" points="431,-844.93 438.97,-848.6 435,-844.96 439,-845 439,-845 439,-845 435,-844.96 439.03,-841.4 431,-844.93 431,-844.93"/>
<ellipse fill="none" stroke="black" cx="427.8" cy="-844.9" rx="3.2" ry="3.2"/>
</g>
<!-- opstelplaats -->
<g id="node6" class="node">
<title>opstelplaats</title>
<g id="a_node6"><a xlink:href="../../tables/opstelplaats.html" xlink:title="opstelplaats" target="_top">
<polygon fill="#ffffff" stroke="transparent" points="417,-739 417,-797 545,-797 545,-739 417,-739"/>
<polygon fill="#f5f5f5" stroke="transparent" points="417,-775 417,-797 545,-797 545,-775 417,-775"/>
<polygon fill="none" stroke="black" points="417,-775 417,-797 545,-797 545,-775 417,-775"/>
<text text-anchor="start" x="422" y="-784.2" font-family="Helvetica,sans-Serif" font-weight="bold" font-size="11.00">opstelplaats</text>
<text text-anchor="start" x="503" y="-783.2" font-family="Helvetica,sans-Serif" font-size="11.00">[table]</text>
<polygon fill="none" stroke="black" points="417,-757 417,-775 545,-775 545,-757 417,-757"/>
<text text-anchor="start" x="420" y="-763.2" font-family="Helvetica,sans-Serif" font-size="11.00">...</text>
<polygon fill="#ffffff" stroke="transparent" points="417,-739 417,-757 480,-757 480,-739 417,-739"/>
<polygon fill="none" stroke="black" points="417,-739 417,-757 480,-757 480,-739 417,-739"/>
<text text-anchor="start" x="420" y="-745.2" font-family="Helvetica,sans-Serif" font-size="11.00">&lt; 2</text>
<polygon fill="#ffffff" stroke="transparent" points="480,-739 480,-757 512,-757 512,-739 480,-739"/>
<polygon fill="none" stroke="black" points="480,-739 480,-757 512,-757 512,-739 480,-739"/>
<text text-anchor="start" x="501" y="-745.2" font-family="Helvetica,sans-Serif" font-size="11.00"> &#160;</text>
<polygon fill="#ffffff" stroke="transparent" points="512,-739 512,-757 545,-757 545,-739 512,-739"/>
<polygon fill="none" stroke="black" points="512,-739 512,-757 545,-757 545,-739 512,-739"/>
<text text-anchor="start" x="534" y="-745.2" font-family="Helvetica,sans-Serif" font-size="11.00"> &#160;</text>
</a>
</g>
</g>
<!-- opstelplaats&#45;&gt;object -->
<g id="edge5" class="edge">
<title>opstelplaats:w&#45;&gt;object:e</title>
<path fill="none" stroke="black" d="M401.61,-765.32C375,-762.54 363.53,-751.1 340,-729 309.46,-700.32 335.4,-647 293.5,-647"/>
<polygon fill="black" stroke="black" points="408.01,-765.62 415.83,-769.6 412,-765.81 416,-766 416,-766 416,-766 412,-765.81 416.17,-762.4 408.01,-765.62 408.01,-765.62"/>
<ellipse fill="none" stroke="black" cx="404.81" cy="-765.47" rx="3.2" ry="3.2"/>
</g>
<!-- pand -->
<g id="node7" class="node">
<title>pand</title>
<g id="a_node7"><a xlink:href="../../tables/pand.html" xlink:title="pand" target="_top">
<polygon fill="#ffffff" stroke="transparent" points="440,-660 440,-718 522,-718 522,-660 440,-660"/>
<polygon fill="#f5f5f5" stroke="transparent" points="440,-696 440,-718 522,-718 522,-696 440,-696"/>
<polygon fill="none" stroke="black" points="440,-696 440,-718 522,-718 522,-696 440,-696"/>
<text text-anchor="start" x="445" y="-705.2" font-family="Helvetica,sans-Serif" font-weight="bold" font-size="11.00">pand</text>
<text text-anchor="start" x="480" y="-704.2" font-family="Helvetica,sans-Serif" font-size="11.00">[table]</text>
<polygon fill="none" stroke="black" points="440,-678 440,-696 522,-696 522,-678 440,-678"/>
<text text-anchor="start" x="443" y="-684.2" font-family="Helvetica,sans-Serif" font-size="11.00">...</text>
<polygon fill="#ffffff" stroke="transparent" points="440,-660 440,-678 480,-678 480,-660 440,-660"/>
<polygon fill="none" stroke="black" points="440,-660 440,-678 480,-678 480,-660 440,-660"/>
<text text-anchor="start" x="443" y="-666.2" font-family="Helvetica,sans-Serif" font-size="11.00">&lt; 1</text>
<polygon fill="#ffffff" stroke="transparent" points="480,-660 480,-678 501,-678 501,-660 480,-660"/>
<polygon fill="none" stroke="black" points="480,-660 480,-678 501,-678 501,-660 480,-660"/>
<text text-anchor="start" x="490" y="-666.2" font-family="Helvetica,sans-Serif" font-size="11.00"> &#160;</text>
<polygon fill="#ffffff" stroke="transparent" points="501,-660 501,-678 522,-678 522,-660 501,-660"/>
<polygon fill="none" stroke="black" points="501,-660 501,-678 522,-678 522,-660 501,-660"/>
<text text-anchor="start" x="511" y="-666.2" font-family="Helvetica,sans-Serif" font-size="11.00"> &#160;</text>
</a>
</g>
</g>
<!-- pand&#45;&gt;object -->
<g id="edge6" class="edge">
<title>pand:w&#45;&gt;object:e</title>
<path fill="none" stroke="black" d="M424.59,-686.34C369.88,-681.14 355.46,-647 293.5,-647"/>
<polygon fill="black" stroke="black" points="431.01,-686.63 438.83,-690.6 435,-686.82 439,-687 439,-687 439,-687 435,-686.82 439.17,-683.4 431.01,-686.63 431.01,-686.63"/>
<ellipse fill="none" stroke="black" cx="427.81" cy="-686.49" rx="3.2" ry="3.2"/>
</g>
<!-- risico -->
<g id="node8" class="node">
<title>risico</title>
<g id="a_node8"><a xlink:href="../../tables/risico.html" xlink:title="risico" target="_top">
<polygon fill="#ffffff" stroke="transparent" points="438.5,-581 438.5,-639 523.5,-639 523.5,-581 438.5,-581"/>
<polygon fill="#f5f5f5" stroke="transparent" points="439,-617 439,-639 524,-639 524,-617 439,-617"/>
<polygon fill="none" stroke="black" points="439,-617 439,-639 524,-639 524,-617 439,-617"/>
<text text-anchor="start" x="444" y="-626.2" font-family="Helvetica,sans-Serif" font-weight="bold" font-size="11.00">risico</text>
<text text-anchor="start" x="482" y="-625.2" font-family="Helvetica,sans-Serif" font-size="11.00">[table]</text>
<polygon fill="none" stroke="black" points="439,-599 439,-617 524,-617 524,-599 439,-599"/>
<text text-anchor="start" x="442" y="-605.2" font-family="Helvetica,sans-Serif" font-size="11.00">...</text>
<polygon fill="#ffffff" stroke="transparent" points="439,-581 439,-599 480,-599 480,-581 439,-581"/>
<polygon fill="none" stroke="black" points="439,-581 439,-599 480,-599 480,-581 439,-581"/>
<text text-anchor="start" x="442" y="-587.2" font-family="Helvetica,sans-Serif" font-size="11.00">&lt; 1</text>
<polygon fill="#ffffff" stroke="transparent" points="480,-581 480,-599 502,-599 502,-581 480,-581"/>
<polygon fill="none" stroke="black" points="480,-581 480,-599 502,-599 502,-581 480,-581"/>
<text text-anchor="start" x="491" y="-587.2" font-family="Helvetica,sans-Serif" font-size="11.00"> &#160;</text>
<polygon fill="#ffffff" stroke="transparent" points="502,-581 502,-599 524,-599 524,-581 502,-581"/>
<polygon fill="none" stroke="black" points="502,-581 502,-599 524,-599 524,-581 502,-581"/>
<text text-anchor="start" x="513" y="-587.2" font-family="Helvetica,sans-Serif" font-size="11.00"> &#160;</text>
</a>
</g>
</g>
<!-- risico&#45;&gt;object -->
<g id="edge7" class="edge">
<title>risico:w&#45;&gt;object:e</title>
<path fill="none" stroke="black" d="M423.37,-608.68C369.35,-613.86 354.82,-647 293.5,-647"/>
<polygon fill="black" stroke="black" points="430.01,-608.37 438.17,-611.6 434,-608.18 438,-608 438,-608 438,-608 434,-608.18 437.83,-604.4 430.01,-608.37 430.01,-608.37"/>
<ellipse fill="none" stroke="black" cx="426.81" cy="-608.52" rx="3.2" ry="3.2"/>
</g>
<!-- scenario -->
<g id="node9" class="node">
<title>scenario</title>
<g id="a_node9"><a xlink:href="../../tables/scenario.html" xlink:title="scenario" target="_top">
<polygon fill="#ffffff" stroke="transparent" points="429,-502 429,-560 533,-560 533,-502 429,-502"/>
<polygon fill="#f5f5f5" stroke="transparent" points="429,-538 429,-560 533,-560 533,-538 429,-538"/>
<polygon fill="none" stroke="black" points="429,-538 429,-560 533,-560 533,-538 429,-538"/>
<text text-anchor="start" x="434" y="-547.2" font-family="Helvetica,sans-Serif" font-weight="bold" font-size="11.00">scenario</text>
<text text-anchor="start" x="491" y="-546.2" font-family="Helvetica,sans-Serif" font-size="11.00">[table]</text>
<polygon fill="none" stroke="black" points="429,-520 429,-538 533,-538 533,-520 429,-520"/>
<text text-anchor="start" x="432" y="-526.2" font-family="Helvetica,sans-Serif" font-size="11.00">...</text>
<polygon fill="#ffffff" stroke="transparent" points="429,-502 429,-520 480,-520 480,-502 429,-502"/>
<polygon fill="none" stroke="black" points="429,-502 429,-520 480,-520 480,-502 429,-502"/>
<text text-anchor="start" x="432" y="-508.2" font-family="Helvetica,sans-Serif" font-size="11.00">&lt; 2</text>
<polygon fill="#ffffff" stroke="transparent" points="480,-502 480,-520 506,-520 506,-502 480,-502"/>
<polygon fill="none" stroke="black" points="480,-502 480,-520 506,-520 506,-502 480,-502"/>
<text text-anchor="start" x="495" y="-508.2" font-family="Helvetica,sans-Serif" font-size="11.00"> &#160;</text>
<polygon fill="#ffffff" stroke="transparent" points="506,-502 506,-520 533,-520 533,-502 506,-502"/>
<polygon fill="none" stroke="black" points="506,-502 506,-520 533,-520 533,-502 506,-502"/>
<text text-anchor="start" x="522" y="-508.2" font-family="Helvetica,sans-Serif" font-size="11.00"> &#160;</text>
</a>
</g>
</g>
<!-- scenario&#45;&gt;object -->
<g id="edge8" class="edge">
<title>scenario:w&#45;&gt;object:e</title>
<path fill="none" stroke="black" d="M413.52,-529.58C381.35,-532.38 368.29,-545.5 340,-571 310.58,-597.51 333.1,-647 293.5,-647"/>
<polygon fill="black" stroke="black" points="420.01,-529.32 428.14,-532.6 424,-529.16 428,-529 428,-529 428,-529 424,-529.16 427.86,-525.4 420.01,-529.32 420.01,-529.32"/>
<ellipse fill="none" stroke="black" cx="416.81" cy="-529.45" rx="3.2" ry="3.2"/>
</g>
<!-- scheiding -->
<g id="node10" class="node">
<title>scheiding</title>
<g id="a_node10"><a xlink:href="../../tables/scheiding.html" xlink:title="scheiding" target="_top">
<polygon fill="#ffffff" stroke="transparent" points="348,-37 348,-323 614,-323 614,-37 348,-37"/>
<polygon fill="#f5f5f5" stroke="transparent" points="350,-299 350,-321 612,-321 612,-299 350,-299"/>
<polygon fill="none" stroke="black" points="350,-299 350,-321 612,-321 612,-299 350,-299"/>
<text text-anchor="start" x="355" y="-308.2" font-family="Helvetica,sans-Serif" font-weight="bold" font-size="11.00">scheiding</text>
<text text-anchor="start" x="570" y="-307.2" font-family="Helvetica,sans-Serif" font-size="11.00">[table]</text>
<polygon fill="none" stroke="black" points="350,-277 350,-299 476,-299 476,-277 350,-277"/>
<image xlink:href="../../images/primaryKeys.png" width="11px" height="12px" preserveAspectRatio="xMinYMin meet" x="355" y="-294"/>
<text text-anchor="start" x="370" y="-285.2" font-family="Helvetica,sans-Serif" font-size="11.00">uuid</text>
<polygon fill="none" stroke="black" points="476,-277 476,-299 612,-299 612,-277 476,-277"/>
<text text-anchor="start" x="479" y="-285.2" font-family="Helvetica,sans-Serif" font-size="11.00">uuid[2147483647]</text>
<polygon fill="#ffffff" stroke="transparent" points="350,-255 350,-277 476,-277 476,-255 350,-255"/>
<polygon fill="none" stroke="black" points="350,-255 350,-277 476,-277 476,-255 350,-255"/>
<text text-anchor="start" x="370" y="-263.2" font-family="Helvetica,sans-Serif" font-size="11.00">geom</text>
<polygon fill="none" stroke="black" points="476,-255 476,-277 612,-277 612,-255 476,-255"/>
<text text-anchor="start" x="479" y="-263.2" font-family="Helvetica,sans-Serif" font-size="11.00">geometry[2147483647]</text>
<polygon fill="none" stroke="black" points="350,-233 350,-255 476,-255 476,-233 350,-233"/>
<text text-anchor="start" x="370" y="-241.2" font-family="Helvetica,sans-Serif" font-size="11.00">datumtijd</text>
<polygon fill="none" stroke="black" points="476,-233 476,-255 612,-255 612,-233 476,-233"/>
<text text-anchor="start" x="479" y="-241.2" font-family="Helvetica,sans-Serif" font-size="11.00">timestamptz[35,6]</text>
<polygon fill="none" stroke="black" points="350,-211 350,-233 476,-233 476,-211 350,-211"/>
<text text-anchor="start" x="370" y="-219.2" font-family="Helvetica,sans-Serif" font-size="11.00">gebruiker</text>
<polygon fill="none" stroke="black" points="476,-211 476,-233 612,-233 612,-211 476,-211"/>
<text text-anchor="start" x="479" y="-219.2" font-family="Helvetica,sans-Serif" font-size="11.00">varchar[255]</text>
<polygon fill="none" stroke="black" points="350,-189 350,-211 476,-211 476,-189 350,-189"/>
<text text-anchor="start" x="370" y="-197.2" font-family="Helvetica,sans-Serif" font-size="11.00">label</text>
<polygon fill="none" stroke="black" points="476,-189 476,-211 612,-211 612,-189 476,-189"/>
<text text-anchor="start" x="479" y="-197.2" font-family="Helvetica,sans-Serif" font-size="11.00">text[2147483647]</text>
<polygon fill="none" stroke="black" points="350,-167 350,-189 476,-189 476,-167 350,-167"/>
<text text-anchor="start" x="370" y="-175.2" font-family="Helvetica,sans-Serif" font-size="11.00">rotatie</text>
<polygon fill="none" stroke="black" points="476,-167 476,-189 612,-189 612,-167 476,-167"/>
<text text-anchor="start" x="479" y="-175.2" font-family="Helvetica,sans-Serif" font-size="11.00">int4[10]</text>
<polygon fill="none" stroke="black" points="350,-145 350,-167 476,-167 476,-145 350,-145"/>
<text text-anchor="start" x="370" y="-153.2" font-family="Helvetica,sans-Serif" font-size="11.00">bijzonderheden</text>
<polygon fill="none" stroke="black" points="476,-145 476,-167 612,-167 612,-145 476,-145"/>
<text text-anchor="start" x="479" y="-153.2" font-family="Helvetica,sans-Serif" font-size="11.00">text[2147483647]</text>
<polygon fill="none" stroke="black" points="350,-123 350,-145 476,-145 476,-123 350,-123"/>
<text text-anchor="start" x="370" y="-131.2" font-family="Helvetica,sans-Serif" font-size="11.00">plusinfo</text>
<polygon fill="none" stroke="black" points="476,-123 476,-145 612,-145 612,-123 476,-123"/>
<text text-anchor="start" x="479" y="-131.2" font-family="Helvetica,sans-Serif" font-size="11.00">jsonb[2147483647]</text>
<polygon fill="#ffffff" stroke="transparent" points="350,-101 350,-123 476,-123 476,-101 350,-101"/>
<polygon fill="none" stroke="black" points="350,-101 350,-123 476,-123 476,-101 350,-101"/>
<image xlink:href="../../images/foreignKeys.png" width="11px" height="12px" preserveAspectRatio="xMinYMin meet" x="355" y="-118"/>
<text text-anchor="start" x="370" y="-109.2" font-family="Helvetica,sans-Serif" font-size="11.00">object_uuid</text>
<polygon fill="none" stroke="black" points="476,-101 476,-123 612,-123 612,-101 476,-101"/>
<text text-anchor="start" x="479" y="-109.2" font-family="Helvetica,sans-Serif" font-size="11.00">uuid[2147483647]</text>
<polygon fill="none" stroke="black" points="350,-79 350,-101 476,-101 476,-79 350,-79"/>
<image xlink:href="../../images/foreignKeys.png" width="11px" height="12px" preserveAspectRatio="xMinYMin meet" x="355" y="-96"/>
<text text-anchor="start" x="370" y="-87.2" font-family="Helvetica,sans-Serif" font-size="11.00">scheiding_type_id</text>
<polygon fill="none" stroke="black" points="476,-79 476,-101 612,-101 612,-79 476,-79"/>
<text text-anchor="start" x="479" y="-87.2" font-family="Helvetica,sans-Serif" font-size="11.00">int2[5]</text>
<polygon fill="#ffffff" stroke="transparent" points="350,-57 350,-79 476,-79 476,-57 350,-57"/>
<polygon fill="none" stroke="black" points="350,-57 350,-79 476,-79 476,-57 350,-57"/>
<text text-anchor="start" x="370" y="-65.2" font-family="Helvetica,sans-Serif" font-size="11.00">bouwlaag</text>
<polygon fill="none" stroke="black" points="476,-57 476,-79 612,-79 612,-57 476,-57"/>
<text text-anchor="start" x="479" y="-65.2" font-family="Helvetica,sans-Serif" font-size="11.00">int2[5]</text>
<polygon fill="#ffffff" stroke="transparent" points="350,-39 350,-57 419,-57 419,-39 350,-39"/>
<polygon fill="none" stroke="black" points="350,-39 350,-57 419,-57 419,-39 350,-39"/>
<text text-anchor="start" x="353" y="-45.2" font-family="Helvetica,sans-Serif" font-size="11.00">&lt; 2</text>
<polygon fill="#ffffff" stroke="transparent" points="419,-39 419,-57 476,-57 476,-39 419,-39"/>
<polygon fill="none" stroke="black" points="419,-39 419,-57 476,-57 476,-39 419,-39"/>
<text text-anchor="start" x="465" y="-45.2" font-family="Helvetica,sans-Serif" font-size="11.00"> &#160;</text>
<polygon fill="#ffffff" stroke="transparent" points="476,-39 476,-57 612,-57 612,-39 476,-39"/>
<polygon fill="none" stroke="black" points="476,-39 476,-57 612,-57 612,-39 476,-39"/>
<text text-anchor="start" x="589" y="-45.2" font-family="Helvetica,sans-Serif" font-size="11.00">0 &gt;</text>
<polygon fill="none" stroke="black" stroke-width="2" points="349,-38 349,-322 613,-322 613,-38 349,-38"/>
</a>
</g>
</g>
<!-- scheiding&#45;&gt;object -->
<g id="edge9" class="edge">
<title>scheiding:w&#45;&gt;object:e</title>
<path fill="none" stroke="black" d="M334.67,-115.14C245.35,-158.99 407.66,-647 293.5,-647"/>
<polygon fill="black" stroke="black" points="341.19,-113.71 349.77,-115.52 345.09,-112.86 349,-112 349,-112 349,-112 345.09,-112.86 348.23,-108.48 341.19,-113.71 341.19,-113.71"/>
<ellipse fill="none" stroke="black" cx="338.06" cy="-114.4" rx="3.2" ry="3.2"/>
</g>
<!-- scheiding_type -->
<g id="node11" class="node">
<title>scheiding_type</title>
<g id="a_node11"><a xlink:href="../../tables/scheiding_type.html" xlink:title="scheiding_type" target="_top">
<polygon fill="#ffffff" stroke="transparent" points="156,-43 156,-123 299,-123 299,-43 156,-43"/>
<polygon fill="#f5f5f5" stroke="transparent" points="156.5,-101 156.5,-123 299.5,-123 299.5,-101 156.5,-101"/>
<polygon fill="none" stroke="black" points="156.5,-101 156.5,-123 299.5,-123 299.5,-101 156.5,-101"/>
<text text-anchor="start" x="161.5" y="-110.2" font-family="Helvetica,sans-Serif" font-weight="bold" font-size="11.00">scheiding_type</text>
<text text-anchor="start" x="257.5" y="-109.2" font-family="Helvetica,sans-Serif" font-size="11.00">[table]</text>
<polygon fill="none" stroke="black" points="156.5,-79 156.5,-101 299.5,-101 299.5,-79 156.5,-79"/>
<image xlink:href="../../images/primaryKeys.png" width="11px" height="12px" preserveAspectRatio="xMinYMin meet" x="161.5" y="-96"/>
<text text-anchor="start" x="193.5" y="-87.2" font-family="Helvetica,sans-Serif" font-size="11.00">id</text>
<polygon fill="none" stroke="black" points="156.5,-61 156.5,-79 299.5,-79 299.5,-61 156.5,-61"/>
<text text-anchor="start" x="159.5" y="-67.2" font-family="Helvetica,sans-Serif" font-size="11.00">...</text>
<polygon fill="#ffffff" stroke="transparent" points="156.5,-43 156.5,-61 214.5,-61 214.5,-43 156.5,-43"/>
<polygon fill="none" stroke="black" points="156.5,-43 156.5,-61 214.5,-61 214.5,-43 156.5,-43"/>
<text text-anchor="start" x="159.5" y="-49.2" font-family="Helvetica,sans-Serif" font-size="11.00"> &#160;</text>
<polygon fill="#ffffff" stroke="transparent" points="214.5,-43 214.5,-61 250.5,-61 250.5,-43 214.5,-43"/>
<polygon fill="none" stroke="black" points="214.5,-43 214.5,-61 250.5,-61 250.5,-43 214.5,-43"/>
<text text-anchor="start" x="239.5" y="-49.2" font-family="Helvetica,sans-Serif" font-size="11.00"> &#160;</text>
<polygon fill="#ffffff" stroke="transparent" points="250.5,-43 250.5,-61 299.5,-61 299.5,-43 250.5,-43"/>
<polygon fill="none" stroke="black" points="250.5,-43 250.5,-61 299.5,-61 299.5,-43 250.5,-43"/>
<text text-anchor="start" x="276.5" y="-49.2" font-family="Helvetica,sans-Serif" font-size="11.00">1 &gt;</text>
</a>
</g>
</g>
<!-- scheiding&#45;&gt;scheiding_type -->
<g id="edge10" class="edge">
<title>scheiding:w&#45;&gt;scheiding_type:e</title>
<path fill="none" stroke="black" d="M334.28,-90C323.29,-90 316.16,-90 300.5,-90"/>
<polygon fill="black" stroke="black" points="341,-90 349,-93.6 345,-90 349,-90 349,-90 349,-90 345,-90 349,-86.4 341,-90 341,-90"/>
<ellipse fill="none" stroke="black" cx="337.8" cy="-90" rx="3.2" ry="3.2"/>
</g>
<!-- sector -->
<g id="node12" class="node">
<title>sector</title>
<g id="a_node12"><a xlink:href="../../tables/sector.html" xlink:title="sector" target="_top">
<polygon fill="#ffffff" stroke="transparent" points="435.5,-423 435.5,-481 526.5,-481 526.5,-423 435.5,-423"/>
<polygon fill="#f5f5f5" stroke="transparent" points="436,-459 436,-481 527,-481 527,-459 436,-459"/>
<polygon fill="none" stroke="black" points="436,-459 436,-481 527,-481 527,-459 436,-459"/>
<text text-anchor="start" x="441" y="-468.2" font-family="Helvetica,sans-Serif" font-weight="bold" font-size="11.00">sector</text>
<text text-anchor="start" x="485" y="-467.2" font-family="Helvetica,sans-Serif" font-size="11.00">[table]</text>
<polygon fill="none" stroke="black" points="436,-441 436,-459 527,-459 527,-441 436,-441"/>
<text text-anchor="start" x="439" y="-447.2" font-family="Helvetica,sans-Serif" font-size="11.00">...</text>
<polygon fill="#ffffff" stroke="transparent" points="436,-423 436,-441 480,-441 480,-423 436,-423"/>
<polygon fill="none" stroke="black" points="436,-423 436,-441 480,-441 480,-423 436,-423"/>
<text text-anchor="start" x="439" y="-429.2" font-family="Helvetica,sans-Serif" font-size="11.00">&lt; 2</text>
<polygon fill="#ffffff" stroke="transparent" points="480,-423 480,-441 503,-441 503,-423 480,-423"/>
<polygon fill="none" stroke="black" points="480,-423 480,-441 503,-441 503,-423 480,-423"/>
<text text-anchor="start" x="492" y="-429.2" font-family="Helvetica,sans-Serif" font-size="11.00"> &#160;</text>
<polygon fill="#ffffff" stroke="transparent" points="503,-423 503,-441 527,-441 527,-423 503,-423"/>
<polygon fill="none" stroke="black" points="503,-423 503,-441 527,-441 527,-423 503,-423"/>
<text text-anchor="start" x="516" y="-429.2" font-family="Helvetica,sans-Serif" font-size="11.00"> &#160;</text>
</a>
</g>
</g>
<!-- sector&#45;&gt;object -->
<g id="edge11" class="edge">
<title>sector:w&#45;&gt;object:e</title>
<path fill="none" stroke="black" d="M420.33,-450.31C384.53,-452.02 367.08,-461.31 340,-492 292.41,-545.93 365.42,-647 293.5,-647"/>
<polygon fill="black" stroke="black" points="427,-450.17 435.08,-453.6 431,-450.09 435,-450 435,-450 435,-450 431,-450.09 434.92,-446.4 427,-450.17 427,-450.17"/>
<ellipse fill="none" stroke="black" cx="423.8" cy="-450.24" rx="3.2" ry="3.2"/>
</g>
<!-- voorziening -->
<g id="node13" class="node">
<title>voorziening</title>
<g id="a_node13"><a xlink:href="../../tables/voorziening.html" xlink:title="voorziening" target="_top">
<polygon fill="#ffffff" stroke="transparent" points="419,-344 419,-402 543,-402 543,-344 419,-344"/>
<polygon fill="#f5f5f5" stroke="transparent" points="419,-380 419,-402 543,-402 543,-380 419,-380"/>
<polygon fill="none" stroke="black" points="419,-380 419,-402 543,-402 543,-380 419,-380"/>
<text text-anchor="start" x="424" y="-389.2" font-family="Helvetica,sans-Serif" font-weight="bold" font-size="11.00">voorziening</text>
<text text-anchor="start" x="501" y="-388.2" font-family="Helvetica,sans-Serif" font-size="11.00">[table]</text>
<polygon fill="none" stroke="black" points="419,-362 419,-380 543,-380 543,-362 419,-362"/>
<text text-anchor="start" x="422" y="-368.2" font-family="Helvetica,sans-Serif" font-size="11.00">...</text>
<polygon fill="#ffffff" stroke="transparent" points="419,-344 419,-362 480,-362 480,-344 419,-344"/>
<polygon fill="none" stroke="black" points="419,-344 419,-362 480,-362 480,-344 419,-344"/>
<text text-anchor="start" x="422" y="-350.2" font-family="Helvetica,sans-Serif" font-size="11.00">&lt; 2</text>
<polygon fill="#ffffff" stroke="transparent" points="480,-344 480,-362 511,-362 511,-344 480,-344"/>
<polygon fill="none" stroke="black" points="480,-344 480,-362 511,-362 511,-344 480,-344"/>
<text text-anchor="start" x="500" y="-350.2" font-family="Helvetica,sans-Serif" font-size="11.00"> &#160;</text>
<polygon fill="#ffffff" stroke="transparent" points="511,-344 511,-362 543,-362 543,-344 511,-344"/>
<polygon fill="none" stroke="black" points="511,-344 511,-362 543,-362 543,-344 511,-344"/>
<text text-anchor="start" x="532" y="-350.2" font-family="Helvetica,sans-Serif" font-size="11.00"> &#160;</text>
</a>
</g>
</g>
<!-- voorziening&#45;&gt;object -->
<g id="edge12" class="edge">
<title>voorziening:w&#45;&gt;object:e</title>
<path fill="none" stroke="black" d="M403.51,-371.57C374.44,-374.12 360.29,-385.54 340,-413 276.97,-498.27 399.53,-647 293.5,-647"/>
<polygon fill="black" stroke="black" points="410.01,-371.32 418.14,-374.6 414,-371.16 418,-371 418,-371 418,-371 414,-371.16 417.86,-367.4 410.01,-371.32 410.01,-371.32"/>
<ellipse fill="none" stroke="black" cx="406.81" cy="-371.44" rx="3.2" ry="3.2"/>
</g>
</g>
</svg>
