<?xml version="1.0" encoding="UTF-8" standalone="no"?>
<!DOCTYPE svg PUBLIC "-//W3C//DTD SVG 1.1//EN"
 "http://www.w3.org/Graphics/SVG/1.1/DTD/svg11.dtd">
<!-- Generated by graphviz version 2.40.1 (20161225.0304)
 -->
<!-- Title: oneDegreeRelationshipsDiagram Pages: 1 -->
<svg width="447pt" height="407pt"
 viewBox="0.00 0.00 447.00 406.70" xmlns="http://www.w3.org/2000/svg" xmlns:xlink="http://www.w3.org/1999/xlink">
<g id="graph0" class="graph" transform="scale(1 1) rotate(0) translate(4 402.7)">
<title>oneDegreeRelationshipsDiagram</title>
<polygon fill="#ffffff" stroke="transparent" points="-4,4 -4,-402.7 443,-402.7 443,4 -4,4"/>
<text text-anchor="middle" x="72.4936" y="-7.3" font-family="Helvetica,sans-Serif" font-size="11.00" fill="#000000">Generated by SchemaSpy</text>
<!-- scheiding -->
<g id="node1" class="node">
<title>scheiding</title>
<g id="a_node1"><a xlink:href="../../tables/scheiding.html" xlink:title="scheiding" target="_top">
<polygon fill="#ffffff" stroke="transparent" points="183,-106.7 183,-394.7 431,-394.7 431,-106.7 183,-106.7"/>
<polygon fill="#f5f5f5" stroke="transparent" points="185,-369.7 185,-392.7 429,-392.7 429,-369.7 185,-369.7"/>
<polygon fill="none" stroke="#000000" points="185,-369.7 185,-392.7 429,-392.7 429,-369.7 185,-369.7"/>
<text text-anchor="start" x="190" y="-378.3" font-family="Helvetica,sans-Serif" font-weight="bold" font-size="11.00" fill="#000000">scheiding</text>
<text text-anchor="start" x="394.0437" y="-377.8" font-family="Helvetica,sans-Serif" font-size="11.00" fill="#000000">[table]</text>
<polygon fill="none" stroke="#000000" points="185,-347.7 185,-369.7 310,-369.7 310,-347.7 185,-347.7"/>
<image xlink:href="../../images/primaryKeys.png" width="11px" height="12px" preserveAspectRatio="xMinYMin meet" x="190" y="-364.7"/>
<text text-anchor="start" x="205" y="-354.8" font-family="Helvetica,sans-Serif" font-size="11.00" fill="#000000">uuid</text>
<polygon fill="none" stroke="#000000" points="310,-347.7 310,-369.7 429,-369.7 429,-347.7 310,-347.7"/>
<text text-anchor="start" x="313" y="-355.4" font-family="Helvetica,sans-Serif" font-size="11.00" fill="#000000">uuid[2147483647]</text>
<polygon fill="#ffffff" stroke="transparent" points="185,-325.7 185,-347.7 310,-347.7 310,-325.7 185,-325.7"/>
<polygon fill="none" stroke="#000000" points="185,-325.7 185,-347.7 310,-347.7 310,-325.7 185,-325.7"/>
<text text-anchor="start" x="205" y="-332.8" font-family="Helvetica,sans-Serif" font-size="11.00" fill="#000000">geom</text>
<polygon fill="none" stroke="#000000" points="310,-325.7 310,-347.7 429,-347.7 429,-325.7 310,-325.7"/>
<text text-anchor="start" x="312.9485" y="-333.4" font-family="Helvetica,sans-Serif" font-size="11.00" fill="#000000">geometry[2147483647]</text>
<polygon fill="none" stroke="#000000" points="185,-303.7 185,-325.7 310,-325.7 310,-303.7 185,-303.7"/>
<text text-anchor="start" x="205" y="-310.8" font-family="Helvetica,sans-Serif" font-size="11.00" fill="#000000">datumtijd</text>
<polygon fill="none" stroke="#000000" points="310,-303.7 310,-325.7 429,-325.7 429,-303.7 310,-303.7"/>
<text text-anchor="start" x="313" y="-311.4" font-family="Helvetica,sans-Serif" font-size="11.00" fill="#000000">timestamptz[35,6]</text>
<polygon fill="none" stroke="#000000" points="185,-281.7 185,-303.7 310,-303.7 310,-281.7 185,-281.7"/>
<text text-anchor="start" x="205" y="-288.8" font-family="Helvetica,sans-Serif" font-size="11.00" fill="#000000">gebruiker</text>
<polygon fill="none" stroke="#000000" points="310,-281.7 310,-303.7 429,-303.7 429,-281.7 310,-281.7"/>
<text text-anchor="start" x="313" y="-289.4" font-family="Helvetica,sans-Serif" font-size="11.00" fill="#000000">varchar[255]</text>
<polygon fill="none" stroke="#000000" points="185,-259.7 185,-281.7 310,-281.7 310,-259.7 185,-259.7"/>
<text text-anchor="start" x="205" y="-266.8" font-family="Helvetica,sans-Serif" font-size="11.00" fill="#000000">label</text>
<polygon fill="none" stroke="#000000" points="310,-259.7 310,-281.7 429,-281.7 429,-259.7 310,-259.7"/>
<text text-anchor="start" x="313" y="-267.4" font-family="Helvetica,sans-Serif" font-size="11.00" fill="#000000">text[2147483647]</text>
<polygon fill="none" stroke="#000000" points="185,-237.7 185,-259.7 310,-259.7 310,-237.7 185,-237.7"/>
<text text-anchor="start" x="205" y="-244.8" font-family="Helvetica,sans-Serif" font-size="11.00" fill="#000000">rotatie</text>
<polygon fill="none" stroke="#000000" points="310,-237.7 310,-259.7 429,-259.7 429,-237.7 310,-237.7"/>
<text text-anchor="start" x="313" y="-245.4" font-family="Helvetica,sans-Serif" font-size="11.00" fill="#000000">int4[10]</text>
<polygon fill="none" stroke="#000000" points="185,-215.7 185,-237.7 310,-237.7 310,-215.7 185,-215.7"/>
<text text-anchor="start" x="205" y="-222.8" font-family="Helvetica,sans-Serif" font-size="11.00" fill="#000000">bijzonderheden</text>
<polygon fill="none" stroke="#000000" points="310,-215.7 310,-237.7 429,-237.7 429,-215.7 310,-215.7"/>
<text text-anchor="start" x="313" y="-223.4" font-family="Helvetica,sans-Serif" font-size="11.00" fill="#000000">text[2147483647]</text>
<polygon fill="none" stroke="#000000" points="185,-193.7 185,-215.7 310,-215.7 310,-193.7 185,-193.7"/>
<text text-anchor="start" x="205" y="-200.8" font-family="Helvetica,sans-Serif" font-size="11.00" fill="#000000">plusinfo</text>
<polygon fill="none" stroke="#000000" points="310,-193.7 310,-215.7 429,-215.7 429,-193.7 310,-193.7"/>
<text text-anchor="start" x="313" y="-201.4" font-family="Helvetica,sans-Serif" font-size="11.00" fill="#000000">jsonb[2147483647]</text>
<polygon fill="#ffffff" stroke="transparent" points="185,-171.7 185,-193.7 310,-193.7 310,-171.7 185,-171.7"/>
<polygon fill="none" stroke="#000000" points="185,-171.7 185,-193.7 310,-193.7 310,-171.7 185,-171.7"/>
<image xlink:href="../../images/foreignKeys.png" width="11px" height="12px" preserveAspectRatio="xMinYMin meet" x="190" y="-188.7"/>
<text text-anchor="start" x="205" y="-178.8" font-family="Helvetica,sans-Serif" font-size="11.00" fill="#000000">object_uuid</text>
<polygon fill="none" stroke="#000000" points="310,-171.7 310,-193.7 429,-193.7 429,-171.7 310,-171.7"/>
<text text-anchor="start" x="313" y="-179.4" font-family="Helvetica,sans-Serif" font-size="11.00" fill="#000000">uuid[2147483647]</text>
<polygon fill="none" stroke="#000000" points="185,-149.7 185,-171.7 310,-171.7 310,-149.7 185,-149.7"/>
<image xlink:href="../../images/foreignKeys.png" width="11px" height="12px" preserveAspectRatio="xMinYMin meet" x="190" y="-166.7"/>
<text text-anchor="start" x="205" y="-156.8" font-family="Helvetica,sans-Serif" font-size="11.00" fill="#000000">scheiding_type_id</text>
<polygon fill="none" stroke="#000000" points="310,-149.7 310,-171.7 429,-171.7 429,-149.7 310,-149.7"/>
<text text-anchor="start" x="313" y="-157.4" font-family="Helvetica,sans-Serif" font-size="11.00" fill="#000000">int2[5]</text>
<polygon fill="#ffffff" stroke="transparent" points="185,-127.7 185,-149.7 310,-149.7 310,-127.7 185,-127.7"/>
<polygon fill="none" stroke="#000000" points="185,-127.7 185,-149.7 310,-149.7 310,-127.7 185,-127.7"/>
<text text-anchor="start" x="205" y="-134.8" font-family="Helvetica,sans-Serif" font-size="11.00" fill="#000000">bouwlaag</text>
<polygon fill="none" stroke="#000000" points="310,-127.7 310,-149.7 429,-149.7 429,-127.7 310,-127.7"/>
<text text-anchor="start" x="313" y="-135.4" font-family="Helvetica,sans-Serif" font-size="11.00" fill="#000000">int2[5]</text>
<polygon fill="#ffffff" stroke="transparent" points="185,-108.7 185,-127.7 252,-127.7 252,-108.7 185,-108.7"/>
<polygon fill="none" stroke="#000000" points="185,-108.7 185,-127.7 252,-127.7 252,-108.7 185,-108.7"/>
<text text-anchor="start" x="188" y="-114.8" font-family="Helvetica,sans-Serif" font-size="11.00" fill="#000000">&lt; 2</text>
<polygon fill="#ffffff" stroke="transparent" points="252,-108.7 252,-127.7 310,-127.7 310,-108.7 252,-108.7"/>
<polygon fill="none" stroke="#000000" points="252,-108.7 252,-127.7 310,-127.7 310,-108.7 252,-108.7"/>
<text text-anchor="start" x="300.8862" y="-114.8" font-family="Helvetica,sans-Serif" font-size="11.00" fill="#000000"> &#160;</text>
<polygon fill="#ffffff" stroke="transparent" points="310,-108.7 310,-127.7 429,-127.7 429,-108.7 310,-108.7"/>
<polygon fill="none" stroke="#000000" points="310,-108.7 310,-127.7 429,-127.7 429,-108.7 310,-108.7"/>
<text text-anchor="start" x="410.4053" y="-114.8" font-family="Helvetica,sans-Serif" font-size="11.00" fill="#000000">0 &gt;</text>
<polygon fill="none" stroke="#000000" stroke-width="2" points="184,-107.7 184,-393.7 430,-393.7 430,-107.7 184,-107.7"/>
</a>
</g>
</g>
<!-- object -->
<g id="node2" class="node">
<title>object</title>
<g id="a_node2"><a xlink:href="../../tables/object.html" xlink:title="object" target="_top">
<polygon fill="#ffffff" stroke="transparent" points="9.5,-142.2 9.5,-291.2 132.5,-291.2 132.5,-142.2 9.5,-142.2"/>
<polygon fill="#f5f5f5" stroke="transparent" points="10,-267.7 10,-290.7 133,-290.7 133,-267.7 10,-267.7"/>
<polygon fill="none" stroke="#000000" points="10,-267.7 10,-290.7 133,-290.7 133,-267.7 10,-267.7"/>
<text text-anchor="start" x="15" y="-276.3" font-family="Helvetica,sans-Serif" font-weight="bold" font-size="11.00" fill="#000000">object</text>
<text text-anchor="start" x="98.0437" y="-275.8" font-family="Helvetica,sans-Serif" font-size="11.00" fill="#000000">[table]</text>
<polygon fill="none" stroke="#000000" points="10,-245.7 10,-267.7 133,-267.7 133,-245.7 10,-245.7"/>
<image xlink:href="../../images/primaryKeys.png" width="11px" height="12px" preserveAspectRatio="xMinYMin meet" x="15" y="-262.7"/>
<text text-anchor="start" x="30" y="-252.8" font-family="Helvetica,sans-Serif" font-size="11.00" fill="#000000">uuid</text>
<polygon fill="#ffffff" stroke="transparent" points="10,-223.7 10,-245.7 133,-245.7 133,-223.7 10,-223.7"/>
<polygon fill="none" stroke="#000000" points="10,-223.7 10,-245.7 133,-245.7 133,-223.7 10,-223.7"/>
<text text-anchor="start" x="30" y="-230.8" font-family="Helvetica,sans-Serif" font-size="11.00" fill="#000000">geom</text>
<polygon fill="#ffffff" stroke="transparent" points="10,-201.7 10,-223.7 133,-223.7 133,-201.7 10,-201.7"/>
<polygon fill="none" stroke="#000000" points="10,-201.7 10,-223.7 133,-223.7 133,-201.7 10,-201.7"/>
<text text-anchor="start" x="30" y="-208.8" font-family="Helvetica,sans-Serif" font-size="11.00" fill="#000000">revisie_frequentie</text>
<polygon fill="#ffffff" stroke="transparent" points="10,-179.7 10,-201.7 133,-201.7 133,-179.7 10,-179.7"/>
<polygon fill="none" stroke="#000000" points="10,-179.7 10,-201.7 133,-201.7 133,-179.7 10,-179.7"/>
<image xlink:href="../../images/foreignKeys.png" width="11px" height="12px" preserveAspectRatio="xMinYMin meet" x="15" y="-196.7"/>
<text text-anchor="start" x="30" y="-186.8" font-family="Helvetica,sans-Serif" font-size="11.00" fill="#000000">fase_id</text>
<polygon fill="none" stroke="#000000" points="10,-160.7 10,-179.7 133,-179.7 133,-160.7 10,-160.7"/>
<text text-anchor="start" x="13" y="-166.8" font-family="Helvetica,sans-Serif" font-size="11.00" fill="#000000">...</text>
<polygon fill="#ffffff" stroke="transparent" points="10,-141.7 10,-160.7 62,-160.7 62,-141.7 10,-141.7"/>
<polygon fill="none" stroke="#000000" points="10,-141.7 10,-160.7 62,-160.7 62,-141.7 10,-141.7"/>
<text text-anchor="start" x="13" y="-147.8" font-family="Helvetica,sans-Serif" font-size="11.00" fill="#000000">&lt; 1</text>
<polygon fill="#ffffff" stroke="transparent" points="62,-141.7 62,-160.7 90,-160.7 90,-141.7 62,-141.7"/>
<polygon fill="none" stroke="#000000" points="62,-141.7 62,-160.7 90,-160.7 90,-141.7 62,-141.7"/>
<text text-anchor="start" x="80.8862" y="-147.8" font-family="Helvetica,sans-Serif" font-size="11.00" fill="#000000"> &#160;</text>
<polygon fill="#ffffff" stroke="transparent" points="90,-141.7 90,-160.7 133,-160.7 133,-141.7 90,-141.7"/>
<polygon fill="none" stroke="#000000" points="90,-141.7 90,-160.7 133,-160.7 133,-141.7 90,-141.7"/>
<text text-anchor="start" x="108.2904" y="-147.8" font-family="Helvetica,sans-Serif" font-size="11.00" fill="#000000">10 &gt;</text>
</a>
</g>
</g>
<!-- scheiding&#45;&gt;object -->
<g id="edge1" class="edge">
<title>scheiding:w&#45;&gt;object:e</title>
<path fill="none" stroke="#000000" d="M171.185,-187.1074C151.7211,-203.0383 167.2303,-256.7 133,-256.7"/>
<polygon fill="#000000" stroke="#000000" points="177.3785,-185.1316 186.0942,-186.1297 181.1892,-183.9158 185,-182.7 185,-182.7 185,-182.7 181.1892,-183.9158 183.9058,-179.2703 177.3785,-185.1316 177.3785,-185.1316"/>
<ellipse fill="none" stroke="#000000" cx="174.3299" cy="-186.1042" rx="3.2" ry="3.2"/>
</g>
<!-- scheiding_type -->
<g id="node3" class="node">
<title>scheiding_type</title>
<g id="a_node3"><a xlink:href="../../tables/scheiding_type.html" xlink:title="scheiding_type" target="_top">
<polygon fill="#ffffff" stroke="transparent" points="8,-38.2 8,-121.2 134,-121.2 134,-38.2 8,-38.2"/>
<polygon fill="#f5f5f5" stroke="transparent" points="8,-97.7 8,-120.7 134,-120.7 134,-97.7 8,-97.7"/>
<polygon fill="none" stroke="#000000" points="8,-97.7 8,-120.7 134,-120.7 134,-97.7 8,-97.7"/>
<text text-anchor="start" x="13" y="-106.3" font-family="Helvetica,sans-Serif" font-weight="bold" font-size="11.00" fill="#000000">scheiding_type</text>
<text text-anchor="start" x="99.5219" y="-105.8" font-family="Helvetica,sans-Serif" font-size="11.00" fill="#000000">[table]</text>
<polygon fill="none" stroke="#000000" points="8,-75.7 8,-97.7 134,-97.7 134,-75.7 8,-75.7"/>
<image xlink:href="../../images/primaryKeys.png" width="11px" height="12px" preserveAspectRatio="xMinYMin meet" x="13" y="-92.7"/>
<text text-anchor="start" x="37" y="-82.8" font-family="Helvetica,sans-Serif" font-size="11.00" fill="#000000">id</text>
<polygon fill="none" stroke="#000000" points="8,-56.7 8,-75.7 134,-75.7 134,-56.7 8,-56.7"/>
<text text-anchor="start" x="11" y="-62.8" font-family="Helvetica,sans-Serif" font-size="11.00" fill="#000000">...</text>
<polygon fill="#ffffff" stroke="transparent" points="8,-37.7 8,-56.7 60,-56.7 60,-37.7 8,-37.7"/>
<polygon fill="none" stroke="#000000" points="8,-37.7 8,-56.7 60,-56.7 60,-37.7 8,-37.7"/>
<text text-anchor="start" x="11" y="-43.8" font-family="Helvetica,sans-Serif" font-size="11.00" fill="#000000"> &#160;</text>
<polygon fill="#ffffff" stroke="transparent" points="60,-37.7 60,-56.7 92,-56.7 92,-37.7 60,-37.7"/>
<polygon fill="none" stroke="#000000" points="60,-37.7 60,-56.7 92,-56.7 92,-37.7 60,-37.7"/>
<text text-anchor="start" x="82.8862" y="-43.8" font-family="Helvetica,sans-Serif" font-size="11.00" fill="#000000"> &#160;</text>
<polygon fill="#ffffff" stroke="transparent" points="92,-37.7 92,-56.7 134,-56.7 134,-37.7 92,-37.7"/>
<polygon fill="none" stroke="#000000" points="92,-37.7 92,-56.7 134,-56.7 134,-37.7 92,-37.7"/>
<text text-anchor="start" x="115.4053" y="-43.8" font-family="Helvetica,sans-Serif" font-size="11.00" fill="#000000">1 &gt;</text>
</a>
</g>
</g>
<!-- scheiding&#45;&gt;scheiding_type -->
<g id="edge2" class="edge">
<title>scheiding:w&#45;&gt;scheiding_type:e</title>
<path fill="none" stroke="#000000" d="M171.0503,-156.071C152.2607,-139.8706 167.8581,-86.7 134,-86.7"/>
<polygon fill="#000000" stroke="#000000" points="177.4071,-158.1804 183.8662,-164.1168 181.2036,-159.4402 185,-160.7 185,-160.7 185,-160.7 181.2036,-159.4402 186.1338,-157.2832 177.4071,-158.1804 177.4071,-158.1804"/>
<ellipse fill="none" stroke="#000000" cx="174.37" cy="-157.1725" rx="3.2" ry="3.2"/>
</g>
</g>
</svg>
