<?xml version="1.0" encoding="UTF-8" standalone="no"?>
<!DOCTYPE svg PUBLIC "-//W3C//DTD SVG 1.1//EN"
 "http://www.w3.org/Graphics/SVG/1.1/DTD/svg11.dtd">
<!-- Generated by graphviz version 2.40.1 (20161225.0304)
 -->
<!-- Title: oneDegreeRelationshipsDiagram Pages: 1 -->
<svg width="400pt" height="227pt"
 viewBox="0.00 0.00 400.00 226.70" xmlns="http://www.w3.org/2000/svg" xmlns:xlink="http://www.w3.org/1999/xlink">
<g id="graph0" class="graph" transform="scale(1 1) rotate(0) translate(4 222.7)">
<title>oneDegreeRelationshipsDiagram</title>
<polygon fill="#ffffff" stroke="transparent" points="-4,4 -4,-222.7 396,-222.7 396,4 -4,4"/>
<text text-anchor="middle" x="72.4936" y="-7.3" font-family="Helvetica,sans-Serif" font-size="11.00" fill="#000000">Generated by SchemaSpy</text>
<!-- scheiding -->
<g id="node1" class="node">
<title>scheiding</title>
<g id="a_node1"><a xlink:href="../../tables/scheiding.html" xlink:title="scheiding" target="_top">
<polygon fill="#ffffff" stroke="transparent" points="259,-43.7 259,-214.7 384,-214.7 384,-43.7 259,-43.7"/>
<polygon fill="#f5f5f5" stroke="transparent" points="259.5,-191.2 259.5,-214.2 384.5,-214.2 384.5,-191.2 259.5,-191.2"/>
<polygon fill="none" stroke="#000000" points="259.5,-191.2 259.5,-214.2 384.5,-214.2 384.5,-191.2 259.5,-191.2"/>
<text text-anchor="start" x="264.5" y="-199.8" font-family="Helvetica,sans-Serif" font-weight="bold" font-size="11.00" fill="#000000">scheiding</text>
<text text-anchor="start" x="349.5437" y="-199.3" font-family="Helvetica,sans-Serif" font-size="11.00" fill="#000000">[table]</text>
<polygon fill="none" stroke="#000000" points="259.5,-169.2 259.5,-191.2 384.5,-191.2 384.5,-169.2 259.5,-169.2"/>
<image xlink:href="../../images/primaryKeys.png" width="11px" height="12px" preserveAspectRatio="xMinYMin meet" x="264.5" y="-186.2"/>
<text text-anchor="start" x="279.5" y="-176.3" font-family="Helvetica,sans-Serif" font-size="11.00" fill="#000000">uuid</text>
<polygon fill="#ffffff" stroke="transparent" points="259.5,-147.2 259.5,-169.2 384.5,-169.2 384.5,-147.2 259.5,-147.2"/>
<polygon fill="none" stroke="#000000" points="259.5,-147.2 259.5,-169.2 384.5,-169.2 384.5,-147.2 259.5,-147.2"/>
<text text-anchor="start" x="279.5" y="-154.3" font-family="Helvetica,sans-Serif" font-size="11.00" fill="#000000">geom</text>
<polygon fill="#ffffff" stroke="transparent" points="259.5,-125.2 259.5,-147.2 384.5,-147.2 384.5,-125.2 259.5,-125.2"/>
<polygon fill="none" stroke="#000000" points="259.5,-125.2 259.5,-147.2 384.5,-147.2 384.5,-125.2 259.5,-125.2"/>
<image xlink:href="../../images/foreignKeys.png" width="11px" height="12px" preserveAspectRatio="xMinYMin meet" x="264.5" y="-142.2"/>
<text text-anchor="start" x="279.5" y="-132.3" font-family="Helvetica,sans-Serif" font-size="11.00" fill="#000000">object_uuid</text>
<polygon fill="none" stroke="#000000" points="259.5,-103.2 259.5,-125.2 384.5,-125.2 384.5,-103.2 259.5,-103.2"/>
<image xlink:href="../../images/foreignKeys.png" width="11px" height="12px" preserveAspectRatio="xMinYMin meet" x="264.5" y="-120.2"/>
<text text-anchor="start" x="279.5" y="-110.3" font-family="Helvetica,sans-Serif" font-size="11.00" fill="#000000">scheiding_type_id</text>
<polygon fill="#ffffff" stroke="transparent" points="259.5,-81.2 259.5,-103.2 384.5,-103.2 384.5,-81.2 259.5,-81.2"/>
<polygon fill="none" stroke="#000000" points="259.5,-81.2 259.5,-103.2 384.5,-103.2 384.5,-81.2 259.5,-81.2"/>
<text text-anchor="start" x="279.5" y="-88.3" font-family="Helvetica,sans-Serif" font-size="11.00" fill="#000000">bouwlaag</text>
<polygon fill="none" stroke="#000000" points="259.5,-62.2 259.5,-81.2 384.5,-81.2 384.5,-62.2 259.5,-62.2"/>
<text text-anchor="start" x="262.5" y="-68.3" font-family="Helvetica,sans-Serif" font-size="11.00" fill="#000000">...</text>
<polygon fill="#ffffff" stroke="transparent" points="259.5,-43.2 259.5,-62.2 320.5,-62.2 320.5,-43.2 259.5,-43.2"/>
<polygon fill="none" stroke="#000000" points="259.5,-43.2 259.5,-62.2 320.5,-62.2 320.5,-43.2 259.5,-43.2"/>
<text text-anchor="start" x="262.5" y="-49.3" font-family="Helvetica,sans-Serif" font-size="11.00" fill="#000000">&lt; 2</text>
<polygon fill="#ffffff" stroke="transparent" points="320.5,-43.2 320.5,-62.2 352.5,-62.2 352.5,-43.2 320.5,-43.2"/>
<polygon fill="none" stroke="#000000" points="320.5,-43.2 320.5,-62.2 352.5,-62.2 352.5,-43.2 320.5,-43.2"/>
<text text-anchor="start" x="343.3862" y="-49.3" font-family="Helvetica,sans-Serif" font-size="11.00" fill="#000000"> &#160;</text>
<polygon fill="#ffffff" stroke="transparent" points="352.5,-43.2 352.5,-62.2 384.5,-62.2 384.5,-43.2 352.5,-43.2"/>
<polygon fill="none" stroke="#000000" points="352.5,-43.2 352.5,-62.2 384.5,-62.2 384.5,-43.2 352.5,-43.2"/>
<text text-anchor="start" x="375.3862" y="-49.3" font-family="Helvetica,sans-Serif" font-size="11.00" fill="#000000"> &#160;</text>
</a>
</g>
</g>
<!-- scheiding_type -->
<g id="node2" class="node">
<title>scheiding_type</title>
<g id="a_node2"><a xlink:href="../../tables/scheiding_type.html" xlink:title="scheiding_type" target="_top">
<polygon fill="#ffffff" stroke="transparent" points="8,-38.2 8,-150.2 210,-150.2 210,-38.2 8,-38.2"/>
<polygon fill="#f5f5f5" stroke="transparent" points="10,-125.2 10,-148.2 208,-148.2 208,-125.2 10,-125.2"/>
<polygon fill="none" stroke="#000000" points="10,-125.2 10,-148.2 208,-148.2 208,-125.2 10,-125.2"/>
<text text-anchor="start" x="15" y="-133.8" font-family="Helvetica,sans-Serif" font-weight="bold" font-size="11.00" fill="#000000">scheiding_type</text>
<text text-anchor="start" x="173.0437" y="-133.3" font-family="Helvetica,sans-Serif" font-size="11.00" fill="#000000">[table]</text>
<polygon fill="none" stroke="#000000" points="10,-103.2 10,-125.2 118,-125.2 118,-103.2 10,-103.2"/>
<image xlink:href="../../images/primaryKeys.png" width="11px" height="12px" preserveAspectRatio="xMinYMin meet" x="15" y="-120.2"/>
<text text-anchor="start" x="30" y="-110.3" font-family="Helvetica,sans-Serif" font-size="11.00" fill="#000000">id</text>
<polygon fill="none" stroke="#000000" points="118,-103.2 118,-125.2 208,-125.2 208,-103.2 118,-103.2"/>
<text text-anchor="start" x="121" y="-110.9" font-family="Helvetica,sans-Serif" font-size="11.00" fill="#000000">int2[5]</text>
<polygon fill="none" stroke="#000000" points="10,-81.2 10,-103.2 118,-103.2 118,-81.2 10,-81.2"/>
<text text-anchor="start" x="30" y="-88.3" font-family="Helvetica,sans-Serif" font-size="11.00" fill="#000000">naam</text>
<polygon fill="none" stroke="#000000" points="118,-81.2 118,-103.2 208,-103.2 208,-81.2 118,-81.2"/>
<text text-anchor="start" x="120.5042" y="-88.9" font-family="Helvetica,sans-Serif" font-size="11.00" fill="#000000">text[2147483647]</text>
<polygon fill="none" stroke="#000000" points="10,-59.2 10,-81.2 118,-81.2 118,-59.2 10,-59.2"/>
<text text-anchor="start" x="30" y="-66.3" font-family="Helvetica,sans-Serif" font-size="11.00" fill="#000000">omschrijving</text>
<polygon fill="none" stroke="#000000" points="118,-59.2 118,-81.2 208,-81.2 208,-59.2 118,-59.2"/>
<text text-anchor="start" x="120.5042" y="-66.9" font-family="Helvetica,sans-Serif" font-size="11.00" fill="#000000">text[2147483647]</text>
<polygon fill="#ffffff" stroke="transparent" points="10,-40.2 10,-59.2 68,-59.2 68,-40.2 10,-40.2"/>
<polygon fill="none" stroke="#000000" points="10,-40.2 10,-59.2 68,-59.2 68,-40.2 10,-40.2"/>
<text text-anchor="start" x="13" y="-46.3" font-family="Helvetica,sans-Serif" font-size="11.00" fill="#000000">&lt; 0</text>
<polygon fill="#ffffff" stroke="transparent" points="68,-40.2 68,-59.2 118,-59.2 118,-40.2 68,-40.2"/>
<polygon fill="none" stroke="#000000" points="68,-40.2 68,-59.2 118,-59.2 118,-40.2 68,-40.2"/>
<text text-anchor="start" x="108.8862" y="-46.3" font-family="Helvetica,sans-Serif" font-size="11.00" fill="#000000"> &#160;</text>
<polygon fill="#ffffff" stroke="transparent" points="118,-40.2 118,-59.2 208,-59.2 208,-40.2 118,-40.2"/>
<polygon fill="none" stroke="#000000" points="118,-40.2 118,-59.2 208,-59.2 208,-40.2 118,-40.2"/>
<text text-anchor="start" x="189.4053" y="-46.3" font-family="Helvetica,sans-Serif" font-size="11.00" fill="#000000">1 &gt;</text>
<polygon fill="none" stroke="#000000" stroke-width="2" points="9,-39.2 9,-149.2 209,-149.2 209,-39.2 9,-39.2"/>
</a>
</g>
</g>
<!-- scheiding&#45;&gt;scheiding_type -->
<g id="edge1" class="edge">
<title>scheiding:w&#45;&gt;scheiding_type:e</title>
<path fill="none" stroke="#000000" d="M245.0156,-114.2C232.6771,-114.2 225.1667,-114.2 208,-114.2"/>
<polygon fill="#000000" stroke="#000000" points="251.5,-114.2001 259.5,-117.8 255.5,-114.2 259.5,-114.2 259.5,-114.2 259.5,-114.2 255.5,-114.2 259.5,-110.6 251.5,-114.2001 251.5,-114.2001"/>
<ellipse fill="none" stroke="#000000" cx="248.3" cy="-114.2001" rx="3.2" ry="3.2"/>
</g>
</g>
</svg>
