<?xml version="1.0" encoding="UTF-8" standalone="no"?>
<!DOCTYPE svg PUBLIC "-//W3C//DTD SVG 1.1//EN"
 "http://www.w3.org/Graphics/SVG/1.1/DTD/svg11.dtd">
<!-- Generated by graphviz version 2.50.0 (0)
 -->
<!-- Title: oneDegreeRelationshipsDiagram Pages: 1 -->
<svg width="419pt" height="223pt"
 viewBox="0.00 0.00 419.00 223.00" xmlns="http://www.w3.org/2000/svg" xmlns:xlink="http://www.w3.org/1999/xlink">
<g id="graph0" class="graph" transform="scale(1 1) rotate(0) translate(4 219)">
<title>oneDegreeRelationshipsDiagram</title>
<polygon fill="#ffffff" stroke="transparent" points="-4,4 -4,-219 415,-219 415,4 -4,4"/>
<text text-anchor="middle" x="79.5" y="-7.2" font-family="Helvetica,sans-Serif" font-size="11.00">Generated by SchemaSpy</text>
<!-- scheiding -->
<g id="node1" class="node">
<title>scheiding</title>
<g id="a_node1"><a xlink:href="../../tables/scheiding.html" xlink:title="scheiding" target="_top">
<polygon fill="#ffffff" stroke="transparent" points="277,-43 277,-211 403,-211 403,-43 277,-43"/>
<polygon fill="#f5f5f5" stroke="transparent" points="277,-189 277,-211 403,-211 403,-189 277,-189"/>
<polygon fill="none" stroke="black" points="277,-189 277,-211 403,-211 403,-189 277,-189"/>
<text text-anchor="start" x="282" y="-198.2" font-family="Helvetica,sans-Serif" font-weight="bold" font-size="11.00">scheiding</text>
<text text-anchor="start" x="361" y="-197.2" font-family="Helvetica,sans-Serif" font-size="11.00">[table]</text>
<polygon fill="none" stroke="black" points="277,-167 277,-189 403,-189 403,-167 277,-167"/>
<image xlink:href="../../images/primaryKeys.png" width="11px" height="12px" preserveAspectRatio="xMinYMin meet" x="282" y="-184"/>
<text text-anchor="start" x="297" y="-175.2" font-family="Helvetica,sans-Serif" font-size="11.00">uuid</text>
<polygon fill="#ffffff" stroke="transparent" points="277,-145 277,-167 403,-167 403,-145 277,-145"/>
<polygon fill="none" stroke="black" points="277,-145 277,-167 403,-167 403,-145 277,-145"/>
<text text-anchor="start" x="297" y="-153.2" font-family="Helvetica,sans-Serif" font-size="11.00">geom</text>
<polygon fill="#ffffff" stroke="transparent" points="277,-123 277,-145 403,-145 403,-123 277,-123"/>
<polygon fill="none" stroke="black" points="277,-123 277,-145 403,-145 403,-123 277,-123"/>
<image xlink:href="../../images/foreignKeys.png" width="11px" height="12px" preserveAspectRatio="xMinYMin meet" x="282" y="-140"/>
<text text-anchor="start" x="297" y="-131.2" font-family="Helvetica,sans-Serif" font-size="11.00">object_uuid</text>
<polygon fill="none" stroke="black" points="277,-101 277,-123 403,-123 403,-101 277,-101"/>
<image xlink:href="../../images/foreignKeys.png" width="11px" height="12px" preserveAspectRatio="xMinYMin meet" x="282" y="-118"/>
<text text-anchor="start" x="297" y="-109.2" font-family="Helvetica,sans-Serif" font-size="11.00">scheiding_type_id</text>
<polygon fill="#ffffff" stroke="transparent" points="277,-79 277,-101 403,-101 403,-79 277,-79"/>
<polygon fill="none" stroke="black" points="277,-79 277,-101 403,-101 403,-79 277,-79"/>
<text text-anchor="start" x="297" y="-87.2" font-family="Helvetica,sans-Serif" font-size="11.00">bouwlaag</text>
<polygon fill="none" stroke="black" points="277,-61 277,-79 403,-79 403,-61 277,-61"/>
<text text-anchor="start" x="280" y="-67.2" font-family="Helvetica,sans-Serif" font-size="11.00">...</text>
<polygon fill="#ffffff" stroke="transparent" points="277,-43 277,-61 339,-61 339,-43 277,-43"/>
<polygon fill="none" stroke="black" points="277,-43 277,-61 339,-61 339,-43 277,-43"/>
<text text-anchor="start" x="280" y="-49.2" font-family="Helvetica,sans-Serif" font-size="11.00">&lt; 2</text>
<polygon fill="#ffffff" stroke="transparent" points="339,-43 339,-61 371,-61 371,-43 339,-43"/>
<polygon fill="none" stroke="black" points="339,-43 339,-61 371,-61 371,-43 339,-43"/>
<text text-anchor="start" x="360" y="-49.2" font-family="Helvetica,sans-Serif" font-size="11.00"> &#160;</text>
<polygon fill="#ffffff" stroke="transparent" points="371,-43 371,-61 403,-61 403,-43 371,-43"/>
<polygon fill="none" stroke="black" points="371,-43 371,-61 403,-61 403,-43 371,-43"/>
<text text-anchor="start" x="392" y="-49.2" font-family="Helvetica,sans-Serif" font-size="11.00"> &#160;</text>
</a>
</g>
</g>
<!-- scheiding_type -->
<g id="node2" class="node">
<title>scheiding_type</title>
<g id="a_node2"><a xlink:href="../../tables/scheiding_type.html" xlink:title="scheiding_type" target="_top">
<polygon fill="#ffffff" stroke="transparent" points="8,-37 8,-147 228,-147 228,-37 8,-37"/>
<polygon fill="#f5f5f5" stroke="transparent" points="10,-123 10,-145 226,-145 226,-123 10,-123"/>
<polygon fill="none" stroke="black" points="10,-123 10,-145 226,-145 226,-123 10,-123"/>
<text text-anchor="start" x="15" y="-132.2" font-family="Helvetica,sans-Serif" font-weight="bold" font-size="11.00">scheiding_type</text>
<text text-anchor="start" x="184" y="-131.2" font-family="Helvetica,sans-Serif" font-size="11.00">[table]</text>
<polygon fill="none" stroke="black" points="10,-101 10,-123 120,-123 120,-101 10,-101"/>
<image xlink:href="../../images/primaryKeys.png" width="11px" height="12px" preserveAspectRatio="xMinYMin meet" x="15" y="-118"/>
<text text-anchor="start" x="30" y="-109.2" font-family="Helvetica,sans-Serif" font-size="11.00">id</text>
<polygon fill="none" stroke="black" points="120,-101 120,-123 226,-123 226,-101 120,-101"/>
<text text-anchor="start" x="123" y="-109.2" font-family="Helvetica,sans-Serif" font-size="11.00">int2[5]</text>
<polygon fill="none" stroke="black" points="10,-79 10,-101 120,-101 120,-79 10,-79"/>
<text text-anchor="start" x="30" y="-87.2" font-family="Helvetica,sans-Serif" font-size="11.00">naam</text>
<polygon fill="none" stroke="black" points="120,-79 120,-101 226,-101 226,-79 120,-79"/>
<text text-anchor="start" x="123" y="-87.2" font-family="Helvetica,sans-Serif" font-size="11.00">text[2147483647]</text>
<polygon fill="none" stroke="black" points="10,-57 10,-79 120,-79 120,-57 10,-57"/>
<text text-anchor="start" x="30" y="-65.2" font-family="Helvetica,sans-Serif" font-size="11.00">omschrijving</text>
<polygon fill="none" stroke="black" points="120,-57 120,-79 226,-79 226,-57 120,-57"/>
<text text-anchor="start" x="123" y="-65.2" font-family="Helvetica,sans-Serif" font-size="11.00">text[2147483647]</text>
<polygon fill="#ffffff" stroke="transparent" points="10,-39 10,-57 71,-57 71,-39 10,-39"/>
<polygon fill="none" stroke="black" points="10,-39 10,-57 71,-57 71,-39 10,-39"/>
<text text-anchor="start" x="13" y="-45.2" font-family="Helvetica,sans-Serif" font-size="11.00">&lt; 0</text>
<polygon fill="#ffffff" stroke="transparent" points="71,-39 71,-57 120,-57 120,-39 71,-39"/>
<polygon fill="none" stroke="black" points="71,-39 71,-57 120,-57 120,-39 71,-39"/>
<text text-anchor="start" x="109" y="-45.2" font-family="Helvetica,sans-Serif" font-size="11.00"> &#160;</text>
<polygon fill="#ffffff" stroke="transparent" points="120,-39 120,-57 226,-57 226,-39 120,-39"/>
<polygon fill="none" stroke="black" points="120,-39 120,-57 226,-57 226,-39 120,-39"/>
<text text-anchor="start" x="203" y="-45.2" font-family="Helvetica,sans-Serif" font-size="11.00">1 &gt;</text>
<polygon fill="none" stroke="black" stroke-width="2" points="9,-38 9,-146 227,-146 227,-38 9,-38"/>
</a>
</g>
</g>
<!-- scheiding&#45;&gt;scheiding_type -->
<g id="edge1" class="edge">
<title>scheiding:w&#45;&gt;scheiding_type:e</title>
<path fill="none" stroke="black" d="M261.49,-112C250.18,-112 242.99,-112 227,-112"/>
<polygon fill="black" stroke="black" points="268,-112 276,-115.6 272,-112 276,-112 276,-112 276,-112 272,-112 276,-108.4 268,-112 268,-112"/>
<ellipse fill="none" stroke="black" cx="264.8" cy="-112" rx="3.2" ry="3.2"/>
</g>
</g>
</svg>
