<?xml version="1.0" encoding="UTF-8" standalone="no"?>
<!DOCTYPE svg PUBLIC "-//W3C//DTD SVG 1.1//EN"
 "http://www.w3.org/Graphics/SVG/1.1/DTD/svg11.dtd">
<!-- Generated by graphviz version 2.50.0 (0)
 -->
<!-- Title: twoDegreesRelationshipsDiagram Pages: 1 -->
<svg width="604pt" height="1046pt"
 viewBox="0.00 0.00 604.00 1046.00" xmlns="http://www.w3.org/2000/svg" xmlns:xlink="http://www.w3.org/1999/xlink">
<g id="graph0" class="graph" transform="scale(1 1) rotate(0) translate(4 1042)">
<title>twoDegreesRelationshipsDiagram</title>
<polygon fill="#ffffff" stroke="transparent" points="-4,4 -4,-1042 600,-1042 600,4 -4,4"/>
<text text-anchor="middle" x="79.5" y="-7.2" font-family="Helvetica,sans-Serif" font-size="11.00">Generated by SchemaSpy</text>
<!-- bereikbaarheid -->
<g id="node1" class="node">
<title>bereikbaarheid</title>
<g id="a_node1"><a xlink:href="../../tables/bereikbaarheid.html" xlink:title="bereikbaarheid" target="_top">
<polygon fill="#ffffff" stroke="transparent" points="388.5,-976 388.5,-1034 533.5,-1034 533.5,-976 388.5,-976"/>
<polygon fill="#f5f5f5" stroke="transparent" points="389,-1012 389,-1034 534,-1034 534,-1012 389,-1012"/>
<polygon fill="none" stroke="black" points="389,-1012 389,-1034 534,-1034 534,-1012 389,-1012"/>
<text text-anchor="start" x="394" y="-1021.2" font-family="Helvetica,sans-Serif" font-weight="bold" font-size="11.00">bereikbaarheid</text>
<text text-anchor="start" x="492" y="-1020.2" font-family="Helvetica,sans-Serif" font-size="11.00">[table]</text>
<polygon fill="none" stroke="black" points="389,-994 389,-1012 534,-1012 534,-994 389,-994"/>
<text text-anchor="start" x="392" y="-1000.2" font-family="Helvetica,sans-Serif" font-size="11.00">...</text>
<polygon fill="#ffffff" stroke="transparent" points="389,-976 389,-994 460,-994 460,-976 389,-976"/>
<polygon fill="none" stroke="black" points="389,-976 389,-994 460,-994 460,-976 389,-976"/>
<text text-anchor="start" x="392" y="-982.2" font-family="Helvetica,sans-Serif" font-size="11.00">&lt; 2</text>
<polygon fill="#ffffff" stroke="transparent" points="460,-976 460,-994 497,-994 497,-976 460,-976"/>
<polygon fill="none" stroke="black" points="460,-976 460,-994 497,-994 497,-976 460,-976"/>
<text text-anchor="start" x="486" y="-982.2" font-family="Helvetica,sans-Serif" font-size="11.00"> &#160;</text>
<polygon fill="#ffffff" stroke="transparent" points="497,-976 497,-994 534,-994 534,-976 497,-976"/>
<polygon fill="none" stroke="black" points="497,-976 497,-994 534,-994 534,-976 497,-976"/>
<text text-anchor="start" x="523" y="-982.2" font-family="Helvetica,sans-Serif" font-size="11.00"> &#160;</text>
</a>
</g>
</g>
<!-- object -->
<g id="node2" class="node">
<title>object</title>
<g id="a_node2"><a xlink:href="../../tables/object.html" xlink:title="object" target="_top">
<polygon fill="#ffffff" stroke="transparent" points="156,-534 156,-680 285,-680 285,-534 156,-534"/>
<polygon fill="#f5f5f5" stroke="transparent" points="156.5,-658 156.5,-680 285.5,-680 285.5,-658 156.5,-658"/>
<polygon fill="none" stroke="black" points="156.5,-658 156.5,-680 285.5,-680 285.5,-658 156.5,-658"/>
<text text-anchor="start" x="161.5" y="-667.2" font-family="Helvetica,sans-Serif" font-weight="bold" font-size="11.00">object</text>
<text text-anchor="start" x="243.5" y="-666.2" font-family="Helvetica,sans-Serif" font-size="11.00">[table]</text>
<polygon fill="none" stroke="black" points="156.5,-636 156.5,-658 285.5,-658 285.5,-636 156.5,-636"/>
<image xlink:href="../../images/primaryKeys.png" width="11px" height="12px" preserveAspectRatio="xMinYMin meet" x="161.5" y="-653"/>
<text text-anchor="start" x="176.5" y="-644.2" font-family="Helvetica,sans-Serif" font-size="11.00">uuid</text>
<polygon fill="#ffffff" stroke="transparent" points="156.5,-614 156.5,-636 285.5,-636 285.5,-614 156.5,-614"/>
<polygon fill="none" stroke="black" points="156.5,-614 156.5,-636 285.5,-636 285.5,-614 156.5,-614"/>
<text text-anchor="start" x="176.5" y="-622.2" font-family="Helvetica,sans-Serif" font-size="11.00">geom</text>
<polygon fill="#ffffff" stroke="transparent" points="156.5,-592 156.5,-614 285.5,-614 285.5,-592 156.5,-592"/>
<polygon fill="none" stroke="black" points="156.5,-592 156.5,-614 285.5,-614 285.5,-592 156.5,-592"/>
<text text-anchor="start" x="176.5" y="-600.2" font-family="Helvetica,sans-Serif" font-size="11.00">revisie_frequentie</text>
<polygon fill="#ffffff" stroke="transparent" points="156.5,-570 156.5,-592 285.5,-592 285.5,-570 156.5,-570"/>
<polygon fill="none" stroke="black" points="156.5,-570 156.5,-592 285.5,-592 285.5,-570 156.5,-570"/>
<image xlink:href="../../images/foreignKeys.png" width="11px" height="12px" preserveAspectRatio="xMinYMin meet" x="161.5" y="-587"/>
<text text-anchor="start" x="176.5" y="-578.2" font-family="Helvetica,sans-Serif" font-size="11.00">fase_id</text>
<polygon fill="none" stroke="black" points="156.5,-552 156.5,-570 285.5,-570 285.5,-552 156.5,-552"/>
<text text-anchor="start" x="159.5" y="-558.2" font-family="Helvetica,sans-Serif" font-size="11.00">...</text>
<polygon fill="#ffffff" stroke="transparent" points="156.5,-534 156.5,-552 210.5,-552 210.5,-534 156.5,-534"/>
<polygon fill="none" stroke="black" points="156.5,-534 156.5,-552 210.5,-552 210.5,-534 156.5,-534"/>
<text text-anchor="start" x="159.5" y="-540.2" font-family="Helvetica,sans-Serif" font-size="11.00">&lt; 1</text>
<polygon fill="#ffffff" stroke="transparent" points="210.5,-534 210.5,-552 238.5,-552 238.5,-534 210.5,-534"/>
<polygon fill="none" stroke="black" points="210.5,-534 210.5,-552 238.5,-552 238.5,-534 210.5,-534"/>
<text text-anchor="start" x="227.5" y="-540.2" font-family="Helvetica,sans-Serif" font-size="11.00"> &#160;</text>
<polygon fill="#ffffff" stroke="transparent" points="238.5,-534 238.5,-552 285.5,-552 285.5,-534 238.5,-534"/>
<polygon fill="none" stroke="black" points="238.5,-534 238.5,-552 285.5,-552 285.5,-534 238.5,-534"/>
<text text-anchor="start" x="255.5" y="-540.2" font-family="Helvetica,sans-Serif" font-size="11.00">10 &gt;</text>
</a>
</g>
</g>
<!-- bereikbaarheid&#45;&gt;object -->
<g id="edge1" class="edge">
<title>bereikbaarheid:w&#45;&gt;object:e</title>
<path fill="none" stroke="black" d="M373.38,-1002.11C351.61,-999.13 340.59,-988.36 326,-966 286.98,-906.17 357.93,-647 286.5,-647"/>
<polygon fill="black" stroke="black" points="380.01,-1002.51 387.78,-1006.59 384.01,-1002.76 388,-1003 388,-1003 388,-1003 384.01,-1002.76 388.22,-999.41 380.01,-1002.51 380.01,-1002.51"/>
<ellipse fill="none" stroke="black" cx="376.82" cy="-1002.32" rx="3.2" ry="3.2"/>
</g>
<!-- roi.fase -->
<g id="node5" class="node">
<title>roi.fase</title>
<g id="a_node5"><a xlink:href="../../../roi/tables/fase.html" xlink:title="roi.fase" target="_top">
<polygon fill="#ffffff" stroke="transparent" points="8,-554 8,-612 107,-612 107,-554 8,-554"/>
<polygon fill="#f5f5f5" stroke="transparent" points="8.5,-590 8.5,-612 107.5,-612 107.5,-590 8.5,-590"/>
<polygon fill="none" stroke="black" points="8.5,-590 8.5,-612 107.5,-612 107.5,-590 8.5,-590"/>
<text text-anchor="start" x="13.5" y="-599.2" font-family="Helvetica,sans-Serif" font-weight="bold" font-size="11.00">roi.fase</text>
<text text-anchor="start" x="65.5" y="-598.2" font-family="Helvetica,sans-Serif" font-size="11.00">[table]</text>
<polygon fill="none" stroke="black" points="8.5,-572 8.5,-590 107.5,-590 107.5,-572 8.5,-572"/>
<text text-anchor="start" x="11.5" y="-578.2" font-family="Helvetica,sans-Serif" font-size="11.00">...</text>
<polygon fill="#ffffff" stroke="transparent" points="8.5,-554 8.5,-572 44.5,-572 44.5,-554 8.5,-554"/>
<polygon fill="none" stroke="black" points="8.5,-554 8.5,-572 44.5,-572 44.5,-554 8.5,-554"/>
<text text-anchor="start" x="11.5" y="-560.2" font-family="Helvetica,sans-Serif" font-size="11.00"> &#160;</text>
<polygon fill="#ffffff" stroke="transparent" points="44.5,-554 44.5,-572 69.5,-572 69.5,-554 44.5,-554"/>
<polygon fill="none" stroke="black" points="44.5,-554 44.5,-572 69.5,-572 69.5,-554 44.5,-554"/>
<text text-anchor="start" x="58.5" y="-560.2" font-family="Helvetica,sans-Serif" font-size="11.00"> &#160;</text>
<polygon fill="#ffffff" stroke="transparent" points="69.5,-554 69.5,-572 107.5,-572 107.5,-554 69.5,-554"/>
<polygon fill="none" stroke="black" points="69.5,-554 69.5,-572 107.5,-572 107.5,-554 69.5,-554"/>
<text text-anchor="start" x="84.5" y="-560.2" font-family="Helvetica,sans-Serif" font-size="11.00">1 &gt;</text>
</a>
</g>
</g>
<!-- object&#45;&gt;roi.fase -->
<g id="edge4" class="edge">
<title>object:w&#45;&gt;roi.fase:e</title>
<path fill="none" stroke="black" d="M140.9,-581C130.43,-581 123.51,-581 108.5,-581"/>
<polygon fill="black" stroke="black" points="147.5,-581 155.5,-584.6 151.5,-581 155.5,-581 155.5,-581 155.5,-581 151.5,-581 155.5,-577.4 147.5,-581 147.5,-581"/>
<ellipse fill="none" stroke="black" cx="144.3" cy="-581" rx="3.2" ry="3.2"/>
</g>
<!-- gevaarlijkestof -->
<g id="node3" class="node">
<title>gevaarlijkestof</title>
<g id="a_node3"><a xlink:href="../../tables/gevaarlijkestof.html" xlink:title="gevaarlijkestof" target="_top">
<polygon fill="#ffffff" stroke="transparent" points="389,-897 389,-955 533,-955 533,-897 389,-897"/>
<polygon fill="#f5f5f5" stroke="transparent" points="389,-933 389,-955 533,-955 533,-933 389,-933"/>
<polygon fill="none" stroke="black" points="389,-933 389,-955 533,-955 533,-933 389,-933"/>
<text text-anchor="start" x="394" y="-942.2" font-family="Helvetica,sans-Serif" font-weight="bold" font-size="11.00">gevaarlijkestof</text>
<text text-anchor="start" x="491" y="-941.2" font-family="Helvetica,sans-Serif" font-size="11.00">[table]</text>
<polygon fill="none" stroke="black" points="389,-915 389,-933 533,-933 533,-915 389,-915"/>
<text text-anchor="start" x="392" y="-921.2" font-family="Helvetica,sans-Serif" font-size="11.00">...</text>
<polygon fill="#ffffff" stroke="transparent" points="389,-897 389,-915 460,-915 460,-897 389,-897"/>
<polygon fill="none" stroke="black" points="389,-897 389,-915 460,-915 460,-897 389,-897"/>
<text text-anchor="start" x="392" y="-903.2" font-family="Helvetica,sans-Serif" font-size="11.00">&lt; 1</text>
<polygon fill="#ffffff" stroke="transparent" points="460,-897 460,-915 496,-915 496,-897 460,-897"/>
<polygon fill="none" stroke="black" points="460,-897 460,-915 496,-915 496,-897 460,-897"/>
<text text-anchor="start" x="485" y="-903.2" font-family="Helvetica,sans-Serif" font-size="11.00"> &#160;</text>
<polygon fill="#ffffff" stroke="transparent" points="496,-897 496,-915 533,-915 533,-897 496,-897"/>
<polygon fill="none" stroke="black" points="496,-897 496,-915 533,-915 533,-897 496,-897"/>
<text text-anchor="start" x="522" y="-903.2" font-family="Helvetica,sans-Serif" font-size="11.00"> &#160;</text>
</a>
</g>
</g>
<!-- gevaarlijkestof&#45;&gt;object -->
<g id="edge2" class="edge">
<title>gevaarlijkestof:w&#45;&gt;object:e</title>
<path fill="none" stroke="black" d="M373.42,-923.09C351.76,-920.03 341.03,-909.07 326,-887 295.57,-842.33 340.55,-647 286.5,-647"/>
<polygon fill="black" stroke="black" points="380.02,-923.5 387.77,-927.59 384.01,-923.75 388,-924 388,-924 388,-924 384.01,-923.75 388.23,-920.41 380.02,-923.5 380.02,-923.5"/>
<ellipse fill="none" stroke="black" cx="376.82" cy="-923.3" rx="3.2" ry="3.2"/>
</g>
<!-- label -->
<g id="node4" class="node">
<title>label</title>
<g id="a_node4"><a xlink:href="../../tables/label.html" xlink:title="label" target="_top">
<polygon fill="#ffffff" stroke="transparent" points="420,-818 420,-876 502,-876 502,-818 420,-818"/>
<polygon fill="#f5f5f5" stroke="transparent" points="420,-854 420,-876 502,-876 502,-854 420,-854"/>
<polygon fill="none" stroke="black" points="420,-854 420,-876 502,-876 502,-854 420,-854"/>
<text text-anchor="start" x="425" y="-863.2" font-family="Helvetica,sans-Serif" font-weight="bold" font-size="11.00">label</text>
<text text-anchor="start" x="460" y="-862.2" font-family="Helvetica,sans-Serif" font-size="11.00">[table]</text>
<polygon fill="none" stroke="black" points="420,-836 420,-854 502,-854 502,-836 420,-836"/>
<text text-anchor="start" x="423" y="-842.2" font-family="Helvetica,sans-Serif" font-size="11.00">...</text>
<polygon fill="#ffffff" stroke="transparent" points="420,-818 420,-836 460,-836 460,-818 420,-818"/>
<polygon fill="none" stroke="black" points="420,-818 420,-836 460,-836 460,-818 420,-818"/>
<text text-anchor="start" x="423" y="-824.2" font-family="Helvetica,sans-Serif" font-size="11.00">&lt; 2</text>
<polygon fill="#ffffff" stroke="transparent" points="460,-818 460,-836 481,-836 481,-818 460,-818"/>
<polygon fill="none" stroke="black" points="460,-818 460,-836 481,-836 481,-818 460,-818"/>
<text text-anchor="start" x="470" y="-824.2" font-family="Helvetica,sans-Serif" font-size="11.00"> &#160;</text>
<polygon fill="#ffffff" stroke="transparent" points="481,-818 481,-836 502,-836 502,-818 481,-818"/>
<polygon fill="none" stroke="black" points="481,-818 481,-836 502,-836 502,-818 481,-818"/>
<text text-anchor="start" x="491" y="-824.2" font-family="Helvetica,sans-Serif" font-size="11.00"> &#160;</text>
</a>
</g>
</g>
<!-- label&#45;&gt;object -->
<g id="edge3" class="edge">
<title>label:w&#45;&gt;object:e</title>
<path fill="none" stroke="black" d="M404.34,-844.81C369.85,-843.78 351.79,-837.62 326,-808 277.62,-752.43 360.18,-647 286.5,-647"/>
<polygon fill="black" stroke="black" points="411,-844.9 418.95,-848.6 415,-844.95 419,-845 419,-845 419,-845 415,-844.95 419.05,-841.4 411,-844.9 411,-844.9"/>
<ellipse fill="none" stroke="black" cx="407.8" cy="-844.86" rx="3.2" ry="3.2"/>
</g>
<!-- opstelplaats -->
<g id="node6" class="node">
<title>opstelplaats</title>
<g id="a_node6"><a xlink:href="../../tables/opstelplaats.html" xlink:title="opstelplaats" target="_top">
<polygon fill="#ffffff" stroke="transparent" points="397,-739 397,-797 525,-797 525,-739 397,-739"/>
<polygon fill="#f5f5f5" stroke="transparent" points="397,-775 397,-797 525,-797 525,-775 397,-775"/>
<polygon fill="none" stroke="black" points="397,-775 397,-797 525,-797 525,-775 397,-775"/>
<text text-anchor="start" x="402" y="-784.2" font-family="Helvetica,sans-Serif" font-weight="bold" font-size="11.00">opstelplaats</text>
<text text-anchor="start" x="483" y="-783.2" font-family="Helvetica,sans-Serif" font-size="11.00">[table]</text>
<polygon fill="none" stroke="black" points="397,-757 397,-775 525,-775 525,-757 397,-757"/>
<text text-anchor="start" x="400" y="-763.2" font-family="Helvetica,sans-Serif" font-size="11.00">...</text>
<polygon fill="#ffffff" stroke="transparent" points="397,-739 397,-757 460,-757 460,-739 397,-739"/>
<polygon fill="none" stroke="black" points="397,-739 397,-757 460,-757 460,-739 397,-739"/>
<text text-anchor="start" x="400" y="-745.2" font-family="Helvetica,sans-Serif" font-size="11.00">&lt; 2</text>
<polygon fill="#ffffff" stroke="transparent" points="460,-739 460,-757 492,-757 492,-739 460,-739"/>
<polygon fill="none" stroke="black" points="460,-739 460,-757 492,-757 492,-739 460,-739"/>
<text text-anchor="start" x="481" y="-745.2" font-family="Helvetica,sans-Serif" font-size="11.00"> &#160;</text>
<polygon fill="#ffffff" stroke="transparent" points="492,-739 492,-757 525,-757 525,-739 492,-739"/>
<polygon fill="none" stroke="black" points="492,-739 492,-757 525,-757 525,-739 492,-739"/>
<text text-anchor="start" x="514" y="-745.2" font-family="Helvetica,sans-Serif" font-size="11.00"> &#160;</text>
</a>
</g>
</g>
<!-- opstelplaats&#45;&gt;object -->
<g id="edge5" class="edge">
<title>opstelplaats:w&#45;&gt;object:e</title>
<path fill="none" stroke="black" d="M381.51,-765.18C357.32,-762.13 346.69,-750.48 326,-729 297.93,-699.87 326.95,-647 286.5,-647"/>
<polygon fill="black" stroke="black" points="388.01,-765.55 395.8,-769.59 392.01,-765.77 396,-766 396,-766 396,-766 392.01,-765.77 396.2,-762.41 388.01,-765.55 388.01,-765.55"/>
<ellipse fill="none" stroke="black" cx="384.82" cy="-765.37" rx="3.2" ry="3.2"/>
</g>
<!-- pand -->
<g id="node7" class="node">
<title>pand</title>
<g id="a_node7"><a xlink:href="../../tables/pand.html" xlink:title="pand" target="_top">
<polygon fill="#ffffff" stroke="transparent" points="420,-660 420,-718 502,-718 502,-660 420,-660"/>
<polygon fill="#f5f5f5" stroke="transparent" points="420,-696 420,-718 502,-718 502,-696 420,-696"/>
<polygon fill="none" stroke="black" points="420,-696 420,-718 502,-718 502,-696 420,-696"/>
<text text-anchor="start" x="425" y="-705.2" font-family="Helvetica,sans-Serif" font-weight="bold" font-size="11.00">pand</text>
<text text-anchor="start" x="460" y="-704.2" font-family="Helvetica,sans-Serif" font-size="11.00">[table]</text>
<polygon fill="none" stroke="black" points="420,-678 420,-696 502,-696 502,-678 420,-678"/>
<text text-anchor="start" x="423" y="-684.2" font-family="Helvetica,sans-Serif" font-size="11.00">...</text>
<polygon fill="#ffffff" stroke="transparent" points="420,-660 420,-678 460,-678 460,-660 420,-660"/>
<polygon fill="none" stroke="black" points="420,-660 420,-678 460,-678 460,-660 420,-660"/>
<text text-anchor="start" x="423" y="-666.2" font-family="Helvetica,sans-Serif" font-size="11.00">&lt; 1</text>
<polygon fill="#ffffff" stroke="transparent" points="460,-660 460,-678 481,-678 481,-660 460,-660"/>
<polygon fill="none" stroke="black" points="460,-660 460,-678 481,-678 481,-660 460,-660"/>
<text text-anchor="start" x="470" y="-666.2" font-family="Helvetica,sans-Serif" font-size="11.00"> &#160;</text>
<polygon fill="#ffffff" stroke="transparent" points="481,-660 481,-678 502,-678 502,-660 481,-660"/>
<polygon fill="none" stroke="black" points="481,-660 481,-678 502,-678 502,-660 481,-660"/>
<text text-anchor="start" x="491" y="-666.2" font-family="Helvetica,sans-Serif" font-size="11.00"> &#160;</text>
</a>
</g>
</g>
<!-- pand&#45;&gt;object -->
<g id="edge6" class="edge">
<title>pand:w&#45;&gt;object:e</title>
<path fill="none" stroke="black" d="M404.54,-686.2C355.53,-680.56 342.85,-647 286.5,-647"/>
<polygon fill="black" stroke="black" points="411.01,-686.56 418.8,-690.59 415.01,-686.78 419,-687 419,-687 419,-687 415.01,-686.78 419.2,-683.41 411.01,-686.56 411.01,-686.56"/>
<ellipse fill="none" stroke="black" cx="407.82" cy="-686.38" rx="3.2" ry="3.2"/>
</g>
<!-- risico -->
<g id="node8" class="node">
<title>risico</title>
<g id="a_node8"><a xlink:href="../../tables/risico.html" xlink:title="risico" target="_top">
<polygon fill="#ffffff" stroke="transparent" points="418.5,-581 418.5,-639 503.5,-639 503.5,-581 418.5,-581"/>
<polygon fill="#f5f5f5" stroke="transparent" points="419,-617 419,-639 504,-639 504,-617 419,-617"/>
<polygon fill="none" stroke="black" points="419,-617 419,-639 504,-639 504,-617 419,-617"/>
<text text-anchor="start" x="424" y="-626.2" font-family="Helvetica,sans-Serif" font-weight="bold" font-size="11.00">risico</text>
<text text-anchor="start" x="462" y="-625.2" font-family="Helvetica,sans-Serif" font-size="11.00">[table]</text>
<polygon fill="none" stroke="black" points="419,-599 419,-617 504,-617 504,-599 419,-599"/>
<text text-anchor="start" x="422" y="-605.2" font-family="Helvetica,sans-Serif" font-size="11.00">...</text>
<polygon fill="#ffffff" stroke="transparent" points="419,-581 419,-599 460,-599 460,-581 419,-581"/>
<polygon fill="none" stroke="black" points="419,-581 419,-599 460,-599 460,-581 419,-581"/>
<text text-anchor="start" x="422" y="-587.2" font-family="Helvetica,sans-Serif" font-size="11.00">&lt; 1</text>
<polygon fill="#ffffff" stroke="transparent" points="460,-581 460,-599 482,-599 482,-581 460,-581"/>
<polygon fill="none" stroke="black" points="460,-581 460,-599 482,-599 482,-581 460,-581"/>
<text text-anchor="start" x="471" y="-587.2" font-family="Helvetica,sans-Serif" font-size="11.00"> &#160;</text>
<polygon fill="#ffffff" stroke="transparent" points="482,-581 482,-599 504,-599 504,-581 482,-581"/>
<polygon fill="none" stroke="black" points="482,-581 482,-599 504,-599 504,-581 482,-581"/>
<text text-anchor="start" x="493" y="-587.2" font-family="Helvetica,sans-Serif" font-size="11.00"> &#160;</text>
</a>
</g>
</g>
<!-- risico&#45;&gt;object -->
<g id="edge7" class="edge">
<title>risico:w&#45;&gt;object:e</title>
<path fill="none" stroke="black" d="M403.36,-608.81C355.01,-614.42 342.22,-647 286.5,-647"/>
<polygon fill="black" stroke="black" points="410.01,-608.44 418.2,-611.59 414.01,-608.22 418,-608 418,-608 418,-608 414.01,-608.22 417.8,-604.41 410.01,-608.44 410.01,-608.44"/>
<ellipse fill="none" stroke="black" cx="406.82" cy="-608.62" rx="3.2" ry="3.2"/>
</g>
<!-- scenario -->
<g id="node9" class="node">
<title>scenario</title>
<g id="a_node9"><a xlink:href="../../tables/scenario.html" xlink:title="scenario" target="_top">
<polygon fill="#ffffff" stroke="transparent" points="409,-502 409,-560 513,-560 513,-502 409,-502"/>
<polygon fill="#f5f5f5" stroke="transparent" points="409,-538 409,-560 513,-560 513,-538 409,-538"/>
<polygon fill="none" stroke="black" points="409,-538 409,-560 513,-560 513,-538 409,-538"/>
<text text-anchor="start" x="414" y="-547.2" font-family="Helvetica,sans-Serif" font-weight="bold" font-size="11.00">scenario</text>
<text text-anchor="start" x="471" y="-546.2" font-family="Helvetica,sans-Serif" font-size="11.00">[table]</text>
<polygon fill="none" stroke="black" points="409,-520 409,-538 513,-538 513,-520 409,-520"/>
<text text-anchor="start" x="412" y="-526.2" font-family="Helvetica,sans-Serif" font-size="11.00">...</text>
<polygon fill="#ffffff" stroke="transparent" points="409,-502 409,-520 460,-520 460,-502 409,-502"/>
<polygon fill="none" stroke="black" points="409,-502 409,-520 460,-520 460,-502 409,-502"/>
<text text-anchor="start" x="412" y="-508.2" font-family="Helvetica,sans-Serif" font-size="11.00">&lt; 2</text>
<polygon fill="#ffffff" stroke="transparent" points="460,-502 460,-520 486,-520 486,-502 460,-502"/>
<polygon fill="none" stroke="black" points="460,-502 460,-520 486,-520 486,-502 460,-502"/>
<text text-anchor="start" x="475" y="-508.2" font-family="Helvetica,sans-Serif" font-size="11.00"> &#160;</text>
<polygon fill="#ffffff" stroke="transparent" points="486,-502 486,-520 513,-520 513,-502 486,-502"/>
<polygon fill="none" stroke="black" points="486,-502 486,-520 513,-520 513,-502 486,-502"/>
<text text-anchor="start" x="502" y="-508.2" font-family="Helvetica,sans-Serif" font-size="11.00"> &#160;</text>
</a>
</g>
</g>
<!-- scenario&#45;&gt;object -->
<g id="edge8" class="edge">
<title>scenario:w&#45;&gt;object:e</title>
<path fill="none" stroke="black" d="M393.51,-529.66C363.67,-532.65 351.3,-545.85 326,-571 299,-597.84 324.57,-647 286.5,-647"/>
<polygon fill="black" stroke="black" points="400.01,-529.36 408.16,-532.6 404,-529.18 408,-529 408,-529 408,-529 404,-529.18 407.84,-525.4 400.01,-529.36 400.01,-529.36"/>
<ellipse fill="none" stroke="black" cx="396.81" cy="-529.51" rx="3.2" ry="3.2"/>
</g>
<!-- scheiding -->
<g id="node10" class="node">
<title>scheiding</title>
<g id="a_node10"><a xlink:href="../../tables/scheiding.html" xlink:title="scheiding" target="_top">
<polygon fill="#ffffff" stroke="transparent" points="406,-423 406,-481 516,-481 516,-423 406,-423"/>
<polygon fill="#f5f5f5" stroke="transparent" points="406,-459 406,-481 516,-481 516,-459 406,-459"/>
<polygon fill="none" stroke="black" points="406,-459 406,-481 516,-481 516,-459 406,-459"/>
<text text-anchor="start" x="411" y="-468.2" font-family="Helvetica,sans-Serif" font-weight="bold" font-size="11.00">scheiding</text>
<text text-anchor="start" x="474" y="-467.2" font-family="Helvetica,sans-Serif" font-size="11.00">[table]</text>
<polygon fill="none" stroke="black" points="406,-441 406,-459 516,-459 516,-441 406,-441"/>
<text text-anchor="start" x="409" y="-447.2" font-family="Helvetica,sans-Serif" font-size="11.00">...</text>
<polygon fill="#ffffff" stroke="transparent" points="406,-423 406,-441 460,-441 460,-423 406,-423"/>
<polygon fill="none" stroke="black" points="406,-423 406,-441 460,-441 460,-423 406,-423"/>
<text text-anchor="start" x="409" y="-429.2" font-family="Helvetica,sans-Serif" font-size="11.00">&lt; 2</text>
<polygon fill="#ffffff" stroke="transparent" points="460,-423 460,-441 488,-441 488,-423 460,-423"/>
<polygon fill="none" stroke="black" points="460,-423 460,-441 488,-441 488,-423 460,-423"/>
<text text-anchor="start" x="477" y="-429.2" font-family="Helvetica,sans-Serif" font-size="11.00"> &#160;</text>
<polygon fill="#ffffff" stroke="transparent" points="488,-423 488,-441 516,-441 516,-423 488,-423"/>
<polygon fill="none" stroke="black" points="488,-423 488,-441 516,-441 516,-423 488,-423"/>
<text text-anchor="start" x="505" y="-429.2" font-family="Helvetica,sans-Serif" font-size="11.00"> &#160;</text>
</a>
</g>
</g>
<!-- scheiding&#45;&gt;object -->
<g id="edge9" class="edge">
<title>scheiding:w&#45;&gt;object:e</title>
<path fill="none" stroke="black" d="M390.4,-450.59C361.16,-453.21 347.3,-464.88 326,-492 282.09,-547.91 357.59,-647 286.5,-647"/>
<polygon fill="black" stroke="black" points="397.01,-450.32 405.15,-453.6 401,-450.16 405,-450 405,-450 405,-450 401,-450.16 404.85,-446.4 397.01,-450.32 397.01,-450.32"/>
<ellipse fill="none" stroke="black" cx="393.81" cy="-450.45" rx="3.2" ry="3.2"/>
</g>
<!-- sector -->
<g id="node11" class="node">
<title>sector</title>
<g id="a_node11"><a xlink:href="../../tables/sector.html" xlink:title="sector" target="_top">
<polygon fill="#ffffff" stroke="transparent" points="334,-37 334,-323 588,-323 588,-37 334,-37"/>
<polygon fill="#f5f5f5" stroke="transparent" points="336,-299 336,-321 586,-321 586,-299 336,-299"/>
<polygon fill="none" stroke="black" points="336,-299 336,-321 586,-321 586,-299 336,-299"/>
<text text-anchor="start" x="341" y="-308.2" font-family="Helvetica,sans-Serif" font-weight="bold" font-size="11.00">sector</text>
<text text-anchor="start" x="544" y="-307.2" font-family="Helvetica,sans-Serif" font-size="11.00">[table]</text>
<polygon fill="none" stroke="black" points="336,-277 336,-299 450,-299 450,-277 336,-277"/>
<image xlink:href="../../images/primaryKeys.png" width="11px" height="12px" preserveAspectRatio="xMinYMin meet" x="341" y="-294"/>
<text text-anchor="start" x="356" y="-285.2" font-family="Helvetica,sans-Serif" font-size="11.00">uuid</text>
<polygon fill="none" stroke="black" points="450,-277 450,-299 586,-299 586,-277 450,-277"/>
<text text-anchor="start" x="453" y="-285.2" font-family="Helvetica,sans-Serif" font-size="11.00">uuid[2147483647]</text>
<polygon fill="#ffffff" stroke="transparent" points="336,-255 336,-277 450,-277 450,-255 336,-255"/>
<polygon fill="none" stroke="black" points="336,-255 336,-277 450,-277 450,-255 336,-255"/>
<text text-anchor="start" x="356" y="-263.2" font-family="Helvetica,sans-Serif" font-size="11.00">geom</text>
<polygon fill="none" stroke="black" points="450,-255 450,-277 586,-277 586,-255 450,-255"/>
<text text-anchor="start" x="453" y="-263.2" font-family="Helvetica,sans-Serif" font-size="11.00">geometry[2147483647]</text>
<polygon fill="none" stroke="black" points="336,-233 336,-255 450,-255 450,-233 336,-233"/>
<text text-anchor="start" x="356" y="-241.2" font-family="Helvetica,sans-Serif" font-size="11.00">datumtijd</text>
<polygon fill="none" stroke="black" points="450,-233 450,-255 586,-255 586,-233 450,-233"/>
<text text-anchor="start" x="453" y="-241.2" font-family="Helvetica,sans-Serif" font-size="11.00">timestamptz[35,6]</text>
<polygon fill="none" stroke="black" points="336,-211 336,-233 450,-233 450,-211 336,-211"/>
<text text-anchor="start" x="356" y="-219.2" font-family="Helvetica,sans-Serif" font-size="11.00">gebruiker</text>
<polygon fill="none" stroke="black" points="450,-211 450,-233 586,-233 586,-211 450,-211"/>
<text text-anchor="start" x="453" y="-219.2" font-family="Helvetica,sans-Serif" font-size="11.00">varchar[255]</text>
<polygon fill="none" stroke="black" points="336,-189 336,-211 450,-211 450,-189 336,-189"/>
<text text-anchor="start" x="356" y="-197.2" font-family="Helvetica,sans-Serif" font-size="11.00">label</text>
<polygon fill="none" stroke="black" points="450,-189 450,-211 586,-211 586,-189 450,-189"/>
<text text-anchor="start" x="453" y="-197.2" font-family="Helvetica,sans-Serif" font-size="11.00">text[2147483647]</text>
<polygon fill="none" stroke="black" points="336,-167 336,-189 450,-189 450,-167 336,-167"/>
<text text-anchor="start" x="356" y="-175.2" font-family="Helvetica,sans-Serif" font-size="11.00">rotatie</text>
<polygon fill="none" stroke="black" points="450,-167 450,-189 586,-189 586,-167 450,-167"/>
<text text-anchor="start" x="453" y="-175.2" font-family="Helvetica,sans-Serif" font-size="11.00">int4[10]</text>
<polygon fill="none" stroke="black" points="336,-145 336,-167 450,-167 450,-145 336,-145"/>
<text text-anchor="start" x="356" y="-153.2" font-family="Helvetica,sans-Serif" font-size="11.00">bijzonderheden</text>
<polygon fill="none" stroke="black" points="450,-145 450,-167 586,-167 586,-145 450,-145"/>
<text text-anchor="start" x="453" y="-153.2" font-family="Helvetica,sans-Serif" font-size="11.00">text[2147483647]</text>
<polygon fill="none" stroke="black" points="336,-123 336,-145 450,-145 450,-123 336,-123"/>
<text text-anchor="start" x="356" y="-131.2" font-family="Helvetica,sans-Serif" font-size="11.00">plusinfo</text>
<polygon fill="none" stroke="black" points="450,-123 450,-145 586,-145 586,-123 450,-123"/>
<text text-anchor="start" x="453" y="-131.2" font-family="Helvetica,sans-Serif" font-size="11.00">jsonb[2147483647]</text>
<polygon fill="#ffffff" stroke="transparent" points="336,-101 336,-123 450,-123 450,-101 336,-101"/>
<polygon fill="none" stroke="black" points="336,-101 336,-123 450,-123 450,-101 336,-101"/>
<image xlink:href="../../images/foreignKeys.png" width="11px" height="12px" preserveAspectRatio="xMinYMin meet" x="341" y="-118"/>
<text text-anchor="start" x="356" y="-109.2" font-family="Helvetica,sans-Serif" font-size="11.00">object_uuid</text>
<polygon fill="none" stroke="black" points="450,-101 450,-123 586,-123 586,-101 450,-101"/>
<text text-anchor="start" x="453" y="-109.2" font-family="Helvetica,sans-Serif" font-size="11.00">uuid[2147483647]</text>
<polygon fill="none" stroke="black" points="336,-79 336,-101 450,-101 450,-79 336,-79"/>
<image xlink:href="../../images/foreignKeys.png" width="11px" height="12px" preserveAspectRatio="xMinYMin meet" x="341" y="-96"/>
<text text-anchor="start" x="356" y="-87.2" font-family="Helvetica,sans-Serif" font-size="11.00">zone_id</text>
<polygon fill="none" stroke="black" points="450,-79 450,-101 586,-101 586,-79 450,-79"/>
<text text-anchor="start" x="453" y="-87.2" font-family="Helvetica,sans-Serif" font-size="11.00">int2[5]</text>
<polygon fill="#ffffff" stroke="transparent" points="336,-57 336,-79 450,-79 450,-57 336,-57"/>
<polygon fill="none" stroke="black" points="336,-57 336,-79 450,-79 450,-57 336,-57"/>
<text text-anchor="start" x="356" y="-65.2" font-family="Helvetica,sans-Serif" font-size="11.00">bouwlaag</text>
<polygon fill="none" stroke="black" points="450,-57 450,-79 586,-79 586,-57 450,-57"/>
<text text-anchor="start" x="453" y="-65.2" font-family="Helvetica,sans-Serif" font-size="11.00">int2[5]</text>
<polygon fill="#ffffff" stroke="transparent" points="336,-39 336,-57 399,-57 399,-39 336,-39"/>
<polygon fill="none" stroke="black" points="336,-39 336,-57 399,-57 399,-39 336,-39"/>
<text text-anchor="start" x="339" y="-45.2" font-family="Helvetica,sans-Serif" font-size="11.00">&lt; 2</text>
<polygon fill="#ffffff" stroke="transparent" points="399,-39 399,-57 450,-57 450,-39 399,-39"/>
<polygon fill="none" stroke="black" points="399,-39 399,-57 450,-57 450,-39 399,-39"/>
<text text-anchor="start" x="439" y="-45.2" font-family="Helvetica,sans-Serif" font-size="11.00"> &#160;</text>
<polygon fill="#ffffff" stroke="transparent" points="450,-39 450,-57 586,-57 586,-39 450,-39"/>
<polygon fill="none" stroke="black" points="450,-39 450,-57 586,-57 586,-39 450,-39"/>
<text text-anchor="start" x="563" y="-45.2" font-family="Helvetica,sans-Serif" font-size="11.00">0 &gt;</text>
<polygon fill="none" stroke="black" stroke-width="2" points="335,-38 335,-322 587,-322 587,-38 335,-38"/>
</a>
</g>
</g>
<!-- sector&#45;&gt;object -->
<g id="edge10" class="edge">
<title>sector:w&#45;&gt;object:e</title>
<path fill="none" stroke="black" d="M323.52,-120.84C285.35,-190.4 341.64,-647 286.5,-647"/>
<polygon fill="black" stroke="black" points="328.66,-116.88 337.2,-114.85 331.83,-114.44 335,-112 335,-112 335,-112 331.83,-114.44 332.8,-109.15 328.66,-116.88 328.66,-116.88"/>
<ellipse fill="none" stroke="black" cx="326.13" cy="-118.83" rx="3.2" ry="3.2"/>
</g>
<!-- roi.zone -->
<g id="node12" class="node">
<title>roi.zone</title>
<g id="a_node12"><a xlink:href="../../../roi/tables/zone.html" xlink:title="roi.zone" target="_top">
<polygon fill="#ffffff" stroke="transparent" points="169.5,-61 169.5,-119 271.5,-119 271.5,-61 169.5,-61"/>
<polygon fill="#f5f5f5" stroke="transparent" points="169.5,-97 169.5,-119 271.5,-119 271.5,-97 169.5,-97"/>
<polygon fill="none" stroke="black" points="169.5,-97 169.5,-119 271.5,-119 271.5,-97 169.5,-97"/>
<text text-anchor="start" x="174.5" y="-106.2" font-family="Helvetica,sans-Serif" font-weight="bold" font-size="11.00">roi.zone</text>
<text text-anchor="start" x="229.5" y="-105.2" font-family="Helvetica,sans-Serif" font-size="11.00">[table]</text>
<polygon fill="none" stroke="black" points="169.5,-79 169.5,-97 271.5,-97 271.5,-79 169.5,-79"/>
<text text-anchor="start" x="172.5" y="-85.2" font-family="Helvetica,sans-Serif" font-size="11.00">...</text>
<polygon fill="#ffffff" stroke="transparent" points="169.5,-61 169.5,-79 207.5,-79 207.5,-61 169.5,-61"/>
<polygon fill="none" stroke="black" points="169.5,-61 169.5,-79 207.5,-79 207.5,-61 169.5,-61"/>
<text text-anchor="start" x="172.5" y="-67.2" font-family="Helvetica,sans-Serif" font-size="11.00"> &#160;</text>
<polygon fill="#ffffff" stroke="transparent" points="207.5,-61 207.5,-79 233.5,-79 233.5,-61 207.5,-61"/>
<polygon fill="none" stroke="black" points="207.5,-61 207.5,-79 233.5,-79 233.5,-61 207.5,-61"/>
<text text-anchor="start" x="222.5" y="-67.2" font-family="Helvetica,sans-Serif" font-size="11.00"> &#160;</text>
<polygon fill="#ffffff" stroke="transparent" points="233.5,-61 233.5,-79 271.5,-79 271.5,-61 233.5,-61"/>
<polygon fill="none" stroke="black" points="233.5,-61 233.5,-79 271.5,-79 271.5,-61 233.5,-61"/>
<text text-anchor="start" x="248.5" y="-67.2" font-family="Helvetica,sans-Serif" font-size="11.00">1 &gt;</text>
</a>
</g>
</g>
<!-- sector&#45;&gt;roi.zone -->
<g id="edge11" class="edge">
<title>sector:w&#45;&gt;roi.zone:e</title>
<path fill="none" stroke="black" d="M320.36,-90C306.67,-90 292.6,-90 279.53,-90"/>
<polygon fill="black" stroke="black" points="327,-90 335,-93.6 331,-90 335,-90 335,-90 335,-90 331,-90 335,-86.4 327,-90 327,-90"/>
<ellipse fill="none" stroke="black" cx="323.8" cy="-90" rx="3.2" ry="3.2"/>
</g>
<!-- voorziening -->
<g id="node13" class="node">
<title>voorziening</title>
<g id="a_node13"><a xlink:href="../../tables/voorziening.html" xlink:title="voorziening" target="_top">
<polygon fill="#ffffff" stroke="transparent" points="399,-344 399,-402 523,-402 523,-344 399,-344"/>
<polygon fill="#f5f5f5" stroke="transparent" points="399,-380 399,-402 523,-402 523,-380 399,-380"/>
<polygon fill="none" stroke="black" points="399,-380 399,-402 523,-402 523,-380 399,-380"/>
<text text-anchor="start" x="404" y="-389.2" font-family="Helvetica,sans-Serif" font-weight="bold" font-size="11.00">voorziening</text>
<text text-anchor="start" x="481" y="-388.2" font-family="Helvetica,sans-Serif" font-size="11.00">[table]</text>
<polygon fill="none" stroke="black" points="399,-362 399,-380 523,-380 523,-362 399,-362"/>
<text text-anchor="start" x="402" y="-368.2" font-family="Helvetica,sans-Serif" font-size="11.00">...</text>
<polygon fill="#ffffff" stroke="transparent" points="399,-344 399,-362 460,-362 460,-344 399,-344"/>
<polygon fill="none" stroke="black" points="399,-344 399,-362 460,-362 460,-344 399,-344"/>
<text text-anchor="start" x="402" y="-350.2" font-family="Helvetica,sans-Serif" font-size="11.00">&lt; 2</text>
<polygon fill="#ffffff" stroke="transparent" points="460,-344 460,-362 491,-362 491,-344 460,-344"/>
<polygon fill="none" stroke="black" points="460,-344 460,-362 491,-362 491,-344 460,-344"/>
<text text-anchor="start" x="480" y="-350.2" font-family="Helvetica,sans-Serif" font-size="11.00"> &#160;</text>
<polygon fill="#ffffff" stroke="transparent" points="491,-344 491,-362 523,-362 523,-344 491,-344"/>
<polygon fill="none" stroke="black" points="491,-344 491,-362 523,-362 523,-344 491,-344"/>
<text text-anchor="start" x="512" y="-350.2" font-family="Helvetica,sans-Serif" font-size="11.00"> &#160;</text>
</a>
</g>
</g>
<!-- voorziening&#45;&gt;object -->
<g id="edge12" class="edge">
<title>voorziening:w&#45;&gt;object:e</title>
<path fill="none" stroke="black" d="M383.3,-371.74C356.79,-374.73 344.02,-386.93 326,-413 296.01,-456.38 339.24,-647 286.5,-647"/>
<polygon fill="black" stroke="black" points="390.01,-371.4 398.18,-374.6 394.01,-371.2 398,-371 398,-371 398,-371 394.01,-371.2 397.82,-367.4 390.01,-371.4 390.01,-371.4"/>
<ellipse fill="none" stroke="black" cx="386.81" cy="-371.57" rx="3.2" ry="3.2"/>
</g>
</g>
</svg>
