<?xml version="1.0" encoding="UTF-8" standalone="no"?>
<!DOCTYPE svg PUBLIC "-//W3C//DTD SVG 1.1//EN"
 "http://www.w3.org/Graphics/SVG/1.1/DTD/svg11.dtd">
<!-- Generated by graphviz version 2.50.0 (0)
 -->
<!-- Title: oneDegreeRelationshipsDiagram Pages: 1 -->
<svg width="456pt" height="381pt"
 viewBox="0.00 0.00 456.00 381.00" xmlns="http://www.w3.org/2000/svg" xmlns:xlink="http://www.w3.org/1999/xlink">
<g id="graph0" class="graph" transform="scale(1 1) rotate(0) translate(4 377)">
<title>oneDegreeRelationshipsDiagram</title>
<polygon fill="#ffffff" stroke="transparent" points="-4,4 -4,-377 452,-377 452,4 -4,4"/>
<text text-anchor="middle" x="79.5" y="-7.2" font-family="Helvetica,sans-Serif" font-size="11.00">Generated by SchemaSpy</text>
<!-- voorziening -->
<g id="node1" class="node">
<title>voorziening</title>
<g id="a_node1"><a xlink:href="../../tables/voorziening.html" xlink:title="voorziening" target="_top">
<polygon fill="#ffffff" stroke="transparent" points="186,-83 186,-369 440,-369 440,-83 186,-83"/>
<polygon fill="#f5f5f5" stroke="transparent" points="188,-345 188,-367 438,-367 438,-345 188,-345"/>
<polygon fill="none" stroke="black" points="188,-345 188,-367 438,-367 438,-345 188,-345"/>
<text text-anchor="start" x="193" y="-354.2" font-family="Helvetica,sans-Serif" font-weight="bold" font-size="11.00">voorziening</text>
<text text-anchor="start" x="396" y="-353.2" font-family="Helvetica,sans-Serif" font-size="11.00">[table]</text>
<polygon fill="none" stroke="black" points="188,-323 188,-345 302,-345 302,-323 188,-323"/>
<image xlink:href="../../images/primaryKeys.png" width="11px" height="12px" preserveAspectRatio="xMinYMin meet" x="193" y="-340"/>
<text text-anchor="start" x="208" y="-331.2" font-family="Helvetica,sans-Serif" font-size="11.00">uuid</text>
<polygon fill="none" stroke="black" points="302,-323 302,-345 438,-345 438,-323 302,-323"/>
<text text-anchor="start" x="305" y="-331.2" font-family="Helvetica,sans-Serif" font-size="11.00">uuid[2147483647]</text>
<polygon fill="#ffffff" stroke="transparent" points="188,-301 188,-323 302,-323 302,-301 188,-301"/>
<polygon fill="none" stroke="black" points="188,-301 188,-323 302,-323 302,-301 188,-301"/>
<text text-anchor="start" x="208" y="-309.2" font-family="Helvetica,sans-Serif" font-size="11.00">geom</text>
<polygon fill="none" stroke="black" points="302,-301 302,-323 438,-323 438,-301 302,-301"/>
<text text-anchor="start" x="305" y="-309.2" font-family="Helvetica,sans-Serif" font-size="11.00">geometry[2147483647]</text>
<polygon fill="none" stroke="black" points="188,-279 188,-301 302,-301 302,-279 188,-279"/>
<text text-anchor="start" x="208" y="-287.2" font-family="Helvetica,sans-Serif" font-size="11.00">datumtijd</text>
<polygon fill="none" stroke="black" points="302,-279 302,-301 438,-301 438,-279 302,-279"/>
<text text-anchor="start" x="305" y="-287.2" font-family="Helvetica,sans-Serif" font-size="11.00">timestamptz[35,6]</text>
<polygon fill="none" stroke="black" points="188,-257 188,-279 302,-279 302,-257 188,-257"/>
<text text-anchor="start" x="208" y="-265.2" font-family="Helvetica,sans-Serif" font-size="11.00">gebruiker</text>
<polygon fill="none" stroke="black" points="302,-257 302,-279 438,-279 438,-257 302,-257"/>
<text text-anchor="start" x="305" y="-265.2" font-family="Helvetica,sans-Serif" font-size="11.00">varchar[255]</text>
<polygon fill="none" stroke="black" points="188,-235 188,-257 302,-257 302,-235 188,-235"/>
<text text-anchor="start" x="208" y="-243.2" font-family="Helvetica,sans-Serif" font-size="11.00">label</text>
<polygon fill="none" stroke="black" points="302,-235 302,-257 438,-257 438,-235 302,-235"/>
<text text-anchor="start" x="305" y="-243.2" font-family="Helvetica,sans-Serif" font-size="11.00">text[2147483647]</text>
<polygon fill="none" stroke="black" points="188,-213 188,-235 302,-235 302,-213 188,-213"/>
<text text-anchor="start" x="208" y="-221.2" font-family="Helvetica,sans-Serif" font-size="11.00">rotatie</text>
<polygon fill="none" stroke="black" points="302,-213 302,-235 438,-235 438,-213 302,-213"/>
<text text-anchor="start" x="305" y="-221.2" font-family="Helvetica,sans-Serif" font-size="11.00">int4[10]</text>
<polygon fill="none" stroke="black" points="188,-191 188,-213 302,-213 302,-191 188,-191"/>
<text text-anchor="start" x="208" y="-199.2" font-family="Helvetica,sans-Serif" font-size="11.00">bijzonderheden</text>
<polygon fill="none" stroke="black" points="302,-191 302,-213 438,-213 438,-191 302,-191"/>
<text text-anchor="start" x="305" y="-199.2" font-family="Helvetica,sans-Serif" font-size="11.00">text[2147483647]</text>
<polygon fill="none" stroke="black" points="188,-169 188,-191 302,-191 302,-169 188,-169"/>
<text text-anchor="start" x="208" y="-177.2" font-family="Helvetica,sans-Serif" font-size="11.00">plusinfo</text>
<polygon fill="none" stroke="black" points="302,-169 302,-191 438,-191 438,-169 302,-169"/>
<text text-anchor="start" x="305" y="-177.2" font-family="Helvetica,sans-Serif" font-size="11.00">jsonb[2147483647]</text>
<polygon fill="#ffffff" stroke="transparent" points="188,-147 188,-169 302,-169 302,-147 188,-147"/>
<polygon fill="none" stroke="black" points="188,-147 188,-169 302,-169 302,-147 188,-147"/>
<image xlink:href="../../images/foreignKeys.png" width="11px" height="12px" preserveAspectRatio="xMinYMin meet" x="193" y="-164"/>
<text text-anchor="start" x="208" y="-155.2" font-family="Helvetica,sans-Serif" font-size="11.00">object_uuid</text>
<polygon fill="none" stroke="black" points="302,-147 302,-169 438,-169 438,-147 302,-147"/>
<text text-anchor="start" x="305" y="-155.2" font-family="Helvetica,sans-Serif" font-size="11.00">uuid[2147483647]</text>
<polygon fill="none" stroke="black" points="188,-125 188,-147 302,-147 302,-125 188,-125"/>
<image xlink:href="../../images/foreignKeys.png" width="11px" height="12px" preserveAspectRatio="xMinYMin meet" x="193" y="-142"/>
<text text-anchor="start" x="208" y="-133.2" font-family="Helvetica,sans-Serif" font-size="11.00">symbool_id</text>
<polygon fill="none" stroke="black" points="302,-125 302,-147 438,-147 438,-125 302,-125"/>
<text text-anchor="start" x="305" y="-133.2" font-family="Helvetica,sans-Serif" font-size="11.00">int4[10]</text>
<polygon fill="#ffffff" stroke="transparent" points="188,-103 188,-125 302,-125 302,-103 188,-103"/>
<polygon fill="none" stroke="black" points="188,-103 188,-125 302,-125 302,-103 188,-103"/>
<text text-anchor="start" x="208" y="-111.2" font-family="Helvetica,sans-Serif" font-size="11.00">bouwlaag</text>
<polygon fill="none" stroke="black" points="302,-103 302,-125 438,-125 438,-103 302,-103"/>
<text text-anchor="start" x="305" y="-111.2" font-family="Helvetica,sans-Serif" font-size="11.00">int2[5]</text>
<polygon fill="#ffffff" stroke="transparent" points="188,-85 188,-103 251,-103 251,-85 188,-85"/>
<polygon fill="none" stroke="black" points="188,-85 188,-103 251,-103 251,-85 188,-85"/>
<text text-anchor="start" x="191" y="-91.2" font-family="Helvetica,sans-Serif" font-size="11.00">&lt; 2</text>
<polygon fill="#ffffff" stroke="transparent" points="251,-85 251,-103 302,-103 302,-85 251,-85"/>
<polygon fill="none" stroke="black" points="251,-85 251,-103 302,-103 302,-85 251,-85"/>
<text text-anchor="start" x="291" y="-91.2" font-family="Helvetica,sans-Serif" font-size="11.00"> &#160;</text>
<polygon fill="#ffffff" stroke="transparent" points="302,-85 302,-103 438,-103 438,-85 302,-85"/>
<polygon fill="none" stroke="black" points="302,-85 302,-103 438,-103 438,-85 302,-85"/>
<text text-anchor="start" x="415" y="-91.2" font-family="Helvetica,sans-Serif" font-size="11.00">0 &gt;</text>
<polygon fill="none" stroke="black" stroke-width="2" points="187,-84 187,-368 439,-368 439,-84 187,-84"/>
</a>
</g>
</g>
<!-- object -->
<g id="node2" class="node">
<title>object</title>
<g id="a_node2"><a xlink:href="../../tables/object.html" xlink:title="object" target="_top">
<polygon fill="#ffffff" stroke="transparent" points="8,-116 8,-262 137,-262 137,-116 8,-116"/>
<polygon fill="#f5f5f5" stroke="transparent" points="8.5,-240 8.5,-262 137.5,-262 137.5,-240 8.5,-240"/>
<polygon fill="none" stroke="black" points="8.5,-240 8.5,-262 137.5,-262 137.5,-240 8.5,-240"/>
<text text-anchor="start" x="13.5" y="-249.2" font-family="Helvetica,sans-Serif" font-weight="bold" font-size="11.00">object</text>
<text text-anchor="start" x="95.5" y="-248.2" font-family="Helvetica,sans-Serif" font-size="11.00">[table]</text>
<polygon fill="none" stroke="black" points="8.5,-218 8.5,-240 137.5,-240 137.5,-218 8.5,-218"/>
<image xlink:href="../../images/primaryKeys.png" width="11px" height="12px" preserveAspectRatio="xMinYMin meet" x="13.5" y="-235"/>
<text text-anchor="start" x="28.5" y="-226.2" font-family="Helvetica,sans-Serif" font-size="11.00">uuid</text>
<polygon fill="#ffffff" stroke="transparent" points="8.5,-196 8.5,-218 137.5,-218 137.5,-196 8.5,-196"/>
<polygon fill="none" stroke="black" points="8.5,-196 8.5,-218 137.5,-218 137.5,-196 8.5,-196"/>
<text text-anchor="start" x="28.5" y="-204.2" font-family="Helvetica,sans-Serif" font-size="11.00">geom</text>
<polygon fill="#ffffff" stroke="transparent" points="8.5,-174 8.5,-196 137.5,-196 137.5,-174 8.5,-174"/>
<polygon fill="none" stroke="black" points="8.5,-174 8.5,-196 137.5,-196 137.5,-174 8.5,-174"/>
<text text-anchor="start" x="28.5" y="-182.2" font-family="Helvetica,sans-Serif" font-size="11.00">revisie_frequentie</text>
<polygon fill="#ffffff" stroke="transparent" points="8.5,-152 8.5,-174 137.5,-174 137.5,-152 8.5,-152"/>
<polygon fill="none" stroke="black" points="8.5,-152 8.5,-174 137.5,-174 137.5,-152 8.5,-152"/>
<image xlink:href="../../images/foreignKeys.png" width="11px" height="12px" preserveAspectRatio="xMinYMin meet" x="13.5" y="-169"/>
<text text-anchor="start" x="28.5" y="-160.2" font-family="Helvetica,sans-Serif" font-size="11.00">fase_id</text>
<polygon fill="none" stroke="black" points="8.5,-134 8.5,-152 137.5,-152 137.5,-134 8.5,-134"/>
<text text-anchor="start" x="11.5" y="-140.2" font-family="Helvetica,sans-Serif" font-size="11.00">...</text>
<polygon fill="#ffffff" stroke="transparent" points="8.5,-116 8.5,-134 62.5,-134 62.5,-116 8.5,-116"/>
<polygon fill="none" stroke="black" points="8.5,-116 8.5,-134 62.5,-134 62.5,-116 8.5,-116"/>
<text text-anchor="start" x="11.5" y="-122.2" font-family="Helvetica,sans-Serif" font-size="11.00">&lt; 1</text>
<polygon fill="#ffffff" stroke="transparent" points="62.5,-116 62.5,-134 90.5,-134 90.5,-116 62.5,-116"/>
<polygon fill="none" stroke="black" points="62.5,-116 62.5,-134 90.5,-134 90.5,-116 62.5,-116"/>
<text text-anchor="start" x="79.5" y="-122.2" font-family="Helvetica,sans-Serif" font-size="11.00"> &#160;</text>
<polygon fill="#ffffff" stroke="transparent" points="90.5,-116 90.5,-134 137.5,-134 137.5,-116 90.5,-116"/>
<polygon fill="none" stroke="black" points="90.5,-116 90.5,-134 137.5,-134 137.5,-116 90.5,-116"/>
<text text-anchor="start" x="107.5" y="-122.2" font-family="Helvetica,sans-Serif" font-size="11.00">10 &gt;</text>
</a>
</g>
</g>
<!-- voorziening&#45;&gt;object -->
<g id="edge1" class="edge">
<title>voorziening:w&#45;&gt;object:e</title>
<path fill="none" stroke="black" d="M172.95,-163.11C156.17,-179.39 170.45,-229 138.5,-229"/>
<polygon fill="black" stroke="black" points="179.48,-160.73 188.23,-161.38 183.24,-159.37 187,-158 187,-158 187,-158 183.24,-159.37 185.77,-154.62 179.48,-160.73 179.48,-160.73"/>
<ellipse fill="none" stroke="black" cx="176.47" cy="-161.83" rx="3.2" ry="3.2"/>
</g>
<!-- roi.symbool -->
<g id="node3" class="node">
<title>roi.symbool</title>
<g id="a_node3"><a xlink:href="../../../roi/tables/symbool.html" xlink:title="roi.symbool" target="_top">
<polygon fill="#ffffff" stroke="transparent" points="10.5,-37 10.5,-95 134.5,-95 134.5,-37 10.5,-37"/>
<polygon fill="#f5f5f5" stroke="transparent" points="10.5,-73 10.5,-95 134.5,-95 134.5,-73 10.5,-73"/>
<polygon fill="none" stroke="black" points="10.5,-73 10.5,-95 134.5,-95 134.5,-73 10.5,-73"/>
<text text-anchor="start" x="15.5" y="-82.2" font-family="Helvetica,sans-Serif" font-weight="bold" font-size="11.00">roi.symbool</text>
<text text-anchor="start" x="92.5" y="-81.2" font-family="Helvetica,sans-Serif" font-size="11.00">[table]</text>
<polygon fill="none" stroke="black" points="10.5,-55 10.5,-73 134.5,-73 134.5,-55 10.5,-55"/>
<text text-anchor="start" x="13.5" y="-61.2" font-family="Helvetica,sans-Serif" font-size="11.00">...</text>
<polygon fill="#ffffff" stroke="transparent" points="10.5,-37 10.5,-55 59.5,-55 59.5,-37 10.5,-37"/>
<polygon fill="none" stroke="black" points="10.5,-37 10.5,-55 59.5,-55 59.5,-37 10.5,-37"/>
<text text-anchor="start" x="13.5" y="-43.2" font-family="Helvetica,sans-Serif" font-size="11.00"> &#160;</text>
<polygon fill="#ffffff" stroke="transparent" points="59.5,-37 59.5,-55 90.5,-55 90.5,-37 59.5,-37"/>
<polygon fill="none" stroke="black" points="59.5,-37 59.5,-55 90.5,-55 90.5,-37 59.5,-37"/>
<text text-anchor="start" x="79.5" y="-43.2" font-family="Helvetica,sans-Serif" font-size="11.00"> &#160;</text>
<polygon fill="#ffffff" stroke="transparent" points="90.5,-37 90.5,-55 134.5,-55 134.5,-37 90.5,-37"/>
<polygon fill="none" stroke="black" points="90.5,-37 90.5,-55 134.5,-55 134.5,-37 90.5,-37"/>
<text text-anchor="start" x="111.5" y="-43.2" font-family="Helvetica,sans-Serif" font-size="11.00">1 &gt;</text>
</a>
</g>
</g>
<!-- voorziening&#45;&gt;roi.symbool -->
<g id="edge2" class="edge">
<title>voorziening:w&#45;&gt;roi.symbool:e</title>
<path fill="none" stroke="black" d="M172.84,-132.68C162.84,-126.97 159.23,-115.02 145,-106 141.4,-103.71 137.66,-101.42 133.86,-99.14"/>
<polygon fill="black" stroke="black" points="179.21,-134.18 186.18,-139.51 183.11,-135.09 187,-136 187,-136 187,-136 183.11,-135.09 187.82,-132.49 179.21,-134.18 179.21,-134.18"/>
<ellipse fill="none" stroke="black" cx="176.09" cy="-133.45" rx="3.2" ry="3.2"/>
</g>
</g>
</svg>
