<?xml version="1.0" encoding="UTF-8" standalone="no"?>
<!DOCTYPE svg PUBLIC "-//W3C//DTD SVG 1.1//EN"
 "http://www.w3.org/Graphics/SVG/1.1/DTD/svg11.dtd">
<!-- Generated by graphviz version 2.40.1 (20161225.0304)
 -->
<!-- Title: twoDegreesRelationshipsDiagram Pages: 1 -->
<svg width="558pt" height="1077pt"
 viewBox="0.00 0.00 558.00 1076.70" xmlns="http://www.w3.org/2000/svg" xmlns:xlink="http://www.w3.org/1999/xlink">
<g id="graph0" class="graph" transform="scale(1 1) rotate(0) translate(4 1072.7)">
<title>twoDegreesRelationshipsDiagram</title>
<polygon fill="#ffffff" stroke="transparent" points="-4,4 -4,-1072.7 554,-1072.7 554,4 -4,4"/>
<text text-anchor="middle" x="72.4936" y="-7.3" font-family="Helvetica,sans-Serif" font-size="11.00" fill="#000000">Generated by SchemaSpy</text>
<!-- bereikbaarheid -->
<g id="node1" class="node">
<title>bereikbaarheid</title>
<g id="a_node1"><a xlink:href="../../tables/bereikbaarheid.html" xlink:title="bereikbaarheid" target="_top">
<polygon fill="#ffffff" stroke="transparent" points="364,-1003.7 364,-1064.7 488,-1064.7 488,-1003.7 364,-1003.7"/>
<polygon fill="#f5f5f5" stroke="transparent" points="364,-1041.2 364,-1064.2 488,-1064.2 488,-1041.2 364,-1041.2"/>
<polygon fill="none" stroke="#000000" points="364,-1041.2 364,-1064.2 488,-1064.2 488,-1041.2 364,-1041.2"/>
<text text-anchor="start" x="369" y="-1049.8" font-family="Helvetica,sans-Serif" font-weight="bold" font-size="11.00" fill="#000000">bereikbaarheid</text>
<text text-anchor="start" x="453.5219" y="-1049.3" font-family="Helvetica,sans-Serif" font-size="11.00" fill="#000000">[table]</text>
<polygon fill="none" stroke="#000000" points="364,-1022.2 364,-1041.2 488,-1041.2 488,-1022.2 364,-1022.2"/>
<text text-anchor="start" x="367" y="-1028.3" font-family="Helvetica,sans-Serif" font-size="11.00" fill="#000000">...</text>
<polygon fill="#ffffff" stroke="transparent" points="364,-1003.2 364,-1022.2 424,-1022.2 424,-1003.2 364,-1003.2"/>
<polygon fill="none" stroke="#000000" points="364,-1003.2 364,-1022.2 424,-1022.2 424,-1003.2 364,-1003.2"/>
<text text-anchor="start" x="367" y="-1009.3" font-family="Helvetica,sans-Serif" font-size="11.00" fill="#000000">&lt; 2</text>
<polygon fill="#ffffff" stroke="transparent" points="424,-1003.2 424,-1022.2 456,-1022.2 456,-1003.2 424,-1003.2"/>
<polygon fill="none" stroke="#000000" points="424,-1003.2 424,-1022.2 456,-1022.2 456,-1003.2 424,-1003.2"/>
<text text-anchor="start" x="446.8862" y="-1009.3" font-family="Helvetica,sans-Serif" font-size="11.00" fill="#000000"> &#160;</text>
<polygon fill="#ffffff" stroke="transparent" points="456,-1003.2 456,-1022.2 488,-1022.2 488,-1003.2 456,-1003.2"/>
<polygon fill="none" stroke="#000000" points="456,-1003.2 456,-1022.2 488,-1022.2 488,-1003.2 456,-1003.2"/>
<text text-anchor="start" x="478.8862" y="-1009.3" font-family="Helvetica,sans-Serif" font-size="11.00" fill="#000000"> &#160;</text>
</a>
</g>
</g>
<!-- object -->
<g id="node2" class="node">
<title>object</title>
<g id="a_node2"><a xlink:href="../../tables/object.html" xlink:title="object" target="_top">
<polygon fill="#ffffff" stroke="transparent" points="138,-547.7 138,-696.7 261,-696.7 261,-547.7 138,-547.7"/>
<polygon fill="#f5f5f5" stroke="transparent" points="138.5,-673.2 138.5,-696.2 261.5,-696.2 261.5,-673.2 138.5,-673.2"/>
<polygon fill="none" stroke="#000000" points="138.5,-673.2 138.5,-696.2 261.5,-696.2 261.5,-673.2 138.5,-673.2"/>
<text text-anchor="start" x="143.5" y="-681.8" font-family="Helvetica,sans-Serif" font-weight="bold" font-size="11.00" fill="#000000">object</text>
<text text-anchor="start" x="226.5437" y="-681.3" font-family="Helvetica,sans-Serif" font-size="11.00" fill="#000000">[table]</text>
<polygon fill="none" stroke="#000000" points="138.5,-651.2 138.5,-673.2 261.5,-673.2 261.5,-651.2 138.5,-651.2"/>
<image xlink:href="../../images/primaryKeys.png" width="11px" height="12px" preserveAspectRatio="xMinYMin meet" x="143.5" y="-668.2"/>
<text text-anchor="start" x="158.5" y="-658.3" font-family="Helvetica,sans-Serif" font-size="11.00" fill="#000000">uuid</text>
<polygon fill="#ffffff" stroke="transparent" points="138.5,-629.2 138.5,-651.2 261.5,-651.2 261.5,-629.2 138.5,-629.2"/>
<polygon fill="none" stroke="#000000" points="138.5,-629.2 138.5,-651.2 261.5,-651.2 261.5,-629.2 138.5,-629.2"/>
<text text-anchor="start" x="158.5" y="-636.3" font-family="Helvetica,sans-Serif" font-size="11.00" fill="#000000">geom</text>
<polygon fill="#ffffff" stroke="transparent" points="138.5,-607.2 138.5,-629.2 261.5,-629.2 261.5,-607.2 138.5,-607.2"/>
<polygon fill="none" stroke="#000000" points="138.5,-607.2 138.5,-629.2 261.5,-629.2 261.5,-607.2 138.5,-607.2"/>
<text text-anchor="start" x="158.5" y="-614.3" font-family="Helvetica,sans-Serif" font-size="11.00" fill="#000000">revisie_frequentie</text>
<polygon fill="#ffffff" stroke="transparent" points="138.5,-585.2 138.5,-607.2 261.5,-607.2 261.5,-585.2 138.5,-585.2"/>
<polygon fill="none" stroke="#000000" points="138.5,-585.2 138.5,-607.2 261.5,-607.2 261.5,-585.2 138.5,-585.2"/>
<image xlink:href="../../images/foreignKeys.png" width="11px" height="12px" preserveAspectRatio="xMinYMin meet" x="143.5" y="-602.2"/>
<text text-anchor="start" x="158.5" y="-592.3" font-family="Helvetica,sans-Serif" font-size="11.00" fill="#000000">fase_id</text>
<polygon fill="none" stroke="#000000" points="138.5,-566.2 138.5,-585.2 261.5,-585.2 261.5,-566.2 138.5,-566.2"/>
<text text-anchor="start" x="141.5" y="-572.3" font-family="Helvetica,sans-Serif" font-size="11.00" fill="#000000">...</text>
<polygon fill="#ffffff" stroke="transparent" points="138.5,-547.2 138.5,-566.2 190.5,-566.2 190.5,-547.2 138.5,-547.2"/>
<polygon fill="none" stroke="#000000" points="138.5,-547.2 138.5,-566.2 190.5,-566.2 190.5,-547.2 138.5,-547.2"/>
<text text-anchor="start" x="141.5" y="-553.3" font-family="Helvetica,sans-Serif" font-size="11.00" fill="#000000">&lt; 1</text>
<polygon fill="#ffffff" stroke="transparent" points="190.5,-547.2 190.5,-566.2 218.5,-566.2 218.5,-547.2 190.5,-547.2"/>
<polygon fill="none" stroke="#000000" points="190.5,-547.2 190.5,-566.2 218.5,-566.2 218.5,-547.2 190.5,-547.2"/>
<text text-anchor="start" x="209.3862" y="-553.3" font-family="Helvetica,sans-Serif" font-size="11.00" fill="#000000"> &#160;</text>
<polygon fill="#ffffff" stroke="transparent" points="218.5,-547.2 218.5,-566.2 261.5,-566.2 261.5,-547.2 218.5,-547.2"/>
<polygon fill="none" stroke="#000000" points="218.5,-547.2 218.5,-566.2 261.5,-566.2 261.5,-547.2 218.5,-547.2"/>
<text text-anchor="start" x="236.7904" y="-553.3" font-family="Helvetica,sans-Serif" font-size="11.00" fill="#000000">10 &gt;</text>
</a>
</g>
</g>
<!-- bereikbaarheid&#45;&gt;object -->
<g id="edge1" class="edge">
<title>bereikbaarheid:w&#45;&gt;object:e</title>
<path fill="none" stroke="#000000" d="M349.605,-1030.3022C327.5344,-1027.211 316.6099,-1015.926 302,-993.2 261.927,-930.8656 335.6041,-662.2 261.5,-662.2"/>
<polygon fill="#000000" stroke="#000000" points="356.0155,-1030.702 363.7759,-1034.793 360.0078,-1030.951 364,-1031.2 364,-1031.2 364,-1031.2 360.0078,-1030.951 364.2241,-1027.607 356.0155,-1030.702 356.0155,-1030.702"/>
<ellipse fill="none" stroke="#000000" cx="352.8217" cy="-1030.5028" rx="3.2" ry="3.2"/>
</g>
<!-- roi.fase -->
<g id="node5" class="node">
<title>roi.fase</title>
<g id="a_node5"><a xlink:href="../../../roi/tables/fase.html" xlink:title="roi.fase" target="_top">
<polygon fill="#ffffff" stroke="transparent" points="8,-568.7 8,-629.7 89,-629.7 89,-568.7 8,-568.7"/>
<polygon fill="#f5f5f5" stroke="transparent" points="8.5,-606.2 8.5,-629.2 89.5,-629.2 89.5,-606.2 8.5,-606.2"/>
<polygon fill="none" stroke="#000000" points="8.5,-606.2 8.5,-629.2 89.5,-629.2 89.5,-606.2 8.5,-606.2"/>
<text text-anchor="start" x="13.5" y="-614.8" font-family="Helvetica,sans-Serif" font-weight="bold" font-size="11.00" fill="#000000">roi.fase</text>
<text text-anchor="start" x="55.0219" y="-614.3" font-family="Helvetica,sans-Serif" font-size="11.00" fill="#000000">[table]</text>
<polygon fill="none" stroke="#000000" points="8.5,-587.2 8.5,-606.2 89.5,-606.2 89.5,-587.2 8.5,-587.2"/>
<text text-anchor="start" x="11.5" y="-593.3" font-family="Helvetica,sans-Serif" font-size="11.00" fill="#000000">...</text>
<polygon fill="#ffffff" stroke="transparent" points="8.5,-568.2 8.5,-587.2 38.5,-587.2 38.5,-568.2 8.5,-568.2"/>
<polygon fill="none" stroke="#000000" points="8.5,-568.2 8.5,-587.2 38.5,-587.2 38.5,-568.2 8.5,-568.2"/>
<text text-anchor="start" x="11.5" y="-574.3" font-family="Helvetica,sans-Serif" font-size="11.00" fill="#000000"> &#160;</text>
<polygon fill="#ffffff" stroke="transparent" points="38.5,-568.2 38.5,-587.2 59.5,-587.2 59.5,-568.2 38.5,-568.2"/>
<polygon fill="none" stroke="#000000" points="38.5,-568.2 38.5,-587.2 59.5,-587.2 59.5,-568.2 38.5,-568.2"/>
<text text-anchor="start" x="50.3862" y="-574.3" font-family="Helvetica,sans-Serif" font-size="11.00" fill="#000000"> &#160;</text>
<polygon fill="#ffffff" stroke="transparent" points="59.5,-568.2 59.5,-587.2 89.5,-587.2 89.5,-568.2 59.5,-568.2"/>
<polygon fill="none" stroke="#000000" points="59.5,-568.2 59.5,-587.2 89.5,-587.2 89.5,-568.2 59.5,-568.2"/>
<text text-anchor="start" x="70.9053" y="-574.3" font-family="Helvetica,sans-Serif" font-size="11.00" fill="#000000">1 &gt;</text>
</a>
</g>
</g>
<!-- object&#45;&gt;roi.fase -->
<g id="edge4" class="edge">
<title>object:w&#45;&gt;roi.fase:e</title>
<path fill="none" stroke="#000000" d="M123.9909,-596.2C112.6774,-596.2 105.4931,-596.2 89.5,-596.2"/>
<polygon fill="#000000" stroke="#000000" points="130.5,-596.2001 138.5,-599.8 134.5,-596.2 138.5,-596.2 138.5,-596.2 138.5,-596.2 134.5,-596.2 138.5,-592.6 130.5,-596.2001 130.5,-596.2001"/>
<ellipse fill="none" stroke="#000000" cx="127.3" cy="-596.2001" rx="3.2" ry="3.2"/>
</g>
<!-- gevaarlijkestof -->
<g id="node3" class="node">
<title>gevaarlijkestof</title>
<g id="a_node3"><a xlink:href="../../tables/gevaarlijkestof.html" xlink:title="gevaarlijkestof" target="_top">
<polygon fill="#ffffff" stroke="transparent" points="364.5,-921.7 364.5,-982.7 487.5,-982.7 487.5,-921.7 364.5,-921.7"/>
<polygon fill="#f5f5f5" stroke="transparent" points="365,-959.2 365,-982.2 488,-982.2 488,-959.2 365,-959.2"/>
<polygon fill="none" stroke="#000000" points="365,-959.2 365,-982.2 488,-982.2 488,-959.2 365,-959.2"/>
<text text-anchor="start" x="370" y="-967.8" font-family="Helvetica,sans-Serif" font-weight="bold" font-size="11.00" fill="#000000">gevaarlijkestof</text>
<text text-anchor="start" x="453.5219" y="-967.3" font-family="Helvetica,sans-Serif" font-size="11.00" fill="#000000">[table]</text>
<polygon fill="none" stroke="#000000" points="365,-940.2 365,-959.2 488,-959.2 488,-940.2 365,-940.2"/>
<text text-anchor="start" x="368" y="-946.3" font-family="Helvetica,sans-Serif" font-size="11.00" fill="#000000">...</text>
<polygon fill="#ffffff" stroke="transparent" points="365,-921.2 365,-940.2 425,-940.2 425,-921.2 365,-921.2"/>
<polygon fill="none" stroke="#000000" points="365,-921.2 365,-940.2 425,-940.2 425,-921.2 365,-921.2"/>
<text text-anchor="start" x="368" y="-927.3" font-family="Helvetica,sans-Serif" font-size="11.00" fill="#000000">&lt; 1</text>
<polygon fill="#ffffff" stroke="transparent" points="425,-921.2 425,-940.2 456,-940.2 456,-921.2 425,-921.2"/>
<polygon fill="none" stroke="#000000" points="425,-921.2 425,-940.2 456,-940.2 456,-921.2 425,-921.2"/>
<text text-anchor="start" x="446.8862" y="-927.3" font-family="Helvetica,sans-Serif" font-size="11.00" fill="#000000"> &#160;</text>
<polygon fill="#ffffff" stroke="transparent" points="456,-921.2 456,-940.2 488,-940.2 488,-921.2 456,-921.2"/>
<polygon fill="none" stroke="#000000" points="456,-921.2 456,-940.2 488,-940.2 488,-921.2 456,-921.2"/>
<text text-anchor="start" x="478.8862" y="-927.3" font-family="Helvetica,sans-Serif" font-size="11.00" fill="#000000"> &#160;</text>
</a>
</g>
</g>
<!-- gevaarlijkestof&#45;&gt;object -->
<g id="edge2" class="edge">
<title>gevaarlijkestof:w&#45;&gt;object:e</title>
<path fill="none" stroke="#000000" d="M350.4593,-948.2955C328.1986,-945.1836 317.3131,-933.8425 302,-911.2 270.5942,-864.7624 317.5605,-662.2 261.5,-662.2"/>
<polygon fill="#000000" stroke="#000000" points="357.0154,-948.7033 364.7765,-952.7931 361.0077,-948.9516 365,-949.2 365,-949.2 365,-949.2 361.0077,-948.9516 365.2235,-945.6069 357.0154,-948.7033 357.0154,-948.7033"/>
<ellipse fill="none" stroke="#000000" cx="353.8216" cy="-948.5046" rx="3.2" ry="3.2"/>
</g>
<!-- label -->
<g id="node4" class="node">
<title>label</title>
<g id="a_node4"><a xlink:href="../../tables/label.html" xlink:title="label" target="_top">
<polygon fill="#ffffff" stroke="transparent" points="393,-839.7 393,-900.7 459,-900.7 459,-839.7 393,-839.7"/>
<polygon fill="#f5f5f5" stroke="transparent" points="393,-877.2 393,-900.2 459,-900.2 459,-877.2 393,-877.2"/>
<polygon fill="none" stroke="#000000" points="393,-877.2 393,-900.2 459,-900.2 459,-877.2 393,-877.2"/>
<text text-anchor="start" x="397.8868" y="-885.8" font-family="Helvetica,sans-Serif" font-weight="bold" font-size="11.00" fill="#000000">label</text>
<text text-anchor="start" x="424.5219" y="-885.3" font-family="Helvetica,sans-Serif" font-size="11.00" fill="#000000">[table]</text>
<polygon fill="none" stroke="#000000" points="393,-858.2 393,-877.2 459,-877.2 459,-858.2 393,-858.2"/>
<text text-anchor="start" x="396" y="-864.3" font-family="Helvetica,sans-Serif" font-size="11.00" fill="#000000">...</text>
<polygon fill="#ffffff" stroke="transparent" points="393,-839.2 393,-858.2 424,-858.2 424,-839.2 393,-839.2"/>
<polygon fill="none" stroke="#000000" points="393,-839.2 393,-858.2 424,-858.2 424,-839.2 393,-839.2"/>
<text text-anchor="start" x="396" y="-845.3" font-family="Helvetica,sans-Serif" font-size="11.00" fill="#000000">&lt; 2</text>
<polygon fill="#ffffff" stroke="transparent" points="424,-839.2 424,-858.2 441,-858.2 441,-839.2 424,-839.2"/>
<polygon fill="none" stroke="#000000" points="424,-839.2 424,-858.2 441,-858.2 441,-839.2 424,-839.2"/>
<text text-anchor="start" x="431.8862" y="-845.3" font-family="Helvetica,sans-Serif" font-size="11.00" fill="#000000"> &#160;</text>
<polygon fill="#ffffff" stroke="transparent" points="441,-839.2 441,-858.2 459,-858.2 459,-839.2 441,-839.2"/>
<polygon fill="none" stroke="#000000" points="441,-839.2 441,-858.2 459,-858.2 459,-839.2 441,-839.2"/>
<text text-anchor="start" x="449.8862" y="-845.3" font-family="Helvetica,sans-Serif" font-size="11.00" fill="#000000"> &#160;</text>
</a>
</g>
</g>
<!-- label&#45;&gt;object -->
<g id="edge3" class="edge">
<title>label:w&#45;&gt;object:e</title>
<path fill="none" stroke="#000000" d="M378.5699,-866.9692C344.6507,-865.7131 327.1206,-858.6294 302,-829.2 252.4158,-771.1109 337.8737,-662.2 261.5,-662.2"/>
<polygon fill="#000000" stroke="#000000" points="385.001,-867.072 392.9424,-870.7995 389.0005,-867.136 393,-867.2 393,-867.2 393,-867.2 389.0005,-867.136 393.0576,-863.6005 385.001,-867.072 385.001,-867.072"/>
<ellipse fill="none" stroke="#000000" cx="381.8014" cy="-867.0208" rx="3.2" ry="3.2"/>
</g>
<!-- opstelplaats -->
<g id="node6" class="node">
<title>opstelplaats</title>
<g id="a_node6"><a xlink:href="../../tables/opstelplaats.html" xlink:title="opstelplaats" target="_top">
<polygon fill="#ffffff" stroke="transparent" points="371.5,-757.7 371.5,-818.7 480.5,-818.7 480.5,-757.7 371.5,-757.7"/>
<polygon fill="#f5f5f5" stroke="transparent" points="372,-795.2 372,-818.2 481,-818.2 481,-795.2 372,-795.2"/>
<polygon fill="none" stroke="#000000" points="372,-795.2 372,-818.2 481,-818.2 481,-795.2 372,-795.2"/>
<text text-anchor="start" x="377" y="-803.8" font-family="Helvetica,sans-Serif" font-weight="bold" font-size="11.00" fill="#000000">opstelplaats</text>
<text text-anchor="start" x="446.5219" y="-803.3" font-family="Helvetica,sans-Serif" font-size="11.00" fill="#000000">[table]</text>
<polygon fill="none" stroke="#000000" points="372,-776.2 372,-795.2 481,-795.2 481,-776.2 372,-776.2"/>
<text text-anchor="start" x="375" y="-782.3" font-family="Helvetica,sans-Serif" font-size="11.00" fill="#000000">...</text>
<polygon fill="#ffffff" stroke="transparent" points="372,-757.2 372,-776.2 425,-776.2 425,-757.2 372,-757.2"/>
<polygon fill="none" stroke="#000000" points="372,-757.2 372,-776.2 425,-776.2 425,-757.2 372,-757.2"/>
<text text-anchor="start" x="375" y="-763.3" font-family="Helvetica,sans-Serif" font-size="11.00" fill="#000000">&lt; 2</text>
<polygon fill="#ffffff" stroke="transparent" points="425,-757.2 425,-776.2 453,-776.2 453,-757.2 425,-757.2"/>
<polygon fill="none" stroke="#000000" points="425,-757.2 425,-776.2 453,-776.2 453,-757.2 425,-757.2"/>
<text text-anchor="start" x="443.8862" y="-763.3" font-family="Helvetica,sans-Serif" font-size="11.00" fill="#000000"> &#160;</text>
<polygon fill="#ffffff" stroke="transparent" points="453,-757.2 453,-776.2 481,-776.2 481,-757.2 453,-757.2"/>
<polygon fill="none" stroke="#000000" points="453,-757.2 453,-776.2 481,-776.2 481,-757.2 453,-757.2"/>
<text text-anchor="start" x="471.8862" y="-763.3" font-family="Helvetica,sans-Serif" font-size="11.00" fill="#000000"> &#160;</text>
</a>
</g>
</g>
<!-- opstelplaats&#45;&gt;object -->
<g id="edge5" class="edge">
<title>opstelplaats:w&#45;&gt;object:e</title>
<path fill="none" stroke="#000000" d="M357.4343,-784.3387C333.1534,-781.1367 322.6516,-768.9696 302,-747.2 273.1996,-716.8405 303.3469,-662.2 261.5,-662.2"/>
<polygon fill="#000000" stroke="#000000" points="364.014,-784.7277 371.7875,-788.7937 368.007,-784.9638 372,-785.2 372,-785.2 372,-785.2 368.007,-784.9638 372.2125,-781.6063 364.014,-784.7277 364.014,-784.7277"/>
<ellipse fill="none" stroke="#000000" cx="360.8195" cy="-784.5388" rx="3.2" ry="3.2"/>
</g>
<!-- pand -->
<g id="node7" class="node">
<title>pand</title>
<g id="a_node7"><a xlink:href="../../tables/pand.html" xlink:title="pand" target="_top">
<polygon fill="#ffffff" stroke="transparent" points="392.5,-675.7 392.5,-736.7 459.5,-736.7 459.5,-675.7 392.5,-675.7"/>
<polygon fill="#f5f5f5" stroke="transparent" points="393,-713.2 393,-736.2 460,-736.2 460,-713.2 393,-713.2"/>
<polygon fill="none" stroke="#000000" points="393,-713.2 393,-736.2 460,-736.2 460,-713.2 393,-713.2"/>
<text text-anchor="start" x="397.7702" y="-721.8" font-family="Helvetica,sans-Serif" font-weight="bold" font-size="11.00" fill="#000000">pand</text>
<text text-anchor="start" x="425.5219" y="-721.3" font-family="Helvetica,sans-Serif" font-size="11.00" fill="#000000">[table]</text>
<polygon fill="none" stroke="#000000" points="393,-694.2 393,-713.2 460,-713.2 460,-694.2 393,-694.2"/>
<text text-anchor="start" x="396" y="-700.3" font-family="Helvetica,sans-Serif" font-size="11.00" fill="#000000">...</text>
<polygon fill="#ffffff" stroke="transparent" points="393,-675.2 393,-694.2 425,-694.2 425,-675.2 393,-675.2"/>
<polygon fill="none" stroke="#000000" points="393,-675.2 393,-694.2 425,-694.2 425,-675.2 393,-675.2"/>
<text text-anchor="start" x="396" y="-681.3" font-family="Helvetica,sans-Serif" font-size="11.00" fill="#000000">&lt; 1</text>
<polygon fill="#ffffff" stroke="transparent" points="425,-675.2 425,-694.2 442,-694.2 442,-675.2 425,-675.2"/>
<polygon fill="none" stroke="#000000" points="425,-675.2 425,-694.2 442,-694.2 442,-675.2 425,-675.2"/>
<text text-anchor="start" x="432.8862" y="-681.3" font-family="Helvetica,sans-Serif" font-size="11.00" fill="#000000"> &#160;</text>
<polygon fill="#ffffff" stroke="transparent" points="442,-675.2 442,-694.2 460,-694.2 460,-675.2 442,-675.2"/>
<polygon fill="none" stroke="#000000" points="442,-675.2 442,-694.2 460,-694.2 460,-675.2 442,-675.2"/>
<text text-anchor="start" x="450.8862" y="-681.3" font-family="Helvetica,sans-Serif" font-size="11.00" fill="#000000"> &#160;</text>
</a>
</g>
</g>
<!-- pand&#45;&gt;object -->
<g id="edge6" class="edge">
<title>pand:w&#45;&gt;object:e</title>
<path fill="none" stroke="#000000" d="M378.6175,-702.381C329.8908,-696.6025 317.5778,-662.2 261.5,-662.2"/>
<polygon fill="#000000" stroke="#000000" points="385.0129,-702.7451 392.7953,-706.7942 389.0065,-702.9726 393,-703.2 393,-703.2 393,-703.2 389.0065,-702.9726 393.2047,-699.6058 385.0129,-702.7451 385.0129,-702.7451"/>
<ellipse fill="none" stroke="#000000" cx="381.8181" cy="-702.5632" rx="3.2" ry="3.2"/>
</g>
<!-- risico -->
<g id="node8" class="node">
<title>risico</title>
<g id="a_node8"><a xlink:href="../../tables/risico.html" xlink:title="risico" target="_top">
<polygon fill="#ffffff" stroke="transparent" points="390.5,-593.7 390.5,-654.7 461.5,-654.7 461.5,-593.7 390.5,-593.7"/>
<polygon fill="#f5f5f5" stroke="transparent" points="391,-631.2 391,-654.2 462,-654.2 462,-631.2 391,-631.2"/>
<polygon fill="none" stroke="#000000" points="391,-631.2 391,-654.2 462,-654.2 462,-631.2 391,-631.2"/>
<text text-anchor="start" x="396" y="-639.8" font-family="Helvetica,sans-Serif" font-weight="bold" font-size="11.00" fill="#000000">risico</text>
<text text-anchor="start" x="427.5219" y="-639.3" font-family="Helvetica,sans-Serif" font-size="11.00" fill="#000000">[table]</text>
<polygon fill="none" stroke="#000000" points="391,-612.2 391,-631.2 462,-631.2 462,-612.2 391,-612.2"/>
<text text-anchor="start" x="394" y="-618.3" font-family="Helvetica,sans-Serif" font-size="11.00" fill="#000000">...</text>
<polygon fill="#ffffff" stroke="transparent" points="391,-593.2 391,-612.2 425,-612.2 425,-593.2 391,-593.2"/>
<polygon fill="none" stroke="#000000" points="391,-593.2 391,-612.2 425,-612.2 425,-593.2 391,-593.2"/>
<text text-anchor="start" x="394" y="-599.3" font-family="Helvetica,sans-Serif" font-size="11.00" fill="#000000">&lt; 2</text>
<polygon fill="#ffffff" stroke="transparent" points="425,-593.2 425,-612.2 443,-612.2 443,-593.2 425,-593.2"/>
<polygon fill="none" stroke="#000000" points="425,-593.2 425,-612.2 443,-612.2 443,-593.2 425,-593.2"/>
<text text-anchor="start" x="433.8862" y="-599.3" font-family="Helvetica,sans-Serif" font-size="11.00" fill="#000000"> &#160;</text>
<polygon fill="#ffffff" stroke="transparent" points="443,-593.2 443,-612.2 462,-612.2 462,-593.2 443,-593.2"/>
<polygon fill="none" stroke="#000000" points="443,-593.2 443,-612.2 462,-612.2 462,-593.2 443,-593.2"/>
<text text-anchor="start" x="452.8862" y="-599.3" font-family="Helvetica,sans-Serif" font-size="11.00" fill="#000000"> &#160;</text>
</a>
</g>
</g>
<!-- risico&#45;&gt;object -->
<g id="edge7" class="edge">
<title>risico:w&#45;&gt;object:e</title>
<path fill="none" stroke="#000000" d="M376.5136,-622.0563C328.7424,-627.9441 316.6831,-662.2 261.5,-662.2"/>
<polygon fill="#000000" stroke="#000000" points="383.0139,-621.6721 391.2125,-624.7937 387.007,-621.4361 391,-621.2 391,-621.2 391,-621.2 387.007,-621.4361 390.7875,-617.6063 383.0139,-621.6721 383.0139,-621.6721"/>
<ellipse fill="none" stroke="#000000" cx="379.8195" cy="-621.861" rx="3.2" ry="3.2"/>
</g>
<!-- scenario -->
<g id="node9" class="node">
<title>scenario</title>
<g id="a_node9"><a xlink:href="../../tables/scenario.html" xlink:title="scenario" target="_top">
<polygon fill="#ffffff" stroke="transparent" points="382,-511.7 382,-572.7 470,-572.7 470,-511.7 382,-511.7"/>
<polygon fill="#f5f5f5" stroke="transparent" points="382,-549.2 382,-572.2 470,-572.2 470,-549.2 382,-549.2"/>
<polygon fill="none" stroke="#000000" points="382,-549.2 382,-572.2 470,-572.2 470,-549.2 382,-549.2"/>
<text text-anchor="start" x="387" y="-557.8" font-family="Helvetica,sans-Serif" font-weight="bold" font-size="11.00" fill="#000000">scenario</text>
<text text-anchor="start" x="435.5219" y="-557.3" font-family="Helvetica,sans-Serif" font-size="11.00" fill="#000000">[table]</text>
<polygon fill="none" stroke="#000000" points="382,-530.2 382,-549.2 470,-549.2 470,-530.2 382,-530.2"/>
<text text-anchor="start" x="385" y="-536.3" font-family="Helvetica,sans-Serif" font-size="11.00" fill="#000000">...</text>
<polygon fill="#ffffff" stroke="transparent" points="382,-511.2 382,-530.2 424,-530.2 424,-511.2 382,-511.2"/>
<polygon fill="none" stroke="#000000" points="382,-511.2 382,-530.2 424,-530.2 424,-511.2 382,-511.2"/>
<text text-anchor="start" x="385" y="-517.3" font-family="Helvetica,sans-Serif" font-size="11.00" fill="#000000">&lt; 2</text>
<polygon fill="#ffffff" stroke="transparent" points="424,-511.2 424,-530.2 447,-530.2 447,-511.2 424,-511.2"/>
<polygon fill="none" stroke="#000000" points="424,-511.2 424,-530.2 447,-530.2 447,-511.2 424,-511.2"/>
<text text-anchor="start" x="437.8862" y="-517.3" font-family="Helvetica,sans-Serif" font-size="11.00" fill="#000000"> &#160;</text>
<polygon fill="#ffffff" stroke="transparent" points="447,-511.2 447,-530.2 470,-530.2 470,-511.2 447,-511.2"/>
<polygon fill="none" stroke="#000000" points="447,-511.2 447,-530.2 470,-530.2 470,-511.2 447,-511.2"/>
<text text-anchor="start" x="460.8862" y="-517.3" font-family="Helvetica,sans-Serif" font-size="11.00" fill="#000000"> &#160;</text>
</a>
</g>
</g>
<!-- scenario&#45;&gt;object -->
<g id="edge8" class="edge">
<title>scenario:w&#45;&gt;object:e</title>
<path fill="none" stroke="#000000" d="M367.2803,-539.9865C338.158,-543.4064 326.5176,-557.9578 302,-583.2 274.5094,-611.503 300.9562,-662.2 261.5,-662.2"/>
<polygon fill="#000000" stroke="#000000" points="374.0114,-539.6269 382.1921,-542.7949 378.0057,-539.4134 382,-539.2 382,-539.2 382,-539.2 378.0057,-539.4134 381.8079,-535.6051 374.0114,-539.6269 374.0114,-539.6269"/>
<ellipse fill="none" stroke="#000000" cx="370.816" cy="-539.7976" rx="3.2" ry="3.2"/>
</g>
<!-- scheiding -->
<g id="node10" class="node">
<title>scheiding</title>
<g id="a_node10"><a xlink:href="../../tables/scheiding.html" xlink:title="scheiding" target="_top">
<polygon fill="#ffffff" stroke="transparent" points="378.5,-429.7 378.5,-490.7 473.5,-490.7 473.5,-429.7 378.5,-429.7"/>
<polygon fill="#f5f5f5" stroke="transparent" points="379,-467.2 379,-490.2 474,-490.2 474,-467.2 379,-467.2"/>
<polygon fill="none" stroke="#000000" points="379,-467.2 379,-490.2 474,-490.2 474,-467.2 379,-467.2"/>
<text text-anchor="start" x="384" y="-475.8" font-family="Helvetica,sans-Serif" font-weight="bold" font-size="11.00" fill="#000000">scheiding</text>
<text text-anchor="start" x="439.5219" y="-475.3" font-family="Helvetica,sans-Serif" font-size="11.00" fill="#000000">[table]</text>
<polygon fill="none" stroke="#000000" points="379,-448.2 379,-467.2 474,-467.2 474,-448.2 379,-448.2"/>
<text text-anchor="start" x="382" y="-454.3" font-family="Helvetica,sans-Serif" font-size="11.00" fill="#000000">...</text>
<polygon fill="#ffffff" stroke="transparent" points="379,-429.2 379,-448.2 425,-448.2 425,-429.2 379,-429.2"/>
<polygon fill="none" stroke="#000000" points="379,-429.2 379,-448.2 425,-448.2 425,-429.2 379,-429.2"/>
<text text-anchor="start" x="382" y="-435.3" font-family="Helvetica,sans-Serif" font-size="11.00" fill="#000000">&lt; 2</text>
<polygon fill="#ffffff" stroke="transparent" points="425,-429.2 425,-448.2 449,-448.2 449,-429.2 425,-429.2"/>
<polygon fill="none" stroke="#000000" points="425,-429.2 425,-448.2 449,-448.2 449,-429.2 425,-429.2"/>
<text text-anchor="start" x="439.8862" y="-435.3" font-family="Helvetica,sans-Serif" font-size="11.00" fill="#000000"> &#160;</text>
<polygon fill="#ffffff" stroke="transparent" points="449,-429.2 449,-448.2 474,-448.2 474,-429.2 449,-429.2"/>
<polygon fill="none" stroke="#000000" points="449,-429.2 449,-448.2 474,-448.2 474,-429.2 449,-429.2"/>
<text text-anchor="start" x="464.8862" y="-435.3" font-family="Helvetica,sans-Serif" font-size="11.00" fill="#000000"> &#160;</text>
</a>
</g>
</g>
<!-- scheiding&#45;&gt;object -->
<g id="edge9" class="edge">
<title>scheiding:w&#45;&gt;object:e</title>
<path fill="none" stroke="#000000" d="M364.5693,-457.8812C335.7518,-460.8783 322.6596,-473.9696 302,-501.2 257.4026,-559.9815 335.2848,-662.2 261.5,-662.2"/>
<polygon fill="#000000" stroke="#000000" points="371.0089,-457.5773 379.1698,-460.796 375.0044,-457.3886 379,-457.2 379,-457.2 379,-457.2 375.0044,-457.3886 378.8302,-453.604 371.0089,-457.5773 371.0089,-457.5773"/>
<ellipse fill="none" stroke="#000000" cx="367.8125" cy="-457.7282" rx="3.2" ry="3.2"/>
</g>
<!-- sector -->
<g id="node11" class="node">
<title>sector</title>
<g id="a_node11"><a xlink:href="../../tables/sector.html" xlink:title="sector" target="_top">
<polygon fill="#ffffff" stroke="transparent" points="388.5,-347.7 388.5,-408.7 463.5,-408.7 463.5,-347.7 388.5,-347.7"/>
<polygon fill="#f5f5f5" stroke="transparent" points="389,-385.2 389,-408.2 464,-408.2 464,-385.2 389,-385.2"/>
<polygon fill="none" stroke="#000000" points="389,-385.2 389,-408.2 464,-408.2 464,-385.2 389,-385.2"/>
<text text-anchor="start" x="394" y="-393.8" font-family="Helvetica,sans-Serif" font-weight="bold" font-size="11.00" fill="#000000">sector</text>
<text text-anchor="start" x="429.5219" y="-393.3" font-family="Helvetica,sans-Serif" font-size="11.00" fill="#000000">[table]</text>
<polygon fill="none" stroke="#000000" points="389,-366.2 389,-385.2 464,-385.2 464,-366.2 389,-366.2"/>
<text text-anchor="start" x="392" y="-372.3" font-family="Helvetica,sans-Serif" font-size="11.00" fill="#000000">...</text>
<polygon fill="#ffffff" stroke="transparent" points="389,-347.2 389,-366.2 425,-366.2 425,-347.2 389,-347.2"/>
<polygon fill="none" stroke="#000000" points="389,-347.2 389,-366.2 425,-366.2 425,-347.2 389,-347.2"/>
<text text-anchor="start" x="392" y="-353.3" font-family="Helvetica,sans-Serif" font-size="11.00" fill="#000000">&lt; 2</text>
<polygon fill="#ffffff" stroke="transparent" points="425,-347.2 425,-366.2 444,-366.2 444,-347.2 425,-347.2"/>
<polygon fill="none" stroke="#000000" points="425,-347.2 425,-366.2 444,-366.2 444,-347.2 425,-347.2"/>
<text text-anchor="start" x="434.8862" y="-353.3" font-family="Helvetica,sans-Serif" font-size="11.00" fill="#000000"> &#160;</text>
<polygon fill="#ffffff" stroke="transparent" points="444,-347.2 444,-366.2 464,-366.2 464,-347.2 444,-347.2"/>
<polygon fill="none" stroke="#000000" points="444,-347.2 444,-366.2 464,-366.2 464,-347.2 444,-347.2"/>
<text text-anchor="start" x="454.8862" y="-353.3" font-family="Helvetica,sans-Serif" font-size="11.00" fill="#000000"> &#160;</text>
</a>
</g>
</g>
<!-- sector&#45;&gt;object -->
<g id="edge10" class="edge">
<title>sector:w&#45;&gt;object:e</title>
<path fill="none" stroke="#000000" d="M374.3143,-375.6294C341.1962,-377.7793 324.5551,-388.5143 302,-419.2 269.5771,-463.3107 316.2449,-662.2 261.5,-662.2"/>
<polygon fill="#000000" stroke="#000000" points="381.0034,-375.4339 389.1053,-378.7985 385.0017,-375.3169 389,-375.2 389,-375.2 389,-375.2 385.0017,-375.3169 388.8947,-371.6015 381.0034,-375.4339 381.0034,-375.4339"/>
<ellipse fill="none" stroke="#000000" cx="377.8048" cy="-375.5275" rx="3.2" ry="3.2"/>
</g>
<!-- voorziening -->
<g id="node12" class="node">
<title>voorziening</title>
<g id="a_node12"><a xlink:href="../../tables/voorziening.html" xlink:title="voorziening" target="_top">
<polygon fill="#ffffff" stroke="transparent" points="310,-38.2 310,-326.2 542,-326.2 542,-38.2 310,-38.2"/>
<polygon fill="#f5f5f5" stroke="transparent" points="312,-301.2 312,-324.2 540,-324.2 540,-301.2 312,-301.2"/>
<polygon fill="none" stroke="#000000" points="312,-301.2 312,-324.2 540,-324.2 540,-301.2 312,-301.2"/>
<text text-anchor="start" x="317" y="-309.8" font-family="Helvetica,sans-Serif" font-weight="bold" font-size="11.00" fill="#000000">voorziening</text>
<text text-anchor="start" x="505.0437" y="-309.3" font-family="Helvetica,sans-Serif" font-size="11.00" fill="#000000">[table]</text>
<polygon fill="none" stroke="#000000" points="312,-279.2 312,-301.2 421,-301.2 421,-279.2 312,-279.2"/>
<image xlink:href="../../images/primaryKeys.png" width="11px" height="12px" preserveAspectRatio="xMinYMin meet" x="317" y="-296.2"/>
<text text-anchor="start" x="332" y="-286.3" font-family="Helvetica,sans-Serif" font-size="11.00" fill="#000000">uuid</text>
<polygon fill="none" stroke="#000000" points="421,-279.2 421,-301.2 540,-301.2 540,-279.2 421,-279.2"/>
<text text-anchor="start" x="424" y="-286.9" font-family="Helvetica,sans-Serif" font-size="11.00" fill="#000000">uuid[2147483647]</text>
<polygon fill="#ffffff" stroke="transparent" points="312,-257.2 312,-279.2 421,-279.2 421,-257.2 312,-257.2"/>
<polygon fill="none" stroke="#000000" points="312,-257.2 312,-279.2 421,-279.2 421,-257.2 312,-257.2"/>
<text text-anchor="start" x="332" y="-264.3" font-family="Helvetica,sans-Serif" font-size="11.00" fill="#000000">geom</text>
<polygon fill="none" stroke="#000000" points="421,-257.2 421,-279.2 540,-279.2 540,-257.2 421,-257.2"/>
<text text-anchor="start" x="423.9485" y="-264.9" font-family="Helvetica,sans-Serif" font-size="11.00" fill="#000000">geometry[2147483647]</text>
<polygon fill="none" stroke="#000000" points="312,-235.2 312,-257.2 421,-257.2 421,-235.2 312,-235.2"/>
<text text-anchor="start" x="332" y="-242.3" font-family="Helvetica,sans-Serif" font-size="11.00" fill="#000000">datumtijd</text>
<polygon fill="none" stroke="#000000" points="421,-235.2 421,-257.2 540,-257.2 540,-235.2 421,-235.2"/>
<text text-anchor="start" x="424" y="-242.9" font-family="Helvetica,sans-Serif" font-size="11.00" fill="#000000">timestamptz[35,6]</text>
<polygon fill="none" stroke="#000000" points="312,-213.2 312,-235.2 421,-235.2 421,-213.2 312,-213.2"/>
<text text-anchor="start" x="332" y="-220.3" font-family="Helvetica,sans-Serif" font-size="11.00" fill="#000000">gebruiker</text>
<polygon fill="none" stroke="#000000" points="421,-213.2 421,-235.2 540,-235.2 540,-213.2 421,-213.2"/>
<text text-anchor="start" x="424" y="-220.9" font-family="Helvetica,sans-Serif" font-size="11.00" fill="#000000">varchar[255]</text>
<polygon fill="none" stroke="#000000" points="312,-191.2 312,-213.2 421,-213.2 421,-191.2 312,-191.2"/>
<text text-anchor="start" x="332" y="-198.3" font-family="Helvetica,sans-Serif" font-size="11.00" fill="#000000">label</text>
<polygon fill="none" stroke="#000000" points="421,-191.2 421,-213.2 540,-213.2 540,-191.2 421,-191.2"/>
<text text-anchor="start" x="424" y="-198.9" font-family="Helvetica,sans-Serif" font-size="11.00" fill="#000000">text[2147483647]</text>
<polygon fill="none" stroke="#000000" points="312,-169.2 312,-191.2 421,-191.2 421,-169.2 312,-169.2"/>
<text text-anchor="start" x="332" y="-176.3" font-family="Helvetica,sans-Serif" font-size="11.00" fill="#000000">rotatie</text>
<polygon fill="none" stroke="#000000" points="421,-169.2 421,-191.2 540,-191.2 540,-169.2 421,-169.2"/>
<text text-anchor="start" x="424" y="-176.9" font-family="Helvetica,sans-Serif" font-size="11.00" fill="#000000">int4[10]</text>
<polygon fill="none" stroke="#000000" points="312,-147.2 312,-169.2 421,-169.2 421,-147.2 312,-147.2"/>
<text text-anchor="start" x="332" y="-154.3" font-family="Helvetica,sans-Serif" font-size="11.00" fill="#000000">bijzonderheden</text>
<polygon fill="none" stroke="#000000" points="421,-147.2 421,-169.2 540,-169.2 540,-147.2 421,-147.2"/>
<text text-anchor="start" x="424" y="-154.9" font-family="Helvetica,sans-Serif" font-size="11.00" fill="#000000">text[2147483647]</text>
<polygon fill="none" stroke="#000000" points="312,-125.2 312,-147.2 421,-147.2 421,-125.2 312,-125.2"/>
<text text-anchor="start" x="332" y="-132.3" font-family="Helvetica,sans-Serif" font-size="11.00" fill="#000000">plusinfo</text>
<polygon fill="none" stroke="#000000" points="421,-125.2 421,-147.2 540,-147.2 540,-125.2 421,-125.2"/>
<text text-anchor="start" x="424" y="-132.9" font-family="Helvetica,sans-Serif" font-size="11.00" fill="#000000">jsonb[2147483647]</text>
<polygon fill="#ffffff" stroke="transparent" points="312,-103.2 312,-125.2 421,-125.2 421,-103.2 312,-103.2"/>
<polygon fill="none" stroke="#000000" points="312,-103.2 312,-125.2 421,-125.2 421,-103.2 312,-103.2"/>
<image xlink:href="../../images/foreignKeys.png" width="11px" height="12px" preserveAspectRatio="xMinYMin meet" x="317" y="-120.2"/>
<text text-anchor="start" x="332" y="-110.3" font-family="Helvetica,sans-Serif" font-size="11.00" fill="#000000">object_uuid</text>
<polygon fill="none" stroke="#000000" points="421,-103.2 421,-125.2 540,-125.2 540,-103.2 421,-103.2"/>
<text text-anchor="start" x="424" y="-110.9" font-family="Helvetica,sans-Serif" font-size="11.00" fill="#000000">uuid[2147483647]</text>
<polygon fill="#ffffff" stroke="transparent" points="312,-81.2 312,-103.2 421,-103.2 421,-81.2 312,-81.2"/>
<polygon fill="none" stroke="#000000" points="312,-81.2 312,-103.2 421,-103.2 421,-81.2 312,-81.2"/>
<image xlink:href="../../images/foreignKeys.png" width="11px" height="12px" preserveAspectRatio="xMinYMin meet" x="317" y="-98.2"/>
<text text-anchor="start" x="332" y="-88.3" font-family="Helvetica,sans-Serif" font-size="11.00" fill="#000000">symbool_id</text>
<polygon fill="none" stroke="#000000" points="421,-81.2 421,-103.2 540,-103.2 540,-81.2 421,-81.2"/>
<text text-anchor="start" x="424" y="-88.9" font-family="Helvetica,sans-Serif" font-size="11.00" fill="#000000">int4[10]</text>
<polygon fill="#ffffff" stroke="transparent" points="312,-59.2 312,-81.2 421,-81.2 421,-59.2 312,-59.2"/>
<polygon fill="none" stroke="#000000" points="312,-59.2 312,-81.2 421,-81.2 421,-59.2 312,-59.2"/>
<text text-anchor="start" x="332" y="-66.3" font-family="Helvetica,sans-Serif" font-size="11.00" fill="#000000">bouwlaag</text>
<polygon fill="none" stroke="#000000" points="421,-59.2 421,-81.2 540,-81.2 540,-59.2 421,-59.2"/>
<text text-anchor="start" x="424" y="-66.9" font-family="Helvetica,sans-Serif" font-size="11.00" fill="#000000">int2[5]</text>
<polygon fill="#ffffff" stroke="transparent" points="312,-40.2 312,-59.2 371,-59.2 371,-40.2 312,-40.2"/>
<polygon fill="none" stroke="#000000" points="312,-40.2 312,-59.2 371,-59.2 371,-40.2 312,-40.2"/>
<text text-anchor="start" x="315" y="-46.3" font-family="Helvetica,sans-Serif" font-size="11.00" fill="#000000">&lt; 2</text>
<polygon fill="#ffffff" stroke="transparent" points="371,-40.2 371,-59.2 421,-59.2 421,-40.2 371,-40.2"/>
<polygon fill="none" stroke="#000000" points="371,-40.2 371,-59.2 421,-59.2 421,-40.2 371,-40.2"/>
<text text-anchor="start" x="411.8862" y="-46.3" font-family="Helvetica,sans-Serif" font-size="11.00" fill="#000000"> &#160;</text>
<polygon fill="#ffffff" stroke="transparent" points="421,-40.2 421,-59.2 540,-59.2 540,-40.2 421,-40.2"/>
<polygon fill="none" stroke="#000000" points="421,-40.2 421,-59.2 540,-59.2 540,-40.2 421,-40.2"/>
<text text-anchor="start" x="521.4053" y="-46.3" font-family="Helvetica,sans-Serif" font-size="11.00" fill="#000000">0 &gt;</text>
<polygon fill="none" stroke="#000000" stroke-width="2" points="311,-39.2 311,-325.2 541,-325.2 541,-39.2 311,-39.2"/>
</a>
</g>
</g>
<!-- voorziening&#45;&gt;object -->
<g id="edge11" class="edge">
<title>voorziening:w&#45;&gt;object:e</title>
<path fill="none" stroke="#000000" d="M300.2235,-123.2544C261.0191,-194.5048 317.9892,-662.2 261.5,-662.2"/>
<polygon fill="#000000" stroke="#000000" points="305.6578,-119.0762 314.1943,-117.054 308.8289,-116.6381 312,-114.2 312,-114.2 312,-114.2 308.8289,-116.6381 309.8057,-111.346 305.6578,-119.0762 305.6578,-119.0762"/>
<ellipse fill="none" stroke="#000000" cx="303.121" cy="-121.0267" rx="3.2" ry="3.2"/>
</g>
<!-- roi.symbool -->
<g id="node13" class="node">
<title>roi.symbool</title>
<g id="a_node13"><a xlink:href="../../../roi/tables/symbool.html" xlink:title="roi.symbool" target="_top">
<polygon fill="#ffffff" stroke="transparent" points="146,-61.7 146,-122.7 253,-122.7 253,-61.7 146,-61.7"/>
<polygon fill="#f5f5f5" stroke="transparent" points="146.5,-99.2 146.5,-122.2 253.5,-122.2 253.5,-99.2 146.5,-99.2"/>
<polygon fill="none" stroke="#000000" points="146.5,-99.2 146.5,-122.2 253.5,-122.2 253.5,-99.2 146.5,-99.2"/>
<text text-anchor="start" x="151.5" y="-107.8" font-family="Helvetica,sans-Serif" font-weight="bold" font-size="11.00" fill="#000000">roi.symbool</text>
<text text-anchor="start" x="219.0219" y="-107.3" font-family="Helvetica,sans-Serif" font-size="11.00" fill="#000000">[table]</text>
<polygon fill="none" stroke="#000000" points="146.5,-80.2 146.5,-99.2 253.5,-99.2 253.5,-80.2 146.5,-80.2"/>
<text text-anchor="start" x="149.5" y="-86.3" font-family="Helvetica,sans-Serif" font-size="11.00" fill="#000000">...</text>
<polygon fill="#ffffff" stroke="transparent" points="146.5,-61.2 146.5,-80.2 189.5,-80.2 189.5,-61.2 146.5,-61.2"/>
<polygon fill="none" stroke="#000000" points="146.5,-61.2 146.5,-80.2 189.5,-80.2 189.5,-61.2 146.5,-61.2"/>
<text text-anchor="start" x="149.5" y="-67.3" font-family="Helvetica,sans-Serif" font-size="11.00" fill="#000000"> &#160;</text>
<polygon fill="#ffffff" stroke="transparent" points="189.5,-61.2 189.5,-80.2 216.5,-80.2 216.5,-61.2 189.5,-61.2"/>
<polygon fill="none" stroke="#000000" points="189.5,-61.2 189.5,-80.2 216.5,-80.2 216.5,-61.2 189.5,-61.2"/>
<text text-anchor="start" x="207.3862" y="-67.3" font-family="Helvetica,sans-Serif" font-size="11.00" fill="#000000"> &#160;</text>
<polygon fill="#ffffff" stroke="transparent" points="216.5,-61.2 216.5,-80.2 253.5,-80.2 253.5,-61.2 216.5,-61.2"/>
<polygon fill="none" stroke="#000000" points="216.5,-61.2 216.5,-80.2 253.5,-80.2 253.5,-61.2 216.5,-61.2"/>
<text text-anchor="start" x="234.9053" y="-67.3" font-family="Helvetica,sans-Serif" font-size="11.00" fill="#000000">1 &gt;</text>
</a>
</g>
</g>
<!-- voorziening&#45;&gt;roi.symbool -->
<g id="edge12" class="edge">
<title>voorziening:w&#45;&gt;roi.symbool:e</title>
<path fill="none" stroke="#000000" d="M297.4118,-92.2C285.279,-92.2 272.8519,-92.2 261.0998,-92.2"/>
<polygon fill="#000000" stroke="#000000" points="304,-92.2001 312,-95.8 308,-92.2 312,-92.2 312,-92.2 312,-92.2 308,-92.2 312,-88.6 304,-92.2001 304,-92.2001"/>
<ellipse fill="none" stroke="#000000" cx="300.8" cy="-92.2001" rx="3.2" ry="3.2"/>
</g>
</g>
</svg>
