<?xml version="1.0" encoding="UTF-8" standalone="no"?>
<!DOCTYPE svg PUBLIC "-//W3C//DTD SVG 1.1//EN"
 "http://www.w3.org/Graphics/SVG/1.1/DTD/svg11.dtd">
<!-- Generated by graphviz version 2.50.0 (0)
 -->
<!-- Title: compactRelationshipsDiagram Pages: 1 -->
<svg width="528pt" height="674pt"
 viewBox="0.00 0.00 528.00 674.00" xmlns="http://www.w3.org/2000/svg" xmlns:xlink="http://www.w3.org/1999/xlink">
<g id="graph0" class="graph" transform="scale(1 1) rotate(0) translate(4 670)">
<title>compactRelationshipsDiagram</title>
<polygon fill="#ffffff" stroke="transparent" points="-4,4 -4,-670 524,-670 524,4 -4,4"/>
<text text-anchor="middle" x="79.5" y="-7.2" font-family="Helvetica,sans-Serif" font-size="11.00">Generated by SchemaSpy</text>
<!-- roi.fase -->
<g id="node1" class="node">
<title>roi.fase</title>
<g id="a_node1"><a xlink:href="../../../roi/tables/fase.html" xlink:title="roi.fase" target="_top">
<polygon fill="#ffffff" stroke="transparent" points="20,-353 20,-411 119,-411 119,-353 20,-353"/>
<polygon fill="#f5f5f5" stroke="transparent" points="20.5,-389 20.5,-411 119.5,-411 119.5,-389 20.5,-389"/>
<polygon fill="none" stroke="black" points="20.5,-389 20.5,-411 119.5,-411 119.5,-389 20.5,-389"/>
<text text-anchor="start" x="25.5" y="-398.2" font-family="Helvetica,sans-Serif" font-weight="bold" font-size="11.00">roi.fase</text>
<text text-anchor="start" x="77.5" y="-397.2" font-family="Helvetica,sans-Serif" font-size="11.00">[table]</text>
<polygon fill="none" stroke="black" points="20.5,-371 20.5,-389 119.5,-389 119.5,-371 20.5,-371"/>
<text text-anchor="start" x="23.5" y="-377.2" font-family="Helvetica,sans-Serif" font-size="11.00">...</text>
<polygon fill="#ffffff" stroke="transparent" points="20.5,-353 20.5,-371 56.5,-371 56.5,-353 20.5,-353"/>
<polygon fill="none" stroke="black" points="20.5,-353 20.5,-371 56.5,-371 56.5,-353 20.5,-353"/>
<text text-anchor="start" x="23.5" y="-359.2" font-family="Helvetica,sans-Serif" font-size="11.00"> &#160;</text>
<polygon fill="#ffffff" stroke="transparent" points="56.5,-353 56.5,-371 81.5,-371 81.5,-353 56.5,-353"/>
<polygon fill="none" stroke="black" points="56.5,-353 56.5,-371 81.5,-371 81.5,-353 56.5,-353"/>
<text text-anchor="start" x="70.5" y="-359.2" font-family="Helvetica,sans-Serif" font-size="11.00"> &#160;</text>
<polygon fill="#ffffff" stroke="transparent" points="81.5,-353 81.5,-371 119.5,-371 119.5,-353 81.5,-353"/>
<polygon fill="none" stroke="black" points="81.5,-353 81.5,-371 119.5,-371 119.5,-353 81.5,-353"/>
<text text-anchor="start" x="96.5" y="-359.2" font-family="Helvetica,sans-Serif" font-size="11.00">1 &gt;</text>
</a>
</g>
</g>
<!-- roi.symbool -->
<g id="node2" class="node">
<title>roi.symbool</title>
<g id="a_node2"><a xlink:href="../../../roi/tables/symbool.html" xlink:title="roi.symbool" target="_top">
<polygon fill="#ffffff" stroke="transparent" points="187,-55 187,-113 311,-113 311,-55 187,-55"/>
<polygon fill="#f5f5f5" stroke="transparent" points="187,-91 187,-113 311,-113 311,-91 187,-91"/>
<polygon fill="none" stroke="black" points="187,-91 187,-113 311,-113 311,-91 187,-91"/>
<text text-anchor="start" x="192" y="-100.2" font-family="Helvetica,sans-Serif" font-weight="bold" font-size="11.00">roi.symbool</text>
<text text-anchor="start" x="269" y="-99.2" font-family="Helvetica,sans-Serif" font-size="11.00">[table]</text>
<polygon fill="none" stroke="black" points="187,-73 187,-91 311,-91 311,-73 187,-73"/>
<text text-anchor="start" x="190" y="-79.2" font-family="Helvetica,sans-Serif" font-size="11.00">...</text>
<polygon fill="#ffffff" stroke="transparent" points="187,-55 187,-73 236,-73 236,-55 187,-55"/>
<polygon fill="none" stroke="black" points="187,-55 187,-73 236,-73 236,-55 187,-55"/>
<text text-anchor="start" x="190" y="-61.2" font-family="Helvetica,sans-Serif" font-size="11.00"> &#160;</text>
<polygon fill="#ffffff" stroke="transparent" points="236,-55 236,-73 267,-73 267,-55 236,-55"/>
<polygon fill="none" stroke="black" points="236,-55 236,-73 267,-73 267,-55 236,-55"/>
<text text-anchor="start" x="256" y="-61.2" font-family="Helvetica,sans-Serif" font-size="11.00"> &#160;</text>
<polygon fill="#ffffff" stroke="transparent" points="267,-55 267,-73 311,-73 311,-55 267,-55"/>
<polygon fill="none" stroke="black" points="267,-55 267,-73 311,-73 311,-55 267,-55"/>
<text text-anchor="start" x="288" y="-61.2" font-family="Helvetica,sans-Serif" font-size="11.00">1 &gt;</text>
</a>
</g>
</g>
<!-- roi.verbinding -->
<g id="node3" class="node">
<title>roi.verbinding</title>
<g id="a_node3"><a xlink:href="../../../roi/tables/verbinding.html" xlink:title="roi.verbinding" target="_top">
<polygon fill="#ffffff" stroke="transparent" points="180,-534 180,-592 318,-592 318,-534 180,-534"/>
<polygon fill="#f5f5f5" stroke="transparent" points="180,-570 180,-592 318,-592 318,-570 180,-570"/>
<polygon fill="none" stroke="black" points="180,-570 180,-592 318,-592 318,-570 180,-570"/>
<text text-anchor="start" x="185" y="-579.2" font-family="Helvetica,sans-Serif" font-weight="bold" font-size="11.00">roi.verbinding</text>
<text text-anchor="start" x="276" y="-578.2" font-family="Helvetica,sans-Serif" font-size="11.00">[table]</text>
<polygon fill="none" stroke="black" points="180,-552 180,-570 318,-570 318,-552 180,-552"/>
<text text-anchor="start" x="183" y="-558.2" font-family="Helvetica,sans-Serif" font-size="11.00">...</text>
<polygon fill="#ffffff" stroke="transparent" points="180,-534 180,-552 236,-552 236,-534 180,-534"/>
<polygon fill="none" stroke="black" points="180,-534 180,-552 236,-552 236,-534 180,-534"/>
<text text-anchor="start" x="183" y="-540.2" font-family="Helvetica,sans-Serif" font-size="11.00"> &#160;</text>
<polygon fill="#ffffff" stroke="transparent" points="236,-534 236,-552 271,-552 271,-534 236,-534"/>
<polygon fill="none" stroke="black" points="236,-534 236,-552 271,-552 271,-534 236,-534"/>
<text text-anchor="start" x="260" y="-540.2" font-family="Helvetica,sans-Serif" font-size="11.00"> &#160;</text>
<polygon fill="#ffffff" stroke="transparent" points="271,-534 271,-552 318,-552 318,-534 271,-534"/>
<polygon fill="none" stroke="black" points="271,-534 271,-552 318,-552 318,-534 271,-534"/>
<text text-anchor="start" x="295" y="-540.2" font-family="Helvetica,sans-Serif" font-size="11.00">1 &gt;</text>
</a>
</g>
</g>
<!-- roi.voertuig -->
<g id="node4" class="node">
<title>roi.voertuig</title>
<g id="a_node4"><a xlink:href="../../../roi/tables/voertuig.html" xlink:title="roi.voertuig" target="_top">
<polygon fill="#ffffff" stroke="transparent" points="187,-204 187,-262 311,-262 311,-204 187,-204"/>
<polygon fill="#f5f5f5" stroke="transparent" points="187,-240 187,-262 311,-262 311,-240 187,-240"/>
<polygon fill="none" stroke="black" points="187,-240 187,-262 311,-262 311,-240 187,-240"/>
<text text-anchor="start" x="192" y="-249.2" font-family="Helvetica,sans-Serif" font-weight="bold" font-size="11.00">roi.voertuig</text>
<text text-anchor="start" x="269" y="-248.2" font-family="Helvetica,sans-Serif" font-size="11.00">[table]</text>
<polygon fill="none" stroke="black" points="187,-222 187,-240 311,-240 311,-222 187,-222"/>
<text text-anchor="start" x="190" y="-228.2" font-family="Helvetica,sans-Serif" font-size="11.00">...</text>
<polygon fill="#ffffff" stroke="transparent" points="187,-204 187,-222 236,-222 236,-204 187,-204"/>
<polygon fill="none" stroke="black" points="187,-204 187,-222 236,-222 236,-204 187,-204"/>
<text text-anchor="start" x="190" y="-210.2" font-family="Helvetica,sans-Serif" font-size="11.00"> &#160;</text>
<polygon fill="#ffffff" stroke="transparent" points="236,-204 236,-222 267,-222 267,-204 236,-204"/>
<polygon fill="none" stroke="black" points="236,-204 236,-222 267,-222 267,-204 236,-204"/>
<text text-anchor="start" x="256" y="-210.2" font-family="Helvetica,sans-Serif" font-size="11.00"> &#160;</text>
<polygon fill="#ffffff" stroke="transparent" points="267,-204 267,-222 311,-222 311,-204 267,-204"/>
<polygon fill="none" stroke="black" points="267,-204 267,-222 311,-222 311,-204 267,-204"/>
<text text-anchor="start" x="288" y="-210.2" font-family="Helvetica,sans-Serif" font-size="11.00">1 &gt;</text>
</a>
</g>
</g>
<!-- bereikbaarheid -->
<g id="node5" class="node">
<title>bereikbaarheid</title>
<g id="a_node5"><a xlink:href="../../tables/bereikbaarheid.html" xlink:title="bereikbaarheid" target="_top">
<polygon fill="#ffffff" stroke="transparent" points="367,-516 367,-662 512,-662 512,-516 367,-516"/>
<polygon fill="#f5f5f5" stroke="transparent" points="367.5,-640 367.5,-662 512.5,-662 512.5,-640 367.5,-640"/>
<polygon fill="none" stroke="black" points="367.5,-640 367.5,-662 512.5,-662 512.5,-640 367.5,-640"/>
<text text-anchor="start" x="372.5" y="-649.2" font-family="Helvetica,sans-Serif" font-weight="bold" font-size="11.00">bereikbaarheid</text>
<text text-anchor="start" x="470.5" y="-648.2" font-family="Helvetica,sans-Serif" font-size="11.00">[table]</text>
<polygon fill="none" stroke="black" points="367.5,-618 367.5,-640 512.5,-640 512.5,-618 367.5,-618"/>
<image xlink:href="../../images/primaryKeys.png" width="11px" height="12px" preserveAspectRatio="xMinYMin meet" x="372.5" y="-635"/>
<text text-anchor="start" x="403.5" y="-626.2" font-family="Helvetica,sans-Serif" font-size="11.00">uuid</text>
<polygon fill="#ffffff" stroke="transparent" points="367.5,-596 367.5,-618 512.5,-618 512.5,-596 367.5,-596"/>
<polygon fill="none" stroke="black" points="367.5,-596 367.5,-618 512.5,-618 512.5,-596 367.5,-596"/>
<text text-anchor="start" x="403.5" y="-604.2" font-family="Helvetica,sans-Serif" font-size="11.00">geom</text>
<polygon fill="#ffffff" stroke="transparent" points="367.5,-574 367.5,-596 512.5,-596 512.5,-574 367.5,-574"/>
<polygon fill="none" stroke="black" points="367.5,-574 367.5,-596 512.5,-596 512.5,-574 367.5,-574"/>
<image xlink:href="../../images/foreignKeys.png" width="11px" height="12px" preserveAspectRatio="xMinYMin meet" x="372.5" y="-591"/>
<text text-anchor="start" x="403.5" y="-582.2" font-family="Helvetica,sans-Serif" font-size="11.00">object_uuid</text>
<polygon fill="none" stroke="black" points="367.5,-552 367.5,-574 512.5,-574 512.5,-552 367.5,-552"/>
<image xlink:href="../../images/foreignKeys.png" width="11px" height="12px" preserveAspectRatio="xMinYMin meet" x="372.5" y="-569"/>
<text text-anchor="start" x="403.5" y="-560.2" font-family="Helvetica,sans-Serif" font-size="11.00">verbinding_id</text>
<polygon fill="none" stroke="black" points="367.5,-534 367.5,-552 512.5,-552 512.5,-534 367.5,-534"/>
<text text-anchor="start" x="370.5" y="-540.2" font-family="Helvetica,sans-Serif" font-size="11.00">...</text>
<polygon fill="#ffffff" stroke="transparent" points="367.5,-516 367.5,-534 438.5,-534 438.5,-516 367.5,-516"/>
<polygon fill="none" stroke="black" points="367.5,-516 367.5,-534 438.5,-534 438.5,-516 367.5,-516"/>
<text text-anchor="start" x="370.5" y="-522.2" font-family="Helvetica,sans-Serif" font-size="11.00">&lt; 2</text>
<polygon fill="#ffffff" stroke="transparent" points="438.5,-516 438.5,-534 475.5,-534 475.5,-516 438.5,-516"/>
<polygon fill="none" stroke="black" points="438.5,-516 438.5,-534 475.5,-534 475.5,-516 438.5,-516"/>
<text text-anchor="start" x="464.5" y="-522.2" font-family="Helvetica,sans-Serif" font-size="11.00"> &#160;</text>
<polygon fill="#ffffff" stroke="transparent" points="475.5,-516 475.5,-534 512.5,-534 512.5,-516 475.5,-516"/>
<polygon fill="none" stroke="black" points="475.5,-516 475.5,-534 512.5,-534 512.5,-516 475.5,-516"/>
<text text-anchor="start" x="501.5" y="-522.2" font-family="Helvetica,sans-Serif" font-size="11.00"> &#160;</text>
</a>
</g>
</g>
<!-- bereikbaarheid&#45;&gt;roi.verbinding -->
<g id="edge2" class="edge">
<title>bereikbaarheid:w&#45;&gt;roi.verbinding:e</title>
<path fill="none" stroke="black" d="M351.86,-563C343.33,-563 334.65,-563 326.14,-563"/>
<polygon fill="black" stroke="black" points="358.5,-563 366.5,-566.6 362.5,-563 366.5,-563 366.5,-563 366.5,-563 362.5,-563 366.5,-559.4 358.5,-563 358.5,-563"/>
<ellipse fill="none" stroke="black" cx="355.3" cy="-563" rx="3.2" ry="3.2"/>
</g>
<!-- object -->
<g id="node6" class="node">
<title>object</title>
<g id="a_node6"><a xlink:href="../../tables/object.html" xlink:title="object" target="_top">
<polygon fill="#ffffff" stroke="transparent" points="184.5,-283 184.5,-451 313.5,-451 313.5,-283 184.5,-283"/>
<polygon fill="#f5f5f5" stroke="transparent" points="185,-429 185,-451 314,-451 314,-429 185,-429"/>
<polygon fill="none" stroke="black" points="185,-429 185,-451 314,-451 314,-429 185,-429"/>
<text text-anchor="start" x="190" y="-438.2" font-family="Helvetica,sans-Serif" font-weight="bold" font-size="11.00">object</text>
<text text-anchor="start" x="272" y="-437.2" font-family="Helvetica,sans-Serif" font-size="11.00">[table]</text>
<polygon fill="none" stroke="black" points="185,-407 185,-429 314,-429 314,-407 185,-407"/>
<image xlink:href="../../images/primaryKeys.png" width="11px" height="12px" preserveAspectRatio="xMinYMin meet" x="190" y="-424"/>
<text text-anchor="start" x="205" y="-415.2" font-family="Helvetica,sans-Serif" font-size="11.00">uuid</text>
<polygon fill="#ffffff" stroke="transparent" points="185,-385 185,-407 314,-407 314,-385 185,-385"/>
<polygon fill="none" stroke="black" points="185,-385 185,-407 314,-407 314,-385 185,-385"/>
<text text-anchor="start" x="205" y="-393.2" font-family="Helvetica,sans-Serif" font-size="11.00">geom</text>
<polygon fill="#ffffff" stroke="transparent" points="185,-363 185,-385 314,-385 314,-363 185,-363"/>
<polygon fill="none" stroke="black" points="185,-363 185,-385 314,-385 314,-363 185,-363"/>
<text text-anchor="start" x="205" y="-371.2" font-family="Helvetica,sans-Serif" font-size="11.00">revisie_frequentie</text>
<polygon fill="#ffffff" stroke="transparent" points="185,-341 185,-363 314,-363 314,-341 185,-341"/>
<polygon fill="none" stroke="black" points="185,-341 185,-363 314,-363 314,-341 185,-341"/>
<image xlink:href="../../images/foreignKeys.png" width="11px" height="12px" preserveAspectRatio="xMinYMin meet" x="190" y="-358"/>
<text text-anchor="start" x="205" y="-349.2" font-family="Helvetica,sans-Serif" font-size="11.00">fase_id</text>
<polygon fill="#ffffff" stroke="transparent" points="185,-319 185,-341 314,-341 314,-319 185,-319"/>
<polygon fill="none" stroke="black" points="185,-319 185,-341 314,-341 314,-319 185,-319"/>
<image xlink:href="../../images/foreignKeys.png" width="11px" height="12px" preserveAspectRatio="xMinYMin meet" x="190" y="-336"/>
<text text-anchor="start" x="205" y="-327.2" font-family="Helvetica,sans-Serif" font-size="11.00">object_type_id</text>
<polygon fill="none" stroke="black" points="185,-301 185,-319 314,-319 314,-301 185,-301"/>
<text text-anchor="start" x="188" y="-307.2" font-family="Helvetica,sans-Serif" font-size="11.00">...</text>
<polygon fill="#ffffff" stroke="transparent" points="185,-283 185,-301 242,-301 242,-283 185,-283"/>
<polygon fill="none" stroke="black" points="185,-283 185,-301 242,-301 242,-283 185,-283"/>
<text text-anchor="start" x="188" y="-289.2" font-family="Helvetica,sans-Serif" font-size="11.00">&lt; 2</text>
<polygon fill="#ffffff" stroke="transparent" points="242,-283 242,-301 272,-301 272,-283 242,-283"/>
<polygon fill="none" stroke="black" points="242,-283 242,-301 272,-301 272,-283 242,-283"/>
<text text-anchor="start" x="261" y="-289.2" font-family="Helvetica,sans-Serif" font-size="11.00"> &#160;</text>
<polygon fill="#ffffff" stroke="transparent" points="272,-283 272,-301 314,-301 314,-283 272,-283"/>
<polygon fill="none" stroke="black" points="272,-283 272,-301 314,-301 314,-283 272,-283"/>
<text text-anchor="start" x="291" y="-289.2" font-family="Helvetica,sans-Serif" font-size="11.00">4 &gt;</text>
</a>
</g>
</g>
<!-- bereikbaarheid&#45;&gt;object -->
<g id="edge1" class="edge">
<title>bereikbaarheid:w&#45;&gt;object:e</title>
<path fill="none" stroke="black" d="M352.06,-582.38C303.24,-561.13 386.91,-418 315,-418"/>
<polygon fill="black" stroke="black" points="358.63,-583.57 365.86,-588.54 362.56,-584.29 366.5,-585 366.5,-585 366.5,-585 362.56,-584.29 367.14,-581.46 358.63,-583.57 358.63,-583.57"/>
<ellipse fill="none" stroke="black" cx="355.48" cy="-583" rx="3.2" ry="3.2"/>
</g>
<!-- object&#45;&gt;roi.fase -->
<g id="edge3" class="edge">
<title>object:w&#45;&gt;roi.fase:e</title>
<path fill="none" stroke="black" d="M169.24,-352.73C154.95,-354.09 140.48,-357.21 127.18,-360.92"/>
<polygon fill="black" stroke="black" points="176.01,-352.4 184.18,-355.6 180,-352.2 184,-352 184,-352 184,-352 180,-352.2 183.82,-348.4 176.01,-352.4 176.01,-352.4"/>
<ellipse fill="none" stroke="black" cx="172.81" cy="-352.56" rx="3.2" ry="3.2"/>
</g>
<!-- object_type -->
<g id="node7" class="node">
<title>object_type</title>
<g id="a_node7"><a xlink:href="../../tables/object_type.html" xlink:title="object_type" target="_top">
<polygon fill="#ffffff" stroke="transparent" points="8,-252 8,-332 131,-332 131,-252 8,-252"/>
<polygon fill="#f5f5f5" stroke="transparent" points="8.5,-310 8.5,-332 131.5,-332 131.5,-310 8.5,-310"/>
<polygon fill="none" stroke="black" points="8.5,-310 8.5,-332 131.5,-332 131.5,-310 8.5,-310"/>
<text text-anchor="start" x="13.5" y="-319.2" font-family="Helvetica,sans-Serif" font-weight="bold" font-size="11.00">object_type</text>
<text text-anchor="start" x="89.5" y="-318.2" font-family="Helvetica,sans-Serif" font-size="11.00">[table]</text>
<polygon fill="none" stroke="black" points="8.5,-288 8.5,-310 131.5,-310 131.5,-288 8.5,-288"/>
<image xlink:href="../../images/primaryKeys.png" width="11px" height="12px" preserveAspectRatio="xMinYMin meet" x="13.5" y="-305"/>
<text text-anchor="start" x="41.5" y="-296.2" font-family="Helvetica,sans-Serif" font-size="11.00">id</text>
<polygon fill="none" stroke="black" points="8.5,-270 8.5,-288 131.5,-288 131.5,-270 8.5,-270"/>
<text text-anchor="start" x="11.5" y="-276.2" font-family="Helvetica,sans-Serif" font-size="11.00">...</text>
<polygon fill="#ffffff" stroke="transparent" points="8.5,-252 8.5,-270 56.5,-270 56.5,-252 8.5,-252"/>
<polygon fill="none" stroke="black" points="8.5,-252 8.5,-270 56.5,-270 56.5,-252 8.5,-252"/>
<text text-anchor="start" x="11.5" y="-258.2" font-family="Helvetica,sans-Serif" font-size="11.00"> &#160;</text>
<polygon fill="#ffffff" stroke="transparent" points="56.5,-252 56.5,-270 87.5,-270 87.5,-252 56.5,-252"/>
<polygon fill="none" stroke="black" points="56.5,-252 56.5,-270 87.5,-270 87.5,-252 56.5,-252"/>
<text text-anchor="start" x="76.5" y="-258.2" font-family="Helvetica,sans-Serif" font-size="11.00"> &#160;</text>
<polygon fill="#ffffff" stroke="transparent" points="87.5,-252 87.5,-270 131.5,-270 131.5,-252 87.5,-252"/>
<polygon fill="none" stroke="black" points="87.5,-252 87.5,-270 131.5,-270 131.5,-252 87.5,-252"/>
<text text-anchor="start" x="108.5" y="-258.2" font-family="Helvetica,sans-Serif" font-size="11.00">1 &gt;</text>
</a>
</g>
</g>
<!-- object&#45;&gt;object_type -->
<g id="edge4" class="edge">
<title>object:w&#45;&gt;object_type:e</title>
<path fill="none" stroke="black" d="M169.98,-326.2C156.76,-317.92 153.37,-299 132.5,-299"/>
<polygon fill="black" stroke="black" points="176.28,-327.91 183.06,-333.47 180.14,-328.95 184,-330 184,-330 184,-330 180.14,-328.95 184.94,-326.53 176.28,-327.91 176.28,-327.91"/>
<ellipse fill="none" stroke="black" cx="173.19" cy="-327.07" rx="3.2" ry="3.2"/>
</g>
<!-- opstelplaats -->
<g id="node8" class="node">
<title>opstelplaats</title>
<g id="a_node8"><a xlink:href="../../tables/opstelplaats.html" xlink:title="opstelplaats" target="_top">
<polygon fill="#ffffff" stroke="transparent" points="375.5,-204 375.5,-350 503.5,-350 503.5,-204 375.5,-204"/>
<polygon fill="#f5f5f5" stroke="transparent" points="375.5,-328 375.5,-350 503.5,-350 503.5,-328 375.5,-328"/>
<polygon fill="none" stroke="black" points="375.5,-328 375.5,-350 503.5,-350 503.5,-328 375.5,-328"/>
<text text-anchor="start" x="380.5" y="-337.2" font-family="Helvetica,sans-Serif" font-weight="bold" font-size="11.00">opstelplaats</text>
<text text-anchor="start" x="461.5" y="-336.2" font-family="Helvetica,sans-Serif" font-size="11.00">[table]</text>
<polygon fill="none" stroke="black" points="375.5,-306 375.5,-328 503.5,-328 503.5,-306 375.5,-306"/>
<image xlink:href="../../images/primaryKeys.png" width="11px" height="12px" preserveAspectRatio="xMinYMin meet" x="380.5" y="-323"/>
<text text-anchor="start" x="402.5" y="-314.2" font-family="Helvetica,sans-Serif" font-size="11.00">uuid</text>
<polygon fill="#ffffff" stroke="transparent" points="375.5,-284 375.5,-306 503.5,-306 503.5,-284 375.5,-284"/>
<polygon fill="none" stroke="black" points="375.5,-284 375.5,-306 503.5,-306 503.5,-284 375.5,-284"/>
<text text-anchor="start" x="402.5" y="-292.2" font-family="Helvetica,sans-Serif" font-size="11.00">geom</text>
<polygon fill="#ffffff" stroke="transparent" points="375.5,-262 375.5,-284 503.5,-284 503.5,-262 375.5,-262"/>
<polygon fill="none" stroke="black" points="375.5,-262 375.5,-284 503.5,-284 503.5,-262 375.5,-262"/>
<image xlink:href="../../images/foreignKeys.png" width="11px" height="12px" preserveAspectRatio="xMinYMin meet" x="380.5" y="-279"/>
<text text-anchor="start" x="402.5" y="-270.2" font-family="Helvetica,sans-Serif" font-size="11.00">object_uuid</text>
<polygon fill="none" stroke="black" points="375.5,-240 375.5,-262 503.5,-262 503.5,-240 375.5,-240"/>
<image xlink:href="../../images/foreignKeys.png" width="11px" height="12px" preserveAspectRatio="xMinYMin meet" x="380.5" y="-257"/>
<text text-anchor="start" x="402.5" y="-248.2" font-family="Helvetica,sans-Serif" font-size="11.00">voertuig_id</text>
<polygon fill="none" stroke="black" points="375.5,-222 375.5,-240 503.5,-240 503.5,-222 375.5,-222"/>
<text text-anchor="start" x="378.5" y="-228.2" font-family="Helvetica,sans-Serif" font-size="11.00">...</text>
<polygon fill="#ffffff" stroke="transparent" points="375.5,-204 375.5,-222 438.5,-222 438.5,-204 375.5,-204"/>
<polygon fill="none" stroke="black" points="375.5,-204 375.5,-222 438.5,-222 438.5,-204 375.5,-204"/>
<text text-anchor="start" x="378.5" y="-210.2" font-family="Helvetica,sans-Serif" font-size="11.00">&lt; 2</text>
<polygon fill="#ffffff" stroke="transparent" points="438.5,-204 438.5,-222 470.5,-222 470.5,-204 438.5,-204"/>
<polygon fill="none" stroke="black" points="438.5,-204 438.5,-222 470.5,-222 470.5,-204 438.5,-204"/>
<text text-anchor="start" x="459.5" y="-210.2" font-family="Helvetica,sans-Serif" font-size="11.00"> &#160;</text>
<polygon fill="#ffffff" stroke="transparent" points="470.5,-204 470.5,-222 503.5,-222 503.5,-204 470.5,-204"/>
<polygon fill="none" stroke="black" points="470.5,-204 470.5,-222 503.5,-222 503.5,-204 470.5,-204"/>
<text text-anchor="start" x="492.5" y="-210.2" font-family="Helvetica,sans-Serif" font-size="11.00"> &#160;</text>
</a>
</g>
</g>
<!-- opstelplaats&#45;&gt;roi.voertuig -->
<g id="edge6" class="edge">
<title>opstelplaats:w&#45;&gt;roi.voertuig:e</title>
<path fill="none" stroke="black" d="M359.91,-250.63C346.31,-249.96 332.38,-248.46 319.22,-246.6"/>
<polygon fill="black" stroke="black" points="366.5,-250.8 374.41,-254.6 370.5,-250.9 374.5,-251 374.5,-251 374.5,-251 370.5,-250.9 374.59,-247.4 366.5,-250.8 366.5,-250.8"/>
<ellipse fill="none" stroke="black" cx="363.3" cy="-250.71" rx="3.2" ry="3.2"/>
</g>
<!-- opstelplaats&#45;&gt;object -->
<g id="edge5" class="edge">
<title>opstelplaats:w&#45;&gt;object:e</title>
<path fill="none" stroke="black" d="M360.21,-275.77C316.93,-295.81 378.94,-418 315,-418"/>
<polygon fill="black" stroke="black" points="366.65,-274.52 375.18,-276.53 370.57,-273.76 374.5,-273 374.5,-273 374.5,-273 370.57,-273.76 373.82,-269.47 366.65,-274.52 366.65,-274.52"/>
<ellipse fill="none" stroke="black" cx="363.5" cy="-275.13" rx="3.2" ry="3.2"/>
</g>
<!-- risico -->
<g id="node9" class="node">
<title>risico</title>
<g id="a_node9"><a xlink:href="../../tables/risico.html" xlink:title="risico" target="_top">
<polygon fill="#ffffff" stroke="transparent" points="382.5,-371 382.5,-495 496.5,-495 496.5,-371 382.5,-371"/>
<polygon fill="#f5f5f5" stroke="transparent" points="382.5,-473 382.5,-495 496.5,-495 496.5,-473 382.5,-473"/>
<polygon fill="none" stroke="black" points="382.5,-473 382.5,-495 496.5,-495 496.5,-473 382.5,-473"/>
<text text-anchor="start" x="387.5" y="-482.2" font-family="Helvetica,sans-Serif" font-weight="bold" font-size="11.00">risico</text>
<text text-anchor="start" x="454.5" y="-481.2" font-family="Helvetica,sans-Serif" font-size="11.00">[table]</text>
<polygon fill="none" stroke="black" points="382.5,-451 382.5,-473 496.5,-473 496.5,-451 382.5,-451"/>
<image xlink:href="../../images/primaryKeys.png" width="11px" height="12px" preserveAspectRatio="xMinYMin meet" x="387.5" y="-468"/>
<text text-anchor="start" x="402.5" y="-459.2" font-family="Helvetica,sans-Serif" font-size="11.00">uuid</text>
<polygon fill="#ffffff" stroke="transparent" points="382.5,-429 382.5,-451 496.5,-451 496.5,-429 382.5,-429"/>
<polygon fill="none" stroke="black" points="382.5,-429 382.5,-451 496.5,-451 496.5,-429 382.5,-429"/>
<text text-anchor="start" x="402.5" y="-437.2" font-family="Helvetica,sans-Serif" font-size="11.00">geom</text>
<polygon fill="#ffffff" stroke="transparent" points="382.5,-407 382.5,-429 496.5,-429 496.5,-407 382.5,-407"/>
<polygon fill="none" stroke="black" points="382.5,-407 382.5,-429 496.5,-429 496.5,-407 382.5,-407"/>
<image xlink:href="../../images/foreignKeys.png" width="11px" height="12px" preserveAspectRatio="xMinYMin meet" x="387.5" y="-424"/>
<text text-anchor="start" x="402.5" y="-415.2" font-family="Helvetica,sans-Serif" font-size="11.00">object_uuid</text>
<polygon fill="none" stroke="black" points="382.5,-389 382.5,-407 496.5,-407 496.5,-389 382.5,-389"/>
<text text-anchor="start" x="385.5" y="-395.2" font-family="Helvetica,sans-Serif" font-size="11.00">...</text>
<polygon fill="#ffffff" stroke="transparent" points="382.5,-371 382.5,-389 438.5,-389 438.5,-371 382.5,-371"/>
<polygon fill="none" stroke="black" points="382.5,-371 382.5,-389 438.5,-389 438.5,-371 382.5,-371"/>
<text text-anchor="start" x="385.5" y="-377.2" font-family="Helvetica,sans-Serif" font-size="11.00">&lt; 1</text>
<polygon fill="#ffffff" stroke="transparent" points="438.5,-371 438.5,-389 467.5,-389 467.5,-371 438.5,-371"/>
<polygon fill="none" stroke="black" points="438.5,-371 438.5,-389 467.5,-389 467.5,-371 438.5,-371"/>
<text text-anchor="start" x="456.5" y="-377.2" font-family="Helvetica,sans-Serif" font-size="11.00"> &#160;</text>
<polygon fill="#ffffff" stroke="transparent" points="467.5,-371 467.5,-389 496.5,-389 496.5,-371 467.5,-371"/>
<polygon fill="none" stroke="black" points="467.5,-371 467.5,-389 496.5,-389 496.5,-371 467.5,-371"/>
<text text-anchor="start" x="485.5" y="-377.2" font-family="Helvetica,sans-Serif" font-size="11.00"> &#160;</text>
</a>
</g>
</g>
<!-- risico&#45;&gt;object -->
<g id="edge7" class="edge">
<title>risico:w&#45;&gt;object:e</title>
<path fill="none" stroke="black" d="M366.92,-418C348.39,-418 339.01,-418 315,-418"/>
<polygon fill="black" stroke="black" points="373.5,-418 381.5,-421.6 377.5,-418 381.5,-418 381.5,-418 381.5,-418 377.5,-418 381.5,-414.4 373.5,-418 373.5,-418"/>
<ellipse fill="none" stroke="black" cx="370.3" cy="-418" rx="3.2" ry="3.2"/>
</g>
<!-- voorziening -->
<g id="node10" class="node">
<title>voorziening</title>
<g id="a_node10"><a xlink:href="../../tables/voorziening.html" xlink:title="voorziening" target="_top">
<polygon fill="#ffffff" stroke="transparent" points="377.5,-37 377.5,-183 501.5,-183 501.5,-37 377.5,-37"/>
<polygon fill="#f5f5f5" stroke="transparent" points="377.5,-161 377.5,-183 501.5,-183 501.5,-161 377.5,-161"/>
<polygon fill="none" stroke="black" points="377.5,-161 377.5,-183 501.5,-183 501.5,-161 377.5,-161"/>
<text text-anchor="start" x="382.5" y="-170.2" font-family="Helvetica,sans-Serif" font-weight="bold" font-size="11.00">voorziening</text>
<text text-anchor="start" x="459.5" y="-169.2" font-family="Helvetica,sans-Serif" font-size="11.00">[table]</text>
<polygon fill="none" stroke="black" points="377.5,-139 377.5,-161 501.5,-161 501.5,-139 377.5,-139"/>
<image xlink:href="../../images/primaryKeys.png" width="11px" height="12px" preserveAspectRatio="xMinYMin meet" x="382.5" y="-156"/>
<text text-anchor="start" x="402.5" y="-147.2" font-family="Helvetica,sans-Serif" font-size="11.00">uuid</text>
<polygon fill="#ffffff" stroke="transparent" points="377.5,-117 377.5,-139 501.5,-139 501.5,-117 377.5,-117"/>
<polygon fill="none" stroke="black" points="377.5,-117 377.5,-139 501.5,-139 501.5,-117 377.5,-117"/>
<text text-anchor="start" x="402.5" y="-125.2" font-family="Helvetica,sans-Serif" font-size="11.00">geom</text>
<polygon fill="#ffffff" stroke="transparent" points="377.5,-95 377.5,-117 501.5,-117 501.5,-95 377.5,-95"/>
<polygon fill="none" stroke="black" points="377.5,-95 377.5,-117 501.5,-117 501.5,-95 377.5,-95"/>
<image xlink:href="../../images/foreignKeys.png" width="11px" height="12px" preserveAspectRatio="xMinYMin meet" x="382.5" y="-112"/>
<text text-anchor="start" x="402.5" y="-103.2" font-family="Helvetica,sans-Serif" font-size="11.00">object_uuid</text>
<polygon fill="none" stroke="black" points="377.5,-73 377.5,-95 501.5,-95 501.5,-73 377.5,-73"/>
<image xlink:href="../../images/foreignKeys.png" width="11px" height="12px" preserveAspectRatio="xMinYMin meet" x="382.5" y="-90"/>
<text text-anchor="start" x="402.5" y="-81.2" font-family="Helvetica,sans-Serif" font-size="11.00">symbool_id</text>
<polygon fill="none" stroke="black" points="377.5,-55 377.5,-73 501.5,-73 501.5,-55 377.5,-55"/>
<text text-anchor="start" x="380.5" y="-61.2" font-family="Helvetica,sans-Serif" font-size="11.00">...</text>
<polygon fill="#ffffff" stroke="transparent" points="377.5,-37 377.5,-55 438.5,-55 438.5,-37 377.5,-37"/>
<polygon fill="none" stroke="black" points="377.5,-37 377.5,-55 438.5,-55 438.5,-37 377.5,-37"/>
<text text-anchor="start" x="380.5" y="-43.2" font-family="Helvetica,sans-Serif" font-size="11.00">&lt; 2</text>
<polygon fill="#ffffff" stroke="transparent" points="438.5,-37 438.5,-55 469.5,-55 469.5,-37 438.5,-37"/>
<polygon fill="none" stroke="black" points="438.5,-37 438.5,-55 469.5,-55 469.5,-37 438.5,-37"/>
<text text-anchor="start" x="458.5" y="-43.2" font-family="Helvetica,sans-Serif" font-size="11.00"> &#160;</text>
<polygon fill="#ffffff" stroke="transparent" points="469.5,-37 469.5,-55 501.5,-55 501.5,-37 469.5,-37"/>
<polygon fill="none" stroke="black" points="469.5,-37 469.5,-55 501.5,-55 501.5,-37 469.5,-37"/>
<text text-anchor="start" x="490.5" y="-43.2" font-family="Helvetica,sans-Serif" font-size="11.00"> &#160;</text>
</a>
</g>
</g>
<!-- voorziening&#45;&gt;roi.symbool -->
<g id="edge9" class="edge">
<title>voorziening:w&#45;&gt;roi.symbool:e</title>
<path fill="none" stroke="black" d="M361.89,-84C347.68,-84 333.06,-84 319.27,-84"/>
<polygon fill="black" stroke="black" points="368.5,-84 376.5,-87.6 372.5,-84 376.5,-84 376.5,-84 376.5,-84 372.5,-84 376.5,-80.4 368.5,-84 368.5,-84"/>
<ellipse fill="none" stroke="black" cx="365.3" cy="-84" rx="3.2" ry="3.2"/>
</g>
<!-- voorziening&#45;&gt;object -->
<g id="edge8" class="edge">
<title>voorziening:w&#45;&gt;object:e</title>
<path fill="none" stroke="black" d="M362.84,-111.16C317.12,-151.72 380.28,-418 315,-418"/>
<polygon fill="black" stroke="black" points="369.02,-108.82 377.77,-109.37 372.76,-107.41 376.5,-106 376.5,-106 376.5,-106 372.76,-107.41 375.23,-102.63 369.02,-108.82 369.02,-108.82"/>
<ellipse fill="none" stroke="black" cx="366.02" cy="-109.95" rx="3.2" ry="3.2"/>
</g>
</g>
</svg>
