<?xml version="1.0" encoding="UTF-8" standalone="no"?>
<!DOCTYPE svg PUBLIC "-//W3C//DTD SVG 1.1//EN"
 "http://www.w3.org/Graphics/SVG/1.1/DTD/svg11.dtd">
<!-- Generated by graphviz version 2.50.0 (0)
 -->
<!-- Title: twoDegreesRelationshipsDiagram Pages: 1 -->
<svg width="637pt" height="572pt"
 viewBox="0.00 0.00 637.00 572.00" xmlns="http://www.w3.org/2000/svg" xmlns:xlink="http://www.w3.org/1999/xlink">
<g id="graph0" class="graph" transform="scale(1 1) rotate(0) translate(4 568)">
<title>twoDegreesRelationshipsDiagram</title>
<polygon fill="#ffffff" stroke="transparent" points="-4,4 -4,-568 633,-568 633,4 -4,4"/>
<text text-anchor="middle" x="79.5" y="-7.2" font-family="Helvetica,sans-Serif" font-size="11.00">Generated by SchemaSpy</text>
<!-- bereikbaarheid -->
<g id="node1" class="node">
<title>bereikbaarheid</title>
<g id="a_node1"><a xlink:href="../../tables/bereikbaarheid.html" xlink:title="bereikbaarheid" target="_top">
<polygon fill="#ffffff" stroke="transparent" points="367,-37 367,-323 621,-323 621,-37 367,-37"/>
<polygon fill="#f5f5f5" stroke="transparent" points="369,-299 369,-321 619,-321 619,-299 369,-299"/>
<polygon fill="none" stroke="black" points="369,-299 369,-321 619,-321 619,-299 369,-299"/>
<text text-anchor="start" x="374" y="-308.2" font-family="Helvetica,sans-Serif" font-weight="bold" font-size="11.00">bereikbaarheid</text>
<text text-anchor="start" x="577" y="-307.2" font-family="Helvetica,sans-Serif" font-size="11.00">[table]</text>
<polygon fill="none" stroke="black" points="369,-277 369,-299 483,-299 483,-277 369,-277"/>
<image xlink:href="../../images/primaryKeys.png" width="11px" height="12px" preserveAspectRatio="xMinYMin meet" x="374" y="-294"/>
<text text-anchor="start" x="389" y="-285.2" font-family="Helvetica,sans-Serif" font-size="11.00">uuid</text>
<polygon fill="none" stroke="black" points="483,-277 483,-299 619,-299 619,-277 483,-277"/>
<text text-anchor="start" x="486" y="-285.2" font-family="Helvetica,sans-Serif" font-size="11.00">uuid[2147483647]</text>
<polygon fill="#ffffff" stroke="transparent" points="369,-255 369,-277 483,-277 483,-255 369,-255"/>
<polygon fill="none" stroke="black" points="369,-255 369,-277 483,-277 483,-255 369,-255"/>
<text text-anchor="start" x="389" y="-263.2" font-family="Helvetica,sans-Serif" font-size="11.00">geom</text>
<polygon fill="none" stroke="black" points="483,-255 483,-277 619,-277 619,-255 483,-255"/>
<text text-anchor="start" x="486" y="-263.2" font-family="Helvetica,sans-Serif" font-size="11.00">geometry[2147483647]</text>
<polygon fill="none" stroke="black" points="369,-233 369,-255 483,-255 483,-233 369,-233"/>
<text text-anchor="start" x="389" y="-241.2" font-family="Helvetica,sans-Serif" font-size="11.00">datumtijd</text>
<polygon fill="none" stroke="black" points="483,-233 483,-255 619,-255 619,-233 483,-233"/>
<text text-anchor="start" x="486" y="-241.2" font-family="Helvetica,sans-Serif" font-size="11.00">timestamptz[35,6]</text>
<polygon fill="none" stroke="black" points="369,-211 369,-233 483,-233 483,-211 369,-211"/>
<text text-anchor="start" x="389" y="-219.2" font-family="Helvetica,sans-Serif" font-size="11.00">gebruiker</text>
<polygon fill="none" stroke="black" points="483,-211 483,-233 619,-233 619,-211 483,-211"/>
<text text-anchor="start" x="486" y="-219.2" font-family="Helvetica,sans-Serif" font-size="11.00">varchar[255]</text>
<polygon fill="none" stroke="black" points="369,-189 369,-211 483,-211 483,-189 369,-189"/>
<text text-anchor="start" x="389" y="-197.2" font-family="Helvetica,sans-Serif" font-size="11.00">label</text>
<polygon fill="none" stroke="black" points="483,-189 483,-211 619,-211 619,-189 483,-189"/>
<text text-anchor="start" x="486" y="-197.2" font-family="Helvetica,sans-Serif" font-size="11.00">text[2147483647]</text>
<polygon fill="none" stroke="black" points="369,-167 369,-189 483,-189 483,-167 369,-167"/>
<text text-anchor="start" x="389" y="-175.2" font-family="Helvetica,sans-Serif" font-size="11.00">rotatie</text>
<polygon fill="none" stroke="black" points="483,-167 483,-189 619,-189 619,-167 483,-167"/>
<text text-anchor="start" x="486" y="-175.2" font-family="Helvetica,sans-Serif" font-size="11.00">int4[10]</text>
<polygon fill="none" stroke="black" points="369,-145 369,-167 483,-167 483,-145 369,-145"/>
<text text-anchor="start" x="389" y="-153.2" font-family="Helvetica,sans-Serif" font-size="11.00">bijzonderheden</text>
<polygon fill="none" stroke="black" points="483,-145 483,-167 619,-167 619,-145 483,-145"/>
<text text-anchor="start" x="486" y="-153.2" font-family="Helvetica,sans-Serif" font-size="11.00">text[2147483647]</text>
<polygon fill="none" stroke="black" points="369,-123 369,-145 483,-145 483,-123 369,-123"/>
<text text-anchor="start" x="389" y="-131.2" font-family="Helvetica,sans-Serif" font-size="11.00">plusinfo</text>
<polygon fill="none" stroke="black" points="483,-123 483,-145 619,-145 619,-123 483,-123"/>
<text text-anchor="start" x="486" y="-131.2" font-family="Helvetica,sans-Serif" font-size="11.00">jsonb[2147483647]</text>
<polygon fill="#ffffff" stroke="transparent" points="369,-101 369,-123 483,-123 483,-101 369,-101"/>
<polygon fill="none" stroke="black" points="369,-101 369,-123 483,-123 483,-101 369,-101"/>
<image xlink:href="../../images/foreignKeys.png" width="11px" height="12px" preserveAspectRatio="xMinYMin meet" x="374" y="-118"/>
<text text-anchor="start" x="389" y="-109.2" font-family="Helvetica,sans-Serif" font-size="11.00">object_uuid</text>
<polygon fill="none" stroke="black" points="483,-101 483,-123 619,-123 619,-101 483,-101"/>
<text text-anchor="start" x="486" y="-109.2" font-family="Helvetica,sans-Serif" font-size="11.00">uuid[2147483647]</text>
<polygon fill="none" stroke="black" points="369,-79 369,-101 483,-101 483,-79 369,-79"/>
<image xlink:href="../../images/foreignKeys.png" width="11px" height="12px" preserveAspectRatio="xMinYMin meet" x="374" y="-96"/>
<text text-anchor="start" x="389" y="-87.2" font-family="Helvetica,sans-Serif" font-size="11.00">verbinding_id</text>
<polygon fill="none" stroke="black" points="483,-79 483,-101 619,-101 619,-79 483,-79"/>
<text text-anchor="start" x="486" y="-87.2" font-family="Helvetica,sans-Serif" font-size="11.00">int2[5]</text>
<polygon fill="none" stroke="black" points="369,-57 369,-79 483,-79 483,-57 369,-57"/>
<text text-anchor="start" x="389" y="-65.2" font-family="Helvetica,sans-Serif" font-size="11.00">obstakels</text>
<polygon fill="none" stroke="black" points="483,-57 483,-79 619,-79 619,-57 483,-57"/>
<text text-anchor="start" x="486" y="-65.2" font-family="Helvetica,sans-Serif" font-size="11.00">varchar[50]</text>
<polygon fill="#ffffff" stroke="transparent" points="369,-39 369,-57 432,-57 432,-39 369,-39"/>
<polygon fill="none" stroke="black" points="369,-39 369,-57 432,-57 432,-39 369,-39"/>
<text text-anchor="start" x="372" y="-45.2" font-family="Helvetica,sans-Serif" font-size="11.00">&lt; 2</text>
<polygon fill="#ffffff" stroke="transparent" points="432,-39 432,-57 483,-57 483,-39 432,-39"/>
<polygon fill="none" stroke="black" points="432,-39 432,-57 483,-57 483,-39 432,-39"/>
<text text-anchor="start" x="472" y="-45.2" font-family="Helvetica,sans-Serif" font-size="11.00"> &#160;</text>
<polygon fill="#ffffff" stroke="transparent" points="483,-39 483,-57 619,-57 619,-39 483,-39"/>
<polygon fill="none" stroke="black" points="483,-39 483,-57 619,-57 619,-39 483,-39"/>
<text text-anchor="start" x="596" y="-45.2" font-family="Helvetica,sans-Serif" font-size="11.00">0 &gt;</text>
<polygon fill="none" stroke="black" stroke-width="2" points="368,-38 368,-322 620,-322 620,-38 368,-38"/>
</a>
</g>
</g>
<!-- object -->
<g id="node2" class="node">
<title>object</title>
<g id="a_node2"><a xlink:href="../../tables/object.html" xlink:title="object" target="_top">
<polygon fill="#ffffff" stroke="transparent" points="184.5,-275 184.5,-443 313.5,-443 313.5,-275 184.5,-275"/>
<polygon fill="#f5f5f5" stroke="transparent" points="185,-421 185,-443 314,-443 314,-421 185,-421"/>
<polygon fill="none" stroke="black" points="185,-421 185,-443 314,-443 314,-421 185,-421"/>
<text text-anchor="start" x="190" y="-430.2" font-family="Helvetica,sans-Serif" font-weight="bold" font-size="11.00">object</text>
<text text-anchor="start" x="272" y="-429.2" font-family="Helvetica,sans-Serif" font-size="11.00">[table]</text>
<polygon fill="none" stroke="black" points="185,-399 185,-421 314,-421 314,-399 185,-399"/>
<image xlink:href="../../images/primaryKeys.png" width="11px" height="12px" preserveAspectRatio="xMinYMin meet" x="190" y="-416"/>
<text text-anchor="start" x="205" y="-407.2" font-family="Helvetica,sans-Serif" font-size="11.00">uuid</text>
<polygon fill="#ffffff" stroke="transparent" points="185,-377 185,-399 314,-399 314,-377 185,-377"/>
<polygon fill="none" stroke="black" points="185,-377 185,-399 314,-399 314,-377 185,-377"/>
<text text-anchor="start" x="205" y="-385.2" font-family="Helvetica,sans-Serif" font-size="11.00">geom</text>
<polygon fill="#ffffff" stroke="transparent" points="185,-355 185,-377 314,-377 314,-355 185,-355"/>
<polygon fill="none" stroke="black" points="185,-355 185,-377 314,-377 314,-355 185,-355"/>
<text text-anchor="start" x="205" y="-363.2" font-family="Helvetica,sans-Serif" font-size="11.00">revisie_frequentie</text>
<polygon fill="#ffffff" stroke="transparent" points="185,-333 185,-355 314,-355 314,-333 185,-333"/>
<polygon fill="none" stroke="black" points="185,-333 185,-355 314,-355 314,-333 185,-333"/>
<image xlink:href="../../images/foreignKeys.png" width="11px" height="12px" preserveAspectRatio="xMinYMin meet" x="190" y="-350"/>
<text text-anchor="start" x="205" y="-341.2" font-family="Helvetica,sans-Serif" font-size="11.00">fase_id</text>
<polygon fill="#ffffff" stroke="transparent" points="185,-311 185,-333 314,-333 314,-311 185,-311"/>
<polygon fill="none" stroke="black" points="185,-311 185,-333 314,-333 314,-311 185,-311"/>
<image xlink:href="../../images/foreignKeys.png" width="11px" height="12px" preserveAspectRatio="xMinYMin meet" x="190" y="-328"/>
<text text-anchor="start" x="205" y="-319.2" font-family="Helvetica,sans-Serif" font-size="11.00">object_type_id</text>
<polygon fill="none" stroke="black" points="185,-293 185,-311 314,-311 314,-293 185,-293"/>
<text text-anchor="start" x="188" y="-299.2" font-family="Helvetica,sans-Serif" font-size="11.00">...</text>
<polygon fill="#ffffff" stroke="transparent" points="185,-275 185,-293 242,-293 242,-275 185,-275"/>
<polygon fill="none" stroke="black" points="185,-275 185,-293 242,-293 242,-275 185,-275"/>
<text text-anchor="start" x="188" y="-281.2" font-family="Helvetica,sans-Serif" font-size="11.00">&lt; 2</text>
<polygon fill="#ffffff" stroke="transparent" points="242,-275 242,-293 272,-293 272,-275 242,-275"/>
<polygon fill="none" stroke="black" points="242,-275 242,-293 272,-293 272,-275 242,-275"/>
<text text-anchor="start" x="261" y="-281.2" font-family="Helvetica,sans-Serif" font-size="11.00"> &#160;</text>
<polygon fill="#ffffff" stroke="transparent" points="272,-275 272,-293 314,-293 314,-275 272,-275"/>
<polygon fill="none" stroke="black" points="272,-275 272,-293 314,-293 314,-275 272,-275"/>
<text text-anchor="start" x="291" y="-281.2" font-family="Helvetica,sans-Serif" font-size="11.00">4 &gt;</text>
</a>
</g>
</g>
<!-- bereikbaarheid&#45;&gt;object -->
<g id="edge1" class="edge">
<title>bereikbaarheid:w&#45;&gt;object:e</title>
<path fill="none" stroke="black" d="M354.55,-117.43C312.84,-157.82 376.88,-410 315,-410"/>
<polygon fill="black" stroke="black" points="360.58,-114.99 369.35,-115.34 364.29,-113.5 368,-112 368,-112 368,-112 364.29,-113.5 366.65,-108.66 360.58,-114.99 360.58,-114.99"/>
<ellipse fill="none" stroke="black" cx="357.61" cy="-116.19" rx="3.2" ry="3.2"/>
</g>
<!-- roi.verbinding -->
<g id="node3" class="node">
<title>roi.verbinding</title>
<g id="a_node3"><a xlink:href="../../../roi/tables/verbinding.html" xlink:title="roi.verbinding" target="_top">
<polygon fill="#ffffff" stroke="transparent" points="180,-61 180,-119 318,-119 318,-61 180,-61"/>
<polygon fill="#f5f5f5" stroke="transparent" points="180,-97 180,-119 318,-119 318,-97 180,-97"/>
<polygon fill="none" stroke="black" points="180,-97 180,-119 318,-119 318,-97 180,-97"/>
<text text-anchor="start" x="185" y="-106.2" font-family="Helvetica,sans-Serif" font-weight="bold" font-size="11.00">roi.verbinding</text>
<text text-anchor="start" x="276" y="-105.2" font-family="Helvetica,sans-Serif" font-size="11.00">[table]</text>
<polygon fill="none" stroke="black" points="180,-79 180,-97 318,-97 318,-79 180,-79"/>
<text text-anchor="start" x="183" y="-85.2" font-family="Helvetica,sans-Serif" font-size="11.00">...</text>
<polygon fill="#ffffff" stroke="transparent" points="180,-61 180,-79 236,-79 236,-61 180,-61"/>
<polygon fill="none" stroke="black" points="180,-61 180,-79 236,-79 236,-61 180,-61"/>
<text text-anchor="start" x="183" y="-67.2" font-family="Helvetica,sans-Serif" font-size="11.00"> &#160;</text>
<polygon fill="#ffffff" stroke="transparent" points="236,-61 236,-79 271,-79 271,-61 236,-61"/>
<polygon fill="none" stroke="black" points="236,-61 236,-79 271,-79 271,-61 236,-61"/>
<text text-anchor="start" x="260" y="-67.2" font-family="Helvetica,sans-Serif" font-size="11.00"> &#160;</text>
<polygon fill="#ffffff" stroke="transparent" points="271,-61 271,-79 318,-79 318,-61 271,-61"/>
<polygon fill="none" stroke="black" points="271,-61 271,-79 318,-79 318,-61 271,-61"/>
<text text-anchor="start" x="295" y="-67.2" font-family="Helvetica,sans-Serif" font-size="11.00">1 &gt;</text>
</a>
</g>
</g>
<!-- bereikbaarheid&#45;&gt;roi.verbinding -->
<g id="edge2" class="edge">
<title>bereikbaarheid:w&#45;&gt;roi.verbinding:e</title>
<path fill="none" stroke="black" d="M353.48,-90C344.42,-90 335.19,-90 326.17,-90"/>
<polygon fill="black" stroke="black" points="360,-90 368,-93.6 364,-90 368,-90 368,-90 368,-90 364,-90 368,-86.4 360,-90 360,-90"/>
<ellipse fill="none" stroke="black" cx="356.8" cy="-90" rx="3.2" ry="3.2"/>
</g>
<!-- roi.fase -->
<g id="node4" class="node">
<title>roi.fase</title>
<g id="a_node4"><a xlink:href="../../../roi/tables/fase.html" xlink:title="roi.fase" target="_top">
<polygon fill="#ffffff" stroke="transparent" points="20,-345 20,-403 119,-403 119,-345 20,-345"/>
<polygon fill="#f5f5f5" stroke="transparent" points="20.5,-381 20.5,-403 119.5,-403 119.5,-381 20.5,-381"/>
<polygon fill="none" stroke="black" points="20.5,-381 20.5,-403 119.5,-403 119.5,-381 20.5,-381"/>
<text text-anchor="start" x="25.5" y="-390.2" font-family="Helvetica,sans-Serif" font-weight="bold" font-size="11.00">roi.fase</text>
<text text-anchor="start" x="77.5" y="-389.2" font-family="Helvetica,sans-Serif" font-size="11.00">[table]</text>
<polygon fill="none" stroke="black" points="20.5,-363 20.5,-381 119.5,-381 119.5,-363 20.5,-363"/>
<text text-anchor="start" x="23.5" y="-369.2" font-family="Helvetica,sans-Serif" font-size="11.00">...</text>
<polygon fill="#ffffff" stroke="transparent" points="20.5,-345 20.5,-363 56.5,-363 56.5,-345 20.5,-345"/>
<polygon fill="none" stroke="black" points="20.5,-345 20.5,-363 56.5,-363 56.5,-345 20.5,-345"/>
<text text-anchor="start" x="23.5" y="-351.2" font-family="Helvetica,sans-Serif" font-size="11.00"> &#160;</text>
<polygon fill="#ffffff" stroke="transparent" points="56.5,-345 56.5,-363 81.5,-363 81.5,-345 56.5,-345"/>
<polygon fill="none" stroke="black" points="56.5,-345 56.5,-363 81.5,-363 81.5,-345 56.5,-345"/>
<text text-anchor="start" x="70.5" y="-351.2" font-family="Helvetica,sans-Serif" font-size="11.00"> &#160;</text>
<polygon fill="#ffffff" stroke="transparent" points="81.5,-345 81.5,-363 119.5,-363 119.5,-345 81.5,-345"/>
<polygon fill="none" stroke="black" points="81.5,-345 81.5,-363 119.5,-363 119.5,-345 81.5,-345"/>
<text text-anchor="start" x="96.5" y="-351.2" font-family="Helvetica,sans-Serif" font-size="11.00">1 &gt;</text>
</a>
</g>
</g>
<!-- object&#45;&gt;roi.fase -->
<g id="edge3" class="edge">
<title>object:w&#45;&gt;roi.fase:e</title>
<path fill="none" stroke="black" d="M169.59,-346.48C151.51,-353.34 145.68,-372 120.5,-372"/>
<polygon fill="black" stroke="black" points="176.12,-345.36 184.61,-347.55 180.06,-344.68 184,-344 184,-344 184,-344 180.06,-344.68 183.39,-340.45 176.12,-345.36 176.12,-345.36"/>
<ellipse fill="none" stroke="black" cx="172.96" cy="-345.9" rx="3.2" ry="3.2"/>
</g>
<!-- object_type -->
<g id="node5" class="node">
<title>object_type</title>
<g id="a_node5"><a xlink:href="../../tables/object_type.html" xlink:title="object_type" target="_top">
<polygon fill="#ffffff" stroke="transparent" points="8,-266 8,-324 131,-324 131,-266 8,-266"/>
<polygon fill="#f5f5f5" stroke="transparent" points="8.5,-302 8.5,-324 131.5,-324 131.5,-302 8.5,-302"/>
<polygon fill="none" stroke="black" points="8.5,-302 8.5,-324 131.5,-324 131.5,-302 8.5,-302"/>
<text text-anchor="start" x="13.5" y="-311.2" font-family="Helvetica,sans-Serif" font-weight="bold" font-size="11.00">object_type</text>
<text text-anchor="start" x="89.5" y="-310.2" font-family="Helvetica,sans-Serif" font-size="11.00">[table]</text>
<polygon fill="none" stroke="black" points="8.5,-284 8.5,-302 131.5,-302 131.5,-284 8.5,-284"/>
<text text-anchor="start" x="11.5" y="-290.2" font-family="Helvetica,sans-Serif" font-size="11.00">...</text>
<polygon fill="#ffffff" stroke="transparent" points="8.5,-266 8.5,-284 56.5,-284 56.5,-266 8.5,-266"/>
<polygon fill="none" stroke="black" points="8.5,-266 8.5,-284 56.5,-284 56.5,-266 8.5,-266"/>
<text text-anchor="start" x="11.5" y="-272.2" font-family="Helvetica,sans-Serif" font-size="11.00"> &#160;</text>
<polygon fill="#ffffff" stroke="transparent" points="56.5,-266 56.5,-284 87.5,-284 87.5,-266 56.5,-266"/>
<polygon fill="none" stroke="black" points="56.5,-266 56.5,-284 87.5,-284 87.5,-266 56.5,-266"/>
<text text-anchor="start" x="76.5" y="-272.2" font-family="Helvetica,sans-Serif" font-size="11.00"> &#160;</text>
<polygon fill="#ffffff" stroke="transparent" points="87.5,-266 87.5,-284 131.5,-284 131.5,-266 87.5,-266"/>
<polygon fill="none" stroke="black" points="87.5,-266 87.5,-284 131.5,-284 131.5,-266 87.5,-266"/>
<text text-anchor="start" x="108.5" y="-272.2" font-family="Helvetica,sans-Serif" font-size="11.00">1 &gt;</text>
</a>
</g>
</g>
<!-- object&#45;&gt;object_type -->
<g id="edge4" class="edge">
<title>object:w&#45;&gt;object_type:e</title>
<path fill="none" stroke="black" d="M169.72,-318.21C156.8,-310.35 152.82,-293 132.5,-293"/>
<polygon fill="black" stroke="black" points="176.27,-319.95 183.08,-325.48 180.13,-320.97 184,-322 184,-322 184,-322 180.13,-320.97 184.92,-318.52 176.27,-319.95 176.27,-319.95"/>
<ellipse fill="none" stroke="black" cx="173.17" cy="-319.13" rx="3.2" ry="3.2"/>
</g>
<!-- opstelplaats -->
<g id="node6" class="node">
<title>opstelplaats</title>
<g id="a_node6"><a xlink:href="../../tables/opstelplaats.html" xlink:title="opstelplaats" target="_top">
<polygon fill="#ffffff" stroke="transparent" points="430,-502 430,-560 558,-560 558,-502 430,-502"/>
<polygon fill="#f5f5f5" stroke="transparent" points="430,-538 430,-560 558,-560 558,-538 430,-538"/>
<polygon fill="none" stroke="black" points="430,-538 430,-560 558,-560 558,-538 430,-538"/>
<text text-anchor="start" x="435" y="-547.2" font-family="Helvetica,sans-Serif" font-weight="bold" font-size="11.00">opstelplaats</text>
<text text-anchor="start" x="516" y="-546.2" font-family="Helvetica,sans-Serif" font-size="11.00">[table]</text>
<polygon fill="none" stroke="black" points="430,-520 430,-538 558,-538 558,-520 430,-520"/>
<text text-anchor="start" x="433" y="-526.2" font-family="Helvetica,sans-Serif" font-size="11.00">...</text>
<polygon fill="#ffffff" stroke="transparent" points="430,-502 430,-520 493,-520 493,-502 430,-502"/>
<polygon fill="none" stroke="black" points="430,-502 430,-520 493,-520 493,-502 430,-502"/>
<text text-anchor="start" x="433" y="-508.2" font-family="Helvetica,sans-Serif" font-size="11.00">&lt; 2</text>
<polygon fill="#ffffff" stroke="transparent" points="493,-502 493,-520 525,-520 525,-502 493,-502"/>
<polygon fill="none" stroke="black" points="493,-502 493,-520 525,-520 525,-502 493,-502"/>
<text text-anchor="start" x="514" y="-508.2" font-family="Helvetica,sans-Serif" font-size="11.00"> &#160;</text>
<polygon fill="#ffffff" stroke="transparent" points="525,-502 525,-520 558,-520 558,-502 525,-502"/>
<polygon fill="none" stroke="black" points="525,-502 525,-520 558,-520 558,-502 525,-502"/>
<text text-anchor="start" x="547" y="-508.2" font-family="Helvetica,sans-Serif" font-size="11.00"> &#160;</text>
</a>
</g>
</g>
<!-- opstelplaats&#45;&gt;object -->
<g id="edge5" class="edge">
<title>opstelplaats:w&#45;&gt;object:e</title>
<path fill="none" stroke="black" d="M414.54,-528.15C390.46,-524.99 380.16,-513.03 359,-492 329.66,-462.85 356.36,-410 315,-410"/>
<polygon fill="black" stroke="black" points="421.01,-528.53 428.79,-532.59 425.01,-528.77 429,-529 429,-529 429,-529 425.01,-528.77 429.21,-525.41 421.01,-528.53 421.01,-528.53"/>
<ellipse fill="none" stroke="black" cx="417.82" cy="-528.34" rx="3.2" ry="3.2"/>
</g>
<!-- risico -->
<g id="node7" class="node">
<title>risico</title>
<g id="a_node7"><a xlink:href="../../tables/risico.html" xlink:title="risico" target="_top">
<polygon fill="#ffffff" stroke="transparent" points="451.5,-423 451.5,-481 536.5,-481 536.5,-423 451.5,-423"/>
<polygon fill="#f5f5f5" stroke="transparent" points="452,-459 452,-481 537,-481 537,-459 452,-459"/>
<polygon fill="none" stroke="black" points="452,-459 452,-481 537,-481 537,-459 452,-459"/>
<text text-anchor="start" x="457" y="-468.2" font-family="Helvetica,sans-Serif" font-weight="bold" font-size="11.00">risico</text>
<text text-anchor="start" x="495" y="-467.2" font-family="Helvetica,sans-Serif" font-size="11.00">[table]</text>
<polygon fill="none" stroke="black" points="452,-441 452,-459 537,-459 537,-441 452,-441"/>
<text text-anchor="start" x="455" y="-447.2" font-family="Helvetica,sans-Serif" font-size="11.00">...</text>
<polygon fill="#ffffff" stroke="transparent" points="452,-423 452,-441 493,-441 493,-423 452,-423"/>
<polygon fill="none" stroke="black" points="452,-423 452,-441 493,-441 493,-423 452,-423"/>
<text text-anchor="start" x="455" y="-429.2" font-family="Helvetica,sans-Serif" font-size="11.00">&lt; 1</text>
<polygon fill="#ffffff" stroke="transparent" points="493,-423 493,-441 515,-441 515,-423 493,-423"/>
<polygon fill="none" stroke="black" points="493,-423 493,-441 515,-441 515,-423 493,-423"/>
<text text-anchor="start" x="504" y="-429.2" font-family="Helvetica,sans-Serif" font-size="11.00"> &#160;</text>
<polygon fill="#ffffff" stroke="transparent" points="515,-423 515,-441 537,-441 537,-423 515,-423"/>
<polygon fill="none" stroke="black" points="515,-423 515,-441 537,-441 537,-423 515,-423"/>
<text text-anchor="start" x="526" y="-429.2" font-family="Helvetica,sans-Serif" font-size="11.00"> &#160;</text>
</a>
</g>
</g>
<!-- risico&#45;&gt;object -->
<g id="edge6" class="edge">
<title>risico:w&#45;&gt;object:e</title>
<path fill="none" stroke="black" d="M436.51,-449.24C386,-443.71 372.84,-410 315,-410"/>
<polygon fill="black" stroke="black" points="443.01,-449.58 450.81,-453.6 447.01,-449.79 451,-450 451,-450 451,-450 447.01,-449.79 451.19,-446.4 443.01,-449.58 443.01,-449.58"/>
<ellipse fill="none" stroke="black" cx="439.82" cy="-449.41" rx="3.2" ry="3.2"/>
</g>
<!-- voorziening -->
<g id="node8" class="node">
<title>voorziening</title>
<g id="a_node8"><a xlink:href="../../tables/voorziening.html" xlink:title="voorziening" target="_top">
<polygon fill="#ffffff" stroke="transparent" points="432,-344 432,-402 556,-402 556,-344 432,-344"/>
<polygon fill="#f5f5f5" stroke="transparent" points="432,-380 432,-402 556,-402 556,-380 432,-380"/>
<polygon fill="none" stroke="black" points="432,-380 432,-402 556,-402 556,-380 432,-380"/>
<text text-anchor="start" x="437" y="-389.2" font-family="Helvetica,sans-Serif" font-weight="bold" font-size="11.00">voorziening</text>
<text text-anchor="start" x="514" y="-388.2" font-family="Helvetica,sans-Serif" font-size="11.00">[table]</text>
<polygon fill="none" stroke="black" points="432,-362 432,-380 556,-380 556,-362 432,-362"/>
<text text-anchor="start" x="435" y="-368.2" font-family="Helvetica,sans-Serif" font-size="11.00">...</text>
<polygon fill="#ffffff" stroke="transparent" points="432,-344 432,-362 493,-362 493,-344 432,-344"/>
<polygon fill="none" stroke="black" points="432,-344 432,-362 493,-362 493,-344 432,-344"/>
<text text-anchor="start" x="435" y="-350.2" font-family="Helvetica,sans-Serif" font-size="11.00">&lt; 2</text>
<polygon fill="#ffffff" stroke="transparent" points="493,-344 493,-362 524,-362 524,-344 493,-344"/>
<polygon fill="none" stroke="black" points="493,-344 493,-362 524,-362 524,-344 493,-344"/>
<text text-anchor="start" x="513" y="-350.2" font-family="Helvetica,sans-Serif" font-size="11.00"> &#160;</text>
<polygon fill="#ffffff" stroke="transparent" points="524,-344 524,-362 556,-362 556,-344 524,-344"/>
<polygon fill="none" stroke="black" points="524,-344 524,-362 556,-362 556,-344 524,-344"/>
<text text-anchor="start" x="545" y="-350.2" font-family="Helvetica,sans-Serif" font-size="11.00"> &#160;</text>
</a>
</g>
</g>
<!-- voorziening&#45;&gt;object -->
<g id="edge7" class="edge">
<title>voorziening:w&#45;&gt;object:e</title>
<path fill="none" stroke="black" d="M416.6,-372C374.8,-378.11 364.19,-410 315,-410"/>
<polygon fill="black" stroke="black" points="423.02,-371.56 431.25,-374.59 427.01,-371.28 431,-371 431,-371 431,-371 427.01,-371.28 430.75,-367.41 423.02,-371.56 423.02,-371.56"/>
<ellipse fill="none" stroke="black" cx="419.83" cy="-371.78" rx="3.2" ry="3.2"/>
</g>
</g>
</svg>
