<?xml version="1.0" encoding="UTF-8" standalone="no"?>
<!DOCTYPE svg PUBLIC "-//W3C//DTD SVG 1.1//EN"
 "http://www.w3.org/Graphics/SVG/1.1/DTD/svg11.dtd">
<!-- Generated by graphviz version 2.50.0 (0)
 -->
<!-- Title: oneDegreeRelationshipsDiagram Pages: 1 -->
<svg width="465pt" height="392pt"
 viewBox="0.00 0.00 465.00 392.00" xmlns="http://www.w3.org/2000/svg" xmlns:xlink="http://www.w3.org/1999/xlink">
<g id="graph0" class="graph" transform="scale(1 1) rotate(0) translate(4 388)">
<title>oneDegreeRelationshipsDiagram</title>
<polygon fill="#ffffff" stroke="transparent" points="-4,4 -4,-388 461,-388 461,4 -4,4"/>
<text text-anchor="middle" x="79.5" y="-7.2" font-family="Helvetica,sans-Serif" font-size="11.00">Generated by SchemaSpy</text>
<!-- bereikbaarheid -->
<g id="node1" class="node">
<title>bereikbaarheid</title>
<g id="a_node1"><a xlink:href="../../tables/bereikbaarheid.html" xlink:title="bereikbaarheid" target="_top">
<polygon fill="#ffffff" stroke="transparent" points="195,-94 195,-380 449,-380 449,-94 195,-94"/>
<polygon fill="#f5f5f5" stroke="transparent" points="197,-356 197,-378 447,-378 447,-356 197,-356"/>
<polygon fill="none" stroke="black" points="197,-356 197,-378 447,-378 447,-356 197,-356"/>
<text text-anchor="start" x="202" y="-365.2" font-family="Helvetica,sans-Serif" font-weight="bold" font-size="11.00">bereikbaarheid</text>
<text text-anchor="start" x="405" y="-364.2" font-family="Helvetica,sans-Serif" font-size="11.00">[table]</text>
<polygon fill="none" stroke="black" points="197,-334 197,-356 311,-356 311,-334 197,-334"/>
<image xlink:href="../../images/primaryKeys.png" width="11px" height="12px" preserveAspectRatio="xMinYMin meet" x="202" y="-351"/>
<text text-anchor="start" x="217" y="-342.2" font-family="Helvetica,sans-Serif" font-size="11.00">uuid</text>
<polygon fill="none" stroke="black" points="311,-334 311,-356 447,-356 447,-334 311,-334"/>
<text text-anchor="start" x="314" y="-342.2" font-family="Helvetica,sans-Serif" font-size="11.00">uuid[2147483647]</text>
<polygon fill="#ffffff" stroke="transparent" points="197,-312 197,-334 311,-334 311,-312 197,-312"/>
<polygon fill="none" stroke="black" points="197,-312 197,-334 311,-334 311,-312 197,-312"/>
<text text-anchor="start" x="217" y="-320.2" font-family="Helvetica,sans-Serif" font-size="11.00">geom</text>
<polygon fill="none" stroke="black" points="311,-312 311,-334 447,-334 447,-312 311,-312"/>
<text text-anchor="start" x="314" y="-320.2" font-family="Helvetica,sans-Serif" font-size="11.00">geometry[2147483647]</text>
<polygon fill="none" stroke="black" points="197,-290 197,-312 311,-312 311,-290 197,-290"/>
<text text-anchor="start" x="217" y="-298.2" font-family="Helvetica,sans-Serif" font-size="11.00">datumtijd</text>
<polygon fill="none" stroke="black" points="311,-290 311,-312 447,-312 447,-290 311,-290"/>
<text text-anchor="start" x="314" y="-298.2" font-family="Helvetica,sans-Serif" font-size="11.00">timestamptz[35,6]</text>
<polygon fill="none" stroke="black" points="197,-268 197,-290 311,-290 311,-268 197,-268"/>
<text text-anchor="start" x="217" y="-276.2" font-family="Helvetica,sans-Serif" font-size="11.00">gebruiker</text>
<polygon fill="none" stroke="black" points="311,-268 311,-290 447,-290 447,-268 311,-268"/>
<text text-anchor="start" x="314" y="-276.2" font-family="Helvetica,sans-Serif" font-size="11.00">varchar[255]</text>
<polygon fill="none" stroke="black" points="197,-246 197,-268 311,-268 311,-246 197,-246"/>
<text text-anchor="start" x="217" y="-254.2" font-family="Helvetica,sans-Serif" font-size="11.00">label</text>
<polygon fill="none" stroke="black" points="311,-246 311,-268 447,-268 447,-246 311,-246"/>
<text text-anchor="start" x="314" y="-254.2" font-family="Helvetica,sans-Serif" font-size="11.00">text[2147483647]</text>
<polygon fill="none" stroke="black" points="197,-224 197,-246 311,-246 311,-224 197,-224"/>
<text text-anchor="start" x="217" y="-232.2" font-family="Helvetica,sans-Serif" font-size="11.00">rotatie</text>
<polygon fill="none" stroke="black" points="311,-224 311,-246 447,-246 447,-224 311,-224"/>
<text text-anchor="start" x="314" y="-232.2" font-family="Helvetica,sans-Serif" font-size="11.00">int4[10]</text>
<polygon fill="none" stroke="black" points="197,-202 197,-224 311,-224 311,-202 197,-202"/>
<text text-anchor="start" x="217" y="-210.2" font-family="Helvetica,sans-Serif" font-size="11.00">bijzonderheden</text>
<polygon fill="none" stroke="black" points="311,-202 311,-224 447,-224 447,-202 311,-202"/>
<text text-anchor="start" x="314" y="-210.2" font-family="Helvetica,sans-Serif" font-size="11.00">text[2147483647]</text>
<polygon fill="none" stroke="black" points="197,-180 197,-202 311,-202 311,-180 197,-180"/>
<text text-anchor="start" x="217" y="-188.2" font-family="Helvetica,sans-Serif" font-size="11.00">plusinfo</text>
<polygon fill="none" stroke="black" points="311,-180 311,-202 447,-202 447,-180 311,-180"/>
<text text-anchor="start" x="314" y="-188.2" font-family="Helvetica,sans-Serif" font-size="11.00">jsonb[2147483647]</text>
<polygon fill="#ffffff" stroke="transparent" points="197,-158 197,-180 311,-180 311,-158 197,-158"/>
<polygon fill="none" stroke="black" points="197,-158 197,-180 311,-180 311,-158 197,-158"/>
<image xlink:href="../../images/foreignKeys.png" width="11px" height="12px" preserveAspectRatio="xMinYMin meet" x="202" y="-175"/>
<text text-anchor="start" x="217" y="-166.2" font-family="Helvetica,sans-Serif" font-size="11.00">object_uuid</text>
<polygon fill="none" stroke="black" points="311,-158 311,-180 447,-180 447,-158 311,-158"/>
<text text-anchor="start" x="314" y="-166.2" font-family="Helvetica,sans-Serif" font-size="11.00">uuid[2147483647]</text>
<polygon fill="none" stroke="black" points="197,-136 197,-158 311,-158 311,-136 197,-136"/>
<image xlink:href="../../images/foreignKeys.png" width="11px" height="12px" preserveAspectRatio="xMinYMin meet" x="202" y="-153"/>
<text text-anchor="start" x="217" y="-144.2" font-family="Helvetica,sans-Serif" font-size="11.00">verbinding_id</text>
<polygon fill="none" stroke="black" points="311,-136 311,-158 447,-158 447,-136 311,-136"/>
<text text-anchor="start" x="314" y="-144.2" font-family="Helvetica,sans-Serif" font-size="11.00">int2[5]</text>
<polygon fill="none" stroke="black" points="197,-114 197,-136 311,-136 311,-114 197,-114"/>
<text text-anchor="start" x="217" y="-122.2" font-family="Helvetica,sans-Serif" font-size="11.00">obstakels</text>
<polygon fill="none" stroke="black" points="311,-114 311,-136 447,-136 447,-114 311,-114"/>
<text text-anchor="start" x="314" y="-122.2" font-family="Helvetica,sans-Serif" font-size="11.00">varchar[50]</text>
<polygon fill="#ffffff" stroke="transparent" points="197,-96 197,-114 260,-114 260,-96 197,-96"/>
<polygon fill="none" stroke="black" points="197,-96 197,-114 260,-114 260,-96 197,-96"/>
<text text-anchor="start" x="200" y="-102.2" font-family="Helvetica,sans-Serif" font-size="11.00">&lt; 2</text>
<polygon fill="#ffffff" stroke="transparent" points="260,-96 260,-114 311,-114 311,-96 260,-96"/>
<polygon fill="none" stroke="black" points="260,-96 260,-114 311,-114 311,-96 260,-96"/>
<text text-anchor="start" x="300" y="-102.2" font-family="Helvetica,sans-Serif" font-size="11.00"> &#160;</text>
<polygon fill="#ffffff" stroke="transparent" points="311,-96 311,-114 447,-114 447,-96 311,-96"/>
<polygon fill="none" stroke="black" points="311,-96 311,-114 447,-114 447,-96 311,-96"/>
<text text-anchor="start" x="424" y="-102.2" font-family="Helvetica,sans-Serif" font-size="11.00">0 &gt;</text>
<polygon fill="none" stroke="black" stroke-width="2" points="196,-95 196,-379 448,-379 448,-95 196,-95"/>
</a>
</g>
</g>
<!-- object -->
<g id="node2" class="node">
<title>object</title>
<g id="a_node2"><a xlink:href="../../tables/object.html" xlink:title="object" target="_top">
<polygon fill="#ffffff" stroke="transparent" points="12.5,-116 12.5,-284 141.5,-284 141.5,-116 12.5,-116"/>
<polygon fill="#f5f5f5" stroke="transparent" points="13,-262 13,-284 142,-284 142,-262 13,-262"/>
<polygon fill="none" stroke="black" points="13,-262 13,-284 142,-284 142,-262 13,-262"/>
<text text-anchor="start" x="18" y="-271.2" font-family="Helvetica,sans-Serif" font-weight="bold" font-size="11.00">object</text>
<text text-anchor="start" x="100" y="-270.2" font-family="Helvetica,sans-Serif" font-size="11.00">[table]</text>
<polygon fill="none" stroke="black" points="13,-240 13,-262 142,-262 142,-240 13,-240"/>
<image xlink:href="../../images/primaryKeys.png" width="11px" height="12px" preserveAspectRatio="xMinYMin meet" x="18" y="-257"/>
<text text-anchor="start" x="33" y="-248.2" font-family="Helvetica,sans-Serif" font-size="11.00">uuid</text>
<polygon fill="#ffffff" stroke="transparent" points="13,-218 13,-240 142,-240 142,-218 13,-218"/>
<polygon fill="none" stroke="black" points="13,-218 13,-240 142,-240 142,-218 13,-218"/>
<text text-anchor="start" x="33" y="-226.2" font-family="Helvetica,sans-Serif" font-size="11.00">geom</text>
<polygon fill="#ffffff" stroke="transparent" points="13,-196 13,-218 142,-218 142,-196 13,-196"/>
<polygon fill="none" stroke="black" points="13,-196 13,-218 142,-218 142,-196 13,-196"/>
<text text-anchor="start" x="33" y="-204.2" font-family="Helvetica,sans-Serif" font-size="11.00">revisie_frequentie</text>
<polygon fill="#ffffff" stroke="transparent" points="13,-174 13,-196 142,-196 142,-174 13,-174"/>
<polygon fill="none" stroke="black" points="13,-174 13,-196 142,-196 142,-174 13,-174"/>
<image xlink:href="../../images/foreignKeys.png" width="11px" height="12px" preserveAspectRatio="xMinYMin meet" x="18" y="-191"/>
<text text-anchor="start" x="33" y="-182.2" font-family="Helvetica,sans-Serif" font-size="11.00">fase_id</text>
<polygon fill="#ffffff" stroke="transparent" points="13,-152 13,-174 142,-174 142,-152 13,-152"/>
<polygon fill="none" stroke="black" points="13,-152 13,-174 142,-174 142,-152 13,-152"/>
<image xlink:href="../../images/foreignKeys.png" width="11px" height="12px" preserveAspectRatio="xMinYMin meet" x="18" y="-169"/>
<text text-anchor="start" x="33" y="-160.2" font-family="Helvetica,sans-Serif" font-size="11.00">object_type_id</text>
<polygon fill="none" stroke="black" points="13,-134 13,-152 142,-152 142,-134 13,-134"/>
<text text-anchor="start" x="16" y="-140.2" font-family="Helvetica,sans-Serif" font-size="11.00">...</text>
<polygon fill="#ffffff" stroke="transparent" points="13,-116 13,-134 70,-134 70,-116 13,-116"/>
<polygon fill="none" stroke="black" points="13,-116 13,-134 70,-134 70,-116 13,-116"/>
<text text-anchor="start" x="16" y="-122.2" font-family="Helvetica,sans-Serif" font-size="11.00">&lt; 2</text>
<polygon fill="#ffffff" stroke="transparent" points="70,-116 70,-134 100,-134 100,-116 70,-116"/>
<polygon fill="none" stroke="black" points="70,-116 70,-134 100,-134 100,-116 70,-116"/>
<text text-anchor="start" x="89" y="-122.2" font-family="Helvetica,sans-Serif" font-size="11.00"> &#160;</text>
<polygon fill="#ffffff" stroke="transparent" points="100,-116 100,-134 142,-134 142,-116 100,-116"/>
<polygon fill="none" stroke="black" points="100,-116 100,-134 142,-134 142,-116 100,-116"/>
<text text-anchor="start" x="119" y="-122.2" font-family="Helvetica,sans-Serif" font-size="11.00">4 &gt;</text>
</a>
</g>
</g>
<!-- bereikbaarheid&#45;&gt;object -->
<g id="edge1" class="edge">
<title>bereikbaarheid:w&#45;&gt;object:e</title>
<path fill="none" stroke="black" d="M182.14,-173.18C160.4,-189.89 180.46,-251 143,-251"/>
<polygon fill="black" stroke="black" points="188.34,-171.31 197.04,-172.45 192.17,-170.15 196,-169 196,-169 196,-169 192.17,-170.15 194.96,-165.55 188.34,-171.31 188.34,-171.31"/>
<ellipse fill="none" stroke="black" cx="185.28" cy="-172.23" rx="3.2" ry="3.2"/>
</g>
<!-- roi.verbinding -->
<g id="node3" class="node">
<title>roi.verbinding</title>
<g id="a_node3"><a xlink:href="../../../roi/tables/verbinding.html" xlink:title="roi.verbinding" target="_top">
<polygon fill="#ffffff" stroke="transparent" points="8,-37 8,-95 146,-95 146,-37 8,-37"/>
<polygon fill="#f5f5f5" stroke="transparent" points="8,-73 8,-95 146,-95 146,-73 8,-73"/>
<polygon fill="none" stroke="black" points="8,-73 8,-95 146,-95 146,-73 8,-73"/>
<text text-anchor="start" x="13" y="-82.2" font-family="Helvetica,sans-Serif" font-weight="bold" font-size="11.00">roi.verbinding</text>
<text text-anchor="start" x="104" y="-81.2" font-family="Helvetica,sans-Serif" font-size="11.00">[table]</text>
<polygon fill="none" stroke="black" points="8,-55 8,-73 146,-73 146,-55 8,-55"/>
<text text-anchor="start" x="11" y="-61.2" font-family="Helvetica,sans-Serif" font-size="11.00">...</text>
<polygon fill="#ffffff" stroke="transparent" points="8,-37 8,-55 64,-55 64,-37 8,-37"/>
<polygon fill="none" stroke="black" points="8,-37 8,-55 64,-55 64,-37 8,-37"/>
<text text-anchor="start" x="11" y="-43.2" font-family="Helvetica,sans-Serif" font-size="11.00"> &#160;</text>
<polygon fill="#ffffff" stroke="transparent" points="64,-37 64,-55 99,-55 99,-37 64,-37"/>
<polygon fill="none" stroke="black" points="64,-37 64,-55 99,-55 99,-37 64,-37"/>
<text text-anchor="start" x="88" y="-43.2" font-family="Helvetica,sans-Serif" font-size="11.00"> &#160;</text>
<polygon fill="#ffffff" stroke="transparent" points="99,-37 99,-55 146,-55 146,-37 99,-37"/>
<polygon fill="none" stroke="black" points="99,-37 99,-55 146,-55 146,-37 99,-37"/>
<text text-anchor="start" x="123" y="-43.2" font-family="Helvetica,sans-Serif" font-size="11.00">1 &gt;</text>
</a>
</g>
</g>
<!-- bereikbaarheid&#45;&gt;roi.verbinding -->
<g id="edge2" class="edge">
<title>bereikbaarheid:w&#45;&gt;roi.verbinding:e</title>
<path fill="none" stroke="black" d="M182.07,-143.24C170.9,-135.54 170.15,-117.75 154,-106 150.74,-103.63 147.33,-101.32 143.83,-99.07"/>
<polygon fill="black" stroke="black" points="188.28,-144.91 195.06,-150.48 192.14,-145.96 196,-147 196,-147 196,-147 192.14,-145.96 196.94,-143.52 188.28,-144.91 188.28,-144.91"/>
<ellipse fill="none" stroke="black" cx="185.19" cy="-144.08" rx="3.2" ry="3.2"/>
</g>
</g>
</svg>
