<?xml version="1.0" encoding="UTF-8" standalone="no"?>
<!DOCTYPE svg PUBLIC "-//W3C//DTD SVG 1.1//EN"
 "http://www.w3.org/Graphics/SVG/1.1/DTD/svg11.dtd">
<!-- Generated by graphviz version 2.40.1 (20161225.0304)
 -->
<!-- Title: twoDegreesRelationshipsDiagram Pages: 1 -->
<svg width="626pt" height="749pt"
 viewBox="0.00 0.00 626.00 748.70" xmlns="http://www.w3.org/2000/svg" xmlns:xlink="http://www.w3.org/1999/xlink">
<g id="graph0" class="graph" transform="scale(1 1) rotate(0) translate(4 744.7)">
<title>twoDegreesRelationshipsDiagram</title>
<polygon fill="#ffffff" stroke="transparent" points="-4,4 -4,-744.7 622,-744.7 622,4 -4,4"/>
<text text-anchor="middle" x="72.4936" y="-7.3" font-family="Helvetica,sans-Serif" font-size="11.00" fill="#000000">Generated by SchemaSpy</text>
<!-- bereikbaarheid -->
<g id="node1" class="node">
<title>bereikbaarheid</title>
<g id="a_node1"><a xlink:href="../../tables/bereikbaarheid.html" xlink:title="bereikbaarheid" target="_top">
<polygon fill="#ffffff" stroke="transparent" points="378,-448.7 378,-736.7 610,-736.7 610,-448.7 378,-448.7"/>
<polygon fill="#f5f5f5" stroke="transparent" points="380,-711.7 380,-734.7 608,-734.7 608,-711.7 380,-711.7"/>
<polygon fill="none" stroke="#000000" points="380,-711.7 380,-734.7 608,-734.7 608,-711.7 380,-711.7"/>
<text text-anchor="start" x="385" y="-720.3" font-family="Helvetica,sans-Serif" font-weight="bold" font-size="11.00" fill="#000000">bereikbaarheid</text>
<text text-anchor="start" x="573.0437" y="-719.8" font-family="Helvetica,sans-Serif" font-size="11.00" fill="#000000">[table]</text>
<polygon fill="none" stroke="#000000" points="380,-689.7 380,-711.7 489,-711.7 489,-689.7 380,-689.7"/>
<image xlink:href="../../images/primaryKeys.png" width="11px" height="12px" preserveAspectRatio="xMinYMin meet" x="385" y="-706.7"/>
<text text-anchor="start" x="400" y="-696.8" font-family="Helvetica,sans-Serif" font-size="11.00" fill="#000000">uuid</text>
<polygon fill="none" stroke="#000000" points="489,-689.7 489,-711.7 608,-711.7 608,-689.7 489,-689.7"/>
<text text-anchor="start" x="492" y="-697.4" font-family="Helvetica,sans-Serif" font-size="11.00" fill="#000000">uuid[2147483647]</text>
<polygon fill="#ffffff" stroke="transparent" points="380,-667.7 380,-689.7 489,-689.7 489,-667.7 380,-667.7"/>
<polygon fill="none" stroke="#000000" points="380,-667.7 380,-689.7 489,-689.7 489,-667.7 380,-667.7"/>
<text text-anchor="start" x="400" y="-674.8" font-family="Helvetica,sans-Serif" font-size="11.00" fill="#000000">geom</text>
<polygon fill="none" stroke="#000000" points="489,-667.7 489,-689.7 608,-689.7 608,-667.7 489,-667.7"/>
<text text-anchor="start" x="491.9485" y="-675.4" font-family="Helvetica,sans-Serif" font-size="11.00" fill="#000000">geometry[2147483647]</text>
<polygon fill="none" stroke="#000000" points="380,-645.7 380,-667.7 489,-667.7 489,-645.7 380,-645.7"/>
<text text-anchor="start" x="400" y="-652.8" font-family="Helvetica,sans-Serif" font-size="11.00" fill="#000000">datumtijd</text>
<polygon fill="none" stroke="#000000" points="489,-645.7 489,-667.7 608,-667.7 608,-645.7 489,-645.7"/>
<text text-anchor="start" x="492" y="-653.4" font-family="Helvetica,sans-Serif" font-size="11.00" fill="#000000">timestamptz[35,6]</text>
<polygon fill="none" stroke="#000000" points="380,-623.7 380,-645.7 489,-645.7 489,-623.7 380,-623.7"/>
<text text-anchor="start" x="400" y="-630.8" font-family="Helvetica,sans-Serif" font-size="11.00" fill="#000000">gebruiker</text>
<polygon fill="none" stroke="#000000" points="489,-623.7 489,-645.7 608,-645.7 608,-623.7 489,-623.7"/>
<text text-anchor="start" x="492" y="-631.4" font-family="Helvetica,sans-Serif" font-size="11.00" fill="#000000">varchar[255]</text>
<polygon fill="none" stroke="#000000" points="380,-601.7 380,-623.7 489,-623.7 489,-601.7 380,-601.7"/>
<text text-anchor="start" x="400" y="-608.8" font-family="Helvetica,sans-Serif" font-size="11.00" fill="#000000">label</text>
<polygon fill="none" stroke="#000000" points="489,-601.7 489,-623.7 608,-623.7 608,-601.7 489,-601.7"/>
<text text-anchor="start" x="492" y="-609.4" font-family="Helvetica,sans-Serif" font-size="11.00" fill="#000000">text[2147483647]</text>
<polygon fill="none" stroke="#000000" points="380,-579.7 380,-601.7 489,-601.7 489,-579.7 380,-579.7"/>
<text text-anchor="start" x="400" y="-586.8" font-family="Helvetica,sans-Serif" font-size="11.00" fill="#000000">rotatie</text>
<polygon fill="none" stroke="#000000" points="489,-579.7 489,-601.7 608,-601.7 608,-579.7 489,-579.7"/>
<text text-anchor="start" x="492" y="-587.4" font-family="Helvetica,sans-Serif" font-size="11.00" fill="#000000">int4[10]</text>
<polygon fill="none" stroke="#000000" points="380,-557.7 380,-579.7 489,-579.7 489,-557.7 380,-557.7"/>
<text text-anchor="start" x="400" y="-564.8" font-family="Helvetica,sans-Serif" font-size="11.00" fill="#000000">bijzonderheden</text>
<polygon fill="none" stroke="#000000" points="489,-557.7 489,-579.7 608,-579.7 608,-557.7 489,-557.7"/>
<text text-anchor="start" x="492" y="-565.4" font-family="Helvetica,sans-Serif" font-size="11.00" fill="#000000">text[2147483647]</text>
<polygon fill="none" stroke="#000000" points="380,-535.7 380,-557.7 489,-557.7 489,-535.7 380,-535.7"/>
<text text-anchor="start" x="400" y="-542.8" font-family="Helvetica,sans-Serif" font-size="11.00" fill="#000000">plusinfo</text>
<polygon fill="none" stroke="#000000" points="489,-535.7 489,-557.7 608,-557.7 608,-535.7 489,-535.7"/>
<text text-anchor="start" x="492" y="-543.4" font-family="Helvetica,sans-Serif" font-size="11.00" fill="#000000">jsonb[2147483647]</text>
<polygon fill="#ffffff" stroke="transparent" points="380,-513.7 380,-535.7 489,-535.7 489,-513.7 380,-513.7"/>
<polygon fill="none" stroke="#000000" points="380,-513.7 380,-535.7 489,-535.7 489,-513.7 380,-513.7"/>
<image xlink:href="../../images/foreignKeys.png" width="11px" height="12px" preserveAspectRatio="xMinYMin meet" x="385" y="-530.7"/>
<text text-anchor="start" x="400" y="-520.8" font-family="Helvetica,sans-Serif" font-size="11.00" fill="#000000">object_uuid</text>
<polygon fill="none" stroke="#000000" points="489,-513.7 489,-535.7 608,-535.7 608,-513.7 489,-513.7"/>
<text text-anchor="start" x="492" y="-521.4" font-family="Helvetica,sans-Serif" font-size="11.00" fill="#000000">uuid[2147483647]</text>
<polygon fill="none" stroke="#000000" points="380,-491.7 380,-513.7 489,-513.7 489,-491.7 380,-491.7"/>
<image xlink:href="../../images/foreignKeys.png" width="11px" height="12px" preserveAspectRatio="xMinYMin meet" x="385" y="-508.7"/>
<text text-anchor="start" x="400" y="-498.8" font-family="Helvetica,sans-Serif" font-size="11.00" fill="#000000">verbinding_id</text>
<polygon fill="none" stroke="#000000" points="489,-491.7 489,-513.7 608,-513.7 608,-491.7 489,-491.7"/>
<text text-anchor="start" x="492" y="-499.4" font-family="Helvetica,sans-Serif" font-size="11.00" fill="#000000">int2[5]</text>
<polygon fill="none" stroke="#000000" points="380,-469.7 380,-491.7 489,-491.7 489,-469.7 380,-469.7"/>
<text text-anchor="start" x="400" y="-476.8" font-family="Helvetica,sans-Serif" font-size="11.00" fill="#000000">obstakels</text>
<polygon fill="none" stroke="#000000" points="489,-469.7 489,-491.7 608,-491.7 608,-469.7 489,-469.7"/>
<text text-anchor="start" x="492" y="-477.4" font-family="Helvetica,sans-Serif" font-size="11.00" fill="#000000">varchar[50]</text>
<polygon fill="#ffffff" stroke="transparent" points="380,-450.7 380,-469.7 439,-469.7 439,-450.7 380,-450.7"/>
<polygon fill="none" stroke="#000000" points="380,-450.7 380,-469.7 439,-469.7 439,-450.7 380,-450.7"/>
<text text-anchor="start" x="383" y="-456.8" font-family="Helvetica,sans-Serif" font-size="11.00" fill="#000000">&lt; 2</text>
<polygon fill="#ffffff" stroke="transparent" points="439,-450.7 439,-469.7 489,-469.7 489,-450.7 439,-450.7"/>
<polygon fill="none" stroke="#000000" points="439,-450.7 439,-469.7 489,-469.7 489,-450.7 439,-450.7"/>
<text text-anchor="start" x="479.8862" y="-456.8" font-family="Helvetica,sans-Serif" font-size="11.00" fill="#000000"> &#160;</text>
<polygon fill="#ffffff" stroke="transparent" points="489,-450.7 489,-469.7 608,-469.7 608,-450.7 489,-450.7"/>
<polygon fill="none" stroke="#000000" points="489,-450.7 489,-469.7 608,-469.7 608,-450.7 489,-450.7"/>
<text text-anchor="start" x="589.4053" y="-456.8" font-family="Helvetica,sans-Serif" font-size="11.00" fill="#000000">0 &gt;</text>
<polygon fill="none" stroke="#000000" stroke-width="2" points="379,-449.7 379,-735.7 609,-735.7 609,-449.7 379,-449.7"/>
</a>
</g>
</g>
<!-- object -->
<g id="node2" class="node">
<title>object</title>
<g id="a_node2"><a xlink:href="../../tables/object.html" xlink:title="object" target="_top">
<polygon fill="#ffffff" stroke="transparent" points="162,-134.2 162,-305.2 329,-305.2 329,-134.2 162,-134.2"/>
<polygon fill="#f5f5f5" stroke="transparent" points="162.5,-281.7 162.5,-304.7 329.5,-304.7 329.5,-281.7 162.5,-281.7"/>
<polygon fill="none" stroke="#000000" points="162.5,-281.7 162.5,-304.7 329.5,-304.7 329.5,-281.7 162.5,-281.7"/>
<text text-anchor="start" x="167.5" y="-290.3" font-family="Helvetica,sans-Serif" font-weight="bold" font-size="11.00" fill="#000000">object</text>
<text text-anchor="start" x="294.5437" y="-289.8" font-family="Helvetica,sans-Serif" font-size="11.00" fill="#000000">[table]</text>
<polygon fill="none" stroke="#000000" points="162.5,-259.7 162.5,-281.7 329.5,-281.7 329.5,-259.7 162.5,-259.7"/>
<image xlink:href="../../images/primaryKeys.png" width="11px" height="12px" preserveAspectRatio="xMinYMin meet" x="167.5" y="-276.7"/>
<text text-anchor="start" x="182.5" y="-266.8" font-family="Helvetica,sans-Serif" font-size="11.00" fill="#000000">uuid</text>
<polygon fill="#ffffff" stroke="transparent" points="162.5,-237.7 162.5,-259.7 329.5,-259.7 329.5,-237.7 162.5,-237.7"/>
<polygon fill="none" stroke="#000000" points="162.5,-237.7 162.5,-259.7 329.5,-259.7 329.5,-237.7 162.5,-237.7"/>
<text text-anchor="start" x="182.5" y="-244.8" font-family="Helvetica,sans-Serif" font-size="11.00" fill="#000000">geom</text>
<polygon fill="#ffffff" stroke="transparent" points="162.5,-215.7 162.5,-237.7 329.5,-237.7 329.5,-215.7 162.5,-215.7"/>
<polygon fill="none" stroke="#000000" points="162.5,-215.7 162.5,-237.7 329.5,-237.7 329.5,-215.7 162.5,-215.7"/>
<text text-anchor="start" x="182.5" y="-222.8" font-family="Helvetica,sans-Serif" font-size="11.00" fill="#000000">revisie_frequentie</text>
<polygon fill="#ffffff" stroke="transparent" points="162.5,-193.7 162.5,-215.7 329.5,-215.7 329.5,-193.7 162.5,-193.7"/>
<polygon fill="none" stroke="#000000" points="162.5,-193.7 162.5,-215.7 329.5,-215.7 329.5,-193.7 162.5,-193.7"/>
<image xlink:href="../../images/foreignKeys.png" width="11px" height="12px" preserveAspectRatio="xMinYMin meet" x="167.5" y="-210.7"/>
<text text-anchor="start" x="182.5" y="-200.8" font-family="Helvetica,sans-Serif" font-size="11.00" fill="#000000">fase_id</text>
<polygon fill="#ffffff" stroke="transparent" points="162.5,-171.7 162.5,-193.7 329.5,-193.7 329.5,-171.7 162.5,-171.7"/>
<polygon fill="none" stroke="#000000" points="162.5,-171.7 162.5,-193.7 329.5,-193.7 329.5,-171.7 162.5,-171.7"/>
<image xlink:href="../../images/foreignKeys.png" width="11px" height="12px" preserveAspectRatio="xMinYMin meet" x="167.5" y="-188.7"/>
<text text-anchor="start" x="182.5" y="-178.8" font-family="Helvetica,sans-Serif" font-size="11.00" fill="#000000">object_type_id</text>
<polygon fill="none" stroke="#000000" points="162.5,-152.7 162.5,-171.7 329.5,-171.7 329.5,-152.7 162.5,-152.7"/>
<text text-anchor="start" x="165.5" y="-158.8" font-family="Helvetica,sans-Serif" font-size="11.00" fill="#000000">...</text>
<polygon fill="#ffffff" stroke="transparent" points="162.5,-133.7 162.5,-152.7 239.5,-152.7 239.5,-133.7 162.5,-133.7"/>
<polygon fill="none" stroke="#000000" points="162.5,-133.7 162.5,-152.7 239.5,-152.7 239.5,-133.7 162.5,-133.7"/>
<text text-anchor="start" x="165.5" y="-139.8" font-family="Helvetica,sans-Serif" font-size="11.00" fill="#000000">&lt; 2</text>
<polygon fill="#ffffff" stroke="transparent" points="239.5,-133.7 239.5,-152.7 279.5,-152.7 279.5,-133.7 239.5,-133.7"/>
<polygon fill="none" stroke="#000000" points="239.5,-133.7 239.5,-152.7 279.5,-152.7 279.5,-133.7 239.5,-133.7"/>
<text text-anchor="start" x="270.3862" y="-139.8" font-family="Helvetica,sans-Serif" font-size="11.00" fill="#000000"> &#160;</text>
<polygon fill="#ffffff" stroke="transparent" points="279.5,-133.7 279.5,-152.7 329.5,-152.7 329.5,-133.7 279.5,-133.7"/>
<polygon fill="none" stroke="#000000" points="279.5,-133.7 279.5,-152.7 329.5,-152.7 329.5,-133.7 279.5,-133.7"/>
<text text-anchor="start" x="310.9053" y="-139.8" font-family="Helvetica,sans-Serif" font-size="11.00" fill="#000000">6 &gt;</text>
</a>
</g>
</g>
<!-- bereikbaarheid&#45;&gt;object -->
<g id="edge1" class="edge">
<title>bereikbaarheid:w&#45;&gt;object:e</title>
<path fill="none" stroke="#000000" d="M365.4375,-523.0109C281.4241,-500.973 439.0908,-270.7 329.5,-270.7"/>
<polygon fill="#000000" stroke="#000000" points="372.0533,-523.7782 379.5852,-528.276 376.0266,-524.2391 380,-524.7 380,-524.7 380,-524.7 376.0266,-524.2391 380.4148,-521.124 372.0533,-523.7782 372.0533,-523.7782"/>
<ellipse fill="none" stroke="#000000" cx="368.8746" cy="-523.4095" rx="3.2" ry="3.2"/>
</g>
<!-- roi.verbinding -->
<g id="node3" class="node">
<title>roi.verbinding</title>
<g id="a_node3"><a xlink:href="../../../roi/tables/verbinding.html" xlink:title="roi.verbinding" target="_top">
<polygon fill="#ffffff" stroke="transparent" points="186,-472.2 186,-533.2 305,-533.2 305,-472.2 186,-472.2"/>
<polygon fill="#f5f5f5" stroke="transparent" points="186.5,-509.7 186.5,-532.7 305.5,-532.7 305.5,-509.7 186.5,-509.7"/>
<polygon fill="none" stroke="#000000" points="186.5,-509.7 186.5,-532.7 305.5,-532.7 305.5,-509.7 186.5,-509.7"/>
<text text-anchor="start" x="191.5" y="-518.3" font-family="Helvetica,sans-Serif" font-weight="bold" font-size="11.00" fill="#000000">roi.verbinding</text>
<text text-anchor="start" x="271.0219" y="-517.8" font-family="Helvetica,sans-Serif" font-size="11.00" fill="#000000">[table]</text>
<polygon fill="none" stroke="#000000" points="186.5,-490.7 186.5,-509.7 305.5,-509.7 305.5,-490.7 186.5,-490.7"/>
<text text-anchor="start" x="189.5" y="-496.8" font-family="Helvetica,sans-Serif" font-size="11.00" fill="#000000">...</text>
<polygon fill="#ffffff" stroke="transparent" points="186.5,-471.7 186.5,-490.7 235.5,-490.7 235.5,-471.7 186.5,-471.7"/>
<polygon fill="none" stroke="#000000" points="186.5,-471.7 186.5,-490.7 235.5,-490.7 235.5,-471.7 186.5,-471.7"/>
<text text-anchor="start" x="189.5" y="-477.8" font-family="Helvetica,sans-Serif" font-size="11.00" fill="#000000"> &#160;</text>
<polygon fill="#ffffff" stroke="transparent" points="235.5,-471.7 235.5,-490.7 265.5,-490.7 265.5,-471.7 235.5,-471.7"/>
<polygon fill="none" stroke="#000000" points="235.5,-471.7 235.5,-490.7 265.5,-490.7 265.5,-471.7 235.5,-471.7"/>
<text text-anchor="start" x="256.3862" y="-477.8" font-family="Helvetica,sans-Serif" font-size="11.00" fill="#000000"> &#160;</text>
<polygon fill="#ffffff" stroke="transparent" points="265.5,-471.7 265.5,-490.7 305.5,-490.7 305.5,-471.7 265.5,-471.7"/>
<polygon fill="none" stroke="#000000" points="265.5,-471.7 265.5,-490.7 305.5,-490.7 305.5,-471.7 265.5,-471.7"/>
<text text-anchor="start" x="286.9053" y="-477.8" font-family="Helvetica,sans-Serif" font-size="11.00" fill="#000000">1 &gt;</text>
</a>
</g>
</g>
<!-- bereikbaarheid&#45;&gt;roi.verbinding -->
<g id="edge2" class="edge">
<title>bereikbaarheid:w&#45;&gt;roi.verbinding:e</title>
<path fill="none" stroke="#000000" d="M365.5107,-502.7C348.0315,-502.7 329.9226,-502.7 313.2337,-502.7"/>
<polygon fill="#000000" stroke="#000000" points="372,-502.7001 380,-506.3 376,-502.7 380,-502.7 380,-502.7 380,-502.7 376,-502.7 380,-499.1 372,-502.7001 372,-502.7001"/>
<ellipse fill="none" stroke="#000000" cx="368.8" cy="-502.7001" rx="3.2" ry="3.2"/>
</g>
<!-- roi.fase -->
<g id="node5" class="node">
<title>roi.fase</title>
<g id="a_node5"><a xlink:href="../../../roi/tables/fase.html" xlink:title="roi.fase" target="_top">
<polygon fill="#ffffff" stroke="transparent" points="20,-207.2 20,-268.2 101,-268.2 101,-207.2 20,-207.2"/>
<polygon fill="#f5f5f5" stroke="transparent" points="20.5,-244.7 20.5,-267.7 101.5,-267.7 101.5,-244.7 20.5,-244.7"/>
<polygon fill="none" stroke="#000000" points="20.5,-244.7 20.5,-267.7 101.5,-267.7 101.5,-244.7 20.5,-244.7"/>
<text text-anchor="start" x="25.5" y="-253.3" font-family="Helvetica,sans-Serif" font-weight="bold" font-size="11.00" fill="#000000">roi.fase</text>
<text text-anchor="start" x="67.0219" y="-252.8" font-family="Helvetica,sans-Serif" font-size="11.00" fill="#000000">[table]</text>
<polygon fill="none" stroke="#000000" points="20.5,-225.7 20.5,-244.7 101.5,-244.7 101.5,-225.7 20.5,-225.7"/>
<text text-anchor="start" x="23.5" y="-231.8" font-family="Helvetica,sans-Serif" font-size="11.00" fill="#000000">...</text>
<polygon fill="#ffffff" stroke="transparent" points="20.5,-206.7 20.5,-225.7 50.5,-225.7 50.5,-206.7 20.5,-206.7"/>
<polygon fill="none" stroke="#000000" points="20.5,-206.7 20.5,-225.7 50.5,-225.7 50.5,-206.7 20.5,-206.7"/>
<text text-anchor="start" x="23.5" y="-212.8" font-family="Helvetica,sans-Serif" font-size="11.00" fill="#000000"> &#160;</text>
<polygon fill="#ffffff" stroke="transparent" points="50.5,-206.7 50.5,-225.7 71.5,-225.7 71.5,-206.7 50.5,-206.7"/>
<polygon fill="none" stroke="#000000" points="50.5,-206.7 50.5,-225.7 71.5,-225.7 71.5,-206.7 50.5,-206.7"/>
<text text-anchor="start" x="62.3862" y="-212.8" font-family="Helvetica,sans-Serif" font-size="11.00" fill="#000000"> &#160;</text>
<polygon fill="#ffffff" stroke="transparent" points="71.5,-206.7 71.5,-225.7 101.5,-225.7 101.5,-206.7 71.5,-206.7"/>
<polygon fill="none" stroke="#000000" points="71.5,-206.7 71.5,-225.7 101.5,-225.7 101.5,-206.7 71.5,-206.7"/>
<text text-anchor="start" x="82.9053" y="-212.8" font-family="Helvetica,sans-Serif" font-size="11.00" fill="#000000">1 &gt;</text>
</a>
</g>
</g>
<!-- object&#45;&gt;roi.fase -->
<g id="edge4" class="edge">
<title>object:w&#45;&gt;roi.fase:e</title>
<path fill="none" stroke="#000000" d="M148.2406,-207.4686C131.03,-214.8953 126.0476,-234.7 101.5,-234.7"/>
<polygon fill="#000000" stroke="#000000" points="154.6467,-206.2248 163.1862,-208.234 158.5733,-205.4624 162.5,-204.7 162.5,-204.7 162.5,-204.7 158.5733,-205.4624 161.8138,-201.166 154.6467,-206.2248 154.6467,-206.2248"/>
<ellipse fill="none" stroke="#000000" cx="151.5053" cy="-206.8348" rx="3.2" ry="3.2"/>
</g>
<!-- object_type -->
<g id="node6" class="node">
<title>object_type</title>
<g id="a_node6"><a xlink:href="../../tables/object_type.html" xlink:title="object_type" target="_top">
<polygon fill="#ffffff" stroke="transparent" points="8,-125.2 8,-186.2 113,-186.2 113,-125.2 8,-125.2"/>
<polygon fill="#f5f5f5" stroke="transparent" points="8.5,-162.7 8.5,-185.7 113.5,-185.7 113.5,-162.7 8.5,-162.7"/>
<polygon fill="none" stroke="#000000" points="8.5,-162.7 8.5,-185.7 113.5,-185.7 113.5,-162.7 8.5,-162.7"/>
<text text-anchor="start" x="13.5" y="-171.3" font-family="Helvetica,sans-Serif" font-weight="bold" font-size="11.00" fill="#000000">object_type</text>
<text text-anchor="start" x="79.0219" y="-170.8" font-family="Helvetica,sans-Serif" font-size="11.00" fill="#000000">[table]</text>
<polygon fill="none" stroke="#000000" points="8.5,-143.7 8.5,-162.7 113.5,-162.7 113.5,-143.7 8.5,-143.7"/>
<text text-anchor="start" x="11.5" y="-149.8" font-family="Helvetica,sans-Serif" font-size="11.00" fill="#000000">...</text>
<polygon fill="#ffffff" stroke="transparent" points="8.5,-124.7 8.5,-143.7 50.5,-143.7 50.5,-124.7 8.5,-124.7"/>
<polygon fill="none" stroke="#000000" points="8.5,-124.7 8.5,-143.7 50.5,-143.7 50.5,-124.7 8.5,-124.7"/>
<text text-anchor="start" x="11.5" y="-130.8" font-family="Helvetica,sans-Serif" font-size="11.00" fill="#000000"> &#160;</text>
<polygon fill="#ffffff" stroke="transparent" points="50.5,-124.7 50.5,-143.7 77.5,-143.7 77.5,-124.7 50.5,-124.7"/>
<polygon fill="none" stroke="#000000" points="50.5,-124.7 50.5,-143.7 77.5,-143.7 77.5,-124.7 50.5,-124.7"/>
<text text-anchor="start" x="68.3862" y="-130.8" font-family="Helvetica,sans-Serif" font-size="11.00" fill="#000000"> &#160;</text>
<polygon fill="#ffffff" stroke="transparent" points="77.5,-124.7 77.5,-143.7 113.5,-143.7 113.5,-124.7 77.5,-124.7"/>
<polygon fill="none" stroke="#000000" points="77.5,-124.7 77.5,-143.7 113.5,-143.7 113.5,-124.7 77.5,-124.7"/>
<text text-anchor="start" x="94.9053" y="-130.8" font-family="Helvetica,sans-Serif" font-size="11.00" fill="#000000">1 &gt;</text>
</a>
</g>
</g>
<!-- object&#45;&gt;object_type -->
<g id="edge5" class="edge">
<title>object:w&#45;&gt;object_type:e</title>
<path fill="none" stroke="#000000" d="M148.384,-178.5286C136.4189,-170.2854 133.0504,-152.7 113.5,-152.7"/>
<polygon fill="#000000" stroke="#000000" points="154.828,-180.4328 161.4798,-186.1524 158.664,-181.5664 162.5,-182.7 162.5,-182.7 162.5,-182.7 158.664,-181.5664 163.5202,-179.2476 154.828,-180.4328 154.828,-180.4328"/>
<ellipse fill="none" stroke="#000000" cx="151.7591" cy="-179.526" rx="3.2" ry="3.2"/>
</g>
<!-- label -->
<g id="node4" class="node">
<title>label</title>
<g id="a_node4"><a xlink:href="../../tables/label.html" xlink:title="label" target="_top">
<polygon fill="#ffffff" stroke="transparent" points="461,-120.2 461,-181.2 527,-181.2 527,-120.2 461,-120.2"/>
<polygon fill="#f5f5f5" stroke="transparent" points="461,-157.7 461,-180.7 527,-180.7 527,-157.7 461,-157.7"/>
<polygon fill="none" stroke="#000000" points="461,-157.7 461,-180.7 527,-180.7 527,-157.7 461,-157.7"/>
<text text-anchor="start" x="465.8868" y="-166.3" font-family="Helvetica,sans-Serif" font-weight="bold" font-size="11.00" fill="#000000">label</text>
<text text-anchor="start" x="492.5219" y="-165.8" font-family="Helvetica,sans-Serif" font-size="11.00" fill="#000000">[table]</text>
<polygon fill="none" stroke="#000000" points="461,-138.7 461,-157.7 527,-157.7 527,-138.7 461,-138.7"/>
<text text-anchor="start" x="464" y="-144.8" font-family="Helvetica,sans-Serif" font-size="11.00" fill="#000000">...</text>
<polygon fill="#ffffff" stroke="transparent" points="461,-119.7 461,-138.7 492,-138.7 492,-119.7 461,-119.7"/>
<polygon fill="none" stroke="#000000" points="461,-119.7 461,-138.7 492,-138.7 492,-119.7 461,-119.7"/>
<text text-anchor="start" x="464" y="-125.8" font-family="Helvetica,sans-Serif" font-size="11.00" fill="#000000">&lt; 2</text>
<polygon fill="#ffffff" stroke="transparent" points="492,-119.7 492,-138.7 509,-138.7 509,-119.7 492,-119.7"/>
<polygon fill="none" stroke="#000000" points="492,-119.7 492,-138.7 509,-138.7 509,-119.7 492,-119.7"/>
<text text-anchor="start" x="499.8862" y="-125.8" font-family="Helvetica,sans-Serif" font-size="11.00" fill="#000000"> &#160;</text>
<polygon fill="#ffffff" stroke="transparent" points="509,-119.7 509,-138.7 527,-138.7 527,-119.7 509,-119.7"/>
<polygon fill="none" stroke="#000000" points="509,-119.7 509,-138.7 527,-138.7 527,-119.7 509,-119.7"/>
<text text-anchor="start" x="517.8862" y="-125.8" font-family="Helvetica,sans-Serif" font-size="11.00" fill="#000000"> &#160;</text>
</a>
</g>
</g>
<!-- label&#45;&gt;object -->
<g id="edge3" class="edge">
<title>label:w&#45;&gt;object:e</title>
<path fill="none" stroke="#000000" d="M446.4037,-148.2293C412.5586,-150.9127 398.369,-163.9858 370,-191.7 341.7765,-219.2721 368.9562,-270.7 329.5,-270.7"/>
<polygon fill="#000000" stroke="#000000" points="453.0053,-147.99 461.1305,-151.2976 457.0026,-147.845 461,-147.7 461,-147.7 461,-147.7 457.0026,-147.845 460.8695,-144.1024 453.0053,-147.99 453.0053,-147.99"/>
<ellipse fill="none" stroke="#000000" cx="449.8074" cy="-148.106" rx="3.2" ry="3.2"/>
</g>
<!-- opstelplaats -->
<g id="node7" class="node">
<title>opstelplaats</title>
<g id="a_node7"><a xlink:href="../../tables/opstelplaats.html" xlink:title="opstelplaats" target="_top">
<polygon fill="#ffffff" stroke="transparent" points="439.5,-38.2 439.5,-99.2 548.5,-99.2 548.5,-38.2 439.5,-38.2"/>
<polygon fill="#f5f5f5" stroke="transparent" points="440,-75.7 440,-98.7 549,-98.7 549,-75.7 440,-75.7"/>
<polygon fill="none" stroke="#000000" points="440,-75.7 440,-98.7 549,-98.7 549,-75.7 440,-75.7"/>
<text text-anchor="start" x="445" y="-84.3" font-family="Helvetica,sans-Serif" font-weight="bold" font-size="11.00" fill="#000000">opstelplaats</text>
<text text-anchor="start" x="514.5219" y="-83.8" font-family="Helvetica,sans-Serif" font-size="11.00" fill="#000000">[table]</text>
<polygon fill="none" stroke="#000000" points="440,-56.7 440,-75.7 549,-75.7 549,-56.7 440,-56.7"/>
<text text-anchor="start" x="443" y="-62.8" font-family="Helvetica,sans-Serif" font-size="11.00" fill="#000000">...</text>
<polygon fill="#ffffff" stroke="transparent" points="440,-37.7 440,-56.7 493,-56.7 493,-37.7 440,-37.7"/>
<polygon fill="none" stroke="#000000" points="440,-37.7 440,-56.7 493,-56.7 493,-37.7 440,-37.7"/>
<text text-anchor="start" x="443" y="-43.8" font-family="Helvetica,sans-Serif" font-size="11.00" fill="#000000">&lt; 2</text>
<polygon fill="#ffffff" stroke="transparent" points="493,-37.7 493,-56.7 521,-56.7 521,-37.7 493,-37.7"/>
<polygon fill="none" stroke="#000000" points="493,-37.7 493,-56.7 521,-56.7 521,-37.7 493,-37.7"/>
<text text-anchor="start" x="511.8862" y="-43.8" font-family="Helvetica,sans-Serif" font-size="11.00" fill="#000000"> &#160;</text>
<polygon fill="#ffffff" stroke="transparent" points="521,-37.7 521,-56.7 549,-56.7 549,-37.7 521,-37.7"/>
<polygon fill="none" stroke="#000000" points="521,-37.7 521,-56.7 549,-56.7 549,-37.7 521,-37.7"/>
<text text-anchor="start" x="539.8862" y="-43.8" font-family="Helvetica,sans-Serif" font-size="11.00" fill="#000000"> &#160;</text>
</a>
</g>
</g>
<!-- opstelplaats&#45;&gt;object -->
<g id="edge6" class="edge">
<title>opstelplaats:w&#45;&gt;object:e</title>
<path fill="none" stroke="#000000" d="M425.5331,-66.5976C399.6747,-70.1467 388.4702,-84.2628 370,-109.7 326.6472,-169.4054 403.2848,-270.7 329.5,-270.7"/>
<polygon fill="#000000" stroke="#000000" points="432.0154,-66.1955 440.223,-69.2931 436.0077,-65.9477 440,-65.7 440,-65.7 440,-65.7 436.0077,-65.9477 439.777,-62.1069 432.0154,-66.1955 432.0154,-66.1955"/>
<ellipse fill="none" stroke="#000000" cx="428.8215" cy="-66.3936" rx="3.2" ry="3.2"/>
</g>
<!-- risico -->
<g id="node8" class="node">
<title>risico</title>
<g id="a_node8"><a xlink:href="../../tables/risico.html" xlink:title="risico" target="_top">
<polygon fill="#ffffff" stroke="transparent" points="458.5,-366.2 458.5,-427.2 529.5,-427.2 529.5,-366.2 458.5,-366.2"/>
<polygon fill="#f5f5f5" stroke="transparent" points="459,-403.7 459,-426.7 530,-426.7 530,-403.7 459,-403.7"/>
<polygon fill="none" stroke="#000000" points="459,-403.7 459,-426.7 530,-426.7 530,-403.7 459,-403.7"/>
<text text-anchor="start" x="464" y="-412.3" font-family="Helvetica,sans-Serif" font-weight="bold" font-size="11.00" fill="#000000">risico</text>
<text text-anchor="start" x="495.5219" y="-411.8" font-family="Helvetica,sans-Serif" font-size="11.00" fill="#000000">[table]</text>
<polygon fill="none" stroke="#000000" points="459,-384.7 459,-403.7 530,-403.7 530,-384.7 459,-384.7"/>
<text text-anchor="start" x="462" y="-390.8" font-family="Helvetica,sans-Serif" font-size="11.00" fill="#000000">...</text>
<polygon fill="#ffffff" stroke="transparent" points="459,-365.7 459,-384.7 493,-384.7 493,-365.7 459,-365.7"/>
<polygon fill="none" stroke="#000000" points="459,-365.7 459,-384.7 493,-384.7 493,-365.7 459,-365.7"/>
<text text-anchor="start" x="462" y="-371.8" font-family="Helvetica,sans-Serif" font-size="11.00" fill="#000000">&lt; 2</text>
<polygon fill="#ffffff" stroke="transparent" points="493,-365.7 493,-384.7 511,-384.7 511,-365.7 493,-365.7"/>
<polygon fill="none" stroke="#000000" points="493,-365.7 493,-384.7 511,-384.7 511,-365.7 493,-365.7"/>
<text text-anchor="start" x="501.8862" y="-371.8" font-family="Helvetica,sans-Serif" font-size="11.00" fill="#000000"> &#160;</text>
<polygon fill="#ffffff" stroke="transparent" points="511,-365.7 511,-384.7 530,-384.7 530,-365.7 511,-365.7"/>
<polygon fill="none" stroke="#000000" points="511,-365.7 511,-384.7 530,-384.7 530,-365.7 511,-365.7"/>
<text text-anchor="start" x="520.8862" y="-371.8" font-family="Helvetica,sans-Serif" font-size="11.00" fill="#000000"> &#160;</text>
</a>
</g>
</g>
<!-- risico&#45;&gt;object -->
<g id="edge7" class="edge">
<title>risico:w&#45;&gt;object:e</title>
<path fill="none" stroke="#000000" d="M444.5309,-393.3148C412.1314,-391.3933 397.2738,-381.8749 370,-355.7 339.8078,-326.7243 371.3469,-270.7 329.5,-270.7"/>
<polygon fill="#000000" stroke="#000000" points="451.0028,-393.487 458.9042,-397.2987 455.0014,-393.5935 459,-393.7 459,-393.7 459,-393.7 455.0014,-393.5935 459.0958,-390.1013 451.0028,-393.487 451.0028,-393.487"/>
<ellipse fill="none" stroke="#000000" cx="447.804" cy="-393.4018" rx="3.2" ry="3.2"/>
</g>
<!-- sector -->
<g id="node9" class="node">
<title>sector</title>
<g id="a_node9"><a xlink:href="../../tables/sector.html" xlink:title="sector" target="_top">
<polygon fill="#ffffff" stroke="transparent" points="456.5,-284.2 456.5,-345.2 531.5,-345.2 531.5,-284.2 456.5,-284.2"/>
<polygon fill="#f5f5f5" stroke="transparent" points="457,-321.7 457,-344.7 532,-344.7 532,-321.7 457,-321.7"/>
<polygon fill="none" stroke="#000000" points="457,-321.7 457,-344.7 532,-344.7 532,-321.7 457,-321.7"/>
<text text-anchor="start" x="462" y="-330.3" font-family="Helvetica,sans-Serif" font-weight="bold" font-size="11.00" fill="#000000">sector</text>
<text text-anchor="start" x="497.5219" y="-329.8" font-family="Helvetica,sans-Serif" font-size="11.00" fill="#000000">[table]</text>
<polygon fill="none" stroke="#000000" points="457,-302.7 457,-321.7 532,-321.7 532,-302.7 457,-302.7"/>
<text text-anchor="start" x="460" y="-308.8" font-family="Helvetica,sans-Serif" font-size="11.00" fill="#000000">...</text>
<polygon fill="#ffffff" stroke="transparent" points="457,-283.7 457,-302.7 493,-302.7 493,-283.7 457,-283.7"/>
<polygon fill="none" stroke="#000000" points="457,-283.7 457,-302.7 493,-302.7 493,-283.7 457,-283.7"/>
<text text-anchor="start" x="460" y="-289.8" font-family="Helvetica,sans-Serif" font-size="11.00" fill="#000000">&lt; 2</text>
<polygon fill="#ffffff" stroke="transparent" points="493,-283.7 493,-302.7 512,-302.7 512,-283.7 493,-283.7"/>
<polygon fill="none" stroke="#000000" points="493,-283.7 493,-302.7 512,-302.7 512,-283.7 493,-283.7"/>
<text text-anchor="start" x="502.8862" y="-289.8" font-family="Helvetica,sans-Serif" font-size="11.00" fill="#000000"> &#160;</text>
<polygon fill="#ffffff" stroke="transparent" points="512,-283.7 512,-302.7 532,-302.7 532,-283.7 512,-283.7"/>
<polygon fill="none" stroke="#000000" points="512,-283.7 512,-302.7 532,-302.7 532,-283.7 512,-283.7"/>
<text text-anchor="start" x="522.8862" y="-289.8" font-family="Helvetica,sans-Serif" font-size="11.00" fill="#000000"> &#160;</text>
</a>
</g>
</g>
<!-- sector&#45;&gt;object -->
<g id="edge8" class="edge">
<title>sector:w&#45;&gt;object:e</title>
<path fill="none" stroke="#000000" d="M442.4193,-310.8055C395.5955,-304.8097 383.7928,-270.7 329.5,-270.7"/>
<polygon fill="#000000" stroke="#000000" points="449.015,-311.2101 456.7795,-315.2932 453.0075,-311.455 457,-311.7 457,-311.7 457,-311.7 453.0075,-311.455 457.2205,-308.1068 449.015,-311.2101 449.015,-311.2101"/>
<ellipse fill="none" stroke="#000000" cx="445.821" cy="-311.0141" rx="3.2" ry="3.2"/>
</g>
<!-- voorziening -->
<g id="node10" class="node">
<title>voorziening</title>
<g id="a_node10"><a xlink:href="../../tables/voorziening.html" xlink:title="voorziening" target="_top">
<polygon fill="#ffffff" stroke="transparent" points="441,-202.2 441,-263.2 547,-263.2 547,-202.2 441,-202.2"/>
<polygon fill="#f5f5f5" stroke="transparent" points="441,-239.7 441,-262.7 547,-262.7 547,-239.7 441,-239.7"/>
<polygon fill="none" stroke="#000000" points="441,-239.7 441,-262.7 547,-262.7 547,-239.7 441,-239.7"/>
<text text-anchor="start" x="446" y="-248.3" font-family="Helvetica,sans-Serif" font-weight="bold" font-size="11.00" fill="#000000">voorziening</text>
<text text-anchor="start" x="512.5219" y="-247.8" font-family="Helvetica,sans-Serif" font-size="11.00" fill="#000000">[table]</text>
<polygon fill="none" stroke="#000000" points="441,-220.7 441,-239.7 547,-239.7 547,-220.7 441,-220.7"/>
<text text-anchor="start" x="444" y="-226.8" font-family="Helvetica,sans-Serif" font-size="11.00" fill="#000000">...</text>
<polygon fill="#ffffff" stroke="transparent" points="441,-201.7 441,-220.7 492,-220.7 492,-201.7 441,-201.7"/>
<polygon fill="none" stroke="#000000" points="441,-201.7 441,-220.7 492,-220.7 492,-201.7 441,-201.7"/>
<text text-anchor="start" x="444" y="-207.8" font-family="Helvetica,sans-Serif" font-size="11.00" fill="#000000">&lt; 2</text>
<polygon fill="#ffffff" stroke="transparent" points="492,-201.7 492,-220.7 519,-220.7 519,-201.7 492,-201.7"/>
<polygon fill="none" stroke="#000000" points="492,-201.7 492,-220.7 519,-220.7 519,-201.7 492,-201.7"/>
<text text-anchor="start" x="509.8862" y="-207.8" font-family="Helvetica,sans-Serif" font-size="11.00" fill="#000000"> &#160;</text>
<polygon fill="#ffffff" stroke="transparent" points="519,-201.7 519,-220.7 547,-220.7 547,-201.7 519,-201.7"/>
<polygon fill="none" stroke="#000000" points="519,-201.7 519,-220.7 547,-220.7 547,-201.7 519,-201.7"/>
<text text-anchor="start" x="537.8862" y="-207.8" font-family="Helvetica,sans-Serif" font-size="11.00" fill="#000000"> &#160;</text>
</a>
</g>
</g>
<!-- voorziening&#45;&gt;object -->
<g id="edge9" class="edge">
<title>voorziening:w&#45;&gt;object:e</title>
<path fill="none" stroke="#000000" d="M426.5253,-230.8394C386.5595,-237.4612 377.0403,-270.7 329.5,-270.7"/>
<polygon fill="#000000" stroke="#000000" points="433.0247,-230.3278 441.2825,-233.2889 437.0123,-230.0139 441,-229.7 441,-229.7 441,-229.7 437.0123,-230.0139 440.7175,-226.1111 433.0247,-230.3278 433.0247,-230.3278"/>
<ellipse fill="none" stroke="#000000" cx="429.8345" cy="-230.579" rx="3.2" ry="3.2"/>
</g>
</g>
</svg>
