<?xml version="1.0" encoding="UTF-8" standalone="no"?>
<!DOCTYPE svg PUBLIC "-//W3C//DTD SVG 1.1//EN"
 "http://www.w3.org/Graphics/SVG/1.1/DTD/svg11.dtd">
<!-- Generated by graphviz version 2.40.1 (20161225.0304)
 -->
<!-- Title: twoDegreesRelationshipsDiagram Pages: 1 -->
<svg width="626pt" height="727pt"
 viewBox="0.00 0.00 626.00 726.70" xmlns="http://www.w3.org/2000/svg" xmlns:xlink="http://www.w3.org/1999/xlink">
<g id="graph0" class="graph" transform="scale(1 1) rotate(0) translate(4 722.7)">
<title>twoDegreesRelationshipsDiagram</title>
<polygon fill="#ffffff" stroke="transparent" points="-4,4 -4,-722.7 622,-722.7 622,4 -4,4"/>
<text text-anchor="middle" x="72.4936" y="-7.3" font-family="Helvetica,sans-Serif" font-size="11.00" fill="#000000">Generated by SchemaSpy</text>
<!-- bereikbaarheid -->
<g id="node1" class="node">
<title>bereikbaarheid</title>
<g id="a_node1"><a xlink:href="../../tables/bereikbaarheid.html" xlink:title="bereikbaarheid" target="_top">
<polygon fill="#ffffff" stroke="transparent" points="432,-653.7 432,-714.7 556,-714.7 556,-653.7 432,-653.7"/>
<polygon fill="#f5f5f5" stroke="transparent" points="432,-691.2 432,-714.2 556,-714.2 556,-691.2 432,-691.2"/>
<polygon fill="none" stroke="#000000" points="432,-691.2 432,-714.2 556,-714.2 556,-691.2 432,-691.2"/>
<text text-anchor="start" x="437" y="-699.8" font-family="Helvetica,sans-Serif" font-weight="bold" font-size="11.00" fill="#000000">bereikbaarheid</text>
<text text-anchor="start" x="521.5219" y="-699.3" font-family="Helvetica,sans-Serif" font-size="11.00" fill="#000000">[table]</text>
<polygon fill="none" stroke="#000000" points="432,-672.2 432,-691.2 556,-691.2 556,-672.2 432,-672.2"/>
<text text-anchor="start" x="435" y="-678.3" font-family="Helvetica,sans-Serif" font-size="11.00" fill="#000000">...</text>
<polygon fill="#ffffff" stroke="transparent" points="432,-653.2 432,-672.2 492,-672.2 492,-653.2 432,-653.2"/>
<polygon fill="none" stroke="#000000" points="432,-653.2 432,-672.2 492,-672.2 492,-653.2 432,-653.2"/>
<text text-anchor="start" x="435" y="-659.3" font-family="Helvetica,sans-Serif" font-size="11.00" fill="#000000">&lt; 2</text>
<polygon fill="#ffffff" stroke="transparent" points="492,-653.2 492,-672.2 524,-672.2 524,-653.2 492,-653.2"/>
<polygon fill="none" stroke="#000000" points="492,-653.2 492,-672.2 524,-672.2 524,-653.2 492,-653.2"/>
<text text-anchor="start" x="514.8862" y="-659.3" font-family="Helvetica,sans-Serif" font-size="11.00" fill="#000000"> &#160;</text>
<polygon fill="#ffffff" stroke="transparent" points="524,-653.2 524,-672.2 556,-672.2 556,-653.2 524,-653.2"/>
<polygon fill="none" stroke="#000000" points="524,-653.2 524,-672.2 556,-672.2 556,-653.2 524,-653.2"/>
<text text-anchor="start" x="546.8862" y="-659.3" font-family="Helvetica,sans-Serif" font-size="11.00" fill="#000000"> &#160;</text>
</a>
</g>
</g>
<!-- object -->
<g id="node2" class="node">
<title>object</title>
<g id="a_node2"><a xlink:href="../../tables/object.html" xlink:title="object" target="_top">
<polygon fill="#ffffff" stroke="transparent" points="162,-339.7 162,-510.7 329,-510.7 329,-339.7 162,-339.7"/>
<polygon fill="#f5f5f5" stroke="transparent" points="162.5,-487.2 162.5,-510.2 329.5,-510.2 329.5,-487.2 162.5,-487.2"/>
<polygon fill="none" stroke="#000000" points="162.5,-487.2 162.5,-510.2 329.5,-510.2 329.5,-487.2 162.5,-487.2"/>
<text text-anchor="start" x="167.5" y="-495.8" font-family="Helvetica,sans-Serif" font-weight="bold" font-size="11.00" fill="#000000">object</text>
<text text-anchor="start" x="294.5437" y="-495.3" font-family="Helvetica,sans-Serif" font-size="11.00" fill="#000000">[table]</text>
<polygon fill="none" stroke="#000000" points="162.5,-465.2 162.5,-487.2 329.5,-487.2 329.5,-465.2 162.5,-465.2"/>
<image xlink:href="../../images/primaryKeys.png" width="11px" height="12px" preserveAspectRatio="xMinYMin meet" x="167.5" y="-482.2"/>
<text text-anchor="start" x="182.5" y="-472.3" font-family="Helvetica,sans-Serif" font-size="11.00" fill="#000000">uuid</text>
<polygon fill="#ffffff" stroke="transparent" points="162.5,-443.2 162.5,-465.2 329.5,-465.2 329.5,-443.2 162.5,-443.2"/>
<polygon fill="none" stroke="#000000" points="162.5,-443.2 162.5,-465.2 329.5,-465.2 329.5,-443.2 162.5,-443.2"/>
<text text-anchor="start" x="182.5" y="-450.3" font-family="Helvetica,sans-Serif" font-size="11.00" fill="#000000">geom</text>
<polygon fill="#ffffff" stroke="transparent" points="162.5,-421.2 162.5,-443.2 329.5,-443.2 329.5,-421.2 162.5,-421.2"/>
<polygon fill="none" stroke="#000000" points="162.5,-421.2 162.5,-443.2 329.5,-443.2 329.5,-421.2 162.5,-421.2"/>
<text text-anchor="start" x="182.5" y="-428.3" font-family="Helvetica,sans-Serif" font-size="11.00" fill="#000000">revisie_frequentie</text>
<polygon fill="#ffffff" stroke="transparent" points="162.5,-399.2 162.5,-421.2 329.5,-421.2 329.5,-399.2 162.5,-399.2"/>
<polygon fill="none" stroke="#000000" points="162.5,-399.2 162.5,-421.2 329.5,-421.2 329.5,-399.2 162.5,-399.2"/>
<image xlink:href="../../images/foreignKeys.png" width="11px" height="12px" preserveAspectRatio="xMinYMin meet" x="167.5" y="-416.2"/>
<text text-anchor="start" x="182.5" y="-406.3" font-family="Helvetica,sans-Serif" font-size="11.00" fill="#000000">fase_id</text>
<polygon fill="#ffffff" stroke="transparent" points="162.5,-377.2 162.5,-399.2 329.5,-399.2 329.5,-377.2 162.5,-377.2"/>
<polygon fill="none" stroke="#000000" points="162.5,-377.2 162.5,-399.2 329.5,-399.2 329.5,-377.2 162.5,-377.2"/>
<image xlink:href="../../images/foreignKeys.png" width="11px" height="12px" preserveAspectRatio="xMinYMin meet" x="167.5" y="-394.2"/>
<text text-anchor="start" x="182.5" y="-384.3" font-family="Helvetica,sans-Serif" font-size="11.00" fill="#000000">object_type_id</text>
<polygon fill="none" stroke="#000000" points="162.5,-358.2 162.5,-377.2 329.5,-377.2 329.5,-358.2 162.5,-358.2"/>
<text text-anchor="start" x="165.5" y="-364.3" font-family="Helvetica,sans-Serif" font-size="11.00" fill="#000000">...</text>
<polygon fill="#ffffff" stroke="transparent" points="162.5,-339.2 162.5,-358.2 239.5,-358.2 239.5,-339.2 162.5,-339.2"/>
<polygon fill="none" stroke="#000000" points="162.5,-339.2 162.5,-358.2 239.5,-358.2 239.5,-339.2 162.5,-339.2"/>
<text text-anchor="start" x="165.5" y="-345.3" font-family="Helvetica,sans-Serif" font-size="11.00" fill="#000000">&lt; 2</text>
<polygon fill="#ffffff" stroke="transparent" points="239.5,-339.2 239.5,-358.2 279.5,-358.2 279.5,-339.2 239.5,-339.2"/>
<polygon fill="none" stroke="#000000" points="239.5,-339.2 239.5,-358.2 279.5,-358.2 279.5,-339.2 239.5,-339.2"/>
<text text-anchor="start" x="270.3862" y="-345.3" font-family="Helvetica,sans-Serif" font-size="11.00" fill="#000000"> &#160;</text>
<polygon fill="#ffffff" stroke="transparent" points="279.5,-339.2 279.5,-358.2 329.5,-358.2 329.5,-339.2 279.5,-339.2"/>
<polygon fill="none" stroke="#000000" points="279.5,-339.2 279.5,-358.2 329.5,-358.2 329.5,-339.2 279.5,-339.2"/>
<text text-anchor="start" x="310.9053" y="-345.3" font-family="Helvetica,sans-Serif" font-size="11.00" fill="#000000">6 &gt;</text>
</a>
</g>
</g>
<!-- bereikbaarheid&#45;&gt;object -->
<g id="edge1" class="edge">
<title>bereikbaarheid:w&#45;&gt;object:e</title>
<path fill="none" stroke="#000000" d="M417.4054,-680.1837C395.8651,-676.8089 385.8302,-664.9375 370,-643.2 325.0399,-581.4624 405.8737,-476.2 329.5,-476.2"/>
<polygon fill="#000000" stroke="#000000" points="424.0193,-680.6442 431.7499,-684.7913 428.0097,-680.9221 432,-681.2 432,-681.2 432,-681.2 428.0097,-680.9221 432.2501,-677.6087 424.0193,-680.6442 424.0193,-680.6442"/>
<ellipse fill="none" stroke="#000000" cx="420.8271" cy="-680.4219" rx="3.2" ry="3.2"/>
</g>
<!-- roi.fase -->
<g id="node5" class="node">
<title>roi.fase</title>
<g id="a_node5"><a xlink:href="../../../roi/tables/fase.html" xlink:title="roi.fase" target="_top">
<polygon fill="#ffffff" stroke="transparent" points="20,-412.7 20,-473.7 101,-473.7 101,-412.7 20,-412.7"/>
<polygon fill="#f5f5f5" stroke="transparent" points="20.5,-450.2 20.5,-473.2 101.5,-473.2 101.5,-450.2 20.5,-450.2"/>
<polygon fill="none" stroke="#000000" points="20.5,-450.2 20.5,-473.2 101.5,-473.2 101.5,-450.2 20.5,-450.2"/>
<text text-anchor="start" x="25.5" y="-458.8" font-family="Helvetica,sans-Serif" font-weight="bold" font-size="11.00" fill="#000000">roi.fase</text>
<text text-anchor="start" x="67.0219" y="-458.3" font-family="Helvetica,sans-Serif" font-size="11.00" fill="#000000">[table]</text>
<polygon fill="none" stroke="#000000" points="20.5,-431.2 20.5,-450.2 101.5,-450.2 101.5,-431.2 20.5,-431.2"/>
<text text-anchor="start" x="23.5" y="-437.3" font-family="Helvetica,sans-Serif" font-size="11.00" fill="#000000">...</text>
<polygon fill="#ffffff" stroke="transparent" points="20.5,-412.2 20.5,-431.2 50.5,-431.2 50.5,-412.2 20.5,-412.2"/>
<polygon fill="none" stroke="#000000" points="20.5,-412.2 20.5,-431.2 50.5,-431.2 50.5,-412.2 20.5,-412.2"/>
<text text-anchor="start" x="23.5" y="-418.3" font-family="Helvetica,sans-Serif" font-size="11.00" fill="#000000"> &#160;</text>
<polygon fill="#ffffff" stroke="transparent" points="50.5,-412.2 50.5,-431.2 71.5,-431.2 71.5,-412.2 50.5,-412.2"/>
<polygon fill="none" stroke="#000000" points="50.5,-412.2 50.5,-431.2 71.5,-431.2 71.5,-412.2 50.5,-412.2"/>
<text text-anchor="start" x="62.3862" y="-418.3" font-family="Helvetica,sans-Serif" font-size="11.00" fill="#000000"> &#160;</text>
<polygon fill="#ffffff" stroke="transparent" points="71.5,-412.2 71.5,-431.2 101.5,-431.2 101.5,-412.2 71.5,-412.2"/>
<polygon fill="none" stroke="#000000" points="71.5,-412.2 71.5,-431.2 101.5,-431.2 101.5,-412.2 71.5,-412.2"/>
<text text-anchor="start" x="82.9053" y="-418.3" font-family="Helvetica,sans-Serif" font-size="11.00" fill="#000000">1 &gt;</text>
</a>
</g>
</g>
<!-- object&#45;&gt;roi.fase -->
<g id="edge4" class="edge">
<title>object:w&#45;&gt;roi.fase:e</title>
<path fill="none" stroke="#000000" d="M148.2406,-412.9686C131.03,-420.3953 126.0476,-440.2 101.5,-440.2"/>
<polygon fill="#000000" stroke="#000000" points="154.6467,-411.7248 163.1862,-413.734 158.5733,-410.9624 162.5,-410.2 162.5,-410.2 162.5,-410.2 158.5733,-410.9624 161.8138,-406.666 154.6467,-411.7248 154.6467,-411.7248"/>
<ellipse fill="none" stroke="#000000" cx="151.5053" cy="-412.3348" rx="3.2" ry="3.2"/>
</g>
<!-- object_type -->
<g id="node6" class="node">
<title>object_type</title>
<g id="a_node6"><a xlink:href="../../tables/object_type.html" xlink:title="object_type" target="_top">
<polygon fill="#ffffff" stroke="transparent" points="8,-330.7 8,-391.7 113,-391.7 113,-330.7 8,-330.7"/>
<polygon fill="#f5f5f5" stroke="transparent" points="8.5,-368.2 8.5,-391.2 113.5,-391.2 113.5,-368.2 8.5,-368.2"/>
<polygon fill="none" stroke="#000000" points="8.5,-368.2 8.5,-391.2 113.5,-391.2 113.5,-368.2 8.5,-368.2"/>
<text text-anchor="start" x="13.5" y="-376.8" font-family="Helvetica,sans-Serif" font-weight="bold" font-size="11.00" fill="#000000">object_type</text>
<text text-anchor="start" x="79.0219" y="-376.3" font-family="Helvetica,sans-Serif" font-size="11.00" fill="#000000">[table]</text>
<polygon fill="none" stroke="#000000" points="8.5,-349.2 8.5,-368.2 113.5,-368.2 113.5,-349.2 8.5,-349.2"/>
<text text-anchor="start" x="11.5" y="-355.3" font-family="Helvetica,sans-Serif" font-size="11.00" fill="#000000">...</text>
<polygon fill="#ffffff" stroke="transparent" points="8.5,-330.2 8.5,-349.2 50.5,-349.2 50.5,-330.2 8.5,-330.2"/>
<polygon fill="none" stroke="#000000" points="8.5,-330.2 8.5,-349.2 50.5,-349.2 50.5,-330.2 8.5,-330.2"/>
<text text-anchor="start" x="11.5" y="-336.3" font-family="Helvetica,sans-Serif" font-size="11.00" fill="#000000"> &#160;</text>
<polygon fill="#ffffff" stroke="transparent" points="50.5,-330.2 50.5,-349.2 77.5,-349.2 77.5,-330.2 50.5,-330.2"/>
<polygon fill="none" stroke="#000000" points="50.5,-330.2 50.5,-349.2 77.5,-349.2 77.5,-330.2 50.5,-330.2"/>
<text text-anchor="start" x="68.3862" y="-336.3" font-family="Helvetica,sans-Serif" font-size="11.00" fill="#000000"> &#160;</text>
<polygon fill="#ffffff" stroke="transparent" points="77.5,-330.2 77.5,-349.2 113.5,-349.2 113.5,-330.2 77.5,-330.2"/>
<polygon fill="none" stroke="#000000" points="77.5,-330.2 77.5,-349.2 113.5,-349.2 113.5,-330.2 77.5,-330.2"/>
<text text-anchor="start" x="94.9053" y="-336.3" font-family="Helvetica,sans-Serif" font-size="11.00" fill="#000000">1 &gt;</text>
</a>
</g>
</g>
<!-- object&#45;&gt;object_type -->
<g id="edge5" class="edge">
<title>object:w&#45;&gt;object_type:e</title>
<path fill="none" stroke="#000000" d="M148.384,-384.0286C136.4189,-375.7854 133.0504,-358.2 113.5,-358.2"/>
<polygon fill="#000000" stroke="#000000" points="154.828,-385.9328 161.4798,-391.6524 158.664,-387.0664 162.5,-388.2 162.5,-388.2 162.5,-388.2 158.664,-387.0664 163.5202,-384.7476 154.828,-385.9328 154.828,-385.9328"/>
<ellipse fill="none" stroke="#000000" cx="151.7591" cy="-385.026" rx="3.2" ry="3.2"/>
</g>
<!-- label -->
<g id="node3" class="node">
<title>label</title>
<g id="a_node3"><a xlink:href="../../tables/label.html" xlink:title="label" target="_top">
<polygon fill="#ffffff" stroke="transparent" points="378,-38.2 378,-304.2 610,-304.2 610,-38.2 378,-38.2"/>
<polygon fill="#f5f5f5" stroke="transparent" points="380,-279.2 380,-302.2 608,-302.2 608,-279.2 380,-279.2"/>
<polygon fill="none" stroke="#000000" points="380,-279.2 380,-302.2 608,-302.2 608,-279.2 380,-279.2"/>
<text text-anchor="start" x="384.8868" y="-287.8" font-family="Helvetica,sans-Serif" font-weight="bold" font-size="11.00" fill="#000000">label</text>
<text text-anchor="start" x="573.0437" y="-287.3" font-family="Helvetica,sans-Serif" font-size="11.00" fill="#000000">[table]</text>
<polygon fill="none" stroke="#000000" points="380,-257.2 380,-279.2 489,-279.2 489,-257.2 380,-257.2"/>
<image xlink:href="../../images/primaryKeys.png" width="11px" height="12px" preserveAspectRatio="xMinYMin meet" x="385" y="-274.2"/>
<text text-anchor="start" x="400" y="-264.3" font-family="Helvetica,sans-Serif" font-size="11.00" fill="#000000">uuid</text>
<polygon fill="none" stroke="#000000" points="489,-257.2 489,-279.2 608,-279.2 608,-257.2 489,-257.2"/>
<text text-anchor="start" x="492" y="-264.9" font-family="Helvetica,sans-Serif" font-size="11.00" fill="#000000">uuid[2147483647]</text>
<polygon fill="#ffffff" stroke="transparent" points="380,-235.2 380,-257.2 489,-257.2 489,-235.2 380,-235.2"/>
<polygon fill="none" stroke="#000000" points="380,-235.2 380,-257.2 489,-257.2 489,-235.2 380,-235.2"/>
<text text-anchor="start" x="400" y="-242.3" font-family="Helvetica,sans-Serif" font-size="11.00" fill="#000000">geom</text>
<polygon fill="none" stroke="#000000" points="489,-235.2 489,-257.2 608,-257.2 608,-235.2 489,-235.2"/>
<text text-anchor="start" x="491.9485" y="-242.9" font-family="Helvetica,sans-Serif" font-size="11.00" fill="#000000">geometry[2147483647]</text>
<polygon fill="none" stroke="#000000" points="380,-213.2 380,-235.2 489,-235.2 489,-213.2 380,-213.2"/>
<text text-anchor="start" x="400" y="-220.3" font-family="Helvetica,sans-Serif" font-size="11.00" fill="#000000">datumtijd</text>
<polygon fill="none" stroke="#000000" points="489,-213.2 489,-235.2 608,-235.2 608,-213.2 489,-213.2"/>
<text text-anchor="start" x="492" y="-220.9" font-family="Helvetica,sans-Serif" font-size="11.00" fill="#000000">timestamptz[35,6]</text>
<polygon fill="none" stroke="#000000" points="380,-191.2 380,-213.2 489,-213.2 489,-191.2 380,-191.2"/>
<text text-anchor="start" x="400" y="-198.3" font-family="Helvetica,sans-Serif" font-size="11.00" fill="#000000">gebruiker</text>
<polygon fill="none" stroke="#000000" points="489,-191.2 489,-213.2 608,-213.2 608,-191.2 489,-191.2"/>
<text text-anchor="start" x="492" y="-198.9" font-family="Helvetica,sans-Serif" font-size="11.00" fill="#000000">varchar[255]</text>
<polygon fill="none" stroke="#000000" points="380,-169.2 380,-191.2 489,-191.2 489,-169.2 380,-169.2"/>
<text text-anchor="start" x="400" y="-176.3" font-family="Helvetica,sans-Serif" font-size="11.00" fill="#000000">label</text>
<polygon fill="none" stroke="#000000" points="489,-169.2 489,-191.2 608,-191.2 608,-169.2 489,-169.2"/>
<text text-anchor="start" x="492" y="-176.9" font-family="Helvetica,sans-Serif" font-size="11.00" fill="#000000">text[2147483647]</text>
<polygon fill="none" stroke="#000000" points="380,-147.2 380,-169.2 489,-169.2 489,-147.2 380,-147.2"/>
<text text-anchor="start" x="400" y="-154.3" font-family="Helvetica,sans-Serif" font-size="11.00" fill="#000000">rotatie</text>
<polygon fill="none" stroke="#000000" points="489,-147.2 489,-169.2 608,-169.2 608,-147.2 489,-147.2"/>
<text text-anchor="start" x="492" y="-154.9" font-family="Helvetica,sans-Serif" font-size="11.00" fill="#000000">int4[10]</text>
<polygon fill="none" stroke="#000000" points="380,-125.2 380,-147.2 489,-147.2 489,-125.2 380,-125.2"/>
<text text-anchor="start" x="400" y="-132.3" font-family="Helvetica,sans-Serif" font-size="11.00" fill="#000000">bijzonderheden</text>
<polygon fill="none" stroke="#000000" points="489,-125.2 489,-147.2 608,-147.2 608,-125.2 489,-125.2"/>
<text text-anchor="start" x="492" y="-132.9" font-family="Helvetica,sans-Serif" font-size="11.00" fill="#000000">text[2147483647]</text>
<polygon fill="none" stroke="#000000" points="380,-103.2 380,-125.2 489,-125.2 489,-103.2 380,-103.2"/>
<text text-anchor="start" x="400" y="-110.3" font-family="Helvetica,sans-Serif" font-size="11.00" fill="#000000">plusinfo</text>
<polygon fill="none" stroke="#000000" points="489,-103.2 489,-125.2 608,-125.2 608,-103.2 489,-103.2"/>
<text text-anchor="start" x="492" y="-110.9" font-family="Helvetica,sans-Serif" font-size="11.00" fill="#000000">jsonb[2147483647]</text>
<polygon fill="#ffffff" stroke="transparent" points="380,-81.2 380,-103.2 489,-103.2 489,-81.2 380,-81.2"/>
<polygon fill="none" stroke="#000000" points="380,-81.2 380,-103.2 489,-103.2 489,-81.2 380,-81.2"/>
<image xlink:href="../../images/foreignKeys.png" width="11px" height="12px" preserveAspectRatio="xMinYMin meet" x="385" y="-98.2"/>
<text text-anchor="start" x="400" y="-88.3" font-family="Helvetica,sans-Serif" font-size="11.00" fill="#000000">object_uuid</text>
<polygon fill="none" stroke="#000000" points="489,-81.2 489,-103.2 608,-103.2 608,-81.2 489,-81.2"/>
<text text-anchor="start" x="492" y="-88.9" font-family="Helvetica,sans-Serif" font-size="11.00" fill="#000000">uuid[2147483647]</text>
<polygon fill="none" stroke="#000000" points="380,-59.2 380,-81.2 489,-81.2 489,-59.2 380,-59.2"/>
<image xlink:href="../../images/foreignKeys.png" width="11px" height="12px" preserveAspectRatio="xMinYMin meet" x="385" y="-76.2"/>
<text text-anchor="start" x="400" y="-66.3" font-family="Helvetica,sans-Serif" font-size="11.00" fill="#000000">annotatie_id</text>
<polygon fill="none" stroke="#000000" points="489,-59.2 489,-81.2 608,-81.2 608,-59.2 489,-59.2"/>
<text text-anchor="start" x="492" y="-66.9" font-family="Helvetica,sans-Serif" font-size="11.00" fill="#000000">int2[5]</text>
<polygon fill="#ffffff" stroke="transparent" points="380,-40.2 380,-59.2 439,-59.2 439,-40.2 380,-40.2"/>
<polygon fill="none" stroke="#000000" points="380,-40.2 380,-59.2 439,-59.2 439,-40.2 380,-40.2"/>
<text text-anchor="start" x="383" y="-46.3" font-family="Helvetica,sans-Serif" font-size="11.00" fill="#000000">&lt; 2</text>
<polygon fill="#ffffff" stroke="transparent" points="439,-40.2 439,-59.2 489,-59.2 489,-40.2 439,-40.2"/>
<polygon fill="none" stroke="#000000" points="439,-40.2 439,-59.2 489,-59.2 489,-40.2 439,-40.2"/>
<text text-anchor="start" x="479.8862" y="-46.3" font-family="Helvetica,sans-Serif" font-size="11.00" fill="#000000"> &#160;</text>
<polygon fill="#ffffff" stroke="transparent" points="489,-40.2 489,-59.2 608,-59.2 608,-40.2 489,-40.2"/>
<polygon fill="none" stroke="#000000" points="489,-40.2 489,-59.2 608,-59.2 608,-40.2 489,-40.2"/>
<text text-anchor="start" x="589.4053" y="-46.3" font-family="Helvetica,sans-Serif" font-size="11.00" fill="#000000">0 &gt;</text>
<polygon fill="none" stroke="#000000" stroke-width="2" points="379,-39.2 379,-303.2 609,-303.2 609,-39.2 379,-39.2"/>
</a>
</g>
</g>
<!-- label&#45;&gt;object -->
<g id="edge3" class="edge">
<title>label:w&#45;&gt;object:e</title>
<path fill="none" stroke="#000000" d="M366.1948,-96.5125C308.3251,-138.7 410.1888,-476.2 329.5,-476.2"/>
<polygon fill="#000000" stroke="#000000" points="372.3639,-94.5854 381.0734,-95.6362 376.182,-93.3927 380,-92.2 380,-92.2 380,-92.2 376.182,-93.3927 378.9266,-88.7638 372.3639,-94.5854 372.3639,-94.5854"/>
<ellipse fill="none" stroke="#000000" cx="369.3095" cy="-95.5396" rx="3.2" ry="3.2"/>
</g>
<!-- roi.annotatie -->
<g id="node4" class="node">
<title>roi.annotatie</title>
<g id="a_node4"><a xlink:href="../../../roi/tables/annotatie.html" xlink:title="roi.annotatie" target="_top">
<polygon fill="#ffffff" stroke="transparent" points="190,-39.7 190,-100.7 301,-100.7 301,-39.7 190,-39.7"/>
<polygon fill="#f5f5f5" stroke="transparent" points="190.5,-77.2 190.5,-100.2 301.5,-100.2 301.5,-77.2 190.5,-77.2"/>
<polygon fill="none" stroke="#000000" points="190.5,-77.2 190.5,-100.2 301.5,-100.2 301.5,-77.2 190.5,-77.2"/>
<text text-anchor="start" x="195.5" y="-85.8" font-family="Helvetica,sans-Serif" font-weight="bold" font-size="11.00" fill="#000000">roi.annotatie</text>
<text text-anchor="start" x="267.0219" y="-85.3" font-family="Helvetica,sans-Serif" font-size="11.00" fill="#000000">[table]</text>
<polygon fill="none" stroke="#000000" points="190.5,-58.2 190.5,-77.2 301.5,-77.2 301.5,-58.2 190.5,-58.2"/>
<text text-anchor="start" x="193.5" y="-64.3" font-family="Helvetica,sans-Serif" font-size="11.00" fill="#000000">...</text>
<polygon fill="#ffffff" stroke="transparent" points="190.5,-39.2 190.5,-58.2 235.5,-58.2 235.5,-39.2 190.5,-39.2"/>
<polygon fill="none" stroke="#000000" points="190.5,-39.2 190.5,-58.2 235.5,-58.2 235.5,-39.2 190.5,-39.2"/>
<text text-anchor="start" x="193.5" y="-45.3" font-family="Helvetica,sans-Serif" font-size="11.00" fill="#000000"> &#160;</text>
<polygon fill="#ffffff" stroke="transparent" points="235.5,-39.2 235.5,-58.2 263.5,-58.2 263.5,-39.2 235.5,-39.2"/>
<polygon fill="none" stroke="#000000" points="235.5,-39.2 235.5,-58.2 263.5,-58.2 263.5,-39.2 235.5,-39.2"/>
<text text-anchor="start" x="254.3862" y="-45.3" font-family="Helvetica,sans-Serif" font-size="11.00" fill="#000000"> &#160;</text>
<polygon fill="#ffffff" stroke="transparent" points="263.5,-39.2 263.5,-58.2 301.5,-58.2 301.5,-39.2 263.5,-39.2"/>
<polygon fill="none" stroke="#000000" points="263.5,-39.2 263.5,-58.2 301.5,-58.2 301.5,-39.2 263.5,-39.2"/>
<text text-anchor="start" x="282.9053" y="-45.3" font-family="Helvetica,sans-Serif" font-size="11.00" fill="#000000">1 &gt;</text>
</a>
</g>
</g>
<!-- label&#45;&gt;roi.annotatie -->
<g id="edge2" class="edge">
<title>label:w&#45;&gt;roi.annotatie:e</title>
<path fill="none" stroke="#000000" d="M365.4007,-70.2C346.5119,-70.2 326.8929,-70.2 309.1294,-70.2"/>
<polygon fill="#000000" stroke="#000000" points="372,-70.2001 380,-73.8 376,-70.2 380,-70.2 380,-70.2 380,-70.2 376,-70.2 380,-66.6 372,-70.2001 372,-70.2001"/>
<ellipse fill="none" stroke="#000000" cx="368.8" cy="-70.2001" rx="3.2" ry="3.2"/>
</g>
<!-- opstelplaats -->
<g id="node7" class="node">
<title>opstelplaats</title>
<g id="a_node7"><a xlink:href="../../tables/opstelplaats.html" xlink:title="opstelplaats" target="_top">
<polygon fill="#ffffff" stroke="transparent" points="439.5,-571.7 439.5,-632.7 548.5,-632.7 548.5,-571.7 439.5,-571.7"/>
<polygon fill="#f5f5f5" stroke="transparent" points="440,-609.2 440,-632.2 549,-632.2 549,-609.2 440,-609.2"/>
<polygon fill="none" stroke="#000000" points="440,-609.2 440,-632.2 549,-632.2 549,-609.2 440,-609.2"/>
<text text-anchor="start" x="445" y="-617.8" font-family="Helvetica,sans-Serif" font-weight="bold" font-size="11.00" fill="#000000">opstelplaats</text>
<text text-anchor="start" x="514.5219" y="-617.3" font-family="Helvetica,sans-Serif" font-size="11.00" fill="#000000">[table]</text>
<polygon fill="none" stroke="#000000" points="440,-590.2 440,-609.2 549,-609.2 549,-590.2 440,-590.2"/>
<text text-anchor="start" x="443" y="-596.3" font-family="Helvetica,sans-Serif" font-size="11.00" fill="#000000">...</text>
<polygon fill="#ffffff" stroke="transparent" points="440,-571.2 440,-590.2 493,-590.2 493,-571.2 440,-571.2"/>
<polygon fill="none" stroke="#000000" points="440,-571.2 440,-590.2 493,-590.2 493,-571.2 440,-571.2"/>
<text text-anchor="start" x="443" y="-577.3" font-family="Helvetica,sans-Serif" font-size="11.00" fill="#000000">&lt; 2</text>
<polygon fill="#ffffff" stroke="transparent" points="493,-571.2 493,-590.2 521,-590.2 521,-571.2 493,-571.2"/>
<polygon fill="none" stroke="#000000" points="493,-571.2 493,-590.2 521,-590.2 521,-571.2 493,-571.2"/>
<text text-anchor="start" x="511.8862" y="-577.3" font-family="Helvetica,sans-Serif" font-size="11.00" fill="#000000"> &#160;</text>
<polygon fill="#ffffff" stroke="transparent" points="521,-571.2 521,-590.2 549,-590.2 549,-571.2 521,-571.2"/>
<polygon fill="none" stroke="#000000" points="521,-571.2 521,-590.2 549,-590.2 549,-571.2 521,-571.2"/>
<text text-anchor="start" x="539.8862" y="-577.3" font-family="Helvetica,sans-Serif" font-size="11.00" fill="#000000"> &#160;</text>
</a>
</g>
</g>
<!-- opstelplaats&#45;&gt;object -->
<g id="edge6" class="edge">
<title>opstelplaats:w&#45;&gt;object:e</title>
<path fill="none" stroke="#000000" d="M425.4343,-598.3387C401.1534,-595.1367 390.6516,-582.9696 370,-561.2 341.1996,-530.8405 371.3469,-476.2 329.5,-476.2"/>
<polygon fill="#000000" stroke="#000000" points="432.014,-598.7277 439.7875,-602.7937 436.007,-598.9638 440,-599.2 440,-599.2 440,-599.2 436.007,-598.9638 440.2125,-595.6063 432.014,-598.7277 432.014,-598.7277"/>
<ellipse fill="none" stroke="#000000" cx="428.8195" cy="-598.5388" rx="3.2" ry="3.2"/>
</g>
<!-- risico -->
<g id="node8" class="node">
<title>risico</title>
<g id="a_node8"><a xlink:href="../../tables/risico.html" xlink:title="risico" target="_top">
<polygon fill="#ffffff" stroke="transparent" points="458.5,-489.7 458.5,-550.7 529.5,-550.7 529.5,-489.7 458.5,-489.7"/>
<polygon fill="#f5f5f5" stroke="transparent" points="459,-527.2 459,-550.2 530,-550.2 530,-527.2 459,-527.2"/>
<polygon fill="none" stroke="#000000" points="459,-527.2 459,-550.2 530,-550.2 530,-527.2 459,-527.2"/>
<text text-anchor="start" x="464" y="-535.8" font-family="Helvetica,sans-Serif" font-weight="bold" font-size="11.00" fill="#000000">risico</text>
<text text-anchor="start" x="495.5219" y="-535.3" font-family="Helvetica,sans-Serif" font-size="11.00" fill="#000000">[table]</text>
<polygon fill="none" stroke="#000000" points="459,-508.2 459,-527.2 530,-527.2 530,-508.2 459,-508.2"/>
<text text-anchor="start" x="462" y="-514.3" font-family="Helvetica,sans-Serif" font-size="11.00" fill="#000000">...</text>
<polygon fill="#ffffff" stroke="transparent" points="459,-489.2 459,-508.2 493,-508.2 493,-489.2 459,-489.2"/>
<polygon fill="none" stroke="#000000" points="459,-489.2 459,-508.2 493,-508.2 493,-489.2 459,-489.2"/>
<text text-anchor="start" x="462" y="-495.3" font-family="Helvetica,sans-Serif" font-size="11.00" fill="#000000">&lt; 2</text>
<polygon fill="#ffffff" stroke="transparent" points="493,-489.2 493,-508.2 511,-508.2 511,-489.2 493,-489.2"/>
<polygon fill="none" stroke="#000000" points="493,-489.2 493,-508.2 511,-508.2 511,-489.2 493,-489.2"/>
<text text-anchor="start" x="501.8862" y="-495.3" font-family="Helvetica,sans-Serif" font-size="11.00" fill="#000000"> &#160;</text>
<polygon fill="#ffffff" stroke="transparent" points="511,-489.2 511,-508.2 530,-508.2 530,-489.2 511,-489.2"/>
<polygon fill="none" stroke="#000000" points="511,-489.2 511,-508.2 530,-508.2 530,-489.2 511,-489.2"/>
<text text-anchor="start" x="520.8862" y="-495.3" font-family="Helvetica,sans-Serif" font-size="11.00" fill="#000000"> &#160;</text>
</a>
</g>
</g>
<!-- risico&#45;&gt;object -->
<g id="edge7" class="edge">
<title>risico:w&#45;&gt;object:e</title>
<path fill="none" stroke="#000000" d="M444.5136,-516.3437C396.7424,-510.4559 384.6831,-476.2 329.5,-476.2"/>
<polygon fill="#000000" stroke="#000000" points="451.0139,-516.7279 458.7875,-520.7937 455.007,-516.9639 459,-517.2 459,-517.2 459,-517.2 455.007,-516.9639 459.2125,-513.6063 451.0139,-516.7279 451.0139,-516.7279"/>
<ellipse fill="none" stroke="#000000" cx="447.8195" cy="-516.539" rx="3.2" ry="3.2"/>
</g>
<!-- sector -->
<g id="node9" class="node">
<title>sector</title>
<g id="a_node9"><a xlink:href="../../tables/sector.html" xlink:title="sector" target="_top">
<polygon fill="#ffffff" stroke="transparent" points="456.5,-407.7 456.5,-468.7 531.5,-468.7 531.5,-407.7 456.5,-407.7"/>
<polygon fill="#f5f5f5" stroke="transparent" points="457,-445.2 457,-468.2 532,-468.2 532,-445.2 457,-445.2"/>
<polygon fill="none" stroke="#000000" points="457,-445.2 457,-468.2 532,-468.2 532,-445.2 457,-445.2"/>
<text text-anchor="start" x="462" y="-453.8" font-family="Helvetica,sans-Serif" font-weight="bold" font-size="11.00" fill="#000000">sector</text>
<text text-anchor="start" x="497.5219" y="-453.3" font-family="Helvetica,sans-Serif" font-size="11.00" fill="#000000">[table]</text>
<polygon fill="none" stroke="#000000" points="457,-426.2 457,-445.2 532,-445.2 532,-426.2 457,-426.2"/>
<text text-anchor="start" x="460" y="-432.3" font-family="Helvetica,sans-Serif" font-size="11.00" fill="#000000">...</text>
<polygon fill="#ffffff" stroke="transparent" points="457,-407.2 457,-426.2 493,-426.2 493,-407.2 457,-407.2"/>
<polygon fill="none" stroke="#000000" points="457,-407.2 457,-426.2 493,-426.2 493,-407.2 457,-407.2"/>
<text text-anchor="start" x="460" y="-413.3" font-family="Helvetica,sans-Serif" font-size="11.00" fill="#000000">&lt; 2</text>
<polygon fill="#ffffff" stroke="transparent" points="493,-407.2 493,-426.2 512,-426.2 512,-407.2 493,-407.2"/>
<polygon fill="none" stroke="#000000" points="493,-407.2 493,-426.2 512,-426.2 512,-407.2 493,-407.2"/>
<text text-anchor="start" x="502.8862" y="-413.3" font-family="Helvetica,sans-Serif" font-size="11.00" fill="#000000"> &#160;</text>
<polygon fill="#ffffff" stroke="transparent" points="512,-407.2 512,-426.2 532,-426.2 532,-407.2 512,-407.2"/>
<polygon fill="none" stroke="#000000" points="512,-407.2 512,-426.2 532,-426.2 532,-407.2 512,-407.2"/>
<text text-anchor="start" x="522.8862" y="-413.3" font-family="Helvetica,sans-Serif" font-size="11.00" fill="#000000"> &#160;</text>
</a>
</g>
</g>
<!-- sector&#45;&gt;object -->
<g id="edge8" class="edge">
<title>sector:w&#45;&gt;object:e</title>
<path fill="none" stroke="#000000" d="M442.4193,-436.0945C395.5955,-442.0903 383.7928,-476.2 329.5,-476.2"/>
<polygon fill="#000000" stroke="#000000" points="449.015,-435.6899 457.2205,-438.7932 453.0075,-435.445 457,-435.2 457,-435.2 457,-435.2 453.0075,-435.445 456.7795,-431.6068 449.015,-435.6899 449.015,-435.6899"/>
<ellipse fill="none" stroke="#000000" cx="445.821" cy="-435.8859" rx="3.2" ry="3.2"/>
</g>
<!-- voorziening -->
<g id="node10" class="node">
<title>voorziening</title>
<g id="a_node10"><a xlink:href="../../tables/voorziening.html" xlink:title="voorziening" target="_top">
<polygon fill="#ffffff" stroke="transparent" points="441,-325.7 441,-386.7 547,-386.7 547,-325.7 441,-325.7"/>
<polygon fill="#f5f5f5" stroke="transparent" points="441,-363.2 441,-386.2 547,-386.2 547,-363.2 441,-363.2"/>
<polygon fill="none" stroke="#000000" points="441,-363.2 441,-386.2 547,-386.2 547,-363.2 441,-363.2"/>
<text text-anchor="start" x="446" y="-371.8" font-family="Helvetica,sans-Serif" font-weight="bold" font-size="11.00" fill="#000000">voorziening</text>
<text text-anchor="start" x="512.5219" y="-371.3" font-family="Helvetica,sans-Serif" font-size="11.00" fill="#000000">[table]</text>
<polygon fill="none" stroke="#000000" points="441,-344.2 441,-363.2 547,-363.2 547,-344.2 441,-344.2"/>
<text text-anchor="start" x="444" y="-350.3" font-family="Helvetica,sans-Serif" font-size="11.00" fill="#000000">...</text>
<polygon fill="#ffffff" stroke="transparent" points="441,-325.2 441,-344.2 492,-344.2 492,-325.2 441,-325.2"/>
<polygon fill="none" stroke="#000000" points="441,-325.2 441,-344.2 492,-344.2 492,-325.2 441,-325.2"/>
<text text-anchor="start" x="444" y="-331.3" font-family="Helvetica,sans-Serif" font-size="11.00" fill="#000000">&lt; 2</text>
<polygon fill="#ffffff" stroke="transparent" points="492,-325.2 492,-344.2 519,-344.2 519,-325.2 492,-325.2"/>
<polygon fill="none" stroke="#000000" points="492,-325.2 492,-344.2 519,-344.2 519,-325.2 492,-325.2"/>
<text text-anchor="start" x="509.8862" y="-331.3" font-family="Helvetica,sans-Serif" font-size="11.00" fill="#000000"> &#160;</text>
<polygon fill="#ffffff" stroke="transparent" points="519,-325.2 519,-344.2 547,-344.2 547,-325.2 519,-325.2"/>
<polygon fill="none" stroke="#000000" points="519,-325.2 519,-344.2 547,-344.2 547,-325.2 519,-325.2"/>
<text text-anchor="start" x="537.8862" y="-331.3" font-family="Helvetica,sans-Serif" font-size="11.00" fill="#000000"> &#160;</text>
</a>
</g>
</g>
<!-- voorziening&#45;&gt;object -->
<g id="edge9" class="edge">
<title>voorziening:w&#45;&gt;object:e</title>
<path fill="none" stroke="#000000" d="M426.5485,-354.2285C401.0145,-358.2506 391.528,-373.852 370,-397.2 343.2538,-426.2074 368.9562,-476.2 329.5,-476.2"/>
<polygon fill="#000000" stroke="#000000" points="433.0202,-353.768 441.2556,-356.7909 437.0101,-353.484 441,-353.2 441,-353.2 441,-353.2 437.0101,-353.484 440.7444,-349.6091 433.0202,-353.768 433.0202,-353.768"/>
<ellipse fill="none" stroke="#000000" cx="429.8283" cy="-353.9952" rx="3.2" ry="3.2"/>
</g>
</g>
</svg>
