<?xml version="1.0" encoding="UTF-8" standalone="no"?>
<!DOCTYPE svg PUBLIC "-//W3C//DTD SVG 1.1//EN"
 "http://www.w3.org/Graphics/SVG/1.1/DTD/svg11.dtd">
<!-- Generated by graphviz version 2.40.1 (20161225.0304)
 -->
<!-- Title: oneDegreeRelationshipsDiagram Pages: 1 -->
<svg width="641pt" height="1224pt"
 viewBox="0.00 0.00 641.00 1223.70" xmlns="http://www.w3.org/2000/svg" xmlns:xlink="http://www.w3.org/1999/xlink">
<g id="graph0" class="graph" transform="scale(1 1) rotate(0) translate(4 1219.7)">
<title>oneDegreeRelationshipsDiagram</title>
<polygon fill="#ffffff" stroke="transparent" points="-4,4 -4,-1219.7 637,-1219.7 637,4 -4,4"/>
<text text-anchor="middle" x="72.4936" y="-7.3" font-family="Helvetica,sans-Serif" font-size="11.00" fill="#000000">Generated by SchemaSpy</text>
<!-- bereikbaarheid -->
<g id="node1" class="node">
<title>bereikbaarheid</title>
<g id="a_node1"><a xlink:href="../../tables/bereikbaarheid.html" xlink:title="bereikbaarheid" target="_top">
<polygon fill="#ffffff" stroke="transparent" points="501,-1062.7 501,-1211.7 625,-1211.7 625,-1062.7 501,-1062.7"/>
<polygon fill="#f5f5f5" stroke="transparent" points="501,-1188.2 501,-1211.2 625,-1211.2 625,-1188.2 501,-1188.2"/>
<polygon fill="none" stroke="#000000" points="501,-1188.2 501,-1211.2 625,-1211.2 625,-1188.2 501,-1188.2"/>
<text text-anchor="start" x="506" y="-1196.8" font-family="Helvetica,sans-Serif" font-weight="bold" font-size="11.00" fill="#000000">bereikbaarheid</text>
<text text-anchor="start" x="590.5219" y="-1196.3" font-family="Helvetica,sans-Serif" font-size="11.00" fill="#000000">[table]</text>
<polygon fill="none" stroke="#000000" points="501,-1166.2 501,-1188.2 625,-1188.2 625,-1166.2 501,-1166.2"/>
<image xlink:href="../../images/primaryKeys.png" width="11px" height="12px" preserveAspectRatio="xMinYMin meet" x="506" y="-1183.2"/>
<text text-anchor="start" x="529" y="-1173.3" font-family="Helvetica,sans-Serif" font-size="11.00" fill="#000000">uuid</text>
<polygon fill="#ffffff" stroke="transparent" points="501,-1144.2 501,-1166.2 625,-1166.2 625,-1144.2 501,-1144.2"/>
<polygon fill="none" stroke="#000000" points="501,-1144.2 501,-1166.2 625,-1166.2 625,-1144.2 501,-1144.2"/>
<text text-anchor="start" x="529" y="-1151.3" font-family="Helvetica,sans-Serif" font-size="11.00" fill="#000000">geom</text>
<polygon fill="#ffffff" stroke="transparent" points="501,-1122.2 501,-1144.2 625,-1144.2 625,-1122.2 501,-1122.2"/>
<polygon fill="none" stroke="#000000" points="501,-1122.2 501,-1144.2 625,-1144.2 625,-1122.2 501,-1122.2"/>
<image xlink:href="../../images/foreignKeys.png" width="11px" height="12px" preserveAspectRatio="xMinYMin meet" x="506" y="-1139.2"/>
<text text-anchor="start" x="529" y="-1129.3" font-family="Helvetica,sans-Serif" font-size="11.00" fill="#000000">object_uuid</text>
<polygon fill="none" stroke="#000000" points="501,-1100.2 501,-1122.2 625,-1122.2 625,-1100.2 501,-1100.2"/>
<image xlink:href="../../images/foreignKeys.png" width="11px" height="12px" preserveAspectRatio="xMinYMin meet" x="506" y="-1117.2"/>
<text text-anchor="start" x="529" y="-1107.3" font-family="Helvetica,sans-Serif" font-size="11.00" fill="#000000">verbinding_id</text>
<polygon fill="none" stroke="#000000" points="501,-1081.2 501,-1100.2 625,-1100.2 625,-1081.2 501,-1081.2"/>
<text text-anchor="start" x="504" y="-1087.3" font-family="Helvetica,sans-Serif" font-size="11.00" fill="#000000">...</text>
<polygon fill="#ffffff" stroke="transparent" points="501,-1062.2 501,-1081.2 561,-1081.2 561,-1062.2 501,-1062.2"/>
<polygon fill="none" stroke="#000000" points="501,-1062.2 501,-1081.2 561,-1081.2 561,-1062.2 501,-1062.2"/>
<text text-anchor="start" x="504" y="-1068.3" font-family="Helvetica,sans-Serif" font-size="11.00" fill="#000000">&lt; 2</text>
<polygon fill="#ffffff" stroke="transparent" points="561,-1062.2 561,-1081.2 593,-1081.2 593,-1062.2 561,-1062.2"/>
<polygon fill="none" stroke="#000000" points="561,-1062.2 561,-1081.2 593,-1081.2 593,-1062.2 561,-1062.2"/>
<text text-anchor="start" x="583.8862" y="-1068.3" font-family="Helvetica,sans-Serif" font-size="11.00" fill="#000000"> &#160;</text>
<polygon fill="#ffffff" stroke="transparent" points="593,-1062.2 593,-1081.2 625,-1081.2 625,-1062.2 593,-1062.2"/>
<polygon fill="none" stroke="#000000" points="593,-1062.2 593,-1081.2 625,-1081.2 625,-1062.2 593,-1062.2"/>
<text text-anchor="start" x="615.8862" y="-1068.3" font-family="Helvetica,sans-Serif" font-size="11.00" fill="#000000"> &#160;</text>
</a>
</g>
</g>
<!-- object -->
<g id="node2" class="node">
<title>object</title>
<g id="a_node2"><a xlink:href="../../tables/object.html" xlink:title="object" target="_top">
<polygon fill="#ffffff" stroke="transparent" points="162,-38.2 162,-744.2 452,-744.2 452,-38.2 162,-38.2"/>
<polygon fill="#f5f5f5" stroke="transparent" points="164,-719.2 164,-742.2 450,-742.2 450,-719.2 164,-719.2"/>
<polygon fill="none" stroke="#000000" points="164,-719.2 164,-742.2 450,-742.2 450,-719.2 164,-719.2"/>
<text text-anchor="start" x="169" y="-727.8" font-family="Helvetica,sans-Serif" font-weight="bold" font-size="11.00" fill="#000000">object</text>
<text text-anchor="start" x="415.0437" y="-727.3" font-family="Helvetica,sans-Serif" font-size="11.00" fill="#000000">[table]</text>
<polygon fill="none" stroke="#000000" points="164,-697.2 164,-719.2 331,-719.2 331,-697.2 164,-697.2"/>
<image xlink:href="../../images/primaryKeys.png" width="11px" height="12px" preserveAspectRatio="xMinYMin meet" x="169" y="-714.2"/>
<text text-anchor="start" x="184" y="-704.3" font-family="Helvetica,sans-Serif" font-size="11.00" fill="#000000">uuid</text>
<polygon fill="none" stroke="#000000" points="331,-697.2 331,-719.2 450,-719.2 450,-697.2 331,-697.2"/>
<text text-anchor="start" x="334" y="-704.9" font-family="Helvetica,sans-Serif" font-size="11.00" fill="#000000">uuid[2147483647]</text>
<polygon fill="#ffffff" stroke="transparent" points="164,-675.2 164,-697.2 331,-697.2 331,-675.2 164,-675.2"/>
<polygon fill="none" stroke="#000000" points="164,-675.2 164,-697.2 331,-697.2 331,-675.2 164,-675.2"/>
<text text-anchor="start" x="184" y="-682.3" font-family="Helvetica,sans-Serif" font-size="11.00" fill="#000000">geom</text>
<polygon fill="none" stroke="#000000" points="331,-675.2 331,-697.2 450,-697.2 450,-675.2 331,-675.2"/>
<text text-anchor="start" x="333.9485" y="-682.9" font-family="Helvetica,sans-Serif" font-size="11.00" fill="#000000">geometry[2147483647]</text>
<polygon fill="none" stroke="#000000" points="164,-653.2 164,-675.2 331,-675.2 331,-653.2 164,-653.2"/>
<text text-anchor="start" x="184" y="-660.3" font-family="Helvetica,sans-Serif" font-size="11.00" fill="#000000">datumtijd</text>
<polygon fill="none" stroke="#000000" points="331,-653.2 331,-675.2 450,-675.2 450,-653.2 331,-653.2"/>
<text text-anchor="start" x="334" y="-660.9" font-family="Helvetica,sans-Serif" font-size="11.00" fill="#000000">timestamptz[35,6]</text>
<polygon fill="none" stroke="#000000" points="164,-631.2 164,-653.2 331,-653.2 331,-631.2 164,-631.2"/>
<text text-anchor="start" x="184" y="-638.3" font-family="Helvetica,sans-Serif" font-size="11.00" fill="#000000">gebruiker</text>
<polygon fill="none" stroke="#000000" points="331,-631.2 331,-653.2 450,-653.2 450,-631.2 331,-631.2"/>
<text text-anchor="start" x="334" y="-638.9" font-family="Helvetica,sans-Serif" font-size="11.00" fill="#000000">varchar[255]</text>
<polygon fill="#ffffff" stroke="transparent" points="164,-609.2 164,-631.2 331,-631.2 331,-609.2 164,-609.2"/>
<polygon fill="none" stroke="#000000" points="164,-609.2 164,-631.2 331,-631.2 331,-609.2 164,-609.2"/>
<text text-anchor="start" x="184" y="-616.3" font-family="Helvetica,sans-Serif" font-size="11.00" fill="#000000">revisie_frequentie</text>
<polygon fill="none" stroke="#000000" points="331,-609.2 331,-631.2 450,-631.2 450,-609.2 331,-609.2"/>
<text text-anchor="start" x="334" y="-616.9" font-family="Helvetica,sans-Serif" font-size="11.00" fill="#000000">int2[5]</text>
<polygon fill="none" stroke="#000000" points="164,-587.2 164,-609.2 331,-609.2 331,-587.2 164,-587.2"/>
<text text-anchor="start" x="184" y="-594.3" font-family="Helvetica,sans-Serif" font-size="11.00" fill="#000000">formelenaam</text>
<polygon fill="none" stroke="#000000" points="331,-587.2 331,-609.2 450,-609.2 450,-587.2 331,-587.2"/>
<text text-anchor="start" x="334" y="-594.9" font-family="Helvetica,sans-Serif" font-size="11.00" fill="#000000">text[2147483647]</text>
<polygon fill="none" stroke="#000000" points="164,-565.2 164,-587.2 331,-587.2 331,-565.2 164,-565.2"/>
<text text-anchor="start" x="184" y="-572.3" font-family="Helvetica,sans-Serif" font-size="11.00" fill="#000000">code</text>
<polygon fill="none" stroke="#000000" points="331,-565.2 331,-587.2 450,-587.2 450,-565.2 331,-565.2"/>
<text text-anchor="start" x="334" y="-572.9" font-family="Helvetica,sans-Serif" font-size="11.00" fill="#000000">text[2147483647]</text>
<polygon fill="none" stroke="#000000" points="164,-543.2 164,-565.2 331,-565.2 331,-543.2 164,-543.2"/>
<text text-anchor="start" x="184" y="-550.3" font-family="Helvetica,sans-Serif" font-size="11.00" fill="#000000">adres</text>
<polygon fill="none" stroke="#000000" points="331,-543.2 331,-565.2 450,-565.2 450,-543.2 331,-543.2"/>
<text text-anchor="start" x="334" y="-550.9" font-family="Helvetica,sans-Serif" font-size="11.00" fill="#000000">text[2147483647]</text>
<polygon fill="none" stroke="#000000" points="164,-521.2 164,-543.2 331,-543.2 331,-521.2 164,-521.2"/>
<text text-anchor="start" x="184" y="-528.3" font-family="Helvetica,sans-Serif" font-size="11.00" fill="#000000">bijzonderheden</text>
<polygon fill="none" stroke="#000000" points="331,-521.2 331,-543.2 450,-543.2 450,-521.2 331,-521.2"/>
<text text-anchor="start" x="334" y="-528.9" font-family="Helvetica,sans-Serif" font-size="11.00" fill="#000000">text[2147483647]</text>
<polygon fill="none" stroke="#000000" points="164,-499.2 164,-521.2 331,-521.2 331,-499.2 164,-499.2"/>
<text text-anchor="start" x="184" y="-506.3" font-family="Helvetica,sans-Serif" font-size="11.00" fill="#000000">plusinfo</text>
<polygon fill="none" stroke="#000000" points="331,-499.2 331,-521.2 450,-521.2 450,-499.2 331,-499.2"/>
<text text-anchor="start" x="334" y="-506.9" font-family="Helvetica,sans-Serif" font-size="11.00" fill="#000000">jsonb[2147483647]</text>
<polygon fill="#ffffff" stroke="transparent" points="164,-477.2 164,-499.2 331,-499.2 331,-477.2 164,-477.2"/>
<polygon fill="none" stroke="#000000" points="164,-477.2 164,-499.2 331,-499.2 331,-477.2 164,-477.2"/>
<image xlink:href="../../images/foreignKeys.png" width="11px" height="12px" preserveAspectRatio="xMinYMin meet" x="169" y="-494.2"/>
<text text-anchor="start" x="184" y="-484.3" font-family="Helvetica,sans-Serif" font-size="11.00" fill="#000000">fase_id</text>
<polygon fill="none" stroke="#000000" points="331,-477.2 331,-499.2 450,-499.2 450,-477.2 331,-477.2"/>
<text text-anchor="start" x="334" y="-484.9" font-family="Helvetica,sans-Serif" font-size="11.00" fill="#000000">int2[5]</text>
<polygon fill="#ffffff" stroke="transparent" points="164,-455.2 164,-477.2 331,-477.2 331,-455.2 164,-455.2"/>
<polygon fill="none" stroke="#000000" points="164,-455.2 164,-477.2 331,-477.2 331,-455.2 164,-455.2"/>
<image xlink:href="../../images/foreignKeys.png" width="11px" height="12px" preserveAspectRatio="xMinYMin meet" x="169" y="-472.2"/>
<text text-anchor="start" x="184" y="-462.3" font-family="Helvetica,sans-Serif" font-size="11.00" fill="#000000">object_type_id</text>
<polygon fill="none" stroke="#000000" points="331,-455.2 331,-477.2 450,-477.2 450,-455.2 331,-455.2"/>
<text text-anchor="start" x="334" y="-462.9" font-family="Helvetica,sans-Serif" font-size="11.00" fill="#000000">int2[5]</text>
<polygon fill="none" stroke="#000000" points="164,-433.2 164,-455.2 331,-455.2 331,-433.2 164,-433.2"/>
<text text-anchor="start" x="184" y="-440.3" font-family="Helvetica,sans-Serif" font-size="11.00" fill="#000000">bodemgesteldheid</text>
<polygon fill="none" stroke="#000000" points="331,-433.2 331,-455.2 450,-455.2 450,-433.2 331,-433.2"/>
<text text-anchor="start" x="334" y="-440.9" font-family="Helvetica,sans-Serif" font-size="11.00" fill="#000000">text[2147483647]</text>
<polygon fill="none" stroke="#000000" points="164,-411.2 164,-433.2 331,-433.2 331,-411.2 164,-411.2"/>
<text text-anchor="start" x="184" y="-418.3" font-family="Helvetica,sans-Serif" font-size="11.00" fill="#000000">diepte</text>
<polygon fill="none" stroke="#000000" points="331,-411.2 331,-433.2 450,-433.2 450,-411.2 331,-411.2"/>
<text text-anchor="start" x="334" y="-418.9" font-family="Helvetica,sans-Serif" font-size="11.00" fill="#000000">numeric[0]</text>
<polygon fill="none" stroke="#000000" points="164,-389.2 164,-411.2 331,-411.2 331,-389.2 164,-389.2"/>
<text text-anchor="start" x="184" y="-396.3" font-family="Helvetica,sans-Serif" font-size="11.00" fill="#000000">oever_categorie</text>
<polygon fill="none" stroke="#000000" points="331,-389.2 331,-411.2 450,-411.2 450,-389.2 331,-389.2"/>
<text text-anchor="start" x="334" y="-396.9" font-family="Helvetica,sans-Serif" font-size="11.00" fill="#000000">text[2147483647]</text>
<polygon fill="none" stroke="#000000" points="164,-367.2 164,-389.2 331,-389.2 331,-367.2 164,-367.2"/>
<text text-anchor="start" x="184" y="-374.3" font-family="Helvetica,sans-Serif" font-size="11.00" fill="#000000">oever_samenstelling</text>
<polygon fill="none" stroke="#000000" points="331,-367.2 331,-389.2 450,-389.2 450,-367.2 331,-367.2"/>
<text text-anchor="start" x="334" y="-374.9" font-family="Helvetica,sans-Serif" font-size="11.00" fill="#000000">text[2147483647]</text>
<polygon fill="none" stroke="#000000" points="164,-345.2 164,-367.2 331,-367.2 331,-345.2 164,-345.2"/>
<text text-anchor="start" x="184" y="-352.3" font-family="Helvetica,sans-Serif" font-size="11.00" fill="#000000">onderstroming</text>
<polygon fill="none" stroke="#000000" points="331,-345.2 331,-367.2 450,-367.2 450,-345.2 331,-345.2"/>
<text text-anchor="start" x="334" y="-352.9" font-family="Helvetica,sans-Serif" font-size="11.00" fill="#000000">text[2147483647]</text>
<polygon fill="none" stroke="#000000" points="164,-323.2 164,-345.2 331,-345.2 331,-323.2 164,-323.2"/>
<text text-anchor="start" x="184" y="-330.3" font-family="Helvetica,sans-Serif" font-size="11.00" fill="#000000">scheepvaart</text>
<polygon fill="none" stroke="#000000" points="331,-323.2 331,-345.2 450,-345.2 450,-323.2 331,-323.2"/>
<text text-anchor="start" x="334" y="-330.9" font-family="Helvetica,sans-Serif" font-size="11.00" fill="#000000">text[2147483647]</text>
<polygon fill="none" stroke="#000000" points="164,-301.2 164,-323.2 331,-323.2 331,-301.2 164,-301.2"/>
<text text-anchor="start" x="184" y="-308.3" font-family="Helvetica,sans-Serif" font-size="11.00" fill="#000000">stroomsnelheid</text>
<polygon fill="none" stroke="#000000" points="331,-301.2 331,-323.2 450,-323.2 450,-301.2 331,-301.2"/>
<text text-anchor="start" x="334" y="-308.9" font-family="Helvetica,sans-Serif" font-size="11.00" fill="#000000">text[2147483647]</text>
<polygon fill="none" stroke="#000000" points="164,-279.2 164,-301.2 331,-301.2 331,-279.2 164,-279.2"/>
<text text-anchor="start" x="184" y="-286.3" font-family="Helvetica,sans-Serif" font-size="11.00" fill="#000000">talud</text>
<polygon fill="none" stroke="#000000" points="331,-279.2 331,-301.2 450,-301.2 450,-279.2 331,-279.2"/>
<text text-anchor="start" x="334" y="-286.9" font-family="Helvetica,sans-Serif" font-size="11.00" fill="#000000">varchar[50]</text>
<polygon fill="none" stroke="#000000" points="164,-257.2 164,-279.2 331,-279.2 331,-257.2 164,-257.2"/>
<text text-anchor="start" x="184" y="-264.3" font-family="Helvetica,sans-Serif" font-size="11.00" fill="#000000">walhoogte</text>
<polygon fill="none" stroke="#000000" points="331,-257.2 331,-279.2 450,-279.2 450,-257.2 331,-257.2"/>
<text text-anchor="start" x="334" y="-264.9" font-family="Helvetica,sans-Serif" font-size="11.00" fill="#000000">text[2147483647]</text>
<polygon fill="none" stroke="#000000" points="164,-235.2 164,-257.2 331,-257.2 331,-235.2 164,-235.2"/>
<text text-anchor="start" x="184" y="-242.3" font-family="Helvetica,sans-Serif" font-size="11.00" fill="#000000">waterkwaliteit</text>
<polygon fill="none" stroke="#000000" points="331,-235.2 331,-257.2 450,-257.2 450,-235.2 331,-235.2"/>
<text text-anchor="start" x="334" y="-242.9" font-family="Helvetica,sans-Serif" font-size="11.00" fill="#000000">text[2147483647]</text>
<polygon fill="none" stroke="#000000" points="164,-213.2 164,-235.2 331,-235.2 331,-213.2 164,-213.2"/>
<text text-anchor="start" x="184" y="-220.3" font-family="Helvetica,sans-Serif" font-size="11.00" fill="#000000">waterstand</text>
<polygon fill="none" stroke="#000000" points="331,-213.2 331,-235.2 450,-235.2 450,-213.2 331,-213.2"/>
<text text-anchor="start" x="334" y="-220.9" font-family="Helvetica,sans-Serif" font-size="11.00" fill="#000000">text[2147483647]</text>
<polygon fill="none" stroke="#000000" points="164,-191.2 164,-213.2 331,-213.2 331,-191.2 164,-191.2"/>
<text text-anchor="start" x="184" y="-198.3" font-family="Helvetica,sans-Serif" font-size="11.00" fill="#000000">zicht</text>
<polygon fill="none" stroke="#000000" points="331,-191.2 331,-213.2 450,-213.2 450,-191.2 331,-191.2"/>
<text text-anchor="start" x="334" y="-198.9" font-family="Helvetica,sans-Serif" font-size="11.00" fill="#000000">text[2147483647]</text>
<polygon fill="none" stroke="#000000" points="164,-169.2 164,-191.2 331,-191.2 331,-169.2 164,-169.2"/>
<text text-anchor="start" x="184" y="-176.3" font-family="Helvetica,sans-Serif" font-size="11.00" fill="#000000">zicht_op_diepte</text>
<polygon fill="none" stroke="#000000" points="331,-169.2 331,-191.2 450,-191.2 450,-169.2 331,-169.2"/>
<text text-anchor="start" x="334" y="-176.9" font-family="Helvetica,sans-Serif" font-size="11.00" fill="#000000">text[2147483647]</text>
<polygon fill="none" stroke="#000000" points="164,-147.2 164,-169.2 331,-169.2 331,-147.2 164,-147.2"/>
<text text-anchor="start" x="184" y="-154.3" font-family="Helvetica,sans-Serif" font-size="11.00" fill="#000000">beheerder</text>
<polygon fill="none" stroke="#000000" points="331,-147.2 331,-169.2 450,-169.2 450,-147.2 331,-147.2"/>
<text text-anchor="start" x="334" y="-154.9" font-family="Helvetica,sans-Serif" font-size="11.00" fill="#000000">text[2147483647]</text>
<polygon fill="none" stroke="#000000" points="164,-125.2 164,-147.2 331,-147.2 331,-125.2 164,-125.2"/>
<text text-anchor="start" x="184" y="-132.3" font-family="Helvetica,sans-Serif" font-size="11.00" fill="#000000">marifoon</text>
<polygon fill="none" stroke="#000000" points="331,-125.2 331,-147.2 450,-147.2 450,-125.2 331,-125.2"/>
<text text-anchor="start" x="334" y="-132.9" font-family="Helvetica,sans-Serif" font-size="11.00" fill="#000000">text[2147483647]</text>
<polygon fill="none" stroke="#000000" points="164,-103.2 164,-125.2 331,-125.2 331,-103.2 164,-103.2"/>
<text text-anchor="start" x="184" y="-110.3" font-family="Helvetica,sans-Serif" font-size="11.00" fill="#000000">risico</text>
<polygon fill="none" stroke="#000000" points="331,-103.2 331,-125.2 450,-125.2 450,-103.2 331,-103.2"/>
<text text-anchor="start" x="334" y="-110.9" font-family="Helvetica,sans-Serif" font-size="11.00" fill="#000000">text[2147483647]</text>
<polygon fill="none" stroke="#000000" points="164,-81.2 164,-103.2 331,-103.2 331,-81.2 164,-81.2"/>
<text text-anchor="start" x="184" y="-88.3" font-family="Helvetica,sans-Serif" font-size="11.00" fill="#000000">werkinstructie_procedure</text>
<polygon fill="none" stroke="#000000" points="331,-81.2 331,-103.2 450,-103.2 450,-81.2 331,-81.2"/>
<text text-anchor="start" x="334" y="-88.9" font-family="Helvetica,sans-Serif" font-size="11.00" fill="#000000">text[2147483647]</text>
<polygon fill="none" stroke="#000000" points="164,-59.2 164,-81.2 331,-81.2 331,-59.2 164,-59.2"/>
<text text-anchor="start" x="184" y="-66.3" font-family="Helvetica,sans-Serif" font-size="11.00" fill="#000000">werkinstructie_tabel</text>
<polygon fill="none" stroke="#000000" points="331,-59.2 331,-81.2 450,-81.2 450,-59.2 331,-59.2"/>
<text text-anchor="start" x="334" y="-66.9" font-family="Helvetica,sans-Serif" font-size="11.00" fill="#000000">text[2147483647]</text>
<polygon fill="#ffffff" stroke="transparent" points="164,-40.2 164,-59.2 252,-59.2 252,-40.2 164,-40.2"/>
<polygon fill="none" stroke="#000000" points="164,-40.2 164,-59.2 252,-59.2 252,-40.2 164,-40.2"/>
<text text-anchor="start" x="167" y="-46.3" font-family="Helvetica,sans-Serif" font-size="11.00" fill="#000000">&lt; 2</text>
<polygon fill="#ffffff" stroke="transparent" points="252,-40.2 252,-59.2 331,-59.2 331,-40.2 252,-40.2"/>
<polygon fill="none" stroke="#000000" points="252,-40.2 252,-59.2 331,-59.2 331,-40.2 252,-40.2"/>
<text text-anchor="start" x="321.8862" y="-46.3" font-family="Helvetica,sans-Serif" font-size="11.00" fill="#000000"> &#160;</text>
<polygon fill="#ffffff" stroke="transparent" points="331,-40.2 331,-59.2 450,-59.2 450,-40.2 331,-40.2"/>
<polygon fill="none" stroke="#000000" points="331,-40.2 331,-59.2 450,-59.2 450,-40.2 331,-40.2"/>
<text text-anchor="start" x="431.4053" y="-46.3" font-family="Helvetica,sans-Serif" font-size="11.00" fill="#000000">6 &gt;</text>
<polygon fill="none" stroke="#000000" stroke-width="2" points="163,-39.2 163,-743.2 451,-743.2 451,-39.2 163,-39.2"/>
</a>
</g>
</g>
<!-- bereikbaarheid&#45;&gt;object -->
<g id="edge1" class="edge">
<title>bereikbaarheid:w&#45;&gt;object:e</title>
<path fill="none" stroke="#000000" d="M487.0072,-1129.2641C420.8998,-1086.4189 539.7342,-708.2 450,-708.2"/>
<polygon fill="#000000" stroke="#000000" points="493.2989,-1131.0338 500.0252,-1136.6655 497.1494,-1132.1169 501,-1133.2 501,-1133.2 501,-1133.2 497.1494,-1132.1169 501.9748,-1129.7345 493.2989,-1131.0338 493.2989,-1131.0338"/>
<ellipse fill="none" stroke="#000000" cx="490.2184" cy="-1130.1673" rx="3.2" ry="3.2"/>
</g>
<!-- roi.fase -->
<g id="node4" class="node">
<title>roi.fase</title>
<g id="a_node4"><a xlink:href="../../../roi/tables/fase.html" xlink:title="roi.fase" target="_top">
<polygon fill="#ffffff" stroke="transparent" points="20,-489.7 20,-550.7 101,-550.7 101,-489.7 20,-489.7"/>
<polygon fill="#f5f5f5" stroke="transparent" points="20.5,-527.2 20.5,-550.2 101.5,-550.2 101.5,-527.2 20.5,-527.2"/>
<polygon fill="none" stroke="#000000" points="20.5,-527.2 20.5,-550.2 101.5,-550.2 101.5,-527.2 20.5,-527.2"/>
<text text-anchor="start" x="25.5" y="-535.8" font-family="Helvetica,sans-Serif" font-weight="bold" font-size="11.00" fill="#000000">roi.fase</text>
<text text-anchor="start" x="67.0219" y="-535.3" font-family="Helvetica,sans-Serif" font-size="11.00" fill="#000000">[table]</text>
<polygon fill="none" stroke="#000000" points="20.5,-508.2 20.5,-527.2 101.5,-527.2 101.5,-508.2 20.5,-508.2"/>
<text text-anchor="start" x="23.5" y="-514.3" font-family="Helvetica,sans-Serif" font-size="11.00" fill="#000000">...</text>
<polygon fill="#ffffff" stroke="transparent" points="20.5,-489.2 20.5,-508.2 50.5,-508.2 50.5,-489.2 20.5,-489.2"/>
<polygon fill="none" stroke="#000000" points="20.5,-489.2 20.5,-508.2 50.5,-508.2 50.5,-489.2 20.5,-489.2"/>
<text text-anchor="start" x="23.5" y="-495.3" font-family="Helvetica,sans-Serif" font-size="11.00" fill="#000000"> &#160;</text>
<polygon fill="#ffffff" stroke="transparent" points="50.5,-489.2 50.5,-508.2 71.5,-508.2 71.5,-489.2 50.5,-489.2"/>
<polygon fill="none" stroke="#000000" points="50.5,-489.2 50.5,-508.2 71.5,-508.2 71.5,-489.2 50.5,-489.2"/>
<text text-anchor="start" x="62.3862" y="-495.3" font-family="Helvetica,sans-Serif" font-size="11.00" fill="#000000"> &#160;</text>
<polygon fill="#ffffff" stroke="transparent" points="71.5,-489.2 71.5,-508.2 101.5,-508.2 101.5,-489.2 71.5,-489.2"/>
<polygon fill="none" stroke="#000000" points="71.5,-489.2 71.5,-508.2 101.5,-508.2 101.5,-489.2 71.5,-489.2"/>
<text text-anchor="start" x="82.9053" y="-495.3" font-family="Helvetica,sans-Serif" font-size="11.00" fill="#000000">1 &gt;</text>
</a>
</g>
</g>
<!-- object&#45;&gt;roi.fase -->
<g id="edge3" class="edge">
<title>object:w&#45;&gt;roi.fase:e</title>
<path fill="none" stroke="#000000" d="M149.5938,-489.0736C135.6831,-490.6911 121.6893,-494.3818 109.0471,-498.678"/>
<polygon fill="#000000" stroke="#000000" points="156.0147,-488.6843 164.2179,-491.7934 160.0073,-488.4421 164,-488.2 164,-488.2 164,-488.2 160.0073,-488.4421 163.7821,-484.6066 156.0147,-488.6843 156.0147,-488.6843"/>
<ellipse fill="none" stroke="#000000" cx="152.8205" cy="-488.878" rx="3.2" ry="3.2"/>
</g>
<!-- object_type -->
<g id="node5" class="node">
<title>object_type</title>
<g id="a_node5"><a xlink:href="../../tables/object_type.html" xlink:title="object_type" target="_top">
<polygon fill="#ffffff" stroke="transparent" points="8,-385.7 8,-468.7 113,-468.7 113,-385.7 8,-385.7"/>
<polygon fill="#f5f5f5" stroke="transparent" points="8.5,-445.2 8.5,-468.2 113.5,-468.2 113.5,-445.2 8.5,-445.2"/>
<polygon fill="none" stroke="#000000" points="8.5,-445.2 8.5,-468.2 113.5,-468.2 113.5,-445.2 8.5,-445.2"/>
<text text-anchor="start" x="13.5" y="-453.8" font-family="Helvetica,sans-Serif" font-weight="bold" font-size="11.00" fill="#000000">object_type</text>
<text text-anchor="start" x="79.0219" y="-453.3" font-family="Helvetica,sans-Serif" font-size="11.00" fill="#000000">[table]</text>
<polygon fill="none" stroke="#000000" points="8.5,-423.2 8.5,-445.2 113.5,-445.2 113.5,-423.2 8.5,-423.2"/>
<image xlink:href="../../images/primaryKeys.png" width="11px" height="12px" preserveAspectRatio="xMinYMin meet" x="13.5" y="-440.2"/>
<text text-anchor="start" x="33.5" y="-430.3" font-family="Helvetica,sans-Serif" font-size="11.00" fill="#000000">id</text>
<polygon fill="none" stroke="#000000" points="8.5,-404.2 8.5,-423.2 113.5,-423.2 113.5,-404.2 8.5,-404.2"/>
<text text-anchor="start" x="11.5" y="-410.3" font-family="Helvetica,sans-Serif" font-size="11.00" fill="#000000">...</text>
<polygon fill="#ffffff" stroke="transparent" points="8.5,-385.2 8.5,-404.2 50.5,-404.2 50.5,-385.2 8.5,-385.2"/>
<polygon fill="none" stroke="#000000" points="8.5,-385.2 8.5,-404.2 50.5,-404.2 50.5,-385.2 8.5,-385.2"/>
<text text-anchor="start" x="11.5" y="-391.3" font-family="Helvetica,sans-Serif" font-size="11.00" fill="#000000"> &#160;</text>
<polygon fill="#ffffff" stroke="transparent" points="50.5,-385.2 50.5,-404.2 77.5,-404.2 77.5,-385.2 50.5,-385.2"/>
<polygon fill="none" stroke="#000000" points="50.5,-385.2 50.5,-404.2 77.5,-404.2 77.5,-385.2 50.5,-385.2"/>
<text text-anchor="start" x="68.3862" y="-391.3" font-family="Helvetica,sans-Serif" font-size="11.00" fill="#000000"> &#160;</text>
<polygon fill="#ffffff" stroke="transparent" points="77.5,-385.2 77.5,-404.2 113.5,-404.2 113.5,-385.2 77.5,-385.2"/>
<polygon fill="none" stroke="#000000" points="77.5,-385.2 77.5,-404.2 113.5,-404.2 113.5,-385.2 77.5,-385.2"/>
<text text-anchor="start" x="94.9053" y="-391.3" font-family="Helvetica,sans-Serif" font-size="11.00" fill="#000000">1 &gt;</text>
</a>
</g>
</g>
<!-- object&#45;&gt;object_type -->
<g id="edge4" class="edge">
<title>object:w&#45;&gt;object_type:e</title>
<path fill="none" stroke="#000000" d="M150.1448,-462.2762C137.187,-453.7313 134.2587,-434.2 113.5,-434.2"/>
<polygon fill="#000000" stroke="#000000" points="156.3027,-464.0201 163.019,-469.6638 160.1514,-465.11 164,-466.2 164,-466.2 164,-466.2 160.1514,-465.11 164.981,-462.7362 156.3027,-464.0201 156.3027,-464.0201"/>
<ellipse fill="none" stroke="#000000" cx="153.2238" cy="-463.1481" rx="3.2" ry="3.2"/>
</g>
<!-- label -->
<g id="node3" class="node">
<title>label</title>
<g id="a_node3"><a xlink:href="../../tables/label.html" xlink:title="label" target="_top">
<polygon fill="#ffffff" stroke="transparent" points="508.5,-892.7 508.5,-1041.7 617.5,-1041.7 617.5,-892.7 508.5,-892.7"/>
<polygon fill="#f5f5f5" stroke="transparent" points="509,-1018.2 509,-1041.2 618,-1041.2 618,-1018.2 509,-1018.2"/>
<polygon fill="none" stroke="#000000" points="509,-1018.2 509,-1041.2 618,-1041.2 618,-1018.2 509,-1018.2"/>
<text text-anchor="start" x="513.8868" y="-1026.8" font-family="Helvetica,sans-Serif" font-weight="bold" font-size="11.00" fill="#000000">label</text>
<text text-anchor="start" x="583.0437" y="-1026.3" font-family="Helvetica,sans-Serif" font-size="11.00" fill="#000000">[table]</text>
<polygon fill="none" stroke="#000000" points="509,-996.2 509,-1018.2 618,-1018.2 618,-996.2 509,-996.2"/>
<image xlink:href="../../images/primaryKeys.png" width="11px" height="12px" preserveAspectRatio="xMinYMin meet" x="514" y="-1013.2"/>
<text text-anchor="start" x="529" y="-1003.3" font-family="Helvetica,sans-Serif" font-size="11.00" fill="#000000">uuid</text>
<polygon fill="#ffffff" stroke="transparent" points="509,-974.2 509,-996.2 618,-996.2 618,-974.2 509,-974.2"/>
<polygon fill="none" stroke="#000000" points="509,-974.2 509,-996.2 618,-996.2 618,-974.2 509,-974.2"/>
<text text-anchor="start" x="529" y="-981.3" font-family="Helvetica,sans-Serif" font-size="11.00" fill="#000000">geom</text>
<polygon fill="#ffffff" stroke="transparent" points="509,-952.2 509,-974.2 618,-974.2 618,-952.2 509,-952.2"/>
<polygon fill="none" stroke="#000000" points="509,-952.2 509,-974.2 618,-974.2 618,-952.2 509,-952.2"/>
<image xlink:href="../../images/foreignKeys.png" width="11px" height="12px" preserveAspectRatio="xMinYMin meet" x="514" y="-969.2"/>
<text text-anchor="start" x="529" y="-959.3" font-family="Helvetica,sans-Serif" font-size="11.00" fill="#000000">object_uuid</text>
<polygon fill="none" stroke="#000000" points="509,-930.2 509,-952.2 618,-952.2 618,-930.2 509,-930.2"/>
<image xlink:href="../../images/foreignKeys.png" width="11px" height="12px" preserveAspectRatio="xMinYMin meet" x="514" y="-947.2"/>
<text text-anchor="start" x="529" y="-937.3" font-family="Helvetica,sans-Serif" font-size="11.00" fill="#000000">annotatie_id</text>
<polygon fill="none" stroke="#000000" points="509,-911.2 509,-930.2 618,-930.2 618,-911.2 509,-911.2"/>
<text text-anchor="start" x="512" y="-917.3" font-family="Helvetica,sans-Serif" font-size="11.00" fill="#000000">...</text>
<polygon fill="#ffffff" stroke="transparent" points="509,-892.2 509,-911.2 562,-911.2 562,-892.2 509,-892.2"/>
<polygon fill="none" stroke="#000000" points="509,-892.2 509,-911.2 562,-911.2 562,-892.2 509,-892.2"/>
<text text-anchor="start" x="512" y="-898.3" font-family="Helvetica,sans-Serif" font-size="11.00" fill="#000000">&lt; 2</text>
<polygon fill="#ffffff" stroke="transparent" points="562,-892.2 562,-911.2 590,-911.2 590,-892.2 562,-892.2"/>
<polygon fill="none" stroke="#000000" points="562,-892.2 562,-911.2 590,-911.2 590,-892.2 562,-892.2"/>
<text text-anchor="start" x="580.8862" y="-898.3" font-family="Helvetica,sans-Serif" font-size="11.00" fill="#000000"> &#160;</text>
<polygon fill="#ffffff" stroke="transparent" points="590,-892.2 590,-911.2 618,-911.2 618,-892.2 590,-892.2"/>
<polygon fill="none" stroke="#000000" points="590,-892.2 590,-911.2 618,-911.2 618,-892.2 590,-892.2"/>
<text text-anchor="start" x="608.8862" y="-898.3" font-family="Helvetica,sans-Serif" font-size="11.00" fill="#000000"> &#160;</text>
</a>
</g>
</g>
<!-- label&#45;&gt;object -->
<g id="edge2" class="edge">
<title>label:w&#45;&gt;object:e</title>
<path fill="none" stroke="#000000" d="M494.4932,-961.5716C408.3156,-939.8541 560.8745,-708.2 450,-708.2"/>
<polygon fill="#000000" stroke="#000000" points="501.0499,-962.3076 508.5984,-966.7775 505.025,-962.7538 509,-963.2 509,-963.2 509,-963.2 505.025,-962.7538 509.4016,-959.6225 501.0499,-962.3076 501.0499,-962.3076"/>
<ellipse fill="none" stroke="#000000" cx="497.8699" cy="-961.9506" rx="3.2" ry="3.2"/>
</g>
<!-- opstelplaats -->
<g id="node6" class="node">
<title>opstelplaats</title>
<g id="a_node6"><a xlink:href="../../tables/opstelplaats.html" xlink:title="opstelplaats" target="_top">
<polygon fill="#ffffff" stroke="transparent" points="508.5,-722.7 508.5,-871.7 617.5,-871.7 617.5,-722.7 508.5,-722.7"/>
<polygon fill="#f5f5f5" stroke="transparent" points="509,-848.2 509,-871.2 618,-871.2 618,-848.2 509,-848.2"/>
<polygon fill="none" stroke="#000000" points="509,-848.2 509,-871.2 618,-871.2 618,-848.2 509,-848.2"/>
<text text-anchor="start" x="514" y="-856.8" font-family="Helvetica,sans-Serif" font-weight="bold" font-size="11.00" fill="#000000">opstelplaats</text>
<text text-anchor="start" x="583.5219" y="-856.3" font-family="Helvetica,sans-Serif" font-size="11.00" fill="#000000">[table]</text>
<polygon fill="none" stroke="#000000" points="509,-826.2 509,-848.2 618,-848.2 618,-826.2 509,-826.2"/>
<image xlink:href="../../images/primaryKeys.png" width="11px" height="12px" preserveAspectRatio="xMinYMin meet" x="514" y="-843.2"/>
<text text-anchor="start" x="529" y="-833.3" font-family="Helvetica,sans-Serif" font-size="11.00" fill="#000000">uuid</text>
<polygon fill="#ffffff" stroke="transparent" points="509,-804.2 509,-826.2 618,-826.2 618,-804.2 509,-804.2"/>
<polygon fill="none" stroke="#000000" points="509,-804.2 509,-826.2 618,-826.2 618,-804.2 509,-804.2"/>
<text text-anchor="start" x="529" y="-811.3" font-family="Helvetica,sans-Serif" font-size="11.00" fill="#000000">geom</text>
<polygon fill="#ffffff" stroke="transparent" points="509,-782.2 509,-804.2 618,-804.2 618,-782.2 509,-782.2"/>
<polygon fill="none" stroke="#000000" points="509,-782.2 509,-804.2 618,-804.2 618,-782.2 509,-782.2"/>
<image xlink:href="../../images/foreignKeys.png" width="11px" height="12px" preserveAspectRatio="xMinYMin meet" x="514" y="-799.2"/>
<text text-anchor="start" x="529" y="-789.3" font-family="Helvetica,sans-Serif" font-size="11.00" fill="#000000">object_uuid</text>
<polygon fill="none" stroke="#000000" points="509,-760.2 509,-782.2 618,-782.2 618,-760.2 509,-760.2"/>
<image xlink:href="../../images/foreignKeys.png" width="11px" height="12px" preserveAspectRatio="xMinYMin meet" x="514" y="-777.2"/>
<text text-anchor="start" x="529" y="-767.3" font-family="Helvetica,sans-Serif" font-size="11.00" fill="#000000">voertuig_id</text>
<polygon fill="none" stroke="#000000" points="509,-741.2 509,-760.2 618,-760.2 618,-741.2 509,-741.2"/>
<text text-anchor="start" x="512" y="-747.3" font-family="Helvetica,sans-Serif" font-size="11.00" fill="#000000">...</text>
<polygon fill="#ffffff" stroke="transparent" points="509,-722.2 509,-741.2 562,-741.2 562,-722.2 509,-722.2"/>
<polygon fill="none" stroke="#000000" points="509,-722.2 509,-741.2 562,-741.2 562,-722.2 509,-722.2"/>
<text text-anchor="start" x="512" y="-728.3" font-family="Helvetica,sans-Serif" font-size="11.00" fill="#000000">&lt; 2</text>
<polygon fill="#ffffff" stroke="transparent" points="562,-722.2 562,-741.2 590,-741.2 590,-722.2 562,-722.2"/>
<polygon fill="none" stroke="#000000" points="562,-722.2 562,-741.2 590,-741.2 590,-722.2 562,-722.2"/>
<text text-anchor="start" x="580.8862" y="-728.3" font-family="Helvetica,sans-Serif" font-size="11.00" fill="#000000"> &#160;</text>
<polygon fill="#ffffff" stroke="transparent" points="590,-722.2 590,-741.2 618,-741.2 618,-722.2 590,-722.2"/>
<polygon fill="none" stroke="#000000" points="590,-722.2 590,-741.2 618,-741.2 618,-722.2 590,-722.2"/>
<text text-anchor="start" x="608.8862" y="-728.3" font-family="Helvetica,sans-Serif" font-size="11.00" fill="#000000"> &#160;</text>
</a>
</g>
</g>
<!-- opstelplaats&#45;&gt;object -->
<g id="edge5" class="edge">
<title>opstelplaats:w&#45;&gt;object:e</title>
<path fill="none" stroke="#000000" d="M494.814,-789.3269C470.2023,-772.6984 490.0586,-708.2 450,-708.2"/>
<polygon fill="#000000" stroke="#000000" points="501.2825,-791.0929 508.0518,-796.6729 505.1412,-792.1464 509,-793.2 509,-793.2 509,-793.2 505.1412,-792.1464 509.9482,-789.7271 501.2825,-791.0929 501.2825,-791.0929"/>
<ellipse fill="none" stroke="#000000" cx="498.1955" cy="-790.25" rx="3.2" ry="3.2"/>
</g>
<!-- risico -->
<g id="node7" class="node">
<title>risico</title>
<g id="a_node7"><a xlink:href="../../tables/risico.html" xlink:title="risico" target="_top">
<polygon fill="#ffffff" stroke="transparent" points="508.5,-552.7 508.5,-701.7 617.5,-701.7 617.5,-552.7 508.5,-552.7"/>
<polygon fill="#f5f5f5" stroke="transparent" points="509,-678.2 509,-701.2 618,-701.2 618,-678.2 509,-678.2"/>
<polygon fill="none" stroke="#000000" points="509,-678.2 509,-701.2 618,-701.2 618,-678.2 509,-678.2"/>
<text text-anchor="start" x="514" y="-686.8" font-family="Helvetica,sans-Serif" font-weight="bold" font-size="11.00" fill="#000000">risico</text>
<text text-anchor="start" x="583.0437" y="-686.3" font-family="Helvetica,sans-Serif" font-size="11.00" fill="#000000">[table]</text>
<polygon fill="none" stroke="#000000" points="509,-656.2 509,-678.2 618,-678.2 618,-656.2 509,-656.2"/>
<image xlink:href="../../images/primaryKeys.png" width="11px" height="12px" preserveAspectRatio="xMinYMin meet" x="514" y="-673.2"/>
<text text-anchor="start" x="529" y="-663.3" font-family="Helvetica,sans-Serif" font-size="11.00" fill="#000000">uuid</text>
<polygon fill="#ffffff" stroke="transparent" points="509,-634.2 509,-656.2 618,-656.2 618,-634.2 509,-634.2"/>
<polygon fill="none" stroke="#000000" points="509,-634.2 509,-656.2 618,-656.2 618,-634.2 509,-634.2"/>
<text text-anchor="start" x="529" y="-641.3" font-family="Helvetica,sans-Serif" font-size="11.00" fill="#000000">geom</text>
<polygon fill="#ffffff" stroke="transparent" points="509,-612.2 509,-634.2 618,-634.2 618,-612.2 509,-612.2"/>
<polygon fill="none" stroke="#000000" points="509,-612.2 509,-634.2 618,-634.2 618,-612.2 509,-612.2"/>
<image xlink:href="../../images/foreignKeys.png" width="11px" height="12px" preserveAspectRatio="xMinYMin meet" x="514" y="-629.2"/>
<text text-anchor="start" x="529" y="-619.3" font-family="Helvetica,sans-Serif" font-size="11.00" fill="#000000">object_uuid</text>
<polygon fill="#ffffff" stroke="transparent" points="509,-590.2 509,-612.2 618,-612.2 618,-590.2 509,-590.2"/>
<polygon fill="none" stroke="#000000" points="509,-590.2 509,-612.2 618,-612.2 618,-590.2 509,-590.2"/>
<image xlink:href="../../images/foreignKeys.png" width="11px" height="12px" preserveAspectRatio="xMinYMin meet" x="514" y="-607.2"/>
<text text-anchor="start" x="529" y="-597.3" font-family="Helvetica,sans-Serif" font-size="11.00" fill="#000000">dreiging_id</text>
<polygon fill="none" stroke="#000000" points="509,-571.2 509,-590.2 618,-590.2 618,-571.2 509,-571.2"/>
<text text-anchor="start" x="512" y="-577.3" font-family="Helvetica,sans-Serif" font-size="11.00" fill="#000000">...</text>
<polygon fill="#ffffff" stroke="transparent" points="509,-552.2 509,-571.2 562,-571.2 562,-552.2 509,-552.2"/>
<polygon fill="none" stroke="#000000" points="509,-552.2 509,-571.2 562,-571.2 562,-552.2 509,-552.2"/>
<text text-anchor="start" x="512" y="-558.3" font-family="Helvetica,sans-Serif" font-size="11.00" fill="#000000">&lt; 2</text>
<polygon fill="#ffffff" stroke="transparent" points="562,-552.2 562,-571.2 590,-571.2 590,-552.2 562,-552.2"/>
<polygon fill="none" stroke="#000000" points="562,-552.2 562,-571.2 590,-571.2 590,-552.2 562,-552.2"/>
<text text-anchor="start" x="580.8862" y="-558.3" font-family="Helvetica,sans-Serif" font-size="11.00" fill="#000000"> &#160;</text>
<polygon fill="#ffffff" stroke="transparent" points="590,-552.2 590,-571.2 618,-571.2 618,-552.2 590,-552.2"/>
<polygon fill="none" stroke="#000000" points="590,-552.2 590,-571.2 618,-571.2 618,-552.2 590,-552.2"/>
<text text-anchor="start" x="608.8862" y="-558.3" font-family="Helvetica,sans-Serif" font-size="11.00" fill="#000000"> &#160;</text>
</a>
</g>
</g>
<!-- risico&#45;&gt;object -->
<g id="edge6" class="edge">
<title>risico:w&#45;&gt;object:e</title>
<path fill="none" stroke="#000000" d="M494.814,-627.0731C470.2023,-643.7016 490.0586,-708.2 450,-708.2"/>
<polygon fill="#000000" stroke="#000000" points="501.2825,-625.3071 509.9482,-626.6729 505.1412,-624.2536 509,-623.2 509,-623.2 509,-623.2 505.1412,-624.2536 508.0518,-619.7271 501.2825,-625.3071 501.2825,-625.3071"/>
<ellipse fill="none" stroke="#000000" cx="498.1955" cy="-626.15" rx="3.2" ry="3.2"/>
</g>
<!-- sector -->
<g id="node8" class="node">
<title>sector</title>
<g id="a_node8"><a xlink:href="../../tables/sector.html" xlink:title="sector" target="_top">
<polygon fill="#ffffff" stroke="transparent" points="508.5,-360.7 508.5,-531.7 617.5,-531.7 617.5,-360.7 508.5,-360.7"/>
<polygon fill="#f5f5f5" stroke="transparent" points="509,-508.2 509,-531.2 618,-531.2 618,-508.2 509,-508.2"/>
<polygon fill="none" stroke="#000000" points="509,-508.2 509,-531.2 618,-531.2 618,-508.2 509,-508.2"/>
<text text-anchor="start" x="514" y="-516.8" font-family="Helvetica,sans-Serif" font-weight="bold" font-size="11.00" fill="#000000">sector</text>
<text text-anchor="start" x="583.0437" y="-516.3" font-family="Helvetica,sans-Serif" font-size="11.00" fill="#000000">[table]</text>
<polygon fill="none" stroke="#000000" points="509,-486.2 509,-508.2 618,-508.2 618,-486.2 509,-486.2"/>
<image xlink:href="../../images/primaryKeys.png" width="11px" height="12px" preserveAspectRatio="xMinYMin meet" x="514" y="-503.2"/>
<text text-anchor="start" x="529" y="-493.3" font-family="Helvetica,sans-Serif" font-size="11.00" fill="#000000">uuid</text>
<polygon fill="#ffffff" stroke="transparent" points="509,-464.2 509,-486.2 618,-486.2 618,-464.2 509,-464.2"/>
<polygon fill="none" stroke="#000000" points="509,-464.2 509,-486.2 618,-486.2 618,-464.2 509,-464.2"/>
<text text-anchor="start" x="529" y="-471.3" font-family="Helvetica,sans-Serif" font-size="11.00" fill="#000000">geom</text>
<polygon fill="#ffffff" stroke="transparent" points="509,-442.2 509,-464.2 618,-464.2 618,-442.2 509,-442.2"/>
<polygon fill="none" stroke="#000000" points="509,-442.2 509,-464.2 618,-464.2 618,-442.2 509,-442.2"/>
<image xlink:href="../../images/foreignKeys.png" width="11px" height="12px" preserveAspectRatio="xMinYMin meet" x="514" y="-459.2"/>
<text text-anchor="start" x="529" y="-449.3" font-family="Helvetica,sans-Serif" font-size="11.00" fill="#000000">object_uuid</text>
<polygon fill="none" stroke="#000000" points="509,-420.2 509,-442.2 618,-442.2 618,-420.2 509,-420.2"/>
<image xlink:href="../../images/foreignKeys.png" width="11px" height="12px" preserveAspectRatio="xMinYMin meet" x="514" y="-437.2"/>
<text text-anchor="start" x="529" y="-427.3" font-family="Helvetica,sans-Serif" font-size="11.00" fill="#000000">zone_id</text>
<polygon fill="#ffffff" stroke="transparent" points="509,-398.2 509,-420.2 618,-420.2 618,-398.2 509,-398.2"/>
<polygon fill="none" stroke="#000000" points="509,-398.2 509,-420.2 618,-420.2 618,-398.2 509,-398.2"/>
<text text-anchor="start" x="529" y="-405.3" font-family="Helvetica,sans-Serif" font-size="11.00" fill="#000000">bouwlaag</text>
<polygon fill="none" stroke="#000000" points="509,-379.2 509,-398.2 618,-398.2 618,-379.2 509,-379.2"/>
<text text-anchor="start" x="512" y="-385.3" font-family="Helvetica,sans-Serif" font-size="11.00" fill="#000000">...</text>
<polygon fill="#ffffff" stroke="transparent" points="509,-360.2 509,-379.2 562,-379.2 562,-360.2 509,-360.2"/>
<polygon fill="none" stroke="#000000" points="509,-360.2 509,-379.2 562,-379.2 562,-360.2 509,-360.2"/>
<text text-anchor="start" x="512" y="-366.3" font-family="Helvetica,sans-Serif" font-size="11.00" fill="#000000">&lt; 2</text>
<polygon fill="#ffffff" stroke="transparent" points="562,-360.2 562,-379.2 590,-379.2 590,-360.2 562,-360.2"/>
<polygon fill="none" stroke="#000000" points="562,-360.2 562,-379.2 590,-379.2 590,-360.2 562,-360.2"/>
<text text-anchor="start" x="580.8862" y="-366.3" font-family="Helvetica,sans-Serif" font-size="11.00" fill="#000000"> &#160;</text>
<polygon fill="#ffffff" stroke="transparent" points="590,-360.2 590,-379.2 618,-379.2 618,-360.2 590,-360.2"/>
<polygon fill="none" stroke="#000000" points="590,-360.2 590,-379.2 618,-379.2 618,-360.2 590,-360.2"/>
<text text-anchor="start" x="608.8862" y="-366.3" font-family="Helvetica,sans-Serif" font-size="11.00" fill="#000000"> &#160;</text>
</a>
</g>
</g>
<!-- sector&#45;&gt;object -->
<g id="edge7" class="edge">
<title>sector:w&#45;&gt;object:e</title>
<path fill="none" stroke="#000000" d="M494.4932,-454.8284C408.3156,-476.5459 560.8745,-708.2 450,-708.2"/>
<polygon fill="#000000" stroke="#000000" points="501.0499,-454.0924 509.4016,-456.7775 505.025,-453.6462 509,-453.2 509,-453.2 509,-453.2 505.025,-453.6462 508.5984,-449.6225 501.0499,-454.0924 501.0499,-454.0924"/>
<ellipse fill="none" stroke="#000000" cx="497.8699" cy="-454.4494" rx="3.2" ry="3.2"/>
</g>
<!-- voorziening -->
<g id="node9" class="node">
<title>voorziening</title>
<g id="a_node9"><a xlink:href="../../tables/voorziening.html" xlink:title="voorziening" target="_top">
<polygon fill="#ffffff" stroke="transparent" points="508.5,-190.7 508.5,-339.7 617.5,-339.7 617.5,-190.7 508.5,-190.7"/>
<polygon fill="#f5f5f5" stroke="transparent" points="509,-316.2 509,-339.2 618,-339.2 618,-316.2 509,-316.2"/>
<polygon fill="none" stroke="#000000" points="509,-316.2 509,-339.2 618,-339.2 618,-316.2 509,-316.2"/>
<text text-anchor="start" x="514" y="-324.8" font-family="Helvetica,sans-Serif" font-weight="bold" font-size="11.00" fill="#000000">voorziening</text>
<text text-anchor="start" x="583.0437" y="-324.3" font-family="Helvetica,sans-Serif" font-size="11.00" fill="#000000">[table]</text>
<polygon fill="none" stroke="#000000" points="509,-294.2 509,-316.2 618,-316.2 618,-294.2 509,-294.2"/>
<image xlink:href="../../images/primaryKeys.png" width="11px" height="12px" preserveAspectRatio="xMinYMin meet" x="514" y="-311.2"/>
<text text-anchor="start" x="529" y="-301.3" font-family="Helvetica,sans-Serif" font-size="11.00" fill="#000000">uuid</text>
<polygon fill="#ffffff" stroke="transparent" points="509,-272.2 509,-294.2 618,-294.2 618,-272.2 509,-272.2"/>
<polygon fill="none" stroke="#000000" points="509,-272.2 509,-294.2 618,-294.2 618,-272.2 509,-272.2"/>
<text text-anchor="start" x="529" y="-279.3" font-family="Helvetica,sans-Serif" font-size="11.00" fill="#000000">geom</text>
<polygon fill="#ffffff" stroke="transparent" points="509,-250.2 509,-272.2 618,-272.2 618,-250.2 509,-250.2"/>
<polygon fill="none" stroke="#000000" points="509,-250.2 509,-272.2 618,-272.2 618,-250.2 509,-250.2"/>
<image xlink:href="../../images/foreignKeys.png" width="11px" height="12px" preserveAspectRatio="xMinYMin meet" x="514" y="-267.2"/>
<text text-anchor="start" x="529" y="-257.3" font-family="Helvetica,sans-Serif" font-size="11.00" fill="#000000">object_uuid</text>
<polygon fill="none" stroke="#000000" points="509,-228.2 509,-250.2 618,-250.2 618,-228.2 509,-228.2"/>
<image xlink:href="../../images/foreignKeys.png" width="11px" height="12px" preserveAspectRatio="xMinYMin meet" x="514" y="-245.2"/>
<text text-anchor="start" x="529" y="-235.3" font-family="Helvetica,sans-Serif" font-size="11.00" fill="#000000">symbool_id</text>
<polygon fill="none" stroke="#000000" points="509,-209.2 509,-228.2 618,-228.2 618,-209.2 509,-209.2"/>
<text text-anchor="start" x="512" y="-215.3" font-family="Helvetica,sans-Serif" font-size="11.00" fill="#000000">...</text>
<polygon fill="#ffffff" stroke="transparent" points="509,-190.2 509,-209.2 562,-209.2 562,-190.2 509,-190.2"/>
<polygon fill="none" stroke="#000000" points="509,-190.2 509,-209.2 562,-209.2 562,-190.2 509,-190.2"/>
<text text-anchor="start" x="512" y="-196.3" font-family="Helvetica,sans-Serif" font-size="11.00" fill="#000000">&lt; 2</text>
<polygon fill="#ffffff" stroke="transparent" points="562,-190.2 562,-209.2 590,-209.2 590,-190.2 562,-190.2"/>
<polygon fill="none" stroke="#000000" points="562,-190.2 562,-209.2 590,-209.2 590,-190.2 562,-190.2"/>
<text text-anchor="start" x="580.8862" y="-196.3" font-family="Helvetica,sans-Serif" font-size="11.00" fill="#000000"> &#160;</text>
<polygon fill="#ffffff" stroke="transparent" points="590,-190.2 590,-209.2 618,-209.2 618,-190.2 590,-190.2"/>
<polygon fill="none" stroke="#000000" points="590,-190.2 590,-209.2 618,-209.2 618,-190.2 590,-190.2"/>
<text text-anchor="start" x="608.8862" y="-196.3" font-family="Helvetica,sans-Serif" font-size="11.00" fill="#000000"> &#160;</text>
</a>
</g>
</g>
<!-- voorziening&#45;&gt;object -->
<g id="edge8" class="edge">
<title>voorziening:w&#45;&gt;object:e</title>
<path fill="none" stroke="#000000" d="M494.6503,-265.0643C423.5471,-308.7538 544.7155,-708.2 450,-708.2"/>
<polygon fill="#000000" stroke="#000000" points="501.2752,-263.2803 509.9361,-264.6762 505.1376,-262.2402 509,-261.2 509,-261.2 509,-261.2 505.1376,-262.2402 508.0639,-257.7238 501.2752,-263.2803 501.2752,-263.2803"/>
<ellipse fill="none" stroke="#000000" cx="498.1853" cy="-264.1124" rx="3.2" ry="3.2"/>
</g>
</g>
</svg>
