<?xml version="1.0" encoding="UTF-8" standalone="no"?>
<!DOCTYPE svg PUBLIC "-//W3C//DTD SVG 1.1//EN"
 "http://www.w3.org/Graphics/SVG/1.1/DTD/svg11.dtd">
<!-- Generated by graphviz version 2.40.1 (20161225.0304)
 -->
<!-- Title: twoDegreesRelationshipsDiagram Pages: 1 -->
<svg width="602pt" height="521pt"
 viewBox="0.00 0.00 602.00 521.20" xmlns="http://www.w3.org/2000/svg" xmlns:xlink="http://www.w3.org/1999/xlink">
<g id="graph0" class="graph" transform="scale(1 1) rotate(0) translate(4 517.2)">
<title>twoDegreesRelationshipsDiagram</title>
<polygon fill="#ffffff" stroke="transparent" points="-4,4 -4,-517.2 598,-517.2 598,4 -4,4"/>
<text text-anchor="middle" x="72.4936" y="-7.3" font-family="Helvetica,sans-Serif" font-size="11.00" fill="#000000">Generated by SchemaSpy</text>
<!-- bereikbaarheid -->
<g id="node1" class="node">
<title>bereikbaarheid</title>
<g id="a_node1"><a xlink:href="../../tables/bereikbaarheid.html" xlink:title="bereikbaarheid" target="_top">
<polygon fill="#ffffff" stroke="transparent" points="462,-448.2 462,-509.2 586,-509.2 586,-448.2 462,-448.2"/>
<polygon fill="#f5f5f5" stroke="transparent" points="462,-485.7 462,-508.7 586,-508.7 586,-485.7 462,-485.7"/>
<polygon fill="none" stroke="#000000" points="462,-485.7 462,-508.7 586,-508.7 586,-485.7 462,-485.7"/>
<text text-anchor="start" x="467" y="-494.3" font-family="Helvetica,sans-Serif" font-weight="bold" font-size="11.00" fill="#000000">bereikbaarheid</text>
<text text-anchor="start" x="551.5219" y="-493.8" font-family="Helvetica,sans-Serif" font-size="11.00" fill="#000000">[table]</text>
<polygon fill="none" stroke="#000000" points="462,-466.7 462,-485.7 586,-485.7 586,-466.7 462,-466.7"/>
<text text-anchor="start" x="465" y="-472.8" font-family="Helvetica,sans-Serif" font-size="11.00" fill="#000000">...</text>
<polygon fill="#ffffff" stroke="transparent" points="462,-447.7 462,-466.7 522,-466.7 522,-447.7 462,-447.7"/>
<polygon fill="none" stroke="#000000" points="462,-447.7 462,-466.7 522,-466.7 522,-447.7 462,-447.7"/>
<text text-anchor="start" x="465" y="-453.8" font-family="Helvetica,sans-Serif" font-size="11.00" fill="#000000">&lt; 2</text>
<polygon fill="#ffffff" stroke="transparent" points="522,-447.7 522,-466.7 554,-466.7 554,-447.7 522,-447.7"/>
<polygon fill="none" stroke="#000000" points="522,-447.7 522,-466.7 554,-466.7 554,-447.7 522,-447.7"/>
<text text-anchor="start" x="544.8862" y="-453.8" font-family="Helvetica,sans-Serif" font-size="11.00" fill="#000000"> &#160;</text>
<polygon fill="#ffffff" stroke="transparent" points="554,-447.7 554,-466.7 586,-466.7 586,-447.7 554,-447.7"/>
<polygon fill="none" stroke="#000000" points="554,-447.7 554,-466.7 586,-466.7 586,-447.7 554,-447.7"/>
<text text-anchor="start" x="576.8862" y="-453.8" font-family="Helvetica,sans-Serif" font-size="11.00" fill="#000000"> &#160;</text>
</a>
</g>
</g>
<!-- object -->
<g id="node2" class="node">
<title>object</title>
<g id="a_node2"><a xlink:href="../../tables/object.html" xlink:title="object" target="_top">
<polygon fill="#ffffff" stroke="transparent" points="246,-134.2 246,-305.2 413,-305.2 413,-134.2 246,-134.2"/>
<polygon fill="#f5f5f5" stroke="transparent" points="246.5,-281.7 246.5,-304.7 413.5,-304.7 413.5,-281.7 246.5,-281.7"/>
<polygon fill="none" stroke="#000000" points="246.5,-281.7 246.5,-304.7 413.5,-304.7 413.5,-281.7 246.5,-281.7"/>
<text text-anchor="start" x="251.5" y="-290.3" font-family="Helvetica,sans-Serif" font-weight="bold" font-size="11.00" fill="#000000">object</text>
<text text-anchor="start" x="378.5437" y="-289.8" font-family="Helvetica,sans-Serif" font-size="11.00" fill="#000000">[table]</text>
<polygon fill="none" stroke="#000000" points="246.5,-259.7 246.5,-281.7 413.5,-281.7 413.5,-259.7 246.5,-259.7"/>
<image xlink:href="../../images/primaryKeys.png" width="11px" height="12px" preserveAspectRatio="xMinYMin meet" x="251.5" y="-276.7"/>
<text text-anchor="start" x="266.5" y="-266.8" font-family="Helvetica,sans-Serif" font-size="11.00" fill="#000000">uuid</text>
<polygon fill="#ffffff" stroke="transparent" points="246.5,-237.7 246.5,-259.7 413.5,-259.7 413.5,-237.7 246.5,-237.7"/>
<polygon fill="none" stroke="#000000" points="246.5,-237.7 246.5,-259.7 413.5,-259.7 413.5,-237.7 246.5,-237.7"/>
<text text-anchor="start" x="266.5" y="-244.8" font-family="Helvetica,sans-Serif" font-size="11.00" fill="#000000">geom</text>
<polygon fill="#ffffff" stroke="transparent" points="246.5,-215.7 246.5,-237.7 413.5,-237.7 413.5,-215.7 246.5,-215.7"/>
<polygon fill="none" stroke="#000000" points="246.5,-215.7 246.5,-237.7 413.5,-237.7 413.5,-215.7 246.5,-215.7"/>
<text text-anchor="start" x="266.5" y="-222.8" font-family="Helvetica,sans-Serif" font-size="11.00" fill="#000000">revisie_frequentie</text>
<polygon fill="#ffffff" stroke="transparent" points="246.5,-193.7 246.5,-215.7 413.5,-215.7 413.5,-193.7 246.5,-193.7"/>
<polygon fill="none" stroke="#000000" points="246.5,-193.7 246.5,-215.7 413.5,-215.7 413.5,-193.7 246.5,-193.7"/>
<image xlink:href="../../images/foreignKeys.png" width="11px" height="12px" preserveAspectRatio="xMinYMin meet" x="251.5" y="-210.7"/>
<text text-anchor="start" x="266.5" y="-200.8" font-family="Helvetica,sans-Serif" font-size="11.00" fill="#000000">fase_id</text>
<polygon fill="#ffffff" stroke="transparent" points="246.5,-171.7 246.5,-193.7 413.5,-193.7 413.5,-171.7 246.5,-171.7"/>
<polygon fill="none" stroke="#000000" points="246.5,-171.7 246.5,-193.7 413.5,-193.7 413.5,-171.7 246.5,-171.7"/>
<image xlink:href="../../images/foreignKeys.png" width="11px" height="12px" preserveAspectRatio="xMinYMin meet" x="251.5" y="-188.7"/>
<text text-anchor="start" x="266.5" y="-178.8" font-family="Helvetica,sans-Serif" font-size="11.00" fill="#000000">object_type_id</text>
<polygon fill="none" stroke="#000000" points="246.5,-152.7 246.5,-171.7 413.5,-171.7 413.5,-152.7 246.5,-152.7"/>
<text text-anchor="start" x="249.5" y="-158.8" font-family="Helvetica,sans-Serif" font-size="11.00" fill="#000000">...</text>
<polygon fill="#ffffff" stroke="transparent" points="246.5,-133.7 246.5,-152.7 323.5,-152.7 323.5,-133.7 246.5,-133.7"/>
<polygon fill="none" stroke="#000000" points="246.5,-133.7 246.5,-152.7 323.5,-152.7 323.5,-133.7 246.5,-133.7"/>
<text text-anchor="start" x="249.5" y="-139.8" font-family="Helvetica,sans-Serif" font-size="11.00" fill="#000000">&lt; 2</text>
<polygon fill="#ffffff" stroke="transparent" points="323.5,-133.7 323.5,-152.7 363.5,-152.7 363.5,-133.7 323.5,-133.7"/>
<polygon fill="none" stroke="#000000" points="323.5,-133.7 323.5,-152.7 363.5,-152.7 363.5,-133.7 323.5,-133.7"/>
<text text-anchor="start" x="354.3862" y="-139.8" font-family="Helvetica,sans-Serif" font-size="11.00" fill="#000000"> &#160;</text>
<polygon fill="#ffffff" stroke="transparent" points="363.5,-133.7 363.5,-152.7 413.5,-152.7 413.5,-133.7 363.5,-133.7"/>
<polygon fill="none" stroke="#000000" points="363.5,-133.7 363.5,-152.7 413.5,-152.7 413.5,-133.7 363.5,-133.7"/>
<text text-anchor="start" x="394.9053" y="-139.8" font-family="Helvetica,sans-Serif" font-size="11.00" fill="#000000">6 &gt;</text>
</a>
</g>
</g>
<!-- bereikbaarheid&#45;&gt;object -->
<g id="edge1" class="edge">
<title>bereikbaarheid:w&#45;&gt;object:e</title>
<path fill="none" stroke="#000000" d="M447.4462,-473.5365C384.3239,-451.6273 501.4575,-270.7 413.5,-270.7"/>
<polygon fill="#000000" stroke="#000000" points="454.087,-474.5236 461.4706,-479.2609 458.0435,-475.1118 462,-475.7 462,-475.7 462,-475.7 458.0435,-475.1118 462.5294,-472.1391 454.087,-474.5236 454.087,-474.5236"/>
<ellipse fill="none" stroke="#000000" cx="450.9217" cy="-474.0531" rx="3.2" ry="3.2"/>
</g>
<!-- roi.fase -->
<g id="node4" class="node">
<title>roi.fase</title>
<g id="a_node4"><a xlink:href="../../../roi/tables/fase.html" xlink:title="roi.fase" target="_top">
<polygon fill="#ffffff" stroke="transparent" points="62,-209.2 62,-270.2 143,-270.2 143,-209.2 62,-209.2"/>
<polygon fill="#f5f5f5" stroke="transparent" points="62.5,-246.7 62.5,-269.7 143.5,-269.7 143.5,-246.7 62.5,-246.7"/>
<polygon fill="none" stroke="#000000" points="62.5,-246.7 62.5,-269.7 143.5,-269.7 143.5,-246.7 62.5,-246.7"/>
<text text-anchor="start" x="67.5" y="-255.3" font-family="Helvetica,sans-Serif" font-weight="bold" font-size="11.00" fill="#000000">roi.fase</text>
<text text-anchor="start" x="109.0219" y="-254.8" font-family="Helvetica,sans-Serif" font-size="11.00" fill="#000000">[table]</text>
<polygon fill="none" stroke="#000000" points="62.5,-227.7 62.5,-246.7 143.5,-246.7 143.5,-227.7 62.5,-227.7"/>
<text text-anchor="start" x="65.5" y="-233.8" font-family="Helvetica,sans-Serif" font-size="11.00" fill="#000000">...</text>
<polygon fill="#ffffff" stroke="transparent" points="62.5,-208.7 62.5,-227.7 92.5,-227.7 92.5,-208.7 62.5,-208.7"/>
<polygon fill="none" stroke="#000000" points="62.5,-208.7 62.5,-227.7 92.5,-227.7 92.5,-208.7 62.5,-208.7"/>
<text text-anchor="start" x="65.5" y="-214.8" font-family="Helvetica,sans-Serif" font-size="11.00" fill="#000000"> &#160;</text>
<polygon fill="#ffffff" stroke="transparent" points="92.5,-208.7 92.5,-227.7 113.5,-227.7 113.5,-208.7 92.5,-208.7"/>
<polygon fill="none" stroke="#000000" points="92.5,-208.7 92.5,-227.7 113.5,-227.7 113.5,-208.7 92.5,-208.7"/>
<text text-anchor="start" x="104.3862" y="-214.8" font-family="Helvetica,sans-Serif" font-size="11.00" fill="#000000"> &#160;</text>
<polygon fill="#ffffff" stroke="transparent" points="113.5,-208.7 113.5,-227.7 143.5,-227.7 143.5,-208.7 113.5,-208.7"/>
<polygon fill="none" stroke="#000000" points="113.5,-208.7 113.5,-227.7 143.5,-227.7 143.5,-208.7 113.5,-208.7"/>
<text text-anchor="start" x="124.9053" y="-214.8" font-family="Helvetica,sans-Serif" font-size="11.00" fill="#000000">1 &gt;</text>
</a>
</g>
</g>
<!-- object&#45;&gt;roi.fase -->
<g id="edge3" class="edge">
<title>object:w&#45;&gt;roi.fase:e</title>
<path fill="none" stroke="#000000" d="M232.1287,-205.7647C196.5165,-211.3172 186.1932,-236.7 143.5,-236.7"/>
<polygon fill="#000000" stroke="#000000" points="238.5219,-205.2911 246.766,-208.2902 242.5109,-204.9956 246.5,-204.7 246.5,-204.7 246.5,-204.7 242.5109,-204.9956 246.234,-201.1098 238.5219,-205.2911 238.5219,-205.2911"/>
<ellipse fill="none" stroke="#000000" cx="235.3306" cy="-205.5276" rx="3.2" ry="3.2"/>
</g>
<!-- object_type -->
<g id="node5" class="node">
<title>object_type</title>
<g id="a_node5"><a xlink:href="../../tables/object_type.html" xlink:title="object_type" target="_top">
<polygon fill="#ffffff" stroke="transparent" points="8,-75.7 8,-187.7 197,-187.7 197,-75.7 8,-75.7"/>
<polygon fill="#f5f5f5" stroke="transparent" points="10.5,-162.7 10.5,-185.7 195.5,-185.7 195.5,-162.7 10.5,-162.7"/>
<polygon fill="none" stroke="#000000" points="10.5,-162.7 10.5,-185.7 195.5,-185.7 195.5,-162.7 10.5,-162.7"/>
<text text-anchor="start" x="15.5" y="-171.3" font-family="Helvetica,sans-Serif" font-weight="bold" font-size="11.00" fill="#000000">object_type</text>
<text text-anchor="start" x="160.5437" y="-170.8" font-family="Helvetica,sans-Serif" font-size="11.00" fill="#000000">[table]</text>
<polygon fill="none" stroke="#000000" points="10.5,-140.7 10.5,-162.7 105.5,-162.7 105.5,-140.7 10.5,-140.7"/>
<image xlink:href="../../images/primaryKeys.png" width="11px" height="12px" preserveAspectRatio="xMinYMin meet" x="15.5" y="-157.7"/>
<text text-anchor="start" x="30.5" y="-147.8" font-family="Helvetica,sans-Serif" font-size="11.00" fill="#000000">id</text>
<polygon fill="none" stroke="#000000" points="105.5,-140.7 105.5,-162.7 195.5,-162.7 195.5,-140.7 105.5,-140.7"/>
<text text-anchor="start" x="108.5" y="-148.4" font-family="Helvetica,sans-Serif" font-size="11.00" fill="#000000">int2[5]</text>
<polygon fill="none" stroke="#000000" points="10.5,-118.7 10.5,-140.7 105.5,-140.7 105.5,-118.7 10.5,-118.7"/>
<text text-anchor="start" x="30.5" y="-125.8" font-family="Helvetica,sans-Serif" font-size="11.00" fill="#000000">naam</text>
<polygon fill="none" stroke="#000000" points="105.5,-118.7 105.5,-140.7 195.5,-140.7 195.5,-118.7 105.5,-118.7"/>
<text text-anchor="start" x="108.0042" y="-126.4" font-family="Helvetica,sans-Serif" font-size="11.00" fill="#000000">text[2147483647]</text>
<polygon fill="none" stroke="#000000" points="10.5,-96.7 10.5,-118.7 105.5,-118.7 105.5,-96.7 10.5,-96.7"/>
<text text-anchor="start" x="30.5" y="-103.8" font-family="Helvetica,sans-Serif" font-size="11.00" fill="#000000">omschrijving</text>
<polygon fill="none" stroke="#000000" points="105.5,-96.7 105.5,-118.7 195.5,-118.7 195.5,-96.7 105.5,-96.7"/>
<text text-anchor="start" x="108.0042" y="-104.4" font-family="Helvetica,sans-Serif" font-size="11.00" fill="#000000">text[2147483647]</text>
<polygon fill="#ffffff" stroke="transparent" points="10.5,-77.7 10.5,-96.7 62.5,-96.7 62.5,-77.7 10.5,-77.7"/>
<polygon fill="none" stroke="#000000" points="10.5,-77.7 10.5,-96.7 62.5,-96.7 62.5,-77.7 10.5,-77.7"/>
<text text-anchor="start" x="13.5" y="-83.8" font-family="Helvetica,sans-Serif" font-size="11.00" fill="#000000">&lt; 0</text>
<polygon fill="#ffffff" stroke="transparent" points="62.5,-77.7 62.5,-96.7 105.5,-96.7 105.5,-77.7 62.5,-77.7"/>
<polygon fill="none" stroke="#000000" points="62.5,-77.7 62.5,-96.7 105.5,-96.7 105.5,-77.7 62.5,-77.7"/>
<text text-anchor="start" x="96.3862" y="-83.8" font-family="Helvetica,sans-Serif" font-size="11.00" fill="#000000"> &#160;</text>
<polygon fill="#ffffff" stroke="transparent" points="105.5,-77.7 105.5,-96.7 195.5,-96.7 195.5,-77.7 105.5,-77.7"/>
<polygon fill="none" stroke="#000000" points="105.5,-77.7 105.5,-96.7 195.5,-96.7 195.5,-77.7 105.5,-77.7"/>
<text text-anchor="start" x="176.9053" y="-83.8" font-family="Helvetica,sans-Serif" font-size="11.00" fill="#000000">1 &gt;</text>
<polygon fill="none" stroke="#000000" stroke-width="2" points="9,-76.7 9,-186.7 196,-186.7 196,-76.7 9,-76.7"/>
</a>
</g>
</g>
<!-- object&#45;&gt;object_type -->
<g id="edge4" class="edge">
<title>object:w&#45;&gt;object_type:e</title>
<path fill="none" stroke="#000000" d="M232.5967,-178.8988C219.5044,-170.6209 216.2231,-151.7 195.5,-151.7"/>
<polygon fill="#000000" stroke="#000000" points="238.7832,-180.5902 245.5506,-186.1726 242.6416,-181.6451 246.5,-182.7 246.5,-182.7 246.5,-182.7 242.6416,-181.6451 247.4494,-179.2274 238.7832,-180.5902 238.7832,-180.5902"/>
<ellipse fill="none" stroke="#000000" cx="235.6965" cy="-179.7462" rx="3.2" ry="3.2"/>
</g>
<!-- label -->
<g id="node3" class="node">
<title>label</title>
<g id="a_node3"><a xlink:href="../../tables/label.html" xlink:title="label" target="_top">
<polygon fill="#ffffff" stroke="transparent" points="491,-366.2 491,-427.2 557,-427.2 557,-366.2 491,-366.2"/>
<polygon fill="#f5f5f5" stroke="transparent" points="491,-403.7 491,-426.7 557,-426.7 557,-403.7 491,-403.7"/>
<polygon fill="none" stroke="#000000" points="491,-403.7 491,-426.7 557,-426.7 557,-403.7 491,-403.7"/>
<text text-anchor="start" x="495.8868" y="-412.3" font-family="Helvetica,sans-Serif" font-weight="bold" font-size="11.00" fill="#000000">label</text>
<text text-anchor="start" x="522.5219" y="-411.8" font-family="Helvetica,sans-Serif" font-size="11.00" fill="#000000">[table]</text>
<polygon fill="none" stroke="#000000" points="491,-384.7 491,-403.7 557,-403.7 557,-384.7 491,-384.7"/>
<text text-anchor="start" x="494" y="-390.8" font-family="Helvetica,sans-Serif" font-size="11.00" fill="#000000">...</text>
<polygon fill="#ffffff" stroke="transparent" points="491,-365.7 491,-384.7 522,-384.7 522,-365.7 491,-365.7"/>
<polygon fill="none" stroke="#000000" points="491,-365.7 491,-384.7 522,-384.7 522,-365.7 491,-365.7"/>
<text text-anchor="start" x="494" y="-371.8" font-family="Helvetica,sans-Serif" font-size="11.00" fill="#000000">&lt; 2</text>
<polygon fill="#ffffff" stroke="transparent" points="522,-365.7 522,-384.7 539,-384.7 539,-365.7 522,-365.7"/>
<polygon fill="none" stroke="#000000" points="522,-365.7 522,-384.7 539,-384.7 539,-365.7 522,-365.7"/>
<text text-anchor="start" x="529.8862" y="-371.8" font-family="Helvetica,sans-Serif" font-size="11.00" fill="#000000"> &#160;</text>
<polygon fill="#ffffff" stroke="transparent" points="539,-365.7 539,-384.7 557,-384.7 557,-365.7 539,-365.7"/>
<polygon fill="none" stroke="#000000" points="539,-365.7 539,-384.7 557,-384.7 557,-365.7 539,-365.7"/>
<text text-anchor="start" x="547.8862" y="-371.8" font-family="Helvetica,sans-Serif" font-size="11.00" fill="#000000"> &#160;</text>
</a>
</g>
</g>
<!-- label&#45;&gt;object -->
<g id="edge2" class="edge">
<title>label:w&#45;&gt;object:e</title>
<path fill="none" stroke="#000000" d="M476.8412,-390.2877C466.5522,-384.0345 463.9988,-370.0563 454,-355.7 430.0837,-321.3609 455.3469,-270.7 413.5,-270.7"/>
<polygon fill="#000000" stroke="#000000" points="483.2227,-391.8256 490.1565,-397.1998 487.1113,-392.7628 491,-393.7 491,-393.7 491,-393.7 487.1113,-392.7628 491.8435,-390.2002 483.2227,-391.8256 483.2227,-391.8256"/>
<ellipse fill="none" stroke="#000000" cx="480.1117" cy="-391.0759" rx="3.2" ry="3.2"/>
</g>
<!-- opstelplaats -->
<g id="node6" class="node">
<title>opstelplaats</title>
<g id="a_node6"><a xlink:href="../../tables/opstelplaats.html" xlink:title="opstelplaats" target="_top">
<polygon fill="#ffffff" stroke="transparent" points="469.5,-284.2 469.5,-345.2 578.5,-345.2 578.5,-284.2 469.5,-284.2"/>
<polygon fill="#f5f5f5" stroke="transparent" points="470,-321.7 470,-344.7 579,-344.7 579,-321.7 470,-321.7"/>
<polygon fill="none" stroke="#000000" points="470,-321.7 470,-344.7 579,-344.7 579,-321.7 470,-321.7"/>
<text text-anchor="start" x="475" y="-330.3" font-family="Helvetica,sans-Serif" font-weight="bold" font-size="11.00" fill="#000000">opstelplaats</text>
<text text-anchor="start" x="544.5219" y="-329.8" font-family="Helvetica,sans-Serif" font-size="11.00" fill="#000000">[table]</text>
<polygon fill="none" stroke="#000000" points="470,-302.7 470,-321.7 579,-321.7 579,-302.7 470,-302.7"/>
<text text-anchor="start" x="473" y="-308.8" font-family="Helvetica,sans-Serif" font-size="11.00" fill="#000000">...</text>
<polygon fill="#ffffff" stroke="transparent" points="470,-283.7 470,-302.7 523,-302.7 523,-283.7 470,-283.7"/>
<polygon fill="none" stroke="#000000" points="470,-283.7 470,-302.7 523,-302.7 523,-283.7 470,-283.7"/>
<text text-anchor="start" x="473" y="-289.8" font-family="Helvetica,sans-Serif" font-size="11.00" fill="#000000">&lt; 2</text>
<polygon fill="#ffffff" stroke="transparent" points="523,-283.7 523,-302.7 551,-302.7 551,-283.7 523,-283.7"/>
<polygon fill="none" stroke="#000000" points="523,-283.7 523,-302.7 551,-302.7 551,-283.7 523,-283.7"/>
<text text-anchor="start" x="541.8862" y="-289.8" font-family="Helvetica,sans-Serif" font-size="11.00" fill="#000000"> &#160;</text>
<polygon fill="#ffffff" stroke="transparent" points="551,-283.7 551,-302.7 579,-302.7 579,-283.7 551,-283.7"/>
<polygon fill="none" stroke="#000000" points="551,-283.7 551,-302.7 579,-302.7 579,-283.7 551,-283.7"/>
<text text-anchor="start" x="569.8862" y="-289.8" font-family="Helvetica,sans-Serif" font-size="11.00" fill="#000000"> &#160;</text>
</a>
</g>
</g>
<!-- opstelplaats&#45;&gt;object -->
<g id="edge5" class="edge">
<title>opstelplaats:w&#45;&gt;object:e</title>
<path fill="none" stroke="#000000" d="M455.9235,-307.9163C439.77,-297.7664 438.7087,-270.7 413.5,-270.7"/>
<polygon fill="#000000" stroke="#000000" points="462.2742,-309.6233 469.0655,-315.1766 466.1371,-310.6617 470,-311.7 470,-311.7 470,-311.7 466.1371,-310.6617 470.9345,-308.2234 462.2742,-309.6233 462.2742,-309.6233"/>
<ellipse fill="none" stroke="#000000" cx="459.1839" cy="-308.7926" rx="3.2" ry="3.2"/>
</g>
<!-- risico -->
<g id="node7" class="node">
<title>risico</title>
<g id="a_node7"><a xlink:href="../../tables/risico.html" xlink:title="risico" target="_top">
<polygon fill="#ffffff" stroke="transparent" points="488.5,-202.2 488.5,-263.2 559.5,-263.2 559.5,-202.2 488.5,-202.2"/>
<polygon fill="#f5f5f5" stroke="transparent" points="489,-239.7 489,-262.7 560,-262.7 560,-239.7 489,-239.7"/>
<polygon fill="none" stroke="#000000" points="489,-239.7 489,-262.7 560,-262.7 560,-239.7 489,-239.7"/>
<text text-anchor="start" x="494" y="-248.3" font-family="Helvetica,sans-Serif" font-weight="bold" font-size="11.00" fill="#000000">risico</text>
<text text-anchor="start" x="525.5219" y="-247.8" font-family="Helvetica,sans-Serif" font-size="11.00" fill="#000000">[table]</text>
<polygon fill="none" stroke="#000000" points="489,-220.7 489,-239.7 560,-239.7 560,-220.7 489,-220.7"/>
<text text-anchor="start" x="492" y="-226.8" font-family="Helvetica,sans-Serif" font-size="11.00" fill="#000000">...</text>
<polygon fill="#ffffff" stroke="transparent" points="489,-201.7 489,-220.7 523,-220.7 523,-201.7 489,-201.7"/>
<polygon fill="none" stroke="#000000" points="489,-201.7 489,-220.7 523,-220.7 523,-201.7 489,-201.7"/>
<text text-anchor="start" x="492" y="-207.8" font-family="Helvetica,sans-Serif" font-size="11.00" fill="#000000">&lt; 2</text>
<polygon fill="#ffffff" stroke="transparent" points="523,-201.7 523,-220.7 541,-220.7 541,-201.7 523,-201.7"/>
<polygon fill="none" stroke="#000000" points="523,-201.7 523,-220.7 541,-220.7 541,-201.7 523,-201.7"/>
<text text-anchor="start" x="531.8862" y="-207.8" font-family="Helvetica,sans-Serif" font-size="11.00" fill="#000000"> &#160;</text>
<polygon fill="#ffffff" stroke="transparent" points="541,-201.7 541,-220.7 560,-220.7 560,-201.7 541,-201.7"/>
<polygon fill="none" stroke="#000000" points="541,-201.7 541,-220.7 560,-220.7 560,-201.7 541,-201.7"/>
<text text-anchor="start" x="550.8862" y="-207.8" font-family="Helvetica,sans-Serif" font-size="11.00" fill="#000000"> &#160;</text>
</a>
</g>
</g>
<!-- risico&#45;&gt;object -->
<g id="edge6" class="edge">
<title>risico:w&#45;&gt;object:e</title>
<path fill="none" stroke="#000000" d="M474.6551,-232.0218C450.2511,-240.6951 446.1653,-270.7 413.5,-270.7"/>
<polygon fill="#000000" stroke="#000000" points="481.1028,-230.9783 489.5752,-233.2538 485.0514,-230.3391 489,-229.7 489,-229.7 489,-229.7 485.0514,-230.3391 488.4248,-226.1462 481.1028,-230.9783 481.1028,-230.9783"/>
<ellipse fill="none" stroke="#000000" cx="477.9439" cy="-231.4896" rx="3.2" ry="3.2"/>
</g>
<!-- sector -->
<g id="node8" class="node">
<title>sector</title>
<g id="a_node8"><a xlink:href="../../tables/sector.html" xlink:title="sector" target="_top">
<polygon fill="#ffffff" stroke="transparent" points="486.5,-120.2 486.5,-181.2 561.5,-181.2 561.5,-120.2 486.5,-120.2"/>
<polygon fill="#f5f5f5" stroke="transparent" points="487,-157.7 487,-180.7 562,-180.7 562,-157.7 487,-157.7"/>
<polygon fill="none" stroke="#000000" points="487,-157.7 487,-180.7 562,-180.7 562,-157.7 487,-157.7"/>
<text text-anchor="start" x="492" y="-166.3" font-family="Helvetica,sans-Serif" font-weight="bold" font-size="11.00" fill="#000000">sector</text>
<text text-anchor="start" x="527.5219" y="-165.8" font-family="Helvetica,sans-Serif" font-size="11.00" fill="#000000">[table]</text>
<polygon fill="none" stroke="#000000" points="487,-138.7 487,-157.7 562,-157.7 562,-138.7 487,-138.7"/>
<text text-anchor="start" x="490" y="-144.8" font-family="Helvetica,sans-Serif" font-size="11.00" fill="#000000">...</text>
<polygon fill="#ffffff" stroke="transparent" points="487,-119.7 487,-138.7 523,-138.7 523,-119.7 487,-119.7"/>
<polygon fill="none" stroke="#000000" points="487,-119.7 487,-138.7 523,-138.7 523,-119.7 487,-119.7"/>
<text text-anchor="start" x="490" y="-125.8" font-family="Helvetica,sans-Serif" font-size="11.00" fill="#000000">&lt; 2</text>
<polygon fill="#ffffff" stroke="transparent" points="523,-119.7 523,-138.7 542,-138.7 542,-119.7 523,-119.7"/>
<polygon fill="none" stroke="#000000" points="523,-119.7 523,-138.7 542,-138.7 542,-119.7 523,-119.7"/>
<text text-anchor="start" x="532.8862" y="-125.8" font-family="Helvetica,sans-Serif" font-size="11.00" fill="#000000"> &#160;</text>
<polygon fill="#ffffff" stroke="transparent" points="542,-119.7 542,-138.7 562,-138.7 562,-119.7 542,-119.7"/>
<polygon fill="none" stroke="#000000" points="542,-119.7 542,-138.7 562,-138.7 562,-119.7 542,-119.7"/>
<text text-anchor="start" x="552.8862" y="-125.8" font-family="Helvetica,sans-Serif" font-size="11.00" fill="#000000"> &#160;</text>
</a>
</g>
</g>
<!-- sector&#45;&gt;object -->
<g id="edge7" class="edge">
<title>sector:w&#45;&gt;object:e</title>
<path fill="none" stroke="#000000" d="M472.773,-150.3834C431.8774,-168.3709 471.5861,-270.7 413.5,-270.7"/>
<polygon fill="#000000" stroke="#000000" points="479.1386,-149.1828 487.6673,-151.2376 483.0693,-148.4414 487,-147.7 487,-147.7 487,-147.7 483.0693,-148.4414 486.3327,-144.1624 479.1386,-149.1828 479.1386,-149.1828"/>
<ellipse fill="none" stroke="#000000" cx="475.9941" cy="-149.7759" rx="3.2" ry="3.2"/>
</g>
<!-- voorziening -->
<g id="node9" class="node">
<title>voorziening</title>
<g id="a_node9"><a xlink:href="../../tables/voorziening.html" xlink:title="voorziening" target="_top">
<polygon fill="#ffffff" stroke="transparent" points="471,-38.2 471,-99.2 577,-99.2 577,-38.2 471,-38.2"/>
<polygon fill="#f5f5f5" stroke="transparent" points="471,-75.7 471,-98.7 577,-98.7 577,-75.7 471,-75.7"/>
<polygon fill="none" stroke="#000000" points="471,-75.7 471,-98.7 577,-98.7 577,-75.7 471,-75.7"/>
<text text-anchor="start" x="476" y="-84.3" font-family="Helvetica,sans-Serif" font-weight="bold" font-size="11.00" fill="#000000">voorziening</text>
<text text-anchor="start" x="542.5219" y="-83.8" font-family="Helvetica,sans-Serif" font-size="11.00" fill="#000000">[table]</text>
<polygon fill="none" stroke="#000000" points="471,-56.7 471,-75.7 577,-75.7 577,-56.7 471,-56.7"/>
<text text-anchor="start" x="474" y="-62.8" font-family="Helvetica,sans-Serif" font-size="11.00" fill="#000000">...</text>
<polygon fill="#ffffff" stroke="transparent" points="471,-37.7 471,-56.7 522,-56.7 522,-37.7 471,-37.7"/>
<polygon fill="none" stroke="#000000" points="471,-37.7 471,-56.7 522,-56.7 522,-37.7 471,-37.7"/>
<text text-anchor="start" x="474" y="-43.8" font-family="Helvetica,sans-Serif" font-size="11.00" fill="#000000">&lt; 2</text>
<polygon fill="#ffffff" stroke="transparent" points="522,-37.7 522,-56.7 549,-56.7 549,-37.7 522,-37.7"/>
<polygon fill="none" stroke="#000000" points="522,-37.7 522,-56.7 549,-56.7 549,-37.7 522,-37.7"/>
<text text-anchor="start" x="539.8862" y="-43.8" font-family="Helvetica,sans-Serif" font-size="11.00" fill="#000000"> &#160;</text>
<polygon fill="#ffffff" stroke="transparent" points="549,-37.7 549,-56.7 577,-56.7 577,-37.7 549,-37.7"/>
<polygon fill="none" stroke="#000000" points="549,-37.7 549,-56.7 577,-56.7 577,-37.7 549,-37.7"/>
<text text-anchor="start" x="567.8862" y="-43.8" font-family="Helvetica,sans-Serif" font-size="11.00" fill="#000000"> &#160;</text>
</a>
</g>
</g>
<!-- voorziening&#45;&gt;object -->
<g id="edge8" class="edge">
<title>voorziening:w&#45;&gt;object:e</title>
<path fill="none" stroke="#000000" d="M456.6069,-67.729C391.0355,-89.0196 502.5827,-270.7 413.5,-270.7"/>
<polygon fill="#000000" stroke="#000000" points="463.0783,-66.8167 471.5025,-69.2648 467.0392,-66.2584 471,-65.7 471,-65.7 471,-65.7 467.0392,-66.2584 470.4975,-62.1352 463.0783,-66.8167 463.0783,-66.8167"/>
<ellipse fill="none" stroke="#000000" cx="459.9096" cy="-67.2634" rx="3.2" ry="3.2"/>
</g>
</g>
</svg>
