<?xml version="1.0" encoding="UTF-8" standalone="no"?>
<!DOCTYPE svg PUBLIC "-//W3C//DTD SVG 1.1//EN"
 "http://www.w3.org/Graphics/SVG/1.1/DTD/svg11.dtd">
<!-- Generated by graphviz version 2.50.0 (0)
 -->
<!-- Title: twoDegreesRelationshipsDiagram Pages: 1 -->
<svg width="659pt" height="847pt"
 viewBox="0.00 0.00 659.00 847.00" xmlns="http://www.w3.org/2000/svg" xmlns:xlink="http://www.w3.org/1999/xlink">
<g id="graph0" class="graph" transform="scale(1 1) rotate(0) translate(4 843)">
<title>twoDegreesRelationshipsDiagram</title>
<polygon fill="#ffffff" stroke="transparent" points="-4,4 -4,-843 655,-843 655,4 -4,4"/>
<text text-anchor="middle" x="79.5" y="-7.2" font-family="Helvetica,sans-Serif" font-size="11.00">Generated by SchemaSpy</text>
<!-- bereikbaarheid -->
<g id="node1" class="node">
<title>bereikbaarheid</title>
<g id="a_node1"><a xlink:href="../../tables/bereikbaarheid.html" xlink:title="bereikbaarheid" target="_top">
<polygon fill="#ffffff" stroke="transparent" points="498,-689 498,-835 643,-835 643,-689 498,-689"/>
<polygon fill="#f5f5f5" stroke="transparent" points="498.5,-813 498.5,-835 643.5,-835 643.5,-813 498.5,-813"/>
<polygon fill="none" stroke="black" points="498.5,-813 498.5,-835 643.5,-835 643.5,-813 498.5,-813"/>
<text text-anchor="start" x="503.5" y="-822.2" font-family="Helvetica,sans-Serif" font-weight="bold" font-size="11.00">bereikbaarheid</text>
<text text-anchor="start" x="601.5" y="-821.2" font-family="Helvetica,sans-Serif" font-size="11.00">[table]</text>
<polygon fill="none" stroke="black" points="498.5,-791 498.5,-813 643.5,-813 643.5,-791 498.5,-791"/>
<image xlink:href="../../images/primaryKeys.png" width="11px" height="12px" preserveAspectRatio="xMinYMin meet" x="503.5" y="-808"/>
<text text-anchor="start" x="534.5" y="-799.2" font-family="Helvetica,sans-Serif" font-size="11.00">uuid</text>
<polygon fill="#ffffff" stroke="transparent" points="498.5,-769 498.5,-791 643.5,-791 643.5,-769 498.5,-769"/>
<polygon fill="none" stroke="black" points="498.5,-769 498.5,-791 643.5,-791 643.5,-769 498.5,-769"/>
<text text-anchor="start" x="534.5" y="-777.2" font-family="Helvetica,sans-Serif" font-size="11.00">geom</text>
<polygon fill="#ffffff" stroke="transparent" points="498.5,-747 498.5,-769 643.5,-769 643.5,-747 498.5,-747"/>
<polygon fill="none" stroke="black" points="498.5,-747 498.5,-769 643.5,-769 643.5,-747 498.5,-747"/>
<image xlink:href="../../images/foreignKeys.png" width="11px" height="12px" preserveAspectRatio="xMinYMin meet" x="503.5" y="-764"/>
<text text-anchor="start" x="534.5" y="-755.2" font-family="Helvetica,sans-Serif" font-size="11.00">object_uuid</text>
<polygon fill="none" stroke="black" points="498.5,-725 498.5,-747 643.5,-747 643.5,-725 498.5,-725"/>
<image xlink:href="../../images/foreignKeys.png" width="11px" height="12px" preserveAspectRatio="xMinYMin meet" x="503.5" y="-742"/>
<text text-anchor="start" x="534.5" y="-733.2" font-family="Helvetica,sans-Serif" font-size="11.00">verbinding_id</text>
<polygon fill="none" stroke="black" points="498.5,-707 498.5,-725 643.5,-725 643.5,-707 498.5,-707"/>
<text text-anchor="start" x="501.5" y="-713.2" font-family="Helvetica,sans-Serif" font-size="11.00">...</text>
<polygon fill="#ffffff" stroke="transparent" points="498.5,-689 498.5,-707 569.5,-707 569.5,-689 498.5,-689"/>
<polygon fill="none" stroke="black" points="498.5,-689 498.5,-707 569.5,-707 569.5,-689 498.5,-689"/>
<text text-anchor="start" x="501.5" y="-695.2" font-family="Helvetica,sans-Serif" font-size="11.00">&lt; 2</text>
<polygon fill="#ffffff" stroke="transparent" points="569.5,-689 569.5,-707 606.5,-707 606.5,-689 569.5,-689"/>
<polygon fill="none" stroke="black" points="569.5,-689 569.5,-707 606.5,-707 606.5,-689 569.5,-689"/>
<text text-anchor="start" x="595.5" y="-695.2" font-family="Helvetica,sans-Serif" font-size="11.00"> &#160;</text>
<polygon fill="#ffffff" stroke="transparent" points="606.5,-689 606.5,-707 643.5,-707 643.5,-689 606.5,-689"/>
<polygon fill="none" stroke="black" points="606.5,-689 606.5,-707 643.5,-707 643.5,-689 606.5,-689"/>
<text text-anchor="start" x="632.5" y="-695.2" font-family="Helvetica,sans-Serif" font-size="11.00"> &#160;</text>
</a>
</g>
</g>
<!-- object -->
<g id="node2" class="node">
<title>object</title>
<g id="a_node2"><a xlink:href="../../tables/object.html" xlink:title="object" target="_top">
<polygon fill="#ffffff" stroke="transparent" points="180,-195 180,-657 449,-657 449,-195 180,-195"/>
<polygon fill="#f5f5f5" stroke="transparent" points="182.5,-633 182.5,-655 447.5,-655 447.5,-633 182.5,-633"/>
<polygon fill="none" stroke="black" points="182.5,-633 182.5,-655 447.5,-655 447.5,-633 182.5,-633"/>
<text text-anchor="start" x="187.5" y="-642.2" font-family="Helvetica,sans-Serif" font-weight="bold" font-size="11.00">object</text>
<text text-anchor="start" x="405.5" y="-641.2" font-family="Helvetica,sans-Serif" font-size="11.00">[table]</text>
<polygon fill="none" stroke="black" points="182.5,-611 182.5,-633 311.5,-633 311.5,-611 182.5,-611"/>
<image xlink:href="../../images/primaryKeys.png" width="11px" height="12px" preserveAspectRatio="xMinYMin meet" x="187.5" y="-628"/>
<text text-anchor="start" x="202.5" y="-619.2" font-family="Helvetica,sans-Serif" font-size="11.00">uuid</text>
<polygon fill="none" stroke="black" points="311.5,-611 311.5,-633 447.5,-633 447.5,-611 311.5,-611"/>
<text text-anchor="start" x="314.5" y="-619.2" font-family="Helvetica,sans-Serif" font-size="11.00">uuid[2147483647]</text>
<polygon fill="#ffffff" stroke="transparent" points="182.5,-589 182.5,-611 311.5,-611 311.5,-589 182.5,-589"/>
<polygon fill="none" stroke="black" points="182.5,-589 182.5,-611 311.5,-611 311.5,-589 182.5,-589"/>
<text text-anchor="start" x="202.5" y="-597.2" font-family="Helvetica,sans-Serif" font-size="11.00">geom</text>
<polygon fill="none" stroke="black" points="311.5,-589 311.5,-611 447.5,-611 447.5,-589 311.5,-589"/>
<text text-anchor="start" x="314.5" y="-597.2" font-family="Helvetica,sans-Serif" font-size="11.00">geometry[2147483647]</text>
<polygon fill="none" stroke="black" points="182.5,-567 182.5,-589 311.5,-589 311.5,-567 182.5,-567"/>
<text text-anchor="start" x="202.5" y="-575.2" font-family="Helvetica,sans-Serif" font-size="11.00">datumtijd</text>
<polygon fill="none" stroke="black" points="311.5,-567 311.5,-589 447.5,-589 447.5,-567 311.5,-567"/>
<text text-anchor="start" x="314.5" y="-575.2" font-family="Helvetica,sans-Serif" font-size="11.00">timestamptz[35,6]</text>
<polygon fill="none" stroke="black" points="182.5,-545 182.5,-567 311.5,-567 311.5,-545 182.5,-545"/>
<text text-anchor="start" x="202.5" y="-553.2" font-family="Helvetica,sans-Serif" font-size="11.00">gebruiker</text>
<polygon fill="none" stroke="black" points="311.5,-545 311.5,-567 447.5,-567 447.5,-545 311.5,-545"/>
<text text-anchor="start" x="314.5" y="-553.2" font-family="Helvetica,sans-Serif" font-size="11.00">varchar[255]</text>
<polygon fill="#ffffff" stroke="transparent" points="182.5,-523 182.5,-545 311.5,-545 311.5,-523 182.5,-523"/>
<polygon fill="none" stroke="black" points="182.5,-523 182.5,-545 311.5,-545 311.5,-523 182.5,-523"/>
<text text-anchor="start" x="202.5" y="-531.2" font-family="Helvetica,sans-Serif" font-size="11.00">revisie_frequentie</text>
<polygon fill="none" stroke="black" points="311.5,-523 311.5,-545 447.5,-545 447.5,-523 311.5,-523"/>
<text text-anchor="start" x="314.5" y="-531.2" font-family="Helvetica,sans-Serif" font-size="11.00">int2[5]</text>
<polygon fill="none" stroke="black" points="182.5,-501 182.5,-523 311.5,-523 311.5,-501 182.5,-501"/>
<text text-anchor="start" x="202.5" y="-509.2" font-family="Helvetica,sans-Serif" font-size="11.00">formelenaam</text>
<polygon fill="none" stroke="black" points="311.5,-501 311.5,-523 447.5,-523 447.5,-501 311.5,-501"/>
<text text-anchor="start" x="314.5" y="-509.2" font-family="Helvetica,sans-Serif" font-size="11.00">text[2147483647]</text>
<polygon fill="none" stroke="black" points="182.5,-479 182.5,-501 311.5,-501 311.5,-479 182.5,-479"/>
<text text-anchor="start" x="202.5" y="-487.2" font-family="Helvetica,sans-Serif" font-size="11.00">code</text>
<polygon fill="none" stroke="black" points="311.5,-479 311.5,-501 447.5,-501 447.5,-479 311.5,-479"/>
<text text-anchor="start" x="314.5" y="-487.2" font-family="Helvetica,sans-Serif" font-size="11.00">text[2147483647]</text>
<polygon fill="none" stroke="black" points="182.5,-457 182.5,-479 311.5,-479 311.5,-457 182.5,-457"/>
<text text-anchor="start" x="202.5" y="-465.2" font-family="Helvetica,sans-Serif" font-size="11.00">adres</text>
<polygon fill="none" stroke="black" points="311.5,-457 311.5,-479 447.5,-479 447.5,-457 311.5,-457"/>
<text text-anchor="start" x="314.5" y="-465.2" font-family="Helvetica,sans-Serif" font-size="11.00">text[2147483647]</text>
<polygon fill="none" stroke="black" points="182.5,-435 182.5,-457 311.5,-457 311.5,-435 182.5,-435"/>
<text text-anchor="start" x="202.5" y="-443.2" font-family="Helvetica,sans-Serif" font-size="11.00">bijzonderheden</text>
<polygon fill="none" stroke="black" points="311.5,-435 311.5,-457 447.5,-457 447.5,-435 311.5,-435"/>
<text text-anchor="start" x="314.5" y="-443.2" font-family="Helvetica,sans-Serif" font-size="11.00">text[2147483647]</text>
<polygon fill="none" stroke="black" points="182.5,-413 182.5,-435 311.5,-435 311.5,-413 182.5,-413"/>
<text text-anchor="start" x="202.5" y="-421.2" font-family="Helvetica,sans-Serif" font-size="11.00">plusinfo</text>
<polygon fill="none" stroke="black" points="311.5,-413 311.5,-435 447.5,-435 447.5,-413 311.5,-413"/>
<text text-anchor="start" x="314.5" y="-421.2" font-family="Helvetica,sans-Serif" font-size="11.00">jsonb[2147483647]</text>
<polygon fill="#ffffff" stroke="transparent" points="182.5,-391 182.5,-413 311.5,-413 311.5,-391 182.5,-391"/>
<polygon fill="none" stroke="black" points="182.5,-391 182.5,-413 311.5,-413 311.5,-391 182.5,-391"/>
<image xlink:href="../../images/foreignKeys.png" width="11px" height="12px" preserveAspectRatio="xMinYMin meet" x="187.5" y="-408"/>
<text text-anchor="start" x="202.5" y="-399.2" font-family="Helvetica,sans-Serif" font-size="11.00">fase_id</text>
<polygon fill="none" stroke="black" points="311.5,-391 311.5,-413 447.5,-413 447.5,-391 311.5,-391"/>
<text text-anchor="start" x="314.5" y="-399.2" font-family="Helvetica,sans-Serif" font-size="11.00">int2[5]</text>
<polygon fill="#ffffff" stroke="transparent" points="182.5,-369 182.5,-391 311.5,-391 311.5,-369 182.5,-369"/>
<polygon fill="none" stroke="black" points="182.5,-369 182.5,-391 311.5,-391 311.5,-369 182.5,-369"/>
<image xlink:href="../../images/foreignKeys.png" width="11px" height="12px" preserveAspectRatio="xMinYMin meet" x="187.5" y="-386"/>
<text text-anchor="start" x="202.5" y="-377.2" font-family="Helvetica,sans-Serif" font-size="11.00">object_type_id</text>
<polygon fill="none" stroke="black" points="311.5,-369 311.5,-391 447.5,-391 447.5,-369 311.5,-369"/>
<text text-anchor="start" x="314.5" y="-377.2" font-family="Helvetica,sans-Serif" font-size="11.00">int2[5]</text>
<polygon fill="none" stroke="black" points="182.5,-347 182.5,-369 311.5,-369 311.5,-347 182.5,-347"/>
<text text-anchor="start" x="202.5" y="-355.2" font-family="Helvetica,sans-Serif" font-size="11.00">talud</text>
<polygon fill="none" stroke="black" points="311.5,-347 311.5,-369 447.5,-369 447.5,-347 311.5,-347"/>
<text text-anchor="start" x="314.5" y="-355.2" font-family="Helvetica,sans-Serif" font-size="11.00">varchar[50]</text>
<polygon fill="none" stroke="black" points="182.5,-325 182.5,-347 311.5,-347 311.5,-325 182.5,-325"/>
<text text-anchor="start" x="202.5" y="-333.2" font-family="Helvetica,sans-Serif" font-size="11.00">zicht</text>
<polygon fill="none" stroke="black" points="311.5,-325 311.5,-347 447.5,-347 447.5,-325 311.5,-325"/>
<text text-anchor="start" x="314.5" y="-333.2" font-family="Helvetica,sans-Serif" font-size="11.00">text[2147483647]</text>
<polygon fill="none" stroke="black" points="182.5,-303 182.5,-325 311.5,-325 311.5,-303 182.5,-303"/>
<text text-anchor="start" x="202.5" y="-311.2" font-family="Helvetica,sans-Serif" font-size="11.00">diepte</text>
<polygon fill="none" stroke="black" points="311.5,-303 311.5,-325 447.5,-325 447.5,-303 311.5,-303"/>
<text text-anchor="start" x="314.5" y="-311.2" font-family="Helvetica,sans-Serif" font-size="11.00">numeric[0]</text>
<polygon fill="none" stroke="black" points="182.5,-281 182.5,-303 311.5,-303 311.5,-281 182.5,-281"/>
<text text-anchor="start" x="202.5" y="-289.2" font-family="Helvetica,sans-Serif" font-size="11.00">stroomsnelheid</text>
<polygon fill="none" stroke="black" points="311.5,-281 311.5,-303 447.5,-303 447.5,-281 311.5,-281"/>
<text text-anchor="start" x="314.5" y="-289.2" font-family="Helvetica,sans-Serif" font-size="11.00">text[2147483647]</text>
<polygon fill="none" stroke="black" points="182.5,-259 182.5,-281 311.5,-281 311.5,-259 182.5,-259"/>
<text text-anchor="start" x="202.5" y="-267.2" font-family="Helvetica,sans-Serif" font-size="11.00">beheerder</text>
<polygon fill="none" stroke="black" points="311.5,-259 311.5,-281 447.5,-281 447.5,-259 311.5,-259"/>
<text text-anchor="start" x="314.5" y="-267.2" font-family="Helvetica,sans-Serif" font-size="11.00">text[2147483647]</text>
<polygon fill="none" stroke="black" points="182.5,-237 182.5,-259 311.5,-259 311.5,-237 182.5,-237"/>
<text text-anchor="start" x="202.5" y="-245.2" font-family="Helvetica,sans-Serif" font-size="11.00">marifoon</text>
<polygon fill="none" stroke="black" points="311.5,-237 311.5,-259 447.5,-259 447.5,-237 311.5,-237"/>
<text text-anchor="start" x="314.5" y="-245.2" font-family="Helvetica,sans-Serif" font-size="11.00">text[2147483647]</text>
<polygon fill="none" stroke="black" points="182.5,-215 182.5,-237 311.5,-237 311.5,-215 182.5,-215"/>
<text text-anchor="start" x="202.5" y="-223.2" font-family="Helvetica,sans-Serif" font-size="11.00">risico</text>
<polygon fill="none" stroke="black" points="311.5,-215 311.5,-237 447.5,-237 447.5,-215 311.5,-215"/>
<text text-anchor="start" x="314.5" y="-223.2" font-family="Helvetica,sans-Serif" font-size="11.00">text[2147483647]</text>
<polygon fill="#ffffff" stroke="transparent" points="182.5,-197 182.5,-215 252.5,-215 252.5,-197 182.5,-197"/>
<polygon fill="none" stroke="black" points="182.5,-197 182.5,-215 252.5,-215 252.5,-197 182.5,-197"/>
<text text-anchor="start" x="185.5" y="-203.2" font-family="Helvetica,sans-Serif" font-size="11.00">&lt; 2</text>
<polygon fill="#ffffff" stroke="transparent" points="252.5,-197 252.5,-215 311.5,-215 311.5,-197 252.5,-197"/>
<polygon fill="none" stroke="black" points="252.5,-197 252.5,-215 311.5,-215 311.5,-197 252.5,-197"/>
<text text-anchor="start" x="300.5" y="-203.2" font-family="Helvetica,sans-Serif" font-size="11.00"> &#160;</text>
<polygon fill="#ffffff" stroke="transparent" points="311.5,-197 311.5,-215 447.5,-215 447.5,-197 311.5,-197"/>
<polygon fill="none" stroke="black" points="311.5,-197 311.5,-215 447.5,-215 447.5,-197 311.5,-197"/>
<text text-anchor="start" x="424.5" y="-203.2" font-family="Helvetica,sans-Serif" font-size="11.00">4 &gt;</text>
<polygon fill="none" stroke="black" stroke-width="2" points="181,-196 181,-656 448,-656 448,-196 181,-196"/>
</a>
</g>
</g>
<!-- bereikbaarheid&#45;&gt;object -->
<g id="edge1" class="edge">
<title>bereikbaarheid:w&#45;&gt;object:e</title>
<path fill="none" stroke="black" d="M482.98,-754.64C446.89,-733.7 506.72,-622 448.5,-622"/>
<polygon fill="black" stroke="black" points="489.71,-756.2 496.69,-761.51 493.6,-757.1 497.5,-758 497.5,-758 497.5,-758 493.6,-757.1 498.31,-754.49 489.71,-756.2 489.71,-756.2"/>
<ellipse fill="none" stroke="black" cx="486.59" cy="-755.47" rx="3.2" ry="3.2"/>
</g>
<!-- roi.verbinding -->
<g id="node3" class="node">
<title>roi.verbinding</title>
<g id="a_node3"><a xlink:href="../../../roi/tables/verbinding.html" xlink:title="roi.verbinding" target="_top">
<polygon fill="#ffffff" stroke="transparent" points="245.5,-709 245.5,-767 383.5,-767 383.5,-709 245.5,-709"/>
<polygon fill="#f5f5f5" stroke="transparent" points="245.5,-745 245.5,-767 383.5,-767 383.5,-745 245.5,-745"/>
<polygon fill="none" stroke="black" points="245.5,-745 245.5,-767 383.5,-767 383.5,-745 245.5,-745"/>
<text text-anchor="start" x="250.5" y="-754.2" font-family="Helvetica,sans-Serif" font-weight="bold" font-size="11.00">roi.verbinding</text>
<text text-anchor="start" x="341.5" y="-753.2" font-family="Helvetica,sans-Serif" font-size="11.00">[table]</text>
<polygon fill="none" stroke="black" points="245.5,-727 245.5,-745 383.5,-745 383.5,-727 245.5,-727"/>
<text text-anchor="start" x="248.5" y="-733.2" font-family="Helvetica,sans-Serif" font-size="11.00">...</text>
<polygon fill="#ffffff" stroke="transparent" points="245.5,-709 245.5,-727 301.5,-727 301.5,-709 245.5,-709"/>
<polygon fill="none" stroke="black" points="245.5,-709 245.5,-727 301.5,-727 301.5,-709 245.5,-709"/>
<text text-anchor="start" x="248.5" y="-715.2" font-family="Helvetica,sans-Serif" font-size="11.00"> &#160;</text>
<polygon fill="#ffffff" stroke="transparent" points="301.5,-709 301.5,-727 336.5,-727 336.5,-709 301.5,-709"/>
<polygon fill="none" stroke="black" points="301.5,-709 301.5,-727 336.5,-727 336.5,-709 301.5,-709"/>
<text text-anchor="start" x="325.5" y="-715.2" font-family="Helvetica,sans-Serif" font-size="11.00"> &#160;</text>
<polygon fill="#ffffff" stroke="transparent" points="336.5,-709 336.5,-727 383.5,-727 383.5,-709 336.5,-709"/>
<polygon fill="none" stroke="black" points="336.5,-709 336.5,-727 383.5,-727 383.5,-709 336.5,-709"/>
<text text-anchor="start" x="360.5" y="-715.2" font-family="Helvetica,sans-Serif" font-size="11.00">1 &gt;</text>
</a>
</g>
</g>
<!-- bereikbaarheid&#45;&gt;roi.verbinding -->
<g id="edge2" class="edge">
<title>bereikbaarheid:w&#45;&gt;roi.verbinding:e</title>
<path fill="none" stroke="black" d="M483.03,-736C444.27,-736 429.52,-736 384.5,-736"/>
<polygon fill="black" stroke="black" points="489.5,-736 497.5,-739.6 493.5,-736 497.5,-736 497.5,-736 497.5,-736 493.5,-736 497.5,-732.4 489.5,-736 489.5,-736"/>
<ellipse fill="none" stroke="black" cx="486.3" cy="-736" rx="3.2" ry="3.2"/>
</g>
<!-- roi.fase -->
<g id="node4" class="node">
<title>roi.fase</title>
<g id="a_node4"><a xlink:href="../../../roi/tables/fase.html" xlink:title="roi.fase" target="_top">
<polygon fill="#ffffff" stroke="transparent" points="20,-403 20,-461 119,-461 119,-403 20,-403"/>
<polygon fill="#f5f5f5" stroke="transparent" points="20.5,-439 20.5,-461 119.5,-461 119.5,-439 20.5,-439"/>
<polygon fill="none" stroke="black" points="20.5,-439 20.5,-461 119.5,-461 119.5,-439 20.5,-439"/>
<text text-anchor="start" x="25.5" y="-448.2" font-family="Helvetica,sans-Serif" font-weight="bold" font-size="11.00">roi.fase</text>
<text text-anchor="start" x="77.5" y="-447.2" font-family="Helvetica,sans-Serif" font-size="11.00">[table]</text>
<polygon fill="none" stroke="black" points="20.5,-421 20.5,-439 119.5,-439 119.5,-421 20.5,-421"/>
<text text-anchor="start" x="23.5" y="-427.2" font-family="Helvetica,sans-Serif" font-size="11.00">...</text>
<polygon fill="#ffffff" stroke="transparent" points="20.5,-403 20.5,-421 56.5,-421 56.5,-403 20.5,-403"/>
<polygon fill="none" stroke="black" points="20.5,-403 20.5,-421 56.5,-421 56.5,-403 20.5,-403"/>
<text text-anchor="start" x="23.5" y="-409.2" font-family="Helvetica,sans-Serif" font-size="11.00"> &#160;</text>
<polygon fill="#ffffff" stroke="transparent" points="56.5,-403 56.5,-421 81.5,-421 81.5,-403 56.5,-403"/>
<polygon fill="none" stroke="black" points="56.5,-403 56.5,-421 81.5,-421 81.5,-403 56.5,-403"/>
<text text-anchor="start" x="70.5" y="-409.2" font-family="Helvetica,sans-Serif" font-size="11.00"> &#160;</text>
<polygon fill="#ffffff" stroke="transparent" points="81.5,-403 81.5,-421 119.5,-421 119.5,-403 81.5,-403"/>
<polygon fill="none" stroke="black" points="81.5,-403 81.5,-421 119.5,-421 119.5,-403 81.5,-403"/>
<text text-anchor="start" x="96.5" y="-409.2" font-family="Helvetica,sans-Serif" font-size="11.00">1 &gt;</text>
</a>
</g>
</g>
<!-- object&#45;&gt;roi.fase -->
<g id="edge3" class="edge">
<title>object:w&#45;&gt;roi.fase:e</title>
<path fill="none" stroke="black" d="M166.93,-402.74C153.39,-404.07 139.69,-407.04 127.04,-410.6"/>
<polygon fill="black" stroke="black" points="173.51,-402.41 181.68,-405.6 177.51,-402.2 181.5,-402 181.5,-402 181.5,-402 177.51,-402.2 181.32,-398.4 173.51,-402.41 173.51,-402.41"/>
<ellipse fill="none" stroke="black" cx="170.31" cy="-402.57" rx="3.2" ry="3.2"/>
</g>
<!-- object_type -->
<g id="node5" class="node">
<title>object_type</title>
<g id="a_node5"><a xlink:href="../../tables/object_type.html" xlink:title="object_type" target="_top">
<polygon fill="#ffffff" stroke="transparent" points="8,-302 8,-382 131,-382 131,-302 8,-302"/>
<polygon fill="#f5f5f5" stroke="transparent" points="8.5,-360 8.5,-382 131.5,-382 131.5,-360 8.5,-360"/>
<polygon fill="none" stroke="black" points="8.5,-360 8.5,-382 131.5,-382 131.5,-360 8.5,-360"/>
<text text-anchor="start" x="13.5" y="-369.2" font-family="Helvetica,sans-Serif" font-weight="bold" font-size="11.00">object_type</text>
<text text-anchor="start" x="89.5" y="-368.2" font-family="Helvetica,sans-Serif" font-size="11.00">[table]</text>
<polygon fill="none" stroke="black" points="8.5,-338 8.5,-360 131.5,-360 131.5,-338 8.5,-338"/>
<image xlink:href="../../images/primaryKeys.png" width="11px" height="12px" preserveAspectRatio="xMinYMin meet" x="13.5" y="-355"/>
<text text-anchor="start" x="41.5" y="-346.2" font-family="Helvetica,sans-Serif" font-size="11.00">id</text>
<polygon fill="none" stroke="black" points="8.5,-320 8.5,-338 131.5,-338 131.5,-320 8.5,-320"/>
<text text-anchor="start" x="11.5" y="-326.2" font-family="Helvetica,sans-Serif" font-size="11.00">...</text>
<polygon fill="#ffffff" stroke="transparent" points="8.5,-302 8.5,-320 56.5,-320 56.5,-302 8.5,-302"/>
<polygon fill="none" stroke="black" points="8.5,-302 8.5,-320 56.5,-320 56.5,-302 8.5,-302"/>
<text text-anchor="start" x="11.5" y="-308.2" font-family="Helvetica,sans-Serif" font-size="11.00"> &#160;</text>
<polygon fill="#ffffff" stroke="transparent" points="56.5,-302 56.5,-320 87.5,-320 87.5,-302 56.5,-302"/>
<polygon fill="none" stroke="black" points="56.5,-302 56.5,-320 87.5,-320 87.5,-302 56.5,-302"/>
<text text-anchor="start" x="76.5" y="-308.2" font-family="Helvetica,sans-Serif" font-size="11.00"> &#160;</text>
<polygon fill="#ffffff" stroke="transparent" points="87.5,-302 87.5,-320 131.5,-320 131.5,-302 87.5,-302"/>
<polygon fill="none" stroke="black" points="87.5,-302 87.5,-320 131.5,-320 131.5,-302 87.5,-302"/>
<text text-anchor="start" x="108.5" y="-308.2" font-family="Helvetica,sans-Serif" font-size="11.00">1 &gt;</text>
</a>
</g>
</g>
<!-- object&#45;&gt;object_type -->
<g id="edge4" class="edge">
<title>object:w&#45;&gt;object_type:e</title>
<path fill="none" stroke="black" d="M167.32,-375.69C155.37,-367.17 152.23,-349 132.5,-349"/>
<polygon fill="black" stroke="black" points="173.85,-377.67 180.45,-383.44 177.67,-378.84 181.5,-380 181.5,-380 181.5,-380 177.67,-378.84 182.55,-376.56 173.85,-377.67 173.85,-377.67"/>
<ellipse fill="none" stroke="black" cx="170.78" cy="-376.74" rx="3.2" ry="3.2"/>
</g>
<!-- opstelplaats -->
<g id="node6" class="node">
<title>opstelplaats</title>
<g id="a_node6"><a xlink:href="../../tables/opstelplaats.html" xlink:title="opstelplaats" target="_top">
<polygon fill="#ffffff" stroke="transparent" points="506.5,-337 506.5,-483 634.5,-483 634.5,-337 506.5,-337"/>
<polygon fill="#f5f5f5" stroke="transparent" points="506.5,-461 506.5,-483 634.5,-483 634.5,-461 506.5,-461"/>
<polygon fill="none" stroke="black" points="506.5,-461 506.5,-483 634.5,-483 634.5,-461 506.5,-461"/>
<text text-anchor="start" x="511.5" y="-470.2" font-family="Helvetica,sans-Serif" font-weight="bold" font-size="11.00">opstelplaats</text>
<text text-anchor="start" x="592.5" y="-469.2" font-family="Helvetica,sans-Serif" font-size="11.00">[table]</text>
<polygon fill="none" stroke="black" points="506.5,-439 506.5,-461 634.5,-461 634.5,-439 506.5,-439"/>
<image xlink:href="../../images/primaryKeys.png" width="11px" height="12px" preserveAspectRatio="xMinYMin meet" x="511.5" y="-456"/>
<text text-anchor="start" x="533.5" y="-447.2" font-family="Helvetica,sans-Serif" font-size="11.00">uuid</text>
<polygon fill="#ffffff" stroke="transparent" points="506.5,-417 506.5,-439 634.5,-439 634.5,-417 506.5,-417"/>
<polygon fill="none" stroke="black" points="506.5,-417 506.5,-439 634.5,-439 634.5,-417 506.5,-417"/>
<text text-anchor="start" x="533.5" y="-425.2" font-family="Helvetica,sans-Serif" font-size="11.00">geom</text>
<polygon fill="#ffffff" stroke="transparent" points="506.5,-395 506.5,-417 634.5,-417 634.5,-395 506.5,-395"/>
<polygon fill="none" stroke="black" points="506.5,-395 506.5,-417 634.5,-417 634.5,-395 506.5,-395"/>
<image xlink:href="../../images/foreignKeys.png" width="11px" height="12px" preserveAspectRatio="xMinYMin meet" x="511.5" y="-412"/>
<text text-anchor="start" x="533.5" y="-403.2" font-family="Helvetica,sans-Serif" font-size="11.00">object_uuid</text>
<polygon fill="none" stroke="black" points="506.5,-373 506.5,-395 634.5,-395 634.5,-373 506.5,-373"/>
<image xlink:href="../../images/foreignKeys.png" width="11px" height="12px" preserveAspectRatio="xMinYMin meet" x="511.5" y="-390"/>
<text text-anchor="start" x="533.5" y="-381.2" font-family="Helvetica,sans-Serif" font-size="11.00">voertuig_id</text>
<polygon fill="none" stroke="black" points="506.5,-355 506.5,-373 634.5,-373 634.5,-355 506.5,-355"/>
<text text-anchor="start" x="509.5" y="-361.2" font-family="Helvetica,sans-Serif" font-size="11.00">...</text>
<polygon fill="#ffffff" stroke="transparent" points="506.5,-337 506.5,-355 569.5,-355 569.5,-337 506.5,-337"/>
<polygon fill="none" stroke="black" points="506.5,-337 506.5,-355 569.5,-355 569.5,-337 506.5,-337"/>
<text text-anchor="start" x="509.5" y="-343.2" font-family="Helvetica,sans-Serif" font-size="11.00">&lt; 2</text>
<polygon fill="#ffffff" stroke="transparent" points="569.5,-337 569.5,-355 601.5,-355 601.5,-337 569.5,-337"/>
<polygon fill="none" stroke="black" points="569.5,-337 569.5,-355 601.5,-355 601.5,-337 569.5,-337"/>
<text text-anchor="start" x="590.5" y="-343.2" font-family="Helvetica,sans-Serif" font-size="11.00"> &#160;</text>
<polygon fill="#ffffff" stroke="transparent" points="601.5,-337 601.5,-355 634.5,-355 634.5,-337 601.5,-337"/>
<polygon fill="none" stroke="black" points="601.5,-337 601.5,-355 634.5,-355 634.5,-337 601.5,-337"/>
<text text-anchor="start" x="623.5" y="-343.2" font-family="Helvetica,sans-Serif" font-size="11.00"> &#160;</text>
</a>
</g>
</g>
<!-- opstelplaats&#45;&gt;object -->
<g id="edge5" class="edge">
<title>opstelplaats:w&#45;&gt;object:e</title>
<path fill="none" stroke="black" d="M490.86,-408C421.48,-429.78 542.16,-622 448.5,-622"/>
<polygon fill="black" stroke="black" points="497.57,-407.08 505.99,-409.57 501.54,-406.54 505.5,-406 505.5,-406 505.5,-406 501.54,-406.54 505.01,-402.43 497.57,-407.08 497.57,-407.08"/>
<ellipse fill="none" stroke="black" cx="494.4" cy="-407.52" rx="3.2" ry="3.2"/>
</g>
<!-- roi.voertuig -->
<g id="node7" class="node">
<title>roi.voertuig</title>
<g id="a_node7"><a xlink:href="../../../roi/tables/voertuig.html" xlink:title="roi.voertuig" target="_top">
<polygon fill="#ffffff" stroke="transparent" points="252.5,-116 252.5,-174 376.5,-174 376.5,-116 252.5,-116"/>
<polygon fill="#f5f5f5" stroke="transparent" points="252.5,-152 252.5,-174 376.5,-174 376.5,-152 252.5,-152"/>
<polygon fill="none" stroke="black" points="252.5,-152 252.5,-174 376.5,-174 376.5,-152 252.5,-152"/>
<text text-anchor="start" x="257.5" y="-161.2" font-family="Helvetica,sans-Serif" font-weight="bold" font-size="11.00">roi.voertuig</text>
<text text-anchor="start" x="334.5" y="-160.2" font-family="Helvetica,sans-Serif" font-size="11.00">[table]</text>
<polygon fill="none" stroke="black" points="252.5,-134 252.5,-152 376.5,-152 376.5,-134 252.5,-134"/>
<text text-anchor="start" x="255.5" y="-140.2" font-family="Helvetica,sans-Serif" font-size="11.00">...</text>
<polygon fill="#ffffff" stroke="transparent" points="252.5,-116 252.5,-134 301.5,-134 301.5,-116 252.5,-116"/>
<polygon fill="none" stroke="black" points="252.5,-116 252.5,-134 301.5,-134 301.5,-116 252.5,-116"/>
<text text-anchor="start" x="255.5" y="-122.2" font-family="Helvetica,sans-Serif" font-size="11.00"> &#160;</text>
<polygon fill="#ffffff" stroke="transparent" points="301.5,-116 301.5,-134 332.5,-134 332.5,-116 301.5,-116"/>
<polygon fill="none" stroke="black" points="301.5,-116 301.5,-134 332.5,-134 332.5,-116 301.5,-116"/>
<text text-anchor="start" x="321.5" y="-122.2" font-family="Helvetica,sans-Serif" font-size="11.00"> &#160;</text>
<polygon fill="#ffffff" stroke="transparent" points="332.5,-116 332.5,-134 376.5,-134 376.5,-116 332.5,-116"/>
<polygon fill="none" stroke="black" points="332.5,-116 332.5,-134 376.5,-134 376.5,-116 332.5,-116"/>
<text text-anchor="start" x="353.5" y="-122.2" font-family="Helvetica,sans-Serif" font-size="11.00">1 &gt;</text>
</a>
</g>
</g>
<!-- opstelplaats&#45;&gt;roi.voertuig -->
<g id="edge6" class="edge">
<title>opstelplaats:w&#45;&gt;roi.voertuig:e</title>
<path fill="none" stroke="black" d="M490.97,-382.64C425.83,-368.8 509.56,-252.46 457,-185 432.44,-153.48 417.46,-143 377.5,-143"/>
<polygon fill="black" stroke="black" points="497.53,-383.26 505.16,-387.58 501.52,-383.63 505.5,-384 505.5,-384 505.5,-384 501.52,-383.63 505.84,-380.42 497.53,-383.26 497.53,-383.26"/>
<ellipse fill="none" stroke="black" cx="494.35" cy="-382.96" rx="3.2" ry="3.2"/>
</g>
<!-- risico -->
<g id="node8" class="node">
<title>risico</title>
<g id="a_node8"><a xlink:href="../../tables/risico.html" xlink:title="risico" target="_top">
<polygon fill="#ffffff" stroke="transparent" points="513.5,-544 513.5,-668 627.5,-668 627.5,-544 513.5,-544"/>
<polygon fill="#f5f5f5" stroke="transparent" points="513.5,-646 513.5,-668 627.5,-668 627.5,-646 513.5,-646"/>
<polygon fill="none" stroke="black" points="513.5,-646 513.5,-668 627.5,-668 627.5,-646 513.5,-646"/>
<text text-anchor="start" x="518.5" y="-655.2" font-family="Helvetica,sans-Serif" font-weight="bold" font-size="11.00">risico</text>
<text text-anchor="start" x="585.5" y="-654.2" font-family="Helvetica,sans-Serif" font-size="11.00">[table]</text>
<polygon fill="none" stroke="black" points="513.5,-624 513.5,-646 627.5,-646 627.5,-624 513.5,-624"/>
<image xlink:href="../../images/primaryKeys.png" width="11px" height="12px" preserveAspectRatio="xMinYMin meet" x="518.5" y="-641"/>
<text text-anchor="start" x="533.5" y="-632.2" font-family="Helvetica,sans-Serif" font-size="11.00">uuid</text>
<polygon fill="#ffffff" stroke="transparent" points="513.5,-602 513.5,-624 627.5,-624 627.5,-602 513.5,-602"/>
<polygon fill="none" stroke="black" points="513.5,-602 513.5,-624 627.5,-624 627.5,-602 513.5,-602"/>
<text text-anchor="start" x="533.5" y="-610.2" font-family="Helvetica,sans-Serif" font-size="11.00">geom</text>
<polygon fill="#ffffff" stroke="transparent" points="513.5,-580 513.5,-602 627.5,-602 627.5,-580 513.5,-580"/>
<polygon fill="none" stroke="black" points="513.5,-580 513.5,-602 627.5,-602 627.5,-580 513.5,-580"/>
<image xlink:href="../../images/foreignKeys.png" width="11px" height="12px" preserveAspectRatio="xMinYMin meet" x="518.5" y="-597"/>
<text text-anchor="start" x="533.5" y="-588.2" font-family="Helvetica,sans-Serif" font-size="11.00">object_uuid</text>
<polygon fill="none" stroke="black" points="513.5,-562 513.5,-580 627.5,-580 627.5,-562 513.5,-562"/>
<text text-anchor="start" x="516.5" y="-568.2" font-family="Helvetica,sans-Serif" font-size="11.00">...</text>
<polygon fill="#ffffff" stroke="transparent" points="513.5,-544 513.5,-562 569.5,-562 569.5,-544 513.5,-544"/>
<polygon fill="none" stroke="black" points="513.5,-544 513.5,-562 569.5,-562 569.5,-544 513.5,-544"/>
<text text-anchor="start" x="516.5" y="-550.2" font-family="Helvetica,sans-Serif" font-size="11.00">&lt; 1</text>
<polygon fill="#ffffff" stroke="transparent" points="569.5,-544 569.5,-562 598.5,-562 598.5,-544 569.5,-544"/>
<polygon fill="none" stroke="black" points="569.5,-544 569.5,-562 598.5,-562 598.5,-544 569.5,-544"/>
<text text-anchor="start" x="587.5" y="-550.2" font-family="Helvetica,sans-Serif" font-size="11.00"> &#160;</text>
<polygon fill="#ffffff" stroke="transparent" points="598.5,-544 598.5,-562 627.5,-562 627.5,-544 598.5,-544"/>
<polygon fill="none" stroke="black" points="598.5,-544 598.5,-562 627.5,-562 627.5,-544 598.5,-544"/>
<text text-anchor="start" x="616.5" y="-550.2" font-family="Helvetica,sans-Serif" font-size="11.00"> &#160;</text>
</a>
</g>
</g>
<!-- risico&#45;&gt;object -->
<g id="edge7" class="edge">
<title>risico:w&#45;&gt;object:e</title>
<path fill="none" stroke="black" d="M498.09,-593.64C479.62,-601.14 474.43,-622 448.5,-622"/>
<polygon fill="black" stroke="black" points="504.63,-592.44 513.15,-594.54 508.57,-591.72 512.5,-591 512.5,-591 512.5,-591 508.57,-591.72 511.85,-587.46 504.63,-592.44 504.63,-592.44"/>
<ellipse fill="none" stroke="black" cx="501.48" cy="-593.02" rx="3.2" ry="3.2"/>
</g>
<!-- voorziening -->
<g id="node9" class="node">
<title>voorziening</title>
<g id="a_node9"><a xlink:href="../../tables/voorziening.html" xlink:title="voorziening" target="_top">
<polygon fill="#ffffff" stroke="transparent" points="508.5,-89 508.5,-235 632.5,-235 632.5,-89 508.5,-89"/>
<polygon fill="#f5f5f5" stroke="transparent" points="508.5,-213 508.5,-235 632.5,-235 632.5,-213 508.5,-213"/>
<polygon fill="none" stroke="black" points="508.5,-213 508.5,-235 632.5,-235 632.5,-213 508.5,-213"/>
<text text-anchor="start" x="513.5" y="-222.2" font-family="Helvetica,sans-Serif" font-weight="bold" font-size="11.00">voorziening</text>
<text text-anchor="start" x="590.5" y="-221.2" font-family="Helvetica,sans-Serif" font-size="11.00">[table]</text>
<polygon fill="none" stroke="black" points="508.5,-191 508.5,-213 632.5,-213 632.5,-191 508.5,-191"/>
<image xlink:href="../../images/primaryKeys.png" width="11px" height="12px" preserveAspectRatio="xMinYMin meet" x="513.5" y="-208"/>
<text text-anchor="start" x="533.5" y="-199.2" font-family="Helvetica,sans-Serif" font-size="11.00">uuid</text>
<polygon fill="#ffffff" stroke="transparent" points="508.5,-169 508.5,-191 632.5,-191 632.5,-169 508.5,-169"/>
<polygon fill="none" stroke="black" points="508.5,-169 508.5,-191 632.5,-191 632.5,-169 508.5,-169"/>
<text text-anchor="start" x="533.5" y="-177.2" font-family="Helvetica,sans-Serif" font-size="11.00">geom</text>
<polygon fill="#ffffff" stroke="transparent" points="508.5,-147 508.5,-169 632.5,-169 632.5,-147 508.5,-147"/>
<polygon fill="none" stroke="black" points="508.5,-147 508.5,-169 632.5,-169 632.5,-147 508.5,-147"/>
<image xlink:href="../../images/foreignKeys.png" width="11px" height="12px" preserveAspectRatio="xMinYMin meet" x="513.5" y="-164"/>
<text text-anchor="start" x="533.5" y="-155.2" font-family="Helvetica,sans-Serif" font-size="11.00">object_uuid</text>
<polygon fill="none" stroke="black" points="508.5,-125 508.5,-147 632.5,-147 632.5,-125 508.5,-125"/>
<image xlink:href="../../images/foreignKeys.png" width="11px" height="12px" preserveAspectRatio="xMinYMin meet" x="513.5" y="-142"/>
<text text-anchor="start" x="533.5" y="-133.2" font-family="Helvetica,sans-Serif" font-size="11.00">symbool_id</text>
<polygon fill="none" stroke="black" points="508.5,-107 508.5,-125 632.5,-125 632.5,-107 508.5,-107"/>
<text text-anchor="start" x="511.5" y="-113.2" font-family="Helvetica,sans-Serif" font-size="11.00">...</text>
<polygon fill="#ffffff" stroke="transparent" points="508.5,-89 508.5,-107 569.5,-107 569.5,-89 508.5,-89"/>
<polygon fill="none" stroke="black" points="508.5,-89 508.5,-107 569.5,-107 569.5,-89 508.5,-89"/>
<text text-anchor="start" x="511.5" y="-95.2" font-family="Helvetica,sans-Serif" font-size="11.00">&lt; 2</text>
<polygon fill="#ffffff" stroke="transparent" points="569.5,-89 569.5,-107 600.5,-107 600.5,-89 569.5,-89"/>
<polygon fill="none" stroke="black" points="569.5,-89 569.5,-107 600.5,-107 600.5,-89 569.5,-89"/>
<text text-anchor="start" x="589.5" y="-95.2" font-family="Helvetica,sans-Serif" font-size="11.00"> &#160;</text>
<polygon fill="#ffffff" stroke="transparent" points="600.5,-89 600.5,-107 632.5,-107 632.5,-89 600.5,-89"/>
<polygon fill="none" stroke="black" points="600.5,-89 600.5,-107 632.5,-107 632.5,-89 600.5,-89"/>
<text text-anchor="start" x="621.5" y="-95.2" font-family="Helvetica,sans-Serif" font-size="11.00"> &#160;</text>
</a>
</g>
</g>
<!-- voorziening&#45;&gt;object -->
<g id="edge8" class="edge">
<title>voorziening:w&#45;&gt;object:e</title>
<path fill="none" stroke="black" d="M493.09,-161.73C418.56,-205.65 546.96,-622 448.5,-622"/>
<polygon fill="black" stroke="black" points="499.76,-160.01 508.4,-161.48 503.63,-159 507.5,-158 507.5,-158 507.5,-158 503.63,-159 506.6,-154.52 499.76,-160.01 499.76,-160.01"/>
<ellipse fill="none" stroke="black" cx="496.66" cy="-160.81" rx="3.2" ry="3.2"/>
</g>
<!-- roi.symbool -->
<g id="node10" class="node">
<title>roi.symbool</title>
<g id="a_node10"><a xlink:href="../../../roi/tables/symbool.html" xlink:title="roi.symbool" target="_top">
<polygon fill="#ffffff" stroke="transparent" points="252.5,-37 252.5,-95 376.5,-95 376.5,-37 252.5,-37"/>
<polygon fill="#f5f5f5" stroke="transparent" points="252.5,-73 252.5,-95 376.5,-95 376.5,-73 252.5,-73"/>
<polygon fill="none" stroke="black" points="252.5,-73 252.5,-95 376.5,-95 376.5,-73 252.5,-73"/>
<text text-anchor="start" x="257.5" y="-82.2" font-family="Helvetica,sans-Serif" font-weight="bold" font-size="11.00">roi.symbool</text>
<text text-anchor="start" x="334.5" y="-81.2" font-family="Helvetica,sans-Serif" font-size="11.00">[table]</text>
<polygon fill="none" stroke="black" points="252.5,-55 252.5,-73 376.5,-73 376.5,-55 252.5,-55"/>
<text text-anchor="start" x="255.5" y="-61.2" font-family="Helvetica,sans-Serif" font-size="11.00">...</text>
<polygon fill="#ffffff" stroke="transparent" points="252.5,-37 252.5,-55 301.5,-55 301.5,-37 252.5,-37"/>
<polygon fill="none" stroke="black" points="252.5,-37 252.5,-55 301.5,-55 301.5,-37 252.5,-37"/>
<text text-anchor="start" x="255.5" y="-43.2" font-family="Helvetica,sans-Serif" font-size="11.00"> &#160;</text>
<polygon fill="#ffffff" stroke="transparent" points="301.5,-37 301.5,-55 332.5,-55 332.5,-37 301.5,-37"/>
<polygon fill="none" stroke="black" points="301.5,-37 301.5,-55 332.5,-55 332.5,-37 301.5,-37"/>
<text text-anchor="start" x="321.5" y="-43.2" font-family="Helvetica,sans-Serif" font-size="11.00"> &#160;</text>
<polygon fill="#ffffff" stroke="transparent" points="332.5,-37 332.5,-55 376.5,-55 376.5,-37 332.5,-37"/>
<polygon fill="none" stroke="black" points="332.5,-37 332.5,-55 376.5,-55 376.5,-37 332.5,-37"/>
<text text-anchor="start" x="353.5" y="-43.2" font-family="Helvetica,sans-Serif" font-size="11.00">1 &gt;</text>
</a>
</g>
</g>
<!-- voorziening&#45;&gt;roi.symbool -->
<g id="edge9" class="edge">
<title>voorziening:w&#45;&gt;roi.symbool:e</title>
<path fill="none" stroke="black" d="M493,-133.6C479.57,-128.42 474.61,-115.88 457,-106 422.14,-86.46 417.46,-64 377.5,-64"/>
<polygon fill="black" stroke="black" points="499.61,-134.69 506.91,-139.55 503.55,-135.35 507.5,-136 507.5,-136 507.5,-136 503.55,-135.35 508.09,-132.45 499.61,-134.69 499.61,-134.69"/>
<ellipse fill="none" stroke="black" cx="496.45" cy="-134.17" rx="3.2" ry="3.2"/>
</g>
</g>
</svg>
