<?xml version="1.0" encoding="UTF-8" standalone="no"?>
<!DOCTYPE svg PUBLIC "-//W3C//DTD SVG 1.1//EN"
 "http://www.w3.org/Graphics/SVG/1.1/DTD/svg11.dtd">
<!-- Generated by graphviz version 2.50.0 (0)
 -->
<!-- Title: oneDegreeRelationshipsDiagram Pages: 1 -->
<svg width="410pt" height="245pt"
 viewBox="0.00 0.00 410.00 245.00" xmlns="http://www.w3.org/2000/svg" xmlns:xlink="http://www.w3.org/1999/xlink">
<g id="graph0" class="graph" transform="scale(1 1) rotate(0) translate(4 241)">
<title>oneDegreeRelationshipsDiagram</title>
<polygon fill="#ffffff" stroke="transparent" points="-4,4 -4,-241 406,-241 406,4 -4,4"/>
<text text-anchor="middle" x="79.5" y="-7.2" font-family="Helvetica,sans-Serif" font-size="11.00">Generated by SchemaSpy</text>
<!-- object -->
<g id="node1" class="node">
<title>object</title>
<g id="a_node1"><a xlink:href="../../tables/object.html" xlink:title="object" target="_top">
<polygon fill="#ffffff" stroke="transparent" points="265,-65 265,-233 394,-233 394,-65 265,-65"/>
<polygon fill="#f5f5f5" stroke="transparent" points="265.5,-211 265.5,-233 394.5,-233 394.5,-211 265.5,-211"/>
<polygon fill="none" stroke="black" points="265.5,-211 265.5,-233 394.5,-233 394.5,-211 265.5,-211"/>
<text text-anchor="start" x="270.5" y="-220.2" font-family="Helvetica,sans-Serif" font-weight="bold" font-size="11.00">object</text>
<text text-anchor="start" x="352.5" y="-219.2" font-family="Helvetica,sans-Serif" font-size="11.00">[table]</text>
<polygon fill="none" stroke="black" points="265.5,-189 265.5,-211 394.5,-211 394.5,-189 265.5,-189"/>
<image xlink:href="../../images/primaryKeys.png" width="11px" height="12px" preserveAspectRatio="xMinYMin meet" x="270.5" y="-206"/>
<text text-anchor="start" x="285.5" y="-197.2" font-family="Helvetica,sans-Serif" font-size="11.00">uuid</text>
<polygon fill="#ffffff" stroke="transparent" points="265.5,-167 265.5,-189 394.5,-189 394.5,-167 265.5,-167"/>
<polygon fill="none" stroke="black" points="265.5,-167 265.5,-189 394.5,-189 394.5,-167 265.5,-167"/>
<text text-anchor="start" x="285.5" y="-175.2" font-family="Helvetica,sans-Serif" font-size="11.00">geom</text>
<polygon fill="#ffffff" stroke="transparent" points="265.5,-145 265.5,-167 394.5,-167 394.5,-145 265.5,-145"/>
<polygon fill="none" stroke="black" points="265.5,-145 265.5,-167 394.5,-167 394.5,-145 265.5,-145"/>
<text text-anchor="start" x="285.5" y="-153.2" font-family="Helvetica,sans-Serif" font-size="11.00">revisie_frequentie</text>
<polygon fill="#ffffff" stroke="transparent" points="265.5,-123 265.5,-145 394.5,-145 394.5,-123 265.5,-123"/>
<polygon fill="none" stroke="black" points="265.5,-123 265.5,-145 394.5,-145 394.5,-123 265.5,-123"/>
<image xlink:href="../../images/foreignKeys.png" width="11px" height="12px" preserveAspectRatio="xMinYMin meet" x="270.5" y="-140"/>
<text text-anchor="start" x="285.5" y="-131.2" font-family="Helvetica,sans-Serif" font-size="11.00">fase_id</text>
<polygon fill="#ffffff" stroke="transparent" points="265.5,-101 265.5,-123 394.5,-123 394.5,-101 265.5,-101"/>
<polygon fill="none" stroke="black" points="265.5,-101 265.5,-123 394.5,-123 394.5,-101 265.5,-101"/>
<image xlink:href="../../images/foreignKeys.png" width="11px" height="12px" preserveAspectRatio="xMinYMin meet" x="270.5" y="-118"/>
<text text-anchor="start" x="285.5" y="-109.2" font-family="Helvetica,sans-Serif" font-size="11.00">object_type_id</text>
<polygon fill="none" stroke="black" points="265.5,-83 265.5,-101 394.5,-101 394.5,-83 265.5,-83"/>
<text text-anchor="start" x="268.5" y="-89.2" font-family="Helvetica,sans-Serif" font-size="11.00">...</text>
<polygon fill="#ffffff" stroke="transparent" points="265.5,-65 265.5,-83 322.5,-83 322.5,-65 265.5,-65"/>
<polygon fill="none" stroke="black" points="265.5,-65 265.5,-83 322.5,-83 322.5,-65 265.5,-65"/>
<text text-anchor="start" x="268.5" y="-71.2" font-family="Helvetica,sans-Serif" font-size="11.00">&lt; 2</text>
<polygon fill="#ffffff" stroke="transparent" points="322.5,-65 322.5,-83 352.5,-83 352.5,-65 322.5,-65"/>
<polygon fill="none" stroke="black" points="322.5,-65 322.5,-83 352.5,-83 352.5,-65 322.5,-65"/>
<text text-anchor="start" x="341.5" y="-71.2" font-family="Helvetica,sans-Serif" font-size="11.00"> &#160;</text>
<polygon fill="#ffffff" stroke="transparent" points="352.5,-65 352.5,-83 394.5,-83 394.5,-65 352.5,-65"/>
<polygon fill="none" stroke="black" points="352.5,-65 352.5,-83 394.5,-83 394.5,-65 352.5,-65"/>
<text text-anchor="start" x="371.5" y="-71.2" font-family="Helvetica,sans-Serif" font-size="11.00">4 &gt;</text>
</a>
</g>
</g>
<!-- object_type -->
<g id="node2" class="node">
<title>object_type</title>
<g id="a_node2"><a xlink:href="../../tables/object_type.html" xlink:title="object_type" target="_top">
<polygon fill="#ffffff" stroke="transparent" points="8,-37 8,-147 216,-147 216,-37 8,-37"/>
<polygon fill="#f5f5f5" stroke="transparent" points="10,-123 10,-145 214,-145 214,-123 10,-123"/>
<polygon fill="none" stroke="black" points="10,-123 10,-145 214,-145 214,-123 10,-123"/>
<text text-anchor="start" x="15" y="-132.2" font-family="Helvetica,sans-Serif" font-weight="bold" font-size="11.00">object_type</text>
<text text-anchor="start" x="172" y="-131.2" font-family="Helvetica,sans-Serif" font-size="11.00">[table]</text>
<polygon fill="none" stroke="black" points="10,-101 10,-123 108,-123 108,-101 10,-101"/>
<image xlink:href="../../images/primaryKeys.png" width="11px" height="12px" preserveAspectRatio="xMinYMin meet" x="15" y="-118"/>
<text text-anchor="start" x="30" y="-109.2" font-family="Helvetica,sans-Serif" font-size="11.00">id</text>
<polygon fill="none" stroke="black" points="108,-101 108,-123 214,-123 214,-101 108,-101"/>
<text text-anchor="start" x="111" y="-109.2" font-family="Helvetica,sans-Serif" font-size="11.00">int2[5]</text>
<polygon fill="none" stroke="black" points="10,-79 10,-101 108,-101 108,-79 10,-79"/>
<text text-anchor="start" x="30" y="-87.2" font-family="Helvetica,sans-Serif" font-size="11.00">naam</text>
<polygon fill="none" stroke="black" points="108,-79 108,-101 214,-101 214,-79 108,-79"/>
<text text-anchor="start" x="111" y="-87.2" font-family="Helvetica,sans-Serif" font-size="11.00">text[2147483647]</text>
<polygon fill="none" stroke="black" points="10,-57 10,-79 108,-79 108,-57 10,-57"/>
<text text-anchor="start" x="30" y="-65.2" font-family="Helvetica,sans-Serif" font-size="11.00">omschrijving</text>
<polygon fill="none" stroke="black" points="108,-57 108,-79 214,-79 214,-57 108,-57"/>
<text text-anchor="start" x="111" y="-65.2" font-family="Helvetica,sans-Serif" font-size="11.00">text[2147483647]</text>
<polygon fill="#ffffff" stroke="transparent" points="10,-39 10,-57 65,-57 65,-39 10,-39"/>
<polygon fill="none" stroke="black" points="10,-39 10,-57 65,-57 65,-39 10,-39"/>
<text text-anchor="start" x="13" y="-45.2" font-family="Helvetica,sans-Serif" font-size="11.00">&lt; 0</text>
<polygon fill="#ffffff" stroke="transparent" points="65,-39 65,-57 108,-57 108,-39 65,-39"/>
<polygon fill="none" stroke="black" points="65,-39 65,-57 108,-57 108,-39 65,-39"/>
<text text-anchor="start" x="97" y="-45.2" font-family="Helvetica,sans-Serif" font-size="11.00"> &#160;</text>
<polygon fill="#ffffff" stroke="transparent" points="108,-39 108,-57 214,-57 214,-39 108,-39"/>
<polygon fill="none" stroke="black" points="108,-39 108,-57 214,-57 214,-39 108,-39"/>
<text text-anchor="start" x="191" y="-45.2" font-family="Helvetica,sans-Serif" font-size="11.00">1 &gt;</text>
<polygon fill="none" stroke="black" stroke-width="2" points="9,-38 9,-146 215,-146 215,-38 9,-38"/>
</a>
</g>
</g>
<!-- object&#45;&gt;object_type -->
<g id="edge1" class="edge">
<title>object:w&#45;&gt;object_type:e</title>
<path fill="none" stroke="black" d="M249.84,-112C238.41,-112 231.16,-112 215,-112"/>
<polygon fill="black" stroke="black" points="256.5,-112 264.5,-115.6 260.5,-112 264.5,-112 264.5,-112 264.5,-112 260.5,-112 264.5,-108.4 256.5,-112 256.5,-112"/>
<ellipse fill="none" stroke="black" cx="253.3" cy="-112" rx="3.2" ry="3.2"/>
</g>
</g>
</svg>
