<?xml version="1.0" encoding="UTF-8" standalone="no"?>
<!DOCTYPE svg PUBLIC "-//W3C//DTD SVG 1.1//EN"
 "http://www.w3.org/Graphics/SVG/1.1/DTD/svg11.dtd">
<!-- Generated by graphviz version 2.50.0 (0)
 -->
<!-- Title: twoDegreesRelationshipsDiagram Pages: 1 -->
<svg width="604pt" height="392pt"
 viewBox="0.00 0.00 604.00 392.00" xmlns="http://www.w3.org/2000/svg" xmlns:xlink="http://www.w3.org/1999/xlink">
<g id="graph0" class="graph" transform="scale(1 1) rotate(0) translate(4 388)">
<title>twoDegreesRelationshipsDiagram</title>
<polygon fill="#ffffff" stroke="transparent" points="-4,4 -4,-388 600,-388 600,4 -4,4"/>
<text text-anchor="middle" x="79.5" y="-7.2" font-family="Helvetica,sans-Serif" font-size="11.00">Generated by SchemaSpy</text>
<!-- bereikbaarheid -->
<g id="node1" class="node">
<title>bereikbaarheid</title>
<g id="a_node1"><a xlink:href="../../tables/bereikbaarheid.html" xlink:title="bereikbaarheid" target="_top">
<polygon fill="#ffffff" stroke="transparent" points="443,-322 443,-380 588,-380 588,-322 443,-322"/>
<polygon fill="#f5f5f5" stroke="transparent" points="443.5,-358 443.5,-380 588.5,-380 588.5,-358 443.5,-358"/>
<polygon fill="none" stroke="black" points="443.5,-358 443.5,-380 588.5,-380 588.5,-358 443.5,-358"/>
<text text-anchor="start" x="448.5" y="-367.2" font-family="Helvetica,sans-Serif" font-weight="bold" font-size="11.00">bereikbaarheid</text>
<text text-anchor="start" x="546.5" y="-366.2" font-family="Helvetica,sans-Serif" font-size="11.00">[table]</text>
<polygon fill="none" stroke="black" points="443.5,-340 443.5,-358 588.5,-358 588.5,-340 443.5,-340"/>
<text text-anchor="start" x="446.5" y="-346.2" font-family="Helvetica,sans-Serif" font-size="11.00">...</text>
<polygon fill="#ffffff" stroke="transparent" points="443.5,-322 443.5,-340 514.5,-340 514.5,-322 443.5,-322"/>
<polygon fill="none" stroke="black" points="443.5,-322 443.5,-340 514.5,-340 514.5,-322 443.5,-322"/>
<text text-anchor="start" x="446.5" y="-328.2" font-family="Helvetica,sans-Serif" font-size="11.00">&lt; 2</text>
<polygon fill="#ffffff" stroke="transparent" points="514.5,-322 514.5,-340 551.5,-340 551.5,-322 514.5,-322"/>
<polygon fill="none" stroke="black" points="514.5,-322 514.5,-340 551.5,-340 551.5,-322 514.5,-322"/>
<text text-anchor="start" x="540.5" y="-328.2" font-family="Helvetica,sans-Serif" font-size="11.00"> &#160;</text>
<polygon fill="#ffffff" stroke="transparent" points="551.5,-322 551.5,-340 588.5,-340 588.5,-322 551.5,-322"/>
<polygon fill="none" stroke="black" points="551.5,-322 551.5,-340 588.5,-340 588.5,-322 551.5,-322"/>
<text text-anchor="start" x="577.5" y="-328.2" font-family="Helvetica,sans-Serif" font-size="11.00"> &#160;</text>
</a>
</g>
</g>
<!-- object -->
<g id="node2" class="node">
<title>object</title>
<g id="a_node2"><a xlink:href="../../tables/object.html" xlink:title="object" target="_top">
<polygon fill="#ffffff" stroke="transparent" points="265,-95 265,-263 394,-263 394,-95 265,-95"/>
<polygon fill="#f5f5f5" stroke="transparent" points="265.5,-241 265.5,-263 394.5,-263 394.5,-241 265.5,-241"/>
<polygon fill="none" stroke="black" points="265.5,-241 265.5,-263 394.5,-263 394.5,-241 265.5,-241"/>
<text text-anchor="start" x="270.5" y="-250.2" font-family="Helvetica,sans-Serif" font-weight="bold" font-size="11.00">object</text>
<text text-anchor="start" x="352.5" y="-249.2" font-family="Helvetica,sans-Serif" font-size="11.00">[table]</text>
<polygon fill="none" stroke="black" points="265.5,-219 265.5,-241 394.5,-241 394.5,-219 265.5,-219"/>
<image xlink:href="../../images/primaryKeys.png" width="11px" height="12px" preserveAspectRatio="xMinYMin meet" x="270.5" y="-236"/>
<text text-anchor="start" x="285.5" y="-227.2" font-family="Helvetica,sans-Serif" font-size="11.00">uuid</text>
<polygon fill="#ffffff" stroke="transparent" points="265.5,-197 265.5,-219 394.5,-219 394.5,-197 265.5,-197"/>
<polygon fill="none" stroke="black" points="265.5,-197 265.5,-219 394.5,-219 394.5,-197 265.5,-197"/>
<text text-anchor="start" x="285.5" y="-205.2" font-family="Helvetica,sans-Serif" font-size="11.00">geom</text>
<polygon fill="#ffffff" stroke="transparent" points="265.5,-175 265.5,-197 394.5,-197 394.5,-175 265.5,-175"/>
<polygon fill="none" stroke="black" points="265.5,-175 265.5,-197 394.5,-197 394.5,-175 265.5,-175"/>
<text text-anchor="start" x="285.5" y="-183.2" font-family="Helvetica,sans-Serif" font-size="11.00">revisie_frequentie</text>
<polygon fill="#ffffff" stroke="transparent" points="265.5,-153 265.5,-175 394.5,-175 394.5,-153 265.5,-153"/>
<polygon fill="none" stroke="black" points="265.5,-153 265.5,-175 394.5,-175 394.5,-153 265.5,-153"/>
<image xlink:href="../../images/foreignKeys.png" width="11px" height="12px" preserveAspectRatio="xMinYMin meet" x="270.5" y="-170"/>
<text text-anchor="start" x="285.5" y="-161.2" font-family="Helvetica,sans-Serif" font-size="11.00">fase_id</text>
<polygon fill="#ffffff" stroke="transparent" points="265.5,-131 265.5,-153 394.5,-153 394.5,-131 265.5,-131"/>
<polygon fill="none" stroke="black" points="265.5,-131 265.5,-153 394.5,-153 394.5,-131 265.5,-131"/>
<image xlink:href="../../images/foreignKeys.png" width="11px" height="12px" preserveAspectRatio="xMinYMin meet" x="270.5" y="-148"/>
<text text-anchor="start" x="285.5" y="-139.2" font-family="Helvetica,sans-Serif" font-size="11.00">object_type_id</text>
<polygon fill="none" stroke="black" points="265.5,-113 265.5,-131 394.5,-131 394.5,-113 265.5,-113"/>
<text text-anchor="start" x="268.5" y="-119.2" font-family="Helvetica,sans-Serif" font-size="11.00">...</text>
<polygon fill="#ffffff" stroke="transparent" points="265.5,-95 265.5,-113 322.5,-113 322.5,-95 265.5,-95"/>
<polygon fill="none" stroke="black" points="265.5,-95 265.5,-113 322.5,-113 322.5,-95 265.5,-95"/>
<text text-anchor="start" x="268.5" y="-101.2" font-family="Helvetica,sans-Serif" font-size="11.00">&lt; 2</text>
<polygon fill="#ffffff" stroke="transparent" points="322.5,-95 322.5,-113 352.5,-113 352.5,-95 322.5,-95"/>
<polygon fill="none" stroke="black" points="322.5,-95 322.5,-113 352.5,-113 352.5,-95 322.5,-95"/>
<text text-anchor="start" x="341.5" y="-101.2" font-family="Helvetica,sans-Serif" font-size="11.00"> &#160;</text>
<polygon fill="#ffffff" stroke="transparent" points="352.5,-95 352.5,-113 394.5,-113 394.5,-95 352.5,-95"/>
<polygon fill="none" stroke="black" points="352.5,-95 352.5,-113 394.5,-113 394.5,-95 352.5,-95"/>
<text text-anchor="start" x="371.5" y="-101.2" font-family="Helvetica,sans-Serif" font-size="11.00">4 &gt;</text>
</a>
</g>
</g>
<!-- bereikbaarheid&#45;&gt;object -->
<g id="edge1" class="edge">
<title>bereikbaarheid:w&#45;&gt;object:e</title>
<path fill="none" stroke="black" d="M428.34,-345.31C398.34,-325.22 446.37,-230 395.5,-230"/>
<polygon fill="black" stroke="black" points="434.76,-346.98 441.59,-352.48 438.63,-347.99 442.5,-349 442.5,-349 442.5,-349 438.63,-347.99 443.41,-345.52 434.76,-346.98 434.76,-346.98"/>
<ellipse fill="none" stroke="black" cx="431.66" cy="-346.17" rx="3.2" ry="3.2"/>
</g>
<!-- roi.fase -->
<g id="node3" class="node">
<title>roi.fase</title>
<g id="a_node3"><a xlink:href="../../../roi/tables/fase.html" xlink:title="roi.fase" target="_top">
<polygon fill="#ffffff" stroke="transparent" points="62.5,-168 62.5,-226 161.5,-226 161.5,-168 62.5,-168"/>
<polygon fill="#f5f5f5" stroke="transparent" points="63,-204 63,-226 162,-226 162,-204 63,-204"/>
<polygon fill="none" stroke="black" points="63,-204 63,-226 162,-226 162,-204 63,-204"/>
<text text-anchor="start" x="68" y="-213.2" font-family="Helvetica,sans-Serif" font-weight="bold" font-size="11.00">roi.fase</text>
<text text-anchor="start" x="120" y="-212.2" font-family="Helvetica,sans-Serif" font-size="11.00">[table]</text>
<polygon fill="none" stroke="black" points="63,-186 63,-204 162,-204 162,-186 63,-186"/>
<text text-anchor="start" x="66" y="-192.2" font-family="Helvetica,sans-Serif" font-size="11.00">...</text>
<polygon fill="#ffffff" stroke="transparent" points="63,-168 63,-186 99,-186 99,-168 63,-168"/>
<polygon fill="none" stroke="black" points="63,-168 63,-186 99,-186 99,-168 63,-168"/>
<text text-anchor="start" x="66" y="-174.2" font-family="Helvetica,sans-Serif" font-size="11.00"> &#160;</text>
<polygon fill="#ffffff" stroke="transparent" points="99,-168 99,-186 124,-186 124,-168 99,-168"/>
<polygon fill="none" stroke="black" points="99,-168 99,-186 124,-186 124,-168 99,-168"/>
<text text-anchor="start" x="113" y="-174.2" font-family="Helvetica,sans-Serif" font-size="11.00"> &#160;</text>
<polygon fill="#ffffff" stroke="transparent" points="124,-168 124,-186 162,-186 162,-168 124,-168"/>
<polygon fill="none" stroke="black" points="124,-168 124,-186 162,-186 162,-168 124,-168"/>
<text text-anchor="start" x="139" y="-174.2" font-family="Helvetica,sans-Serif" font-size="11.00">1 &gt;</text>
</a>
</g>
</g>
<!-- object&#45;&gt;roi.fase -->
<g id="edge2" class="edge">
<title>object:w&#45;&gt;roi.fase:e</title>
<path fill="none" stroke="black" d="M249.89,-165.1C215.2,-170.63 204.82,-195 163,-195"/>
<polygon fill="black" stroke="black" points="256.52,-164.6 264.77,-167.59 260.51,-164.3 264.5,-164 264.5,-164 264.5,-164 260.51,-164.3 264.23,-160.41 256.52,-164.6 256.52,-164.6"/>
<ellipse fill="none" stroke="black" cx="253.33" cy="-164.84" rx="3.2" ry="3.2"/>
</g>
<!-- object_type -->
<g id="node4" class="node">
<title>object_type</title>
<g id="a_node4"><a xlink:href="../../tables/object_type.html" xlink:title="object_type" target="_top">
<polygon fill="#ffffff" stroke="transparent" points="8,-37 8,-147 216,-147 216,-37 8,-37"/>
<polygon fill="#f5f5f5" stroke="transparent" points="10,-123 10,-145 214,-145 214,-123 10,-123"/>
<polygon fill="none" stroke="black" points="10,-123 10,-145 214,-145 214,-123 10,-123"/>
<text text-anchor="start" x="15" y="-132.2" font-family="Helvetica,sans-Serif" font-weight="bold" font-size="11.00">object_type</text>
<text text-anchor="start" x="172" y="-131.2" font-family="Helvetica,sans-Serif" font-size="11.00">[table]</text>
<polygon fill="none" stroke="black" points="10,-101 10,-123 108,-123 108,-101 10,-101"/>
<image xlink:href="../../images/primaryKeys.png" width="11px" height="12px" preserveAspectRatio="xMinYMin meet" x="15" y="-118"/>
<text text-anchor="start" x="30" y="-109.2" font-family="Helvetica,sans-Serif" font-size="11.00">id</text>
<polygon fill="none" stroke="black" points="108,-101 108,-123 214,-123 214,-101 108,-101"/>
<text text-anchor="start" x="111" y="-109.2" font-family="Helvetica,sans-Serif" font-size="11.00">int2[5]</text>
<polygon fill="none" stroke="black" points="10,-79 10,-101 108,-101 108,-79 10,-79"/>
<text text-anchor="start" x="30" y="-87.2" font-family="Helvetica,sans-Serif" font-size="11.00">naam</text>
<polygon fill="none" stroke="black" points="108,-79 108,-101 214,-101 214,-79 108,-79"/>
<text text-anchor="start" x="111" y="-87.2" font-family="Helvetica,sans-Serif" font-size="11.00">text[2147483647]</text>
<polygon fill="none" stroke="black" points="10,-57 10,-79 108,-79 108,-57 10,-57"/>
<text text-anchor="start" x="30" y="-65.2" font-family="Helvetica,sans-Serif" font-size="11.00">omschrijving</text>
<polygon fill="none" stroke="black" points="108,-57 108,-79 214,-79 214,-57 108,-57"/>
<text text-anchor="start" x="111" y="-65.2" font-family="Helvetica,sans-Serif" font-size="11.00">text[2147483647]</text>
<polygon fill="#ffffff" stroke="transparent" points="10,-39 10,-57 65,-57 65,-39 10,-39"/>
<polygon fill="none" stroke="black" points="10,-39 10,-57 65,-57 65,-39 10,-39"/>
<text text-anchor="start" x="13" y="-45.2" font-family="Helvetica,sans-Serif" font-size="11.00">&lt; 0</text>
<polygon fill="#ffffff" stroke="transparent" points="65,-39 65,-57 108,-57 108,-39 65,-39"/>
<polygon fill="none" stroke="black" points="65,-39 65,-57 108,-57 108,-39 65,-39"/>
<text text-anchor="start" x="97" y="-45.2" font-family="Helvetica,sans-Serif" font-size="11.00"> &#160;</text>
<polygon fill="#ffffff" stroke="transparent" points="108,-39 108,-57 214,-57 214,-39 108,-39"/>
<polygon fill="none" stroke="black" points="108,-39 108,-57 214,-57 214,-39 108,-39"/>
<text text-anchor="start" x="191" y="-45.2" font-family="Helvetica,sans-Serif" font-size="11.00">1 &gt;</text>
<polygon fill="none" stroke="black" stroke-width="2" points="9,-38 9,-146 215,-146 215,-38 9,-38"/>
</a>
</g>
</g>
<!-- object&#45;&gt;object_type -->
<g id="edge3" class="edge">
<title>object:w&#45;&gt;object_type:e</title>
<path fill="none" stroke="black" d="M250.63,-138.08C238.24,-129.95 234.9,-112 215,-112"/>
<polygon fill="black" stroke="black" points="256.8,-139.82 263.52,-145.46 260.65,-140.91 264.5,-142 264.5,-142 264.5,-142 260.65,-140.91 265.48,-138.54 256.8,-139.82 256.8,-139.82"/>
<ellipse fill="none" stroke="black" cx="253.72" cy="-138.95" rx="3.2" ry="3.2"/>
</g>
<!-- opstelplaats -->
<g id="node5" class="node">
<title>opstelplaats</title>
<g id="a_node5"><a xlink:href="../../tables/opstelplaats.html" xlink:title="opstelplaats" target="_top">
<polygon fill="#ffffff" stroke="transparent" points="451.5,-243 451.5,-301 579.5,-301 579.5,-243 451.5,-243"/>
<polygon fill="#f5f5f5" stroke="transparent" points="451.5,-279 451.5,-301 579.5,-301 579.5,-279 451.5,-279"/>
<polygon fill="none" stroke="black" points="451.5,-279 451.5,-301 579.5,-301 579.5,-279 451.5,-279"/>
<text text-anchor="start" x="456.5" y="-288.2" font-family="Helvetica,sans-Serif" font-weight="bold" font-size="11.00">opstelplaats</text>
<text text-anchor="start" x="537.5" y="-287.2" font-family="Helvetica,sans-Serif" font-size="11.00">[table]</text>
<polygon fill="none" stroke="black" points="451.5,-261 451.5,-279 579.5,-279 579.5,-261 451.5,-261"/>
<text text-anchor="start" x="454.5" y="-267.2" font-family="Helvetica,sans-Serif" font-size="11.00">...</text>
<polygon fill="#ffffff" stroke="transparent" points="451.5,-243 451.5,-261 514.5,-261 514.5,-243 451.5,-243"/>
<polygon fill="none" stroke="black" points="451.5,-243 451.5,-261 514.5,-261 514.5,-243 451.5,-243"/>
<text text-anchor="start" x="454.5" y="-249.2" font-family="Helvetica,sans-Serif" font-size="11.00">&lt; 2</text>
<polygon fill="#ffffff" stroke="transparent" points="514.5,-243 514.5,-261 546.5,-261 546.5,-243 514.5,-243"/>
<polygon fill="none" stroke="black" points="514.5,-243 514.5,-261 546.5,-261 546.5,-243 514.5,-243"/>
<text text-anchor="start" x="535.5" y="-249.2" font-family="Helvetica,sans-Serif" font-size="11.00"> &#160;</text>
<polygon fill="#ffffff" stroke="transparent" points="546.5,-243 546.5,-261 579.5,-261 579.5,-243 546.5,-243"/>
<polygon fill="none" stroke="black" points="546.5,-243 546.5,-261 579.5,-261 579.5,-243 546.5,-243"/>
<text text-anchor="start" x="568.5" y="-249.2" font-family="Helvetica,sans-Serif" font-size="11.00"> &#160;</text>
</a>
</g>
</g>
<!-- opstelplaats&#45;&gt;object -->
<g id="edge4" class="edge">
<title>opstelplaats:w&#45;&gt;object:e</title>
<path fill="none" stroke="black" d="M436.34,-266.02C421.04,-255.9 419.82,-230 395.5,-230"/>
<polygon fill="black" stroke="black" points="442.8,-267.83 449.53,-273.47 446.65,-268.92 450.5,-270 450.5,-270 450.5,-270 446.65,-268.92 451.47,-266.53 442.8,-267.83 442.8,-267.83"/>
<ellipse fill="none" stroke="black" cx="439.72" cy="-266.97" rx="3.2" ry="3.2"/>
</g>
<!-- risico -->
<g id="node6" class="node">
<title>risico</title>
<g id="a_node6"><a xlink:href="../../tables/risico.html" xlink:title="risico" target="_top">
<polygon fill="#ffffff" stroke="transparent" points="473,-164 473,-222 558,-222 558,-164 473,-164"/>
<polygon fill="#f5f5f5" stroke="transparent" points="473.5,-200 473.5,-222 558.5,-222 558.5,-200 473.5,-200"/>
<polygon fill="none" stroke="black" points="473.5,-200 473.5,-222 558.5,-222 558.5,-200 473.5,-200"/>
<text text-anchor="start" x="478.5" y="-209.2" font-family="Helvetica,sans-Serif" font-weight="bold" font-size="11.00">risico</text>
<text text-anchor="start" x="516.5" y="-208.2" font-family="Helvetica,sans-Serif" font-size="11.00">[table]</text>
<polygon fill="none" stroke="black" points="473.5,-182 473.5,-200 558.5,-200 558.5,-182 473.5,-182"/>
<text text-anchor="start" x="476.5" y="-188.2" font-family="Helvetica,sans-Serif" font-size="11.00">...</text>
<polygon fill="#ffffff" stroke="transparent" points="473.5,-164 473.5,-182 514.5,-182 514.5,-164 473.5,-164"/>
<polygon fill="none" stroke="black" points="473.5,-164 473.5,-182 514.5,-182 514.5,-164 473.5,-164"/>
<text text-anchor="start" x="476.5" y="-170.2" font-family="Helvetica,sans-Serif" font-size="11.00">&lt; 1</text>
<polygon fill="#ffffff" stroke="transparent" points="514.5,-164 514.5,-182 536.5,-182 536.5,-164 514.5,-164"/>
<polygon fill="none" stroke="black" points="514.5,-164 514.5,-182 536.5,-182 536.5,-164 514.5,-164"/>
<text text-anchor="start" x="525.5" y="-170.2" font-family="Helvetica,sans-Serif" font-size="11.00"> &#160;</text>
<polygon fill="#ffffff" stroke="transparent" points="536.5,-164 536.5,-182 558.5,-182 558.5,-164 536.5,-164"/>
<polygon fill="none" stroke="black" points="536.5,-164 536.5,-182 558.5,-182 558.5,-164 536.5,-164"/>
<text text-anchor="start" x="547.5" y="-170.2" font-family="Helvetica,sans-Serif" font-size="11.00"> &#160;</text>
</a>
</g>
</g>
<!-- risico&#45;&gt;object -->
<g id="edge5" class="edge">
<title>risico:w&#45;&gt;object:e</title>
<path fill="none" stroke="black" d="M458.02,-193.21C433.26,-201.46 428.32,-230 395.5,-230"/>
<polygon fill="black" stroke="black" points="464.59,-192.21 473.04,-194.56 468.55,-191.6 472.5,-191 472.5,-191 472.5,-191 468.55,-191.6 471.96,-187.44 464.59,-192.21 464.59,-192.21"/>
<ellipse fill="none" stroke="black" cx="461.43" cy="-192.69" rx="3.2" ry="3.2"/>
</g>
<!-- voorziening -->
<g id="node7" class="node">
<title>voorziening</title>
<g id="a_node7"><a xlink:href="../../tables/voorziening.html" xlink:title="voorziening" target="_top">
<polygon fill="#ffffff" stroke="transparent" points="453.5,-85 453.5,-143 577.5,-143 577.5,-85 453.5,-85"/>
<polygon fill="#f5f5f5" stroke="transparent" points="453.5,-121 453.5,-143 577.5,-143 577.5,-121 453.5,-121"/>
<polygon fill="none" stroke="black" points="453.5,-121 453.5,-143 577.5,-143 577.5,-121 453.5,-121"/>
<text text-anchor="start" x="458.5" y="-130.2" font-family="Helvetica,sans-Serif" font-weight="bold" font-size="11.00">voorziening</text>
<text text-anchor="start" x="535.5" y="-129.2" font-family="Helvetica,sans-Serif" font-size="11.00">[table]</text>
<polygon fill="none" stroke="black" points="453.5,-103 453.5,-121 577.5,-121 577.5,-103 453.5,-103"/>
<text text-anchor="start" x="456.5" y="-109.2" font-family="Helvetica,sans-Serif" font-size="11.00">...</text>
<polygon fill="#ffffff" stroke="transparent" points="453.5,-85 453.5,-103 514.5,-103 514.5,-85 453.5,-85"/>
<polygon fill="none" stroke="black" points="453.5,-85 453.5,-103 514.5,-103 514.5,-85 453.5,-85"/>
<text text-anchor="start" x="456.5" y="-91.2" font-family="Helvetica,sans-Serif" font-size="11.00">&lt; 2</text>
<polygon fill="#ffffff" stroke="transparent" points="514.5,-85 514.5,-103 545.5,-103 545.5,-85 514.5,-85"/>
<polygon fill="none" stroke="black" points="514.5,-85 514.5,-103 545.5,-103 545.5,-85 514.5,-85"/>
<text text-anchor="start" x="534.5" y="-91.2" font-family="Helvetica,sans-Serif" font-size="11.00"> &#160;</text>
<polygon fill="#ffffff" stroke="transparent" points="545.5,-85 545.5,-103 577.5,-103 577.5,-85 545.5,-85"/>
<polygon fill="none" stroke="black" points="545.5,-85 545.5,-103 577.5,-103 577.5,-85 545.5,-85"/>
<text text-anchor="start" x="566.5" y="-91.2" font-family="Helvetica,sans-Serif" font-size="11.00"> &#160;</text>
</a>
</g>
</g>
<!-- voorziening&#45;&gt;object -->
<g id="edge6" class="edge">
<title>voorziening:w&#45;&gt;object:e</title>
<path fill="none" stroke="black" d="M438.15,-115.4C405.13,-134.75 447.83,-230 395.5,-230"/>
<polygon fill="black" stroke="black" points="444.72,-113.85 453.33,-115.5 448.61,-112.92 452.5,-112 452.5,-112 452.5,-112 448.61,-112.92 451.67,-108.5 444.72,-113.85 444.72,-113.85"/>
<ellipse fill="none" stroke="black" cx="441.6" cy="-114.59" rx="3.2" ry="3.2"/>
</g>
</g>
</svg>
