<?xml version="1.0" encoding="UTF-8" standalone="no"?>
<!DOCTYPE svg PUBLIC "-//W3C//DTD SVG 1.1//EN"
 "http://www.w3.org/Graphics/SVG/1.1/DTD/svg11.dtd">
<!-- Generated by graphviz version 2.50.0 (0)
 -->
<!-- Title: oneDegreeRelationshipsDiagram Pages: 1 -->
<svg width="659pt" height="804pt"
 viewBox="0.00 0.00 659.00 804.00" xmlns="http://www.w3.org/2000/svg" xmlns:xlink="http://www.w3.org/1999/xlink">
<g id="graph0" class="graph" transform="scale(1 1) rotate(0) translate(4 800)">
<title>oneDegreeRelationshipsDiagram</title>
<polygon fill="#ffffff" stroke="transparent" points="-4,4 -4,-800 655,-800 655,4 -4,4"/>
<text text-anchor="middle" x="79.5" y="-7.2" font-family="Helvetica,sans-Serif" font-size="11.00">Generated by SchemaSpy</text>
<!-- bereikbaarheid -->
<g id="node1" class="node">
<title>bereikbaarheid</title>
<g id="a_node1"><a xlink:href="../../tables/bereikbaarheid.html" xlink:title="bereikbaarheid" target="_top">
<polygon fill="#ffffff" stroke="transparent" points="498,-646 498,-792 643,-792 643,-646 498,-646"/>
<polygon fill="#f5f5f5" stroke="transparent" points="498.5,-770 498.5,-792 643.5,-792 643.5,-770 498.5,-770"/>
<polygon fill="none" stroke="black" points="498.5,-770 498.5,-792 643.5,-792 643.5,-770 498.5,-770"/>
<text text-anchor="start" x="503.5" y="-779.2" font-family="Helvetica,sans-Serif" font-weight="bold" font-size="11.00">bereikbaarheid</text>
<text text-anchor="start" x="601.5" y="-778.2" font-family="Helvetica,sans-Serif" font-size="11.00">[table]</text>
<polygon fill="none" stroke="black" points="498.5,-748 498.5,-770 643.5,-770 643.5,-748 498.5,-748"/>
<image xlink:href="../../images/primaryKeys.png" width="11px" height="12px" preserveAspectRatio="xMinYMin meet" x="503.5" y="-765"/>
<text text-anchor="start" x="534.5" y="-756.2" font-family="Helvetica,sans-Serif" font-size="11.00">uuid</text>
<polygon fill="#ffffff" stroke="transparent" points="498.5,-726 498.5,-748 643.5,-748 643.5,-726 498.5,-726"/>
<polygon fill="none" stroke="black" points="498.5,-726 498.5,-748 643.5,-748 643.5,-726 498.5,-726"/>
<text text-anchor="start" x="534.5" y="-734.2" font-family="Helvetica,sans-Serif" font-size="11.00">geom</text>
<polygon fill="#ffffff" stroke="transparent" points="498.5,-704 498.5,-726 643.5,-726 643.5,-704 498.5,-704"/>
<polygon fill="none" stroke="black" points="498.5,-704 498.5,-726 643.5,-726 643.5,-704 498.5,-704"/>
<image xlink:href="../../images/foreignKeys.png" width="11px" height="12px" preserveAspectRatio="xMinYMin meet" x="503.5" y="-721"/>
<text text-anchor="start" x="534.5" y="-712.2" font-family="Helvetica,sans-Serif" font-size="11.00">object_uuid</text>
<polygon fill="none" stroke="black" points="498.5,-682 498.5,-704 643.5,-704 643.5,-682 498.5,-682"/>
<image xlink:href="../../images/foreignKeys.png" width="11px" height="12px" preserveAspectRatio="xMinYMin meet" x="503.5" y="-699"/>
<text text-anchor="start" x="534.5" y="-690.2" font-family="Helvetica,sans-Serif" font-size="11.00">verbinding_id</text>
<polygon fill="none" stroke="black" points="498.5,-664 498.5,-682 643.5,-682 643.5,-664 498.5,-664"/>
<text text-anchor="start" x="501.5" y="-670.2" font-family="Helvetica,sans-Serif" font-size="11.00">...</text>
<polygon fill="#ffffff" stroke="transparent" points="498.5,-646 498.5,-664 569.5,-664 569.5,-646 498.5,-646"/>
<polygon fill="none" stroke="black" points="498.5,-646 498.5,-664 569.5,-664 569.5,-646 498.5,-646"/>
<text text-anchor="start" x="501.5" y="-652.2" font-family="Helvetica,sans-Serif" font-size="11.00">&lt; 2</text>
<polygon fill="#ffffff" stroke="transparent" points="569.5,-646 569.5,-664 606.5,-664 606.5,-646 569.5,-646"/>
<polygon fill="none" stroke="black" points="569.5,-646 569.5,-664 606.5,-664 606.5,-646 569.5,-646"/>
<text text-anchor="start" x="595.5" y="-652.2" font-family="Helvetica,sans-Serif" font-size="11.00"> &#160;</text>
<polygon fill="#ffffff" stroke="transparent" points="606.5,-646 606.5,-664 643.5,-664 643.5,-646 606.5,-646"/>
<polygon fill="none" stroke="black" points="606.5,-646 606.5,-664 643.5,-664 643.5,-646 606.5,-646"/>
<text text-anchor="start" x="632.5" y="-652.2" font-family="Helvetica,sans-Serif" font-size="11.00"> &#160;</text>
</a>
</g>
</g>
<!-- object -->
<g id="node2" class="node">
<title>object</title>
<g id="a_node2"><a xlink:href="../../tables/object.html" xlink:title="object" target="_top">
<polygon fill="#ffffff" stroke="transparent" points="180,-37 180,-499 449,-499 449,-37 180,-37"/>
<polygon fill="#f5f5f5" stroke="transparent" points="182.5,-475 182.5,-497 447.5,-497 447.5,-475 182.5,-475"/>
<polygon fill="none" stroke="black" points="182.5,-475 182.5,-497 447.5,-497 447.5,-475 182.5,-475"/>
<text text-anchor="start" x="187.5" y="-484.2" font-family="Helvetica,sans-Serif" font-weight="bold" font-size="11.00">object</text>
<text text-anchor="start" x="405.5" y="-483.2" font-family="Helvetica,sans-Serif" font-size="11.00">[table]</text>
<polygon fill="none" stroke="black" points="182.5,-453 182.5,-475 311.5,-475 311.5,-453 182.5,-453"/>
<image xlink:href="../../images/primaryKeys.png" width="11px" height="12px" preserveAspectRatio="xMinYMin meet" x="187.5" y="-470"/>
<text text-anchor="start" x="202.5" y="-461.2" font-family="Helvetica,sans-Serif" font-size="11.00">uuid</text>
<polygon fill="none" stroke="black" points="311.5,-453 311.5,-475 447.5,-475 447.5,-453 311.5,-453"/>
<text text-anchor="start" x="314.5" y="-461.2" font-family="Helvetica,sans-Serif" font-size="11.00">uuid[2147483647]</text>
<polygon fill="#ffffff" stroke="transparent" points="182.5,-431 182.5,-453 311.5,-453 311.5,-431 182.5,-431"/>
<polygon fill="none" stroke="black" points="182.5,-431 182.5,-453 311.5,-453 311.5,-431 182.5,-431"/>
<text text-anchor="start" x="202.5" y="-439.2" font-family="Helvetica,sans-Serif" font-size="11.00">geom</text>
<polygon fill="none" stroke="black" points="311.5,-431 311.5,-453 447.5,-453 447.5,-431 311.5,-431"/>
<text text-anchor="start" x="314.5" y="-439.2" font-family="Helvetica,sans-Serif" font-size="11.00">geometry[2147483647]</text>
<polygon fill="none" stroke="black" points="182.5,-409 182.5,-431 311.5,-431 311.5,-409 182.5,-409"/>
<text text-anchor="start" x="202.5" y="-417.2" font-family="Helvetica,sans-Serif" font-size="11.00">datumtijd</text>
<polygon fill="none" stroke="black" points="311.5,-409 311.5,-431 447.5,-431 447.5,-409 311.5,-409"/>
<text text-anchor="start" x="314.5" y="-417.2" font-family="Helvetica,sans-Serif" font-size="11.00">timestamptz[35,6]</text>
<polygon fill="none" stroke="black" points="182.5,-387 182.5,-409 311.5,-409 311.5,-387 182.5,-387"/>
<text text-anchor="start" x="202.5" y="-395.2" font-family="Helvetica,sans-Serif" font-size="11.00">gebruiker</text>
<polygon fill="none" stroke="black" points="311.5,-387 311.5,-409 447.5,-409 447.5,-387 311.5,-387"/>
<text text-anchor="start" x="314.5" y="-395.2" font-family="Helvetica,sans-Serif" font-size="11.00">varchar[255]</text>
<polygon fill="#ffffff" stroke="transparent" points="182.5,-365 182.5,-387 311.5,-387 311.5,-365 182.5,-365"/>
<polygon fill="none" stroke="black" points="182.5,-365 182.5,-387 311.5,-387 311.5,-365 182.5,-365"/>
<text text-anchor="start" x="202.5" y="-373.2" font-family="Helvetica,sans-Serif" font-size="11.00">revisie_frequentie</text>
<polygon fill="none" stroke="black" points="311.5,-365 311.5,-387 447.5,-387 447.5,-365 311.5,-365"/>
<text text-anchor="start" x="314.5" y="-373.2" font-family="Helvetica,sans-Serif" font-size="11.00">int2[5]</text>
<polygon fill="none" stroke="black" points="182.5,-343 182.5,-365 311.5,-365 311.5,-343 182.5,-343"/>
<text text-anchor="start" x="202.5" y="-351.2" font-family="Helvetica,sans-Serif" font-size="11.00">formelenaam</text>
<polygon fill="none" stroke="black" points="311.5,-343 311.5,-365 447.5,-365 447.5,-343 311.5,-343"/>
<text text-anchor="start" x="314.5" y="-351.2" font-family="Helvetica,sans-Serif" font-size="11.00">text[2147483647]</text>
<polygon fill="none" stroke="black" points="182.5,-321 182.5,-343 311.5,-343 311.5,-321 182.5,-321"/>
<text text-anchor="start" x="202.5" y="-329.2" font-family="Helvetica,sans-Serif" font-size="11.00">code</text>
<polygon fill="none" stroke="black" points="311.5,-321 311.5,-343 447.5,-343 447.5,-321 311.5,-321"/>
<text text-anchor="start" x="314.5" y="-329.2" font-family="Helvetica,sans-Serif" font-size="11.00">text[2147483647]</text>
<polygon fill="none" stroke="black" points="182.5,-299 182.5,-321 311.5,-321 311.5,-299 182.5,-299"/>
<text text-anchor="start" x="202.5" y="-307.2" font-family="Helvetica,sans-Serif" font-size="11.00">adres</text>
<polygon fill="none" stroke="black" points="311.5,-299 311.5,-321 447.5,-321 447.5,-299 311.5,-299"/>
<text text-anchor="start" x="314.5" y="-307.2" font-family="Helvetica,sans-Serif" font-size="11.00">text[2147483647]</text>
<polygon fill="none" stroke="black" points="182.5,-277 182.5,-299 311.5,-299 311.5,-277 182.5,-277"/>
<text text-anchor="start" x="202.5" y="-285.2" font-family="Helvetica,sans-Serif" font-size="11.00">bijzonderheden</text>
<polygon fill="none" stroke="black" points="311.5,-277 311.5,-299 447.5,-299 447.5,-277 311.5,-277"/>
<text text-anchor="start" x="314.5" y="-285.2" font-family="Helvetica,sans-Serif" font-size="11.00">text[2147483647]</text>
<polygon fill="none" stroke="black" points="182.5,-255 182.5,-277 311.5,-277 311.5,-255 182.5,-255"/>
<text text-anchor="start" x="202.5" y="-263.2" font-family="Helvetica,sans-Serif" font-size="11.00">plusinfo</text>
<polygon fill="none" stroke="black" points="311.5,-255 311.5,-277 447.5,-277 447.5,-255 311.5,-255"/>
<text text-anchor="start" x="314.5" y="-263.2" font-family="Helvetica,sans-Serif" font-size="11.00">jsonb[2147483647]</text>
<polygon fill="#ffffff" stroke="transparent" points="182.5,-233 182.5,-255 311.5,-255 311.5,-233 182.5,-233"/>
<polygon fill="none" stroke="black" points="182.5,-233 182.5,-255 311.5,-255 311.5,-233 182.5,-233"/>
<image xlink:href="../../images/foreignKeys.png" width="11px" height="12px" preserveAspectRatio="xMinYMin meet" x="187.5" y="-250"/>
<text text-anchor="start" x="202.5" y="-241.2" font-family="Helvetica,sans-Serif" font-size="11.00">fase_id</text>
<polygon fill="none" stroke="black" points="311.5,-233 311.5,-255 447.5,-255 447.5,-233 311.5,-233"/>
<text text-anchor="start" x="314.5" y="-241.2" font-family="Helvetica,sans-Serif" font-size="11.00">int2[5]</text>
<polygon fill="#ffffff" stroke="transparent" points="182.5,-211 182.5,-233 311.5,-233 311.5,-211 182.5,-211"/>
<polygon fill="none" stroke="black" points="182.5,-211 182.5,-233 311.5,-233 311.5,-211 182.5,-211"/>
<image xlink:href="../../images/foreignKeys.png" width="11px" height="12px" preserveAspectRatio="xMinYMin meet" x="187.5" y="-228"/>
<text text-anchor="start" x="202.5" y="-219.2" font-family="Helvetica,sans-Serif" font-size="11.00">object_type_id</text>
<polygon fill="none" stroke="black" points="311.5,-211 311.5,-233 447.5,-233 447.5,-211 311.5,-211"/>
<text text-anchor="start" x="314.5" y="-219.2" font-family="Helvetica,sans-Serif" font-size="11.00">int2[5]</text>
<polygon fill="none" stroke="black" points="182.5,-189 182.5,-211 311.5,-211 311.5,-189 182.5,-189"/>
<text text-anchor="start" x="202.5" y="-197.2" font-family="Helvetica,sans-Serif" font-size="11.00">talud</text>
<polygon fill="none" stroke="black" points="311.5,-189 311.5,-211 447.5,-211 447.5,-189 311.5,-189"/>
<text text-anchor="start" x="314.5" y="-197.2" font-family="Helvetica,sans-Serif" font-size="11.00">varchar[50]</text>
<polygon fill="none" stroke="black" points="182.5,-167 182.5,-189 311.5,-189 311.5,-167 182.5,-167"/>
<text text-anchor="start" x="202.5" y="-175.2" font-family="Helvetica,sans-Serif" font-size="11.00">zicht</text>
<polygon fill="none" stroke="black" points="311.5,-167 311.5,-189 447.5,-189 447.5,-167 311.5,-167"/>
<text text-anchor="start" x="314.5" y="-175.2" font-family="Helvetica,sans-Serif" font-size="11.00">text[2147483647]</text>
<polygon fill="none" stroke="black" points="182.5,-145 182.5,-167 311.5,-167 311.5,-145 182.5,-145"/>
<text text-anchor="start" x="202.5" y="-153.2" font-family="Helvetica,sans-Serif" font-size="11.00">diepte</text>
<polygon fill="none" stroke="black" points="311.5,-145 311.5,-167 447.5,-167 447.5,-145 311.5,-145"/>
<text text-anchor="start" x="314.5" y="-153.2" font-family="Helvetica,sans-Serif" font-size="11.00">numeric[0]</text>
<polygon fill="none" stroke="black" points="182.5,-123 182.5,-145 311.5,-145 311.5,-123 182.5,-123"/>
<text text-anchor="start" x="202.5" y="-131.2" font-family="Helvetica,sans-Serif" font-size="11.00">stroomsnelheid</text>
<polygon fill="none" stroke="black" points="311.5,-123 311.5,-145 447.5,-145 447.5,-123 311.5,-123"/>
<text text-anchor="start" x="314.5" y="-131.2" font-family="Helvetica,sans-Serif" font-size="11.00">text[2147483647]</text>
<polygon fill="none" stroke="black" points="182.5,-101 182.5,-123 311.5,-123 311.5,-101 182.5,-101"/>
<text text-anchor="start" x="202.5" y="-109.2" font-family="Helvetica,sans-Serif" font-size="11.00">beheerder</text>
<polygon fill="none" stroke="black" points="311.5,-101 311.5,-123 447.5,-123 447.5,-101 311.5,-101"/>
<text text-anchor="start" x="314.5" y="-109.2" font-family="Helvetica,sans-Serif" font-size="11.00">text[2147483647]</text>
<polygon fill="none" stroke="black" points="182.5,-79 182.5,-101 311.5,-101 311.5,-79 182.5,-79"/>
<text text-anchor="start" x="202.5" y="-87.2" font-family="Helvetica,sans-Serif" font-size="11.00">marifoon</text>
<polygon fill="none" stroke="black" points="311.5,-79 311.5,-101 447.5,-101 447.5,-79 311.5,-79"/>
<text text-anchor="start" x="314.5" y="-87.2" font-family="Helvetica,sans-Serif" font-size="11.00">text[2147483647]</text>
<polygon fill="none" stroke="black" points="182.5,-57 182.5,-79 311.5,-79 311.5,-57 182.5,-57"/>
<text text-anchor="start" x="202.5" y="-65.2" font-family="Helvetica,sans-Serif" font-size="11.00">risico</text>
<polygon fill="none" stroke="black" points="311.5,-57 311.5,-79 447.5,-79 447.5,-57 311.5,-57"/>
<text text-anchor="start" x="314.5" y="-65.2" font-family="Helvetica,sans-Serif" font-size="11.00">text[2147483647]</text>
<polygon fill="#ffffff" stroke="transparent" points="182.5,-39 182.5,-57 252.5,-57 252.5,-39 182.5,-39"/>
<polygon fill="none" stroke="black" points="182.5,-39 182.5,-57 252.5,-57 252.5,-39 182.5,-39"/>
<text text-anchor="start" x="185.5" y="-45.2" font-family="Helvetica,sans-Serif" font-size="11.00">&lt; 2</text>
<polygon fill="#ffffff" stroke="transparent" points="252.5,-39 252.5,-57 311.5,-57 311.5,-39 252.5,-39"/>
<polygon fill="none" stroke="black" points="252.5,-39 252.5,-57 311.5,-57 311.5,-39 252.5,-39"/>
<text text-anchor="start" x="300.5" y="-45.2" font-family="Helvetica,sans-Serif" font-size="11.00"> &#160;</text>
<polygon fill="#ffffff" stroke="transparent" points="311.5,-39 311.5,-57 447.5,-57 447.5,-39 311.5,-39"/>
<polygon fill="none" stroke="black" points="311.5,-39 311.5,-57 447.5,-57 447.5,-39 311.5,-39"/>
<text text-anchor="start" x="424.5" y="-45.2" font-family="Helvetica,sans-Serif" font-size="11.00">4 &gt;</text>
<polygon fill="none" stroke="black" stroke-width="2" points="181,-38 181,-498 448,-498 448,-38 181,-38"/>
</a>
</g>
</g>
<!-- bereikbaarheid&#45;&gt;object -->
<g id="edge1" class="edge">
<title>bereikbaarheid:w&#45;&gt;object:e</title>
<path fill="none" stroke="black" d="M483.13,-713.33C400.24,-691.55 556.72,-464 448.5,-464"/>
<polygon fill="black" stroke="black" points="489.55,-714.08 497.08,-718.58 493.53,-714.54 497.5,-715 497.5,-715 497.5,-715 493.53,-714.54 497.92,-711.42 489.55,-714.08 489.55,-714.08"/>
<ellipse fill="none" stroke="black" cx="486.37" cy="-713.71" rx="3.2" ry="3.2"/>
</g>
<!-- roi.fase -->
<g id="node3" class="node">
<title>roi.fase</title>
<g id="a_node3"><a xlink:href="../../../roi/tables/fase.html" xlink:title="roi.fase" target="_top">
<polygon fill="#ffffff" stroke="transparent" points="20,-246 20,-304 119,-304 119,-246 20,-246"/>
<polygon fill="#f5f5f5" stroke="transparent" points="20.5,-282 20.5,-304 119.5,-304 119.5,-282 20.5,-282"/>
<polygon fill="none" stroke="black" points="20.5,-282 20.5,-304 119.5,-304 119.5,-282 20.5,-282"/>
<text text-anchor="start" x="25.5" y="-291.2" font-family="Helvetica,sans-Serif" font-weight="bold" font-size="11.00">roi.fase</text>
<text text-anchor="start" x="77.5" y="-290.2" font-family="Helvetica,sans-Serif" font-size="11.00">[table]</text>
<polygon fill="none" stroke="black" points="20.5,-264 20.5,-282 119.5,-282 119.5,-264 20.5,-264"/>
<text text-anchor="start" x="23.5" y="-270.2" font-family="Helvetica,sans-Serif" font-size="11.00">...</text>
<polygon fill="#ffffff" stroke="transparent" points="20.5,-246 20.5,-264 56.5,-264 56.5,-246 20.5,-246"/>
<polygon fill="none" stroke="black" points="20.5,-246 20.5,-264 56.5,-264 56.5,-246 20.5,-246"/>
<text text-anchor="start" x="23.5" y="-252.2" font-family="Helvetica,sans-Serif" font-size="11.00"> &#160;</text>
<polygon fill="#ffffff" stroke="transparent" points="56.5,-246 56.5,-264 81.5,-264 81.5,-246 56.5,-246"/>
<polygon fill="none" stroke="black" points="56.5,-246 56.5,-264 81.5,-264 81.5,-246 56.5,-246"/>
<text text-anchor="start" x="70.5" y="-252.2" font-family="Helvetica,sans-Serif" font-size="11.00"> &#160;</text>
<polygon fill="#ffffff" stroke="transparent" points="81.5,-246 81.5,-264 119.5,-264 119.5,-246 81.5,-246"/>
<polygon fill="none" stroke="black" points="81.5,-246 81.5,-264 119.5,-264 119.5,-246 81.5,-246"/>
<text text-anchor="start" x="96.5" y="-252.2" font-family="Helvetica,sans-Serif" font-size="11.00">1 &gt;</text>
</a>
</g>
</g>
<!-- object&#45;&gt;roi.fase -->
<g id="edge2" class="edge">
<title>object:w&#45;&gt;roi.fase:e</title>
<path fill="none" stroke="black" d="M166.98,-244.76C153.5,-246.12 139.87,-249.15 127.27,-252.8"/>
<polygon fill="black" stroke="black" points="173.51,-244.42 181.69,-247.6 177.51,-244.21 181.5,-244 181.5,-244 181.5,-244 177.51,-244.21 181.31,-240.4 173.51,-244.42 173.51,-244.42"/>
<ellipse fill="none" stroke="black" cx="170.32" cy="-244.59" rx="3.2" ry="3.2"/>
</g>
<!-- object_type -->
<g id="node4" class="node">
<title>object_type</title>
<g id="a_node4"><a xlink:href="../../tables/object_type.html" xlink:title="object_type" target="_top">
<polygon fill="#ffffff" stroke="transparent" points="8,-145 8,-225 131,-225 131,-145 8,-145"/>
<polygon fill="#f5f5f5" stroke="transparent" points="8.5,-203 8.5,-225 131.5,-225 131.5,-203 8.5,-203"/>
<polygon fill="none" stroke="black" points="8.5,-203 8.5,-225 131.5,-225 131.5,-203 8.5,-203"/>
<text text-anchor="start" x="13.5" y="-212.2" font-family="Helvetica,sans-Serif" font-weight="bold" font-size="11.00">object_type</text>
<text text-anchor="start" x="89.5" y="-211.2" font-family="Helvetica,sans-Serif" font-size="11.00">[table]</text>
<polygon fill="none" stroke="black" points="8.5,-181 8.5,-203 131.5,-203 131.5,-181 8.5,-181"/>
<image xlink:href="../../images/primaryKeys.png" width="11px" height="12px" preserveAspectRatio="xMinYMin meet" x="13.5" y="-198"/>
<text text-anchor="start" x="41.5" y="-189.2" font-family="Helvetica,sans-Serif" font-size="11.00">id</text>
<polygon fill="none" stroke="black" points="8.5,-163 8.5,-181 131.5,-181 131.5,-163 8.5,-163"/>
<text text-anchor="start" x="11.5" y="-169.2" font-family="Helvetica,sans-Serif" font-size="11.00">...</text>
<polygon fill="#ffffff" stroke="transparent" points="8.5,-145 8.5,-163 56.5,-163 56.5,-145 8.5,-145"/>
<polygon fill="none" stroke="black" points="8.5,-145 8.5,-163 56.5,-163 56.5,-145 8.5,-145"/>
<text text-anchor="start" x="11.5" y="-151.2" font-family="Helvetica,sans-Serif" font-size="11.00"> &#160;</text>
<polygon fill="#ffffff" stroke="transparent" points="56.5,-145 56.5,-163 87.5,-163 87.5,-145 56.5,-145"/>
<polygon fill="none" stroke="black" points="56.5,-145 56.5,-163 87.5,-163 87.5,-145 56.5,-145"/>
<text text-anchor="start" x="76.5" y="-151.2" font-family="Helvetica,sans-Serif" font-size="11.00"> &#160;</text>
<polygon fill="#ffffff" stroke="transparent" points="87.5,-145 87.5,-163 131.5,-163 131.5,-145 87.5,-145"/>
<polygon fill="none" stroke="black" points="87.5,-145 87.5,-163 131.5,-163 131.5,-145 87.5,-145"/>
<text text-anchor="start" x="108.5" y="-151.2" font-family="Helvetica,sans-Serif" font-size="11.00">1 &gt;</text>
</a>
</g>
</g>
<!-- object&#45;&gt;object_type -->
<g id="edge3" class="edge">
<title>object:w&#45;&gt;object_type:e</title>
<path fill="none" stroke="black" d="M167.38,-217.83C155.42,-209.59 152.05,-192 132.5,-192"/>
<polygon fill="black" stroke="black" points="173.83,-219.73 180.48,-225.45 177.66,-220.87 181.5,-222 181.5,-222 181.5,-222 177.66,-220.87 182.52,-218.55 173.83,-219.73 173.83,-219.73"/>
<ellipse fill="none" stroke="black" cx="170.76" cy="-218.83" rx="3.2" ry="3.2"/>
</g>
<!-- opstelplaats -->
<g id="node5" class="node">
<title>opstelplaats</title>
<g id="a_node5"><a xlink:href="../../tables/opstelplaats.html" xlink:title="opstelplaats" target="_top">
<polygon fill="#ffffff" stroke="transparent" points="506.5,-479 506.5,-625 634.5,-625 634.5,-479 506.5,-479"/>
<polygon fill="#f5f5f5" stroke="transparent" points="506.5,-603 506.5,-625 634.5,-625 634.5,-603 506.5,-603"/>
<polygon fill="none" stroke="black" points="506.5,-603 506.5,-625 634.5,-625 634.5,-603 506.5,-603"/>
<text text-anchor="start" x="511.5" y="-612.2" font-family="Helvetica,sans-Serif" font-weight="bold" font-size="11.00">opstelplaats</text>
<text text-anchor="start" x="592.5" y="-611.2" font-family="Helvetica,sans-Serif" font-size="11.00">[table]</text>
<polygon fill="none" stroke="black" points="506.5,-581 506.5,-603 634.5,-603 634.5,-581 506.5,-581"/>
<image xlink:href="../../images/primaryKeys.png" width="11px" height="12px" preserveAspectRatio="xMinYMin meet" x="511.5" y="-598"/>
<text text-anchor="start" x="533.5" y="-589.2" font-family="Helvetica,sans-Serif" font-size="11.00">uuid</text>
<polygon fill="#ffffff" stroke="transparent" points="506.5,-559 506.5,-581 634.5,-581 634.5,-559 506.5,-559"/>
<polygon fill="none" stroke="black" points="506.5,-559 506.5,-581 634.5,-581 634.5,-559 506.5,-559"/>
<text text-anchor="start" x="533.5" y="-567.2" font-family="Helvetica,sans-Serif" font-size="11.00">geom</text>
<polygon fill="#ffffff" stroke="transparent" points="506.5,-537 506.5,-559 634.5,-559 634.5,-537 506.5,-537"/>
<polygon fill="none" stroke="black" points="506.5,-537 506.5,-559 634.5,-559 634.5,-537 506.5,-537"/>
<image xlink:href="../../images/foreignKeys.png" width="11px" height="12px" preserveAspectRatio="xMinYMin meet" x="511.5" y="-554"/>
<text text-anchor="start" x="533.5" y="-545.2" font-family="Helvetica,sans-Serif" font-size="11.00">object_uuid</text>
<polygon fill="none" stroke="black" points="506.5,-515 506.5,-537 634.5,-537 634.5,-515 506.5,-515"/>
<image xlink:href="../../images/foreignKeys.png" width="11px" height="12px" preserveAspectRatio="xMinYMin meet" x="511.5" y="-532"/>
<text text-anchor="start" x="533.5" y="-523.2" font-family="Helvetica,sans-Serif" font-size="11.00">voertuig_id</text>
<polygon fill="none" stroke="black" points="506.5,-497 506.5,-515 634.5,-515 634.5,-497 506.5,-497"/>
<text text-anchor="start" x="509.5" y="-503.2" font-family="Helvetica,sans-Serif" font-size="11.00">...</text>
<polygon fill="#ffffff" stroke="transparent" points="506.5,-479 506.5,-497 569.5,-497 569.5,-479 506.5,-479"/>
<polygon fill="none" stroke="black" points="506.5,-479 506.5,-497 569.5,-497 569.5,-479 506.5,-479"/>
<text text-anchor="start" x="509.5" y="-485.2" font-family="Helvetica,sans-Serif" font-size="11.00">&lt; 2</text>
<polygon fill="#ffffff" stroke="transparent" points="569.5,-479 569.5,-497 601.5,-497 601.5,-479 569.5,-479"/>
<polygon fill="none" stroke="black" points="569.5,-479 569.5,-497 601.5,-497 601.5,-479 569.5,-479"/>
<text text-anchor="start" x="590.5" y="-485.2" font-family="Helvetica,sans-Serif" font-size="11.00"> &#160;</text>
<polygon fill="#ffffff" stroke="transparent" points="601.5,-479 601.5,-497 634.5,-497 634.5,-479 601.5,-479"/>
<polygon fill="none" stroke="black" points="601.5,-479 601.5,-497 634.5,-497 634.5,-479 601.5,-479"/>
<text text-anchor="start" x="623.5" y="-485.2" font-family="Helvetica,sans-Serif" font-size="11.00"> &#160;</text>
</a>
</g>
</g>
<!-- opstelplaats&#45;&gt;object -->
<g id="edge4" class="edge">
<title>opstelplaats:w&#45;&gt;object:e</title>
<path fill="none" stroke="black" d="M491.3,-543.95C467.83,-527.17 487.63,-464 448.5,-464"/>
<polygon fill="black" stroke="black" points="497.81,-545.8 504.51,-551.46 501.65,-546.9 505.5,-548 505.5,-548 505.5,-548 501.65,-546.9 506.49,-544.54 497.81,-545.8 497.81,-545.8"/>
<ellipse fill="none" stroke="black" cx="494.73" cy="-544.93" rx="3.2" ry="3.2"/>
</g>
<!-- risico -->
<g id="node6" class="node">
<title>risico</title>
<g id="a_node6"><a xlink:href="../../tables/risico.html" xlink:title="risico" target="_top">
<polygon fill="#ffffff" stroke="transparent" points="513.5,-334 513.5,-458 627.5,-458 627.5,-334 513.5,-334"/>
<polygon fill="#f5f5f5" stroke="transparent" points="513.5,-436 513.5,-458 627.5,-458 627.5,-436 513.5,-436"/>
<polygon fill="none" stroke="black" points="513.5,-436 513.5,-458 627.5,-458 627.5,-436 513.5,-436"/>
<text text-anchor="start" x="518.5" y="-445.2" font-family="Helvetica,sans-Serif" font-weight="bold" font-size="11.00">risico</text>
<text text-anchor="start" x="585.5" y="-444.2" font-family="Helvetica,sans-Serif" font-size="11.00">[table]</text>
<polygon fill="none" stroke="black" points="513.5,-414 513.5,-436 627.5,-436 627.5,-414 513.5,-414"/>
<image xlink:href="../../images/primaryKeys.png" width="11px" height="12px" preserveAspectRatio="xMinYMin meet" x="518.5" y="-431"/>
<text text-anchor="start" x="533.5" y="-422.2" font-family="Helvetica,sans-Serif" font-size="11.00">uuid</text>
<polygon fill="#ffffff" stroke="transparent" points="513.5,-392 513.5,-414 627.5,-414 627.5,-392 513.5,-392"/>
<polygon fill="none" stroke="black" points="513.5,-392 513.5,-414 627.5,-414 627.5,-392 513.5,-392"/>
<text text-anchor="start" x="533.5" y="-400.2" font-family="Helvetica,sans-Serif" font-size="11.00">geom</text>
<polygon fill="#ffffff" stroke="transparent" points="513.5,-370 513.5,-392 627.5,-392 627.5,-370 513.5,-370"/>
<polygon fill="none" stroke="black" points="513.5,-370 513.5,-392 627.5,-392 627.5,-370 513.5,-370"/>
<image xlink:href="../../images/foreignKeys.png" width="11px" height="12px" preserveAspectRatio="xMinYMin meet" x="518.5" y="-387"/>
<text text-anchor="start" x="533.5" y="-378.2" font-family="Helvetica,sans-Serif" font-size="11.00">object_uuid</text>
<polygon fill="none" stroke="black" points="513.5,-352 513.5,-370 627.5,-370 627.5,-352 513.5,-352"/>
<text text-anchor="start" x="516.5" y="-358.2" font-family="Helvetica,sans-Serif" font-size="11.00">...</text>
<polygon fill="#ffffff" stroke="transparent" points="513.5,-334 513.5,-352 569.5,-352 569.5,-334 513.5,-334"/>
<polygon fill="none" stroke="black" points="513.5,-334 513.5,-352 569.5,-352 569.5,-334 513.5,-334"/>
<text text-anchor="start" x="516.5" y="-340.2" font-family="Helvetica,sans-Serif" font-size="11.00">&lt; 1</text>
<polygon fill="#ffffff" stroke="transparent" points="569.5,-334 569.5,-352 598.5,-352 598.5,-334 569.5,-334"/>
<polygon fill="none" stroke="black" points="569.5,-334 569.5,-352 598.5,-352 598.5,-334 569.5,-334"/>
<text text-anchor="start" x="587.5" y="-340.2" font-family="Helvetica,sans-Serif" font-size="11.00"> &#160;</text>
<polygon fill="#ffffff" stroke="transparent" points="598.5,-334 598.5,-352 627.5,-352 627.5,-334 598.5,-334"/>
<polygon fill="none" stroke="black" points="598.5,-334 598.5,-352 627.5,-352 627.5,-334 598.5,-334"/>
<text text-anchor="start" x="616.5" y="-340.2" font-family="Helvetica,sans-Serif" font-size="11.00"> &#160;</text>
</a>
</g>
</g>
<!-- risico&#45;&gt;object -->
<g id="edge5" class="edge">
<title>risico:w&#45;&gt;object:e</title>
<path fill="none" stroke="black" d="M498.29,-384.57C472.03,-400.45 489.26,-464 448.5,-464"/>
<polygon fill="black" stroke="black" points="504.74,-382.95 513.38,-384.49 508.62,-381.97 512.5,-381 512.5,-381 512.5,-381 508.62,-381.97 511.62,-377.51 504.74,-382.95 504.74,-382.95"/>
<ellipse fill="none" stroke="black" cx="501.64" cy="-383.73" rx="3.2" ry="3.2"/>
</g>
<!-- voorziening -->
<g id="node7" class="node">
<title>voorziening</title>
<g id="a_node7"><a xlink:href="../../tables/voorziening.html" xlink:title="voorziening" target="_top">
<polygon fill="#ffffff" stroke="transparent" points="508.5,-167 508.5,-313 632.5,-313 632.5,-167 508.5,-167"/>
<polygon fill="#f5f5f5" stroke="transparent" points="508.5,-291 508.5,-313 632.5,-313 632.5,-291 508.5,-291"/>
<polygon fill="none" stroke="black" points="508.5,-291 508.5,-313 632.5,-313 632.5,-291 508.5,-291"/>
<text text-anchor="start" x="513.5" y="-300.2" font-family="Helvetica,sans-Serif" font-weight="bold" font-size="11.00">voorziening</text>
<text text-anchor="start" x="590.5" y="-299.2" font-family="Helvetica,sans-Serif" font-size="11.00">[table]</text>
<polygon fill="none" stroke="black" points="508.5,-269 508.5,-291 632.5,-291 632.5,-269 508.5,-269"/>
<image xlink:href="../../images/primaryKeys.png" width="11px" height="12px" preserveAspectRatio="xMinYMin meet" x="513.5" y="-286"/>
<text text-anchor="start" x="533.5" y="-277.2" font-family="Helvetica,sans-Serif" font-size="11.00">uuid</text>
<polygon fill="#ffffff" stroke="transparent" points="508.5,-247 508.5,-269 632.5,-269 632.5,-247 508.5,-247"/>
<polygon fill="none" stroke="black" points="508.5,-247 508.5,-269 632.5,-269 632.5,-247 508.5,-247"/>
<text text-anchor="start" x="533.5" y="-255.2" font-family="Helvetica,sans-Serif" font-size="11.00">geom</text>
<polygon fill="#ffffff" stroke="transparent" points="508.5,-225 508.5,-247 632.5,-247 632.5,-225 508.5,-225"/>
<polygon fill="none" stroke="black" points="508.5,-225 508.5,-247 632.5,-247 632.5,-225 508.5,-225"/>
<image xlink:href="../../images/foreignKeys.png" width="11px" height="12px" preserveAspectRatio="xMinYMin meet" x="513.5" y="-242"/>
<text text-anchor="start" x="533.5" y="-233.2" font-family="Helvetica,sans-Serif" font-size="11.00">object_uuid</text>
<polygon fill="none" stroke="black" points="508.5,-203 508.5,-225 632.5,-225 632.5,-203 508.5,-203"/>
<image xlink:href="../../images/foreignKeys.png" width="11px" height="12px" preserveAspectRatio="xMinYMin meet" x="513.5" y="-220"/>
<text text-anchor="start" x="533.5" y="-211.2" font-family="Helvetica,sans-Serif" font-size="11.00">symbool_id</text>
<polygon fill="none" stroke="black" points="508.5,-185 508.5,-203 632.5,-203 632.5,-185 508.5,-185"/>
<text text-anchor="start" x="511.5" y="-191.2" font-family="Helvetica,sans-Serif" font-size="11.00">...</text>
<polygon fill="#ffffff" stroke="transparent" points="508.5,-167 508.5,-185 569.5,-185 569.5,-167 508.5,-167"/>
<polygon fill="none" stroke="black" points="508.5,-167 508.5,-185 569.5,-185 569.5,-167 508.5,-167"/>
<text text-anchor="start" x="511.5" y="-173.2" font-family="Helvetica,sans-Serif" font-size="11.00">&lt; 2</text>
<polygon fill="#ffffff" stroke="transparent" points="569.5,-167 569.5,-185 600.5,-185 600.5,-167 569.5,-167"/>
<polygon fill="none" stroke="black" points="569.5,-167 569.5,-185 600.5,-185 600.5,-167 569.5,-167"/>
<text text-anchor="start" x="589.5" y="-173.2" font-family="Helvetica,sans-Serif" font-size="11.00"> &#160;</text>
<polygon fill="#ffffff" stroke="transparent" points="600.5,-167 600.5,-185 632.5,-185 632.5,-167 600.5,-167"/>
<polygon fill="none" stroke="black" points="600.5,-167 600.5,-185 632.5,-185 632.5,-167 600.5,-167"/>
<text text-anchor="start" x="621.5" y="-173.2" font-family="Helvetica,sans-Serif" font-size="11.00"> &#160;</text>
</a>
</g>
</g>
<!-- voorziening&#45;&gt;object -->
<g id="edge6" class="edge">
<title>voorziening:w&#45;&gt;object:e</title>
<path fill="none" stroke="black" d="M492.99,-237.84C417.98,-259.41 547.65,-464 448.5,-464"/>
<polygon fill="black" stroke="black" points="499.56,-237 507.95,-239.57 503.53,-236.5 507.5,-236 507.5,-236 507.5,-236 503.53,-236.5 507.05,-232.43 499.56,-237 499.56,-237"/>
<ellipse fill="none" stroke="black" cx="496.39" cy="-237.41" rx="3.2" ry="3.2"/>
</g>
</g>
</svg>
