<?xml version="1.0" encoding="UTF-8" standalone="no"?>
<!DOCTYPE svg PUBLIC "-//W3C//DTD SVG 1.1//EN"
 "http://www.w3.org/Graphics/SVG/1.1/DTD/svg11.dtd">
<!-- Generated by graphviz version 2.50.0 (0)
 -->
<!-- Title: oneDegreeRelationshipsDiagram Pages: 1 -->
<svg width="456pt" height="392pt"
 viewBox="0.00 0.00 456.00 392.00" xmlns="http://www.w3.org/2000/svg" xmlns:xlink="http://www.w3.org/1999/xlink">
<g id="graph0" class="graph" transform="scale(1 1) rotate(0) translate(4 388)">
<title>oneDegreeRelationshipsDiagram</title>
<polygon fill="#ffffff" stroke="transparent" points="-4,4 -4,-388 452,-388 452,4 -4,4"/>
<text text-anchor="middle" x="79.5" y="-7.2" font-family="Helvetica,sans-Serif" font-size="11.00">Generated by SchemaSpy</text>
<!-- opstelplaats -->
<g id="node1" class="node">
<title>opstelplaats</title>
<g id="a_node1"><a xlink:href="../../tables/opstelplaats.html" xlink:title="opstelplaats" target="_top">
<polygon fill="#ffffff" stroke="transparent" points="186,-116 186,-380 440,-380 440,-116 186,-116"/>
<polygon fill="#f5f5f5" stroke="transparent" points="188,-356 188,-378 438,-378 438,-356 188,-356"/>
<polygon fill="none" stroke="black" points="188,-356 188,-378 438,-378 438,-356 188,-356"/>
<text text-anchor="start" x="193" y="-365.2" font-family="Helvetica,sans-Serif" font-weight="bold" font-size="11.00">opstelplaats</text>
<text text-anchor="start" x="396" y="-364.2" font-family="Helvetica,sans-Serif" font-size="11.00">[table]</text>
<polygon fill="none" stroke="black" points="188,-334 188,-356 302,-356 302,-334 188,-334"/>
<image xlink:href="../../images/primaryKeys.png" width="11px" height="12px" preserveAspectRatio="xMinYMin meet" x="193" y="-351"/>
<text text-anchor="start" x="208" y="-342.2" font-family="Helvetica,sans-Serif" font-size="11.00">uuid</text>
<polygon fill="none" stroke="black" points="302,-334 302,-356 438,-356 438,-334 302,-334"/>
<text text-anchor="start" x="305" y="-342.2" font-family="Helvetica,sans-Serif" font-size="11.00">uuid[2147483647]</text>
<polygon fill="#ffffff" stroke="transparent" points="188,-312 188,-334 302,-334 302,-312 188,-312"/>
<polygon fill="none" stroke="black" points="188,-312 188,-334 302,-334 302,-312 188,-312"/>
<text text-anchor="start" x="208" y="-320.2" font-family="Helvetica,sans-Serif" font-size="11.00">geom</text>
<polygon fill="none" stroke="black" points="302,-312 302,-334 438,-334 438,-312 302,-312"/>
<text text-anchor="start" x="305" y="-320.2" font-family="Helvetica,sans-Serif" font-size="11.00">geometry[2147483647]</text>
<polygon fill="none" stroke="black" points="188,-290 188,-312 302,-312 302,-290 188,-290"/>
<text text-anchor="start" x="208" y="-298.2" font-family="Helvetica,sans-Serif" font-size="11.00">datumtijd</text>
<polygon fill="none" stroke="black" points="302,-290 302,-312 438,-312 438,-290 302,-290"/>
<text text-anchor="start" x="305" y="-298.2" font-family="Helvetica,sans-Serif" font-size="11.00">timestamptz[35,6]</text>
<polygon fill="none" stroke="black" points="188,-268 188,-290 302,-290 302,-268 188,-268"/>
<text text-anchor="start" x="208" y="-276.2" font-family="Helvetica,sans-Serif" font-size="11.00">gebruiker</text>
<polygon fill="none" stroke="black" points="302,-268 302,-290 438,-290 438,-268 302,-268"/>
<text text-anchor="start" x="305" y="-276.2" font-family="Helvetica,sans-Serif" font-size="11.00">varchar[255]</text>
<polygon fill="none" stroke="black" points="188,-246 188,-268 302,-268 302,-246 188,-246"/>
<text text-anchor="start" x="208" y="-254.2" font-family="Helvetica,sans-Serif" font-size="11.00">label</text>
<polygon fill="none" stroke="black" points="302,-246 302,-268 438,-268 438,-246 302,-246"/>
<text text-anchor="start" x="305" y="-254.2" font-family="Helvetica,sans-Serif" font-size="11.00">text[2147483647]</text>
<polygon fill="none" stroke="black" points="188,-224 188,-246 302,-246 302,-224 188,-224"/>
<text text-anchor="start" x="208" y="-232.2" font-family="Helvetica,sans-Serif" font-size="11.00">rotatie</text>
<polygon fill="none" stroke="black" points="302,-224 302,-246 438,-246 438,-224 302,-224"/>
<text text-anchor="start" x="305" y="-232.2" font-family="Helvetica,sans-Serif" font-size="11.00">int4[10]</text>
<polygon fill="none" stroke="black" points="188,-202 188,-224 302,-224 302,-202 188,-202"/>
<text text-anchor="start" x="208" y="-210.2" font-family="Helvetica,sans-Serif" font-size="11.00">bijzonderheden</text>
<polygon fill="none" stroke="black" points="302,-202 302,-224 438,-224 438,-202 302,-202"/>
<text text-anchor="start" x="305" y="-210.2" font-family="Helvetica,sans-Serif" font-size="11.00">text[2147483647]</text>
<polygon fill="none" stroke="black" points="188,-180 188,-202 302,-202 302,-180 188,-180"/>
<text text-anchor="start" x="208" y="-188.2" font-family="Helvetica,sans-Serif" font-size="11.00">plusinfo</text>
<polygon fill="none" stroke="black" points="302,-180 302,-202 438,-202 438,-180 302,-180"/>
<text text-anchor="start" x="305" y="-188.2" font-family="Helvetica,sans-Serif" font-size="11.00">jsonb[2147483647]</text>
<polygon fill="#ffffff" stroke="transparent" points="188,-158 188,-180 302,-180 302,-158 188,-158"/>
<polygon fill="none" stroke="black" points="188,-158 188,-180 302,-180 302,-158 188,-158"/>
<image xlink:href="../../images/foreignKeys.png" width="11px" height="12px" preserveAspectRatio="xMinYMin meet" x="193" y="-175"/>
<text text-anchor="start" x="208" y="-166.2" font-family="Helvetica,sans-Serif" font-size="11.00">object_uuid</text>
<polygon fill="none" stroke="black" points="302,-158 302,-180 438,-180 438,-158 302,-158"/>
<text text-anchor="start" x="305" y="-166.2" font-family="Helvetica,sans-Serif" font-size="11.00">uuid[2147483647]</text>
<polygon fill="none" stroke="black" points="188,-136 188,-158 302,-158 302,-136 188,-136"/>
<image xlink:href="../../images/foreignKeys.png" width="11px" height="12px" preserveAspectRatio="xMinYMin meet" x="193" y="-153"/>
<text text-anchor="start" x="208" y="-144.2" font-family="Helvetica,sans-Serif" font-size="11.00">voertuig_id</text>
<polygon fill="none" stroke="black" points="302,-136 302,-158 438,-158 438,-136 302,-136"/>
<text text-anchor="start" x="305" y="-144.2" font-family="Helvetica,sans-Serif" font-size="11.00">int4[10]</text>
<polygon fill="#ffffff" stroke="transparent" points="188,-118 188,-136 251,-136 251,-118 188,-118"/>
<polygon fill="none" stroke="black" points="188,-118 188,-136 251,-136 251,-118 188,-118"/>
<text text-anchor="start" x="191" y="-124.2" font-family="Helvetica,sans-Serif" font-size="11.00">&lt; 2</text>
<polygon fill="#ffffff" stroke="transparent" points="251,-118 251,-136 302,-136 302,-118 251,-118"/>
<polygon fill="none" stroke="black" points="251,-118 251,-136 302,-136 302,-118 251,-118"/>
<text text-anchor="start" x="291" y="-124.2" font-family="Helvetica,sans-Serif" font-size="11.00"> &#160;</text>
<polygon fill="#ffffff" stroke="transparent" points="302,-118 302,-136 438,-136 438,-118 302,-118"/>
<polygon fill="none" stroke="black" points="302,-118 302,-136 438,-136 438,-118 302,-118"/>
<text text-anchor="start" x="415" y="-124.2" font-family="Helvetica,sans-Serif" font-size="11.00">0 &gt;</text>
<polygon fill="none" stroke="black" stroke-width="2" points="187,-117 187,-379 439,-379 439,-117 187,-117"/>
</a>
</g>
</g>
<!-- object -->
<g id="node2" class="node">
<title>object</title>
<g id="a_node2"><a xlink:href="../../tables/object.html" xlink:title="object" target="_top">
<polygon fill="#ffffff" stroke="transparent" points="8,-116 8,-284 137,-284 137,-116 8,-116"/>
<polygon fill="#f5f5f5" stroke="transparent" points="8.5,-262 8.5,-284 137.5,-284 137.5,-262 8.5,-262"/>
<polygon fill="none" stroke="black" points="8.5,-262 8.5,-284 137.5,-284 137.5,-262 8.5,-262"/>
<text text-anchor="start" x="13.5" y="-271.2" font-family="Helvetica,sans-Serif" font-weight="bold" font-size="11.00">object</text>
<text text-anchor="start" x="95.5" y="-270.2" font-family="Helvetica,sans-Serif" font-size="11.00">[table]</text>
<polygon fill="none" stroke="black" points="8.5,-240 8.5,-262 137.5,-262 137.5,-240 8.5,-240"/>
<image xlink:href="../../images/primaryKeys.png" width="11px" height="12px" preserveAspectRatio="xMinYMin meet" x="13.5" y="-257"/>
<text text-anchor="start" x="28.5" y="-248.2" font-family="Helvetica,sans-Serif" font-size="11.00">uuid</text>
<polygon fill="#ffffff" stroke="transparent" points="8.5,-218 8.5,-240 137.5,-240 137.5,-218 8.5,-218"/>
<polygon fill="none" stroke="black" points="8.5,-218 8.5,-240 137.5,-240 137.5,-218 8.5,-218"/>
<text text-anchor="start" x="28.5" y="-226.2" font-family="Helvetica,sans-Serif" font-size="11.00">geom</text>
<polygon fill="#ffffff" stroke="transparent" points="8.5,-196 8.5,-218 137.5,-218 137.5,-196 8.5,-196"/>
<polygon fill="none" stroke="black" points="8.5,-196 8.5,-218 137.5,-218 137.5,-196 8.5,-196"/>
<text text-anchor="start" x="28.5" y="-204.2" font-family="Helvetica,sans-Serif" font-size="11.00">revisie_frequentie</text>
<polygon fill="#ffffff" stroke="transparent" points="8.5,-174 8.5,-196 137.5,-196 137.5,-174 8.5,-174"/>
<polygon fill="none" stroke="black" points="8.5,-174 8.5,-196 137.5,-196 137.5,-174 8.5,-174"/>
<image xlink:href="../../images/foreignKeys.png" width="11px" height="12px" preserveAspectRatio="xMinYMin meet" x="13.5" y="-191"/>
<text text-anchor="start" x="28.5" y="-182.2" font-family="Helvetica,sans-Serif" font-size="11.00">fase_id</text>
<polygon fill="#ffffff" stroke="transparent" points="8.5,-152 8.5,-174 137.5,-174 137.5,-152 8.5,-152"/>
<polygon fill="none" stroke="black" points="8.5,-152 8.5,-174 137.5,-174 137.5,-152 8.5,-152"/>
<image xlink:href="../../images/foreignKeys.png" width="11px" height="12px" preserveAspectRatio="xMinYMin meet" x="13.5" y="-169"/>
<text text-anchor="start" x="28.5" y="-160.2" font-family="Helvetica,sans-Serif" font-size="11.00">object_type_id</text>
<polygon fill="none" stroke="black" points="8.5,-134 8.5,-152 137.5,-152 137.5,-134 8.5,-134"/>
<text text-anchor="start" x="11.5" y="-140.2" font-family="Helvetica,sans-Serif" font-size="11.00">...</text>
<polygon fill="#ffffff" stroke="transparent" points="8.5,-116 8.5,-134 65.5,-134 65.5,-116 8.5,-116"/>
<polygon fill="none" stroke="black" points="8.5,-116 8.5,-134 65.5,-134 65.5,-116 8.5,-116"/>
<text text-anchor="start" x="11.5" y="-122.2" font-family="Helvetica,sans-Serif" font-size="11.00">&lt; 2</text>
<polygon fill="#ffffff" stroke="transparent" points="65.5,-116 65.5,-134 95.5,-134 95.5,-116 65.5,-116"/>
<polygon fill="none" stroke="black" points="65.5,-116 65.5,-134 95.5,-134 95.5,-116 65.5,-116"/>
<text text-anchor="start" x="84.5" y="-122.2" font-family="Helvetica,sans-Serif" font-size="11.00"> &#160;</text>
<polygon fill="#ffffff" stroke="transparent" points="95.5,-116 95.5,-134 137.5,-134 137.5,-116 95.5,-116"/>
<polygon fill="none" stroke="black" points="95.5,-116 95.5,-134 137.5,-134 137.5,-116 95.5,-116"/>
<text text-anchor="start" x="114.5" y="-122.2" font-family="Helvetica,sans-Serif" font-size="11.00">4 &gt;</text>
</a>
</g>
</g>
<!-- opstelplaats&#45;&gt;object -->
<g id="edge1" class="edge">
<title>opstelplaats:w&#45;&gt;object:e</title>
<path fill="none" stroke="black" d="M173.09,-173.64C153.48,-190.99 174.72,-251 138.5,-251"/>
<polygon fill="black" stroke="black" points="179.41,-171.53 188.14,-172.41 183.21,-170.27 187,-169 187,-169 187,-169 183.21,-170.27 185.86,-165.59 179.41,-171.53 179.41,-171.53"/>
<ellipse fill="none" stroke="black" cx="176.38" cy="-172.55" rx="3.2" ry="3.2"/>
</g>
<!-- roi.voertuig -->
<g id="node3" class="node">
<title>roi.voertuig</title>
<g id="a_node3"><a xlink:href="../../../roi/tables/voertuig.html" xlink:title="roi.voertuig" target="_top">
<polygon fill="#ffffff" stroke="transparent" points="10.5,-37 10.5,-95 134.5,-95 134.5,-37 10.5,-37"/>
<polygon fill="#f5f5f5" stroke="transparent" points="10.5,-73 10.5,-95 134.5,-95 134.5,-73 10.5,-73"/>
<polygon fill="none" stroke="black" points="10.5,-73 10.5,-95 134.5,-95 134.5,-73 10.5,-73"/>
<text text-anchor="start" x="15.5" y="-82.2" font-family="Helvetica,sans-Serif" font-weight="bold" font-size="11.00">roi.voertuig</text>
<text text-anchor="start" x="92.5" y="-81.2" font-family="Helvetica,sans-Serif" font-size="11.00">[table]</text>
<polygon fill="none" stroke="black" points="10.5,-55 10.5,-73 134.5,-73 134.5,-55 10.5,-55"/>
<text text-anchor="start" x="13.5" y="-61.2" font-family="Helvetica,sans-Serif" font-size="11.00">...</text>
<polygon fill="#ffffff" stroke="transparent" points="10.5,-37 10.5,-55 59.5,-55 59.5,-37 10.5,-37"/>
<polygon fill="none" stroke="black" points="10.5,-37 10.5,-55 59.5,-55 59.5,-37 10.5,-37"/>
<text text-anchor="start" x="13.5" y="-43.2" font-family="Helvetica,sans-Serif" font-size="11.00"> &#160;</text>
<polygon fill="#ffffff" stroke="transparent" points="59.5,-37 59.5,-55 90.5,-55 90.5,-37 59.5,-37"/>
<polygon fill="none" stroke="black" points="59.5,-37 59.5,-55 90.5,-55 90.5,-37 59.5,-37"/>
<text text-anchor="start" x="79.5" y="-43.2" font-family="Helvetica,sans-Serif" font-size="11.00"> &#160;</text>
<polygon fill="#ffffff" stroke="transparent" points="90.5,-37 90.5,-55 134.5,-55 134.5,-37 90.5,-37"/>
<polygon fill="none" stroke="black" points="90.5,-37 90.5,-55 134.5,-55 134.5,-37 90.5,-37"/>
<text text-anchor="start" x="111.5" y="-43.2" font-family="Helvetica,sans-Serif" font-size="11.00">1 &gt;</text>
</a>
</g>
</g>
<!-- opstelplaats&#45;&gt;roi.voertuig -->
<g id="edge2" class="edge">
<title>opstelplaats:w&#45;&gt;roi.voertuig:e</title>
<path fill="none" stroke="black" d="M173.04,-143.27C161.83,-135.64 161,-117.95 145,-106 141.92,-103.7 138.7,-101.44 135.4,-99.24"/>
<polygon fill="black" stroke="black" points="179.27,-144.93 186.07,-150.48 183.14,-145.97 187,-147 187,-147 187,-147 183.14,-145.97 187.93,-143.52 179.27,-144.93 179.27,-144.93"/>
<ellipse fill="none" stroke="black" cx="176.18" cy="-144.11" rx="3.2" ry="3.2"/>
</g>
</g>
</svg>
