<?xml version="1.0" encoding="UTF-8" standalone="no"?>
<!DOCTYPE svg PUBLIC "-//W3C//DTD SVG 1.1//EN"
 "http://www.w3.org/Graphics/SVG/1.1/DTD/svg11.dtd">
<!-- Generated by graphviz version 2.50.0 (0)
 -->
<!-- Title: twoDegreesRelationshipsDiagram Pages: 1 -->
<svg width="628pt" height="550pt"
 viewBox="0.00 0.00 628.00 550.00" xmlns="http://www.w3.org/2000/svg" xmlns:xlink="http://www.w3.org/1999/xlink">
<g id="graph0" class="graph" transform="scale(1 1) rotate(0) translate(4 546)">
<title>twoDegreesRelationshipsDiagram</title>
<polygon fill="#ffffff" stroke="transparent" points="-4,4 -4,-546 624,-546 624,4 -4,4"/>
<text text-anchor="middle" x="79.5" y="-7.2" font-family="Helvetica,sans-Serif" font-size="11.00">Generated by SchemaSpy</text>
<!-- bereikbaarheid -->
<g id="node1" class="node">
<title>bereikbaarheid</title>
<g id="a_node1"><a xlink:href="../../tables/bereikbaarheid.html" xlink:title="bereikbaarheid" target="_top">
<polygon fill="#ffffff" stroke="transparent" points="412.5,-480 412.5,-538 557.5,-538 557.5,-480 412.5,-480"/>
<polygon fill="#f5f5f5" stroke="transparent" points="413,-516 413,-538 558,-538 558,-516 413,-516"/>
<polygon fill="none" stroke="black" points="413,-516 413,-538 558,-538 558,-516 413,-516"/>
<text text-anchor="start" x="418" y="-525.2" font-family="Helvetica,sans-Serif" font-weight="bold" font-size="11.00">bereikbaarheid</text>
<text text-anchor="start" x="516" y="-524.2" font-family="Helvetica,sans-Serif" font-size="11.00">[table]</text>
<polygon fill="none" stroke="black" points="413,-498 413,-516 558,-516 558,-498 413,-498"/>
<text text-anchor="start" x="416" y="-504.2" font-family="Helvetica,sans-Serif" font-size="11.00">...</text>
<polygon fill="#ffffff" stroke="transparent" points="413,-480 413,-498 484,-498 484,-480 413,-480"/>
<polygon fill="none" stroke="black" points="413,-480 413,-498 484,-498 484,-480 413,-480"/>
<text text-anchor="start" x="416" y="-486.2" font-family="Helvetica,sans-Serif" font-size="11.00">&lt; 2</text>
<polygon fill="#ffffff" stroke="transparent" points="484,-480 484,-498 521,-498 521,-480 484,-480"/>
<polygon fill="none" stroke="black" points="484,-480 484,-498 521,-498 521,-480 484,-480"/>
<text text-anchor="start" x="510" y="-486.2" font-family="Helvetica,sans-Serif" font-size="11.00"> &#160;</text>
<polygon fill="#ffffff" stroke="transparent" points="521,-480 521,-498 558,-498 558,-480 521,-480"/>
<polygon fill="none" stroke="black" points="521,-480 521,-498 558,-498 558,-480 521,-480"/>
<text text-anchor="start" x="547" y="-486.2" font-family="Helvetica,sans-Serif" font-size="11.00"> &#160;</text>
</a>
</g>
</g>
<!-- object -->
<g id="node2" class="node">
<title>object</title>
<g id="a_node2"><a xlink:href="../../tables/object.html" xlink:title="object" target="_top">
<polygon fill="#ffffff" stroke="transparent" points="180,-253 180,-421 309,-421 309,-253 180,-253"/>
<polygon fill="#f5f5f5" stroke="transparent" points="180.5,-399 180.5,-421 309.5,-421 309.5,-399 180.5,-399"/>
<polygon fill="none" stroke="black" points="180.5,-399 180.5,-421 309.5,-421 309.5,-399 180.5,-399"/>
<text text-anchor="start" x="185.5" y="-408.2" font-family="Helvetica,sans-Serif" font-weight="bold" font-size="11.00">object</text>
<text text-anchor="start" x="267.5" y="-407.2" font-family="Helvetica,sans-Serif" font-size="11.00">[table]</text>
<polygon fill="none" stroke="black" points="180.5,-377 180.5,-399 309.5,-399 309.5,-377 180.5,-377"/>
<image xlink:href="../../images/primaryKeys.png" width="11px" height="12px" preserveAspectRatio="xMinYMin meet" x="185.5" y="-394"/>
<text text-anchor="start" x="200.5" y="-385.2" font-family="Helvetica,sans-Serif" font-size="11.00">uuid</text>
<polygon fill="#ffffff" stroke="transparent" points="180.5,-355 180.5,-377 309.5,-377 309.5,-355 180.5,-355"/>
<polygon fill="none" stroke="black" points="180.5,-355 180.5,-377 309.5,-377 309.5,-355 180.5,-355"/>
<text text-anchor="start" x="200.5" y="-363.2" font-family="Helvetica,sans-Serif" font-size="11.00">geom</text>
<polygon fill="#ffffff" stroke="transparent" points="180.5,-333 180.5,-355 309.5,-355 309.5,-333 180.5,-333"/>
<polygon fill="none" stroke="black" points="180.5,-333 180.5,-355 309.5,-355 309.5,-333 180.5,-333"/>
<text text-anchor="start" x="200.5" y="-341.2" font-family="Helvetica,sans-Serif" font-size="11.00">revisie_frequentie</text>
<polygon fill="#ffffff" stroke="transparent" points="180.5,-311 180.5,-333 309.5,-333 309.5,-311 180.5,-311"/>
<polygon fill="none" stroke="black" points="180.5,-311 180.5,-333 309.5,-333 309.5,-311 180.5,-311"/>
<image xlink:href="../../images/foreignKeys.png" width="11px" height="12px" preserveAspectRatio="xMinYMin meet" x="185.5" y="-328"/>
<text text-anchor="start" x="200.5" y="-319.2" font-family="Helvetica,sans-Serif" font-size="11.00">fase_id</text>
<polygon fill="#ffffff" stroke="transparent" points="180.5,-289 180.5,-311 309.5,-311 309.5,-289 180.5,-289"/>
<polygon fill="none" stroke="black" points="180.5,-289 180.5,-311 309.5,-311 309.5,-289 180.5,-289"/>
<image xlink:href="../../images/foreignKeys.png" width="11px" height="12px" preserveAspectRatio="xMinYMin meet" x="185.5" y="-306"/>
<text text-anchor="start" x="200.5" y="-297.2" font-family="Helvetica,sans-Serif" font-size="11.00">object_type_id</text>
<polygon fill="none" stroke="black" points="180.5,-271 180.5,-289 309.5,-289 309.5,-271 180.5,-271"/>
<text text-anchor="start" x="183.5" y="-277.2" font-family="Helvetica,sans-Serif" font-size="11.00">...</text>
<polygon fill="#ffffff" stroke="transparent" points="180.5,-253 180.5,-271 237.5,-271 237.5,-253 180.5,-253"/>
<polygon fill="none" stroke="black" points="180.5,-253 180.5,-271 237.5,-271 237.5,-253 180.5,-253"/>
<text text-anchor="start" x="183.5" y="-259.2" font-family="Helvetica,sans-Serif" font-size="11.00">&lt; 2</text>
<polygon fill="#ffffff" stroke="transparent" points="237.5,-253 237.5,-271 267.5,-271 267.5,-253 237.5,-253"/>
<polygon fill="none" stroke="black" points="237.5,-253 237.5,-271 267.5,-271 267.5,-253 237.5,-253"/>
<text text-anchor="start" x="256.5" y="-259.2" font-family="Helvetica,sans-Serif" font-size="11.00"> &#160;</text>
<polygon fill="#ffffff" stroke="transparent" points="267.5,-253 267.5,-271 309.5,-271 309.5,-253 267.5,-253"/>
<polygon fill="none" stroke="black" points="267.5,-253 267.5,-271 309.5,-271 309.5,-253 267.5,-253"/>
<text text-anchor="start" x="286.5" y="-259.2" font-family="Helvetica,sans-Serif" font-size="11.00">4 &gt;</text>
</a>
</g>
</g>
<!-- bereikbaarheid&#45;&gt;object -->
<g id="edge1" class="edge">
<title>bereikbaarheid:w&#45;&gt;object:e</title>
<path fill="none" stroke="black" d="M397.38,-505.83C376.68,-502.11 367.93,-489.61 350,-470 322.7,-440.15 350.95,-388 310.5,-388"/>
<polygon fill="black" stroke="black" points="404.03,-506.36 411.71,-510.59 408.01,-506.68 412,-507 412,-507 412,-507 408.01,-506.68 412.29,-503.41 404.03,-506.36 404.03,-506.36"/>
<ellipse fill="none" stroke="black" cx="400.84" cy="-506.11" rx="3.2" ry="3.2"/>
</g>
<!-- roi.fase -->
<g id="node3" class="node">
<title>roi.fase</title>
<g id="a_node3"><a xlink:href="../../../roi/tables/fase.html" xlink:title="roi.fase" target="_top">
<polygon fill="#ffffff" stroke="transparent" points="20,-323 20,-381 119,-381 119,-323 20,-323"/>
<polygon fill="#f5f5f5" stroke="transparent" points="20.5,-359 20.5,-381 119.5,-381 119.5,-359 20.5,-359"/>
<polygon fill="none" stroke="black" points="20.5,-359 20.5,-381 119.5,-381 119.5,-359 20.5,-359"/>
<text text-anchor="start" x="25.5" y="-368.2" font-family="Helvetica,sans-Serif" font-weight="bold" font-size="11.00">roi.fase</text>
<text text-anchor="start" x="77.5" y="-367.2" font-family="Helvetica,sans-Serif" font-size="11.00">[table]</text>
<polygon fill="none" stroke="black" points="20.5,-341 20.5,-359 119.5,-359 119.5,-341 20.5,-341"/>
<text text-anchor="start" x="23.5" y="-347.2" font-family="Helvetica,sans-Serif" font-size="11.00">...</text>
<polygon fill="#ffffff" stroke="transparent" points="20.5,-323 20.5,-341 56.5,-341 56.5,-323 20.5,-323"/>
<polygon fill="none" stroke="black" points="20.5,-323 20.5,-341 56.5,-341 56.5,-323 20.5,-323"/>
<text text-anchor="start" x="23.5" y="-329.2" font-family="Helvetica,sans-Serif" font-size="11.00"> &#160;</text>
<polygon fill="#ffffff" stroke="transparent" points="56.5,-323 56.5,-341 81.5,-341 81.5,-323 56.5,-323"/>
<polygon fill="none" stroke="black" points="56.5,-323 56.5,-341 81.5,-341 81.5,-323 56.5,-323"/>
<text text-anchor="start" x="70.5" y="-329.2" font-family="Helvetica,sans-Serif" font-size="11.00"> &#160;</text>
<polygon fill="#ffffff" stroke="transparent" points="81.5,-323 81.5,-341 119.5,-341 119.5,-323 81.5,-323"/>
<polygon fill="none" stroke="black" points="81.5,-323 81.5,-341 119.5,-341 119.5,-323 81.5,-323"/>
<text text-anchor="start" x="96.5" y="-329.2" font-family="Helvetica,sans-Serif" font-size="11.00">1 &gt;</text>
</a>
</g>
</g>
<!-- object&#45;&gt;roi.fase -->
<g id="edge2" class="edge">
<title>object:w&#45;&gt;roi.fase:e</title>
<path fill="none" stroke="black" d="M165.29,-324.79C149.03,-331.87 143.86,-350 120.5,-350"/>
<polygon fill="black" stroke="black" points="171.65,-323.54 180.19,-325.53 175.57,-322.77 179.5,-322 179.5,-322 179.5,-322 175.57,-322.77 178.81,-318.47 171.65,-323.54 171.65,-323.54"/>
<ellipse fill="none" stroke="black" cx="168.51" cy="-324.16" rx="3.2" ry="3.2"/>
</g>
<!-- object_type -->
<g id="node4" class="node">
<title>object_type</title>
<g id="a_node4"><a xlink:href="../../tables/object_type.html" xlink:title="object_type" target="_top">
<polygon fill="#ffffff" stroke="transparent" points="8,-244 8,-302 131,-302 131,-244 8,-244"/>
<polygon fill="#f5f5f5" stroke="transparent" points="8.5,-280 8.5,-302 131.5,-302 131.5,-280 8.5,-280"/>
<polygon fill="none" stroke="black" points="8.5,-280 8.5,-302 131.5,-302 131.5,-280 8.5,-280"/>
<text text-anchor="start" x="13.5" y="-289.2" font-family="Helvetica,sans-Serif" font-weight="bold" font-size="11.00">object_type</text>
<text text-anchor="start" x="89.5" y="-288.2" font-family="Helvetica,sans-Serif" font-size="11.00">[table]</text>
<polygon fill="none" stroke="black" points="8.5,-262 8.5,-280 131.5,-280 131.5,-262 8.5,-262"/>
<text text-anchor="start" x="11.5" y="-268.2" font-family="Helvetica,sans-Serif" font-size="11.00">...</text>
<polygon fill="#ffffff" stroke="transparent" points="8.5,-244 8.5,-262 56.5,-262 56.5,-244 8.5,-244"/>
<polygon fill="none" stroke="black" points="8.5,-244 8.5,-262 56.5,-262 56.5,-244 8.5,-244"/>
<text text-anchor="start" x="11.5" y="-250.2" font-family="Helvetica,sans-Serif" font-size="11.00"> &#160;</text>
<polygon fill="#ffffff" stroke="transparent" points="56.5,-244 56.5,-262 87.5,-262 87.5,-244 56.5,-244"/>
<polygon fill="none" stroke="black" points="56.5,-244 56.5,-262 87.5,-262 87.5,-244 56.5,-244"/>
<text text-anchor="start" x="76.5" y="-250.2" font-family="Helvetica,sans-Serif" font-size="11.00"> &#160;</text>
<polygon fill="#ffffff" stroke="transparent" points="87.5,-244 87.5,-262 131.5,-262 131.5,-244 87.5,-244"/>
<polygon fill="none" stroke="black" points="87.5,-244 87.5,-262 131.5,-262 131.5,-244 87.5,-244"/>
<text text-anchor="start" x="108.5" y="-250.2" font-family="Helvetica,sans-Serif" font-size="11.00">1 &gt;</text>
</a>
</g>
</g>
<!-- object&#45;&gt;object_type -->
<g id="edge3" class="edge">
<title>object:w&#45;&gt;object_type:e</title>
<path fill="none" stroke="black" d="M165.6,-295.72C154.41,-287.65 151.1,-271 132.5,-271"/>
<polygon fill="black" stroke="black" points="171.85,-297.65 178.44,-303.44 175.68,-298.82 179.5,-300 179.5,-300 179.5,-300 175.68,-298.82 180.56,-296.56 171.85,-297.65 171.85,-297.65"/>
<ellipse fill="none" stroke="black" cx="168.8" cy="-296.71" rx="3.2" ry="3.2"/>
</g>
<!-- opstelplaats -->
<g id="node5" class="node">
<title>opstelplaats</title>
<g id="a_node5"><a xlink:href="../../tables/opstelplaats.html" xlink:title="opstelplaats" target="_top">
<polygon fill="#ffffff" stroke="transparent" points="358,-37 358,-301 612,-301 612,-37 358,-37"/>
<polygon fill="#f5f5f5" stroke="transparent" points="360,-277 360,-299 610,-299 610,-277 360,-277"/>
<polygon fill="none" stroke="black" points="360,-277 360,-299 610,-299 610,-277 360,-277"/>
<text text-anchor="start" x="365" y="-286.2" font-family="Helvetica,sans-Serif" font-weight="bold" font-size="11.00">opstelplaats</text>
<text text-anchor="start" x="568" y="-285.2" font-family="Helvetica,sans-Serif" font-size="11.00">[table]</text>
<polygon fill="none" stroke="black" points="360,-255 360,-277 474,-277 474,-255 360,-255"/>
<image xlink:href="../../images/primaryKeys.png" width="11px" height="12px" preserveAspectRatio="xMinYMin meet" x="365" y="-272"/>
<text text-anchor="start" x="380" y="-263.2" font-family="Helvetica,sans-Serif" font-size="11.00">uuid</text>
<polygon fill="none" stroke="black" points="474,-255 474,-277 610,-277 610,-255 474,-255"/>
<text text-anchor="start" x="477" y="-263.2" font-family="Helvetica,sans-Serif" font-size="11.00">uuid[2147483647]</text>
<polygon fill="#ffffff" stroke="transparent" points="360,-233 360,-255 474,-255 474,-233 360,-233"/>
<polygon fill="none" stroke="black" points="360,-233 360,-255 474,-255 474,-233 360,-233"/>
<text text-anchor="start" x="380" y="-241.2" font-family="Helvetica,sans-Serif" font-size="11.00">geom</text>
<polygon fill="none" stroke="black" points="474,-233 474,-255 610,-255 610,-233 474,-233"/>
<text text-anchor="start" x="477" y="-241.2" font-family="Helvetica,sans-Serif" font-size="11.00">geometry[2147483647]</text>
<polygon fill="none" stroke="black" points="360,-211 360,-233 474,-233 474,-211 360,-211"/>
<text text-anchor="start" x="380" y="-219.2" font-family="Helvetica,sans-Serif" font-size="11.00">datumtijd</text>
<polygon fill="none" stroke="black" points="474,-211 474,-233 610,-233 610,-211 474,-211"/>
<text text-anchor="start" x="477" y="-219.2" font-family="Helvetica,sans-Serif" font-size="11.00">timestamptz[35,6]</text>
<polygon fill="none" stroke="black" points="360,-189 360,-211 474,-211 474,-189 360,-189"/>
<text text-anchor="start" x="380" y="-197.2" font-family="Helvetica,sans-Serif" font-size="11.00">gebruiker</text>
<polygon fill="none" stroke="black" points="474,-189 474,-211 610,-211 610,-189 474,-189"/>
<text text-anchor="start" x="477" y="-197.2" font-family="Helvetica,sans-Serif" font-size="11.00">varchar[255]</text>
<polygon fill="none" stroke="black" points="360,-167 360,-189 474,-189 474,-167 360,-167"/>
<text text-anchor="start" x="380" y="-175.2" font-family="Helvetica,sans-Serif" font-size="11.00">label</text>
<polygon fill="none" stroke="black" points="474,-167 474,-189 610,-189 610,-167 474,-167"/>
<text text-anchor="start" x="477" y="-175.2" font-family="Helvetica,sans-Serif" font-size="11.00">text[2147483647]</text>
<polygon fill="none" stroke="black" points="360,-145 360,-167 474,-167 474,-145 360,-145"/>
<text text-anchor="start" x="380" y="-153.2" font-family="Helvetica,sans-Serif" font-size="11.00">rotatie</text>
<polygon fill="none" stroke="black" points="474,-145 474,-167 610,-167 610,-145 474,-145"/>
<text text-anchor="start" x="477" y="-153.2" font-family="Helvetica,sans-Serif" font-size="11.00">int4[10]</text>
<polygon fill="none" stroke="black" points="360,-123 360,-145 474,-145 474,-123 360,-123"/>
<text text-anchor="start" x="380" y="-131.2" font-family="Helvetica,sans-Serif" font-size="11.00">bijzonderheden</text>
<polygon fill="none" stroke="black" points="474,-123 474,-145 610,-145 610,-123 474,-123"/>
<text text-anchor="start" x="477" y="-131.2" font-family="Helvetica,sans-Serif" font-size="11.00">text[2147483647]</text>
<polygon fill="none" stroke="black" points="360,-101 360,-123 474,-123 474,-101 360,-101"/>
<text text-anchor="start" x="380" y="-109.2" font-family="Helvetica,sans-Serif" font-size="11.00">plusinfo</text>
<polygon fill="none" stroke="black" points="474,-101 474,-123 610,-123 610,-101 474,-101"/>
<text text-anchor="start" x="477" y="-109.2" font-family="Helvetica,sans-Serif" font-size="11.00">jsonb[2147483647]</text>
<polygon fill="#ffffff" stroke="transparent" points="360,-79 360,-101 474,-101 474,-79 360,-79"/>
<polygon fill="none" stroke="black" points="360,-79 360,-101 474,-101 474,-79 360,-79"/>
<image xlink:href="../../images/foreignKeys.png" width="11px" height="12px" preserveAspectRatio="xMinYMin meet" x="365" y="-96"/>
<text text-anchor="start" x="380" y="-87.2" font-family="Helvetica,sans-Serif" font-size="11.00">object_uuid</text>
<polygon fill="none" stroke="black" points="474,-79 474,-101 610,-101 610,-79 474,-79"/>
<text text-anchor="start" x="477" y="-87.2" font-family="Helvetica,sans-Serif" font-size="11.00">uuid[2147483647]</text>
<polygon fill="none" stroke="black" points="360,-57 360,-79 474,-79 474,-57 360,-57"/>
<image xlink:href="../../images/foreignKeys.png" width="11px" height="12px" preserveAspectRatio="xMinYMin meet" x="365" y="-74"/>
<text text-anchor="start" x="380" y="-65.2" font-family="Helvetica,sans-Serif" font-size="11.00">voertuig_id</text>
<polygon fill="none" stroke="black" points="474,-57 474,-79 610,-79 610,-57 474,-57"/>
<text text-anchor="start" x="477" y="-65.2" font-family="Helvetica,sans-Serif" font-size="11.00">int4[10]</text>
<polygon fill="#ffffff" stroke="transparent" points="360,-39 360,-57 423,-57 423,-39 360,-39"/>
<polygon fill="none" stroke="black" points="360,-39 360,-57 423,-57 423,-39 360,-39"/>
<text text-anchor="start" x="363" y="-45.2" font-family="Helvetica,sans-Serif" font-size="11.00">&lt; 2</text>
<polygon fill="#ffffff" stroke="transparent" points="423,-39 423,-57 474,-57 474,-39 423,-39"/>
<polygon fill="none" stroke="black" points="423,-39 423,-57 474,-57 474,-39 423,-39"/>
<text text-anchor="start" x="463" y="-45.2" font-family="Helvetica,sans-Serif" font-size="11.00"> &#160;</text>
<polygon fill="#ffffff" stroke="transparent" points="474,-39 474,-57 610,-57 610,-39 474,-39"/>
<polygon fill="none" stroke="black" points="474,-39 474,-57 610,-57 610,-39 474,-39"/>
<text text-anchor="start" x="587" y="-45.2" font-family="Helvetica,sans-Serif" font-size="11.00">0 &gt;</text>
<polygon fill="none" stroke="black" stroke-width="2" points="359,-38 359,-300 611,-300 611,-38 359,-38"/>
</a>
</g>
</g>
<!-- opstelplaats&#45;&gt;object -->
<g id="edge4" class="edge">
<title>opstelplaats:w&#45;&gt;object:e</title>
<path fill="none" stroke="black" d="M345.4,-95.69C304.94,-136.89 372.09,-388 310.5,-388"/>
<polygon fill="black" stroke="black" points="351.62,-93.09 360.39,-93.32 355.31,-91.54 359,-90 359,-90 359,-90 355.31,-91.54 357.61,-86.68 351.62,-93.09 351.62,-93.09"/>
<ellipse fill="none" stroke="black" cx="348.67" cy="-94.32" rx="3.2" ry="3.2"/>
</g>
<!-- roi.voertuig -->
<g id="node6" class="node">
<title>roi.voertuig</title>
<g id="a_node6"><a xlink:href="../../../roi/tables/voertuig.html" xlink:title="roi.voertuig" target="_top">
<polygon fill="#ffffff" stroke="transparent" points="182.5,-39 182.5,-97 306.5,-97 306.5,-39 182.5,-39"/>
<polygon fill="#f5f5f5" stroke="transparent" points="182.5,-75 182.5,-97 306.5,-97 306.5,-75 182.5,-75"/>
<polygon fill="none" stroke="black" points="182.5,-75 182.5,-97 306.5,-97 306.5,-75 182.5,-75"/>
<text text-anchor="start" x="187.5" y="-84.2" font-family="Helvetica,sans-Serif" font-weight="bold" font-size="11.00">roi.voertuig</text>
<text text-anchor="start" x="264.5" y="-83.2" font-family="Helvetica,sans-Serif" font-size="11.00">[table]</text>
<polygon fill="none" stroke="black" points="182.5,-57 182.5,-75 306.5,-75 306.5,-57 182.5,-57"/>
<text text-anchor="start" x="185.5" y="-63.2" font-family="Helvetica,sans-Serif" font-size="11.00">...</text>
<polygon fill="#ffffff" stroke="transparent" points="182.5,-39 182.5,-57 231.5,-57 231.5,-39 182.5,-39"/>
<polygon fill="none" stroke="black" points="182.5,-39 182.5,-57 231.5,-57 231.5,-39 182.5,-39"/>
<text text-anchor="start" x="185.5" y="-45.2" font-family="Helvetica,sans-Serif" font-size="11.00"> &#160;</text>
<polygon fill="#ffffff" stroke="transparent" points="231.5,-39 231.5,-57 262.5,-57 262.5,-39 231.5,-39"/>
<polygon fill="none" stroke="black" points="231.5,-39 231.5,-57 262.5,-57 262.5,-39 231.5,-39"/>
<text text-anchor="start" x="251.5" y="-45.2" font-family="Helvetica,sans-Serif" font-size="11.00"> &#160;</text>
<polygon fill="#ffffff" stroke="transparent" points="262.5,-39 262.5,-57 306.5,-57 306.5,-39 262.5,-39"/>
<polygon fill="none" stroke="black" points="262.5,-39 262.5,-57 306.5,-57 306.5,-39 262.5,-39"/>
<text text-anchor="start" x="283.5" y="-45.2" font-family="Helvetica,sans-Serif" font-size="11.00">1 &gt;</text>
</a>
</g>
</g>
<!-- opstelplaats&#45;&gt;roi.voertuig -->
<g id="edge5" class="edge">
<title>opstelplaats:w&#45;&gt;roi.voertuig:e</title>
<path fill="none" stroke="black" d="M344.57,-68C334.58,-68 324.39,-68 314.52,-68"/>
<polygon fill="black" stroke="black" points="351,-68 359,-71.6 355,-68 359,-68 359,-68 359,-68 355,-68 359,-64.4 351,-68 351,-68"/>
<ellipse fill="none" stroke="black" cx="347.8" cy="-68" rx="3.2" ry="3.2"/>
</g>
<!-- risico -->
<g id="node7" class="node">
<title>risico</title>
<g id="a_node7"><a xlink:href="../../tables/risico.html" xlink:title="risico" target="_top">
<polygon fill="#ffffff" stroke="transparent" points="442.5,-401 442.5,-459 527.5,-459 527.5,-401 442.5,-401"/>
<polygon fill="#f5f5f5" stroke="transparent" points="443,-437 443,-459 528,-459 528,-437 443,-437"/>
<polygon fill="none" stroke="black" points="443,-437 443,-459 528,-459 528,-437 443,-437"/>
<text text-anchor="start" x="448" y="-446.2" font-family="Helvetica,sans-Serif" font-weight="bold" font-size="11.00">risico</text>
<text text-anchor="start" x="486" y="-445.2" font-family="Helvetica,sans-Serif" font-size="11.00">[table]</text>
<polygon fill="none" stroke="black" points="443,-419 443,-437 528,-437 528,-419 443,-419"/>
<text text-anchor="start" x="446" y="-425.2" font-family="Helvetica,sans-Serif" font-size="11.00">...</text>
<polygon fill="#ffffff" stroke="transparent" points="443,-401 443,-419 484,-419 484,-401 443,-401"/>
<polygon fill="none" stroke="black" points="443,-401 443,-419 484,-419 484,-401 443,-401"/>
<text text-anchor="start" x="446" y="-407.2" font-family="Helvetica,sans-Serif" font-size="11.00">&lt; 1</text>
<polygon fill="#ffffff" stroke="transparent" points="484,-401 484,-419 506,-419 506,-401 484,-401"/>
<polygon fill="none" stroke="black" points="484,-401 484,-419 506,-419 506,-401 484,-401"/>
<text text-anchor="start" x="495" y="-407.2" font-family="Helvetica,sans-Serif" font-size="11.00"> &#160;</text>
<polygon fill="#ffffff" stroke="transparent" points="506,-401 506,-419 528,-419 528,-401 506,-401"/>
<polygon fill="none" stroke="black" points="506,-401 506,-419 528,-419 528,-401 506,-401"/>
<text text-anchor="start" x="517" y="-407.2" font-family="Helvetica,sans-Serif" font-size="11.00"> &#160;</text>
</a>
</g>
</g>
<!-- risico&#45;&gt;object -->
<g id="edge6" class="edge">
<title>risico:w&#45;&gt;object:e</title>
<path fill="none" stroke="black" d="M427.33,-427.16C378.93,-421.42 366.34,-388 310.5,-388"/>
<polygon fill="black" stroke="black" points="434.01,-427.55 441.8,-431.59 438.01,-427.77 442,-428 442,-428 442,-428 438.01,-427.77 442.2,-424.41 434.01,-427.55 434.01,-427.55"/>
<ellipse fill="none" stroke="black" cx="430.82" cy="-427.36" rx="3.2" ry="3.2"/>
</g>
<!-- voorziening -->
<g id="node8" class="node">
<title>voorziening</title>
<g id="a_node8"><a xlink:href="../../tables/voorziening.html" xlink:title="voorziening" target="_top">
<polygon fill="#ffffff" stroke="transparent" points="423,-322 423,-380 547,-380 547,-322 423,-322"/>
<polygon fill="#f5f5f5" stroke="transparent" points="423,-358 423,-380 547,-380 547,-358 423,-358"/>
<polygon fill="none" stroke="black" points="423,-358 423,-380 547,-380 547,-358 423,-358"/>
<text text-anchor="start" x="428" y="-367.2" font-family="Helvetica,sans-Serif" font-weight="bold" font-size="11.00">voorziening</text>
<text text-anchor="start" x="505" y="-366.2" font-family="Helvetica,sans-Serif" font-size="11.00">[table]</text>
<polygon fill="none" stroke="black" points="423,-340 423,-358 547,-358 547,-340 423,-340"/>
<text text-anchor="start" x="426" y="-346.2" font-family="Helvetica,sans-Serif" font-size="11.00">...</text>
<polygon fill="#ffffff" stroke="transparent" points="423,-322 423,-340 484,-340 484,-322 423,-322"/>
<polygon fill="none" stroke="black" points="423,-322 423,-340 484,-340 484,-322 423,-322"/>
<text text-anchor="start" x="426" y="-328.2" font-family="Helvetica,sans-Serif" font-size="11.00">&lt; 2</text>
<polygon fill="#ffffff" stroke="transparent" points="484,-322 484,-340 515,-340 515,-322 484,-322"/>
<polygon fill="none" stroke="black" points="484,-322 484,-340 515,-340 515,-322 484,-322"/>
<text text-anchor="start" x="504" y="-328.2" font-family="Helvetica,sans-Serif" font-size="11.00"> &#160;</text>
<polygon fill="#ffffff" stroke="transparent" points="515,-322 515,-340 547,-340 547,-322 515,-322"/>
<polygon fill="none" stroke="black" points="515,-322 515,-340 547,-340 547,-322 515,-322"/>
<text text-anchor="start" x="536" y="-328.2" font-family="Helvetica,sans-Serif" font-size="11.00"> &#160;</text>
</a>
</g>
</g>
<!-- voorziening&#45;&gt;object -->
<g id="edge7" class="edge">
<title>voorziening:w&#45;&gt;object:e</title>
<path fill="none" stroke="black" d="M407.59,-350.08C367.75,-356.38 357.77,-388 310.5,-388"/>
<polygon fill="black" stroke="black" points="414.02,-349.6 422.27,-352.59 418.01,-349.3 422,-349 422,-349 422,-349 418.01,-349.3 421.73,-345.41 414.02,-349.6 414.02,-349.6"/>
<ellipse fill="none" stroke="black" cx="410.83" cy="-349.84" rx="3.2" ry="3.2"/>
</g>
</g>
</svg>
