<?xml version="1.0" encoding="UTF-8" standalone="no"?>
<!DOCTYPE svg PUBLIC "-//W3C//DTD SVG 1.1//EN"
 "http://www.w3.org/Graphics/SVG/1.1/DTD/svg11.dtd">
<!-- Generated by graphviz version 2.50.0 (0)
 -->
<!-- Title: oneDegreeRelationshipsDiagram Pages: 1 -->
<svg width="456pt" height="395pt"
 viewBox="0.00 0.00 456.00 395.00" xmlns="http://www.w3.org/2000/svg" xmlns:xlink="http://www.w3.org/1999/xlink">
<g id="graph0" class="graph" transform="scale(1 1) rotate(0) translate(4 391)">
<title>oneDegreeRelationshipsDiagram</title>
<polygon fill="#ffffff" stroke="transparent" points="-4,4 -4,-391 452,-391 452,4 -4,4"/>
<text text-anchor="middle" x="79.5" y="-7.2" font-family="Helvetica,sans-Serif" font-size="11.00">Generated by SchemaSpy</text>
<!-- risico -->
<g id="node1" class="node">
<title>risico</title>
<g id="a_node1"><a xlink:href="../../tables/risico.html" xlink:title="risico" target="_top">
<polygon fill="#ffffff" stroke="transparent" points="186,-141 186,-383 440,-383 440,-141 186,-141"/>
<polygon fill="#f5f5f5" stroke="transparent" points="188,-359 188,-381 438,-381 438,-359 188,-359"/>
<polygon fill="none" stroke="black" points="188,-359 188,-381 438,-381 438,-359 188,-359"/>
<text text-anchor="start" x="193" y="-368.2" font-family="Helvetica,sans-Serif" font-weight="bold" font-size="11.00">risico</text>
<text text-anchor="start" x="396" y="-367.2" font-family="Helvetica,sans-Serif" font-size="11.00">[table]</text>
<polygon fill="none" stroke="black" points="188,-337 188,-359 302,-359 302,-337 188,-337"/>
<image xlink:href="../../images/primaryKeys.png" width="11px" height="12px" preserveAspectRatio="xMinYMin meet" x="193" y="-354"/>
<text text-anchor="start" x="208" y="-345.2" font-family="Helvetica,sans-Serif" font-size="11.00">uuid</text>
<polygon fill="none" stroke="black" points="302,-337 302,-359 438,-359 438,-337 302,-337"/>
<text text-anchor="start" x="305" y="-345.2" font-family="Helvetica,sans-Serif" font-size="11.00">uuid[2147483647]</text>
<polygon fill="#ffffff" stroke="transparent" points="188,-315 188,-337 302,-337 302,-315 188,-315"/>
<polygon fill="none" stroke="black" points="188,-315 188,-337 302,-337 302,-315 188,-315"/>
<text text-anchor="start" x="208" y="-323.2" font-family="Helvetica,sans-Serif" font-size="11.00">geom</text>
<polygon fill="none" stroke="black" points="302,-315 302,-337 438,-337 438,-315 302,-315"/>
<text text-anchor="start" x="305" y="-323.2" font-family="Helvetica,sans-Serif" font-size="11.00">geometry[2147483647]</text>
<polygon fill="none" stroke="black" points="188,-293 188,-315 302,-315 302,-293 188,-293"/>
<text text-anchor="start" x="208" y="-301.2" font-family="Helvetica,sans-Serif" font-size="11.00">datumtijd</text>
<polygon fill="none" stroke="black" points="302,-293 302,-315 438,-315 438,-293 302,-293"/>
<text text-anchor="start" x="305" y="-301.2" font-family="Helvetica,sans-Serif" font-size="11.00">timestamptz[35,6]</text>
<polygon fill="none" stroke="black" points="188,-271 188,-293 302,-293 302,-271 188,-271"/>
<text text-anchor="start" x="208" y="-279.2" font-family="Helvetica,sans-Serif" font-size="11.00">gebruiker</text>
<polygon fill="none" stroke="black" points="302,-271 302,-293 438,-293 438,-271 302,-271"/>
<text text-anchor="start" x="305" y="-279.2" font-family="Helvetica,sans-Serif" font-size="11.00">varchar[255]</text>
<polygon fill="none" stroke="black" points="188,-249 188,-271 302,-271 302,-249 188,-249"/>
<text text-anchor="start" x="208" y="-257.2" font-family="Helvetica,sans-Serif" font-size="11.00">label</text>
<polygon fill="none" stroke="black" points="302,-249 302,-271 438,-271 438,-249 302,-249"/>
<text text-anchor="start" x="305" y="-257.2" font-family="Helvetica,sans-Serif" font-size="11.00">text[2147483647]</text>
<polygon fill="none" stroke="black" points="188,-227 188,-249 302,-249 302,-227 188,-227"/>
<text text-anchor="start" x="208" y="-235.2" font-family="Helvetica,sans-Serif" font-size="11.00">rotatie</text>
<polygon fill="none" stroke="black" points="302,-227 302,-249 438,-249 438,-227 302,-227"/>
<text text-anchor="start" x="305" y="-235.2" font-family="Helvetica,sans-Serif" font-size="11.00">int4[10]</text>
<polygon fill="none" stroke="black" points="188,-205 188,-227 302,-227 302,-205 188,-205"/>
<text text-anchor="start" x="208" y="-213.2" font-family="Helvetica,sans-Serif" font-size="11.00">bijzonderheden</text>
<polygon fill="none" stroke="black" points="302,-205 302,-227 438,-227 438,-205 302,-205"/>
<text text-anchor="start" x="305" y="-213.2" font-family="Helvetica,sans-Serif" font-size="11.00">text[2147483647]</text>
<polygon fill="none" stroke="black" points="188,-183 188,-205 302,-205 302,-183 188,-183"/>
<text text-anchor="start" x="208" y="-191.2" font-family="Helvetica,sans-Serif" font-size="11.00">plusinfo</text>
<polygon fill="none" stroke="black" points="302,-183 302,-205 438,-205 438,-183 302,-183"/>
<text text-anchor="start" x="305" y="-191.2" font-family="Helvetica,sans-Serif" font-size="11.00">jsonb[2147483647]</text>
<polygon fill="#ffffff" stroke="transparent" points="188,-161 188,-183 302,-183 302,-161 188,-161"/>
<polygon fill="none" stroke="black" points="188,-161 188,-183 302,-183 302,-161 188,-161"/>
<image xlink:href="../../images/foreignKeys.png" width="11px" height="12px" preserveAspectRatio="xMinYMin meet" x="193" y="-178"/>
<text text-anchor="start" x="208" y="-169.2" font-family="Helvetica,sans-Serif" font-size="11.00">object_uuid</text>
<polygon fill="none" stroke="black" points="302,-161 302,-183 438,-183 438,-161 302,-161"/>
<text text-anchor="start" x="305" y="-169.2" font-family="Helvetica,sans-Serif" font-size="11.00">uuid[2147483647]</text>
<polygon fill="#ffffff" stroke="transparent" points="188,-143 188,-161 251,-161 251,-143 188,-143"/>
<polygon fill="none" stroke="black" points="188,-143 188,-161 251,-161 251,-143 188,-143"/>
<text text-anchor="start" x="191" y="-149.2" font-family="Helvetica,sans-Serif" font-size="11.00">&lt; 1</text>
<polygon fill="#ffffff" stroke="transparent" points="251,-143 251,-161 302,-161 302,-143 251,-143"/>
<polygon fill="none" stroke="black" points="251,-143 251,-161 302,-161 302,-143 251,-143"/>
<text text-anchor="start" x="291" y="-149.2" font-family="Helvetica,sans-Serif" font-size="11.00"> &#160;</text>
<polygon fill="#ffffff" stroke="transparent" points="302,-143 302,-161 438,-161 438,-143 302,-143"/>
<polygon fill="none" stroke="black" points="302,-143 302,-161 438,-161 438,-143 302,-143"/>
<text text-anchor="start" x="415" y="-149.2" font-family="Helvetica,sans-Serif" font-size="11.00">0 &gt;</text>
<polygon fill="none" stroke="black" stroke-width="2" points="187,-142 187,-382 439,-382 439,-142 187,-142"/>
</a>
</g>
</g>
<!-- object -->
<g id="node2" class="node">
<title>object</title>
<g id="a_node2"><a xlink:href="../../tables/object.html" xlink:title="object" target="_top">
<polygon fill="#ffffff" stroke="transparent" points="8,-37 8,-205 137,-205 137,-37 8,-37"/>
<polygon fill="#f5f5f5" stroke="transparent" points="8.5,-183 8.5,-205 137.5,-205 137.5,-183 8.5,-183"/>
<polygon fill="none" stroke="black" points="8.5,-183 8.5,-205 137.5,-205 137.5,-183 8.5,-183"/>
<text text-anchor="start" x="13.5" y="-192.2" font-family="Helvetica,sans-Serif" font-weight="bold" font-size="11.00">object</text>
<text text-anchor="start" x="95.5" y="-191.2" font-family="Helvetica,sans-Serif" font-size="11.00">[table]</text>
<polygon fill="none" stroke="black" points="8.5,-161 8.5,-183 137.5,-183 137.5,-161 8.5,-161"/>
<image xlink:href="../../images/primaryKeys.png" width="11px" height="12px" preserveAspectRatio="xMinYMin meet" x="13.5" y="-178"/>
<text text-anchor="start" x="28.5" y="-169.2" font-family="Helvetica,sans-Serif" font-size="11.00">uuid</text>
<polygon fill="#ffffff" stroke="transparent" points="8.5,-139 8.5,-161 137.5,-161 137.5,-139 8.5,-139"/>
<polygon fill="none" stroke="black" points="8.5,-139 8.5,-161 137.5,-161 137.5,-139 8.5,-139"/>
<text text-anchor="start" x="28.5" y="-147.2" font-family="Helvetica,sans-Serif" font-size="11.00">geom</text>
<polygon fill="#ffffff" stroke="transparent" points="8.5,-117 8.5,-139 137.5,-139 137.5,-117 8.5,-117"/>
<polygon fill="none" stroke="black" points="8.5,-117 8.5,-139 137.5,-139 137.5,-117 8.5,-117"/>
<text text-anchor="start" x="28.5" y="-125.2" font-family="Helvetica,sans-Serif" font-size="11.00">revisie_frequentie</text>
<polygon fill="#ffffff" stroke="transparent" points="8.5,-95 8.5,-117 137.5,-117 137.5,-95 8.5,-95"/>
<polygon fill="none" stroke="black" points="8.5,-95 8.5,-117 137.5,-117 137.5,-95 8.5,-95"/>
<image xlink:href="../../images/foreignKeys.png" width="11px" height="12px" preserveAspectRatio="xMinYMin meet" x="13.5" y="-112"/>
<text text-anchor="start" x="28.5" y="-103.2" font-family="Helvetica,sans-Serif" font-size="11.00">fase_id</text>
<polygon fill="#ffffff" stroke="transparent" points="8.5,-73 8.5,-95 137.5,-95 137.5,-73 8.5,-73"/>
<polygon fill="none" stroke="black" points="8.5,-73 8.5,-95 137.5,-95 137.5,-73 8.5,-73"/>
<image xlink:href="../../images/foreignKeys.png" width="11px" height="12px" preserveAspectRatio="xMinYMin meet" x="13.5" y="-90"/>
<text text-anchor="start" x="28.5" y="-81.2" font-family="Helvetica,sans-Serif" font-size="11.00">object_type_id</text>
<polygon fill="none" stroke="black" points="8.5,-55 8.5,-73 137.5,-73 137.5,-55 8.5,-55"/>
<text text-anchor="start" x="11.5" y="-61.2" font-family="Helvetica,sans-Serif" font-size="11.00">...</text>
<polygon fill="#ffffff" stroke="transparent" points="8.5,-37 8.5,-55 65.5,-55 65.5,-37 8.5,-37"/>
<polygon fill="none" stroke="black" points="8.5,-37 8.5,-55 65.5,-55 65.5,-37 8.5,-37"/>
<text text-anchor="start" x="11.5" y="-43.2" font-family="Helvetica,sans-Serif" font-size="11.00">&lt; 2</text>
<polygon fill="#ffffff" stroke="transparent" points="65.5,-37 65.5,-55 95.5,-55 95.5,-37 65.5,-37"/>
<polygon fill="none" stroke="black" points="65.5,-37 65.5,-55 95.5,-55 95.5,-37 65.5,-37"/>
<text text-anchor="start" x="84.5" y="-43.2" font-family="Helvetica,sans-Serif" font-size="11.00"> &#160;</text>
<polygon fill="#ffffff" stroke="transparent" points="95.5,-37 95.5,-55 137.5,-55 137.5,-37 95.5,-37"/>
<polygon fill="none" stroke="black" points="95.5,-37 95.5,-55 137.5,-55 137.5,-37 95.5,-37"/>
<text text-anchor="start" x="114.5" y="-43.2" font-family="Helvetica,sans-Serif" font-size="11.00">4 &gt;</text>
</a>
</g>
</g>
<!-- risico&#45;&gt;object -->
<g id="edge1" class="edge">
<title>risico:w&#45;&gt;object:e</title>
<path fill="none" stroke="black" d="M172.28,-172C161.29,-172 154.16,-172 138.5,-172"/>
<polygon fill="black" stroke="black" points="179,-172 187,-175.6 183,-172 187,-172 187,-172 187,-172 183,-172 187,-168.4 179,-172 179,-172"/>
<ellipse fill="none" stroke="black" cx="175.8" cy="-172" rx="3.2" ry="3.2"/>
</g>
</g>
</svg>
