<?xml version="1.0" encoding="UTF-8" standalone="no"?>
<!DOCTYPE svg PUBLIC "-//W3C//DTD SVG 1.1//EN"
 "http://www.w3.org/Graphics/SVG/1.1/DTD/svg11.dtd">
<!-- Generated by graphviz version 2.50.0 (0)
 -->
<!-- Title: twoDegreesRelationshipsDiagram Pages: 1 -->
<svg width="628pt" height="528pt"
 viewBox="0.00 0.00 628.00 528.00" xmlns="http://www.w3.org/2000/svg" xmlns:xlink="http://www.w3.org/1999/xlink">
<g id="graph0" class="graph" transform="scale(1 1) rotate(0) translate(4 524)">
<title>twoDegreesRelationshipsDiagram</title>
<polygon fill="#ffffff" stroke="transparent" points="-4,4 -4,-524 624,-524 624,4 -4,4"/>
<text text-anchor="middle" x="79.5" y="-7.2" font-family="Helvetica,sans-Serif" font-size="11.00">Generated by SchemaSpy</text>
<!-- bereikbaarheid -->
<g id="node1" class="node">
<title>bereikbaarheid</title>
<g id="a_node1"><a xlink:href="../../tables/bereikbaarheid.html" xlink:title="bereikbaarheid" target="_top">
<polygon fill="#ffffff" stroke="transparent" points="412.5,-458 412.5,-516 557.5,-516 557.5,-458 412.5,-458"/>
<polygon fill="#f5f5f5" stroke="transparent" points="413,-494 413,-516 558,-516 558,-494 413,-494"/>
<polygon fill="none" stroke="black" points="413,-494 413,-516 558,-516 558,-494 413,-494"/>
<text text-anchor="start" x="418" y="-503.2" font-family="Helvetica,sans-Serif" font-weight="bold" font-size="11.00">bereikbaarheid</text>
<text text-anchor="start" x="516" y="-502.2" font-family="Helvetica,sans-Serif" font-size="11.00">[table]</text>
<polygon fill="none" stroke="black" points="413,-476 413,-494 558,-494 558,-476 413,-476"/>
<text text-anchor="start" x="416" y="-482.2" font-family="Helvetica,sans-Serif" font-size="11.00">...</text>
<polygon fill="#ffffff" stroke="transparent" points="413,-458 413,-476 484,-476 484,-458 413,-458"/>
<polygon fill="none" stroke="black" points="413,-458 413,-476 484,-476 484,-458 413,-458"/>
<text text-anchor="start" x="416" y="-464.2" font-family="Helvetica,sans-Serif" font-size="11.00">&lt; 2</text>
<polygon fill="#ffffff" stroke="transparent" points="484,-458 484,-476 521,-476 521,-458 484,-458"/>
<polygon fill="none" stroke="black" points="484,-458 484,-476 521,-476 521,-458 484,-458"/>
<text text-anchor="start" x="510" y="-464.2" font-family="Helvetica,sans-Serif" font-size="11.00"> &#160;</text>
<polygon fill="#ffffff" stroke="transparent" points="521,-458 521,-476 558,-476 558,-458 521,-458"/>
<polygon fill="none" stroke="black" points="521,-458 521,-476 558,-476 558,-458 521,-458"/>
<text text-anchor="start" x="547" y="-464.2" font-family="Helvetica,sans-Serif" font-size="11.00"> &#160;</text>
</a>
</g>
</g>
<!-- object -->
<g id="node2" class="node">
<title>object</title>
<g id="a_node2"><a xlink:href="../../tables/object.html" xlink:title="object" target="_top">
<polygon fill="#ffffff" stroke="transparent" points="180,-141 180,-309 309,-309 309,-141 180,-141"/>
<polygon fill="#f5f5f5" stroke="transparent" points="180.5,-287 180.5,-309 309.5,-309 309.5,-287 180.5,-287"/>
<polygon fill="none" stroke="black" points="180.5,-287 180.5,-309 309.5,-309 309.5,-287 180.5,-287"/>
<text text-anchor="start" x="185.5" y="-296.2" font-family="Helvetica,sans-Serif" font-weight="bold" font-size="11.00">object</text>
<text text-anchor="start" x="267.5" y="-295.2" font-family="Helvetica,sans-Serif" font-size="11.00">[table]</text>
<polygon fill="none" stroke="black" points="180.5,-265 180.5,-287 309.5,-287 309.5,-265 180.5,-265"/>
<image xlink:href="../../images/primaryKeys.png" width="11px" height="12px" preserveAspectRatio="xMinYMin meet" x="185.5" y="-282"/>
<text text-anchor="start" x="200.5" y="-273.2" font-family="Helvetica,sans-Serif" font-size="11.00">uuid</text>
<polygon fill="#ffffff" stroke="transparent" points="180.5,-243 180.5,-265 309.5,-265 309.5,-243 180.5,-243"/>
<polygon fill="none" stroke="black" points="180.5,-243 180.5,-265 309.5,-265 309.5,-243 180.5,-243"/>
<text text-anchor="start" x="200.5" y="-251.2" font-family="Helvetica,sans-Serif" font-size="11.00">geom</text>
<polygon fill="#ffffff" stroke="transparent" points="180.5,-221 180.5,-243 309.5,-243 309.5,-221 180.5,-221"/>
<polygon fill="none" stroke="black" points="180.5,-221 180.5,-243 309.5,-243 309.5,-221 180.5,-221"/>
<text text-anchor="start" x="200.5" y="-229.2" font-family="Helvetica,sans-Serif" font-size="11.00">revisie_frequentie</text>
<polygon fill="#ffffff" stroke="transparent" points="180.5,-199 180.5,-221 309.5,-221 309.5,-199 180.5,-199"/>
<polygon fill="none" stroke="black" points="180.5,-199 180.5,-221 309.5,-221 309.5,-199 180.5,-199"/>
<image xlink:href="../../images/foreignKeys.png" width="11px" height="12px" preserveAspectRatio="xMinYMin meet" x="185.5" y="-216"/>
<text text-anchor="start" x="200.5" y="-207.2" font-family="Helvetica,sans-Serif" font-size="11.00">fase_id</text>
<polygon fill="#ffffff" stroke="transparent" points="180.5,-177 180.5,-199 309.5,-199 309.5,-177 180.5,-177"/>
<polygon fill="none" stroke="black" points="180.5,-177 180.5,-199 309.5,-199 309.5,-177 180.5,-177"/>
<image xlink:href="../../images/foreignKeys.png" width="11px" height="12px" preserveAspectRatio="xMinYMin meet" x="185.5" y="-194"/>
<text text-anchor="start" x="200.5" y="-185.2" font-family="Helvetica,sans-Serif" font-size="11.00">object_type_id</text>
<polygon fill="none" stroke="black" points="180.5,-159 180.5,-177 309.5,-177 309.5,-159 180.5,-159"/>
<text text-anchor="start" x="183.5" y="-165.2" font-family="Helvetica,sans-Serif" font-size="11.00">...</text>
<polygon fill="#ffffff" stroke="transparent" points="180.5,-141 180.5,-159 237.5,-159 237.5,-141 180.5,-141"/>
<polygon fill="none" stroke="black" points="180.5,-141 180.5,-159 237.5,-159 237.5,-141 180.5,-141"/>
<text text-anchor="start" x="183.5" y="-147.2" font-family="Helvetica,sans-Serif" font-size="11.00">&lt; 2</text>
<polygon fill="#ffffff" stroke="transparent" points="237.5,-141 237.5,-159 267.5,-159 267.5,-141 237.5,-141"/>
<polygon fill="none" stroke="black" points="237.5,-141 237.5,-159 267.5,-159 267.5,-141 237.5,-141"/>
<text text-anchor="start" x="256.5" y="-147.2" font-family="Helvetica,sans-Serif" font-size="11.00"> &#160;</text>
<polygon fill="#ffffff" stroke="transparent" points="267.5,-141 267.5,-159 309.5,-159 309.5,-141 267.5,-141"/>
<polygon fill="none" stroke="black" points="267.5,-141 267.5,-159 309.5,-159 309.5,-141 267.5,-141"/>
<text text-anchor="start" x="286.5" y="-147.2" font-family="Helvetica,sans-Serif" font-size="11.00">4 &gt;</text>
</a>
</g>
</g>
<!-- bereikbaarheid&#45;&gt;object -->
<g id="edge1" class="edge">
<title>bereikbaarheid:w&#45;&gt;object:e</title>
<path fill="none" stroke="black" d="M397.48,-484.05C375.99,-480.87 365.71,-469.59 350,-448 303.84,-384.59 388.93,-276 310.5,-276"/>
<polygon fill="black" stroke="black" points="404.02,-484.48 411.76,-488.59 408.01,-484.74 412,-485 412,-485 412,-485 408.01,-484.74 412.24,-481.41 404.02,-484.48 404.02,-484.48"/>
<ellipse fill="none" stroke="black" cx="400.82" cy="-484.27" rx="3.2" ry="3.2"/>
</g>
<!-- roi.fase -->
<g id="node3" class="node">
<title>roi.fase</title>
<g id="a_node3"><a xlink:href="../../../roi/tables/fase.html" xlink:title="roi.fase" target="_top">
<polygon fill="#ffffff" stroke="transparent" points="20,-212 20,-270 119,-270 119,-212 20,-212"/>
<polygon fill="#f5f5f5" stroke="transparent" points="20.5,-248 20.5,-270 119.5,-270 119.5,-248 20.5,-248"/>
<polygon fill="none" stroke="black" points="20.5,-248 20.5,-270 119.5,-270 119.5,-248 20.5,-248"/>
<text text-anchor="start" x="25.5" y="-257.2" font-family="Helvetica,sans-Serif" font-weight="bold" font-size="11.00">roi.fase</text>
<text text-anchor="start" x="77.5" y="-256.2" font-family="Helvetica,sans-Serif" font-size="11.00">[table]</text>
<polygon fill="none" stroke="black" points="20.5,-230 20.5,-248 119.5,-248 119.5,-230 20.5,-230"/>
<text text-anchor="start" x="23.5" y="-236.2" font-family="Helvetica,sans-Serif" font-size="11.00">...</text>
<polygon fill="#ffffff" stroke="transparent" points="20.5,-212 20.5,-230 56.5,-230 56.5,-212 20.5,-212"/>
<polygon fill="none" stroke="black" points="20.5,-212 20.5,-230 56.5,-230 56.5,-212 20.5,-212"/>
<text text-anchor="start" x="23.5" y="-218.2" font-family="Helvetica,sans-Serif" font-size="11.00"> &#160;</text>
<polygon fill="#ffffff" stroke="transparent" points="56.5,-212 56.5,-230 81.5,-230 81.5,-212 56.5,-212"/>
<polygon fill="none" stroke="black" points="56.5,-212 56.5,-230 81.5,-230 81.5,-212 56.5,-212"/>
<text text-anchor="start" x="70.5" y="-218.2" font-family="Helvetica,sans-Serif" font-size="11.00"> &#160;</text>
<polygon fill="#ffffff" stroke="transparent" points="81.5,-212 81.5,-230 119.5,-230 119.5,-212 81.5,-212"/>
<polygon fill="none" stroke="black" points="81.5,-212 81.5,-230 119.5,-230 119.5,-212 81.5,-212"/>
<text text-anchor="start" x="96.5" y="-218.2" font-family="Helvetica,sans-Serif" font-size="11.00">1 &gt;</text>
</a>
</g>
</g>
<!-- object&#45;&gt;roi.fase -->
<g id="edge2" class="edge">
<title>object:w&#45;&gt;roi.fase:e</title>
<path fill="none" stroke="black" d="M165.23,-212.89C148.97,-220.22 144.01,-239 120.5,-239"/>
<polygon fill="black" stroke="black" points="171.66,-211.59 180.21,-213.53 175.58,-210.79 179.5,-210 179.5,-210 179.5,-210 175.58,-210.79 178.79,-206.47 171.66,-211.59 171.66,-211.59"/>
<ellipse fill="none" stroke="black" cx="168.52" cy="-212.22" rx="3.2" ry="3.2"/>
</g>
<!-- object_type -->
<g id="node4" class="node">
<title>object_type</title>
<g id="a_node4"><a xlink:href="../../tables/object_type.html" xlink:title="object_type" target="_top">
<polygon fill="#ffffff" stroke="transparent" points="8,-133 8,-191 131,-191 131,-133 8,-133"/>
<polygon fill="#f5f5f5" stroke="transparent" points="8.5,-169 8.5,-191 131.5,-191 131.5,-169 8.5,-169"/>
<polygon fill="none" stroke="black" points="8.5,-169 8.5,-191 131.5,-191 131.5,-169 8.5,-169"/>
<text text-anchor="start" x="13.5" y="-178.2" font-family="Helvetica,sans-Serif" font-weight="bold" font-size="11.00">object_type</text>
<text text-anchor="start" x="89.5" y="-177.2" font-family="Helvetica,sans-Serif" font-size="11.00">[table]</text>
<polygon fill="none" stroke="black" points="8.5,-151 8.5,-169 131.5,-169 131.5,-151 8.5,-151"/>
<text text-anchor="start" x="11.5" y="-157.2" font-family="Helvetica,sans-Serif" font-size="11.00">...</text>
<polygon fill="#ffffff" stroke="transparent" points="8.5,-133 8.5,-151 56.5,-151 56.5,-133 8.5,-133"/>
<polygon fill="none" stroke="black" points="8.5,-133 8.5,-151 56.5,-151 56.5,-133 8.5,-133"/>
<text text-anchor="start" x="11.5" y="-139.2" font-family="Helvetica,sans-Serif" font-size="11.00"> &#160;</text>
<polygon fill="#ffffff" stroke="transparent" points="56.5,-133 56.5,-151 87.5,-151 87.5,-133 56.5,-133"/>
<polygon fill="none" stroke="black" points="56.5,-133 56.5,-151 87.5,-151 87.5,-133 56.5,-133"/>
<text text-anchor="start" x="76.5" y="-139.2" font-family="Helvetica,sans-Serif" font-size="11.00"> &#160;</text>
<polygon fill="#ffffff" stroke="transparent" points="87.5,-133 87.5,-151 131.5,-151 131.5,-133 87.5,-133"/>
<polygon fill="none" stroke="black" points="87.5,-133 87.5,-151 131.5,-151 131.5,-133 87.5,-133"/>
<text text-anchor="start" x="108.5" y="-139.2" font-family="Helvetica,sans-Serif" font-size="11.00">1 &gt;</text>
</a>
</g>
</g>
<!-- object&#45;&gt;object_type -->
<g id="edge3" class="edge">
<title>object:w&#45;&gt;object_type:e</title>
<path fill="none" stroke="black" d="M165.66,-183.87C154.45,-176.08 150.93,-160 132.5,-160"/>
<polygon fill="black" stroke="black" points="171.83,-185.71 178.47,-191.45 175.67,-186.86 179.5,-188 179.5,-188 179.5,-188 175.67,-186.86 180.53,-184.55 171.83,-185.71 171.83,-185.71"/>
<ellipse fill="none" stroke="black" cx="168.77" cy="-184.8" rx="3.2" ry="3.2"/>
</g>
<!-- opstelplaats -->
<g id="node5" class="node">
<title>opstelplaats</title>
<g id="a_node5"><a xlink:href="../../tables/opstelplaats.html" xlink:title="opstelplaats" target="_top">
<polygon fill="#ffffff" stroke="transparent" points="421,-379 421,-437 549,-437 549,-379 421,-379"/>
<polygon fill="#f5f5f5" stroke="transparent" points="421,-415 421,-437 549,-437 549,-415 421,-415"/>
<polygon fill="none" stroke="black" points="421,-415 421,-437 549,-437 549,-415 421,-415"/>
<text text-anchor="start" x="426" y="-424.2" font-family="Helvetica,sans-Serif" font-weight="bold" font-size="11.00">opstelplaats</text>
<text text-anchor="start" x="507" y="-423.2" font-family="Helvetica,sans-Serif" font-size="11.00">[table]</text>
<polygon fill="none" stroke="black" points="421,-397 421,-415 549,-415 549,-397 421,-397"/>
<text text-anchor="start" x="424" y="-403.2" font-family="Helvetica,sans-Serif" font-size="11.00">...</text>
<polygon fill="#ffffff" stroke="transparent" points="421,-379 421,-397 484,-397 484,-379 421,-379"/>
<polygon fill="none" stroke="black" points="421,-379 421,-397 484,-397 484,-379 421,-379"/>
<text text-anchor="start" x="424" y="-385.2" font-family="Helvetica,sans-Serif" font-size="11.00">&lt; 2</text>
<polygon fill="#ffffff" stroke="transparent" points="484,-379 484,-397 516,-397 516,-379 484,-379"/>
<polygon fill="none" stroke="black" points="484,-379 484,-397 516,-397 516,-379 484,-379"/>
<text text-anchor="start" x="505" y="-385.2" font-family="Helvetica,sans-Serif" font-size="11.00"> &#160;</text>
<polygon fill="#ffffff" stroke="transparent" points="516,-379 516,-397 549,-397 549,-379 516,-379"/>
<polygon fill="none" stroke="black" points="516,-379 516,-397 549,-397 549,-379 516,-379"/>
<text text-anchor="start" x="538" y="-385.2" font-family="Helvetica,sans-Serif" font-size="11.00"> &#160;</text>
</a>
</g>
</g>
<!-- opstelplaats&#45;&gt;object -->
<g id="edge4" class="edge">
<title>opstelplaats:w&#45;&gt;object:e</title>
<path fill="none" stroke="black" d="M405.47,-405.21C381.16,-402.28 370.18,-390.97 350,-369 319.62,-335.93 355.41,-276 310.5,-276"/>
<polygon fill="black" stroke="black" points="412.01,-405.57 419.81,-409.59 416.01,-405.78 420,-406 420,-406 420,-406 416.01,-405.78 420.19,-402.41 412.01,-405.57 412.01,-405.57"/>
<ellipse fill="none" stroke="black" cx="408.82" cy="-405.4" rx="3.2" ry="3.2"/>
</g>
<!-- risico -->
<g id="node6" class="node">
<title>risico</title>
<g id="a_node6"><a xlink:href="../../tables/risico.html" xlink:title="risico" target="_top">
<polygon fill="#ffffff" stroke="transparent" points="358,-116 358,-358 612,-358 612,-116 358,-116"/>
<polygon fill="#f5f5f5" stroke="transparent" points="360,-334 360,-356 610,-356 610,-334 360,-334"/>
<polygon fill="none" stroke="black" points="360,-334 360,-356 610,-356 610,-334 360,-334"/>
<text text-anchor="start" x="365" y="-343.2" font-family="Helvetica,sans-Serif" font-weight="bold" font-size="11.00">risico</text>
<text text-anchor="start" x="568" y="-342.2" font-family="Helvetica,sans-Serif" font-size="11.00">[table]</text>
<polygon fill="none" stroke="black" points="360,-312 360,-334 474,-334 474,-312 360,-312"/>
<image xlink:href="../../images/primaryKeys.png" width="11px" height="12px" preserveAspectRatio="xMinYMin meet" x="365" y="-329"/>
<text text-anchor="start" x="380" y="-320.2" font-family="Helvetica,sans-Serif" font-size="11.00">uuid</text>
<polygon fill="none" stroke="black" points="474,-312 474,-334 610,-334 610,-312 474,-312"/>
<text text-anchor="start" x="477" y="-320.2" font-family="Helvetica,sans-Serif" font-size="11.00">uuid[2147483647]</text>
<polygon fill="#ffffff" stroke="transparent" points="360,-290 360,-312 474,-312 474,-290 360,-290"/>
<polygon fill="none" stroke="black" points="360,-290 360,-312 474,-312 474,-290 360,-290"/>
<text text-anchor="start" x="380" y="-298.2" font-family="Helvetica,sans-Serif" font-size="11.00">geom</text>
<polygon fill="none" stroke="black" points="474,-290 474,-312 610,-312 610,-290 474,-290"/>
<text text-anchor="start" x="477" y="-298.2" font-family="Helvetica,sans-Serif" font-size="11.00">geometry[2147483647]</text>
<polygon fill="none" stroke="black" points="360,-268 360,-290 474,-290 474,-268 360,-268"/>
<text text-anchor="start" x="380" y="-276.2" font-family="Helvetica,sans-Serif" font-size="11.00">datumtijd</text>
<polygon fill="none" stroke="black" points="474,-268 474,-290 610,-290 610,-268 474,-268"/>
<text text-anchor="start" x="477" y="-276.2" font-family="Helvetica,sans-Serif" font-size="11.00">timestamptz[35,6]</text>
<polygon fill="none" stroke="black" points="360,-246 360,-268 474,-268 474,-246 360,-246"/>
<text text-anchor="start" x="380" y="-254.2" font-family="Helvetica,sans-Serif" font-size="11.00">gebruiker</text>
<polygon fill="none" stroke="black" points="474,-246 474,-268 610,-268 610,-246 474,-246"/>
<text text-anchor="start" x="477" y="-254.2" font-family="Helvetica,sans-Serif" font-size="11.00">varchar[255]</text>
<polygon fill="none" stroke="black" points="360,-224 360,-246 474,-246 474,-224 360,-224"/>
<text text-anchor="start" x="380" y="-232.2" font-family="Helvetica,sans-Serif" font-size="11.00">label</text>
<polygon fill="none" stroke="black" points="474,-224 474,-246 610,-246 610,-224 474,-224"/>
<text text-anchor="start" x="477" y="-232.2" font-family="Helvetica,sans-Serif" font-size="11.00">text[2147483647]</text>
<polygon fill="none" stroke="black" points="360,-202 360,-224 474,-224 474,-202 360,-202"/>
<text text-anchor="start" x="380" y="-210.2" font-family="Helvetica,sans-Serif" font-size="11.00">rotatie</text>
<polygon fill="none" stroke="black" points="474,-202 474,-224 610,-224 610,-202 474,-202"/>
<text text-anchor="start" x="477" y="-210.2" font-family="Helvetica,sans-Serif" font-size="11.00">int4[10]</text>
<polygon fill="none" stroke="black" points="360,-180 360,-202 474,-202 474,-180 360,-180"/>
<text text-anchor="start" x="380" y="-188.2" font-family="Helvetica,sans-Serif" font-size="11.00">bijzonderheden</text>
<polygon fill="none" stroke="black" points="474,-180 474,-202 610,-202 610,-180 474,-180"/>
<text text-anchor="start" x="477" y="-188.2" font-family="Helvetica,sans-Serif" font-size="11.00">text[2147483647]</text>
<polygon fill="none" stroke="black" points="360,-158 360,-180 474,-180 474,-158 360,-158"/>
<text text-anchor="start" x="380" y="-166.2" font-family="Helvetica,sans-Serif" font-size="11.00">plusinfo</text>
<polygon fill="none" stroke="black" points="474,-158 474,-180 610,-180 610,-158 474,-158"/>
<text text-anchor="start" x="477" y="-166.2" font-family="Helvetica,sans-Serif" font-size="11.00">jsonb[2147483647]</text>
<polygon fill="#ffffff" stroke="transparent" points="360,-136 360,-158 474,-158 474,-136 360,-136"/>
<polygon fill="none" stroke="black" points="360,-136 360,-158 474,-158 474,-136 360,-136"/>
<image xlink:href="../../images/foreignKeys.png" width="11px" height="12px" preserveAspectRatio="xMinYMin meet" x="365" y="-153"/>
<text text-anchor="start" x="380" y="-144.2" font-family="Helvetica,sans-Serif" font-size="11.00">object_uuid</text>
<polygon fill="none" stroke="black" points="474,-136 474,-158 610,-158 610,-136 474,-136"/>
<text text-anchor="start" x="477" y="-144.2" font-family="Helvetica,sans-Serif" font-size="11.00">uuid[2147483647]</text>
<polygon fill="#ffffff" stroke="transparent" points="360,-118 360,-136 423,-136 423,-118 360,-118"/>
<polygon fill="none" stroke="black" points="360,-118 360,-136 423,-136 423,-118 360,-118"/>
<text text-anchor="start" x="363" y="-124.2" font-family="Helvetica,sans-Serif" font-size="11.00">&lt; 1</text>
<polygon fill="#ffffff" stroke="transparent" points="423,-118 423,-136 474,-136 474,-118 423,-118"/>
<polygon fill="none" stroke="black" points="423,-118 423,-136 474,-136 474,-118 423,-118"/>
<text text-anchor="start" x="463" y="-124.2" font-family="Helvetica,sans-Serif" font-size="11.00"> &#160;</text>
<polygon fill="#ffffff" stroke="transparent" points="474,-118 474,-136 610,-136 610,-118 474,-118"/>
<polygon fill="none" stroke="black" points="474,-118 474,-136 610,-136 610,-118 474,-118"/>
<text text-anchor="start" x="587" y="-124.2" font-family="Helvetica,sans-Serif" font-size="11.00">0 &gt;</text>
<polygon fill="none" stroke="black" stroke-width="2" points="359,-117 359,-357 611,-357 611,-117 359,-117"/>
</a>
</g>
</g>
<!-- risico&#45;&gt;object -->
<g id="edge5" class="edge">
<title>risico:w&#45;&gt;object:e</title>
<path fill="none" stroke="black" d="M344.67,-150.45C310.91,-170.97 365.77,-276 310.5,-276"/>
<polygon fill="black" stroke="black" points="351.22,-148.87 359.84,-150.5 355.11,-147.94 359,-147 359,-147 359,-147 355.11,-147.94 358.16,-143.5 351.22,-148.87 351.22,-148.87"/>
<ellipse fill="none" stroke="black" cx="348.11" cy="-149.62" rx="3.2" ry="3.2"/>
</g>
<!-- voorziening -->
<g id="node7" class="node">
<title>voorziening</title>
<g id="a_node7"><a xlink:href="../../tables/voorziening.html" xlink:title="voorziening" target="_top">
<polygon fill="#ffffff" stroke="transparent" points="423,-37 423,-95 547,-95 547,-37 423,-37"/>
<polygon fill="#f5f5f5" stroke="transparent" points="423,-73 423,-95 547,-95 547,-73 423,-73"/>
<polygon fill="none" stroke="black" points="423,-73 423,-95 547,-95 547,-73 423,-73"/>
<text text-anchor="start" x="428" y="-82.2" font-family="Helvetica,sans-Serif" font-weight="bold" font-size="11.00">voorziening</text>
<text text-anchor="start" x="505" y="-81.2" font-family="Helvetica,sans-Serif" font-size="11.00">[table]</text>
<polygon fill="none" stroke="black" points="423,-55 423,-73 547,-73 547,-55 423,-55"/>
<text text-anchor="start" x="426" y="-61.2" font-family="Helvetica,sans-Serif" font-size="11.00">...</text>
<polygon fill="#ffffff" stroke="transparent" points="423,-37 423,-55 484,-55 484,-37 423,-37"/>
<polygon fill="none" stroke="black" points="423,-37 423,-55 484,-55 484,-37 423,-37"/>
<text text-anchor="start" x="426" y="-43.2" font-family="Helvetica,sans-Serif" font-size="11.00">&lt; 2</text>
<polygon fill="#ffffff" stroke="transparent" points="484,-37 484,-55 515,-55 515,-37 484,-37"/>
<polygon fill="none" stroke="black" points="484,-37 484,-55 515,-55 515,-37 484,-37"/>
<text text-anchor="start" x="504" y="-43.2" font-family="Helvetica,sans-Serif" font-size="11.00"> &#160;</text>
<polygon fill="#ffffff" stroke="transparent" points="515,-37 515,-55 547,-55 547,-37 515,-37"/>
<polygon fill="none" stroke="black" points="515,-37 515,-55 547,-55 547,-37 515,-37"/>
<text text-anchor="start" x="536" y="-43.2" font-family="Helvetica,sans-Serif" font-size="11.00"> &#160;</text>
</a>
</g>
</g>
<!-- voorziening&#45;&gt;object -->
<g id="edge6" class="edge">
<title>voorziening:w&#45;&gt;object:e</title>
<path fill="none" stroke="black" d="M407.35,-64.78C381.02,-67.89 368.81,-80.5 350,-106 303.96,-168.42 388.07,-276 310.5,-276"/>
<polygon fill="black" stroke="black" points="414.01,-64.43 422.19,-67.59 418.01,-64.21 422,-64 422,-64 422,-64 418.01,-64.21 421.81,-60.41 414.01,-64.43 414.01,-64.43"/>
<ellipse fill="none" stroke="black" cx="410.82" cy="-64.6" rx="3.2" ry="3.2"/>
</g>
</g>
</svg>
