<?xml version="1.0" encoding="UTF-8" standalone="no"?>
<!DOCTYPE svg PUBLIC "-//W3C//DTD SVG 1.1//EN"
 "http://www.w3.org/Graphics/SVG/1.1/DTD/svg11.dtd">
<!-- Generated by graphviz version 2.40.1 (20161225.0304)
 -->
<!-- Title: twoDegreesRelationshipsDiagram Pages: 1 -->
<svg width="626pt" height="749pt"
 viewBox="0.00 0.00 626.00 748.70" xmlns="http://www.w3.org/2000/svg" xmlns:xlink="http://www.w3.org/1999/xlink">
<g id="graph0" class="graph" transform="scale(1 1) rotate(0) translate(4 744.7)">
<title>twoDegreesRelationshipsDiagram</title>
<polygon fill="#ffffff" stroke="transparent" points="-4,4 -4,-744.7 622,-744.7 622,4 -4,4"/>
<text text-anchor="middle" x="72.4936" y="-7.3" font-family="Helvetica,sans-Serif" font-size="11.00" fill="#000000">Generated by SchemaSpy</text>
<!-- bereikbaarheid -->
<g id="node1" class="node">
<title>bereikbaarheid</title>
<g id="a_node1"><a xlink:href="../../tables/bereikbaarheid.html" xlink:title="bereikbaarheid" target="_top">
<polygon fill="#ffffff" stroke="transparent" points="432,-675.7 432,-736.7 556,-736.7 556,-675.7 432,-675.7"/>
<polygon fill="#f5f5f5" stroke="transparent" points="432,-713.2 432,-736.2 556,-736.2 556,-713.2 432,-713.2"/>
<polygon fill="none" stroke="#000000" points="432,-713.2 432,-736.2 556,-736.2 556,-713.2 432,-713.2"/>
<text text-anchor="start" x="437" y="-721.8" font-family="Helvetica,sans-Serif" font-weight="bold" font-size="11.00" fill="#000000">bereikbaarheid</text>
<text text-anchor="start" x="521.5219" y="-721.3" font-family="Helvetica,sans-Serif" font-size="11.00" fill="#000000">[table]</text>
<polygon fill="none" stroke="#000000" points="432,-694.2 432,-713.2 556,-713.2 556,-694.2 432,-694.2"/>
<text text-anchor="start" x="435" y="-700.3" font-family="Helvetica,sans-Serif" font-size="11.00" fill="#000000">...</text>
<polygon fill="#ffffff" stroke="transparent" points="432,-675.2 432,-694.2 492,-694.2 492,-675.2 432,-675.2"/>
<polygon fill="none" stroke="#000000" points="432,-675.2 432,-694.2 492,-694.2 492,-675.2 432,-675.2"/>
<text text-anchor="start" x="435" y="-681.3" font-family="Helvetica,sans-Serif" font-size="11.00" fill="#000000">&lt; 2</text>
<polygon fill="#ffffff" stroke="transparent" points="492,-675.2 492,-694.2 524,-694.2 524,-675.2 492,-675.2"/>
<polygon fill="none" stroke="#000000" points="492,-675.2 492,-694.2 524,-694.2 524,-675.2 492,-675.2"/>
<text text-anchor="start" x="514.8862" y="-681.3" font-family="Helvetica,sans-Serif" font-size="11.00" fill="#000000"> &#160;</text>
<polygon fill="#ffffff" stroke="transparent" points="524,-675.2 524,-694.2 556,-694.2 556,-675.2 524,-675.2"/>
<polygon fill="none" stroke="#000000" points="524,-675.2 524,-694.2 556,-694.2 556,-675.2 524,-675.2"/>
<text text-anchor="start" x="546.8862" y="-681.3" font-family="Helvetica,sans-Serif" font-size="11.00" fill="#000000"> &#160;</text>
</a>
</g>
</g>
<!-- object -->
<g id="node2" class="node">
<title>object</title>
<g id="a_node2"><a xlink:href="../../tables/object.html" xlink:title="object" target="_top">
<polygon fill="#ffffff" stroke="transparent" points="162,-361.7 162,-532.7 329,-532.7 329,-361.7 162,-361.7"/>
<polygon fill="#f5f5f5" stroke="transparent" points="162.5,-509.2 162.5,-532.2 329.5,-532.2 329.5,-509.2 162.5,-509.2"/>
<polygon fill="none" stroke="#000000" points="162.5,-509.2 162.5,-532.2 329.5,-532.2 329.5,-509.2 162.5,-509.2"/>
<text text-anchor="start" x="167.5" y="-517.8" font-family="Helvetica,sans-Serif" font-weight="bold" font-size="11.00" fill="#000000">object</text>
<text text-anchor="start" x="294.5437" y="-517.3" font-family="Helvetica,sans-Serif" font-size="11.00" fill="#000000">[table]</text>
<polygon fill="none" stroke="#000000" points="162.5,-487.2 162.5,-509.2 329.5,-509.2 329.5,-487.2 162.5,-487.2"/>
<image xlink:href="../../images/primaryKeys.png" width="11px" height="12px" preserveAspectRatio="xMinYMin meet" x="167.5" y="-504.2"/>
<text text-anchor="start" x="182.5" y="-494.3" font-family="Helvetica,sans-Serif" font-size="11.00" fill="#000000">uuid</text>
<polygon fill="#ffffff" stroke="transparent" points="162.5,-465.2 162.5,-487.2 329.5,-487.2 329.5,-465.2 162.5,-465.2"/>
<polygon fill="none" stroke="#000000" points="162.5,-465.2 162.5,-487.2 329.5,-487.2 329.5,-465.2 162.5,-465.2"/>
<text text-anchor="start" x="182.5" y="-472.3" font-family="Helvetica,sans-Serif" font-size="11.00" fill="#000000">geom</text>
<polygon fill="#ffffff" stroke="transparent" points="162.5,-443.2 162.5,-465.2 329.5,-465.2 329.5,-443.2 162.5,-443.2"/>
<polygon fill="none" stroke="#000000" points="162.5,-443.2 162.5,-465.2 329.5,-465.2 329.5,-443.2 162.5,-443.2"/>
<text text-anchor="start" x="182.5" y="-450.3" font-family="Helvetica,sans-Serif" font-size="11.00" fill="#000000">revisie_frequentie</text>
<polygon fill="#ffffff" stroke="transparent" points="162.5,-421.2 162.5,-443.2 329.5,-443.2 329.5,-421.2 162.5,-421.2"/>
<polygon fill="none" stroke="#000000" points="162.5,-421.2 162.5,-443.2 329.5,-443.2 329.5,-421.2 162.5,-421.2"/>
<image xlink:href="../../images/foreignKeys.png" width="11px" height="12px" preserveAspectRatio="xMinYMin meet" x="167.5" y="-438.2"/>
<text text-anchor="start" x="182.5" y="-428.3" font-family="Helvetica,sans-Serif" font-size="11.00" fill="#000000">fase_id</text>
<polygon fill="#ffffff" stroke="transparent" points="162.5,-399.2 162.5,-421.2 329.5,-421.2 329.5,-399.2 162.5,-399.2"/>
<polygon fill="none" stroke="#000000" points="162.5,-399.2 162.5,-421.2 329.5,-421.2 329.5,-399.2 162.5,-399.2"/>
<image xlink:href="../../images/foreignKeys.png" width="11px" height="12px" preserveAspectRatio="xMinYMin meet" x="167.5" y="-416.2"/>
<text text-anchor="start" x="182.5" y="-406.3" font-family="Helvetica,sans-Serif" font-size="11.00" fill="#000000">object_type_id</text>
<polygon fill="none" stroke="#000000" points="162.5,-380.2 162.5,-399.2 329.5,-399.2 329.5,-380.2 162.5,-380.2"/>
<text text-anchor="start" x="165.5" y="-386.3" font-family="Helvetica,sans-Serif" font-size="11.00" fill="#000000">...</text>
<polygon fill="#ffffff" stroke="transparent" points="162.5,-361.2 162.5,-380.2 239.5,-380.2 239.5,-361.2 162.5,-361.2"/>
<polygon fill="none" stroke="#000000" points="162.5,-361.2 162.5,-380.2 239.5,-380.2 239.5,-361.2 162.5,-361.2"/>
<text text-anchor="start" x="165.5" y="-367.3" font-family="Helvetica,sans-Serif" font-size="11.00" fill="#000000">&lt; 2</text>
<polygon fill="#ffffff" stroke="transparent" points="239.5,-361.2 239.5,-380.2 279.5,-380.2 279.5,-361.2 239.5,-361.2"/>
<polygon fill="none" stroke="#000000" points="239.5,-361.2 239.5,-380.2 279.5,-380.2 279.5,-361.2 239.5,-361.2"/>
<text text-anchor="start" x="270.3862" y="-367.3" font-family="Helvetica,sans-Serif" font-size="11.00" fill="#000000"> &#160;</text>
<polygon fill="#ffffff" stroke="transparent" points="279.5,-361.2 279.5,-380.2 329.5,-380.2 329.5,-361.2 279.5,-361.2"/>
<polygon fill="none" stroke="#000000" points="279.5,-361.2 279.5,-380.2 329.5,-380.2 329.5,-361.2 279.5,-361.2"/>
<text text-anchor="start" x="310.9053" y="-367.3" font-family="Helvetica,sans-Serif" font-size="11.00" fill="#000000">6 &gt;</text>
</a>
</g>
</g>
<!-- bereikbaarheid&#45;&gt;object -->
<g id="edge1" class="edge">
<title>bereikbaarheid:w&#45;&gt;object:e</title>
<path fill="none" stroke="#000000" d="M417.4054,-702.1837C395.8651,-698.8089 385.8302,-686.9375 370,-665.2 325.0399,-603.4624 405.8737,-498.2 329.5,-498.2"/>
<polygon fill="#000000" stroke="#000000" points="424.0193,-702.6442 431.7499,-706.7913 428.0097,-702.9221 432,-703.2 432,-703.2 432,-703.2 428.0097,-702.9221 432.2501,-699.6087 424.0193,-702.6442 424.0193,-702.6442"/>
<ellipse fill="none" stroke="#000000" cx="420.8271" cy="-702.4219" rx="3.2" ry="3.2"/>
</g>
<!-- roi.fase -->
<g id="node4" class="node">
<title>roi.fase</title>
<g id="a_node4"><a xlink:href="../../../roi/tables/fase.html" xlink:title="roi.fase" target="_top">
<polygon fill="#ffffff" stroke="transparent" points="20,-434.7 20,-495.7 101,-495.7 101,-434.7 20,-434.7"/>
<polygon fill="#f5f5f5" stroke="transparent" points="20.5,-472.2 20.5,-495.2 101.5,-495.2 101.5,-472.2 20.5,-472.2"/>
<polygon fill="none" stroke="#000000" points="20.5,-472.2 20.5,-495.2 101.5,-495.2 101.5,-472.2 20.5,-472.2"/>
<text text-anchor="start" x="25.5" y="-480.8" font-family="Helvetica,sans-Serif" font-weight="bold" font-size="11.00" fill="#000000">roi.fase</text>
<text text-anchor="start" x="67.0219" y="-480.3" font-family="Helvetica,sans-Serif" font-size="11.00" fill="#000000">[table]</text>
<polygon fill="none" stroke="#000000" points="20.5,-453.2 20.5,-472.2 101.5,-472.2 101.5,-453.2 20.5,-453.2"/>
<text text-anchor="start" x="23.5" y="-459.3" font-family="Helvetica,sans-Serif" font-size="11.00" fill="#000000">...</text>
<polygon fill="#ffffff" stroke="transparent" points="20.5,-434.2 20.5,-453.2 50.5,-453.2 50.5,-434.2 20.5,-434.2"/>
<polygon fill="none" stroke="#000000" points="20.5,-434.2 20.5,-453.2 50.5,-453.2 50.5,-434.2 20.5,-434.2"/>
<text text-anchor="start" x="23.5" y="-440.3" font-family="Helvetica,sans-Serif" font-size="11.00" fill="#000000"> &#160;</text>
<polygon fill="#ffffff" stroke="transparent" points="50.5,-434.2 50.5,-453.2 71.5,-453.2 71.5,-434.2 50.5,-434.2"/>
<polygon fill="none" stroke="#000000" points="50.5,-434.2 50.5,-453.2 71.5,-453.2 71.5,-434.2 50.5,-434.2"/>
<text text-anchor="start" x="62.3862" y="-440.3" font-family="Helvetica,sans-Serif" font-size="11.00" fill="#000000"> &#160;</text>
<polygon fill="#ffffff" stroke="transparent" points="71.5,-434.2 71.5,-453.2 101.5,-453.2 101.5,-434.2 71.5,-434.2"/>
<polygon fill="none" stroke="#000000" points="71.5,-434.2 71.5,-453.2 101.5,-453.2 101.5,-434.2 71.5,-434.2"/>
<text text-anchor="start" x="82.9053" y="-440.3" font-family="Helvetica,sans-Serif" font-size="11.00" fill="#000000">1 &gt;</text>
</a>
</g>
</g>
<!-- object&#45;&gt;roi.fase -->
<g id="edge3" class="edge">
<title>object:w&#45;&gt;roi.fase:e</title>
<path fill="none" stroke="#000000" d="M148.2406,-434.9686C131.03,-442.3953 126.0476,-462.2 101.5,-462.2"/>
<polygon fill="#000000" stroke="#000000" points="154.6467,-433.7248 163.1862,-435.734 158.5733,-432.9624 162.5,-432.2 162.5,-432.2 162.5,-432.2 158.5733,-432.9624 161.8138,-428.666 154.6467,-433.7248 154.6467,-433.7248"/>
<ellipse fill="none" stroke="#000000" cx="151.5053" cy="-434.3348" rx="3.2" ry="3.2"/>
</g>
<!-- object_type -->
<g id="node5" class="node">
<title>object_type</title>
<g id="a_node5"><a xlink:href="../../tables/object_type.html" xlink:title="object_type" target="_top">
<polygon fill="#ffffff" stroke="transparent" points="8,-352.7 8,-413.7 113,-413.7 113,-352.7 8,-352.7"/>
<polygon fill="#f5f5f5" stroke="transparent" points="8.5,-390.2 8.5,-413.2 113.5,-413.2 113.5,-390.2 8.5,-390.2"/>
<polygon fill="none" stroke="#000000" points="8.5,-390.2 8.5,-413.2 113.5,-413.2 113.5,-390.2 8.5,-390.2"/>
<text text-anchor="start" x="13.5" y="-398.8" font-family="Helvetica,sans-Serif" font-weight="bold" font-size="11.00" fill="#000000">object_type</text>
<text text-anchor="start" x="79.0219" y="-398.3" font-family="Helvetica,sans-Serif" font-size="11.00" fill="#000000">[table]</text>
<polygon fill="none" stroke="#000000" points="8.5,-371.2 8.5,-390.2 113.5,-390.2 113.5,-371.2 8.5,-371.2"/>
<text text-anchor="start" x="11.5" y="-377.3" font-family="Helvetica,sans-Serif" font-size="11.00" fill="#000000">...</text>
<polygon fill="#ffffff" stroke="transparent" points="8.5,-352.2 8.5,-371.2 50.5,-371.2 50.5,-352.2 8.5,-352.2"/>
<polygon fill="none" stroke="#000000" points="8.5,-352.2 8.5,-371.2 50.5,-371.2 50.5,-352.2 8.5,-352.2"/>
<text text-anchor="start" x="11.5" y="-358.3" font-family="Helvetica,sans-Serif" font-size="11.00" fill="#000000"> &#160;</text>
<polygon fill="#ffffff" stroke="transparent" points="50.5,-352.2 50.5,-371.2 77.5,-371.2 77.5,-352.2 50.5,-352.2"/>
<polygon fill="none" stroke="#000000" points="50.5,-352.2 50.5,-371.2 77.5,-371.2 77.5,-352.2 50.5,-352.2"/>
<text text-anchor="start" x="68.3862" y="-358.3" font-family="Helvetica,sans-Serif" font-size="11.00" fill="#000000"> &#160;</text>
<polygon fill="#ffffff" stroke="transparent" points="77.5,-352.2 77.5,-371.2 113.5,-371.2 113.5,-352.2 77.5,-352.2"/>
<polygon fill="none" stroke="#000000" points="77.5,-352.2 77.5,-371.2 113.5,-371.2 113.5,-352.2 77.5,-352.2"/>
<text text-anchor="start" x="94.9053" y="-358.3" font-family="Helvetica,sans-Serif" font-size="11.00" fill="#000000">1 &gt;</text>
</a>
</g>
</g>
<!-- object&#45;&gt;object_type -->
<g id="edge4" class="edge">
<title>object:w&#45;&gt;object_type:e</title>
<path fill="none" stroke="#000000" d="M148.384,-406.0286C136.4189,-397.7854 133.0504,-380.2 113.5,-380.2"/>
<polygon fill="#000000" stroke="#000000" points="154.828,-407.9328 161.4798,-413.6524 158.664,-409.0664 162.5,-410.2 162.5,-410.2 162.5,-410.2 158.664,-409.0664 163.5202,-406.7476 154.828,-407.9328 154.828,-407.9328"/>
<ellipse fill="none" stroke="#000000" cx="151.7591" cy="-407.026" rx="3.2" ry="3.2"/>
</g>
<!-- label -->
<g id="node3" class="node">
<title>label</title>
<g id="a_node3"><a xlink:href="../../tables/label.html" xlink:title="label" target="_top">
<polygon fill="#ffffff" stroke="transparent" points="461,-593.7 461,-654.7 527,-654.7 527,-593.7 461,-593.7"/>
<polygon fill="#f5f5f5" stroke="transparent" points="461,-631.2 461,-654.2 527,-654.2 527,-631.2 461,-631.2"/>
<polygon fill="none" stroke="#000000" points="461,-631.2 461,-654.2 527,-654.2 527,-631.2 461,-631.2"/>
<text text-anchor="start" x="465.8868" y="-639.8" font-family="Helvetica,sans-Serif" font-weight="bold" font-size="11.00" fill="#000000">label</text>
<text text-anchor="start" x="492.5219" y="-639.3" font-family="Helvetica,sans-Serif" font-size="11.00" fill="#000000">[table]</text>
<polygon fill="none" stroke="#000000" points="461,-612.2 461,-631.2 527,-631.2 527,-612.2 461,-612.2"/>
<text text-anchor="start" x="464" y="-618.3" font-family="Helvetica,sans-Serif" font-size="11.00" fill="#000000">...</text>
<polygon fill="#ffffff" stroke="transparent" points="461,-593.2 461,-612.2 492,-612.2 492,-593.2 461,-593.2"/>
<polygon fill="none" stroke="#000000" points="461,-593.2 461,-612.2 492,-612.2 492,-593.2 461,-593.2"/>
<text text-anchor="start" x="464" y="-599.3" font-family="Helvetica,sans-Serif" font-size="11.00" fill="#000000">&lt; 2</text>
<polygon fill="#ffffff" stroke="transparent" points="492,-593.2 492,-612.2 509,-612.2 509,-593.2 492,-593.2"/>
<polygon fill="none" stroke="#000000" points="492,-593.2 492,-612.2 509,-612.2 509,-593.2 492,-593.2"/>
<text text-anchor="start" x="499.8862" y="-599.3" font-family="Helvetica,sans-Serif" font-size="11.00" fill="#000000"> &#160;</text>
<polygon fill="#ffffff" stroke="transparent" points="509,-593.2 509,-612.2 527,-612.2 527,-593.2 509,-593.2"/>
<polygon fill="none" stroke="#000000" points="509,-593.2 509,-612.2 527,-612.2 527,-593.2 509,-593.2"/>
<text text-anchor="start" x="517.8862" y="-599.3" font-family="Helvetica,sans-Serif" font-size="11.00" fill="#000000"> &#160;</text>
</a>
</g>
</g>
<!-- label&#45;&gt;object -->
<g id="edge2" class="edge">
<title>label:w&#45;&gt;object:e</title>
<path fill="none" stroke="#000000" d="M446.2477,-620.8318C413.1952,-618.9872 397.899,-609.7624 370,-583.2 339.6927,-554.3447 371.3469,-498.2 329.5,-498.2"/>
<polygon fill="#000000" stroke="#000000" points="453.0025,-621.0003 460.9102,-624.7989 457.0012,-621.1002 461,-621.2 461,-621.2 461,-621.2 457.0012,-621.1002 461.0898,-617.6011 453.0025,-621.0003 453.0025,-621.0003"/>
<ellipse fill="none" stroke="#000000" cx="449.8035" cy="-620.9205" rx="3.2" ry="3.2"/>
</g>
<!-- opstelplaats -->
<g id="node6" class="node">
<title>opstelplaats</title>
<g id="a_node6"><a xlink:href="../../tables/opstelplaats.html" xlink:title="opstelplaats" target="_top">
<polygon fill="#ffffff" stroke="transparent" points="439.5,-511.7 439.5,-572.7 548.5,-572.7 548.5,-511.7 439.5,-511.7"/>
<polygon fill="#f5f5f5" stroke="transparent" points="440,-549.2 440,-572.2 549,-572.2 549,-549.2 440,-549.2"/>
<polygon fill="none" stroke="#000000" points="440,-549.2 440,-572.2 549,-572.2 549,-549.2 440,-549.2"/>
<text text-anchor="start" x="445" y="-557.8" font-family="Helvetica,sans-Serif" font-weight="bold" font-size="11.00" fill="#000000">opstelplaats</text>
<text text-anchor="start" x="514.5219" y="-557.3" font-family="Helvetica,sans-Serif" font-size="11.00" fill="#000000">[table]</text>
<polygon fill="none" stroke="#000000" points="440,-530.2 440,-549.2 549,-549.2 549,-530.2 440,-530.2"/>
<text text-anchor="start" x="443" y="-536.3" font-family="Helvetica,sans-Serif" font-size="11.00" fill="#000000">...</text>
<polygon fill="#ffffff" stroke="transparent" points="440,-511.2 440,-530.2 493,-530.2 493,-511.2 440,-511.2"/>
<polygon fill="none" stroke="#000000" points="440,-511.2 440,-530.2 493,-530.2 493,-511.2 440,-511.2"/>
<text text-anchor="start" x="443" y="-517.3" font-family="Helvetica,sans-Serif" font-size="11.00" fill="#000000">&lt; 2</text>
<polygon fill="#ffffff" stroke="transparent" points="493,-511.2 493,-530.2 521,-530.2 521,-511.2 493,-511.2"/>
<polygon fill="none" stroke="#000000" points="493,-511.2 493,-530.2 521,-530.2 521,-511.2 493,-511.2"/>
<text text-anchor="start" x="511.8862" y="-517.3" font-family="Helvetica,sans-Serif" font-size="11.00" fill="#000000"> &#160;</text>
<polygon fill="#ffffff" stroke="transparent" points="521,-511.2 521,-530.2 549,-530.2 549,-511.2 521,-511.2"/>
<polygon fill="none" stroke="#000000" points="521,-511.2 521,-530.2 549,-530.2 549,-511.2 521,-511.2"/>
<text text-anchor="start" x="539.8862" y="-517.3" font-family="Helvetica,sans-Serif" font-size="11.00" fill="#000000"> &#160;</text>
</a>
</g>
</g>
<!-- opstelplaats&#45;&gt;object -->
<g id="edge5" class="edge">
<title>opstelplaats:w&#45;&gt;object:e</title>
<path fill="none" stroke="#000000" d="M425.6429,-538.0606C386.012,-531.4388 376.6649,-498.2 329.5,-498.2"/>
<polygon fill="#000000" stroke="#000000" points="432.0251,-538.5671 439.7152,-542.7887 436.0125,-538.8835 440,-539.2 440,-539.2 440,-539.2 436.0125,-538.8835 440.2848,-535.6113 432.0251,-538.5671 432.0251,-538.5671"/>
<ellipse fill="none" stroke="#000000" cx="428.8351" cy="-538.3139" rx="3.2" ry="3.2"/>
</g>
<!-- risico -->
<g id="node7" class="node">
<title>risico</title>
<g id="a_node7"><a xlink:href="../../tables/risico.html" xlink:title="risico" target="_top">
<polygon fill="#ffffff" stroke="transparent" points="458.5,-429.7 458.5,-490.7 529.5,-490.7 529.5,-429.7 458.5,-429.7"/>
<polygon fill="#f5f5f5" stroke="transparent" points="459,-467.2 459,-490.2 530,-490.2 530,-467.2 459,-467.2"/>
<polygon fill="none" stroke="#000000" points="459,-467.2 459,-490.2 530,-490.2 530,-467.2 459,-467.2"/>
<text text-anchor="start" x="464" y="-475.8" font-family="Helvetica,sans-Serif" font-weight="bold" font-size="11.00" fill="#000000">risico</text>
<text text-anchor="start" x="495.5219" y="-475.3" font-family="Helvetica,sans-Serif" font-size="11.00" fill="#000000">[table]</text>
<polygon fill="none" stroke="#000000" points="459,-448.2 459,-467.2 530,-467.2 530,-448.2 459,-448.2"/>
<text text-anchor="start" x="462" y="-454.3" font-family="Helvetica,sans-Serif" font-size="11.00" fill="#000000">...</text>
<polygon fill="#ffffff" stroke="transparent" points="459,-429.2 459,-448.2 493,-448.2 493,-429.2 459,-429.2"/>
<polygon fill="none" stroke="#000000" points="459,-429.2 459,-448.2 493,-448.2 493,-429.2 459,-429.2"/>
<text text-anchor="start" x="462" y="-435.3" font-family="Helvetica,sans-Serif" font-size="11.00" fill="#000000">&lt; 2</text>
<polygon fill="#ffffff" stroke="transparent" points="493,-429.2 493,-448.2 511,-448.2 511,-429.2 493,-429.2"/>
<polygon fill="none" stroke="#000000" points="493,-429.2 493,-448.2 511,-448.2 511,-429.2 493,-429.2"/>
<text text-anchor="start" x="501.8862" y="-435.3" font-family="Helvetica,sans-Serif" font-size="11.00" fill="#000000"> &#160;</text>
<polygon fill="#ffffff" stroke="transparent" points="511,-429.2 511,-448.2 530,-448.2 530,-429.2 511,-429.2"/>
<polygon fill="none" stroke="#000000" points="511,-429.2 511,-448.2 530,-448.2 530,-429.2 511,-429.2"/>
<text text-anchor="start" x="520.8862" y="-435.3" font-family="Helvetica,sans-Serif" font-size="11.00" fill="#000000"> &#160;</text>
</a>
</g>
</g>
<!-- risico&#45;&gt;object -->
<g id="edge6" class="edge">
<title>risico:w&#45;&gt;object:e</title>
<path fill="none" stroke="#000000" d="M444.5136,-458.0563C396.7424,-463.9441 384.6831,-498.2 329.5,-498.2"/>
<polygon fill="#000000" stroke="#000000" points="451.0139,-457.6721 459.2125,-460.7937 455.007,-457.4361 459,-457.2 459,-457.2 459,-457.2 455.007,-457.4361 458.7875,-453.6063 451.0139,-457.6721 451.0139,-457.6721"/>
<ellipse fill="none" stroke="#000000" cx="447.8195" cy="-457.861" rx="3.2" ry="3.2"/>
</g>
<!-- sector -->
<g id="node8" class="node">
<title>sector</title>
<g id="a_node8"><a xlink:href="../../tables/sector.html" xlink:title="sector" target="_top">
<polygon fill="#ffffff" stroke="transparent" points="378,-38.2 378,-326.2 610,-326.2 610,-38.2 378,-38.2"/>
<polygon fill="#f5f5f5" stroke="transparent" points="380,-301.2 380,-324.2 608,-324.2 608,-301.2 380,-301.2"/>
<polygon fill="none" stroke="#000000" points="380,-301.2 380,-324.2 608,-324.2 608,-301.2 380,-301.2"/>
<text text-anchor="start" x="385" y="-309.8" font-family="Helvetica,sans-Serif" font-weight="bold" font-size="11.00" fill="#000000">sector</text>
<text text-anchor="start" x="573.0437" y="-309.3" font-family="Helvetica,sans-Serif" font-size="11.00" fill="#000000">[table]</text>
<polygon fill="none" stroke="#000000" points="380,-279.2 380,-301.2 489,-301.2 489,-279.2 380,-279.2"/>
<image xlink:href="../../images/primaryKeys.png" width="11px" height="12px" preserveAspectRatio="xMinYMin meet" x="385" y="-296.2"/>
<text text-anchor="start" x="400" y="-286.3" font-family="Helvetica,sans-Serif" font-size="11.00" fill="#000000">uuid</text>
<polygon fill="none" stroke="#000000" points="489,-279.2 489,-301.2 608,-301.2 608,-279.2 489,-279.2"/>
<text text-anchor="start" x="492" y="-286.9" font-family="Helvetica,sans-Serif" font-size="11.00" fill="#000000">uuid[2147483647]</text>
<polygon fill="#ffffff" stroke="transparent" points="380,-257.2 380,-279.2 489,-279.2 489,-257.2 380,-257.2"/>
<polygon fill="none" stroke="#000000" points="380,-257.2 380,-279.2 489,-279.2 489,-257.2 380,-257.2"/>
<text text-anchor="start" x="400" y="-264.3" font-family="Helvetica,sans-Serif" font-size="11.00" fill="#000000">geom</text>
<polygon fill="none" stroke="#000000" points="489,-257.2 489,-279.2 608,-279.2 608,-257.2 489,-257.2"/>
<text text-anchor="start" x="491.9485" y="-264.9" font-family="Helvetica,sans-Serif" font-size="11.00" fill="#000000">geometry[2147483647]</text>
<polygon fill="none" stroke="#000000" points="380,-235.2 380,-257.2 489,-257.2 489,-235.2 380,-235.2"/>
<text text-anchor="start" x="400" y="-242.3" font-family="Helvetica,sans-Serif" font-size="11.00" fill="#000000">datumtijd</text>
<polygon fill="none" stroke="#000000" points="489,-235.2 489,-257.2 608,-257.2 608,-235.2 489,-235.2"/>
<text text-anchor="start" x="492" y="-242.9" font-family="Helvetica,sans-Serif" font-size="11.00" fill="#000000">timestamptz[35,6]</text>
<polygon fill="none" stroke="#000000" points="380,-213.2 380,-235.2 489,-235.2 489,-213.2 380,-213.2"/>
<text text-anchor="start" x="400" y="-220.3" font-family="Helvetica,sans-Serif" font-size="11.00" fill="#000000">gebruiker</text>
<polygon fill="none" stroke="#000000" points="489,-213.2 489,-235.2 608,-235.2 608,-213.2 489,-213.2"/>
<text text-anchor="start" x="492" y="-220.9" font-family="Helvetica,sans-Serif" font-size="11.00" fill="#000000">varchar[255]</text>
<polygon fill="none" stroke="#000000" points="380,-191.2 380,-213.2 489,-213.2 489,-191.2 380,-191.2"/>
<text text-anchor="start" x="400" y="-198.3" font-family="Helvetica,sans-Serif" font-size="11.00" fill="#000000">label</text>
<polygon fill="none" stroke="#000000" points="489,-191.2 489,-213.2 608,-213.2 608,-191.2 489,-191.2"/>
<text text-anchor="start" x="492" y="-198.9" font-family="Helvetica,sans-Serif" font-size="11.00" fill="#000000">text[2147483647]</text>
<polygon fill="none" stroke="#000000" points="380,-169.2 380,-191.2 489,-191.2 489,-169.2 380,-169.2"/>
<text text-anchor="start" x="400" y="-176.3" font-family="Helvetica,sans-Serif" font-size="11.00" fill="#000000">rotatie</text>
<polygon fill="none" stroke="#000000" points="489,-169.2 489,-191.2 608,-191.2 608,-169.2 489,-169.2"/>
<text text-anchor="start" x="492" y="-176.9" font-family="Helvetica,sans-Serif" font-size="11.00" fill="#000000">int4[10]</text>
<polygon fill="none" stroke="#000000" points="380,-147.2 380,-169.2 489,-169.2 489,-147.2 380,-147.2"/>
<text text-anchor="start" x="400" y="-154.3" font-family="Helvetica,sans-Serif" font-size="11.00" fill="#000000">bijzonderheden</text>
<polygon fill="none" stroke="#000000" points="489,-147.2 489,-169.2 608,-169.2 608,-147.2 489,-147.2"/>
<text text-anchor="start" x="492" y="-154.9" font-family="Helvetica,sans-Serif" font-size="11.00" fill="#000000">text[2147483647]</text>
<polygon fill="none" stroke="#000000" points="380,-125.2 380,-147.2 489,-147.2 489,-125.2 380,-125.2"/>
<text text-anchor="start" x="400" y="-132.3" font-family="Helvetica,sans-Serif" font-size="11.00" fill="#000000">plusinfo</text>
<polygon fill="none" stroke="#000000" points="489,-125.2 489,-147.2 608,-147.2 608,-125.2 489,-125.2"/>
<text text-anchor="start" x="492" y="-132.9" font-family="Helvetica,sans-Serif" font-size="11.00" fill="#000000">jsonb[2147483647]</text>
<polygon fill="#ffffff" stroke="transparent" points="380,-103.2 380,-125.2 489,-125.2 489,-103.2 380,-103.2"/>
<polygon fill="none" stroke="#000000" points="380,-103.2 380,-125.2 489,-125.2 489,-103.2 380,-103.2"/>
<image xlink:href="../../images/foreignKeys.png" width="11px" height="12px" preserveAspectRatio="xMinYMin meet" x="385" y="-120.2"/>
<text text-anchor="start" x="400" y="-110.3" font-family="Helvetica,sans-Serif" font-size="11.00" fill="#000000">object_uuid</text>
<polygon fill="none" stroke="#000000" points="489,-103.2 489,-125.2 608,-125.2 608,-103.2 489,-103.2"/>
<text text-anchor="start" x="492" y="-110.9" font-family="Helvetica,sans-Serif" font-size="11.00" fill="#000000">uuid[2147483647]</text>
<polygon fill="none" stroke="#000000" points="380,-81.2 380,-103.2 489,-103.2 489,-81.2 380,-81.2"/>
<image xlink:href="../../images/foreignKeys.png" width="11px" height="12px" preserveAspectRatio="xMinYMin meet" x="385" y="-98.2"/>
<text text-anchor="start" x="400" y="-88.3" font-family="Helvetica,sans-Serif" font-size="11.00" fill="#000000">zone_id</text>
<polygon fill="none" stroke="#000000" points="489,-81.2 489,-103.2 608,-103.2 608,-81.2 489,-81.2"/>
<text text-anchor="start" x="492" y="-88.9" font-family="Helvetica,sans-Serif" font-size="11.00" fill="#000000">int2[5]</text>
<polygon fill="#ffffff" stroke="transparent" points="380,-59.2 380,-81.2 489,-81.2 489,-59.2 380,-59.2"/>
<polygon fill="none" stroke="#000000" points="380,-59.2 380,-81.2 489,-81.2 489,-59.2 380,-59.2"/>
<text text-anchor="start" x="400" y="-66.3" font-family="Helvetica,sans-Serif" font-size="11.00" fill="#000000">bouwlaag</text>
<polygon fill="none" stroke="#000000" points="489,-59.2 489,-81.2 608,-81.2 608,-59.2 489,-59.2"/>
<text text-anchor="start" x="492" y="-66.9" font-family="Helvetica,sans-Serif" font-size="11.00" fill="#000000">int2[5]</text>
<polygon fill="#ffffff" stroke="transparent" points="380,-40.2 380,-59.2 439,-59.2 439,-40.2 380,-40.2"/>
<polygon fill="none" stroke="#000000" points="380,-40.2 380,-59.2 439,-59.2 439,-40.2 380,-40.2"/>
<text text-anchor="start" x="383" y="-46.3" font-family="Helvetica,sans-Serif" font-size="11.00" fill="#000000">&lt; 2</text>
<polygon fill="#ffffff" stroke="transparent" points="439,-40.2 439,-59.2 489,-59.2 489,-40.2 439,-40.2"/>
<polygon fill="none" stroke="#000000" points="439,-40.2 439,-59.2 489,-59.2 489,-40.2 439,-40.2"/>
<text text-anchor="start" x="479.8862" y="-46.3" font-family="Helvetica,sans-Serif" font-size="11.00" fill="#000000"> &#160;</text>
<polygon fill="#ffffff" stroke="transparent" points="489,-40.2 489,-59.2 608,-59.2 608,-40.2 489,-40.2"/>
<polygon fill="none" stroke="#000000" points="489,-40.2 489,-59.2 608,-59.2 608,-40.2 489,-40.2"/>
<text text-anchor="start" x="589.4053" y="-46.3" font-family="Helvetica,sans-Serif" font-size="11.00" fill="#000000">0 &gt;</text>
<polygon fill="none" stroke="#000000" stroke-width="2" points="379,-39.2 379,-325.2 609,-325.2 609,-39.2 379,-39.2"/>
</a>
</g>
</g>
<!-- sector&#45;&gt;object -->
<g id="edge7" class="edge">
<title>sector:w&#45;&gt;object:e</title>
<path fill="none" stroke="#000000" d="M366.1948,-118.5125C308.3251,-160.7 410.1888,-498.2 329.5,-498.2"/>
<polygon fill="#000000" stroke="#000000" points="372.3639,-116.5854 381.0734,-117.6362 376.182,-115.3927 380,-114.2 380,-114.2 380,-114.2 376.182,-115.3927 378.9266,-110.7638 372.3639,-116.5854 372.3639,-116.5854"/>
<ellipse fill="none" stroke="#000000" cx="369.3095" cy="-117.5396" rx="3.2" ry="3.2"/>
</g>
<!-- roi.zone -->
<g id="node9" class="node">
<title>roi.zone</title>
<g id="a_node9"><a xlink:href="../../../roi/tables/zone.html" xlink:title="roi.zone" target="_top">
<polygon fill="#ffffff" stroke="transparent" points="203,-61.7 203,-122.7 288,-122.7 288,-61.7 203,-61.7"/>
<polygon fill="#f5f5f5" stroke="transparent" points="203.5,-99.2 203.5,-122.2 288.5,-122.2 288.5,-99.2 203.5,-99.2"/>
<polygon fill="none" stroke="#000000" points="203.5,-99.2 203.5,-122.2 288.5,-122.2 288.5,-99.2 203.5,-99.2"/>
<text text-anchor="start" x="208.5" y="-107.8" font-family="Helvetica,sans-Serif" font-weight="bold" font-size="11.00" fill="#000000">roi.zone</text>
<text text-anchor="start" x="254.0219" y="-107.3" font-family="Helvetica,sans-Serif" font-size="11.00" fill="#000000">[table]</text>
<polygon fill="none" stroke="#000000" points="203.5,-80.2 203.5,-99.2 288.5,-99.2 288.5,-80.2 203.5,-80.2"/>
<text text-anchor="start" x="206.5" y="-86.3" font-family="Helvetica,sans-Serif" font-size="11.00" fill="#000000">...</text>
<polygon fill="#ffffff" stroke="transparent" points="203.5,-61.2 203.5,-80.2 235.5,-80.2 235.5,-61.2 203.5,-61.2"/>
<polygon fill="none" stroke="#000000" points="203.5,-61.2 203.5,-80.2 235.5,-80.2 235.5,-61.2 203.5,-61.2"/>
<text text-anchor="start" x="206.5" y="-67.3" font-family="Helvetica,sans-Serif" font-size="11.00" fill="#000000"> &#160;</text>
<polygon fill="#ffffff" stroke="transparent" points="235.5,-61.2 235.5,-80.2 257.5,-80.2 257.5,-61.2 235.5,-61.2"/>
<polygon fill="none" stroke="#000000" points="235.5,-61.2 235.5,-80.2 257.5,-80.2 257.5,-61.2 235.5,-61.2"/>
<text text-anchor="start" x="248.3862" y="-67.3" font-family="Helvetica,sans-Serif" font-size="11.00" fill="#000000"> &#160;</text>
<polygon fill="#ffffff" stroke="transparent" points="257.5,-61.2 257.5,-80.2 288.5,-80.2 288.5,-61.2 257.5,-61.2"/>
<polygon fill="none" stroke="#000000" points="257.5,-61.2 257.5,-80.2 288.5,-80.2 288.5,-61.2 257.5,-61.2"/>
<text text-anchor="start" x="269.9053" y="-67.3" font-family="Helvetica,sans-Serif" font-size="11.00" fill="#000000">1 &gt;</text>
</a>
</g>
</g>
<!-- sector&#45;&gt;roi.zone -->
<g id="edge8" class="edge">
<title>sector:w&#45;&gt;roi.zone:e</title>
<path fill="none" stroke="#000000" d="M365.4937,-92.2C341.8851,-92.2 317.1287,-92.2 296.2753,-92.2"/>
<polygon fill="#000000" stroke="#000000" points="372,-92.2001 380,-95.8 376,-92.2 380,-92.2 380,-92.2 380,-92.2 376,-92.2 380,-88.6 372,-92.2001 372,-92.2001"/>
<ellipse fill="none" stroke="#000000" cx="368.8" cy="-92.2001" rx="3.2" ry="3.2"/>
</g>
<!-- voorziening -->
<g id="node10" class="node">
<title>voorziening</title>
<g id="a_node10"><a xlink:href="../../tables/voorziening.html" xlink:title="voorziening" target="_top">
<polygon fill="#ffffff" stroke="transparent" points="441,-347.7 441,-408.7 547,-408.7 547,-347.7 441,-347.7"/>
<polygon fill="#f5f5f5" stroke="transparent" points="441,-385.2 441,-408.2 547,-408.2 547,-385.2 441,-385.2"/>
<polygon fill="none" stroke="#000000" points="441,-385.2 441,-408.2 547,-408.2 547,-385.2 441,-385.2"/>
<text text-anchor="start" x="446" y="-393.8" font-family="Helvetica,sans-Serif" font-weight="bold" font-size="11.00" fill="#000000">voorziening</text>
<text text-anchor="start" x="512.5219" y="-393.3" font-family="Helvetica,sans-Serif" font-size="11.00" fill="#000000">[table]</text>
<polygon fill="none" stroke="#000000" points="441,-366.2 441,-385.2 547,-385.2 547,-366.2 441,-366.2"/>
<text text-anchor="start" x="444" y="-372.3" font-family="Helvetica,sans-Serif" font-size="11.00" fill="#000000">...</text>
<polygon fill="#ffffff" stroke="transparent" points="441,-347.2 441,-366.2 492,-366.2 492,-347.2 441,-347.2"/>
<polygon fill="none" stroke="#000000" points="441,-347.2 441,-366.2 492,-366.2 492,-347.2 441,-347.2"/>
<text text-anchor="start" x="444" y="-353.3" font-family="Helvetica,sans-Serif" font-size="11.00" fill="#000000">&lt; 2</text>
<polygon fill="#ffffff" stroke="transparent" points="492,-347.2 492,-366.2 519,-366.2 519,-347.2 492,-347.2"/>
<polygon fill="none" stroke="#000000" points="492,-347.2 492,-366.2 519,-366.2 519,-347.2 492,-347.2"/>
<text text-anchor="start" x="509.8862" y="-353.3" font-family="Helvetica,sans-Serif" font-size="11.00" fill="#000000"> &#160;</text>
<polygon fill="#ffffff" stroke="transparent" points="519,-347.2 519,-366.2 547,-366.2 547,-347.2 519,-347.2"/>
<polygon fill="none" stroke="#000000" points="519,-347.2 519,-366.2 547,-366.2 547,-347.2 519,-347.2"/>
<text text-anchor="start" x="537.8862" y="-353.3" font-family="Helvetica,sans-Serif" font-size="11.00" fill="#000000"> &#160;</text>
</a>
</g>
</g>
<!-- voorziening&#45;&gt;object -->
<g id="edge9" class="edge">
<title>voorziening:w&#45;&gt;object:e</title>
<path fill="none" stroke="#000000" d="M426.5485,-376.2285C401.0145,-380.2506 391.528,-395.852 370,-419.2 343.2538,-448.2074 368.9562,-498.2 329.5,-498.2"/>
<polygon fill="#000000" stroke="#000000" points="433.0202,-375.768 441.2556,-378.7909 437.0101,-375.484 441,-375.2 441,-375.2 441,-375.2 437.0101,-375.484 440.7444,-371.6091 433.0202,-375.768 433.0202,-375.768"/>
<ellipse fill="none" stroke="#000000" cx="429.8283" cy="-375.9952" rx="3.2" ry="3.2"/>
</g>
</g>
</svg>
