<?xml version="1.0" encoding="UTF-8" standalone="no"?>
<!DOCTYPE svg PUBLIC "-//W3C//DTD SVG 1.1//EN"
 "http://www.w3.org/Graphics/SVG/1.1/DTD/svg11.dtd">
<!-- Generated by graphviz version 2.40.1 (20161225.0304)
 -->
<!-- Title: oneDegreeRelationshipsDiagram Pages: 1 -->
<svg width="472pt" height="398pt"
 viewBox="0.00 0.00 472.00 397.70" xmlns="http://www.w3.org/2000/svg" xmlns:xlink="http://www.w3.org/1999/xlink">
<g id="graph0" class="graph" transform="scale(1 1) rotate(0) translate(4 393.7)">
<title>oneDegreeRelationshipsDiagram</title>
<polygon fill="#ffffff" stroke="transparent" points="-4,4 -4,-393.7 468,-393.7 468,4 -4,4"/>
<text text-anchor="middle" x="72.4936" y="-7.3" font-family="Helvetica,sans-Serif" font-size="11.00" fill="#000000">Generated by SchemaSpy</text>
<!-- voorziening -->
<g id="node1" class="node">
<title>voorziening</title>
<g id="a_node1"><a xlink:href="../../tables/voorziening.html" xlink:title="voorziening" target="_top">
<polygon fill="#ffffff" stroke="transparent" points="224,-119.7 224,-385.7 456,-385.7 456,-119.7 224,-119.7"/>
<polygon fill="#f5f5f5" stroke="transparent" points="226,-360.7 226,-383.7 454,-383.7 454,-360.7 226,-360.7"/>
<polygon fill="none" stroke="#000000" points="226,-360.7 226,-383.7 454,-383.7 454,-360.7 226,-360.7"/>
<text text-anchor="start" x="231" y="-369.3" font-family="Helvetica,sans-Serif" font-weight="bold" font-size="11.00" fill="#000000">voorziening</text>
<text text-anchor="start" x="419.0437" y="-368.8" font-family="Helvetica,sans-Serif" font-size="11.00" fill="#000000">[table]</text>
<polygon fill="none" stroke="#000000" points="226,-338.7 226,-360.7 335,-360.7 335,-338.7 226,-338.7"/>
<image xlink:href="../../images/primaryKeys.png" width="11px" height="12px" preserveAspectRatio="xMinYMin meet" x="231" y="-355.7"/>
<text text-anchor="start" x="246" y="-345.8" font-family="Helvetica,sans-Serif" font-size="11.00" fill="#000000">uuid</text>
<polygon fill="none" stroke="#000000" points="335,-338.7 335,-360.7 454,-360.7 454,-338.7 335,-338.7"/>
<text text-anchor="start" x="338" y="-346.4" font-family="Helvetica,sans-Serif" font-size="11.00" fill="#000000">uuid[2147483647]</text>
<polygon fill="#ffffff" stroke="transparent" points="226,-316.7 226,-338.7 335,-338.7 335,-316.7 226,-316.7"/>
<polygon fill="none" stroke="#000000" points="226,-316.7 226,-338.7 335,-338.7 335,-316.7 226,-316.7"/>
<text text-anchor="start" x="246" y="-323.8" font-family="Helvetica,sans-Serif" font-size="11.00" fill="#000000">geom</text>
<polygon fill="none" stroke="#000000" points="335,-316.7 335,-338.7 454,-338.7 454,-316.7 335,-316.7"/>
<text text-anchor="start" x="337.9485" y="-324.4" font-family="Helvetica,sans-Serif" font-size="11.00" fill="#000000">geometry[2147483647]</text>
<polygon fill="none" stroke="#000000" points="226,-294.7 226,-316.7 335,-316.7 335,-294.7 226,-294.7"/>
<text text-anchor="start" x="246" y="-301.8" font-family="Helvetica,sans-Serif" font-size="11.00" fill="#000000">datumtijd</text>
<polygon fill="none" stroke="#000000" points="335,-294.7 335,-316.7 454,-316.7 454,-294.7 335,-294.7"/>
<text text-anchor="start" x="338" y="-302.4" font-family="Helvetica,sans-Serif" font-size="11.00" fill="#000000">timestamptz[35,6]</text>
<polygon fill="none" stroke="#000000" points="226,-272.7 226,-294.7 335,-294.7 335,-272.7 226,-272.7"/>
<text text-anchor="start" x="246" y="-279.8" font-family="Helvetica,sans-Serif" font-size="11.00" fill="#000000">gebruiker</text>
<polygon fill="none" stroke="#000000" points="335,-272.7 335,-294.7 454,-294.7 454,-272.7 335,-272.7"/>
<text text-anchor="start" x="338" y="-280.4" font-family="Helvetica,sans-Serif" font-size="11.00" fill="#000000">varchar[255]</text>
<polygon fill="none" stroke="#000000" points="226,-250.7 226,-272.7 335,-272.7 335,-250.7 226,-250.7"/>
<text text-anchor="start" x="246" y="-257.8" font-family="Helvetica,sans-Serif" font-size="11.00" fill="#000000">label</text>
<polygon fill="none" stroke="#000000" points="335,-250.7 335,-272.7 454,-272.7 454,-250.7 335,-250.7"/>
<text text-anchor="start" x="338" y="-258.4" font-family="Helvetica,sans-Serif" font-size="11.00" fill="#000000">text[2147483647]</text>
<polygon fill="none" stroke="#000000" points="226,-228.7 226,-250.7 335,-250.7 335,-228.7 226,-228.7"/>
<text text-anchor="start" x="246" y="-235.8" font-family="Helvetica,sans-Serif" font-size="11.00" fill="#000000">rotatie</text>
<polygon fill="none" stroke="#000000" points="335,-228.7 335,-250.7 454,-250.7 454,-228.7 335,-228.7"/>
<text text-anchor="start" x="338" y="-236.4" font-family="Helvetica,sans-Serif" font-size="11.00" fill="#000000">int4[10]</text>
<polygon fill="none" stroke="#000000" points="226,-206.7 226,-228.7 335,-228.7 335,-206.7 226,-206.7"/>
<text text-anchor="start" x="246" y="-213.8" font-family="Helvetica,sans-Serif" font-size="11.00" fill="#000000">bijzonderheden</text>
<polygon fill="none" stroke="#000000" points="335,-206.7 335,-228.7 454,-228.7 454,-206.7 335,-206.7"/>
<text text-anchor="start" x="338" y="-214.4" font-family="Helvetica,sans-Serif" font-size="11.00" fill="#000000">text[2147483647]</text>
<polygon fill="none" stroke="#000000" points="226,-184.7 226,-206.7 335,-206.7 335,-184.7 226,-184.7"/>
<text text-anchor="start" x="246" y="-191.8" font-family="Helvetica,sans-Serif" font-size="11.00" fill="#000000">plusinfo</text>
<polygon fill="none" stroke="#000000" points="335,-184.7 335,-206.7 454,-206.7 454,-184.7 335,-184.7"/>
<text text-anchor="start" x="338" y="-192.4" font-family="Helvetica,sans-Serif" font-size="11.00" fill="#000000">jsonb[2147483647]</text>
<polygon fill="#ffffff" stroke="transparent" points="226,-162.7 226,-184.7 335,-184.7 335,-162.7 226,-162.7"/>
<polygon fill="none" stroke="#000000" points="226,-162.7 226,-184.7 335,-184.7 335,-162.7 226,-162.7"/>
<image xlink:href="../../images/foreignKeys.png" width="11px" height="12px" preserveAspectRatio="xMinYMin meet" x="231" y="-179.7"/>
<text text-anchor="start" x="246" y="-169.8" font-family="Helvetica,sans-Serif" font-size="11.00" fill="#000000">object_uuid</text>
<polygon fill="none" stroke="#000000" points="335,-162.7 335,-184.7 454,-184.7 454,-162.7 335,-162.7"/>
<text text-anchor="start" x="338" y="-170.4" font-family="Helvetica,sans-Serif" font-size="11.00" fill="#000000">uuid[2147483647]</text>
<polygon fill="none" stroke="#000000" points="226,-140.7 226,-162.7 335,-162.7 335,-140.7 226,-140.7"/>
<image xlink:href="../../images/foreignKeys.png" width="11px" height="12px" preserveAspectRatio="xMinYMin meet" x="231" y="-157.7"/>
<text text-anchor="start" x="246" y="-147.8" font-family="Helvetica,sans-Serif" font-size="11.00" fill="#000000">symbool_id</text>
<polygon fill="none" stroke="#000000" points="335,-140.7 335,-162.7 454,-162.7 454,-140.7 335,-140.7"/>
<text text-anchor="start" x="338" y="-148.4" font-family="Helvetica,sans-Serif" font-size="11.00" fill="#000000">int4[10]</text>
<polygon fill="#ffffff" stroke="transparent" points="226,-121.7 226,-140.7 285,-140.7 285,-121.7 226,-121.7"/>
<polygon fill="none" stroke="#000000" points="226,-121.7 226,-140.7 285,-140.7 285,-121.7 226,-121.7"/>
<text text-anchor="start" x="229" y="-127.8" font-family="Helvetica,sans-Serif" font-size="11.00" fill="#000000">&lt; 2</text>
<polygon fill="#ffffff" stroke="transparent" points="285,-121.7 285,-140.7 335,-140.7 335,-121.7 285,-121.7"/>
<polygon fill="none" stroke="#000000" points="285,-121.7 285,-140.7 335,-140.7 335,-121.7 285,-121.7"/>
<text text-anchor="start" x="325.8862" y="-127.8" font-family="Helvetica,sans-Serif" font-size="11.00" fill="#000000"> &#160;</text>
<polygon fill="#ffffff" stroke="transparent" points="335,-121.7 335,-140.7 454,-140.7 454,-121.7 335,-121.7"/>
<polygon fill="none" stroke="#000000" points="335,-121.7 335,-140.7 454,-140.7 454,-121.7 335,-121.7"/>
<text text-anchor="start" x="435.4053" y="-127.8" font-family="Helvetica,sans-Serif" font-size="11.00" fill="#000000">0 &gt;</text>
<polygon fill="none" stroke="#000000" stroke-width="2" points="225,-120.7 225,-384.7 455,-384.7 455,-120.7 225,-120.7"/>
</a>
</g>
</g>
<!-- object -->
<g id="node2" class="node">
<title>object</title>
<g id="a_node2"><a xlink:href="../../tables/object.html" xlink:title="object" target="_top">
<polygon fill="#ffffff" stroke="transparent" points="8,-120.2 8,-291.2 175,-291.2 175,-120.2 8,-120.2"/>
<polygon fill="#f5f5f5" stroke="transparent" points="8.5,-267.7 8.5,-290.7 175.5,-290.7 175.5,-267.7 8.5,-267.7"/>
<polygon fill="none" stroke="#000000" points="8.5,-267.7 8.5,-290.7 175.5,-290.7 175.5,-267.7 8.5,-267.7"/>
<text text-anchor="start" x="13.5" y="-276.3" font-family="Helvetica,sans-Serif" font-weight="bold" font-size="11.00" fill="#000000">object</text>
<text text-anchor="start" x="140.5437" y="-275.8" font-family="Helvetica,sans-Serif" font-size="11.00" fill="#000000">[table]</text>
<polygon fill="none" stroke="#000000" points="8.5,-245.7 8.5,-267.7 175.5,-267.7 175.5,-245.7 8.5,-245.7"/>
<image xlink:href="../../images/primaryKeys.png" width="11px" height="12px" preserveAspectRatio="xMinYMin meet" x="13.5" y="-262.7"/>
<text text-anchor="start" x="28.5" y="-252.8" font-family="Helvetica,sans-Serif" font-size="11.00" fill="#000000">uuid</text>
<polygon fill="#ffffff" stroke="transparent" points="8.5,-223.7 8.5,-245.7 175.5,-245.7 175.5,-223.7 8.5,-223.7"/>
<polygon fill="none" stroke="#000000" points="8.5,-223.7 8.5,-245.7 175.5,-245.7 175.5,-223.7 8.5,-223.7"/>
<text text-anchor="start" x="28.5" y="-230.8" font-family="Helvetica,sans-Serif" font-size="11.00" fill="#000000">geom</text>
<polygon fill="#ffffff" stroke="transparent" points="8.5,-201.7 8.5,-223.7 175.5,-223.7 175.5,-201.7 8.5,-201.7"/>
<polygon fill="none" stroke="#000000" points="8.5,-201.7 8.5,-223.7 175.5,-223.7 175.5,-201.7 8.5,-201.7"/>
<text text-anchor="start" x="28.5" y="-208.8" font-family="Helvetica,sans-Serif" font-size="11.00" fill="#000000">revisie_frequentie</text>
<polygon fill="#ffffff" stroke="transparent" points="8.5,-179.7 8.5,-201.7 175.5,-201.7 175.5,-179.7 8.5,-179.7"/>
<polygon fill="none" stroke="#000000" points="8.5,-179.7 8.5,-201.7 175.5,-201.7 175.5,-179.7 8.5,-179.7"/>
<image xlink:href="../../images/foreignKeys.png" width="11px" height="12px" preserveAspectRatio="xMinYMin meet" x="13.5" y="-196.7"/>
<text text-anchor="start" x="28.5" y="-186.8" font-family="Helvetica,sans-Serif" font-size="11.00" fill="#000000">fase_id</text>
<polygon fill="#ffffff" stroke="transparent" points="8.5,-157.7 8.5,-179.7 175.5,-179.7 175.5,-157.7 8.5,-157.7"/>
<polygon fill="none" stroke="#000000" points="8.5,-157.7 8.5,-179.7 175.5,-179.7 175.5,-157.7 8.5,-157.7"/>
<image xlink:href="../../images/foreignKeys.png" width="11px" height="12px" preserveAspectRatio="xMinYMin meet" x="13.5" y="-174.7"/>
<text text-anchor="start" x="28.5" y="-164.8" font-family="Helvetica,sans-Serif" font-size="11.00" fill="#000000">object_type_id</text>
<polygon fill="none" stroke="#000000" points="8.5,-138.7 8.5,-157.7 175.5,-157.7 175.5,-138.7 8.5,-138.7"/>
<text text-anchor="start" x="11.5" y="-144.8" font-family="Helvetica,sans-Serif" font-size="11.00" fill="#000000">...</text>
<polygon fill="#ffffff" stroke="transparent" points="8.5,-119.7 8.5,-138.7 85.5,-138.7 85.5,-119.7 8.5,-119.7"/>
<polygon fill="none" stroke="#000000" points="8.5,-119.7 8.5,-138.7 85.5,-138.7 85.5,-119.7 8.5,-119.7"/>
<text text-anchor="start" x="11.5" y="-125.8" font-family="Helvetica,sans-Serif" font-size="11.00" fill="#000000">&lt; 2</text>
<polygon fill="#ffffff" stroke="transparent" points="85.5,-119.7 85.5,-138.7 125.5,-138.7 125.5,-119.7 85.5,-119.7"/>
<polygon fill="none" stroke="#000000" points="85.5,-119.7 85.5,-138.7 125.5,-138.7 125.5,-119.7 85.5,-119.7"/>
<text text-anchor="start" x="116.3862" y="-125.8" font-family="Helvetica,sans-Serif" font-size="11.00" fill="#000000"> &#160;</text>
<polygon fill="#ffffff" stroke="transparent" points="125.5,-119.7 125.5,-138.7 175.5,-138.7 175.5,-119.7 125.5,-119.7"/>
<polygon fill="none" stroke="#000000" points="125.5,-119.7 125.5,-138.7 175.5,-138.7 175.5,-119.7 125.5,-119.7"/>
<text text-anchor="start" x="156.9053" y="-125.8" font-family="Helvetica,sans-Serif" font-size="11.00" fill="#000000">6 &gt;</text>
</a>
</g>
</g>
<!-- voorziening&#45;&gt;object -->
<g id="edge1" class="edge">
<title>voorziening:w&#45;&gt;object:e</title>
<path fill="none" stroke="#000000" d="M212.0329,-178.1624C191.3424,-195.4024 212.6081,-256.7 175.5,-256.7"/>
<polygon fill="#000000" stroke="#000000" points="218.3795,-176.1348 227.0956,-177.1292 222.1897,-174.9174 226,-173.7 226,-173.7 226,-173.7 222.1897,-174.9174 224.9044,-170.2708 218.3795,-176.1348 218.3795,-176.1348"/>
<ellipse fill="none" stroke="#000000" cx="215.3313" cy="-177.1087" rx="3.2" ry="3.2"/>
</g>
<!-- roi.symbool -->
<g id="node3" class="node">
<title>roi.symbool</title>
<g id="a_node3"><a xlink:href="../../../roi/tables/symbool.html" xlink:title="roi.symbool" target="_top">
<polygon fill="#ffffff" stroke="transparent" points="38,-38.2 38,-99.2 145,-99.2 145,-38.2 38,-38.2"/>
<polygon fill="#f5f5f5" stroke="transparent" points="38.5,-75.7 38.5,-98.7 145.5,-98.7 145.5,-75.7 38.5,-75.7"/>
<polygon fill="none" stroke="#000000" points="38.5,-75.7 38.5,-98.7 145.5,-98.7 145.5,-75.7 38.5,-75.7"/>
<text text-anchor="start" x="43.5" y="-84.3" font-family="Helvetica,sans-Serif" font-weight="bold" font-size="11.00" fill="#000000">roi.symbool</text>
<text text-anchor="start" x="111.0219" y="-83.8" font-family="Helvetica,sans-Serif" font-size="11.00" fill="#000000">[table]</text>
<polygon fill="none" stroke="#000000" points="38.5,-56.7 38.5,-75.7 145.5,-75.7 145.5,-56.7 38.5,-56.7"/>
<text text-anchor="start" x="41.5" y="-62.8" font-family="Helvetica,sans-Serif" font-size="11.00" fill="#000000">...</text>
<polygon fill="#ffffff" stroke="transparent" points="38.5,-37.7 38.5,-56.7 81.5,-56.7 81.5,-37.7 38.5,-37.7"/>
<polygon fill="none" stroke="#000000" points="38.5,-37.7 38.5,-56.7 81.5,-56.7 81.5,-37.7 38.5,-37.7"/>
<text text-anchor="start" x="41.5" y="-43.8" font-family="Helvetica,sans-Serif" font-size="11.00" fill="#000000"> &#160;</text>
<polygon fill="#ffffff" stroke="transparent" points="81.5,-37.7 81.5,-56.7 108.5,-56.7 108.5,-37.7 81.5,-37.7"/>
<polygon fill="none" stroke="#000000" points="81.5,-37.7 81.5,-56.7 108.5,-56.7 108.5,-37.7 81.5,-37.7"/>
<text text-anchor="start" x="99.3862" y="-43.8" font-family="Helvetica,sans-Serif" font-size="11.00" fill="#000000"> &#160;</text>
<polygon fill="#ffffff" stroke="transparent" points="108.5,-37.7 108.5,-56.7 145.5,-56.7 145.5,-37.7 108.5,-37.7"/>
<polygon fill="none" stroke="#000000" points="108.5,-37.7 108.5,-56.7 145.5,-56.7 145.5,-37.7 108.5,-37.7"/>
<text text-anchor="start" x="126.9053" y="-43.8" font-family="Helvetica,sans-Serif" font-size="11.00" fill="#000000">1 &gt;</text>
</a>
</g>
</g>
<!-- voorziening&#45;&gt;roi.symbool -->
<g id="edge2" class="edge">
<title>voorziening:w&#45;&gt;roi.symbool:e</title>
<path fill="none" stroke="#000000" d="M211.7971,-147.7562C200.4729,-139.713 199.9104,-121.2058 183,-109.7 173.7892,-103.433 163.465,-97.737 153.1599,-92.7182"/>
<polygon fill="#000000" stroke="#000000" points="218.2917,-149.5595 225.0368,-155.1688 222.1458,-150.6298 226,-151.7 226,-151.7 226,-151.7 222.1458,-150.6298 226.9632,-148.2312 218.2917,-149.5595 218.2917,-149.5595"/>
<ellipse fill="none" stroke="#000000" cx="215.2083" cy="-148.7033" rx="3.2" ry="3.2"/>
</g>
</g>
</svg>
