<?xml version="1.0" encoding="UTF-8" standalone="no"?>
<!DOCTYPE svg PUBLIC "-//W3C//DTD SVG 1.1//EN"
 "http://www.w3.org/Graphics/SVG/1.1/DTD/svg11.dtd">
<!-- Generated by graphviz version 2.50.0 (0)
 -->
<!-- Title: oneDegreeRelationshipsDiagram Pages: 1 -->
<svg width="465pt" height="331pt"
 viewBox="0.00 0.00 465.00 331.00" xmlns="http://www.w3.org/2000/svg" xmlns:xlink="http://www.w3.org/1999/xlink">
<g id="graph0" class="graph" transform="scale(1 1) rotate(0) translate(4 327)">
<title>oneDegreeRelationshipsDiagram</title>
<polygon fill="#ffffff" stroke="transparent" points="-4,4 -4,-327 461,-327 461,4 -4,4"/>
<text text-anchor="middle" x="79.5" y="-7.2" font-family="Helvetica,sans-Serif" font-size="11.00">Generated by SchemaSpy</text>
<!-- roi_evenement.label -->
<g id="node1" class="node">
<title>roi_evenement.label</title>
<g id="a_node1"><a xlink:href="../../../roi_evenement/tables/label.html" xlink:title="roi_evenement.label" target="_top">
<polygon fill="#ffffff" stroke="transparent" points="268.5,-239 268.5,-319 445.5,-319 445.5,-239 268.5,-239"/>
<polygon fill="#f5f5f5" stroke="transparent" points="269,-297 269,-319 446,-319 446,-297 269,-297"/>
<polygon fill="none" stroke="black" points="269,-297 269,-319 446,-319 446,-297 269,-297"/>
<text text-anchor="start" x="274" y="-306.2" font-family="Helvetica,sans-Serif" font-weight="bold" font-size="11.00">roi_evenement.label</text>
<text text-anchor="start" x="404" y="-305.2" font-family="Helvetica,sans-Serif" font-size="11.00">[table]</text>
<polygon fill="none" stroke="black" points="269,-275 269,-297 446,-297 446,-275 269,-275"/>
<image xlink:href="../../images/foreignKeys.png" width="11px" height="12px" preserveAspectRatio="xMinYMin meet" x="274" y="-292"/>
<text text-anchor="start" x="321" y="-283.2" font-family="Helvetica,sans-Serif" font-size="11.00">annotatie_id</text>
<polygon fill="none" stroke="black" points="269,-257 269,-275 446,-275 446,-257 269,-257"/>
<text text-anchor="start" x="272" y="-263.2" font-family="Helvetica,sans-Serif" font-size="11.00">...</text>
<polygon fill="#ffffff" stroke="transparent" points="269,-239 269,-257 356,-257 356,-239 269,-239"/>
<polygon fill="none" stroke="black" points="269,-239 269,-257 356,-257 356,-239 269,-239"/>
<text text-anchor="start" x="272" y="-245.2" font-family="Helvetica,sans-Serif" font-size="11.00">&lt; 1</text>
<polygon fill="#ffffff" stroke="transparent" points="356,-239 356,-257 401,-257 401,-239 356,-239"/>
<polygon fill="none" stroke="black" points="356,-239 356,-257 401,-257 401,-239 356,-239"/>
<text text-anchor="start" x="390" y="-245.2" font-family="Helvetica,sans-Serif" font-size="11.00"> &#160;</text>
<polygon fill="#ffffff" stroke="transparent" points="401,-239 401,-257 446,-257 446,-239 401,-239"/>
<polygon fill="none" stroke="black" points="401,-239 401,-257 446,-257 446,-239 401,-239"/>
<text text-anchor="start" x="435" y="-245.2" font-family="Helvetica,sans-Serif" font-size="11.00"> &#160;</text>
</a>
</g>
</g>
<!-- annotatie -->
<g id="node2" class="node">
<title>annotatie</title>
<g id="a_node2"><a xlink:href="../../tables/annotatie.html" xlink:title="annotatie" target="_top">
<polygon fill="#ffffff" stroke="transparent" points="8,-110 8,-220 216,-220 216,-110 8,-110"/>
<polygon fill="#f5f5f5" stroke="transparent" points="10,-196 10,-218 214,-218 214,-196 10,-196"/>
<polygon fill="none" stroke="black" points="10,-196 10,-218 214,-218 214,-196 10,-196"/>
<text text-anchor="start" x="15" y="-205.2" font-family="Helvetica,sans-Serif" font-weight="bold" font-size="11.00">annotatie</text>
<text text-anchor="start" x="172" y="-204.2" font-family="Helvetica,sans-Serif" font-size="11.00">[table]</text>
<polygon fill="none" stroke="black" points="10,-174 10,-196 108,-196 108,-174 10,-174"/>
<image xlink:href="../../images/primaryKeys.png" width="11px" height="12px" preserveAspectRatio="xMinYMin meet" x="15" y="-191"/>
<text text-anchor="start" x="30" y="-182.2" font-family="Helvetica,sans-Serif" font-size="11.00">id</text>
<polygon fill="none" stroke="black" points="108,-174 108,-196 214,-196 214,-174 108,-174"/>
<text text-anchor="start" x="111" y="-182.2" font-family="Helvetica,sans-Serif" font-size="11.00">int2[5]</text>
<polygon fill="none" stroke="black" points="10,-152 10,-174 108,-174 108,-152 10,-152"/>
<text text-anchor="start" x="30" y="-160.2" font-family="Helvetica,sans-Serif" font-size="11.00">naam</text>
<polygon fill="none" stroke="black" points="108,-152 108,-174 214,-174 214,-152 108,-152"/>
<text text-anchor="start" x="111" y="-160.2" font-family="Helvetica,sans-Serif" font-size="11.00">text[2147483647]</text>
<polygon fill="none" stroke="black" points="10,-130 10,-152 108,-152 108,-130 10,-130"/>
<text text-anchor="start" x="30" y="-138.2" font-family="Helvetica,sans-Serif" font-size="11.00">omschrijving</text>
<polygon fill="none" stroke="black" points="108,-130 108,-152 214,-152 214,-130 108,-130"/>
<text text-anchor="start" x="111" y="-138.2" font-family="Helvetica,sans-Serif" font-size="11.00">text[2147483647]</text>
<polygon fill="#ffffff" stroke="transparent" points="10,-112 10,-130 65,-130 65,-112 10,-112"/>
<polygon fill="none" stroke="black" points="10,-112 10,-130 65,-130 65,-112 10,-112"/>
<text text-anchor="start" x="13" y="-118.2" font-family="Helvetica,sans-Serif" font-size="11.00">&lt; 0</text>
<polygon fill="#ffffff" stroke="transparent" points="65,-112 65,-130 108,-130 108,-112 65,-112"/>
<polygon fill="none" stroke="black" points="65,-112 65,-130 108,-130 108,-112 65,-112"/>
<text text-anchor="start" x="97" y="-118.2" font-family="Helvetica,sans-Serif" font-size="11.00"> &#160;</text>
<polygon fill="#ffffff" stroke="transparent" points="108,-112 108,-130 214,-130 214,-112 108,-112"/>
<polygon fill="none" stroke="black" points="108,-112 108,-130 214,-130 214,-112 108,-112"/>
<text text-anchor="start" x="191" y="-118.2" font-family="Helvetica,sans-Serif" font-size="11.00">3 &gt;</text>
<polygon fill="none" stroke="black" stroke-width="2" points="9,-111 9,-219 215,-219 215,-111 9,-111"/>
</a>
</g>
</g>
<!-- roi_evenement.label&#45;&gt;annotatie -->
<g id="edge1" class="edge">
<title>roi_evenement.label:w&#45;&gt;annotatie:e</title>
<path fill="none" stroke="black" d="M253.94,-282.16C227.29,-263.72 259.75,-185 215,-185"/>
<polygon fill="black" stroke="black" points="260.28,-283.89 267.05,-289.47 264.14,-284.95 268,-286 268,-286 268,-286 264.14,-284.95 268.95,-282.53 260.28,-283.89 260.28,-283.89"/>
<ellipse fill="none" stroke="black" cx="257.19" cy="-283.05" rx="3.2" ry="3.2"/>
</g>
<!-- roi_gebouw.label -->
<g id="node3" class="node">
<title>roi_gebouw.label</title>
<g id="a_node3"><a xlink:href="../../../roi_gebouw/tables/label.html" xlink:title="roi_gebouw.label" target="_top">
<polygon fill="#ffffff" stroke="transparent" points="279.5,-138 279.5,-218 434.5,-218 434.5,-138 279.5,-138"/>
<polygon fill="#f5f5f5" stroke="transparent" points="280,-196 280,-218 435,-218 435,-196 280,-196"/>
<polygon fill="none" stroke="black" points="280,-196 280,-218 435,-218 435,-196 280,-196"/>
<text text-anchor="start" x="285" y="-205.2" font-family="Helvetica,sans-Serif" font-weight="bold" font-size="11.00">roi_gebouw.label</text>
<text text-anchor="start" x="393" y="-204.2" font-family="Helvetica,sans-Serif" font-size="11.00">[table]</text>
<polygon fill="none" stroke="black" points="280,-174 280,-196 435,-196 435,-174 280,-174"/>
<image xlink:href="../../images/foreignKeys.png" width="11px" height="12px" preserveAspectRatio="xMinYMin meet" x="285" y="-191"/>
<text text-anchor="start" x="321" y="-182.2" font-family="Helvetica,sans-Serif" font-size="11.00">annotatie_id</text>
<polygon fill="none" stroke="black" points="280,-156 280,-174 435,-174 435,-156 280,-156"/>
<text text-anchor="start" x="283" y="-162.2" font-family="Helvetica,sans-Serif" font-size="11.00">...</text>
<polygon fill="#ffffff" stroke="transparent" points="280,-138 280,-156 356,-156 356,-138 280,-138"/>
<polygon fill="none" stroke="black" points="280,-138 280,-156 356,-156 356,-138 280,-138"/>
<text text-anchor="start" x="283" y="-144.2" font-family="Helvetica,sans-Serif" font-size="11.00">&lt; 1</text>
<polygon fill="#ffffff" stroke="transparent" points="356,-138 356,-156 395,-156 395,-138 356,-138"/>
<polygon fill="none" stroke="black" points="356,-138 356,-156 395,-156 395,-138 356,-138"/>
<text text-anchor="start" x="384" y="-144.2" font-family="Helvetica,sans-Serif" font-size="11.00"> &#160;</text>
<polygon fill="#ffffff" stroke="transparent" points="395,-138 395,-156 435,-156 435,-138 395,-138"/>
<polygon fill="none" stroke="black" points="395,-138 395,-156 435,-156 435,-138 395,-138"/>
<text text-anchor="start" x="424" y="-144.2" font-family="Helvetica,sans-Serif" font-size="11.00"> &#160;</text>
</a>
</g>
</g>
<!-- roi_gebouw.label&#45;&gt;annotatie -->
<g id="edge2" class="edge">
<title>roi_gebouw.label:w&#45;&gt;annotatie:e</title>
<path fill="none" stroke="black" d="M264.46,-185C246.96,-185 237.89,-185 215,-185"/>
<polygon fill="black" stroke="black" points="271,-185 279,-188.6 275,-185 279,-185 279,-185 279,-185 275,-185 279,-181.4 271,-185 271,-185"/>
<ellipse fill="none" stroke="black" cx="267.8" cy="-185" rx="3.2" ry="3.2"/>
</g>
<!-- roi_natuurbrand.label -->
<g id="node4" class="node">
<title>roi_natuurbrand.label</title>
<g id="a_node4"><a xlink:href="../../../roi_natuurbrand/tables/label.html" xlink:title="roi_natuurbrand.label" target="_top">
<polygon fill="#ffffff" stroke="transparent" points="265,-37 265,-117 449,-117 449,-37 265,-37"/>
<polygon fill="#f5f5f5" stroke="transparent" points="265,-95 265,-117 449,-117 449,-95 265,-95"/>
<polygon fill="none" stroke="black" points="265,-95 265,-117 449,-117 449,-95 265,-95"/>
<text text-anchor="start" x="270" y="-104.2" font-family="Helvetica,sans-Serif" font-weight="bold" font-size="11.00">roi_natuurbrand.label</text>
<text text-anchor="start" x="407" y="-103.2" font-family="Helvetica,sans-Serif" font-size="11.00">[table]</text>
<polygon fill="none" stroke="black" points="265,-73 265,-95 449,-95 449,-73 265,-73"/>
<image xlink:href="../../images/foreignKeys.png" width="11px" height="12px" preserveAspectRatio="xMinYMin meet" x="270" y="-90"/>
<text text-anchor="start" x="320" y="-81.2" font-family="Helvetica,sans-Serif" font-size="11.00">annotatie_id</text>
<polygon fill="none" stroke="black" points="265,-55 265,-73 449,-73 449,-55 265,-55"/>
<text text-anchor="start" x="268" y="-61.2" font-family="Helvetica,sans-Serif" font-size="11.00">...</text>
<polygon fill="#ffffff" stroke="transparent" points="265,-37 265,-55 356,-55 356,-37 265,-37"/>
<polygon fill="none" stroke="black" points="265,-37 265,-55 356,-55 356,-37 265,-37"/>
<text text-anchor="start" x="268" y="-43.2" font-family="Helvetica,sans-Serif" font-size="11.00">&lt; 1</text>
<polygon fill="#ffffff" stroke="transparent" points="356,-37 356,-55 402,-55 402,-37 356,-37"/>
<polygon fill="none" stroke="black" points="356,-37 356,-55 402,-55 402,-37 356,-37"/>
<text text-anchor="start" x="391" y="-43.2" font-family="Helvetica,sans-Serif" font-size="11.00"> &#160;</text>
<polygon fill="#ffffff" stroke="transparent" points="402,-37 402,-55 449,-55 449,-37 402,-37"/>
<polygon fill="none" stroke="black" points="402,-37 402,-55 449,-55 449,-37 402,-37"/>
<text text-anchor="start" x="438" y="-43.2" font-family="Helvetica,sans-Serif" font-size="11.00"> &#160;</text>
</a>
</g>
</g>
<!-- roi_natuurbrand.label&#45;&gt;annotatie -->
<g id="edge3" class="edge">
<title>roi_natuurbrand.label:w&#45;&gt;annotatie:e</title>
<path fill="none" stroke="black" d="M249.95,-88.08C224.93,-106.98 258.85,-185 215,-185"/>
<polygon fill="black" stroke="black" points="256.32,-86.23 265,-87.46 260.16,-85.12 264,-84 264,-84 264,-84 260.16,-85.12 263,-80.54 256.32,-86.23 256.32,-86.23"/>
<ellipse fill="none" stroke="black" cx="253.25" cy="-87.13" rx="3.2" ry="3.2"/>
</g>
</g>
</svg>
