<?xml version="1.0" encoding="UTF-8" standalone="no"?>
<!DOCTYPE svg PUBLIC "-//W3C//DTD SVG 1.1//EN"
 "http://www.w3.org/Graphics/SVG/1.1/DTD/svg11.dtd">
<!-- Generated by graphviz version 2.40.1 (20161225.0304)
 -->
<!-- Title: oneDegreeRelationshipsDiagram Pages: 1 -->
<svg width="430pt" height="445pt"
 viewBox="0.00 0.00 430.00 445.20" xmlns="http://www.w3.org/2000/svg" xmlns:xlink="http://www.w3.org/1999/xlink">
<g id="graph0" class="graph" transform="scale(1 1) rotate(0) translate(4 441.2)">
<title>oneDegreeRelationshipsDiagram</title>
<polygon fill="#ffffff" stroke="transparent" points="-4,4 -4,-441.2 426,-441.2 426,4 -4,4"/>
<text text-anchor="middle" x="72.4936" y="-7.3" font-family="Helvetica,sans-Serif" font-size="11.00" fill="#000000">Generated by SchemaSpy</text>
<!-- roi_evenement.label -->
<g id="node1" class="node">
<title>roi_evenement.label</title>
<g id="a_node1"><a xlink:href="../../../roi_evenement/tables/label.html" xlink:title="roi_evenement.label" target="_top">
<polygon fill="#ffffff" stroke="transparent" points="253,-350.2 253,-433.2 407,-433.2 407,-350.2 253,-350.2"/>
<polygon fill="#f5f5f5" stroke="transparent" points="253,-409.7 253,-432.7 407,-432.7 407,-409.7 253,-409.7"/>
<polygon fill="none" stroke="#000000" points="253,-409.7 253,-432.7 407,-432.7 407,-409.7 253,-409.7"/>
<text text-anchor="start" x="258" y="-418.3" font-family="Helvetica,sans-Serif" font-weight="bold" font-size="11.00" fill="#000000">roi_evenement.label</text>
<text text-anchor="start" x="372.5219" y="-417.8" font-family="Helvetica,sans-Serif" font-size="11.00" fill="#000000">[table]</text>
<polygon fill="none" stroke="#000000" points="253,-387.7 253,-409.7 407,-409.7 407,-387.7 253,-387.7"/>
<image xlink:href="../../images/foreignKeys.png" width="11px" height="12px" preserveAspectRatio="xMinYMin meet" x="258" y="-404.7"/>
<text text-anchor="start" x="296" y="-394.8" font-family="Helvetica,sans-Serif" font-size="11.00" fill="#000000">annotatie_id</text>
<polygon fill="none" stroke="#000000" points="253,-368.7 253,-387.7 407,-387.7 407,-368.7 253,-368.7"/>
<text text-anchor="start" x="256" y="-374.8" font-family="Helvetica,sans-Serif" font-size="11.00" fill="#000000">...</text>
<polygon fill="#ffffff" stroke="transparent" points="253,-349.7 253,-368.7 328,-368.7 328,-349.7 253,-349.7"/>
<polygon fill="none" stroke="#000000" points="253,-349.7 253,-368.7 328,-368.7 328,-349.7 253,-349.7"/>
<text text-anchor="start" x="256" y="-355.8" font-family="Helvetica,sans-Serif" font-size="11.00" fill="#000000">&lt; 1</text>
<polygon fill="#ffffff" stroke="transparent" points="328,-349.7 328,-368.7 367,-368.7 367,-349.7 328,-349.7"/>
<polygon fill="none" stroke="#000000" points="328,-349.7 328,-368.7 367,-368.7 367,-349.7 328,-349.7"/>
<text text-anchor="start" x="357.8862" y="-355.8" font-family="Helvetica,sans-Serif" font-size="11.00" fill="#000000"> &#160;</text>
<polygon fill="#ffffff" stroke="transparent" points="367,-349.7 367,-368.7 407,-368.7 407,-349.7 367,-349.7"/>
<polygon fill="none" stroke="#000000" points="367,-349.7 367,-368.7 407,-368.7 407,-349.7 367,-349.7"/>
<text text-anchor="start" x="397.8862" y="-355.8" font-family="Helvetica,sans-Serif" font-size="11.00" fill="#000000"> &#160;</text>
</a>
</g>
</g>
<!-- annotatie -->
<g id="node2" class="node">
<title>annotatie</title>
<g id="a_node2"><a xlink:href="../../tables/annotatie.html" xlink:title="annotatie" target="_top">
<polygon fill="#ffffff" stroke="transparent" points="8,-166.7 8,-278.7 197,-278.7 197,-166.7 8,-166.7"/>
<polygon fill="#f5f5f5" stroke="transparent" points="10.5,-253.7 10.5,-276.7 195.5,-276.7 195.5,-253.7 10.5,-253.7"/>
<polygon fill="none" stroke="#000000" points="10.5,-253.7 10.5,-276.7 195.5,-276.7 195.5,-253.7 10.5,-253.7"/>
<text text-anchor="start" x="15.5" y="-262.3" font-family="Helvetica,sans-Serif" font-weight="bold" font-size="11.00" fill="#000000">annotatie</text>
<text text-anchor="start" x="160.5437" y="-261.8" font-family="Helvetica,sans-Serif" font-size="11.00" fill="#000000">[table]</text>
<polygon fill="none" stroke="#000000" points="10.5,-231.7 10.5,-253.7 105.5,-253.7 105.5,-231.7 10.5,-231.7"/>
<image xlink:href="../../images/primaryKeys.png" width="11px" height="12px" preserveAspectRatio="xMinYMin meet" x="15.5" y="-248.7"/>
<text text-anchor="start" x="30.5" y="-238.8" font-family="Helvetica,sans-Serif" font-size="11.00" fill="#000000">id</text>
<polygon fill="none" stroke="#000000" points="105.5,-231.7 105.5,-253.7 195.5,-253.7 195.5,-231.7 105.5,-231.7"/>
<text text-anchor="start" x="108.5" y="-239.4" font-family="Helvetica,sans-Serif" font-size="11.00" fill="#000000">int2[5]</text>
<polygon fill="none" stroke="#000000" points="10.5,-209.7 10.5,-231.7 105.5,-231.7 105.5,-209.7 10.5,-209.7"/>
<text text-anchor="start" x="30.5" y="-216.8" font-family="Helvetica,sans-Serif" font-size="11.00" fill="#000000">naam</text>
<polygon fill="none" stroke="#000000" points="105.5,-209.7 105.5,-231.7 195.5,-231.7 195.5,-209.7 105.5,-209.7"/>
<text text-anchor="start" x="108.0042" y="-217.4" font-family="Helvetica,sans-Serif" font-size="11.00" fill="#000000">text[2147483647]</text>
<polygon fill="none" stroke="#000000" points="10.5,-187.7 10.5,-209.7 105.5,-209.7 105.5,-187.7 10.5,-187.7"/>
<text text-anchor="start" x="30.5" y="-194.8" font-family="Helvetica,sans-Serif" font-size="11.00" fill="#000000">omschrijving</text>
<polygon fill="none" stroke="#000000" points="105.5,-187.7 105.5,-209.7 195.5,-209.7 195.5,-187.7 105.5,-187.7"/>
<text text-anchor="start" x="108.0042" y="-195.4" font-family="Helvetica,sans-Serif" font-size="11.00" fill="#000000">text[2147483647]</text>
<polygon fill="#ffffff" stroke="transparent" points="10.5,-168.7 10.5,-187.7 62.5,-187.7 62.5,-168.7 10.5,-168.7"/>
<polygon fill="none" stroke="#000000" points="10.5,-168.7 10.5,-187.7 62.5,-187.7 62.5,-168.7 10.5,-168.7"/>
<text text-anchor="start" x="13.5" y="-174.8" font-family="Helvetica,sans-Serif" font-size="11.00" fill="#000000">&lt; 0</text>
<polygon fill="#ffffff" stroke="transparent" points="62.5,-168.7 62.5,-187.7 105.5,-187.7 105.5,-168.7 62.5,-168.7"/>
<polygon fill="none" stroke="#000000" points="62.5,-168.7 62.5,-187.7 105.5,-187.7 105.5,-168.7 62.5,-168.7"/>
<text text-anchor="start" x="96.3862" y="-174.8" font-family="Helvetica,sans-Serif" font-size="11.00" fill="#000000"> &#160;</text>
<polygon fill="#ffffff" stroke="transparent" points="105.5,-168.7 105.5,-187.7 195.5,-187.7 195.5,-168.7 105.5,-168.7"/>
<polygon fill="none" stroke="#000000" points="105.5,-168.7 105.5,-187.7 195.5,-187.7 195.5,-168.7 105.5,-168.7"/>
<text text-anchor="start" x="176.9053" y="-174.8" font-family="Helvetica,sans-Serif" font-size="11.00" fill="#000000">4 &gt;</text>
<polygon fill="none" stroke="#000000" stroke-width="2" points="9,-167.7 9,-277.7 196,-277.7 196,-167.7 9,-167.7"/>
</a>
</g>
</g>
<!-- roi_evenement.label&#45;&gt;annotatie -->
<g id="edge1" class="edge">
<title>roi_evenement.label:w&#45;&gt;annotatie:e</title>
<path fill="none" stroke="#000000" d="M238.8269,-396.1225C191.9088,-375.8395 263.7646,-242.7 195.5,-242.7"/>
<polygon fill="#000000" stroke="#000000" points="245.1291,-397.2686 252.3558,-402.2419 249.0645,-397.9843 253,-398.7 253,-398.7 253,-398.7 249.0645,-397.9843 253.6442,-395.1581 245.1291,-397.2686 245.1291,-397.2686"/>
<ellipse fill="none" stroke="#000000" cx="241.9807" cy="-396.696" rx="3.2" ry="3.2"/>
</g>
<!-- roi_gebouw.label -->
<g id="node3" class="node">
<title>roi_gebouw.label</title>
<g id="a_node3"><a xlink:href="../../../roi_gebouw/tables/label.html" xlink:title="roi_gebouw.label" target="_top">
<polygon fill="#ffffff" stroke="transparent" points="261.5,-246.2 261.5,-329.2 398.5,-329.2 398.5,-246.2 261.5,-246.2"/>
<polygon fill="#f5f5f5" stroke="transparent" points="262,-305.7 262,-328.7 399,-328.7 399,-305.7 262,-305.7"/>
<polygon fill="none" stroke="#000000" points="262,-305.7 262,-328.7 399,-328.7 399,-305.7 262,-305.7"/>
<text text-anchor="start" x="267" y="-314.3" font-family="Helvetica,sans-Serif" font-weight="bold" font-size="11.00" fill="#000000">roi_gebouw.label</text>
<text text-anchor="start" x="364.5219" y="-313.8" font-family="Helvetica,sans-Serif" font-size="11.00" fill="#000000">[table]</text>
<polygon fill="none" stroke="#000000" points="262,-283.7 262,-305.7 399,-305.7 399,-283.7 262,-283.7"/>
<image xlink:href="../../images/foreignKeys.png" width="11px" height="12px" preserveAspectRatio="xMinYMin meet" x="267" y="-300.7"/>
<text text-anchor="start" x="296" y="-290.8" font-family="Helvetica,sans-Serif" font-size="11.00" fill="#000000">annotatie_id</text>
<polygon fill="none" stroke="#000000" points="262,-264.7 262,-283.7 399,-283.7 399,-264.7 262,-264.7"/>
<text text-anchor="start" x="265" y="-270.8" font-family="Helvetica,sans-Serif" font-size="11.00" fill="#000000">...</text>
<polygon fill="#ffffff" stroke="transparent" points="262,-245.7 262,-264.7 329,-264.7 329,-245.7 262,-245.7"/>
<polygon fill="none" stroke="#000000" points="262,-245.7 262,-264.7 329,-264.7 329,-245.7 262,-245.7"/>
<text text-anchor="start" x="265" y="-251.8" font-family="Helvetica,sans-Serif" font-size="11.00" fill="#000000">&lt; 1</text>
<polygon fill="#ffffff" stroke="transparent" points="329,-245.7 329,-264.7 364,-264.7 364,-245.7 329,-245.7"/>
<polygon fill="none" stroke="#000000" points="329,-245.7 329,-264.7 364,-264.7 364,-245.7 329,-245.7"/>
<text text-anchor="start" x="354.8862" y="-251.8" font-family="Helvetica,sans-Serif" font-size="11.00" fill="#000000"> &#160;</text>
<polygon fill="#ffffff" stroke="transparent" points="364,-245.7 364,-264.7 399,-264.7 399,-245.7 364,-245.7"/>
<polygon fill="none" stroke="#000000" points="364,-245.7 364,-264.7 399,-264.7 399,-245.7 364,-245.7"/>
<text text-anchor="start" x="389.8862" y="-251.8" font-family="Helvetica,sans-Serif" font-size="11.00" fill="#000000"> &#160;</text>
</a>
</g>
</g>
<!-- roi_gebouw.label&#45;&gt;annotatie -->
<g id="edge2" class="edge">
<title>roi_gebouw.label:w&#45;&gt;annotatie:e</title>
<path fill="none" stroke="#000000" d="M247.7338,-291.4472C226.0136,-280.0631 227.303,-242.7 195.5,-242.7"/>
<polygon fill="#000000" stroke="#000000" points="254.2002,-292.9215 261.1997,-298.2099 258.1001,-293.8108 262,-294.7 262,-294.7 262,-294.7 258.1001,-293.8108 262.8003,-291.1901 254.2002,-292.9215 254.2002,-292.9215"/>
<ellipse fill="none" stroke="#000000" cx="251.0803" cy="-292.2101" rx="3.2" ry="3.2"/>
</g>
<!-- roi_natuurbrand.label -->
<g id="node4" class="node">
<title>roi_natuurbrand.label</title>
<g id="a_node4"><a xlink:href="../../../roi_natuurbrand/tables/label.html" xlink:title="roi_natuurbrand.label" target="_top">
<polygon fill="#ffffff" stroke="transparent" points="249,-142.2 249,-225.2 411,-225.2 411,-142.2 249,-142.2"/>
<polygon fill="#f5f5f5" stroke="transparent" points="249,-201.7 249,-224.7 411,-224.7 411,-201.7 249,-201.7"/>
<polygon fill="none" stroke="#000000" points="249,-201.7 249,-224.7 411,-224.7 411,-201.7 249,-201.7"/>
<text text-anchor="start" x="254" y="-210.3" font-family="Helvetica,sans-Serif" font-weight="bold" font-size="11.00" fill="#000000">roi_natuurbrand.label</text>
<text text-anchor="start" x="376.5219" y="-209.8" font-family="Helvetica,sans-Serif" font-size="11.00" fill="#000000">[table]</text>
<polygon fill="none" stroke="#000000" points="249,-179.7 249,-201.7 411,-201.7 411,-179.7 249,-179.7"/>
<image xlink:href="../../images/foreignKeys.png" width="11px" height="12px" preserveAspectRatio="xMinYMin meet" x="254" y="-196.7"/>
<text text-anchor="start" x="296" y="-186.8" font-family="Helvetica,sans-Serif" font-size="11.00" fill="#000000">annotatie_id</text>
<polygon fill="none" stroke="#000000" points="249,-160.7 249,-179.7 411,-179.7 411,-160.7 249,-160.7"/>
<text text-anchor="start" x="252" y="-166.8" font-family="Helvetica,sans-Serif" font-size="11.00" fill="#000000">...</text>
<polygon fill="#ffffff" stroke="transparent" points="249,-141.7 249,-160.7 328,-160.7 328,-141.7 249,-141.7"/>
<polygon fill="none" stroke="#000000" points="249,-141.7 249,-160.7 328,-160.7 328,-141.7 249,-141.7"/>
<text text-anchor="start" x="252" y="-147.8" font-family="Helvetica,sans-Serif" font-size="11.00" fill="#000000">&lt; 1</text>
<polygon fill="#ffffff" stroke="transparent" points="328,-141.7 328,-160.7 369,-160.7 369,-141.7 328,-141.7"/>
<polygon fill="none" stroke="#000000" points="328,-141.7 328,-160.7 369,-160.7 369,-141.7 328,-141.7"/>
<text text-anchor="start" x="359.8862" y="-147.8" font-family="Helvetica,sans-Serif" font-size="11.00" fill="#000000"> &#160;</text>
<polygon fill="#ffffff" stroke="transparent" points="369,-141.7 369,-160.7 411,-160.7 411,-141.7 369,-141.7"/>
<polygon fill="none" stroke="#000000" points="369,-141.7 369,-160.7 411,-160.7 411,-141.7 369,-141.7"/>
<text text-anchor="start" x="401.8862" y="-147.8" font-family="Helvetica,sans-Serif" font-size="11.00" fill="#000000"> &#160;</text>
</a>
</g>
</g>
<!-- roi_natuurbrand.label&#45;&gt;annotatie -->
<g id="edge3" class="edge">
<title>roi_natuurbrand.label:w&#45;&gt;annotatie:e</title>
<path fill="none" stroke="#000000" d="M235.0453,-195.1335C218.9631,-207.7085 222.7006,-242.7 195.5,-242.7"/>
<polygon fill="#000000" stroke="#000000" points="241.3755,-193.1224 250.0901,-194.131 245.1878,-191.9112 249,-190.7 249,-190.7 249,-190.7 245.1878,-191.9112 247.9099,-187.269 241.3755,-193.1224 241.3755,-193.1224"/>
<ellipse fill="none" stroke="#000000" cx="238.3258" cy="-194.0913" rx="3.2" ry="3.2"/>
</g>
<!-- roi_waterongeval.label -->
<g id="node5" class="node">
<title>roi_waterongeval.label</title>
<g id="a_node5"><a xlink:href="../../../roi_waterongeval/tables/label.html" xlink:title="roi_waterongeval.label" target="_top">
<polygon fill="#ffffff" stroke="transparent" points="246,-38.2 246,-121.2 414,-121.2 414,-38.2 246,-38.2"/>
<polygon fill="#f5f5f5" stroke="transparent" points="246,-97.7 246,-120.7 414,-120.7 414,-97.7 246,-97.7"/>
<polygon fill="none" stroke="#000000" points="246,-97.7 246,-120.7 414,-120.7 414,-97.7 246,-97.7"/>
<text text-anchor="start" x="251" y="-106.3" font-family="Helvetica,sans-Serif" font-weight="bold" font-size="11.00" fill="#000000">roi_waterongeval.label</text>
<text text-anchor="start" x="379.5219" y="-105.8" font-family="Helvetica,sans-Serif" font-size="11.00" fill="#000000">[table]</text>
<polygon fill="none" stroke="#000000" points="246,-75.7 246,-97.7 414,-97.7 414,-75.7 246,-75.7"/>
<image xlink:href="../../images/foreignKeys.png" width="11px" height="12px" preserveAspectRatio="xMinYMin meet" x="251" y="-92.7"/>
<text text-anchor="start" x="296" y="-82.8" font-family="Helvetica,sans-Serif" font-size="11.00" fill="#000000">annotatie_id</text>
<polygon fill="none" stroke="#000000" points="246,-56.7 246,-75.7 414,-75.7 414,-56.7 246,-56.7"/>
<text text-anchor="start" x="249" y="-62.8" font-family="Helvetica,sans-Serif" font-size="11.00" fill="#000000">...</text>
<polygon fill="#ffffff" stroke="transparent" points="246,-37.7 246,-56.7 328,-56.7 328,-37.7 246,-37.7"/>
<polygon fill="none" stroke="#000000" points="246,-37.7 246,-56.7 328,-56.7 328,-37.7 246,-37.7"/>
<text text-anchor="start" x="249" y="-43.8" font-family="Helvetica,sans-Serif" font-size="11.00" fill="#000000">&lt; 1</text>
<polygon fill="#ffffff" stroke="transparent" points="328,-37.7 328,-56.7 371,-56.7 371,-37.7 328,-37.7"/>
<polygon fill="none" stroke="#000000" points="328,-37.7 328,-56.7 371,-56.7 371,-37.7 328,-37.7"/>
<text text-anchor="start" x="361.8862" y="-43.8" font-family="Helvetica,sans-Serif" font-size="11.00" fill="#000000"> &#160;</text>
<polygon fill="#ffffff" stroke="transparent" points="371,-37.7 371,-56.7 414,-56.7 414,-37.7 371,-37.7"/>
<polygon fill="none" stroke="#000000" points="371,-37.7 371,-56.7 414,-56.7 414,-37.7 371,-37.7"/>
<text text-anchor="start" x="404.8862" y="-43.8" font-family="Helvetica,sans-Serif" font-size="11.00" fill="#000000"> &#160;</text>
</a>
</g>
</g>
<!-- roi_waterongeval.label&#45;&gt;annotatie -->
<g id="edge4" class="edge">
<title>roi_waterongeval.label:w&#45;&gt;annotatie:e</title>
<path fill="none" stroke="#000000" d="M231.8379,-89.4077C186.9812,-110.1229 262.6823,-242.7 195.5,-242.7"/>
<polygon fill="#000000" stroke="#000000" points="238.1423,-88.2024 246.6761,-90.236 242.0712,-87.4512 246,-86.7 246,-86.7 246,-86.7 242.0712,-87.4512 245.3239,-83.164 238.1423,-88.2024 238.1423,-88.2024"/>
<ellipse fill="none" stroke="#000000" cx="234.9993" cy="-88.8033" rx="3.2" ry="3.2"/>
</g>
</g>
</svg>
