<?xml version="1.0" encoding="UTF-8" standalone="no"?>
<!DOCTYPE svg PUBLIC "-//W3C//DTD SVG 1.1//EN"
 "http://www.w3.org/Graphics/SVG/1.1/DTD/svg11.dtd">
<!-- Generated by graphviz version 2.50.0 (0)
 -->
<!-- Title: oneDegreeRelationshipsDiagram Pages: 1 -->
<svg width="546pt" height="331pt"
 viewBox="0.00 0.00 546.00 331.00" xmlns="http://www.w3.org/2000/svg" xmlns:xlink="http://www.w3.org/1999/xlink">
<g id="graph0" class="graph" transform="scale(1 1) rotate(0) translate(4 327)">
<title>oneDegreeRelationshipsDiagram</title>
<polygon fill="#ffffff" stroke="transparent" points="-4,4 -4,-327 542,-327 542,4 -4,4"/>
<text text-anchor="middle" x="79.5" y="-7.2" font-family="Helvetica,sans-Serif" font-size="11.00">Generated by SchemaSpy</text>
<!-- roi_terugmelding.correctieverzoek -->
<g id="node1" class="node">
<title>roi_terugmelding.correctieverzoek</title>
<g id="a_node1"><a xlink:href="../../../roi_terugmelding/tables/correctieverzoek.html" xlink:title="roi_terugmelding.correctieverzoek" target="_top">
<polygon fill="#ffffff" stroke="transparent" points="265,-239 265,-319 530,-319 530,-239 265,-239"/>
<polygon fill="#f5f5f5" stroke="transparent" points="265.5,-297 265.5,-319 530.5,-319 530.5,-297 265.5,-297"/>
<polygon fill="none" stroke="black" points="265.5,-297 265.5,-319 530.5,-319 530.5,-297 265.5,-297"/>
<text text-anchor="start" x="270.5" y="-306.2" font-family="Helvetica,sans-Serif" font-weight="bold" font-size="11.00">roi_terugmelding.correctieverzoek</text>
<text text-anchor="start" x="488.5" y="-305.2" font-family="Helvetica,sans-Serif" font-size="11.00">[table]</text>
<polygon fill="none" stroke="black" points="265.5,-275 265.5,-297 530.5,-297 530.5,-275 265.5,-275"/>
<image xlink:href="../../images/foreignKeys.png" width="11px" height="12px" preserveAspectRatio="xMinYMin meet" x="270.5" y="-292"/>
<text text-anchor="start" x="357.5" y="-283.2" font-family="Helvetica,sans-Serif" font-size="11.00">discipline_id</text>
<polygon fill="none" stroke="black" points="265.5,-257 265.5,-275 530.5,-275 530.5,-257 265.5,-257"/>
<text text-anchor="start" x="268.5" y="-263.2" font-family="Helvetica,sans-Serif" font-size="11.00">...</text>
<polygon fill="#ffffff" stroke="transparent" points="265.5,-239 265.5,-257 396.5,-257 396.5,-239 265.5,-239"/>
<polygon fill="none" stroke="black" points="265.5,-239 265.5,-257 396.5,-257 396.5,-239 265.5,-239"/>
<text text-anchor="start" x="268.5" y="-245.2" font-family="Helvetica,sans-Serif" font-size="11.00">&lt; 1</text>
<polygon fill="#ffffff" stroke="transparent" points="396.5,-239 396.5,-257 463.5,-257 463.5,-239 396.5,-239"/>
<polygon fill="none" stroke="black" points="396.5,-239 396.5,-257 463.5,-257 463.5,-239 396.5,-239"/>
<text text-anchor="start" x="452.5" y="-245.2" font-family="Helvetica,sans-Serif" font-size="11.00"> &#160;</text>
<polygon fill="#ffffff" stroke="transparent" points="463.5,-239 463.5,-257 530.5,-257 530.5,-239 463.5,-239"/>
<polygon fill="none" stroke="black" points="463.5,-239 463.5,-257 530.5,-257 530.5,-239 463.5,-239"/>
<text text-anchor="start" x="519.5" y="-245.2" font-family="Helvetica,sans-Serif" font-size="11.00"> &#160;</text>
</a>
</g>
</g>
<!-- discipline -->
<g id="node2" class="node">
<title>discipline</title>
<g id="a_node2"><a xlink:href="../../tables/discipline.html" xlink:title="discipline" target="_top">
<polygon fill="#ffffff" stroke="transparent" points="8,-110 8,-220 216,-220 216,-110 8,-110"/>
<polygon fill="#f5f5f5" stroke="transparent" points="10,-196 10,-218 214,-218 214,-196 10,-196"/>
<polygon fill="none" stroke="black" points="10,-196 10,-218 214,-218 214,-196 10,-196"/>
<text text-anchor="start" x="15" y="-205.2" font-family="Helvetica,sans-Serif" font-weight="bold" font-size="11.00">discipline</text>
<text text-anchor="start" x="172" y="-204.2" font-family="Helvetica,sans-Serif" font-size="11.00">[table]</text>
<polygon fill="none" stroke="black" points="10,-174 10,-196 108,-196 108,-174 10,-174"/>
<image xlink:href="../../images/primaryKeys.png" width="11px" height="12px" preserveAspectRatio="xMinYMin meet" x="15" y="-191"/>
<text text-anchor="start" x="30" y="-182.2" font-family="Helvetica,sans-Serif" font-size="11.00">id</text>
<polygon fill="none" stroke="black" points="108,-174 108,-196 214,-196 214,-174 108,-174"/>
<text text-anchor="start" x="111" y="-182.2" font-family="Helvetica,sans-Serif" font-size="11.00">int2[5]</text>
<polygon fill="none" stroke="black" points="10,-152 10,-174 108,-174 108,-152 10,-152"/>
<text text-anchor="start" x="30" y="-160.2" font-family="Helvetica,sans-Serif" font-size="11.00">naam</text>
<polygon fill="none" stroke="black" points="108,-152 108,-174 214,-174 214,-152 108,-152"/>
<text text-anchor="start" x="111" y="-160.2" font-family="Helvetica,sans-Serif" font-size="11.00">text[2147483647]</text>
<polygon fill="none" stroke="black" points="10,-130 10,-152 108,-152 108,-130 10,-130"/>
<text text-anchor="start" x="30" y="-138.2" font-family="Helvetica,sans-Serif" font-size="11.00">omschrijving</text>
<polygon fill="none" stroke="black" points="108,-130 108,-152 214,-152 214,-130 108,-130"/>
<text text-anchor="start" x="111" y="-138.2" font-family="Helvetica,sans-Serif" font-size="11.00">text[2147483647]</text>
<polygon fill="#ffffff" stroke="transparent" points="10,-112 10,-130 65,-130 65,-112 10,-112"/>
<polygon fill="none" stroke="black" points="10,-112 10,-130 65,-130 65,-112 10,-112"/>
<text text-anchor="start" x="13" y="-118.2" font-family="Helvetica,sans-Serif" font-size="11.00">&lt; 0</text>
<polygon fill="#ffffff" stroke="transparent" points="65,-112 65,-130 108,-130 108,-112 65,-112"/>
<polygon fill="none" stroke="black" points="65,-112 65,-130 108,-130 108,-112 65,-112"/>
<text text-anchor="start" x="97" y="-118.2" font-family="Helvetica,sans-Serif" font-size="11.00"> &#160;</text>
<polygon fill="#ffffff" stroke="transparent" points="108,-112 108,-130 214,-130 214,-112 108,-112"/>
<polygon fill="none" stroke="black" points="108,-112 108,-130 214,-130 214,-112 108,-112"/>
<text text-anchor="start" x="191" y="-118.2" font-family="Helvetica,sans-Serif" font-size="11.00">3 &gt;</text>
<polygon fill="none" stroke="black" stroke-width="2" points="9,-111 9,-219 215,-219 215,-111 9,-111"/>
</a>
</g>
</g>
<!-- roi_terugmelding.correctieverzoek&#45;&gt;discipline -->
<g id="edge1" class="edge">
<title>roi_terugmelding.correctieverzoek:w&#45;&gt;discipline:e</title>
<path fill="none" stroke="black" d="M250.4,-281.92C225.26,-263.02 258.94,-185 215,-185"/>
<polygon fill="black" stroke="black" points="256.82,-283.77 263.5,-289.46 260.66,-284.89 264.5,-286 264.5,-286 264.5,-286 260.66,-284.89 265.5,-282.54 256.82,-283.77 256.82,-283.77"/>
<ellipse fill="none" stroke="black" cx="253.74" cy="-282.88" rx="3.2" ry="3.2"/>
</g>
<!-- roi_terugmelding.melding -->
<g id="node3" class="node">
<title>roi_terugmelding.melding</title>
<g id="a_node3"><a xlink:href="../../../roi_terugmelding/tables/melding.html" xlink:title="roi_terugmelding.melding" target="_top">
<polygon fill="#ffffff" stroke="transparent" points="293.5,-138 293.5,-218 501.5,-218 501.5,-138 293.5,-138"/>
<polygon fill="#f5f5f5" stroke="transparent" points="293.5,-196 293.5,-218 501.5,-218 501.5,-196 293.5,-196"/>
<polygon fill="none" stroke="black" points="293.5,-196 293.5,-218 501.5,-218 501.5,-196 293.5,-196"/>
<text text-anchor="start" x="298.5" y="-205.2" font-family="Helvetica,sans-Serif" font-weight="bold" font-size="11.00">roi_terugmelding.melding</text>
<text text-anchor="start" x="459.5" y="-204.2" font-family="Helvetica,sans-Serif" font-size="11.00">[table]</text>
<polygon fill="none" stroke="black" points="293.5,-174 293.5,-196 501.5,-196 501.5,-174 293.5,-174"/>
<image xlink:href="../../images/foreignKeys.png" width="11px" height="12px" preserveAspectRatio="xMinYMin meet" x="298.5" y="-191"/>
<text text-anchor="start" x="360.5" y="-182.2" font-family="Helvetica,sans-Serif" font-size="11.00">discipline_id</text>
<polygon fill="none" stroke="black" points="293.5,-156 293.5,-174 501.5,-174 501.5,-156 293.5,-156"/>
<text text-anchor="start" x="296.5" y="-162.2" font-family="Helvetica,sans-Serif" font-size="11.00">...</text>
<polygon fill="#ffffff" stroke="transparent" points="293.5,-138 293.5,-156 396.5,-156 396.5,-138 293.5,-138"/>
<polygon fill="none" stroke="black" points="293.5,-138 293.5,-156 396.5,-156 396.5,-138 293.5,-138"/>
<text text-anchor="start" x="296.5" y="-144.2" font-family="Helvetica,sans-Serif" font-size="11.00">&lt; 1</text>
<polygon fill="#ffffff" stroke="transparent" points="396.5,-138 396.5,-156 448.5,-156 448.5,-138 396.5,-138"/>
<polygon fill="none" stroke="black" points="396.5,-138 396.5,-156 448.5,-156 448.5,-138 396.5,-138"/>
<text text-anchor="start" x="437.5" y="-144.2" font-family="Helvetica,sans-Serif" font-size="11.00"> &#160;</text>
<polygon fill="#ffffff" stroke="transparent" points="448.5,-138 448.5,-156 501.5,-156 501.5,-138 448.5,-138"/>
<polygon fill="none" stroke="black" points="448.5,-138 448.5,-156 501.5,-156 501.5,-138 448.5,-138"/>
<text text-anchor="start" x="490.5" y="-144.2" font-family="Helvetica,sans-Serif" font-size="11.00"> &#160;</text>
</a>
</g>
</g>
<!-- roi_terugmelding.melding&#45;&gt;discipline -->
<g id="edge2" class="edge">
<title>roi_terugmelding.melding:w&#45;&gt;discipline:e</title>
<path fill="none" stroke="black" d="M278.05,-185C254.73,-185 244.06,-185 215,-185"/>
<polygon fill="black" stroke="black" points="284.5,-185 292.5,-188.6 288.5,-185 292.5,-185 292.5,-185 292.5,-185 288.5,-185 292.5,-181.4 284.5,-185 284.5,-185"/>
<ellipse fill="none" stroke="black" cx="281.3" cy="-185" rx="3.2" ry="3.2"/>
</g>
<!-- roi_terugmelding.melding&#45;oud -->
<g id="node4" class="node">
<title>roi_terugmelding.melding&#45;oud</title>
<g id="a_node4"><a xlink:href="../../../roi_terugmelding/tables/melding-oud.html" xlink:title="roi_terugmelding.melding&#45;oud" target="_top">
<polygon fill="#ffffff" stroke="transparent" points="280,-37 280,-117 515,-117 515,-37 280,-37"/>
<polygon fill="#f5f5f5" stroke="transparent" points="280.5,-95 280.5,-117 515.5,-117 515.5,-95 280.5,-95"/>
<polygon fill="none" stroke="black" points="280.5,-95 280.5,-117 515.5,-117 515.5,-95 280.5,-95"/>
<text text-anchor="start" x="285.5" y="-104.2" font-family="Helvetica,sans-Serif" font-weight="bold" font-size="11.00">roi_terugmelding.melding&#45;oud</text>
<text text-anchor="start" x="473.5" y="-103.2" font-family="Helvetica,sans-Serif" font-size="11.00">[table]</text>
<polygon fill="none" stroke="black" points="280.5,-73 280.5,-95 515.5,-95 515.5,-73 280.5,-73"/>
<image xlink:href="../../images/foreignKeys.png" width="11px" height="12px" preserveAspectRatio="xMinYMin meet" x="285.5" y="-90"/>
<text text-anchor="start" x="361.5" y="-81.2" font-family="Helvetica,sans-Serif" font-size="11.00">discipline_id</text>
<polygon fill="none" stroke="black" points="280.5,-55 280.5,-73 515.5,-73 515.5,-55 280.5,-55"/>
<text text-anchor="start" x="283.5" y="-61.2" font-family="Helvetica,sans-Serif" font-size="11.00">...</text>
<polygon fill="#ffffff" stroke="transparent" points="280.5,-37 280.5,-55 396.5,-55 396.5,-37 280.5,-37"/>
<polygon fill="none" stroke="black" points="280.5,-37 280.5,-55 396.5,-55 396.5,-37 280.5,-37"/>
<text text-anchor="start" x="283.5" y="-43.2" font-family="Helvetica,sans-Serif" font-size="11.00">&lt; 1</text>
<polygon fill="#ffffff" stroke="transparent" points="396.5,-37 396.5,-55 455.5,-55 455.5,-37 396.5,-37"/>
<polygon fill="none" stroke="black" points="396.5,-37 396.5,-55 455.5,-55 455.5,-37 396.5,-37"/>
<text text-anchor="start" x="444.5" y="-43.2" font-family="Helvetica,sans-Serif" font-size="11.00"> &#160;</text>
<polygon fill="#ffffff" stroke="transparent" points="455.5,-37 455.5,-55 515.5,-55 515.5,-37 455.5,-37"/>
<polygon fill="none" stroke="black" points="455.5,-37 455.5,-55 515.5,-55 515.5,-37 455.5,-37"/>
<text text-anchor="start" x="504.5" y="-43.2" font-family="Helvetica,sans-Serif" font-size="11.00"> &#160;</text>
</a>
</g>
</g>
<!-- roi_terugmelding.melding&#45;oud&#45;&gt;discipline -->
<g id="edge3" class="edge">
<title>roi_terugmelding.melding&#45;oud:w&#45;&gt;discipline:e</title>
<path fill="none" stroke="black" d="M265.19,-87.36C234.29,-104.89 262.44,-185 215,-185"/>
<polygon fill="black" stroke="black" points="271.71,-85.83 280.32,-87.5 275.61,-84.91 279.5,-84 279.5,-84 279.5,-84 275.61,-84.91 278.68,-80.5 271.71,-85.83 271.71,-85.83"/>
<ellipse fill="none" stroke="black" cx="268.6" cy="-86.56" rx="3.2" ry="3.2"/>
</g>
</g>
</svg>
