<?xml version="1.0" encoding="UTF-8" standalone="no"?>
<!DOCTYPE svg PUBLIC "-//W3C//DTD SVG 1.1//EN"
 "http://www.w3.org/Graphics/SVG/1.1/DTD/svg11.dtd">
<!-- Generated by graphviz version 2.40.1 (20161225.0304)
 -->
<!-- Title: oneDegreeRelationshipsDiagram Pages: 1 -->
<svg width="435pt" height="341pt"
 viewBox="0.00 0.00 435.00 341.20" xmlns="http://www.w3.org/2000/svg" xmlns:xlink="http://www.w3.org/1999/xlink">
<g id="graph0" class="graph" transform="scale(1 1) rotate(0) translate(4 337.2)">
<title>oneDegreeRelationshipsDiagram</title>
<polygon fill="#ffffff" stroke="transparent" points="-4,4 -4,-337.2 431,-337.2 431,4 -4,4"/>
<text text-anchor="middle" x="72.4936" y="-7.3" font-family="Helvetica,sans-Serif" font-size="11.00" fill="#000000">Generated by SchemaSpy</text>
<!-- roi_evenement.risico -->
<g id="node1" class="node">
<title>roi_evenement.risico</title>
<g id="a_node1"><a xlink:href="../../../roi_evenement/tables/risico.html" xlink:title="roi_evenement.risico" target="_top">
<polygon fill="#ffffff" stroke="transparent" points="253,-246.2 253,-329.2 412,-329.2 412,-246.2 253,-246.2"/>
<polygon fill="#f5f5f5" stroke="transparent" points="253.5,-305.7 253.5,-328.7 412.5,-328.7 412.5,-305.7 253.5,-305.7"/>
<polygon fill="none" stroke="#000000" points="253.5,-305.7 253.5,-328.7 412.5,-328.7 412.5,-305.7 253.5,-305.7"/>
<text text-anchor="start" x="258.5" y="-314.3" font-family="Helvetica,sans-Serif" font-weight="bold" font-size="11.00" fill="#000000">roi_evenement.risico</text>
<text text-anchor="start" x="378.0219" y="-313.8" font-family="Helvetica,sans-Serif" font-size="11.00" fill="#000000">[table]</text>
<polygon fill="none" stroke="#000000" points="253.5,-283.7 253.5,-305.7 412.5,-305.7 412.5,-283.7 253.5,-283.7"/>
<image xlink:href="../../images/foreignKeys.png" width="11px" height="12px" preserveAspectRatio="xMinYMin meet" x="258.5" y="-300.7"/>
<text text-anchor="start" x="298.5" y="-290.8" font-family="Helvetica,sans-Serif" font-size="11.00" fill="#000000">dreiging_id</text>
<polygon fill="none" stroke="#000000" points="253.5,-264.7 253.5,-283.7 412.5,-283.7 412.5,-264.7 253.5,-264.7"/>
<text text-anchor="start" x="256.5" y="-270.8" font-family="Helvetica,sans-Serif" font-size="11.00" fill="#000000">...</text>
<polygon fill="#ffffff" stroke="transparent" points="253.5,-245.7 253.5,-264.7 331.5,-264.7 331.5,-245.7 253.5,-245.7"/>
<polygon fill="none" stroke="#000000" points="253.5,-245.7 253.5,-264.7 331.5,-264.7 331.5,-245.7 253.5,-245.7"/>
<text text-anchor="start" x="256.5" y="-251.8" font-family="Helvetica,sans-Serif" font-size="11.00" fill="#000000">&lt; 1</text>
<polygon fill="#ffffff" stroke="transparent" points="331.5,-245.7 331.5,-264.7 371.5,-264.7 371.5,-245.7 331.5,-245.7"/>
<polygon fill="none" stroke="#000000" points="331.5,-245.7 331.5,-264.7 371.5,-264.7 371.5,-245.7 331.5,-245.7"/>
<text text-anchor="start" x="362.3862" y="-251.8" font-family="Helvetica,sans-Serif" font-size="11.00" fill="#000000"> &#160;</text>
<polygon fill="#ffffff" stroke="transparent" points="371.5,-245.7 371.5,-264.7 412.5,-264.7 412.5,-245.7 371.5,-245.7"/>
<polygon fill="none" stroke="#000000" points="371.5,-245.7 371.5,-264.7 412.5,-264.7 412.5,-245.7 371.5,-245.7"/>
<text text-anchor="start" x="403.3862" y="-251.8" font-family="Helvetica,sans-Serif" font-size="11.00" fill="#000000"> &#160;</text>
</a>
</g>
</g>
<!-- dreiging -->
<g id="node2" class="node">
<title>dreiging</title>
<g id="a_node2"><a xlink:href="../../tables/dreiging.html" xlink:title="dreiging" target="_top">
<polygon fill="#ffffff" stroke="transparent" points="8,-114.7 8,-226.7 197,-226.7 197,-114.7 8,-114.7"/>
<polygon fill="#f5f5f5" stroke="transparent" points="10.5,-201.7 10.5,-224.7 195.5,-224.7 195.5,-201.7 10.5,-201.7"/>
<polygon fill="none" stroke="#000000" points="10.5,-201.7 10.5,-224.7 195.5,-224.7 195.5,-201.7 10.5,-201.7"/>
<text text-anchor="start" x="15.5" y="-210.3" font-family="Helvetica,sans-Serif" font-weight="bold" font-size="11.00" fill="#000000">dreiging</text>
<text text-anchor="start" x="160.5437" y="-209.8" font-family="Helvetica,sans-Serif" font-size="11.00" fill="#000000">[table]</text>
<polygon fill="none" stroke="#000000" points="10.5,-179.7 10.5,-201.7 105.5,-201.7 105.5,-179.7 10.5,-179.7"/>
<image xlink:href="../../images/primaryKeys.png" width="11px" height="12px" preserveAspectRatio="xMinYMin meet" x="15.5" y="-196.7"/>
<text text-anchor="start" x="30.5" y="-186.8" font-family="Helvetica,sans-Serif" font-size="11.00" fill="#000000">id</text>
<polygon fill="none" stroke="#000000" points="105.5,-179.7 105.5,-201.7 195.5,-201.7 195.5,-179.7 105.5,-179.7"/>
<text text-anchor="start" x="108.5" y="-187.4" font-family="Helvetica,sans-Serif" font-size="11.00" fill="#000000">int2[5]</text>
<polygon fill="none" stroke="#000000" points="10.5,-157.7 10.5,-179.7 105.5,-179.7 105.5,-157.7 10.5,-157.7"/>
<text text-anchor="start" x="30.5" y="-164.8" font-family="Helvetica,sans-Serif" font-size="11.00" fill="#000000">naam</text>
<polygon fill="none" stroke="#000000" points="105.5,-157.7 105.5,-179.7 195.5,-179.7 195.5,-157.7 105.5,-157.7"/>
<text text-anchor="start" x="108.0042" y="-165.4" font-family="Helvetica,sans-Serif" font-size="11.00" fill="#000000">text[2147483647]</text>
<polygon fill="none" stroke="#000000" points="10.5,-135.7 10.5,-157.7 105.5,-157.7 105.5,-135.7 10.5,-135.7"/>
<text text-anchor="start" x="30.5" y="-142.8" font-family="Helvetica,sans-Serif" font-size="11.00" fill="#000000">omschrijving</text>
<polygon fill="none" stroke="#000000" points="105.5,-135.7 105.5,-157.7 195.5,-157.7 195.5,-135.7 105.5,-135.7"/>
<text text-anchor="start" x="108.0042" y="-143.4" font-family="Helvetica,sans-Serif" font-size="11.00" fill="#000000">text[2147483647]</text>
<polygon fill="#ffffff" stroke="transparent" points="10.5,-116.7 10.5,-135.7 62.5,-135.7 62.5,-116.7 10.5,-116.7"/>
<polygon fill="none" stroke="#000000" points="10.5,-116.7 10.5,-135.7 62.5,-135.7 62.5,-116.7 10.5,-116.7"/>
<text text-anchor="start" x="13.5" y="-122.8" font-family="Helvetica,sans-Serif" font-size="11.00" fill="#000000">&lt; 0</text>
<polygon fill="#ffffff" stroke="transparent" points="62.5,-116.7 62.5,-135.7 105.5,-135.7 105.5,-116.7 62.5,-116.7"/>
<polygon fill="none" stroke="#000000" points="62.5,-116.7 62.5,-135.7 105.5,-135.7 105.5,-116.7 62.5,-116.7"/>
<text text-anchor="start" x="96.3862" y="-122.8" font-family="Helvetica,sans-Serif" font-size="11.00" fill="#000000"> &#160;</text>
<polygon fill="#ffffff" stroke="transparent" points="105.5,-116.7 105.5,-135.7 195.5,-135.7 195.5,-116.7 105.5,-116.7"/>
<polygon fill="none" stroke="#000000" points="105.5,-116.7 105.5,-135.7 195.5,-135.7 195.5,-116.7 105.5,-116.7"/>
<text text-anchor="start" x="176.9053" y="-122.8" font-family="Helvetica,sans-Serif" font-size="11.00" fill="#000000">3 &gt;</text>
<polygon fill="none" stroke="#000000" stroke-width="2" points="9,-115.7 9,-225.7 196,-225.7 196,-115.7 9,-115.7"/>
</a>
</g>
</g>
<!-- roi_evenement.risico&#45;&gt;dreiging -->
<g id="edge1" class="edge">
<title>roi_evenement.risico:w&#45;&gt;dreiging:e</title>
<path fill="none" stroke="#000000" d="M239.4871,-291.2397C209.837,-273.1941 242.6358,-190.7 195.5,-190.7"/>
<polygon fill="#000000" stroke="#000000" points="245.7333,-292.7821 252.6369,-298.195 249.6166,-293.741 253.5,-294.7 253.5,-294.7 253.5,-294.7 249.6166,-293.741 254.3631,-291.205 245.7333,-292.7821 245.7333,-292.7821"/>
<ellipse fill="none" stroke="#000000" cx="242.6266" cy="-292.0149" rx="3.2" ry="3.2"/>
</g>
<!-- roi_gebouw.risico -->
<g id="node3" class="node">
<title>roi_gebouw.risico</title>
<g id="a_node3"><a xlink:href="../../../roi_gebouw/tables/risico.html" xlink:title="roi_gebouw.risico" target="_top">
<polygon fill="#ffffff" stroke="transparent" points="262,-142.2 262,-225.2 403,-225.2 403,-142.2 262,-142.2"/>
<polygon fill="#f5f5f5" stroke="transparent" points="262.5,-201.7 262.5,-224.7 403.5,-224.7 403.5,-201.7 262.5,-201.7"/>
<polygon fill="none" stroke="#000000" points="262.5,-201.7 262.5,-224.7 403.5,-224.7 403.5,-201.7 262.5,-201.7"/>
<text text-anchor="start" x="267.5" y="-210.3" font-family="Helvetica,sans-Serif" font-weight="bold" font-size="11.00" fill="#000000">roi_gebouw.risico</text>
<text text-anchor="start" x="369.0219" y="-209.8" font-family="Helvetica,sans-Serif" font-size="11.00" fill="#000000">[table]</text>
<polygon fill="none" stroke="#000000" points="262.5,-179.7 262.5,-201.7 403.5,-201.7 403.5,-179.7 262.5,-179.7"/>
<image xlink:href="../../images/foreignKeys.png" width="11px" height="12px" preserveAspectRatio="xMinYMin meet" x="267.5" y="-196.7"/>
<text text-anchor="start" x="298.5" y="-186.8" font-family="Helvetica,sans-Serif" font-size="11.00" fill="#000000">dreiging_id</text>
<polygon fill="none" stroke="#000000" points="262.5,-160.7 262.5,-179.7 403.5,-179.7 403.5,-160.7 262.5,-160.7"/>
<text text-anchor="start" x="265.5" y="-166.8" font-family="Helvetica,sans-Serif" font-size="11.00" fill="#000000">...</text>
<polygon fill="#ffffff" stroke="transparent" points="262.5,-141.7 262.5,-160.7 331.5,-160.7 331.5,-141.7 262.5,-141.7"/>
<polygon fill="none" stroke="#000000" points="262.5,-141.7 262.5,-160.7 331.5,-160.7 331.5,-141.7 262.5,-141.7"/>
<text text-anchor="start" x="265.5" y="-147.8" font-family="Helvetica,sans-Serif" font-size="11.00" fill="#000000">&lt; 1</text>
<polygon fill="#ffffff" stroke="transparent" points="331.5,-141.7 331.5,-160.7 367.5,-160.7 367.5,-141.7 331.5,-141.7"/>
<polygon fill="none" stroke="#000000" points="331.5,-141.7 331.5,-160.7 367.5,-160.7 367.5,-141.7 331.5,-141.7"/>
<text text-anchor="start" x="358.3862" y="-147.8" font-family="Helvetica,sans-Serif" font-size="11.00" fill="#000000"> &#160;</text>
<polygon fill="#ffffff" stroke="transparent" points="367.5,-141.7 367.5,-160.7 403.5,-160.7 403.5,-141.7 367.5,-141.7"/>
<polygon fill="none" stroke="#000000" points="367.5,-141.7 367.5,-160.7 403.5,-160.7 403.5,-141.7 367.5,-141.7"/>
<text text-anchor="start" x="394.3862" y="-147.8" font-family="Helvetica,sans-Serif" font-size="11.00" fill="#000000"> &#160;</text>
</a>
</g>
</g>
<!-- roi_gebouw.risico&#45;&gt;dreiging -->
<g id="edge2" class="edge">
<title>roi_gebouw.risico:w&#45;&gt;dreiging:e</title>
<path fill="none" stroke="#000000" d="M248.0809,-190.7C229.2359,-190.7 219.8108,-190.7 195.5,-190.7"/>
<polygon fill="#000000" stroke="#000000" points="254.5,-190.7001 262.5,-194.3 258.5,-190.7 262.5,-190.7 262.5,-190.7 262.5,-190.7 258.5,-190.7 262.5,-187.1 254.5,-190.7001 254.5,-190.7001"/>
<ellipse fill="none" stroke="#000000" cx="251.3" cy="-190.7001" rx="3.2" ry="3.2"/>
</g>
<!-- roi_waterongeval.risico -->
<g id="node4" class="node">
<title>roi_waterongeval.risico</title>
<g id="a_node4"><a xlink:href="../../../roi_waterongeval/tables/risico.html" xlink:title="roi_waterongeval.risico" target="_top">
<polygon fill="#ffffff" stroke="transparent" points="246,-38.2 246,-121.2 419,-121.2 419,-38.2 246,-38.2"/>
<polygon fill="#f5f5f5" stroke="transparent" points="246.5,-97.7 246.5,-120.7 419.5,-120.7 419.5,-97.7 246.5,-97.7"/>
<polygon fill="none" stroke="#000000" points="246.5,-97.7 246.5,-120.7 419.5,-120.7 419.5,-97.7 246.5,-97.7"/>
<text text-anchor="start" x="251.5" y="-106.3" font-family="Helvetica,sans-Serif" font-weight="bold" font-size="11.00" fill="#000000">roi_waterongeval.risico</text>
<text text-anchor="start" x="385.0219" y="-105.8" font-family="Helvetica,sans-Serif" font-size="11.00" fill="#000000">[table]</text>
<polygon fill="none" stroke="#000000" points="246.5,-75.7 246.5,-97.7 419.5,-97.7 419.5,-75.7 246.5,-75.7"/>
<image xlink:href="../../images/foreignKeys.png" width="11px" height="12px" preserveAspectRatio="xMinYMin meet" x="251.5" y="-92.7"/>
<text text-anchor="start" x="298.5" y="-82.8" font-family="Helvetica,sans-Serif" font-size="11.00" fill="#000000">dreiging_id</text>
<polygon fill="none" stroke="#000000" points="246.5,-56.7 246.5,-75.7 419.5,-75.7 419.5,-56.7 246.5,-56.7"/>
<text text-anchor="start" x="249.5" y="-62.8" font-family="Helvetica,sans-Serif" font-size="11.00" fill="#000000">...</text>
<polygon fill="#ffffff" stroke="transparent" points="246.5,-37.7 246.5,-56.7 331.5,-56.7 331.5,-37.7 246.5,-37.7"/>
<polygon fill="none" stroke="#000000" points="246.5,-37.7 246.5,-56.7 331.5,-56.7 331.5,-37.7 246.5,-37.7"/>
<text text-anchor="start" x="249.5" y="-43.8" font-family="Helvetica,sans-Serif" font-size="11.00" fill="#000000">&lt; 1</text>
<polygon fill="#ffffff" stroke="transparent" points="331.5,-37.7 331.5,-56.7 375.5,-56.7 375.5,-37.7 331.5,-37.7"/>
<polygon fill="none" stroke="#000000" points="331.5,-37.7 331.5,-56.7 375.5,-56.7 375.5,-37.7 331.5,-37.7"/>
<text text-anchor="start" x="366.3862" y="-43.8" font-family="Helvetica,sans-Serif" font-size="11.00" fill="#000000"> &#160;</text>
<polygon fill="#ffffff" stroke="transparent" points="375.5,-37.7 375.5,-56.7 419.5,-56.7 419.5,-37.7 375.5,-37.7"/>
<polygon fill="none" stroke="#000000" points="375.5,-37.7 375.5,-56.7 419.5,-56.7 419.5,-37.7 375.5,-37.7"/>
<text text-anchor="start" x="410.3862" y="-43.8" font-family="Helvetica,sans-Serif" font-size="11.00" fill="#000000"> &#160;</text>
</a>
</g>
</g>
<!-- roi_waterongeval.risico&#45;&gt;dreiging -->
<g id="edge3" class="edge">
<title>roi_waterongeval.risico:w&#45;&gt;dreiging:e</title>
<path fill="none" stroke="#000000" d="M232.33,-90.6499C205.7771,-109.6468 240.9479,-190.7 195.5,-190.7"/>
<polygon fill="#000000" stroke="#000000" points="238.7938,-88.8482 247.4667,-90.1678 242.6469,-87.7741 246.5,-86.7 246.5,-86.7 246.5,-86.7 242.6469,-87.7741 245.5333,-83.2322 238.7938,-88.8482 238.7938,-88.8482"/>
<ellipse fill="none" stroke="#000000" cx="235.7113" cy="-89.7074" rx="3.2" ry="3.2"/>
</g>
</g>
</svg>
