<?xml version="1.0" encoding="UTF-8" standalone="no"?>
<!DOCTYPE svg PUBLIC "-//W3C//DTD SVG 1.1//EN"
 "http://www.w3.org/Graphics/SVG/1.1/DTD/svg11.dtd">
<!-- Generated by graphviz version 2.50.0 (0)
 -->
<!-- Title: twoDegreesRelationshipsDiagram Pages: 1 -->
<svg width="532pt" height="1047pt"
 viewBox="0.00 0.00 532.00 1047.00" xmlns="http://www.w3.org/2000/svg" xmlns:xlink="http://www.w3.org/1999/xlink">
<g id="graph0" class="graph" transform="scale(1 1) rotate(0) translate(4 1043)">
<title>twoDegreesRelationshipsDiagram</title>
<polygon fill="#ffffff" stroke="transparent" points="-4,4 -4,-1043 528,-1043 528,4 -4,4"/>
<text text-anchor="middle" x="79.5" y="-7.2" font-family="Helvetica,sans-Serif" font-size="11.00">Generated by SchemaSpy</text>
<!-- roi_bluswater.bluswaterriool -->
<g id="node1" class="node">
<title>roi_bluswater.bluswaterriool</title>
<g id="a_node1"><a xlink:href="../../../roi_bluswater/tables/bluswaterriool.html" xlink:title="roi_bluswater.bluswaterriool" target="_top">
<polygon fill="#ffffff" stroke="transparent" points="277,-564 277,-666 504,-666 504,-564 277,-564"/>
<polygon fill="#f5f5f5" stroke="transparent" points="277.5,-644 277.5,-666 504.5,-666 504.5,-644 277.5,-644"/>
<polygon fill="none" stroke="black" points="277.5,-644 277.5,-666 504.5,-666 504.5,-644 277.5,-644"/>
<text text-anchor="start" x="282.5" y="-653.2" font-family="Helvetica,sans-Serif" font-weight="bold" font-size="11.00">roi_bluswater.bluswaterriool</text>
<text text-anchor="start" x="462.5" y="-652.2" font-family="Helvetica,sans-Serif" font-size="11.00">[table]</text>
<polygon fill="none" stroke="black" points="277.5,-622 277.5,-644 504.5,-644 504.5,-622 277.5,-622"/>
<image xlink:href="../../images/foreignKeys.png" width="11px" height="12px" preserveAspectRatio="xMinYMin meet" x="282.5" y="-639"/>
<text text-anchor="start" x="325.5" y="-630.2" font-family="Helvetica,sans-Serif" font-size="11.00">fase_id</text>
<polygon fill="none" stroke="black" points="277.5,-600 277.5,-622 504.5,-622 504.5,-600 277.5,-600"/>
<image xlink:href="../../images/foreignKeys.png" width="11px" height="12px" preserveAspectRatio="xMinYMin meet" x="282.5" y="-617"/>
<text text-anchor="start" x="325.5" y="-608.2" font-family="Helvetica,sans-Serif" font-size="11.00">symbool_id</text>
<polygon fill="none" stroke="black" points="277.5,-582 277.5,-600 504.5,-600 504.5,-582 277.5,-582"/>
<text text-anchor="start" x="280.5" y="-588.2" font-family="Helvetica,sans-Serif" font-size="11.00">...</text>
<polygon fill="#ffffff" stroke="transparent" points="277.5,-564 277.5,-582 389.5,-582 389.5,-564 277.5,-564"/>
<polygon fill="none" stroke="black" points="277.5,-564 277.5,-582 389.5,-582 389.5,-564 277.5,-564"/>
<text text-anchor="start" x="280.5" y="-570.2" font-family="Helvetica,sans-Serif" font-size="11.00">&lt; 2</text>
<polygon fill="#ffffff" stroke="transparent" points="389.5,-564 389.5,-582 446.5,-582 446.5,-564 389.5,-564"/>
<polygon fill="none" stroke="black" points="389.5,-564 389.5,-582 446.5,-582 446.5,-564 389.5,-564"/>
<text text-anchor="start" x="435.5" y="-570.2" font-family="Helvetica,sans-Serif" font-size="11.00"> &#160;</text>
<polygon fill="#ffffff" stroke="transparent" points="446.5,-564 446.5,-582 504.5,-582 504.5,-564 446.5,-564"/>
<polygon fill="none" stroke="black" points="446.5,-564 446.5,-582 504.5,-582 504.5,-564 446.5,-564"/>
<text text-anchor="start" x="493.5" y="-570.2" font-family="Helvetica,sans-Serif" font-size="11.00"> &#160;</text>
</a>
</g>
</g>
<!-- fase -->
<g id="node2" class="node">
<title>fase</title>
<g id="a_node2"><a xlink:href="../../tables/fase.html" xlink:title="fase" target="_top">
<polygon fill="#ffffff" stroke="transparent" points="8,-435 8,-545 216,-545 216,-435 8,-435"/>
<polygon fill="#f5f5f5" stroke="transparent" points="10,-521 10,-543 214,-543 214,-521 10,-521"/>
<polygon fill="none" stroke="black" points="10,-521 10,-543 214,-543 214,-521 10,-521"/>
<text text-anchor="start" x="15" y="-530.2" font-family="Helvetica,sans-Serif" font-weight="bold" font-size="11.00">fase</text>
<text text-anchor="start" x="172" y="-529.2" font-family="Helvetica,sans-Serif" font-size="11.00">[table]</text>
<polygon fill="none" stroke="black" points="10,-499 10,-521 108,-521 108,-499 10,-499"/>
<image xlink:href="../../images/primaryKeys.png" width="11px" height="12px" preserveAspectRatio="xMinYMin meet" x="15" y="-516"/>
<text text-anchor="start" x="30" y="-507.2" font-family="Helvetica,sans-Serif" font-size="11.00">id</text>
<polygon fill="none" stroke="black" points="108,-499 108,-521 214,-521 214,-499 108,-499"/>
<text text-anchor="start" x="111" y="-507.2" font-family="Helvetica,sans-Serif" font-size="11.00">int2[5]</text>
<polygon fill="none" stroke="black" points="10,-477 10,-499 108,-499 108,-477 10,-477"/>
<text text-anchor="start" x="30" y="-485.2" font-family="Helvetica,sans-Serif" font-size="11.00">naam</text>
<polygon fill="none" stroke="black" points="108,-477 108,-499 214,-499 214,-477 108,-477"/>
<text text-anchor="start" x="111" y="-485.2" font-family="Helvetica,sans-Serif" font-size="11.00">text[2147483647]</text>
<polygon fill="none" stroke="black" points="10,-455 10,-477 108,-477 108,-455 10,-455"/>
<text text-anchor="start" x="30" y="-463.2" font-family="Helvetica,sans-Serif" font-size="11.00">omschrijving</text>
<polygon fill="none" stroke="black" points="108,-455 108,-477 214,-477 214,-455 108,-455"/>
<text text-anchor="start" x="111" y="-463.2" font-family="Helvetica,sans-Serif" font-size="11.00">text[2147483647]</text>
<polygon fill="#ffffff" stroke="transparent" points="10,-437 10,-455 65,-455 65,-437 10,-437"/>
<polygon fill="none" stroke="black" points="10,-437 10,-455 65,-455 65,-437 10,-437"/>
<text text-anchor="start" x="13" y="-443.2" font-family="Helvetica,sans-Serif" font-size="11.00">&lt; 0</text>
<polygon fill="#ffffff" stroke="transparent" points="65,-437 65,-455 108,-455 108,-437 65,-437"/>
<polygon fill="none" stroke="black" points="65,-437 65,-455 108,-455 108,-437 65,-437"/>
<text text-anchor="start" x="97" y="-443.2" font-family="Helvetica,sans-Serif" font-size="11.00"> &#160;</text>
<polygon fill="#ffffff" stroke="transparent" points="108,-437 108,-455 214,-455 214,-437 108,-437"/>
<polygon fill="none" stroke="black" points="108,-437 108,-455 214,-455 214,-437 108,-437"/>
<text text-anchor="start" x="191" y="-443.2" font-family="Helvetica,sans-Serif" font-size="11.00">9 &gt;</text>
<polygon fill="none" stroke="black" stroke-width="2" points="9,-436 9,-544 215,-544 215,-436 9,-436"/>
</a>
</g>
</g>
<!-- roi_bluswater.bluswaterriool&#45;&gt;fase -->
<g id="edge1" class="edge">
<title>roi_bluswater.bluswaterriool:w&#45;&gt;fase:e</title>
<path fill="none" stroke="black" d="M262.32,-629.96C225.7,-611.02 270.39,-510 215,-510"/>
<polygon fill="black" stroke="black" points="268.68,-631.32 275.75,-636.52 272.59,-632.16 276.5,-633 276.5,-633 276.5,-633 272.59,-632.16 277.25,-629.48 268.68,-631.32 268.68,-631.32"/>
<ellipse fill="none" stroke="black" cx="265.55" cy="-630.65" rx="3.2" ry="3.2"/>
</g>
<!-- symbool -->
<g id="node3" class="node">
<title>symbool</title>
<g id="a_node3"><a xlink:href="../../tables/symbool.html" xlink:title="symbool" target="_top">
<polygon fill="#ffffff" stroke="transparent" points="60.5,-707 60.5,-765 163.5,-765 163.5,-707 60.5,-707"/>
<polygon fill="#f5f5f5" stroke="transparent" points="61,-743 61,-765 164,-765 164,-743 61,-743"/>
<polygon fill="none" stroke="black" points="61,-743 61,-765 164,-765 164,-743 61,-743"/>
<text text-anchor="start" x="66" y="-752.2" font-family="Helvetica,sans-Serif" font-weight="bold" font-size="11.00">symbool</text>
<text text-anchor="start" x="122" y="-751.2" font-family="Helvetica,sans-Serif" font-size="11.00">[table]</text>
<polygon fill="none" stroke="black" points="61,-725 61,-743 164,-743 164,-725 61,-725"/>
<text text-anchor="start" x="64" y="-731.2" font-family="Helvetica,sans-Serif" font-size="11.00">...</text>
<polygon fill="#ffffff" stroke="transparent" points="61,-707 61,-725 99,-725 99,-707 61,-707"/>
<polygon fill="none" stroke="black" points="61,-707 61,-725 99,-725 99,-707 61,-707"/>
<text text-anchor="start" x="64" y="-713.2" font-family="Helvetica,sans-Serif" font-size="11.00"> &#160;</text>
<polygon fill="#ffffff" stroke="transparent" points="99,-707 99,-725 125,-725 125,-707 99,-707"/>
<polygon fill="none" stroke="black" points="99,-707 99,-725 125,-725 125,-707 99,-707"/>
<text text-anchor="start" x="114" y="-713.2" font-family="Helvetica,sans-Serif" font-size="11.00"> &#160;</text>
<polygon fill="#ffffff" stroke="transparent" points="125,-707 125,-725 164,-725 164,-707 125,-707"/>
<polygon fill="none" stroke="black" points="125,-707 125,-725 164,-725 164,-707 125,-707"/>
<text text-anchor="start" x="141" y="-713.2" font-family="Helvetica,sans-Serif" font-size="11.00">9 &gt;</text>
</a>
</g>
</g>
<!-- roi_bluswater.bluswaterriool&#45;&gt;symbool -->
<g id="edge2" class="edge">
<title>roi_bluswater.bluswaterriool:w&#45;&gt;symbool:e</title>
<path fill="none" stroke="black" d="M262.14,-612.83C207.35,-628.13 233.45,-734 165,-734"/>
<polygon fill="black" stroke="black" points="268.56,-612.01 276.96,-614.57 272.53,-611.51 276.5,-611 276.5,-611 276.5,-611 272.53,-611.51 276.04,-607.43 268.56,-612.01 268.56,-612.01"/>
<ellipse fill="none" stroke="black" cx="265.39" cy="-612.42" rx="3.2" ry="3.2"/>
</g>
<!-- roi_bluswater.brandkraan -->
<g id="node4" class="node">
<title>roi_bluswater.brandkraan</title>
<g id="a_node4"><a xlink:href="../../../roi_bluswater/tables/brandkraan.html" xlink:title="roi_bluswater.brandkraan" target="_top">
<polygon fill="#ffffff" stroke="transparent" points="286.5,-441 286.5,-543 494.5,-543 494.5,-441 286.5,-441"/>
<polygon fill="#f5f5f5" stroke="transparent" points="286.5,-521 286.5,-543 494.5,-543 494.5,-521 286.5,-521"/>
<polygon fill="none" stroke="black" points="286.5,-521 286.5,-543 494.5,-543 494.5,-521 286.5,-521"/>
<text text-anchor="start" x="291.5" y="-530.2" font-family="Helvetica,sans-Serif" font-weight="bold" font-size="11.00">roi_bluswater.brandkraan</text>
<text text-anchor="start" x="452.5" y="-529.2" font-family="Helvetica,sans-Serif" font-size="11.00">[table]</text>
<polygon fill="none" stroke="black" points="286.5,-499 286.5,-521 494.5,-521 494.5,-499 286.5,-499"/>
<image xlink:href="../../images/foreignKeys.png" width="11px" height="12px" preserveAspectRatio="xMinYMin meet" x="291.5" y="-516"/>
<text text-anchor="start" x="308.5" y="-507.2" font-family="Helvetica,sans-Serif" font-size="11.00">fase_id</text>
<polygon fill="none" stroke="black" points="286.5,-477 286.5,-499 494.5,-499 494.5,-477 286.5,-477"/>
<image xlink:href="../../images/foreignKeys.png" width="11px" height="12px" preserveAspectRatio="xMinYMin meet" x="291.5" y="-494"/>
<text text-anchor="start" x="308.5" y="-485.2" font-family="Helvetica,sans-Serif" font-size="11.00">symbool_id</text>
<polygon fill="none" stroke="black" points="286.5,-459 286.5,-477 494.5,-477 494.5,-459 286.5,-459"/>
<text text-anchor="start" x="289.5" y="-465.2" font-family="Helvetica,sans-Serif" font-size="11.00">...</text>
<polygon fill="#ffffff" stroke="transparent" points="286.5,-441 286.5,-459 389.5,-459 389.5,-441 286.5,-441"/>
<polygon fill="none" stroke="black" points="286.5,-441 286.5,-459 389.5,-459 389.5,-441 286.5,-441"/>
<text text-anchor="start" x="289.5" y="-447.2" font-family="Helvetica,sans-Serif" font-size="11.00">&lt; 2</text>
<polygon fill="#ffffff" stroke="transparent" points="389.5,-441 389.5,-459 441.5,-459 441.5,-441 389.5,-441"/>
<polygon fill="none" stroke="black" points="389.5,-441 389.5,-459 441.5,-459 441.5,-441 389.5,-441"/>
<text text-anchor="start" x="430.5" y="-447.2" font-family="Helvetica,sans-Serif" font-size="11.00"> &#160;</text>
<polygon fill="#ffffff" stroke="transparent" points="441.5,-441 441.5,-459 494.5,-459 494.5,-441 441.5,-441"/>
<polygon fill="none" stroke="black" points="441.5,-441 441.5,-459 494.5,-459 494.5,-441 441.5,-441"/>
<text text-anchor="start" x="483.5" y="-447.2" font-family="Helvetica,sans-Serif" font-size="11.00"> &#160;</text>
</a>
</g>
</g>
<!-- roi_bluswater.brandkraan&#45;&gt;fase -->
<g id="edge3" class="edge">
<title>roi_bluswater.brandkraan:w&#45;&gt;fase:e</title>
<path fill="none" stroke="black" d="M270.9,-510C250.69,-510 240.83,-510 215,-510"/>
<polygon fill="black" stroke="black" points="277.5,-510 285.5,-513.6 281.5,-510 285.5,-510 285.5,-510 285.5,-510 281.5,-510 285.5,-506.4 277.5,-510 277.5,-510"/>
<ellipse fill="none" stroke="black" cx="274.3" cy="-510" rx="3.2" ry="3.2"/>
</g>
<!-- roi_bluswater.brandkraan&#45;&gt;symbool -->
<g id="edge4" class="edge">
<title>roi_bluswater.brandkraan:w&#45;&gt;symbool:e</title>
<path fill="none" stroke="black" d="M271.12,-489.32C173.87,-508.69 281.51,-734 165,-734"/>
<polygon fill="black" stroke="black" points="277.53,-488.73 285.83,-491.58 281.52,-488.37 285.5,-488 285.5,-488 285.5,-488 281.52,-488.37 285.17,-484.42 277.53,-488.73 277.53,-488.73"/>
<ellipse fill="none" stroke="black" cx="274.35" cy="-489.03" rx="3.2" ry="3.2"/>
</g>
<!-- roi_bluswater.brandkraan_prive -->
<g id="node5" class="node">
<title>roi_bluswater.brandkraan_prive</title>
<g id="a_node5"><a xlink:href="../../../roi_bluswater/tables/brandkraan_prive.html" xlink:title="roi_bluswater.brandkraan_prive" target="_top">
<polygon fill="#ffffff" stroke="transparent" points="268,-933 268,-1035 513,-1035 513,-933 268,-933"/>
<polygon fill="#f5f5f5" stroke="transparent" points="268.5,-1013 268.5,-1035 513.5,-1035 513.5,-1013 268.5,-1013"/>
<polygon fill="none" stroke="black" points="268.5,-1013 268.5,-1035 513.5,-1035 513.5,-1013 268.5,-1013"/>
<text text-anchor="start" x="273.5" y="-1022.2" font-family="Helvetica,sans-Serif" font-weight="bold" font-size="11.00">roi_bluswater.brandkraan_prive</text>
<text text-anchor="start" x="471.5" y="-1021.2" font-family="Helvetica,sans-Serif" font-size="11.00">[table]</text>
<polygon fill="none" stroke="black" points="268.5,-991 268.5,-1013 513.5,-1013 513.5,-991 268.5,-991"/>
<image xlink:href="../../images/foreignKeys.png" width="11px" height="12px" preserveAspectRatio="xMinYMin meet" x="273.5" y="-1008"/>
<text text-anchor="start" x="308.5" y="-999.2" font-family="Helvetica,sans-Serif" font-size="11.00">fase_id</text>
<polygon fill="none" stroke="black" points="268.5,-969 268.5,-991 513.5,-991 513.5,-969 268.5,-969"/>
<image xlink:href="../../images/foreignKeys.png" width="11px" height="12px" preserveAspectRatio="xMinYMin meet" x="273.5" y="-986"/>
<text text-anchor="start" x="308.5" y="-977.2" font-family="Helvetica,sans-Serif" font-size="11.00">symbool_id</text>
<polygon fill="none" stroke="black" points="268.5,-951 268.5,-969 513.5,-969 513.5,-951 268.5,-951"/>
<text text-anchor="start" x="271.5" y="-957.2" font-family="Helvetica,sans-Serif" font-size="11.00">...</text>
<polygon fill="#ffffff" stroke="transparent" points="268.5,-933 268.5,-951 389.5,-951 389.5,-933 268.5,-933"/>
<polygon fill="none" stroke="black" points="268.5,-933 268.5,-951 389.5,-951 389.5,-933 268.5,-933"/>
<text text-anchor="start" x="271.5" y="-939.2" font-family="Helvetica,sans-Serif" font-size="11.00">&lt; 2</text>
<polygon fill="#ffffff" stroke="transparent" points="389.5,-933 389.5,-951 451.5,-951 451.5,-933 389.5,-933"/>
<polygon fill="none" stroke="black" points="389.5,-933 389.5,-951 451.5,-951 451.5,-933 389.5,-933"/>
<text text-anchor="start" x="440.5" y="-939.2" font-family="Helvetica,sans-Serif" font-size="11.00"> &#160;</text>
<polygon fill="#ffffff" stroke="transparent" points="451.5,-933 451.5,-951 513.5,-951 513.5,-933 451.5,-933"/>
<polygon fill="none" stroke="black" points="451.5,-933 451.5,-951 513.5,-951 513.5,-933 451.5,-933"/>
<text text-anchor="start" x="502.5" y="-939.2" font-family="Helvetica,sans-Serif" font-size="11.00"> &#160;</text>
</a>
</g>
</g>
<!-- roi_bluswater.brandkraan_prive&#45;&gt;fase -->
<g id="edge5" class="edge">
<title>roi_bluswater.brandkraan_prive:w&#45;&gt;fase:e</title>
<path fill="none" stroke="black" d="M253.31,-998.6C173.23,-955.13 319.59,-510 215,-510"/>
<polygon fill="black" stroke="black" points="259.72,-1000.13 266.66,-1005.5 263.61,-1001.07 267.5,-1002 267.5,-1002 267.5,-1002 263.61,-1001.07 268.34,-998.5 259.72,-1000.13 259.72,-1000.13"/>
<ellipse fill="none" stroke="black" cx="256.61" cy="-999.39" rx="3.2" ry="3.2"/>
</g>
<!-- roi_bluswater.brandkraan_prive&#45;&gt;symbool -->
<g id="edge6" class="edge">
<title>roi_bluswater.brandkraan_prive:w&#45;&gt;symbool:e</title>
<path fill="none" stroke="black" d="M253.02,-978.56C160.62,-958.39 278.12,-734 165,-734"/>
<polygon fill="black" stroke="black" points="259.54,-979.21 267.14,-983.58 263.52,-979.6 267.5,-980 267.5,-980 267.5,-980 263.52,-979.6 267.86,-976.42 259.54,-979.21 259.54,-979.21"/>
<ellipse fill="none" stroke="black" cx="256.36" cy="-978.89" rx="3.2" ry="3.2"/>
</g>
<!-- roi_bluswater.brandput -->
<g id="node6" class="node">
<title>roi_bluswater.brandput</title>
<g id="a_node6"><a xlink:href="../../../roi_bluswater/tables/brandput.html" xlink:title="roi_bluswater.brandput" target="_top">
<polygon fill="#ffffff" stroke="transparent" points="294,-810 294,-912 487,-912 487,-810 294,-810"/>
<polygon fill="#f5f5f5" stroke="transparent" points="294.5,-890 294.5,-912 487.5,-912 487.5,-890 294.5,-890"/>
<polygon fill="none" stroke="black" points="294.5,-890 294.5,-912 487.5,-912 487.5,-890 294.5,-890"/>
<text text-anchor="start" x="299.5" y="-899.2" font-family="Helvetica,sans-Serif" font-weight="bold" font-size="11.00">roi_bluswater.brandput</text>
<text text-anchor="start" x="445.5" y="-898.2" font-family="Helvetica,sans-Serif" font-size="11.00">[table]</text>
<polygon fill="none" stroke="black" points="294.5,-868 294.5,-890 487.5,-890 487.5,-868 294.5,-868"/>
<image xlink:href="../../images/foreignKeys.png" width="11px" height="12px" preserveAspectRatio="xMinYMin meet" x="299.5" y="-885"/>
<text text-anchor="start" x="316.5" y="-876.2" font-family="Helvetica,sans-Serif" font-size="11.00">fase_id</text>
<polygon fill="none" stroke="black" points="294.5,-846 294.5,-868 487.5,-868 487.5,-846 294.5,-846"/>
<image xlink:href="../../images/foreignKeys.png" width="11px" height="12px" preserveAspectRatio="xMinYMin meet" x="299.5" y="-863"/>
<text text-anchor="start" x="316.5" y="-854.2" font-family="Helvetica,sans-Serif" font-size="11.00">symbool_id</text>
<polygon fill="none" stroke="black" points="294.5,-828 294.5,-846 487.5,-846 487.5,-828 294.5,-828"/>
<text text-anchor="start" x="297.5" y="-834.2" font-family="Helvetica,sans-Serif" font-size="11.00">...</text>
<polygon fill="#ffffff" stroke="transparent" points="294.5,-810 294.5,-828 389.5,-828 389.5,-810 294.5,-810"/>
<polygon fill="none" stroke="black" points="294.5,-810 294.5,-828 389.5,-828 389.5,-810 294.5,-810"/>
<text text-anchor="start" x="297.5" y="-816.2" font-family="Helvetica,sans-Serif" font-size="11.00">&lt; 2</text>
<polygon fill="#ffffff" stroke="transparent" points="389.5,-810 389.5,-828 438.5,-828 438.5,-810 389.5,-810"/>
<polygon fill="none" stroke="black" points="389.5,-810 389.5,-828 438.5,-828 438.5,-810 389.5,-810"/>
<text text-anchor="start" x="427.5" y="-816.2" font-family="Helvetica,sans-Serif" font-size="11.00"> &#160;</text>
<polygon fill="#ffffff" stroke="transparent" points="438.5,-810 438.5,-828 487.5,-828 487.5,-810 438.5,-810"/>
<polygon fill="none" stroke="black" points="438.5,-810 438.5,-828 487.5,-828 487.5,-810 438.5,-810"/>
<text text-anchor="start" x="476.5" y="-816.2" font-family="Helvetica,sans-Serif" font-size="11.00"> &#160;</text>
</a>
</g>
</g>
<!-- roi_bluswater.brandput&#45;&gt;fase -->
<g id="edge7" class="edge">
<title>roi_bluswater.brandput:w&#45;&gt;fase:e</title>
<path fill="none" stroke="black" d="M279.35,-874.6C220.44,-832.97 293.43,-510 215,-510"/>
<polygon fill="black" stroke="black" points="285.86,-876.62 292.43,-882.44 289.68,-877.81 293.5,-879 293.5,-879 293.5,-879 289.68,-877.81 294.57,-875.56 285.86,-876.62 285.86,-876.62"/>
<ellipse fill="none" stroke="black" cx="282.81" cy="-875.67" rx="3.2" ry="3.2"/>
</g>
<!-- roi_bluswater.brandput&#45;&gt;symbool -->
<g id="edge8" class="edge">
<title>roi_bluswater.brandput:w&#45;&gt;symbool:e</title>
<path fill="none" stroke="black" d="M279.12,-855.44C217.9,-841.21 238.81,-734 165,-734"/>
<polygon fill="black" stroke="black" points="285.55,-856.14 293.11,-860.58 289.52,-856.57 293.5,-857 293.5,-857 293.5,-857 289.52,-856.57 293.89,-853.42 285.55,-856.14 285.55,-856.14"/>
<ellipse fill="none" stroke="black" cx="282.36" cy="-855.8" rx="3.2" ry="3.2"/>
</g>
<!-- roi_bluswater.openwater -->
<g id="node7" class="node">
<title>roi_bluswater.openwater</title>
<g id="a_node7"><a xlink:href="../../../roi_bluswater/tables/openwater.html" xlink:title="roi_bluswater.openwater" target="_top">
<polygon fill="#ffffff" stroke="transparent" points="265,-687 265,-789 516,-789 516,-687 265,-687"/>
<polygon fill="#f5f5f5" stroke="transparent" points="265.5,-767 265.5,-789 516.5,-789 516.5,-767 265.5,-767"/>
<polygon fill="none" stroke="black" points="265.5,-767 265.5,-789 516.5,-789 516.5,-767 265.5,-767"/>
<text text-anchor="start" x="270.5" y="-776.2" font-family="Helvetica,sans-Serif" font-weight="bold" font-size="11.00">roi_bluswater.openwater</text>
<text text-anchor="start" x="474.5" y="-775.2" font-family="Helvetica,sans-Serif" font-size="11.00">[table]</text>
<polygon fill="none" stroke="black" points="265.5,-745 265.5,-767 516.5,-767 516.5,-745 265.5,-745"/>
<image xlink:href="../../images/foreignKeys.png" width="11px" height="12px" preserveAspectRatio="xMinYMin meet" x="270.5" y="-762"/>
<text text-anchor="start" x="285.5" y="-753.2" font-family="Helvetica,sans-Serif" font-size="11.00">fase_id</text>
<polygon fill="none" stroke="black" points="265.5,-723 265.5,-745 516.5,-745 516.5,-723 265.5,-723"/>
<image xlink:href="../../images/foreignKeys.png" width="11px" height="12px" preserveAspectRatio="xMinYMin meet" x="270.5" y="-740"/>
<text text-anchor="start" x="285.5" y="-731.2" font-family="Helvetica,sans-Serif" font-size="11.00">symbool_id</text>
<polygon fill="none" stroke="black" points="265.5,-705 265.5,-723 516.5,-723 516.5,-705 265.5,-705"/>
<text text-anchor="start" x="268.5" y="-711.2" font-family="Helvetica,sans-Serif" font-size="11.00">...</text>
<polygon fill="#ffffff" stroke="transparent" points="265.5,-687 265.5,-705 389.5,-705 389.5,-687 265.5,-687"/>
<polygon fill="none" stroke="black" points="265.5,-687 265.5,-705 389.5,-705 389.5,-687 265.5,-687"/>
<text text-anchor="start" x="268.5" y="-693.2" font-family="Helvetica,sans-Serif" font-size="11.00">&lt; 2</text>
<polygon fill="#ffffff" stroke="transparent" points="389.5,-687 389.5,-705 452.5,-705 452.5,-687 389.5,-687"/>
<polygon fill="none" stroke="black" points="389.5,-687 389.5,-705 452.5,-705 452.5,-687 389.5,-687"/>
<text text-anchor="start" x="441.5" y="-693.2" font-family="Helvetica,sans-Serif" font-size="11.00"> &#160;</text>
<polygon fill="#ffffff" stroke="transparent" points="452.5,-687 452.5,-705 516.5,-705 516.5,-687 452.5,-687"/>
<polygon fill="none" stroke="black" points="452.5,-687 452.5,-705 516.5,-705 516.5,-687 452.5,-687"/>
<text text-anchor="start" x="505.5" y="-693.2" font-family="Helvetica,sans-Serif" font-size="11.00"> &#160;</text>
</a>
</g>
</g>
<!-- roi_bluswater.openwater&#45;&gt;fase -->
<g id="edge9" class="edge">
<title>roi_bluswater.openwater:w&#45;&gt;fase:e</title>
<path fill="none" stroke="black" d="M250.14,-754.3C169.24,-732.56 321.08,-510 215,-510"/>
<polygon fill="black" stroke="black" points="256.56,-755.06 264.08,-759.57 260.53,-755.53 264.5,-756 264.5,-756 264.5,-756 260.53,-755.53 264.92,-752.43 256.56,-755.06 256.56,-755.06"/>
<ellipse fill="none" stroke="black" cx="253.38" cy="-754.68" rx="3.2" ry="3.2"/>
</g>
<!-- roi_bluswater.openwater&#45;&gt;symbool -->
<g id="edge10" class="edge">
<title>roi_bluswater.openwater:w&#45;&gt;symbool:e</title>
<path fill="none" stroke="black" d="M249.78,-734C217.11,-734 203.87,-734 165,-734"/>
<polygon fill="black" stroke="black" points="256.5,-734 264.5,-737.6 260.5,-734 264.5,-734 264.5,-734 264.5,-734 260.5,-734 264.5,-730.4 256.5,-734 256.5,-734"/>
<ellipse fill="none" stroke="black" cx="253.3" cy="-734" rx="3.2" ry="3.2"/>
</g>
<!-- roi_evenement.object -->
<g id="node8" class="node">
<title>roi_evenement.object</title>
<g id="a_node8"><a xlink:href="../../../roi_evenement/tables/object.html" xlink:title="roi_evenement.object" target="_top">
<polygon fill="#ffffff" stroke="transparent" points="298,-37 298,-117 483,-117 483,-37 298,-37"/>
<polygon fill="#f5f5f5" stroke="transparent" points="298.5,-95 298.5,-117 483.5,-117 483.5,-95 298.5,-95"/>
<polygon fill="none" stroke="black" points="298.5,-95 298.5,-117 483.5,-117 483.5,-95 298.5,-95"/>
<text text-anchor="start" x="303.5" y="-104.2" font-family="Helvetica,sans-Serif" font-weight="bold" font-size="11.00">roi_evenement.object</text>
<text text-anchor="start" x="441.5" y="-103.2" font-family="Helvetica,sans-Serif" font-size="11.00">[table]</text>
<polygon fill="none" stroke="black" points="298.5,-73 298.5,-95 483.5,-95 483.5,-73 298.5,-73"/>
<image xlink:href="../../images/foreignKeys.png" width="11px" height="12px" preserveAspectRatio="xMinYMin meet" x="303.5" y="-90"/>
<text text-anchor="start" x="345.5" y="-81.2" font-family="Helvetica,sans-Serif" font-size="11.00">fase_id</text>
<polygon fill="none" stroke="black" points="298.5,-55 298.5,-73 483.5,-73 483.5,-55 298.5,-55"/>
<text text-anchor="start" x="301.5" y="-61.2" font-family="Helvetica,sans-Serif" font-size="11.00">...</text>
<polygon fill="#ffffff" stroke="transparent" points="298.5,-37 298.5,-55 389.5,-55 389.5,-37 298.5,-37"/>
<polygon fill="none" stroke="black" points="298.5,-37 298.5,-55 389.5,-55 389.5,-37 298.5,-37"/>
<text text-anchor="start" x="301.5" y="-43.2" font-family="Helvetica,sans-Serif" font-size="11.00">&lt; 1</text>
<polygon fill="#ffffff" stroke="transparent" points="389.5,-37 389.5,-55 436.5,-55 436.5,-37 389.5,-37"/>
<polygon fill="none" stroke="black" points="389.5,-37 389.5,-55 436.5,-55 436.5,-37 389.5,-37"/>
<text text-anchor="start" x="425.5" y="-43.2" font-family="Helvetica,sans-Serif" font-size="11.00"> &#160;</text>
<polygon fill="#ffffff" stroke="transparent" points="436.5,-37 436.5,-55 483.5,-55 483.5,-37 436.5,-37"/>
<polygon fill="none" stroke="black" points="436.5,-37 436.5,-55 483.5,-55 483.5,-37 436.5,-37"/>
<text text-anchor="start" x="472.5" y="-43.2" font-family="Helvetica,sans-Serif" font-size="11.00"> &#160;</text>
</a>
</g>
</g>
<!-- roi_evenement.object&#45;&gt;fase -->
<g id="edge11" class="edge">
<title>roi_evenement.object:w&#45;&gt;fase:e</title>
<path fill="none" stroke="black" d="M283.25,-86.6C269.46,-92.61 265.59,-108.38 257,-127 221.12,-204.74 300.62,-510 215,-510"/>
<polygon fill="black" stroke="black" points="289.63,-85.44 298.15,-87.54 293.56,-84.72 297.5,-84 297.5,-84 297.5,-84 293.56,-84.72 296.85,-80.46 289.63,-85.44 289.63,-85.44"/>
<ellipse fill="none" stroke="black" cx="286.48" cy="-86.01" rx="3.2" ry="3.2"/>
</g>
<!-- roi_gebouw.object -->
<g id="node9" class="node">
<title>roi_gebouw.object</title>
<g id="a_node9"><a xlink:href="../../../roi_gebouw/tables/object.html" xlink:title="roi_gebouw.object" target="_top">
<polygon fill="#ffffff" stroke="transparent" points="309,-340 309,-420 472,-420 472,-340 309,-340"/>
<polygon fill="#f5f5f5" stroke="transparent" points="309.5,-398 309.5,-420 472.5,-420 472.5,-398 309.5,-398"/>
<polygon fill="none" stroke="black" points="309.5,-398 309.5,-420 472.5,-420 472.5,-398 309.5,-398"/>
<text text-anchor="start" x="314.5" y="-407.2" font-family="Helvetica,sans-Serif" font-weight="bold" font-size="11.00">roi_gebouw.object</text>
<text text-anchor="start" x="430.5" y="-406.2" font-family="Helvetica,sans-Serif" font-size="11.00">[table]</text>
<polygon fill="none" stroke="black" points="309.5,-376 309.5,-398 472.5,-398 472.5,-376 309.5,-376"/>
<image xlink:href="../../images/foreignKeys.png" width="11px" height="12px" preserveAspectRatio="xMinYMin meet" x="314.5" y="-393"/>
<text text-anchor="start" x="346.5" y="-384.2" font-family="Helvetica,sans-Serif" font-size="11.00">fase_id</text>
<polygon fill="none" stroke="black" points="309.5,-358 309.5,-376 472.5,-376 472.5,-358 309.5,-358"/>
<text text-anchor="start" x="312.5" y="-364.2" font-family="Helvetica,sans-Serif" font-size="11.00">...</text>
<polygon fill="#ffffff" stroke="transparent" points="309.5,-340 309.5,-358 389.5,-358 389.5,-340 309.5,-340"/>
<polygon fill="none" stroke="black" points="309.5,-340 309.5,-358 389.5,-358 389.5,-340 309.5,-340"/>
<text text-anchor="start" x="312.5" y="-346.2" font-family="Helvetica,sans-Serif" font-size="11.00">&lt; 1</text>
<polygon fill="#ffffff" stroke="transparent" points="389.5,-340 389.5,-358 430.5,-358 430.5,-340 389.5,-340"/>
<polygon fill="none" stroke="black" points="389.5,-340 389.5,-358 430.5,-358 430.5,-340 389.5,-340"/>
<text text-anchor="start" x="419.5" y="-346.2" font-family="Helvetica,sans-Serif" font-size="11.00"> &#160;</text>
<polygon fill="#ffffff" stroke="transparent" points="430.5,-340 430.5,-358 472.5,-358 472.5,-340 430.5,-340"/>
<polygon fill="none" stroke="black" points="430.5,-340 430.5,-358 472.5,-358 472.5,-340 430.5,-340"/>
<text text-anchor="start" x="461.5" y="-346.2" font-family="Helvetica,sans-Serif" font-size="11.00"> &#160;</text>
</a>
</g>
</g>
<!-- roi_gebouw.object&#45;&gt;fase -->
<g id="edge12" class="edge">
<title>roi_gebouw.object:w&#45;&gt;fase:e</title>
<path fill="none" stroke="black" d="M294.18,-389.05C276.86,-394.8 272.31,-411.92 257,-431 232.11,-462.01 254.76,-510 215,-510"/>
<polygon fill="black" stroke="black" points="300.58,-388.13 309.01,-390.56 304.54,-387.57 308.5,-387 308.5,-387 308.5,-387 304.54,-387.57 307.99,-383.44 300.58,-388.13 300.58,-388.13"/>
<ellipse fill="none" stroke="black" cx="297.41" cy="-388.59" rx="3.2" ry="3.2"/>
</g>
<!-- roi_natuurbrand.object -->
<g id="node10" class="node">
<title>roi_natuurbrand.object</title>
<g id="a_node10"><a xlink:href="../../../roi_natuurbrand/tables/object.html" xlink:title="roi_natuurbrand.object" target="_top">
<polygon fill="#ffffff" stroke="transparent" points="294.5,-239 294.5,-319 486.5,-319 486.5,-239 294.5,-239"/>
<polygon fill="#f5f5f5" stroke="transparent" points="294.5,-297 294.5,-319 486.5,-319 486.5,-297 294.5,-297"/>
<polygon fill="none" stroke="black" points="294.5,-297 294.5,-319 486.5,-319 486.5,-297 294.5,-297"/>
<text text-anchor="start" x="299.5" y="-306.2" font-family="Helvetica,sans-Serif" font-weight="bold" font-size="11.00">roi_natuurbrand.object</text>
<text text-anchor="start" x="444.5" y="-305.2" font-family="Helvetica,sans-Serif" font-size="11.00">[table]</text>
<polygon fill="none" stroke="black" points="294.5,-275 294.5,-297 486.5,-297 486.5,-275 294.5,-275"/>
<image xlink:href="../../images/foreignKeys.png" width="11px" height="12px" preserveAspectRatio="xMinYMin meet" x="299.5" y="-292"/>
<text text-anchor="start" x="346.5" y="-283.2" font-family="Helvetica,sans-Serif" font-size="11.00">fase_id</text>
<polygon fill="none" stroke="black" points="294.5,-257 294.5,-275 486.5,-275 486.5,-257 294.5,-257"/>
<text text-anchor="start" x="297.5" y="-263.2" font-family="Helvetica,sans-Serif" font-size="11.00">...</text>
<polygon fill="#ffffff" stroke="transparent" points="294.5,-239 294.5,-257 389.5,-257 389.5,-239 294.5,-239"/>
<polygon fill="none" stroke="black" points="294.5,-239 294.5,-257 389.5,-257 389.5,-239 294.5,-239"/>
<text text-anchor="start" x="297.5" y="-245.2" font-family="Helvetica,sans-Serif" font-size="11.00">&lt; 1</text>
<polygon fill="#ffffff" stroke="transparent" points="389.5,-239 389.5,-257 437.5,-257 437.5,-239 389.5,-239"/>
<polygon fill="none" stroke="black" points="389.5,-239 389.5,-257 437.5,-257 437.5,-239 389.5,-239"/>
<text text-anchor="start" x="426.5" y="-245.2" font-family="Helvetica,sans-Serif" font-size="11.00"> &#160;</text>
<polygon fill="#ffffff" stroke="transparent" points="437.5,-239 437.5,-257 486.5,-257 486.5,-239 437.5,-239"/>
<polygon fill="none" stroke="black" points="437.5,-239 437.5,-257 486.5,-257 486.5,-239 437.5,-239"/>
<text text-anchor="start" x="475.5" y="-245.2" font-family="Helvetica,sans-Serif" font-size="11.00"> &#160;</text>
</a>
</g>
</g>
<!-- roi_natuurbrand.object&#45;&gt;fase -->
<g id="edge13" class="edge">
<title>roi_natuurbrand.object:w&#45;&gt;fase:e</title>
<path fill="none" stroke="black" d="M279.38,-289.25C267.56,-296.04 265.65,-312.58 257,-330 220.47,-403.58 297.15,-510 215,-510"/>
<polygon fill="black" stroke="black" points="285.7,-287.79 294.31,-289.51 289.6,-286.9 293.5,-286 293.5,-286 293.5,-286 289.6,-286.9 292.69,-282.49 285.7,-287.79 285.7,-287.79"/>
<ellipse fill="none" stroke="black" cx="282.58" cy="-288.51" rx="3.2" ry="3.2"/>
</g>
<!-- roi_waterongeval.object -->
<g id="node11" class="node">
<title>roi_waterongeval.object</title>
<g id="a_node11"><a xlink:href="../../../roi_waterongeval/tables/object.html" xlink:title="roi_waterongeval.object" target="_top">
<polygon fill="#ffffff" stroke="transparent" points="290,-138 290,-218 491,-218 491,-138 290,-138"/>
<polygon fill="#f5f5f5" stroke="transparent" points="290.5,-196 290.5,-218 491.5,-218 491.5,-196 290.5,-196"/>
<polygon fill="none" stroke="black" points="290.5,-196 290.5,-218 491.5,-218 491.5,-196 290.5,-196"/>
<text text-anchor="start" x="295.5" y="-205.2" font-family="Helvetica,sans-Serif" font-weight="bold" font-size="11.00">roi_waterongeval.object</text>
<text text-anchor="start" x="449.5" y="-204.2" font-family="Helvetica,sans-Serif" font-size="11.00">[table]</text>
<polygon fill="none" stroke="black" points="290.5,-174 290.5,-196 491.5,-196 491.5,-174 290.5,-174"/>
<image xlink:href="../../images/foreignKeys.png" width="11px" height="12px" preserveAspectRatio="xMinYMin meet" x="295.5" y="-191"/>
<text text-anchor="start" x="346.5" y="-182.2" font-family="Helvetica,sans-Serif" font-size="11.00">fase_id</text>
<polygon fill="none" stroke="black" points="290.5,-156 290.5,-174 491.5,-174 491.5,-156 290.5,-156"/>
<text text-anchor="start" x="293.5" y="-162.2" font-family="Helvetica,sans-Serif" font-size="11.00">...</text>
<polygon fill="#ffffff" stroke="transparent" points="290.5,-138 290.5,-156 389.5,-156 389.5,-138 290.5,-138"/>
<polygon fill="none" stroke="black" points="290.5,-138 290.5,-156 389.5,-156 389.5,-138 290.5,-138"/>
<text text-anchor="start" x="293.5" y="-144.2" font-family="Helvetica,sans-Serif" font-size="11.00">&lt; 1</text>
<polygon fill="#ffffff" stroke="transparent" points="389.5,-138 389.5,-156 440.5,-156 440.5,-138 389.5,-138"/>
<polygon fill="none" stroke="black" points="389.5,-138 389.5,-156 440.5,-156 440.5,-138 389.5,-138"/>
<text text-anchor="start" x="429.5" y="-144.2" font-family="Helvetica,sans-Serif" font-size="11.00"> &#160;</text>
<polygon fill="#ffffff" stroke="transparent" points="440.5,-138 440.5,-156 491.5,-156 491.5,-138 440.5,-138"/>
<polygon fill="none" stroke="black" points="440.5,-138 440.5,-156 491.5,-156 491.5,-138 440.5,-138"/>
<text text-anchor="start" x="480.5" y="-144.2" font-family="Helvetica,sans-Serif" font-size="11.00"> &#160;</text>
</a>
</g>
</g>
<!-- roi_waterongeval.object&#45;&gt;fase -->
<g id="edge14" class="edge">
<title>roi_waterongeval.object:w&#45;&gt;fase:e</title>
<path fill="none" stroke="black" d="M275.47,-188.72C265.09,-195.83 263.97,-212.15 257,-229 232.86,-287.34 278.14,-510 215,-510"/>
<polygon fill="black" stroke="black" points="281.77,-187.05 290.42,-188.48 285.63,-186.02 289.5,-185 289.5,-185 289.5,-185 285.63,-186.02 288.58,-181.52 281.77,-187.05 281.77,-187.05"/>
<ellipse fill="none" stroke="black" cx="278.67" cy="-187.87" rx="3.2" ry="3.2"/>
</g>
</g>
</svg>
