<?xml version="1.0" encoding="UTF-8" standalone="no"?>
<!DOCTYPE svg PUBLIC "-//W3C//DTD SVG 1.1//EN"
 "http://www.w3.org/Graphics/SVG/1.1/DTD/svg11.dtd">
<!-- Generated by graphviz version 2.40.1 (20161225.0304)
 -->
<!-- Title: oneDegreeRelationshipsDiagram Pages: 1 -->
<svg width="503pt" height="1075pt"
 viewBox="0.00 0.00 503.00 1075.20" xmlns="http://www.w3.org/2000/svg" xmlns:xlink="http://www.w3.org/1999/xlink">
<g id="graph0" class="graph" transform="scale(1 1) rotate(0) translate(4 1071.2)">
<title>oneDegreeRelationshipsDiagram</title>
<polygon fill="#ffffff" stroke="transparent" points="-4,4 -4,-1071.2 499,-1071.2 499,4 -4,4"/>
<text text-anchor="middle" x="72.4936" y="-7.3" font-family="Helvetica,sans-Serif" font-size="11.00" fill="#000000">Generated by SchemaSpy</text>
<!-- roi_bluswater.bluswaterriool -->
<g id="node1" class="node">
<title>roi_bluswater.bluswaterriool</title>
<g id="a_node1"><a xlink:href="../../../roi_bluswater/tables/bluswaterriool.html" xlink:title="roi_bluswater.bluswaterriool" target="_top">
<polygon fill="#ffffff" stroke="transparent" points="265.5,-958.2 265.5,-1063.2 467.5,-1063.2 467.5,-958.2 265.5,-958.2"/>
<polygon fill="#f5f5f5" stroke="transparent" points="265.5,-1039.7 265.5,-1062.7 467.5,-1062.7 467.5,-1039.7 265.5,-1039.7"/>
<polygon fill="none" stroke="#000000" points="265.5,-1039.7 265.5,-1062.7 467.5,-1062.7 467.5,-1039.7 265.5,-1039.7"/>
<text text-anchor="start" x="270.5" y="-1048.3" font-family="Helvetica,sans-Serif" font-weight="bold" font-size="11.00" fill="#000000">roi_bluswater.bluswaterriool</text>
<text text-anchor="start" x="433.0219" y="-1047.8" font-family="Helvetica,sans-Serif" font-size="11.00" fill="#000000">[table]</text>
<polygon fill="none" stroke="#000000" points="265.5,-1017.7 265.5,-1039.7 467.5,-1039.7 467.5,-1017.7 265.5,-1017.7"/>
<image xlink:href="../../images/foreignKeys.png" width="11px" height="12px" preserveAspectRatio="xMinYMin meet" x="270.5" y="-1034.7"/>
<text text-anchor="start" x="304.5" y="-1024.8" font-family="Helvetica,sans-Serif" font-size="11.00" fill="#000000">fase_id</text>
<polygon fill="none" stroke="#000000" points="265.5,-995.7 265.5,-1017.7 467.5,-1017.7 467.5,-995.7 265.5,-995.7"/>
<image xlink:href="../../images/foreignKeys.png" width="11px" height="12px" preserveAspectRatio="xMinYMin meet" x="270.5" y="-1012.7"/>
<text text-anchor="start" x="304.5" y="-1002.8" font-family="Helvetica,sans-Serif" font-size="11.00" fill="#000000">symbool_id</text>
<polygon fill="none" stroke="#000000" points="265.5,-976.7 265.5,-995.7 467.5,-995.7 467.5,-976.7 265.5,-976.7"/>
<text text-anchor="start" x="268.5" y="-982.8" font-family="Helvetica,sans-Serif" font-size="11.00" fill="#000000">...</text>
<polygon fill="#ffffff" stroke="transparent" points="265.5,-957.7 265.5,-976.7 364.5,-976.7 364.5,-957.7 265.5,-957.7"/>
<polygon fill="none" stroke="#000000" points="265.5,-957.7 265.5,-976.7 364.5,-976.7 364.5,-957.7 265.5,-957.7"/>
<text text-anchor="start" x="268.5" y="-963.8" font-family="Helvetica,sans-Serif" font-size="11.00" fill="#000000">&lt; 2</text>
<polygon fill="#ffffff" stroke="transparent" points="364.5,-957.7 364.5,-976.7 415.5,-976.7 415.5,-957.7 364.5,-957.7"/>
<polygon fill="none" stroke="#000000" points="364.5,-957.7 364.5,-976.7 415.5,-976.7 415.5,-957.7 364.5,-957.7"/>
<text text-anchor="start" x="406.3862" y="-963.8" font-family="Helvetica,sans-Serif" font-size="11.00" fill="#000000"> &#160;</text>
<polygon fill="#ffffff" stroke="transparent" points="415.5,-957.7 415.5,-976.7 467.5,-976.7 467.5,-957.7 415.5,-957.7"/>
<polygon fill="none" stroke="#000000" points="415.5,-957.7 415.5,-976.7 467.5,-976.7 467.5,-957.7 415.5,-957.7"/>
<text text-anchor="start" x="458.3862" y="-963.8" font-family="Helvetica,sans-Serif" font-size="11.00" fill="#000000"> &#160;</text>
</a>
</g>
</g>
<!-- fase -->
<g id="node2" class="node">
<title>fase</title>
<g id="a_node2"><a xlink:href="../../tables/fase.html" xlink:title="fase" target="_top">
<polygon fill="#ffffff" stroke="transparent" points="8,-448.7 8,-560.7 197,-560.7 197,-448.7 8,-448.7"/>
<polygon fill="#f5f5f5" stroke="transparent" points="10.5,-535.7 10.5,-558.7 195.5,-558.7 195.5,-535.7 10.5,-535.7"/>
<polygon fill="none" stroke="#000000" points="10.5,-535.7 10.5,-558.7 195.5,-558.7 195.5,-535.7 10.5,-535.7"/>
<text text-anchor="start" x="15.1067" y="-544.3" font-family="Helvetica,sans-Serif" font-weight="bold" font-size="11.00" fill="#000000">fase</text>
<text text-anchor="start" x="160.5437" y="-543.8" font-family="Helvetica,sans-Serif" font-size="11.00" fill="#000000">[table]</text>
<polygon fill="none" stroke="#000000" points="10.5,-513.7 10.5,-535.7 105.5,-535.7 105.5,-513.7 10.5,-513.7"/>
<image xlink:href="../../images/primaryKeys.png" width="11px" height="12px" preserveAspectRatio="xMinYMin meet" x="15.5" y="-530.7"/>
<text text-anchor="start" x="30.5" y="-520.8" font-family="Helvetica,sans-Serif" font-size="11.00" fill="#000000">id</text>
<polygon fill="none" stroke="#000000" points="105.5,-513.7 105.5,-535.7 195.5,-535.7 195.5,-513.7 105.5,-513.7"/>
<text text-anchor="start" x="108.5" y="-521.4" font-family="Helvetica,sans-Serif" font-size="11.00" fill="#000000">int2[5]</text>
<polygon fill="none" stroke="#000000" points="10.5,-491.7 10.5,-513.7 105.5,-513.7 105.5,-491.7 10.5,-491.7"/>
<text text-anchor="start" x="30.5" y="-498.8" font-family="Helvetica,sans-Serif" font-size="11.00" fill="#000000">naam</text>
<polygon fill="none" stroke="#000000" points="105.5,-491.7 105.5,-513.7 195.5,-513.7 195.5,-491.7 105.5,-491.7"/>
<text text-anchor="start" x="108.0042" y="-499.4" font-family="Helvetica,sans-Serif" font-size="11.00" fill="#000000">text[2147483647]</text>
<polygon fill="none" stroke="#000000" points="10.5,-469.7 10.5,-491.7 105.5,-491.7 105.5,-469.7 10.5,-469.7"/>
<text text-anchor="start" x="30.5" y="-476.8" font-family="Helvetica,sans-Serif" font-size="11.00" fill="#000000">omschrijving</text>
<polygon fill="none" stroke="#000000" points="105.5,-469.7 105.5,-491.7 195.5,-491.7 195.5,-469.7 105.5,-469.7"/>
<text text-anchor="start" x="108.0042" y="-477.4" font-family="Helvetica,sans-Serif" font-size="11.00" fill="#000000">text[2147483647]</text>
<polygon fill="#ffffff" stroke="transparent" points="10.5,-450.7 10.5,-469.7 62.5,-469.7 62.5,-450.7 10.5,-450.7"/>
<polygon fill="none" stroke="#000000" points="10.5,-450.7 10.5,-469.7 62.5,-469.7 62.5,-450.7 10.5,-450.7"/>
<text text-anchor="start" x="13.5" y="-456.8" font-family="Helvetica,sans-Serif" font-size="11.00" fill="#000000">&lt; 0</text>
<polygon fill="#ffffff" stroke="transparent" points="62.5,-450.7 62.5,-469.7 105.5,-469.7 105.5,-450.7 62.5,-450.7"/>
<polygon fill="none" stroke="#000000" points="62.5,-450.7 62.5,-469.7 105.5,-469.7 105.5,-450.7 62.5,-450.7"/>
<text text-anchor="start" x="96.3862" y="-456.8" font-family="Helvetica,sans-Serif" font-size="11.00" fill="#000000"> &#160;</text>
<polygon fill="#ffffff" stroke="transparent" points="105.5,-450.7 105.5,-469.7 195.5,-469.7 195.5,-450.7 105.5,-450.7"/>
<polygon fill="none" stroke="#000000" points="105.5,-450.7 105.5,-469.7 195.5,-469.7 195.5,-450.7 105.5,-450.7"/>
<text text-anchor="start" x="176.9053" y="-456.8" font-family="Helvetica,sans-Serif" font-size="11.00" fill="#000000">9 &gt;</text>
<polygon fill="none" stroke="#000000" stroke-width="2" points="9,-449.7 9,-559.7 196,-559.7 196,-449.7 9,-449.7"/>
</a>
</g>
</g>
<!-- roi_bluswater.bluswaterriool&#45;&gt;fase -->
<g id="edge1" class="edge">
<title>roi_bluswater.bluswaterriool:w&#45;&gt;fase:e</title>
<path fill="none" stroke="#000000" d="M251.2468,-1025.5336C232.7503,-1014.827 244.772,-978.9029 238,-947.7 227.9814,-901.538 242.7366,-524.7 195.5,-524.7"/>
<polygon fill="#000000" stroke="#000000" points="257.6904,-1026.965 264.7193,-1032.2143 261.5952,-1027.8325 265.5,-1028.7 265.5,-1028.7 265.5,-1028.7 261.5952,-1027.8325 266.2807,-1025.1857 257.6904,-1026.965 257.6904,-1026.965"/>
<ellipse fill="none" stroke="#000000" cx="254.5665" cy="-1026.271" rx="3.2" ry="3.2"/>
</g>
<!-- roi_bluswater.brandkraan -->
<g id="node3" class="node">
<title>roi_bluswater.brandkraan</title>
<g id="a_node3"><a xlink:href="../../../roi_bluswater/tables/brandkraan.html" xlink:title="roi_bluswater.brandkraan" target="_top">
<polygon fill="#ffffff" stroke="transparent" points="267.5,-832.2 267.5,-937.2 465.5,-937.2 465.5,-832.2 267.5,-832.2"/>
<polygon fill="#f5f5f5" stroke="transparent" points="267.5,-913.7 267.5,-936.7 465.5,-936.7 465.5,-913.7 267.5,-913.7"/>
<polygon fill="none" stroke="#000000" points="267.5,-913.7 267.5,-936.7 465.5,-936.7 465.5,-913.7 267.5,-913.7"/>
<text text-anchor="start" x="272.5" y="-922.3" font-family="Helvetica,sans-Serif" font-weight="bold" font-size="11.00" fill="#000000">roi_bluswater.brandkraan</text>
<text text-anchor="start" x="430.5437" y="-921.8" font-family="Helvetica,sans-Serif" font-size="11.00" fill="#000000">[table]</text>
<polygon fill="none" stroke="#000000" points="267.5,-891.7 267.5,-913.7 465.5,-913.7 465.5,-891.7 267.5,-891.7"/>
<image xlink:href="../../images/foreignKeys.png" width="11px" height="12px" preserveAspectRatio="xMinYMin meet" x="272.5" y="-908.7"/>
<text text-anchor="start" x="287.5" y="-898.8" font-family="Helvetica,sans-Serif" font-size="11.00" fill="#000000">fase_id</text>
<polygon fill="none" stroke="#000000" points="267.5,-869.7 267.5,-891.7 465.5,-891.7 465.5,-869.7 267.5,-869.7"/>
<image xlink:href="../../images/foreignKeys.png" width="11px" height="12px" preserveAspectRatio="xMinYMin meet" x="272.5" y="-886.7"/>
<text text-anchor="start" x="287.5" y="-876.8" font-family="Helvetica,sans-Serif" font-size="11.00" fill="#000000">symbool_id</text>
<polygon fill="none" stroke="#000000" points="267.5,-850.7 267.5,-869.7 465.5,-869.7 465.5,-850.7 267.5,-850.7"/>
<text text-anchor="start" x="270.5" y="-856.8" font-family="Helvetica,sans-Serif" font-size="11.00" fill="#000000">...</text>
<polygon fill="#ffffff" stroke="transparent" points="267.5,-831.7 267.5,-850.7 364.5,-850.7 364.5,-831.7 267.5,-831.7"/>
<polygon fill="none" stroke="#000000" points="267.5,-831.7 267.5,-850.7 364.5,-850.7 364.5,-831.7 267.5,-831.7"/>
<text text-anchor="start" x="270.5" y="-837.8" font-family="Helvetica,sans-Serif" font-size="11.00" fill="#000000">&lt; 2</text>
<polygon fill="#ffffff" stroke="transparent" points="364.5,-831.7 364.5,-850.7 414.5,-850.7 414.5,-831.7 364.5,-831.7"/>
<polygon fill="none" stroke="#000000" points="364.5,-831.7 364.5,-850.7 414.5,-850.7 414.5,-831.7 364.5,-831.7"/>
<text text-anchor="start" x="405.3862" y="-837.8" font-family="Helvetica,sans-Serif" font-size="11.00" fill="#000000"> &#160;</text>
<polygon fill="#ffffff" stroke="transparent" points="414.5,-831.7 414.5,-850.7 465.5,-850.7 465.5,-831.7 414.5,-831.7"/>
<polygon fill="none" stroke="#000000" points="414.5,-831.7 414.5,-850.7 465.5,-850.7 465.5,-831.7 414.5,-831.7"/>
<text text-anchor="start" x="456.3862" y="-837.8" font-family="Helvetica,sans-Serif" font-size="11.00" fill="#000000"> &#160;</text>
</a>
</g>
</g>
<!-- roi_bluswater.brandkraan&#45;&gt;fase -->
<g id="edge2" class="edge">
<title>roi_bluswater.brandkraan:w&#45;&gt;fase:e</title>
<path fill="none" stroke="#000000" d="M253.5392,-898.4549C193.6465,-856.9266 275.6658,-524.7 195.5,-524.7"/>
<polygon fill="#000000" stroke="#000000" points="259.846,-900.3726 266.4527,-906.1443 263.673,-901.5363 267.5,-902.7 267.5,-902.7 267.5,-902.7 263.673,-901.5363 268.5473,-899.2557 259.846,-900.3726 259.846,-900.3726"/>
<ellipse fill="none" stroke="#000000" cx="256.7844" cy="-899.4416" rx="3.2" ry="3.2"/>
</g>
<!-- roi_bluswater.brandkraan_prive -->
<g id="node4" class="node">
<title>roi_bluswater.brandkraan_prive</title>
<g id="a_node4"><a xlink:href="../../../roi_bluswater/tables/brandkraan_prive.html" xlink:title="roi_bluswater.brandkraan_prive" target="_top">
<polygon fill="#ffffff" stroke="transparent" points="256,-706.2 256,-811.2 477,-811.2 477,-706.2 256,-706.2"/>
<polygon fill="#f5f5f5" stroke="transparent" points="256.5,-787.7 256.5,-810.7 477.5,-810.7 477.5,-787.7 256.5,-787.7"/>
<polygon fill="none" stroke="#000000" points="256.5,-787.7 256.5,-810.7 477.5,-810.7 477.5,-787.7 256.5,-787.7"/>
<text text-anchor="start" x="261.5" y="-796.3" font-family="Helvetica,sans-Serif" font-weight="bold" font-size="11.00" fill="#000000">roi_bluswater.brandkraan_prive</text>
<text text-anchor="start" x="443.0219" y="-795.8" font-family="Helvetica,sans-Serif" font-size="11.00" fill="#000000">[table]</text>
<polygon fill="none" stroke="#000000" points="256.5,-765.7 256.5,-787.7 477.5,-787.7 477.5,-765.7 256.5,-765.7"/>
<image xlink:href="../../images/foreignKeys.png" width="11px" height="12px" preserveAspectRatio="xMinYMin meet" x="261.5" y="-782.7"/>
<text text-anchor="start" x="288.5" y="-772.8" font-family="Helvetica,sans-Serif" font-size="11.00" fill="#000000">fase_id</text>
<polygon fill="none" stroke="#000000" points="256.5,-743.7 256.5,-765.7 477.5,-765.7 477.5,-743.7 256.5,-743.7"/>
<image xlink:href="../../images/foreignKeys.png" width="11px" height="12px" preserveAspectRatio="xMinYMin meet" x="261.5" y="-760.7"/>
<text text-anchor="start" x="288.5" y="-750.8" font-family="Helvetica,sans-Serif" font-size="11.00" fill="#000000">symbool_id</text>
<polygon fill="none" stroke="#000000" points="256.5,-724.7 256.5,-743.7 477.5,-743.7 477.5,-724.7 256.5,-724.7"/>
<text text-anchor="start" x="259.5" y="-730.8" font-family="Helvetica,sans-Serif" font-size="11.00" fill="#000000">...</text>
<polygon fill="#ffffff" stroke="transparent" points="256.5,-705.7 256.5,-724.7 365.5,-724.7 365.5,-705.7 256.5,-705.7"/>
<polygon fill="none" stroke="#000000" points="256.5,-705.7 256.5,-724.7 365.5,-724.7 365.5,-705.7 256.5,-705.7"/>
<text text-anchor="start" x="259.5" y="-711.8" font-family="Helvetica,sans-Serif" font-size="11.00" fill="#000000">&lt; 2</text>
<polygon fill="#ffffff" stroke="transparent" points="365.5,-705.7 365.5,-724.7 421.5,-724.7 421.5,-705.7 365.5,-705.7"/>
<polygon fill="none" stroke="#000000" points="365.5,-705.7 365.5,-724.7 421.5,-724.7 421.5,-705.7 365.5,-705.7"/>
<text text-anchor="start" x="412.3862" y="-711.8" font-family="Helvetica,sans-Serif" font-size="11.00" fill="#000000"> &#160;</text>
<polygon fill="#ffffff" stroke="transparent" points="421.5,-705.7 421.5,-724.7 477.5,-724.7 477.5,-705.7 421.5,-705.7"/>
<polygon fill="none" stroke="#000000" points="421.5,-705.7 421.5,-724.7 477.5,-724.7 477.5,-705.7 421.5,-705.7"/>
<text text-anchor="start" x="468.3862" y="-711.8" font-family="Helvetica,sans-Serif" font-size="11.00" fill="#000000"> &#160;</text>
</a>
</g>
</g>
<!-- roi_bluswater.brandkraan_prive&#45;&gt;fase -->
<g id="edge3" class="edge">
<title>roi_bluswater.brandkraan_prive:w&#45;&gt;fase:e</title>
<path fill="none" stroke="#000000" d="M242.1132,-775.0908C156.5276,-753.6287 305.333,-524.7 195.5,-524.7"/>
<polygon fill="#000000" stroke="#000000" points="248.5496,-775.8107 256.0998,-780.2777 252.5248,-776.2553 256.5,-776.7 256.5,-776.7 256.5,-776.7 252.5248,-776.2553 256.9002,-773.1223 248.5496,-775.8107 248.5496,-775.8107"/>
<ellipse fill="none" stroke="#000000" cx="245.3694" cy="-775.4549" rx="3.2" ry="3.2"/>
</g>
<!-- roi_bluswater.brandput -->
<g id="node5" class="node">
<title>roi_bluswater.brandput</title>
<g id="a_node5"><a xlink:href="../../../roi_bluswater/tables/brandput.html" xlink:title="roi_bluswater.brandput" target="_top">
<polygon fill="#ffffff" stroke="transparent" points="276,-580.2 276,-685.2 457,-685.2 457,-580.2 276,-580.2"/>
<polygon fill="#f5f5f5" stroke="transparent" points="276.5,-661.7 276.5,-684.7 457.5,-684.7 457.5,-661.7 276.5,-661.7"/>
<polygon fill="none" stroke="#000000" points="276.5,-661.7 276.5,-684.7 457.5,-684.7 457.5,-661.7 276.5,-661.7"/>
<text text-anchor="start" x="281.5" y="-670.3" font-family="Helvetica,sans-Serif" font-weight="bold" font-size="11.00" fill="#000000">roi_bluswater.brandput</text>
<text text-anchor="start" x="422.5437" y="-669.8" font-family="Helvetica,sans-Serif" font-size="11.00" fill="#000000">[table]</text>
<polygon fill="none" stroke="#000000" points="276.5,-639.7 276.5,-661.7 457.5,-661.7 457.5,-639.7 276.5,-639.7"/>
<image xlink:href="../../images/foreignKeys.png" width="11px" height="12px" preserveAspectRatio="xMinYMin meet" x="281.5" y="-656.7"/>
<text text-anchor="start" x="296.5" y="-646.8" font-family="Helvetica,sans-Serif" font-size="11.00" fill="#000000">fase_id</text>
<polygon fill="none" stroke="#000000" points="276.5,-617.7 276.5,-639.7 457.5,-639.7 457.5,-617.7 276.5,-617.7"/>
<image xlink:href="../../images/foreignKeys.png" width="11px" height="12px" preserveAspectRatio="xMinYMin meet" x="281.5" y="-634.7"/>
<text text-anchor="start" x="296.5" y="-624.8" font-family="Helvetica,sans-Serif" font-size="11.00" fill="#000000">symbool_id</text>
<polygon fill="none" stroke="#000000" points="276.5,-598.7 276.5,-617.7 457.5,-617.7 457.5,-598.7 276.5,-598.7"/>
<text text-anchor="start" x="279.5" y="-604.8" font-family="Helvetica,sans-Serif" font-size="11.00" fill="#000000">...</text>
<polygon fill="#ffffff" stroke="transparent" points="276.5,-579.7 276.5,-598.7 365.5,-598.7 365.5,-579.7 276.5,-579.7"/>
<polygon fill="none" stroke="#000000" points="276.5,-579.7 276.5,-598.7 365.5,-598.7 365.5,-579.7 276.5,-579.7"/>
<text text-anchor="start" x="279.5" y="-585.8" font-family="Helvetica,sans-Serif" font-size="11.00" fill="#000000">&lt; 2</text>
<polygon fill="#ffffff" stroke="transparent" points="365.5,-579.7 365.5,-598.7 411.5,-598.7 411.5,-579.7 365.5,-579.7"/>
<polygon fill="none" stroke="#000000" points="365.5,-579.7 365.5,-598.7 411.5,-598.7 411.5,-579.7 365.5,-579.7"/>
<text text-anchor="start" x="402.3862" y="-585.8" font-family="Helvetica,sans-Serif" font-size="11.00" fill="#000000"> &#160;</text>
<polygon fill="#ffffff" stroke="transparent" points="411.5,-579.7 411.5,-598.7 457.5,-598.7 457.5,-579.7 411.5,-579.7"/>
<polygon fill="none" stroke="#000000" points="411.5,-579.7 411.5,-598.7 457.5,-598.7 457.5,-579.7 411.5,-579.7"/>
<text text-anchor="start" x="448.3862" y="-585.8" font-family="Helvetica,sans-Serif" font-size="11.00" fill="#000000"> &#160;</text>
</a>
</g>
</g>
<!-- roi_bluswater.brandput&#45;&gt;fase -->
<g id="edge4" class="edge">
<title>roi_bluswater.brandput:w&#45;&gt;fase:e</title>
<path fill="none" stroke="#000000" d="M262.0981,-648.1831C217.8483,-630.4247 256.4822,-524.7 195.5,-524.7"/>
<polygon fill="#000000" stroke="#000000" points="268.6194,-649.3227 275.8802,-654.2463 272.5597,-650.0114 276.5,-650.7 276.5,-650.7 276.5,-650.7 272.5597,-650.0114 277.1198,-647.1537 268.6194,-649.3227 268.6194,-649.3227"/>
<ellipse fill="none" stroke="#000000" cx="265.4672" cy="-648.7718" rx="3.2" ry="3.2"/>
</g>
<!-- roi_bluswater.openwater -->
<g id="node6" class="node">
<title>roi_bluswater.openwater</title>
<g id="a_node6"><a xlink:href="../../../roi_bluswater/tables/openwater.html" xlink:title="roi_bluswater.openwater" target="_top">
<polygon fill="#ffffff" stroke="transparent" points="246,-454.2 246,-559.2 487,-559.2 487,-454.2 246,-454.2"/>
<polygon fill="#f5f5f5" stroke="transparent" points="246.5,-535.7 246.5,-558.7 487.5,-558.7 487.5,-535.7 246.5,-535.7"/>
<polygon fill="none" stroke="#000000" points="246.5,-535.7 246.5,-558.7 487.5,-558.7 487.5,-535.7 246.5,-535.7"/>
<text text-anchor="start" x="251.5" y="-544.3" font-family="Helvetica,sans-Serif" font-weight="bold" font-size="11.00" fill="#000000">roi_bluswater.openwater</text>
<text text-anchor="start" x="452.5437" y="-543.8" font-family="Helvetica,sans-Serif" font-size="11.00" fill="#000000">[table]</text>
<polygon fill="none" stroke="#000000" points="246.5,-513.7 246.5,-535.7 487.5,-535.7 487.5,-513.7 246.5,-513.7"/>
<image xlink:href="../../images/foreignKeys.png" width="11px" height="12px" preserveAspectRatio="xMinYMin meet" x="251.5" y="-530.7"/>
<text text-anchor="start" x="266.5" y="-520.8" font-family="Helvetica,sans-Serif" font-size="11.00" fill="#000000">fase_id</text>
<polygon fill="none" stroke="#000000" points="246.5,-491.7 246.5,-513.7 487.5,-513.7 487.5,-491.7 246.5,-491.7"/>
<image xlink:href="../../images/foreignKeys.png" width="11px" height="12px" preserveAspectRatio="xMinYMin meet" x="251.5" y="-508.7"/>
<text text-anchor="start" x="266.5" y="-498.8" font-family="Helvetica,sans-Serif" font-size="11.00" fill="#000000">symbool_id</text>
<polygon fill="none" stroke="#000000" points="246.5,-472.7 246.5,-491.7 487.5,-491.7 487.5,-472.7 246.5,-472.7"/>
<text text-anchor="start" x="249.5" y="-478.8" font-family="Helvetica,sans-Serif" font-size="11.00" fill="#000000">...</text>
<polygon fill="#ffffff" stroke="transparent" points="246.5,-453.7 246.5,-472.7 365.5,-472.7 365.5,-453.7 246.5,-453.7"/>
<polygon fill="none" stroke="#000000" points="246.5,-453.7 246.5,-472.7 365.5,-472.7 365.5,-453.7 246.5,-453.7"/>
<text text-anchor="start" x="249.5" y="-459.8" font-family="Helvetica,sans-Serif" font-size="11.00" fill="#000000">&lt; 2</text>
<polygon fill="#ffffff" stroke="transparent" points="365.5,-453.7 365.5,-472.7 426.5,-472.7 426.5,-453.7 365.5,-453.7"/>
<polygon fill="none" stroke="#000000" points="365.5,-453.7 365.5,-472.7 426.5,-472.7 426.5,-453.7 365.5,-453.7"/>
<text text-anchor="start" x="417.3862" y="-459.8" font-family="Helvetica,sans-Serif" font-size="11.00" fill="#000000"> &#160;</text>
<polygon fill="#ffffff" stroke="transparent" points="426.5,-453.7 426.5,-472.7 487.5,-472.7 487.5,-453.7 426.5,-453.7"/>
<polygon fill="none" stroke="#000000" points="426.5,-453.7 426.5,-472.7 487.5,-472.7 487.5,-453.7 426.5,-453.7"/>
<text text-anchor="start" x="478.3862" y="-459.8" font-family="Helvetica,sans-Serif" font-size="11.00" fill="#000000"> &#160;</text>
</a>
</g>
</g>
<!-- roi_bluswater.openwater&#45;&gt;fase -->
<g id="edge5" class="edge">
<title>roi_bluswater.openwater:w&#45;&gt;fase:e</title>
<path fill="none" stroke="#000000" d="M231.776,-524.7C219.7815,-524.7 212.3229,-524.7 195.5,-524.7"/>
<polygon fill="#000000" stroke="#000000" points="238.5,-524.7001 246.5,-528.3 242.5,-524.7 246.5,-524.7 246.5,-524.7 246.5,-524.7 242.5,-524.7 246.5,-521.1 238.5,-524.7001 238.5,-524.7001"/>
<ellipse fill="none" stroke="#000000" cx="235.3" cy="-524.7001" rx="3.2" ry="3.2"/>
</g>
<!-- roi_evenement.object -->
<g id="node7" class="node">
<title>roi_evenement.object</title>
<g id="a_node7"><a xlink:href="../../../roi_evenement/tables/object.html" xlink:title="roi_evenement.object" target="_top">
<polygon fill="#ffffff" stroke="transparent" points="285.5,-350.2 285.5,-433.2 447.5,-433.2 447.5,-350.2 285.5,-350.2"/>
<polygon fill="#f5f5f5" stroke="transparent" points="285.5,-409.7 285.5,-432.7 447.5,-432.7 447.5,-409.7 285.5,-409.7"/>
<polygon fill="none" stroke="#000000" points="285.5,-409.7 285.5,-432.7 447.5,-432.7 447.5,-409.7 285.5,-409.7"/>
<text text-anchor="start" x="290.5" y="-418.3" font-family="Helvetica,sans-Serif" font-weight="bold" font-size="11.00" fill="#000000">roi_evenement.object</text>
<text text-anchor="start" x="413.0219" y="-417.8" font-family="Helvetica,sans-Serif" font-size="11.00" fill="#000000">[table]</text>
<polygon fill="none" stroke="#000000" points="285.5,-387.7 285.5,-409.7 447.5,-409.7 447.5,-387.7 285.5,-387.7"/>
<image xlink:href="../../images/foreignKeys.png" width="11px" height="12px" preserveAspectRatio="xMinYMin meet" x="290.5" y="-404.7"/>
<text text-anchor="start" x="324.5" y="-394.8" font-family="Helvetica,sans-Serif" font-size="11.00" fill="#000000">fase_id</text>
<polygon fill="none" stroke="#000000" points="285.5,-368.7 285.5,-387.7 447.5,-387.7 447.5,-368.7 285.5,-368.7"/>
<text text-anchor="start" x="288.5" y="-374.8" font-family="Helvetica,sans-Serif" font-size="11.00" fill="#000000">...</text>
<polygon fill="#ffffff" stroke="transparent" points="285.5,-349.7 285.5,-368.7 364.5,-368.7 364.5,-349.7 285.5,-349.7"/>
<polygon fill="none" stroke="#000000" points="285.5,-349.7 285.5,-368.7 364.5,-368.7 364.5,-349.7 285.5,-349.7"/>
<text text-anchor="start" x="288.5" y="-355.8" font-family="Helvetica,sans-Serif" font-size="11.00" fill="#000000">&lt; 1</text>
<polygon fill="#ffffff" stroke="transparent" points="364.5,-349.7 364.5,-368.7 405.5,-368.7 405.5,-349.7 364.5,-349.7"/>
<polygon fill="none" stroke="#000000" points="364.5,-349.7 364.5,-368.7 405.5,-368.7 405.5,-349.7 364.5,-349.7"/>
<text text-anchor="start" x="396.3862" y="-355.8" font-family="Helvetica,sans-Serif" font-size="11.00" fill="#000000"> &#160;</text>
<polygon fill="#ffffff" stroke="transparent" points="405.5,-349.7 405.5,-368.7 447.5,-368.7 447.5,-349.7 405.5,-349.7"/>
<polygon fill="none" stroke="#000000" points="405.5,-349.7 405.5,-368.7 447.5,-368.7 447.5,-349.7 405.5,-349.7"/>
<text text-anchor="start" x="438.3862" y="-355.8" font-family="Helvetica,sans-Serif" font-size="11.00" fill="#000000"> &#160;</text>
</a>
</g>
</g>
<!-- roi_evenement.object&#45;&gt;fase -->
<g id="edge6" class="edge">
<title>roi_evenement.object:w&#45;&gt;fase:e</title>
<path fill="none" stroke="#000000" d="M270.8946,-401.2285C255.3775,-407.6176 251.9839,-425.2213 238,-443.7 213.4673,-476.1182 236.1545,-524.7 195.5,-524.7"/>
<polygon fill="#000000" stroke="#000000" points="277.6173,-400.0647 286.1141,-402.2472 281.5586,-399.3824 285.5,-398.7 285.5,-398.7 285.5,-398.7 281.5586,-399.3824 284.8859,-395.1528 277.6173,-400.0647 277.6173,-400.0647"/>
<ellipse fill="none" stroke="#000000" cx="274.4642" cy="-400.6106" rx="3.2" ry="3.2"/>
</g>
<!-- roi_gebouw.object -->
<g id="node8" class="node">
<title>roi_gebouw.object</title>
<g id="a_node8"><a xlink:href="../../../roi_gebouw/tables/object.html" xlink:title="roi_gebouw.object" target="_top">
<polygon fill="#ffffff" stroke="transparent" points="294,-246.2 294,-329.2 439,-329.2 439,-246.2 294,-246.2"/>
<polygon fill="#f5f5f5" stroke="transparent" points="294.5,-305.7 294.5,-328.7 439.5,-328.7 439.5,-305.7 294.5,-305.7"/>
<polygon fill="none" stroke="#000000" points="294.5,-305.7 294.5,-328.7 439.5,-328.7 439.5,-305.7 294.5,-305.7"/>
<text text-anchor="start" x="299.5" y="-314.3" font-family="Helvetica,sans-Serif" font-weight="bold" font-size="11.00" fill="#000000">roi_gebouw.object</text>
<text text-anchor="start" x="405.0219" y="-313.8" font-family="Helvetica,sans-Serif" font-size="11.00" fill="#000000">[table]</text>
<polygon fill="none" stroke="#000000" points="294.5,-283.7 294.5,-305.7 439.5,-305.7 439.5,-283.7 294.5,-283.7"/>
<image xlink:href="../../images/foreignKeys.png" width="11px" height="12px" preserveAspectRatio="xMinYMin meet" x="299.5" y="-300.7"/>
<text text-anchor="start" x="325.5" y="-290.8" font-family="Helvetica,sans-Serif" font-size="11.00" fill="#000000">fase_id</text>
<polygon fill="none" stroke="#000000" points="294.5,-264.7 294.5,-283.7 439.5,-283.7 439.5,-264.7 294.5,-264.7"/>
<text text-anchor="start" x="297.5" y="-270.8" font-family="Helvetica,sans-Serif" font-size="11.00" fill="#000000">...</text>
<polygon fill="#ffffff" stroke="transparent" points="294.5,-245.7 294.5,-264.7 365.5,-264.7 365.5,-245.7 294.5,-245.7"/>
<polygon fill="none" stroke="#000000" points="294.5,-245.7 294.5,-264.7 365.5,-264.7 365.5,-245.7 294.5,-245.7"/>
<text text-anchor="start" x="297.5" y="-251.8" font-family="Helvetica,sans-Serif" font-size="11.00" fill="#000000">&lt; 1</text>
<polygon fill="#ffffff" stroke="transparent" points="365.5,-245.7 365.5,-264.7 402.5,-264.7 402.5,-245.7 365.5,-245.7"/>
<polygon fill="none" stroke="#000000" points="365.5,-245.7 365.5,-264.7 402.5,-264.7 402.5,-245.7 365.5,-245.7"/>
<text text-anchor="start" x="393.3862" y="-251.8" font-family="Helvetica,sans-Serif" font-size="11.00" fill="#000000"> &#160;</text>
<polygon fill="#ffffff" stroke="transparent" points="402.5,-245.7 402.5,-264.7 439.5,-264.7 439.5,-245.7 402.5,-245.7"/>
<polygon fill="none" stroke="#000000" points="402.5,-245.7 402.5,-264.7 439.5,-264.7 439.5,-245.7 402.5,-245.7"/>
<text text-anchor="start" x="430.3862" y="-251.8" font-family="Helvetica,sans-Serif" font-size="11.00" fill="#000000"> &#160;</text>
</a>
</g>
</g>
<!-- roi_gebouw.object&#45;&gt;fase -->
<g id="edge7" class="edge">
<title>roi_gebouw.object:w&#45;&gt;fase:e</title>
<path fill="none" stroke="#000000" d="M279.9703,-296.2374C259.6015,-301.1065 252.1669,-317.2043 238,-339.7 193.0431,-411.0874 279.864,-524.7 195.5,-524.7"/>
<polygon fill="#000000" stroke="#000000" points="286.5444,-295.5419 294.8788,-298.28 290.5222,-295.1209 294.5,-294.7 294.5,-294.7 294.5,-294.7 290.5222,-295.1209 294.1212,-291.12 286.5444,-295.5419 286.5444,-295.5419"/>
<ellipse fill="none" stroke="#000000" cx="283.3622" cy="-295.8786" rx="3.2" ry="3.2"/>
</g>
<!-- roi_natuurbrand.object -->
<g id="node9" class="node">
<title>roi_natuurbrand.object</title>
<g id="a_node9"><a xlink:href="../../../roi_natuurbrand/tables/object.html" xlink:title="roi_natuurbrand.object" target="_top">
<polygon fill="#ffffff" stroke="transparent" points="281.5,-142.2 281.5,-225.2 451.5,-225.2 451.5,-142.2 281.5,-142.2"/>
<polygon fill="#f5f5f5" stroke="transparent" points="281.5,-201.7 281.5,-224.7 451.5,-224.7 451.5,-201.7 281.5,-201.7"/>
<polygon fill="none" stroke="#000000" points="281.5,-201.7 281.5,-224.7 451.5,-224.7 451.5,-201.7 281.5,-201.7"/>
<text text-anchor="start" x="286.5" y="-210.3" font-family="Helvetica,sans-Serif" font-weight="bold" font-size="11.00" fill="#000000">roi_natuurbrand.object</text>
<text text-anchor="start" x="417.0219" y="-209.8" font-family="Helvetica,sans-Serif" font-size="11.00" fill="#000000">[table]</text>
<polygon fill="none" stroke="#000000" points="281.5,-179.7 281.5,-201.7 451.5,-201.7 451.5,-179.7 281.5,-179.7"/>
<image xlink:href="../../images/foreignKeys.png" width="11px" height="12px" preserveAspectRatio="xMinYMin meet" x="286.5" y="-196.7"/>
<text text-anchor="start" x="325.5" y="-186.8" font-family="Helvetica,sans-Serif" font-size="11.00" fill="#000000">fase_id</text>
<polygon fill="none" stroke="#000000" points="281.5,-160.7 281.5,-179.7 451.5,-179.7 451.5,-160.7 281.5,-160.7"/>
<text text-anchor="start" x="284.5" y="-166.8" font-family="Helvetica,sans-Serif" font-size="11.00" fill="#000000">...</text>
<polygon fill="#ffffff" stroke="transparent" points="281.5,-141.7 281.5,-160.7 364.5,-160.7 364.5,-141.7 281.5,-141.7"/>
<polygon fill="none" stroke="#000000" points="281.5,-141.7 281.5,-160.7 364.5,-160.7 364.5,-141.7 281.5,-141.7"/>
<text text-anchor="start" x="284.5" y="-147.8" font-family="Helvetica,sans-Serif" font-size="11.00" fill="#000000">&lt; 1</text>
<polygon fill="#ffffff" stroke="transparent" points="364.5,-141.7 364.5,-160.7 407.5,-160.7 407.5,-141.7 364.5,-141.7"/>
<polygon fill="none" stroke="#000000" points="364.5,-141.7 364.5,-160.7 407.5,-160.7 407.5,-141.7 364.5,-141.7"/>
<text text-anchor="start" x="398.3862" y="-147.8" font-family="Helvetica,sans-Serif" font-size="11.00" fill="#000000"> &#160;</text>
<polygon fill="#ffffff" stroke="transparent" points="407.5,-141.7 407.5,-160.7 451.5,-160.7 451.5,-141.7 407.5,-141.7"/>
<polygon fill="none" stroke="#000000" points="407.5,-141.7 407.5,-160.7 451.5,-160.7 451.5,-141.7 407.5,-141.7"/>
<text text-anchor="start" x="442.3862" y="-147.8" font-family="Helvetica,sans-Serif" font-size="11.00" fill="#000000"> &#160;</text>
</a>
</g>
</g>
<!-- roi_natuurbrand.object&#45;&gt;fase -->
<g id="edge8" class="edge">
<title>roi_natuurbrand.object:w&#45;&gt;fase:e</title>
<path fill="none" stroke="#000000" d="M267.292,-193.0539C251.9344,-199.0444 247.7858,-215.8104 238,-235.7 209.3432,-293.945 260.413,-524.7 195.5,-524.7"/>
<polygon fill="#000000" stroke="#000000" points="273.6076,-192.0076 282.0884,-194.2516 277.5538,-191.3538 281.5,-190.7 281.5,-190.7 281.5,-190.7 277.5538,-191.3538 280.9116,-187.1484 273.6076,-192.0076 273.6076,-192.0076"/>
<ellipse fill="none" stroke="#000000" cx="270.4506" cy="-192.5306" rx="3.2" ry="3.2"/>
</g>
<!-- roi_waterongeval.object -->
<g id="node10" class="node">
<title>roi_waterongeval.object</title>
<g id="a_node10"><a xlink:href="../../../roi_waterongeval/tables/object.html" xlink:title="roi_waterongeval.object" target="_top">
<polygon fill="#ffffff" stroke="transparent" points="278.5,-38.2 278.5,-121.2 454.5,-121.2 454.5,-38.2 278.5,-38.2"/>
<polygon fill="#f5f5f5" stroke="transparent" points="278.5,-97.7 278.5,-120.7 454.5,-120.7 454.5,-97.7 278.5,-97.7"/>
<polygon fill="none" stroke="#000000" points="278.5,-97.7 278.5,-120.7 454.5,-120.7 454.5,-97.7 278.5,-97.7"/>
<text text-anchor="start" x="283.5" y="-106.3" font-family="Helvetica,sans-Serif" font-weight="bold" font-size="11.00" fill="#000000">roi_waterongeval.object</text>
<text text-anchor="start" x="420.0219" y="-105.8" font-family="Helvetica,sans-Serif" font-size="11.00" fill="#000000">[table]</text>
<polygon fill="none" stroke="#000000" points="278.5,-75.7 278.5,-97.7 454.5,-97.7 454.5,-75.7 278.5,-75.7"/>
<image xlink:href="../../images/foreignKeys.png" width="11px" height="12px" preserveAspectRatio="xMinYMin meet" x="283.5" y="-92.7"/>
<text text-anchor="start" x="303.5" y="-82.8" font-family="Helvetica,sans-Serif" font-size="11.00" fill="#000000">fase_id</text>
<polygon fill="none" stroke="#000000" points="278.5,-56.7 278.5,-75.7 454.5,-75.7 454.5,-56.7 278.5,-56.7"/>
<text text-anchor="start" x="281.5" y="-62.8" font-family="Helvetica,sans-Serif" font-size="11.00" fill="#000000">...</text>
<polygon fill="#ffffff" stroke="transparent" points="278.5,-37.7 278.5,-56.7 364.5,-56.7 364.5,-37.7 278.5,-37.7"/>
<polygon fill="none" stroke="#000000" points="278.5,-37.7 278.5,-56.7 364.5,-56.7 364.5,-37.7 278.5,-37.7"/>
<text text-anchor="start" x="281.5" y="-43.8" font-family="Helvetica,sans-Serif" font-size="11.00" fill="#000000">&lt; 1</text>
<polygon fill="#ffffff" stroke="transparent" points="364.5,-37.7 364.5,-56.7 409.5,-56.7 409.5,-37.7 364.5,-37.7"/>
<polygon fill="none" stroke="#000000" points="364.5,-37.7 364.5,-56.7 409.5,-56.7 409.5,-37.7 364.5,-37.7"/>
<text text-anchor="start" x="400.3862" y="-43.8" font-family="Helvetica,sans-Serif" font-size="11.00" fill="#000000"> &#160;</text>
<polygon fill="#ffffff" stroke="transparent" points="409.5,-37.7 409.5,-56.7 454.5,-56.7 454.5,-37.7 409.5,-37.7"/>
<polygon fill="none" stroke="#000000" points="409.5,-37.7 409.5,-56.7 454.5,-56.7 454.5,-37.7 409.5,-37.7"/>
<text text-anchor="start" x="445.3862" y="-43.8" font-family="Helvetica,sans-Serif" font-size="11.00" fill="#000000"> &#160;</text>
</a>
</g>
</g>
<!-- roi_waterongeval.object&#45;&gt;fase -->
<g id="edge9" class="edge">
<title>roi_waterongeval.object:w&#45;&gt;fase:e</title>
<path fill="none" stroke="#000000" d="M263.9876,-89.4628C250.0487,-95.8377 246.5768,-112.508 238,-131.7 220.0798,-171.7992 239.4213,-524.7 195.5,-524.7"/>
<polygon fill="#000000" stroke="#000000" points="270.6411,-88.1962 279.1733,-90.2365 274.5706,-87.4481 278.5,-86.7 278.5,-86.7 278.5,-86.7 274.5706,-87.4481 277.8267,-83.1635 270.6411,-88.1962 270.6411,-88.1962"/>
<ellipse fill="none" stroke="#000000" cx="267.4976" cy="-88.7946" rx="3.2" ry="3.2"/>
</g>
</g>
</svg>
