<?xml version="1.0" encoding="UTF-8" standalone="no"?>
<!DOCTYPE svg PUBLIC "-//W3C//DTD SVG 1.1//EN"
 "http://www.w3.org/Graphics/SVG/1.1/DTD/svg11.dtd">
<!-- Generated by graphviz version 2.50.0 (0)
 -->
<!-- Title: oneDegreeRelationshipsDiagram Pages: 1 -->
<svg width="532pt" height="1047pt"
 viewBox="0.00 0.00 532.00 1047.00" xmlns="http://www.w3.org/2000/svg" xmlns:xlink="http://www.w3.org/1999/xlink">
<g id="graph0" class="graph" transform="scale(1 1) rotate(0) translate(4 1043)">
<title>oneDegreeRelationshipsDiagram</title>
<polygon fill="#ffffff" stroke="transparent" points="-4,4 -4,-1043 528,-1043 528,4 -4,4"/>
<text text-anchor="middle" x="79.5" y="-7.2" font-family="Helvetica,sans-Serif" font-size="11.00">Generated by SchemaSpy</text>
<!-- roi_bluswater.bluswaterriool -->
<g id="node1" class="node">
<title>roi_bluswater.bluswaterriool</title>
<g id="a_node1"><a xlink:href="../../../roi_bluswater/tables/bluswaterriool.html" xlink:title="roi_bluswater.bluswaterriool" target="_top">
<polygon fill="#ffffff" stroke="transparent" points="277,-933 277,-1035 504,-1035 504,-933 277,-933"/>
<polygon fill="#f5f5f5" stroke="transparent" points="277.5,-1013 277.5,-1035 504.5,-1035 504.5,-1013 277.5,-1013"/>
<polygon fill="none" stroke="black" points="277.5,-1013 277.5,-1035 504.5,-1035 504.5,-1013 277.5,-1013"/>
<text text-anchor="start" x="282.5" y="-1022.2" font-family="Helvetica,sans-Serif" font-weight="bold" font-size="11.00">roi_bluswater.bluswaterriool</text>
<text text-anchor="start" x="462.5" y="-1021.2" font-family="Helvetica,sans-Serif" font-size="11.00">[table]</text>
<polygon fill="none" stroke="black" points="277.5,-991 277.5,-1013 504.5,-1013 504.5,-991 277.5,-991"/>
<image xlink:href="../../images/foreignKeys.png" width="11px" height="12px" preserveAspectRatio="xMinYMin meet" x="282.5" y="-1008"/>
<text text-anchor="start" x="325.5" y="-999.2" font-family="Helvetica,sans-Serif" font-size="11.00">fase_id</text>
<polygon fill="none" stroke="black" points="277.5,-969 277.5,-991 504.5,-991 504.5,-969 277.5,-969"/>
<image xlink:href="../../images/foreignKeys.png" width="11px" height="12px" preserveAspectRatio="xMinYMin meet" x="282.5" y="-986"/>
<text text-anchor="start" x="325.5" y="-977.2" font-family="Helvetica,sans-Serif" font-size="11.00">symbool_id</text>
<polygon fill="none" stroke="black" points="277.5,-951 277.5,-969 504.5,-969 504.5,-951 277.5,-951"/>
<text text-anchor="start" x="280.5" y="-957.2" font-family="Helvetica,sans-Serif" font-size="11.00">...</text>
<polygon fill="#ffffff" stroke="transparent" points="277.5,-933 277.5,-951 389.5,-951 389.5,-933 277.5,-933"/>
<polygon fill="none" stroke="black" points="277.5,-933 277.5,-951 389.5,-951 389.5,-933 277.5,-933"/>
<text text-anchor="start" x="280.5" y="-939.2" font-family="Helvetica,sans-Serif" font-size="11.00">&lt; 2</text>
<polygon fill="#ffffff" stroke="transparent" points="389.5,-933 389.5,-951 446.5,-951 446.5,-933 389.5,-933"/>
<polygon fill="none" stroke="black" points="389.5,-933 389.5,-951 446.5,-951 446.5,-933 389.5,-933"/>
<text text-anchor="start" x="435.5" y="-939.2" font-family="Helvetica,sans-Serif" font-size="11.00"> &#160;</text>
<polygon fill="#ffffff" stroke="transparent" points="446.5,-933 446.5,-951 504.5,-951 504.5,-933 446.5,-933"/>
<polygon fill="none" stroke="black" points="446.5,-933 446.5,-951 504.5,-951 504.5,-933 446.5,-933"/>
<text text-anchor="start" x="493.5" y="-939.2" font-family="Helvetica,sans-Serif" font-size="11.00"> &#160;</text>
</a>
</g>
</g>
<!-- fase -->
<g id="node2" class="node">
<title>fase</title>
<g id="a_node2"><a xlink:href="../../tables/fase.html" xlink:title="fase" target="_top">
<polygon fill="#ffffff" stroke="transparent" points="8,-435 8,-545 216,-545 216,-435 8,-435"/>
<polygon fill="#f5f5f5" stroke="transparent" points="10,-521 10,-543 214,-543 214,-521 10,-521"/>
<polygon fill="none" stroke="black" points="10,-521 10,-543 214,-543 214,-521 10,-521"/>
<text text-anchor="start" x="15" y="-530.2" font-family="Helvetica,sans-Serif" font-weight="bold" font-size="11.00">fase</text>
<text text-anchor="start" x="172" y="-529.2" font-family="Helvetica,sans-Serif" font-size="11.00">[table]</text>
<polygon fill="none" stroke="black" points="10,-499 10,-521 108,-521 108,-499 10,-499"/>
<image xlink:href="../../images/primaryKeys.png" width="11px" height="12px" preserveAspectRatio="xMinYMin meet" x="15" y="-516"/>
<text text-anchor="start" x="30" y="-507.2" font-family="Helvetica,sans-Serif" font-size="11.00">id</text>
<polygon fill="none" stroke="black" points="108,-499 108,-521 214,-521 214,-499 108,-499"/>
<text text-anchor="start" x="111" y="-507.2" font-family="Helvetica,sans-Serif" font-size="11.00">int2[5]</text>
<polygon fill="none" stroke="black" points="10,-477 10,-499 108,-499 108,-477 10,-477"/>
<text text-anchor="start" x="30" y="-485.2" font-family="Helvetica,sans-Serif" font-size="11.00">naam</text>
<polygon fill="none" stroke="black" points="108,-477 108,-499 214,-499 214,-477 108,-477"/>
<text text-anchor="start" x="111" y="-485.2" font-family="Helvetica,sans-Serif" font-size="11.00">text[2147483647]</text>
<polygon fill="none" stroke="black" points="10,-455 10,-477 108,-477 108,-455 10,-455"/>
<text text-anchor="start" x="30" y="-463.2" font-family="Helvetica,sans-Serif" font-size="11.00">omschrijving</text>
<polygon fill="none" stroke="black" points="108,-455 108,-477 214,-477 214,-455 108,-455"/>
<text text-anchor="start" x="111" y="-463.2" font-family="Helvetica,sans-Serif" font-size="11.00">text[2147483647]</text>
<polygon fill="#ffffff" stroke="transparent" points="10,-437 10,-455 65,-455 65,-437 10,-437"/>
<polygon fill="none" stroke="black" points="10,-437 10,-455 65,-455 65,-437 10,-437"/>
<text text-anchor="start" x="13" y="-443.2" font-family="Helvetica,sans-Serif" font-size="11.00">&lt; 0</text>
<polygon fill="#ffffff" stroke="transparent" points="65,-437 65,-455 108,-455 108,-437 65,-437"/>
<polygon fill="none" stroke="black" points="65,-437 65,-455 108,-455 108,-437 65,-437"/>
<text text-anchor="start" x="97" y="-443.2" font-family="Helvetica,sans-Serif" font-size="11.00"> &#160;</text>
<polygon fill="#ffffff" stroke="transparent" points="108,-437 108,-455 214,-455 214,-437 108,-437"/>
<polygon fill="none" stroke="black" points="108,-437 108,-455 214,-455 214,-437 108,-437"/>
<text text-anchor="start" x="191" y="-443.2" font-family="Helvetica,sans-Serif" font-size="11.00">9 &gt;</text>
<polygon fill="none" stroke="black" stroke-width="2" points="9,-436 9,-544 215,-544 215,-436 9,-436"/>
</a>
</g>
</g>
<!-- roi_bluswater.bluswaterriool&#45;&gt;fase -->
<g id="edge1" class="edge">
<title>roi_bluswater.bluswaterriool:w&#45;&gt;fase:e</title>
<path fill="none" stroke="black" d="M262.22,-998.6C181.19,-955.13 319.8,-510 215,-510"/>
<polygon fill="black" stroke="black" points="268.72,-1000.14 275.67,-1005.5 272.61,-1001.07 276.5,-1002 276.5,-1002 276.5,-1002 272.61,-1001.07 277.33,-998.5 268.72,-1000.14 268.72,-1000.14"/>
<ellipse fill="none" stroke="black" cx="265.61" cy="-999.4" rx="3.2" ry="3.2"/>
</g>
<!-- roi_bluswater.brandkraan -->
<g id="node3" class="node">
<title>roi_bluswater.brandkraan</title>
<g id="a_node3"><a xlink:href="../../../roi_bluswater/tables/brandkraan.html" xlink:title="roi_bluswater.brandkraan" target="_top">
<polygon fill="#ffffff" stroke="transparent" points="286.5,-810 286.5,-912 494.5,-912 494.5,-810 286.5,-810"/>
<polygon fill="#f5f5f5" stroke="transparent" points="286.5,-890 286.5,-912 494.5,-912 494.5,-890 286.5,-890"/>
<polygon fill="none" stroke="black" points="286.5,-890 286.5,-912 494.5,-912 494.5,-890 286.5,-890"/>
<text text-anchor="start" x="291.5" y="-899.2" font-family="Helvetica,sans-Serif" font-weight="bold" font-size="11.00">roi_bluswater.brandkraan</text>
<text text-anchor="start" x="452.5" y="-898.2" font-family="Helvetica,sans-Serif" font-size="11.00">[table]</text>
<polygon fill="none" stroke="black" points="286.5,-868 286.5,-890 494.5,-890 494.5,-868 286.5,-868"/>
<image xlink:href="../../images/foreignKeys.png" width="11px" height="12px" preserveAspectRatio="xMinYMin meet" x="291.5" y="-885"/>
<text text-anchor="start" x="308.5" y="-876.2" font-family="Helvetica,sans-Serif" font-size="11.00">fase_id</text>
<polygon fill="none" stroke="black" points="286.5,-846 286.5,-868 494.5,-868 494.5,-846 286.5,-846"/>
<image xlink:href="../../images/foreignKeys.png" width="11px" height="12px" preserveAspectRatio="xMinYMin meet" x="291.5" y="-863"/>
<text text-anchor="start" x="308.5" y="-854.2" font-family="Helvetica,sans-Serif" font-size="11.00">symbool_id</text>
<polygon fill="none" stroke="black" points="286.5,-828 286.5,-846 494.5,-846 494.5,-828 286.5,-828"/>
<text text-anchor="start" x="289.5" y="-834.2" font-family="Helvetica,sans-Serif" font-size="11.00">...</text>
<polygon fill="#ffffff" stroke="transparent" points="286.5,-810 286.5,-828 389.5,-828 389.5,-810 286.5,-810"/>
<polygon fill="none" stroke="black" points="286.5,-810 286.5,-828 389.5,-828 389.5,-810 286.5,-810"/>
<text text-anchor="start" x="289.5" y="-816.2" font-family="Helvetica,sans-Serif" font-size="11.00">&lt; 2</text>
<polygon fill="#ffffff" stroke="transparent" points="389.5,-810 389.5,-828 441.5,-828 441.5,-810 389.5,-810"/>
<polygon fill="none" stroke="black" points="389.5,-810 389.5,-828 441.5,-828 441.5,-810 389.5,-810"/>
<text text-anchor="start" x="430.5" y="-816.2" font-family="Helvetica,sans-Serif" font-size="11.00"> &#160;</text>
<polygon fill="#ffffff" stroke="transparent" points="441.5,-810 441.5,-828 494.5,-828 494.5,-810 441.5,-810"/>
<polygon fill="none" stroke="black" points="441.5,-810 441.5,-828 494.5,-828 494.5,-810 441.5,-810"/>
<text text-anchor="start" x="483.5" y="-816.2" font-family="Helvetica,sans-Serif" font-size="11.00"> &#160;</text>
</a>
</g>
</g>
<!-- roi_bluswater.brandkraan&#45;&gt;fase -->
<g id="edge2" class="edge">
<title>roi_bluswater.brandkraan:w&#45;&gt;fase:e</title>
<path fill="none" stroke="black" d="M271.5,-874.6C213.7,-832.97 293.1,-510 215,-510"/>
<polygon fill="black" stroke="black" points="277.87,-876.6 284.42,-882.43 281.68,-877.8 285.5,-879 285.5,-879 285.5,-879 281.68,-877.8 286.58,-875.57 277.87,-876.6 277.87,-876.6"/>
<ellipse fill="none" stroke="black" cx="274.82" cy="-875.64" rx="3.2" ry="3.2"/>
</g>
<!-- roi_bluswater.brandkraan_prive -->
<g id="node4" class="node">
<title>roi_bluswater.brandkraan_prive</title>
<g id="a_node4"><a xlink:href="../../../roi_bluswater/tables/brandkraan_prive.html" xlink:title="roi_bluswater.brandkraan_prive" target="_top">
<polygon fill="#ffffff" stroke="transparent" points="268,-687 268,-789 513,-789 513,-687 268,-687"/>
<polygon fill="#f5f5f5" stroke="transparent" points="268.5,-767 268.5,-789 513.5,-789 513.5,-767 268.5,-767"/>
<polygon fill="none" stroke="black" points="268.5,-767 268.5,-789 513.5,-789 513.5,-767 268.5,-767"/>
<text text-anchor="start" x="273.5" y="-776.2" font-family="Helvetica,sans-Serif" font-weight="bold" font-size="11.00">roi_bluswater.brandkraan_prive</text>
<text text-anchor="start" x="471.5" y="-775.2" font-family="Helvetica,sans-Serif" font-size="11.00">[table]</text>
<polygon fill="none" stroke="black" points="268.5,-745 268.5,-767 513.5,-767 513.5,-745 268.5,-745"/>
<image xlink:href="../../images/foreignKeys.png" width="11px" height="12px" preserveAspectRatio="xMinYMin meet" x="273.5" y="-762"/>
<text text-anchor="start" x="308.5" y="-753.2" font-family="Helvetica,sans-Serif" font-size="11.00">fase_id</text>
<polygon fill="none" stroke="black" points="268.5,-723 268.5,-745 513.5,-745 513.5,-723 268.5,-723"/>
<image xlink:href="../../images/foreignKeys.png" width="11px" height="12px" preserveAspectRatio="xMinYMin meet" x="273.5" y="-740"/>
<text text-anchor="start" x="308.5" y="-731.2" font-family="Helvetica,sans-Serif" font-size="11.00">symbool_id</text>
<polygon fill="none" stroke="black" points="268.5,-705 268.5,-723 513.5,-723 513.5,-705 268.5,-705"/>
<text text-anchor="start" x="271.5" y="-711.2" font-family="Helvetica,sans-Serif" font-size="11.00">...</text>
<polygon fill="#ffffff" stroke="transparent" points="268.5,-687 268.5,-705 389.5,-705 389.5,-687 268.5,-687"/>
<polygon fill="none" stroke="black" points="268.5,-687 268.5,-705 389.5,-705 389.5,-687 268.5,-687"/>
<text text-anchor="start" x="271.5" y="-693.2" font-family="Helvetica,sans-Serif" font-size="11.00">&lt; 2</text>
<polygon fill="#ffffff" stroke="transparent" points="389.5,-687 389.5,-705 451.5,-705 451.5,-687 389.5,-687"/>
<polygon fill="none" stroke="black" points="389.5,-687 389.5,-705 451.5,-705 451.5,-687 389.5,-687"/>
<text text-anchor="start" x="440.5" y="-693.2" font-family="Helvetica,sans-Serif" font-size="11.00"> &#160;</text>
<polygon fill="#ffffff" stroke="transparent" points="451.5,-687 451.5,-705 513.5,-705 513.5,-687 451.5,-687"/>
<polygon fill="none" stroke="black" points="451.5,-687 451.5,-705 513.5,-705 513.5,-687 451.5,-687"/>
<text text-anchor="start" x="502.5" y="-693.2" font-family="Helvetica,sans-Serif" font-size="11.00"> &#160;</text>
</a>
</g>
</g>
<!-- roi_bluswater.brandkraan_prive&#45;&gt;fase -->
<g id="edge3" class="edge">
<title>roi_bluswater.brandkraan_prive:w&#45;&gt;fase:e</title>
<path fill="none" stroke="black" d="M253.08,-754.3C171.74,-732.56 321.34,-510 215,-510"/>
<polygon fill="black" stroke="black" points="259.56,-755.06 267.08,-759.58 263.53,-755.53 267.5,-756 267.5,-756 267.5,-756 263.53,-755.53 267.92,-752.42 259.56,-755.06 259.56,-755.06"/>
<ellipse fill="none" stroke="black" cx="256.38" cy="-754.69" rx="3.2" ry="3.2"/>
</g>
<!-- roi_bluswater.brandput -->
<g id="node5" class="node">
<title>roi_bluswater.brandput</title>
<g id="a_node5"><a xlink:href="../../../roi_bluswater/tables/brandput.html" xlink:title="roi_bluswater.brandput" target="_top">
<polygon fill="#ffffff" stroke="transparent" points="294,-564 294,-666 487,-666 487,-564 294,-564"/>
<polygon fill="#f5f5f5" stroke="transparent" points="294.5,-644 294.5,-666 487.5,-666 487.5,-644 294.5,-644"/>
<polygon fill="none" stroke="black" points="294.5,-644 294.5,-666 487.5,-666 487.5,-644 294.5,-644"/>
<text text-anchor="start" x="299.5" y="-653.2" font-family="Helvetica,sans-Serif" font-weight="bold" font-size="11.00">roi_bluswater.brandput</text>
<text text-anchor="start" x="445.5" y="-652.2" font-family="Helvetica,sans-Serif" font-size="11.00">[table]</text>
<polygon fill="none" stroke="black" points="294.5,-622 294.5,-644 487.5,-644 487.5,-622 294.5,-622"/>
<image xlink:href="../../images/foreignKeys.png" width="11px" height="12px" preserveAspectRatio="xMinYMin meet" x="299.5" y="-639"/>
<text text-anchor="start" x="316.5" y="-630.2" font-family="Helvetica,sans-Serif" font-size="11.00">fase_id</text>
<polygon fill="none" stroke="black" points="294.5,-600 294.5,-622 487.5,-622 487.5,-600 294.5,-600"/>
<image xlink:href="../../images/foreignKeys.png" width="11px" height="12px" preserveAspectRatio="xMinYMin meet" x="299.5" y="-617"/>
<text text-anchor="start" x="316.5" y="-608.2" font-family="Helvetica,sans-Serif" font-size="11.00">symbool_id</text>
<polygon fill="none" stroke="black" points="294.5,-582 294.5,-600 487.5,-600 487.5,-582 294.5,-582"/>
<text text-anchor="start" x="297.5" y="-588.2" font-family="Helvetica,sans-Serif" font-size="11.00">...</text>
<polygon fill="#ffffff" stroke="transparent" points="294.5,-564 294.5,-582 389.5,-582 389.5,-564 294.5,-564"/>
<polygon fill="none" stroke="black" points="294.5,-564 294.5,-582 389.5,-582 389.5,-564 294.5,-564"/>
<text text-anchor="start" x="297.5" y="-570.2" font-family="Helvetica,sans-Serif" font-size="11.00">&lt; 2</text>
<polygon fill="#ffffff" stroke="transparent" points="389.5,-564 389.5,-582 438.5,-582 438.5,-564 389.5,-564"/>
<polygon fill="none" stroke="black" points="389.5,-564 389.5,-582 438.5,-582 438.5,-564 389.5,-564"/>
<text text-anchor="start" x="427.5" y="-570.2" font-family="Helvetica,sans-Serif" font-size="11.00"> &#160;</text>
<polygon fill="#ffffff" stroke="transparent" points="438.5,-564 438.5,-582 487.5,-582 487.5,-564 438.5,-564"/>
<polygon fill="none" stroke="black" points="438.5,-564 438.5,-582 487.5,-582 487.5,-564 438.5,-564"/>
<text text-anchor="start" x="476.5" y="-570.2" font-family="Helvetica,sans-Serif" font-size="11.00"> &#160;</text>
</a>
</g>
</g>
<!-- roi_bluswater.brandput&#45;&gt;fase -->
<g id="edge4" class="edge">
<title>roi_bluswater.brandput:w&#45;&gt;fase:e</title>
<path fill="none" stroke="black" d="M279.2,-630.43C236.59,-612.77 274.28,-510 215,-510"/>
<polygon fill="black" stroke="black" points="285.63,-631.58 292.86,-636.54 289.56,-632.29 293.5,-633 293.5,-633 293.5,-633 289.56,-632.29 294.14,-629.46 285.63,-631.58 285.63,-631.58"/>
<ellipse fill="none" stroke="black" cx="282.48" cy="-631.02" rx="3.2" ry="3.2"/>
</g>
<!-- roi_bluswater.openwater -->
<g id="node6" class="node">
<title>roi_bluswater.openwater</title>
<g id="a_node6"><a xlink:href="../../../roi_bluswater/tables/openwater.html" xlink:title="roi_bluswater.openwater" target="_top">
<polygon fill="#ffffff" stroke="transparent" points="265,-441 265,-543 516,-543 516,-441 265,-441"/>
<polygon fill="#f5f5f5" stroke="transparent" points="265.5,-521 265.5,-543 516.5,-543 516.5,-521 265.5,-521"/>
<polygon fill="none" stroke="black" points="265.5,-521 265.5,-543 516.5,-543 516.5,-521 265.5,-521"/>
<text text-anchor="start" x="270.5" y="-530.2" font-family="Helvetica,sans-Serif" font-weight="bold" font-size="11.00">roi_bluswater.openwater</text>
<text text-anchor="start" x="474.5" y="-529.2" font-family="Helvetica,sans-Serif" font-size="11.00">[table]</text>
<polygon fill="none" stroke="black" points="265.5,-499 265.5,-521 516.5,-521 516.5,-499 265.5,-499"/>
<image xlink:href="../../images/foreignKeys.png" width="11px" height="12px" preserveAspectRatio="xMinYMin meet" x="270.5" y="-516"/>
<text text-anchor="start" x="285.5" y="-507.2" font-family="Helvetica,sans-Serif" font-size="11.00">fase_id</text>
<polygon fill="none" stroke="black" points="265.5,-477 265.5,-499 516.5,-499 516.5,-477 265.5,-477"/>
<image xlink:href="../../images/foreignKeys.png" width="11px" height="12px" preserveAspectRatio="xMinYMin meet" x="270.5" y="-494"/>
<text text-anchor="start" x="285.5" y="-485.2" font-family="Helvetica,sans-Serif" font-size="11.00">symbool_id</text>
<polygon fill="none" stroke="black" points="265.5,-459 265.5,-477 516.5,-477 516.5,-459 265.5,-459"/>
<text text-anchor="start" x="268.5" y="-465.2" font-family="Helvetica,sans-Serif" font-size="11.00">...</text>
<polygon fill="#ffffff" stroke="transparent" points="265.5,-441 265.5,-459 389.5,-459 389.5,-441 265.5,-441"/>
<polygon fill="none" stroke="black" points="265.5,-441 265.5,-459 389.5,-459 389.5,-441 265.5,-441"/>
<text text-anchor="start" x="268.5" y="-447.2" font-family="Helvetica,sans-Serif" font-size="11.00">&lt; 2</text>
<polygon fill="#ffffff" stroke="transparent" points="389.5,-441 389.5,-459 452.5,-459 452.5,-441 389.5,-441"/>
<polygon fill="none" stroke="black" points="389.5,-441 389.5,-459 452.5,-459 452.5,-441 389.5,-441"/>
<text text-anchor="start" x="441.5" y="-447.2" font-family="Helvetica,sans-Serif" font-size="11.00"> &#160;</text>
<polygon fill="#ffffff" stroke="transparent" points="452.5,-441 452.5,-459 516.5,-459 516.5,-441 452.5,-441"/>
<polygon fill="none" stroke="black" points="452.5,-441 452.5,-459 516.5,-459 516.5,-441 452.5,-441"/>
<text text-anchor="start" x="505.5" y="-447.2" font-family="Helvetica,sans-Serif" font-size="11.00"> &#160;</text>
</a>
</g>
</g>
<!-- roi_bluswater.openwater&#45;&gt;fase -->
<g id="edge5" class="edge">
<title>roi_bluswater.openwater:w&#45;&gt;fase:e</title>
<path fill="none" stroke="black" d="M249.84,-510C238.41,-510 231.16,-510 215,-510"/>
<polygon fill="black" stroke="black" points="256.5,-510 264.5,-513.6 260.5,-510 264.5,-510 264.5,-510 264.5,-510 260.5,-510 264.5,-506.4 256.5,-510 256.5,-510"/>
<ellipse fill="none" stroke="black" cx="253.3" cy="-510" rx="3.2" ry="3.2"/>
</g>
<!-- roi_evenement.object -->
<g id="node7" class="node">
<title>roi_evenement.object</title>
<g id="a_node7"><a xlink:href="../../../roi_evenement/tables/object.html" xlink:title="roi_evenement.object" target="_top">
<polygon fill="#ffffff" stroke="transparent" points="298,-340 298,-420 483,-420 483,-340 298,-340"/>
<polygon fill="#f5f5f5" stroke="transparent" points="298.5,-398 298.5,-420 483.5,-420 483.5,-398 298.5,-398"/>
<polygon fill="none" stroke="black" points="298.5,-398 298.5,-420 483.5,-420 483.5,-398 298.5,-398"/>
<text text-anchor="start" x="303.5" y="-407.2" font-family="Helvetica,sans-Serif" font-weight="bold" font-size="11.00">roi_evenement.object</text>
<text text-anchor="start" x="441.5" y="-406.2" font-family="Helvetica,sans-Serif" font-size="11.00">[table]</text>
<polygon fill="none" stroke="black" points="298.5,-376 298.5,-398 483.5,-398 483.5,-376 298.5,-376"/>
<image xlink:href="../../images/foreignKeys.png" width="11px" height="12px" preserveAspectRatio="xMinYMin meet" x="303.5" y="-393"/>
<text text-anchor="start" x="345.5" y="-384.2" font-family="Helvetica,sans-Serif" font-size="11.00">fase_id</text>
<polygon fill="none" stroke="black" points="298.5,-358 298.5,-376 483.5,-376 483.5,-358 298.5,-358"/>
<text text-anchor="start" x="301.5" y="-364.2" font-family="Helvetica,sans-Serif" font-size="11.00">...</text>
<polygon fill="#ffffff" stroke="transparent" points="298.5,-340 298.5,-358 389.5,-358 389.5,-340 298.5,-340"/>
<polygon fill="none" stroke="black" points="298.5,-340 298.5,-358 389.5,-358 389.5,-340 298.5,-340"/>
<text text-anchor="start" x="301.5" y="-346.2" font-family="Helvetica,sans-Serif" font-size="11.00">&lt; 1</text>
<polygon fill="#ffffff" stroke="transparent" points="389.5,-340 389.5,-358 436.5,-358 436.5,-340 389.5,-340"/>
<polygon fill="none" stroke="black" points="389.5,-340 389.5,-358 436.5,-358 436.5,-340 389.5,-340"/>
<text text-anchor="start" x="425.5" y="-346.2" font-family="Helvetica,sans-Serif" font-size="11.00"> &#160;</text>
<polygon fill="#ffffff" stroke="transparent" points="436.5,-340 436.5,-358 483.5,-358 483.5,-340 436.5,-340"/>
<polygon fill="none" stroke="black" points="436.5,-340 436.5,-358 483.5,-358 483.5,-340 436.5,-340"/>
<text text-anchor="start" x="472.5" y="-346.2" font-family="Helvetica,sans-Serif" font-size="11.00"> &#160;</text>
</a>
</g>
</g>
<!-- roi_evenement.object&#45;&gt;fase -->
<g id="edge6" class="edge">
<title>roi_evenement.object:w&#45;&gt;fase:e</title>
<path fill="none" stroke="black" d="M283.23,-390.17C270.71,-397.08 268.88,-414.23 257,-431 234.01,-463.45 254.76,-510 215,-510"/>
<polygon fill="black" stroke="black" points="289.69,-388.73 298.28,-390.51 293.6,-387.87 297.5,-387 297.5,-387 297.5,-387 293.6,-387.87 296.72,-383.49 289.69,-388.73 289.69,-388.73"/>
<ellipse fill="none" stroke="black" cx="286.57" cy="-389.43" rx="3.2" ry="3.2"/>
</g>
<!-- roi_gebouw.object -->
<g id="node8" class="node">
<title>roi_gebouw.object</title>
<g id="a_node8"><a xlink:href="../../../roi_gebouw/tables/object.html" xlink:title="roi_gebouw.object" target="_top">
<polygon fill="#ffffff" stroke="transparent" points="309,-239 309,-319 472,-319 472,-239 309,-239"/>
<polygon fill="#f5f5f5" stroke="transparent" points="309.5,-297 309.5,-319 472.5,-319 472.5,-297 309.5,-297"/>
<polygon fill="none" stroke="black" points="309.5,-297 309.5,-319 472.5,-319 472.5,-297 309.5,-297"/>
<text text-anchor="start" x="314.5" y="-306.2" font-family="Helvetica,sans-Serif" font-weight="bold" font-size="11.00">roi_gebouw.object</text>
<text text-anchor="start" x="430.5" y="-305.2" font-family="Helvetica,sans-Serif" font-size="11.00">[table]</text>
<polygon fill="none" stroke="black" points="309.5,-275 309.5,-297 472.5,-297 472.5,-275 309.5,-275"/>
<image xlink:href="../../images/foreignKeys.png" width="11px" height="12px" preserveAspectRatio="xMinYMin meet" x="314.5" y="-292"/>
<text text-anchor="start" x="346.5" y="-283.2" font-family="Helvetica,sans-Serif" font-size="11.00">fase_id</text>
<polygon fill="none" stroke="black" points="309.5,-257 309.5,-275 472.5,-275 472.5,-257 309.5,-257"/>
<text text-anchor="start" x="312.5" y="-263.2" font-family="Helvetica,sans-Serif" font-size="11.00">...</text>
<polygon fill="#ffffff" stroke="transparent" points="309.5,-239 309.5,-257 389.5,-257 389.5,-239 309.5,-239"/>
<polygon fill="none" stroke="black" points="309.5,-239 309.5,-257 389.5,-257 389.5,-239 309.5,-239"/>
<text text-anchor="start" x="312.5" y="-245.2" font-family="Helvetica,sans-Serif" font-size="11.00">&lt; 1</text>
<polygon fill="#ffffff" stroke="transparent" points="389.5,-239 389.5,-257 430.5,-257 430.5,-239 389.5,-239"/>
<polygon fill="none" stroke="black" points="389.5,-239 389.5,-257 430.5,-257 430.5,-239 389.5,-239"/>
<text text-anchor="start" x="419.5" y="-245.2" font-family="Helvetica,sans-Serif" font-size="11.00"> &#160;</text>
<polygon fill="#ffffff" stroke="transparent" points="430.5,-239 430.5,-257 472.5,-257 472.5,-239 430.5,-239"/>
<polygon fill="none" stroke="black" points="430.5,-239 430.5,-257 472.5,-257 472.5,-239 430.5,-239"/>
<text text-anchor="start" x="461.5" y="-245.2" font-family="Helvetica,sans-Serif" font-size="11.00"> &#160;</text>
</a>
</g>
</g>
<!-- roi_gebouw.object&#45;&gt;fase -->
<g id="edge7" class="edge">
<title>roi_gebouw.object:w&#45;&gt;fase:e</title>
<path fill="none" stroke="black" d="M294.17,-287.78C275.95,-292.96 269.77,-309 257,-330 214.31,-400.18 297.15,-510 215,-510"/>
<polygon fill="black" stroke="black" points="300.56,-286.99 308.94,-289.57 304.53,-286.49 308.5,-286 308.5,-286 308.5,-286 304.53,-286.49 308.06,-282.43 300.56,-286.99 300.56,-286.99"/>
<ellipse fill="none" stroke="black" cx="297.39" cy="-287.38" rx="3.2" ry="3.2"/>
</g>
<!-- roi_natuurbrand.object -->
<g id="node9" class="node">
<title>roi_natuurbrand.object</title>
<g id="a_node9"><a xlink:href="../../../roi_natuurbrand/tables/object.html" xlink:title="roi_natuurbrand.object" target="_top">
<polygon fill="#ffffff" stroke="transparent" points="294.5,-138 294.5,-218 486.5,-218 486.5,-138 294.5,-138"/>
<polygon fill="#f5f5f5" stroke="transparent" points="294.5,-196 294.5,-218 486.5,-218 486.5,-196 294.5,-196"/>
<polygon fill="none" stroke="black" points="294.5,-196 294.5,-218 486.5,-218 486.5,-196 294.5,-196"/>
<text text-anchor="start" x="299.5" y="-205.2" font-family="Helvetica,sans-Serif" font-weight="bold" font-size="11.00">roi_natuurbrand.object</text>
<text text-anchor="start" x="444.5" y="-204.2" font-family="Helvetica,sans-Serif" font-size="11.00">[table]</text>
<polygon fill="none" stroke="black" points="294.5,-174 294.5,-196 486.5,-196 486.5,-174 294.5,-174"/>
<image xlink:href="../../images/foreignKeys.png" width="11px" height="12px" preserveAspectRatio="xMinYMin meet" x="299.5" y="-191"/>
<text text-anchor="start" x="346.5" y="-182.2" font-family="Helvetica,sans-Serif" font-size="11.00">fase_id</text>
<polygon fill="none" stroke="black" points="294.5,-156 294.5,-174 486.5,-174 486.5,-156 294.5,-156"/>
<text text-anchor="start" x="297.5" y="-162.2" font-family="Helvetica,sans-Serif" font-size="11.00">...</text>
<polygon fill="#ffffff" stroke="transparent" points="294.5,-138 294.5,-156 389.5,-156 389.5,-138 294.5,-138"/>
<polygon fill="none" stroke="black" points="294.5,-138 294.5,-156 389.5,-156 389.5,-138 294.5,-138"/>
<text text-anchor="start" x="297.5" y="-144.2" font-family="Helvetica,sans-Serif" font-size="11.00">&lt; 1</text>
<polygon fill="#ffffff" stroke="transparent" points="389.5,-138 389.5,-156 437.5,-156 437.5,-138 389.5,-138"/>
<polygon fill="none" stroke="black" points="389.5,-138 389.5,-156 437.5,-156 437.5,-138 389.5,-138"/>
<text text-anchor="start" x="426.5" y="-144.2" font-family="Helvetica,sans-Serif" font-size="11.00"> &#160;</text>
<polygon fill="#ffffff" stroke="transparent" points="437.5,-138 437.5,-156 486.5,-156 486.5,-138 437.5,-138"/>
<polygon fill="none" stroke="black" points="437.5,-138 437.5,-156 486.5,-156 486.5,-138 437.5,-138"/>
<text text-anchor="start" x="475.5" y="-144.2" font-family="Helvetica,sans-Serif" font-size="11.00"> &#160;</text>
</a>
</g>
</g>
<!-- roi_natuurbrand.object&#45;&gt;fase -->
<g id="edge8" class="edge">
<title>roi_natuurbrand.object:w&#45;&gt;fase:e</title>
<path fill="none" stroke="black" d="M279.26,-188.19C267.22,-194.88 264.94,-211.24 257,-229 231.23,-286.64 278.14,-510 215,-510"/>
<polygon fill="black" stroke="black" points="285.69,-186.75 294.29,-188.51 289.6,-185.87 293.5,-185 293.5,-185 293.5,-185 289.6,-185.87 292.71,-181.49 285.69,-186.75 285.69,-186.75"/>
<ellipse fill="none" stroke="black" cx="282.57" cy="-187.45" rx="3.2" ry="3.2"/>
</g>
<!-- roi_waterongeval.object -->
<g id="node10" class="node">
<title>roi_waterongeval.object</title>
<g id="a_node10"><a xlink:href="../../../roi_waterongeval/tables/object.html" xlink:title="roi_waterongeval.object" target="_top">
<polygon fill="#ffffff" stroke="transparent" points="290,-37 290,-117 491,-117 491,-37 290,-37"/>
<polygon fill="#f5f5f5" stroke="transparent" points="290.5,-95 290.5,-117 491.5,-117 491.5,-95 290.5,-95"/>
<polygon fill="none" stroke="black" points="290.5,-95 290.5,-117 491.5,-117 491.5,-95 290.5,-95"/>
<text text-anchor="start" x="295.5" y="-104.2" font-family="Helvetica,sans-Serif" font-weight="bold" font-size="11.00">roi_waterongeval.object</text>
<text text-anchor="start" x="449.5" y="-103.2" font-family="Helvetica,sans-Serif" font-size="11.00">[table]</text>
<polygon fill="none" stroke="black" points="290.5,-73 290.5,-95 491.5,-95 491.5,-73 290.5,-73"/>
<image xlink:href="../../images/foreignKeys.png" width="11px" height="12px" preserveAspectRatio="xMinYMin meet" x="295.5" y="-90"/>
<text text-anchor="start" x="346.5" y="-81.2" font-family="Helvetica,sans-Serif" font-size="11.00">fase_id</text>
<polygon fill="none" stroke="black" points="290.5,-55 290.5,-73 491.5,-73 491.5,-55 290.5,-55"/>
<text text-anchor="start" x="293.5" y="-61.2" font-family="Helvetica,sans-Serif" font-size="11.00">...</text>
<polygon fill="#ffffff" stroke="transparent" points="290.5,-37 290.5,-55 389.5,-55 389.5,-37 290.5,-37"/>
<polygon fill="none" stroke="black" points="290.5,-37 290.5,-55 389.5,-55 389.5,-37 290.5,-37"/>
<text text-anchor="start" x="293.5" y="-43.2" font-family="Helvetica,sans-Serif" font-size="11.00">&lt; 1</text>
<polygon fill="#ffffff" stroke="transparent" points="389.5,-37 389.5,-55 440.5,-55 440.5,-37 389.5,-37"/>
<polygon fill="none" stroke="black" points="389.5,-37 389.5,-55 440.5,-55 440.5,-37 389.5,-37"/>
<text text-anchor="start" x="429.5" y="-43.2" font-family="Helvetica,sans-Serif" font-size="11.00"> &#160;</text>
<polygon fill="#ffffff" stroke="transparent" points="440.5,-37 440.5,-55 491.5,-55 491.5,-37 440.5,-37"/>
<polygon fill="none" stroke="black" points="440.5,-37 440.5,-55 491.5,-55 491.5,-37 440.5,-37"/>
<text text-anchor="start" x="480.5" y="-43.2" font-family="Helvetica,sans-Serif" font-size="11.00"> &#160;</text>
</a>
</g>
</g>
<!-- roi_waterongeval.object&#45;&gt;fase -->
<g id="edge9" class="edge">
<title>roi_waterongeval.object:w&#45;&gt;fase:e</title>
<path fill="none" stroke="black" d="M275.15,-87.95C206.04,-130.89 305.66,-510 215,-510"/>
<polygon fill="black" stroke="black" points="281.79,-86.12 290.45,-87.47 285.64,-85.06 289.5,-84 289.5,-84 289.5,-84 285.64,-85.06 288.55,-80.53 281.79,-86.12 281.79,-86.12"/>
<ellipse fill="none" stroke="black" cx="278.7" cy="-86.97" rx="3.2" ry="3.2"/>
</g>
</g>
</svg>
