<?xml version="1.0" encoding="UTF-8" standalone="no"?>
<!DOCTYPE svg PUBLIC "-//W3C//DTD SVG 1.1//EN"
 "http://www.w3.org/Graphics/SVG/1.1/DTD/svg11.dtd">
<!-- Generated by graphviz version 2.50.0 (0)
 -->
<!-- Title: oneDegreeRelationshipsDiagram Pages: 1 -->
<svg width="532pt" height="1047pt"
 viewBox="0.00 0.00 532.00 1047.00" xmlns="http://www.w3.org/2000/svg" xmlns:xlink="http://www.w3.org/1999/xlink">
<g id="graph0" class="graph" transform="scale(1 1) rotate(0) translate(4 1043)">
<title>oneDegreeRelationshipsDiagram</title>
<polygon fill="#ffffff" stroke="transparent" points="-4,4 -4,-1043 528,-1043 528,4 -4,4"/>
<text text-anchor="middle" x="79.5" y="-7.2" font-family="Helvetica,sans-Serif" font-size="11.00">Generated by SchemaSpy</text>
<!-- roi_bluswater.bluswaterriool -->
<g id="node1" class="node">
<title>roi_bluswater.bluswaterriool</title>
<g id="a_node1"><a xlink:href="../../../roi_bluswater/tables/bluswaterriool.html" xlink:title="roi_bluswater.bluswaterriool" target="_top">
<polygon fill="#ffffff" stroke="transparent" points="277,-933 277,-1035 504,-1035 504,-933 277,-933"/>
<polygon fill="#f5f5f5" stroke="transparent" points="277.5,-1013 277.5,-1035 504.5,-1035 504.5,-1013 277.5,-1013"/>
<polygon fill="none" stroke="black" points="277.5,-1013 277.5,-1035 504.5,-1035 504.5,-1013 277.5,-1013"/>
<text text-anchor="start" x="282.5" y="-1022.2" font-family="Helvetica,sans-Serif" font-weight="bold" font-size="11.00">roi_bluswater.bluswaterriool</text>
<text text-anchor="start" x="462.5" y="-1021.2" font-family="Helvetica,sans-Serif" font-size="11.00">[table]</text>
<polygon fill="none" stroke="black" points="277.5,-991 277.5,-1013 504.5,-1013 504.5,-991 277.5,-991"/>
<image xlink:href="../../images/foreignKeys.png" width="11px" height="12px" preserveAspectRatio="xMinYMin meet" x="282.5" y="-1008"/>
<text text-anchor="start" x="325.5" y="-999.2" font-family="Helvetica,sans-Serif" font-size="11.00">fase_id</text>
<polygon fill="none" stroke="black" points="277.5,-969 277.5,-991 504.5,-991 504.5,-969 277.5,-969"/>
<image xlink:href="../../images/foreignKeys.png" width="11px" height="12px" preserveAspectRatio="xMinYMin meet" x="282.5" y="-986"/>
<text text-anchor="start" x="325.5" y="-977.2" font-family="Helvetica,sans-Serif" font-size="11.00">symbool_id</text>
<polygon fill="none" stroke="black" points="277.5,-951 277.5,-969 504.5,-969 504.5,-951 277.5,-951"/>
<text text-anchor="start" x="280.5" y="-957.2" font-family="Helvetica,sans-Serif" font-size="11.00">...</text>
<polygon fill="#ffffff" stroke="transparent" points="277.5,-933 277.5,-951 389.5,-951 389.5,-933 277.5,-933"/>
<polygon fill="none" stroke="black" points="277.5,-933 277.5,-951 389.5,-951 389.5,-933 277.5,-933"/>
<text text-anchor="start" x="280.5" y="-939.2" font-family="Helvetica,sans-Serif" font-size="11.00">&lt; 2</text>
<polygon fill="#ffffff" stroke="transparent" points="389.5,-933 389.5,-951 446.5,-951 446.5,-933 389.5,-933"/>
<polygon fill="none" stroke="black" points="389.5,-933 389.5,-951 446.5,-951 446.5,-933 389.5,-933"/>
<text text-anchor="start" x="435.5" y="-939.2" font-family="Helvetica,sans-Serif" font-size="11.00"> &#160;</text>
<polygon fill="#ffffff" stroke="transparent" points="446.5,-933 446.5,-951 504.5,-951 504.5,-933 446.5,-933"/>
<polygon fill="none" stroke="black" points="446.5,-933 446.5,-951 504.5,-951 504.5,-933 446.5,-933"/>
<text text-anchor="start" x="493.5" y="-939.2" font-family="Helvetica,sans-Serif" font-size="11.00"> &#160;</text>
</a>
</g>
</g>
<!-- symbool -->
<g id="node2" class="node">
<title>symbool</title>
<g id="a_node2"><a xlink:href="../../tables/symbool.html" xlink:title="symbool" target="_top">
<polygon fill="#ffffff" stroke="transparent" points="8,-413 8,-523 216,-523 216,-413 8,-413"/>
<polygon fill="#f5f5f5" stroke="transparent" points="10,-499 10,-521 214,-521 214,-499 10,-499"/>
<polygon fill="none" stroke="black" points="10,-499 10,-521 214,-521 214,-499 10,-499"/>
<text text-anchor="start" x="15" y="-508.2" font-family="Helvetica,sans-Serif" font-weight="bold" font-size="11.00">symbool</text>
<text text-anchor="start" x="172" y="-507.2" font-family="Helvetica,sans-Serif" font-size="11.00">[table]</text>
<polygon fill="none" stroke="black" points="10,-477 10,-499 108,-499 108,-477 10,-477"/>
<image xlink:href="../../images/primaryKeys.png" width="11px" height="12px" preserveAspectRatio="xMinYMin meet" x="15" y="-494"/>
<text text-anchor="start" x="30" y="-485.2" font-family="Helvetica,sans-Serif" font-size="11.00">id</text>
<polygon fill="none" stroke="black" points="108,-477 108,-499 214,-499 214,-477 108,-477"/>
<text text-anchor="start" x="111" y="-485.2" font-family="Helvetica,sans-Serif" font-size="11.00">int2[5]</text>
<polygon fill="none" stroke="black" points="10,-455 10,-477 108,-477 108,-455 10,-455"/>
<text text-anchor="start" x="30" y="-463.2" font-family="Helvetica,sans-Serif" font-size="11.00">naam</text>
<polygon fill="none" stroke="black" points="108,-455 108,-477 214,-477 214,-455 108,-455"/>
<text text-anchor="start" x="111" y="-463.2" font-family="Helvetica,sans-Serif" font-size="11.00">text[2147483647]</text>
<polygon fill="none" stroke="black" points="10,-433 10,-455 108,-455 108,-433 10,-433"/>
<text text-anchor="start" x="30" y="-441.2" font-family="Helvetica,sans-Serif" font-size="11.00">omschrijving</text>
<polygon fill="none" stroke="black" points="108,-433 108,-455 214,-455 214,-433 108,-433"/>
<text text-anchor="start" x="111" y="-441.2" font-family="Helvetica,sans-Serif" font-size="11.00">text[2147483647]</text>
<polygon fill="#ffffff" stroke="transparent" points="10,-415 10,-433 65,-433 65,-415 10,-415"/>
<polygon fill="none" stroke="black" points="10,-415 10,-433 65,-433 65,-415 10,-415"/>
<text text-anchor="start" x="13" y="-421.2" font-family="Helvetica,sans-Serif" font-size="11.00">&lt; 0</text>
<polygon fill="#ffffff" stroke="transparent" points="65,-415 65,-433 108,-433 108,-415 65,-415"/>
<polygon fill="none" stroke="black" points="65,-415 65,-433 108,-433 108,-415 65,-415"/>
<text text-anchor="start" x="97" y="-421.2" font-family="Helvetica,sans-Serif" font-size="11.00"> &#160;</text>
<polygon fill="#ffffff" stroke="transparent" points="108,-415 108,-433 214,-433 214,-415 108,-415"/>
<polygon fill="none" stroke="black" points="108,-415 108,-433 214,-433 214,-415 108,-415"/>
<text text-anchor="start" x="191" y="-421.2" font-family="Helvetica,sans-Serif" font-size="11.00">9 &gt;</text>
<polygon fill="none" stroke="black" stroke-width="2" points="9,-414 9,-522 215,-522 215,-414 9,-414"/>
</a>
</g>
</g>
<!-- roi_bluswater.bluswaterriool&#45;&gt;symbool -->
<g id="edge1" class="edge">
<title>roi_bluswater.bluswaterriool:w&#45;&gt;symbool:e</title>
<path fill="none" stroke="black" d="M262.22,-976.6C181.19,-933.13 319.8,-488 215,-488"/>
<polygon fill="black" stroke="black" points="268.72,-978.14 275.67,-983.5 272.61,-979.07 276.5,-980 276.5,-980 276.5,-980 272.61,-979.07 277.33,-976.5 268.72,-978.14 268.72,-978.14"/>
<ellipse fill="none" stroke="black" cx="265.61" cy="-977.4" rx="3.2" ry="3.2"/>
</g>
<!-- roi_bluswater.brandkraan -->
<g id="node3" class="node">
<title>roi_bluswater.brandkraan</title>
<g id="a_node3"><a xlink:href="../../../roi_bluswater/tables/brandkraan.html" xlink:title="roi_bluswater.brandkraan" target="_top">
<polygon fill="#ffffff" stroke="transparent" points="286.5,-810 286.5,-912 494.5,-912 494.5,-810 286.5,-810"/>
<polygon fill="#f5f5f5" stroke="transparent" points="286.5,-890 286.5,-912 494.5,-912 494.5,-890 286.5,-890"/>
<polygon fill="none" stroke="black" points="286.5,-890 286.5,-912 494.5,-912 494.5,-890 286.5,-890"/>
<text text-anchor="start" x="291.5" y="-899.2" font-family="Helvetica,sans-Serif" font-weight="bold" font-size="11.00">roi_bluswater.brandkraan</text>
<text text-anchor="start" x="452.5" y="-898.2" font-family="Helvetica,sans-Serif" font-size="11.00">[table]</text>
<polygon fill="none" stroke="black" points="286.5,-868 286.5,-890 494.5,-890 494.5,-868 286.5,-868"/>
<image xlink:href="../../images/foreignKeys.png" width="11px" height="12px" preserveAspectRatio="xMinYMin meet" x="291.5" y="-885"/>
<text text-anchor="start" x="308.5" y="-876.2" font-family="Helvetica,sans-Serif" font-size="11.00">fase_id</text>
<polygon fill="none" stroke="black" points="286.5,-846 286.5,-868 494.5,-868 494.5,-846 286.5,-846"/>
<image xlink:href="../../images/foreignKeys.png" width="11px" height="12px" preserveAspectRatio="xMinYMin meet" x="291.5" y="-863"/>
<text text-anchor="start" x="308.5" y="-854.2" font-family="Helvetica,sans-Serif" font-size="11.00">symbool_id</text>
<polygon fill="none" stroke="black" points="286.5,-828 286.5,-846 494.5,-846 494.5,-828 286.5,-828"/>
<text text-anchor="start" x="289.5" y="-834.2" font-family="Helvetica,sans-Serif" font-size="11.00">...</text>
<polygon fill="#ffffff" stroke="transparent" points="286.5,-810 286.5,-828 389.5,-828 389.5,-810 286.5,-810"/>
<polygon fill="none" stroke="black" points="286.5,-810 286.5,-828 389.5,-828 389.5,-810 286.5,-810"/>
<text text-anchor="start" x="289.5" y="-816.2" font-family="Helvetica,sans-Serif" font-size="11.00">&lt; 2</text>
<polygon fill="#ffffff" stroke="transparent" points="389.5,-810 389.5,-828 441.5,-828 441.5,-810 389.5,-810"/>
<polygon fill="none" stroke="black" points="389.5,-810 389.5,-828 441.5,-828 441.5,-810 389.5,-810"/>
<text text-anchor="start" x="430.5" y="-816.2" font-family="Helvetica,sans-Serif" font-size="11.00"> &#160;</text>
<polygon fill="#ffffff" stroke="transparent" points="441.5,-810 441.5,-828 494.5,-828 494.5,-810 441.5,-810"/>
<polygon fill="none" stroke="black" points="441.5,-810 441.5,-828 494.5,-828 494.5,-810 441.5,-810"/>
<text text-anchor="start" x="483.5" y="-816.2" font-family="Helvetica,sans-Serif" font-size="11.00"> &#160;</text>
</a>
</g>
</g>
<!-- roi_bluswater.brandkraan&#45;&gt;symbool -->
<g id="edge2" class="edge">
<title>roi_bluswater.brandkraan:w&#45;&gt;symbool:e</title>
<path fill="none" stroke="black" d="M271.5,-852.6C213.7,-810.97 293.1,-488 215,-488"/>
<polygon fill="black" stroke="black" points="277.87,-854.6 284.42,-860.43 281.68,-855.8 285.5,-857 285.5,-857 285.5,-857 281.68,-855.8 286.58,-853.57 277.87,-854.6 277.87,-854.6"/>
<ellipse fill="none" stroke="black" cx="274.82" cy="-853.64" rx="3.2" ry="3.2"/>
</g>
<!-- roi_bluswater.brandkraan_prive -->
<g id="node4" class="node">
<title>roi_bluswater.brandkraan_prive</title>
<g id="a_node4"><a xlink:href="../../../roi_bluswater/tables/brandkraan_prive.html" xlink:title="roi_bluswater.brandkraan_prive" target="_top">
<polygon fill="#ffffff" stroke="transparent" points="268,-687 268,-789 513,-789 513,-687 268,-687"/>
<polygon fill="#f5f5f5" stroke="transparent" points="268.5,-767 268.5,-789 513.5,-789 513.5,-767 268.5,-767"/>
<polygon fill="none" stroke="black" points="268.5,-767 268.5,-789 513.5,-789 513.5,-767 268.5,-767"/>
<text text-anchor="start" x="273.5" y="-776.2" font-family="Helvetica,sans-Serif" font-weight="bold" font-size="11.00">roi_bluswater.brandkraan_prive</text>
<text text-anchor="start" x="471.5" y="-775.2" font-family="Helvetica,sans-Serif" font-size="11.00">[table]</text>
<polygon fill="none" stroke="black" points="268.5,-745 268.5,-767 513.5,-767 513.5,-745 268.5,-745"/>
<image xlink:href="../../images/foreignKeys.png" width="11px" height="12px" preserveAspectRatio="xMinYMin meet" x="273.5" y="-762"/>
<text text-anchor="start" x="308.5" y="-753.2" font-family="Helvetica,sans-Serif" font-size="11.00">fase_id</text>
<polygon fill="none" stroke="black" points="268.5,-723 268.5,-745 513.5,-745 513.5,-723 268.5,-723"/>
<image xlink:href="../../images/foreignKeys.png" width="11px" height="12px" preserveAspectRatio="xMinYMin meet" x="273.5" y="-740"/>
<text text-anchor="start" x="308.5" y="-731.2" font-family="Helvetica,sans-Serif" font-size="11.00">symbool_id</text>
<polygon fill="none" stroke="black" points="268.5,-705 268.5,-723 513.5,-723 513.5,-705 268.5,-705"/>
<text text-anchor="start" x="271.5" y="-711.2" font-family="Helvetica,sans-Serif" font-size="11.00">...</text>
<polygon fill="#ffffff" stroke="transparent" points="268.5,-687 268.5,-705 389.5,-705 389.5,-687 268.5,-687"/>
<polygon fill="none" stroke="black" points="268.5,-687 268.5,-705 389.5,-705 389.5,-687 268.5,-687"/>
<text text-anchor="start" x="271.5" y="-693.2" font-family="Helvetica,sans-Serif" font-size="11.00">&lt; 2</text>
<polygon fill="#ffffff" stroke="transparent" points="389.5,-687 389.5,-705 451.5,-705 451.5,-687 389.5,-687"/>
<polygon fill="none" stroke="black" points="389.5,-687 389.5,-705 451.5,-705 451.5,-687 389.5,-687"/>
<text text-anchor="start" x="440.5" y="-693.2" font-family="Helvetica,sans-Serif" font-size="11.00"> &#160;</text>
<polygon fill="#ffffff" stroke="transparent" points="451.5,-687 451.5,-705 513.5,-705 513.5,-687 451.5,-687"/>
<polygon fill="none" stroke="black" points="451.5,-687 451.5,-705 513.5,-705 513.5,-687 451.5,-687"/>
<text text-anchor="start" x="502.5" y="-693.2" font-family="Helvetica,sans-Serif" font-size="11.00"> &#160;</text>
</a>
</g>
</g>
<!-- roi_bluswater.brandkraan_prive&#45;&gt;symbool -->
<g id="edge3" class="edge">
<title>roi_bluswater.brandkraan_prive:w&#45;&gt;symbool:e</title>
<path fill="none" stroke="black" d="M253.08,-732.3C171.74,-710.56 321.34,-488 215,-488"/>
<polygon fill="black" stroke="black" points="259.56,-733.06 267.08,-737.58 263.53,-733.53 267.5,-734 267.5,-734 267.5,-734 263.53,-733.53 267.92,-730.42 259.56,-733.06 259.56,-733.06"/>
<ellipse fill="none" stroke="black" cx="256.38" cy="-732.69" rx="3.2" ry="3.2"/>
</g>
<!-- roi_bluswater.brandput -->
<g id="node5" class="node">
<title>roi_bluswater.brandput</title>
<g id="a_node5"><a xlink:href="../../../roi_bluswater/tables/brandput.html" xlink:title="roi_bluswater.brandput" target="_top">
<polygon fill="#ffffff" stroke="transparent" points="294,-564 294,-666 487,-666 487,-564 294,-564"/>
<polygon fill="#f5f5f5" stroke="transparent" points="294.5,-644 294.5,-666 487.5,-666 487.5,-644 294.5,-644"/>
<polygon fill="none" stroke="black" points="294.5,-644 294.5,-666 487.5,-666 487.5,-644 294.5,-644"/>
<text text-anchor="start" x="299.5" y="-653.2" font-family="Helvetica,sans-Serif" font-weight="bold" font-size="11.00">roi_bluswater.brandput</text>
<text text-anchor="start" x="445.5" y="-652.2" font-family="Helvetica,sans-Serif" font-size="11.00">[table]</text>
<polygon fill="none" stroke="black" points="294.5,-622 294.5,-644 487.5,-644 487.5,-622 294.5,-622"/>
<image xlink:href="../../images/foreignKeys.png" width="11px" height="12px" preserveAspectRatio="xMinYMin meet" x="299.5" y="-639"/>
<text text-anchor="start" x="316.5" y="-630.2" font-family="Helvetica,sans-Serif" font-size="11.00">fase_id</text>
<polygon fill="none" stroke="black" points="294.5,-600 294.5,-622 487.5,-622 487.5,-600 294.5,-600"/>
<image xlink:href="../../images/foreignKeys.png" width="11px" height="12px" preserveAspectRatio="xMinYMin meet" x="299.5" y="-617"/>
<text text-anchor="start" x="316.5" y="-608.2" font-family="Helvetica,sans-Serif" font-size="11.00">symbool_id</text>
<polygon fill="none" stroke="black" points="294.5,-582 294.5,-600 487.5,-600 487.5,-582 294.5,-582"/>
<text text-anchor="start" x="297.5" y="-588.2" font-family="Helvetica,sans-Serif" font-size="11.00">...</text>
<polygon fill="#ffffff" stroke="transparent" points="294.5,-564 294.5,-582 389.5,-582 389.5,-564 294.5,-564"/>
<polygon fill="none" stroke="black" points="294.5,-564 294.5,-582 389.5,-582 389.5,-564 294.5,-564"/>
<text text-anchor="start" x="297.5" y="-570.2" font-family="Helvetica,sans-Serif" font-size="11.00">&lt; 2</text>
<polygon fill="#ffffff" stroke="transparent" points="389.5,-564 389.5,-582 438.5,-582 438.5,-564 389.5,-564"/>
<polygon fill="none" stroke="black" points="389.5,-564 389.5,-582 438.5,-582 438.5,-564 389.5,-564"/>
<text text-anchor="start" x="427.5" y="-570.2" font-family="Helvetica,sans-Serif" font-size="11.00"> &#160;</text>
<polygon fill="#ffffff" stroke="transparent" points="438.5,-564 438.5,-582 487.5,-582 487.5,-564 438.5,-564"/>
<polygon fill="none" stroke="black" points="438.5,-564 438.5,-582 487.5,-582 487.5,-564 438.5,-564"/>
<text text-anchor="start" x="476.5" y="-570.2" font-family="Helvetica,sans-Serif" font-size="11.00"> &#160;</text>
</a>
</g>
</g>
<!-- roi_bluswater.brandput&#45;&gt;symbool -->
<g id="edge4" class="edge">
<title>roi_bluswater.brandput:w&#45;&gt;symbool:e</title>
<path fill="none" stroke="black" d="M279.2,-608.43C236.59,-590.77 274.28,-488 215,-488"/>
<polygon fill="black" stroke="black" points="285.63,-609.58 292.86,-614.54 289.56,-610.29 293.5,-611 293.5,-611 293.5,-611 289.56,-610.29 294.14,-607.46 285.63,-609.58 285.63,-609.58"/>
<ellipse fill="none" stroke="black" cx="282.48" cy="-609.02" rx="3.2" ry="3.2"/>
</g>
<!-- roi_bluswater.openwater -->
<g id="node6" class="node">
<title>roi_bluswater.openwater</title>
<g id="a_node6"><a xlink:href="../../../roi_bluswater/tables/openwater.html" xlink:title="roi_bluswater.openwater" target="_top">
<polygon fill="#ffffff" stroke="transparent" points="265,-441 265,-543 516,-543 516,-441 265,-441"/>
<polygon fill="#f5f5f5" stroke="transparent" points="265.5,-521 265.5,-543 516.5,-543 516.5,-521 265.5,-521"/>
<polygon fill="none" stroke="black" points="265.5,-521 265.5,-543 516.5,-543 516.5,-521 265.5,-521"/>
<text text-anchor="start" x="270.5" y="-530.2" font-family="Helvetica,sans-Serif" font-weight="bold" font-size="11.00">roi_bluswater.openwater</text>
<text text-anchor="start" x="474.5" y="-529.2" font-family="Helvetica,sans-Serif" font-size="11.00">[table]</text>
<polygon fill="none" stroke="black" points="265.5,-499 265.5,-521 516.5,-521 516.5,-499 265.5,-499"/>
<image xlink:href="../../images/foreignKeys.png" width="11px" height="12px" preserveAspectRatio="xMinYMin meet" x="270.5" y="-516"/>
<text text-anchor="start" x="285.5" y="-507.2" font-family="Helvetica,sans-Serif" font-size="11.00">fase_id</text>
<polygon fill="none" stroke="black" points="265.5,-477 265.5,-499 516.5,-499 516.5,-477 265.5,-477"/>
<image xlink:href="../../images/foreignKeys.png" width="11px" height="12px" preserveAspectRatio="xMinYMin meet" x="270.5" y="-494"/>
<text text-anchor="start" x="285.5" y="-485.2" font-family="Helvetica,sans-Serif" font-size="11.00">symbool_id</text>
<polygon fill="none" stroke="black" points="265.5,-459 265.5,-477 516.5,-477 516.5,-459 265.5,-459"/>
<text text-anchor="start" x="268.5" y="-465.2" font-family="Helvetica,sans-Serif" font-size="11.00">...</text>
<polygon fill="#ffffff" stroke="transparent" points="265.5,-441 265.5,-459 389.5,-459 389.5,-441 265.5,-441"/>
<polygon fill="none" stroke="black" points="265.5,-441 265.5,-459 389.5,-459 389.5,-441 265.5,-441"/>
<text text-anchor="start" x="268.5" y="-447.2" font-family="Helvetica,sans-Serif" font-size="11.00">&lt; 2</text>
<polygon fill="#ffffff" stroke="transparent" points="389.5,-441 389.5,-459 452.5,-459 452.5,-441 389.5,-441"/>
<polygon fill="none" stroke="black" points="389.5,-441 389.5,-459 452.5,-459 452.5,-441 389.5,-441"/>
<text text-anchor="start" x="441.5" y="-447.2" font-family="Helvetica,sans-Serif" font-size="11.00"> &#160;</text>
<polygon fill="#ffffff" stroke="transparent" points="452.5,-441 452.5,-459 516.5,-459 516.5,-441 452.5,-441"/>
<polygon fill="none" stroke="black" points="452.5,-441 452.5,-459 516.5,-459 516.5,-441 452.5,-441"/>
<text text-anchor="start" x="505.5" y="-447.2" font-family="Helvetica,sans-Serif" font-size="11.00"> &#160;</text>
</a>
</g>
</g>
<!-- roi_bluswater.openwater&#45;&gt;symbool -->
<g id="edge5" class="edge">
<title>roi_bluswater.openwater:w&#45;&gt;symbool:e</title>
<path fill="none" stroke="black" d="M249.84,-488C238.41,-488 231.16,-488 215,-488"/>
<polygon fill="black" stroke="black" points="256.5,-488 264.5,-491.6 260.5,-488 264.5,-488 264.5,-488 264.5,-488 260.5,-488 264.5,-484.4 256.5,-488 256.5,-488"/>
<ellipse fill="none" stroke="black" cx="253.3" cy="-488" rx="3.2" ry="3.2"/>
</g>
<!-- roi_evenement.voorziening -->
<g id="node7" class="node">
<title>roi_evenement.voorziening</title>
<g id="a_node7"><a xlink:href="../../../roi_evenement/tables/voorziening.html" xlink:title="roi_evenement.voorziening" target="_top">
<polygon fill="#ffffff" stroke="transparent" points="281,-340 281,-420 500,-420 500,-340 281,-340"/>
<polygon fill="#f5f5f5" stroke="transparent" points="281.5,-398 281.5,-420 500.5,-420 500.5,-398 281.5,-398"/>
<polygon fill="none" stroke="black" points="281.5,-398 281.5,-420 500.5,-420 500.5,-398 281.5,-398"/>
<text text-anchor="start" x="286.5" y="-407.2" font-family="Helvetica,sans-Serif" font-weight="bold" font-size="11.00">roi_evenement.voorziening</text>
<text text-anchor="start" x="458.5" y="-406.2" font-family="Helvetica,sans-Serif" font-size="11.00">[table]</text>
<polygon fill="none" stroke="black" points="281.5,-376 281.5,-398 500.5,-398 500.5,-376 281.5,-376"/>
<image xlink:href="../../images/foreignKeys.png" width="11px" height="12px" preserveAspectRatio="xMinYMin meet" x="286.5" y="-393"/>
<text text-anchor="start" x="354.5" y="-384.2" font-family="Helvetica,sans-Serif" font-size="11.00">symbool_id</text>
<polygon fill="none" stroke="black" points="281.5,-358 281.5,-376 500.5,-376 500.5,-358 281.5,-358"/>
<text text-anchor="start" x="284.5" y="-364.2" font-family="Helvetica,sans-Serif" font-size="11.00">...</text>
<polygon fill="#ffffff" stroke="transparent" points="281.5,-340 281.5,-358 389.5,-358 389.5,-340 281.5,-340"/>
<polygon fill="none" stroke="black" points="281.5,-340 281.5,-358 389.5,-358 389.5,-340 281.5,-340"/>
<text text-anchor="start" x="284.5" y="-346.2" font-family="Helvetica,sans-Serif" font-size="11.00">&lt; 1</text>
<polygon fill="#ffffff" stroke="transparent" points="389.5,-340 389.5,-358 444.5,-358 444.5,-340 389.5,-340"/>
<polygon fill="none" stroke="black" points="389.5,-340 389.5,-358 444.5,-358 444.5,-340 389.5,-340"/>
<text text-anchor="start" x="433.5" y="-346.2" font-family="Helvetica,sans-Serif" font-size="11.00"> &#160;</text>
<polygon fill="#ffffff" stroke="transparent" points="444.5,-340 444.5,-358 500.5,-358 500.5,-340 444.5,-340"/>
<polygon fill="none" stroke="black" points="444.5,-340 444.5,-358 500.5,-358 500.5,-340 444.5,-340"/>
<text text-anchor="start" x="489.5" y="-346.2" font-family="Helvetica,sans-Serif" font-size="11.00"> &#160;</text>
</a>
</g>
</g>
<!-- roi_evenement.voorziening&#45;&gt;symbool -->
<g id="edge6" class="edge">
<title>roi_evenement.voorziening:w&#45;&gt;symbool:e</title>
<path fill="none" stroke="black" d="M266.11,-390.36C234.94,-407.89 262.65,-488 215,-488"/>
<polygon fill="black" stroke="black" points="272.71,-388.82 281.32,-390.51 276.6,-387.91 280.5,-387 280.5,-387 280.5,-387 276.6,-387.91 279.68,-383.49 272.71,-388.82 272.71,-388.82"/>
<ellipse fill="none" stroke="black" cx="269.59" cy="-389.55" rx="3.2" ry="3.2"/>
</g>
<!-- roi_gebouw.voorziening -->
<g id="node8" class="node">
<title>roi_gebouw.voorziening</title>
<g id="a_node8"><a xlink:href="../../../roi_gebouw/tables/voorziening.html" xlink:title="roi_gebouw.voorziening" target="_top">
<polygon fill="#ffffff" stroke="transparent" points="292,-239 292,-319 489,-319 489,-239 292,-239"/>
<polygon fill="#f5f5f5" stroke="transparent" points="292.5,-297 292.5,-319 489.5,-319 489.5,-297 292.5,-297"/>
<polygon fill="none" stroke="black" points="292.5,-297 292.5,-319 489.5,-319 489.5,-297 292.5,-297"/>
<text text-anchor="start" x="297.5" y="-306.2" font-family="Helvetica,sans-Serif" font-weight="bold" font-size="11.00">roi_gebouw.voorziening</text>
<text text-anchor="start" x="447.5" y="-305.2" font-family="Helvetica,sans-Serif" font-size="11.00">[table]</text>
<polygon fill="none" stroke="black" points="292.5,-275 292.5,-297 489.5,-297 489.5,-275 292.5,-275"/>
<image xlink:href="../../images/foreignKeys.png" width="11px" height="12px" preserveAspectRatio="xMinYMin meet" x="297.5" y="-292"/>
<text text-anchor="start" x="354.5" y="-283.2" font-family="Helvetica,sans-Serif" font-size="11.00">symbool_id</text>
<polygon fill="none" stroke="black" points="292.5,-257 292.5,-275 489.5,-275 489.5,-257 292.5,-257"/>
<text text-anchor="start" x="295.5" y="-263.2" font-family="Helvetica,sans-Serif" font-size="11.00">...</text>
<polygon fill="#ffffff" stroke="transparent" points="292.5,-239 292.5,-257 389.5,-257 389.5,-239 292.5,-239"/>
<polygon fill="none" stroke="black" points="292.5,-239 292.5,-257 389.5,-257 389.5,-239 292.5,-239"/>
<text text-anchor="start" x="295.5" y="-245.2" font-family="Helvetica,sans-Serif" font-size="11.00">&lt; 1</text>
<polygon fill="#ffffff" stroke="transparent" points="389.5,-239 389.5,-257 439.5,-257 439.5,-239 389.5,-239"/>
<polygon fill="none" stroke="black" points="389.5,-239 389.5,-257 439.5,-257 439.5,-239 389.5,-239"/>
<text text-anchor="start" x="428.5" y="-245.2" font-family="Helvetica,sans-Serif" font-size="11.00"> &#160;</text>
<polygon fill="#ffffff" stroke="transparent" points="439.5,-239 439.5,-257 489.5,-257 489.5,-239 439.5,-239"/>
<polygon fill="none" stroke="black" points="439.5,-239 439.5,-257 489.5,-257 489.5,-239 439.5,-239"/>
<text text-anchor="start" x="478.5" y="-245.2" font-family="Helvetica,sans-Serif" font-size="11.00"> &#160;</text>
</a>
</g>
</g>
<!-- roi_gebouw.voorziening&#45;&gt;symbool -->
<g id="edge7" class="edge">
<title>roi_gebouw.voorziening:w&#45;&gt;symbool:e</title>
<path fill="none" stroke="black" d="M277.15,-287.87C207.91,-308.23 305.56,-488 215,-488"/>
<polygon fill="black" stroke="black" points="283.57,-287.03 291.97,-289.57 287.53,-286.52 291.5,-286 291.5,-286 291.5,-286 287.53,-286.52 291.03,-282.43 283.57,-287.03 283.57,-287.03"/>
<ellipse fill="none" stroke="black" cx="280.39" cy="-287.45" rx="3.2" ry="3.2"/>
</g>
<!-- roi_natuurbrand.voorziening -->
<g id="node9" class="node">
<title>roi_natuurbrand.voorziening</title>
<g id="a_node9"><a xlink:href="../../../roi_natuurbrand/tables/voorziening.html" xlink:title="roi_natuurbrand.voorziening" target="_top">
<polygon fill="#ffffff" stroke="transparent" points="277.5,-138 277.5,-218 503.5,-218 503.5,-138 277.5,-138"/>
<polygon fill="#f5f5f5" stroke="transparent" points="277.5,-196 277.5,-218 503.5,-218 503.5,-196 277.5,-196"/>
<polygon fill="none" stroke="black" points="277.5,-196 277.5,-218 503.5,-218 503.5,-196 277.5,-196"/>
<text text-anchor="start" x="282.5" y="-205.2" font-family="Helvetica,sans-Serif" font-weight="bold" font-size="11.00">roi_natuurbrand.voorziening</text>
<text text-anchor="start" x="461.5" y="-204.2" font-family="Helvetica,sans-Serif" font-size="11.00">[table]</text>
<polygon fill="none" stroke="black" points="277.5,-174 277.5,-196 503.5,-196 503.5,-174 277.5,-174"/>
<image xlink:href="../../images/foreignKeys.png" width="11px" height="12px" preserveAspectRatio="xMinYMin meet" x="282.5" y="-191"/>
<text text-anchor="start" x="353.5" y="-182.2" font-family="Helvetica,sans-Serif" font-size="11.00">symbool_id</text>
<polygon fill="none" stroke="black" points="277.5,-156 277.5,-174 503.5,-174 503.5,-156 277.5,-156"/>
<text text-anchor="start" x="280.5" y="-162.2" font-family="Helvetica,sans-Serif" font-size="11.00">...</text>
<polygon fill="#ffffff" stroke="transparent" points="277.5,-138 277.5,-156 389.5,-156 389.5,-138 277.5,-138"/>
<polygon fill="none" stroke="black" points="277.5,-138 277.5,-156 389.5,-156 389.5,-138 277.5,-138"/>
<text text-anchor="start" x="280.5" y="-144.2" font-family="Helvetica,sans-Serif" font-size="11.00">&lt; 1</text>
<polygon fill="#ffffff" stroke="transparent" points="389.5,-138 389.5,-156 446.5,-156 446.5,-138 389.5,-138"/>
<polygon fill="none" stroke="black" points="389.5,-138 389.5,-156 446.5,-156 446.5,-138 389.5,-138"/>
<text text-anchor="start" x="435.5" y="-144.2" font-family="Helvetica,sans-Serif" font-size="11.00"> &#160;</text>
<polygon fill="#ffffff" stroke="transparent" points="446.5,-138 446.5,-156 503.5,-156 503.5,-138 446.5,-138"/>
<polygon fill="none" stroke="black" points="446.5,-138 446.5,-156 503.5,-156 503.5,-138 446.5,-138"/>
<text text-anchor="start" x="492.5" y="-144.2" font-family="Helvetica,sans-Serif" font-size="11.00"> &#160;</text>
</a>
</g>
</g>
<!-- roi_natuurbrand.voorziening&#45;&gt;symbool -->
<g id="edge8" class="edge">
<title>roi_natuurbrand.voorziening:w&#45;&gt;symbool:e</title>
<path fill="none" stroke="black" d="M262.91,-190.26C218.77,-230.49 278.34,-488 215,-488"/>
<polygon fill="black" stroke="black" points="269.04,-187.89 277.8,-188.36 272.77,-186.44 276.5,-185 276.5,-185 276.5,-185 272.77,-186.44 275.2,-181.64 269.04,-187.89 269.04,-187.89"/>
<ellipse fill="none" stroke="black" cx="266.05" cy="-189.04" rx="3.2" ry="3.2"/>
</g>
<!-- roi_waterongeval.voorziening -->
<g id="node10" class="node">
<title>roi_waterongeval.voorziening</title>
<g id="a_node10"><a xlink:href="../../../roi_waterongeval/tables/voorziening.html" xlink:title="roi_waterongeval.voorziening" target="_top">
<polygon fill="#ffffff" stroke="transparent" points="273,-37 273,-117 508,-117 508,-37 273,-37"/>
<polygon fill="#f5f5f5" stroke="transparent" points="273.5,-95 273.5,-117 508.5,-117 508.5,-95 273.5,-95"/>
<polygon fill="none" stroke="black" points="273.5,-95 273.5,-117 508.5,-117 508.5,-95 273.5,-95"/>
<text text-anchor="start" x="278.5" y="-104.2" font-family="Helvetica,sans-Serif" font-weight="bold" font-size="11.00">roi_waterongeval.voorziening</text>
<text text-anchor="start" x="466.5" y="-103.2" font-family="Helvetica,sans-Serif" font-size="11.00">[table]</text>
<polygon fill="none" stroke="black" points="273.5,-73 273.5,-95 508.5,-95 508.5,-73 273.5,-73"/>
<image xlink:href="../../images/foreignKeys.png" width="11px" height="12px" preserveAspectRatio="xMinYMin meet" x="278.5" y="-90"/>
<text text-anchor="start" x="354.5" y="-81.2" font-family="Helvetica,sans-Serif" font-size="11.00">symbool_id</text>
<polygon fill="none" stroke="black" points="273.5,-55 273.5,-73 508.5,-73 508.5,-55 273.5,-55"/>
<text text-anchor="start" x="276.5" y="-61.2" font-family="Helvetica,sans-Serif" font-size="11.00">...</text>
<polygon fill="#ffffff" stroke="transparent" points="273.5,-37 273.5,-55 389.5,-55 389.5,-37 273.5,-37"/>
<polygon fill="none" stroke="black" points="273.5,-37 273.5,-55 389.5,-55 389.5,-37 273.5,-37"/>
<text text-anchor="start" x="276.5" y="-43.2" font-family="Helvetica,sans-Serif" font-size="11.00">&lt; 1</text>
<polygon fill="#ffffff" stroke="transparent" points="389.5,-37 389.5,-55 448.5,-55 448.5,-37 389.5,-37"/>
<polygon fill="none" stroke="black" points="389.5,-37 389.5,-55 448.5,-55 448.5,-37 389.5,-37"/>
<text text-anchor="start" x="437.5" y="-43.2" font-family="Helvetica,sans-Serif" font-size="11.00"> &#160;</text>
<polygon fill="#ffffff" stroke="transparent" points="448.5,-37 448.5,-55 508.5,-55 508.5,-37 448.5,-37"/>
<polygon fill="none" stroke="black" points="448.5,-37 448.5,-55 508.5,-55 508.5,-37 448.5,-37"/>
<text text-anchor="start" x="497.5" y="-43.2" font-family="Helvetica,sans-Serif" font-size="11.00"> &#160;</text>
</a>
</g>
</g>
<!-- roi_waterongeval.voorziening&#45;&gt;symbool -->
<g id="edge9" class="edge">
<title>roi_waterongeval.voorziening:w&#45;&gt;symbool:e</title>
<path fill="none" stroke="black" d="M258.29,-88.26C196.03,-131.44 300.19,-488 215,-488"/>
<polygon fill="black" stroke="black" points="264.84,-86.3 273.53,-87.45 268.67,-85.15 272.5,-84 272.5,-84 272.5,-84 268.67,-85.15 271.47,-80.55 264.84,-86.3 264.84,-86.3"/>
<ellipse fill="none" stroke="black" cx="261.77" cy="-87.22" rx="3.2" ry="3.2"/>
</g>
</g>
</svg>
