<?xml version="1.0" encoding="UTF-8" standalone="no"?>
<!DOCTYPE svg PUBLIC "-//W3C//DTD SVG 1.1//EN"
 "http://www.w3.org/Graphics/SVG/1.1/DTD/svg11.dtd">
<!-- Generated by graphviz version 2.40.1 (20161225.0304)
 -->
<!-- Title: oneDegreeRelationshipsDiagram Pages: 1 -->
<svg width="503pt" height="1179pt"
 viewBox="0.00 0.00 503.00 1179.20" xmlns="http://www.w3.org/2000/svg" xmlns:xlink="http://www.w3.org/1999/xlink">
<g id="graph0" class="graph" transform="scale(1 1) rotate(0) translate(4 1175.2)">
<title>oneDegreeRelationshipsDiagram</title>
<polygon fill="#ffffff" stroke="transparent" points="-4,4 -4,-1175.2 499,-1175.2 499,4 -4,4"/>
<text text-anchor="middle" x="72.4936" y="-7.3" font-family="Helvetica,sans-Serif" font-size="11.00" fill="#000000">Generated by SchemaSpy</text>
<!-- roi_bluswater.bluswaterriool -->
<g id="node1" class="node">
<title>roi_bluswater.bluswaterriool</title>
<g id="a_node1"><a xlink:href="../../../roi_bluswater/tables/bluswaterriool.html" xlink:title="roi_bluswater.bluswaterriool" target="_top">
<polygon fill="#ffffff" stroke="transparent" points="265.5,-1062.2 265.5,-1167.2 467.5,-1167.2 467.5,-1062.2 265.5,-1062.2"/>
<polygon fill="#f5f5f5" stroke="transparent" points="265.5,-1143.7 265.5,-1166.7 467.5,-1166.7 467.5,-1143.7 265.5,-1143.7"/>
<polygon fill="none" stroke="#000000" points="265.5,-1143.7 265.5,-1166.7 467.5,-1166.7 467.5,-1143.7 265.5,-1143.7"/>
<text text-anchor="start" x="270.5" y="-1152.3" font-family="Helvetica,sans-Serif" font-weight="bold" font-size="11.00" fill="#000000">roi_bluswater.bluswaterriool</text>
<text text-anchor="start" x="433.0219" y="-1151.8" font-family="Helvetica,sans-Serif" font-size="11.00" fill="#000000">[table]</text>
<polygon fill="none" stroke="#000000" points="265.5,-1121.7 265.5,-1143.7 467.5,-1143.7 467.5,-1121.7 265.5,-1121.7"/>
<image xlink:href="../../images/foreignKeys.png" width="11px" height="12px" preserveAspectRatio="xMinYMin meet" x="270.5" y="-1138.7"/>
<text text-anchor="start" x="304.5" y="-1128.8" font-family="Helvetica,sans-Serif" font-size="11.00" fill="#000000">fase_id</text>
<polygon fill="none" stroke="#000000" points="265.5,-1099.7 265.5,-1121.7 467.5,-1121.7 467.5,-1099.7 265.5,-1099.7"/>
<image xlink:href="../../images/foreignKeys.png" width="11px" height="12px" preserveAspectRatio="xMinYMin meet" x="270.5" y="-1116.7"/>
<text text-anchor="start" x="304.5" y="-1106.8" font-family="Helvetica,sans-Serif" font-size="11.00" fill="#000000">symbool_id</text>
<polygon fill="none" stroke="#000000" points="265.5,-1080.7 265.5,-1099.7 467.5,-1099.7 467.5,-1080.7 265.5,-1080.7"/>
<text text-anchor="start" x="268.5" y="-1086.8" font-family="Helvetica,sans-Serif" font-size="11.00" fill="#000000">...</text>
<polygon fill="#ffffff" stroke="transparent" points="265.5,-1061.7 265.5,-1080.7 364.5,-1080.7 364.5,-1061.7 265.5,-1061.7"/>
<polygon fill="none" stroke="#000000" points="265.5,-1061.7 265.5,-1080.7 364.5,-1080.7 364.5,-1061.7 265.5,-1061.7"/>
<text text-anchor="start" x="268.5" y="-1067.8" font-family="Helvetica,sans-Serif" font-size="11.00" fill="#000000">&lt; 2</text>
<polygon fill="#ffffff" stroke="transparent" points="364.5,-1061.7 364.5,-1080.7 415.5,-1080.7 415.5,-1061.7 364.5,-1061.7"/>
<polygon fill="none" stroke="#000000" points="364.5,-1061.7 364.5,-1080.7 415.5,-1080.7 415.5,-1061.7 364.5,-1061.7"/>
<text text-anchor="start" x="406.3862" y="-1067.8" font-family="Helvetica,sans-Serif" font-size="11.00" fill="#000000"> &#160;</text>
<polygon fill="#ffffff" stroke="transparent" points="415.5,-1061.7 415.5,-1080.7 467.5,-1080.7 467.5,-1061.7 415.5,-1061.7"/>
<polygon fill="none" stroke="#000000" points="415.5,-1061.7 415.5,-1080.7 467.5,-1080.7 467.5,-1061.7 415.5,-1061.7"/>
<text text-anchor="start" x="458.3862" y="-1067.8" font-family="Helvetica,sans-Serif" font-size="11.00" fill="#000000"> &#160;</text>
</a>
</g>
</g>
<!-- symbool -->
<g id="node2" class="node">
<title>symbool</title>
<g id="a_node2"><a xlink:href="../../tables/symbool.html" xlink:title="symbool" target="_top">
<polygon fill="#ffffff" stroke="transparent" points="8,-478.7 8,-590.7 197,-590.7 197,-478.7 8,-478.7"/>
<polygon fill="#f5f5f5" stroke="transparent" points="10.5,-565.7 10.5,-588.7 195.5,-588.7 195.5,-565.7 10.5,-565.7"/>
<polygon fill="none" stroke="#000000" points="10.5,-565.7 10.5,-588.7 195.5,-588.7 195.5,-565.7 10.5,-565.7"/>
<text text-anchor="start" x="15.5" y="-574.3" font-family="Helvetica,sans-Serif" font-weight="bold" font-size="11.00" fill="#000000">symbool</text>
<text text-anchor="start" x="160.5437" y="-573.8" font-family="Helvetica,sans-Serif" font-size="11.00" fill="#000000">[table]</text>
<polygon fill="none" stroke="#000000" points="10.5,-543.7 10.5,-565.7 105.5,-565.7 105.5,-543.7 10.5,-543.7"/>
<image xlink:href="../../images/primaryKeys.png" width="11px" height="12px" preserveAspectRatio="xMinYMin meet" x="15.5" y="-560.7"/>
<text text-anchor="start" x="30.5" y="-550.8" font-family="Helvetica,sans-Serif" font-size="11.00" fill="#000000">id</text>
<polygon fill="none" stroke="#000000" points="105.5,-543.7 105.5,-565.7 195.5,-565.7 195.5,-543.7 105.5,-543.7"/>
<text text-anchor="start" x="108.5" y="-551.4" font-family="Helvetica,sans-Serif" font-size="11.00" fill="#000000">int2[5]</text>
<polygon fill="none" stroke="#000000" points="10.5,-521.7 10.5,-543.7 105.5,-543.7 105.5,-521.7 10.5,-521.7"/>
<text text-anchor="start" x="30.5" y="-528.8" font-family="Helvetica,sans-Serif" font-size="11.00" fill="#000000">naam</text>
<polygon fill="none" stroke="#000000" points="105.5,-521.7 105.5,-543.7 195.5,-543.7 195.5,-521.7 105.5,-521.7"/>
<text text-anchor="start" x="108.0042" y="-529.4" font-family="Helvetica,sans-Serif" font-size="11.00" fill="#000000">text[2147483647]</text>
<polygon fill="none" stroke="#000000" points="10.5,-499.7 10.5,-521.7 105.5,-521.7 105.5,-499.7 10.5,-499.7"/>
<text text-anchor="start" x="30.5" y="-506.8" font-family="Helvetica,sans-Serif" font-size="11.00" fill="#000000">omschrijving</text>
<polygon fill="none" stroke="#000000" points="105.5,-499.7 105.5,-521.7 195.5,-521.7 195.5,-499.7 105.5,-499.7"/>
<text text-anchor="start" x="108.0042" y="-507.4" font-family="Helvetica,sans-Serif" font-size="11.00" fill="#000000">text[2147483647]</text>
<polygon fill="#ffffff" stroke="transparent" points="10.5,-480.7 10.5,-499.7 62.5,-499.7 62.5,-480.7 10.5,-480.7"/>
<polygon fill="none" stroke="#000000" points="10.5,-480.7 10.5,-499.7 62.5,-499.7 62.5,-480.7 10.5,-480.7"/>
<text text-anchor="start" x="13.5" y="-486.8" font-family="Helvetica,sans-Serif" font-size="11.00" fill="#000000">&lt; 0</text>
<polygon fill="#ffffff" stroke="transparent" points="62.5,-480.7 62.5,-499.7 105.5,-499.7 105.5,-480.7 62.5,-480.7"/>
<polygon fill="none" stroke="#000000" points="62.5,-480.7 62.5,-499.7 105.5,-499.7 105.5,-480.7 62.5,-480.7"/>
<text text-anchor="start" x="96.3862" y="-486.8" font-family="Helvetica,sans-Serif" font-size="11.00" fill="#000000"> &#160;</text>
<polygon fill="#ffffff" stroke="transparent" points="105.5,-480.7 105.5,-499.7 195.5,-499.7 195.5,-480.7 105.5,-480.7"/>
<polygon fill="none" stroke="#000000" points="105.5,-480.7 105.5,-499.7 195.5,-499.7 195.5,-480.7 105.5,-480.7"/>
<text text-anchor="start" x="170.7904" y="-486.8" font-family="Helvetica,sans-Serif" font-size="11.00" fill="#000000">10 &gt;</text>
<polygon fill="none" stroke="#000000" stroke-width="2" points="9,-479.7 9,-589.7 196,-589.7 196,-479.7 9,-479.7"/>
</a>
</g>
</g>
<!-- roi_bluswater.bluswaterriool&#45;&gt;symbool -->
<g id="edge1" class="edge">
<title>roi_bluswater.bluswaterriool:w&#45;&gt;symbool:e</title>
<path fill="none" stroke="#000000" d="M251.3764,-1106.6004C239.6759,-1097.265 243.8266,-1073.5382 238,-1051.7 223.7123,-998.1495 250.9238,-554.7 195.5,-554.7"/>
<polygon fill="#000000" stroke="#000000" points="257.8171,-1108.4699 264.4965,-1114.1573 261.6586,-1109.5849 265.5,-1110.7 265.5,-1110.7 265.5,-1110.7 261.6586,-1109.5849 266.5035,-1107.2427 257.8171,-1108.4699 257.8171,-1108.4699"/>
<ellipse fill="none" stroke="#000000" cx="254.744" cy="-1107.5778" rx="3.2" ry="3.2"/>
</g>
<!-- roi_bluswater.brandkraan -->
<g id="node3" class="node">
<title>roi_bluswater.brandkraan</title>
<g id="a_node3"><a xlink:href="../../../roi_bluswater/tables/brandkraan.html" xlink:title="roi_bluswater.brandkraan" target="_top">
<polygon fill="#ffffff" stroke="transparent" points="267.5,-936.2 267.5,-1041.2 465.5,-1041.2 465.5,-936.2 267.5,-936.2"/>
<polygon fill="#f5f5f5" stroke="transparent" points="267.5,-1017.7 267.5,-1040.7 465.5,-1040.7 465.5,-1017.7 267.5,-1017.7"/>
<polygon fill="none" stroke="#000000" points="267.5,-1017.7 267.5,-1040.7 465.5,-1040.7 465.5,-1017.7 267.5,-1017.7"/>
<text text-anchor="start" x="272.5" y="-1026.3" font-family="Helvetica,sans-Serif" font-weight="bold" font-size="11.00" fill="#000000">roi_bluswater.brandkraan</text>
<text text-anchor="start" x="430.5437" y="-1025.8" font-family="Helvetica,sans-Serif" font-size="11.00" fill="#000000">[table]</text>
<polygon fill="none" stroke="#000000" points="267.5,-995.7 267.5,-1017.7 465.5,-1017.7 465.5,-995.7 267.5,-995.7"/>
<image xlink:href="../../images/foreignKeys.png" width="11px" height="12px" preserveAspectRatio="xMinYMin meet" x="272.5" y="-1012.7"/>
<text text-anchor="start" x="287.5" y="-1002.8" font-family="Helvetica,sans-Serif" font-size="11.00" fill="#000000">fase_id</text>
<polygon fill="none" stroke="#000000" points="267.5,-973.7 267.5,-995.7 465.5,-995.7 465.5,-973.7 267.5,-973.7"/>
<image xlink:href="../../images/foreignKeys.png" width="11px" height="12px" preserveAspectRatio="xMinYMin meet" x="272.5" y="-990.7"/>
<text text-anchor="start" x="287.5" y="-980.8" font-family="Helvetica,sans-Serif" font-size="11.00" fill="#000000">symbool_id</text>
<polygon fill="none" stroke="#000000" points="267.5,-954.7 267.5,-973.7 465.5,-973.7 465.5,-954.7 267.5,-954.7"/>
<text text-anchor="start" x="270.5" y="-960.8" font-family="Helvetica,sans-Serif" font-size="11.00" fill="#000000">...</text>
<polygon fill="#ffffff" stroke="transparent" points="267.5,-935.7 267.5,-954.7 364.5,-954.7 364.5,-935.7 267.5,-935.7"/>
<polygon fill="none" stroke="#000000" points="267.5,-935.7 267.5,-954.7 364.5,-954.7 364.5,-935.7 267.5,-935.7"/>
<text text-anchor="start" x="270.5" y="-941.8" font-family="Helvetica,sans-Serif" font-size="11.00" fill="#000000">&lt; 2</text>
<polygon fill="#ffffff" stroke="transparent" points="364.5,-935.7 364.5,-954.7 414.5,-954.7 414.5,-935.7 364.5,-935.7"/>
<polygon fill="none" stroke="#000000" points="364.5,-935.7 364.5,-954.7 414.5,-954.7 414.5,-935.7 364.5,-935.7"/>
<text text-anchor="start" x="405.3862" y="-941.8" font-family="Helvetica,sans-Serif" font-size="11.00" fill="#000000"> &#160;</text>
<polygon fill="#ffffff" stroke="transparent" points="414.5,-935.7 414.5,-954.7 465.5,-954.7 465.5,-935.7 414.5,-935.7"/>
<polygon fill="none" stroke="#000000" points="414.5,-935.7 414.5,-954.7 465.5,-954.7 465.5,-935.7 414.5,-935.7"/>
<text text-anchor="start" x="456.3862" y="-941.8" font-family="Helvetica,sans-Serif" font-size="11.00" fill="#000000"> &#160;</text>
</a>
</g>
</g>
<!-- roi_bluswater.brandkraan&#45;&gt;symbool -->
<g id="edge2" class="edge">
<title>roi_bluswater.brandkraan:w&#45;&gt;symbool:e</title>
<path fill="none" stroke="#000000" d="M253.495,-980.9826C183.279,-938.9548 287.0874,-554.7 195.5,-554.7"/>
<polygon fill="#000000" stroke="#000000" points="259.7677,-982.6476 266.5764,-988.1795 263.6339,-983.6738 267.5,-984.7 267.5,-984.7 267.5,-984.7 263.6339,-983.6738 268.4236,-981.2205 259.7677,-982.6476 259.7677,-982.6476"/>
<ellipse fill="none" stroke="#000000" cx="256.6748" cy="-981.8266" rx="3.2" ry="3.2"/>
</g>
<!-- roi_bluswater.brandkraan_prive -->
<g id="node4" class="node">
<title>roi_bluswater.brandkraan_prive</title>
<g id="a_node4"><a xlink:href="../../../roi_bluswater/tables/brandkraan_prive.html" xlink:title="roi_bluswater.brandkraan_prive" target="_top">
<polygon fill="#ffffff" stroke="transparent" points="256,-810.2 256,-915.2 477,-915.2 477,-810.2 256,-810.2"/>
<polygon fill="#f5f5f5" stroke="transparent" points="256.5,-891.7 256.5,-914.7 477.5,-914.7 477.5,-891.7 256.5,-891.7"/>
<polygon fill="none" stroke="#000000" points="256.5,-891.7 256.5,-914.7 477.5,-914.7 477.5,-891.7 256.5,-891.7"/>
<text text-anchor="start" x="261.5" y="-900.3" font-family="Helvetica,sans-Serif" font-weight="bold" font-size="11.00" fill="#000000">roi_bluswater.brandkraan_prive</text>
<text text-anchor="start" x="443.0219" y="-899.8" font-family="Helvetica,sans-Serif" font-size="11.00" fill="#000000">[table]</text>
<polygon fill="none" stroke="#000000" points="256.5,-869.7 256.5,-891.7 477.5,-891.7 477.5,-869.7 256.5,-869.7"/>
<image xlink:href="../../images/foreignKeys.png" width="11px" height="12px" preserveAspectRatio="xMinYMin meet" x="261.5" y="-886.7"/>
<text text-anchor="start" x="288.5" y="-876.8" font-family="Helvetica,sans-Serif" font-size="11.00" fill="#000000">fase_id</text>
<polygon fill="none" stroke="#000000" points="256.5,-847.7 256.5,-869.7 477.5,-869.7 477.5,-847.7 256.5,-847.7"/>
<image xlink:href="../../images/foreignKeys.png" width="11px" height="12px" preserveAspectRatio="xMinYMin meet" x="261.5" y="-864.7"/>
<text text-anchor="start" x="288.5" y="-854.8" font-family="Helvetica,sans-Serif" font-size="11.00" fill="#000000">symbool_id</text>
<polygon fill="none" stroke="#000000" points="256.5,-828.7 256.5,-847.7 477.5,-847.7 477.5,-828.7 256.5,-828.7"/>
<text text-anchor="start" x="259.5" y="-834.8" font-family="Helvetica,sans-Serif" font-size="11.00" fill="#000000">...</text>
<polygon fill="#ffffff" stroke="transparent" points="256.5,-809.7 256.5,-828.7 365.5,-828.7 365.5,-809.7 256.5,-809.7"/>
<polygon fill="none" stroke="#000000" points="256.5,-809.7 256.5,-828.7 365.5,-828.7 365.5,-809.7 256.5,-809.7"/>
<text text-anchor="start" x="259.5" y="-815.8" font-family="Helvetica,sans-Serif" font-size="11.00" fill="#000000">&lt; 2</text>
<polygon fill="#ffffff" stroke="transparent" points="365.5,-809.7 365.5,-828.7 421.5,-828.7 421.5,-809.7 365.5,-809.7"/>
<polygon fill="none" stroke="#000000" points="365.5,-809.7 365.5,-828.7 421.5,-828.7 421.5,-809.7 365.5,-809.7"/>
<text text-anchor="start" x="412.3862" y="-815.8" font-family="Helvetica,sans-Serif" font-size="11.00" fill="#000000"> &#160;</text>
<polygon fill="#ffffff" stroke="transparent" points="421.5,-809.7 421.5,-828.7 477.5,-828.7 477.5,-809.7 421.5,-809.7"/>
<polygon fill="none" stroke="#000000" points="421.5,-809.7 421.5,-828.7 477.5,-828.7 477.5,-809.7 421.5,-809.7"/>
<text text-anchor="start" x="468.3862" y="-815.8" font-family="Helvetica,sans-Serif" font-size="11.00" fill="#000000"> &#160;</text>
</a>
</g>
</g>
<!-- roi_bluswater.brandkraan_prive&#45;&gt;symbool -->
<g id="edge3" class="edge">
<title>roi_bluswater.brandkraan_prive:w&#45;&gt;symbool:e</title>
<path fill="none" stroke="#000000" d="M242.8801,-853.4235C198.7092,-813.0555 259.0192,-554.7 195.5,-554.7"/>
<polygon fill="#000000" stroke="#000000" points="249.0402,-855.81 255.1995,-862.0569 252.7701,-857.255 256.5,-858.7 256.5,-858.7 256.5,-858.7 252.7701,-857.255 257.8005,-855.3431 249.0402,-855.81 249.0402,-855.81"/>
<ellipse fill="none" stroke="#000000" cx="246.0563" cy="-854.654" rx="3.2" ry="3.2"/>
</g>
<!-- roi_bluswater.brandput -->
<g id="node5" class="node">
<title>roi_bluswater.brandput</title>
<g id="a_node5"><a xlink:href="../../../roi_bluswater/tables/brandput.html" xlink:title="roi_bluswater.brandput" target="_top">
<polygon fill="#ffffff" stroke="transparent" points="276,-684.2 276,-789.2 457,-789.2 457,-684.2 276,-684.2"/>
<polygon fill="#f5f5f5" stroke="transparent" points="276.5,-765.7 276.5,-788.7 457.5,-788.7 457.5,-765.7 276.5,-765.7"/>
<polygon fill="none" stroke="#000000" points="276.5,-765.7 276.5,-788.7 457.5,-788.7 457.5,-765.7 276.5,-765.7"/>
<text text-anchor="start" x="281.5" y="-774.3" font-family="Helvetica,sans-Serif" font-weight="bold" font-size="11.00" fill="#000000">roi_bluswater.brandput</text>
<text text-anchor="start" x="422.5437" y="-773.8" font-family="Helvetica,sans-Serif" font-size="11.00" fill="#000000">[table]</text>
<polygon fill="none" stroke="#000000" points="276.5,-743.7 276.5,-765.7 457.5,-765.7 457.5,-743.7 276.5,-743.7"/>
<image xlink:href="../../images/foreignKeys.png" width="11px" height="12px" preserveAspectRatio="xMinYMin meet" x="281.5" y="-760.7"/>
<text text-anchor="start" x="296.5" y="-750.8" font-family="Helvetica,sans-Serif" font-size="11.00" fill="#000000">fase_id</text>
<polygon fill="none" stroke="#000000" points="276.5,-721.7 276.5,-743.7 457.5,-743.7 457.5,-721.7 276.5,-721.7"/>
<image xlink:href="../../images/foreignKeys.png" width="11px" height="12px" preserveAspectRatio="xMinYMin meet" x="281.5" y="-738.7"/>
<text text-anchor="start" x="296.5" y="-728.8" font-family="Helvetica,sans-Serif" font-size="11.00" fill="#000000">symbool_id</text>
<polygon fill="none" stroke="#000000" points="276.5,-702.7 276.5,-721.7 457.5,-721.7 457.5,-702.7 276.5,-702.7"/>
<text text-anchor="start" x="279.5" y="-708.8" font-family="Helvetica,sans-Serif" font-size="11.00" fill="#000000">...</text>
<polygon fill="#ffffff" stroke="transparent" points="276.5,-683.7 276.5,-702.7 365.5,-702.7 365.5,-683.7 276.5,-683.7"/>
<polygon fill="none" stroke="#000000" points="276.5,-683.7 276.5,-702.7 365.5,-702.7 365.5,-683.7 276.5,-683.7"/>
<text text-anchor="start" x="279.5" y="-689.8" font-family="Helvetica,sans-Serif" font-size="11.00" fill="#000000">&lt; 2</text>
<polygon fill="#ffffff" stroke="transparent" points="365.5,-683.7 365.5,-702.7 411.5,-702.7 411.5,-683.7 365.5,-683.7"/>
<polygon fill="none" stroke="#000000" points="365.5,-683.7 365.5,-702.7 411.5,-702.7 411.5,-683.7 365.5,-683.7"/>
<text text-anchor="start" x="402.3862" y="-689.8" font-family="Helvetica,sans-Serif" font-size="11.00" fill="#000000"> &#160;</text>
<polygon fill="#ffffff" stroke="transparent" points="411.5,-683.7 411.5,-702.7 457.5,-702.7 457.5,-683.7 411.5,-683.7"/>
<polygon fill="none" stroke="#000000" points="411.5,-683.7 411.5,-702.7 457.5,-702.7 457.5,-683.7 411.5,-683.7"/>
<text text-anchor="start" x="448.3862" y="-689.8" font-family="Helvetica,sans-Serif" font-size="11.00" fill="#000000"> &#160;</text>
</a>
</g>
</g>
<!-- roi_bluswater.brandput&#45;&gt;symbool -->
<g id="edge4" class="edge">
<title>roi_bluswater.brandput:w&#45;&gt;symbool:e</title>
<path fill="none" stroke="#000000" d="M262.2217,-730.701C200.4851,-711.1453 276.9847,-554.7 195.5,-554.7"/>
<polygon fill="#000000" stroke="#000000" points="268.5773,-731.5907 276.0008,-736.2652 272.5386,-732.1454 276.5,-732.7 276.5,-732.7 276.5,-732.7 272.5386,-732.1454 276.9992,-729.1348 268.5773,-731.5907 268.5773,-731.5907"/>
<ellipse fill="none" stroke="#000000" cx="265.4082" cy="-731.147" rx="3.2" ry="3.2"/>
</g>
<!-- roi_bluswater.openwater -->
<g id="node6" class="node">
<title>roi_bluswater.openwater</title>
<g id="a_node6"><a xlink:href="../../../roi_bluswater/tables/openwater.html" xlink:title="roi_bluswater.openwater" target="_top">
<polygon fill="#ffffff" stroke="transparent" points="246,-558.2 246,-663.2 487,-663.2 487,-558.2 246,-558.2"/>
<polygon fill="#f5f5f5" stroke="transparent" points="246.5,-639.7 246.5,-662.7 487.5,-662.7 487.5,-639.7 246.5,-639.7"/>
<polygon fill="none" stroke="#000000" points="246.5,-639.7 246.5,-662.7 487.5,-662.7 487.5,-639.7 246.5,-639.7"/>
<text text-anchor="start" x="251.5" y="-648.3" font-family="Helvetica,sans-Serif" font-weight="bold" font-size="11.00" fill="#000000">roi_bluswater.openwater</text>
<text text-anchor="start" x="452.5437" y="-647.8" font-family="Helvetica,sans-Serif" font-size="11.00" fill="#000000">[table]</text>
<polygon fill="none" stroke="#000000" points="246.5,-617.7 246.5,-639.7 487.5,-639.7 487.5,-617.7 246.5,-617.7"/>
<image xlink:href="../../images/foreignKeys.png" width="11px" height="12px" preserveAspectRatio="xMinYMin meet" x="251.5" y="-634.7"/>
<text text-anchor="start" x="266.5" y="-624.8" font-family="Helvetica,sans-Serif" font-size="11.00" fill="#000000">fase_id</text>
<polygon fill="none" stroke="#000000" points="246.5,-595.7 246.5,-617.7 487.5,-617.7 487.5,-595.7 246.5,-595.7"/>
<image xlink:href="../../images/foreignKeys.png" width="11px" height="12px" preserveAspectRatio="xMinYMin meet" x="251.5" y="-612.7"/>
<text text-anchor="start" x="266.5" y="-602.8" font-family="Helvetica,sans-Serif" font-size="11.00" fill="#000000">symbool_id</text>
<polygon fill="none" stroke="#000000" points="246.5,-576.7 246.5,-595.7 487.5,-595.7 487.5,-576.7 246.5,-576.7"/>
<text text-anchor="start" x="249.5" y="-582.8" font-family="Helvetica,sans-Serif" font-size="11.00" fill="#000000">...</text>
<polygon fill="#ffffff" stroke="transparent" points="246.5,-557.7 246.5,-576.7 365.5,-576.7 365.5,-557.7 246.5,-557.7"/>
<polygon fill="none" stroke="#000000" points="246.5,-557.7 246.5,-576.7 365.5,-576.7 365.5,-557.7 246.5,-557.7"/>
<text text-anchor="start" x="249.5" y="-563.8" font-family="Helvetica,sans-Serif" font-size="11.00" fill="#000000">&lt; 2</text>
<polygon fill="#ffffff" stroke="transparent" points="365.5,-557.7 365.5,-576.7 426.5,-576.7 426.5,-557.7 365.5,-557.7"/>
<polygon fill="none" stroke="#000000" points="365.5,-557.7 365.5,-576.7 426.5,-576.7 426.5,-557.7 365.5,-557.7"/>
<text text-anchor="start" x="417.3862" y="-563.8" font-family="Helvetica,sans-Serif" font-size="11.00" fill="#000000"> &#160;</text>
<polygon fill="#ffffff" stroke="transparent" points="426.5,-557.7 426.5,-576.7 487.5,-576.7 487.5,-557.7 426.5,-557.7"/>
<polygon fill="none" stroke="#000000" points="426.5,-557.7 426.5,-576.7 487.5,-576.7 487.5,-557.7 426.5,-557.7"/>
<text text-anchor="start" x="478.3862" y="-563.8" font-family="Helvetica,sans-Serif" font-size="11.00" fill="#000000"> &#160;</text>
</a>
</g>
</g>
<!-- roi_bluswater.openwater&#45;&gt;symbool -->
<g id="edge5" class="edge">
<title>roi_bluswater.openwater:w&#45;&gt;symbool:e</title>
<path fill="none" stroke="#000000" d="M232.5468,-601.9012C217.661,-589.0281 221.8017,-554.7 195.5,-554.7"/>
<polygon fill="#000000" stroke="#000000" points="238.9349,-604.0982 245.3292,-610.1043 242.7175,-605.3991 246.5,-606.7 246.5,-606.7 246.5,-606.7 242.7175,-605.3991 247.6708,-603.2957 238.9349,-604.0982 238.9349,-604.0982"/>
<ellipse fill="none" stroke="#000000" cx="235.9089" cy="-603.0574" rx="3.2" ry="3.2"/>
</g>
<!-- roi_bluswater.voorziening -->
<g id="node7" class="node">
<title>roi_bluswater.voorziening</title>
<g id="a_node7"><a xlink:href="../../../roi_bluswater/tables/voorziening.html" xlink:title="roi_bluswater.voorziening" target="_top">
<polygon fill="#ffffff" stroke="transparent" points="273,-454.2 273,-537.2 460,-537.2 460,-454.2 273,-454.2"/>
<polygon fill="#f5f5f5" stroke="transparent" points="273.5,-513.7 273.5,-536.7 460.5,-536.7 460.5,-513.7 273.5,-513.7"/>
<polygon fill="none" stroke="#000000" points="273.5,-513.7 273.5,-536.7 460.5,-536.7 460.5,-513.7 273.5,-513.7"/>
<text text-anchor="start" x="278.5" y="-522.3" font-family="Helvetica,sans-Serif" font-weight="bold" font-size="11.00" fill="#000000">roi_bluswater.voorziening</text>
<text text-anchor="start" x="426.0219" y="-521.8" font-family="Helvetica,sans-Serif" font-size="11.00" fill="#000000">[table]</text>
<polygon fill="none" stroke="#000000" points="273.5,-491.7 273.5,-513.7 460.5,-513.7 460.5,-491.7 273.5,-491.7"/>
<image xlink:href="../../images/foreignKeys.png" width="11px" height="12px" preserveAspectRatio="xMinYMin meet" x="278.5" y="-508.7"/>
<text text-anchor="start" x="332.5" y="-498.8" font-family="Helvetica,sans-Serif" font-size="11.00" fill="#000000">symbool_id</text>
<polygon fill="none" stroke="#000000" points="273.5,-472.7 273.5,-491.7 460.5,-491.7 460.5,-472.7 273.5,-472.7"/>
<text text-anchor="start" x="276.5" y="-478.8" font-family="Helvetica,sans-Serif" font-size="11.00" fill="#000000">...</text>
<polygon fill="#ffffff" stroke="transparent" points="273.5,-453.7 273.5,-472.7 365.5,-472.7 365.5,-453.7 273.5,-453.7"/>
<polygon fill="none" stroke="#000000" points="273.5,-453.7 273.5,-472.7 365.5,-472.7 365.5,-453.7 273.5,-453.7"/>
<text text-anchor="start" x="276.5" y="-459.8" font-family="Helvetica,sans-Serif" font-size="11.00" fill="#000000">&lt; 1</text>
<polygon fill="#ffffff" stroke="transparent" points="365.5,-453.7 365.5,-472.7 412.5,-472.7 412.5,-453.7 365.5,-453.7"/>
<polygon fill="none" stroke="#000000" points="365.5,-453.7 365.5,-472.7 412.5,-472.7 412.5,-453.7 365.5,-453.7"/>
<text text-anchor="start" x="403.3862" y="-459.8" font-family="Helvetica,sans-Serif" font-size="11.00" fill="#000000"> &#160;</text>
<polygon fill="#ffffff" stroke="transparent" points="412.5,-453.7 412.5,-472.7 460.5,-472.7 460.5,-453.7 412.5,-453.7"/>
<polygon fill="none" stroke="#000000" points="412.5,-453.7 412.5,-472.7 460.5,-472.7 460.5,-453.7 412.5,-453.7"/>
<text text-anchor="start" x="451.3862" y="-459.8" font-family="Helvetica,sans-Serif" font-size="11.00" fill="#000000"> &#160;</text>
</a>
</g>
</g>
<!-- roi_bluswater.voorziening&#45;&gt;symbool -->
<g id="edge6" class="edge">
<title>roi_bluswater.voorziening:w&#45;&gt;symbool:e</title>
<path fill="none" stroke="#000000" d="M259.166,-505.2081C232.4223,-515.5953 231.6306,-554.7 195.5,-554.7"/>
<polygon fill="#000000" stroke="#000000" points="265.6197,-504.0789 274.1205,-506.2461 269.5599,-503.3894 273.5,-502.7 273.5,-502.7 273.5,-502.7 269.5599,-503.3894 272.8795,-499.1539 265.6197,-504.0789 265.6197,-504.0789"/>
<ellipse fill="none" stroke="#000000" cx="262.4676" cy="-504.6304" rx="3.2" ry="3.2"/>
</g>
<!-- roi_evenement.voorziening -->
<g id="node8" class="node">
<title>roi_evenement.voorziening</title>
<g id="a_node8"><a xlink:href="../../../roi_evenement/tables/voorziening.html" xlink:title="roi_evenement.voorziening" target="_top">
<polygon fill="#ffffff" stroke="transparent" points="269.5,-350.2 269.5,-433.2 463.5,-433.2 463.5,-350.2 269.5,-350.2"/>
<polygon fill="#f5f5f5" stroke="transparent" points="269.5,-409.7 269.5,-432.7 463.5,-432.7 463.5,-409.7 269.5,-409.7"/>
<polygon fill="none" stroke="#000000" points="269.5,-409.7 269.5,-432.7 463.5,-432.7 463.5,-409.7 269.5,-409.7"/>
<text text-anchor="start" x="274.5" y="-418.3" font-family="Helvetica,sans-Serif" font-weight="bold" font-size="11.00" fill="#000000">roi_evenement.voorziening</text>
<text text-anchor="start" x="429.0219" y="-417.8" font-family="Helvetica,sans-Serif" font-size="11.00" fill="#000000">[table]</text>
<polygon fill="none" stroke="#000000" points="269.5,-387.7 269.5,-409.7 463.5,-409.7 463.5,-387.7 269.5,-387.7"/>
<image xlink:href="../../images/foreignKeys.png" width="11px" height="12px" preserveAspectRatio="xMinYMin meet" x="274.5" y="-404.7"/>
<text text-anchor="start" x="332.5" y="-394.8" font-family="Helvetica,sans-Serif" font-size="11.00" fill="#000000">symbool_id</text>
<polygon fill="none" stroke="#000000" points="269.5,-368.7 269.5,-387.7 463.5,-387.7 463.5,-368.7 269.5,-368.7"/>
<text text-anchor="start" x="272.5" y="-374.8" font-family="Helvetica,sans-Serif" font-size="11.00" fill="#000000">...</text>
<polygon fill="#ffffff" stroke="transparent" points="269.5,-349.7 269.5,-368.7 364.5,-368.7 364.5,-349.7 269.5,-349.7"/>
<polygon fill="none" stroke="#000000" points="269.5,-349.7 269.5,-368.7 364.5,-368.7 364.5,-349.7 269.5,-349.7"/>
<text text-anchor="start" x="272.5" y="-355.8" font-family="Helvetica,sans-Serif" font-size="11.00" fill="#000000">&lt; 1</text>
<polygon fill="#ffffff" stroke="transparent" points="364.5,-349.7 364.5,-368.7 413.5,-368.7 413.5,-349.7 364.5,-349.7"/>
<polygon fill="none" stroke="#000000" points="364.5,-349.7 364.5,-368.7 413.5,-368.7 413.5,-349.7 364.5,-349.7"/>
<text text-anchor="start" x="404.3862" y="-355.8" font-family="Helvetica,sans-Serif" font-size="11.00" fill="#000000"> &#160;</text>
<polygon fill="#ffffff" stroke="transparent" points="413.5,-349.7 413.5,-368.7 463.5,-368.7 463.5,-349.7 413.5,-349.7"/>
<polygon fill="none" stroke="#000000" points="413.5,-349.7 413.5,-368.7 463.5,-368.7 463.5,-349.7 413.5,-349.7"/>
<text text-anchor="start" x="454.3862" y="-355.8" font-family="Helvetica,sans-Serif" font-size="11.00" fill="#000000"> &#160;</text>
</a>
</g>
</g>
<!-- roi_evenement.voorziening&#45;&gt;symbool -->
<g id="edge7" class="edge">
<title>roi_evenement.voorziening:w&#45;&gt;symbool:e</title>
<path fill="none" stroke="#000000" d="M255.1929,-401.0263C203.4326,-420.4322 266.6929,-554.7 195.5,-554.7"/>
<polygon fill="#000000" stroke="#000000" points="261.6037,-399.984 270.0778,-402.2533 265.5518,-399.342 269.5,-398.7 269.5,-398.7 269.5,-398.7 265.5518,-399.342 268.9222,-395.1467 261.6037,-399.984 261.6037,-399.984"/>
<ellipse fill="none" stroke="#000000" cx="258.4452" cy="-400.4975" rx="3.2" ry="3.2"/>
</g>
<!-- roi_gebouw.voorziening -->
<g id="node9" class="node">
<title>roi_gebouw.voorziening</title>
<g id="a_node9"><a xlink:href="../../../roi_gebouw/tables/voorziening.html" xlink:title="roi_gebouw.voorziening" target="_top">
<polygon fill="#ffffff" stroke="transparent" points="278,-246.2 278,-329.2 455,-329.2 455,-246.2 278,-246.2"/>
<polygon fill="#f5f5f5" stroke="transparent" points="278.5,-305.7 278.5,-328.7 455.5,-328.7 455.5,-305.7 278.5,-305.7"/>
<polygon fill="none" stroke="#000000" points="278.5,-305.7 278.5,-328.7 455.5,-328.7 455.5,-305.7 278.5,-305.7"/>
<text text-anchor="start" x="283.5" y="-314.3" font-family="Helvetica,sans-Serif" font-weight="bold" font-size="11.00" fill="#000000">roi_gebouw.voorziening</text>
<text text-anchor="start" x="421.0219" y="-313.8" font-family="Helvetica,sans-Serif" font-size="11.00" fill="#000000">[table]</text>
<polygon fill="none" stroke="#000000" points="278.5,-283.7 278.5,-305.7 455.5,-305.7 455.5,-283.7 278.5,-283.7"/>
<image xlink:href="../../images/foreignKeys.png" width="11px" height="12px" preserveAspectRatio="xMinYMin meet" x="283.5" y="-300.7"/>
<text text-anchor="start" x="332.5" y="-290.8" font-family="Helvetica,sans-Serif" font-size="11.00" fill="#000000">symbool_id</text>
<polygon fill="none" stroke="#000000" points="278.5,-264.7 278.5,-283.7 455.5,-283.7 455.5,-264.7 278.5,-264.7"/>
<text text-anchor="start" x="281.5" y="-270.8" font-family="Helvetica,sans-Serif" font-size="11.00" fill="#000000">...</text>
<polygon fill="#ffffff" stroke="transparent" points="278.5,-245.7 278.5,-264.7 365.5,-264.7 365.5,-245.7 278.5,-245.7"/>
<polygon fill="none" stroke="#000000" points="278.5,-245.7 278.5,-264.7 365.5,-264.7 365.5,-245.7 278.5,-245.7"/>
<text text-anchor="start" x="281.5" y="-251.8" font-family="Helvetica,sans-Serif" font-size="11.00" fill="#000000">&lt; 1</text>
<polygon fill="#ffffff" stroke="transparent" points="365.5,-245.7 365.5,-264.7 410.5,-264.7 410.5,-245.7 365.5,-245.7"/>
<polygon fill="none" stroke="#000000" points="365.5,-245.7 365.5,-264.7 410.5,-264.7 410.5,-245.7 365.5,-245.7"/>
<text text-anchor="start" x="401.3862" y="-251.8" font-family="Helvetica,sans-Serif" font-size="11.00" fill="#000000"> &#160;</text>
<polygon fill="#ffffff" stroke="transparent" points="410.5,-245.7 410.5,-264.7 455.5,-264.7 455.5,-245.7 410.5,-245.7"/>
<polygon fill="none" stroke="#000000" points="410.5,-245.7 410.5,-264.7 455.5,-264.7 455.5,-245.7 410.5,-245.7"/>
<text text-anchor="start" x="446.3862" y="-251.8" font-family="Helvetica,sans-Serif" font-size="11.00" fill="#000000"> &#160;</text>
</a>
</g>
</g>
<!-- roi_gebouw.voorziening&#45;&gt;symbool -->
<g id="edge8" class="edge">
<title>roi_gebouw.voorziening:w&#45;&gt;symbool:e</title>
<path fill="none" stroke="#000000" d="M264.1069,-297.5192C250.4121,-304.0097 247.4074,-320.9012 238,-339.7 216.2049,-383.2533 244.2023,-554.7 195.5,-554.7"/>
<polygon fill="#000000" stroke="#000000" points="270.6492,-296.2378 279.192,-298.2329 274.5746,-295.4689 278.5,-294.7 278.5,-294.7 278.5,-294.7 274.5746,-295.4689 277.808,-291.1671 270.6492,-296.2378 270.6492,-296.2378"/>
<ellipse fill="none" stroke="#000000" cx="267.5089" cy="-296.8529" rx="3.2" ry="3.2"/>
</g>
<!-- roi_natuurbrand.voorziening -->
<g id="node10" class="node">
<title>roi_natuurbrand.voorziening</title>
<g id="a_node10"><a xlink:href="../../../roi_natuurbrand/tables/voorziening.html" xlink:title="roi_natuurbrand.voorziening" target="_top">
<polygon fill="#ffffff" stroke="transparent" points="265.5,-142.2 265.5,-225.2 467.5,-225.2 467.5,-142.2 265.5,-142.2"/>
<polygon fill="#f5f5f5" stroke="transparent" points="265.5,-201.7 265.5,-224.7 467.5,-224.7 467.5,-201.7 265.5,-201.7"/>
<polygon fill="none" stroke="#000000" points="265.5,-201.7 265.5,-224.7 467.5,-224.7 467.5,-201.7 265.5,-201.7"/>
<text text-anchor="start" x="270.5" y="-210.3" font-family="Helvetica,sans-Serif" font-weight="bold" font-size="11.00" fill="#000000">roi_natuurbrand.voorziening</text>
<text text-anchor="start" x="433.0219" y="-209.8" font-family="Helvetica,sans-Serif" font-size="11.00" fill="#000000">[table]</text>
<polygon fill="none" stroke="#000000" points="265.5,-179.7 265.5,-201.7 467.5,-201.7 467.5,-179.7 265.5,-179.7"/>
<image xlink:href="../../images/foreignKeys.png" width="11px" height="12px" preserveAspectRatio="xMinYMin meet" x="270.5" y="-196.7"/>
<text text-anchor="start" x="332.5" y="-186.8" font-family="Helvetica,sans-Serif" font-size="11.00" fill="#000000">symbool_id</text>
<polygon fill="none" stroke="#000000" points="265.5,-160.7 265.5,-179.7 467.5,-179.7 467.5,-160.7 265.5,-160.7"/>
<text text-anchor="start" x="268.5" y="-166.8" font-family="Helvetica,sans-Serif" font-size="11.00" fill="#000000">...</text>
<polygon fill="#ffffff" stroke="transparent" points="265.5,-141.7 265.5,-160.7 364.5,-160.7 364.5,-141.7 265.5,-141.7"/>
<polygon fill="none" stroke="#000000" points="265.5,-141.7 265.5,-160.7 364.5,-160.7 364.5,-141.7 265.5,-141.7"/>
<text text-anchor="start" x="268.5" y="-147.8" font-family="Helvetica,sans-Serif" font-size="11.00" fill="#000000">&lt; 1</text>
<polygon fill="#ffffff" stroke="transparent" points="364.5,-141.7 364.5,-160.7 415.5,-160.7 415.5,-141.7 364.5,-141.7"/>
<polygon fill="none" stroke="#000000" points="364.5,-141.7 364.5,-160.7 415.5,-160.7 415.5,-141.7 364.5,-141.7"/>
<text text-anchor="start" x="406.3862" y="-147.8" font-family="Helvetica,sans-Serif" font-size="11.00" fill="#000000"> &#160;</text>
<polygon fill="#ffffff" stroke="transparent" points="415.5,-141.7 415.5,-160.7 467.5,-160.7 467.5,-141.7 415.5,-141.7"/>
<polygon fill="none" stroke="#000000" points="415.5,-141.7 415.5,-160.7 467.5,-160.7 467.5,-141.7 415.5,-141.7"/>
<text text-anchor="start" x="458.3862" y="-147.8" font-family="Helvetica,sans-Serif" font-size="11.00" fill="#000000"> &#160;</text>
</a>
</g>
</g>
<!-- roi_natuurbrand.voorziening&#45;&gt;symbool -->
<g id="edge9" class="edge">
<title>roi_natuurbrand.voorziening:w&#45;&gt;symbool:e</title>
<path fill="none" stroke="#000000" d="M251.6852,-195.0415C194.606,-236.1097 272.562,-554.7 195.5,-554.7"/>
<polygon fill="#000000" stroke="#000000" points="257.868,-193.0985 266.5793,-194.1344 261.684,-191.8992 265.5,-190.7 265.5,-190.7 265.5,-190.7 261.684,-191.8992 264.4207,-187.2656 257.868,-193.0985 257.868,-193.0985"/>
<ellipse fill="none" stroke="#000000" cx="254.8152" cy="-194.0579" rx="3.2" ry="3.2"/>
</g>
<!-- roi_waterongeval.voorziening -->
<g id="node11" class="node">
<title>roi_waterongeval.voorziening</title>
<g id="a_node11"><a xlink:href="../../../roi_waterongeval/tables/voorziening.html" xlink:title="roi_waterongeval.voorziening" target="_top">
<polygon fill="#ffffff" stroke="transparent" points="262.5,-38.2 262.5,-121.2 470.5,-121.2 470.5,-38.2 262.5,-38.2"/>
<polygon fill="#f5f5f5" stroke="transparent" points="262.5,-97.7 262.5,-120.7 470.5,-120.7 470.5,-97.7 262.5,-97.7"/>
<polygon fill="none" stroke="#000000" points="262.5,-97.7 262.5,-120.7 470.5,-120.7 470.5,-97.7 262.5,-97.7"/>
<text text-anchor="start" x="267.5" y="-106.3" font-family="Helvetica,sans-Serif" font-weight="bold" font-size="11.00" fill="#000000">roi_waterongeval.voorziening</text>
<text text-anchor="start" x="436.0219" y="-105.8" font-family="Helvetica,sans-Serif" font-size="11.00" fill="#000000">[table]</text>
<polygon fill="none" stroke="#000000" points="262.5,-75.7 262.5,-97.7 470.5,-97.7 470.5,-75.7 262.5,-75.7"/>
<image xlink:href="../../images/foreignKeys.png" width="11px" height="12px" preserveAspectRatio="xMinYMin meet" x="267.5" y="-92.7"/>
<text text-anchor="start" x="332.5" y="-82.8" font-family="Helvetica,sans-Serif" font-size="11.00" fill="#000000">symbool_id</text>
<polygon fill="none" stroke="#000000" points="262.5,-56.7 262.5,-75.7 470.5,-75.7 470.5,-56.7 262.5,-56.7"/>
<text text-anchor="start" x="265.5" y="-62.8" font-family="Helvetica,sans-Serif" font-size="11.00" fill="#000000">...</text>
<polygon fill="#ffffff" stroke="transparent" points="262.5,-37.7 262.5,-56.7 364.5,-56.7 364.5,-37.7 262.5,-37.7"/>
<polygon fill="none" stroke="#000000" points="262.5,-37.7 262.5,-56.7 364.5,-56.7 364.5,-37.7 262.5,-37.7"/>
<text text-anchor="start" x="265.5" y="-43.8" font-family="Helvetica,sans-Serif" font-size="11.00" fill="#000000">&lt; 1</text>
<polygon fill="#ffffff" stroke="transparent" points="364.5,-37.7 364.5,-56.7 417.5,-56.7 417.5,-37.7 364.5,-37.7"/>
<polygon fill="none" stroke="#000000" points="364.5,-37.7 364.5,-56.7 417.5,-56.7 417.5,-37.7 364.5,-37.7"/>
<text text-anchor="start" x="408.3862" y="-43.8" font-family="Helvetica,sans-Serif" font-size="11.00" fill="#000000"> &#160;</text>
<polygon fill="#ffffff" stroke="transparent" points="417.5,-37.7 417.5,-56.7 470.5,-56.7 470.5,-37.7 417.5,-37.7"/>
<polygon fill="none" stroke="#000000" points="417.5,-37.7 417.5,-56.7 470.5,-56.7 470.5,-37.7 417.5,-37.7"/>
<text text-anchor="start" x="461.3862" y="-43.8" font-family="Helvetica,sans-Serif" font-size="11.00" fill="#000000"> &#160;</text>
</a>
</g>
</g>
<!-- roi_waterongeval.voorziening&#45;&gt;symbool -->
<g id="edge10" class="edge">
<title>roi_waterongeval.voorziening:w&#45;&gt;symbool:e</title>
<path fill="none" stroke="#000000" d="M248.3497,-90.198C171.3353,-133.0244 295.2253,-554.7 195.5,-554.7"/>
<polygon fill="#000000" stroke="#000000" points="254.7338,-88.6199 263.3639,-90.1948 258.6169,-87.6599 262.5,-86.7 262.5,-86.7 262.5,-86.7 258.6169,-87.6599 261.6361,-83.2052 254.7338,-88.6199 254.7338,-88.6199"/>
<ellipse fill="none" stroke="#000000" cx="251.6273" cy="-89.3878" rx="3.2" ry="3.2"/>
</g>
</g>
</svg>
