<?xml version="1.0" encoding="UTF-8" standalone="no"?>
<!DOCTYPE svg PUBLIC "-//W3C//DTD SVG 1.1//EN"
 "http://www.w3.org/Graphics/SVG/1.1/DTD/svg11.dtd">
<!-- Generated by graphviz version 2.50.0 (0)
 -->
<!-- Title: twoDegreesRelationshipsDiagram Pages: 1 -->
<svg width="532pt" height="1047pt"
 viewBox="0.00 0.00 532.00 1047.00" xmlns="http://www.w3.org/2000/svg" xmlns:xlink="http://www.w3.org/1999/xlink">
<g id="graph0" class="graph" transform="scale(1 1) rotate(0) translate(4 1043)">
<title>twoDegreesRelationshipsDiagram</title>
<polygon fill="#ffffff" stroke="transparent" points="-4,4 -4,-1043 528,-1043 528,4 -4,4"/>
<text text-anchor="middle" x="79.5" y="-7.2" font-family="Helvetica,sans-Serif" font-size="11.00">Generated by SchemaSpy</text>
<!-- roi_bluswater.bluswaterriool -->
<g id="node1" class="node">
<title>roi_bluswater.bluswaterriool</title>
<g id="a_node1"><a xlink:href="../../../roi_bluswater/tables/bluswaterriool.html" xlink:title="roi_bluswater.bluswaterriool" target="_top">
<polygon fill="#ffffff" stroke="transparent" points="277,-564 277,-666 504,-666 504,-564 277,-564"/>
<polygon fill="#f5f5f5" stroke="transparent" points="277.5,-644 277.5,-666 504.5,-666 504.5,-644 277.5,-644"/>
<polygon fill="none" stroke="black" points="277.5,-644 277.5,-666 504.5,-666 504.5,-644 277.5,-644"/>
<text text-anchor="start" x="282.5" y="-653.2" font-family="Helvetica,sans-Serif" font-weight="bold" font-size="11.00">roi_bluswater.bluswaterriool</text>
<text text-anchor="start" x="462.5" y="-652.2" font-family="Helvetica,sans-Serif" font-size="11.00">[table]</text>
<polygon fill="none" stroke="black" points="277.5,-622 277.5,-644 504.5,-644 504.5,-622 277.5,-622"/>
<image xlink:href="../../images/foreignKeys.png" width="11px" height="12px" preserveAspectRatio="xMinYMin meet" x="282.5" y="-639"/>
<text text-anchor="start" x="325.5" y="-630.2" font-family="Helvetica,sans-Serif" font-size="11.00">fase_id</text>
<polygon fill="none" stroke="black" points="277.5,-600 277.5,-622 504.5,-622 504.5,-600 277.5,-600"/>
<image xlink:href="../../images/foreignKeys.png" width="11px" height="12px" preserveAspectRatio="xMinYMin meet" x="282.5" y="-617"/>
<text text-anchor="start" x="325.5" y="-608.2" font-family="Helvetica,sans-Serif" font-size="11.00">symbool_id</text>
<polygon fill="none" stroke="black" points="277.5,-582 277.5,-600 504.5,-600 504.5,-582 277.5,-582"/>
<text text-anchor="start" x="280.5" y="-588.2" font-family="Helvetica,sans-Serif" font-size="11.00">...</text>
<polygon fill="#ffffff" stroke="transparent" points="277.5,-564 277.5,-582 389.5,-582 389.5,-564 277.5,-564"/>
<polygon fill="none" stroke="black" points="277.5,-564 277.5,-582 389.5,-582 389.5,-564 277.5,-564"/>
<text text-anchor="start" x="280.5" y="-570.2" font-family="Helvetica,sans-Serif" font-size="11.00">&lt; 2</text>
<polygon fill="#ffffff" stroke="transparent" points="389.5,-564 389.5,-582 446.5,-582 446.5,-564 389.5,-564"/>
<polygon fill="none" stroke="black" points="389.5,-564 389.5,-582 446.5,-582 446.5,-564 389.5,-564"/>
<text text-anchor="start" x="435.5" y="-570.2" font-family="Helvetica,sans-Serif" font-size="11.00"> &#160;</text>
<polygon fill="#ffffff" stroke="transparent" points="446.5,-564 446.5,-582 504.5,-582 504.5,-564 446.5,-564"/>
<polygon fill="none" stroke="black" points="446.5,-564 446.5,-582 504.5,-582 504.5,-564 446.5,-564"/>
<text text-anchor="start" x="493.5" y="-570.2" font-family="Helvetica,sans-Serif" font-size="11.00"> &#160;</text>
</a>
</g>
</g>
<!-- fase -->
<g id="node2" class="node">
<title>fase</title>
<g id="a_node2"><a xlink:href="../../tables/fase.html" xlink:title="fase" target="_top">
<polygon fill="#ffffff" stroke="transparent" points="73,-729 73,-787 151,-787 151,-729 73,-729"/>
<polygon fill="#f5f5f5" stroke="transparent" points="73,-765 73,-787 151,-787 151,-765 73,-765"/>
<polygon fill="none" stroke="black" points="73,-765 73,-787 151,-787 151,-765 73,-765"/>
<text text-anchor="start" x="78" y="-774.2" font-family="Helvetica,sans-Serif" font-weight="bold" font-size="11.00">fase</text>
<text text-anchor="start" x="109" y="-773.2" font-family="Helvetica,sans-Serif" font-size="11.00">[table]</text>
<polygon fill="none" stroke="black" points="73,-747 73,-765 151,-765 151,-747 73,-747"/>
<text text-anchor="start" x="76" y="-753.2" font-family="Helvetica,sans-Serif" font-size="11.00">...</text>
<polygon fill="#ffffff" stroke="transparent" points="73,-729 73,-747 99,-747 99,-729 73,-729"/>
<polygon fill="none" stroke="black" points="73,-729 73,-747 99,-747 99,-729 73,-729"/>
<text text-anchor="start" x="76" y="-735.2" font-family="Helvetica,sans-Serif" font-size="11.00"> &#160;</text>
<polygon fill="#ffffff" stroke="transparent" points="99,-729 99,-747 119,-747 119,-729 99,-729"/>
<polygon fill="none" stroke="black" points="99,-729 99,-747 119,-747 119,-729 99,-729"/>
<text text-anchor="start" x="108" y="-735.2" font-family="Helvetica,sans-Serif" font-size="11.00"> &#160;</text>
<polygon fill="#ffffff" stroke="transparent" points="119,-729 119,-747 151,-747 151,-729 119,-729"/>
<polygon fill="none" stroke="black" points="119,-729 119,-747 151,-747 151,-729 119,-729"/>
<text text-anchor="start" x="128" y="-735.2" font-family="Helvetica,sans-Serif" font-size="11.00">9 &gt;</text>
</a>
</g>
</g>
<!-- roi_bluswater.bluswaterriool&#45;&gt;fase -->
<g id="edge1" class="edge">
<title>roi_bluswater.bluswaterriool:w&#45;&gt;fase:e</title>
<path fill="none" stroke="black" d="M262,-634.65C202.46,-649.24 224.47,-756 152,-756"/>
<polygon fill="black" stroke="black" points="268.55,-633.9 276.91,-636.58 272.53,-633.45 276.5,-633 276.5,-633 276.5,-633 272.53,-633.45 276.09,-629.42 268.55,-633.9 268.55,-633.9"/>
<ellipse fill="none" stroke="black" cx="265.37" cy="-634.26" rx="3.2" ry="3.2"/>
</g>
<!-- symbool -->
<g id="node3" class="node">
<title>symbool</title>
<g id="a_node3"><a xlink:href="../../tables/symbool.html" xlink:title="symbool" target="_top">
<polygon fill="#ffffff" stroke="transparent" points="8,-413 8,-523 216,-523 216,-413 8,-413"/>
<polygon fill="#f5f5f5" stroke="transparent" points="10,-499 10,-521 214,-521 214,-499 10,-499"/>
<polygon fill="none" stroke="black" points="10,-499 10,-521 214,-521 214,-499 10,-499"/>
<text text-anchor="start" x="15" y="-508.2" font-family="Helvetica,sans-Serif" font-weight="bold" font-size="11.00">symbool</text>
<text text-anchor="start" x="172" y="-507.2" font-family="Helvetica,sans-Serif" font-size="11.00">[table]</text>
<polygon fill="none" stroke="black" points="10,-477 10,-499 108,-499 108,-477 10,-477"/>
<image xlink:href="../../images/primaryKeys.png" width="11px" height="12px" preserveAspectRatio="xMinYMin meet" x="15" y="-494"/>
<text text-anchor="start" x="30" y="-485.2" font-family="Helvetica,sans-Serif" font-size="11.00">id</text>
<polygon fill="none" stroke="black" points="108,-477 108,-499 214,-499 214,-477 108,-477"/>
<text text-anchor="start" x="111" y="-485.2" font-family="Helvetica,sans-Serif" font-size="11.00">int2[5]</text>
<polygon fill="none" stroke="black" points="10,-455 10,-477 108,-477 108,-455 10,-455"/>
<text text-anchor="start" x="30" y="-463.2" font-family="Helvetica,sans-Serif" font-size="11.00">naam</text>
<polygon fill="none" stroke="black" points="108,-455 108,-477 214,-477 214,-455 108,-455"/>
<text text-anchor="start" x="111" y="-463.2" font-family="Helvetica,sans-Serif" font-size="11.00">text[2147483647]</text>
<polygon fill="none" stroke="black" points="10,-433 10,-455 108,-455 108,-433 10,-433"/>
<text text-anchor="start" x="30" y="-441.2" font-family="Helvetica,sans-Serif" font-size="11.00">omschrijving</text>
<polygon fill="none" stroke="black" points="108,-433 108,-455 214,-455 214,-433 108,-433"/>
<text text-anchor="start" x="111" y="-441.2" font-family="Helvetica,sans-Serif" font-size="11.00">text[2147483647]</text>
<polygon fill="#ffffff" stroke="transparent" points="10,-415 10,-433 65,-433 65,-415 10,-415"/>
<polygon fill="none" stroke="black" points="10,-415 10,-433 65,-433 65,-415 10,-415"/>
<text text-anchor="start" x="13" y="-421.2" font-family="Helvetica,sans-Serif" font-size="11.00">&lt; 0</text>
<polygon fill="#ffffff" stroke="transparent" points="65,-415 65,-433 108,-433 108,-415 65,-415"/>
<polygon fill="none" stroke="black" points="65,-415 65,-433 108,-433 108,-415 65,-415"/>
<text text-anchor="start" x="97" y="-421.2" font-family="Helvetica,sans-Serif" font-size="11.00"> &#160;</text>
<polygon fill="#ffffff" stroke="transparent" points="108,-415 108,-433 214,-433 214,-415 108,-415"/>
<polygon fill="none" stroke="black" points="108,-415 108,-433 214,-433 214,-415 108,-415"/>
<text text-anchor="start" x="191" y="-421.2" font-family="Helvetica,sans-Serif" font-size="11.00">9 &gt;</text>
<polygon fill="none" stroke="black" stroke-width="2" points="9,-414 9,-522 215,-522 215,-414 9,-414"/>
</a>
</g>
</g>
<!-- roi_bluswater.bluswaterriool&#45;&gt;symbool -->
<g id="edge2" class="edge">
<title>roi_bluswater.bluswaterriool:w&#45;&gt;symbool:e</title>
<path fill="none" stroke="black" d="M262.32,-607.96C225.7,-589.02 270.39,-488 215,-488"/>
<polygon fill="black" stroke="black" points="268.68,-609.32 275.75,-614.52 272.59,-610.16 276.5,-611 276.5,-611 276.5,-611 272.59,-610.16 277.25,-607.48 268.68,-609.32 268.68,-609.32"/>
<ellipse fill="none" stroke="black" cx="265.55" cy="-608.65" rx="3.2" ry="3.2"/>
</g>
<!-- roi_bluswater.brandkraan -->
<g id="node4" class="node">
<title>roi_bluswater.brandkraan</title>
<g id="a_node4"><a xlink:href="../../../roi_bluswater/tables/brandkraan.html" xlink:title="roi_bluswater.brandkraan" target="_top">
<polygon fill="#ffffff" stroke="transparent" points="286.5,-441 286.5,-543 494.5,-543 494.5,-441 286.5,-441"/>
<polygon fill="#f5f5f5" stroke="transparent" points="286.5,-521 286.5,-543 494.5,-543 494.5,-521 286.5,-521"/>
<polygon fill="none" stroke="black" points="286.5,-521 286.5,-543 494.5,-543 494.5,-521 286.5,-521"/>
<text text-anchor="start" x="291.5" y="-530.2" font-family="Helvetica,sans-Serif" font-weight="bold" font-size="11.00">roi_bluswater.brandkraan</text>
<text text-anchor="start" x="452.5" y="-529.2" font-family="Helvetica,sans-Serif" font-size="11.00">[table]</text>
<polygon fill="none" stroke="black" points="286.5,-499 286.5,-521 494.5,-521 494.5,-499 286.5,-499"/>
<image xlink:href="../../images/foreignKeys.png" width="11px" height="12px" preserveAspectRatio="xMinYMin meet" x="291.5" y="-516"/>
<text text-anchor="start" x="308.5" y="-507.2" font-family="Helvetica,sans-Serif" font-size="11.00">fase_id</text>
<polygon fill="none" stroke="black" points="286.5,-477 286.5,-499 494.5,-499 494.5,-477 286.5,-477"/>
<image xlink:href="../../images/foreignKeys.png" width="11px" height="12px" preserveAspectRatio="xMinYMin meet" x="291.5" y="-494"/>
<text text-anchor="start" x="308.5" y="-485.2" font-family="Helvetica,sans-Serif" font-size="11.00">symbool_id</text>
<polygon fill="none" stroke="black" points="286.5,-459 286.5,-477 494.5,-477 494.5,-459 286.5,-459"/>
<text text-anchor="start" x="289.5" y="-465.2" font-family="Helvetica,sans-Serif" font-size="11.00">...</text>
<polygon fill="#ffffff" stroke="transparent" points="286.5,-441 286.5,-459 389.5,-459 389.5,-441 286.5,-441"/>
<polygon fill="none" stroke="black" points="286.5,-441 286.5,-459 389.5,-459 389.5,-441 286.5,-441"/>
<text text-anchor="start" x="289.5" y="-447.2" font-family="Helvetica,sans-Serif" font-size="11.00">&lt; 2</text>
<polygon fill="#ffffff" stroke="transparent" points="389.5,-441 389.5,-459 441.5,-459 441.5,-441 389.5,-441"/>
<polygon fill="none" stroke="black" points="389.5,-441 389.5,-459 441.5,-459 441.5,-441 389.5,-441"/>
<text text-anchor="start" x="430.5" y="-447.2" font-family="Helvetica,sans-Serif" font-size="11.00"> &#160;</text>
<polygon fill="#ffffff" stroke="transparent" points="441.5,-441 441.5,-459 494.5,-459 494.5,-441 441.5,-441"/>
<polygon fill="none" stroke="black" points="441.5,-441 441.5,-459 494.5,-459 494.5,-441 441.5,-441"/>
<text text-anchor="start" x="483.5" y="-447.2" font-family="Helvetica,sans-Serif" font-size="11.00"> &#160;</text>
</a>
</g>
</g>
<!-- roi_bluswater.brandkraan&#45;&gt;fase -->
<g id="edge3" class="edge">
<title>roi_bluswater.brandkraan:w&#45;&gt;fase:e</title>
<path fill="none" stroke="black" d="M271.06,-511.26C170.36,-530.23 271.17,-756 152,-756"/>
<polygon fill="black" stroke="black" points="277.53,-510.7 285.81,-513.59 281.52,-510.35 285.5,-510 285.5,-510 285.5,-510 281.52,-510.35 285.19,-506.41 277.53,-510.7 277.53,-510.7"/>
<ellipse fill="none" stroke="black" cx="274.34" cy="-510.98" rx="3.2" ry="3.2"/>
</g>
<!-- roi_bluswater.brandkraan&#45;&gt;symbool -->
<g id="edge4" class="edge">
<title>roi_bluswater.brandkraan:w&#45;&gt;symbool:e</title>
<path fill="none" stroke="black" d="M270.9,-488C250.69,-488 240.83,-488 215,-488"/>
<polygon fill="black" stroke="black" points="277.5,-488 285.5,-491.6 281.5,-488 285.5,-488 285.5,-488 285.5,-488 281.5,-488 285.5,-484.4 277.5,-488 277.5,-488"/>
<ellipse fill="none" stroke="black" cx="274.3" cy="-488" rx="3.2" ry="3.2"/>
</g>
<!-- roi_bluswater.brandkraan_prive -->
<g id="node5" class="node">
<title>roi_bluswater.brandkraan_prive</title>
<g id="a_node5"><a xlink:href="../../../roi_bluswater/tables/brandkraan_prive.html" xlink:title="roi_bluswater.brandkraan_prive" target="_top">
<polygon fill="#ffffff" stroke="transparent" points="268,-933 268,-1035 513,-1035 513,-933 268,-933"/>
<polygon fill="#f5f5f5" stroke="transparent" points="268.5,-1013 268.5,-1035 513.5,-1035 513.5,-1013 268.5,-1013"/>
<polygon fill="none" stroke="black" points="268.5,-1013 268.5,-1035 513.5,-1035 513.5,-1013 268.5,-1013"/>
<text text-anchor="start" x="273.5" y="-1022.2" font-family="Helvetica,sans-Serif" font-weight="bold" font-size="11.00">roi_bluswater.brandkraan_prive</text>
<text text-anchor="start" x="471.5" y="-1021.2" font-family="Helvetica,sans-Serif" font-size="11.00">[table]</text>
<polygon fill="none" stroke="black" points="268.5,-991 268.5,-1013 513.5,-1013 513.5,-991 268.5,-991"/>
<image xlink:href="../../images/foreignKeys.png" width="11px" height="12px" preserveAspectRatio="xMinYMin meet" x="273.5" y="-1008"/>
<text text-anchor="start" x="308.5" y="-999.2" font-family="Helvetica,sans-Serif" font-size="11.00">fase_id</text>
<polygon fill="none" stroke="black" points="268.5,-969 268.5,-991 513.5,-991 513.5,-969 268.5,-969"/>
<image xlink:href="../../images/foreignKeys.png" width="11px" height="12px" preserveAspectRatio="xMinYMin meet" x="273.5" y="-986"/>
<text text-anchor="start" x="308.5" y="-977.2" font-family="Helvetica,sans-Serif" font-size="11.00">symbool_id</text>
<polygon fill="none" stroke="black" points="268.5,-951 268.5,-969 513.5,-969 513.5,-951 268.5,-951"/>
<text text-anchor="start" x="271.5" y="-957.2" font-family="Helvetica,sans-Serif" font-size="11.00">...</text>
<polygon fill="#ffffff" stroke="transparent" points="268.5,-933 268.5,-951 389.5,-951 389.5,-933 268.5,-933"/>
<polygon fill="none" stroke="black" points="268.5,-933 268.5,-951 389.5,-951 389.5,-933 268.5,-933"/>
<text text-anchor="start" x="271.5" y="-939.2" font-family="Helvetica,sans-Serif" font-size="11.00">&lt; 2</text>
<polygon fill="#ffffff" stroke="transparent" points="389.5,-933 389.5,-951 451.5,-951 451.5,-933 389.5,-933"/>
<polygon fill="none" stroke="black" points="389.5,-933 389.5,-951 451.5,-951 451.5,-933 389.5,-933"/>
<text text-anchor="start" x="440.5" y="-939.2" font-family="Helvetica,sans-Serif" font-size="11.00"> &#160;</text>
<polygon fill="#ffffff" stroke="transparent" points="451.5,-933 451.5,-951 513.5,-951 513.5,-933 451.5,-933"/>
<polygon fill="none" stroke="black" points="451.5,-933 451.5,-951 513.5,-951 513.5,-933 451.5,-933"/>
<text text-anchor="start" x="502.5" y="-939.2" font-family="Helvetica,sans-Serif" font-size="11.00"> &#160;</text>
</a>
</g>
</g>
<!-- roi_bluswater.brandkraan_prive&#45;&gt;fase -->
<g id="edge5" class="edge">
<title>roi_bluswater.brandkraan_prive:w&#45;&gt;fase:e</title>
<path fill="none" stroke="black" d="M252.96,-1000.62C157.32,-980.85 267.48,-756 152,-756"/>
<polygon fill="black" stroke="black" points="259.54,-1001.24 267.16,-1005.58 263.52,-1001.62 267.5,-1002 267.5,-1002 267.5,-1002 263.52,-1001.62 267.84,-998.42 259.54,-1001.24 259.54,-1001.24"/>
<ellipse fill="none" stroke="black" cx="256.35" cy="-1000.94" rx="3.2" ry="3.2"/>
</g>
<!-- roi_bluswater.brandkraan_prive&#45;&gt;symbool -->
<g id="edge6" class="edge">
<title>roi_bluswater.brandkraan_prive:w&#45;&gt;symbool:e</title>
<path fill="none" stroke="black" d="M253.31,-976.6C173.23,-933.13 319.59,-488 215,-488"/>
<polygon fill="black" stroke="black" points="259.72,-978.13 266.66,-983.5 263.61,-979.07 267.5,-980 267.5,-980 267.5,-980 263.61,-979.07 268.34,-976.5 259.72,-978.13 259.72,-978.13"/>
<ellipse fill="none" stroke="black" cx="256.61" cy="-977.39" rx="3.2" ry="3.2"/>
</g>
<!-- roi_bluswater.brandput -->
<g id="node6" class="node">
<title>roi_bluswater.brandput</title>
<g id="a_node6"><a xlink:href="../../../roi_bluswater/tables/brandput.html" xlink:title="roi_bluswater.brandput" target="_top">
<polygon fill="#ffffff" stroke="transparent" points="294,-810 294,-912 487,-912 487,-810 294,-810"/>
<polygon fill="#f5f5f5" stroke="transparent" points="294.5,-890 294.5,-912 487.5,-912 487.5,-890 294.5,-890"/>
<polygon fill="none" stroke="black" points="294.5,-890 294.5,-912 487.5,-912 487.5,-890 294.5,-890"/>
<text text-anchor="start" x="299.5" y="-899.2" font-family="Helvetica,sans-Serif" font-weight="bold" font-size="11.00">roi_bluswater.brandput</text>
<text text-anchor="start" x="445.5" y="-898.2" font-family="Helvetica,sans-Serif" font-size="11.00">[table]</text>
<polygon fill="none" stroke="black" points="294.5,-868 294.5,-890 487.5,-890 487.5,-868 294.5,-868"/>
<image xlink:href="../../images/foreignKeys.png" width="11px" height="12px" preserveAspectRatio="xMinYMin meet" x="299.5" y="-885"/>
<text text-anchor="start" x="316.5" y="-876.2" font-family="Helvetica,sans-Serif" font-size="11.00">fase_id</text>
<polygon fill="none" stroke="black" points="294.5,-846 294.5,-868 487.5,-868 487.5,-846 294.5,-846"/>
<image xlink:href="../../images/foreignKeys.png" width="11px" height="12px" preserveAspectRatio="xMinYMin meet" x="299.5" y="-863"/>
<text text-anchor="start" x="316.5" y="-854.2" font-family="Helvetica,sans-Serif" font-size="11.00">symbool_id</text>
<polygon fill="none" stroke="black" points="294.5,-828 294.5,-846 487.5,-846 487.5,-828 294.5,-828"/>
<text text-anchor="start" x="297.5" y="-834.2" font-family="Helvetica,sans-Serif" font-size="11.00">...</text>
<polygon fill="#ffffff" stroke="transparent" points="294.5,-810 294.5,-828 389.5,-828 389.5,-810 294.5,-810"/>
<polygon fill="none" stroke="black" points="294.5,-810 294.5,-828 389.5,-828 389.5,-810 294.5,-810"/>
<text text-anchor="start" x="297.5" y="-816.2" font-family="Helvetica,sans-Serif" font-size="11.00">&lt; 2</text>
<polygon fill="#ffffff" stroke="transparent" points="389.5,-810 389.5,-828 438.5,-828 438.5,-810 389.5,-810"/>
<polygon fill="none" stroke="black" points="389.5,-810 389.5,-828 438.5,-828 438.5,-810 389.5,-810"/>
<text text-anchor="start" x="427.5" y="-816.2" font-family="Helvetica,sans-Serif" font-size="11.00"> &#160;</text>
<polygon fill="#ffffff" stroke="transparent" points="438.5,-810 438.5,-828 487.5,-828 487.5,-810 438.5,-810"/>
<polygon fill="none" stroke="black" points="438.5,-810 438.5,-828 487.5,-828 487.5,-810 438.5,-810"/>
<text text-anchor="start" x="476.5" y="-816.2" font-family="Helvetica,sans-Serif" font-size="11.00"> &#160;</text>
</a>
</g>
</g>
<!-- roi_bluswater.brandput&#45;&gt;fase -->
<g id="edge7" class="edge">
<title>roi_bluswater.brandput:w&#45;&gt;fase:e</title>
<path fill="none" stroke="black" d="M279.09,-877.62C212.89,-864.11 230.12,-756 152,-756"/>
<polygon fill="black" stroke="black" points="285.54,-878.24 293.16,-882.58 289.52,-878.62 293.5,-879 293.5,-879 293.5,-879 289.52,-878.62 293.84,-875.42 285.54,-878.24 285.54,-878.24"/>
<ellipse fill="none" stroke="black" cx="282.35" cy="-877.93" rx="3.2" ry="3.2"/>
</g>
<!-- roi_bluswater.brandput&#45;&gt;symbool -->
<g id="edge8" class="edge">
<title>roi_bluswater.brandput:w&#45;&gt;symbool:e</title>
<path fill="none" stroke="black" d="M279.41,-853.93C264.41,-845.79 265.34,-822.73 257,-800 232.9,-734.32 284.96,-488 215,-488"/>
<polygon fill="black" stroke="black" points="285.68,-855.3 292.73,-860.52 289.59,-856.15 293.5,-857 293.5,-857 293.5,-857 289.59,-856.15 294.27,-853.48 285.68,-855.3 285.68,-855.3"/>
<ellipse fill="none" stroke="black" cx="282.56" cy="-854.61" rx="3.2" ry="3.2"/>
</g>
<!-- roi_bluswater.openwater -->
<g id="node7" class="node">
<title>roi_bluswater.openwater</title>
<g id="a_node7"><a xlink:href="../../../roi_bluswater/tables/openwater.html" xlink:title="roi_bluswater.openwater" target="_top">
<polygon fill="#ffffff" stroke="transparent" points="265,-687 265,-789 516,-789 516,-687 265,-687"/>
<polygon fill="#f5f5f5" stroke="transparent" points="265.5,-767 265.5,-789 516.5,-789 516.5,-767 265.5,-767"/>
<polygon fill="none" stroke="black" points="265.5,-767 265.5,-789 516.5,-789 516.5,-767 265.5,-767"/>
<text text-anchor="start" x="270.5" y="-776.2" font-family="Helvetica,sans-Serif" font-weight="bold" font-size="11.00">roi_bluswater.openwater</text>
<text text-anchor="start" x="474.5" y="-775.2" font-family="Helvetica,sans-Serif" font-size="11.00">[table]</text>
<polygon fill="none" stroke="black" points="265.5,-745 265.5,-767 516.5,-767 516.5,-745 265.5,-745"/>
<image xlink:href="../../images/foreignKeys.png" width="11px" height="12px" preserveAspectRatio="xMinYMin meet" x="270.5" y="-762"/>
<text text-anchor="start" x="285.5" y="-753.2" font-family="Helvetica,sans-Serif" font-size="11.00">fase_id</text>
<polygon fill="none" stroke="black" points="265.5,-723 265.5,-745 516.5,-745 516.5,-723 265.5,-723"/>
<image xlink:href="../../images/foreignKeys.png" width="11px" height="12px" preserveAspectRatio="xMinYMin meet" x="270.5" y="-740"/>
<text text-anchor="start" x="285.5" y="-731.2" font-family="Helvetica,sans-Serif" font-size="11.00">symbool_id</text>
<polygon fill="none" stroke="black" points="265.5,-705 265.5,-723 516.5,-723 516.5,-705 265.5,-705"/>
<text text-anchor="start" x="268.5" y="-711.2" font-family="Helvetica,sans-Serif" font-size="11.00">...</text>
<polygon fill="#ffffff" stroke="transparent" points="265.5,-687 265.5,-705 389.5,-705 389.5,-687 265.5,-687"/>
<polygon fill="none" stroke="black" points="265.5,-687 265.5,-705 389.5,-705 389.5,-687 265.5,-687"/>
<text text-anchor="start" x="268.5" y="-693.2" font-family="Helvetica,sans-Serif" font-size="11.00">&lt; 2</text>
<polygon fill="#ffffff" stroke="transparent" points="389.5,-687 389.5,-705 452.5,-705 452.5,-687 389.5,-687"/>
<polygon fill="none" stroke="black" points="389.5,-687 389.5,-705 452.5,-705 452.5,-687 389.5,-687"/>
<text text-anchor="start" x="441.5" y="-693.2" font-family="Helvetica,sans-Serif" font-size="11.00"> &#160;</text>
<polygon fill="#ffffff" stroke="transparent" points="452.5,-687 452.5,-705 516.5,-705 516.5,-687 452.5,-687"/>
<polygon fill="none" stroke="black" points="452.5,-687 452.5,-705 516.5,-705 516.5,-687 452.5,-687"/>
<text text-anchor="start" x="505.5" y="-693.2" font-family="Helvetica,sans-Serif" font-size="11.00"> &#160;</text>
</a>
</g>
</g>
<!-- roi_bluswater.openwater&#45;&gt;fase -->
<g id="edge9" class="edge">
<title>roi_bluswater.openwater:w&#45;&gt;fase:e</title>
<path fill="none" stroke="black" d="M250.09,-756C211.51,-756 196.82,-756 152,-756"/>
<polygon fill="black" stroke="black" points="256.5,-756 264.5,-759.6 260.5,-756 264.5,-756 264.5,-756 264.5,-756 260.5,-756 264.5,-752.4 256.5,-756 256.5,-756"/>
<ellipse fill="none" stroke="black" cx="253.3" cy="-756" rx="3.2" ry="3.2"/>
</g>
<!-- roi_bluswater.openwater&#45;&gt;symbool -->
<g id="edge10" class="edge">
<title>roi_bluswater.openwater:w&#45;&gt;symbool:e</title>
<path fill="none" stroke="black" d="M250.14,-732.3C169.24,-710.56 321.08,-488 215,-488"/>
<polygon fill="black" stroke="black" points="256.56,-733.06 264.08,-737.57 260.53,-733.53 264.5,-734 264.5,-734 264.5,-734 260.53,-733.53 264.92,-730.43 256.56,-733.06 256.56,-733.06"/>
<ellipse fill="none" stroke="black" cx="253.38" cy="-732.68" rx="3.2" ry="3.2"/>
</g>
<!-- roi_evenement.voorziening -->
<g id="node8" class="node">
<title>roi_evenement.voorziening</title>
<g id="a_node8"><a xlink:href="../../../roi_evenement/tables/voorziening.html" xlink:title="roi_evenement.voorziening" target="_top">
<polygon fill="#ffffff" stroke="transparent" points="281,-37 281,-117 500,-117 500,-37 281,-37"/>
<polygon fill="#f5f5f5" stroke="transparent" points="281.5,-95 281.5,-117 500.5,-117 500.5,-95 281.5,-95"/>
<polygon fill="none" stroke="black" points="281.5,-95 281.5,-117 500.5,-117 500.5,-95 281.5,-95"/>
<text text-anchor="start" x="286.5" y="-104.2" font-family="Helvetica,sans-Serif" font-weight="bold" font-size="11.00">roi_evenement.voorziening</text>
<text text-anchor="start" x="458.5" y="-103.2" font-family="Helvetica,sans-Serif" font-size="11.00">[table]</text>
<polygon fill="none" stroke="black" points="281.5,-73 281.5,-95 500.5,-95 500.5,-73 281.5,-73"/>
<image xlink:href="../../images/foreignKeys.png" width="11px" height="12px" preserveAspectRatio="xMinYMin meet" x="286.5" y="-90"/>
<text text-anchor="start" x="354.5" y="-81.2" font-family="Helvetica,sans-Serif" font-size="11.00">symbool_id</text>
<polygon fill="none" stroke="black" points="281.5,-55 281.5,-73 500.5,-73 500.5,-55 281.5,-55"/>
<text text-anchor="start" x="284.5" y="-61.2" font-family="Helvetica,sans-Serif" font-size="11.00">...</text>
<polygon fill="#ffffff" stroke="transparent" points="281.5,-37 281.5,-55 389.5,-55 389.5,-37 281.5,-37"/>
<polygon fill="none" stroke="black" points="281.5,-37 281.5,-55 389.5,-55 389.5,-37 281.5,-37"/>
<text text-anchor="start" x="284.5" y="-43.2" font-family="Helvetica,sans-Serif" font-size="11.00">&lt; 1</text>
<polygon fill="#ffffff" stroke="transparent" points="389.5,-37 389.5,-55 444.5,-55 444.5,-37 389.5,-37"/>
<polygon fill="none" stroke="black" points="389.5,-37 389.5,-55 444.5,-55 444.5,-37 389.5,-37"/>
<text text-anchor="start" x="433.5" y="-43.2" font-family="Helvetica,sans-Serif" font-size="11.00"> &#160;</text>
<polygon fill="#ffffff" stroke="transparent" points="444.5,-37 444.5,-55 500.5,-55 500.5,-37 444.5,-37"/>
<polygon fill="none" stroke="black" points="444.5,-37 444.5,-55 500.5,-55 500.5,-37 444.5,-37"/>
<text text-anchor="start" x="489.5" y="-43.2" font-family="Helvetica,sans-Serif" font-size="11.00"> &#160;</text>
</a>
</g>
</g>
<!-- roi_evenement.voorziening&#45;&gt;symbool -->
<g id="edge11" class="edge">
<title>roi_evenement.voorziening:w&#45;&gt;symbool:e</title>
<path fill="none" stroke="black" d="M266.56,-88C202.48,-129.96 300.62,-488 215,-488"/>
<polygon fill="black" stroke="black" points="272.81,-86.21 281.49,-87.46 276.66,-85.1 280.5,-84 280.5,-84 280.5,-84 276.66,-85.1 279.51,-80.54 272.81,-86.21 272.81,-86.21"/>
<ellipse fill="none" stroke="black" cx="269.73" cy="-87.09" rx="3.2" ry="3.2"/>
</g>
<!-- roi_gebouw.voorziening -->
<g id="node9" class="node">
<title>roi_gebouw.voorziening</title>
<g id="a_node9"><a xlink:href="../../../roi_gebouw/tables/voorziening.html" xlink:title="roi_gebouw.voorziening" target="_top">
<polygon fill="#ffffff" stroke="transparent" points="292,-340 292,-420 489,-420 489,-340 292,-340"/>
<polygon fill="#f5f5f5" stroke="transparent" points="292.5,-398 292.5,-420 489.5,-420 489.5,-398 292.5,-398"/>
<polygon fill="none" stroke="black" points="292.5,-398 292.5,-420 489.5,-420 489.5,-398 292.5,-398"/>
<text text-anchor="start" x="297.5" y="-407.2" font-family="Helvetica,sans-Serif" font-weight="bold" font-size="11.00">roi_gebouw.voorziening</text>
<text text-anchor="start" x="447.5" y="-406.2" font-family="Helvetica,sans-Serif" font-size="11.00">[table]</text>
<polygon fill="none" stroke="black" points="292.5,-376 292.5,-398 489.5,-398 489.5,-376 292.5,-376"/>
<image xlink:href="../../images/foreignKeys.png" width="11px" height="12px" preserveAspectRatio="xMinYMin meet" x="297.5" y="-393"/>
<text text-anchor="start" x="354.5" y="-384.2" font-family="Helvetica,sans-Serif" font-size="11.00">symbool_id</text>
<polygon fill="none" stroke="black" points="292.5,-358 292.5,-376 489.5,-376 489.5,-358 292.5,-358"/>
<text text-anchor="start" x="295.5" y="-364.2" font-family="Helvetica,sans-Serif" font-size="11.00">...</text>
<polygon fill="#ffffff" stroke="transparent" points="292.5,-340 292.5,-358 389.5,-358 389.5,-340 292.5,-340"/>
<polygon fill="none" stroke="black" points="292.5,-340 292.5,-358 389.5,-358 389.5,-340 292.5,-340"/>
<text text-anchor="start" x="295.5" y="-346.2" font-family="Helvetica,sans-Serif" font-size="11.00">&lt; 1</text>
<polygon fill="#ffffff" stroke="transparent" points="389.5,-340 389.5,-358 439.5,-358 439.5,-340 389.5,-340"/>
<polygon fill="none" stroke="black" points="389.5,-340 389.5,-358 439.5,-358 439.5,-340 389.5,-340"/>
<text text-anchor="start" x="428.5" y="-346.2" font-family="Helvetica,sans-Serif" font-size="11.00"> &#160;</text>
<polygon fill="#ffffff" stroke="transparent" points="439.5,-340 439.5,-358 489.5,-358 489.5,-340 439.5,-340"/>
<polygon fill="none" stroke="black" points="439.5,-340 439.5,-358 489.5,-358 489.5,-340 439.5,-340"/>
<text text-anchor="start" x="478.5" y="-346.2" font-family="Helvetica,sans-Serif" font-size="11.00"> &#160;</text>
</a>
</g>
</g>
<!-- roi_gebouw.voorziening&#45;&gt;symbool -->
<g id="edge12" class="edge">
<title>roi_gebouw.voorziening:w&#45;&gt;symbool:e</title>
<path fill="none" stroke="black" d="M277.01,-389.91C241.57,-406.47 265.59,-488 215,-488"/>
<polygon fill="black" stroke="black" points="283.66,-388.58 292.21,-390.53 287.58,-387.79 291.5,-387 291.5,-387 291.5,-387 287.58,-387.79 290.79,-383.47 283.66,-388.58 283.66,-388.58"/>
<ellipse fill="none" stroke="black" cx="280.52" cy="-389.21" rx="3.2" ry="3.2"/>
</g>
<!-- roi_natuurbrand.voorziening -->
<g id="node10" class="node">
<title>roi_natuurbrand.voorziening</title>
<g id="a_node10"><a xlink:href="../../../roi_natuurbrand/tables/voorziening.html" xlink:title="roi_natuurbrand.voorziening" target="_top">
<polygon fill="#ffffff" stroke="transparent" points="277.5,-239 277.5,-319 503.5,-319 503.5,-239 277.5,-239"/>
<polygon fill="#f5f5f5" stroke="transparent" points="277.5,-297 277.5,-319 503.5,-319 503.5,-297 277.5,-297"/>
<polygon fill="none" stroke="black" points="277.5,-297 277.5,-319 503.5,-319 503.5,-297 277.5,-297"/>
<text text-anchor="start" x="282.5" y="-306.2" font-family="Helvetica,sans-Serif" font-weight="bold" font-size="11.00">roi_natuurbrand.voorziening</text>
<text text-anchor="start" x="461.5" y="-305.2" font-family="Helvetica,sans-Serif" font-size="11.00">[table]</text>
<polygon fill="none" stroke="black" points="277.5,-275 277.5,-297 503.5,-297 503.5,-275 277.5,-275"/>
<image xlink:href="../../images/foreignKeys.png" width="11px" height="12px" preserveAspectRatio="xMinYMin meet" x="282.5" y="-292"/>
<text text-anchor="start" x="353.5" y="-283.2" font-family="Helvetica,sans-Serif" font-size="11.00">symbool_id</text>
<polygon fill="none" stroke="black" points="277.5,-257 277.5,-275 503.5,-275 503.5,-257 277.5,-257"/>
<text text-anchor="start" x="280.5" y="-263.2" font-family="Helvetica,sans-Serif" font-size="11.00">...</text>
<polygon fill="#ffffff" stroke="transparent" points="277.5,-239 277.5,-257 389.5,-257 389.5,-239 277.5,-239"/>
<polygon fill="none" stroke="black" points="277.5,-239 277.5,-257 389.5,-257 389.5,-239 277.5,-239"/>
<text text-anchor="start" x="280.5" y="-245.2" font-family="Helvetica,sans-Serif" font-size="11.00">&lt; 1</text>
<polygon fill="#ffffff" stroke="transparent" points="389.5,-239 389.5,-257 446.5,-257 446.5,-239 389.5,-239"/>
<polygon fill="none" stroke="black" points="389.5,-239 389.5,-257 446.5,-257 446.5,-239 389.5,-239"/>
<text text-anchor="start" x="435.5" y="-245.2" font-family="Helvetica,sans-Serif" font-size="11.00"> &#160;</text>
<polygon fill="#ffffff" stroke="transparent" points="446.5,-239 446.5,-257 503.5,-257 503.5,-239 446.5,-239"/>
<polygon fill="none" stroke="black" points="446.5,-239 446.5,-257 503.5,-257 503.5,-239 446.5,-239"/>
<text text-anchor="start" x="492.5" y="-245.2" font-family="Helvetica,sans-Serif" font-size="11.00"> &#160;</text>
</a>
</g>
</g>
<!-- roi_natuurbrand.voorziening&#45;&gt;symbool -->
<g id="edge13" class="edge">
<title>roi_natuurbrand.voorziening:w&#45;&gt;symbool:e</title>
<path fill="none" stroke="black" d="M262.18,-288C196.69,-308.98 303.35,-488 215,-488"/>
<polygon fill="black" stroke="black" points="268.58,-287.11 277,-289.57 272.54,-286.55 276.5,-286 276.5,-286 276.5,-286 272.54,-286.55 276,-282.43 268.58,-287.11 268.58,-287.11"/>
<ellipse fill="none" stroke="black" cx="265.41" cy="-287.55" rx="3.2" ry="3.2"/>
</g>
<!-- roi_waterongeval.voorziening -->
<g id="node11" class="node">
<title>roi_waterongeval.voorziening</title>
<g id="a_node11"><a xlink:href="../../../roi_waterongeval/tables/voorziening.html" xlink:title="roi_waterongeval.voorziening" target="_top">
<polygon fill="#ffffff" stroke="transparent" points="273,-138 273,-218 508,-218 508,-138 273,-138"/>
<polygon fill="#f5f5f5" stroke="transparent" points="273.5,-196 273.5,-218 508.5,-218 508.5,-196 273.5,-196"/>
<polygon fill="none" stroke="black" points="273.5,-196 273.5,-218 508.5,-218 508.5,-196 273.5,-196"/>
<text text-anchor="start" x="278.5" y="-205.2" font-family="Helvetica,sans-Serif" font-weight="bold" font-size="11.00">roi_waterongeval.voorziening</text>
<text text-anchor="start" x="466.5" y="-204.2" font-family="Helvetica,sans-Serif" font-size="11.00">[table]</text>
<polygon fill="none" stroke="black" points="273.5,-174 273.5,-196 508.5,-196 508.5,-174 273.5,-174"/>
<image xlink:href="../../images/foreignKeys.png" width="11px" height="12px" preserveAspectRatio="xMinYMin meet" x="278.5" y="-191"/>
<text text-anchor="start" x="354.5" y="-182.2" font-family="Helvetica,sans-Serif" font-size="11.00">symbool_id</text>
<polygon fill="none" stroke="black" points="273.5,-156 273.5,-174 508.5,-174 508.5,-156 273.5,-156"/>
<text text-anchor="start" x="276.5" y="-162.2" font-family="Helvetica,sans-Serif" font-size="11.00">...</text>
<polygon fill="#ffffff" stroke="transparent" points="273.5,-138 273.5,-156 389.5,-156 389.5,-138 273.5,-138"/>
<polygon fill="none" stroke="black" points="273.5,-138 273.5,-156 389.5,-156 389.5,-138 273.5,-138"/>
<text text-anchor="start" x="276.5" y="-144.2" font-family="Helvetica,sans-Serif" font-size="11.00">&lt; 1</text>
<polygon fill="#ffffff" stroke="transparent" points="389.5,-138 389.5,-156 448.5,-156 448.5,-138 389.5,-138"/>
<polygon fill="none" stroke="black" points="389.5,-138 389.5,-156 448.5,-156 448.5,-138 389.5,-138"/>
<text text-anchor="start" x="437.5" y="-144.2" font-family="Helvetica,sans-Serif" font-size="11.00"> &#160;</text>
<polygon fill="#ffffff" stroke="transparent" points="448.5,-138 448.5,-156 508.5,-156 508.5,-138 448.5,-138"/>
<polygon fill="none" stroke="black" points="448.5,-138 448.5,-156 508.5,-156 508.5,-138 448.5,-138"/>
<text text-anchor="start" x="497.5" y="-144.2" font-family="Helvetica,sans-Serif" font-size="11.00"> &#160;</text>
</a>
</g>
</g>
<!-- roi_waterongeval.voorziening&#45;&gt;symbool -->
<g id="edge14" class="edge">
<title>roi_waterongeval.voorziening:w&#45;&gt;symbool:e</title>
<path fill="none" stroke="black" d="M259.01,-190.26C215.49,-230.49 278.18,-488 215,-488"/>
<polygon fill="black" stroke="black" points="265.05,-187.91 273.81,-188.35 268.77,-186.45 272.5,-185 272.5,-185 272.5,-185 268.77,-186.45 271.19,-181.65 265.05,-187.91 265.05,-187.91"/>
<ellipse fill="none" stroke="black" cx="262.06" cy="-189.07" rx="3.2" ry="3.2"/>
</g>
</g>
</svg>
