<?xml version="1.0" encoding="UTF-8" standalone="no"?>
<!DOCTYPE svg PUBLIC "-//W3C//DTD SVG 1.1//EN"
 "http://www.w3.org/Graphics/SVG/1.1/DTD/svg11.dtd">
<!-- Generated by graphviz version 2.50.0 (0)
 -->
<!-- Title: oneDegreeRelationshipsDiagram Pages: 1 -->
<svg width="537pt" height="432pt"
 viewBox="0.00 0.00 537.00 432.00" xmlns="http://www.w3.org/2000/svg" xmlns:xlink="http://www.w3.org/1999/xlink">
<g id="graph0" class="graph" transform="scale(1 1) rotate(0) translate(4 428)">
<title>oneDegreeRelationshipsDiagram</title>
<polygon fill="#ffffff" stroke="transparent" points="-4,4 -4,-428 533,-428 533,4 -4,4"/>
<text text-anchor="middle" x="79.5" y="-7.2" font-family="Helvetica,sans-Serif" font-size="11.00">Generated by SchemaSpy</text>
<!-- roi_evenement.bereikbaarheid -->
<g id="node1" class="node">
<title>roi_evenement.bereikbaarheid</title>
<g id="a_node1"><a xlink:href="../../../roi_evenement/tables/bereikbaarheid.html" xlink:title="roi_evenement.bereikbaarheid" target="_top">
<polygon fill="#ffffff" stroke="transparent" points="273,-340 273,-420 513,-420 513,-340 273,-340"/>
<polygon fill="#f5f5f5" stroke="transparent" points="273,-398 273,-420 513,-420 513,-398 273,-398"/>
<polygon fill="none" stroke="black" points="273,-398 273,-420 513,-420 513,-398 273,-398"/>
<text text-anchor="start" x="278" y="-407.2" font-family="Helvetica,sans-Serif" font-weight="bold" font-size="11.00">roi_evenement.bereikbaarheid</text>
<text text-anchor="start" x="471" y="-406.2" font-family="Helvetica,sans-Serif" font-size="11.00">[table]</text>
<polygon fill="none" stroke="black" points="273,-376 273,-398 513,-398 513,-376 273,-376"/>
<image xlink:href="../../images/foreignKeys.png" width="11px" height="12px" preserveAspectRatio="xMinYMin meet" x="278" y="-393"/>
<text text-anchor="start" x="356" y="-384.2" font-family="Helvetica,sans-Serif" font-size="11.00">verbinding_id</text>
<polygon fill="none" stroke="black" points="273,-358 273,-376 513,-376 513,-358 273,-358"/>
<text text-anchor="start" x="276" y="-364.2" font-family="Helvetica,sans-Serif" font-size="11.00">...</text>
<polygon fill="#ffffff" stroke="transparent" points="273,-340 273,-358 392,-358 392,-340 273,-340"/>
<polygon fill="none" stroke="black" points="273,-340 273,-358 392,-358 392,-340 273,-340"/>
<text text-anchor="start" x="276" y="-346.2" font-family="Helvetica,sans-Serif" font-size="11.00">&lt; 1</text>
<polygon fill="#ffffff" stroke="transparent" points="392,-340 392,-358 452,-358 452,-340 392,-340"/>
<polygon fill="none" stroke="black" points="392,-340 392,-358 452,-358 452,-340 392,-340"/>
<text text-anchor="start" x="441" y="-346.2" font-family="Helvetica,sans-Serif" font-size="11.00"> &#160;</text>
<polygon fill="#ffffff" stroke="transparent" points="452,-340 452,-358 513,-358 513,-340 452,-340"/>
<polygon fill="none" stroke="black" points="452,-340 452,-358 513,-358 513,-340 452,-340"/>
<text text-anchor="start" x="502" y="-346.2" font-family="Helvetica,sans-Serif" font-size="11.00"> &#160;</text>
</a>
</g>
</g>
<!-- verbinding -->
<g id="node2" class="node">
<title>verbinding</title>
<g id="a_node2"><a xlink:href="../../tables/verbinding.html" xlink:title="verbinding" target="_top">
<polygon fill="#ffffff" stroke="transparent" points="8,-160 8,-270 216,-270 216,-160 8,-160"/>
<polygon fill="#f5f5f5" stroke="transparent" points="10,-246 10,-268 214,-268 214,-246 10,-246"/>
<polygon fill="none" stroke="black" points="10,-246 10,-268 214,-268 214,-246 10,-246"/>
<text text-anchor="start" x="15" y="-255.2" font-family="Helvetica,sans-Serif" font-weight="bold" font-size="11.00">verbinding</text>
<text text-anchor="start" x="172" y="-254.2" font-family="Helvetica,sans-Serif" font-size="11.00">[table]</text>
<polygon fill="none" stroke="black" points="10,-224 10,-246 108,-246 108,-224 10,-224"/>
<image xlink:href="../../images/primaryKeys.png" width="11px" height="12px" preserveAspectRatio="xMinYMin meet" x="15" y="-241"/>
<text text-anchor="start" x="30" y="-232.2" font-family="Helvetica,sans-Serif" font-size="11.00">id</text>
<polygon fill="none" stroke="black" points="108,-224 108,-246 214,-246 214,-224 108,-224"/>
<text text-anchor="start" x="111" y="-232.2" font-family="Helvetica,sans-Serif" font-size="11.00">int2[5]</text>
<polygon fill="none" stroke="black" points="10,-202 10,-224 108,-224 108,-202 10,-202"/>
<text text-anchor="start" x="30" y="-210.2" font-family="Helvetica,sans-Serif" font-size="11.00">naam</text>
<polygon fill="none" stroke="black" points="108,-202 108,-224 214,-224 214,-202 108,-202"/>
<text text-anchor="start" x="111" y="-210.2" font-family="Helvetica,sans-Serif" font-size="11.00">text[2147483647]</text>
<polygon fill="none" stroke="black" points="10,-180 10,-202 108,-202 108,-180 10,-180"/>
<text text-anchor="start" x="30" y="-188.2" font-family="Helvetica,sans-Serif" font-size="11.00">omschrijving</text>
<polygon fill="none" stroke="black" points="108,-180 108,-202 214,-202 214,-180 108,-180"/>
<text text-anchor="start" x="111" y="-188.2" font-family="Helvetica,sans-Serif" font-size="11.00">text[2147483647]</text>
<polygon fill="#ffffff" stroke="transparent" points="10,-162 10,-180 65,-180 65,-162 10,-162"/>
<polygon fill="none" stroke="black" points="10,-162 10,-180 65,-180 65,-162 10,-162"/>
<text text-anchor="start" x="13" y="-168.2" font-family="Helvetica,sans-Serif" font-size="11.00">&lt; 0</text>
<polygon fill="#ffffff" stroke="transparent" points="65,-162 65,-180 108,-180 108,-162 65,-162"/>
<polygon fill="none" stroke="black" points="65,-162 65,-180 108,-180 108,-162 65,-162"/>
<text text-anchor="start" x="97" y="-168.2" font-family="Helvetica,sans-Serif" font-size="11.00"> &#160;</text>
<polygon fill="#ffffff" stroke="transparent" points="108,-162 108,-180 214,-180 214,-162 108,-162"/>
<polygon fill="none" stroke="black" points="108,-162 108,-180 214,-180 214,-162 108,-162"/>
<text text-anchor="start" x="191" y="-168.2" font-family="Helvetica,sans-Serif" font-size="11.00">4 &gt;</text>
<polygon fill="none" stroke="black" stroke-width="2" points="9,-161 9,-269 215,-269 215,-161 9,-161"/>
</a>
</g>
</g>
<!-- roi_evenement.bereikbaarheid&#45;&gt;verbinding -->
<g id="edge1" class="edge">
<title>roi_evenement.bereikbaarheid:w&#45;&gt;verbinding:e</title>
<path fill="none" stroke="black" d="M257.57,-384.23C212.81,-363.63 281.37,-235 215,-235"/>
<polygon fill="black" stroke="black" points="264.14,-385.49 271.32,-390.54 268.07,-386.25 272,-387 272,-387 272,-387 268.07,-386.25 272.68,-383.46 264.14,-385.49 264.14,-385.49"/>
<ellipse fill="none" stroke="black" cx="261" cy="-384.89" rx="3.2" ry="3.2"/>
</g>
<!-- roi_gebouw.bereikbaarheid -->
<g id="node3" class="node">
<title>roi_gebouw.bereikbaarheid</title>
<g id="a_node3"><a xlink:href="../../../roi_gebouw/tables/bereikbaarheid.html" xlink:title="roi_gebouw.bereikbaarheid" target="_top">
<polygon fill="#ffffff" stroke="transparent" points="284,-239 284,-319 502,-319 502,-239 284,-239"/>
<polygon fill="#f5f5f5" stroke="transparent" points="284,-297 284,-319 502,-319 502,-297 284,-297"/>
<polygon fill="none" stroke="black" points="284,-297 284,-319 502,-319 502,-297 284,-297"/>
<text text-anchor="start" x="289" y="-306.2" font-family="Helvetica,sans-Serif" font-weight="bold" font-size="11.00">roi_gebouw.bereikbaarheid</text>
<text text-anchor="start" x="460" y="-305.2" font-family="Helvetica,sans-Serif" font-size="11.00">[table]</text>
<polygon fill="none" stroke="black" points="284,-275 284,-297 502,-297 502,-275 284,-275"/>
<image xlink:href="../../images/foreignKeys.png" width="11px" height="12px" preserveAspectRatio="xMinYMin meet" x="289" y="-292"/>
<text text-anchor="start" x="356" y="-283.2" font-family="Helvetica,sans-Serif" font-size="11.00">verbinding_id</text>
<polygon fill="none" stroke="black" points="284,-257 284,-275 502,-275 502,-257 284,-257"/>
<text text-anchor="start" x="287" y="-263.2" font-family="Helvetica,sans-Serif" font-size="11.00">...</text>
<polygon fill="#ffffff" stroke="transparent" points="284,-239 284,-257 392,-257 392,-239 284,-239"/>
<polygon fill="none" stroke="black" points="284,-239 284,-257 392,-257 392,-239 284,-239"/>
<text text-anchor="start" x="287" y="-245.2" font-family="Helvetica,sans-Serif" font-size="11.00">&lt; 1</text>
<polygon fill="#ffffff" stroke="transparent" points="392,-239 392,-257 447,-257 447,-239 392,-239"/>
<polygon fill="none" stroke="black" points="392,-239 392,-257 447,-257 447,-239 392,-239"/>
<text text-anchor="start" x="436" y="-245.2" font-family="Helvetica,sans-Serif" font-size="11.00"> &#160;</text>
<polygon fill="#ffffff" stroke="transparent" points="447,-239 447,-257 502,-257 502,-239 447,-239"/>
<polygon fill="none" stroke="black" points="447,-239 447,-257 502,-257 502,-239 447,-239"/>
<text text-anchor="start" x="491" y="-245.2" font-family="Helvetica,sans-Serif" font-size="11.00"> &#160;</text>
</a>
</g>
</g>
<!-- roi_gebouw.bereikbaarheid&#45;&gt;verbinding -->
<g id="edge2" class="edge">
<title>roi_gebouw.bereikbaarheid:w&#45;&gt;verbinding:e</title>
<path fill="none" stroke="black" d="M268.88,-282.96C246.47,-271.98 247.17,-235 215,-235"/>
<polygon fill="black" stroke="black" points="275.18,-284.32 282.24,-289.52 279.09,-285.16 283,-286 283,-286 283,-286 279.09,-285.16 283.76,-282.48 275.18,-284.32 275.18,-284.32"/>
<ellipse fill="none" stroke="black" cx="272.05" cy="-283.64" rx="3.2" ry="3.2"/>
</g>
<!-- roi_natuurbrand.bereikbaarheid -->
<g id="node4" class="node">
<title>roi_natuurbrand.bereikbaarheid</title>
<g id="a_node4"><a xlink:href="../../../roi_natuurbrand/tables/bereikbaarheid.html" xlink:title="roi_natuurbrand.bereikbaarheid" target="_top">
<polygon fill="#ffffff" stroke="transparent" points="269.5,-138 269.5,-218 516.5,-218 516.5,-138 269.5,-138"/>
<polygon fill="#f5f5f5" stroke="transparent" points="270,-196 270,-218 517,-218 517,-196 270,-196"/>
<polygon fill="none" stroke="black" points="270,-196 270,-218 517,-218 517,-196 270,-196"/>
<text text-anchor="start" x="275" y="-205.2" font-family="Helvetica,sans-Serif" font-weight="bold" font-size="11.00">roi_natuurbrand.bereikbaarheid</text>
<text text-anchor="start" x="475" y="-204.2" font-family="Helvetica,sans-Serif" font-size="11.00">[table]</text>
<polygon fill="none" stroke="black" points="270,-174 270,-196 517,-196 517,-174 270,-174"/>
<image xlink:href="../../images/foreignKeys.png" width="11px" height="12px" preserveAspectRatio="xMinYMin meet" x="275" y="-191"/>
<text text-anchor="start" x="357" y="-182.2" font-family="Helvetica,sans-Serif" font-size="11.00">verbinding_id</text>
<polygon fill="none" stroke="black" points="270,-156 270,-174 517,-174 517,-156 270,-156"/>
<text text-anchor="start" x="273" y="-162.2" font-family="Helvetica,sans-Serif" font-size="11.00">...</text>
<polygon fill="#ffffff" stroke="transparent" points="270,-138 270,-156 392,-156 392,-138 270,-138"/>
<polygon fill="none" stroke="black" points="270,-138 270,-156 392,-156 392,-138 270,-138"/>
<text text-anchor="start" x="273" y="-144.2" font-family="Helvetica,sans-Serif" font-size="11.00">&lt; 1</text>
<polygon fill="#ffffff" stroke="transparent" points="392,-138 392,-156 454,-156 454,-138 392,-138"/>
<polygon fill="none" stroke="black" points="392,-138 392,-156 454,-156 454,-138 392,-138"/>
<text text-anchor="start" x="443" y="-144.2" font-family="Helvetica,sans-Serif" font-size="11.00"> &#160;</text>
<polygon fill="#ffffff" stroke="transparent" points="454,-138 454,-156 517,-156 517,-138 454,-138"/>
<polygon fill="none" stroke="black" points="454,-138 454,-156 517,-156 517,-138 454,-138"/>
<text text-anchor="start" x="506" y="-144.2" font-family="Helvetica,sans-Serif" font-size="11.00"> &#160;</text>
</a>
</g>
</g>
<!-- roi_natuurbrand.bereikbaarheid&#45;&gt;verbinding -->
<g id="edge3" class="edge">
<title>roi_natuurbrand.bereikbaarheid:w&#45;&gt;verbinding:e</title>
<path fill="none" stroke="black" d="M255.13,-189.26C238.97,-201.35 241.83,-235 215,-235"/>
<polygon fill="black" stroke="black" points="261.35,-187.35 270.06,-188.44 265.18,-186.18 269,-185 269,-185 269,-185 265.18,-186.18 267.94,-181.56 261.35,-187.35 261.35,-187.35"/>
<ellipse fill="none" stroke="black" cx="258.29" cy="-188.29" rx="3.2" ry="3.2"/>
</g>
<!-- roi_waterongeval.bereikbaarheid -->
<g id="node5" class="node">
<title>roi_waterongeval.bereikbaarheid</title>
<g id="a_node5"><a xlink:href="../../../roi_waterongeval/tables/bereikbaarheid.html" xlink:title="roi_waterongeval.bereikbaarheid" target="_top">
<polygon fill="#ffffff" stroke="transparent" points="265,-37 265,-117 521,-117 521,-37 265,-37"/>
<polygon fill="#f5f5f5" stroke="transparent" points="265,-95 265,-117 521,-117 521,-95 265,-95"/>
<polygon fill="none" stroke="black" points="265,-95 265,-117 521,-117 521,-95 265,-95"/>
<text text-anchor="start" x="270" y="-104.2" font-family="Helvetica,sans-Serif" font-weight="bold" font-size="11.00">roi_waterongeval.bereikbaarheid</text>
<text text-anchor="start" x="479" y="-103.2" font-family="Helvetica,sans-Serif" font-size="11.00">[table]</text>
<polygon fill="none" stroke="black" points="265,-73 265,-95 521,-95 521,-73 265,-73"/>
<image xlink:href="../../images/foreignKeys.png" width="11px" height="12px" preserveAspectRatio="xMinYMin meet" x="270" y="-90"/>
<text text-anchor="start" x="356" y="-81.2" font-family="Helvetica,sans-Serif" font-size="11.00">verbinding_id</text>
<polygon fill="none" stroke="black" points="265,-55 265,-73 521,-73 521,-55 265,-55"/>
<text text-anchor="start" x="268" y="-61.2" font-family="Helvetica,sans-Serif" font-size="11.00">...</text>
<polygon fill="#ffffff" stroke="transparent" points="265,-37 265,-55 392,-55 392,-37 265,-37"/>
<polygon fill="none" stroke="black" points="265,-37 265,-55 392,-55 392,-37 265,-37"/>
<text text-anchor="start" x="268" y="-43.2" font-family="Helvetica,sans-Serif" font-size="11.00">&lt; 1</text>
<polygon fill="#ffffff" stroke="transparent" points="392,-37 392,-55 456,-55 456,-37 392,-37"/>
<polygon fill="none" stroke="black" points="392,-37 392,-55 456,-55 456,-37 392,-37"/>
<text text-anchor="start" x="445" y="-43.2" font-family="Helvetica,sans-Serif" font-size="11.00"> &#160;</text>
<polygon fill="#ffffff" stroke="transparent" points="456,-37 456,-55 521,-55 521,-37 456,-37"/>
<polygon fill="none" stroke="black" points="456,-37 456,-55 521,-55 521,-37 456,-37"/>
<text text-anchor="start" x="510" y="-43.2" font-family="Helvetica,sans-Serif" font-size="11.00"> &#160;</text>
</a>
</g>
</g>
<!-- roi_waterongeval.bereikbaarheid&#45;&gt;verbinding -->
<g id="edge4" class="edge">
<title>roi_waterongeval.bereikbaarheid:w&#45;&gt;verbinding:e</title>
<path fill="none" stroke="black" d="M249.74,-86.88C207.46,-107.76 279.77,-235 215,-235"/>
<polygon fill="black" stroke="black" points="256.16,-85.58 264.71,-87.53 260.08,-84.79 264,-84 264,-84 264,-84 260.08,-84.79 263.29,-80.47 256.16,-85.58 256.16,-85.58"/>
<ellipse fill="none" stroke="black" cx="253.02" cy="-86.22" rx="3.2" ry="3.2"/>
</g>
</g>
</svg>
