<?xml version="1.0" encoding="UTF-8" standalone="no"?>
<!DOCTYPE svg PUBLIC "-//W3C//DTD SVG 1.1//EN"
 "http://www.w3.org/Graphics/SVG/1.1/DTD/svg11.dtd">
<!-- Generated by graphviz version 2.40.1 (20161225.0304)
 -->
<!-- Title: oneDegreeRelationshipsDiagram Pages: 1 -->
<svg width="488pt" height="445pt"
 viewBox="0.00 0.00 488.00 445.20" xmlns="http://www.w3.org/2000/svg" xmlns:xlink="http://www.w3.org/1999/xlink">
<g id="graph0" class="graph" transform="scale(1 1) rotate(0) translate(4 441.2)">
<title>oneDegreeRelationshipsDiagram</title>
<polygon fill="#ffffff" stroke="transparent" points="-4,4 -4,-441.2 484,-441.2 484,4 -4,4"/>
<text text-anchor="middle" x="72.4936" y="-7.3" font-family="Helvetica,sans-Serif" font-size="11.00" fill="#000000">Generated by SchemaSpy</text>
<!-- roi_evenement.bereikbaarheid -->
<g id="node1" class="node">
<title>roi_evenement.bereikbaarheid</title>
<g id="a_node1"><a xlink:href="../../../roi_evenement/tables/bereikbaarheid.html" xlink:title="roi_evenement.bereikbaarheid" target="_top">
<polygon fill="#ffffff" stroke="transparent" points="253,-350.2 253,-433.2 465,-433.2 465,-350.2 253,-350.2"/>
<polygon fill="#f5f5f5" stroke="transparent" points="253,-409.7 253,-432.7 465,-432.7 465,-409.7 253,-409.7"/>
<polygon fill="none" stroke="#000000" points="253,-409.7 253,-432.7 465,-432.7 465,-409.7 253,-409.7"/>
<text text-anchor="start" x="258" y="-418.3" font-family="Helvetica,sans-Serif" font-weight="bold" font-size="11.00" fill="#000000">roi_evenement.bereikbaarheid</text>
<text text-anchor="start" x="430.5219" y="-417.8" font-family="Helvetica,sans-Serif" font-size="11.00" fill="#000000">[table]</text>
<polygon fill="none" stroke="#000000" points="253,-387.7 253,-409.7 465,-409.7 465,-387.7 253,-387.7"/>
<image xlink:href="../../images/foreignKeys.png" width="11px" height="12px" preserveAspectRatio="xMinYMin meet" x="258" y="-404.7"/>
<text text-anchor="start" x="325" y="-394.8" font-family="Helvetica,sans-Serif" font-size="11.00" fill="#000000">verbinding_id</text>
<polygon fill="none" stroke="#000000" points="253,-368.7 253,-387.7 465,-387.7 465,-368.7 253,-368.7"/>
<text text-anchor="start" x="256" y="-374.8" font-family="Helvetica,sans-Serif" font-size="11.00" fill="#000000">...</text>
<polygon fill="#ffffff" stroke="transparent" points="253,-349.7 253,-368.7 357,-368.7 357,-349.7 253,-349.7"/>
<polygon fill="none" stroke="#000000" points="253,-349.7 253,-368.7 357,-368.7 357,-349.7 253,-349.7"/>
<text text-anchor="start" x="256" y="-355.8" font-family="Helvetica,sans-Serif" font-size="11.00" fill="#000000">&lt; 1</text>
<polygon fill="#ffffff" stroke="transparent" points="357,-349.7 357,-368.7 411,-368.7 411,-349.7 357,-349.7"/>
<polygon fill="none" stroke="#000000" points="357,-349.7 357,-368.7 411,-368.7 411,-349.7 357,-349.7"/>
<text text-anchor="start" x="401.8862" y="-355.8" font-family="Helvetica,sans-Serif" font-size="11.00" fill="#000000"> &#160;</text>
<polygon fill="#ffffff" stroke="transparent" points="411,-349.7 411,-368.7 465,-368.7 465,-349.7 411,-349.7"/>
<polygon fill="none" stroke="#000000" points="411,-349.7 411,-368.7 465,-368.7 465,-349.7 411,-349.7"/>
<text text-anchor="start" x="455.8862" y="-355.8" font-family="Helvetica,sans-Serif" font-size="11.00" fill="#000000"> &#160;</text>
</a>
</g>
</g>
<!-- verbinding -->
<g id="node2" class="node">
<title>verbinding</title>
<g id="a_node2"><a xlink:href="../../tables/verbinding.html" xlink:title="verbinding" target="_top">
<polygon fill="#ffffff" stroke="transparent" points="8,-166.7 8,-278.7 197,-278.7 197,-166.7 8,-166.7"/>
<polygon fill="#f5f5f5" stroke="transparent" points="10.5,-253.7 10.5,-276.7 195.5,-276.7 195.5,-253.7 10.5,-253.7"/>
<polygon fill="none" stroke="#000000" points="10.5,-253.7 10.5,-276.7 195.5,-276.7 195.5,-253.7 10.5,-253.7"/>
<text text-anchor="start" x="15.5" y="-262.3" font-family="Helvetica,sans-Serif" font-weight="bold" font-size="11.00" fill="#000000">verbinding</text>
<text text-anchor="start" x="160.5437" y="-261.8" font-family="Helvetica,sans-Serif" font-size="11.00" fill="#000000">[table]</text>
<polygon fill="none" stroke="#000000" points="10.5,-231.7 10.5,-253.7 105.5,-253.7 105.5,-231.7 10.5,-231.7"/>
<image xlink:href="../../images/primaryKeys.png" width="11px" height="12px" preserveAspectRatio="xMinYMin meet" x="15.5" y="-248.7"/>
<text text-anchor="start" x="30.5" y="-238.8" font-family="Helvetica,sans-Serif" font-size="11.00" fill="#000000">id</text>
<polygon fill="none" stroke="#000000" points="105.5,-231.7 105.5,-253.7 195.5,-253.7 195.5,-231.7 105.5,-231.7"/>
<text text-anchor="start" x="108.5" y="-239.4" font-family="Helvetica,sans-Serif" font-size="11.00" fill="#000000">int2[5]</text>
<polygon fill="none" stroke="#000000" points="10.5,-209.7 10.5,-231.7 105.5,-231.7 105.5,-209.7 10.5,-209.7"/>
<text text-anchor="start" x="30.5" y="-216.8" font-family="Helvetica,sans-Serif" font-size="11.00" fill="#000000">naam</text>
<polygon fill="none" stroke="#000000" points="105.5,-209.7 105.5,-231.7 195.5,-231.7 195.5,-209.7 105.5,-209.7"/>
<text text-anchor="start" x="108.0042" y="-217.4" font-family="Helvetica,sans-Serif" font-size="11.00" fill="#000000">text[2147483647]</text>
<polygon fill="none" stroke="#000000" points="10.5,-187.7 10.5,-209.7 105.5,-209.7 105.5,-187.7 10.5,-187.7"/>
<text text-anchor="start" x="30.5" y="-194.8" font-family="Helvetica,sans-Serif" font-size="11.00" fill="#000000">omschrijving</text>
<polygon fill="none" stroke="#000000" points="105.5,-187.7 105.5,-209.7 195.5,-209.7 195.5,-187.7 105.5,-187.7"/>
<text text-anchor="start" x="108.0042" y="-195.4" font-family="Helvetica,sans-Serif" font-size="11.00" fill="#000000">text[2147483647]</text>
<polygon fill="#ffffff" stroke="transparent" points="10.5,-168.7 10.5,-187.7 62.5,-187.7 62.5,-168.7 10.5,-168.7"/>
<polygon fill="none" stroke="#000000" points="10.5,-168.7 10.5,-187.7 62.5,-187.7 62.5,-168.7 10.5,-168.7"/>
<text text-anchor="start" x="13.5" y="-174.8" font-family="Helvetica,sans-Serif" font-size="11.00" fill="#000000">&lt; 0</text>
<polygon fill="#ffffff" stroke="transparent" points="62.5,-168.7 62.5,-187.7 105.5,-187.7 105.5,-168.7 62.5,-168.7"/>
<polygon fill="none" stroke="#000000" points="62.5,-168.7 62.5,-187.7 105.5,-187.7 105.5,-168.7 62.5,-168.7"/>
<text text-anchor="start" x="96.3862" y="-174.8" font-family="Helvetica,sans-Serif" font-size="11.00" fill="#000000"> &#160;</text>
<polygon fill="#ffffff" stroke="transparent" points="105.5,-168.7 105.5,-187.7 195.5,-187.7 195.5,-168.7 105.5,-168.7"/>
<polygon fill="none" stroke="#000000" points="105.5,-168.7 105.5,-187.7 195.5,-187.7 195.5,-168.7 105.5,-168.7"/>
<text text-anchor="start" x="176.9053" y="-174.8" font-family="Helvetica,sans-Serif" font-size="11.00" fill="#000000">4 &gt;</text>
<polygon fill="none" stroke="#000000" stroke-width="2" points="9,-167.7 9,-277.7 196,-277.7 196,-167.7 9,-167.7"/>
</a>
</g>
</g>
<!-- roi_evenement.bereikbaarheid&#45;&gt;verbinding -->
<g id="edge1" class="edge">
<title>roi_evenement.bereikbaarheid:w&#45;&gt;verbinding:e</title>
<path fill="none" stroke="#000000" d="M238.8269,-396.1225C191.9088,-375.8395 263.7646,-242.7 195.5,-242.7"/>
<polygon fill="#000000" stroke="#000000" points="245.1291,-397.2686 252.3558,-402.2419 249.0645,-397.9843 253,-398.7 253,-398.7 253,-398.7 249.0645,-397.9843 253.6442,-395.1581 245.1291,-397.2686 245.1291,-397.2686"/>
<ellipse fill="none" stroke="#000000" cx="241.9807" cy="-396.696" rx="3.2" ry="3.2"/>
</g>
<!-- roi_gebouw.bereikbaarheid -->
<g id="node3" class="node">
<title>roi_gebouw.bereikbaarheid</title>
<g id="a_node3"><a xlink:href="../../../roi_gebouw/tables/bereikbaarheid.html" xlink:title="roi_gebouw.bereikbaarheid" target="_top">
<polygon fill="#ffffff" stroke="transparent" points="261.5,-246.2 261.5,-329.2 456.5,-329.2 456.5,-246.2 261.5,-246.2"/>
<polygon fill="#f5f5f5" stroke="transparent" points="262,-305.7 262,-328.7 457,-328.7 457,-305.7 262,-305.7"/>
<polygon fill="none" stroke="#000000" points="262,-305.7 262,-328.7 457,-328.7 457,-305.7 262,-305.7"/>
<text text-anchor="start" x="267" y="-314.3" font-family="Helvetica,sans-Serif" font-weight="bold" font-size="11.00" fill="#000000">roi_gebouw.bereikbaarheid</text>
<text text-anchor="start" x="422.5219" y="-313.8" font-family="Helvetica,sans-Serif" font-size="11.00" fill="#000000">[table]</text>
<polygon fill="none" stroke="#000000" points="262,-283.7 262,-305.7 457,-305.7 457,-283.7 262,-283.7"/>
<image xlink:href="../../images/foreignKeys.png" width="11px" height="12px" preserveAspectRatio="xMinYMin meet" x="267" y="-300.7"/>
<text text-anchor="start" x="325" y="-290.8" font-family="Helvetica,sans-Serif" font-size="11.00" fill="#000000">verbinding_id</text>
<polygon fill="none" stroke="#000000" points="262,-264.7 262,-283.7 457,-283.7 457,-264.7 262,-264.7"/>
<text text-anchor="start" x="265" y="-270.8" font-family="Helvetica,sans-Serif" font-size="11.00" fill="#000000">...</text>
<polygon fill="#ffffff" stroke="transparent" points="262,-245.7 262,-264.7 358,-264.7 358,-245.7 262,-245.7"/>
<polygon fill="none" stroke="#000000" points="262,-245.7 262,-264.7 358,-264.7 358,-245.7 262,-245.7"/>
<text text-anchor="start" x="265" y="-251.8" font-family="Helvetica,sans-Serif" font-size="11.00" fill="#000000">&lt; 1</text>
<polygon fill="#ffffff" stroke="transparent" points="358,-245.7 358,-264.7 407,-264.7 407,-245.7 358,-245.7"/>
<polygon fill="none" stroke="#000000" points="358,-245.7 358,-264.7 407,-264.7 407,-245.7 358,-245.7"/>
<text text-anchor="start" x="397.8862" y="-251.8" font-family="Helvetica,sans-Serif" font-size="11.00" fill="#000000"> &#160;</text>
<polygon fill="#ffffff" stroke="transparent" points="407,-245.7 407,-264.7 457,-264.7 457,-245.7 407,-245.7"/>
<polygon fill="none" stroke="#000000" points="407,-245.7 407,-264.7 457,-264.7 457,-245.7 407,-245.7"/>
<text text-anchor="start" x="447.8862" y="-251.8" font-family="Helvetica,sans-Serif" font-size="11.00" fill="#000000"> &#160;</text>
</a>
</g>
</g>
<!-- roi_gebouw.bereikbaarheid&#45;&gt;verbinding -->
<g id="edge2" class="edge">
<title>roi_gebouw.bereikbaarheid:w&#45;&gt;verbinding:e</title>
<path fill="none" stroke="#000000" d="M247.7338,-291.4472C226.0136,-280.0631 227.303,-242.7 195.5,-242.7"/>
<polygon fill="#000000" stroke="#000000" points="254.2002,-292.9215 261.1997,-298.2099 258.1001,-293.8108 262,-294.7 262,-294.7 262,-294.7 258.1001,-293.8108 262.8003,-291.1901 254.2002,-292.9215 254.2002,-292.9215"/>
<ellipse fill="none" stroke="#000000" cx="251.0803" cy="-292.2101" rx="3.2" ry="3.2"/>
</g>
<!-- roi_natuurbrand.bereikbaarheid -->
<g id="node4" class="node">
<title>roi_natuurbrand.bereikbaarheid</title>
<g id="a_node4"><a xlink:href="../../../roi_natuurbrand/tables/bereikbaarheid.html" xlink:title="roi_natuurbrand.bereikbaarheid" target="_top">
<polygon fill="#ffffff" stroke="transparent" points="249,-142.2 249,-225.2 469,-225.2 469,-142.2 249,-142.2"/>
<polygon fill="#f5f5f5" stroke="transparent" points="249,-201.7 249,-224.7 469,-224.7 469,-201.7 249,-201.7"/>
<polygon fill="none" stroke="#000000" points="249,-201.7 249,-224.7 469,-224.7 469,-201.7 249,-201.7"/>
<text text-anchor="start" x="254" y="-210.3" font-family="Helvetica,sans-Serif" font-weight="bold" font-size="11.00" fill="#000000">roi_natuurbrand.bereikbaarheid</text>
<text text-anchor="start" x="434.5219" y="-209.8" font-family="Helvetica,sans-Serif" font-size="11.00" fill="#000000">[table]</text>
<polygon fill="none" stroke="#000000" points="249,-179.7 249,-201.7 469,-201.7 469,-179.7 249,-179.7"/>
<image xlink:href="../../images/foreignKeys.png" width="11px" height="12px" preserveAspectRatio="xMinYMin meet" x="254" y="-196.7"/>
<text text-anchor="start" x="325" y="-186.8" font-family="Helvetica,sans-Serif" font-size="11.00" fill="#000000">verbinding_id</text>
<polygon fill="none" stroke="#000000" points="249,-160.7 249,-179.7 469,-179.7 469,-160.7 249,-160.7"/>
<text text-anchor="start" x="252" y="-166.8" font-family="Helvetica,sans-Serif" font-size="11.00" fill="#000000">...</text>
<polygon fill="#ffffff" stroke="transparent" points="249,-141.7 249,-160.7 357,-160.7 357,-141.7 249,-141.7"/>
<polygon fill="none" stroke="#000000" points="249,-141.7 249,-160.7 357,-160.7 357,-141.7 249,-141.7"/>
<text text-anchor="start" x="252" y="-147.8" font-family="Helvetica,sans-Serif" font-size="11.00" fill="#000000">&lt; 1</text>
<polygon fill="#ffffff" stroke="transparent" points="357,-141.7 357,-160.7 413,-160.7 413,-141.7 357,-141.7"/>
<polygon fill="none" stroke="#000000" points="357,-141.7 357,-160.7 413,-160.7 413,-141.7 357,-141.7"/>
<text text-anchor="start" x="403.8862" y="-147.8" font-family="Helvetica,sans-Serif" font-size="11.00" fill="#000000"> &#160;</text>
<polygon fill="#ffffff" stroke="transparent" points="413,-141.7 413,-160.7 469,-160.7 469,-141.7 413,-141.7"/>
<polygon fill="none" stroke="#000000" points="413,-141.7 413,-160.7 469,-160.7 469,-141.7 413,-141.7"/>
<text text-anchor="start" x="459.8862" y="-147.8" font-family="Helvetica,sans-Serif" font-size="11.00" fill="#000000"> &#160;</text>
</a>
</g>
</g>
<!-- roi_natuurbrand.bereikbaarheid&#45;&gt;verbinding -->
<g id="edge3" class="edge">
<title>roi_natuurbrand.bereikbaarheid:w&#45;&gt;verbinding:e</title>
<path fill="none" stroke="#000000" d="M235.0453,-195.1335C218.9631,-207.7085 222.7006,-242.7 195.5,-242.7"/>
<polygon fill="#000000" stroke="#000000" points="241.3755,-193.1224 250.0901,-194.131 245.1878,-191.9112 249,-190.7 249,-190.7 249,-190.7 245.1878,-191.9112 247.9099,-187.269 241.3755,-193.1224 241.3755,-193.1224"/>
<ellipse fill="none" stroke="#000000" cx="238.3258" cy="-194.0913" rx="3.2" ry="3.2"/>
</g>
<!-- roi_waterongeval.bereikbaarheid -->
<g id="node5" class="node">
<title>roi_waterongeval.bereikbaarheid</title>
<g id="a_node5"><a xlink:href="../../../roi_waterongeval/tables/bereikbaarheid.html" xlink:title="roi_waterongeval.bereikbaarheid" target="_top">
<polygon fill="#ffffff" stroke="transparent" points="246,-38.2 246,-121.2 472,-121.2 472,-38.2 246,-38.2"/>
<polygon fill="#f5f5f5" stroke="transparent" points="246,-97.7 246,-120.7 472,-120.7 472,-97.7 246,-97.7"/>
<polygon fill="none" stroke="#000000" points="246,-97.7 246,-120.7 472,-120.7 472,-97.7 246,-97.7"/>
<text text-anchor="start" x="251" y="-106.3" font-family="Helvetica,sans-Serif" font-weight="bold" font-size="11.00" fill="#000000">roi_waterongeval.bereikbaarheid</text>
<text text-anchor="start" x="437.5219" y="-105.8" font-family="Helvetica,sans-Serif" font-size="11.00" fill="#000000">[table]</text>
<polygon fill="none" stroke="#000000" points="246,-75.7 246,-97.7 472,-97.7 472,-75.7 246,-75.7"/>
<image xlink:href="../../images/foreignKeys.png" width="11px" height="12px" preserveAspectRatio="xMinYMin meet" x="251" y="-92.7"/>
<text text-anchor="start" x="325" y="-82.8" font-family="Helvetica,sans-Serif" font-size="11.00" fill="#000000">verbinding_id</text>
<polygon fill="none" stroke="#000000" points="246,-56.7 246,-75.7 472,-75.7 472,-56.7 246,-56.7"/>
<text text-anchor="start" x="249" y="-62.8" font-family="Helvetica,sans-Serif" font-size="11.00" fill="#000000">...</text>
<polygon fill="#ffffff" stroke="transparent" points="246,-37.7 246,-56.7 357,-56.7 357,-37.7 246,-37.7"/>
<polygon fill="none" stroke="#000000" points="246,-37.7 246,-56.7 357,-56.7 357,-37.7 246,-37.7"/>
<text text-anchor="start" x="249" y="-43.8" font-family="Helvetica,sans-Serif" font-size="11.00" fill="#000000">&lt; 1</text>
<polygon fill="#ffffff" stroke="transparent" points="357,-37.7 357,-56.7 414,-56.7 414,-37.7 357,-37.7"/>
<polygon fill="none" stroke="#000000" points="357,-37.7 357,-56.7 414,-56.7 414,-37.7 357,-37.7"/>
<text text-anchor="start" x="404.8862" y="-43.8" font-family="Helvetica,sans-Serif" font-size="11.00" fill="#000000"> &#160;</text>
<polygon fill="#ffffff" stroke="transparent" points="414,-37.7 414,-56.7 472,-56.7 472,-37.7 414,-37.7"/>
<polygon fill="none" stroke="#000000" points="414,-37.7 414,-56.7 472,-56.7 472,-37.7 414,-37.7"/>
<text text-anchor="start" x="462.8862" y="-43.8" font-family="Helvetica,sans-Serif" font-size="11.00" fill="#000000"> &#160;</text>
</a>
</g>
</g>
<!-- roi_waterongeval.bereikbaarheid&#45;&gt;verbinding -->
<g id="edge4" class="edge">
<title>roi_waterongeval.bereikbaarheid:w&#45;&gt;verbinding:e</title>
<path fill="none" stroke="#000000" d="M231.8379,-89.4077C186.9812,-110.1229 262.6823,-242.7 195.5,-242.7"/>
<polygon fill="#000000" stroke="#000000" points="238.1423,-88.2024 246.6761,-90.236 242.0712,-87.4512 246,-86.7 246,-86.7 246,-86.7 242.0712,-87.4512 245.3239,-83.164 238.1423,-88.2024 238.1423,-88.2024"/>
<ellipse fill="none" stroke="#000000" cx="234.9993" cy="-88.8033" rx="3.2" ry="3.2"/>
</g>
</g>
</svg>
