<?xml version="1.0" encoding="UTF-8" standalone="no"?>
<!DOCTYPE svg PUBLIC "-//W3C//DTD SVG 1.1//EN"
 "http://www.w3.org/Graphics/SVG/1.1/DTD/svg11.dtd">
<!-- Generated by graphviz version 2.50.0 (0)
 -->
<!-- Title: oneDegreeRelationshipsDiagram Pages: 1 -->
<svg width="520pt" height="331pt"
 viewBox="0.00 0.00 520.00 331.00" xmlns="http://www.w3.org/2000/svg" xmlns:xlink="http://www.w3.org/1999/xlink">
<g id="graph0" class="graph" transform="scale(1 1) rotate(0) translate(4 327)">
<title>oneDegreeRelationshipsDiagram</title>
<polygon fill="#ffffff" stroke="transparent" points="-4,4 -4,-327 516,-327 516,4 -4,4"/>
<text text-anchor="middle" x="79.5" y="-7.2" font-family="Helvetica,sans-Serif" font-size="11.00">Generated by SchemaSpy</text>
<!-- roi_evenement.opstelplaats -->
<g id="node1" class="node">
<title>roi_evenement.opstelplaats</title>
<g id="a_node1"><a xlink:href="../../../roi_evenement/tables/opstelplaats.html" xlink:title="roi_evenement.opstelplaats" target="_top">
<polygon fill="#ffffff" stroke="transparent" points="273,-239 273,-319 496,-319 496,-239 273,-239"/>
<polygon fill="#f5f5f5" stroke="transparent" points="273.5,-297 273.5,-319 496.5,-319 496.5,-297 273.5,-297"/>
<polygon fill="none" stroke="black" points="273.5,-297 273.5,-319 496.5,-319 496.5,-297 273.5,-297"/>
<text text-anchor="start" x="278.5" y="-306.2" font-family="Helvetica,sans-Serif" font-weight="bold" font-size="11.00">roi_evenement.opstelplaats</text>
<text text-anchor="start" x="454.5" y="-305.2" font-family="Helvetica,sans-Serif" font-size="11.00">[table]</text>
<polygon fill="none" stroke="black" points="273.5,-275 273.5,-297 496.5,-297 496.5,-275 273.5,-275"/>
<image xlink:href="../../images/foreignKeys.png" width="11px" height="12px" preserveAspectRatio="xMinYMin meet" x="278.5" y="-292"/>
<text text-anchor="start" x="348.5" y="-283.2" font-family="Helvetica,sans-Serif" font-size="11.00">voertuig_id</text>
<polygon fill="none" stroke="black" points="273.5,-257 273.5,-275 496.5,-275 496.5,-257 273.5,-257"/>
<text text-anchor="start" x="276.5" y="-263.2" font-family="Helvetica,sans-Serif" font-size="11.00">...</text>
<polygon fill="#ffffff" stroke="transparent" points="273.5,-239 273.5,-257 383.5,-257 383.5,-239 273.5,-239"/>
<polygon fill="none" stroke="black" points="273.5,-239 273.5,-257 383.5,-257 383.5,-239 273.5,-239"/>
<text text-anchor="start" x="276.5" y="-245.2" font-family="Helvetica,sans-Serif" font-size="11.00">&lt; 1</text>
<polygon fill="#ffffff" stroke="transparent" points="383.5,-239 383.5,-257 439.5,-257 439.5,-239 383.5,-239"/>
<polygon fill="none" stroke="black" points="383.5,-239 383.5,-257 439.5,-257 439.5,-239 383.5,-239"/>
<text text-anchor="start" x="428.5" y="-245.2" font-family="Helvetica,sans-Serif" font-size="11.00"> &#160;</text>
<polygon fill="#ffffff" stroke="transparent" points="439.5,-239 439.5,-257 496.5,-257 496.5,-239 439.5,-239"/>
<polygon fill="none" stroke="black" points="439.5,-239 439.5,-257 496.5,-257 496.5,-239 439.5,-239"/>
<text text-anchor="start" x="485.5" y="-245.2" font-family="Helvetica,sans-Serif" font-size="11.00"> &#160;</text>
</a>
</g>
</g>
<!-- voertuig -->
<g id="node2" class="node">
<title>voertuig</title>
<g id="a_node2"><a xlink:href="../../tables/voertuig.html" xlink:title="voertuig" target="_top">
<polygon fill="#ffffff" stroke="transparent" points="8,-110 8,-220 216,-220 216,-110 8,-110"/>
<polygon fill="#f5f5f5" stroke="transparent" points="10,-196 10,-218 214,-218 214,-196 10,-196"/>
<polygon fill="none" stroke="black" points="10,-196 10,-218 214,-218 214,-196 10,-196"/>
<text text-anchor="start" x="15" y="-205.2" font-family="Helvetica,sans-Serif" font-weight="bold" font-size="11.00">voertuig</text>
<text text-anchor="start" x="172" y="-204.2" font-family="Helvetica,sans-Serif" font-size="11.00">[table]</text>
<polygon fill="none" stroke="black" points="10,-174 10,-196 108,-196 108,-174 10,-174"/>
<image xlink:href="../../images/primaryKeys.png" width="11px" height="12px" preserveAspectRatio="xMinYMin meet" x="15" y="-191"/>
<text text-anchor="start" x="30" y="-182.2" font-family="Helvetica,sans-Serif" font-size="11.00">id</text>
<polygon fill="none" stroke="black" points="108,-174 108,-196 214,-196 214,-174 108,-174"/>
<text text-anchor="start" x="111" y="-182.2" font-family="Helvetica,sans-Serif" font-size="11.00">int2[5]</text>
<polygon fill="none" stroke="black" points="10,-152 10,-174 108,-174 108,-152 10,-152"/>
<text text-anchor="start" x="30" y="-160.2" font-family="Helvetica,sans-Serif" font-size="11.00">naam</text>
<polygon fill="none" stroke="black" points="108,-152 108,-174 214,-174 214,-152 108,-152"/>
<text text-anchor="start" x="111" y="-160.2" font-family="Helvetica,sans-Serif" font-size="11.00">text[2147483647]</text>
<polygon fill="none" stroke="black" points="10,-130 10,-152 108,-152 108,-130 10,-130"/>
<text text-anchor="start" x="30" y="-138.2" font-family="Helvetica,sans-Serif" font-size="11.00">omschrijving</text>
<polygon fill="none" stroke="black" points="108,-130 108,-152 214,-152 214,-130 108,-130"/>
<text text-anchor="start" x="111" y="-138.2" font-family="Helvetica,sans-Serif" font-size="11.00">text[2147483647]</text>
<polygon fill="#ffffff" stroke="transparent" points="10,-112 10,-130 65,-130 65,-112 10,-112"/>
<polygon fill="none" stroke="black" points="10,-112 10,-130 65,-130 65,-112 10,-112"/>
<text text-anchor="start" x="13" y="-118.2" font-family="Helvetica,sans-Serif" font-size="11.00">&lt; 0</text>
<polygon fill="#ffffff" stroke="transparent" points="65,-112 65,-130 108,-130 108,-112 65,-112"/>
<polygon fill="none" stroke="black" points="65,-112 65,-130 108,-130 108,-112 65,-112"/>
<text text-anchor="start" x="97" y="-118.2" font-family="Helvetica,sans-Serif" font-size="11.00"> &#160;</text>
<polygon fill="#ffffff" stroke="transparent" points="108,-112 108,-130 214,-130 214,-112 108,-112"/>
<polygon fill="none" stroke="black" points="108,-112 108,-130 214,-130 214,-112 108,-112"/>
<text text-anchor="start" x="191" y="-118.2" font-family="Helvetica,sans-Serif" font-size="11.00">3 &gt;</text>
<polygon fill="none" stroke="black" stroke-width="2" points="9,-111 9,-219 215,-219 215,-111 9,-111"/>
</a>
</g>
</g>
<!-- roi_evenement.opstelplaats&#45;&gt;voertuig -->
<g id="edge1" class="edge">
<title>roi_evenement.opstelplaats:w&#45;&gt;voertuig:e</title>
<path fill="none" stroke="black" d="M258.41,-282.41C229.97,-264.41 260.8,-185 215,-185"/>
<polygon fill="black" stroke="black" points="264.75,-284.02 271.61,-289.49 268.62,-285.01 272.5,-286 272.5,-286 272.5,-286 268.62,-285.01 273.39,-282.51 264.75,-284.02 264.75,-284.02"/>
<ellipse fill="none" stroke="black" cx="261.65" cy="-283.23" rx="3.2" ry="3.2"/>
</g>
<!-- roi_gebouw.opstelplaats -->
<g id="node3" class="node">
<title>roi_gebouw.opstelplaats</title>
<g id="a_node3"><a xlink:href="../../../roi_gebouw/tables/opstelplaats.html" xlink:title="roi_gebouw.opstelplaats" target="_top">
<polygon fill="#ffffff" stroke="transparent" points="283.5,-138 283.5,-218 485.5,-218 485.5,-138 283.5,-138"/>
<polygon fill="#f5f5f5" stroke="transparent" points="283.5,-196 283.5,-218 485.5,-218 485.5,-196 283.5,-196"/>
<polygon fill="none" stroke="black" points="283.5,-196 283.5,-218 485.5,-218 485.5,-196 283.5,-196"/>
<text text-anchor="start" x="288.5" y="-205.2" font-family="Helvetica,sans-Serif" font-weight="bold" font-size="11.00">roi_gebouw.opstelplaats</text>
<text text-anchor="start" x="443.5" y="-204.2" font-family="Helvetica,sans-Serif" font-size="11.00">[table]</text>
<polygon fill="none" stroke="black" points="283.5,-174 283.5,-196 485.5,-196 485.5,-174 283.5,-174"/>
<image xlink:href="../../images/foreignKeys.png" width="11px" height="12px" preserveAspectRatio="xMinYMin meet" x="288.5" y="-191"/>
<text text-anchor="start" x="347.5" y="-182.2" font-family="Helvetica,sans-Serif" font-size="11.00">voertuig_id</text>
<polygon fill="none" stroke="black" points="283.5,-156 283.5,-174 485.5,-174 485.5,-156 283.5,-156"/>
<text text-anchor="start" x="286.5" y="-162.2" font-family="Helvetica,sans-Serif" font-size="11.00">...</text>
<polygon fill="#ffffff" stroke="transparent" points="283.5,-138 283.5,-156 383.5,-156 383.5,-138 283.5,-138"/>
<polygon fill="none" stroke="black" points="283.5,-138 283.5,-156 383.5,-156 383.5,-138 283.5,-138"/>
<text text-anchor="start" x="286.5" y="-144.2" font-family="Helvetica,sans-Serif" font-size="11.00">&lt; 1</text>
<polygon fill="#ffffff" stroke="transparent" points="383.5,-138 383.5,-156 434.5,-156 434.5,-138 383.5,-138"/>
<polygon fill="none" stroke="black" points="383.5,-138 383.5,-156 434.5,-156 434.5,-138 383.5,-138"/>
<text text-anchor="start" x="423.5" y="-144.2" font-family="Helvetica,sans-Serif" font-size="11.00"> &#160;</text>
<polygon fill="#ffffff" stroke="transparent" points="434.5,-138 434.5,-156 485.5,-156 485.5,-138 434.5,-138"/>
<polygon fill="none" stroke="black" points="434.5,-138 434.5,-156 485.5,-156 485.5,-138 434.5,-138"/>
<text text-anchor="start" x="474.5" y="-144.2" font-family="Helvetica,sans-Serif" font-size="11.00"> &#160;</text>
</a>
</g>
</g>
<!-- roi_gebouw.opstelplaats&#45;&gt;voertuig -->
<g id="edge2" class="edge">
<title>roi_gebouw.opstelplaats:w&#45;&gt;voertuig:e</title>
<path fill="none" stroke="black" d="M267.97,-185C248.99,-185 239.49,-185 215,-185"/>
<polygon fill="black" stroke="black" points="274.5,-185 282.5,-188.6 278.5,-185 282.5,-185 282.5,-185 282.5,-185 278.5,-185 282.5,-181.4 274.5,-185 274.5,-185"/>
<ellipse fill="none" stroke="black" cx="271.3" cy="-185" rx="3.2" ry="3.2"/>
</g>
<!-- roi_waterongeval.opstelplaats -->
<g id="node4" class="node">
<title>roi_waterongeval.opstelplaats</title>
<g id="a_node4"><a xlink:href="../../../roi_waterongeval/tables/opstelplaats.html" xlink:title="roi_waterongeval.opstelplaats" target="_top">
<polygon fill="#ffffff" stroke="transparent" points="265,-37 265,-117 504,-117 504,-37 265,-37"/>
<polygon fill="#f5f5f5" stroke="transparent" points="265.5,-95 265.5,-117 504.5,-117 504.5,-95 265.5,-95"/>
<polygon fill="none" stroke="black" points="265.5,-95 265.5,-117 504.5,-117 504.5,-95 265.5,-95"/>
<text text-anchor="start" x="270.5" y="-104.2" font-family="Helvetica,sans-Serif" font-weight="bold" font-size="11.00">roi_waterongeval.opstelplaats</text>
<text text-anchor="start" x="462.5" y="-103.2" font-family="Helvetica,sans-Serif" font-size="11.00">[table]</text>
<polygon fill="none" stroke="black" points="265.5,-73 265.5,-95 504.5,-95 504.5,-73 265.5,-73"/>
<image xlink:href="../../images/foreignKeys.png" width="11px" height="12px" preserveAspectRatio="xMinYMin meet" x="270.5" y="-90"/>
<text text-anchor="start" x="348.5" y="-81.2" font-family="Helvetica,sans-Serif" font-size="11.00">voertuig_id</text>
<polygon fill="none" stroke="black" points="265.5,-55 265.5,-73 504.5,-73 504.5,-55 265.5,-55"/>
<text text-anchor="start" x="268.5" y="-61.2" font-family="Helvetica,sans-Serif" font-size="11.00">...</text>
<polygon fill="#ffffff" stroke="transparent" points="265.5,-37 265.5,-55 383.5,-55 383.5,-37 265.5,-37"/>
<polygon fill="none" stroke="black" points="265.5,-37 265.5,-55 383.5,-55 383.5,-37 265.5,-37"/>
<text text-anchor="start" x="268.5" y="-43.2" font-family="Helvetica,sans-Serif" font-size="11.00">&lt; 1</text>
<polygon fill="#ffffff" stroke="transparent" points="383.5,-37 383.5,-55 443.5,-55 443.5,-37 383.5,-37"/>
<polygon fill="none" stroke="black" points="383.5,-37 383.5,-55 443.5,-55 443.5,-37 383.5,-37"/>
<text text-anchor="start" x="432.5" y="-43.2" font-family="Helvetica,sans-Serif" font-size="11.00"> &#160;</text>
<polygon fill="#ffffff" stroke="transparent" points="443.5,-37 443.5,-55 504.5,-55 504.5,-37 443.5,-37"/>
<polygon fill="none" stroke="black" points="443.5,-37 443.5,-55 504.5,-55 504.5,-37 443.5,-37"/>
<text text-anchor="start" x="493.5" y="-43.2" font-family="Helvetica,sans-Serif" font-size="11.00"> &#160;</text>
</a>
</g>
</g>
<!-- roi_waterongeval.opstelplaats&#45;&gt;voertuig -->
<g id="edge3" class="edge">
<title>roi_waterongeval.opstelplaats:w&#45;&gt;voertuig:e</title>
<path fill="none" stroke="black" d="M250.4,-88.08C225.26,-106.98 258.94,-185 215,-185"/>
<polygon fill="black" stroke="black" points="256.82,-86.23 265.5,-87.46 260.66,-85.11 264.5,-84 264.5,-84 264.5,-84 260.66,-85.11 263.5,-80.54 256.82,-86.23 256.82,-86.23"/>
<ellipse fill="none" stroke="black" cx="253.74" cy="-87.12" rx="3.2" ry="3.2"/>
</g>
</g>
</svg>
