<?xml version="1.0" encoding="UTF-8" standalone="no"?>
<!DOCTYPE svg PUBLIC "-//W3C//DTD SVG 1.1//EN"
 "http://www.w3.org/Graphics/SVG/1.1/DTD/svg11.dtd">
<!-- Generated by graphviz version 2.50.0 (0)
 -->
<!-- Title: oneDegreeRelationshipsDiagram Pages: 1 -->
<svg width="474pt" height="331pt"
 viewBox="0.00 0.00 474.00 331.00" xmlns="http://www.w3.org/2000/svg" xmlns:xlink="http://www.w3.org/1999/xlink">
<g id="graph0" class="graph" transform="scale(1 1) rotate(0) translate(4 327)">
<title>oneDegreeRelationshipsDiagram</title>
<polygon fill="#ffffff" stroke="transparent" points="-4,4 -4,-327 470,-327 470,4 -4,4"/>
<text text-anchor="middle" x="79.5" y="-7.2" font-family="Helvetica,sans-Serif" font-size="11.00">Generated by SchemaSpy</text>
<!-- roi_evenement.sector -->
<g id="node1" class="node">
<title>roi_evenement.sector</title>
<g id="a_node1"><a xlink:href="../../../roi_evenement/tables/sector.html" xlink:title="roi_evenement.sector" target="_top">
<polygon fill="#ffffff" stroke="transparent" points="268.5,-239 268.5,-319 454.5,-319 454.5,-239 268.5,-239"/>
<polygon fill="#f5f5f5" stroke="transparent" points="268.5,-297 268.5,-319 454.5,-319 454.5,-297 268.5,-297"/>
<polygon fill="none" stroke="black" points="268.5,-297 268.5,-319 454.5,-319 454.5,-297 268.5,-297"/>
<text text-anchor="start" x="273.5" y="-306.2" font-family="Helvetica,sans-Serif" font-weight="bold" font-size="11.00">roi_evenement.sector</text>
<text text-anchor="start" x="412.5" y="-305.2" font-family="Helvetica,sans-Serif" font-size="11.00">[table]</text>
<polygon fill="none" stroke="black" points="268.5,-275 268.5,-297 454.5,-297 454.5,-275 268.5,-275"/>
<image xlink:href="../../images/foreignKeys.png" width="11px" height="12px" preserveAspectRatio="xMinYMin meet" x="273.5" y="-292"/>
<text text-anchor="start" x="324.5" y="-283.2" font-family="Helvetica,sans-Serif" font-size="11.00">zone_id</text>
<polygon fill="none" stroke="black" points="268.5,-257 268.5,-275 454.5,-275 454.5,-257 268.5,-257"/>
<text text-anchor="start" x="271.5" y="-263.2" font-family="Helvetica,sans-Serif" font-size="11.00">...</text>
<polygon fill="#ffffff" stroke="transparent" points="268.5,-239 268.5,-257 360.5,-257 360.5,-239 268.5,-239"/>
<polygon fill="none" stroke="black" points="268.5,-239 268.5,-257 360.5,-257 360.5,-239 268.5,-239"/>
<text text-anchor="start" x="271.5" y="-245.2" font-family="Helvetica,sans-Serif" font-size="11.00">&lt; 1</text>
<polygon fill="#ffffff" stroke="transparent" points="360.5,-239 360.5,-257 407.5,-257 407.5,-239 360.5,-239"/>
<polygon fill="none" stroke="black" points="360.5,-239 360.5,-257 407.5,-257 407.5,-239 360.5,-239"/>
<text text-anchor="start" x="396.5" y="-245.2" font-family="Helvetica,sans-Serif" font-size="11.00"> &#160;</text>
<polygon fill="#ffffff" stroke="transparent" points="407.5,-239 407.5,-257 454.5,-257 454.5,-239 407.5,-239"/>
<polygon fill="none" stroke="black" points="407.5,-239 407.5,-257 454.5,-257 454.5,-239 407.5,-239"/>
<text text-anchor="start" x="443.5" y="-245.2" font-family="Helvetica,sans-Serif" font-size="11.00"> &#160;</text>
</a>
</g>
</g>
<!-- zone -->
<g id="node2" class="node">
<title>zone</title>
<g id="a_node2"><a xlink:href="../../tables/zone.html" xlink:title="zone" target="_top">
<polygon fill="#ffffff" stroke="transparent" points="8,-110 8,-220 216,-220 216,-110 8,-110"/>
<polygon fill="#f5f5f5" stroke="transparent" points="10,-196 10,-218 214,-218 214,-196 10,-196"/>
<polygon fill="none" stroke="black" points="10,-196 10,-218 214,-218 214,-196 10,-196"/>
<text text-anchor="start" x="15" y="-205.2" font-family="Helvetica,sans-Serif" font-weight="bold" font-size="11.00">zone</text>
<text text-anchor="start" x="172" y="-204.2" font-family="Helvetica,sans-Serif" font-size="11.00">[table]</text>
<polygon fill="none" stroke="black" points="10,-174 10,-196 108,-196 108,-174 10,-174"/>
<image xlink:href="../../images/primaryKeys.png" width="11px" height="12px" preserveAspectRatio="xMinYMin meet" x="15" y="-191"/>
<text text-anchor="start" x="30" y="-182.2" font-family="Helvetica,sans-Serif" font-size="11.00">id</text>
<polygon fill="none" stroke="black" points="108,-174 108,-196 214,-196 214,-174 108,-174"/>
<text text-anchor="start" x="111" y="-182.2" font-family="Helvetica,sans-Serif" font-size="11.00">int2[5]</text>
<polygon fill="none" stroke="black" points="10,-152 10,-174 108,-174 108,-152 10,-152"/>
<text text-anchor="start" x="30" y="-160.2" font-family="Helvetica,sans-Serif" font-size="11.00">naam</text>
<polygon fill="none" stroke="black" points="108,-152 108,-174 214,-174 214,-152 108,-152"/>
<text text-anchor="start" x="111" y="-160.2" font-family="Helvetica,sans-Serif" font-size="11.00">text[2147483647]</text>
<polygon fill="none" stroke="black" points="10,-130 10,-152 108,-152 108,-130 10,-130"/>
<text text-anchor="start" x="30" y="-138.2" font-family="Helvetica,sans-Serif" font-size="11.00">omschrijving</text>
<polygon fill="none" stroke="black" points="108,-130 108,-152 214,-152 214,-130 108,-130"/>
<text text-anchor="start" x="111" y="-138.2" font-family="Helvetica,sans-Serif" font-size="11.00">text[2147483647]</text>
<polygon fill="#ffffff" stroke="transparent" points="10,-112 10,-130 65,-130 65,-112 10,-112"/>
<polygon fill="none" stroke="black" points="10,-112 10,-130 65,-130 65,-112 10,-112"/>
<text text-anchor="start" x="13" y="-118.2" font-family="Helvetica,sans-Serif" font-size="11.00">&lt; 0</text>
<polygon fill="#ffffff" stroke="transparent" points="65,-112 65,-130 108,-130 108,-112 65,-112"/>
<polygon fill="none" stroke="black" points="65,-112 65,-130 108,-130 108,-112 65,-112"/>
<text text-anchor="start" x="97" y="-118.2" font-family="Helvetica,sans-Serif" font-size="11.00"> &#160;</text>
<polygon fill="#ffffff" stroke="transparent" points="108,-112 108,-130 214,-130 214,-112 108,-112"/>
<polygon fill="none" stroke="black" points="108,-112 108,-130 214,-130 214,-112 108,-112"/>
<text text-anchor="start" x="191" y="-118.2" font-family="Helvetica,sans-Serif" font-size="11.00">3 &gt;</text>
<polygon fill="none" stroke="black" stroke-width="2" points="9,-111 9,-219 215,-219 215,-111 9,-111"/>
</a>
</g>
</g>
<!-- roi_evenement.sector&#45;&gt;zone -->
<g id="edge1" class="edge">
<title>roi_evenement.sector:w&#45;&gt;zone:e</title>
<path fill="none" stroke="black" d="M253.48,-282.16C226.96,-263.72 259.66,-185 215,-185"/>
<polygon fill="black" stroke="black" points="259.78,-283.89 266.55,-289.47 263.64,-284.94 267.5,-286 267.5,-286 267.5,-286 263.64,-284.94 268.45,-282.53 259.78,-283.89 259.78,-283.89"/>
<ellipse fill="none" stroke="black" cx="256.7" cy="-283.04" rx="3.2" ry="3.2"/>
</g>
<!-- roi_gebouw.sector -->
<g id="node3" class="node">
<title>roi_gebouw.sector</title>
<g id="a_node3"><a xlink:href="../../../roi_gebouw/tables/sector.html" xlink:title="roi_gebouw.sector" target="_top">
<polygon fill="#ffffff" stroke="transparent" points="279.5,-138 279.5,-218 443.5,-218 443.5,-138 279.5,-138"/>
<polygon fill="#f5f5f5" stroke="transparent" points="279.5,-196 279.5,-218 443.5,-218 443.5,-196 279.5,-196"/>
<polygon fill="none" stroke="black" points="279.5,-196 279.5,-218 443.5,-218 443.5,-196 279.5,-196"/>
<text text-anchor="start" x="284.5" y="-205.2" font-family="Helvetica,sans-Serif" font-weight="bold" font-size="11.00">roi_gebouw.sector</text>
<text text-anchor="start" x="401.5" y="-204.2" font-family="Helvetica,sans-Serif" font-size="11.00">[table]</text>
<polygon fill="none" stroke="black" points="279.5,-174 279.5,-196 443.5,-196 443.5,-174 279.5,-174"/>
<image xlink:href="../../images/foreignKeys.png" width="11px" height="12px" preserveAspectRatio="xMinYMin meet" x="284.5" y="-191"/>
<text text-anchor="start" x="324.5" y="-182.2" font-family="Helvetica,sans-Serif" font-size="11.00">zone_id</text>
<polygon fill="none" stroke="black" points="279.5,-156 279.5,-174 443.5,-174 443.5,-156 279.5,-156"/>
<text text-anchor="start" x="282.5" y="-162.2" font-family="Helvetica,sans-Serif" font-size="11.00">...</text>
<polygon fill="#ffffff" stroke="transparent" points="279.5,-138 279.5,-156 360.5,-156 360.5,-138 279.5,-138"/>
<polygon fill="none" stroke="black" points="279.5,-138 279.5,-156 360.5,-156 360.5,-138 279.5,-138"/>
<text text-anchor="start" x="282.5" y="-144.2" font-family="Helvetica,sans-Serif" font-size="11.00">&lt; 1</text>
<polygon fill="#ffffff" stroke="transparent" points="360.5,-138 360.5,-156 401.5,-156 401.5,-138 360.5,-138"/>
<polygon fill="none" stroke="black" points="360.5,-138 360.5,-156 401.5,-156 401.5,-138 360.5,-138"/>
<text text-anchor="start" x="390.5" y="-144.2" font-family="Helvetica,sans-Serif" font-size="11.00"> &#160;</text>
<polygon fill="#ffffff" stroke="transparent" points="401.5,-138 401.5,-156 443.5,-156 443.5,-138 401.5,-138"/>
<polygon fill="none" stroke="black" points="401.5,-138 401.5,-156 443.5,-156 443.5,-138 401.5,-138"/>
<text text-anchor="start" x="432.5" y="-144.2" font-family="Helvetica,sans-Serif" font-size="11.00"> &#160;</text>
</a>
</g>
</g>
<!-- roi_gebouw.sector&#45;&gt;zone -->
<g id="edge2" class="edge">
<title>roi_gebouw.sector:w&#45;&gt;zone:e</title>
<path fill="none" stroke="black" d="M264.07,-185C246.71,-185 237.71,-185 215,-185"/>
<polygon fill="black" stroke="black" points="270.5,-185 278.5,-188.6 274.5,-185 278.5,-185 278.5,-185 278.5,-185 274.5,-185 278.5,-181.4 270.5,-185 270.5,-185"/>
<ellipse fill="none" stroke="black" cx="267.3" cy="-185" rx="3.2" ry="3.2"/>
</g>
<!-- roi_natuurbrand.sector -->
<g id="node4" class="node">
<title>roi_natuurbrand.sector</title>
<g id="a_node4"><a xlink:href="../../../roi_natuurbrand/tables/sector.html" xlink:title="roi_natuurbrand.sector" target="_top">
<polygon fill="#ffffff" stroke="transparent" points="265,-37 265,-117 458,-117 458,-37 265,-37"/>
<polygon fill="#f5f5f5" stroke="transparent" points="265.5,-95 265.5,-117 458.5,-117 458.5,-95 265.5,-95"/>
<polygon fill="none" stroke="black" points="265.5,-95 265.5,-117 458.5,-117 458.5,-95 265.5,-95"/>
<text text-anchor="start" x="270.5" y="-104.2" font-family="Helvetica,sans-Serif" font-weight="bold" font-size="11.00">roi_natuurbrand.sector</text>
<text text-anchor="start" x="416.5" y="-103.2" font-family="Helvetica,sans-Serif" font-size="11.00">[table]</text>
<polygon fill="none" stroke="black" points="265.5,-73 265.5,-95 458.5,-95 458.5,-73 265.5,-73"/>
<image xlink:href="../../images/foreignKeys.png" width="11px" height="12px" preserveAspectRatio="xMinYMin meet" x="270.5" y="-90"/>
<text text-anchor="start" x="325.5" y="-81.2" font-family="Helvetica,sans-Serif" font-size="11.00">zone_id</text>
<polygon fill="none" stroke="black" points="265.5,-55 265.5,-73 458.5,-73 458.5,-55 265.5,-55"/>
<text text-anchor="start" x="268.5" y="-61.2" font-family="Helvetica,sans-Serif" font-size="11.00">...</text>
<polygon fill="#ffffff" stroke="transparent" points="265.5,-37 265.5,-55 360.5,-55 360.5,-37 265.5,-37"/>
<polygon fill="none" stroke="black" points="265.5,-37 265.5,-55 360.5,-55 360.5,-37 265.5,-37"/>
<text text-anchor="start" x="268.5" y="-43.2" font-family="Helvetica,sans-Serif" font-size="11.00">&lt; 1</text>
<polygon fill="#ffffff" stroke="transparent" points="360.5,-37 360.5,-55 409.5,-55 409.5,-37 360.5,-37"/>
<polygon fill="none" stroke="black" points="360.5,-37 360.5,-55 409.5,-55 409.5,-37 360.5,-37"/>
<text text-anchor="start" x="398.5" y="-43.2" font-family="Helvetica,sans-Serif" font-size="11.00"> &#160;</text>
<polygon fill="#ffffff" stroke="transparent" points="409.5,-37 409.5,-55 458.5,-55 458.5,-37 409.5,-37"/>
<polygon fill="none" stroke="black" points="409.5,-37 409.5,-55 458.5,-55 458.5,-37 409.5,-37"/>
<text text-anchor="start" x="447.5" y="-43.2" font-family="Helvetica,sans-Serif" font-size="11.00"> &#160;</text>
</a>
</g>
</g>
<!-- roi_natuurbrand.sector&#45;&gt;zone -->
<g id="edge3" class="edge">
<title>roi_natuurbrand.sector:w&#45;&gt;zone:e</title>
<path fill="none" stroke="black" d="M250.4,-88.08C225.26,-106.98 258.94,-185 215,-185"/>
<polygon fill="black" stroke="black" points="256.82,-86.23 265.5,-87.46 260.66,-85.11 264.5,-84 264.5,-84 264.5,-84 260.66,-85.11 263.5,-80.54 256.82,-86.23 256.82,-86.23"/>
<ellipse fill="none" stroke="black" cx="253.74" cy="-87.12" rx="3.2" ry="3.2"/>
</g>
</g>
</svg>
