<?xml version="1.0" encoding="UTF-8" standalone="no"?>
<!DOCTYPE svg PUBLIC "-//W3C//DTD SVG 1.1//EN"
 "http://www.w3.org/Graphics/SVG/1.1/DTD/svg11.dtd">
<!-- Generated by graphviz version 2.40.1 (20161225.0304)
 -->
<!-- Title: oneDegreeRelationshipsDiagram Pages: 1 -->
<svg width="439pt" height="445pt"
 viewBox="0.00 0.00 439.00 445.20" xmlns="http://www.w3.org/2000/svg" xmlns:xlink="http://www.w3.org/1999/xlink">
<g id="graph0" class="graph" transform="scale(1 1) rotate(0) translate(4 441.2)">
<title>oneDegreeRelationshipsDiagram</title>
<polygon fill="#ffffff" stroke="transparent" points="-4,4 -4,-441.2 435,-441.2 435,4 -4,4"/>
<text text-anchor="middle" x="72.4936" y="-7.3" font-family="Helvetica,sans-Serif" font-size="11.00" fill="#000000">Generated by SchemaSpy</text>
<!-- roi_evenement.sector -->
<g id="node1" class="node">
<title>roi_evenement.sector</title>
<g id="a_node1"><a xlink:href="../../../roi_evenement/tables/sector.html" xlink:title="roi_evenement.sector" target="_top">
<polygon fill="#ffffff" stroke="transparent" points="253,-350.2 253,-433.2 416,-433.2 416,-350.2 253,-350.2"/>
<polygon fill="#f5f5f5" stroke="transparent" points="253.5,-409.7 253.5,-432.7 416.5,-432.7 416.5,-409.7 253.5,-409.7"/>
<polygon fill="none" stroke="#000000" points="253.5,-409.7 253.5,-432.7 416.5,-432.7 416.5,-409.7 253.5,-409.7"/>
<text text-anchor="start" x="258.5" y="-418.3" font-family="Helvetica,sans-Serif" font-weight="bold" font-size="11.00" fill="#000000">roi_evenement.sector</text>
<text text-anchor="start" x="382.0219" y="-417.8" font-family="Helvetica,sans-Serif" font-size="11.00" fill="#000000">[table]</text>
<polygon fill="none" stroke="#000000" points="253.5,-387.7 253.5,-409.7 416.5,-409.7 416.5,-387.7 253.5,-387.7"/>
<image xlink:href="../../images/foreignKeys.png" width="11px" height="12px" preserveAspectRatio="xMinYMin meet" x="258.5" y="-404.7"/>
<text text-anchor="start" x="300.5" y="-394.8" font-family="Helvetica,sans-Serif" font-size="11.00" fill="#000000">zone_id</text>
<polygon fill="none" stroke="#000000" points="253.5,-368.7 253.5,-387.7 416.5,-387.7 416.5,-368.7 253.5,-368.7"/>
<text text-anchor="start" x="256.5" y="-374.8" font-family="Helvetica,sans-Serif" font-size="11.00" fill="#000000">...</text>
<polygon fill="#ffffff" stroke="transparent" points="253.5,-349.7 253.5,-368.7 333.5,-368.7 333.5,-349.7 253.5,-349.7"/>
<polygon fill="none" stroke="#000000" points="253.5,-349.7 253.5,-368.7 333.5,-368.7 333.5,-349.7 253.5,-349.7"/>
<text text-anchor="start" x="256.5" y="-355.8" font-family="Helvetica,sans-Serif" font-size="11.00" fill="#000000">&lt; 1</text>
<polygon fill="#ffffff" stroke="transparent" points="333.5,-349.7 333.5,-368.7 374.5,-368.7 374.5,-349.7 333.5,-349.7"/>
<polygon fill="none" stroke="#000000" points="333.5,-349.7 333.5,-368.7 374.5,-368.7 374.5,-349.7 333.5,-349.7"/>
<text text-anchor="start" x="365.3862" y="-355.8" font-family="Helvetica,sans-Serif" font-size="11.00" fill="#000000"> &#160;</text>
<polygon fill="#ffffff" stroke="transparent" points="374.5,-349.7 374.5,-368.7 416.5,-368.7 416.5,-349.7 374.5,-349.7"/>
<polygon fill="none" stroke="#000000" points="374.5,-349.7 374.5,-368.7 416.5,-368.7 416.5,-349.7 374.5,-349.7"/>
<text text-anchor="start" x="407.3862" y="-355.8" font-family="Helvetica,sans-Serif" font-size="11.00" fill="#000000"> &#160;</text>
</a>
</g>
</g>
<!-- zone -->
<g id="node2" class="node">
<title>zone</title>
<g id="a_node2"><a xlink:href="../../tables/zone.html" xlink:title="zone" target="_top">
<polygon fill="#ffffff" stroke="transparent" points="8,-166.7 8,-278.7 197,-278.7 197,-166.7 8,-166.7"/>
<polygon fill="#f5f5f5" stroke="transparent" points="10.5,-253.7 10.5,-276.7 195.5,-276.7 195.5,-253.7 10.5,-253.7"/>
<polygon fill="none" stroke="#000000" points="10.5,-253.7 10.5,-276.7 195.5,-276.7 195.5,-253.7 10.5,-253.7"/>
<text text-anchor="start" x="15.0777" y="-262.3" font-family="Helvetica,sans-Serif" font-weight="bold" font-size="11.00" fill="#000000">zone</text>
<text text-anchor="start" x="160.5437" y="-261.8" font-family="Helvetica,sans-Serif" font-size="11.00" fill="#000000">[table]</text>
<polygon fill="none" stroke="#000000" points="10.5,-231.7 10.5,-253.7 105.5,-253.7 105.5,-231.7 10.5,-231.7"/>
<image xlink:href="../../images/primaryKeys.png" width="11px" height="12px" preserveAspectRatio="xMinYMin meet" x="15.5" y="-248.7"/>
<text text-anchor="start" x="30.5" y="-238.8" font-family="Helvetica,sans-Serif" font-size="11.00" fill="#000000">id</text>
<polygon fill="none" stroke="#000000" points="105.5,-231.7 105.5,-253.7 195.5,-253.7 195.5,-231.7 105.5,-231.7"/>
<text text-anchor="start" x="108.5" y="-239.4" font-family="Helvetica,sans-Serif" font-size="11.00" fill="#000000">int2[5]</text>
<polygon fill="none" stroke="#000000" points="10.5,-209.7 10.5,-231.7 105.5,-231.7 105.5,-209.7 10.5,-209.7"/>
<text text-anchor="start" x="30.5" y="-216.8" font-family="Helvetica,sans-Serif" font-size="11.00" fill="#000000">naam</text>
<polygon fill="none" stroke="#000000" points="105.5,-209.7 105.5,-231.7 195.5,-231.7 195.5,-209.7 105.5,-209.7"/>
<text text-anchor="start" x="108.0042" y="-217.4" font-family="Helvetica,sans-Serif" font-size="11.00" fill="#000000">text[2147483647]</text>
<polygon fill="none" stroke="#000000" points="10.5,-187.7 10.5,-209.7 105.5,-209.7 105.5,-187.7 10.5,-187.7"/>
<text text-anchor="start" x="30.5" y="-194.8" font-family="Helvetica,sans-Serif" font-size="11.00" fill="#000000">omschrijving</text>
<polygon fill="none" stroke="#000000" points="105.5,-187.7 105.5,-209.7 195.5,-209.7 195.5,-187.7 105.5,-187.7"/>
<text text-anchor="start" x="108.0042" y="-195.4" font-family="Helvetica,sans-Serif" font-size="11.00" fill="#000000">text[2147483647]</text>
<polygon fill="#ffffff" stroke="transparent" points="10.5,-168.7 10.5,-187.7 62.5,-187.7 62.5,-168.7 10.5,-168.7"/>
<polygon fill="none" stroke="#000000" points="10.5,-168.7 10.5,-187.7 62.5,-187.7 62.5,-168.7 10.5,-168.7"/>
<text text-anchor="start" x="13.5" y="-174.8" font-family="Helvetica,sans-Serif" font-size="11.00" fill="#000000">&lt; 0</text>
<polygon fill="#ffffff" stroke="transparent" points="62.5,-168.7 62.5,-187.7 105.5,-187.7 105.5,-168.7 62.5,-168.7"/>
<polygon fill="none" stroke="#000000" points="62.5,-168.7 62.5,-187.7 105.5,-187.7 105.5,-168.7 62.5,-168.7"/>
<text text-anchor="start" x="96.3862" y="-174.8" font-family="Helvetica,sans-Serif" font-size="11.00" fill="#000000"> &#160;</text>
<polygon fill="#ffffff" stroke="transparent" points="105.5,-168.7 105.5,-187.7 195.5,-187.7 195.5,-168.7 105.5,-168.7"/>
<polygon fill="none" stroke="#000000" points="105.5,-168.7 105.5,-187.7 195.5,-187.7 195.5,-168.7 105.5,-168.7"/>
<text text-anchor="start" x="176.9053" y="-174.8" font-family="Helvetica,sans-Serif" font-size="11.00" fill="#000000">4 &gt;</text>
<polygon fill="none" stroke="#000000" stroke-width="2" points="9,-167.7 9,-277.7 196,-277.7 196,-167.7 9,-167.7"/>
</a>
</g>
</g>
<!-- roi_evenement.sector&#45;&gt;zone -->
<g id="edge1" class="edge">
<title>roi_evenement.sector:w&#45;&gt;zone:e</title>
<path fill="none" stroke="#000000" d="M239.3049,-396.1225C192.2806,-375.8395 263.8358,-242.7 195.5,-242.7"/>
<polygon fill="#000000" stroke="#000000" points="245.6287,-397.2707 252.8568,-402.2421 249.5644,-397.9854 253.5,-398.7 253.5,-398.7 253.5,-398.7 249.5644,-397.9854 254.1432,-395.1579 245.6287,-397.2707 245.6287,-397.2707"/>
<ellipse fill="none" stroke="#000000" cx="242.4802" cy="-396.699" rx="3.2" ry="3.2"/>
</g>
<!-- roi_gebouw.sector -->
<g id="node3" class="node">
<title>roi_gebouw.sector</title>
<g id="a_node3"><a xlink:href="../../../roi_gebouw/tables/sector.html" xlink:title="roi_gebouw.sector" target="_top">
<polygon fill="#ffffff" stroke="transparent" points="262,-246.2 262,-329.2 407,-329.2 407,-246.2 262,-246.2"/>
<polygon fill="#f5f5f5" stroke="transparent" points="262.5,-305.7 262.5,-328.7 407.5,-328.7 407.5,-305.7 262.5,-305.7"/>
<polygon fill="none" stroke="#000000" points="262.5,-305.7 262.5,-328.7 407.5,-328.7 407.5,-305.7 262.5,-305.7"/>
<text text-anchor="start" x="267.5" y="-314.3" font-family="Helvetica,sans-Serif" font-weight="bold" font-size="11.00" fill="#000000">roi_gebouw.sector</text>
<text text-anchor="start" x="373.0219" y="-313.8" font-family="Helvetica,sans-Serif" font-size="11.00" fill="#000000">[table]</text>
<polygon fill="none" stroke="#000000" points="262.5,-283.7 262.5,-305.7 407.5,-305.7 407.5,-283.7 262.5,-283.7"/>
<image xlink:href="../../images/foreignKeys.png" width="11px" height="12px" preserveAspectRatio="xMinYMin meet" x="267.5" y="-300.7"/>
<text text-anchor="start" x="300.5" y="-290.8" font-family="Helvetica,sans-Serif" font-size="11.00" fill="#000000">zone_id</text>
<polygon fill="none" stroke="#000000" points="262.5,-264.7 262.5,-283.7 407.5,-283.7 407.5,-264.7 262.5,-264.7"/>
<text text-anchor="start" x="265.5" y="-270.8" font-family="Helvetica,sans-Serif" font-size="11.00" fill="#000000">...</text>
<polygon fill="#ffffff" stroke="transparent" points="262.5,-245.7 262.5,-264.7 333.5,-264.7 333.5,-245.7 262.5,-245.7"/>
<polygon fill="none" stroke="#000000" points="262.5,-245.7 262.5,-264.7 333.5,-264.7 333.5,-245.7 262.5,-245.7"/>
<text text-anchor="start" x="265.5" y="-251.8" font-family="Helvetica,sans-Serif" font-size="11.00" fill="#000000">&lt; 1</text>
<polygon fill="#ffffff" stroke="transparent" points="333.5,-245.7 333.5,-264.7 370.5,-264.7 370.5,-245.7 333.5,-245.7"/>
<polygon fill="none" stroke="#000000" points="333.5,-245.7 333.5,-264.7 370.5,-264.7 370.5,-245.7 333.5,-245.7"/>
<text text-anchor="start" x="361.3862" y="-251.8" font-family="Helvetica,sans-Serif" font-size="11.00" fill="#000000"> &#160;</text>
<polygon fill="#ffffff" stroke="transparent" points="370.5,-245.7 370.5,-264.7 407.5,-264.7 407.5,-245.7 370.5,-245.7"/>
<polygon fill="none" stroke="#000000" points="370.5,-245.7 370.5,-264.7 407.5,-264.7 407.5,-245.7 370.5,-245.7"/>
<text text-anchor="start" x="398.3862" y="-251.8" font-family="Helvetica,sans-Serif" font-size="11.00" fill="#000000"> &#160;</text>
</a>
</g>
</g>
<!-- roi_gebouw.sector&#45;&gt;zone -->
<g id="edge2" class="edge">
<title>roi_gebouw.sector:w&#45;&gt;zone:e</title>
<path fill="none" stroke="#000000" d="M248.1553,-291.4472C226.2922,-280.0631 227.4516,-242.7 195.5,-242.7"/>
<polygon fill="#000000" stroke="#000000" points="254.6981,-292.9308 261.7039,-298.2109 258.599,-293.8154 262.5,-294.7 262.5,-294.7 262.5,-294.7 258.599,-293.8154 263.2961,-291.1891 254.6981,-292.9308 254.6981,-292.9308"/>
<ellipse fill="none" stroke="#000000" cx="251.5773" cy="-292.2231" rx="3.2" ry="3.2"/>
</g>
<!-- roi_natuurbrand.sector -->
<g id="node4" class="node">
<title>roi_natuurbrand.sector</title>
<g id="a_node4"><a xlink:href="../../../roi_natuurbrand/tables/sector.html" xlink:title="roi_natuurbrand.sector" target="_top">
<polygon fill="#ffffff" stroke="transparent" points="249,-142.2 249,-225.2 420,-225.2 420,-142.2 249,-142.2"/>
<polygon fill="#f5f5f5" stroke="transparent" points="249.5,-201.7 249.5,-224.7 420.5,-224.7 420.5,-201.7 249.5,-201.7"/>
<polygon fill="none" stroke="#000000" points="249.5,-201.7 249.5,-224.7 420.5,-224.7 420.5,-201.7 249.5,-201.7"/>
<text text-anchor="start" x="254.5" y="-210.3" font-family="Helvetica,sans-Serif" font-weight="bold" font-size="11.00" fill="#000000">roi_natuurbrand.sector</text>
<text text-anchor="start" x="386.0219" y="-209.8" font-family="Helvetica,sans-Serif" font-size="11.00" fill="#000000">[table]</text>
<polygon fill="none" stroke="#000000" points="249.5,-179.7 249.5,-201.7 420.5,-201.7 420.5,-179.7 249.5,-179.7"/>
<image xlink:href="../../images/foreignKeys.png" width="11px" height="12px" preserveAspectRatio="xMinYMin meet" x="254.5" y="-196.7"/>
<text text-anchor="start" x="300.5" y="-186.8" font-family="Helvetica,sans-Serif" font-size="11.00" fill="#000000">zone_id</text>
<polygon fill="none" stroke="#000000" points="249.5,-160.7 249.5,-179.7 420.5,-179.7 420.5,-160.7 249.5,-160.7"/>
<text text-anchor="start" x="252.5" y="-166.8" font-family="Helvetica,sans-Serif" font-size="11.00" fill="#000000">...</text>
<polygon fill="#ffffff" stroke="transparent" points="249.5,-141.7 249.5,-160.7 333.5,-160.7 333.5,-141.7 249.5,-141.7"/>
<polygon fill="none" stroke="#000000" points="249.5,-141.7 249.5,-160.7 333.5,-160.7 333.5,-141.7 249.5,-141.7"/>
<text text-anchor="start" x="252.5" y="-147.8" font-family="Helvetica,sans-Serif" font-size="11.00" fill="#000000">&lt; 1</text>
<polygon fill="#ffffff" stroke="transparent" points="333.5,-141.7 333.5,-160.7 376.5,-160.7 376.5,-141.7 333.5,-141.7"/>
<polygon fill="none" stroke="#000000" points="333.5,-141.7 333.5,-160.7 376.5,-160.7 376.5,-141.7 333.5,-141.7"/>
<text text-anchor="start" x="367.3862" y="-147.8" font-family="Helvetica,sans-Serif" font-size="11.00" fill="#000000"> &#160;</text>
<polygon fill="#ffffff" stroke="transparent" points="376.5,-141.7 376.5,-160.7 420.5,-160.7 420.5,-141.7 376.5,-141.7"/>
<polygon fill="none" stroke="#000000" points="376.5,-141.7 376.5,-160.7 420.5,-160.7 420.5,-141.7 376.5,-141.7"/>
<text text-anchor="start" x="411.3862" y="-147.8" font-family="Helvetica,sans-Serif" font-size="11.00" fill="#000000"> &#160;</text>
</a>
</g>
</g>
<!-- roi_natuurbrand.sector&#45;&gt;zone -->
<g id="edge3" class="edge">
<title>roi_natuurbrand.sector:w&#45;&gt;zone:e</title>
<path fill="none" stroke="#000000" d="M235.4574,-195.1335C219.2391,-207.7085 222.8316,-242.7 195.5,-242.7"/>
<polygon fill="#000000" stroke="#000000" points="241.8712,-193.1086 250.5839,-194.133 245.6856,-191.9043 249.5,-190.7 249.5,-190.7 249.5,-190.7 245.6856,-191.9043 248.4161,-187.267 241.8712,-193.1086 241.8712,-193.1086"/>
<ellipse fill="none" stroke="#000000" cx="238.8196" cy="-194.072" rx="3.2" ry="3.2"/>
</g>
<!-- roi_waterongeval.sector -->
<g id="node5" class="node">
<title>roi_waterongeval.sector</title>
<g id="a_node5"><a xlink:href="../../../roi_waterongeval/tables/sector.html" xlink:title="roi_waterongeval.sector" target="_top">
<polygon fill="#ffffff" stroke="transparent" points="246,-38.2 246,-121.2 423,-121.2 423,-38.2 246,-38.2"/>
<polygon fill="#f5f5f5" stroke="transparent" points="246.5,-97.7 246.5,-120.7 423.5,-120.7 423.5,-97.7 246.5,-97.7"/>
<polygon fill="none" stroke="#000000" points="246.5,-97.7 246.5,-120.7 423.5,-120.7 423.5,-97.7 246.5,-97.7"/>
<text text-anchor="start" x="251.5" y="-106.3" font-family="Helvetica,sans-Serif" font-weight="bold" font-size="11.00" fill="#000000">roi_waterongeval.sector</text>
<text text-anchor="start" x="389.0219" y="-105.8" font-family="Helvetica,sans-Serif" font-size="11.00" fill="#000000">[table]</text>
<polygon fill="none" stroke="#000000" points="246.5,-75.7 246.5,-97.7 423.5,-97.7 423.5,-75.7 246.5,-75.7"/>
<image xlink:href="../../images/foreignKeys.png" width="11px" height="12px" preserveAspectRatio="xMinYMin meet" x="251.5" y="-92.7"/>
<text text-anchor="start" x="300.5" y="-82.8" font-family="Helvetica,sans-Serif" font-size="11.00" fill="#000000">zone_id</text>
<polygon fill="none" stroke="#000000" points="246.5,-56.7 246.5,-75.7 423.5,-75.7 423.5,-56.7 246.5,-56.7"/>
<text text-anchor="start" x="249.5" y="-62.8" font-family="Helvetica,sans-Serif" font-size="11.00" fill="#000000">...</text>
<polygon fill="#ffffff" stroke="transparent" points="246.5,-37.7 246.5,-56.7 333.5,-56.7 333.5,-37.7 246.5,-37.7"/>
<polygon fill="none" stroke="#000000" points="246.5,-37.7 246.5,-56.7 333.5,-56.7 333.5,-37.7 246.5,-37.7"/>
<text text-anchor="start" x="249.5" y="-43.8" font-family="Helvetica,sans-Serif" font-size="11.00" fill="#000000">&lt; 1</text>
<polygon fill="#ffffff" stroke="transparent" points="333.5,-37.7 333.5,-56.7 378.5,-56.7 378.5,-37.7 333.5,-37.7"/>
<polygon fill="none" stroke="#000000" points="333.5,-37.7 333.5,-56.7 378.5,-56.7 378.5,-37.7 333.5,-37.7"/>
<text text-anchor="start" x="369.3862" y="-43.8" font-family="Helvetica,sans-Serif" font-size="11.00" fill="#000000"> &#160;</text>
<polygon fill="#ffffff" stroke="transparent" points="378.5,-37.7 378.5,-56.7 423.5,-56.7 423.5,-37.7 378.5,-37.7"/>
<polygon fill="none" stroke="#000000" points="378.5,-37.7 378.5,-56.7 423.5,-56.7 423.5,-37.7 378.5,-37.7"/>
<text text-anchor="start" x="414.3862" y="-43.8" font-family="Helvetica,sans-Serif" font-size="11.00" fill="#000000"> &#160;</text>
</a>
</g>
</g>
<!-- roi_waterongeval.sector&#45;&gt;zone -->
<g id="edge4" class="edge">
<title>roi_waterongeval.sector:w&#45;&gt;zone:e</title>
<path fill="none" stroke="#000000" d="M232.3167,-89.4077C187.3576,-110.1229 262.7456,-242.7 195.5,-242.7"/>
<polygon fill="#000000" stroke="#000000" points="238.6419,-88.2002 247.1751,-90.2361 242.571,-87.4501 246.5,-86.7 246.5,-86.7 246.5,-86.7 242.571,-87.4501 245.8249,-83.1639 238.6419,-88.2002 238.6419,-88.2002"/>
<ellipse fill="none" stroke="#000000" cx="235.4987" cy="-88.8003" rx="3.2" ry="3.2"/>
</g>
</g>
</svg>
