<?xml version="1.0" encoding="UTF-8" standalone="no"?>
<!DOCTYPE svg PUBLIC "-//W3C//DTD SVG 1.1//EN"
 "http://www.w3.org/Graphics/SVG/1.1/DTD/svg11.dtd">
<!-- Generated by graphviz version 2.50.0 (0)
 -->
<!-- Title: compactRelationshipsDiagram Pages: 1 -->
<svg width="528pt" height="1008pt"
 viewBox="0.00 0.00 528.00 1008.00" xmlns="http://www.w3.org/2000/svg" xmlns:xlink="http://www.w3.org/1999/xlink">
<g id="graph0" class="graph" transform="scale(1 1) rotate(0) translate(4 1004)">
<title>compactRelationshipsDiagram</title>
<polygon fill="#ffffff" stroke="transparent" points="-4,4 -4,-1004 524,-1004 524,4 -4,4"/>
<text text-anchor="middle" x="79.5" y="-7.2" font-family="Helvetica,sans-Serif" font-size="11.00">Generated by SchemaSpy</text>
<!-- roi.annotatie -->
<g id="node1" class="node">
<title>roi.annotatie</title>
<g id="a_node1"><a xlink:href="../../../roi/tables/annotatie.html" xlink:title="roi.annotatie" target="_top">
<polygon fill="#ffffff" stroke="transparent" points="183,-868 183,-926 315,-926 315,-868 183,-868"/>
<polygon fill="#f5f5f5" stroke="transparent" points="183,-904 183,-926 315,-926 315,-904 183,-904"/>
<polygon fill="none" stroke="black" points="183,-904 183,-926 315,-926 315,-904 183,-904"/>
<text text-anchor="start" x="188" y="-913.2" font-family="Helvetica,sans-Serif" font-weight="bold" font-size="11.00">roi.annotatie</text>
<text text-anchor="start" x="273" y="-912.2" font-family="Helvetica,sans-Serif" font-size="11.00">[table]</text>
<polygon fill="none" stroke="black" points="183,-886 183,-904 315,-904 315,-886 183,-886"/>
<text text-anchor="start" x="186" y="-892.2" font-family="Helvetica,sans-Serif" font-size="11.00">...</text>
<polygon fill="#ffffff" stroke="transparent" points="183,-868 183,-886 236,-886 236,-868 183,-868"/>
<polygon fill="none" stroke="black" points="183,-868 183,-886 236,-886 236,-868 183,-868"/>
<text text-anchor="start" x="186" y="-874.2" font-family="Helvetica,sans-Serif" font-size="11.00"> &#160;</text>
<polygon fill="#ffffff" stroke="transparent" points="236,-868 236,-886 269,-886 269,-868 236,-868"/>
<polygon fill="none" stroke="black" points="236,-868 236,-886 269,-886 269,-868 236,-868"/>
<text text-anchor="start" x="258" y="-874.2" font-family="Helvetica,sans-Serif" font-size="11.00"> &#160;</text>
<polygon fill="#ffffff" stroke="transparent" points="269,-868 269,-886 315,-886 315,-868 269,-868"/>
<polygon fill="none" stroke="black" points="269,-868 269,-886 315,-886 315,-868 269,-868"/>
<text text-anchor="start" x="292" y="-874.2" font-family="Helvetica,sans-Serif" font-size="11.00">1 &gt;</text>
</a>
</g>
</g>
<!-- roi.fase -->
<g id="node2" class="node">
<title>roi.fase</title>
<g id="a_node2"><a xlink:href="../../../roi/tables/fase.html" xlink:title="roi.fase" target="_top">
<polygon fill="#ffffff" stroke="transparent" points="20,-520 20,-578 119,-578 119,-520 20,-520"/>
<polygon fill="#f5f5f5" stroke="transparent" points="20.5,-556 20.5,-578 119.5,-578 119.5,-556 20.5,-556"/>
<polygon fill="none" stroke="black" points="20.5,-556 20.5,-578 119.5,-578 119.5,-556 20.5,-556"/>
<text text-anchor="start" x="25.5" y="-565.2" font-family="Helvetica,sans-Serif" font-weight="bold" font-size="11.00">roi.fase</text>
<text text-anchor="start" x="77.5" y="-564.2" font-family="Helvetica,sans-Serif" font-size="11.00">[table]</text>
<polygon fill="none" stroke="black" points="20.5,-538 20.5,-556 119.5,-556 119.5,-538 20.5,-538"/>
<text text-anchor="start" x="23.5" y="-544.2" font-family="Helvetica,sans-Serif" font-size="11.00">...</text>
<polygon fill="#ffffff" stroke="transparent" points="20.5,-520 20.5,-538 56.5,-538 56.5,-520 20.5,-520"/>
<polygon fill="none" stroke="black" points="20.5,-520 20.5,-538 56.5,-538 56.5,-520 20.5,-520"/>
<text text-anchor="start" x="23.5" y="-526.2" font-family="Helvetica,sans-Serif" font-size="11.00"> &#160;</text>
<polygon fill="#ffffff" stroke="transparent" points="56.5,-520 56.5,-538 81.5,-538 81.5,-520 56.5,-520"/>
<polygon fill="none" stroke="black" points="56.5,-520 56.5,-538 81.5,-538 81.5,-520 56.5,-520"/>
<text text-anchor="start" x="70.5" y="-526.2" font-family="Helvetica,sans-Serif" font-size="11.00"> &#160;</text>
<polygon fill="#ffffff" stroke="transparent" points="81.5,-520 81.5,-538 119.5,-538 119.5,-520 81.5,-520"/>
<polygon fill="none" stroke="black" points="81.5,-520 81.5,-538 119.5,-538 119.5,-520 81.5,-520"/>
<text text-anchor="start" x="96.5" y="-526.2" font-family="Helvetica,sans-Serif" font-size="11.00">1 &gt;</text>
</a>
</g>
</g>
<!-- roi.symbool -->
<g id="node3" class="node">
<title>roi.symbool</title>
<g id="a_node3"><a xlink:href="../../../roi/tables/symbool.html" xlink:title="roi.symbool" target="_top">
<polygon fill="#ffffff" stroke="transparent" points="187,-55 187,-113 311,-113 311,-55 187,-55"/>
<polygon fill="#f5f5f5" stroke="transparent" points="187,-91 187,-113 311,-113 311,-91 187,-91"/>
<polygon fill="none" stroke="black" points="187,-91 187,-113 311,-113 311,-91 187,-91"/>
<text text-anchor="start" x="192" y="-100.2" font-family="Helvetica,sans-Serif" font-weight="bold" font-size="11.00">roi.symbool</text>
<text text-anchor="start" x="269" y="-99.2" font-family="Helvetica,sans-Serif" font-size="11.00">[table]</text>
<polygon fill="none" stroke="black" points="187,-73 187,-91 311,-91 311,-73 187,-73"/>
<text text-anchor="start" x="190" y="-79.2" font-family="Helvetica,sans-Serif" font-size="11.00">...</text>
<polygon fill="#ffffff" stroke="transparent" points="187,-55 187,-73 236,-73 236,-55 187,-55"/>
<polygon fill="none" stroke="black" points="187,-55 187,-73 236,-73 236,-55 187,-55"/>
<text text-anchor="start" x="190" y="-61.2" font-family="Helvetica,sans-Serif" font-size="11.00"> &#160;</text>
<polygon fill="#ffffff" stroke="transparent" points="236,-55 236,-73 267,-73 267,-55 236,-55"/>
<polygon fill="none" stroke="black" points="236,-55 236,-73 267,-73 267,-55 236,-55"/>
<text text-anchor="start" x="256" y="-61.2" font-family="Helvetica,sans-Serif" font-size="11.00"> &#160;</text>
<polygon fill="#ffffff" stroke="transparent" points="267,-55 267,-73 311,-73 311,-55 267,-55"/>
<polygon fill="none" stroke="black" points="267,-55 267,-73 311,-73 311,-55 267,-55"/>
<text text-anchor="start" x="288" y="-61.2" font-family="Helvetica,sans-Serif" font-size="11.00">1 &gt;</text>
</a>
</g>
</g>
<!-- roi.verbinding -->
<g id="node4" class="node">
<title>roi.verbinding</title>
<g id="a_node4"><a xlink:href="../../../roi/tables/verbinding.html" xlink:title="roi.verbinding" target="_top">
<polygon fill="#ffffff" stroke="transparent" points="180,-701 180,-759 318,-759 318,-701 180,-701"/>
<polygon fill="#f5f5f5" stroke="transparent" points="180,-737 180,-759 318,-759 318,-737 180,-737"/>
<polygon fill="none" stroke="black" points="180,-737 180,-759 318,-759 318,-737 180,-737"/>
<text text-anchor="start" x="185" y="-746.2" font-family="Helvetica,sans-Serif" font-weight="bold" font-size="11.00">roi.verbinding</text>
<text text-anchor="start" x="276" y="-745.2" font-family="Helvetica,sans-Serif" font-size="11.00">[table]</text>
<polygon fill="none" stroke="black" points="180,-719 180,-737 318,-737 318,-719 180,-719"/>
<text text-anchor="start" x="183" y="-725.2" font-family="Helvetica,sans-Serif" font-size="11.00">...</text>
<polygon fill="#ffffff" stroke="transparent" points="180,-701 180,-719 236,-719 236,-701 180,-701"/>
<polygon fill="none" stroke="black" points="180,-701 180,-719 236,-719 236,-701 180,-701"/>
<text text-anchor="start" x="183" y="-707.2" font-family="Helvetica,sans-Serif" font-size="11.00"> &#160;</text>
<polygon fill="#ffffff" stroke="transparent" points="236,-701 236,-719 271,-719 271,-701 236,-701"/>
<polygon fill="none" stroke="black" points="236,-701 236,-719 271,-719 271,-701 236,-701"/>
<text text-anchor="start" x="260" y="-707.2" font-family="Helvetica,sans-Serif" font-size="11.00"> &#160;</text>
<polygon fill="#ffffff" stroke="transparent" points="271,-701 271,-719 318,-719 318,-701 271,-701"/>
<polygon fill="none" stroke="black" points="271,-701 271,-719 318,-719 318,-701 271,-701"/>
<text text-anchor="start" x="295" y="-707.2" font-family="Helvetica,sans-Serif" font-size="11.00">1 &gt;</text>
</a>
</g>
</g>
<!-- roi.voertuig -->
<g id="node5" class="node">
<title>roi.voertuig</title>
<g id="a_node5"><a xlink:href="../../../roi/tables/voertuig.html" xlink:title="roi.voertuig" target="_top">
<polygon fill="#ffffff" stroke="transparent" points="187,-349 187,-407 311,-407 311,-349 187,-349"/>
<polygon fill="#f5f5f5" stroke="transparent" points="187,-385 187,-407 311,-407 311,-385 187,-385"/>
<polygon fill="none" stroke="black" points="187,-385 187,-407 311,-407 311,-385 187,-385"/>
<text text-anchor="start" x="192" y="-394.2" font-family="Helvetica,sans-Serif" font-weight="bold" font-size="11.00">roi.voertuig</text>
<text text-anchor="start" x="269" y="-393.2" font-family="Helvetica,sans-Serif" font-size="11.00">[table]</text>
<polygon fill="none" stroke="black" points="187,-367 187,-385 311,-385 311,-367 187,-367"/>
<text text-anchor="start" x="190" y="-373.2" font-family="Helvetica,sans-Serif" font-size="11.00">...</text>
<polygon fill="#ffffff" stroke="transparent" points="187,-349 187,-367 236,-367 236,-349 187,-349"/>
<polygon fill="none" stroke="black" points="187,-349 187,-367 236,-367 236,-349 187,-349"/>
<text text-anchor="start" x="190" y="-355.2" font-family="Helvetica,sans-Serif" font-size="11.00"> &#160;</text>
<polygon fill="#ffffff" stroke="transparent" points="236,-349 236,-367 267,-367 267,-349 236,-349"/>
<polygon fill="none" stroke="black" points="236,-349 236,-367 267,-367 267,-349 236,-349"/>
<text text-anchor="start" x="256" y="-355.2" font-family="Helvetica,sans-Serif" font-size="11.00"> &#160;</text>
<polygon fill="#ffffff" stroke="transparent" points="267,-349 267,-367 311,-367 311,-349 267,-349"/>
<polygon fill="none" stroke="black" points="267,-349 267,-367 311,-367 311,-349 267,-349"/>
<text text-anchor="start" x="288" y="-355.2" font-family="Helvetica,sans-Serif" font-size="11.00">1 &gt;</text>
</a>
</g>
</g>
<!-- roi.zone -->
<g id="node6" class="node">
<title>roi.zone</title>
<g id="a_node6"><a xlink:href="../../../roi/tables/zone.html" xlink:title="roi.zone" target="_top">
<polygon fill="#ffffff" stroke="transparent" points="198,-222 198,-280 300,-280 300,-222 198,-222"/>
<polygon fill="#f5f5f5" stroke="transparent" points="198,-258 198,-280 300,-280 300,-258 198,-258"/>
<polygon fill="none" stroke="black" points="198,-258 198,-280 300,-280 300,-258 198,-258"/>
<text text-anchor="start" x="203" y="-267.2" font-family="Helvetica,sans-Serif" font-weight="bold" font-size="11.00">roi.zone</text>
<text text-anchor="start" x="258" y="-266.2" font-family="Helvetica,sans-Serif" font-size="11.00">[table]</text>
<polygon fill="none" stroke="black" points="198,-240 198,-258 300,-258 300,-240 198,-240"/>
<text text-anchor="start" x="201" y="-246.2" font-family="Helvetica,sans-Serif" font-size="11.00">...</text>
<polygon fill="#ffffff" stroke="transparent" points="198,-222 198,-240 236,-240 236,-222 198,-222"/>
<polygon fill="none" stroke="black" points="198,-222 198,-240 236,-240 236,-222 198,-222"/>
<text text-anchor="start" x="201" y="-228.2" font-family="Helvetica,sans-Serif" font-size="11.00"> &#160;</text>
<polygon fill="#ffffff" stroke="transparent" points="236,-222 236,-240 262,-240 262,-222 236,-222"/>
<polygon fill="none" stroke="black" points="236,-222 236,-240 262,-240 262,-222 236,-222"/>
<text text-anchor="start" x="251" y="-228.2" font-family="Helvetica,sans-Serif" font-size="11.00"> &#160;</text>
<polygon fill="#ffffff" stroke="transparent" points="262,-222 262,-240 300,-240 300,-222 262,-222"/>
<polygon fill="none" stroke="black" points="262,-222 262,-240 300,-240 300,-222 262,-222"/>
<text text-anchor="start" x="277" y="-228.2" font-family="Helvetica,sans-Serif" font-size="11.00">1 &gt;</text>
</a>
</g>
</g>
<!-- bereikbaarheid -->
<g id="node7" class="node">
<title>bereikbaarheid</title>
<g id="a_node7"><a xlink:href="../../tables/bereikbaarheid.html" xlink:title="bereikbaarheid" target="_top">
<polygon fill="#ffffff" stroke="transparent" points="367,-683 367,-829 512,-829 512,-683 367,-683"/>
<polygon fill="#f5f5f5" stroke="transparent" points="367.5,-807 367.5,-829 512.5,-829 512.5,-807 367.5,-807"/>
<polygon fill="none" stroke="black" points="367.5,-807 367.5,-829 512.5,-829 512.5,-807 367.5,-807"/>
<text text-anchor="start" x="372.5" y="-816.2" font-family="Helvetica,sans-Serif" font-weight="bold" font-size="11.00">bereikbaarheid</text>
<text text-anchor="start" x="470.5" y="-815.2" font-family="Helvetica,sans-Serif" font-size="11.00">[table]</text>
<polygon fill="none" stroke="black" points="367.5,-785 367.5,-807 512.5,-807 512.5,-785 367.5,-785"/>
<image xlink:href="../../images/primaryKeys.png" width="11px" height="12px" preserveAspectRatio="xMinYMin meet" x="372.5" y="-802"/>
<text text-anchor="start" x="403.5" y="-793.2" font-family="Helvetica,sans-Serif" font-size="11.00">uuid</text>
<polygon fill="#ffffff" stroke="transparent" points="367.5,-763 367.5,-785 512.5,-785 512.5,-763 367.5,-763"/>
<polygon fill="none" stroke="black" points="367.5,-763 367.5,-785 512.5,-785 512.5,-763 367.5,-763"/>
<text text-anchor="start" x="403.5" y="-771.2" font-family="Helvetica,sans-Serif" font-size="11.00">geom</text>
<polygon fill="#ffffff" stroke="transparent" points="367.5,-741 367.5,-763 512.5,-763 512.5,-741 367.5,-741"/>
<polygon fill="none" stroke="black" points="367.5,-741 367.5,-763 512.5,-763 512.5,-741 367.5,-741"/>
<image xlink:href="../../images/foreignKeys.png" width="11px" height="12px" preserveAspectRatio="xMinYMin meet" x="372.5" y="-758"/>
<text text-anchor="start" x="403.5" y="-749.2" font-family="Helvetica,sans-Serif" font-size="11.00">object_uuid</text>
<polygon fill="none" stroke="black" points="367.5,-719 367.5,-741 512.5,-741 512.5,-719 367.5,-719"/>
<image xlink:href="../../images/foreignKeys.png" width="11px" height="12px" preserveAspectRatio="xMinYMin meet" x="372.5" y="-736"/>
<text text-anchor="start" x="403.5" y="-727.2" font-family="Helvetica,sans-Serif" font-size="11.00">verbinding_id</text>
<polygon fill="none" stroke="black" points="367.5,-701 367.5,-719 512.5,-719 512.5,-701 367.5,-701"/>
<text text-anchor="start" x="370.5" y="-707.2" font-family="Helvetica,sans-Serif" font-size="11.00">...</text>
<polygon fill="#ffffff" stroke="transparent" points="367.5,-683 367.5,-701 438.5,-701 438.5,-683 367.5,-683"/>
<polygon fill="none" stroke="black" points="367.5,-683 367.5,-701 438.5,-701 438.5,-683 367.5,-683"/>
<text text-anchor="start" x="370.5" y="-689.2" font-family="Helvetica,sans-Serif" font-size="11.00">&lt; 2</text>
<polygon fill="#ffffff" stroke="transparent" points="438.5,-683 438.5,-701 475.5,-701 475.5,-683 438.5,-683"/>
<polygon fill="none" stroke="black" points="438.5,-683 438.5,-701 475.5,-701 475.5,-683 438.5,-683"/>
<text text-anchor="start" x="464.5" y="-689.2" font-family="Helvetica,sans-Serif" font-size="11.00"> &#160;</text>
<polygon fill="#ffffff" stroke="transparent" points="475.5,-683 475.5,-701 512.5,-701 512.5,-683 475.5,-683"/>
<polygon fill="none" stroke="black" points="475.5,-683 475.5,-701 512.5,-701 512.5,-683 475.5,-683"/>
<text text-anchor="start" x="501.5" y="-689.2" font-family="Helvetica,sans-Serif" font-size="11.00"> &#160;</text>
</a>
</g>
</g>
<!-- bereikbaarheid&#45;&gt;roi.verbinding -->
<g id="edge2" class="edge">
<title>bereikbaarheid:w&#45;&gt;roi.verbinding:e</title>
<path fill="none" stroke="black" d="M351.86,-730C343.33,-730 334.65,-730 326.14,-730"/>
<polygon fill="black" stroke="black" points="358.5,-730 366.5,-733.6 362.5,-730 366.5,-730 366.5,-730 366.5,-730 362.5,-730 366.5,-726.4 358.5,-730 358.5,-730"/>
<ellipse fill="none" stroke="black" cx="355.3" cy="-730" rx="3.2" ry="3.2"/>
</g>
<!-- object -->
<g id="node9" class="node">
<title>object</title>
<g id="a_node9"><a xlink:href="../../tables/object.html" xlink:title="object" target="_top">
<polygon fill="#ffffff" stroke="transparent" points="183.5,-428 183.5,-618 314.5,-618 314.5,-428 183.5,-428"/>
<polygon fill="#f5f5f5" stroke="transparent" points="184,-596 184,-618 315,-618 315,-596 184,-596"/>
<polygon fill="none" stroke="black" points="184,-596 184,-618 315,-618 315,-596 184,-596"/>
<text text-anchor="start" x="189" y="-605.2" font-family="Helvetica,sans-Serif" font-weight="bold" font-size="11.00">object</text>
<text text-anchor="start" x="273" y="-604.2" font-family="Helvetica,sans-Serif" font-size="11.00">[table]</text>
<polygon fill="none" stroke="black" points="184,-574 184,-596 315,-596 315,-574 184,-574"/>
<image xlink:href="../../images/primaryKeys.png" width="11px" height="12px" preserveAspectRatio="xMinYMin meet" x="189" y="-591"/>
<text text-anchor="start" x="204" y="-582.2" font-family="Helvetica,sans-Serif" font-size="11.00">uuid</text>
<polygon fill="#ffffff" stroke="transparent" points="184,-552 184,-574 315,-574 315,-552 184,-552"/>
<polygon fill="none" stroke="black" points="184,-552 184,-574 315,-574 315,-552 184,-552"/>
<text text-anchor="start" x="204" y="-560.2" font-family="Helvetica,sans-Serif" font-size="11.00">geom</text>
<polygon fill="#ffffff" stroke="transparent" points="184,-530 184,-552 315,-552 315,-530 184,-530"/>
<polygon fill="none" stroke="black" points="184,-530 184,-552 315,-552 315,-530 184,-530"/>
<text text-anchor="start" x="204" y="-538.2" font-family="Helvetica,sans-Serif" font-size="11.00">revisie_frequentie</text>
<polygon fill="#ffffff" stroke="transparent" points="184,-508 184,-530 315,-530 315,-508 184,-508"/>
<polygon fill="none" stroke="black" points="184,-508 184,-530 315,-530 315,-508 184,-508"/>
<image xlink:href="../../images/foreignKeys.png" width="11px" height="12px" preserveAspectRatio="xMinYMin meet" x="189" y="-525"/>
<text text-anchor="start" x="204" y="-516.2" font-family="Helvetica,sans-Serif" font-size="11.00">fase_id</text>
<polygon fill="#ffffff" stroke="transparent" points="184,-486 184,-508 315,-508 315,-486 184,-486"/>
<polygon fill="none" stroke="black" points="184,-486 184,-508 315,-508 315,-486 184,-486"/>
<image xlink:href="../../images/foreignKeys.png" width="11px" height="12px" preserveAspectRatio="xMinYMin meet" x="189" y="-503"/>
<text text-anchor="start" x="204" y="-494.2" font-family="Helvetica,sans-Serif" font-size="11.00">object_type_id</text>
<polygon fill="#ffffff" stroke="transparent" points="184,-464 184,-486 315,-486 315,-464 184,-464"/>
<polygon fill="none" stroke="black" points="184,-464 184,-486 315,-486 315,-464 184,-464"/>
<text text-anchor="start" x="204" y="-472.2" font-family="Helvetica,sans-Serif" font-size="11.00">periode</text>
<polygon fill="none" stroke="black" points="184,-446 184,-464 315,-464 315,-446 184,-446"/>
<text text-anchor="start" x="187" y="-452.2" font-family="Helvetica,sans-Serif" font-size="11.00">...</text>
<polygon fill="#ffffff" stroke="transparent" points="184,-428 184,-446 242,-446 242,-428 184,-428"/>
<polygon fill="none" stroke="black" points="184,-428 184,-446 242,-446 242,-428 184,-428"/>
<text text-anchor="start" x="187" y="-434.2" font-family="Helvetica,sans-Serif" font-size="11.00">&lt; 2</text>
<polygon fill="#ffffff" stroke="transparent" points="242,-428 242,-446 272,-446 272,-428 242,-428"/>
<polygon fill="none" stroke="black" points="242,-428 242,-446 272,-446 272,-428 242,-428"/>
<text text-anchor="start" x="261" y="-434.2" font-family="Helvetica,sans-Serif" font-size="11.00"> &#160;</text>
<polygon fill="#ffffff" stroke="transparent" points="272,-428 272,-446 315,-446 315,-428 272,-428"/>
<polygon fill="none" stroke="black" points="272,-428 272,-446 315,-446 315,-428 272,-428"/>
<text text-anchor="start" x="292" y="-434.2" font-family="Helvetica,sans-Serif" font-size="11.00">6 &gt;</text>
</a>
</g>
</g>
<!-- bereikbaarheid&#45;&gt;object -->
<g id="edge1" class="edge">
<title>bereikbaarheid:w&#45;&gt;object:e</title>
<path fill="none" stroke="black" d="M352.1,-749.38C303.48,-728.13 387.79,-585 316,-585"/>
<polygon fill="black" stroke="black" points="358.63,-750.57 365.85,-755.54 362.56,-751.28 366.5,-752 366.5,-752 366.5,-752 362.56,-751.28 367.15,-748.46 358.63,-750.57 358.63,-750.57"/>
<ellipse fill="none" stroke="black" cx="355.48" cy="-749.99" rx="3.2" ry="3.2"/>
</g>
<!-- label -->
<g id="node8" class="node">
<title>label</title>
<g id="a_node8"><a xlink:href="../../tables/label.html" xlink:title="label" target="_top">
<polygon fill="#ffffff" stroke="transparent" points="382.5,-850 382.5,-996 496.5,-996 496.5,-850 382.5,-850"/>
<polygon fill="#f5f5f5" stroke="transparent" points="382.5,-974 382.5,-996 496.5,-996 496.5,-974 382.5,-974"/>
<polygon fill="none" stroke="black" points="382.5,-974 382.5,-996 496.5,-996 496.5,-974 382.5,-974"/>
<text text-anchor="start" x="387.5" y="-983.2" font-family="Helvetica,sans-Serif" font-weight="bold" font-size="11.00">label</text>
<text text-anchor="start" x="454.5" y="-982.2" font-family="Helvetica,sans-Serif" font-size="11.00">[table]</text>
<polygon fill="none" stroke="black" points="382.5,-952 382.5,-974 496.5,-974 496.5,-952 382.5,-952"/>
<image xlink:href="../../images/primaryKeys.png" width="11px" height="12px" preserveAspectRatio="xMinYMin meet" x="387.5" y="-969"/>
<text text-anchor="start" x="402.5" y="-960.2" font-family="Helvetica,sans-Serif" font-size="11.00">uuid</text>
<polygon fill="#ffffff" stroke="transparent" points="382.5,-930 382.5,-952 496.5,-952 496.5,-930 382.5,-930"/>
<polygon fill="none" stroke="black" points="382.5,-930 382.5,-952 496.5,-952 496.5,-930 382.5,-930"/>
<text text-anchor="start" x="402.5" y="-938.2" font-family="Helvetica,sans-Serif" font-size="11.00">geom</text>
<polygon fill="#ffffff" stroke="transparent" points="382.5,-908 382.5,-930 496.5,-930 496.5,-908 382.5,-908"/>
<polygon fill="none" stroke="black" points="382.5,-908 382.5,-930 496.5,-930 496.5,-908 382.5,-908"/>
<image xlink:href="../../images/foreignKeys.png" width="11px" height="12px" preserveAspectRatio="xMinYMin meet" x="387.5" y="-925"/>
<text text-anchor="start" x="402.5" y="-916.2" font-family="Helvetica,sans-Serif" font-size="11.00">object_uuid</text>
<polygon fill="none" stroke="black" points="382.5,-886 382.5,-908 496.5,-908 496.5,-886 382.5,-886"/>
<image xlink:href="../../images/foreignKeys.png" width="11px" height="12px" preserveAspectRatio="xMinYMin meet" x="387.5" y="-903"/>
<text text-anchor="start" x="402.5" y="-894.2" font-family="Helvetica,sans-Serif" font-size="11.00">annotatie_id</text>
<polygon fill="none" stroke="black" points="382.5,-868 382.5,-886 496.5,-886 496.5,-868 382.5,-868"/>
<text text-anchor="start" x="385.5" y="-874.2" font-family="Helvetica,sans-Serif" font-size="11.00">...</text>
<polygon fill="#ffffff" stroke="transparent" points="382.5,-850 382.5,-868 438.5,-868 438.5,-850 382.5,-850"/>
<polygon fill="none" stroke="black" points="382.5,-850 382.5,-868 438.5,-868 438.5,-850 382.5,-850"/>
<text text-anchor="start" x="385.5" y="-856.2" font-family="Helvetica,sans-Serif" font-size="11.00">&lt; 2</text>
<polygon fill="#ffffff" stroke="transparent" points="438.5,-850 438.5,-868 467.5,-868 467.5,-850 438.5,-850"/>
<polygon fill="none" stroke="black" points="438.5,-850 438.5,-868 467.5,-868 467.5,-850 438.5,-850"/>
<text text-anchor="start" x="456.5" y="-856.2" font-family="Helvetica,sans-Serif" font-size="11.00"> &#160;</text>
<polygon fill="#ffffff" stroke="transparent" points="467.5,-850 467.5,-868 496.5,-868 496.5,-850 467.5,-850"/>
<polygon fill="none" stroke="black" points="467.5,-850 467.5,-868 496.5,-868 496.5,-850 467.5,-850"/>
<text text-anchor="start" x="485.5" y="-856.2" font-family="Helvetica,sans-Serif" font-size="11.00"> &#160;</text>
</a>
</g>
</g>
<!-- label&#45;&gt;roi.annotatie -->
<g id="edge3" class="edge">
<title>label:w&#45;&gt;roi.annotatie:e</title>
<path fill="none" stroke="black" d="M367.05,-897C352.4,-897 337.31,-897 323.03,-897"/>
<polygon fill="black" stroke="black" points="373.5,-897 381.5,-900.6 377.5,-897 381.5,-897 381.5,-897 381.5,-897 377.5,-897 381.5,-893.4 373.5,-897 373.5,-897"/>
<ellipse fill="none" stroke="black" cx="370.3" cy="-897" rx="3.2" ry="3.2"/>
</g>
<!-- label&#45;&gt;object -->
<g id="edge4" class="edge">
<title>label:w&#45;&gt;object:e</title>
<path fill="none" stroke="black" d="M367.83,-914.28C317.13,-873.68 386.32,-585 316,-585"/>
<polygon fill="black" stroke="black" points="373.94,-916.39 380.32,-922.4 377.72,-917.69 381.5,-919 381.5,-919 381.5,-919 377.72,-917.69 382.68,-915.6 373.94,-916.39 373.94,-916.39"/>
<ellipse fill="none" stroke="black" cx="370.91" cy="-915.34" rx="3.2" ry="3.2"/>
</g>
<!-- object&#45;&gt;roi.fase -->
<g id="edge5" class="edge">
<title>object:w&#45;&gt;roi.fase:e</title>
<path fill="none" stroke="black" d="M168.52,-519.72C154.51,-521.05 140.32,-524.1 127.25,-527.76"/>
<polygon fill="black" stroke="black" points="175.01,-519.4 183.18,-522.6 179,-519.2 183,-519 183,-519 183,-519 179,-519.2 182.82,-515.4 175.01,-519.4 175.01,-519.4"/>
<ellipse fill="none" stroke="black" cx="171.81" cy="-519.55" rx="3.2" ry="3.2"/>
</g>
<!-- object_type -->
<g id="node10" class="node">
<title>object_type</title>
<g id="a_node10"><a xlink:href="../../tables/object_type.html" xlink:title="object_type" target="_top">
<polygon fill="#ffffff" stroke="transparent" points="8,-419 8,-499 131,-499 131,-419 8,-419"/>
<polygon fill="#f5f5f5" stroke="transparent" points="8.5,-477 8.5,-499 131.5,-499 131.5,-477 8.5,-477"/>
<polygon fill="none" stroke="black" points="8.5,-477 8.5,-499 131.5,-499 131.5,-477 8.5,-477"/>
<text text-anchor="start" x="13.5" y="-486.2" font-family="Helvetica,sans-Serif" font-weight="bold" font-size="11.00">object_type</text>
<text text-anchor="start" x="89.5" y="-485.2" font-family="Helvetica,sans-Serif" font-size="11.00">[table]</text>
<polygon fill="none" stroke="black" points="8.5,-455 8.5,-477 131.5,-477 131.5,-455 8.5,-455"/>
<image xlink:href="../../images/primaryKeys.png" width="11px" height="12px" preserveAspectRatio="xMinYMin meet" x="13.5" y="-472"/>
<text text-anchor="start" x="41.5" y="-463.2" font-family="Helvetica,sans-Serif" font-size="11.00">id</text>
<polygon fill="none" stroke="black" points="8.5,-437 8.5,-455 131.5,-455 131.5,-437 8.5,-437"/>
<text text-anchor="start" x="11.5" y="-443.2" font-family="Helvetica,sans-Serif" font-size="11.00">...</text>
<polygon fill="#ffffff" stroke="transparent" points="8.5,-419 8.5,-437 56.5,-437 56.5,-419 8.5,-419"/>
<polygon fill="none" stroke="black" points="8.5,-419 8.5,-437 56.5,-437 56.5,-419 8.5,-419"/>
<text text-anchor="start" x="11.5" y="-425.2" font-family="Helvetica,sans-Serif" font-size="11.00"> &#160;</text>
<polygon fill="#ffffff" stroke="transparent" points="56.5,-419 56.5,-437 87.5,-437 87.5,-419 56.5,-419"/>
<polygon fill="none" stroke="black" points="56.5,-419 56.5,-437 87.5,-437 87.5,-419 56.5,-419"/>
<text text-anchor="start" x="76.5" y="-425.2" font-family="Helvetica,sans-Serif" font-size="11.00"> &#160;</text>
<polygon fill="#ffffff" stroke="transparent" points="87.5,-419 87.5,-437 131.5,-437 131.5,-419 87.5,-419"/>
<polygon fill="none" stroke="black" points="87.5,-419 87.5,-437 131.5,-437 131.5,-419 87.5,-419"/>
<text text-anchor="start" x="108.5" y="-425.2" font-family="Helvetica,sans-Serif" font-size="11.00">1 &gt;</text>
</a>
</g>
</g>
<!-- object&#45;&gt;object_type -->
<g id="edge6" class="edge">
<title>object:w&#45;&gt;object_type:e</title>
<path fill="none" stroke="black" d="M168.83,-492.95C156.18,-484.54 152.87,-466 132.5,-466"/>
<polygon fill="black" stroke="black" points="175.31,-494.8 182.01,-500.46 179.15,-495.9 183,-497 183,-497 183,-497 179.15,-495.9 183.99,-493.54 175.31,-494.8 175.31,-494.8"/>
<ellipse fill="none" stroke="black" cx="172.23" cy="-493.92" rx="3.2" ry="3.2"/>
</g>
<!-- opstelplaats -->
<g id="node11" class="node">
<title>opstelplaats</title>
<g id="a_node11"><a xlink:href="../../tables/opstelplaats.html" xlink:title="opstelplaats" target="_top">
<polygon fill="#ffffff" stroke="transparent" points="375.5,-371 375.5,-517 503.5,-517 503.5,-371 375.5,-371"/>
<polygon fill="#f5f5f5" stroke="transparent" points="375.5,-495 375.5,-517 503.5,-517 503.5,-495 375.5,-495"/>
<polygon fill="none" stroke="black" points="375.5,-495 375.5,-517 503.5,-517 503.5,-495 375.5,-495"/>
<text text-anchor="start" x="380.5" y="-504.2" font-family="Helvetica,sans-Serif" font-weight="bold" font-size="11.00">opstelplaats</text>
<text text-anchor="start" x="461.5" y="-503.2" font-family="Helvetica,sans-Serif" font-size="11.00">[table]</text>
<polygon fill="none" stroke="black" points="375.5,-473 375.5,-495 503.5,-495 503.5,-473 375.5,-473"/>
<image xlink:href="../../images/primaryKeys.png" width="11px" height="12px" preserveAspectRatio="xMinYMin meet" x="380.5" y="-490"/>
<text text-anchor="start" x="402.5" y="-481.2" font-family="Helvetica,sans-Serif" font-size="11.00">uuid</text>
<polygon fill="#ffffff" stroke="transparent" points="375.5,-451 375.5,-473 503.5,-473 503.5,-451 375.5,-451"/>
<polygon fill="none" stroke="black" points="375.5,-451 375.5,-473 503.5,-473 503.5,-451 375.5,-451"/>
<text text-anchor="start" x="402.5" y="-459.2" font-family="Helvetica,sans-Serif" font-size="11.00">geom</text>
<polygon fill="#ffffff" stroke="transparent" points="375.5,-429 375.5,-451 503.5,-451 503.5,-429 375.5,-429"/>
<polygon fill="none" stroke="black" points="375.5,-429 375.5,-451 503.5,-451 503.5,-429 375.5,-429"/>
<image xlink:href="../../images/foreignKeys.png" width="11px" height="12px" preserveAspectRatio="xMinYMin meet" x="380.5" y="-446"/>
<text text-anchor="start" x="402.5" y="-437.2" font-family="Helvetica,sans-Serif" font-size="11.00">object_uuid</text>
<polygon fill="none" stroke="black" points="375.5,-407 375.5,-429 503.5,-429 503.5,-407 375.5,-407"/>
<image xlink:href="../../images/foreignKeys.png" width="11px" height="12px" preserveAspectRatio="xMinYMin meet" x="380.5" y="-424"/>
<text text-anchor="start" x="402.5" y="-415.2" font-family="Helvetica,sans-Serif" font-size="11.00">voertuig_id</text>
<polygon fill="none" stroke="black" points="375.5,-389 375.5,-407 503.5,-407 503.5,-389 375.5,-389"/>
<text text-anchor="start" x="378.5" y="-395.2" font-family="Helvetica,sans-Serif" font-size="11.00">...</text>
<polygon fill="#ffffff" stroke="transparent" points="375.5,-371 375.5,-389 438.5,-389 438.5,-371 375.5,-371"/>
<polygon fill="none" stroke="black" points="375.5,-371 375.5,-389 438.5,-389 438.5,-371 375.5,-371"/>
<text text-anchor="start" x="378.5" y="-377.2" font-family="Helvetica,sans-Serif" font-size="11.00">&lt; 2</text>
<polygon fill="#ffffff" stroke="transparent" points="438.5,-371 438.5,-389 470.5,-389 470.5,-371 438.5,-371"/>
<polygon fill="none" stroke="black" points="438.5,-371 438.5,-389 470.5,-389 470.5,-371 438.5,-371"/>
<text text-anchor="start" x="459.5" y="-377.2" font-family="Helvetica,sans-Serif" font-size="11.00"> &#160;</text>
<polygon fill="#ffffff" stroke="transparent" points="470.5,-371 470.5,-389 503.5,-389 503.5,-371 470.5,-371"/>
<polygon fill="none" stroke="black" points="470.5,-371 470.5,-389 503.5,-389 503.5,-371 470.5,-371"/>
<text text-anchor="start" x="492.5" y="-377.2" font-family="Helvetica,sans-Serif" font-size="11.00"> &#160;</text>
</a>
</g>
</g>
<!-- opstelplaats&#45;&gt;roi.voertuig -->
<g id="edge8" class="edge">
<title>opstelplaats:w&#45;&gt;roi.voertuig:e</title>
<path fill="none" stroke="black" d="M359.72,-417.2C346.01,-415.77 332.2,-412.54 319.22,-408.52"/>
<polygon fill="black" stroke="black" points="366.51,-417.57 374.31,-421.59 370.51,-417.78 374.5,-418 374.5,-418 374.5,-418 370.51,-417.78 374.69,-414.41 366.51,-417.57 366.51,-417.57"/>
<ellipse fill="none" stroke="black" cx="363.32" cy="-417.39" rx="3.2" ry="3.2"/>
</g>
<!-- opstelplaats&#45;&gt;object -->
<g id="edge7" class="edge">
<title>opstelplaats:w&#45;&gt;object:e</title>
<path fill="none" stroke="black" d="M360.26,-442.77C317.2,-462.81 379.79,-585 316,-585"/>
<polygon fill="black" stroke="black" points="366.65,-441.53 375.19,-443.53 370.57,-440.76 374.5,-440 374.5,-440 374.5,-440 370.57,-440.76 373.81,-436.47 366.65,-441.53 366.65,-441.53"/>
<ellipse fill="none" stroke="black" cx="363.51" cy="-442.14" rx="3.2" ry="3.2"/>
</g>
<!-- risico -->
<g id="node12" class="node">
<title>risico</title>
<g id="a_node12"><a xlink:href="../../tables/risico.html" xlink:title="risico" target="_top">
<polygon fill="#ffffff" stroke="transparent" points="382.5,-538 382.5,-662 496.5,-662 496.5,-538 382.5,-538"/>
<polygon fill="#f5f5f5" stroke="transparent" points="382.5,-640 382.5,-662 496.5,-662 496.5,-640 382.5,-640"/>
<polygon fill="none" stroke="black" points="382.5,-640 382.5,-662 496.5,-662 496.5,-640 382.5,-640"/>
<text text-anchor="start" x="387.5" y="-649.2" font-family="Helvetica,sans-Serif" font-weight="bold" font-size="11.00">risico</text>
<text text-anchor="start" x="454.5" y="-648.2" font-family="Helvetica,sans-Serif" font-size="11.00">[table]</text>
<polygon fill="none" stroke="black" points="382.5,-618 382.5,-640 496.5,-640 496.5,-618 382.5,-618"/>
<image xlink:href="../../images/primaryKeys.png" width="11px" height="12px" preserveAspectRatio="xMinYMin meet" x="387.5" y="-635"/>
<text text-anchor="start" x="402.5" y="-626.2" font-family="Helvetica,sans-Serif" font-size="11.00">uuid</text>
<polygon fill="#ffffff" stroke="transparent" points="382.5,-596 382.5,-618 496.5,-618 496.5,-596 382.5,-596"/>
<polygon fill="none" stroke="black" points="382.5,-596 382.5,-618 496.5,-618 496.5,-596 382.5,-596"/>
<text text-anchor="start" x="402.5" y="-604.2" font-family="Helvetica,sans-Serif" font-size="11.00">geom</text>
<polygon fill="#ffffff" stroke="transparent" points="382.5,-574 382.5,-596 496.5,-596 496.5,-574 382.5,-574"/>
<polygon fill="none" stroke="black" points="382.5,-574 382.5,-596 496.5,-596 496.5,-574 382.5,-574"/>
<image xlink:href="../../images/foreignKeys.png" width="11px" height="12px" preserveAspectRatio="xMinYMin meet" x="387.5" y="-591"/>
<text text-anchor="start" x="402.5" y="-582.2" font-family="Helvetica,sans-Serif" font-size="11.00">object_uuid</text>
<polygon fill="none" stroke="black" points="382.5,-556 382.5,-574 496.5,-574 496.5,-556 382.5,-556"/>
<text text-anchor="start" x="385.5" y="-562.2" font-family="Helvetica,sans-Serif" font-size="11.00">...</text>
<polygon fill="#ffffff" stroke="transparent" points="382.5,-538 382.5,-556 438.5,-556 438.5,-538 382.5,-538"/>
<polygon fill="none" stroke="black" points="382.5,-538 382.5,-556 438.5,-556 438.5,-538 382.5,-538"/>
<text text-anchor="start" x="385.5" y="-544.2" font-family="Helvetica,sans-Serif" font-size="11.00">&lt; 1</text>
<polygon fill="#ffffff" stroke="transparent" points="438.5,-538 438.5,-556 467.5,-556 467.5,-538 438.5,-538"/>
<polygon fill="none" stroke="black" points="438.5,-538 438.5,-556 467.5,-556 467.5,-538 438.5,-538"/>
<text text-anchor="start" x="456.5" y="-544.2" font-family="Helvetica,sans-Serif" font-size="11.00"> &#160;</text>
<polygon fill="#ffffff" stroke="transparent" points="467.5,-538 467.5,-556 496.5,-556 496.5,-538 467.5,-538"/>
<polygon fill="none" stroke="black" points="467.5,-538 467.5,-556 496.5,-556 496.5,-538 467.5,-538"/>
<text text-anchor="start" x="485.5" y="-544.2" font-family="Helvetica,sans-Serif" font-size="11.00"> &#160;</text>
</a>
</g>
</g>
<!-- risico&#45;&gt;object -->
<g id="edge9" class="edge">
<title>risico:w&#45;&gt;object:e</title>
<path fill="none" stroke="black" d="M366.88,-585C348.8,-585 339.54,-585 316,-585"/>
<polygon fill="black" stroke="black" points="373.5,-585 381.5,-588.6 377.5,-585 381.5,-585 381.5,-585 381.5,-585 377.5,-585 381.5,-581.4 373.5,-585 373.5,-585"/>
<ellipse fill="none" stroke="black" cx="370.3" cy="-585" rx="3.2" ry="3.2"/>
</g>
<!-- sector -->
<g id="node13" class="node">
<title>sector</title>
<g id="a_node13"><a xlink:href="../../tables/sector.html" xlink:title="sector" target="_top">
<polygon fill="#ffffff" stroke="transparent" points="382.5,-204 382.5,-350 496.5,-350 496.5,-204 382.5,-204"/>
<polygon fill="#f5f5f5" stroke="transparent" points="382.5,-328 382.5,-350 496.5,-350 496.5,-328 382.5,-328"/>
<polygon fill="none" stroke="black" points="382.5,-328 382.5,-350 496.5,-350 496.5,-328 382.5,-328"/>
<text text-anchor="start" x="387.5" y="-337.2" font-family="Helvetica,sans-Serif" font-weight="bold" font-size="11.00">sector</text>
<text text-anchor="start" x="454.5" y="-336.2" font-family="Helvetica,sans-Serif" font-size="11.00">[table]</text>
<polygon fill="none" stroke="black" points="382.5,-306 382.5,-328 496.5,-328 496.5,-306 382.5,-306"/>
<image xlink:href="../../images/primaryKeys.png" width="11px" height="12px" preserveAspectRatio="xMinYMin meet" x="387.5" y="-323"/>
<text text-anchor="start" x="402.5" y="-314.2" font-family="Helvetica,sans-Serif" font-size="11.00">uuid</text>
<polygon fill="#ffffff" stroke="transparent" points="382.5,-284 382.5,-306 496.5,-306 496.5,-284 382.5,-284"/>
<polygon fill="none" stroke="black" points="382.5,-284 382.5,-306 496.5,-306 496.5,-284 382.5,-284"/>
<text text-anchor="start" x="402.5" y="-292.2" font-family="Helvetica,sans-Serif" font-size="11.00">geom</text>
<polygon fill="#ffffff" stroke="transparent" points="382.5,-262 382.5,-284 496.5,-284 496.5,-262 382.5,-262"/>
<polygon fill="none" stroke="black" points="382.5,-262 382.5,-284 496.5,-284 496.5,-262 382.5,-262"/>
<image xlink:href="../../images/foreignKeys.png" width="11px" height="12px" preserveAspectRatio="xMinYMin meet" x="387.5" y="-279"/>
<text text-anchor="start" x="402.5" y="-270.2" font-family="Helvetica,sans-Serif" font-size="11.00">object_uuid</text>
<polygon fill="none" stroke="black" points="382.5,-240 382.5,-262 496.5,-262 496.5,-240 382.5,-240"/>
<image xlink:href="../../images/foreignKeys.png" width="11px" height="12px" preserveAspectRatio="xMinYMin meet" x="387.5" y="-257"/>
<text text-anchor="start" x="402.5" y="-248.2" font-family="Helvetica,sans-Serif" font-size="11.00">zone_id</text>
<polygon fill="none" stroke="black" points="382.5,-222 382.5,-240 496.5,-240 496.5,-222 382.5,-222"/>
<text text-anchor="start" x="385.5" y="-228.2" font-family="Helvetica,sans-Serif" font-size="11.00">...</text>
<polygon fill="#ffffff" stroke="transparent" points="382.5,-204 382.5,-222 438.5,-222 438.5,-204 382.5,-204"/>
<polygon fill="none" stroke="black" points="382.5,-204 382.5,-222 438.5,-222 438.5,-204 382.5,-204"/>
<text text-anchor="start" x="385.5" y="-210.2" font-family="Helvetica,sans-Serif" font-size="11.00">&lt; 2</text>
<polygon fill="#ffffff" stroke="transparent" points="438.5,-204 438.5,-222 467.5,-222 467.5,-204 438.5,-204"/>
<polygon fill="none" stroke="black" points="438.5,-204 438.5,-222 467.5,-222 467.5,-204 438.5,-204"/>
<text text-anchor="start" x="456.5" y="-210.2" font-family="Helvetica,sans-Serif" font-size="11.00"> &#160;</text>
<polygon fill="#ffffff" stroke="transparent" points="467.5,-204 467.5,-222 496.5,-222 496.5,-204 467.5,-204"/>
<polygon fill="none" stroke="black" points="467.5,-204 467.5,-222 496.5,-222 496.5,-204 467.5,-204"/>
<text text-anchor="start" x="485.5" y="-210.2" font-family="Helvetica,sans-Serif" font-size="11.00"> &#160;</text>
</a>
</g>
</g>
<!-- sector&#45;&gt;roi.zone -->
<g id="edge11" class="edge">
<title>sector:w&#45;&gt;roi.zone:e</title>
<path fill="none" stroke="black" d="M366.93,-251C347.14,-251 326.55,-251 308.26,-251"/>
<polygon fill="black" stroke="black" points="373.5,-251 381.5,-254.6 377.5,-251 381.5,-251 381.5,-251 381.5,-251 377.5,-251 381.5,-247.4 373.5,-251 373.5,-251"/>
<ellipse fill="none" stroke="black" cx="370.3" cy="-251" rx="3.2" ry="3.2"/>
</g>
<!-- sector&#45;&gt;object -->
<g id="edge10" class="edge">
<title>sector:w&#45;&gt;object:e</title>
<path fill="none" stroke="black" d="M367.74,-278.16C321.41,-318.72 381.45,-585 316,-585"/>
<polygon fill="black" stroke="black" points="374.01,-275.81 382.76,-276.37 377.75,-274.4 381.5,-273 381.5,-273 381.5,-273 377.75,-274.4 380.24,-269.63 374.01,-275.81 374.01,-275.81"/>
<ellipse fill="none" stroke="black" cx="371.01" cy="-276.93" rx="3.2" ry="3.2"/>
</g>
<!-- voorziening -->
<g id="node14" class="node">
<title>voorziening</title>
<g id="a_node14"><a xlink:href="../../tables/voorziening.html" xlink:title="voorziening" target="_top">
<polygon fill="#ffffff" stroke="transparent" points="377.5,-37 377.5,-183 501.5,-183 501.5,-37 377.5,-37"/>
<polygon fill="#f5f5f5" stroke="transparent" points="377.5,-161 377.5,-183 501.5,-183 501.5,-161 377.5,-161"/>
<polygon fill="none" stroke="black" points="377.5,-161 377.5,-183 501.5,-183 501.5,-161 377.5,-161"/>
<text text-anchor="start" x="382.5" y="-170.2" font-family="Helvetica,sans-Serif" font-weight="bold" font-size="11.00">voorziening</text>
<text text-anchor="start" x="459.5" y="-169.2" font-family="Helvetica,sans-Serif" font-size="11.00">[table]</text>
<polygon fill="none" stroke="black" points="377.5,-139 377.5,-161 501.5,-161 501.5,-139 377.5,-139"/>
<image xlink:href="../../images/primaryKeys.png" width="11px" height="12px" preserveAspectRatio="xMinYMin meet" x="382.5" y="-156"/>
<text text-anchor="start" x="402.5" y="-147.2" font-family="Helvetica,sans-Serif" font-size="11.00">uuid</text>
<polygon fill="#ffffff" stroke="transparent" points="377.5,-117 377.5,-139 501.5,-139 501.5,-117 377.5,-117"/>
<polygon fill="none" stroke="black" points="377.5,-117 377.5,-139 501.5,-139 501.5,-117 377.5,-117"/>
<text text-anchor="start" x="402.5" y="-125.2" font-family="Helvetica,sans-Serif" font-size="11.00">geom</text>
<polygon fill="#ffffff" stroke="transparent" points="377.5,-95 377.5,-117 501.5,-117 501.5,-95 377.5,-95"/>
<polygon fill="none" stroke="black" points="377.5,-95 377.5,-117 501.5,-117 501.5,-95 377.5,-95"/>
<image xlink:href="../../images/foreignKeys.png" width="11px" height="12px" preserveAspectRatio="xMinYMin meet" x="382.5" y="-112"/>
<text text-anchor="start" x="402.5" y="-103.2" font-family="Helvetica,sans-Serif" font-size="11.00">object_uuid</text>
<polygon fill="none" stroke="black" points="377.5,-73 377.5,-95 501.5,-95 501.5,-73 377.5,-73"/>
<image xlink:href="../../images/foreignKeys.png" width="11px" height="12px" preserveAspectRatio="xMinYMin meet" x="382.5" y="-90"/>
<text text-anchor="start" x="402.5" y="-81.2" font-family="Helvetica,sans-Serif" font-size="11.00">symbool_id</text>
<polygon fill="none" stroke="black" points="377.5,-55 377.5,-73 501.5,-73 501.5,-55 377.5,-55"/>
<text text-anchor="start" x="380.5" y="-61.2" font-family="Helvetica,sans-Serif" font-size="11.00">...</text>
<polygon fill="#ffffff" stroke="transparent" points="377.5,-37 377.5,-55 438.5,-55 438.5,-37 377.5,-37"/>
<polygon fill="none" stroke="black" points="377.5,-37 377.5,-55 438.5,-55 438.5,-37 377.5,-37"/>
<text text-anchor="start" x="380.5" y="-43.2" font-family="Helvetica,sans-Serif" font-size="11.00">&lt; 2</text>
<polygon fill="#ffffff" stroke="transparent" points="438.5,-37 438.5,-55 469.5,-55 469.5,-37 438.5,-37"/>
<polygon fill="none" stroke="black" points="438.5,-37 438.5,-55 469.5,-55 469.5,-37 438.5,-37"/>
<text text-anchor="start" x="458.5" y="-43.2" font-family="Helvetica,sans-Serif" font-size="11.00"> &#160;</text>
<polygon fill="#ffffff" stroke="transparent" points="469.5,-37 469.5,-55 501.5,-55 501.5,-37 469.5,-37"/>
<polygon fill="none" stroke="black" points="469.5,-37 469.5,-55 501.5,-55 501.5,-37 469.5,-37"/>
<text text-anchor="start" x="490.5" y="-43.2" font-family="Helvetica,sans-Serif" font-size="11.00"> &#160;</text>
</a>
</g>
</g>
<!-- voorziening&#45;&gt;roi.symbool -->
<g id="edge13" class="edge">
<title>voorziening:w&#45;&gt;roi.symbool:e</title>
<path fill="none" stroke="black" d="M361.89,-84C347.68,-84 333.06,-84 319.27,-84"/>
<polygon fill="black" stroke="black" points="368.5,-84 376.5,-87.6 372.5,-84 376.5,-84 376.5,-84 376.5,-84 372.5,-84 376.5,-80.4 368.5,-84 368.5,-84"/>
<ellipse fill="none" stroke="black" cx="365.3" cy="-84" rx="3.2" ry="3.2"/>
</g>
<!-- voorziening&#45;&gt;object -->
<g id="edge12" class="edge">
<title>voorziening:w&#45;&gt;object:e</title>
<path fill="none" stroke="black" d="M362.11,-109.58C284.18,-153.41 417.84,-585 316,-585"/>
<polygon fill="black" stroke="black" points="368.74,-107.93 377.37,-109.49 372.62,-106.97 376.5,-106 376.5,-106 376.5,-106 372.62,-106.97 375.63,-102.51 368.74,-107.93 368.74,-107.93"/>
<ellipse fill="none" stroke="black" cx="365.63" cy="-108.7" rx="3.2" ry="3.2"/>
</g>
</g>
</svg>
