<?xml version="1.0" encoding="UTF-8" standalone="no"?>
<!DOCTYPE svg PUBLIC "-//W3C//DTD SVG 1.1//EN"
 "http://www.w3.org/Graphics/SVG/1.1/DTD/svg11.dtd">
<!-- Generated by graphviz version 2.40.1 (20161225.0304)
 -->
<!-- Title: compactRelationshipsDiagram Pages: 1 -->
<svg width="421pt" height="1269pt"
 viewBox="0.00 0.00 421.00 1269.20" xmlns="http://www.w3.org/2000/svg" xmlns:xlink="http://www.w3.org/1999/xlink">
<g id="graph0" class="graph" transform="scale(1 1) rotate(0) translate(4 1265.2)">
<title>compactRelationshipsDiagram</title>
<polygon fill="#ffffff" stroke="transparent" points="-4,4 -4,-1265.2 417,-1265.2 417,4 -4,4"/>
<text text-anchor="middle" x="72.4936" y="-7.3" font-family="Helvetica,sans-Serif" font-size="11.00" fill="#000000">Generated by SchemaSpy</text>
<!-- openwater -->
<g id="node1" class="node">
<title>openwater</title>
<g id="a_node1"><a xlink:href="../../tables/openwater.html" xlink:title="openwater" target="_top">
<polygon fill="#ffffff" stroke="transparent" points="164,-38.2 164,-231.2 405,-231.2 405,-38.2 164,-38.2"/>
<polygon fill="#f5f5f5" stroke="transparent" points="164.5,-207.7 164.5,-230.7 405.5,-230.7 405.5,-207.7 164.5,-207.7"/>
<polygon fill="none" stroke="#000000" points="164.5,-207.7 164.5,-230.7 405.5,-230.7 405.5,-207.7 164.5,-207.7"/>
<text text-anchor="start" x="169.5" y="-216.3" font-family="Helvetica,sans-Serif" font-weight="bold" font-size="11.00" fill="#000000">openwater</text>
<text text-anchor="start" x="370.5437" y="-215.8" font-family="Helvetica,sans-Serif" font-size="11.00" fill="#000000">[table]</text>
<polygon fill="none" stroke="#000000" points="164.5,-185.7 164.5,-207.7 405.5,-207.7 405.5,-185.7 164.5,-185.7"/>
<image xlink:href="../../images/primaryKeys.png" width="11px" height="12px" preserveAspectRatio="xMinYMin meet" x="169.5" y="-202.7"/>
<text text-anchor="start" x="184.5" y="-192.8" font-family="Helvetica,sans-Serif" font-size="11.00" fill="#000000">uuid</text>
<polygon fill="#ffffff" stroke="transparent" points="164.5,-163.7 164.5,-185.7 405.5,-185.7 405.5,-163.7 164.5,-163.7"/>
<polygon fill="none" stroke="#000000" points="164.5,-163.7 164.5,-185.7 405.5,-185.7 405.5,-163.7 164.5,-163.7"/>
<text text-anchor="start" x="184.5" y="-170.8" font-family="Helvetica,sans-Serif" font-size="11.00" fill="#000000">geom</text>
<polygon fill="none" stroke="#000000" points="164.5,-141.7 164.5,-163.7 405.5,-163.7 405.5,-141.7 164.5,-141.7"/>
<image xlink:href="../../images/foreignKeys.png" width="11px" height="12px" preserveAspectRatio="xMinYMin meet" x="169.5" y="-158.7"/>
<text text-anchor="start" x="184.5" y="-148.8" font-family="Helvetica,sans-Serif" font-size="11.00" fill="#000000">fase_id</text>
<polygon fill="none" stroke="#000000" points="164.5,-119.7 164.5,-141.7 405.5,-141.7 405.5,-119.7 164.5,-119.7"/>
<image xlink:href="../../images/foreignKeys.png" width="11px" height="12px" preserveAspectRatio="xMinYMin meet" x="169.5" y="-136.7"/>
<text text-anchor="start" x="184.5" y="-126.8" font-family="Helvetica,sans-Serif" font-size="11.00" fill="#000000">symbool_id</text>
<polygon fill="none" stroke="#000000" points="164.5,-97.7 164.5,-119.7 405.5,-119.7 405.5,-97.7 164.5,-97.7"/>
<image xlink:href="../../images/foreignKeys.png" width="11px" height="12px" preserveAspectRatio="xMinYMin meet" x="169.5" y="-114.7"/>
<text text-anchor="start" x="184.5" y="-104.8" font-family="Helvetica,sans-Serif" font-size="11.00" fill="#000000">gebied_id</text>
<polygon fill="none" stroke="#000000" points="164.5,-75.7 164.5,-97.7 405.5,-97.7 405.5,-75.7 164.5,-75.7"/>
<image xlink:href="../../images/foreignKeys.png" width="11px" height="12px" preserveAspectRatio="xMinYMin meet" x="169.5" y="-92.7"/>
<text text-anchor="start" x="184.5" y="-82.8" font-family="Helvetica,sans-Serif" font-size="11.00" fill="#000000">inspectie_conditie_id</text>
<polygon fill="none" stroke="#000000" points="164.5,-56.7 164.5,-75.7 405.5,-75.7 405.5,-56.7 164.5,-56.7"/>
<text text-anchor="start" x="167.5" y="-62.8" font-family="Helvetica,sans-Serif" font-size="11.00" fill="#000000">...</text>
<polygon fill="#ffffff" stroke="transparent" points="164.5,-37.7 164.5,-56.7 283.5,-56.7 283.5,-37.7 164.5,-37.7"/>
<polygon fill="none" stroke="#000000" points="164.5,-37.7 164.5,-56.7 283.5,-56.7 283.5,-37.7 164.5,-37.7"/>
<text text-anchor="start" x="167.5" y="-43.8" font-family="Helvetica,sans-Serif" font-size="11.00" fill="#000000">&lt; 4</text>
<polygon fill="#ffffff" stroke="transparent" points="283.5,-37.7 283.5,-56.7 344.5,-56.7 344.5,-37.7 283.5,-37.7"/>
<polygon fill="none" stroke="#000000" points="283.5,-37.7 283.5,-56.7 344.5,-56.7 344.5,-37.7 283.5,-37.7"/>
<text text-anchor="start" x="335.3862" y="-43.8" font-family="Helvetica,sans-Serif" font-size="11.00" fill="#000000"> &#160;</text>
<polygon fill="#ffffff" stroke="transparent" points="344.5,-37.7 344.5,-56.7 405.5,-56.7 405.5,-37.7 344.5,-37.7"/>
<polygon fill="none" stroke="#000000" points="344.5,-37.7 344.5,-56.7 405.5,-56.7 405.5,-37.7 344.5,-37.7"/>
<text text-anchor="start" x="396.3862" y="-43.8" font-family="Helvetica,sans-Serif" font-size="11.00" fill="#000000"> &#160;</text>
</a>
</g>
</g>
<!-- gebied -->
<g id="node3" class="node">
<title>gebied</title>
<g id="a_node3"><a xlink:href="../../tables/gebied.html" xlink:title="gebied" target="_top">
<polygon fill="#ffffff" stroke="transparent" points="14,-510.2 14,-593.2 109,-593.2 109,-510.2 14,-510.2"/>
<polygon fill="#f5f5f5" stroke="transparent" points="14.5,-569.7 14.5,-592.7 109.5,-592.7 109.5,-569.7 14.5,-569.7"/>
<polygon fill="none" stroke="#000000" points="14.5,-569.7 14.5,-592.7 109.5,-592.7 109.5,-569.7 14.5,-569.7"/>
<text text-anchor="start" x="19.5" y="-578.3" font-family="Helvetica,sans-Serif" font-weight="bold" font-size="11.00" fill="#000000">gebied</text>
<text text-anchor="start" x="74.5437" y="-577.8" font-family="Helvetica,sans-Serif" font-size="11.00" fill="#000000">[table]</text>
<polygon fill="none" stroke="#000000" points="14.5,-547.7 14.5,-569.7 109.5,-569.7 109.5,-547.7 14.5,-547.7"/>
<image xlink:href="../../images/primaryKeys.png" width="11px" height="12px" preserveAspectRatio="xMinYMin meet" x="19.5" y="-564.7"/>
<text text-anchor="start" x="34.5" y="-554.8" font-family="Helvetica,sans-Serif" font-size="11.00" fill="#000000">id</text>
<polygon fill="none" stroke="#000000" points="14.5,-528.7 14.5,-547.7 109.5,-547.7 109.5,-528.7 14.5,-528.7"/>
<text text-anchor="start" x="17.5" y="-534.8" font-family="Helvetica,sans-Serif" font-size="11.00" fill="#000000">...</text>
<polygon fill="#ffffff" stroke="transparent" points="14.5,-509.7 14.5,-528.7 51.5,-528.7 51.5,-509.7 14.5,-509.7"/>
<polygon fill="none" stroke="#000000" points="14.5,-509.7 14.5,-528.7 51.5,-528.7 51.5,-509.7 14.5,-509.7"/>
<text text-anchor="start" x="17.5" y="-515.8" font-family="Helvetica,sans-Serif" font-size="11.00" fill="#000000"> &#160;</text>
<polygon fill="#ffffff" stroke="transparent" points="51.5,-509.7 51.5,-528.7 75.5,-528.7 75.5,-509.7 51.5,-509.7"/>
<polygon fill="none" stroke="#000000" points="51.5,-509.7 51.5,-528.7 75.5,-528.7 75.5,-509.7 51.5,-509.7"/>
<text text-anchor="start" x="66.3862" y="-515.8" font-family="Helvetica,sans-Serif" font-size="11.00" fill="#000000"> &#160;</text>
<polygon fill="#ffffff" stroke="transparent" points="75.5,-509.7 75.5,-528.7 109.5,-528.7 109.5,-509.7 75.5,-509.7"/>
<polygon fill="none" stroke="#000000" points="75.5,-509.7 75.5,-528.7 109.5,-528.7 109.5,-509.7 75.5,-509.7"/>
<text text-anchor="start" x="90.9053" y="-515.8" font-family="Helvetica,sans-Serif" font-size="11.00" fill="#000000">5 &gt;</text>
</a>
</g>
</g>
<!-- openwater&#45;&gt;gebied -->
<g id="edge18" class="edge">
<title>openwater:w&#45;&gt;gebied:e</title>
<path fill="none" stroke="#000000" d="M150.552,-112.3222C78.5183,-154.9095 204.9315,-558.7 109.5,-558.7"/>
<polygon fill="#000000" stroke="#000000" points="156.7568,-110.7109 165.4049,-112.1844 160.6284,-109.7055 164.5,-108.7 164.5,-108.7 164.5,-108.7 160.6284,-109.7055 163.5951,-105.2156 156.7568,-110.7109 156.7568,-110.7109"/>
<ellipse fill="none" stroke="#000000" cx="153.6596" cy="-111.5153" rx="3.2" ry="3.2"/>
</g>
<!-- conditie -->
<g id="node6" class="node">
<title>conditie</title>
<g id="a_node6"><a xlink:href="../../tables/conditie.html" xlink:title="conditie" target="_top">
<polygon fill="#ffffff" stroke="transparent" points="14,-406.2 14,-489.2 109,-489.2 109,-406.2 14,-406.2"/>
<polygon fill="#f5f5f5" stroke="transparent" points="14.5,-465.7 14.5,-488.7 109.5,-488.7 109.5,-465.7 14.5,-465.7"/>
<polygon fill="none" stroke="#000000" points="14.5,-465.7 14.5,-488.7 109.5,-488.7 109.5,-465.7 14.5,-465.7"/>
<text text-anchor="start" x="19.5" y="-474.3" font-family="Helvetica,sans-Serif" font-weight="bold" font-size="11.00" fill="#000000">conditie</text>
<text text-anchor="start" x="74.5437" y="-473.8" font-family="Helvetica,sans-Serif" font-size="11.00" fill="#000000">[table]</text>
<polygon fill="none" stroke="#000000" points="14.5,-443.7 14.5,-465.7 109.5,-465.7 109.5,-443.7 14.5,-443.7"/>
<image xlink:href="../../images/primaryKeys.png" width="11px" height="12px" preserveAspectRatio="xMinYMin meet" x="19.5" y="-460.7"/>
<text text-anchor="start" x="34.5" y="-450.8" font-family="Helvetica,sans-Serif" font-size="11.00" fill="#000000">id</text>
<polygon fill="none" stroke="#000000" points="14.5,-424.7 14.5,-443.7 109.5,-443.7 109.5,-424.7 14.5,-424.7"/>
<text text-anchor="start" x="17.5" y="-430.8" font-family="Helvetica,sans-Serif" font-size="11.00" fill="#000000">...</text>
<polygon fill="#ffffff" stroke="transparent" points="14.5,-405.7 14.5,-424.7 51.5,-424.7 51.5,-405.7 14.5,-405.7"/>
<polygon fill="none" stroke="#000000" points="14.5,-405.7 14.5,-424.7 51.5,-424.7 51.5,-405.7 14.5,-405.7"/>
<text text-anchor="start" x="17.5" y="-411.8" font-family="Helvetica,sans-Serif" font-size="11.00" fill="#000000"> &#160;</text>
<polygon fill="#ffffff" stroke="transparent" points="51.5,-405.7 51.5,-424.7 75.5,-424.7 75.5,-405.7 51.5,-405.7"/>
<polygon fill="none" stroke="#000000" points="51.5,-405.7 51.5,-424.7 75.5,-424.7 75.5,-405.7 51.5,-405.7"/>
<text text-anchor="start" x="66.3862" y="-411.8" font-family="Helvetica,sans-Serif" font-size="11.00" fill="#000000"> &#160;</text>
<polygon fill="#ffffff" stroke="transparent" points="75.5,-405.7 75.5,-424.7 109.5,-424.7 109.5,-405.7 75.5,-405.7"/>
<polygon fill="none" stroke="#000000" points="75.5,-405.7 75.5,-424.7 109.5,-424.7 109.5,-405.7 75.5,-405.7"/>
<text text-anchor="start" x="90.9053" y="-411.8" font-family="Helvetica,sans-Serif" font-size="11.00" fill="#000000">5 &gt;</text>
</a>
</g>
</g>
<!-- openwater&#45;&gt;conditie -->
<g id="edge19" class="edge">
<title>openwater:w&#45;&gt;conditie:e</title>
<path fill="none" stroke="#000000" d="M150.4684,-91.3529C95.6214,-133.9522 186.6952,-454.7 109.5,-454.7"/>
<polygon fill="#000000" stroke="#000000" points="156.9066,-89.218 165.6331,-90.117 160.7033,-87.959 164.5,-86.7 164.5,-86.7 164.5,-86.7 160.7033,-87.959 163.3669,-83.283 156.9066,-89.218 156.9066,-89.218"/>
<ellipse fill="none" stroke="#000000" cx="153.8692" cy="-90.2252" rx="3.2" ry="3.2"/>
</g>
<!-- roi.fase -->
<g id="node9" class="node">
<title>roi.fase</title>
<g id="a_node9"><a xlink:href="../../../roi/tables/fase.html" xlink:title="roi.fase" target="_top">
<polygon fill="#ffffff" stroke="transparent" points="21,-614.2 21,-675.2 102,-675.2 102,-614.2 21,-614.2"/>
<polygon fill="#f5f5f5" stroke="transparent" points="21.5,-651.7 21.5,-674.7 102.5,-674.7 102.5,-651.7 21.5,-651.7"/>
<polygon fill="none" stroke="#000000" points="21.5,-651.7 21.5,-674.7 102.5,-674.7 102.5,-651.7 21.5,-651.7"/>
<text text-anchor="start" x="26.5" y="-660.3" font-family="Helvetica,sans-Serif" font-weight="bold" font-size="11.00" fill="#000000">roi.fase</text>
<text text-anchor="start" x="68.0219" y="-659.8" font-family="Helvetica,sans-Serif" font-size="11.00" fill="#000000">[table]</text>
<polygon fill="none" stroke="#000000" points="21.5,-632.7 21.5,-651.7 102.5,-651.7 102.5,-632.7 21.5,-632.7"/>
<text text-anchor="start" x="24.5" y="-638.8" font-family="Helvetica,sans-Serif" font-size="11.00" fill="#000000">...</text>
<polygon fill="#ffffff" stroke="transparent" points="21.5,-613.7 21.5,-632.7 51.5,-632.7 51.5,-613.7 21.5,-613.7"/>
<polygon fill="none" stroke="#000000" points="21.5,-613.7 21.5,-632.7 51.5,-632.7 51.5,-613.7 21.5,-613.7"/>
<text text-anchor="start" x="24.5" y="-619.8" font-family="Helvetica,sans-Serif" font-size="11.00" fill="#000000"> &#160;</text>
<polygon fill="#ffffff" stroke="transparent" points="51.5,-613.7 51.5,-632.7 72.5,-632.7 72.5,-613.7 51.5,-613.7"/>
<polygon fill="none" stroke="#000000" points="51.5,-613.7 51.5,-632.7 72.5,-632.7 72.5,-613.7 51.5,-613.7"/>
<text text-anchor="start" x="63.3862" y="-619.8" font-family="Helvetica,sans-Serif" font-size="11.00" fill="#000000"> &#160;</text>
<polygon fill="#ffffff" stroke="transparent" points="72.5,-613.7 72.5,-632.7 102.5,-632.7 102.5,-613.7 72.5,-613.7"/>
<polygon fill="none" stroke="#000000" points="72.5,-613.7 72.5,-632.7 102.5,-632.7 102.5,-613.7 72.5,-613.7"/>
<text text-anchor="start" x="83.9053" y="-619.8" font-family="Helvetica,sans-Serif" font-size="11.00" fill="#000000">5 &gt;</text>
</a>
</g>
</g>
<!-- openwater&#45;&gt;roi.fase -->
<g id="edge17" class="edge">
<title>openwater:w&#45;&gt;roi.fase:e</title>
<path fill="none" stroke="#000000" d="M153.0998,-161.6251C119.7863,-221.5602 146.4747,-564.2571 123,-603.7 119.653,-609.3238 115.1987,-614.3341 110.2112,-618.7521"/>
<polygon fill="#000000" stroke="#000000" points="158.2008,-157.6316 166.7192,-155.5346 161.3504,-155.1658 164.5,-152.7 164.5,-152.7 164.5,-152.7 161.3504,-155.1658 162.2808,-149.8654 158.2008,-157.6316 158.2008,-157.6316"/>
<ellipse fill="none" stroke="#000000" cx="155.6812" cy="-159.6042" rx="3.2" ry="3.2"/>
</g>
<!-- roi.symbool -->
<g id="node10" class="node">
<title>roi.symbool</title>
<g id="a_node10"><a xlink:href="../../../roi/tables/symbool.html" xlink:title="roi.symbool" target="_top">
<polygon fill="#ffffff" stroke="transparent" points="8,-730.2 8,-791.2 115,-791.2 115,-730.2 8,-730.2"/>
<polygon fill="#f5f5f5" stroke="transparent" points="8.5,-767.7 8.5,-790.7 115.5,-790.7 115.5,-767.7 8.5,-767.7"/>
<polygon fill="none" stroke="#000000" points="8.5,-767.7 8.5,-790.7 115.5,-790.7 115.5,-767.7 8.5,-767.7"/>
<text text-anchor="start" x="13.5" y="-776.3" font-family="Helvetica,sans-Serif" font-weight="bold" font-size="11.00" fill="#000000">roi.symbool</text>
<text text-anchor="start" x="81.0219" y="-775.8" font-family="Helvetica,sans-Serif" font-size="11.00" fill="#000000">[table]</text>
<polygon fill="none" stroke="#000000" points="8.5,-748.7 8.5,-767.7 115.5,-767.7 115.5,-748.7 8.5,-748.7"/>
<text text-anchor="start" x="11.5" y="-754.8" font-family="Helvetica,sans-Serif" font-size="11.00" fill="#000000">...</text>
<polygon fill="#ffffff" stroke="transparent" points="8.5,-729.7 8.5,-748.7 51.5,-748.7 51.5,-729.7 8.5,-729.7"/>
<polygon fill="none" stroke="#000000" points="8.5,-729.7 8.5,-748.7 51.5,-748.7 51.5,-729.7 8.5,-729.7"/>
<text text-anchor="start" x="11.5" y="-735.8" font-family="Helvetica,sans-Serif" font-size="11.00" fill="#000000"> &#160;</text>
<polygon fill="#ffffff" stroke="transparent" points="51.5,-729.7 51.5,-748.7 78.5,-748.7 78.5,-729.7 51.5,-729.7"/>
<polygon fill="none" stroke="#000000" points="51.5,-729.7 51.5,-748.7 78.5,-748.7 78.5,-729.7 51.5,-729.7"/>
<text text-anchor="start" x="69.3862" y="-735.8" font-family="Helvetica,sans-Serif" font-size="11.00" fill="#000000"> &#160;</text>
<polygon fill="#ffffff" stroke="transparent" points="78.5,-729.7 78.5,-748.7 115.5,-748.7 115.5,-729.7 78.5,-729.7"/>
<polygon fill="none" stroke="#000000" points="78.5,-729.7 78.5,-748.7 115.5,-748.7 115.5,-729.7 78.5,-729.7"/>
<text text-anchor="start" x="96.9053" y="-735.8" font-family="Helvetica,sans-Serif" font-size="11.00" fill="#000000">6 &gt;</text>
</a>
</g>
</g>
<!-- openwater&#45;&gt;roi.symbool -->
<g id="edge20" class="edge">
<title>openwater:w&#45;&gt;roi.symbool:e</title>
<path fill="none" stroke="#000000" d="M152.3986,-138.5393C108.7242,-202.1355 144.2616,-632.5454 123,-685.7 117.1841,-700.24 107.4774,-714.1137 97.4745,-725.8865"/>
<polygon fill="#000000" stroke="#000000" points="157.7857,-135.0496 166.4573,-133.7214 161.1429,-132.8748 164.5,-130.7 164.5,-130.7 164.5,-130.7 161.1429,-132.8748 162.5427,-127.6786 157.7857,-135.0496 157.7857,-135.0496"/>
<ellipse fill="none" stroke="#000000" cx="155.1" cy="-136.7894" rx="3.2" ry="3.2"/>
</g>
<!-- brandkraan_prive -->
<g id="node2" class="node">
<title>brandkraan_prive</title>
<g id="a_node2"><a xlink:href="../../tables/brandkraan_prive.html" xlink:title="brandkraan_prive" target="_top">
<polygon fill="#ffffff" stroke="transparent" points="185.5,-916.2 185.5,-1109.2 383.5,-1109.2 383.5,-916.2 185.5,-916.2"/>
<polygon fill="#f5f5f5" stroke="transparent" points="185.5,-1085.7 185.5,-1108.7 383.5,-1108.7 383.5,-1085.7 185.5,-1085.7"/>
<polygon fill="none" stroke="#000000" points="185.5,-1085.7 185.5,-1108.7 383.5,-1108.7 383.5,-1085.7 185.5,-1085.7"/>
<text text-anchor="start" x="190.5" y="-1094.3" font-family="Helvetica,sans-Serif" font-weight="bold" font-size="11.00" fill="#000000">brandkraan_prive</text>
<text text-anchor="start" x="348.5437" y="-1093.8" font-family="Helvetica,sans-Serif" font-size="11.00" fill="#000000">[table]</text>
<polygon fill="none" stroke="#000000" points="185.5,-1063.7 185.5,-1085.7 383.5,-1085.7 383.5,-1063.7 185.5,-1063.7"/>
<image xlink:href="../../images/primaryKeys.png" width="11px" height="12px" preserveAspectRatio="xMinYMin meet" x="190.5" y="-1080.7"/>
<text text-anchor="start" x="205.5" y="-1070.8" font-family="Helvetica,sans-Serif" font-size="11.00" fill="#000000">uuid</text>
<polygon fill="#ffffff" stroke="transparent" points="185.5,-1041.7 185.5,-1063.7 383.5,-1063.7 383.5,-1041.7 185.5,-1041.7"/>
<polygon fill="none" stroke="#000000" points="185.5,-1041.7 185.5,-1063.7 383.5,-1063.7 383.5,-1041.7 185.5,-1041.7"/>
<text text-anchor="start" x="205.5" y="-1048.8" font-family="Helvetica,sans-Serif" font-size="11.00" fill="#000000">geom</text>
<polygon fill="none" stroke="#000000" points="185.5,-1019.7 185.5,-1041.7 383.5,-1041.7 383.5,-1019.7 185.5,-1019.7"/>
<image xlink:href="../../images/foreignKeys.png" width="11px" height="12px" preserveAspectRatio="xMinYMin meet" x="190.5" y="-1036.7"/>
<text text-anchor="start" x="205.5" y="-1026.8" font-family="Helvetica,sans-Serif" font-size="11.00" fill="#000000">fase_id</text>
<polygon fill="none" stroke="#000000" points="185.5,-997.7 185.5,-1019.7 383.5,-1019.7 383.5,-997.7 185.5,-997.7"/>
<image xlink:href="../../images/foreignKeys.png" width="11px" height="12px" preserveAspectRatio="xMinYMin meet" x="190.5" y="-1014.7"/>
<text text-anchor="start" x="205.5" y="-1004.8" font-family="Helvetica,sans-Serif" font-size="11.00" fill="#000000">symbool_id</text>
<polygon fill="none" stroke="#000000" points="185.5,-975.7 185.5,-997.7 383.5,-997.7 383.5,-975.7 185.5,-975.7"/>
<image xlink:href="../../images/foreignKeys.png" width="11px" height="12px" preserveAspectRatio="xMinYMin meet" x="190.5" y="-992.7"/>
<text text-anchor="start" x="205.5" y="-982.8" font-family="Helvetica,sans-Serif" font-size="11.00" fill="#000000">gebied_id</text>
<polygon fill="none" stroke="#000000" points="185.5,-953.7 185.5,-975.7 383.5,-975.7 383.5,-953.7 185.5,-953.7"/>
<image xlink:href="../../images/foreignKeys.png" width="11px" height="12px" preserveAspectRatio="xMinYMin meet" x="190.5" y="-970.7"/>
<text text-anchor="start" x="205.5" y="-960.8" font-family="Helvetica,sans-Serif" font-size="11.00" fill="#000000">inspectie_conditie_id</text>
<polygon fill="none" stroke="#000000" points="185.5,-934.7 185.5,-953.7 383.5,-953.7 383.5,-934.7 185.5,-934.7"/>
<text text-anchor="start" x="188.5" y="-940.8" font-family="Helvetica,sans-Serif" font-size="11.00" fill="#000000">...</text>
<polygon fill="#ffffff" stroke="transparent" points="185.5,-915.7 185.5,-934.7 282.5,-934.7 282.5,-915.7 185.5,-915.7"/>
<polygon fill="none" stroke="#000000" points="185.5,-915.7 185.5,-934.7 282.5,-934.7 282.5,-915.7 185.5,-915.7"/>
<text text-anchor="start" x="188.5" y="-921.8" font-family="Helvetica,sans-Serif" font-size="11.00" fill="#000000">&lt; 4</text>
<polygon fill="#ffffff" stroke="transparent" points="282.5,-915.7 282.5,-934.7 332.5,-934.7 332.5,-915.7 282.5,-915.7"/>
<polygon fill="none" stroke="#000000" points="282.5,-915.7 282.5,-934.7 332.5,-934.7 332.5,-915.7 282.5,-915.7"/>
<text text-anchor="start" x="323.3862" y="-921.8" font-family="Helvetica,sans-Serif" font-size="11.00" fill="#000000"> &#160;</text>
<polygon fill="#ffffff" stroke="transparent" points="332.5,-915.7 332.5,-934.7 383.5,-934.7 383.5,-915.7 332.5,-915.7"/>
<polygon fill="none" stroke="#000000" points="332.5,-915.7 332.5,-934.7 383.5,-934.7 383.5,-915.7 332.5,-915.7"/>
<text text-anchor="start" x="374.3862" y="-921.8" font-family="Helvetica,sans-Serif" font-size="11.00" fill="#000000"> &#160;</text>
</a>
</g>
</g>
<!-- brandkraan_prive&#45;&gt;gebied -->
<g id="edge10" class="edge">
<title>brandkraan_prive:w&#45;&gt;gebied:e</title>
<path fill="none" stroke="#000000" d="M171.5,-982.9999C101.0802,-941.1675 200.8162,-558.7 109.5,-558.7"/>
<polygon fill="#000000" stroke="#000000" points="177.7656,-984.6558 184.5801,-990.1805 181.6328,-985.6779 185.5,-986.7 185.5,-986.7 185.5,-986.7 181.6328,-985.6779 186.4199,-983.2195 177.7656,-984.6558 177.7656,-984.6558"/>
<ellipse fill="none" stroke="#000000" cx="174.6718" cy="-983.8381" rx="3.2" ry="3.2"/>
</g>
<!-- brandkraan_prive&#45;&gt;conditie -->
<g id="edge11" class="edge">
<title>brandkraan_prive:w&#45;&gt;conditie:e</title>
<path fill="none" stroke="#000000" d="M171.3626,-961.5754C84.4116,-918.958 218.8255,-454.7 109.5,-454.7"/>
<polygon fill="#000000" stroke="#000000" points="177.6885,-962.9735 184.7231,-968.2152 181.5943,-963.8367 185.5,-964.7 185.5,-964.7 185.5,-964.7 181.5943,-963.8367 186.2769,-961.1848 177.6885,-962.9735 177.6885,-962.9735"/>
<ellipse fill="none" stroke="#000000" cx="174.5639" cy="-962.2829" rx="3.2" ry="3.2"/>
</g>
<!-- brandkraan_prive&#45;&gt;roi.fase -->
<g id="edge9" class="edge">
<title>brandkraan_prive:w&#45;&gt;roi.fase:e</title>
<path fill="none" stroke="#000000" d="M170.9312,-1028.648C135.8434,-1016.8005 166.3733,-955.9243 156,-905.7 139.0178,-823.4778 158.0914,-795.9724 123,-719.7 116.3843,-705.3205 106.3351,-691.3889 96.266,-679.5151"/>
<polygon fill="#000000" stroke="#000000" points="177.5782,-1029.5842 184.9979,-1034.2648 181.5391,-1030.1421 185.5,-1030.7 185.5,-1030.7 185.5,-1030.7 181.5391,-1030.1421 186.0021,-1027.1352 177.5782,-1029.5842 177.5782,-1029.5842"/>
<ellipse fill="none" stroke="#000000" cx="174.4095" cy="-1029.1378" rx="3.2" ry="3.2"/>
</g>
<!-- brandkraan_prive&#45;&gt;roi.symbool -->
<g id="edge12" class="edge">
<title>brandkraan_prive:w&#45;&gt;roi.symbool:e</title>
<path fill="none" stroke="#000000" d="M170.9278,-1007.4794C88.8898,-993.345 68.3531,-860.0316 63.214,-795.4445"/>
<polygon fill="#000000" stroke="#000000" points="177.5279,-1008.0322 185.1995,-1012.2874 181.514,-1008.3661 185.5,-1008.7 185.5,-1008.7 185.5,-1008.7 181.514,-1008.3661 185.8005,-1005.1126 177.5279,-1008.0322 177.5279,-1008.0322"/>
<ellipse fill="none" stroke="#000000" cx="174.3391" cy="-1007.7651" rx="3.2" ry="3.2"/>
</g>
<!-- bluswaterriool -->
<g id="node4" class="node">
<title>bluswaterriool</title>
<g id="a_node4"><a xlink:href="../../tables/bluswaterriool.html" xlink:title="bluswaterriool" target="_top">
<polygon fill="#ffffff" stroke="transparent" points="202,-702.2 202,-895.2 367,-895.2 367,-702.2 202,-702.2"/>
<polygon fill="#f5f5f5" stroke="transparent" points="202.5,-871.7 202.5,-894.7 367.5,-894.7 367.5,-871.7 202.5,-871.7"/>
<polygon fill="none" stroke="#000000" points="202.5,-871.7 202.5,-894.7 367.5,-894.7 367.5,-871.7 202.5,-871.7"/>
<text text-anchor="start" x="207.5" y="-880.3" font-family="Helvetica,sans-Serif" font-weight="bold" font-size="11.00" fill="#000000">bluswaterriool</text>
<text text-anchor="start" x="332.5437" y="-879.8" font-family="Helvetica,sans-Serif" font-size="11.00" fill="#000000">[table]</text>
<polygon fill="none" stroke="#000000" points="202.5,-849.7 202.5,-871.7 367.5,-871.7 367.5,-849.7 202.5,-849.7"/>
<image xlink:href="../../images/primaryKeys.png" width="11px" height="12px" preserveAspectRatio="xMinYMin meet" x="207.5" y="-866.7"/>
<text text-anchor="start" x="222.5" y="-856.8" font-family="Helvetica,sans-Serif" font-size="11.00" fill="#000000">uuid</text>
<polygon fill="#ffffff" stroke="transparent" points="202.5,-827.7 202.5,-849.7 367.5,-849.7 367.5,-827.7 202.5,-827.7"/>
<polygon fill="none" stroke="#000000" points="202.5,-827.7 202.5,-849.7 367.5,-849.7 367.5,-827.7 202.5,-827.7"/>
<text text-anchor="start" x="222.5" y="-834.8" font-family="Helvetica,sans-Serif" font-size="11.00" fill="#000000">geom</text>
<polygon fill="none" stroke="#000000" points="202.5,-805.7 202.5,-827.7 367.5,-827.7 367.5,-805.7 202.5,-805.7"/>
<image xlink:href="../../images/foreignKeys.png" width="11px" height="12px" preserveAspectRatio="xMinYMin meet" x="207.5" y="-822.7"/>
<text text-anchor="start" x="222.5" y="-812.8" font-family="Helvetica,sans-Serif" font-size="11.00" fill="#000000">fase_id</text>
<polygon fill="none" stroke="#000000" points="202.5,-783.7 202.5,-805.7 367.5,-805.7 367.5,-783.7 202.5,-783.7"/>
<image xlink:href="../../images/foreignKeys.png" width="11px" height="12px" preserveAspectRatio="xMinYMin meet" x="207.5" y="-800.7"/>
<text text-anchor="start" x="222.5" y="-790.8" font-family="Helvetica,sans-Serif" font-size="11.00" fill="#000000">symbool_id</text>
<polygon fill="none" stroke="#000000" points="202.5,-761.7 202.5,-783.7 367.5,-783.7 367.5,-761.7 202.5,-761.7"/>
<image xlink:href="../../images/foreignKeys.png" width="11px" height="12px" preserveAspectRatio="xMinYMin meet" x="207.5" y="-778.7"/>
<text text-anchor="start" x="222.5" y="-768.8" font-family="Helvetica,sans-Serif" font-size="11.00" fill="#000000">gebied_id</text>
<polygon fill="none" stroke="#000000" points="202.5,-739.7 202.5,-761.7 367.5,-761.7 367.5,-739.7 202.5,-739.7"/>
<image xlink:href="../../images/foreignKeys.png" width="11px" height="12px" preserveAspectRatio="xMinYMin meet" x="207.5" y="-756.7"/>
<text text-anchor="start" x="222.5" y="-746.8" font-family="Helvetica,sans-Serif" font-size="11.00" fill="#000000">inspectie_conditie_id</text>
<polygon fill="none" stroke="#000000" points="202.5,-720.7 202.5,-739.7 367.5,-739.7 367.5,-720.7 202.5,-720.7"/>
<text text-anchor="start" x="205.5" y="-726.8" font-family="Helvetica,sans-Serif" font-size="11.00" fill="#000000">...</text>
<polygon fill="#ffffff" stroke="transparent" points="202.5,-701.7 202.5,-720.7 283.5,-720.7 283.5,-701.7 202.5,-701.7"/>
<polygon fill="none" stroke="#000000" points="202.5,-701.7 202.5,-720.7 283.5,-720.7 283.5,-701.7 202.5,-701.7"/>
<text text-anchor="start" x="205.5" y="-707.8" font-family="Helvetica,sans-Serif" font-size="11.00" fill="#000000">&lt; 4</text>
<polygon fill="#ffffff" stroke="transparent" points="283.5,-701.7 283.5,-720.7 325.5,-720.7 325.5,-701.7 283.5,-701.7"/>
<polygon fill="none" stroke="#000000" points="283.5,-701.7 283.5,-720.7 325.5,-720.7 325.5,-701.7 283.5,-701.7"/>
<text text-anchor="start" x="316.3862" y="-707.8" font-family="Helvetica,sans-Serif" font-size="11.00" fill="#000000"> &#160;</text>
<polygon fill="#ffffff" stroke="transparent" points="325.5,-701.7 325.5,-720.7 367.5,-720.7 367.5,-701.7 325.5,-701.7"/>
<polygon fill="none" stroke="#000000" points="325.5,-701.7 325.5,-720.7 367.5,-720.7 367.5,-701.7 325.5,-701.7"/>
<text text-anchor="start" x="358.3862" y="-707.8" font-family="Helvetica,sans-Serif" font-size="11.00" fill="#000000"> &#160;</text>
</a>
</g>
</g>
<!-- bluswaterriool&#45;&gt;gebied -->
<g id="edge2" class="edge">
<title>bluswaterriool:w&#45;&gt;gebied:e</title>
<path fill="none" stroke="#000000" d="M188.277,-770.3995C163.7921,-760.9774 170.8975,-724.2917 156,-691.7 129.9674,-634.7479 172.1198,-558.7 109.5,-558.7"/>
<polygon fill="#000000" stroke="#000000" points="194.6026,-771.4226 201.9252,-776.2538 198.5513,-772.0613 202.5,-772.7 202.5,-772.7 202.5,-772.7 198.5513,-772.0613 203.0748,-769.1462 194.6026,-771.4226 194.6026,-771.4226"/>
<ellipse fill="none" stroke="#000000" cx="191.4437" cy="-770.9116" rx="3.2" ry="3.2"/>
</g>
<!-- bluswaterriool&#45;&gt;conditie -->
<g id="edge3" class="edge">
<title>bluswaterriool:w&#45;&gt;conditie:e</title>
<path fill="none" stroke="#000000" d="M188.0416,-748.3089C168.8579,-740.8444 167.2448,-716.959 156,-691.7 134.1721,-642.6684 163.1708,-454.7 109.5,-454.7"/>
<polygon fill="#000000" stroke="#000000" points="194.6072,-749.3947 201.9126,-754.2518 198.5536,-750.0473 202.5,-750.7 202.5,-750.7 202.5,-750.7 198.5536,-750.0473 203.0874,-747.1482 194.6072,-749.3947 194.6072,-749.3947"/>
<ellipse fill="none" stroke="#000000" cx="191.4501" cy="-748.8725" rx="3.2" ry="3.2"/>
</g>
<!-- bluswaterriool&#45;&gt;roi.fase -->
<g id="edge1" class="edge">
<title>bluswaterriool:w&#45;&gt;roi.fase:e</title>
<path fill="none" stroke="#000000" d="M193.3301,-805.5141C172.7598,-780.4212 122.2214,-718.7715 90.0335,-679.5068"/>
<polygon fill="#000000" stroke="#000000" points="197.4282,-810.5131 199.7159,-818.9823 199.9641,-813.6066 202.5,-816.7 202.5,-816.7 202.5,-816.7 199.9641,-813.6066 205.2841,-814.4177 197.4282,-810.5131 197.4282,-810.5131"/>
<ellipse fill="none" stroke="#000000" cx="195.3995" cy="-808.0384" rx="3.2" ry="3.2"/>
</g>
<!-- bluswaterriool&#45;&gt;roi.symbool -->
<g id="edge4" class="edge">
<title>bluswaterriool:w&#45;&gt;roi.symbool:e</title>
<path fill="none" stroke="#000000" d="M188.086,-794.1732C165.9602,-792.6113 143.2068,-787.7678 123.2009,-782.2327"/>
<polygon fill="#000000" stroke="#000000" points="194.5053,-794.4078 202.3685,-798.2976 198.5027,-794.5539 202.5,-794.7 202.5,-794.7 202.5,-794.7 198.5027,-794.5539 202.6315,-791.1024 194.5053,-794.4078 194.5053,-794.4078"/>
<ellipse fill="none" stroke="#000000" cx="191.3075" cy="-794.2909" rx="3.2" ry="3.2"/>
</g>
<!-- brandput -->
<g id="node5" class="node">
<title>brandput</title>
<g id="a_node5"><a xlink:href="../../tables/brandput.html" xlink:title="brandput" target="_top">
<polygon fill="#ffffff" stroke="transparent" points="194,-488.2 194,-681.2 375,-681.2 375,-488.2 194,-488.2"/>
<polygon fill="#f5f5f5" stroke="transparent" points="194.5,-657.7 194.5,-680.7 375.5,-680.7 375.5,-657.7 194.5,-657.7"/>
<polygon fill="none" stroke="#000000" points="194.5,-657.7 194.5,-680.7 375.5,-680.7 375.5,-657.7 194.5,-657.7"/>
<text text-anchor="start" x="199.5" y="-666.3" font-family="Helvetica,sans-Serif" font-weight="bold" font-size="11.00" fill="#000000">brandput</text>
<text text-anchor="start" x="340.5437" y="-665.8" font-family="Helvetica,sans-Serif" font-size="11.00" fill="#000000">[table]</text>
<polygon fill="none" stroke="#000000" points="194.5,-635.7 194.5,-657.7 375.5,-657.7 375.5,-635.7 194.5,-635.7"/>
<image xlink:href="../../images/primaryKeys.png" width="11px" height="12px" preserveAspectRatio="xMinYMin meet" x="199.5" y="-652.7"/>
<text text-anchor="start" x="214.5" y="-642.8" font-family="Helvetica,sans-Serif" font-size="11.00" fill="#000000">uuid</text>
<polygon fill="#ffffff" stroke="transparent" points="194.5,-613.7 194.5,-635.7 375.5,-635.7 375.5,-613.7 194.5,-613.7"/>
<polygon fill="none" stroke="#000000" points="194.5,-613.7 194.5,-635.7 375.5,-635.7 375.5,-613.7 194.5,-613.7"/>
<text text-anchor="start" x="214.5" y="-620.8" font-family="Helvetica,sans-Serif" font-size="11.00" fill="#000000">geom</text>
<polygon fill="none" stroke="#000000" points="194.5,-591.7 194.5,-613.7 375.5,-613.7 375.5,-591.7 194.5,-591.7"/>
<image xlink:href="../../images/foreignKeys.png" width="11px" height="12px" preserveAspectRatio="xMinYMin meet" x="199.5" y="-608.7"/>
<text text-anchor="start" x="214.5" y="-598.8" font-family="Helvetica,sans-Serif" font-size="11.00" fill="#000000">fase_id</text>
<polygon fill="none" stroke="#000000" points="194.5,-569.7 194.5,-591.7 375.5,-591.7 375.5,-569.7 194.5,-569.7"/>
<image xlink:href="../../images/foreignKeys.png" width="11px" height="12px" preserveAspectRatio="xMinYMin meet" x="199.5" y="-586.7"/>
<text text-anchor="start" x="214.5" y="-576.8" font-family="Helvetica,sans-Serif" font-size="11.00" fill="#000000">symbool_id</text>
<polygon fill="none" stroke="#000000" points="194.5,-547.7 194.5,-569.7 375.5,-569.7 375.5,-547.7 194.5,-547.7"/>
<image xlink:href="../../images/foreignKeys.png" width="11px" height="12px" preserveAspectRatio="xMinYMin meet" x="199.5" y="-564.7"/>
<text text-anchor="start" x="214.5" y="-554.8" font-family="Helvetica,sans-Serif" font-size="11.00" fill="#000000">gebied_id</text>
<polygon fill="none" stroke="#000000" points="194.5,-525.7 194.5,-547.7 375.5,-547.7 375.5,-525.7 194.5,-525.7"/>
<image xlink:href="../../images/foreignKeys.png" width="11px" height="12px" preserveAspectRatio="xMinYMin meet" x="199.5" y="-542.7"/>
<text text-anchor="start" x="214.5" y="-532.8" font-family="Helvetica,sans-Serif" font-size="11.00" fill="#000000">inspectie_conditie_id</text>
<polygon fill="none" stroke="#000000" points="194.5,-506.7 194.5,-525.7 375.5,-525.7 375.5,-506.7 194.5,-506.7"/>
<text text-anchor="start" x="197.5" y="-512.8" font-family="Helvetica,sans-Serif" font-size="11.00" fill="#000000">...</text>
<polygon fill="#ffffff" stroke="transparent" points="194.5,-487.7 194.5,-506.7 283.5,-506.7 283.5,-487.7 194.5,-487.7"/>
<polygon fill="none" stroke="#000000" points="194.5,-487.7 194.5,-506.7 283.5,-506.7 283.5,-487.7 194.5,-487.7"/>
<text text-anchor="start" x="197.5" y="-493.8" font-family="Helvetica,sans-Serif" font-size="11.00" fill="#000000">&lt; 4</text>
<polygon fill="#ffffff" stroke="transparent" points="283.5,-487.7 283.5,-506.7 329.5,-506.7 329.5,-487.7 283.5,-487.7"/>
<polygon fill="none" stroke="#000000" points="283.5,-487.7 283.5,-506.7 329.5,-506.7 329.5,-487.7 283.5,-487.7"/>
<text text-anchor="start" x="320.3862" y="-493.8" font-family="Helvetica,sans-Serif" font-size="11.00" fill="#000000"> &#160;</text>
<polygon fill="#ffffff" stroke="transparent" points="329.5,-487.7 329.5,-506.7 375.5,-506.7 375.5,-487.7 329.5,-487.7"/>
<polygon fill="none" stroke="#000000" points="329.5,-487.7 329.5,-506.7 375.5,-506.7 375.5,-487.7 329.5,-487.7"/>
<text text-anchor="start" x="366.3862" y="-493.8" font-family="Helvetica,sans-Serif" font-size="11.00" fill="#000000"> &#160;</text>
</a>
</g>
</g>
<!-- brandput&#45;&gt;gebied -->
<g id="edge14" class="edge">
<title>brandput:w&#45;&gt;gebied:e</title>
<path fill="none" stroke="#000000" d="M180.0858,-558.7C153.5057,-558.7 141.9653,-558.7 109.5,-558.7"/>
<polygon fill="#000000" stroke="#000000" points="186.5,-558.7001 194.5,-562.3 190.5,-558.7 194.5,-558.7 194.5,-558.7 194.5,-558.7 190.5,-558.7 194.5,-555.1 186.5,-558.7001 186.5,-558.7001"/>
<ellipse fill="none" stroke="#000000" cx="183.3" cy="-558.7001" rx="3.2" ry="3.2"/>
</g>
<!-- brandput&#45;&gt;conditie -->
<g id="edge15" class="edge">
<title>brandput:w&#45;&gt;conditie:e</title>
<path fill="none" stroke="#000000" d="M180.1399,-534.156C145.4175,-520.3153 156.4553,-454.7 109.5,-454.7"/>
<polygon fill="#000000" stroke="#000000" points="186.6227,-535.3044 193.872,-540.2448 190.5613,-536.0022 194.5,-536.7 194.5,-536.7 194.5,-536.7 190.5613,-536.0022 195.128,-533.1552 186.6227,-535.3044 186.6227,-535.3044"/>
<ellipse fill="none" stroke="#000000" cx="183.4717" cy="-534.7462" rx="3.2" ry="3.2"/>
</g>
<!-- brandput&#45;&gt;roi.fase -->
<g id="edge13" class="edge">
<title>brandput:w&#45;&gt;roi.fase:e</title>
<path fill="none" stroke="#000000" d="M179.853,-603.4282C155.5219,-605.7668 130.7757,-613.4069 110.245,-621.4888"/>
<polygon fill="#000000" stroke="#000000" points="186.5099,-603.0973 194.6788,-606.2956 190.5049,-602.8986 194.5,-602.7 194.5,-602.7 194.5,-602.7 190.5049,-602.8986 194.3212,-599.1044 186.5099,-603.0973 186.5099,-603.0973"/>
<ellipse fill="none" stroke="#000000" cx="183.3138" cy="-603.2562" rx="3.2" ry="3.2"/>
</g>
<!-- brandput&#45;&gt;roi.symbool -->
<g id="edge16" class="edge">
<title>brandput:w&#45;&gt;roi.symbool:e</title>
<path fill="none" stroke="#000000" d="M179.9929,-582.3414C141.2076,-592.2392 153.5191,-644.9078 123,-685.7 112.9127,-699.1829 101.3219,-713.5763 90.9415,-726.1117"/>
<polygon fill="#000000" stroke="#000000" points="186.5507,-581.5995 194.9048,-584.2772 190.5254,-581.1497 194.5,-580.7 194.5,-580.7 194.5,-580.7 190.5254,-581.1497 194.0952,-577.1228 186.5507,-581.5995 186.5507,-581.5995"/>
<ellipse fill="none" stroke="#000000" cx="183.371" cy="-581.9593" rx="3.2" ry="3.2"/>
</g>
<!-- brandkraan -->
<g id="node7" class="node">
<title>brandkraan</title>
<g id="a_node7"><a xlink:href="../../tables/brandkraan.html" xlink:title="brandkraan" target="_top">
<polygon fill="#ffffff" stroke="transparent" points="185.5,-252.2 185.5,-467.2 383.5,-467.2 383.5,-252.2 185.5,-252.2"/>
<polygon fill="#f5f5f5" stroke="transparent" points="185.5,-443.7 185.5,-466.7 383.5,-466.7 383.5,-443.7 185.5,-443.7"/>
<polygon fill="none" stroke="#000000" points="185.5,-443.7 185.5,-466.7 383.5,-466.7 383.5,-443.7 185.5,-443.7"/>
<text text-anchor="start" x="190.5" y="-452.3" font-family="Helvetica,sans-Serif" font-weight="bold" font-size="11.00" fill="#000000">brandkraan</text>
<text text-anchor="start" x="348.5437" y="-451.8" font-family="Helvetica,sans-Serif" font-size="11.00" fill="#000000">[table]</text>
<polygon fill="none" stroke="#000000" points="185.5,-421.7 185.5,-443.7 383.5,-443.7 383.5,-421.7 185.5,-421.7"/>
<image xlink:href="../../images/primaryKeys.png" width="11px" height="12px" preserveAspectRatio="xMinYMin meet" x="190.5" y="-438.7"/>
<text text-anchor="start" x="205.5" y="-428.8" font-family="Helvetica,sans-Serif" font-size="11.00" fill="#000000">uuid</text>
<polygon fill="#ffffff" stroke="transparent" points="185.5,-399.7 185.5,-421.7 383.5,-421.7 383.5,-399.7 185.5,-399.7"/>
<polygon fill="none" stroke="#000000" points="185.5,-399.7 185.5,-421.7 383.5,-421.7 383.5,-399.7 185.5,-399.7"/>
<text text-anchor="start" x="205.5" y="-406.8" font-family="Helvetica,sans-Serif" font-size="11.00" fill="#000000">geom</text>
<polygon fill="#ffffff" stroke="transparent" points="185.5,-377.7 185.5,-399.7 383.5,-399.7 383.5,-377.7 185.5,-377.7"/>
<polygon fill="none" stroke="#000000" points="185.5,-377.7 185.5,-399.7 383.5,-399.7 383.5,-377.7 185.5,-377.7"/>
<text text-anchor="start" x="205.5" y="-384.8" font-family="Helvetica,sans-Serif" font-size="11.00" fill="#000000">nen3610id</text>
<polygon fill="none" stroke="#000000" points="185.5,-355.7 185.5,-377.7 383.5,-377.7 383.5,-355.7 185.5,-355.7"/>
<image xlink:href="../../images/foreignKeys.png" width="11px" height="12px" preserveAspectRatio="xMinYMin meet" x="190.5" y="-372.7"/>
<text text-anchor="start" x="205.5" y="-362.8" font-family="Helvetica,sans-Serif" font-size="11.00" fill="#000000">fase_id</text>
<polygon fill="none" stroke="#000000" points="185.5,-333.7 185.5,-355.7 383.5,-355.7 383.5,-333.7 185.5,-333.7"/>
<image xlink:href="../../images/foreignKeys.png" width="11px" height="12px" preserveAspectRatio="xMinYMin meet" x="190.5" y="-350.7"/>
<text text-anchor="start" x="205.5" y="-340.8" font-family="Helvetica,sans-Serif" font-size="11.00" fill="#000000">symbool_id</text>
<polygon fill="none" stroke="#000000" points="185.5,-311.7 185.5,-333.7 383.5,-333.7 383.5,-311.7 185.5,-311.7"/>
<image xlink:href="../../images/foreignKeys.png" width="11px" height="12px" preserveAspectRatio="xMinYMin meet" x="190.5" y="-328.7"/>
<text text-anchor="start" x="205.5" y="-318.8" font-family="Helvetica,sans-Serif" font-size="11.00" fill="#000000">gebied_id</text>
<polygon fill="none" stroke="#000000" points="185.5,-289.7 185.5,-311.7 383.5,-311.7 383.5,-289.7 185.5,-289.7"/>
<image xlink:href="../../images/foreignKeys.png" width="11px" height="12px" preserveAspectRatio="xMinYMin meet" x="190.5" y="-306.7"/>
<text text-anchor="start" x="205.5" y="-296.8" font-family="Helvetica,sans-Serif" font-size="11.00" fill="#000000">inspectie_conditie_id</text>
<polygon fill="none" stroke="#000000" points="185.5,-270.7 185.5,-289.7 383.5,-289.7 383.5,-270.7 185.5,-270.7"/>
<text text-anchor="start" x="188.5" y="-276.8" font-family="Helvetica,sans-Serif" font-size="11.00" fill="#000000">...</text>
<polygon fill="#ffffff" stroke="transparent" points="185.5,-251.7 185.5,-270.7 282.5,-270.7 282.5,-251.7 185.5,-251.7"/>
<polygon fill="none" stroke="#000000" points="185.5,-251.7 185.5,-270.7 282.5,-270.7 282.5,-251.7 185.5,-251.7"/>
<text text-anchor="start" x="188.5" y="-257.8" font-family="Helvetica,sans-Serif" font-size="11.00" fill="#000000">&lt; 4</text>
<polygon fill="#ffffff" stroke="transparent" points="282.5,-251.7 282.5,-270.7 332.5,-270.7 332.5,-251.7 282.5,-251.7"/>
<polygon fill="none" stroke="#000000" points="282.5,-251.7 282.5,-270.7 332.5,-270.7 332.5,-251.7 282.5,-251.7"/>
<text text-anchor="start" x="323.3862" y="-257.8" font-family="Helvetica,sans-Serif" font-size="11.00" fill="#000000"> &#160;</text>
<polygon fill="#ffffff" stroke="transparent" points="332.5,-251.7 332.5,-270.7 383.5,-270.7 383.5,-251.7 332.5,-251.7"/>
<polygon fill="none" stroke="#000000" points="332.5,-251.7 332.5,-270.7 383.5,-270.7 383.5,-251.7 332.5,-251.7"/>
<text text-anchor="start" x="374.3862" y="-257.8" font-family="Helvetica,sans-Serif" font-size="11.00" fill="#000000"> &#160;</text>
</a>
</g>
</g>
<!-- brandkraan&#45;&gt;gebied -->
<g id="edge6" class="edge">
<title>brandkraan:w&#45;&gt;gebied:e</title>
<path fill="none" stroke="#000000" d="M171.12,-324.3331C88.7998,-345.1842 214.313,-558.7 109.5,-558.7"/>
<polygon fill="#000000" stroke="#000000" points="177.5511,-323.6028 185.9062,-326.277 181.5255,-323.1514 185.5,-322.7 185.5,-322.7 185.5,-322.7 181.5255,-323.1514 185.0938,-319.123 177.5511,-323.6028 177.5511,-323.6028"/>
<ellipse fill="none" stroke="#000000" cx="174.3715" cy="-323.9639" rx="3.2" ry="3.2"/>
</g>
<!-- brandkraan&#45;&gt;conditie -->
<g id="edge7" class="edge">
<title>brandkraan:w&#45;&gt;conditie:e</title>
<path fill="none" stroke="#000000" d="M171.2341,-302.9965C119.4541,-322.1536 180.3098,-454.7 109.5,-454.7"/>
<polygon fill="#000000" stroke="#000000" points="177.6017,-301.9715 186.0722,-304.2542 181.5508,-301.3357 185.5,-300.7 185.5,-300.7 185.5,-300.7 181.5508,-301.3357 184.9278,-297.1458 177.6017,-301.9715 177.6017,-301.9715"/>
<ellipse fill="none" stroke="#000000" cx="174.4424" cy="-302.4801" rx="3.2" ry="3.2"/>
</g>
<!-- brandkraan&#45;&gt;roi.fase -->
<g id="edge5" class="edge">
<title>brandkraan:w&#45;&gt;roi.fase:e</title>
<path fill="none" stroke="#000000" d="M171.0609,-367.7366C86.8644,-381.041 183.1597,-519.3379 123,-603.7 119.4238,-608.715 115.0265,-613.2907 110.2418,-617.4157"/>
<polygon fill="#000000" stroke="#000000" points="177.5205,-367.2729 185.7578,-370.2908 181.5103,-366.9864 185.5,-366.7 185.5,-366.7 185.5,-366.7 181.5103,-366.9864 185.2422,-363.1092 177.5205,-367.2729 177.5205,-367.2729"/>
<ellipse fill="none" stroke="#000000" cx="174.3287" cy="-367.502" rx="3.2" ry="3.2"/>
</g>
<!-- brandkraan&#45;&gt;roi.symbool -->
<g id="edge8" class="edge">
<title>brandkraan:w&#45;&gt;roi.symbool:e</title>
<path fill="none" stroke="#000000" d="M171.0551,-346.5663C132.4217,-358.3611 166.2447,-423.7935 156,-477.7 138.5243,-569.6548 161.3443,-600.3138 123,-685.7 116.5158,-700.1393 106.5015,-714.0867 96.4239,-725.9567"/>
<polygon fill="#000000" stroke="#000000" points="177.5659,-345.7251 185.9613,-348.2703 181.533,-345.2126 185.5,-344.7 185.5,-344.7 185.5,-344.7 181.533,-345.2126 185.0387,-341.1297 177.5659,-345.7251 177.5659,-345.7251"/>
<ellipse fill="none" stroke="#000000" cx="174.3923" cy="-346.1352" rx="3.2" ry="3.2"/>
</g>
<!-- voorziening -->
<g id="node8" class="node">
<title>voorziening</title>
<g id="a_node8"><a xlink:href="../../tables/voorziening.html" xlink:title="voorziening" target="_top">
<polygon fill="#ffffff" stroke="transparent" points="230,-1130.2 230,-1257.2 339,-1257.2 339,-1130.2 230,-1130.2"/>
<polygon fill="#f5f5f5" stroke="transparent" points="230.5,-1233.7 230.5,-1256.7 339.5,-1256.7 339.5,-1233.7 230.5,-1233.7"/>
<polygon fill="none" stroke="#000000" points="230.5,-1233.7 230.5,-1256.7 339.5,-1256.7 339.5,-1233.7 230.5,-1233.7"/>
<text text-anchor="start" x="235.5" y="-1242.3" font-family="Helvetica,sans-Serif" font-weight="bold" font-size="11.00" fill="#000000">voorziening</text>
<text text-anchor="start" x="304.5437" y="-1241.8" font-family="Helvetica,sans-Serif" font-size="11.00" fill="#000000">[table]</text>
<polygon fill="none" stroke="#000000" points="230.5,-1211.7 230.5,-1233.7 339.5,-1233.7 339.5,-1211.7 230.5,-1211.7"/>
<image xlink:href="../../images/primaryKeys.png" width="11px" height="12px" preserveAspectRatio="xMinYMin meet" x="235.5" y="-1228.7"/>
<text text-anchor="start" x="250.5" y="-1218.8" font-family="Helvetica,sans-Serif" font-size="11.00" fill="#000000">uuid</text>
<polygon fill="#ffffff" stroke="transparent" points="230.5,-1189.7 230.5,-1211.7 339.5,-1211.7 339.5,-1189.7 230.5,-1189.7"/>
<polygon fill="none" stroke="#000000" points="230.5,-1189.7 230.5,-1211.7 339.5,-1211.7 339.5,-1189.7 230.5,-1189.7"/>
<text text-anchor="start" x="250.5" y="-1196.8" font-family="Helvetica,sans-Serif" font-size="11.00" fill="#000000">geom</text>
<polygon fill="#ffffff" stroke="transparent" points="230.5,-1167.7 230.5,-1189.7 339.5,-1189.7 339.5,-1167.7 230.5,-1167.7"/>
<polygon fill="none" stroke="#000000" points="230.5,-1167.7 230.5,-1189.7 339.5,-1189.7 339.5,-1167.7 230.5,-1167.7"/>
<image xlink:href="../../images/foreignKeys.png" width="11px" height="12px" preserveAspectRatio="xMinYMin meet" x="235.5" y="-1184.7"/>
<text text-anchor="start" x="250.5" y="-1174.8" font-family="Helvetica,sans-Serif" font-size="11.00" fill="#000000">symbool_id</text>
<polygon fill="none" stroke="#000000" points="230.5,-1148.7 230.5,-1167.7 339.5,-1167.7 339.5,-1148.7 230.5,-1148.7"/>
<text text-anchor="start" x="233.5" y="-1154.8" font-family="Helvetica,sans-Serif" font-size="11.00" fill="#000000">...</text>
<polygon fill="#ffffff" stroke="transparent" points="230.5,-1129.7 230.5,-1148.7 283.5,-1148.7 283.5,-1129.7 230.5,-1129.7"/>
<polygon fill="none" stroke="#000000" points="230.5,-1129.7 230.5,-1148.7 283.5,-1148.7 283.5,-1129.7 230.5,-1129.7"/>
<text text-anchor="start" x="233.5" y="-1135.8" font-family="Helvetica,sans-Serif" font-size="11.00" fill="#000000">&lt; 1</text>
<polygon fill="#ffffff" stroke="transparent" points="283.5,-1129.7 283.5,-1148.7 311.5,-1148.7 311.5,-1129.7 283.5,-1129.7"/>
<polygon fill="none" stroke="#000000" points="283.5,-1129.7 283.5,-1148.7 311.5,-1148.7 311.5,-1129.7 283.5,-1129.7"/>
<text text-anchor="start" x="302.3862" y="-1135.8" font-family="Helvetica,sans-Serif" font-size="11.00" fill="#000000"> &#160;</text>
<polygon fill="#ffffff" stroke="transparent" points="311.5,-1129.7 311.5,-1148.7 339.5,-1148.7 339.5,-1129.7 311.5,-1129.7"/>
<polygon fill="none" stroke="#000000" points="311.5,-1129.7 311.5,-1148.7 339.5,-1148.7 339.5,-1129.7 311.5,-1129.7"/>
<text text-anchor="start" x="330.3862" y="-1135.8" font-family="Helvetica,sans-Serif" font-size="11.00" fill="#000000"> &#160;</text>
</a>
</g>
</g>
<!-- voorziening&#45;&gt;roi.symbool -->
<g id="edge21" class="edge">
<title>voorziening:w&#45;&gt;roi.symbool:e</title>
<path fill="none" stroke="#000000" d="M216.1204,-1177.6147C185.7586,-1172.6043 176.2284,-1150.6298 156,-1119.7 87.5643,-1015.0598 68.582,-862.8484 63.4015,-795.2587"/>
<polygon fill="#000000" stroke="#000000" points="222.5227,-1178.0978 230.229,-1182.2898 226.5113,-1178.3989 230.5,-1178.7 230.5,-1178.7 230.5,-1178.7 226.5113,-1178.3989 230.771,-1175.1102 222.5227,-1178.0978 222.5227,-1178.0978"/>
<ellipse fill="none" stroke="#000000" cx="219.3318" cy="-1177.857" rx="3.2" ry="3.2"/>
</g>
</g>
</svg>
