<?xml version="1.0" encoding="UTF-8" standalone="no"?>
<!DOCTYPE svg PUBLIC "-//W3C//DTD SVG 1.1//EN"
 "http://www.w3.org/Graphics/SVG/1.1/DTD/svg11.dtd">
<!-- Generated by graphviz version 2.40.1 (20161225.0304)
 -->
<!-- Title: oneDegreeRelationshipsDiagram Pages: 1 -->
<svg width="201pt" height="228pt"
 viewBox="0.00 0.00 201.00 228.20" xmlns="http://www.w3.org/2000/svg" xmlns:xlink="http://www.w3.org/1999/xlink">
<g id="graph0" class="graph" transform="scale(1 1) rotate(0) translate(4 224.2)">
<title>oneDegreeRelationshipsDiagram</title>
<polygon fill="#ffffff" stroke="transparent" points="-4,4 -4,-224.2 197,-224.2 197,4 -4,4"/>
<text text-anchor="middle" x="72.4936" y="-7.3" font-family="Helvetica,sans-Serif" font-size="11.00" fill="#000000">Generated by SchemaSpy</text>
<!-- gt_pk_metadata -->
<g id="node1" class="node">
<title>gt_pk_metadata</title>
<g id="a_node1"><a xlink:href="../../tables/gt_pk_metadata.html" xlink:title="gt_pk_metadata" target="_top">
<polygon fill="#ffffff" stroke="transparent" points="8,-38.2 8,-216.2 185,-216.2 185,-38.2 8,-38.2"/>
<polygon fill="#f5f5f5" stroke="transparent" points="10.5,-191.2 10.5,-214.2 183.5,-214.2 183.5,-191.2 10.5,-191.2"/>
<polygon fill="none" stroke="#000000" points="10.5,-191.2 10.5,-214.2 183.5,-214.2 183.5,-191.2 10.5,-191.2"/>
<text text-anchor="start" x="15.5" y="-199.8" font-family="Helvetica,sans-Serif" font-weight="bold" font-size="11.00" fill="#000000">gt_pk_metadata</text>
<text text-anchor="start" x="148.5437" y="-199.3" font-family="Helvetica,sans-Serif" font-size="11.00" fill="#000000">[table]</text>
<polygon fill="#ffffff" stroke="transparent" points="10.5,-169.2 10.5,-191.2 122.5,-191.2 122.5,-169.2 10.5,-169.2"/>
<polygon fill="none" stroke="#000000" points="10.5,-169.2 10.5,-191.2 122.5,-191.2 122.5,-169.2 10.5,-169.2"/>
<text text-anchor="start" x="30.5" y="-176.3" font-family="Helvetica,sans-Serif" font-size="11.00" fill="#000000">table_schema</text>
<polygon fill="none" stroke="#000000" points="122.5,-169.2 122.5,-191.2 183.5,-191.2 183.5,-169.2 122.5,-169.2"/>
<text text-anchor="start" x="125.494" y="-176.9" font-family="Helvetica,sans-Serif" font-size="11.00" fill="#000000">varchar[32]</text>
<polygon fill="#ffffff" stroke="transparent" points="10.5,-147.2 10.5,-169.2 122.5,-169.2 122.5,-147.2 10.5,-147.2"/>
<polygon fill="none" stroke="#000000" points="10.5,-147.2 10.5,-169.2 122.5,-169.2 122.5,-147.2 10.5,-147.2"/>
<text text-anchor="start" x="30.5" y="-154.3" font-family="Helvetica,sans-Serif" font-size="11.00" fill="#000000">table_name</text>
<polygon fill="none" stroke="#000000" points="122.5,-147.2 122.5,-169.2 183.5,-169.2 183.5,-147.2 122.5,-147.2"/>
<text text-anchor="start" x="125.494" y="-154.9" font-family="Helvetica,sans-Serif" font-size="11.00" fill="#000000">varchar[64]</text>
<polygon fill="#ffffff" stroke="transparent" points="10.5,-125.2 10.5,-147.2 122.5,-147.2 122.5,-125.2 10.5,-125.2"/>
<polygon fill="none" stroke="#000000" points="10.5,-125.2 10.5,-147.2 122.5,-147.2 122.5,-125.2 10.5,-125.2"/>
<text text-anchor="start" x="30.5" y="-132.3" font-family="Helvetica,sans-Serif" font-size="11.00" fill="#000000">pk_column</text>
<polygon fill="none" stroke="#000000" points="122.5,-125.2 122.5,-147.2 183.5,-147.2 183.5,-125.2 122.5,-125.2"/>
<text text-anchor="start" x="125.494" y="-132.9" font-family="Helvetica,sans-Serif" font-size="11.00" fill="#000000">varchar[32]</text>
<polygon fill="none" stroke="#000000" points="10.5,-103.2 10.5,-125.2 122.5,-125.2 122.5,-103.2 10.5,-103.2"/>
<text text-anchor="start" x="30.5" y="-110.3" font-family="Helvetica,sans-Serif" font-size="11.00" fill="#000000">pk_column_idx</text>
<polygon fill="none" stroke="#000000" points="122.5,-103.2 122.5,-125.2 183.5,-125.2 183.5,-103.2 122.5,-103.2"/>
<text text-anchor="start" x="125.5" y="-110.9" font-family="Helvetica,sans-Serif" font-size="11.00" fill="#000000">int4[10]</text>
<polygon fill="none" stroke="#000000" points="10.5,-81.2 10.5,-103.2 122.5,-103.2 122.5,-81.2 10.5,-81.2"/>
<text text-anchor="start" x="30.5" y="-88.3" font-family="Helvetica,sans-Serif" font-size="11.00" fill="#000000">pk_policy</text>
<polygon fill="none" stroke="#000000" points="122.5,-81.2 122.5,-103.2 183.5,-103.2 183.5,-81.2 122.5,-81.2"/>
<text text-anchor="start" x="125.494" y="-88.9" font-family="Helvetica,sans-Serif" font-size="11.00" fill="#000000">varchar[32]</text>
<polygon fill="none" stroke="#000000" points="10.5,-59.2 10.5,-81.2 122.5,-81.2 122.5,-59.2 10.5,-59.2"/>
<text text-anchor="start" x="30.5" y="-66.3" font-family="Helvetica,sans-Serif" font-size="11.00" fill="#000000">pk_sequence</text>
<polygon fill="none" stroke="#000000" points="122.5,-59.2 122.5,-81.2 183.5,-81.2 183.5,-59.2 122.5,-59.2"/>
<text text-anchor="start" x="125.494" y="-66.9" font-family="Helvetica,sans-Serif" font-size="11.00" fill="#000000">varchar[64]</text>
<polygon fill="#ffffff" stroke="transparent" points="10.5,-40.2 10.5,-59.2 70.5,-59.2 70.5,-40.2 10.5,-40.2"/>
<polygon fill="none" stroke="#000000" points="10.5,-40.2 10.5,-59.2 70.5,-59.2 70.5,-40.2 10.5,-40.2"/>
<text text-anchor="start" x="13.5" y="-46.3" font-family="Helvetica,sans-Serif" font-size="11.00" fill="#000000">&lt; 0</text>
<polygon fill="#ffffff" stroke="transparent" points="70.5,-40.2 70.5,-59.2 122.5,-59.2 122.5,-40.2 70.5,-40.2"/>
<polygon fill="none" stroke="#000000" points="70.5,-40.2 70.5,-59.2 122.5,-59.2 122.5,-40.2 70.5,-40.2"/>
<text text-anchor="start" x="113.3862" y="-46.3" font-family="Helvetica,sans-Serif" font-size="11.00" fill="#000000"> &#160;</text>
<polygon fill="#ffffff" stroke="transparent" points="122.5,-40.2 122.5,-59.2 183.5,-59.2 183.5,-40.2 122.5,-40.2"/>
<polygon fill="none" stroke="#000000" points="122.5,-40.2 122.5,-59.2 183.5,-59.2 183.5,-40.2 122.5,-40.2"/>
<text text-anchor="start" x="164.9053" y="-46.3" font-family="Helvetica,sans-Serif" font-size="11.00" fill="#000000">0 &gt;</text>
<polygon fill="none" stroke="#000000" stroke-width="2" points="9,-39.2 9,-215.2 184,-215.2 184,-39.2 9,-39.2"/>
</a>
</g>
</g>
</g>
</svg>
