<?xml version="1.0" encoding="UTF-8" standalone="no"?>
<!DOCTYPE svg PUBLIC "-//W3C//DTD SVG 1.1//EN"
 "http://www.w3.org/Graphics/SVG/1.1/DTD/svg11.dtd">
<!-- Generated by graphviz version 2.40.1 (20161225.0304)
 -->
<!-- Title: oneDegreeRelationshipsDiagram Pages: 1 -->
<svg width="362pt" height="913pt"
 viewBox="0.00 0.00 362.00 913.20" xmlns="http://www.w3.org/2000/svg" xmlns:xlink="http://www.w3.org/1999/xlink">
<g id="graph0" class="graph" transform="scale(1 1) rotate(0) translate(4 909.2)">
<title>oneDegreeRelationshipsDiagram</title>
<polygon fill="#ffffff" stroke="transparent" points="-4,4 -4,-909.2 358,-909.2 358,4 -4,4"/>
<text text-anchor="middle" x="72.4936" y="-7.3" font-family="Helvetica,sans-Serif" font-size="11.00" fill="#000000">Generated by SchemaSpy</text>
<!-- roi_bluswater_geo_bluswaterriool -->
<g id="node1" class="node">
<title>roi_bluswater_geo_bluswaterriool</title>
<g id="a_node1"><a xlink:href="../../tables/roi_bluswater_geo_bluswaterriool.html" xlink:title="roi_bluswater_geo_bluswaterriool" target="_top">
<polygon fill="#ffffff" stroke="transparent" points="8,-38.2 8,-901.2 346,-901.2 346,-38.2 8,-38.2"/>
<polygon fill="#f5f5f5" stroke="transparent" points="10,-875.7 10,-898.7 344,-898.7 344,-875.7 10,-875.7"/>
<polygon fill="none" stroke="#000000" points="10,-875.7 10,-898.7 344,-898.7 344,-875.7 10,-875.7"/>
<text text-anchor="start" x="15" y="-884.3" font-family="Helvetica,sans-Serif" font-weight="bold" font-size="11.00" fill="#000000">roi_bluswater_geo_bluswaterriool</text>
<text text-anchor="start" x="310.8895" y="-883.8" font-family="Helvetica,sans-Serif" font-size="11.00" fill="#000000">[view]</text>
<polygon fill="none" stroke="#000000" points="10,-853.7 10,-875.7 225,-875.7 225,-853.7 10,-853.7"/>
<text text-anchor="start" x="30" y="-860.8" font-family="Helvetica,sans-Serif" font-size="11.00" fill="#000000">uuid</text>
<polygon fill="none" stroke="#000000" points="225,-853.7 225,-875.7 344,-875.7 344,-853.7 225,-853.7"/>
<text text-anchor="start" x="228" y="-861.4" font-family="Helvetica,sans-Serif" font-size="11.00" fill="#000000">uuid[2147483647]</text>
<polygon fill="none" stroke="#000000" points="10,-831.7 10,-853.7 225,-853.7 225,-831.7 10,-831.7"/>
<text text-anchor="start" x="30" y="-838.8" font-family="Helvetica,sans-Serif" font-size="11.00" fill="#000000">geom</text>
<polygon fill="none" stroke="#000000" points="225,-831.7 225,-853.7 344,-853.7 344,-831.7 225,-831.7"/>
<text text-anchor="start" x="227.9485" y="-839.4" font-family="Helvetica,sans-Serif" font-size="11.00" fill="#000000">geometry[2147483647]</text>
<polygon fill="none" stroke="#000000" points="10,-809.7 10,-831.7 225,-831.7 225,-809.7 10,-809.7"/>
<text text-anchor="start" x="30" y="-816.8" font-family="Helvetica,sans-Serif" font-size="11.00" fill="#000000">datum</text>
<polygon fill="none" stroke="#000000" points="225,-809.7 225,-831.7 344,-831.7 344,-809.7 225,-809.7"/>
<text text-anchor="start" x="228" y="-817.4" font-family="Helvetica,sans-Serif" font-size="11.00" fill="#000000">text[2147483647]</text>
<polygon fill="none" stroke="#000000" points="10,-787.7 10,-809.7 225,-809.7 225,-787.7 10,-787.7"/>
<text text-anchor="start" x="30" y="-794.8" font-family="Helvetica,sans-Serif" font-size="11.00" fill="#000000">actualiteit</text>
<polygon fill="none" stroke="#000000" points="225,-787.7 225,-809.7 344,-809.7 344,-787.7 225,-787.7"/>
<text text-anchor="start" x="228" y="-795.4" font-family="Helvetica,sans-Serif" font-size="11.00" fill="#000000">numeric[0]</text>
<polygon fill="none" stroke="#000000" points="10,-765.7 10,-787.7 225,-787.7 225,-765.7 10,-765.7"/>
<text text-anchor="start" x="30" y="-772.8" font-family="Helvetica,sans-Serif" font-size="11.00" fill="#000000">conditie</text>
<polygon fill="none" stroke="#000000" points="225,-765.7 225,-787.7 344,-787.7 344,-765.7 225,-765.7"/>
<text text-anchor="start" x="228" y="-773.4" font-family="Helvetica,sans-Serif" font-size="11.00" fill="#000000">text[2147483647]</text>
<polygon fill="none" stroke="#000000" points="10,-743.7 10,-765.7 225,-765.7 225,-743.7 10,-743.7"/>
<text text-anchor="start" x="30" y="-750.8" font-family="Helvetica,sans-Serif" font-size="11.00" fill="#000000">fase</text>
<polygon fill="none" stroke="#000000" points="225,-743.7 225,-765.7 344,-765.7 344,-743.7 225,-743.7"/>
<text text-anchor="start" x="228" y="-751.4" font-family="Helvetica,sans-Serif" font-size="11.00" fill="#000000">text[2147483647]</text>
<polygon fill="none" stroke="#000000" points="10,-721.7 10,-743.7 225,-743.7 225,-721.7 10,-721.7"/>
<text text-anchor="start" x="30" y="-728.8" font-family="Helvetica,sans-Serif" font-size="11.00" fill="#000000">gebied</text>
<polygon fill="none" stroke="#000000" points="225,-721.7 225,-743.7 344,-743.7 344,-721.7 225,-721.7"/>
<text text-anchor="start" x="228" y="-729.4" font-family="Helvetica,sans-Serif" font-size="11.00" fill="#000000">text[2147483647]</text>
<polygon fill="none" stroke="#000000" points="10,-699.7 10,-721.7 225,-721.7 225,-699.7 10,-699.7"/>
<text text-anchor="start" x="30" y="-706.8" font-family="Helvetica,sans-Serif" font-size="11.00" fill="#000000">symbool</text>
<polygon fill="none" stroke="#000000" points="225,-699.7 225,-721.7 344,-721.7 344,-699.7 225,-699.7"/>
<text text-anchor="start" x="228" y="-707.4" font-family="Helvetica,sans-Serif" font-size="11.00" fill="#000000">text[2147483647]</text>
<polygon fill="none" stroke="#000000" points="10,-677.7 10,-699.7 225,-699.7 225,-677.7 10,-677.7"/>
<text text-anchor="start" x="30" y="-684.8" font-family="Helvetica,sans-Serif" font-size="11.00" fill="#000000">symbool_id</text>
<polygon fill="none" stroke="#000000" points="225,-677.7 225,-699.7 344,-699.7 344,-677.7 225,-677.7"/>
<text text-anchor="start" x="228" y="-685.4" font-family="Helvetica,sans-Serif" font-size="11.00" fill="#000000">int2[5]</text>
<polygon fill="none" stroke="#000000" points="10,-655.7 10,-677.7 225,-677.7 225,-655.7 10,-655.7"/>
<text text-anchor="start" x="30" y="-662.8" font-family="Helvetica,sans-Serif" font-size="11.00" fill="#000000">label</text>
<polygon fill="none" stroke="#000000" points="225,-655.7 225,-677.7 344,-677.7 344,-655.7 225,-655.7"/>
<text text-anchor="start" x="228" y="-663.4" font-family="Helvetica,sans-Serif" font-size="11.00" fill="#000000">text[2147483647]</text>
<polygon fill="none" stroke="#000000" points="10,-633.7 10,-655.7 225,-655.7 225,-633.7 10,-633.7"/>
<text text-anchor="start" x="30" y="-640.8" font-family="Helvetica,sans-Serif" font-size="11.00" fill="#000000">bijzonderheden</text>
<polygon fill="none" stroke="#000000" points="225,-633.7 225,-655.7 344,-655.7 344,-633.7 225,-633.7"/>
<text text-anchor="start" x="228" y="-641.4" font-family="Helvetica,sans-Serif" font-size="11.00" fill="#000000">text[2147483647]</text>
<polygon fill="none" stroke="#000000" points="10,-611.7 10,-633.7 225,-633.7 225,-611.7 10,-611.7"/>
<text text-anchor="start" x="30" y="-618.8" font-family="Helvetica,sans-Serif" font-size="11.00" fill="#000000">aanleg</text>
<polygon fill="none" stroke="#000000" points="225,-611.7 225,-633.7 344,-633.7 344,-611.7 225,-611.7"/>
<text text-anchor="start" x="228" y="-619.4" font-family="Helvetica,sans-Serif" font-size="11.00" fill="#000000">date[13]</text>
<polygon fill="none" stroke="#000000" points="10,-589.7 10,-611.7 225,-611.7 225,-589.7 10,-589.7"/>
<text text-anchor="start" x="30" y="-596.8" font-family="Helvetica,sans-Serif" font-size="11.00" fill="#000000">code</text>
<polygon fill="none" stroke="#000000" points="225,-589.7 225,-611.7 344,-611.7 344,-589.7 225,-589.7"/>
<text text-anchor="start" x="228" y="-597.4" font-family="Helvetica,sans-Serif" font-size="11.00" fill="#000000">text[2147483647]</text>
<polygon fill="none" stroke="#000000" points="10,-567.7 10,-589.7 225,-589.7 225,-567.7 10,-567.7"/>
<text text-anchor="start" x="30" y="-574.8" font-family="Helvetica,sans-Serif" font-size="11.00" fill="#000000">beheerder</text>
<polygon fill="none" stroke="#000000" points="225,-567.7 225,-589.7 344,-589.7 344,-567.7 225,-567.7"/>
<text text-anchor="start" x="228" y="-575.4" font-family="Helvetica,sans-Serif" font-size="11.00" fill="#000000">text[2147483647]</text>
<polygon fill="none" stroke="#000000" points="10,-545.7 10,-567.7 225,-567.7 225,-545.7 10,-545.7"/>
<text text-anchor="start" x="30" y="-552.8" font-family="Helvetica,sans-Serif" font-size="11.00" fill="#000000">particulier</text>
<polygon fill="none" stroke="#000000" points="225,-545.7 225,-567.7 344,-567.7 344,-545.7 225,-545.7"/>
<text text-anchor="start" x="228" y="-553.4" font-family="Helvetica,sans-Serif" font-size="11.00" fill="#000000">text[2147483647]</text>
<polygon fill="none" stroke="#000000" points="10,-523.7 10,-545.7 225,-545.7 225,-523.7 10,-523.7"/>
<text text-anchor="start" x="30" y="-530.8" font-family="Helvetica,sans-Serif" font-size="11.00" fill="#000000">adres</text>
<polygon fill="none" stroke="#000000" points="225,-523.7 225,-545.7 344,-545.7 344,-523.7 225,-523.7"/>
<text text-anchor="start" x="228" y="-531.4" font-family="Helvetica,sans-Serif" font-size="11.00" fill="#000000">text[2147483647]</text>
<polygon fill="none" stroke="#000000" points="10,-501.7 10,-523.7 225,-523.7 225,-501.7 10,-501.7"/>
<text text-anchor="start" x="30" y="-508.8" font-family="Helvetica,sans-Serif" font-size="11.00" fill="#000000">revisie_frequentie</text>
<polygon fill="none" stroke="#000000" points="225,-501.7 225,-523.7 344,-523.7 344,-501.7 225,-501.7"/>
<text text-anchor="start" x="228" y="-509.4" font-family="Helvetica,sans-Serif" font-size="11.00" fill="#000000">int2[5]</text>
<polygon fill="none" stroke="#000000" points="10,-479.7 10,-501.7 225,-501.7 225,-479.7 10,-479.7"/>
<text text-anchor="start" x="30" y="-486.8" font-family="Helvetica,sans-Serif" font-size="11.00" fill="#000000">opstelplaats</text>
<polygon fill="none" stroke="#000000" points="225,-479.7 225,-501.7 344,-501.7 344,-479.7 225,-479.7"/>
<text text-anchor="start" x="228" y="-487.4" font-family="Helvetica,sans-Serif" font-size="11.00" fill="#000000">bool[1]</text>
<polygon fill="none" stroke="#000000" points="10,-457.7 10,-479.7 225,-479.7 225,-457.7 10,-457.7"/>
<text text-anchor="start" x="30" y="-464.8" font-family="Helvetica,sans-Serif" font-size="11.00" fill="#000000">opstelplaats_locatie</text>
<polygon fill="none" stroke="#000000" points="225,-457.7 225,-479.7 344,-479.7 344,-457.7 225,-457.7"/>
<text text-anchor="start" x="228" y="-465.4" font-family="Helvetica,sans-Serif" font-size="11.00" fill="#000000">text[2147483647]</text>
<polygon fill="none" stroke="#000000" points="10,-435.7 10,-457.7 225,-457.7 225,-435.7 10,-435.7"/>
<text text-anchor="start" x="30" y="-442.8" font-family="Helvetica,sans-Serif" font-size="11.00" fill="#000000">markering</text>
<polygon fill="none" stroke="#000000" points="225,-435.7 225,-457.7 344,-457.7 344,-435.7 225,-435.7"/>
<text text-anchor="start" x="228" y="-443.4" font-family="Helvetica,sans-Serif" font-size="11.00" fill="#000000">text[2147483647]</text>
<polygon fill="none" stroke="#000000" points="10,-413.7 10,-435.7 225,-435.7 225,-413.7 10,-413.7"/>
<text text-anchor="start" x="30" y="-420.8" font-family="Helvetica,sans-Serif" font-size="11.00" fill="#000000">toegang</text>
<polygon fill="none" stroke="#000000" points="225,-413.7 225,-435.7 344,-435.7 344,-413.7 225,-413.7"/>
<text text-anchor="start" x="228" y="-421.4" font-family="Helvetica,sans-Serif" font-size="11.00" fill="#000000">text[2147483647]</text>
<polygon fill="none" stroke="#000000" points="10,-391.7 10,-413.7 225,-413.7 225,-391.7 10,-391.7"/>
<text text-anchor="start" x="30" y="-398.8" font-family="Helvetica,sans-Serif" font-size="11.00" fill="#000000">putdeksel_locatie</text>
<polygon fill="none" stroke="#000000" points="225,-391.7 225,-413.7 344,-413.7 344,-391.7 225,-391.7"/>
<text text-anchor="start" x="228" y="-399.4" font-family="Helvetica,sans-Serif" font-size="11.00" fill="#000000">text[2147483647]</text>
<polygon fill="none" stroke="#000000" points="10,-369.7 10,-391.7 225,-391.7 225,-369.7 10,-369.7"/>
<text text-anchor="start" x="30" y="-376.8" font-family="Helvetica,sans-Serif" font-size="11.00" fill="#000000">putdeksel_waterdiepte</text>
<polygon fill="none" stroke="#000000" points="225,-369.7 225,-391.7 344,-391.7 344,-369.7 225,-369.7"/>
<text text-anchor="start" x="228" y="-377.4" font-family="Helvetica,sans-Serif" font-size="11.00" fill="#000000">numeric[0]</text>
<polygon fill="none" stroke="#000000" points="10,-347.7 10,-369.7 225,-369.7 225,-347.7 10,-347.7"/>
<text text-anchor="start" x="30" y="-354.8" font-family="Helvetica,sans-Serif" font-size="11.00" fill="#000000">verzonken</text>
<polygon fill="none" stroke="#000000" points="225,-347.7 225,-369.7 344,-369.7 344,-347.7 225,-347.7"/>
<text text-anchor="start" x="228" y="-355.4" font-family="Helvetica,sans-Serif" font-size="11.00" fill="#000000">bool[1]</text>
<polygon fill="none" stroke="#000000" points="10,-325.7 10,-347.7 225,-347.7 225,-325.7 10,-325.7"/>
<text text-anchor="start" x="30" y="-332.8" font-family="Helvetica,sans-Serif" font-size="11.00" fill="#000000">diameter_leiding</text>
<polygon fill="none" stroke="#000000" points="225,-325.7 225,-347.7 344,-347.7 344,-325.7 225,-325.7"/>
<text text-anchor="start" x="228" y="-333.4" font-family="Helvetica,sans-Serif" font-size="11.00" fill="#000000">numeric[0]</text>
<polygon fill="none" stroke="#000000" points="10,-303.7 10,-325.7 225,-325.7 225,-303.7 10,-303.7"/>
<text text-anchor="start" x="30" y="-310.8" font-family="Helvetica,sans-Serif" font-size="11.00" fill="#000000">inspecteur</text>
<polygon fill="none" stroke="#000000" points="225,-303.7 225,-325.7 344,-325.7 344,-303.7 225,-303.7"/>
<text text-anchor="start" x="228" y="-311.4" font-family="Helvetica,sans-Serif" font-size="11.00" fill="#000000">text[2147483647]</text>
<polygon fill="none" stroke="#000000" points="10,-281.7 10,-303.7 225,-303.7 225,-281.7 10,-281.7"/>
<text text-anchor="start" x="30" y="-288.8" font-family="Helvetica,sans-Serif" font-size="11.00" fill="#000000">inspectie_datum</text>
<polygon fill="none" stroke="#000000" points="225,-281.7 225,-303.7 344,-303.7 344,-281.7 225,-281.7"/>
<text text-anchor="start" x="228" y="-289.4" font-family="Helvetica,sans-Serif" font-size="11.00" fill="#000000">date[13]</text>
<polygon fill="none" stroke="#000000" points="10,-259.7 10,-281.7 225,-281.7 225,-259.7 10,-259.7"/>
<text text-anchor="start" x="30" y="-266.8" font-family="Helvetica,sans-Serif" font-size="11.00" fill="#000000">inspectie_opmerking</text>
<polygon fill="none" stroke="#000000" points="225,-259.7 225,-281.7 344,-281.7 344,-259.7 225,-259.7"/>
<text text-anchor="start" x="228" y="-267.4" font-family="Helvetica,sans-Serif" font-size="11.00" fill="#000000">text[2147483647]</text>
<polygon fill="none" stroke="#000000" points="10,-237.7 10,-259.7 225,-259.7 225,-237.7 10,-237.7"/>
<text text-anchor="start" x="30" y="-244.8" font-family="Helvetica,sans-Serif" font-size="11.00" fill="#000000">inspectie_conditie_id</text>
<polygon fill="none" stroke="#000000" points="225,-237.7 225,-259.7 344,-259.7 344,-237.7 225,-237.7"/>
<text text-anchor="start" x="228" y="-245.4" font-family="Helvetica,sans-Serif" font-size="11.00" fill="#000000">int2[5]</text>
<polygon fill="none" stroke="#000000" points="10,-215.7 10,-237.7 225,-237.7 225,-215.7 10,-215.7"/>
<text text-anchor="start" x="30" y="-222.8" font-family="Helvetica,sans-Serif" font-size="11.00" fill="#000000">inspectie_opstelplaats</text>
<polygon fill="none" stroke="#000000" points="225,-215.7 225,-237.7 344,-237.7 344,-215.7 225,-215.7"/>
<text text-anchor="start" x="228" y="-223.4" font-family="Helvetica,sans-Serif" font-size="11.00" fill="#000000">text[2147483647]</text>
<polygon fill="none" stroke="#000000" points="10,-193.7 10,-215.7 225,-215.7 225,-193.7 10,-193.7"/>
<text text-anchor="start" x="30" y="-200.8" font-family="Helvetica,sans-Serif" font-size="11.00" fill="#000000">inspectie_reiniging</text>
<polygon fill="none" stroke="#000000" points="225,-193.7 225,-215.7 344,-215.7 344,-193.7 225,-193.7"/>
<text text-anchor="start" x="228" y="-201.4" font-family="Helvetica,sans-Serif" font-size="11.00" fill="#000000">date[13]</text>
<polygon fill="none" stroke="#000000" points="10,-171.7 10,-193.7 225,-193.7 225,-171.7 10,-171.7"/>
<text text-anchor="start" x="30" y="-178.8" font-family="Helvetica,sans-Serif" font-size="11.00" fill="#000000">inspectie_locatie</text>
<polygon fill="none" stroke="#000000" points="225,-171.7 225,-193.7 344,-193.7 344,-171.7 225,-171.7"/>
<text text-anchor="start" x="228" y="-179.4" font-family="Helvetica,sans-Serif" font-size="11.00" fill="#000000">text[2147483647]</text>
<polygon fill="none" stroke="#000000" points="10,-149.7 10,-171.7 225,-171.7 225,-149.7 10,-149.7"/>
<text text-anchor="start" x="30" y="-156.8" font-family="Helvetica,sans-Serif" font-size="11.00" fill="#000000">inspectie_markering</text>
<polygon fill="none" stroke="#000000" points="225,-149.7 225,-171.7 344,-171.7 344,-149.7 225,-149.7"/>
<text text-anchor="start" x="228" y="-157.4" font-family="Helvetica,sans-Serif" font-size="11.00" fill="#000000">text[2147483647]</text>
<polygon fill="none" stroke="#000000" points="10,-127.7 10,-149.7 225,-149.7 225,-127.7 10,-127.7"/>
<text text-anchor="start" x="30" y="-134.8" font-family="Helvetica,sans-Serif" font-size="11.00" fill="#000000">inspectie_beplanting</text>
<polygon fill="none" stroke="#000000" points="225,-127.7 225,-149.7 344,-149.7 344,-127.7 225,-127.7"/>
<text text-anchor="start" x="228" y="-135.4" font-family="Helvetica,sans-Serif" font-size="11.00" fill="#000000">text[2147483647]</text>
<polygon fill="none" stroke="#000000" points="10,-105.7 10,-127.7 225,-127.7 225,-105.7 10,-105.7"/>
<text text-anchor="start" x="30" y="-112.8" font-family="Helvetica,sans-Serif" font-size="11.00" fill="#000000">inspectie_obstakels</text>
<polygon fill="none" stroke="#000000" points="225,-105.7 225,-127.7 344,-127.7 344,-105.7 225,-105.7"/>
<text text-anchor="start" x="228" y="-113.4" font-family="Helvetica,sans-Serif" font-size="11.00" fill="#000000">text[2147483647]</text>
<polygon fill="none" stroke="#000000" points="10,-83.7 10,-105.7 225,-105.7 225,-83.7 10,-83.7"/>
<text text-anchor="start" x="30" y="-90.8" font-family="Helvetica,sans-Serif" font-size="11.00" fill="#000000">inspectie_bereikbaarheid</text>
<polygon fill="none" stroke="#000000" points="225,-83.7 225,-105.7 344,-105.7 344,-83.7 225,-83.7"/>
<text text-anchor="start" x="228" y="-91.4" font-family="Helvetica,sans-Serif" font-size="11.00" fill="#000000">text[2147483647]</text>
<polygon fill="none" stroke="#000000" points="10,-61.7 10,-83.7 225,-83.7 225,-61.7 10,-61.7"/>
<text text-anchor="start" x="30" y="-68.8" font-family="Helvetica,sans-Serif" font-size="11.00" fill="#000000">inspectie_waterdiepte</text>
<polygon fill="none" stroke="#000000" points="225,-61.7 225,-83.7 344,-83.7 344,-61.7 225,-61.7"/>
<text text-anchor="start" x="228" y="-69.4" font-family="Helvetica,sans-Serif" font-size="11.00" fill="#000000">text[2147483647]</text>
<polygon fill="none" stroke="#000000" points="10,-39.7 10,-61.7 225,-61.7 225,-39.7 10,-39.7"/>
<text text-anchor="start" x="30" y="-46.8" font-family="Helvetica,sans-Serif" font-size="11.00" fill="#000000">inspectie_bluswater</text>
<polygon fill="none" stroke="#000000" points="225,-39.7 225,-61.7 344,-61.7 344,-39.7 225,-39.7"/>
<text text-anchor="start" x="228" y="-47.4" font-family="Helvetica,sans-Serif" font-size="11.00" fill="#000000">text[2147483647]</text>
<polygon fill="none" stroke="#000000" stroke-width="2" points="9,-39.2 9,-900.2 345,-900.2 345,-39.2 9,-39.2"/>
</a>
</g>
</g>
</g>
</svg>
