<?xml version="1.0" encoding="UTF-8" standalone="no"?>
<!DOCTYPE svg PUBLIC "-//W3C//DTD SVG 1.1//EN"
 "http://www.w3.org/Graphics/SVG/1.1/DTD/svg11.dtd">
<!-- Generated by graphviz version 2.40.1 (20161225.0304)
 -->
<!-- Title: oneDegreeRelationshipsDiagram Pages: 1 -->
<svg width="332pt" height="1045pt"
 viewBox="0.00 0.00 332.00 1045.20" xmlns="http://www.w3.org/2000/svg" xmlns:xlink="http://www.w3.org/1999/xlink">
<g id="graph0" class="graph" transform="scale(1 1) rotate(0) translate(4 1041.2)">
<title>oneDegreeRelationshipsDiagram</title>
<polygon fill="#ffffff" stroke="transparent" points="-4,4 -4,-1041.2 328,-1041.2 328,4 -4,4"/>
<text text-anchor="middle" x="72.4936" y="-7.3" font-family="Helvetica,sans-Serif" font-size="11.00" fill="#000000">Generated by SchemaSpy</text>
<!-- roi_bluswater_geo_brandput -->
<g id="node1" class="node">
<title>roi_bluswater_geo_brandput</title>
<g id="a_node1"><a xlink:href="../../tables/roi_bluswater_geo_brandput.html" xlink:title="roi_bluswater_geo_brandput" target="_top">
<polygon fill="#ffffff" stroke="transparent" points="8,-38.2 8,-1033.2 316,-1033.2 316,-38.2 8,-38.2"/>
<polygon fill="#f5f5f5" stroke="transparent" points="10,-1007.7 10,-1030.7 314,-1030.7 314,-1007.7 10,-1007.7"/>
<polygon fill="none" stroke="#000000" points="10,-1007.7 10,-1030.7 314,-1030.7 314,-1007.7 10,-1007.7"/>
<text text-anchor="start" x="15" y="-1016.3" font-family="Helvetica,sans-Serif" font-weight="bold" font-size="11.00" fill="#000000">roi_bluswater_geo_brandput</text>
<text text-anchor="start" x="280.8895" y="-1015.8" font-family="Helvetica,sans-Serif" font-size="11.00" fill="#000000">[view]</text>
<polygon fill="none" stroke="#000000" points="10,-985.7 10,-1007.7 195,-1007.7 195,-985.7 10,-985.7"/>
<text text-anchor="start" x="30" y="-992.8" font-family="Helvetica,sans-Serif" font-size="11.00" fill="#000000">uuid</text>
<polygon fill="none" stroke="#000000" points="195,-985.7 195,-1007.7 314,-1007.7 314,-985.7 195,-985.7"/>
<text text-anchor="start" x="198" y="-993.4" font-family="Helvetica,sans-Serif" font-size="11.00" fill="#000000">uuid[2147483647]</text>
<polygon fill="none" stroke="#000000" points="10,-963.7 10,-985.7 195,-985.7 195,-963.7 10,-963.7"/>
<text text-anchor="start" x="30" y="-970.8" font-family="Helvetica,sans-Serif" font-size="11.00" fill="#000000">geom</text>
<polygon fill="none" stroke="#000000" points="195,-963.7 195,-985.7 314,-985.7 314,-963.7 195,-963.7"/>
<text text-anchor="start" x="197.9485" y="-971.4" font-family="Helvetica,sans-Serif" font-size="11.00" fill="#000000">geometry[2147483647]</text>
<polygon fill="none" stroke="#000000" points="10,-941.7 10,-963.7 195,-963.7 195,-941.7 10,-941.7"/>
<text text-anchor="start" x="30" y="-948.8" font-family="Helvetica,sans-Serif" font-size="11.00" fill="#000000">datum</text>
<polygon fill="none" stroke="#000000" points="195,-941.7 195,-963.7 314,-963.7 314,-941.7 195,-941.7"/>
<text text-anchor="start" x="198" y="-949.4" font-family="Helvetica,sans-Serif" font-size="11.00" fill="#000000">text[2147483647]</text>
<polygon fill="none" stroke="#000000" points="10,-919.7 10,-941.7 195,-941.7 195,-919.7 10,-919.7"/>
<text text-anchor="start" x="30" y="-926.8" font-family="Helvetica,sans-Serif" font-size="11.00" fill="#000000">actualiteit</text>
<polygon fill="none" stroke="#000000" points="195,-919.7 195,-941.7 314,-941.7 314,-919.7 195,-919.7"/>
<text text-anchor="start" x="198" y="-927.4" font-family="Helvetica,sans-Serif" font-size="11.00" fill="#000000">numeric[0]</text>
<polygon fill="none" stroke="#000000" points="10,-897.7 10,-919.7 195,-919.7 195,-897.7 10,-897.7"/>
<text text-anchor="start" x="30" y="-904.8" font-family="Helvetica,sans-Serif" font-size="11.00" fill="#000000">conditie</text>
<polygon fill="none" stroke="#000000" points="195,-897.7 195,-919.7 314,-919.7 314,-897.7 195,-897.7"/>
<text text-anchor="start" x="198" y="-905.4" font-family="Helvetica,sans-Serif" font-size="11.00" fill="#000000">text[2147483647]</text>
<polygon fill="none" stroke="#000000" points="10,-875.7 10,-897.7 195,-897.7 195,-875.7 10,-875.7"/>
<text text-anchor="start" x="30" y="-882.8" font-family="Helvetica,sans-Serif" font-size="11.00" fill="#000000">fase</text>
<polygon fill="none" stroke="#000000" points="195,-875.7 195,-897.7 314,-897.7 314,-875.7 195,-875.7"/>
<text text-anchor="start" x="198" y="-883.4" font-family="Helvetica,sans-Serif" font-size="11.00" fill="#000000">text[2147483647]</text>
<polygon fill="none" stroke="#000000" points="10,-853.7 10,-875.7 195,-875.7 195,-853.7 10,-853.7"/>
<text text-anchor="start" x="30" y="-860.8" font-family="Helvetica,sans-Serif" font-size="11.00" fill="#000000">gebied</text>
<polygon fill="none" stroke="#000000" points="195,-853.7 195,-875.7 314,-875.7 314,-853.7 195,-853.7"/>
<text text-anchor="start" x="198" y="-861.4" font-family="Helvetica,sans-Serif" font-size="11.00" fill="#000000">text[2147483647]</text>
<polygon fill="none" stroke="#000000" points="10,-831.7 10,-853.7 195,-853.7 195,-831.7 10,-831.7"/>
<text text-anchor="start" x="30" y="-838.8" font-family="Helvetica,sans-Serif" font-size="11.00" fill="#000000">symbool</text>
<polygon fill="none" stroke="#000000" points="195,-831.7 195,-853.7 314,-853.7 314,-831.7 195,-831.7"/>
<text text-anchor="start" x="198" y="-839.4" font-family="Helvetica,sans-Serif" font-size="11.00" fill="#000000">text[2147483647]</text>
<polygon fill="none" stroke="#000000" points="10,-809.7 10,-831.7 195,-831.7 195,-809.7 10,-809.7"/>
<text text-anchor="start" x="30" y="-816.8" font-family="Helvetica,sans-Serif" font-size="11.00" fill="#000000">symbool_id</text>
<polygon fill="none" stroke="#000000" points="195,-809.7 195,-831.7 314,-831.7 314,-809.7 195,-809.7"/>
<text text-anchor="start" x="198" y="-817.4" font-family="Helvetica,sans-Serif" font-size="11.00" fill="#000000">int2[5]</text>
<polygon fill="none" stroke="#000000" points="10,-787.7 10,-809.7 195,-809.7 195,-787.7 10,-787.7"/>
<text text-anchor="start" x="30" y="-794.8" font-family="Helvetica,sans-Serif" font-size="11.00" fill="#000000">label</text>
<polygon fill="none" stroke="#000000" points="195,-787.7 195,-809.7 314,-809.7 314,-787.7 195,-787.7"/>
<text text-anchor="start" x="198" y="-795.4" font-family="Helvetica,sans-Serif" font-size="11.00" fill="#000000">text[2147483647]</text>
<polygon fill="none" stroke="#000000" points="10,-765.7 10,-787.7 195,-787.7 195,-765.7 10,-765.7"/>
<text text-anchor="start" x="30" y="-772.8" font-family="Helvetica,sans-Serif" font-size="11.00" fill="#000000">bijzonderheden</text>
<polygon fill="none" stroke="#000000" points="195,-765.7 195,-787.7 314,-787.7 314,-765.7 195,-765.7"/>
<text text-anchor="start" x="198" y="-773.4" font-family="Helvetica,sans-Serif" font-size="11.00" fill="#000000">text[2147483647]</text>
<polygon fill="none" stroke="#000000" points="10,-743.7 10,-765.7 195,-765.7 195,-743.7 10,-743.7"/>
<text text-anchor="start" x="30" y="-750.8" font-family="Helvetica,sans-Serif" font-size="11.00" fill="#000000">aanleg</text>
<polygon fill="none" stroke="#000000" points="195,-743.7 195,-765.7 314,-765.7 314,-743.7 195,-743.7"/>
<text text-anchor="start" x="198" y="-751.4" font-family="Helvetica,sans-Serif" font-size="11.00" fill="#000000">date[13]</text>
<polygon fill="none" stroke="#000000" points="10,-721.7 10,-743.7 195,-743.7 195,-721.7 10,-721.7"/>
<text text-anchor="start" x="30" y="-728.8" font-family="Helvetica,sans-Serif" font-size="11.00" fill="#000000">code</text>
<polygon fill="none" stroke="#000000" points="195,-721.7 195,-743.7 314,-743.7 314,-721.7 195,-721.7"/>
<text text-anchor="start" x="198" y="-729.4" font-family="Helvetica,sans-Serif" font-size="11.00" fill="#000000">text[2147483647]</text>
<polygon fill="none" stroke="#000000" points="10,-699.7 10,-721.7 195,-721.7 195,-699.7 10,-699.7"/>
<text text-anchor="start" x="30" y="-706.8" font-family="Helvetica,sans-Serif" font-size="11.00" fill="#000000">beheerder</text>
<polygon fill="none" stroke="#000000" points="195,-699.7 195,-721.7 314,-721.7 314,-699.7 195,-699.7"/>
<text text-anchor="start" x="198" y="-707.4" font-family="Helvetica,sans-Serif" font-size="11.00" fill="#000000">text[2147483647]</text>
<polygon fill="none" stroke="#000000" points="10,-677.7 10,-699.7 195,-699.7 195,-677.7 10,-677.7"/>
<text text-anchor="start" x="30" y="-684.8" font-family="Helvetica,sans-Serif" font-size="11.00" fill="#000000">particulier</text>
<polygon fill="none" stroke="#000000" points="195,-677.7 195,-699.7 314,-699.7 314,-677.7 195,-677.7"/>
<text text-anchor="start" x="198" y="-685.4" font-family="Helvetica,sans-Serif" font-size="11.00" fill="#000000">text[2147483647]</text>
<polygon fill="none" stroke="#000000" points="10,-655.7 10,-677.7 195,-677.7 195,-655.7 10,-655.7"/>
<text text-anchor="start" x="30" y="-662.8" font-family="Helvetica,sans-Serif" font-size="11.00" fill="#000000">adres</text>
<polygon fill="none" stroke="#000000" points="195,-655.7 195,-677.7 314,-677.7 314,-655.7 195,-655.7"/>
<text text-anchor="start" x="198" y="-663.4" font-family="Helvetica,sans-Serif" font-size="11.00" fill="#000000">text[2147483647]</text>
<polygon fill="none" stroke="#000000" points="10,-633.7 10,-655.7 195,-655.7 195,-633.7 10,-633.7"/>
<text text-anchor="start" x="30" y="-640.8" font-family="Helvetica,sans-Serif" font-size="11.00" fill="#000000">revisie_frequentie</text>
<polygon fill="none" stroke="#000000" points="195,-633.7 195,-655.7 314,-655.7 314,-633.7 195,-633.7"/>
<text text-anchor="start" x="198" y="-641.4" font-family="Helvetica,sans-Serif" font-size="11.00" fill="#000000">int2[5]</text>
<polygon fill="none" stroke="#000000" points="10,-611.7 10,-633.7 195,-633.7 195,-611.7 10,-611.7"/>
<text text-anchor="start" x="30" y="-618.8" font-family="Helvetica,sans-Serif" font-size="11.00" fill="#000000">opstelplaats</text>
<polygon fill="none" stroke="#000000" points="195,-611.7 195,-633.7 314,-633.7 314,-611.7 195,-611.7"/>
<text text-anchor="start" x="198" y="-619.4" font-family="Helvetica,sans-Serif" font-size="11.00" fill="#000000">bool[1]</text>
<polygon fill="none" stroke="#000000" points="10,-589.7 10,-611.7 195,-611.7 195,-589.7 10,-589.7"/>
<text text-anchor="start" x="30" y="-596.8" font-family="Helvetica,sans-Serif" font-size="11.00" fill="#000000">opstelplaats_locatie</text>
<polygon fill="none" stroke="#000000" points="195,-589.7 195,-611.7 314,-611.7 314,-589.7 195,-589.7"/>
<text text-anchor="start" x="198" y="-597.4" font-family="Helvetica,sans-Serif" font-size="11.00" fill="#000000">text[2147483647]</text>
<polygon fill="none" stroke="#000000" points="10,-567.7 10,-589.7 195,-589.7 195,-567.7 10,-567.7"/>
<text text-anchor="start" x="30" y="-574.8" font-family="Helvetica,sans-Serif" font-size="11.00" fill="#000000">markering</text>
<polygon fill="none" stroke="#000000" points="195,-567.7 195,-589.7 314,-589.7 314,-567.7 195,-567.7"/>
<text text-anchor="start" x="198" y="-575.4" font-family="Helvetica,sans-Serif" font-size="11.00" fill="#000000">text[2147483647]</text>
<polygon fill="none" stroke="#000000" points="10,-545.7 10,-567.7 195,-567.7 195,-545.7 10,-545.7"/>
<text text-anchor="start" x="30" y="-552.8" font-family="Helvetica,sans-Serif" font-size="11.00" fill="#000000">toegang</text>
<polygon fill="none" stroke="#000000" points="195,-545.7 195,-567.7 314,-567.7 314,-545.7 195,-545.7"/>
<text text-anchor="start" x="198" y="-553.4" font-family="Helvetica,sans-Serif" font-size="11.00" fill="#000000">text[2147483647]</text>
<polygon fill="none" stroke="#000000" points="10,-523.7 10,-545.7 195,-545.7 195,-523.7 10,-523.7"/>
<text text-anchor="start" x="30" y="-530.8" font-family="Helvetica,sans-Serif" font-size="11.00" fill="#000000">kenmerk</text>
<polygon fill="none" stroke="#000000" points="195,-523.7 195,-545.7 314,-545.7 314,-523.7 195,-523.7"/>
<text text-anchor="start" x="198" y="-531.4" font-family="Helvetica,sans-Serif" font-size="11.00" fill="#000000">text[2147483647]</text>
<polygon fill="none" stroke="#000000" points="10,-501.7 10,-523.7 195,-523.7 195,-501.7 10,-501.7"/>
<text text-anchor="start" x="30" y="-508.8" font-family="Helvetica,sans-Serif" font-size="11.00" fill="#000000">koppeling</text>
<polygon fill="none" stroke="#000000" points="195,-501.7 195,-523.7 314,-523.7 314,-501.7 195,-501.7"/>
<text text-anchor="start" x="198" y="-509.4" font-family="Helvetica,sans-Serif" font-size="11.00" fill="#000000">text[2147483647]</text>
<polygon fill="none" stroke="#000000" points="10,-479.7 10,-501.7 195,-501.7 195,-479.7 10,-479.7"/>
<text text-anchor="start" x="30" y="-486.8" font-family="Helvetica,sans-Serif" font-size="11.00" fill="#000000">aanrijdbeveiliging</text>
<polygon fill="none" stroke="#000000" points="195,-479.7 195,-501.7 314,-501.7 314,-479.7 195,-479.7"/>
<text text-anchor="start" x="198" y="-487.4" font-family="Helvetica,sans-Serif" font-size="11.00" fill="#000000">bool[1]</text>
<polygon fill="none" stroke="#000000" points="10,-457.7 10,-479.7 195,-479.7 195,-457.7 10,-457.7"/>
<text text-anchor="start" x="30" y="-464.8" font-family="Helvetica,sans-Serif" font-size="11.00" fill="#000000">opvoerpomp</text>
<polygon fill="none" stroke="#000000" points="195,-457.7 195,-479.7 314,-479.7 314,-457.7 195,-457.7"/>
<text text-anchor="start" x="198" y="-465.4" font-family="Helvetica,sans-Serif" font-size="11.00" fill="#000000">bool[1]</text>
<polygon fill="none" stroke="#000000" points="10,-435.7 10,-457.7 195,-457.7 195,-435.7 10,-435.7"/>
<text text-anchor="start" x="30" y="-442.8" font-family="Helvetica,sans-Serif" font-size="11.00" fill="#000000">elektra</text>
<polygon fill="none" stroke="#000000" points="195,-435.7 195,-457.7 314,-457.7 314,-435.7 195,-435.7"/>
<text text-anchor="start" x="198" y="-443.4" font-family="Helvetica,sans-Serif" font-size="11.00" fill="#000000">text[2147483647]</text>
<polygon fill="none" stroke="#000000" points="10,-413.7 10,-435.7 195,-435.7 195,-413.7 10,-413.7"/>
<text text-anchor="start" x="30" y="-420.8" font-family="Helvetica,sans-Serif" font-size="11.00" fill="#000000">slot</text>
<polygon fill="none" stroke="#000000" points="195,-413.7 195,-435.7 314,-435.7 314,-413.7 195,-413.7"/>
<text text-anchor="start" x="198" y="-421.4" font-family="Helvetica,sans-Serif" font-size="11.00" fill="#000000">text[2147483647]</text>
<polygon fill="none" stroke="#000000" points="10,-391.7 10,-413.7 195,-413.7 195,-391.7 10,-391.7"/>
<text text-anchor="start" x="30" y="-398.8" font-family="Helvetica,sans-Serif" font-size="11.00" fill="#000000">inspecteur</text>
<polygon fill="none" stroke="#000000" points="195,-391.7 195,-413.7 314,-413.7 314,-391.7 195,-391.7"/>
<text text-anchor="start" x="198" y="-399.4" font-family="Helvetica,sans-Serif" font-size="11.00" fill="#000000">text[2147483647]</text>
<polygon fill="none" stroke="#000000" points="10,-369.7 10,-391.7 195,-391.7 195,-369.7 10,-369.7"/>
<text text-anchor="start" x="30" y="-376.8" font-family="Helvetica,sans-Serif" font-size="11.00" fill="#000000">inspectie_datum</text>
<polygon fill="none" stroke="#000000" points="195,-369.7 195,-391.7 314,-391.7 314,-369.7 195,-369.7"/>
<text text-anchor="start" x="198" y="-377.4" font-family="Helvetica,sans-Serif" font-size="11.00" fill="#000000">date[13]</text>
<polygon fill="none" stroke="#000000" points="10,-347.7 10,-369.7 195,-369.7 195,-347.7 10,-347.7"/>
<text text-anchor="start" x="30" y="-354.8" font-family="Helvetica,sans-Serif" font-size="11.00" fill="#000000">inspectie_opmerking</text>
<polygon fill="none" stroke="#000000" points="195,-347.7 195,-369.7 314,-369.7 314,-347.7 195,-347.7"/>
<text text-anchor="start" x="198" y="-355.4" font-family="Helvetica,sans-Serif" font-size="11.00" fill="#000000">text[2147483647]</text>
<polygon fill="none" stroke="#000000" points="10,-325.7 10,-347.7 195,-347.7 195,-325.7 10,-325.7"/>
<text text-anchor="start" x="30" y="-332.8" font-family="Helvetica,sans-Serif" font-size="11.00" fill="#000000">inspectie_conditie_id</text>
<polygon fill="none" stroke="#000000" points="195,-325.7 195,-347.7 314,-347.7 314,-325.7 195,-325.7"/>
<text text-anchor="start" x="198" y="-333.4" font-family="Helvetica,sans-Serif" font-size="11.00" fill="#000000">int2[5]</text>
<polygon fill="none" stroke="#000000" points="10,-303.7 10,-325.7 195,-325.7 195,-303.7 10,-303.7"/>
<text text-anchor="start" x="30" y="-310.8" font-family="Helvetica,sans-Serif" font-size="11.00" fill="#000000">inspectie_opstelplaats</text>
<polygon fill="none" stroke="#000000" points="195,-303.7 195,-325.7 314,-325.7 314,-303.7 195,-303.7"/>
<text text-anchor="start" x="198" y="-311.4" font-family="Helvetica,sans-Serif" font-size="11.00" fill="#000000">text[2147483647]</text>
<polygon fill="none" stroke="#000000" points="10,-281.7 10,-303.7 195,-303.7 195,-281.7 10,-281.7"/>
<text text-anchor="start" x="30" y="-288.8" font-family="Helvetica,sans-Serif" font-size="11.00" fill="#000000">inspectie_certificaat</text>
<polygon fill="none" stroke="#000000" points="195,-281.7 195,-303.7 314,-303.7 314,-281.7 195,-281.7"/>
<text text-anchor="start" x="198" y="-289.4" font-family="Helvetica,sans-Serif" font-size="11.00" fill="#000000">date[13]</text>
<polygon fill="none" stroke="#000000" points="10,-259.7 10,-281.7 195,-281.7 195,-259.7 10,-259.7"/>
<text text-anchor="start" x="30" y="-266.8" font-family="Helvetica,sans-Serif" font-size="11.00" fill="#000000">inspectie_locatie</text>
<polygon fill="none" stroke="#000000" points="195,-259.7 195,-281.7 314,-281.7 314,-259.7 195,-259.7"/>
<text text-anchor="start" x="198" y="-267.4" font-family="Helvetica,sans-Serif" font-size="11.00" fill="#000000">text[2147483647]</text>
<polygon fill="none" stroke="#000000" points="10,-237.7 10,-259.7 195,-259.7 195,-237.7 10,-237.7"/>
<text text-anchor="start" x="30" y="-244.8" font-family="Helvetica,sans-Serif" font-size="11.00" fill="#000000">inspectie_markering</text>
<polygon fill="none" stroke="#000000" points="195,-237.7 195,-259.7 314,-259.7 314,-237.7 195,-237.7"/>
<text text-anchor="start" x="198" y="-245.4" font-family="Helvetica,sans-Serif" font-size="11.00" fill="#000000">text[2147483647]</text>
<polygon fill="none" stroke="#000000" points="10,-215.7 10,-237.7 195,-237.7 195,-215.7 10,-215.7"/>
<text text-anchor="start" x="30" y="-222.8" font-family="Helvetica,sans-Serif" font-size="11.00" fill="#000000">inspectie_beplanting</text>
<polygon fill="none" stroke="#000000" points="195,-215.7 195,-237.7 314,-237.7 314,-215.7 195,-215.7"/>
<text text-anchor="start" x="198" y="-223.4" font-family="Helvetica,sans-Serif" font-size="11.00" fill="#000000">text[2147483647]</text>
<polygon fill="none" stroke="#000000" points="10,-193.7 10,-215.7 195,-215.7 195,-193.7 10,-193.7"/>
<text text-anchor="start" x="30" y="-200.8" font-family="Helvetica,sans-Serif" font-size="11.00" fill="#000000">inspectie_obstakels</text>
<polygon fill="none" stroke="#000000" points="195,-193.7 195,-215.7 314,-215.7 314,-193.7 195,-193.7"/>
<text text-anchor="start" x="198" y="-201.4" font-family="Helvetica,sans-Serif" font-size="11.00" fill="#000000">text[2147483647]</text>
<polygon fill="none" stroke="#000000" points="10,-171.7 10,-193.7 195,-193.7 195,-171.7 10,-171.7"/>
<text text-anchor="start" x="30" y="-178.8" font-family="Helvetica,sans-Serif" font-size="11.00" fill="#000000">inspectie_bereikbaarheid</text>
<polygon fill="none" stroke="#000000" points="195,-171.7 195,-193.7 314,-193.7 314,-171.7 195,-171.7"/>
<text text-anchor="start" x="198" y="-179.4" font-family="Helvetica,sans-Serif" font-size="11.00" fill="#000000">text[2147483647]</text>
<polygon fill="none" stroke="#000000" points="10,-149.7 10,-171.7 195,-171.7 195,-149.7 10,-149.7"/>
<text text-anchor="start" x="30" y="-156.8" font-family="Helvetica,sans-Serif" font-size="11.00" fill="#000000">inspectie_elektra</text>
<polygon fill="none" stroke="#000000" points="195,-149.7 195,-171.7 314,-171.7 314,-149.7 195,-149.7"/>
<text text-anchor="start" x="198" y="-157.4" font-family="Helvetica,sans-Serif" font-size="11.00" fill="#000000">text[2147483647]</text>
<polygon fill="none" stroke="#000000" points="10,-127.7 10,-149.7 195,-149.7 195,-127.7 10,-127.7"/>
<text text-anchor="start" x="30" y="-134.8" font-family="Helvetica,sans-Serif" font-size="11.00" fill="#000000">inspectie_aanrijdbeveiliging</text>
<polygon fill="none" stroke="#000000" points="195,-127.7 195,-149.7 314,-149.7 314,-127.7 195,-127.7"/>
<text text-anchor="start" x="198" y="-135.4" font-family="Helvetica,sans-Serif" font-size="11.00" fill="#000000">text[2147483647]</text>
<polygon fill="none" stroke="#000000" points="10,-105.7 10,-127.7 195,-127.7 195,-105.7 10,-105.7"/>
<text text-anchor="start" x="30" y="-112.8" font-family="Helvetica,sans-Serif" font-size="11.00" fill="#000000">inspectie_slot</text>
<polygon fill="none" stroke="#000000" points="195,-105.7 195,-127.7 314,-127.7 314,-105.7 195,-105.7"/>
<text text-anchor="start" x="198" y="-113.4" font-family="Helvetica,sans-Serif" font-size="11.00" fill="#000000">text[2147483647]</text>
<polygon fill="none" stroke="#000000" points="10,-83.7 10,-105.7 195,-105.7 195,-83.7 10,-83.7"/>
<text text-anchor="start" x="30" y="-90.8" font-family="Helvetica,sans-Serif" font-size="11.00" fill="#000000">inspectie_deksel</text>
<polygon fill="none" stroke="#000000" points="195,-83.7 195,-105.7 314,-105.7 314,-83.7 195,-83.7"/>
<text text-anchor="start" x="198" y="-91.4" font-family="Helvetica,sans-Serif" font-size="11.00" fill="#000000">text[2147483647]</text>
<polygon fill="none" stroke="#000000" points="10,-61.7 10,-83.7 195,-83.7 195,-61.7 10,-61.7"/>
<text text-anchor="start" x="30" y="-68.8" font-family="Helvetica,sans-Serif" font-size="11.00" fill="#000000">inspectie_rubber</text>
<polygon fill="none" stroke="#000000" points="195,-61.7 195,-83.7 314,-83.7 314,-61.7 195,-61.7"/>
<text text-anchor="start" x="198" y="-69.4" font-family="Helvetica,sans-Serif" font-size="11.00" fill="#000000">text[2147483647]</text>
<polygon fill="none" stroke="#000000" points="10,-39.7 10,-61.7 195,-61.7 195,-39.7 10,-39.7"/>
<text text-anchor="start" x="30" y="-46.8" font-family="Helvetica,sans-Serif" font-size="11.00" fill="#000000">inspectie_koppeling</text>
<polygon fill="none" stroke="#000000" points="195,-39.7 195,-61.7 314,-61.7 314,-39.7 195,-39.7"/>
<text text-anchor="start" x="198" y="-47.4" font-family="Helvetica,sans-Serif" font-size="11.00" fill="#000000">text[2147483647]</text>
<polygon fill="none" stroke="#000000" stroke-width="2" points="9,-39.2 9,-1032.2 315,-1032.2 315,-39.2 9,-39.2"/>
</a>
</g>
</g>
</g>
</svg>
