<?xml version="1.0" encoding="UTF-8" standalone="no"?>
<!DOCTYPE svg PUBLIC "-//W3C//DTD SVG 1.1//EN"
 "http://www.w3.org/Graphics/SVG/1.1/DTD/svg11.dtd">
<!-- Generated by graphviz version 2.40.1 (20161225.0304)
 -->
<!-- Title: oneDegreeRelationshipsDiagram Pages: 1 -->
<svg width="336pt" height="737pt"
 viewBox="0.00 0.00 336.00 737.20" xmlns="http://www.w3.org/2000/svg" xmlns:xlink="http://www.w3.org/1999/xlink">
<g id="graph0" class="graph" transform="scale(1 1) rotate(0) translate(4 733.2)">
<title>oneDegreeRelationshipsDiagram</title>
<polygon fill="#ffffff" stroke="transparent" points="-4,4 -4,-733.2 332,-733.2 332,4 -4,4"/>
<text text-anchor="middle" x="72.4936" y="-7.3" font-family="Helvetica,sans-Serif" font-size="11.00" fill="#000000">Generated by SchemaSpy</text>
<!-- roi_waterongeval_geo_object -->
<g id="node1" class="node">
<title>roi_waterongeval_geo_object</title>
<g id="a_node1"><a xlink:href="../../tables/roi_waterongeval_geo_object.html" xlink:title="roi_waterongeval_geo_object" target="_top">
<polygon fill="#ffffff" stroke="transparent" points="8,-38.2 8,-725.2 320,-725.2 320,-38.2 8,-38.2"/>
<polygon fill="#f5f5f5" stroke="transparent" points="10,-699.7 10,-722.7 318,-722.7 318,-699.7 10,-699.7"/>
<polygon fill="none" stroke="#000000" points="10,-699.7 10,-722.7 318,-722.7 318,-699.7 10,-699.7"/>
<text text-anchor="start" x="15" y="-708.3" font-family="Helvetica,sans-Serif" font-weight="bold" font-size="11.00" fill="#000000">roi_waterongeval_geo_object</text>
<text text-anchor="start" x="284.8895" y="-707.8" font-family="Helvetica,sans-Serif" font-size="11.00" fill="#000000">[view]</text>
<polygon fill="none" stroke="#000000" points="10,-677.7 10,-699.7 199,-699.7 199,-677.7 10,-677.7"/>
<text text-anchor="start" x="30" y="-684.8" font-family="Helvetica,sans-Serif" font-size="11.00" fill="#000000">uuid</text>
<polygon fill="none" stroke="#000000" points="199,-677.7 199,-699.7 318,-699.7 318,-677.7 199,-677.7"/>
<text text-anchor="start" x="202" y="-685.4" font-family="Helvetica,sans-Serif" font-size="11.00" fill="#000000">uuid[2147483647]</text>
<polygon fill="none" stroke="#000000" points="10,-655.7 10,-677.7 199,-677.7 199,-655.7 10,-655.7"/>
<text text-anchor="start" x="30" y="-662.8" font-family="Helvetica,sans-Serif" font-size="11.00" fill="#000000">geom</text>
<polygon fill="none" stroke="#000000" points="199,-655.7 199,-677.7 318,-677.7 318,-655.7 199,-655.7"/>
<text text-anchor="start" x="201.9485" y="-663.4" font-family="Helvetica,sans-Serif" font-size="11.00" fill="#000000">geometry[2147483647]</text>
<polygon fill="none" stroke="#000000" points="10,-633.7 10,-655.7 199,-655.7 199,-633.7 10,-633.7"/>
<text text-anchor="start" x="30" y="-640.8" font-family="Helvetica,sans-Serif" font-size="11.00" fill="#000000">datum</text>
<polygon fill="none" stroke="#000000" points="199,-633.7 199,-655.7 318,-655.7 318,-633.7 199,-633.7"/>
<text text-anchor="start" x="202" y="-641.4" font-family="Helvetica,sans-Serif" font-size="11.00" fill="#000000">text[2147483647]</text>
<polygon fill="none" stroke="#000000" points="10,-611.7 10,-633.7 199,-633.7 199,-611.7 10,-611.7"/>
<text text-anchor="start" x="30" y="-618.8" font-family="Helvetica,sans-Serif" font-size="11.00" fill="#000000">regio</text>
<polygon fill="none" stroke="#000000" points="199,-611.7 199,-633.7 318,-633.7 318,-611.7 199,-611.7"/>
<text text-anchor="start" x="202" y="-619.4" font-family="Helvetica,sans-Serif" font-size="11.00" fill="#000000">text[2147483647]</text>
<polygon fill="none" stroke="#000000" points="10,-589.7 10,-611.7 199,-611.7 199,-589.7 10,-589.7"/>
<text text-anchor="start" x="30" y="-596.8" font-family="Helvetica,sans-Serif" font-size="11.00" fill="#000000">actualiteit</text>
<polygon fill="none" stroke="#000000" points="199,-589.7 199,-611.7 318,-611.7 318,-589.7 199,-589.7"/>
<text text-anchor="start" x="202" y="-597.4" font-family="Helvetica,sans-Serif" font-size="11.00" fill="#000000">numeric[0]</text>
<polygon fill="none" stroke="#000000" points="10,-567.7 10,-589.7 199,-589.7 199,-567.7 10,-567.7"/>
<text text-anchor="start" x="30" y="-574.8" font-family="Helvetica,sans-Serif" font-size="11.00" fill="#000000">object_type_id</text>
<polygon fill="none" stroke="#000000" points="199,-567.7 199,-589.7 318,-589.7 318,-567.7 199,-567.7"/>
<text text-anchor="start" x="202" y="-575.4" font-family="Helvetica,sans-Serif" font-size="11.00" fill="#000000">int2[5]</text>
<polygon fill="none" stroke="#000000" points="10,-545.7 10,-567.7 199,-567.7 199,-545.7 10,-545.7"/>
<text text-anchor="start" x="30" y="-552.8" font-family="Helvetica,sans-Serif" font-size="11.00" fill="#000000">object_type</text>
<polygon fill="none" stroke="#000000" points="199,-545.7 199,-567.7 318,-567.7 318,-545.7 199,-545.7"/>
<text text-anchor="start" x="202" y="-553.4" font-family="Helvetica,sans-Serif" font-size="11.00" fill="#000000">text[2147483647]</text>
<polygon fill="none" stroke="#000000" points="10,-523.7 10,-545.7 199,-545.7 199,-523.7 10,-523.7"/>
<text text-anchor="start" x="30" y="-530.8" font-family="Helvetica,sans-Serif" font-size="11.00" fill="#000000">fase</text>
<polygon fill="none" stroke="#000000" points="199,-523.7 199,-545.7 318,-545.7 318,-523.7 199,-523.7"/>
<text text-anchor="start" x="202" y="-531.4" font-family="Helvetica,sans-Serif" font-size="11.00" fill="#000000">text[2147483647]</text>
<polygon fill="none" stroke="#000000" points="10,-501.7 10,-523.7 199,-523.7 199,-501.7 10,-501.7"/>
<text text-anchor="start" x="30" y="-508.8" font-family="Helvetica,sans-Serif" font-size="11.00" fill="#000000">formelenaam</text>
<polygon fill="none" stroke="#000000" points="199,-501.7 199,-523.7 318,-523.7 318,-501.7 199,-501.7"/>
<text text-anchor="start" x="202" y="-509.4" font-family="Helvetica,sans-Serif" font-size="11.00" fill="#000000">text[2147483647]</text>
<polygon fill="none" stroke="#000000" points="10,-479.7 10,-501.7 199,-501.7 199,-479.7 10,-479.7"/>
<text text-anchor="start" x="30" y="-486.8" font-family="Helvetica,sans-Serif" font-size="11.00" fill="#000000">code</text>
<polygon fill="none" stroke="#000000" points="199,-479.7 199,-501.7 318,-501.7 318,-479.7 199,-479.7"/>
<text text-anchor="start" x="202" y="-487.4" font-family="Helvetica,sans-Serif" font-size="11.00" fill="#000000">text[2147483647]</text>
<polygon fill="none" stroke="#000000" points="10,-457.7 10,-479.7 199,-479.7 199,-457.7 10,-457.7"/>
<text text-anchor="start" x="30" y="-464.8" font-family="Helvetica,sans-Serif" font-size="11.00" fill="#000000">adres</text>
<polygon fill="none" stroke="#000000" points="199,-457.7 199,-479.7 318,-479.7 318,-457.7 199,-457.7"/>
<text text-anchor="start" x="202" y="-465.4" font-family="Helvetica,sans-Serif" font-size="11.00" fill="#000000">text[2147483647]</text>
<polygon fill="none" stroke="#000000" points="10,-435.7 10,-457.7 199,-457.7 199,-435.7 10,-435.7"/>
<text text-anchor="start" x="30" y="-442.8" font-family="Helvetica,sans-Serif" font-size="11.00" fill="#000000">bodemgesteldheid</text>
<polygon fill="none" stroke="#000000" points="199,-435.7 199,-457.7 318,-457.7 318,-435.7 199,-435.7"/>
<text text-anchor="start" x="202" y="-443.4" font-family="Helvetica,sans-Serif" font-size="11.00" fill="#000000">text[2147483647]</text>
<polygon fill="none" stroke="#000000" points="10,-413.7 10,-435.7 199,-435.7 199,-413.7 10,-413.7"/>
<text text-anchor="start" x="30" y="-420.8" font-family="Helvetica,sans-Serif" font-size="11.00" fill="#000000">diepte</text>
<polygon fill="none" stroke="#000000" points="199,-413.7 199,-435.7 318,-435.7 318,-413.7 199,-413.7"/>
<text text-anchor="start" x="202" y="-421.4" font-family="Helvetica,sans-Serif" font-size="11.00" fill="#000000">numeric[0]</text>
<polygon fill="none" stroke="#000000" points="10,-391.7 10,-413.7 199,-413.7 199,-391.7 10,-391.7"/>
<text text-anchor="start" x="30" y="-398.8" font-family="Helvetica,sans-Serif" font-size="11.00" fill="#000000">oever_categorie</text>
<polygon fill="none" stroke="#000000" points="199,-391.7 199,-413.7 318,-413.7 318,-391.7 199,-391.7"/>
<text text-anchor="start" x="202" y="-399.4" font-family="Helvetica,sans-Serif" font-size="11.00" fill="#000000">text[2147483647]</text>
<polygon fill="none" stroke="#000000" points="10,-369.7 10,-391.7 199,-391.7 199,-369.7 10,-369.7"/>
<text text-anchor="start" x="30" y="-376.8" font-family="Helvetica,sans-Serif" font-size="11.00" fill="#000000">oever_samenstelling</text>
<polygon fill="none" stroke="#000000" points="199,-369.7 199,-391.7 318,-391.7 318,-369.7 199,-369.7"/>
<text text-anchor="start" x="202" y="-377.4" font-family="Helvetica,sans-Serif" font-size="11.00" fill="#000000">text[2147483647]</text>
<polygon fill="none" stroke="#000000" points="10,-347.7 10,-369.7 199,-369.7 199,-347.7 10,-347.7"/>
<text text-anchor="start" x="30" y="-354.8" font-family="Helvetica,sans-Serif" font-size="11.00" fill="#000000">onderstroming</text>
<polygon fill="none" stroke="#000000" points="199,-347.7 199,-369.7 318,-369.7 318,-347.7 199,-347.7"/>
<text text-anchor="start" x="202" y="-355.4" font-family="Helvetica,sans-Serif" font-size="11.00" fill="#000000">text[2147483647]</text>
<polygon fill="none" stroke="#000000" points="10,-325.7 10,-347.7 199,-347.7 199,-325.7 10,-325.7"/>
<text text-anchor="start" x="30" y="-332.8" font-family="Helvetica,sans-Serif" font-size="11.00" fill="#000000">scheepvaart</text>
<polygon fill="none" stroke="#000000" points="199,-325.7 199,-347.7 318,-347.7 318,-325.7 199,-325.7"/>
<text text-anchor="start" x="202" y="-333.4" font-family="Helvetica,sans-Serif" font-size="11.00" fill="#000000">text[2147483647]</text>
<polygon fill="none" stroke="#000000" points="10,-303.7 10,-325.7 199,-325.7 199,-303.7 10,-303.7"/>
<text text-anchor="start" x="30" y="-310.8" font-family="Helvetica,sans-Serif" font-size="11.00" fill="#000000">stroomsnelheid</text>
<polygon fill="none" stroke="#000000" points="199,-303.7 199,-325.7 318,-325.7 318,-303.7 199,-303.7"/>
<text text-anchor="start" x="202" y="-311.4" font-family="Helvetica,sans-Serif" font-size="11.00" fill="#000000">text[2147483647]</text>
<polygon fill="none" stroke="#000000" points="10,-281.7 10,-303.7 199,-303.7 199,-281.7 10,-281.7"/>
<text text-anchor="start" x="30" y="-288.8" font-family="Helvetica,sans-Serif" font-size="11.00" fill="#000000">talud</text>
<polygon fill="none" stroke="#000000" points="199,-281.7 199,-303.7 318,-303.7 318,-281.7 199,-281.7"/>
<text text-anchor="start" x="202" y="-289.4" font-family="Helvetica,sans-Serif" font-size="11.00" fill="#000000">varchar[50]</text>
<polygon fill="none" stroke="#000000" points="10,-259.7 10,-281.7 199,-281.7 199,-259.7 10,-259.7"/>
<text text-anchor="start" x="30" y="-266.8" font-family="Helvetica,sans-Serif" font-size="11.00" fill="#000000">walhoogte</text>
<polygon fill="none" stroke="#000000" points="199,-259.7 199,-281.7 318,-281.7 318,-259.7 199,-259.7"/>
<text text-anchor="start" x="202" y="-267.4" font-family="Helvetica,sans-Serif" font-size="11.00" fill="#000000">text[2147483647]</text>
<polygon fill="none" stroke="#000000" points="10,-237.7 10,-259.7 199,-259.7 199,-237.7 10,-237.7"/>
<text text-anchor="start" x="30" y="-244.8" font-family="Helvetica,sans-Serif" font-size="11.00" fill="#000000">waterkwaliteit</text>
<polygon fill="none" stroke="#000000" points="199,-237.7 199,-259.7 318,-259.7 318,-237.7 199,-237.7"/>
<text text-anchor="start" x="202" y="-245.4" font-family="Helvetica,sans-Serif" font-size="11.00" fill="#000000">text[2147483647]</text>
<polygon fill="none" stroke="#000000" points="10,-215.7 10,-237.7 199,-237.7 199,-215.7 10,-215.7"/>
<text text-anchor="start" x="30" y="-222.8" font-family="Helvetica,sans-Serif" font-size="11.00" fill="#000000">waterstand</text>
<polygon fill="none" stroke="#000000" points="199,-215.7 199,-237.7 318,-237.7 318,-215.7 199,-215.7"/>
<text text-anchor="start" x="202" y="-223.4" font-family="Helvetica,sans-Serif" font-size="11.00" fill="#000000">text[2147483647]</text>
<polygon fill="none" stroke="#000000" points="10,-193.7 10,-215.7 199,-215.7 199,-193.7 10,-193.7"/>
<text text-anchor="start" x="30" y="-200.8" font-family="Helvetica,sans-Serif" font-size="11.00" fill="#000000">zicht</text>
<polygon fill="none" stroke="#000000" points="199,-193.7 199,-215.7 318,-215.7 318,-193.7 199,-193.7"/>
<text text-anchor="start" x="202" y="-201.4" font-family="Helvetica,sans-Serif" font-size="11.00" fill="#000000">text[2147483647]</text>
<polygon fill="none" stroke="#000000" points="10,-171.7 10,-193.7 199,-193.7 199,-171.7 10,-171.7"/>
<text text-anchor="start" x="30" y="-178.8" font-family="Helvetica,sans-Serif" font-size="11.00" fill="#000000">zicht_op_diepte</text>
<polygon fill="none" stroke="#000000" points="199,-171.7 199,-193.7 318,-193.7 318,-171.7 199,-171.7"/>
<text text-anchor="start" x="202" y="-179.4" font-family="Helvetica,sans-Serif" font-size="11.00" fill="#000000">text[2147483647]</text>
<polygon fill="none" stroke="#000000" points="10,-149.7 10,-171.7 199,-171.7 199,-149.7 10,-149.7"/>
<text text-anchor="start" x="30" y="-156.8" font-family="Helvetica,sans-Serif" font-size="11.00" fill="#000000">beheerder</text>
<polygon fill="none" stroke="#000000" points="199,-149.7 199,-171.7 318,-171.7 318,-149.7 199,-149.7"/>
<text text-anchor="start" x="202" y="-157.4" font-family="Helvetica,sans-Serif" font-size="11.00" fill="#000000">text[2147483647]</text>
<polygon fill="none" stroke="#000000" points="10,-127.7 10,-149.7 199,-149.7 199,-127.7 10,-127.7"/>
<text text-anchor="start" x="30" y="-134.8" font-family="Helvetica,sans-Serif" font-size="11.00" fill="#000000">marifoon</text>
<polygon fill="none" stroke="#000000" points="199,-127.7 199,-149.7 318,-149.7 318,-127.7 199,-127.7"/>
<text text-anchor="start" x="202" y="-135.4" font-family="Helvetica,sans-Serif" font-size="11.00" fill="#000000">text[2147483647]</text>
<polygon fill="none" stroke="#000000" points="10,-105.7 10,-127.7 199,-127.7 199,-105.7 10,-105.7"/>
<text text-anchor="start" x="30" y="-112.8" font-family="Helvetica,sans-Serif" font-size="11.00" fill="#000000">risico</text>
<polygon fill="none" stroke="#000000" points="199,-105.7 199,-127.7 318,-127.7 318,-105.7 199,-105.7"/>
<text text-anchor="start" x="202" y="-113.4" font-family="Helvetica,sans-Serif" font-size="11.00" fill="#000000">text[2147483647]</text>
<polygon fill="none" stroke="#000000" points="10,-83.7 10,-105.7 199,-105.7 199,-83.7 10,-83.7"/>
<text text-anchor="start" x="30" y="-90.8" font-family="Helvetica,sans-Serif" font-size="11.00" fill="#000000">werkinstructie_procedure</text>
<polygon fill="none" stroke="#000000" points="199,-83.7 199,-105.7 318,-105.7 318,-83.7 199,-83.7"/>
<text text-anchor="start" x="202" y="-91.4" font-family="Helvetica,sans-Serif" font-size="11.00" fill="#000000">text[2147483647]</text>
<polygon fill="none" stroke="#000000" points="10,-61.7 10,-83.7 199,-83.7 199,-61.7 10,-61.7"/>
<text text-anchor="start" x="30" y="-68.8" font-family="Helvetica,sans-Serif" font-size="11.00" fill="#000000">werkinstructie_tabel</text>
<polygon fill="none" stroke="#000000" points="199,-61.7 199,-83.7 318,-83.7 318,-61.7 199,-61.7"/>
<text text-anchor="start" x="202" y="-69.4" font-family="Helvetica,sans-Serif" font-size="11.00" fill="#000000">text[2147483647]</text>
<polygon fill="none" stroke="#000000" points="10,-39.7 10,-61.7 199,-61.7 199,-39.7 10,-39.7"/>
<text text-anchor="start" x="30" y="-46.8" font-family="Helvetica,sans-Serif" font-size="11.00" fill="#000000">bijzonderheden</text>
<polygon fill="none" stroke="#000000" points="199,-39.7 199,-61.7 318,-61.7 318,-39.7 199,-39.7"/>
<text text-anchor="start" x="202" y="-47.4" font-family="Helvetica,sans-Serif" font-size="11.00" fill="#000000">text[2147483647]</text>
<polygon fill="none" stroke="#000000" stroke-width="2" points="9,-39.2 9,-724.2 319,-724.2 319,-39.2 9,-39.2"/>
</a>
</g>
</g>
</g>
</svg>
