<?xml version="1.0" encoding="UTF-8" standalone="no"?>
<!DOCTYPE svg PUBLIC "-//W3C//DTD SVG 1.1//EN"
 "http://www.w3.org/Graphics/SVG/1.1/DTD/svg11.dtd">
<!-- Generated by graphviz version 2.40.1 (20161225.0304)
 -->
<!-- Title: oneDegreeRelationshipsDiagram Pages: 1 -->
<svg width="326pt" height="363pt"
 viewBox="0.00 0.00 326.00 363.20" xmlns="http://www.w3.org/2000/svg" xmlns:xlink="http://www.w3.org/1999/xlink">
<g id="graph0" class="graph" transform="scale(1 1) rotate(0) translate(4 359.2)">
<title>oneDegreeRelationshipsDiagram</title>
<polygon fill="#ffffff" stroke="transparent" points="-4,4 -4,-359.2 322,-359.2 322,4 -4,4"/>
<text text-anchor="middle" x="72.4936" y="-7.3" font-family="Helvetica,sans-Serif" font-size="11.00" fill="#000000">Generated by SchemaSpy</text>
<!-- roi_gebouw_geo_scheiding -->
<g id="node1" class="node">
<title>roi_gebouw_geo_scheiding</title>
<g id="a_node1"><a xlink:href="../../tables/roi_gebouw_geo_scheiding.html" xlink:title="roi_gebouw_geo_scheiding" target="_top">
<polygon fill="#ffffff" stroke="transparent" points="8,-38.2 8,-351.2 310,-351.2 310,-38.2 8,-38.2"/>
<polygon fill="#f5f5f5" stroke="transparent" points="10,-325.7 10,-348.7 308,-348.7 308,-325.7 10,-325.7"/>
<polygon fill="none" stroke="#000000" points="10,-325.7 10,-348.7 308,-348.7 308,-325.7 10,-325.7"/>
<text text-anchor="start" x="15" y="-334.3" font-family="Helvetica,sans-Serif" font-weight="bold" font-size="11.00" fill="#000000">roi_gebouw_geo_scheiding</text>
<text text-anchor="start" x="274.8895" y="-333.8" font-family="Helvetica,sans-Serif" font-size="11.00" fill="#000000">[view]</text>
<polygon fill="none" stroke="#000000" points="10,-303.7 10,-325.7 189,-325.7 189,-303.7 10,-303.7"/>
<text text-anchor="start" x="30" y="-310.8" font-family="Helvetica,sans-Serif" font-size="11.00" fill="#000000">uuid</text>
<polygon fill="none" stroke="#000000" points="189,-303.7 189,-325.7 308,-325.7 308,-303.7 189,-303.7"/>
<text text-anchor="start" x="192" y="-311.4" font-family="Helvetica,sans-Serif" font-size="11.00" fill="#000000">uuid[2147483647]</text>
<polygon fill="none" stroke="#000000" points="10,-281.7 10,-303.7 189,-303.7 189,-281.7 10,-281.7"/>
<text text-anchor="start" x="30" y="-288.8" font-family="Helvetica,sans-Serif" font-size="11.00" fill="#000000">geom</text>
<polygon fill="none" stroke="#000000" points="189,-281.7 189,-303.7 308,-303.7 308,-281.7 189,-281.7"/>
<text text-anchor="start" x="191.9485" y="-289.4" font-family="Helvetica,sans-Serif" font-size="11.00" fill="#000000">geometry[2147483647]</text>
<polygon fill="none" stroke="#000000" points="10,-259.7 10,-281.7 189,-281.7 189,-259.7 10,-259.7"/>
<text text-anchor="start" x="30" y="-266.8" font-family="Helvetica,sans-Serif" font-size="11.00" fill="#000000">datum</text>
<polygon fill="none" stroke="#000000" points="189,-259.7 189,-281.7 308,-281.7 308,-259.7 189,-259.7"/>
<text text-anchor="start" x="192" y="-267.4" font-family="Helvetica,sans-Serif" font-size="11.00" fill="#000000">text[2147483647]</text>
<polygon fill="none" stroke="#000000" points="10,-237.7 10,-259.7 189,-259.7 189,-237.7 10,-237.7"/>
<text text-anchor="start" x="30" y="-244.8" font-family="Helvetica,sans-Serif" font-size="11.00" fill="#000000">actualiteit</text>
<polygon fill="none" stroke="#000000" points="189,-237.7 189,-259.7 308,-259.7 308,-237.7 189,-237.7"/>
<text text-anchor="start" x="192" y="-245.4" font-family="Helvetica,sans-Serif" font-size="11.00" fill="#000000">numeric[0]</text>
<polygon fill="none" stroke="#000000" points="10,-215.7 10,-237.7 189,-237.7 189,-215.7 10,-215.7"/>
<text text-anchor="start" x="30" y="-222.8" font-family="Helvetica,sans-Serif" font-size="11.00" fill="#000000">type</text>
<polygon fill="none" stroke="#000000" points="189,-215.7 189,-237.7 308,-237.7 308,-215.7 189,-215.7"/>
<text text-anchor="start" x="192" y="-223.4" font-family="Helvetica,sans-Serif" font-size="11.00" fill="#000000">text[2147483647]</text>
<polygon fill="none" stroke="#000000" points="10,-193.7 10,-215.7 189,-215.7 189,-193.7 10,-193.7"/>
<text text-anchor="start" x="30" y="-200.8" font-family="Helvetica,sans-Serif" font-size="11.00" fill="#000000">scheiding_type_id</text>
<polygon fill="none" stroke="#000000" points="189,-193.7 189,-215.7 308,-215.7 308,-193.7 189,-193.7"/>
<text text-anchor="start" x="192" y="-201.4" font-family="Helvetica,sans-Serif" font-size="11.00" fill="#000000">int2[5]</text>
<polygon fill="none" stroke="#000000" points="10,-171.7 10,-193.7 189,-193.7 189,-171.7 10,-171.7"/>
<text text-anchor="start" x="30" y="-178.8" font-family="Helvetica,sans-Serif" font-size="11.00" fill="#000000">label</text>
<polygon fill="none" stroke="#000000" points="189,-171.7 189,-193.7 308,-193.7 308,-171.7 189,-171.7"/>
<text text-anchor="start" x="192" y="-179.4" font-family="Helvetica,sans-Serif" font-size="11.00" fill="#000000">text[2147483647]</text>
<polygon fill="none" stroke="#000000" points="10,-149.7 10,-171.7 189,-171.7 189,-149.7 10,-149.7"/>
<text text-anchor="start" x="30" y="-156.8" font-family="Helvetica,sans-Serif" font-size="11.00" fill="#000000">rotatie</text>
<polygon fill="none" stroke="#000000" points="189,-149.7 189,-171.7 308,-171.7 308,-149.7 189,-149.7"/>
<text text-anchor="start" x="192" y="-157.4" font-family="Helvetica,sans-Serif" font-size="11.00" fill="#000000">int4[10]</text>
<polygon fill="none" stroke="#000000" points="10,-127.7 10,-149.7 189,-149.7 189,-127.7 10,-127.7"/>
<text text-anchor="start" x="30" y="-134.8" font-family="Helvetica,sans-Serif" font-size="11.00" fill="#000000">bouwlaag</text>
<polygon fill="none" stroke="#000000" points="189,-127.7 189,-149.7 308,-149.7 308,-127.7 189,-127.7"/>
<text text-anchor="start" x="192" y="-135.4" font-family="Helvetica,sans-Serif" font-size="11.00" fill="#000000">int2[5]</text>
<polygon fill="none" stroke="#000000" points="10,-105.7 10,-127.7 189,-127.7 189,-105.7 10,-105.7"/>
<text text-anchor="start" x="30" y="-112.8" font-family="Helvetica,sans-Serif" font-size="11.00" fill="#000000">bijzonderheden</text>
<polygon fill="none" stroke="#000000" points="189,-105.7 189,-127.7 308,-127.7 308,-105.7 189,-105.7"/>
<text text-anchor="start" x="192" y="-113.4" font-family="Helvetica,sans-Serif" font-size="11.00" fill="#000000">text[2147483647]</text>
<polygon fill="none" stroke="#000000" points="10,-83.7 10,-105.7 189,-105.7 189,-83.7 10,-83.7"/>
<text text-anchor="start" x="30" y="-90.8" font-family="Helvetica,sans-Serif" font-size="11.00" fill="#000000">object_uuid</text>
<polygon fill="none" stroke="#000000" points="189,-83.7 189,-105.7 308,-105.7 308,-83.7 189,-83.7"/>
<text text-anchor="start" x="192" y="-91.4" font-family="Helvetica,sans-Serif" font-size="11.00" fill="#000000">uuid[2147483647]</text>
<polygon fill="none" stroke="#000000" points="10,-61.7 10,-83.7 189,-83.7 189,-61.7 10,-61.7"/>
<text text-anchor="start" x="30" y="-68.8" font-family="Helvetica,sans-Serif" font-size="11.00" fill="#000000">object_fase</text>
<polygon fill="none" stroke="#000000" points="189,-61.7 189,-83.7 308,-83.7 308,-61.7 189,-61.7"/>
<text text-anchor="start" x="192" y="-69.4" font-family="Helvetica,sans-Serif" font-size="11.00" fill="#000000">text[2147483647]</text>
<polygon fill="none" stroke="#000000" points="10,-39.7 10,-61.7 189,-61.7 189,-39.7 10,-39.7"/>
<text text-anchor="start" x="30" y="-46.8" font-family="Helvetica,sans-Serif" font-size="11.00" fill="#000000">object_actualiteit</text>
<polygon fill="none" stroke="#000000" points="189,-39.7 189,-61.7 308,-61.7 308,-39.7 189,-39.7"/>
<text text-anchor="start" x="192" y="-47.4" font-family="Helvetica,sans-Serif" font-size="11.00" fill="#000000">numeric[0]</text>
<polygon fill="none" stroke="#000000" stroke-width="2" points="9,-39.2 9,-350.2 309,-350.2 309,-39.2 9,-39.2"/>
</a>
</g>
</g>
</g>
</svg>
