<?xml version="1.0" encoding="UTF-8" standalone="no"?>
<!DOCTYPE svg PUBLIC "-//W3C//DTD SVG 1.1//EN"
 "http://www.w3.org/Graphics/SVG/1.1/DTD/svg11.dtd">
<!-- Generated by graphviz version 2.40.1 (20161225.0304)
 -->
<!-- Title: oneDegreeRelationshipsDiagram Pages: 1 -->
<svg width="298pt" height="319pt"
 viewBox="0.00 0.00 298.00 319.20" xmlns="http://www.w3.org/2000/svg" xmlns:xlink="http://www.w3.org/1999/xlink">
<g id="graph0" class="graph" transform="scale(1 1) rotate(0) translate(4 315.2)">
<title>oneDegreeRelationshipsDiagram</title>
<polygon fill="#ffffff" stroke="transparent" points="-4,4 -4,-315.2 294,-315.2 294,4 -4,4"/>
<text text-anchor="middle" x="72.4936" y="-7.3" font-family="Helvetica,sans-Serif" font-size="11.00" fill="#000000">Generated by SchemaSpy</text>
<!-- roi_gebouw_geo_pand -->
<g id="node1" class="node">
<title>roi_gebouw_geo_pand</title>
<g id="a_node1"><a xlink:href="../../tables/roi_gebouw_geo_pand.html" xlink:title="roi_gebouw_geo_pand" target="_top">
<polygon fill="#ffffff" stroke="transparent" points="8,-38.2 8,-307.2 282,-307.2 282,-38.2 8,-38.2"/>
<polygon fill="#f5f5f5" stroke="transparent" points="10,-281.7 10,-304.7 280,-304.7 280,-281.7 10,-281.7"/>
<polygon fill="none" stroke="#000000" points="10,-281.7 10,-304.7 280,-304.7 280,-281.7 10,-281.7"/>
<text text-anchor="start" x="15" y="-290.3" font-family="Helvetica,sans-Serif" font-weight="bold" font-size="11.00" fill="#000000">roi_gebouw_geo_pand</text>
<text text-anchor="start" x="246.8895" y="-289.8" font-family="Helvetica,sans-Serif" font-size="11.00" fill="#000000">[view]</text>
<polygon fill="none" stroke="#000000" points="10,-259.7 10,-281.7 161,-281.7 161,-259.7 10,-259.7"/>
<text text-anchor="start" x="30" y="-266.8" font-family="Helvetica,sans-Serif" font-size="11.00" fill="#000000">uuid</text>
<polygon fill="none" stroke="#000000" points="161,-259.7 161,-281.7 280,-281.7 280,-259.7 161,-259.7"/>
<text text-anchor="start" x="164" y="-267.4" font-family="Helvetica,sans-Serif" font-size="11.00" fill="#000000">uuid[2147483647]</text>
<polygon fill="none" stroke="#000000" points="10,-237.7 10,-259.7 161,-259.7 161,-237.7 10,-237.7"/>
<text text-anchor="start" x="30" y="-244.8" font-family="Helvetica,sans-Serif" font-size="11.00" fill="#000000">geom</text>
<polygon fill="none" stroke="#000000" points="161,-237.7 161,-259.7 280,-259.7 280,-237.7 161,-237.7"/>
<text text-anchor="start" x="163.9485" y="-245.4" font-family="Helvetica,sans-Serif" font-size="11.00" fill="#000000">geometry[2147483647]</text>
<polygon fill="none" stroke="#000000" points="10,-215.7 10,-237.7 161,-237.7 161,-215.7 10,-215.7"/>
<text text-anchor="start" x="30" y="-222.8" font-family="Helvetica,sans-Serif" font-size="11.00" fill="#000000">datum</text>
<polygon fill="none" stroke="#000000" points="161,-215.7 161,-237.7 280,-237.7 280,-215.7 161,-215.7"/>
<text text-anchor="start" x="164" y="-223.4" font-family="Helvetica,sans-Serif" font-size="11.00" fill="#000000">text[2147483647]</text>
<polygon fill="none" stroke="#000000" points="10,-193.7 10,-215.7 161,-215.7 161,-193.7 10,-193.7"/>
<text text-anchor="start" x="30" y="-200.8" font-family="Helvetica,sans-Serif" font-size="11.00" fill="#000000">actualiteit</text>
<polygon fill="none" stroke="#000000" points="161,-193.7 161,-215.7 280,-215.7 280,-193.7 161,-193.7"/>
<text text-anchor="start" x="164" y="-201.4" font-family="Helvetica,sans-Serif" font-size="11.00" fill="#000000">numeric[0]</text>
<polygon fill="none" stroke="#000000" points="10,-171.7 10,-193.7 161,-193.7 161,-171.7 10,-171.7"/>
<text text-anchor="start" x="30" y="-178.8" font-family="Helvetica,sans-Serif" font-size="11.00" fill="#000000">label</text>
<polygon fill="none" stroke="#000000" points="161,-171.7 161,-193.7 280,-193.7 280,-171.7 161,-171.7"/>
<text text-anchor="start" x="164" y="-179.4" font-family="Helvetica,sans-Serif" font-size="11.00" fill="#000000">text[2147483647]</text>
<polygon fill="none" stroke="#000000" points="10,-149.7 10,-171.7 161,-171.7 161,-149.7 10,-149.7"/>
<text text-anchor="start" x="30" y="-156.8" font-family="Helvetica,sans-Serif" font-size="11.00" fill="#000000">bouwlaag</text>
<polygon fill="none" stroke="#000000" points="161,-149.7 161,-171.7 280,-171.7 280,-149.7 161,-149.7"/>
<text text-anchor="start" x="164" y="-157.4" font-family="Helvetica,sans-Serif" font-size="11.00" fill="#000000">int2[5]</text>
<polygon fill="none" stroke="#000000" points="10,-127.7 10,-149.7 161,-149.7 161,-127.7 10,-127.7"/>
<text text-anchor="start" x="30" y="-134.8" font-family="Helvetica,sans-Serif" font-size="11.00" fill="#000000">bouwdeel</text>
<polygon fill="none" stroke="#000000" points="161,-127.7 161,-149.7 280,-149.7 280,-127.7 161,-127.7"/>
<text text-anchor="start" x="164" y="-135.4" font-family="Helvetica,sans-Serif" font-size="11.00" fill="#000000">text[2147483647]</text>
<polygon fill="none" stroke="#000000" points="10,-105.7 10,-127.7 161,-127.7 161,-105.7 10,-105.7"/>
<text text-anchor="start" x="30" y="-112.8" font-family="Helvetica,sans-Serif" font-size="11.00" fill="#000000">bijzonderheden</text>
<polygon fill="none" stroke="#000000" points="161,-105.7 161,-127.7 280,-127.7 280,-105.7 161,-105.7"/>
<text text-anchor="start" x="164" y="-113.4" font-family="Helvetica,sans-Serif" font-size="11.00" fill="#000000">text[2147483647]</text>
<polygon fill="none" stroke="#000000" points="10,-83.7 10,-105.7 161,-105.7 161,-83.7 10,-83.7"/>
<text text-anchor="start" x="30" y="-90.8" font-family="Helvetica,sans-Serif" font-size="11.00" fill="#000000">object_uuid</text>
<polygon fill="none" stroke="#000000" points="161,-83.7 161,-105.7 280,-105.7 280,-83.7 161,-83.7"/>
<text text-anchor="start" x="164" y="-91.4" font-family="Helvetica,sans-Serif" font-size="11.00" fill="#000000">uuid[2147483647]</text>
<polygon fill="none" stroke="#000000" points="10,-61.7 10,-83.7 161,-83.7 161,-61.7 10,-61.7"/>
<text text-anchor="start" x="30" y="-68.8" font-family="Helvetica,sans-Serif" font-size="11.00" fill="#000000">object_fase</text>
<polygon fill="none" stroke="#000000" points="161,-61.7 161,-83.7 280,-83.7 280,-61.7 161,-61.7"/>
<text text-anchor="start" x="164" y="-69.4" font-family="Helvetica,sans-Serif" font-size="11.00" fill="#000000">text[2147483647]</text>
<polygon fill="none" stroke="#000000" points="10,-39.7 10,-61.7 161,-61.7 161,-39.7 10,-39.7"/>
<text text-anchor="start" x="30" y="-46.8" font-family="Helvetica,sans-Serif" font-size="11.00" fill="#000000">object_actualiteit</text>
<polygon fill="none" stroke="#000000" points="161,-39.7 161,-61.7 280,-61.7 280,-39.7 161,-39.7"/>
<text text-anchor="start" x="164" y="-47.4" font-family="Helvetica,sans-Serif" font-size="11.00" fill="#000000">numeric[0]</text>
<polygon fill="none" stroke="#000000" stroke-width="2" points="9,-39.2 9,-306.2 281,-306.2 281,-39.2 9,-39.2"/>
</a>
</g>
</g>
</g>
</svg>
