<?xml version="1.0" encoding="UTF-8" standalone="no"?>
<!DOCTYPE svg PUBLIC "-//W3C//DTD SVG 1.1//EN"
 "http://www.w3.org/Graphics/SVG/1.1/DTD/svg11.dtd">
<!-- Generated by graphviz version 2.40.1 (20161225.0304)
 -->
<!-- Title: oneDegreeRelationshipsDiagram Pages: 1 -->
<svg width="348pt" height="275pt"
 viewBox="0.00 0.00 348.00 275.20" xmlns="http://www.w3.org/2000/svg" xmlns:xlink="http://www.w3.org/1999/xlink">
<g id="graph0" class="graph" transform="scale(1 1) rotate(0) translate(4 271.2)">
<title>oneDegreeRelationshipsDiagram</title>
<polygon fill="#ffffff" stroke="transparent" points="-4,4 -4,-271.2 344,-271.2 344,4 -4,4"/>
<text text-anchor="middle" x="72.4936" y="-7.3" font-family="Helvetica,sans-Serif" font-size="11.00" fill="#000000">Generated by SchemaSpy</text>
<!-- roi_bluswater_geo_voorziening -->
<g id="node1" class="node">
<title>roi_bluswater_geo_voorziening</title>
<g id="a_node1"><a xlink:href="../../tables/roi_bluswater_geo_voorziening.html" xlink:title="roi_bluswater_geo_voorziening" target="_top">
<polygon fill="#ffffff" stroke="transparent" points="8,-38.2 8,-263.2 332,-263.2 332,-38.2 8,-38.2"/>
<polygon fill="#f5f5f5" stroke="transparent" points="10,-237.7 10,-260.7 330,-260.7 330,-237.7 10,-237.7"/>
<polygon fill="none" stroke="#000000" points="10,-237.7 10,-260.7 330,-260.7 330,-237.7 10,-237.7"/>
<text text-anchor="start" x="15" y="-246.3" font-family="Helvetica,sans-Serif" font-weight="bold" font-size="11.00" fill="#000000">roi_bluswater_geo_voorziening</text>
<text text-anchor="start" x="296.8895" y="-245.8" font-family="Helvetica,sans-Serif" font-size="11.00" fill="#000000">[view]</text>
<polygon fill="none" stroke="#000000" points="10,-215.7 10,-237.7 211,-237.7 211,-215.7 10,-215.7"/>
<text text-anchor="start" x="30" y="-222.8" font-family="Helvetica,sans-Serif" font-size="11.00" fill="#000000">uuid</text>
<polygon fill="none" stroke="#000000" points="211,-215.7 211,-237.7 330,-237.7 330,-215.7 211,-215.7"/>
<text text-anchor="start" x="214" y="-223.4" font-family="Helvetica,sans-Serif" font-size="11.00" fill="#000000">uuid[2147483647]</text>
<polygon fill="none" stroke="#000000" points="10,-193.7 10,-215.7 211,-215.7 211,-193.7 10,-193.7"/>
<text text-anchor="start" x="30" y="-200.8" font-family="Helvetica,sans-Serif" font-size="11.00" fill="#000000">geom</text>
<polygon fill="none" stroke="#000000" points="211,-193.7 211,-215.7 330,-215.7 330,-193.7 211,-193.7"/>
<text text-anchor="start" x="213.9485" y="-201.4" font-family="Helvetica,sans-Serif" font-size="11.00" fill="#000000">geometry[2147483647]</text>
<polygon fill="none" stroke="#000000" points="10,-171.7 10,-193.7 211,-193.7 211,-171.7 10,-171.7"/>
<text text-anchor="start" x="30" y="-178.8" font-family="Helvetica,sans-Serif" font-size="11.00" fill="#000000">datum</text>
<polygon fill="none" stroke="#000000" points="211,-171.7 211,-193.7 330,-193.7 330,-171.7 211,-171.7"/>
<text text-anchor="start" x="214" y="-179.4" font-family="Helvetica,sans-Serif" font-size="11.00" fill="#000000">text[2147483647]</text>
<polygon fill="none" stroke="#000000" points="10,-149.7 10,-171.7 211,-171.7 211,-149.7 10,-149.7"/>
<text text-anchor="start" x="30" y="-156.8" font-family="Helvetica,sans-Serif" font-size="11.00" fill="#000000">actualiteit</text>
<polygon fill="none" stroke="#000000" points="211,-149.7 211,-171.7 330,-171.7 330,-149.7 211,-149.7"/>
<text text-anchor="start" x="214" y="-157.4" font-family="Helvetica,sans-Serif" font-size="11.00" fill="#000000">numeric[0]</text>
<polygon fill="none" stroke="#000000" points="10,-127.7 10,-149.7 211,-149.7 211,-127.7 10,-127.7"/>
<text text-anchor="start" x="30" y="-134.8" font-family="Helvetica,sans-Serif" font-size="11.00" fill="#000000">symbool</text>
<polygon fill="none" stroke="#000000" points="211,-127.7 211,-149.7 330,-149.7 330,-127.7 211,-127.7"/>
<text text-anchor="start" x="214" y="-135.4" font-family="Helvetica,sans-Serif" font-size="11.00" fill="#000000">text[2147483647]</text>
<polygon fill="none" stroke="#000000" points="10,-105.7 10,-127.7 211,-127.7 211,-105.7 10,-105.7"/>
<text text-anchor="start" x="30" y="-112.8" font-family="Helvetica,sans-Serif" font-size="11.00" fill="#000000">symbool_id</text>
<polygon fill="none" stroke="#000000" points="211,-105.7 211,-127.7 330,-127.7 330,-105.7 211,-105.7"/>
<text text-anchor="start" x="214" y="-113.4" font-family="Helvetica,sans-Serif" font-size="11.00" fill="#000000">int4[10]</text>
<polygon fill="none" stroke="#000000" points="10,-83.7 10,-105.7 211,-105.7 211,-83.7 10,-83.7"/>
<text text-anchor="start" x="30" y="-90.8" font-family="Helvetica,sans-Serif" font-size="11.00" fill="#000000">label</text>
<polygon fill="none" stroke="#000000" points="211,-83.7 211,-105.7 330,-105.7 330,-83.7 211,-83.7"/>
<text text-anchor="start" x="214" y="-91.4" font-family="Helvetica,sans-Serif" font-size="11.00" fill="#000000">text[2147483647]</text>
<polygon fill="none" stroke="#000000" points="10,-61.7 10,-83.7 211,-83.7 211,-61.7 10,-61.7"/>
<text text-anchor="start" x="30" y="-68.8" font-family="Helvetica,sans-Serif" font-size="11.00" fill="#000000">rotatie</text>
<polygon fill="none" stroke="#000000" points="211,-61.7 211,-83.7 330,-83.7 330,-61.7 211,-61.7"/>
<text text-anchor="start" x="214" y="-69.4" font-family="Helvetica,sans-Serif" font-size="11.00" fill="#000000">int4[10]</text>
<polygon fill="none" stroke="#000000" points="10,-39.7 10,-61.7 211,-61.7 211,-39.7 10,-39.7"/>
<text text-anchor="start" x="30" y="-46.8" font-family="Helvetica,sans-Serif" font-size="11.00" fill="#000000">bijzonderheden</text>
<polygon fill="none" stroke="#000000" points="211,-39.7 211,-61.7 330,-61.7 330,-39.7 211,-39.7"/>
<text text-anchor="start" x="214" y="-47.4" font-family="Helvetica,sans-Serif" font-size="11.00" fill="#000000">text[2147483647]</text>
<polygon fill="none" stroke="#000000" stroke-width="2" points="9,-39.2 9,-262.2 331,-262.2 331,-39.2 9,-39.2"/>
</a>
</g>
</g>
</g>
</svg>
