<?xml version="1.0" encoding="UTF-8" standalone="no"?>
<!DOCTYPE svg PUBLIC "-//W3C//DTD SVG 1.1//EN"
 "http://www.w3.org/Graphics/SVG/1.1/DTD/svg11.dtd">
<!-- Generated by graphviz version 2.40.1 (20161225.0304)
 -->
<!-- Title: oneDegreeRelationshipsDiagram Pages: 1 -->
<svg width="388pt" height="869pt"
 viewBox="0.00 0.00 388.00 869.20" xmlns="http://www.w3.org/2000/svg" xmlns:xlink="http://www.w3.org/1999/xlink">
<g id="graph0" class="graph" transform="scale(1 1) rotate(0) translate(4 865.2)">
<title>oneDegreeRelationshipsDiagram</title>
<polygon fill="#ffffff" stroke="transparent" points="-4,4 -4,-865.2 384,-865.2 384,4 -4,4"/>
<text text-anchor="middle" x="72.4936" y="-7.3" font-family="Helvetica,sans-Serif" font-size="11.00" fill="#000000">Generated by SchemaSpy</text>
<!-- roi_bluswater_geo_openwater -->
<g id="node1" class="node">
<title>roi_bluswater_geo_openwater</title>
<g id="a_node1"><a xlink:href="../../tables/roi_bluswater_geo_openwater.html" xlink:title="roi_bluswater_geo_openwater" target="_top">
<polygon fill="#ffffff" stroke="transparent" points="8,-38.2 8,-857.2 372,-857.2 372,-38.2 8,-38.2"/>
<polygon fill="#f5f5f5" stroke="transparent" points="10,-831.7 10,-854.7 370,-854.7 370,-831.7 10,-831.7"/>
<polygon fill="none" stroke="#000000" points="10,-831.7 10,-854.7 370,-854.7 370,-831.7 10,-831.7"/>
<text text-anchor="start" x="15" y="-840.3" font-family="Helvetica,sans-Serif" font-weight="bold" font-size="11.00" fill="#000000">roi_bluswater_geo_openwater</text>
<text text-anchor="start" x="336.8895" y="-839.8" font-family="Helvetica,sans-Serif" font-size="11.00" fill="#000000">[view]</text>
<polygon fill="none" stroke="#000000" points="10,-809.7 10,-831.7 251,-831.7 251,-809.7 10,-809.7"/>
<text text-anchor="start" x="30" y="-816.8" font-family="Helvetica,sans-Serif" font-size="11.00" fill="#000000">uuid</text>
<polygon fill="none" stroke="#000000" points="251,-809.7 251,-831.7 370,-831.7 370,-809.7 251,-809.7"/>
<text text-anchor="start" x="254" y="-817.4" font-family="Helvetica,sans-Serif" font-size="11.00" fill="#000000">uuid[2147483647]</text>
<polygon fill="none" stroke="#000000" points="10,-787.7 10,-809.7 251,-809.7 251,-787.7 10,-787.7"/>
<text text-anchor="start" x="30" y="-794.8" font-family="Helvetica,sans-Serif" font-size="11.00" fill="#000000">geom</text>
<polygon fill="none" stroke="#000000" points="251,-787.7 251,-809.7 370,-809.7 370,-787.7 251,-787.7"/>
<text text-anchor="start" x="253.9485" y="-795.4" font-family="Helvetica,sans-Serif" font-size="11.00" fill="#000000">geometry[2147483647]</text>
<polygon fill="none" stroke="#000000" points="10,-765.7 10,-787.7 251,-787.7 251,-765.7 10,-765.7"/>
<text text-anchor="start" x="30" y="-772.8" font-family="Helvetica,sans-Serif" font-size="11.00" fill="#000000">datum</text>
<polygon fill="none" stroke="#000000" points="251,-765.7 251,-787.7 370,-787.7 370,-765.7 251,-765.7"/>
<text text-anchor="start" x="254" y="-773.4" font-family="Helvetica,sans-Serif" font-size="11.00" fill="#000000">text[2147483647]</text>
<polygon fill="none" stroke="#000000" points="10,-743.7 10,-765.7 251,-765.7 251,-743.7 10,-743.7"/>
<text text-anchor="start" x="30" y="-750.8" font-family="Helvetica,sans-Serif" font-size="11.00" fill="#000000">actualiteit</text>
<polygon fill="none" stroke="#000000" points="251,-743.7 251,-765.7 370,-765.7 370,-743.7 251,-743.7"/>
<text text-anchor="start" x="254" y="-751.4" font-family="Helvetica,sans-Serif" font-size="11.00" fill="#000000">numeric[0]</text>
<polygon fill="none" stroke="#000000" points="10,-721.7 10,-743.7 251,-743.7 251,-721.7 10,-721.7"/>
<text text-anchor="start" x="30" y="-728.8" font-family="Helvetica,sans-Serif" font-size="11.00" fill="#000000">conditie</text>
<polygon fill="none" stroke="#000000" points="251,-721.7 251,-743.7 370,-743.7 370,-721.7 251,-721.7"/>
<text text-anchor="start" x="254" y="-729.4" font-family="Helvetica,sans-Serif" font-size="11.00" fill="#000000">text[2147483647]</text>
<polygon fill="none" stroke="#000000" points="10,-699.7 10,-721.7 251,-721.7 251,-699.7 10,-699.7"/>
<text text-anchor="start" x="30" y="-706.8" font-family="Helvetica,sans-Serif" font-size="11.00" fill="#000000">fase</text>
<polygon fill="none" stroke="#000000" points="251,-699.7 251,-721.7 370,-721.7 370,-699.7 251,-699.7"/>
<text text-anchor="start" x="254" y="-707.4" font-family="Helvetica,sans-Serif" font-size="11.00" fill="#000000">text[2147483647]</text>
<polygon fill="none" stroke="#000000" points="10,-677.7 10,-699.7 251,-699.7 251,-677.7 10,-677.7"/>
<text text-anchor="start" x="30" y="-684.8" font-family="Helvetica,sans-Serif" font-size="11.00" fill="#000000">gebied</text>
<polygon fill="none" stroke="#000000" points="251,-677.7 251,-699.7 370,-699.7 370,-677.7 251,-677.7"/>
<text text-anchor="start" x="254" y="-685.4" font-family="Helvetica,sans-Serif" font-size="11.00" fill="#000000">text[2147483647]</text>
<polygon fill="none" stroke="#000000" points="10,-655.7 10,-677.7 251,-677.7 251,-655.7 10,-655.7"/>
<text text-anchor="start" x="30" y="-662.8" font-family="Helvetica,sans-Serif" font-size="11.00" fill="#000000">symbool</text>
<polygon fill="none" stroke="#000000" points="251,-655.7 251,-677.7 370,-677.7 370,-655.7 251,-655.7"/>
<text text-anchor="start" x="254" y="-663.4" font-family="Helvetica,sans-Serif" font-size="11.00" fill="#000000">text[2147483647]</text>
<polygon fill="none" stroke="#000000" points="10,-633.7 10,-655.7 251,-655.7 251,-633.7 10,-633.7"/>
<text text-anchor="start" x="30" y="-640.8" font-family="Helvetica,sans-Serif" font-size="11.00" fill="#000000">symbool_id</text>
<polygon fill="none" stroke="#000000" points="251,-633.7 251,-655.7 370,-655.7 370,-633.7 251,-633.7"/>
<text text-anchor="start" x="254" y="-641.4" font-family="Helvetica,sans-Serif" font-size="11.00" fill="#000000">int2[5]</text>
<polygon fill="none" stroke="#000000" points="10,-611.7 10,-633.7 251,-633.7 251,-611.7 10,-611.7"/>
<text text-anchor="start" x="30" y="-618.8" font-family="Helvetica,sans-Serif" font-size="11.00" fill="#000000">label</text>
<polygon fill="none" stroke="#000000" points="251,-611.7 251,-633.7 370,-633.7 370,-611.7 251,-611.7"/>
<text text-anchor="start" x="254" y="-619.4" font-family="Helvetica,sans-Serif" font-size="11.00" fill="#000000">text[2147483647]</text>
<polygon fill="none" stroke="#000000" points="10,-589.7 10,-611.7 251,-611.7 251,-589.7 10,-589.7"/>
<text text-anchor="start" x="30" y="-596.8" font-family="Helvetica,sans-Serif" font-size="11.00" fill="#000000">bijzonderheden</text>
<polygon fill="none" stroke="#000000" points="251,-589.7 251,-611.7 370,-611.7 370,-589.7 251,-589.7"/>
<text text-anchor="start" x="254" y="-597.4" font-family="Helvetica,sans-Serif" font-size="11.00" fill="#000000">text[2147483647]</text>
<polygon fill="none" stroke="#000000" points="10,-567.7 10,-589.7 251,-589.7 251,-567.7 10,-567.7"/>
<text text-anchor="start" x="30" y="-574.8" font-family="Helvetica,sans-Serif" font-size="11.00" fill="#000000">aanleg</text>
<polygon fill="none" stroke="#000000" points="251,-567.7 251,-589.7 370,-589.7 370,-567.7 251,-567.7"/>
<text text-anchor="start" x="254" y="-575.4" font-family="Helvetica,sans-Serif" font-size="11.00" fill="#000000">date[13]</text>
<polygon fill="none" stroke="#000000" points="10,-545.7 10,-567.7 251,-567.7 251,-545.7 10,-545.7"/>
<text text-anchor="start" x="30" y="-552.8" font-family="Helvetica,sans-Serif" font-size="11.00" fill="#000000">code</text>
<polygon fill="none" stroke="#000000" points="251,-545.7 251,-567.7 370,-567.7 370,-545.7 251,-545.7"/>
<text text-anchor="start" x="254" y="-553.4" font-family="Helvetica,sans-Serif" font-size="11.00" fill="#000000">text[2147483647]</text>
<polygon fill="none" stroke="#000000" points="10,-523.7 10,-545.7 251,-545.7 251,-523.7 10,-523.7"/>
<text text-anchor="start" x="30" y="-530.8" font-family="Helvetica,sans-Serif" font-size="11.00" fill="#000000">beheerder</text>
<polygon fill="none" stroke="#000000" points="251,-523.7 251,-545.7 370,-545.7 370,-523.7 251,-523.7"/>
<text text-anchor="start" x="254" y="-531.4" font-family="Helvetica,sans-Serif" font-size="11.00" fill="#000000">text[2147483647]</text>
<polygon fill="none" stroke="#000000" points="10,-501.7 10,-523.7 251,-523.7 251,-501.7 10,-501.7"/>
<text text-anchor="start" x="30" y="-508.8" font-family="Helvetica,sans-Serif" font-size="11.00" fill="#000000">particulier</text>
<polygon fill="none" stroke="#000000" points="251,-501.7 251,-523.7 370,-523.7 370,-501.7 251,-501.7"/>
<text text-anchor="start" x="254" y="-509.4" font-family="Helvetica,sans-Serif" font-size="11.00" fill="#000000">text[2147483647]</text>
<polygon fill="none" stroke="#000000" points="10,-479.7 10,-501.7 251,-501.7 251,-479.7 10,-479.7"/>
<text text-anchor="start" x="30" y="-486.8" font-family="Helvetica,sans-Serif" font-size="11.00" fill="#000000">adres</text>
<polygon fill="none" stroke="#000000" points="251,-479.7 251,-501.7 370,-501.7 370,-479.7 251,-479.7"/>
<text text-anchor="start" x="254" y="-487.4" font-family="Helvetica,sans-Serif" font-size="11.00" fill="#000000">text[2147483647]</text>
<polygon fill="none" stroke="#000000" points="10,-457.7 10,-479.7 251,-479.7 251,-457.7 10,-457.7"/>
<text text-anchor="start" x="30" y="-464.8" font-family="Helvetica,sans-Serif" font-size="11.00" fill="#000000">revisie_frequentie</text>
<polygon fill="none" stroke="#000000" points="251,-457.7 251,-479.7 370,-479.7 370,-457.7 251,-457.7"/>
<text text-anchor="start" x="254" y="-465.4" font-family="Helvetica,sans-Serif" font-size="11.00" fill="#000000">int2[5]</text>
<polygon fill="none" stroke="#000000" points="10,-435.7 10,-457.7 251,-457.7 251,-435.7 10,-435.7"/>
<text text-anchor="start" x="30" y="-442.8" font-family="Helvetica,sans-Serif" font-size="11.00" fill="#000000">opstelplaats</text>
<polygon fill="none" stroke="#000000" points="251,-435.7 251,-457.7 370,-457.7 370,-435.7 251,-435.7"/>
<text text-anchor="start" x="254" y="-443.4" font-family="Helvetica,sans-Serif" font-size="11.00" fill="#000000">bool[1]</text>
<polygon fill="none" stroke="#000000" points="10,-413.7 10,-435.7 251,-435.7 251,-413.7 10,-413.7"/>
<text text-anchor="start" x="30" y="-420.8" font-family="Helvetica,sans-Serif" font-size="11.00" fill="#000000">opstelplaats_locatie</text>
<polygon fill="none" stroke="#000000" points="251,-413.7 251,-435.7 370,-435.7 370,-413.7 251,-413.7"/>
<text text-anchor="start" x="254" y="-421.4" font-family="Helvetica,sans-Serif" font-size="11.00" fill="#000000">text[2147483647]</text>
<polygon fill="none" stroke="#000000" points="10,-391.7 10,-413.7 251,-413.7 251,-391.7 10,-391.7"/>
<text text-anchor="start" x="30" y="-398.8" font-family="Helvetica,sans-Serif" font-size="11.00" fill="#000000">opstelplaats_waterdiepte</text>
<polygon fill="none" stroke="#000000" points="251,-391.7 251,-413.7 370,-413.7 370,-391.7 251,-391.7"/>
<text text-anchor="start" x="254" y="-399.4" font-family="Helvetica,sans-Serif" font-size="11.00" fill="#000000">numeric[0]</text>
<polygon fill="none" stroke="#000000" points="10,-369.7 10,-391.7 251,-391.7 251,-369.7 10,-369.7"/>
<text text-anchor="start" x="30" y="-376.8" font-family="Helvetica,sans-Serif" font-size="11.00" fill="#000000">markering</text>
<polygon fill="none" stroke="#000000" points="251,-369.7 251,-391.7 370,-391.7 370,-369.7 251,-369.7"/>
<text text-anchor="start" x="254" y="-377.4" font-family="Helvetica,sans-Serif" font-size="11.00" fill="#000000">text[2147483647]</text>
<polygon fill="none" stroke="#000000" points="10,-347.7 10,-369.7 251,-369.7 251,-347.7 10,-347.7"/>
<text text-anchor="start" x="30" y="-354.8" font-family="Helvetica,sans-Serif" font-size="11.00" fill="#000000">toegang</text>
<polygon fill="none" stroke="#000000" points="251,-347.7 251,-369.7 370,-369.7 370,-347.7 251,-347.7"/>
<text text-anchor="start" x="254" y="-355.4" font-family="Helvetica,sans-Serif" font-size="11.00" fill="#000000">text[2147483647]</text>
<polygon fill="none" stroke="#000000" points="10,-325.7 10,-347.7 251,-347.7 251,-325.7 10,-325.7"/>
<text text-anchor="start" x="30" y="-332.8" font-family="Helvetica,sans-Serif" font-size="11.00" fill="#000000">oever</text>
<polygon fill="none" stroke="#000000" points="251,-325.7 251,-347.7 370,-347.7 370,-325.7 251,-325.7"/>
<text text-anchor="start" x="254" y="-333.4" font-family="Helvetica,sans-Serif" font-size="11.00" fill="#000000">text[2147483647]</text>
<polygon fill="none" stroke="#000000" points="10,-303.7 10,-325.7 251,-325.7 251,-303.7 10,-303.7"/>
<text text-anchor="start" x="30" y="-310.8" font-family="Helvetica,sans-Serif" font-size="11.00" fill="#000000">bodem</text>
<polygon fill="none" stroke="#000000" points="251,-303.7 251,-325.7 370,-325.7 370,-303.7 251,-303.7"/>
<text text-anchor="start" x="254" y="-311.4" font-family="Helvetica,sans-Serif" font-size="11.00" fill="#000000">text[2147483647]</text>
<polygon fill="none" stroke="#000000" points="10,-281.7 10,-303.7 251,-303.7 251,-281.7 10,-281.7"/>
<text text-anchor="start" x="30" y="-288.8" font-family="Helvetica,sans-Serif" font-size="11.00" fill="#000000">open_verbinding</text>
<polygon fill="none" stroke="#000000" points="251,-281.7 251,-303.7 370,-303.7 370,-281.7 251,-281.7"/>
<text text-anchor="start" x="254" y="-289.4" font-family="Helvetica,sans-Serif" font-size="11.00" fill="#000000">bool[1]</text>
<polygon fill="none" stroke="#000000" points="10,-259.7 10,-281.7 251,-281.7 251,-259.7 10,-259.7"/>
<text text-anchor="start" x="30" y="-266.8" font-family="Helvetica,sans-Serif" font-size="11.00" fill="#000000">voertuig</text>
<polygon fill="none" stroke="#000000" points="251,-259.7 251,-281.7 370,-281.7 370,-259.7 251,-259.7"/>
<text text-anchor="start" x="254" y="-267.4" font-family="Helvetica,sans-Serif" font-size="11.00" fill="#000000">text[2147483647]</text>
<polygon fill="none" stroke="#000000" points="10,-237.7 10,-259.7 251,-259.7 251,-237.7 10,-237.7"/>
<text text-anchor="start" x="30" y="-244.8" font-family="Helvetica,sans-Serif" font-size="11.00" fill="#000000">inspecteur</text>
<polygon fill="none" stroke="#000000" points="251,-237.7 251,-259.7 370,-259.7 370,-237.7 251,-237.7"/>
<text text-anchor="start" x="254" y="-245.4" font-family="Helvetica,sans-Serif" font-size="11.00" fill="#000000">text[2147483647]</text>
<polygon fill="none" stroke="#000000" points="10,-215.7 10,-237.7 251,-237.7 251,-215.7 10,-215.7"/>
<text text-anchor="start" x="30" y="-222.8" font-family="Helvetica,sans-Serif" font-size="11.00" fill="#000000">inspectie_datum</text>
<polygon fill="none" stroke="#000000" points="251,-215.7 251,-237.7 370,-237.7 370,-215.7 251,-215.7"/>
<text text-anchor="start" x="254" y="-223.4" font-family="Helvetica,sans-Serif" font-size="11.00" fill="#000000">date[13]</text>
<polygon fill="none" stroke="#000000" points="10,-193.7 10,-215.7 251,-215.7 251,-193.7 10,-193.7"/>
<text text-anchor="start" x="30" y="-200.8" font-family="Helvetica,sans-Serif" font-size="11.00" fill="#000000">inspectie_opmerking</text>
<polygon fill="none" stroke="#000000" points="251,-193.7 251,-215.7 370,-215.7 370,-193.7 251,-193.7"/>
<text text-anchor="start" x="254" y="-201.4" font-family="Helvetica,sans-Serif" font-size="11.00" fill="#000000">text[2147483647]</text>
<polygon fill="none" stroke="#000000" points="10,-171.7 10,-193.7 251,-193.7 251,-171.7 10,-171.7"/>
<text text-anchor="start" x="30" y="-178.8" font-family="Helvetica,sans-Serif" font-size="11.00" fill="#000000">inspectie_conditie_id</text>
<polygon fill="none" stroke="#000000" points="251,-171.7 251,-193.7 370,-193.7 370,-171.7 251,-171.7"/>
<text text-anchor="start" x="254" y="-179.4" font-family="Helvetica,sans-Serif" font-size="11.00" fill="#000000">int2[5]</text>
<polygon fill="none" stroke="#000000" points="10,-149.7 10,-171.7 251,-171.7 251,-149.7 10,-149.7"/>
<text text-anchor="start" x="30" y="-156.8" font-family="Helvetica,sans-Serif" font-size="11.00" fill="#000000">inspectie_opstelplaats</text>
<polygon fill="none" stroke="#000000" points="251,-149.7 251,-171.7 370,-171.7 370,-149.7 251,-149.7"/>
<text text-anchor="start" x="254" y="-157.4" font-family="Helvetica,sans-Serif" font-size="11.00" fill="#000000">text[2147483647]</text>
<polygon fill="none" stroke="#000000" points="10,-127.7 10,-149.7 251,-149.7 251,-127.7 10,-127.7"/>
<text text-anchor="start" x="30" y="-134.8" font-family="Helvetica,sans-Serif" font-size="11.00" fill="#000000">inspectie_opstelplaats_bereikbaarheid</text>
<polygon fill="none" stroke="#000000" points="251,-127.7 251,-149.7 370,-149.7 370,-127.7 251,-127.7"/>
<text text-anchor="start" x="254" y="-135.4" font-family="Helvetica,sans-Serif" font-size="11.00" fill="#000000">text[2147483647]</text>
<polygon fill="none" stroke="#000000" points="10,-105.7 10,-127.7 251,-127.7 251,-105.7 10,-105.7"/>
<text text-anchor="start" x="30" y="-112.8" font-family="Helvetica,sans-Serif" font-size="11.00" fill="#000000">inspectie_opstelplaats_waterdiepte</text>
<polygon fill="none" stroke="#000000" points="251,-105.7 251,-127.7 370,-127.7 370,-105.7 251,-105.7"/>
<text text-anchor="start" x="254" y="-113.4" font-family="Helvetica,sans-Serif" font-size="11.00" fill="#000000">text[2147483647]</text>
<polygon fill="none" stroke="#000000" points="10,-83.7 10,-105.7 251,-105.7 251,-83.7 10,-83.7"/>
<text text-anchor="start" x="30" y="-90.8" font-family="Helvetica,sans-Serif" font-size="11.00" fill="#000000">inspectie_markering</text>
<polygon fill="none" stroke="#000000" points="251,-83.7 251,-105.7 370,-105.7 370,-83.7 251,-83.7"/>
<text text-anchor="start" x="254" y="-91.4" font-family="Helvetica,sans-Serif" font-size="11.00" fill="#000000">text[2147483647]</text>
<polygon fill="none" stroke="#000000" points="10,-61.7 10,-83.7 251,-83.7 251,-61.7 10,-61.7"/>
<text text-anchor="start" x="30" y="-68.8" font-family="Helvetica,sans-Serif" font-size="11.00" fill="#000000">inspectie_beplanting</text>
<polygon fill="none" stroke="#000000" points="251,-61.7 251,-83.7 370,-83.7 370,-61.7 251,-61.7"/>
<text text-anchor="start" x="254" y="-69.4" font-family="Helvetica,sans-Serif" font-size="11.00" fill="#000000">text[2147483647]</text>
<polygon fill="none" stroke="#000000" points="10,-39.7 10,-61.7 251,-61.7 251,-39.7 10,-39.7"/>
<text text-anchor="start" x="30" y="-46.8" font-family="Helvetica,sans-Serif" font-size="11.00" fill="#000000">inspectie_obstakels</text>
<polygon fill="none" stroke="#000000" points="251,-39.7 251,-61.7 370,-61.7 370,-39.7 251,-39.7"/>
<text text-anchor="start" x="254" y="-47.4" font-family="Helvetica,sans-Serif" font-size="11.00" fill="#000000">text[2147483647]</text>
<polygon fill="none" stroke="#000000" stroke-width="2" points="9,-39.2 9,-856.2 371,-856.2 371,-39.2 9,-39.2"/>
</a>
</g>
</g>
</g>
</svg>
