<?xml version="1.0" encoding="UTF-8" standalone="no"?>
<!DOCTYPE svg PUBLIC "-//W3C//DTD SVG 1.1//EN"
 "http://www.w3.org/Graphics/SVG/1.1/DTD/svg11.dtd">
<!-- Generated by graphviz version 2.40.1 (20161225.0304)
 -->
<!-- Title: oneDegreeRelationshipsDiagram Pages: 1 -->
<svg width="381pt" height="1155pt"
 viewBox="0.00 0.00 381.00 1155.20" xmlns="http://www.w3.org/2000/svg" xmlns:xlink="http://www.w3.org/1999/xlink">
<g id="graph0" class="graph" transform="scale(1 1) rotate(0) translate(4 1151.2)">
<title>oneDegreeRelationshipsDiagram</title>
<polygon fill="#ffffff" stroke="transparent" points="-4,4 -4,-1151.2 377,-1151.2 377,4 -4,4"/>
<text text-anchor="middle" x="72.4936" y="-7.3" font-family="Helvetica,sans-Serif" font-size="11.00" fill="#000000">Generated by SchemaSpy</text>
<!-- roi_bluswater_geo_brandkraan_prive -->
<g id="node1" class="node">
<title>roi_bluswater_geo_brandkraan_prive</title>
<g id="a_node1"><a xlink:href="../../tables/roi_bluswater_geo_brandkraan_prive.html" xlink:title="roi_bluswater_geo_brandkraan_prive" target="_top">
<polygon fill="#ffffff" stroke="transparent" points="8,-38.2 8,-1143.2 365,-1143.2 365,-38.2 8,-38.2"/>
<polygon fill="#f5f5f5" stroke="transparent" points="10.5,-1117.7 10.5,-1140.7 363.5,-1140.7 363.5,-1117.7 10.5,-1117.7"/>
<polygon fill="none" stroke="#000000" points="10.5,-1117.7 10.5,-1140.7 363.5,-1140.7 363.5,-1117.7 10.5,-1117.7"/>
<text text-anchor="start" x="15.5" y="-1126.3" font-family="Helvetica,sans-Serif" font-weight="bold" font-size="11.00" fill="#000000">roi_bluswater_geo_brandkraan_prive</text>
<text text-anchor="start" x="330.3895" y="-1125.8" font-family="Helvetica,sans-Serif" font-size="11.00" fill="#000000">[view]</text>
<polygon fill="none" stroke="#000000" points="10.5,-1095.7 10.5,-1117.7 244.5,-1117.7 244.5,-1095.7 10.5,-1095.7"/>
<text text-anchor="start" x="30.5" y="-1102.8" font-family="Helvetica,sans-Serif" font-size="11.00" fill="#000000">uuid</text>
<polygon fill="none" stroke="#000000" points="244.5,-1095.7 244.5,-1117.7 363.5,-1117.7 363.5,-1095.7 244.5,-1095.7"/>
<text text-anchor="start" x="247.5" y="-1103.4" font-family="Helvetica,sans-Serif" font-size="11.00" fill="#000000">uuid[2147483647]</text>
<polygon fill="none" stroke="#000000" points="10.5,-1073.7 10.5,-1095.7 244.5,-1095.7 244.5,-1073.7 10.5,-1073.7"/>
<text text-anchor="start" x="30.5" y="-1080.8" font-family="Helvetica,sans-Serif" font-size="11.00" fill="#000000">geom</text>
<polygon fill="none" stroke="#000000" points="244.5,-1073.7 244.5,-1095.7 363.5,-1095.7 363.5,-1073.7 244.5,-1073.7"/>
<text text-anchor="start" x="247.4485" y="-1081.4" font-family="Helvetica,sans-Serif" font-size="11.00" fill="#000000">geometry[2147483647]</text>
<polygon fill="none" stroke="#000000" points="10.5,-1051.7 10.5,-1073.7 244.5,-1073.7 244.5,-1051.7 10.5,-1051.7"/>
<text text-anchor="start" x="30.5" y="-1058.8" font-family="Helvetica,sans-Serif" font-size="11.00" fill="#000000">datum</text>
<polygon fill="none" stroke="#000000" points="244.5,-1051.7 244.5,-1073.7 363.5,-1073.7 363.5,-1051.7 244.5,-1051.7"/>
<text text-anchor="start" x="247.5" y="-1059.4" font-family="Helvetica,sans-Serif" font-size="11.00" fill="#000000">text[2147483647]</text>
<polygon fill="none" stroke="#000000" points="10.5,-1029.7 10.5,-1051.7 244.5,-1051.7 244.5,-1029.7 10.5,-1029.7"/>
<text text-anchor="start" x="30.5" y="-1036.8" font-family="Helvetica,sans-Serif" font-size="11.00" fill="#000000">actualiteit</text>
<polygon fill="none" stroke="#000000" points="244.5,-1029.7 244.5,-1051.7 363.5,-1051.7 363.5,-1029.7 244.5,-1029.7"/>
<text text-anchor="start" x="247.5" y="-1037.4" font-family="Helvetica,sans-Serif" font-size="11.00" fill="#000000">numeric[0]</text>
<polygon fill="none" stroke="#000000" points="10.5,-1007.7 10.5,-1029.7 244.5,-1029.7 244.5,-1007.7 10.5,-1007.7"/>
<text text-anchor="start" x="30.5" y="-1014.8" font-family="Helvetica,sans-Serif" font-size="11.00" fill="#000000">conditie</text>
<polygon fill="none" stroke="#000000" points="244.5,-1007.7 244.5,-1029.7 363.5,-1029.7 363.5,-1007.7 244.5,-1007.7"/>
<text text-anchor="start" x="247.5" y="-1015.4" font-family="Helvetica,sans-Serif" font-size="11.00" fill="#000000">text[2147483647]</text>
<polygon fill="none" stroke="#000000" points="10.5,-985.7 10.5,-1007.7 244.5,-1007.7 244.5,-985.7 10.5,-985.7"/>
<text text-anchor="start" x="30.5" y="-992.8" font-family="Helvetica,sans-Serif" font-size="11.00" fill="#000000">fase</text>
<polygon fill="none" stroke="#000000" points="244.5,-985.7 244.5,-1007.7 363.5,-1007.7 363.5,-985.7 244.5,-985.7"/>
<text text-anchor="start" x="247.5" y="-993.4" font-family="Helvetica,sans-Serif" font-size="11.00" fill="#000000">text[2147483647]</text>
<polygon fill="none" stroke="#000000" points="10.5,-963.7 10.5,-985.7 244.5,-985.7 244.5,-963.7 10.5,-963.7"/>
<text text-anchor="start" x="30.5" y="-970.8" font-family="Helvetica,sans-Serif" font-size="11.00" fill="#000000">gebied</text>
<polygon fill="none" stroke="#000000" points="244.5,-963.7 244.5,-985.7 363.5,-985.7 363.5,-963.7 244.5,-963.7"/>
<text text-anchor="start" x="247.5" y="-971.4" font-family="Helvetica,sans-Serif" font-size="11.00" fill="#000000">text[2147483647]</text>
<polygon fill="none" stroke="#000000" points="10.5,-941.7 10.5,-963.7 244.5,-963.7 244.5,-941.7 10.5,-941.7"/>
<text text-anchor="start" x="30.5" y="-948.8" font-family="Helvetica,sans-Serif" font-size="11.00" fill="#000000">symbool</text>
<polygon fill="none" stroke="#000000" points="244.5,-941.7 244.5,-963.7 363.5,-963.7 363.5,-941.7 244.5,-941.7"/>
<text text-anchor="start" x="247.5" y="-949.4" font-family="Helvetica,sans-Serif" font-size="11.00" fill="#000000">text[2147483647]</text>
<polygon fill="none" stroke="#000000" points="10.5,-919.7 10.5,-941.7 244.5,-941.7 244.5,-919.7 10.5,-919.7"/>
<text text-anchor="start" x="30.5" y="-926.8" font-family="Helvetica,sans-Serif" font-size="11.00" fill="#000000">symbool_id</text>
<polygon fill="none" stroke="#000000" points="244.5,-919.7 244.5,-941.7 363.5,-941.7 363.5,-919.7 244.5,-919.7"/>
<text text-anchor="start" x="247.5" y="-927.4" font-family="Helvetica,sans-Serif" font-size="11.00" fill="#000000">int2[5]</text>
<polygon fill="none" stroke="#000000" points="10.5,-897.7 10.5,-919.7 244.5,-919.7 244.5,-897.7 10.5,-897.7"/>
<text text-anchor="start" x="30.5" y="-904.8" font-family="Helvetica,sans-Serif" font-size="11.00" fill="#000000">label</text>
<polygon fill="none" stroke="#000000" points="244.5,-897.7 244.5,-919.7 363.5,-919.7 363.5,-897.7 244.5,-897.7"/>
<text text-anchor="start" x="247.5" y="-905.4" font-family="Helvetica,sans-Serif" font-size="11.00" fill="#000000">text[2147483647]</text>
<polygon fill="none" stroke="#000000" points="10.5,-875.7 10.5,-897.7 244.5,-897.7 244.5,-875.7 10.5,-875.7"/>
<text text-anchor="start" x="30.5" y="-882.8" font-family="Helvetica,sans-Serif" font-size="11.00" fill="#000000">bijzonderheden</text>
<polygon fill="none" stroke="#000000" points="244.5,-875.7 244.5,-897.7 363.5,-897.7 363.5,-875.7 244.5,-875.7"/>
<text text-anchor="start" x="247.5" y="-883.4" font-family="Helvetica,sans-Serif" font-size="11.00" fill="#000000">text[2147483647]</text>
<polygon fill="none" stroke="#000000" points="10.5,-853.7 10.5,-875.7 244.5,-875.7 244.5,-853.7 10.5,-853.7"/>
<text text-anchor="start" x="30.5" y="-860.8" font-family="Helvetica,sans-Serif" font-size="11.00" fill="#000000">aanleg</text>
<polygon fill="none" stroke="#000000" points="244.5,-853.7 244.5,-875.7 363.5,-875.7 363.5,-853.7 244.5,-853.7"/>
<text text-anchor="start" x="247.5" y="-861.4" font-family="Helvetica,sans-Serif" font-size="11.00" fill="#000000">date[13]</text>
<polygon fill="none" stroke="#000000" points="10.5,-831.7 10.5,-853.7 244.5,-853.7 244.5,-831.7 10.5,-831.7"/>
<text text-anchor="start" x="30.5" y="-838.8" font-family="Helvetica,sans-Serif" font-size="11.00" fill="#000000">code</text>
<polygon fill="none" stroke="#000000" points="244.5,-831.7 244.5,-853.7 363.5,-853.7 363.5,-831.7 244.5,-831.7"/>
<text text-anchor="start" x="247.5" y="-839.4" font-family="Helvetica,sans-Serif" font-size="11.00" fill="#000000">text[2147483647]</text>
<polygon fill="none" stroke="#000000" points="10.5,-809.7 10.5,-831.7 244.5,-831.7 244.5,-809.7 10.5,-809.7"/>
<text text-anchor="start" x="30.5" y="-816.8" font-family="Helvetica,sans-Serif" font-size="11.00" fill="#000000">beheerder</text>
<polygon fill="none" stroke="#000000" points="244.5,-809.7 244.5,-831.7 363.5,-831.7 363.5,-809.7 244.5,-809.7"/>
<text text-anchor="start" x="247.5" y="-817.4" font-family="Helvetica,sans-Serif" font-size="11.00" fill="#000000">text[2147483647]</text>
<polygon fill="none" stroke="#000000" points="10.5,-787.7 10.5,-809.7 244.5,-809.7 244.5,-787.7 10.5,-787.7"/>
<text text-anchor="start" x="30.5" y="-794.8" font-family="Helvetica,sans-Serif" font-size="11.00" fill="#000000">particulier</text>
<polygon fill="none" stroke="#000000" points="244.5,-787.7 244.5,-809.7 363.5,-809.7 363.5,-787.7 244.5,-787.7"/>
<text text-anchor="start" x="247.5" y="-795.4" font-family="Helvetica,sans-Serif" font-size="11.00" fill="#000000">text[2147483647]</text>
<polygon fill="none" stroke="#000000" points="10.5,-765.7 10.5,-787.7 244.5,-787.7 244.5,-765.7 10.5,-765.7"/>
<text text-anchor="start" x="30.5" y="-772.8" font-family="Helvetica,sans-Serif" font-size="11.00" fill="#000000">adres</text>
<polygon fill="none" stroke="#000000" points="244.5,-765.7 244.5,-787.7 363.5,-787.7 363.5,-765.7 244.5,-765.7"/>
<text text-anchor="start" x="247.5" y="-773.4" font-family="Helvetica,sans-Serif" font-size="11.00" fill="#000000">text[2147483647]</text>
<polygon fill="none" stroke="#000000" points="10.5,-743.7 10.5,-765.7 244.5,-765.7 244.5,-743.7 10.5,-743.7"/>
<text text-anchor="start" x="30.5" y="-750.8" font-family="Helvetica,sans-Serif" font-size="11.00" fill="#000000">revisie_frequentie</text>
<polygon fill="none" stroke="#000000" points="244.5,-743.7 244.5,-765.7 363.5,-765.7 363.5,-743.7 244.5,-743.7"/>
<text text-anchor="start" x="247.5" y="-751.4" font-family="Helvetica,sans-Serif" font-size="11.00" fill="#000000">int2[5]</text>
<polygon fill="none" stroke="#000000" points="10.5,-721.7 10.5,-743.7 244.5,-743.7 244.5,-721.7 10.5,-721.7"/>
<text text-anchor="start" x="30.5" y="-728.8" font-family="Helvetica,sans-Serif" font-size="11.00" fill="#000000">locatie</text>
<polygon fill="none" stroke="#000000" points="244.5,-721.7 244.5,-743.7 363.5,-743.7 363.5,-721.7 244.5,-721.7"/>
<text text-anchor="start" x="247.5" y="-729.4" font-family="Helvetica,sans-Serif" font-size="11.00" fill="#000000">text[2147483647]</text>
<polygon fill="none" stroke="#000000" points="10.5,-699.7 10.5,-721.7 244.5,-721.7 244.5,-699.7 10.5,-699.7"/>
<text text-anchor="start" x="30.5" y="-706.8" font-family="Helvetica,sans-Serif" font-size="11.00" fill="#000000">opstelplaats</text>
<polygon fill="none" stroke="#000000" points="244.5,-699.7 244.5,-721.7 363.5,-721.7 363.5,-699.7 244.5,-699.7"/>
<text text-anchor="start" x="247.5" y="-707.4" font-family="Helvetica,sans-Serif" font-size="11.00" fill="#000000">bool[1]</text>
<polygon fill="none" stroke="#000000" points="10.5,-677.7 10.5,-699.7 244.5,-699.7 244.5,-677.7 10.5,-677.7"/>
<text text-anchor="start" x="30.5" y="-684.8" font-family="Helvetica,sans-Serif" font-size="11.00" fill="#000000">opstelplaats_locatie</text>
<polygon fill="none" stroke="#000000" points="244.5,-677.7 244.5,-699.7 363.5,-699.7 363.5,-677.7 244.5,-677.7"/>
<text text-anchor="start" x="247.5" y="-685.4" font-family="Helvetica,sans-Serif" font-size="11.00" fill="#000000">text[2147483647]</text>
<polygon fill="none" stroke="#000000" points="10.5,-655.7 10.5,-677.7 244.5,-677.7 244.5,-655.7 10.5,-655.7"/>
<text text-anchor="start" x="30.5" y="-662.8" font-family="Helvetica,sans-Serif" font-size="11.00" fill="#000000">markering</text>
<polygon fill="none" stroke="#000000" points="244.5,-655.7 244.5,-677.7 363.5,-677.7 363.5,-655.7 244.5,-655.7"/>
<text text-anchor="start" x="247.5" y="-663.4" font-family="Helvetica,sans-Serif" font-size="11.00" fill="#000000">text[2147483647]</text>
<polygon fill="none" stroke="#000000" points="10.5,-633.7 10.5,-655.7 244.5,-655.7 244.5,-633.7 10.5,-633.7"/>
<text text-anchor="start" x="30.5" y="-640.8" font-family="Helvetica,sans-Serif" font-size="11.00" fill="#000000">toegang</text>
<polygon fill="none" stroke="#000000" points="244.5,-633.7 244.5,-655.7 363.5,-655.7 363.5,-633.7 244.5,-633.7"/>
<text text-anchor="start" x="247.5" y="-641.4" font-family="Helvetica,sans-Serif" font-size="11.00" fill="#000000">text[2147483647]</text>
<polygon fill="none" stroke="#000000" points="10.5,-611.7 10.5,-633.7 244.5,-633.7 244.5,-611.7 10.5,-611.7"/>
<text text-anchor="start" x="30.5" y="-618.8" font-family="Helvetica,sans-Serif" font-size="11.00" fill="#000000">capaciteit</text>
<polygon fill="none" stroke="#000000" points="244.5,-611.7 244.5,-633.7 363.5,-633.7 363.5,-611.7 244.5,-611.7"/>
<text text-anchor="start" x="247.5" y="-619.4" font-family="Helvetica,sans-Serif" font-size="11.00" fill="#000000">numeric[0]</text>
<polygon fill="none" stroke="#000000" points="10.5,-589.7 10.5,-611.7 244.5,-611.7 244.5,-589.7 10.5,-589.7"/>
<text text-anchor="start" x="30.5" y="-596.8" font-family="Helvetica,sans-Serif" font-size="11.00" fill="#000000">inspecteur</text>
<polygon fill="none" stroke="#000000" points="244.5,-589.7 244.5,-611.7 363.5,-611.7 363.5,-589.7 244.5,-589.7"/>
<text text-anchor="start" x="247.5" y="-597.4" font-family="Helvetica,sans-Serif" font-size="11.00" fill="#000000">text[2147483647]</text>
<polygon fill="none" stroke="#000000" points="10.5,-567.7 10.5,-589.7 244.5,-589.7 244.5,-567.7 10.5,-567.7"/>
<text text-anchor="start" x="30.5" y="-574.8" font-family="Helvetica,sans-Serif" font-size="11.00" fill="#000000">inspectie_datum</text>
<polygon fill="none" stroke="#000000" points="244.5,-567.7 244.5,-589.7 363.5,-589.7 363.5,-567.7 244.5,-567.7"/>
<text text-anchor="start" x="247.5" y="-575.4" font-family="Helvetica,sans-Serif" font-size="11.00" fill="#000000">date[13]</text>
<polygon fill="none" stroke="#000000" points="10.5,-545.7 10.5,-567.7 244.5,-567.7 244.5,-545.7 10.5,-545.7"/>
<text text-anchor="start" x="30.5" y="-552.8" font-family="Helvetica,sans-Serif" font-size="11.00" fill="#000000">inspectie_opmerking</text>
<polygon fill="none" stroke="#000000" points="244.5,-545.7 244.5,-567.7 363.5,-567.7 363.5,-545.7 244.5,-545.7"/>
<text text-anchor="start" x="247.5" y="-553.4" font-family="Helvetica,sans-Serif" font-size="11.00" fill="#000000">text[2147483647]</text>
<polygon fill="none" stroke="#000000" points="10.5,-523.7 10.5,-545.7 244.5,-545.7 244.5,-523.7 10.5,-523.7"/>
<text text-anchor="start" x="30.5" y="-530.8" font-family="Helvetica,sans-Serif" font-size="11.00" fill="#000000">inspectie_conditie_id</text>
<polygon fill="none" stroke="#000000" points="244.5,-523.7 244.5,-545.7 363.5,-545.7 363.5,-523.7 244.5,-523.7"/>
<text text-anchor="start" x="247.5" y="-531.4" font-family="Helvetica,sans-Serif" font-size="11.00" fill="#000000">int2[5]</text>
<polygon fill="none" stroke="#000000" points="10.5,-501.7 10.5,-523.7 244.5,-523.7 244.5,-501.7 10.5,-501.7"/>
<text text-anchor="start" x="30.5" y="-508.8" font-family="Helvetica,sans-Serif" font-size="11.00" fill="#000000">inspectie_vindbaar</text>
<polygon fill="none" stroke="#000000" points="244.5,-501.7 244.5,-523.7 363.5,-523.7 363.5,-501.7 244.5,-501.7"/>
<text text-anchor="start" x="247.5" y="-509.4" font-family="Helvetica,sans-Serif" font-size="11.00" fill="#000000">text[2147483647]</text>
<polygon fill="none" stroke="#000000" points="10.5,-479.7 10.5,-501.7 244.5,-501.7 244.5,-479.7 10.5,-479.7"/>
<text text-anchor="start" x="30.5" y="-486.8" font-family="Helvetica,sans-Serif" font-size="11.00" fill="#000000">inspectie_locatie</text>
<polygon fill="none" stroke="#000000" points="244.5,-479.7 244.5,-501.7 363.5,-501.7 363.5,-479.7 244.5,-479.7"/>
<text text-anchor="start" x="247.5" y="-487.4" font-family="Helvetica,sans-Serif" font-size="11.00" fill="#000000">text[2147483647]</text>
<polygon fill="none" stroke="#000000" points="10.5,-457.7 10.5,-479.7 244.5,-479.7 244.5,-457.7 10.5,-457.7"/>
<text text-anchor="start" x="30.5" y="-464.8" font-family="Helvetica,sans-Serif" font-size="11.00" fill="#000000">inspectie_opstelplaats</text>
<polygon fill="none" stroke="#000000" points="244.5,-457.7 244.5,-479.7 363.5,-479.7 363.5,-457.7 244.5,-457.7"/>
<text text-anchor="start" x="247.5" y="-465.4" font-family="Helvetica,sans-Serif" font-size="11.00" fill="#000000">text[2147483647]</text>
<polygon fill="none" stroke="#000000" points="10.5,-435.7 10.5,-457.7 244.5,-457.7 244.5,-435.7 10.5,-435.7"/>
<text text-anchor="start" x="30.5" y="-442.8" font-family="Helvetica,sans-Serif" font-size="11.00" fill="#000000">inspectie_markering</text>
<polygon fill="none" stroke="#000000" points="244.5,-435.7 244.5,-457.7 363.5,-457.7 363.5,-435.7 244.5,-435.7"/>
<text text-anchor="start" x="247.5" y="-443.4" font-family="Helvetica,sans-Serif" font-size="11.00" fill="#000000">text[2147483647]</text>
<polygon fill="none" stroke="#000000" points="10.5,-413.7 10.5,-435.7 244.5,-435.7 244.5,-413.7 10.5,-413.7"/>
<text text-anchor="start" x="30.5" y="-420.8" font-family="Helvetica,sans-Serif" font-size="11.00" fill="#000000">inspectie_paal</text>
<polygon fill="none" stroke="#000000" points="244.5,-413.7 244.5,-435.7 363.5,-435.7 363.5,-413.7 244.5,-413.7"/>
<text text-anchor="start" x="247.5" y="-421.4" font-family="Helvetica,sans-Serif" font-size="11.00" fill="#000000">text[2147483647]</text>
<polygon fill="none" stroke="#000000" points="10.5,-391.7 10.5,-413.7 244.5,-413.7 244.5,-391.7 10.5,-391.7"/>
<text text-anchor="start" x="30.5" y="-398.8" font-family="Helvetica,sans-Serif" font-size="11.00" fill="#000000">inspectie_aanwijsplaat</text>
<polygon fill="none" stroke="#000000" points="244.5,-391.7 244.5,-413.7 363.5,-413.7 363.5,-391.7 244.5,-391.7"/>
<text text-anchor="start" x="247.5" y="-399.4" font-family="Helvetica,sans-Serif" font-size="11.00" fill="#000000">text[2147483647]</text>
<polygon fill="none" stroke="#000000" points="10.5,-369.7 10.5,-391.7 244.5,-391.7 244.5,-369.7 10.5,-369.7"/>
<text text-anchor="start" x="30.5" y="-376.8" font-family="Helvetica,sans-Serif" font-size="11.00" fill="#000000">inspectie_aanwijsplaat_correct</text>
<polygon fill="none" stroke="#000000" points="244.5,-369.7 244.5,-391.7 363.5,-391.7 363.5,-369.7 244.5,-369.7"/>
<text text-anchor="start" x="247.5" y="-377.4" font-family="Helvetica,sans-Serif" font-size="11.00" fill="#000000">text[2147483647]</text>
<polygon fill="none" stroke="#000000" points="10.5,-347.7 10.5,-369.7 244.5,-369.7 244.5,-347.7 10.5,-347.7"/>
<text text-anchor="start" x="30.5" y="-354.8" font-family="Helvetica,sans-Serif" font-size="11.00" fill="#000000">inspectie_bereikbaarheid</text>
<polygon fill="none" stroke="#000000" points="244.5,-347.7 244.5,-369.7 363.5,-369.7 363.5,-347.7 244.5,-347.7"/>
<text text-anchor="start" x="247.5" y="-355.4" font-family="Helvetica,sans-Serif" font-size="11.00" fill="#000000">text[2147483647]</text>
<polygon fill="none" stroke="#000000" points="10.5,-325.7 10.5,-347.7 244.5,-347.7 244.5,-325.7 10.5,-325.7"/>
<text text-anchor="start" x="30.5" y="-332.8" font-family="Helvetica,sans-Serif" font-size="11.00" fill="#000000">inspectie_beplanting</text>
<polygon fill="none" stroke="#000000" points="244.5,-325.7 244.5,-347.7 363.5,-347.7 363.5,-325.7 244.5,-325.7"/>
<text text-anchor="start" x="247.5" y="-333.4" font-family="Helvetica,sans-Serif" font-size="11.00" fill="#000000">text[2147483647]</text>
<polygon fill="none" stroke="#000000" points="10.5,-303.7 10.5,-325.7 244.5,-325.7 244.5,-303.7 10.5,-303.7"/>
<text text-anchor="start" x="30.5" y="-310.8" font-family="Helvetica,sans-Serif" font-size="11.00" fill="#000000">inspectie_puttegel</text>
<polygon fill="none" stroke="#000000" points="244.5,-303.7 244.5,-325.7 363.5,-325.7 363.5,-303.7 244.5,-303.7"/>
<text text-anchor="start" x="247.5" y="-311.4" font-family="Helvetica,sans-Serif" font-size="11.00" fill="#000000">text[2147483647]</text>
<polygon fill="none" stroke="#000000" points="10.5,-281.7 10.5,-303.7 244.5,-303.7 244.5,-281.7 10.5,-281.7"/>
<text text-anchor="start" x="30.5" y="-288.8" font-family="Helvetica,sans-Serif" font-size="11.00" fill="#000000">inspectie_straatpot</text>
<polygon fill="none" stroke="#000000" points="244.5,-281.7 244.5,-303.7 363.5,-303.7 363.5,-281.7 244.5,-281.7"/>
<text text-anchor="start" x="247.5" y="-289.4" font-family="Helvetica,sans-Serif" font-size="11.00" fill="#000000">text[2147483647]</text>
<polygon fill="none" stroke="#000000" points="10.5,-259.7 10.5,-281.7 244.5,-281.7 244.5,-259.7 10.5,-259.7"/>
<text text-anchor="start" x="30.5" y="-266.8" font-family="Helvetica,sans-Serif" font-size="11.00" fill="#000000">inspectie_putdeksel</text>
<polygon fill="none" stroke="#000000" points="244.5,-259.7 244.5,-281.7 363.5,-281.7 363.5,-259.7 244.5,-259.7"/>
<text text-anchor="start" x="247.5" y="-267.4" font-family="Helvetica,sans-Serif" font-size="11.00" fill="#000000">text[2147483647]</text>
<polygon fill="none" stroke="#000000" points="10.5,-237.7 10.5,-259.7 244.5,-259.7 244.5,-237.7 10.5,-237.7"/>
<text text-anchor="start" x="30.5" y="-244.8" font-family="Helvetica,sans-Serif" font-size="11.00" fill="#000000">inspectie_diepte</text>
<polygon fill="none" stroke="#000000" points="244.5,-237.7 244.5,-259.7 363.5,-259.7 363.5,-237.7 244.5,-237.7"/>
<text text-anchor="start" x="247.5" y="-245.4" font-family="Helvetica,sans-Serif" font-size="11.00" fill="#000000">text[2147483647]</text>
<polygon fill="none" stroke="#000000" points="10.5,-215.7 10.5,-237.7 244.5,-237.7 244.5,-215.7 10.5,-215.7"/>
<text text-anchor="start" x="30.5" y="-222.8" font-family="Helvetica,sans-Serif" font-size="11.00" fill="#000000">inspectie_lekkage</text>
<polygon fill="none" stroke="#000000" points="244.5,-215.7 244.5,-237.7 363.5,-237.7 363.5,-215.7 244.5,-215.7"/>
<text text-anchor="start" x="247.5" y="-223.4" font-family="Helvetica,sans-Serif" font-size="11.00" fill="#000000">text[2147483647]</text>
<polygon fill="none" stroke="#000000" points="10.5,-193.7 10.5,-215.7 244.5,-215.7 244.5,-193.7 10.5,-193.7"/>
<text text-anchor="start" x="30.5" y="-200.8" font-family="Helvetica,sans-Serif" font-size="11.00" fill="#000000">inspectie_slibdekstel</text>
<polygon fill="none" stroke="#000000" points="244.5,-193.7 244.5,-215.7 363.5,-215.7 363.5,-193.7 244.5,-193.7"/>
<text text-anchor="start" x="247.5" y="-201.4" font-family="Helvetica,sans-Serif" font-size="11.00" fill="#000000">text[2147483647]</text>
<polygon fill="none" stroke="#000000" points="10.5,-171.7 10.5,-193.7 244.5,-193.7 244.5,-171.7 10.5,-171.7"/>
<text text-anchor="start" x="30.5" y="-178.8" font-family="Helvetica,sans-Serif" font-size="11.00" fill="#000000">inspectie_klauw</text>
<polygon fill="none" stroke="#000000" points="244.5,-171.7 244.5,-193.7 363.5,-193.7 363.5,-171.7 244.5,-171.7"/>
<text text-anchor="start" x="247.5" y="-179.4" font-family="Helvetica,sans-Serif" font-size="11.00" fill="#000000">text[2147483647]</text>
<polygon fill="none" stroke="#000000" points="10.5,-149.7 10.5,-171.7 244.5,-171.7 244.5,-149.7 10.5,-149.7"/>
<text text-anchor="start" x="30.5" y="-156.8" font-family="Helvetica,sans-Serif" font-size="11.00" fill="#000000">inspectie_spindelkop</text>
<polygon fill="none" stroke="#000000" points="244.5,-149.7 244.5,-171.7 363.5,-171.7 363.5,-149.7 244.5,-149.7"/>
<text text-anchor="start" x="247.5" y="-157.4" font-family="Helvetica,sans-Serif" font-size="11.00" fill="#000000">text[2147483647]</text>
<polygon fill="none" stroke="#000000" points="10.5,-127.7 10.5,-149.7 244.5,-149.7 244.5,-127.7 10.5,-127.7"/>
<text text-anchor="start" x="30.5" y="-134.8" font-family="Helvetica,sans-Serif" font-size="11.00" fill="#000000">inspectie_spindel</text>
<polygon fill="none" stroke="#000000" points="244.5,-127.7 244.5,-149.7 363.5,-149.7 363.5,-127.7 244.5,-127.7"/>
<text text-anchor="start" x="247.5" y="-135.4" font-family="Helvetica,sans-Serif" font-size="11.00" fill="#000000">text[2147483647]</text>
<polygon fill="none" stroke="#000000" points="10.5,-105.7 10.5,-127.7 244.5,-127.7 244.5,-105.7 10.5,-105.7"/>
<text text-anchor="start" x="30.5" y="-112.8" font-family="Helvetica,sans-Serif" font-size="11.00" fill="#000000">inspectie_standpijp</text>
<polygon fill="none" stroke="#000000" points="244.5,-105.7 244.5,-127.7 363.5,-127.7 363.5,-105.7 244.5,-105.7"/>
<text text-anchor="start" x="247.5" y="-113.4" font-family="Helvetica,sans-Serif" font-size="11.00" fill="#000000">text[2147483647]</text>
<polygon fill="none" stroke="#000000" points="10.5,-83.7 10.5,-105.7 244.5,-105.7 244.5,-83.7 10.5,-83.7"/>
<text text-anchor="start" x="30.5" y="-90.8" font-family="Helvetica,sans-Serif" font-size="11.00" fill="#000000">inspectie_rechtzetten</text>
<polygon fill="none" stroke="#000000" points="244.5,-83.7 244.5,-105.7 363.5,-105.7 363.5,-83.7 244.5,-83.7"/>
<text text-anchor="start" x="247.5" y="-91.4" font-family="Helvetica,sans-Serif" font-size="11.00" fill="#000000">text[2147483647]</text>
<polygon fill="none" stroke="#000000" points="10.5,-61.7 10.5,-83.7 244.5,-83.7 244.5,-61.7 10.5,-61.7"/>
<text text-anchor="start" x="30.5" y="-68.8" font-family="Helvetica,sans-Serif" font-size="11.00" fill="#000000">inspectie_bluswater</text>
<polygon fill="none" stroke="#000000" points="244.5,-61.7 244.5,-83.7 363.5,-83.7 363.5,-61.7 244.5,-61.7"/>
<text text-anchor="start" x="247.5" y="-69.4" font-family="Helvetica,sans-Serif" font-size="11.00" fill="#000000">text[2147483647]</text>
<polygon fill="none" stroke="#000000" points="10.5,-39.7 10.5,-61.7 244.5,-61.7 244.5,-39.7 10.5,-39.7"/>
<text text-anchor="start" x="30.5" y="-46.8" font-family="Helvetica,sans-Serif" font-size="11.00" fill="#000000">inspectie_leegloopinrichting</text>
<polygon fill="none" stroke="#000000" points="244.5,-39.7 244.5,-61.7 363.5,-61.7 363.5,-39.7 244.5,-39.7"/>
<text text-anchor="start" x="247.5" y="-47.4" font-family="Helvetica,sans-Serif" font-size="11.00" fill="#000000">text[2147483647]</text>
<polygon fill="none" stroke="#000000" stroke-width="2" points="9,-39.2 9,-1142.2 364,-1142.2 364,-39.2 9,-39.2"/>
</a>
</g>
</g>
</g>
</svg>
