<?xml version="1.0" encoding="UTF-8" standalone="no"?>
<!DOCTYPE svg PUBLIC "-//W3C//DTD SVG 1.1//EN"
 "http://www.w3.org/Graphics/SVG/1.1/DTD/svg11.dtd">
<!-- Generated by graphviz version 2.40.1 (20161225.0304)
 -->
<!-- Title: oneDegreeRelationshipsDiagram Pages: 1 -->
<svg width="305pt" height="649pt"
 viewBox="0.00 0.00 305.00 649.20" xmlns="http://www.w3.org/2000/svg" xmlns:xlink="http://www.w3.org/1999/xlink">
<g id="graph0" class="graph" transform="scale(1 1) rotate(0) translate(4 645.2)">
<title>oneDegreeRelationshipsDiagram</title>
<polygon fill="#ffffff" stroke="transparent" points="-4,4 -4,-645.2 301,-645.2 301,4 -4,4"/>
<text text-anchor="middle" x="72.4936" y="-7.3" font-family="Helvetica,sans-Serif" font-size="11.00" fill="#000000">Generated by SchemaSpy</text>
<!-- roi_gebouw_geo_object -->
<g id="node1" class="node">
<title>roi_gebouw_geo_object</title>
<g id="a_node1"><a xlink:href="../../tables/roi_gebouw_geo_object.html" xlink:title="roi_gebouw_geo_object" target="_top">
<polygon fill="#ffffff" stroke="transparent" points="8,-38.2 8,-637.2 289,-637.2 289,-38.2 8,-38.2"/>
<polygon fill="#f5f5f5" stroke="transparent" points="10.5,-611.7 10.5,-634.7 287.5,-634.7 287.5,-611.7 10.5,-611.7"/>
<polygon fill="none" stroke="#000000" points="10.5,-611.7 10.5,-634.7 287.5,-634.7 287.5,-611.7 10.5,-611.7"/>
<text text-anchor="start" x="15.5" y="-620.3" font-family="Helvetica,sans-Serif" font-weight="bold" font-size="11.00" fill="#000000">roi_gebouw_geo_object</text>
<text text-anchor="start" x="254.3895" y="-619.8" font-family="Helvetica,sans-Serif" font-size="11.00" fill="#000000">[view]</text>
<polygon fill="none" stroke="#000000" points="10.5,-589.7 10.5,-611.7 168.5,-611.7 168.5,-589.7 10.5,-589.7"/>
<text text-anchor="start" x="30.5" y="-596.8" font-family="Helvetica,sans-Serif" font-size="11.00" fill="#000000">uuid</text>
<polygon fill="none" stroke="#000000" points="168.5,-589.7 168.5,-611.7 287.5,-611.7 287.5,-589.7 168.5,-589.7"/>
<text text-anchor="start" x="171.5" y="-597.4" font-family="Helvetica,sans-Serif" font-size="11.00" fill="#000000">uuid[2147483647]</text>
<polygon fill="none" stroke="#000000" points="10.5,-567.7 10.5,-589.7 168.5,-589.7 168.5,-567.7 10.5,-567.7"/>
<text text-anchor="start" x="30.5" y="-574.8" font-family="Helvetica,sans-Serif" font-size="11.00" fill="#000000">geom</text>
<polygon fill="none" stroke="#000000" points="168.5,-567.7 168.5,-589.7 287.5,-589.7 287.5,-567.7 168.5,-567.7"/>
<text text-anchor="start" x="171.4485" y="-575.4" font-family="Helvetica,sans-Serif" font-size="11.00" fill="#000000">geometry[2147483647]</text>
<polygon fill="none" stroke="#000000" points="10.5,-545.7 10.5,-567.7 168.5,-567.7 168.5,-545.7 10.5,-545.7"/>
<text text-anchor="start" x="30.5" y="-552.8" font-family="Helvetica,sans-Serif" font-size="11.00" fill="#000000">datum</text>
<polygon fill="none" stroke="#000000" points="168.5,-545.7 168.5,-567.7 287.5,-567.7 287.5,-545.7 168.5,-545.7"/>
<text text-anchor="start" x="171.5" y="-553.4" font-family="Helvetica,sans-Serif" font-size="11.00" fill="#000000">text[2147483647]</text>
<polygon fill="none" stroke="#000000" points="10.5,-523.7 10.5,-545.7 168.5,-545.7 168.5,-523.7 10.5,-523.7"/>
<text text-anchor="start" x="30.5" y="-530.8" font-family="Helvetica,sans-Serif" font-size="11.00" fill="#000000">actualiteit</text>
<polygon fill="none" stroke="#000000" points="168.5,-523.7 168.5,-545.7 287.5,-545.7 287.5,-523.7 168.5,-523.7"/>
<text text-anchor="start" x="171.5" y="-531.4" font-family="Helvetica,sans-Serif" font-size="11.00" fill="#000000">numeric[0]</text>
<polygon fill="none" stroke="#000000" points="10.5,-501.7 10.5,-523.7 168.5,-523.7 168.5,-501.7 10.5,-501.7"/>
<text text-anchor="start" x="30.5" y="-508.8" font-family="Helvetica,sans-Serif" font-size="11.00" fill="#000000">regio</text>
<polygon fill="none" stroke="#000000" points="168.5,-501.7 168.5,-523.7 287.5,-523.7 287.5,-501.7 168.5,-501.7"/>
<text text-anchor="start" x="171.5" y="-509.4" font-family="Helvetica,sans-Serif" font-size="11.00" fill="#000000">text[2147483647]</text>
<polygon fill="none" stroke="#000000" points="10.5,-479.7 10.5,-501.7 168.5,-501.7 168.5,-479.7 10.5,-479.7"/>
<text text-anchor="start" x="30.5" y="-486.8" font-family="Helvetica,sans-Serif" font-size="11.00" fill="#000000">fase</text>
<polygon fill="none" stroke="#000000" points="168.5,-479.7 168.5,-501.7 287.5,-501.7 287.5,-479.7 168.5,-479.7"/>
<text text-anchor="start" x="171.5" y="-487.4" font-family="Helvetica,sans-Serif" font-size="11.00" fill="#000000">text[2147483647]</text>
<polygon fill="none" stroke="#000000" points="10.5,-457.7 10.5,-479.7 168.5,-479.7 168.5,-457.7 10.5,-457.7"/>
<text text-anchor="start" x="30.5" y="-464.8" font-family="Helvetica,sans-Serif" font-size="11.00" fill="#000000">formelenaam</text>
<polygon fill="none" stroke="#000000" points="168.5,-457.7 168.5,-479.7 287.5,-479.7 287.5,-457.7 168.5,-457.7"/>
<text text-anchor="start" x="171.5" y="-465.4" font-family="Helvetica,sans-Serif" font-size="11.00" fill="#000000">text[2147483647]</text>
<polygon fill="none" stroke="#000000" points="10.5,-435.7 10.5,-457.7 168.5,-457.7 168.5,-435.7 10.5,-435.7"/>
<text text-anchor="start" x="30.5" y="-442.8" font-family="Helvetica,sans-Serif" font-size="11.00" fill="#000000">code</text>
<polygon fill="none" stroke="#000000" points="168.5,-435.7 168.5,-457.7 287.5,-457.7 287.5,-435.7 168.5,-435.7"/>
<text text-anchor="start" x="171.5" y="-443.4" font-family="Helvetica,sans-Serif" font-size="11.00" fill="#000000">text[2147483647]</text>
<polygon fill="none" stroke="#000000" points="10.5,-413.7 10.5,-435.7 168.5,-435.7 168.5,-413.7 10.5,-413.7"/>
<text text-anchor="start" x="30.5" y="-420.8" font-family="Helvetica,sans-Serif" font-size="11.00" fill="#000000">adres</text>
<polygon fill="none" stroke="#000000" points="168.5,-413.7 168.5,-435.7 287.5,-435.7 287.5,-413.7 168.5,-413.7"/>
<text text-anchor="start" x="171.5" y="-421.4" font-family="Helvetica,sans-Serif" font-size="11.00" fill="#000000">text[2147483647]</text>
<polygon fill="none" stroke="#000000" points="10.5,-391.7 10.5,-413.7 168.5,-413.7 168.5,-391.7 10.5,-391.7"/>
<text text-anchor="start" x="30.5" y="-398.8" font-family="Helvetica,sans-Serif" font-size="11.00" fill="#000000">bouwlaag</text>
<polygon fill="none" stroke="#000000" points="168.5,-391.7 168.5,-413.7 287.5,-413.7 287.5,-391.7 168.5,-391.7"/>
<text text-anchor="start" x="171.5" y="-399.4" font-family="Helvetica,sans-Serif" font-size="11.00" fill="#000000">text[2147483647]</text>
<polygon fill="none" stroke="#000000" points="10.5,-369.7 10.5,-391.7 168.5,-391.7 168.5,-369.7 10.5,-369.7"/>
<text text-anchor="start" x="30.5" y="-376.8" font-family="Helvetica,sans-Serif" font-size="11.00" fill="#000000">bouwlaag_min</text>
<polygon fill="none" stroke="#000000" points="168.5,-369.7 168.5,-391.7 287.5,-391.7 287.5,-369.7 168.5,-369.7"/>
<text text-anchor="start" x="171.5" y="-377.4" font-family="Helvetica,sans-Serif" font-size="11.00" fill="#000000">int2[5]</text>
<polygon fill="none" stroke="#000000" points="10.5,-347.7 10.5,-369.7 168.5,-369.7 168.5,-347.7 10.5,-347.7"/>
<text text-anchor="start" x="30.5" y="-354.8" font-family="Helvetica,sans-Serif" font-size="11.00" fill="#000000">bouwlaag_max</text>
<polygon fill="none" stroke="#000000" points="168.5,-347.7 168.5,-369.7 287.5,-369.7 287.5,-347.7 168.5,-347.7"/>
<text text-anchor="start" x="171.5" y="-355.4" font-family="Helvetica,sans-Serif" font-size="11.00" fill="#000000">int2[5]</text>
<polygon fill="none" stroke="#000000" points="10.5,-325.7 10.5,-347.7 168.5,-347.7 168.5,-325.7 10.5,-325.7"/>
<text text-anchor="start" x="30.5" y="-332.8" font-family="Helvetica,sans-Serif" font-size="11.00" fill="#000000">contact_functie</text>
<polygon fill="none" stroke="#000000" points="168.5,-325.7 168.5,-347.7 287.5,-347.7 287.5,-325.7 168.5,-325.7"/>
<text text-anchor="start" x="171.5" y="-333.4" font-family="Helvetica,sans-Serif" font-size="11.00" fill="#000000">text[2147483647]</text>
<polygon fill="none" stroke="#000000" points="10.5,-303.7 10.5,-325.7 168.5,-325.7 168.5,-303.7 10.5,-303.7"/>
<text text-anchor="start" x="30.5" y="-310.8" font-family="Helvetica,sans-Serif" font-size="11.00" fill="#000000">contact_telefoon</text>
<polygon fill="none" stroke="#000000" points="168.5,-303.7 168.5,-325.7 287.5,-325.7 287.5,-303.7 168.5,-303.7"/>
<text text-anchor="start" x="171.5" y="-311.4" font-family="Helvetica,sans-Serif" font-size="11.00" fill="#000000">int8[19]</text>
<polygon fill="none" stroke="#000000" points="10.5,-281.7 10.5,-303.7 168.5,-303.7 168.5,-281.7 10.5,-281.7"/>
<text text-anchor="start" x="30.5" y="-288.8" font-family="Helvetica,sans-Serif" font-size="11.00" fill="#000000">bhv_aanwezig</text>
<polygon fill="none" stroke="#000000" points="168.5,-281.7 168.5,-303.7 287.5,-303.7 287.5,-281.7 168.5,-281.7"/>
<text text-anchor="start" x="171.5" y="-289.4" font-family="Helvetica,sans-Serif" font-size="11.00" fill="#000000">text[2147483647]</text>
<polygon fill="none" stroke="#000000" points="10.5,-259.7 10.5,-281.7 168.5,-281.7 168.5,-259.7 10.5,-259.7"/>
<text text-anchor="start" x="30.5" y="-266.8" font-family="Helvetica,sans-Serif" font-size="11.00" fill="#000000">bhv_ademlucht</text>
<polygon fill="none" stroke="#000000" points="168.5,-259.7 168.5,-281.7 287.5,-281.7 287.5,-259.7 168.5,-259.7"/>
<text text-anchor="start" x="171.5" y="-267.4" font-family="Helvetica,sans-Serif" font-size="11.00" fill="#000000">text[2147483647]</text>
<polygon fill="none" stroke="#000000" points="10.5,-237.7 10.5,-259.7 168.5,-259.7 168.5,-237.7 10.5,-237.7"/>
<text text-anchor="start" x="30.5" y="-244.8" font-family="Helvetica,sans-Serif" font-size="11.00" fill="#000000">bhv_dagen</text>
<polygon fill="none" stroke="#000000" points="168.5,-237.7 168.5,-259.7 287.5,-259.7 287.5,-237.7 168.5,-237.7"/>
<text text-anchor="start" x="171.5" y="-245.4" font-family="Helvetica,sans-Serif" font-size="11.00" fill="#000000">text[2147483647]</text>
<polygon fill="none" stroke="#000000" points="10.5,-215.7 10.5,-237.7 168.5,-237.7 168.5,-215.7 10.5,-215.7"/>
<text text-anchor="start" x="30.5" y="-222.8" font-family="Helvetica,sans-Serif" font-size="11.00" fill="#000000">bhv_tijden</text>
<polygon fill="none" stroke="#000000" points="168.5,-215.7 168.5,-237.7 287.5,-237.7 287.5,-215.7 168.5,-215.7"/>
<text text-anchor="start" x="171.5" y="-223.4" font-family="Helvetica,sans-Serif" font-size="11.00" fill="#000000">text[2147483647]</text>
<polygon fill="none" stroke="#000000" points="10.5,-193.7 10.5,-215.7 168.5,-215.7 168.5,-193.7 10.5,-193.7"/>
<text text-anchor="start" x="30.5" y="-200.8" font-family="Helvetica,sans-Serif" font-size="11.00" fill="#000000">bhv_telefoon</text>
<polygon fill="none" stroke="#000000" points="168.5,-193.7 168.5,-215.7 287.5,-215.7 287.5,-193.7 168.5,-193.7"/>
<text text-anchor="start" x="171.5" y="-201.4" font-family="Helvetica,sans-Serif" font-size="11.00" fill="#000000">int8[19]</text>
<polygon fill="none" stroke="#000000" points="10.5,-171.7 10.5,-193.7 168.5,-193.7 168.5,-171.7 10.5,-171.7"/>
<text text-anchor="start" x="30.5" y="-178.8" font-family="Helvetica,sans-Serif" font-size="11.00" fill="#000000">aanwezig</text>
<polygon fill="none" stroke="#000000" points="168.5,-171.7 168.5,-193.7 287.5,-193.7 287.5,-171.7 168.5,-171.7"/>
<text text-anchor="start" x="171.5" y="-179.4" font-family="Helvetica,sans-Serif" font-size="11.00" fill="#000000">text[2147483647]</text>
<polygon fill="none" stroke="#000000" points="10.5,-149.7 10.5,-171.7 168.5,-171.7 168.5,-149.7 10.5,-149.7"/>
<text text-anchor="start" x="30.5" y="-156.8" font-family="Helvetica,sans-Serif" font-size="11.00" fill="#000000">brzo</text>
<polygon fill="none" stroke="#000000" points="168.5,-149.7 168.5,-171.7 287.5,-171.7 287.5,-149.7 168.5,-149.7"/>
<text text-anchor="start" x="171.5" y="-157.4" font-family="Helvetica,sans-Serif" font-size="11.00" fill="#000000">bool[1]</text>
<polygon fill="none" stroke="#000000" points="10.5,-127.7 10.5,-149.7 168.5,-149.7 168.5,-127.7 10.5,-127.7"/>
<text text-anchor="start" x="30.5" y="-134.8" font-family="Helvetica,sans-Serif" font-size="11.00" fill="#000000">controle</text>
<polygon fill="none" stroke="#000000" points="168.5,-127.7 168.5,-149.7 287.5,-149.7 287.5,-127.7 168.5,-127.7"/>
<text text-anchor="start" x="171.5" y="-135.4" font-family="Helvetica,sans-Serif" font-size="11.00" fill="#000000">date[13]</text>
<polygon fill="none" stroke="#000000" points="10.5,-105.7 10.5,-127.7 168.5,-127.7 168.5,-105.7 10.5,-105.7"/>
<text text-anchor="start" x="30.5" y="-112.8" font-family="Helvetica,sans-Serif" font-size="11.00" fill="#000000">bijzonderheden</text>
<polygon fill="none" stroke="#000000" points="168.5,-105.7 168.5,-127.7 287.5,-127.7 287.5,-105.7 168.5,-105.7"/>
<text text-anchor="start" x="171.5" y="-113.4" font-family="Helvetica,sans-Serif" font-size="11.00" fill="#000000">text[2147483647]</text>
<polygon fill="none" stroke="#000000" points="10.5,-83.7 10.5,-105.7 168.5,-105.7 168.5,-83.7 10.5,-83.7"/>
<text text-anchor="start" x="30.5" y="-90.8" font-family="Helvetica,sans-Serif" font-size="11.00" fill="#000000">optioneel1</text>
<polygon fill="none" stroke="#000000" points="168.5,-83.7 168.5,-105.7 287.5,-105.7 287.5,-83.7 168.5,-83.7"/>
<text text-anchor="start" x="171.5" y="-91.4" font-family="Helvetica,sans-Serif" font-size="11.00" fill="#000000">text[2147483647]</text>
<polygon fill="none" stroke="#000000" points="10.5,-61.7 10.5,-83.7 168.5,-83.7 168.5,-61.7 10.5,-61.7"/>
<text text-anchor="start" x="30.5" y="-68.8" font-family="Helvetica,sans-Serif" font-size="11.00" fill="#000000">optioneel2</text>
<polygon fill="none" stroke="#000000" points="168.5,-61.7 168.5,-83.7 287.5,-83.7 287.5,-61.7 168.5,-61.7"/>
<text text-anchor="start" x="171.5" y="-69.4" font-family="Helvetica,sans-Serif" font-size="11.00" fill="#000000">text[2147483647]</text>
<polygon fill="none" stroke="#000000" points="10.5,-39.7 10.5,-61.7 168.5,-61.7 168.5,-39.7 10.5,-39.7"/>
<text text-anchor="start" x="30.5" y="-46.8" font-family="Helvetica,sans-Serif" font-size="11.00" fill="#000000">optioneel3</text>
<polygon fill="none" stroke="#000000" points="168.5,-39.7 168.5,-61.7 287.5,-61.7 287.5,-39.7 168.5,-39.7"/>
<text text-anchor="start" x="171.5" y="-47.4" font-family="Helvetica,sans-Serif" font-size="11.00" fill="#000000">text[2147483647]</text>
<polygon fill="none" stroke="#000000" stroke-width="2" points="9,-39.2 9,-636.2 288,-636.2 288,-39.2 9,-39.2"/>
</a>
</g>
</g>
</g>
</svg>
