<?xml version="1.0" encoding="UTF-8" standalone="no"?>
<!DOCTYPE svg PUBLIC "-//W3C//DTD SVG 1.1//EN"
 "http://www.w3.org/Graphics/SVG/1.1/DTD/svg11.dtd">
<!-- Generated by graphviz version 2.40.1 (20161225.0304)
 -->
<!-- Title: oneDegreeRelationshipsDiagram Pages: 1 -->
<svg width="340pt" height="231pt"
 viewBox="0.00 0.00 340.00 231.20" xmlns="http://www.w3.org/2000/svg" xmlns:xlink="http://www.w3.org/1999/xlink">
<g id="graph0" class="graph" transform="scale(1 1) rotate(0) translate(4 227.2)">
<title>oneDegreeRelationshipsDiagram</title>
<polygon fill="#ffffff" stroke="transparent" points="-4,4 -4,-227.2 336,-227.2 336,4 -4,4"/>
<text text-anchor="middle" x="72.4936" y="-7.3" font-family="Helvetica,sans-Serif" font-size="11.00" fill="#000000">Generated by SchemaSpy</text>
<!-- roi_natuurbrand_geo_foto_url -->
<g id="node1" class="node">
<title>roi_natuurbrand_geo_foto_url</title>
<g id="a_node1"><a xlink:href="../../tables/roi_natuurbrand_geo_foto_url.html" xlink:title="roi_natuurbrand_geo_foto_url" target="_top">
<polygon fill="#ffffff" stroke="transparent" points="8,-38.2 8,-219.2 324,-219.2 324,-38.2 8,-38.2"/>
<polygon fill="#f5f5f5" stroke="transparent" points="10,-193.7 10,-216.7 322,-216.7 322,-193.7 10,-193.7"/>
<polygon fill="none" stroke="#000000" points="10,-193.7 10,-216.7 322,-216.7 322,-193.7 10,-193.7"/>
<text text-anchor="start" x="15" y="-202.3" font-family="Helvetica,sans-Serif" font-weight="bold" font-size="11.00" fill="#000000">roi_natuurbrand_geo_foto_url</text>
<text text-anchor="start" x="288.8895" y="-201.8" font-family="Helvetica,sans-Serif" font-size="11.00" fill="#000000">[view]</text>
<polygon fill="none" stroke="#000000" points="10,-171.7 10,-193.7 203,-193.7 203,-171.7 10,-171.7"/>
<text text-anchor="start" x="30" y="-178.8" font-family="Helvetica,sans-Serif" font-size="11.00" fill="#000000">uuid</text>
<polygon fill="none" stroke="#000000" points="203,-171.7 203,-193.7 322,-193.7 322,-171.7 203,-171.7"/>
<text text-anchor="start" x="206" y="-179.4" font-family="Helvetica,sans-Serif" font-size="11.00" fill="#000000">uuid[2147483647]</text>
<polygon fill="none" stroke="#000000" points="10,-149.7 10,-171.7 203,-171.7 203,-149.7 10,-149.7"/>
<text text-anchor="start" x="30" y="-156.8" font-family="Helvetica,sans-Serif" font-size="11.00" fill="#000000">geom</text>
<polygon fill="none" stroke="#000000" points="203,-149.7 203,-171.7 322,-171.7 322,-149.7 203,-149.7"/>
<text text-anchor="start" x="205.9485" y="-157.4" font-family="Helvetica,sans-Serif" font-size="11.00" fill="#000000">geometry[2147483647]</text>
<polygon fill="none" stroke="#000000" points="10,-127.7 10,-149.7 203,-149.7 203,-127.7 10,-127.7"/>
<text text-anchor="start" x="30" y="-134.8" font-family="Helvetica,sans-Serif" font-size="11.00" fill="#000000">schema</text>
<polygon fill="none" stroke="#000000" points="203,-127.7 203,-149.7 322,-149.7 322,-127.7 203,-127.7"/>
<text text-anchor="start" x="206" y="-135.4" font-family="Helvetica,sans-Serif" font-size="11.00" fill="#000000">text[2147483647]</text>
<polygon fill="none" stroke="#000000" points="10,-105.7 10,-127.7 203,-127.7 203,-105.7 10,-105.7"/>
<text text-anchor="start" x="30" y="-112.8" font-family="Helvetica,sans-Serif" font-size="11.00" fill="#000000">tabel</text>
<polygon fill="none" stroke="#000000" points="203,-105.7 203,-127.7 322,-127.7 322,-105.7 203,-105.7"/>
<text text-anchor="start" x="206" y="-113.4" font-family="Helvetica,sans-Serif" font-size="11.00" fill="#000000">text[2147483647]</text>
<polygon fill="none" stroke="#000000" points="10,-83.7 10,-105.7 203,-105.7 203,-83.7 10,-83.7"/>
<text text-anchor="start" x="30" y="-90.8" font-family="Helvetica,sans-Serif" font-size="11.00" fill="#000000">obj_uuid</text>
<polygon fill="none" stroke="#000000" points="203,-83.7 203,-105.7 322,-105.7 322,-83.7 203,-83.7"/>
<text text-anchor="start" x="206" y="-91.4" font-family="Helvetica,sans-Serif" font-size="11.00" fill="#000000">uuid[2147483647]</text>
<polygon fill="none" stroke="#000000" points="10,-61.7 10,-83.7 203,-83.7 203,-61.7 10,-61.7"/>
<text text-anchor="start" x="30" y="-68.8" font-family="Helvetica,sans-Serif" font-size="11.00" fill="#000000">bijzonderheden</text>
<polygon fill="none" stroke="#000000" points="203,-61.7 203,-83.7 322,-83.7 322,-61.7 203,-61.7"/>
<text text-anchor="start" x="206" y="-69.4" font-family="Helvetica,sans-Serif" font-size="11.00" fill="#000000">text[2147483647]</text>
<polygon fill="none" stroke="#000000" points="10,-39.7 10,-61.7 203,-61.7 203,-39.7 10,-39.7"/>
<text text-anchor="start" x="30" y="-46.8" font-family="Helvetica,sans-Serif" font-size="11.00" fill="#000000">url</text>
<polygon fill="none" stroke="#000000" points="203,-39.7 203,-61.7 322,-61.7 322,-39.7 203,-39.7"/>
<text text-anchor="start" x="206" y="-47.4" font-family="Helvetica,sans-Serif" font-size="11.00" fill="#000000">text[2147483647]</text>
<polygon fill="none" stroke="#000000" stroke-width="2" points="9,-39.2 9,-218.2 323,-218.2 323,-39.2 9,-39.2"/>
</a>
</g>
</g>
</g>
</svg>
