<?xml version="1.0" encoding="UTF-8" standalone="no"?>
<!DOCTYPE svg PUBLIC "-//W3C//DTD SVG 1.1//EN"
 "http://www.w3.org/Graphics/SVG/1.1/DTD/svg11.dtd">
<!-- Generated by graphviz version 2.40.1 (20161225.0304)
 -->
<!-- Title: oneDegreeRelationshipsDiagram Pages: 1 -->
<svg width="322pt" height="341pt"
 viewBox="0.00 0.00 322.00 341.20" xmlns="http://www.w3.org/2000/svg" xmlns:xlink="http://www.w3.org/1999/xlink">
<g id="graph0" class="graph" transform="scale(1 1) rotate(0) translate(4 337.2)">
<title>oneDegreeRelationshipsDiagram</title>
<polygon fill="#ffffff" stroke="transparent" points="-4,4 -4,-337.2 318,-337.2 318,4 -4,4"/>
<text text-anchor="middle" x="72.4936" y="-7.3" font-family="Helvetica,sans-Serif" font-size="11.00" fill="#000000">Generated by SchemaSpy</text>
<!-- roi_natuurbrand_geo_label -->
<g id="node1" class="node">
<title>roi_natuurbrand_geo_label</title>
<g id="a_node1"><a xlink:href="../../tables/roi_natuurbrand_geo_label.html" xlink:title="roi_natuurbrand_geo_label" target="_top">
<polygon fill="#ffffff" stroke="transparent" points="8,-38.2 8,-329.2 306,-329.2 306,-38.2 8,-38.2"/>
<polygon fill="#f5f5f5" stroke="transparent" points="10,-303.7 10,-326.7 304,-326.7 304,-303.7 10,-303.7"/>
<polygon fill="none" stroke="#000000" points="10,-303.7 10,-326.7 304,-326.7 304,-303.7 10,-303.7"/>
<text text-anchor="start" x="15" y="-312.3" font-family="Helvetica,sans-Serif" font-weight="bold" font-size="11.00" fill="#000000">roi_natuurbrand_geo_label</text>
<text text-anchor="start" x="270.8895" y="-311.8" font-family="Helvetica,sans-Serif" font-size="11.00" fill="#000000">[view]</text>
<polygon fill="none" stroke="#000000" points="10,-281.7 10,-303.7 185,-303.7 185,-281.7 10,-281.7"/>
<text text-anchor="start" x="30" y="-288.8" font-family="Helvetica,sans-Serif" font-size="11.00" fill="#000000">uuid</text>
<polygon fill="none" stroke="#000000" points="185,-281.7 185,-303.7 304,-303.7 304,-281.7 185,-281.7"/>
<text text-anchor="start" x="188" y="-289.4" font-family="Helvetica,sans-Serif" font-size="11.00" fill="#000000">uuid[2147483647]</text>
<polygon fill="none" stroke="#000000" points="10,-259.7 10,-281.7 185,-281.7 185,-259.7 10,-259.7"/>
<text text-anchor="start" x="30" y="-266.8" font-family="Helvetica,sans-Serif" font-size="11.00" fill="#000000">geom</text>
<polygon fill="none" stroke="#000000" points="185,-259.7 185,-281.7 304,-281.7 304,-259.7 185,-259.7"/>
<text text-anchor="start" x="187.9485" y="-267.4" font-family="Helvetica,sans-Serif" font-size="11.00" fill="#000000">geometry[2147483647]</text>
<polygon fill="none" stroke="#000000" points="10,-237.7 10,-259.7 185,-259.7 185,-237.7 10,-237.7"/>
<text text-anchor="start" x="30" y="-244.8" font-family="Helvetica,sans-Serif" font-size="11.00" fill="#000000">datum</text>
<polygon fill="none" stroke="#000000" points="185,-237.7 185,-259.7 304,-259.7 304,-237.7 185,-237.7"/>
<text text-anchor="start" x="188" y="-245.4" font-family="Helvetica,sans-Serif" font-size="11.00" fill="#000000">text[2147483647]</text>
<polygon fill="none" stroke="#000000" points="10,-215.7 10,-237.7 185,-237.7 185,-215.7 10,-215.7"/>
<text text-anchor="start" x="30" y="-222.8" font-family="Helvetica,sans-Serif" font-size="11.00" fill="#000000">actualiteit</text>
<polygon fill="none" stroke="#000000" points="185,-215.7 185,-237.7 304,-237.7 304,-215.7 185,-215.7"/>
<text text-anchor="start" x="188" y="-223.4" font-family="Helvetica,sans-Serif" font-size="11.00" fill="#000000">numeric[0]</text>
<polygon fill="none" stroke="#000000" points="10,-193.7 10,-215.7 185,-215.7 185,-193.7 10,-193.7"/>
<text text-anchor="start" x="30" y="-200.8" font-family="Helvetica,sans-Serif" font-size="11.00" fill="#000000">annotatie</text>
<polygon fill="none" stroke="#000000" points="185,-193.7 185,-215.7 304,-215.7 304,-193.7 185,-193.7"/>
<text text-anchor="start" x="188" y="-201.4" font-family="Helvetica,sans-Serif" font-size="11.00" fill="#000000">text[2147483647]</text>
<polygon fill="none" stroke="#000000" points="10,-171.7 10,-193.7 185,-193.7 185,-171.7 10,-171.7"/>
<text text-anchor="start" x="30" y="-178.8" font-family="Helvetica,sans-Serif" font-size="11.00" fill="#000000">annotatie_id</text>
<polygon fill="none" stroke="#000000" points="185,-171.7 185,-193.7 304,-193.7 304,-171.7 185,-171.7"/>
<text text-anchor="start" x="188" y="-179.4" font-family="Helvetica,sans-Serif" font-size="11.00" fill="#000000">int2[5]</text>
<polygon fill="none" stroke="#000000" points="10,-149.7 10,-171.7 185,-171.7 185,-149.7 10,-149.7"/>
<text text-anchor="start" x="30" y="-156.8" font-family="Helvetica,sans-Serif" font-size="11.00" fill="#000000">label</text>
<polygon fill="none" stroke="#000000" points="185,-149.7 185,-171.7 304,-171.7 304,-149.7 185,-149.7"/>
<text text-anchor="start" x="188" y="-157.4" font-family="Helvetica,sans-Serif" font-size="11.00" fill="#000000">text[2147483647]</text>
<polygon fill="none" stroke="#000000" points="10,-127.7 10,-149.7 185,-149.7 185,-127.7 10,-127.7"/>
<text text-anchor="start" x="30" y="-134.8" font-family="Helvetica,sans-Serif" font-size="11.00" fill="#000000">rotatie</text>
<polygon fill="none" stroke="#000000" points="185,-127.7 185,-149.7 304,-149.7 304,-127.7 185,-127.7"/>
<text text-anchor="start" x="188" y="-135.4" font-family="Helvetica,sans-Serif" font-size="11.00" fill="#000000">int4[10]</text>
<polygon fill="none" stroke="#000000" points="10,-105.7 10,-127.7 185,-127.7 185,-105.7 10,-105.7"/>
<text text-anchor="start" x="30" y="-112.8" font-family="Helvetica,sans-Serif" font-size="11.00" fill="#000000">bijzonderheden</text>
<polygon fill="none" stroke="#000000" points="185,-105.7 185,-127.7 304,-127.7 304,-105.7 185,-105.7"/>
<text text-anchor="start" x="188" y="-113.4" font-family="Helvetica,sans-Serif" font-size="11.00" fill="#000000">text[2147483647]</text>
<polygon fill="none" stroke="#000000" points="10,-83.7 10,-105.7 185,-105.7 185,-83.7 10,-83.7"/>
<text text-anchor="start" x="30" y="-90.8" font-family="Helvetica,sans-Serif" font-size="11.00" fill="#000000">object_uuid</text>
<polygon fill="none" stroke="#000000" points="185,-83.7 185,-105.7 304,-105.7 304,-83.7 185,-83.7"/>
<text text-anchor="start" x="188" y="-91.4" font-family="Helvetica,sans-Serif" font-size="11.00" fill="#000000">uuid[2147483647]</text>
<polygon fill="none" stroke="#000000" points="10,-61.7 10,-83.7 185,-83.7 185,-61.7 10,-61.7"/>
<text text-anchor="start" x="30" y="-68.8" font-family="Helvetica,sans-Serif" font-size="11.00" fill="#000000">object_fase</text>
<polygon fill="none" stroke="#000000" points="185,-61.7 185,-83.7 304,-83.7 304,-61.7 185,-61.7"/>
<text text-anchor="start" x="188" y="-69.4" font-family="Helvetica,sans-Serif" font-size="11.00" fill="#000000">text[2147483647]</text>
<polygon fill="none" stroke="#000000" points="10,-39.7 10,-61.7 185,-61.7 185,-39.7 10,-39.7"/>
<text text-anchor="start" x="30" y="-46.8" font-family="Helvetica,sans-Serif" font-size="11.00" fill="#000000">object_actualiteit</text>
<polygon fill="none" stroke="#000000" points="185,-39.7 185,-61.7 304,-61.7 304,-39.7 185,-39.7"/>
<text text-anchor="start" x="188" y="-47.4" font-family="Helvetica,sans-Serif" font-size="11.00" fill="#000000">numeric[0]</text>
<polygon fill="none" stroke="#000000" stroke-width="2" points="9,-39.2 9,-328.2 305,-328.2 305,-39.2 9,-39.2"/>
</a>
</g>
</g>
</g>
</svg>
