<?xml version="1.0" encoding="UTF-8" standalone="no"?>
<!DOCTYPE svg PUBLIC "-//W3C//DTD SVG 1.1//EN"
 "http://www.w3.org/Graphics/SVG/1.1/DTD/svg11.dtd">
<!-- Generated by graphviz version 2.40.1 (20161225.0304)
 -->
<!-- Title: oneDegreeRelationshipsDiagram Pages: 1 -->
<svg width="346pt" height="1111pt"
 viewBox="0.00 0.00 346.00 1111.20" xmlns="http://www.w3.org/2000/svg" xmlns:xlink="http://www.w3.org/1999/xlink">
<g id="graph0" class="graph" transform="scale(1 1) rotate(0) translate(4 1107.2)">
<title>oneDegreeRelationshipsDiagram</title>
<polygon fill="#ffffff" stroke="transparent" points="-4,4 -4,-1107.2 342,-1107.2 342,4 -4,4"/>
<text text-anchor="middle" x="72.4936" y="-7.3" font-family="Helvetica,sans-Serif" font-size="11.00" fill="#000000">Generated by SchemaSpy</text>
<!-- roi_bluswater_geo_brandkraan -->
<g id="node1" class="node">
<title>roi_bluswater_geo_brandkraan</title>
<g id="a_node1"><a xlink:href="../../tables/roi_bluswater_geo_brandkraan.html" xlink:title="roi_bluswater_geo_brandkraan" target="_top">
<polygon fill="#ffffff" stroke="transparent" points="8,-38.2 8,-1099.2 330,-1099.2 330,-38.2 8,-38.2"/>
<polygon fill="#f5f5f5" stroke="transparent" points="10,-1073.7 10,-1096.7 328,-1096.7 328,-1073.7 10,-1073.7"/>
<polygon fill="none" stroke="#000000" points="10,-1073.7 10,-1096.7 328,-1096.7 328,-1073.7 10,-1073.7"/>
<text text-anchor="start" x="15" y="-1082.3" font-family="Helvetica,sans-Serif" font-weight="bold" font-size="11.00" fill="#000000">roi_bluswater_geo_brandkraan</text>
<text text-anchor="start" x="294.8895" y="-1081.8" font-family="Helvetica,sans-Serif" font-size="11.00" fill="#000000">[view]</text>
<polygon fill="none" stroke="#000000" points="10,-1051.7 10,-1073.7 209,-1073.7 209,-1051.7 10,-1051.7"/>
<text text-anchor="start" x="30" y="-1058.8" font-family="Helvetica,sans-Serif" font-size="11.00" fill="#000000">uuid</text>
<polygon fill="none" stroke="#000000" points="209,-1051.7 209,-1073.7 328,-1073.7 328,-1051.7 209,-1051.7"/>
<text text-anchor="start" x="212" y="-1059.4" font-family="Helvetica,sans-Serif" font-size="11.00" fill="#000000">uuid[2147483647]</text>
<polygon fill="none" stroke="#000000" points="10,-1029.7 10,-1051.7 209,-1051.7 209,-1029.7 10,-1029.7"/>
<text text-anchor="start" x="30" y="-1036.8" font-family="Helvetica,sans-Serif" font-size="11.00" fill="#000000">geom</text>
<polygon fill="none" stroke="#000000" points="209,-1029.7 209,-1051.7 328,-1051.7 328,-1029.7 209,-1029.7"/>
<text text-anchor="start" x="211.9485" y="-1037.4" font-family="Helvetica,sans-Serif" font-size="11.00" fill="#000000">geometry[2147483647]</text>
<polygon fill="none" stroke="#000000" points="10,-1007.7 10,-1029.7 209,-1029.7 209,-1007.7 10,-1007.7"/>
<text text-anchor="start" x="30" y="-1014.8" font-family="Helvetica,sans-Serif" font-size="11.00" fill="#000000">datum</text>
<polygon fill="none" stroke="#000000" points="209,-1007.7 209,-1029.7 328,-1029.7 328,-1007.7 209,-1007.7"/>
<text text-anchor="start" x="212" y="-1015.4" font-family="Helvetica,sans-Serif" font-size="11.00" fill="#000000">text[2147483647]</text>
<polygon fill="none" stroke="#000000" points="10,-985.7 10,-1007.7 209,-1007.7 209,-985.7 10,-985.7"/>
<text text-anchor="start" x="30" y="-992.8" font-family="Helvetica,sans-Serif" font-size="11.00" fill="#000000">actualiteit</text>
<polygon fill="none" stroke="#000000" points="209,-985.7 209,-1007.7 328,-1007.7 328,-985.7 209,-985.7"/>
<text text-anchor="start" x="212" y="-993.4" font-family="Helvetica,sans-Serif" font-size="11.00" fill="#000000">numeric[0]</text>
<polygon fill="none" stroke="#000000" points="10,-963.7 10,-985.7 209,-985.7 209,-963.7 10,-963.7"/>
<text text-anchor="start" x="30" y="-970.8" font-family="Helvetica,sans-Serif" font-size="11.00" fill="#000000">conditie</text>
<polygon fill="none" stroke="#000000" points="209,-963.7 209,-985.7 328,-985.7 328,-963.7 209,-963.7"/>
<text text-anchor="start" x="212" y="-971.4" font-family="Helvetica,sans-Serif" font-size="11.00" fill="#000000">text[2147483647]</text>
<polygon fill="none" stroke="#000000" points="10,-941.7 10,-963.7 209,-963.7 209,-941.7 10,-941.7"/>
<text text-anchor="start" x="30" y="-948.8" font-family="Helvetica,sans-Serif" font-size="11.00" fill="#000000">fase</text>
<polygon fill="none" stroke="#000000" points="209,-941.7 209,-963.7 328,-963.7 328,-941.7 209,-941.7"/>
<text text-anchor="start" x="212" y="-949.4" font-family="Helvetica,sans-Serif" font-size="11.00" fill="#000000">text[2147483647]</text>
<polygon fill="none" stroke="#000000" points="10,-919.7 10,-941.7 209,-941.7 209,-919.7 10,-919.7"/>
<text text-anchor="start" x="30" y="-926.8" font-family="Helvetica,sans-Serif" font-size="11.00" fill="#000000">gebied</text>
<polygon fill="none" stroke="#000000" points="209,-919.7 209,-941.7 328,-941.7 328,-919.7 209,-919.7"/>
<text text-anchor="start" x="212" y="-927.4" font-family="Helvetica,sans-Serif" font-size="11.00" fill="#000000">text[2147483647]</text>
<polygon fill="none" stroke="#000000" points="10,-897.7 10,-919.7 209,-919.7 209,-897.7 10,-897.7"/>
<text text-anchor="start" x="30" y="-904.8" font-family="Helvetica,sans-Serif" font-size="11.00" fill="#000000">symbool</text>
<polygon fill="none" stroke="#000000" points="209,-897.7 209,-919.7 328,-919.7 328,-897.7 209,-897.7"/>
<text text-anchor="start" x="212" y="-905.4" font-family="Helvetica,sans-Serif" font-size="11.00" fill="#000000">text[2147483647]</text>
<polygon fill="none" stroke="#000000" points="10,-875.7 10,-897.7 209,-897.7 209,-875.7 10,-875.7"/>
<text text-anchor="start" x="30" y="-882.8" font-family="Helvetica,sans-Serif" font-size="11.00" fill="#000000">symbool_id</text>
<polygon fill="none" stroke="#000000" points="209,-875.7 209,-897.7 328,-897.7 328,-875.7 209,-875.7"/>
<text text-anchor="start" x="212" y="-883.4" font-family="Helvetica,sans-Serif" font-size="11.00" fill="#000000">int2[5]</text>
<polygon fill="none" stroke="#000000" points="10,-853.7 10,-875.7 209,-875.7 209,-853.7 10,-853.7"/>
<text text-anchor="start" x="30" y="-860.8" font-family="Helvetica,sans-Serif" font-size="11.00" fill="#000000">label</text>
<polygon fill="none" stroke="#000000" points="209,-853.7 209,-875.7 328,-875.7 328,-853.7 209,-853.7"/>
<text text-anchor="start" x="212" y="-861.4" font-family="Helvetica,sans-Serif" font-size="11.00" fill="#000000">text[2147483647]</text>
<polygon fill="none" stroke="#000000" points="10,-831.7 10,-853.7 209,-853.7 209,-831.7 10,-831.7"/>
<text text-anchor="start" x="30" y="-838.8" font-family="Helvetica,sans-Serif" font-size="11.00" fill="#000000">bijzonderheden</text>
<polygon fill="none" stroke="#000000" points="209,-831.7 209,-853.7 328,-853.7 328,-831.7 209,-831.7"/>
<text text-anchor="start" x="212" y="-839.4" font-family="Helvetica,sans-Serif" font-size="11.00" fill="#000000">text[2147483647]</text>
<polygon fill="none" stroke="#000000" points="10,-809.7 10,-831.7 209,-831.7 209,-809.7 10,-809.7"/>
<text text-anchor="start" x="30" y="-816.8" font-family="Helvetica,sans-Serif" font-size="11.00" fill="#000000">nen3610id</text>
<polygon fill="none" stroke="#000000" points="209,-809.7 209,-831.7 328,-831.7 328,-809.7 209,-809.7"/>
<text text-anchor="start" x="212" y="-817.4" font-family="Helvetica,sans-Serif" font-size="11.00" fill="#000000">text[2147483647]</text>
<polygon fill="none" stroke="#000000" points="10,-787.7 10,-809.7 209,-809.7 209,-787.7 10,-787.7"/>
<text text-anchor="start" x="30" y="-794.8" font-family="Helvetica,sans-Serif" font-size="11.00" fill="#000000">code</text>
<polygon fill="none" stroke="#000000" points="209,-787.7 209,-809.7 328,-809.7 328,-787.7 209,-787.7"/>
<text text-anchor="start" x="212" y="-795.4" font-family="Helvetica,sans-Serif" font-size="11.00" fill="#000000">text[2147483647]</text>
<polygon fill="none" stroke="#000000" points="10,-765.7 10,-787.7 209,-787.7 209,-765.7 10,-765.7"/>
<text text-anchor="start" x="30" y="-772.8" font-family="Helvetica,sans-Serif" font-size="11.00" fill="#000000">revisie_frequentie</text>
<polygon fill="none" stroke="#000000" points="209,-765.7 209,-787.7 328,-787.7 328,-765.7 209,-765.7"/>
<text text-anchor="start" x="212" y="-773.4" font-family="Helvetica,sans-Serif" font-size="11.00" fill="#000000">int2[5]</text>
<polygon fill="none" stroke="#000000" points="10,-743.7 10,-765.7 209,-765.7 209,-743.7 10,-743.7"/>
<text text-anchor="start" x="30" y="-750.8" font-family="Helvetica,sans-Serif" font-size="11.00" fill="#000000">locatie</text>
<polygon fill="none" stroke="#000000" points="209,-743.7 209,-765.7 328,-765.7 328,-743.7 209,-743.7"/>
<text text-anchor="start" x="212" y="-751.4" font-family="Helvetica,sans-Serif" font-size="11.00" fill="#000000">text[2147483647]</text>
<polygon fill="none" stroke="#000000" points="10,-721.7 10,-743.7 209,-743.7 209,-721.7 10,-721.7"/>
<text text-anchor="start" x="30" y="-728.8" font-family="Helvetica,sans-Serif" font-size="11.00" fill="#000000">opstelplaats</text>
<polygon fill="none" stroke="#000000" points="209,-721.7 209,-743.7 328,-743.7 328,-721.7 209,-721.7"/>
<text text-anchor="start" x="212" y="-729.4" font-family="Helvetica,sans-Serif" font-size="11.00" fill="#000000">bool[1]</text>
<polygon fill="none" stroke="#000000" points="10,-699.7 10,-721.7 209,-721.7 209,-699.7 10,-699.7"/>
<text text-anchor="start" x="30" y="-706.8" font-family="Helvetica,sans-Serif" font-size="11.00" fill="#000000">opstelplaats_locatie</text>
<polygon fill="none" stroke="#000000" points="209,-699.7 209,-721.7 328,-721.7 328,-699.7 209,-699.7"/>
<text text-anchor="start" x="212" y="-707.4" font-family="Helvetica,sans-Serif" font-size="11.00" fill="#000000">text[2147483647]</text>
<polygon fill="none" stroke="#000000" points="10,-677.7 10,-699.7 209,-699.7 209,-677.7 10,-677.7"/>
<text text-anchor="start" x="30" y="-684.8" font-family="Helvetica,sans-Serif" font-size="11.00" fill="#000000">markering</text>
<polygon fill="none" stroke="#000000" points="209,-677.7 209,-699.7 328,-699.7 328,-677.7 209,-677.7"/>
<text text-anchor="start" x="212" y="-685.4" font-family="Helvetica,sans-Serif" font-size="11.00" fill="#000000">text[2147483647]</text>
<polygon fill="none" stroke="#000000" points="10,-655.7 10,-677.7 209,-677.7 209,-655.7 10,-655.7"/>
<text text-anchor="start" x="30" y="-662.8" font-family="Helvetica,sans-Serif" font-size="11.00" fill="#000000">toegang</text>
<polygon fill="none" stroke="#000000" points="209,-655.7 209,-677.7 328,-677.7 328,-655.7 209,-655.7"/>
<text text-anchor="start" x="212" y="-663.4" font-family="Helvetica,sans-Serif" font-size="11.00" fill="#000000">text[2147483647]</text>
<polygon fill="none" stroke="#000000" points="10,-633.7 10,-655.7 209,-655.7 209,-633.7 10,-633.7"/>
<text text-anchor="start" x="30" y="-640.8" font-family="Helvetica,sans-Serif" font-size="11.00" fill="#000000">capaciteit</text>
<polygon fill="none" stroke="#000000" points="209,-633.7 209,-655.7 328,-655.7 328,-633.7 209,-633.7"/>
<text text-anchor="start" x="212" y="-641.4" font-family="Helvetica,sans-Serif" font-size="11.00" fill="#000000">numeric[0]</text>
<polygon fill="none" stroke="#000000" points="10,-611.7 10,-633.7 209,-633.7 209,-611.7 10,-611.7"/>
<text text-anchor="start" x="30" y="-618.8" font-family="Helvetica,sans-Serif" font-size="11.00" fill="#000000">aantekening</text>
<polygon fill="none" stroke="#000000" points="209,-611.7 209,-633.7 328,-633.7 328,-611.7 209,-611.7"/>
<text text-anchor="start" x="212" y="-619.4" font-family="Helvetica,sans-Serif" font-size="11.00" fill="#000000">text[2147483647]</text>
<polygon fill="none" stroke="#000000" points="10,-589.7 10,-611.7 209,-611.7 209,-589.7 10,-589.7"/>
<text text-anchor="start" x="30" y="-596.8" font-family="Helvetica,sans-Serif" font-size="11.00" fill="#000000">inspecteur</text>
<polygon fill="none" stroke="#000000" points="209,-589.7 209,-611.7 328,-611.7 328,-589.7 209,-589.7"/>
<text text-anchor="start" x="212" y="-597.4" font-family="Helvetica,sans-Serif" font-size="11.00" fill="#000000">text[2147483647]</text>
<polygon fill="none" stroke="#000000" points="10,-567.7 10,-589.7 209,-589.7 209,-567.7 10,-567.7"/>
<text text-anchor="start" x="30" y="-574.8" font-family="Helvetica,sans-Serif" font-size="11.00" fill="#000000">inspectie_datum</text>
<polygon fill="none" stroke="#000000" points="209,-567.7 209,-589.7 328,-589.7 328,-567.7 209,-567.7"/>
<text text-anchor="start" x="212" y="-575.4" font-family="Helvetica,sans-Serif" font-size="11.00" fill="#000000">date[13]</text>
<polygon fill="none" stroke="#000000" points="10,-545.7 10,-567.7 209,-567.7 209,-545.7 10,-545.7"/>
<text text-anchor="start" x="30" y="-552.8" font-family="Helvetica,sans-Serif" font-size="11.00" fill="#000000">inspectie_opmerking</text>
<polygon fill="none" stroke="#000000" points="209,-545.7 209,-567.7 328,-567.7 328,-545.7 209,-545.7"/>
<text text-anchor="start" x="212" y="-553.4" font-family="Helvetica,sans-Serif" font-size="11.00" fill="#000000">text[2147483647]</text>
<polygon fill="none" stroke="#000000" points="10,-523.7 10,-545.7 209,-545.7 209,-523.7 10,-523.7"/>
<text text-anchor="start" x="30" y="-530.8" font-family="Helvetica,sans-Serif" font-size="11.00" fill="#000000">inspectie_conditie_id</text>
<polygon fill="none" stroke="#000000" points="209,-523.7 209,-545.7 328,-545.7 328,-523.7 209,-523.7"/>
<text text-anchor="start" x="212" y="-531.4" font-family="Helvetica,sans-Serif" font-size="11.00" fill="#000000">int2[5]</text>
<polygon fill="none" stroke="#000000" points="10,-501.7 10,-523.7 209,-523.7 209,-501.7 10,-501.7"/>
<text text-anchor="start" x="30" y="-508.8" font-family="Helvetica,sans-Serif" font-size="11.00" fill="#000000">inspectie_vindbaar</text>
<polygon fill="none" stroke="#000000" points="209,-501.7 209,-523.7 328,-523.7 328,-501.7 209,-501.7"/>
<text text-anchor="start" x="212" y="-509.4" font-family="Helvetica,sans-Serif" font-size="11.00" fill="#000000">text[2147483647]</text>
<polygon fill="none" stroke="#000000" points="10,-479.7 10,-501.7 209,-501.7 209,-479.7 10,-479.7"/>
<text text-anchor="start" x="30" y="-486.8" font-family="Helvetica,sans-Serif" font-size="11.00" fill="#000000">inspectie_locatie</text>
<polygon fill="none" stroke="#000000" points="209,-479.7 209,-501.7 328,-501.7 328,-479.7 209,-479.7"/>
<text text-anchor="start" x="212" y="-487.4" font-family="Helvetica,sans-Serif" font-size="11.00" fill="#000000">text[2147483647]</text>
<polygon fill="none" stroke="#000000" points="10,-457.7 10,-479.7 209,-479.7 209,-457.7 10,-457.7"/>
<text text-anchor="start" x="30" y="-464.8" font-family="Helvetica,sans-Serif" font-size="11.00" fill="#000000">inspectie_opstelplaats</text>
<polygon fill="none" stroke="#000000" points="209,-457.7 209,-479.7 328,-479.7 328,-457.7 209,-457.7"/>
<text text-anchor="start" x="212" y="-465.4" font-family="Helvetica,sans-Serif" font-size="11.00" fill="#000000">text[2147483647]</text>
<polygon fill="none" stroke="#000000" points="10,-435.7 10,-457.7 209,-457.7 209,-435.7 10,-435.7"/>
<text text-anchor="start" x="30" y="-442.8" font-family="Helvetica,sans-Serif" font-size="11.00" fill="#000000">inspectie_markering</text>
<polygon fill="none" stroke="#000000" points="209,-435.7 209,-457.7 328,-457.7 328,-435.7 209,-435.7"/>
<text text-anchor="start" x="212" y="-443.4" font-family="Helvetica,sans-Serif" font-size="11.00" fill="#000000">text[2147483647]</text>
<polygon fill="none" stroke="#000000" points="10,-413.7 10,-435.7 209,-435.7 209,-413.7 10,-413.7"/>
<text text-anchor="start" x="30" y="-420.8" font-family="Helvetica,sans-Serif" font-size="11.00" fill="#000000">inspectie_paal</text>
<polygon fill="none" stroke="#000000" points="209,-413.7 209,-435.7 328,-435.7 328,-413.7 209,-413.7"/>
<text text-anchor="start" x="212" y="-421.4" font-family="Helvetica,sans-Serif" font-size="11.00" fill="#000000">text[2147483647]</text>
<polygon fill="none" stroke="#000000" points="10,-391.7 10,-413.7 209,-413.7 209,-391.7 10,-391.7"/>
<text text-anchor="start" x="30" y="-398.8" font-family="Helvetica,sans-Serif" font-size="11.00" fill="#000000">inspectie_aanwijsplaat</text>
<polygon fill="none" stroke="#000000" points="209,-391.7 209,-413.7 328,-413.7 328,-391.7 209,-391.7"/>
<text text-anchor="start" x="212" y="-399.4" font-family="Helvetica,sans-Serif" font-size="11.00" fill="#000000">text[2147483647]</text>
<polygon fill="none" stroke="#000000" points="10,-369.7 10,-391.7 209,-391.7 209,-369.7 10,-369.7"/>
<text text-anchor="start" x="30" y="-376.8" font-family="Helvetica,sans-Serif" font-size="11.00" fill="#000000">inspectie_aanwijsplaat_correct</text>
<polygon fill="none" stroke="#000000" points="209,-369.7 209,-391.7 328,-391.7 328,-369.7 209,-369.7"/>
<text text-anchor="start" x="212" y="-377.4" font-family="Helvetica,sans-Serif" font-size="11.00" fill="#000000">text[2147483647]</text>
<polygon fill="none" stroke="#000000" points="10,-347.7 10,-369.7 209,-369.7 209,-347.7 10,-347.7"/>
<text text-anchor="start" x="30" y="-354.8" font-family="Helvetica,sans-Serif" font-size="11.00" fill="#000000">inspectie_bereikbaarheid</text>
<polygon fill="none" stroke="#000000" points="209,-347.7 209,-369.7 328,-369.7 328,-347.7 209,-347.7"/>
<text text-anchor="start" x="212" y="-355.4" font-family="Helvetica,sans-Serif" font-size="11.00" fill="#000000">text[2147483647]</text>
<polygon fill="none" stroke="#000000" points="10,-325.7 10,-347.7 209,-347.7 209,-325.7 10,-325.7"/>
<text text-anchor="start" x="30" y="-332.8" font-family="Helvetica,sans-Serif" font-size="11.00" fill="#000000">inspectie_beplanting</text>
<polygon fill="none" stroke="#000000" points="209,-325.7 209,-347.7 328,-347.7 328,-325.7 209,-325.7"/>
<text text-anchor="start" x="212" y="-333.4" font-family="Helvetica,sans-Serif" font-size="11.00" fill="#000000">text[2147483647]</text>
<polygon fill="none" stroke="#000000" points="10,-303.7 10,-325.7 209,-325.7 209,-303.7 10,-303.7"/>
<text text-anchor="start" x="30" y="-310.8" font-family="Helvetica,sans-Serif" font-size="11.00" fill="#000000">inspectie_puttegel</text>
<polygon fill="none" stroke="#000000" points="209,-303.7 209,-325.7 328,-325.7 328,-303.7 209,-303.7"/>
<text text-anchor="start" x="212" y="-311.4" font-family="Helvetica,sans-Serif" font-size="11.00" fill="#000000">text[2147483647]</text>
<polygon fill="none" stroke="#000000" points="10,-281.7 10,-303.7 209,-303.7 209,-281.7 10,-281.7"/>
<text text-anchor="start" x="30" y="-288.8" font-family="Helvetica,sans-Serif" font-size="11.00" fill="#000000">inspectie_straatpot</text>
<polygon fill="none" stroke="#000000" points="209,-281.7 209,-303.7 328,-303.7 328,-281.7 209,-281.7"/>
<text text-anchor="start" x="212" y="-289.4" font-family="Helvetica,sans-Serif" font-size="11.00" fill="#000000">text[2147483647]</text>
<polygon fill="none" stroke="#000000" points="10,-259.7 10,-281.7 209,-281.7 209,-259.7 10,-259.7"/>
<text text-anchor="start" x="30" y="-266.8" font-family="Helvetica,sans-Serif" font-size="11.00" fill="#000000">inspectie_putdeksel</text>
<polygon fill="none" stroke="#000000" points="209,-259.7 209,-281.7 328,-281.7 328,-259.7 209,-259.7"/>
<text text-anchor="start" x="212" y="-267.4" font-family="Helvetica,sans-Serif" font-size="11.00" fill="#000000">text[2147483647]</text>
<polygon fill="none" stroke="#000000" points="10,-237.7 10,-259.7 209,-259.7 209,-237.7 10,-237.7"/>
<text text-anchor="start" x="30" y="-244.8" font-family="Helvetica,sans-Serif" font-size="11.00" fill="#000000">inspectie_diepte</text>
<polygon fill="none" stroke="#000000" points="209,-237.7 209,-259.7 328,-259.7 328,-237.7 209,-237.7"/>
<text text-anchor="start" x="212" y="-245.4" font-family="Helvetica,sans-Serif" font-size="11.00" fill="#000000">text[2147483647]</text>
<polygon fill="none" stroke="#000000" points="10,-215.7 10,-237.7 209,-237.7 209,-215.7 10,-215.7"/>
<text text-anchor="start" x="30" y="-222.8" font-family="Helvetica,sans-Serif" font-size="11.00" fill="#000000">inspectie_lekkage</text>
<polygon fill="none" stroke="#000000" points="209,-215.7 209,-237.7 328,-237.7 328,-215.7 209,-215.7"/>
<text text-anchor="start" x="212" y="-223.4" font-family="Helvetica,sans-Serif" font-size="11.00" fill="#000000">text[2147483647]</text>
<polygon fill="none" stroke="#000000" points="10,-193.7 10,-215.7 209,-215.7 209,-193.7 10,-193.7"/>
<text text-anchor="start" x="30" y="-200.8" font-family="Helvetica,sans-Serif" font-size="11.00" fill="#000000">inspectie_slibdekstel</text>
<polygon fill="none" stroke="#000000" points="209,-193.7 209,-215.7 328,-215.7 328,-193.7 209,-193.7"/>
<text text-anchor="start" x="212" y="-201.4" font-family="Helvetica,sans-Serif" font-size="11.00" fill="#000000">text[2147483647]</text>
<polygon fill="none" stroke="#000000" points="10,-171.7 10,-193.7 209,-193.7 209,-171.7 10,-171.7"/>
<text text-anchor="start" x="30" y="-178.8" font-family="Helvetica,sans-Serif" font-size="11.00" fill="#000000">inspectie_klauw</text>
<polygon fill="none" stroke="#000000" points="209,-171.7 209,-193.7 328,-193.7 328,-171.7 209,-171.7"/>
<text text-anchor="start" x="212" y="-179.4" font-family="Helvetica,sans-Serif" font-size="11.00" fill="#000000">text[2147483647]</text>
<polygon fill="none" stroke="#000000" points="10,-149.7 10,-171.7 209,-171.7 209,-149.7 10,-149.7"/>
<text text-anchor="start" x="30" y="-156.8" font-family="Helvetica,sans-Serif" font-size="11.00" fill="#000000">inspectie_spindelkop</text>
<polygon fill="none" stroke="#000000" points="209,-149.7 209,-171.7 328,-171.7 328,-149.7 209,-149.7"/>
<text text-anchor="start" x="212" y="-157.4" font-family="Helvetica,sans-Serif" font-size="11.00" fill="#000000">text[2147483647]</text>
<polygon fill="none" stroke="#000000" points="10,-127.7 10,-149.7 209,-149.7 209,-127.7 10,-127.7"/>
<text text-anchor="start" x="30" y="-134.8" font-family="Helvetica,sans-Serif" font-size="11.00" fill="#000000">inspectie_spindel</text>
<polygon fill="none" stroke="#000000" points="209,-127.7 209,-149.7 328,-149.7 328,-127.7 209,-127.7"/>
<text text-anchor="start" x="212" y="-135.4" font-family="Helvetica,sans-Serif" font-size="11.00" fill="#000000">text[2147483647]</text>
<polygon fill="none" stroke="#000000" points="10,-105.7 10,-127.7 209,-127.7 209,-105.7 10,-105.7"/>
<text text-anchor="start" x="30" y="-112.8" font-family="Helvetica,sans-Serif" font-size="11.00" fill="#000000">inspectie_standpijp</text>
<polygon fill="none" stroke="#000000" points="209,-105.7 209,-127.7 328,-127.7 328,-105.7 209,-105.7"/>
<text text-anchor="start" x="212" y="-113.4" font-family="Helvetica,sans-Serif" font-size="11.00" fill="#000000">text[2147483647]</text>
<polygon fill="none" stroke="#000000" points="10,-83.7 10,-105.7 209,-105.7 209,-83.7 10,-83.7"/>
<text text-anchor="start" x="30" y="-90.8" font-family="Helvetica,sans-Serif" font-size="11.00" fill="#000000">inspectie_rechtzetten</text>
<polygon fill="none" stroke="#000000" points="209,-83.7 209,-105.7 328,-105.7 328,-83.7 209,-83.7"/>
<text text-anchor="start" x="212" y="-91.4" font-family="Helvetica,sans-Serif" font-size="11.00" fill="#000000">text[2147483647]</text>
<polygon fill="none" stroke="#000000" points="10,-61.7 10,-83.7 209,-83.7 209,-61.7 10,-61.7"/>
<text text-anchor="start" x="30" y="-68.8" font-family="Helvetica,sans-Serif" font-size="11.00" fill="#000000">inspectie_bluswater</text>
<polygon fill="none" stroke="#000000" points="209,-61.7 209,-83.7 328,-83.7 328,-61.7 209,-61.7"/>
<text text-anchor="start" x="212" y="-69.4" font-family="Helvetica,sans-Serif" font-size="11.00" fill="#000000">text[2147483647]</text>
<polygon fill="none" stroke="#000000" points="10,-39.7 10,-61.7 209,-61.7 209,-39.7 10,-39.7"/>
<text text-anchor="start" x="30" y="-46.8" font-family="Helvetica,sans-Serif" font-size="11.00" fill="#000000">inspectie_leegloopinrichting</text>
<polygon fill="none" stroke="#000000" points="209,-39.7 209,-61.7 328,-61.7 328,-39.7 209,-39.7"/>
<text text-anchor="start" x="212" y="-47.4" font-family="Helvetica,sans-Serif" font-size="11.00" fill="#000000">text[2147483647]</text>
<polygon fill="none" stroke="#000000" stroke-width="2" points="9,-39.2 9,-1098.2 329,-1098.2 329,-39.2 9,-39.2"/>
</a>
</g>
</g>
</g>
</svg>
