<?xml version="1.0" encoding="UTF-8" standalone="no"?>
<!DOCTYPE svg PUBLIC "-//W3C//DTD SVG 1.1//EN"
 "http://www.w3.org/Graphics/SVG/1.1/DTD/svg11.dtd">
<!-- Generated by graphviz version 2.40.1 (20161225.0304)
 -->
<!-- Title: oneDegreeRelationshipsDiagram Pages: 1 -->
<svg width="323pt" height="341pt"
 viewBox="0.00 0.00 323.00 341.20" xmlns="http://www.w3.org/2000/svg" xmlns:xlink="http://www.w3.org/1999/xlink">
<g id="graph0" class="graph" transform="scale(1 1) rotate(0) translate(4 337.2)">
<title>oneDegreeRelationshipsDiagram</title>
<polygon fill="#ffffff" stroke="transparent" points="-4,4 -4,-337.2 319,-337.2 319,4 -4,4"/>
<text text-anchor="middle" x="72.4936" y="-7.3" font-family="Helvetica,sans-Serif" font-size="11.00" fill="#000000">Generated by SchemaSpy</text>
<!-- roi_evenement_geo_sector -->
<g id="node1" class="node">
<title>roi_evenement_geo_sector</title>
<g id="a_node1"><a xlink:href="../../tables/roi_evenement_geo_sector.html" xlink:title="roi_evenement_geo_sector" target="_top">
<polygon fill="#ffffff" stroke="transparent" points="8,-38.2 8,-329.2 307,-329.2 307,-38.2 8,-38.2"/>
<polygon fill="#f5f5f5" stroke="transparent" points="10.5,-303.7 10.5,-326.7 305.5,-326.7 305.5,-303.7 10.5,-303.7"/>
<polygon fill="none" stroke="#000000" points="10.5,-303.7 10.5,-326.7 305.5,-326.7 305.5,-303.7 10.5,-303.7"/>
<text text-anchor="start" x="15.5" y="-312.3" font-family="Helvetica,sans-Serif" font-weight="bold" font-size="11.00" fill="#000000">roi_evenement_geo_sector</text>
<text text-anchor="start" x="272.3895" y="-311.8" font-family="Helvetica,sans-Serif" font-size="11.00" fill="#000000">[view]</text>
<polygon fill="none" stroke="#000000" points="10.5,-281.7 10.5,-303.7 186.5,-303.7 186.5,-281.7 10.5,-281.7"/>
<text text-anchor="start" x="30.5" y="-288.8" font-family="Helvetica,sans-Serif" font-size="11.00" fill="#000000">uuid</text>
<polygon fill="none" stroke="#000000" points="186.5,-281.7 186.5,-303.7 305.5,-303.7 305.5,-281.7 186.5,-281.7"/>
<text text-anchor="start" x="189.5" y="-289.4" font-family="Helvetica,sans-Serif" font-size="11.00" fill="#000000">uuid[2147483647]</text>
<polygon fill="none" stroke="#000000" points="10.5,-259.7 10.5,-281.7 186.5,-281.7 186.5,-259.7 10.5,-259.7"/>
<text text-anchor="start" x="30.5" y="-266.8" font-family="Helvetica,sans-Serif" font-size="11.00" fill="#000000">geom</text>
<polygon fill="none" stroke="#000000" points="186.5,-259.7 186.5,-281.7 305.5,-281.7 305.5,-259.7 186.5,-259.7"/>
<text text-anchor="start" x="189.4485" y="-267.4" font-family="Helvetica,sans-Serif" font-size="11.00" fill="#000000">geometry[2147483647]</text>
<polygon fill="none" stroke="#000000" points="10.5,-237.7 10.5,-259.7 186.5,-259.7 186.5,-237.7 10.5,-237.7"/>
<text text-anchor="start" x="30.5" y="-244.8" font-family="Helvetica,sans-Serif" font-size="11.00" fill="#000000">datum</text>
<polygon fill="none" stroke="#000000" points="186.5,-237.7 186.5,-259.7 305.5,-259.7 305.5,-237.7 186.5,-237.7"/>
<text text-anchor="start" x="189.5" y="-245.4" font-family="Helvetica,sans-Serif" font-size="11.00" fill="#000000">text[2147483647]</text>
<polygon fill="none" stroke="#000000" points="10.5,-215.7 10.5,-237.7 186.5,-237.7 186.5,-215.7 10.5,-215.7"/>
<text text-anchor="start" x="30.5" y="-222.8" font-family="Helvetica,sans-Serif" font-size="11.00" fill="#000000">actualiteit</text>
<polygon fill="none" stroke="#000000" points="186.5,-215.7 186.5,-237.7 305.5,-237.7 305.5,-215.7 186.5,-215.7"/>
<text text-anchor="start" x="189.5" y="-223.4" font-family="Helvetica,sans-Serif" font-size="11.00" fill="#000000">numeric[0]</text>
<polygon fill="none" stroke="#000000" points="10.5,-193.7 10.5,-215.7 186.5,-215.7 186.5,-193.7 10.5,-193.7"/>
<text text-anchor="start" x="30.5" y="-200.8" font-family="Helvetica,sans-Serif" font-size="11.00" fill="#000000">zone</text>
<polygon fill="none" stroke="#000000" points="186.5,-193.7 186.5,-215.7 305.5,-215.7 305.5,-193.7 186.5,-193.7"/>
<text text-anchor="start" x="189.5" y="-201.4" font-family="Helvetica,sans-Serif" font-size="11.00" fill="#000000">text[2147483647]</text>
<polygon fill="none" stroke="#000000" points="10.5,-171.7 10.5,-193.7 186.5,-193.7 186.5,-171.7 10.5,-171.7"/>
<text text-anchor="start" x="30.5" y="-178.8" font-family="Helvetica,sans-Serif" font-size="11.00" fill="#000000">zone_id</text>
<polygon fill="none" stroke="#000000" points="186.5,-171.7 186.5,-193.7 305.5,-193.7 305.5,-171.7 186.5,-171.7"/>
<text text-anchor="start" x="189.5" y="-179.4" font-family="Helvetica,sans-Serif" font-size="11.00" fill="#000000">int2[5]</text>
<polygon fill="none" stroke="#000000" points="10.5,-149.7 10.5,-171.7 186.5,-171.7 186.5,-149.7 10.5,-149.7"/>
<text text-anchor="start" x="30.5" y="-156.8" font-family="Helvetica,sans-Serif" font-size="11.00" fill="#000000">label</text>
<polygon fill="none" stroke="#000000" points="186.5,-149.7 186.5,-171.7 305.5,-171.7 305.5,-149.7 186.5,-149.7"/>
<text text-anchor="start" x="189.5" y="-157.4" font-family="Helvetica,sans-Serif" font-size="11.00" fill="#000000">text[2147483647]</text>
<polygon fill="none" stroke="#000000" points="10.5,-127.7 10.5,-149.7 186.5,-149.7 186.5,-127.7 10.5,-127.7"/>
<text text-anchor="start" x="30.5" y="-134.8" font-family="Helvetica,sans-Serif" font-size="11.00" fill="#000000">rotatie</text>
<polygon fill="none" stroke="#000000" points="186.5,-127.7 186.5,-149.7 305.5,-149.7 305.5,-127.7 186.5,-127.7"/>
<text text-anchor="start" x="189.5" y="-135.4" font-family="Helvetica,sans-Serif" font-size="11.00" fill="#000000">int4[10]</text>
<polygon fill="none" stroke="#000000" points="10.5,-105.7 10.5,-127.7 186.5,-127.7 186.5,-105.7 10.5,-105.7"/>
<text text-anchor="start" x="30.5" y="-112.8" font-family="Helvetica,sans-Serif" font-size="11.00" fill="#000000">bijzonderheden</text>
<polygon fill="none" stroke="#000000" points="186.5,-105.7 186.5,-127.7 305.5,-127.7 305.5,-105.7 186.5,-105.7"/>
<text text-anchor="start" x="189.5" y="-113.4" font-family="Helvetica,sans-Serif" font-size="11.00" fill="#000000">text[2147483647]</text>
<polygon fill="none" stroke="#000000" points="10.5,-83.7 10.5,-105.7 186.5,-105.7 186.5,-83.7 10.5,-83.7"/>
<text text-anchor="start" x="30.5" y="-90.8" font-family="Helvetica,sans-Serif" font-size="11.00" fill="#000000">object_uuid</text>
<polygon fill="none" stroke="#000000" points="186.5,-83.7 186.5,-105.7 305.5,-105.7 305.5,-83.7 186.5,-83.7"/>
<text text-anchor="start" x="189.5" y="-91.4" font-family="Helvetica,sans-Serif" font-size="11.00" fill="#000000">uuid[2147483647]</text>
<polygon fill="none" stroke="#000000" points="10.5,-61.7 10.5,-83.7 186.5,-83.7 186.5,-61.7 10.5,-61.7"/>
<text text-anchor="start" x="30.5" y="-68.8" font-family="Helvetica,sans-Serif" font-size="11.00" fill="#000000">object_fase</text>
<polygon fill="none" stroke="#000000" points="186.5,-61.7 186.5,-83.7 305.5,-83.7 305.5,-61.7 186.5,-61.7"/>
<text text-anchor="start" x="189.5" y="-69.4" font-family="Helvetica,sans-Serif" font-size="11.00" fill="#000000">text[2147483647]</text>
<polygon fill="none" stroke="#000000" points="10.5,-39.7 10.5,-61.7 186.5,-61.7 186.5,-39.7 10.5,-39.7"/>
<text text-anchor="start" x="30.5" y="-46.8" font-family="Helvetica,sans-Serif" font-size="11.00" fill="#000000">object_actualiteit</text>
<polygon fill="none" stroke="#000000" points="186.5,-39.7 186.5,-61.7 305.5,-61.7 305.5,-39.7 186.5,-39.7"/>
<text text-anchor="start" x="189.5" y="-47.4" font-family="Helvetica,sans-Serif" font-size="11.00" fill="#000000">numeric[0]</text>
<polygon fill="none" stroke="#000000" stroke-width="2" points="9,-39.2 9,-328.2 306,-328.2 306,-39.2 9,-39.2"/>
</a>
</g>
</g>
</g>
</svg>
