<?xml version="1.0" encoding="UTF-8" standalone="no"?>
<!DOCTYPE svg PUBLIC "-//W3C//DTD SVG 1.1//EN"
 "http://www.w3.org/Graphics/SVG/1.1/DTD/svg11.dtd">
<!-- Generated by graphviz version 2.40.1 (20161225.0304)
 -->
<!-- Title: compactRelationshipsDiagram Pages: 1 -->
<svg width="480pt" height="879pt"
 viewBox="0.00 0.00 480.00 879.20" xmlns="http://www.w3.org/2000/svg" xmlns:xlink="http://www.w3.org/1999/xlink">
<g id="graph0" class="graph" transform="scale(1 1) rotate(0) translate(4 875.2)">
<title>compactRelationshipsDiagram</title>
<polygon fill="#ffffff" stroke="transparent" points="-4,4 -4,-875.2 476,-875.2 476,4 -4,4"/>
<text text-anchor="middle" x="72.4936" y="-7.3" font-family="Helvetica,sans-Serif" font-size="11.00" fill="#000000">Generated by SchemaSpy</text>
<!-- maatregel -->
<g id="node1" class="node">
<title>maatregel</title>
<g id="a_node1"><a xlink:href="../../tables/maatregel.html" xlink:title="maatregel" target="_top">
<polygon fill="#ffffff" stroke="transparent" points="338,-718.2 338,-867.2 464,-867.2 464,-718.2 338,-718.2"/>
<polygon fill="#f5f5f5" stroke="transparent" points="338,-843.7 338,-866.7 464,-866.7 464,-843.7 338,-843.7"/>
<polygon fill="none" stroke="#000000" points="338,-843.7 338,-866.7 464,-866.7 464,-843.7 338,-843.7"/>
<text text-anchor="start" x="343" y="-852.3" font-family="Helvetica,sans-Serif" font-weight="bold" font-size="11.00" fill="#000000">maatregel</text>
<text text-anchor="start" x="429.0437" y="-851.8" font-family="Helvetica,sans-Serif" font-size="11.00" fill="#000000">[table]</text>
<polygon fill="none" stroke="#000000" points="338,-821.7 338,-843.7 464,-843.7 464,-821.7 338,-821.7"/>
<image xlink:href="../../images/primaryKeys.png" width="11px" height="12px" preserveAspectRatio="xMinYMin meet" x="343" y="-838.7"/>
<text text-anchor="start" x="358" y="-828.8" font-family="Helvetica,sans-Serif" font-size="11.00" fill="#000000">uuid</text>
<polygon fill="#ffffff" stroke="transparent" points="338,-799.7 338,-821.7 464,-821.7 464,-799.7 338,-799.7"/>
<polygon fill="none" stroke="#000000" points="338,-799.7 338,-821.7 464,-821.7 464,-799.7 338,-799.7"/>
<text text-anchor="start" x="358" y="-806.8" font-family="Helvetica,sans-Serif" font-size="11.00" fill="#000000">geom</text>
<polygon fill="#ffffff" stroke="transparent" points="338,-777.7 338,-799.7 464,-799.7 464,-777.7 338,-777.7"/>
<polygon fill="none" stroke="#000000" points="338,-777.7 338,-799.7 464,-799.7 464,-777.7 338,-777.7"/>
<image xlink:href="../../images/foreignKeys.png" width="11px" height="12px" preserveAspectRatio="xMinYMin meet" x="343" y="-794.7"/>
<text text-anchor="start" x="358" y="-784.8" font-family="Helvetica,sans-Serif" font-size="11.00" fill="#000000">object_uuid</text>
<polygon fill="none" stroke="#000000" points="338,-755.7 338,-777.7 464,-777.7 464,-755.7 338,-755.7"/>
<image xlink:href="../../images/foreignKeys.png" width="11px" height="12px" preserveAspectRatio="xMinYMin meet" x="343" y="-772.7"/>
<text text-anchor="start" x="358" y="-762.8" font-family="Helvetica,sans-Serif" font-size="11.00" fill="#000000">maatregel_type_id</text>
<polygon fill="none" stroke="#000000" points="338,-736.7 338,-755.7 464,-755.7 464,-736.7 338,-736.7"/>
<text text-anchor="start" x="341" y="-742.8" font-family="Helvetica,sans-Serif" font-size="11.00" fill="#000000">...</text>
<polygon fill="#ffffff" stroke="transparent" points="338,-717.7 338,-736.7 399,-736.7 399,-717.7 338,-717.7"/>
<polygon fill="none" stroke="#000000" points="338,-717.7 338,-736.7 399,-736.7 399,-717.7 338,-717.7"/>
<text text-anchor="start" x="341" y="-723.8" font-family="Helvetica,sans-Serif" font-size="11.00" fill="#000000">&lt; 2</text>
<polygon fill="#ffffff" stroke="transparent" points="399,-717.7 399,-736.7 431,-736.7 431,-717.7 399,-717.7"/>
<polygon fill="none" stroke="#000000" points="399,-717.7 399,-736.7 431,-736.7 431,-717.7 399,-717.7"/>
<text text-anchor="start" x="421.8862" y="-723.8" font-family="Helvetica,sans-Serif" font-size="11.00" fill="#000000"> &#160;</text>
<polygon fill="#ffffff" stroke="transparent" points="431,-717.7 431,-736.7 464,-736.7 464,-717.7 431,-717.7"/>
<polygon fill="none" stroke="#000000" points="431,-717.7 431,-736.7 464,-736.7 464,-717.7 431,-717.7"/>
<text text-anchor="start" x="454.8862" y="-723.8" font-family="Helvetica,sans-Serif" font-size="11.00" fill="#000000"> &#160;</text>
</a>
</g>
</g>
<!-- maatregel_type -->
<g id="node4" class="node">
<title>maatregel_type</title>
<g id="a_node4"><a xlink:href="../../tables/maatregel_type.html" xlink:title="maatregel_type" target="_top">
<polygon fill="#ffffff" stroke="transparent" points="162,-718.2 162,-801.2 289,-801.2 289,-718.2 162,-718.2"/>
<polygon fill="#f5f5f5" stroke="transparent" points="162.5,-777.7 162.5,-800.7 289.5,-800.7 289.5,-777.7 162.5,-777.7"/>
<polygon fill="none" stroke="#000000" points="162.5,-777.7 162.5,-800.7 289.5,-800.7 289.5,-777.7 162.5,-777.7"/>
<text text-anchor="start" x="167.5" y="-786.3" font-family="Helvetica,sans-Serif" font-weight="bold" font-size="11.00" fill="#000000">maatregel_type</text>
<text text-anchor="start" x="255.0219" y="-785.8" font-family="Helvetica,sans-Serif" font-size="11.00" fill="#000000">[table]</text>
<polygon fill="none" stroke="#000000" points="162.5,-755.7 162.5,-777.7 289.5,-777.7 289.5,-755.7 162.5,-755.7"/>
<image xlink:href="../../images/primaryKeys.png" width="11px" height="12px" preserveAspectRatio="xMinYMin meet" x="167.5" y="-772.7"/>
<text text-anchor="start" x="191.5" y="-762.8" font-family="Helvetica,sans-Serif" font-size="11.00" fill="#000000">id</text>
<polygon fill="none" stroke="#000000" points="162.5,-736.7 162.5,-755.7 289.5,-755.7 289.5,-736.7 162.5,-736.7"/>
<text text-anchor="start" x="165.5" y="-742.8" font-family="Helvetica,sans-Serif" font-size="11.00" fill="#000000">...</text>
<polygon fill="#ffffff" stroke="transparent" points="162.5,-717.7 162.5,-736.7 215.5,-736.7 215.5,-717.7 162.5,-717.7"/>
<polygon fill="none" stroke="#000000" points="162.5,-717.7 162.5,-736.7 215.5,-736.7 215.5,-717.7 162.5,-717.7"/>
<text text-anchor="start" x="165.5" y="-723.8" font-family="Helvetica,sans-Serif" font-size="11.00" fill="#000000"> &#160;</text>
<polygon fill="#ffffff" stroke="transparent" points="215.5,-717.7 215.5,-736.7 247.5,-736.7 247.5,-717.7 215.5,-717.7"/>
<polygon fill="none" stroke="#000000" points="215.5,-717.7 215.5,-736.7 247.5,-736.7 247.5,-717.7 215.5,-717.7"/>
<text text-anchor="start" x="238.3862" y="-723.8" font-family="Helvetica,sans-Serif" font-size="11.00" fill="#000000"> &#160;</text>
<polygon fill="#ffffff" stroke="transparent" points="247.5,-717.7 247.5,-736.7 289.5,-736.7 289.5,-717.7 247.5,-717.7"/>
<polygon fill="none" stroke="#000000" points="247.5,-717.7 247.5,-736.7 289.5,-736.7 289.5,-717.7 247.5,-717.7"/>
<text text-anchor="start" x="270.9053" y="-723.8" font-family="Helvetica,sans-Serif" font-size="11.00" fill="#000000">1 &gt;</text>
</a>
</g>
</g>
<!-- maatregel&#45;&gt;maatregel_type -->
<g id="edge5" class="edge">
<title>maatregel:w&#45;&gt;maatregel_type:e</title>
<path fill="none" stroke="#000000" d="M323.2829,-766.7C312.2886,-766.7 305.1615,-766.7 289.5,-766.7"/>
<polygon fill="#000000" stroke="#000000" points="330,-766.7001 338,-770.3 334,-766.7 338,-766.7 338,-766.7 338,-766.7 334,-766.7 338,-763.1 330,-766.7001 330,-766.7001"/>
<ellipse fill="none" stroke="#000000" cx="326.8" cy="-766.7001" rx="3.2" ry="3.2"/>
</g>
<!-- object -->
<g id="node7" class="node">
<title>object</title>
<g id="a_node7"><a xlink:href="../../tables/object.html" xlink:title="object" target="_top">
<polygon fill="#ffffff" stroke="transparent" points="164,-382.2 164,-553.2 287,-553.2 287,-382.2 164,-382.2"/>
<polygon fill="#f5f5f5" stroke="transparent" points="164.5,-529.7 164.5,-552.7 287.5,-552.7 287.5,-529.7 164.5,-529.7"/>
<polygon fill="none" stroke="#000000" points="164.5,-529.7 164.5,-552.7 287.5,-552.7 287.5,-529.7 164.5,-529.7"/>
<text text-anchor="start" x="169.5" y="-538.3" font-family="Helvetica,sans-Serif" font-weight="bold" font-size="11.00" fill="#000000">object</text>
<text text-anchor="start" x="252.5437" y="-537.8" font-family="Helvetica,sans-Serif" font-size="11.00" fill="#000000">[table]</text>
<polygon fill="none" stroke="#000000" points="164.5,-507.7 164.5,-529.7 287.5,-529.7 287.5,-507.7 164.5,-507.7"/>
<image xlink:href="../../images/primaryKeys.png" width="11px" height="12px" preserveAspectRatio="xMinYMin meet" x="169.5" y="-524.7"/>
<text text-anchor="start" x="184.5" y="-514.8" font-family="Helvetica,sans-Serif" font-size="11.00" fill="#000000">uuid</text>
<polygon fill="#ffffff" stroke="transparent" points="164.5,-485.7 164.5,-507.7 287.5,-507.7 287.5,-485.7 164.5,-485.7"/>
<polygon fill="none" stroke="#000000" points="164.5,-485.7 164.5,-507.7 287.5,-507.7 287.5,-485.7 164.5,-485.7"/>
<text text-anchor="start" x="184.5" y="-492.8" font-family="Helvetica,sans-Serif" font-size="11.00" fill="#000000">geom</text>
<polygon fill="#ffffff" stroke="transparent" points="164.5,-463.7 164.5,-485.7 287.5,-485.7 287.5,-463.7 164.5,-463.7"/>
<polygon fill="none" stroke="#000000" points="164.5,-463.7 164.5,-485.7 287.5,-485.7 287.5,-463.7 164.5,-463.7"/>
<text text-anchor="start" x="184.5" y="-470.8" font-family="Helvetica,sans-Serif" font-size="11.00" fill="#000000">revisie_frequentie</text>
<polygon fill="#ffffff" stroke="transparent" points="164.5,-441.7 164.5,-463.7 287.5,-463.7 287.5,-441.7 164.5,-441.7"/>
<polygon fill="none" stroke="#000000" points="164.5,-441.7 164.5,-463.7 287.5,-463.7 287.5,-441.7 164.5,-441.7"/>
<image xlink:href="../../images/foreignKeys.png" width="11px" height="12px" preserveAspectRatio="xMinYMin meet" x="169.5" y="-458.7"/>
<text text-anchor="start" x="184.5" y="-448.8" font-family="Helvetica,sans-Serif" font-size="11.00" fill="#000000">fase_id</text>
<polygon fill="#ffffff" stroke="transparent" points="164.5,-419.7 164.5,-441.7 287.5,-441.7 287.5,-419.7 164.5,-419.7"/>
<polygon fill="none" stroke="#000000" points="164.5,-419.7 164.5,-441.7 287.5,-441.7 287.5,-419.7 164.5,-419.7"/>
<image xlink:href="../../images/foreignKeys.png" width="11px" height="12px" preserveAspectRatio="xMinYMin meet" x="169.5" y="-436.7"/>
<text text-anchor="start" x="184.5" y="-426.8" font-family="Helvetica,sans-Serif" font-size="11.00" fill="#000000">object_type_id</text>
<polygon fill="none" stroke="#000000" points="164.5,-400.7 164.5,-419.7 287.5,-419.7 287.5,-400.7 164.5,-400.7"/>
<text text-anchor="start" x="167.5" y="-406.8" font-family="Helvetica,sans-Serif" font-size="11.00" fill="#000000">...</text>
<polygon fill="#ffffff" stroke="transparent" points="164.5,-381.7 164.5,-400.7 219.5,-400.7 219.5,-381.7 164.5,-381.7"/>
<polygon fill="none" stroke="#000000" points="164.5,-381.7 164.5,-400.7 219.5,-400.7 219.5,-381.7 164.5,-381.7"/>
<text text-anchor="start" x="167.5" y="-387.8" font-family="Helvetica,sans-Serif" font-size="11.00" fill="#000000">&lt; 2</text>
<polygon fill="#ffffff" stroke="transparent" points="219.5,-381.7 219.5,-400.7 248.5,-400.7 248.5,-381.7 219.5,-381.7"/>
<polygon fill="none" stroke="#000000" points="219.5,-381.7 219.5,-400.7 248.5,-400.7 248.5,-381.7 219.5,-381.7"/>
<text text-anchor="start" x="239.3862" y="-387.8" font-family="Helvetica,sans-Serif" font-size="11.00" fill="#000000"> &#160;</text>
<polygon fill="#ffffff" stroke="transparent" points="248.5,-381.7 248.5,-400.7 287.5,-400.7 287.5,-381.7 248.5,-381.7"/>
<polygon fill="none" stroke="#000000" points="248.5,-381.7 248.5,-400.7 287.5,-400.7 287.5,-381.7 248.5,-381.7"/>
<text text-anchor="start" x="268.9053" y="-387.8" font-family="Helvetica,sans-Serif" font-size="11.00" fill="#000000">5 &gt;</text>
</a>
</g>
</g>
<!-- maatregel&#45;&gt;object -->
<g id="edge6" class="edge">
<title>maatregel:w&#45;&gt;object:e</title>
<path fill="none" stroke="#000000" d="M324.7987,-782.8096C288.5177,-743.3247 343.1756,-518.7 287.5,-518.7"/>
<polygon fill="#000000" stroke="#000000" points="330.6943,-785.4402 336.5331,-791.9876 334.3471,-787.0701 338,-788.7 338,-788.7 338,-788.7 334.3471,-787.0701 339.4669,-785.4124 330.6943,-785.4402 330.6943,-785.4402"/>
<ellipse fill="none" stroke="#000000" cx="327.772" cy="-784.1362" rx="3.2" ry="3.2"/>
</g>
<!-- sector -->
<g id="node2" class="node">
<title>sector</title>
<g id="a_node2"><a xlink:href="../../tables/sector.html" xlink:title="sector" target="_top">
<polygon fill="#ffffff" stroke="transparent" points="346.5,-548.2 346.5,-697.2 455.5,-697.2 455.5,-548.2 346.5,-548.2"/>
<polygon fill="#f5f5f5" stroke="transparent" points="347,-673.7 347,-696.7 456,-696.7 456,-673.7 347,-673.7"/>
<polygon fill="none" stroke="#000000" points="347,-673.7 347,-696.7 456,-696.7 456,-673.7 347,-673.7"/>
<text text-anchor="start" x="352" y="-682.3" font-family="Helvetica,sans-Serif" font-weight="bold" font-size="11.00" fill="#000000">sector</text>
<text text-anchor="start" x="421.0437" y="-681.8" font-family="Helvetica,sans-Serif" font-size="11.00" fill="#000000">[table]</text>
<polygon fill="none" stroke="#000000" points="347,-651.7 347,-673.7 456,-673.7 456,-651.7 347,-651.7"/>
<image xlink:href="../../images/primaryKeys.png" width="11px" height="12px" preserveAspectRatio="xMinYMin meet" x="352" y="-668.7"/>
<text text-anchor="start" x="367" y="-658.8" font-family="Helvetica,sans-Serif" font-size="11.00" fill="#000000">uuid</text>
<polygon fill="#ffffff" stroke="transparent" points="347,-629.7 347,-651.7 456,-651.7 456,-629.7 347,-629.7"/>
<polygon fill="none" stroke="#000000" points="347,-629.7 347,-651.7 456,-651.7 456,-629.7 347,-629.7"/>
<text text-anchor="start" x="367" y="-636.8" font-family="Helvetica,sans-Serif" font-size="11.00" fill="#000000">geom</text>
<polygon fill="#ffffff" stroke="transparent" points="347,-607.7 347,-629.7 456,-629.7 456,-607.7 347,-607.7"/>
<polygon fill="none" stroke="#000000" points="347,-607.7 347,-629.7 456,-629.7 456,-607.7 347,-607.7"/>
<image xlink:href="../../images/foreignKeys.png" width="11px" height="12px" preserveAspectRatio="xMinYMin meet" x="352" y="-624.7"/>
<text text-anchor="start" x="367" y="-614.8" font-family="Helvetica,sans-Serif" font-size="11.00" fill="#000000">object_uuid</text>
<polygon fill="none" stroke="#000000" points="347,-585.7 347,-607.7 456,-607.7 456,-585.7 347,-585.7"/>
<image xlink:href="../../images/foreignKeys.png" width="11px" height="12px" preserveAspectRatio="xMinYMin meet" x="352" y="-602.7"/>
<text text-anchor="start" x="367" y="-592.8" font-family="Helvetica,sans-Serif" font-size="11.00" fill="#000000">zone_id</text>
<polygon fill="none" stroke="#000000" points="347,-566.7 347,-585.7 456,-585.7 456,-566.7 347,-566.7"/>
<text text-anchor="start" x="350" y="-572.8" font-family="Helvetica,sans-Serif" font-size="11.00" fill="#000000">...</text>
<polygon fill="#ffffff" stroke="transparent" points="347,-547.7 347,-566.7 400,-566.7 400,-547.7 347,-547.7"/>
<polygon fill="none" stroke="#000000" points="347,-547.7 347,-566.7 400,-566.7 400,-547.7 347,-547.7"/>
<text text-anchor="start" x="350" y="-553.8" font-family="Helvetica,sans-Serif" font-size="11.00" fill="#000000">&lt; 2</text>
<polygon fill="#ffffff" stroke="transparent" points="400,-547.7 400,-566.7 428,-566.7 428,-547.7 400,-547.7"/>
<polygon fill="none" stroke="#000000" points="400,-547.7 400,-566.7 428,-566.7 428,-547.7 400,-547.7"/>
<text text-anchor="start" x="418.8862" y="-553.8" font-family="Helvetica,sans-Serif" font-size="11.00" fill="#000000"> &#160;</text>
<polygon fill="#ffffff" stroke="transparent" points="428,-547.7 428,-566.7 456,-566.7 456,-547.7 428,-547.7"/>
<polygon fill="none" stroke="#000000" points="428,-547.7 428,-566.7 456,-566.7 456,-547.7 428,-547.7"/>
<text text-anchor="start" x="446.8862" y="-553.8" font-family="Helvetica,sans-Serif" font-size="11.00" fill="#000000"> &#160;</text>
</a>
</g>
</g>
<!-- sector&#45;&gt;object -->
<g id="edge9" class="edge">
<title>sector:w&#45;&gt;object:e</title>
<path fill="none" stroke="#000000" d="M332.8286,-615.1409C304.0095,-597.327 333.3582,-518.7 287.5,-518.7"/>
<polygon fill="#000000" stroke="#000000" points="339.241,-616.7513 346.1231,-622.1916 343.1205,-617.7257 347,-618.7 347,-618.7 347,-618.7 343.1205,-617.7257 347.8769,-615.2084 339.241,-616.7513 339.241,-616.7513"/>
<ellipse fill="none" stroke="#000000" cx="336.1373" cy="-615.9718" rx="3.2" ry="3.2"/>
</g>
<!-- roi.zone -->
<g id="node13" class="node">
<title>roi.zone</title>
<g id="a_node13"><a xlink:href="../../../roi/tables/zone.html" xlink:title="roi.zone" target="_top">
<polygon fill="#ffffff" stroke="transparent" points="183,-574.2 183,-635.2 268,-635.2 268,-574.2 183,-574.2"/>
<polygon fill="#f5f5f5" stroke="transparent" points="183.5,-611.7 183.5,-634.7 268.5,-634.7 268.5,-611.7 183.5,-611.7"/>
<polygon fill="none" stroke="#000000" points="183.5,-611.7 183.5,-634.7 268.5,-634.7 268.5,-611.7 183.5,-611.7"/>
<text text-anchor="start" x="188.5" y="-620.3" font-family="Helvetica,sans-Serif" font-weight="bold" font-size="11.00" fill="#000000">roi.zone</text>
<text text-anchor="start" x="234.0219" y="-619.8" font-family="Helvetica,sans-Serif" font-size="11.00" fill="#000000">[table]</text>
<polygon fill="none" stroke="#000000" points="183.5,-592.7 183.5,-611.7 268.5,-611.7 268.5,-592.7 183.5,-592.7"/>
<text text-anchor="start" x="186.5" y="-598.8" font-family="Helvetica,sans-Serif" font-size="11.00" fill="#000000">...</text>
<polygon fill="#ffffff" stroke="transparent" points="183.5,-573.7 183.5,-592.7 215.5,-592.7 215.5,-573.7 183.5,-573.7"/>
<polygon fill="none" stroke="#000000" points="183.5,-573.7 183.5,-592.7 215.5,-592.7 215.5,-573.7 183.5,-573.7"/>
<text text-anchor="start" x="186.5" y="-579.8" font-family="Helvetica,sans-Serif" font-size="11.00" fill="#000000"> &#160;</text>
<polygon fill="#ffffff" stroke="transparent" points="215.5,-573.7 215.5,-592.7 237.5,-592.7 237.5,-573.7 215.5,-573.7"/>
<polygon fill="none" stroke="#000000" points="215.5,-573.7 215.5,-592.7 237.5,-592.7 237.5,-573.7 215.5,-573.7"/>
<text text-anchor="start" x="228.3862" y="-579.8" font-family="Helvetica,sans-Serif" font-size="11.00" fill="#000000"> &#160;</text>
<polygon fill="#ffffff" stroke="transparent" points="237.5,-573.7 237.5,-592.7 268.5,-592.7 268.5,-573.7 237.5,-573.7"/>
<polygon fill="none" stroke="#000000" points="237.5,-573.7 237.5,-592.7 268.5,-592.7 268.5,-573.7 237.5,-573.7"/>
<text text-anchor="start" x="249.9053" y="-579.8" font-family="Helvetica,sans-Serif" font-size="11.00" fill="#000000">1 &gt;</text>
</a>
</g>
</g>
<!-- sector&#45;&gt;roi.zone -->
<g id="edge10" class="edge">
<title>sector:w&#45;&gt;roi.zone:e</title>
<path fill="none" stroke="#000000" d="M332.5804,-596.8722C313.4678,-597.3086 293.6252,-598.5193 276.2901,-599.8618"/>
<polygon fill="#000000" stroke="#000000" points="339.0006,-596.7956 347.043,-600.2997 343.0003,-596.7478 347,-596.7 347,-596.7 347,-596.7 343.0003,-596.7478 346.957,-593.1003 339.0006,-596.7956 339.0006,-596.7956"/>
<ellipse fill="none" stroke="#000000" cx="335.8008" cy="-596.8338" rx="3.2" ry="3.2"/>
</g>
<!-- label -->
<g id="node3" class="node">
<title>label</title>
<g id="a_node3"><a xlink:href="../../tables/label.html" xlink:title="label" target="_top">
<polygon fill="#ffffff" stroke="transparent" points="346.5,-378.2 346.5,-527.2 455.5,-527.2 455.5,-378.2 346.5,-378.2"/>
<polygon fill="#f5f5f5" stroke="transparent" points="347,-503.7 347,-526.7 456,-526.7 456,-503.7 347,-503.7"/>
<polygon fill="none" stroke="#000000" points="347,-503.7 347,-526.7 456,-526.7 456,-503.7 347,-503.7"/>
<text text-anchor="start" x="351.8868" y="-512.3" font-family="Helvetica,sans-Serif" font-weight="bold" font-size="11.00" fill="#000000">label</text>
<text text-anchor="start" x="421.0437" y="-511.8" font-family="Helvetica,sans-Serif" font-size="11.00" fill="#000000">[table]</text>
<polygon fill="none" stroke="#000000" points="347,-481.7 347,-503.7 456,-503.7 456,-481.7 347,-481.7"/>
<image xlink:href="../../images/primaryKeys.png" width="11px" height="12px" preserveAspectRatio="xMinYMin meet" x="352" y="-498.7"/>
<text text-anchor="start" x="367" y="-488.8" font-family="Helvetica,sans-Serif" font-size="11.00" fill="#000000">uuid</text>
<polygon fill="#ffffff" stroke="transparent" points="347,-459.7 347,-481.7 456,-481.7 456,-459.7 347,-459.7"/>
<polygon fill="none" stroke="#000000" points="347,-459.7 347,-481.7 456,-481.7 456,-459.7 347,-459.7"/>
<text text-anchor="start" x="367" y="-466.8" font-family="Helvetica,sans-Serif" font-size="11.00" fill="#000000">geom</text>
<polygon fill="#ffffff" stroke="transparent" points="347,-437.7 347,-459.7 456,-459.7 456,-437.7 347,-437.7"/>
<polygon fill="none" stroke="#000000" points="347,-437.7 347,-459.7 456,-459.7 456,-437.7 347,-437.7"/>
<image xlink:href="../../images/foreignKeys.png" width="11px" height="12px" preserveAspectRatio="xMinYMin meet" x="352" y="-454.7"/>
<text text-anchor="start" x="367" y="-444.8" font-family="Helvetica,sans-Serif" font-size="11.00" fill="#000000">object_uuid</text>
<polygon fill="none" stroke="#000000" points="347,-415.7 347,-437.7 456,-437.7 456,-415.7 347,-415.7"/>
<image xlink:href="../../images/foreignKeys.png" width="11px" height="12px" preserveAspectRatio="xMinYMin meet" x="352" y="-432.7"/>
<text text-anchor="start" x="367" y="-422.8" font-family="Helvetica,sans-Serif" font-size="11.00" fill="#000000">annotatie_id</text>
<polygon fill="none" stroke="#000000" points="347,-396.7 347,-415.7 456,-415.7 456,-396.7 347,-396.7"/>
<text text-anchor="start" x="350" y="-402.8" font-family="Helvetica,sans-Serif" font-size="11.00" fill="#000000">...</text>
<polygon fill="#ffffff" stroke="transparent" points="347,-377.7 347,-396.7 400,-396.7 400,-377.7 347,-377.7"/>
<polygon fill="none" stroke="#000000" points="347,-377.7 347,-396.7 400,-396.7 400,-377.7 347,-377.7"/>
<text text-anchor="start" x="350" y="-383.8" font-family="Helvetica,sans-Serif" font-size="11.00" fill="#000000">&lt; 2</text>
<polygon fill="#ffffff" stroke="transparent" points="400,-377.7 400,-396.7 428,-396.7 428,-377.7 400,-377.7"/>
<polygon fill="none" stroke="#000000" points="400,-377.7 400,-396.7 428,-396.7 428,-377.7 400,-377.7"/>
<text text-anchor="start" x="418.8862" y="-383.8" font-family="Helvetica,sans-Serif" font-size="11.00" fill="#000000"> &#160;</text>
<polygon fill="#ffffff" stroke="transparent" points="428,-377.7 428,-396.7 456,-396.7 456,-377.7 428,-377.7"/>
<polygon fill="none" stroke="#000000" points="428,-377.7 428,-396.7 456,-396.7 456,-377.7 428,-377.7"/>
<text text-anchor="start" x="446.8862" y="-383.8" font-family="Helvetica,sans-Serif" font-size="11.00" fill="#000000"> &#160;</text>
</a>
</g>
</g>
<!-- label&#45;&gt;object -->
<g id="edge4" class="edge">
<title>label:w&#45;&gt;object:e</title>
<path fill="none" stroke="#000000" d="M332.8631,-452.6641C311.2591,-467.4721 322.4301,-518.7 287.5,-518.7"/>
<polygon fill="#000000" stroke="#000000" points="339.2971,-450.86 347.972,-452.1663 343.1485,-449.78 347,-448.7 347,-448.7 347,-448.7 343.1485,-449.78 346.028,-445.2337 339.2971,-450.86 339.2971,-450.86"/>
<ellipse fill="none" stroke="#000000" cx="336.2159" cy="-451.724" rx="3.2" ry="3.2"/>
</g>
<!-- roi.annotatie -->
<g id="node9" class="node">
<title>roi.annotatie</title>
<g id="a_node9"><a xlink:href="../../../roi/tables/annotatie.html" xlink:title="roi.annotatie" target="_top">
<polygon fill="#ffffff" stroke="transparent" points="170,-300.2 170,-361.2 281,-361.2 281,-300.2 170,-300.2"/>
<polygon fill="#f5f5f5" stroke="transparent" points="170.5,-337.7 170.5,-360.7 281.5,-360.7 281.5,-337.7 170.5,-337.7"/>
<polygon fill="none" stroke="#000000" points="170.5,-337.7 170.5,-360.7 281.5,-360.7 281.5,-337.7 170.5,-337.7"/>
<text text-anchor="start" x="175.5" y="-346.3" font-family="Helvetica,sans-Serif" font-weight="bold" font-size="11.00" fill="#000000">roi.annotatie</text>
<text text-anchor="start" x="247.0219" y="-345.8" font-family="Helvetica,sans-Serif" font-size="11.00" fill="#000000">[table]</text>
<polygon fill="none" stroke="#000000" points="170.5,-318.7 170.5,-337.7 281.5,-337.7 281.5,-318.7 170.5,-318.7"/>
<text text-anchor="start" x="173.5" y="-324.8" font-family="Helvetica,sans-Serif" font-size="11.00" fill="#000000">...</text>
<polygon fill="#ffffff" stroke="transparent" points="170.5,-299.7 170.5,-318.7 215.5,-318.7 215.5,-299.7 170.5,-299.7"/>
<polygon fill="none" stroke="#000000" points="170.5,-299.7 170.5,-318.7 215.5,-318.7 215.5,-299.7 170.5,-299.7"/>
<text text-anchor="start" x="173.5" y="-305.8" font-family="Helvetica,sans-Serif" font-size="11.00" fill="#000000"> &#160;</text>
<polygon fill="#ffffff" stroke="transparent" points="215.5,-299.7 215.5,-318.7 243.5,-318.7 243.5,-299.7 215.5,-299.7"/>
<polygon fill="none" stroke="#000000" points="215.5,-299.7 215.5,-318.7 243.5,-318.7 243.5,-299.7 215.5,-299.7"/>
<text text-anchor="start" x="234.3862" y="-305.8" font-family="Helvetica,sans-Serif" font-size="11.00" fill="#000000"> &#160;</text>
<polygon fill="#ffffff" stroke="transparent" points="243.5,-299.7 243.5,-318.7 281.5,-318.7 281.5,-299.7 243.5,-299.7"/>
<polygon fill="none" stroke="#000000" points="243.5,-299.7 243.5,-318.7 281.5,-318.7 281.5,-299.7 243.5,-299.7"/>
<text text-anchor="start" x="262.9053" y="-305.8" font-family="Helvetica,sans-Serif" font-size="11.00" fill="#000000">1 &gt;</text>
</a>
</g>
</g>
<!-- label&#45;&gt;roi.annotatie -->
<g id="edge3" class="edge">
<title>label:w&#45;&gt;roi.annotatie:e</title>
<path fill="none" stroke="#000000" d="M332.7999,-423.6548C316.0077,-414.8098 318.1261,-388.6729 297,-371.7 294.3228,-369.5491 291.5191,-367.4411 288.6363,-365.387"/>
<polygon fill="#000000" stroke="#000000" points="339.1778,-425.0225 346.2451,-430.22 343.0889,-425.8612 347,-426.7 347,-426.7 347,-426.7 343.0889,-425.8612 347.7549,-423.18 339.1778,-425.0225 339.1778,-425.0225"/>
<ellipse fill="none" stroke="#000000" cx="336.049" cy="-424.3515" rx="3.2" ry="3.2"/>
</g>
<!-- bereikbaarheid -->
<g id="node5" class="node">
<title>bereikbaarheid</title>
<g id="a_node5"><a xlink:href="../../tables/bereikbaarheid.html" xlink:title="bereikbaarheid" target="_top">
<polygon fill="#ffffff" stroke="transparent" points="339,-208.2 339,-357.2 463,-357.2 463,-208.2 339,-208.2"/>
<polygon fill="#f5f5f5" stroke="transparent" points="339,-333.7 339,-356.7 463,-356.7 463,-333.7 339,-333.7"/>
<polygon fill="none" stroke="#000000" points="339,-333.7 339,-356.7 463,-356.7 463,-333.7 339,-333.7"/>
<text text-anchor="start" x="344" y="-342.3" font-family="Helvetica,sans-Serif" font-weight="bold" font-size="11.00" fill="#000000">bereikbaarheid</text>
<text text-anchor="start" x="428.5219" y="-341.8" font-family="Helvetica,sans-Serif" font-size="11.00" fill="#000000">[table]</text>
<polygon fill="none" stroke="#000000" points="339,-311.7 339,-333.7 463,-333.7 463,-311.7 339,-311.7"/>
<image xlink:href="../../images/primaryKeys.png" width="11px" height="12px" preserveAspectRatio="xMinYMin meet" x="344" y="-328.7"/>
<text text-anchor="start" x="367" y="-318.8" font-family="Helvetica,sans-Serif" font-size="11.00" fill="#000000">uuid</text>
<polygon fill="#ffffff" stroke="transparent" points="339,-289.7 339,-311.7 463,-311.7 463,-289.7 339,-289.7"/>
<polygon fill="none" stroke="#000000" points="339,-289.7 339,-311.7 463,-311.7 463,-289.7 339,-289.7"/>
<text text-anchor="start" x="367" y="-296.8" font-family="Helvetica,sans-Serif" font-size="11.00" fill="#000000">geom</text>
<polygon fill="#ffffff" stroke="transparent" points="339,-267.7 339,-289.7 463,-289.7 463,-267.7 339,-267.7"/>
<polygon fill="none" stroke="#000000" points="339,-267.7 339,-289.7 463,-289.7 463,-267.7 339,-267.7"/>
<image xlink:href="../../images/foreignKeys.png" width="11px" height="12px" preserveAspectRatio="xMinYMin meet" x="344" y="-284.7"/>
<text text-anchor="start" x="367" y="-274.8" font-family="Helvetica,sans-Serif" font-size="11.00" fill="#000000">object_uuid</text>
<polygon fill="none" stroke="#000000" points="339,-245.7 339,-267.7 463,-267.7 463,-245.7 339,-245.7"/>
<image xlink:href="../../images/foreignKeys.png" width="11px" height="12px" preserveAspectRatio="xMinYMin meet" x="344" y="-262.7"/>
<text text-anchor="start" x="367" y="-252.8" font-family="Helvetica,sans-Serif" font-size="11.00" fill="#000000">verbinding_id</text>
<polygon fill="none" stroke="#000000" points="339,-226.7 339,-245.7 463,-245.7 463,-226.7 339,-226.7"/>
<text text-anchor="start" x="342" y="-232.8" font-family="Helvetica,sans-Serif" font-size="11.00" fill="#000000">...</text>
<polygon fill="#ffffff" stroke="transparent" points="339,-207.7 339,-226.7 399,-226.7 399,-207.7 339,-207.7"/>
<polygon fill="none" stroke="#000000" points="339,-207.7 339,-226.7 399,-226.7 399,-207.7 339,-207.7"/>
<text text-anchor="start" x="342" y="-213.8" font-family="Helvetica,sans-Serif" font-size="11.00" fill="#000000">&lt; 2</text>
<polygon fill="#ffffff" stroke="transparent" points="399,-207.7 399,-226.7 431,-226.7 431,-207.7 399,-207.7"/>
<polygon fill="none" stroke="#000000" points="399,-207.7 399,-226.7 431,-226.7 431,-207.7 399,-207.7"/>
<text text-anchor="start" x="421.8862" y="-213.8" font-family="Helvetica,sans-Serif" font-size="11.00" fill="#000000"> &#160;</text>
<polygon fill="#ffffff" stroke="transparent" points="431,-207.7 431,-226.7 463,-226.7 463,-207.7 431,-207.7"/>
<polygon fill="none" stroke="#000000" points="431,-207.7 431,-226.7 463,-226.7 463,-207.7 431,-207.7"/>
<text text-anchor="start" x="453.8862" y="-213.8" font-family="Helvetica,sans-Serif" font-size="11.00" fill="#000000"> &#160;</text>
</a>
</g>
</g>
<!-- bereikbaarheid&#45;&gt;object -->
<g id="edge1" class="edge">
<title>bereikbaarheid:w&#45;&gt;object:e</title>
<path fill="none" stroke="#000000" d="M324.4414,-280.4938C246.1234,-302.4561 391.0548,-518.7 287.5,-518.7"/>
<polygon fill="#000000" stroke="#000000" points="331.06,-279.6784 339.4403,-282.273 335.03,-279.1892 339,-278.7 339,-278.7 339,-278.7 335.03,-279.1892 338.5597,-275.127 331.06,-279.6784 331.06,-279.6784"/>
<ellipse fill="none" stroke="#000000" cx="327.8841" cy="-280.0697" rx="3.2" ry="3.2"/>
</g>
<!-- roi.verbinding -->
<g id="node10" class="node">
<title>roi.verbinding</title>
<g id="a_node10"><a xlink:href="../../../roi/tables/verbinding.html" xlink:title="roi.verbinding" target="_top">
<polygon fill="#ffffff" stroke="transparent" points="166,-218.2 166,-279.2 285,-279.2 285,-218.2 166,-218.2"/>
<polygon fill="#f5f5f5" stroke="transparent" points="166.5,-255.7 166.5,-278.7 285.5,-278.7 285.5,-255.7 166.5,-255.7"/>
<polygon fill="none" stroke="#000000" points="166.5,-255.7 166.5,-278.7 285.5,-278.7 285.5,-255.7 166.5,-255.7"/>
<text text-anchor="start" x="171.5" y="-264.3" font-family="Helvetica,sans-Serif" font-weight="bold" font-size="11.00" fill="#000000">roi.verbinding</text>
<text text-anchor="start" x="251.0219" y="-263.8" font-family="Helvetica,sans-Serif" font-size="11.00" fill="#000000">[table]</text>
<polygon fill="none" stroke="#000000" points="166.5,-236.7 166.5,-255.7 285.5,-255.7 285.5,-236.7 166.5,-236.7"/>
<text text-anchor="start" x="169.5" y="-242.8" font-family="Helvetica,sans-Serif" font-size="11.00" fill="#000000">...</text>
<polygon fill="#ffffff" stroke="transparent" points="166.5,-217.7 166.5,-236.7 215.5,-236.7 215.5,-217.7 166.5,-217.7"/>
<polygon fill="none" stroke="#000000" points="166.5,-217.7 166.5,-236.7 215.5,-236.7 215.5,-217.7 166.5,-217.7"/>
<text text-anchor="start" x="169.5" y="-223.8" font-family="Helvetica,sans-Serif" font-size="11.00" fill="#000000"> &#160;</text>
<polygon fill="#ffffff" stroke="transparent" points="215.5,-217.7 215.5,-236.7 245.5,-236.7 245.5,-217.7 215.5,-217.7"/>
<polygon fill="none" stroke="#000000" points="215.5,-217.7 215.5,-236.7 245.5,-236.7 245.5,-217.7 215.5,-217.7"/>
<text text-anchor="start" x="236.3862" y="-223.8" font-family="Helvetica,sans-Serif" font-size="11.00" fill="#000000"> &#160;</text>
<polygon fill="#ffffff" stroke="transparent" points="245.5,-217.7 245.5,-236.7 285.5,-236.7 285.5,-217.7 245.5,-217.7"/>
<polygon fill="none" stroke="#000000" points="245.5,-217.7 245.5,-236.7 285.5,-236.7 285.5,-217.7 245.5,-217.7"/>
<text text-anchor="start" x="266.9053" y="-223.8" font-family="Helvetica,sans-Serif" font-size="11.00" fill="#000000">1 &gt;</text>
</a>
</g>
</g>
<!-- bereikbaarheid&#45;&gt;roi.verbinding -->
<g id="edge2" class="edge">
<title>bereikbaarheid:w&#45;&gt;roi.verbinding:e</title>
<path fill="none" stroke="#000000" d="M324.4991,-256.5019C314.0994,-256.2309 303.4897,-255.7023 293.2645,-255.0424"/>
<polygon fill="#000000" stroke="#000000" points="331.0007,-256.5907 338.9508,-260.2997 335.0004,-256.6453 339,-256.7 339,-256.7 339,-256.7 335.0004,-256.6453 339.0492,-253.1003 331.0007,-256.5907 331.0007,-256.5907"/>
<ellipse fill="none" stroke="#000000" cx="327.801" cy="-256.5469" rx="3.2" ry="3.2"/>
</g>
<!-- object_type -->
<g id="node6" class="node">
<title>object_type</title>
<g id="a_node6"><a xlink:href="../../tables/object_type.html" xlink:title="object_type" target="_top">
<polygon fill="#ffffff" stroke="transparent" points="8,-350.2 8,-433.2 113,-433.2 113,-350.2 8,-350.2"/>
<polygon fill="#f5f5f5" stroke="transparent" points="8.5,-409.7 8.5,-432.7 113.5,-432.7 113.5,-409.7 8.5,-409.7"/>
<polygon fill="none" stroke="#000000" points="8.5,-409.7 8.5,-432.7 113.5,-432.7 113.5,-409.7 8.5,-409.7"/>
<text text-anchor="start" x="13.5" y="-418.3" font-family="Helvetica,sans-Serif" font-weight="bold" font-size="11.00" fill="#000000">object_type</text>
<text text-anchor="start" x="79.0219" y="-417.8" font-family="Helvetica,sans-Serif" font-size="11.00" fill="#000000">[table]</text>
<polygon fill="none" stroke="#000000" points="8.5,-387.7 8.5,-409.7 113.5,-409.7 113.5,-387.7 8.5,-387.7"/>
<image xlink:href="../../images/primaryKeys.png" width="11px" height="12px" preserveAspectRatio="xMinYMin meet" x="13.5" y="-404.7"/>
<text text-anchor="start" x="33.5" y="-394.8" font-family="Helvetica,sans-Serif" font-size="11.00" fill="#000000">id</text>
<polygon fill="none" stroke="#000000" points="8.5,-368.7 8.5,-387.7 113.5,-387.7 113.5,-368.7 8.5,-368.7"/>
<text text-anchor="start" x="11.5" y="-374.8" font-family="Helvetica,sans-Serif" font-size="11.00" fill="#000000">...</text>
<polygon fill="#ffffff" stroke="transparent" points="8.5,-349.7 8.5,-368.7 50.5,-368.7 50.5,-349.7 8.5,-349.7"/>
<polygon fill="none" stroke="#000000" points="8.5,-349.7 8.5,-368.7 50.5,-368.7 50.5,-349.7 8.5,-349.7"/>
<text text-anchor="start" x="11.5" y="-355.8" font-family="Helvetica,sans-Serif" font-size="11.00" fill="#000000"> &#160;</text>
<polygon fill="#ffffff" stroke="transparent" points="50.5,-349.7 50.5,-368.7 77.5,-368.7 77.5,-349.7 50.5,-349.7"/>
<polygon fill="none" stroke="#000000" points="50.5,-349.7 50.5,-368.7 77.5,-368.7 77.5,-349.7 50.5,-349.7"/>
<text text-anchor="start" x="68.3862" y="-355.8" font-family="Helvetica,sans-Serif" font-size="11.00" fill="#000000"> &#160;</text>
<polygon fill="#ffffff" stroke="transparent" points="77.5,-349.7 77.5,-368.7 113.5,-368.7 113.5,-349.7 77.5,-349.7"/>
<polygon fill="none" stroke="#000000" points="77.5,-349.7 77.5,-368.7 113.5,-368.7 113.5,-349.7 77.5,-349.7"/>
<text text-anchor="start" x="94.9053" y="-355.8" font-family="Helvetica,sans-Serif" font-size="11.00" fill="#000000">1 &gt;</text>
</a>
</g>
</g>
<!-- object&#45;&gt;object_type -->
<g id="edge8" class="edge">
<title>object:w&#45;&gt;object_type:e</title>
<path fill="none" stroke="#000000" d="M150.5293,-426.7762C137.4416,-418.2313 134.4055,-398.7 113.5,-398.7"/>
<polygon fill="#000000" stroke="#000000" points="156.798,-428.5368 163.5265,-434.1659 160.649,-429.6184 164.5,-430.7 164.5,-430.7 164.5,-430.7 160.649,-429.6184 165.4735,-427.2341 156.798,-428.5368 156.798,-428.5368"/>
<ellipse fill="none" stroke="#000000" cx="153.7172" cy="-427.6715" rx="3.2" ry="3.2"/>
</g>
<!-- roi.fase -->
<g id="node11" class="node">
<title>roi.fase</title>
<g id="a_node11"><a xlink:href="../../../roi/tables/fase.html" xlink:title="roi.fase" target="_top">
<polygon fill="#ffffff" stroke="transparent" points="20,-454.2 20,-515.2 101,-515.2 101,-454.2 20,-454.2"/>
<polygon fill="#f5f5f5" stroke="transparent" points="20.5,-491.7 20.5,-514.7 101.5,-514.7 101.5,-491.7 20.5,-491.7"/>
<polygon fill="none" stroke="#000000" points="20.5,-491.7 20.5,-514.7 101.5,-514.7 101.5,-491.7 20.5,-491.7"/>
<text text-anchor="start" x="25.5" y="-500.3" font-family="Helvetica,sans-Serif" font-weight="bold" font-size="11.00" fill="#000000">roi.fase</text>
<text text-anchor="start" x="67.0219" y="-499.8" font-family="Helvetica,sans-Serif" font-size="11.00" fill="#000000">[table]</text>
<polygon fill="none" stroke="#000000" points="20.5,-472.7 20.5,-491.7 101.5,-491.7 101.5,-472.7 20.5,-472.7"/>
<text text-anchor="start" x="23.5" y="-478.8" font-family="Helvetica,sans-Serif" font-size="11.00" fill="#000000">...</text>
<polygon fill="#ffffff" stroke="transparent" points="20.5,-453.7 20.5,-472.7 50.5,-472.7 50.5,-453.7 20.5,-453.7"/>
<polygon fill="none" stroke="#000000" points="20.5,-453.7 20.5,-472.7 50.5,-472.7 50.5,-453.7 20.5,-453.7"/>
<text text-anchor="start" x="23.5" y="-459.8" font-family="Helvetica,sans-Serif" font-size="11.00" fill="#000000"> &#160;</text>
<polygon fill="#ffffff" stroke="transparent" points="50.5,-453.7 50.5,-472.7 71.5,-472.7 71.5,-453.7 50.5,-453.7"/>
<polygon fill="none" stroke="#000000" points="50.5,-453.7 50.5,-472.7 71.5,-472.7 71.5,-453.7 50.5,-453.7"/>
<text text-anchor="start" x="62.3862" y="-459.8" font-family="Helvetica,sans-Serif" font-size="11.00" fill="#000000"> &#160;</text>
<polygon fill="#ffffff" stroke="transparent" points="71.5,-453.7 71.5,-472.7 101.5,-472.7 101.5,-453.7 71.5,-453.7"/>
<polygon fill="none" stroke="#000000" points="71.5,-453.7 71.5,-472.7 101.5,-472.7 101.5,-453.7 71.5,-453.7"/>
<text text-anchor="start" x="82.9053" y="-459.8" font-family="Helvetica,sans-Serif" font-size="11.00" fill="#000000">1 &gt;</text>
</a>
</g>
</g>
<!-- object&#45;&gt;roi.fase -->
<g id="edge7" class="edge">
<title>object:w&#45;&gt;roi.fase:e</title>
<path fill="none" stroke="#000000" d="M149.9548,-453.5822C135.9089,-455.2153 121.7785,-458.9403 109.0286,-463.2667"/>
<polygon fill="#000000" stroke="#000000" points="156.5147,-453.1844 164.718,-456.2934 160.5073,-452.9422 164.5,-452.7 164.5,-452.7 164.5,-452.7 160.5073,-452.9422 164.282,-449.1066 156.5147,-453.1844 156.5147,-453.1844"/>
<ellipse fill="none" stroke="#000000" cx="153.3205" cy="-453.3781" rx="3.2" ry="3.2"/>
</g>
<!-- voorziening -->
<g id="node8" class="node">
<title>voorziening</title>
<g id="a_node8"><a xlink:href="../../tables/voorziening.html" xlink:title="voorziening" target="_top">
<polygon fill="#ffffff" stroke="transparent" points="346.5,-38.2 346.5,-187.2 455.5,-187.2 455.5,-38.2 346.5,-38.2"/>
<polygon fill="#f5f5f5" stroke="transparent" points="347,-163.7 347,-186.7 456,-186.7 456,-163.7 347,-163.7"/>
<polygon fill="none" stroke="#000000" points="347,-163.7 347,-186.7 456,-186.7 456,-163.7 347,-163.7"/>
<text text-anchor="start" x="352" y="-172.3" font-family="Helvetica,sans-Serif" font-weight="bold" font-size="11.00" fill="#000000">voorziening</text>
<text text-anchor="start" x="421.0437" y="-171.8" font-family="Helvetica,sans-Serif" font-size="11.00" fill="#000000">[table]</text>
<polygon fill="none" stroke="#000000" points="347,-141.7 347,-163.7 456,-163.7 456,-141.7 347,-141.7"/>
<image xlink:href="../../images/primaryKeys.png" width="11px" height="12px" preserveAspectRatio="xMinYMin meet" x="352" y="-158.7"/>
<text text-anchor="start" x="367" y="-148.8" font-family="Helvetica,sans-Serif" font-size="11.00" fill="#000000">uuid</text>
<polygon fill="#ffffff" stroke="transparent" points="347,-119.7 347,-141.7 456,-141.7 456,-119.7 347,-119.7"/>
<polygon fill="none" stroke="#000000" points="347,-119.7 347,-141.7 456,-141.7 456,-119.7 347,-119.7"/>
<text text-anchor="start" x="367" y="-126.8" font-family="Helvetica,sans-Serif" font-size="11.00" fill="#000000">geom</text>
<polygon fill="#ffffff" stroke="transparent" points="347,-97.7 347,-119.7 456,-119.7 456,-97.7 347,-97.7"/>
<polygon fill="none" stroke="#000000" points="347,-97.7 347,-119.7 456,-119.7 456,-97.7 347,-97.7"/>
<image xlink:href="../../images/foreignKeys.png" width="11px" height="12px" preserveAspectRatio="xMinYMin meet" x="352" y="-114.7"/>
<text text-anchor="start" x="367" y="-104.8" font-family="Helvetica,sans-Serif" font-size="11.00" fill="#000000">object_uuid</text>
<polygon fill="none" stroke="#000000" points="347,-75.7 347,-97.7 456,-97.7 456,-75.7 347,-75.7"/>
<image xlink:href="../../images/foreignKeys.png" width="11px" height="12px" preserveAspectRatio="xMinYMin meet" x="352" y="-92.7"/>
<text text-anchor="start" x="367" y="-82.8" font-family="Helvetica,sans-Serif" font-size="11.00" fill="#000000">symbool_id</text>
<polygon fill="none" stroke="#000000" points="347,-56.7 347,-75.7 456,-75.7 456,-56.7 347,-56.7"/>
<text text-anchor="start" x="350" y="-62.8" font-family="Helvetica,sans-Serif" font-size="11.00" fill="#000000">...</text>
<polygon fill="#ffffff" stroke="transparent" points="347,-37.7 347,-56.7 400,-56.7 400,-37.7 347,-37.7"/>
<polygon fill="none" stroke="#000000" points="347,-37.7 347,-56.7 400,-56.7 400,-37.7 347,-37.7"/>
<text text-anchor="start" x="350" y="-43.8" font-family="Helvetica,sans-Serif" font-size="11.00" fill="#000000">&lt; 2</text>
<polygon fill="#ffffff" stroke="transparent" points="400,-37.7 400,-56.7 428,-56.7 428,-37.7 400,-37.7"/>
<polygon fill="none" stroke="#000000" points="400,-37.7 400,-56.7 428,-56.7 428,-37.7 400,-37.7"/>
<text text-anchor="start" x="418.8862" y="-43.8" font-family="Helvetica,sans-Serif" font-size="11.00" fill="#000000"> &#160;</text>
<polygon fill="#ffffff" stroke="transparent" points="428,-37.7 428,-56.7 456,-56.7 456,-37.7 428,-37.7"/>
<polygon fill="none" stroke="#000000" points="428,-37.7 428,-56.7 456,-56.7 456,-37.7 428,-37.7"/>
<text text-anchor="start" x="446.8862" y="-43.8" font-family="Helvetica,sans-Serif" font-size="11.00" fill="#000000"> &#160;</text>
</a>
</g>
</g>
<!-- voorziening&#45;&gt;object -->
<g id="edge11" class="edge">
<title>voorziening:w&#45;&gt;object:e</title>
<path fill="none" stroke="#000000" d="M332.9613,-112.7579C268.7957,-155.3393 374.1711,-518.7 287.5,-518.7"/>
<polygon fill="#000000" stroke="#000000" points="339.3146,-110.9215 347.9997,-112.1584 343.1573,-109.8108 347,-108.7 347,-108.7 347,-108.7 343.1573,-109.8108 346.0003,-105.2416 339.3146,-110.9215 339.3146,-110.9215"/>
<ellipse fill="none" stroke="#000000" cx="336.2405" cy="-111.8101" rx="3.2" ry="3.2"/>
</g>
<!-- roi.symbool -->
<g id="node12" class="node">
<title>roi.symbool</title>
<g id="a_node12"><a xlink:href="../../../roi/tables/symbool.html" xlink:title="roi.symbool" target="_top">
<polygon fill="#ffffff" stroke="transparent" points="172,-56.2 172,-117.2 279,-117.2 279,-56.2 172,-56.2"/>
<polygon fill="#f5f5f5" stroke="transparent" points="172.5,-93.7 172.5,-116.7 279.5,-116.7 279.5,-93.7 172.5,-93.7"/>
<polygon fill="none" stroke="#000000" points="172.5,-93.7 172.5,-116.7 279.5,-116.7 279.5,-93.7 172.5,-93.7"/>
<text text-anchor="start" x="177.5" y="-102.3" font-family="Helvetica,sans-Serif" font-weight="bold" font-size="11.00" fill="#000000">roi.symbool</text>
<text text-anchor="start" x="245.0219" y="-101.8" font-family="Helvetica,sans-Serif" font-size="11.00" fill="#000000">[table]</text>
<polygon fill="none" stroke="#000000" points="172.5,-74.7 172.5,-93.7 279.5,-93.7 279.5,-74.7 172.5,-74.7"/>
<text text-anchor="start" x="175.5" y="-80.8" font-family="Helvetica,sans-Serif" font-size="11.00" fill="#000000">...</text>
<polygon fill="#ffffff" stroke="transparent" points="172.5,-55.7 172.5,-74.7 215.5,-74.7 215.5,-55.7 172.5,-55.7"/>
<polygon fill="none" stroke="#000000" points="172.5,-55.7 172.5,-74.7 215.5,-74.7 215.5,-55.7 172.5,-55.7"/>
<text text-anchor="start" x="175.5" y="-61.8" font-family="Helvetica,sans-Serif" font-size="11.00" fill="#000000"> &#160;</text>
<polygon fill="#ffffff" stroke="transparent" points="215.5,-55.7 215.5,-74.7 242.5,-74.7 242.5,-55.7 215.5,-55.7"/>
<polygon fill="none" stroke="#000000" points="215.5,-55.7 215.5,-74.7 242.5,-74.7 242.5,-55.7 215.5,-55.7"/>
<text text-anchor="start" x="233.3862" y="-61.8" font-family="Helvetica,sans-Serif" font-size="11.00" fill="#000000"> &#160;</text>
<polygon fill="#ffffff" stroke="transparent" points="242.5,-55.7 242.5,-74.7 279.5,-74.7 279.5,-55.7 242.5,-55.7"/>
<polygon fill="none" stroke="#000000" points="242.5,-55.7 242.5,-74.7 279.5,-74.7 279.5,-55.7 242.5,-55.7"/>
<text text-anchor="start" x="260.9053" y="-61.8" font-family="Helvetica,sans-Serif" font-size="11.00" fill="#000000">1 &gt;</text>
</a>
</g>
</g>
<!-- voorziening&#45;&gt;roi.symbool -->
<g id="edge12" class="edge">
<title>voorziening:w&#45;&gt;roi.symbool:e</title>
<path fill="none" stroke="#000000" d="M332.1771,-86.7C317.1449,-86.7 301.6605,-86.7 287.3101,-86.7"/>
<polygon fill="#000000" stroke="#000000" points="339,-86.7001 347,-90.3 343,-86.7 347,-86.7 347,-86.7 347,-86.7 343,-86.7 347,-83.1 339,-86.7001 339,-86.7001"/>
<ellipse fill="none" stroke="#000000" cx="335.8" cy="-86.7001" rx="3.2" ry="3.2"/>
</g>
</g>
</svg>
