<?xml version="1.0" encoding="UTF-8" standalone="no"?>
<!DOCTYPE svg PUBLIC "-//W3C//DTD SVG 1.1//EN"
 "http://www.w3.org/Graphics/SVG/1.1/DTD/svg11.dtd">
<!-- Generated by graphviz version 2.50.0 (0)
 -->
<!-- Title: compactRelationshipsDiagram Pages: 1 -->
<svg width="538pt" height="863pt"
 viewBox="0.00 0.00 538.00 863.00" xmlns="http://www.w3.org/2000/svg" xmlns:xlink="http://www.w3.org/1999/xlink">
<g id="graph0" class="graph" transform="scale(1 1) rotate(0) translate(4 859)">
<title>compactRelationshipsDiagram</title>
<polygon fill="#ffffff" stroke="transparent" points="-4,4 -4,-859 534,-859 534,4 -4,4"/>
<text text-anchor="middle" x="79.5" y="-7.2" font-family="Helvetica,sans-Serif" font-size="11.00">Generated by SchemaSpy</text>
<!-- roi.annotatie -->
<g id="node1" class="node">
<title>roi.annotatie</title>
<g id="a_node1"><a xlink:href="../../../roi/tables/annotatie.html" xlink:title="roi.annotatie" target="_top">
<polygon fill="#ffffff" stroke="transparent" points="188,-723 188,-781 320,-781 320,-723 188,-723"/>
<polygon fill="#f5f5f5" stroke="transparent" points="188,-759 188,-781 320,-781 320,-759 188,-759"/>
<polygon fill="none" stroke="black" points="188,-759 188,-781 320,-781 320,-759 188,-759"/>
<text text-anchor="start" x="193" y="-768.2" font-family="Helvetica,sans-Serif" font-weight="bold" font-size="11.00">roi.annotatie</text>
<text text-anchor="start" x="278" y="-767.2" font-family="Helvetica,sans-Serif" font-size="11.00">[table]</text>
<polygon fill="none" stroke="black" points="188,-741 188,-759 320,-759 320,-741 188,-741"/>
<text text-anchor="start" x="191" y="-747.2" font-family="Helvetica,sans-Serif" font-size="11.00">...</text>
<polygon fill="#ffffff" stroke="transparent" points="188,-723 188,-741 241,-741 241,-723 188,-723"/>
<polygon fill="none" stroke="black" points="188,-723 188,-741 241,-741 241,-723 188,-723"/>
<text text-anchor="start" x="191" y="-729.2" font-family="Helvetica,sans-Serif" font-size="11.00"> &#160;</text>
<polygon fill="#ffffff" stroke="transparent" points="241,-723 241,-741 274,-741 274,-723 241,-723"/>
<polygon fill="none" stroke="black" points="241,-723 241,-741 274,-741 274,-723 241,-723"/>
<text text-anchor="start" x="263" y="-729.2" font-family="Helvetica,sans-Serif" font-size="11.00"> &#160;</text>
<polygon fill="#ffffff" stroke="transparent" points="274,-723 274,-741 320,-741 320,-723 274,-723"/>
<polygon fill="none" stroke="black" points="274,-723 274,-741 320,-741 320,-723 274,-723"/>
<text text-anchor="start" x="297" y="-729.2" font-family="Helvetica,sans-Serif" font-size="11.00">1 &gt;</text>
</a>
</g>
</g>
<!-- roi.fase -->
<g id="node2" class="node">
<title>roi.fase</title>
<g id="a_node2"><a xlink:href="../../../roi/tables/fase.html" xlink:title="roi.fase" target="_top">
<polygon fill="#ffffff" stroke="transparent" points="20,-455 20,-513 119,-513 119,-455 20,-455"/>
<polygon fill="#f5f5f5" stroke="transparent" points="20.5,-491 20.5,-513 119.5,-513 119.5,-491 20.5,-491"/>
<polygon fill="none" stroke="black" points="20.5,-491 20.5,-513 119.5,-513 119.5,-491 20.5,-491"/>
<text text-anchor="start" x="25.5" y="-500.2" font-family="Helvetica,sans-Serif" font-weight="bold" font-size="11.00">roi.fase</text>
<text text-anchor="start" x="77.5" y="-499.2" font-family="Helvetica,sans-Serif" font-size="11.00">[table]</text>
<polygon fill="none" stroke="black" points="20.5,-473 20.5,-491 119.5,-491 119.5,-473 20.5,-473"/>
<text text-anchor="start" x="23.5" y="-479.2" font-family="Helvetica,sans-Serif" font-size="11.00">...</text>
<polygon fill="#ffffff" stroke="transparent" points="20.5,-455 20.5,-473 56.5,-473 56.5,-455 20.5,-455"/>
<polygon fill="none" stroke="black" points="20.5,-455 20.5,-473 56.5,-473 56.5,-455 20.5,-455"/>
<text text-anchor="start" x="23.5" y="-461.2" font-family="Helvetica,sans-Serif" font-size="11.00"> &#160;</text>
<polygon fill="#ffffff" stroke="transparent" points="56.5,-455 56.5,-473 81.5,-473 81.5,-455 56.5,-455"/>
<polygon fill="none" stroke="black" points="56.5,-455 56.5,-473 81.5,-473 81.5,-455 56.5,-455"/>
<text text-anchor="start" x="70.5" y="-461.2" font-family="Helvetica,sans-Serif" font-size="11.00"> &#160;</text>
<polygon fill="#ffffff" stroke="transparent" points="81.5,-455 81.5,-473 119.5,-473 119.5,-455 81.5,-455"/>
<polygon fill="none" stroke="black" points="81.5,-455 81.5,-473 119.5,-473 119.5,-455 81.5,-455"/>
<text text-anchor="start" x="96.5" y="-461.2" font-family="Helvetica,sans-Serif" font-size="11.00">1 &gt;</text>
</a>
</g>
</g>
<!-- roi.symbool -->
<g id="node3" class="node">
<title>roi.symbool</title>
<g id="a_node3"><a xlink:href="../../../roi/tables/symbool.html" xlink:title="roi.symbool" target="_top">
<polygon fill="#ffffff" stroke="transparent" points="192,-55 192,-113 316,-113 316,-55 192,-55"/>
<polygon fill="#f5f5f5" stroke="transparent" points="192,-91 192,-113 316,-113 316,-91 192,-91"/>
<polygon fill="none" stroke="black" points="192,-91 192,-113 316,-113 316,-91 192,-91"/>
<text text-anchor="start" x="197" y="-100.2" font-family="Helvetica,sans-Serif" font-weight="bold" font-size="11.00">roi.symbool</text>
<text text-anchor="start" x="274" y="-99.2" font-family="Helvetica,sans-Serif" font-size="11.00">[table]</text>
<polygon fill="none" stroke="black" points="192,-73 192,-91 316,-91 316,-73 192,-73"/>
<text text-anchor="start" x="195" y="-79.2" font-family="Helvetica,sans-Serif" font-size="11.00">...</text>
<polygon fill="#ffffff" stroke="transparent" points="192,-55 192,-73 241,-73 241,-55 192,-55"/>
<polygon fill="none" stroke="black" points="192,-55 192,-73 241,-73 241,-55 192,-55"/>
<text text-anchor="start" x="195" y="-61.2" font-family="Helvetica,sans-Serif" font-size="11.00"> &#160;</text>
<polygon fill="#ffffff" stroke="transparent" points="241,-55 241,-73 272,-73 272,-55 241,-55"/>
<polygon fill="none" stroke="black" points="241,-55 241,-73 272,-73 272,-55 241,-55"/>
<text text-anchor="start" x="261" y="-61.2" font-family="Helvetica,sans-Serif" font-size="11.00"> &#160;</text>
<polygon fill="#ffffff" stroke="transparent" points="272,-55 272,-73 316,-73 316,-55 272,-55"/>
<polygon fill="none" stroke="black" points="272,-55 272,-73 316,-73 316,-55 272,-55"/>
<text text-anchor="start" x="293" y="-61.2" font-family="Helvetica,sans-Serif" font-size="11.00">1 &gt;</text>
</a>
</g>
</g>
<!-- roi.verbinding -->
<g id="node4" class="node">
<title>roi.verbinding</title>
<g id="a_node4"><a xlink:href="../../../roi/tables/verbinding.html" xlink:title="roi.verbinding" target="_top">
<polygon fill="#ffffff" stroke="transparent" points="185,-574 185,-632 323,-632 323,-574 185,-574"/>
<polygon fill="#f5f5f5" stroke="transparent" points="185,-610 185,-632 323,-632 323,-610 185,-610"/>
<polygon fill="none" stroke="black" points="185,-610 185,-632 323,-632 323,-610 185,-610"/>
<text text-anchor="start" x="190" y="-619.2" font-family="Helvetica,sans-Serif" font-weight="bold" font-size="11.00">roi.verbinding</text>
<text text-anchor="start" x="281" y="-618.2" font-family="Helvetica,sans-Serif" font-size="11.00">[table]</text>
<polygon fill="none" stroke="black" points="185,-592 185,-610 323,-610 323,-592 185,-592"/>
<text text-anchor="start" x="188" y="-598.2" font-family="Helvetica,sans-Serif" font-size="11.00">...</text>
<polygon fill="#ffffff" stroke="transparent" points="185,-574 185,-592 241,-592 241,-574 185,-574"/>
<polygon fill="none" stroke="black" points="185,-574 185,-592 241,-592 241,-574 185,-574"/>
<text text-anchor="start" x="188" y="-580.2" font-family="Helvetica,sans-Serif" font-size="11.00"> &#160;</text>
<polygon fill="#ffffff" stroke="transparent" points="241,-574 241,-592 276,-592 276,-574 241,-574"/>
<polygon fill="none" stroke="black" points="241,-574 241,-592 276,-592 276,-574 241,-574"/>
<text text-anchor="start" x="265" y="-580.2" font-family="Helvetica,sans-Serif" font-size="11.00"> &#160;</text>
<polygon fill="#ffffff" stroke="transparent" points="276,-574 276,-592 323,-592 323,-574 276,-574"/>
<polygon fill="none" stroke="black" points="276,-574 276,-592 323,-592 323,-574 276,-574"/>
<text text-anchor="start" x="300" y="-580.2" font-family="Helvetica,sans-Serif" font-size="11.00">1 &gt;</text>
</a>
</g>
</g>
<!-- roi.zone -->
<g id="node5" class="node">
<title>roi.zone</title>
<g id="a_node5"><a xlink:href="../../../roi/tables/zone.html" xlink:title="roi.zone" target="_top">
<polygon fill="#ffffff" stroke="transparent" points="203,-205 203,-263 305,-263 305,-205 203,-205"/>
<polygon fill="#f5f5f5" stroke="transparent" points="203,-241 203,-263 305,-263 305,-241 203,-241"/>
<polygon fill="none" stroke="black" points="203,-241 203,-263 305,-263 305,-241 203,-241"/>
<text text-anchor="start" x="208" y="-250.2" font-family="Helvetica,sans-Serif" font-weight="bold" font-size="11.00">roi.zone</text>
<text text-anchor="start" x="263" y="-249.2" font-family="Helvetica,sans-Serif" font-size="11.00">[table]</text>
<polygon fill="none" stroke="black" points="203,-223 203,-241 305,-241 305,-223 203,-223"/>
<text text-anchor="start" x="206" y="-229.2" font-family="Helvetica,sans-Serif" font-size="11.00">...</text>
<polygon fill="#ffffff" stroke="transparent" points="203,-205 203,-223 241,-223 241,-205 203,-205"/>
<polygon fill="none" stroke="black" points="203,-205 203,-223 241,-223 241,-205 203,-205"/>
<text text-anchor="start" x="206" y="-211.2" font-family="Helvetica,sans-Serif" font-size="11.00"> &#160;</text>
<polygon fill="#ffffff" stroke="transparent" points="241,-205 241,-223 267,-223 267,-205 241,-205"/>
<polygon fill="none" stroke="black" points="241,-205 241,-223 267,-223 267,-205 241,-205"/>
<text text-anchor="start" x="256" y="-211.2" font-family="Helvetica,sans-Serif" font-size="11.00"> &#160;</text>
<polygon fill="#ffffff" stroke="transparent" points="267,-205 267,-223 305,-223 305,-205 267,-205"/>
<polygon fill="none" stroke="black" points="267,-205 267,-223 305,-223 305,-205 267,-205"/>
<text text-anchor="start" x="282" y="-211.2" font-family="Helvetica,sans-Serif" font-size="11.00">1 &gt;</text>
</a>
</g>
</g>
<!-- bereikbaarheid -->
<g id="node6" class="node">
<title>bereikbaarheid</title>
<g id="a_node6"><a xlink:href="../../tables/bereikbaarheid.html" xlink:title="bereikbaarheid" target="_top">
<polygon fill="#ffffff" stroke="transparent" points="377,-538 377,-684 522,-684 522,-538 377,-538"/>
<polygon fill="#f5f5f5" stroke="transparent" points="377.5,-662 377.5,-684 522.5,-684 522.5,-662 377.5,-662"/>
<polygon fill="none" stroke="black" points="377.5,-662 377.5,-684 522.5,-684 522.5,-662 377.5,-662"/>
<text text-anchor="start" x="382.5" y="-671.2" font-family="Helvetica,sans-Serif" font-weight="bold" font-size="11.00">bereikbaarheid</text>
<text text-anchor="start" x="480.5" y="-670.2" font-family="Helvetica,sans-Serif" font-size="11.00">[table]</text>
<polygon fill="none" stroke="black" points="377.5,-640 377.5,-662 522.5,-662 522.5,-640 377.5,-640"/>
<image xlink:href="../../images/primaryKeys.png" width="11px" height="12px" preserveAspectRatio="xMinYMin meet" x="382.5" y="-657"/>
<text text-anchor="start" x="413.5" y="-648.2" font-family="Helvetica,sans-Serif" font-size="11.00">uuid</text>
<polygon fill="#ffffff" stroke="transparent" points="377.5,-618 377.5,-640 522.5,-640 522.5,-618 377.5,-618"/>
<polygon fill="none" stroke="black" points="377.5,-618 377.5,-640 522.5,-640 522.5,-618 377.5,-618"/>
<text text-anchor="start" x="413.5" y="-626.2" font-family="Helvetica,sans-Serif" font-size="11.00">geom</text>
<polygon fill="#ffffff" stroke="transparent" points="377.5,-596 377.5,-618 522.5,-618 522.5,-596 377.5,-596"/>
<polygon fill="none" stroke="black" points="377.5,-596 377.5,-618 522.5,-618 522.5,-596 377.5,-596"/>
<image xlink:href="../../images/foreignKeys.png" width="11px" height="12px" preserveAspectRatio="xMinYMin meet" x="382.5" y="-613"/>
<text text-anchor="start" x="413.5" y="-604.2" font-family="Helvetica,sans-Serif" font-size="11.00">object_uuid</text>
<polygon fill="none" stroke="black" points="377.5,-574 377.5,-596 522.5,-596 522.5,-574 377.5,-574"/>
<image xlink:href="../../images/foreignKeys.png" width="11px" height="12px" preserveAspectRatio="xMinYMin meet" x="382.5" y="-591"/>
<text text-anchor="start" x="413.5" y="-582.2" font-family="Helvetica,sans-Serif" font-size="11.00">verbinding_id</text>
<polygon fill="none" stroke="black" points="377.5,-556 377.5,-574 522.5,-574 522.5,-556 377.5,-556"/>
<text text-anchor="start" x="380.5" y="-562.2" font-family="Helvetica,sans-Serif" font-size="11.00">...</text>
<polygon fill="#ffffff" stroke="transparent" points="377.5,-538 377.5,-556 448.5,-556 448.5,-538 377.5,-538"/>
<polygon fill="none" stroke="black" points="377.5,-538 377.5,-556 448.5,-556 448.5,-538 377.5,-538"/>
<text text-anchor="start" x="380.5" y="-544.2" font-family="Helvetica,sans-Serif" font-size="11.00">&lt; 2</text>
<polygon fill="#ffffff" stroke="transparent" points="448.5,-538 448.5,-556 485.5,-556 485.5,-538 448.5,-538"/>
<polygon fill="none" stroke="black" points="448.5,-538 448.5,-556 485.5,-556 485.5,-538 448.5,-538"/>
<text text-anchor="start" x="474.5" y="-544.2" font-family="Helvetica,sans-Serif" font-size="11.00"> &#160;</text>
<polygon fill="#ffffff" stroke="transparent" points="485.5,-538 485.5,-556 522.5,-556 522.5,-538 485.5,-538"/>
<polygon fill="none" stroke="black" points="485.5,-538 485.5,-556 522.5,-556 522.5,-538 485.5,-538"/>
<text text-anchor="start" x="511.5" y="-544.2" font-family="Helvetica,sans-Serif" font-size="11.00"> &#160;</text>
</a>
</g>
</g>
<!-- bereikbaarheid&#45;&gt;roi.verbinding -->
<g id="edge2" class="edge">
<title>bereikbaarheid:w&#45;&gt;roi.verbinding:e</title>
<path fill="none" stroke="black" d="M361.78,-585.4C351.61,-585.92 341.27,-586.93 331.23,-588.22"/>
<polygon fill="black" stroke="black" points="368.5,-585.22 376.6,-588.6 372.5,-585.11 376.5,-585 376.5,-585 376.5,-585 372.5,-585.11 376.4,-581.4 368.5,-585.22 368.5,-585.22"/>
<ellipse fill="none" stroke="black" cx="365.3" cy="-585.3" rx="3.2" ry="3.2"/>
</g>
<!-- object -->
<g id="node10" class="node">
<title>object</title>
<g id="a_node10"><a xlink:href="../../tables/object.html" xlink:title="object" target="_top">
<polygon fill="#ffffff" stroke="transparent" points="189.5,-385 189.5,-553 318.5,-553 318.5,-385 189.5,-385"/>
<polygon fill="#f5f5f5" stroke="transparent" points="190,-531 190,-553 319,-553 319,-531 190,-531"/>
<polygon fill="none" stroke="black" points="190,-531 190,-553 319,-553 319,-531 190,-531"/>
<text text-anchor="start" x="195" y="-540.2" font-family="Helvetica,sans-Serif" font-weight="bold" font-size="11.00">object</text>
<text text-anchor="start" x="277" y="-539.2" font-family="Helvetica,sans-Serif" font-size="11.00">[table]</text>
<polygon fill="none" stroke="black" points="190,-509 190,-531 319,-531 319,-509 190,-509"/>
<image xlink:href="../../images/primaryKeys.png" width="11px" height="12px" preserveAspectRatio="xMinYMin meet" x="195" y="-526"/>
<text text-anchor="start" x="210" y="-517.2" font-family="Helvetica,sans-Serif" font-size="11.00">uuid</text>
<polygon fill="#ffffff" stroke="transparent" points="190,-487 190,-509 319,-509 319,-487 190,-487"/>
<polygon fill="none" stroke="black" points="190,-487 190,-509 319,-509 319,-487 190,-487"/>
<text text-anchor="start" x="210" y="-495.2" font-family="Helvetica,sans-Serif" font-size="11.00">geom</text>
<polygon fill="#ffffff" stroke="transparent" points="190,-465 190,-487 319,-487 319,-465 190,-465"/>
<polygon fill="none" stroke="black" points="190,-465 190,-487 319,-487 319,-465 190,-465"/>
<text text-anchor="start" x="210" y="-473.2" font-family="Helvetica,sans-Serif" font-size="11.00">revisie_frequentie</text>
<polygon fill="#ffffff" stroke="transparent" points="190,-443 190,-465 319,-465 319,-443 190,-443"/>
<polygon fill="none" stroke="black" points="190,-443 190,-465 319,-465 319,-443 190,-443"/>
<image xlink:href="../../images/foreignKeys.png" width="11px" height="12px" preserveAspectRatio="xMinYMin meet" x="195" y="-460"/>
<text text-anchor="start" x="210" y="-451.2" font-family="Helvetica,sans-Serif" font-size="11.00">fase_id</text>
<polygon fill="#ffffff" stroke="transparent" points="190,-421 190,-443 319,-443 319,-421 190,-421"/>
<polygon fill="none" stroke="black" points="190,-421 190,-443 319,-443 319,-421 190,-421"/>
<image xlink:href="../../images/foreignKeys.png" width="11px" height="12px" preserveAspectRatio="xMinYMin meet" x="195" y="-438"/>
<text text-anchor="start" x="210" y="-429.2" font-family="Helvetica,sans-Serif" font-size="11.00">object_type_id</text>
<polygon fill="none" stroke="black" points="190,-403 190,-421 319,-421 319,-403 190,-403"/>
<text text-anchor="start" x="193" y="-409.2" font-family="Helvetica,sans-Serif" font-size="11.00">...</text>
<polygon fill="#ffffff" stroke="transparent" points="190,-385 190,-403 247,-403 247,-385 190,-385"/>
<polygon fill="none" stroke="black" points="190,-385 190,-403 247,-403 247,-385 190,-385"/>
<text text-anchor="start" x="193" y="-391.2" font-family="Helvetica,sans-Serif" font-size="11.00">&lt; 2</text>
<polygon fill="#ffffff" stroke="transparent" points="247,-385 247,-403 277,-403 277,-385 247,-385"/>
<polygon fill="none" stroke="black" points="247,-385 247,-403 277,-403 277,-385 247,-385"/>
<text text-anchor="start" x="266" y="-391.2" font-family="Helvetica,sans-Serif" font-size="11.00"> &#160;</text>
<polygon fill="#ffffff" stroke="transparent" points="277,-385 277,-403 319,-403 319,-385 277,-385"/>
<polygon fill="none" stroke="black" points="277,-385 277,-403 319,-403 319,-385 277,-385"/>
<text text-anchor="start" x="296" y="-391.2" font-family="Helvetica,sans-Serif" font-size="11.00">5 &gt;</text>
</a>
</g>
</g>
<!-- bereikbaarheid&#45;&gt;object -->
<g id="edge1" class="edge">
<title>bereikbaarheid:w&#45;&gt;object:e</title>
<path fill="none" stroke="black" d="M362.4,-603.04C338.24,-586.02 360.16,-520 320,-520"/>
<polygon fill="black" stroke="black" points="368.8,-604.83 375.53,-610.47 372.65,-605.92 376.5,-607 376.5,-607 376.5,-607 372.65,-605.92 377.47,-603.53 368.8,-604.83 368.8,-604.83"/>
<ellipse fill="none" stroke="black" cx="365.72" cy="-603.97" rx="3.2" ry="3.2"/>
</g>
<!-- label -->
<g id="node7" class="node">
<title>label</title>
<g id="a_node7"><a xlink:href="../../tables/label.html" xlink:title="label" target="_top">
<polygon fill="#ffffff" stroke="transparent" points="392.5,-705 392.5,-851 506.5,-851 506.5,-705 392.5,-705"/>
<polygon fill="#f5f5f5" stroke="transparent" points="392.5,-829 392.5,-851 506.5,-851 506.5,-829 392.5,-829"/>
<polygon fill="none" stroke="black" points="392.5,-829 392.5,-851 506.5,-851 506.5,-829 392.5,-829"/>
<text text-anchor="start" x="397.5" y="-838.2" font-family="Helvetica,sans-Serif" font-weight="bold" font-size="11.00">label</text>
<text text-anchor="start" x="464.5" y="-837.2" font-family="Helvetica,sans-Serif" font-size="11.00">[table]</text>
<polygon fill="none" stroke="black" points="392.5,-807 392.5,-829 506.5,-829 506.5,-807 392.5,-807"/>
<image xlink:href="../../images/primaryKeys.png" width="11px" height="12px" preserveAspectRatio="xMinYMin meet" x="397.5" y="-824"/>
<text text-anchor="start" x="412.5" y="-815.2" font-family="Helvetica,sans-Serif" font-size="11.00">uuid</text>
<polygon fill="#ffffff" stroke="transparent" points="392.5,-785 392.5,-807 506.5,-807 506.5,-785 392.5,-785"/>
<polygon fill="none" stroke="black" points="392.5,-785 392.5,-807 506.5,-807 506.5,-785 392.5,-785"/>
<text text-anchor="start" x="412.5" y="-793.2" font-family="Helvetica,sans-Serif" font-size="11.00">geom</text>
<polygon fill="#ffffff" stroke="transparent" points="392.5,-763 392.5,-785 506.5,-785 506.5,-763 392.5,-763"/>
<polygon fill="none" stroke="black" points="392.5,-763 392.5,-785 506.5,-785 506.5,-763 392.5,-763"/>
<image xlink:href="../../images/foreignKeys.png" width="11px" height="12px" preserveAspectRatio="xMinYMin meet" x="397.5" y="-780"/>
<text text-anchor="start" x="412.5" y="-771.2" font-family="Helvetica,sans-Serif" font-size="11.00">object_uuid</text>
<polygon fill="none" stroke="black" points="392.5,-741 392.5,-763 506.5,-763 506.5,-741 392.5,-741"/>
<image xlink:href="../../images/foreignKeys.png" width="11px" height="12px" preserveAspectRatio="xMinYMin meet" x="397.5" y="-758"/>
<text text-anchor="start" x="412.5" y="-749.2" font-family="Helvetica,sans-Serif" font-size="11.00">annotatie_id</text>
<polygon fill="none" stroke="black" points="392.5,-723 392.5,-741 506.5,-741 506.5,-723 392.5,-723"/>
<text text-anchor="start" x="395.5" y="-729.2" font-family="Helvetica,sans-Serif" font-size="11.00">...</text>
<polygon fill="#ffffff" stroke="transparent" points="392.5,-705 392.5,-723 448.5,-723 448.5,-705 392.5,-705"/>
<polygon fill="none" stroke="black" points="392.5,-705 392.5,-723 448.5,-723 448.5,-705 392.5,-705"/>
<text text-anchor="start" x="395.5" y="-711.2" font-family="Helvetica,sans-Serif" font-size="11.00">&lt; 2</text>
<polygon fill="#ffffff" stroke="transparent" points="448.5,-705 448.5,-723 477.5,-723 477.5,-705 448.5,-705"/>
<polygon fill="none" stroke="black" points="448.5,-705 448.5,-723 477.5,-723 477.5,-705 448.5,-705"/>
<text text-anchor="start" x="466.5" y="-711.2" font-family="Helvetica,sans-Serif" font-size="11.00"> &#160;</text>
<polygon fill="#ffffff" stroke="transparent" points="477.5,-705 477.5,-723 506.5,-723 506.5,-705 477.5,-705"/>
<polygon fill="none" stroke="black" points="477.5,-705 477.5,-723 506.5,-723 506.5,-705 477.5,-705"/>
<text text-anchor="start" x="495.5" y="-711.2" font-family="Helvetica,sans-Serif" font-size="11.00"> &#160;</text>
</a>
</g>
</g>
<!-- label&#45;&gt;roi.annotatie -->
<g id="edge3" class="edge">
<title>label:w&#45;&gt;roi.annotatie:e</title>
<path fill="none" stroke="black" d="M376.85,-752C360.68,-752 343.98,-752 328.32,-752"/>
<polygon fill="black" stroke="black" points="383.5,-752 391.5,-755.6 387.5,-752 391.5,-752 391.5,-752 391.5,-752 387.5,-752 391.5,-748.4 383.5,-752 383.5,-752"/>
<ellipse fill="none" stroke="black" cx="380.3" cy="-752" rx="3.2" ry="3.2"/>
</g>
<!-- label&#45;&gt;object -->
<g id="edge4" class="edge">
<title>label:w&#45;&gt;object:e</title>
<path fill="none" stroke="black" d="M377.07,-772.44C288.6,-751.22 431.89,-520 320,-520"/>
<polygon fill="black" stroke="black" points="383.55,-773.14 391.11,-777.58 387.52,-773.57 391.5,-774 391.5,-774 391.5,-774 387.52,-773.57 391.89,-770.42 383.55,-773.14 383.55,-773.14"/>
<ellipse fill="none" stroke="black" cx="380.36" cy="-772.8" rx="3.2" ry="3.2"/>
</g>
<!-- maatregel -->
<g id="node8" class="node">
<title>maatregel</title>
<g id="a_node8"><a xlink:href="../../tables/maatregel.html" xlink:title="maatregel" target="_top">
<polygon fill="#ffffff" stroke="transparent" points="384,-371 384,-517 515,-517 515,-371 384,-371"/>
<polygon fill="#f5f5f5" stroke="transparent" points="384.5,-495 384.5,-517 515.5,-517 515.5,-495 384.5,-495"/>
<polygon fill="none" stroke="black" points="384.5,-495 384.5,-517 515.5,-517 515.5,-495 384.5,-495"/>
<text text-anchor="start" x="389.5" y="-504.2" font-family="Helvetica,sans-Serif" font-weight="bold" font-size="11.00">maatregel</text>
<text text-anchor="start" x="473.5" y="-503.2" font-family="Helvetica,sans-Serif" font-size="11.00">[table]</text>
<polygon fill="none" stroke="black" points="384.5,-473 384.5,-495 515.5,-495 515.5,-473 384.5,-473"/>
<image xlink:href="../../images/primaryKeys.png" width="11px" height="12px" preserveAspectRatio="xMinYMin meet" x="389.5" y="-490"/>
<text text-anchor="start" x="404.5" y="-481.2" font-family="Helvetica,sans-Serif" font-size="11.00">uuid</text>
<polygon fill="#ffffff" stroke="transparent" points="384.5,-451 384.5,-473 515.5,-473 515.5,-451 384.5,-451"/>
<polygon fill="none" stroke="black" points="384.5,-451 384.5,-473 515.5,-473 515.5,-451 384.5,-451"/>
<text text-anchor="start" x="404.5" y="-459.2" font-family="Helvetica,sans-Serif" font-size="11.00">geom</text>
<polygon fill="#ffffff" stroke="transparent" points="384.5,-429 384.5,-451 515.5,-451 515.5,-429 384.5,-429"/>
<polygon fill="none" stroke="black" points="384.5,-429 384.5,-451 515.5,-451 515.5,-429 384.5,-429"/>
<image xlink:href="../../images/foreignKeys.png" width="11px" height="12px" preserveAspectRatio="xMinYMin meet" x="389.5" y="-446"/>
<text text-anchor="start" x="404.5" y="-437.2" font-family="Helvetica,sans-Serif" font-size="11.00">object_uuid</text>
<polygon fill="none" stroke="black" points="384.5,-407 384.5,-429 515.5,-429 515.5,-407 384.5,-407"/>
<image xlink:href="../../images/foreignKeys.png" width="11px" height="12px" preserveAspectRatio="xMinYMin meet" x="389.5" y="-424"/>
<text text-anchor="start" x="404.5" y="-415.2" font-family="Helvetica,sans-Serif" font-size="11.00">maatregel_type_id</text>
<polygon fill="none" stroke="black" points="384.5,-389 384.5,-407 515.5,-407 515.5,-389 384.5,-389"/>
<text text-anchor="start" x="387.5" y="-395.2" font-family="Helvetica,sans-Serif" font-size="11.00">...</text>
<polygon fill="#ffffff" stroke="transparent" points="384.5,-371 384.5,-389 448.5,-389 448.5,-371 384.5,-371"/>
<polygon fill="none" stroke="black" points="384.5,-371 384.5,-389 448.5,-389 448.5,-371 384.5,-371"/>
<text text-anchor="start" x="387.5" y="-377.2" font-family="Helvetica,sans-Serif" font-size="11.00">&lt; 2</text>
<polygon fill="#ffffff" stroke="transparent" points="448.5,-371 448.5,-389 481.5,-389 481.5,-371 448.5,-371"/>
<polygon fill="none" stroke="black" points="448.5,-371 448.5,-389 481.5,-389 481.5,-371 448.5,-371"/>
<text text-anchor="start" x="470.5" y="-377.2" font-family="Helvetica,sans-Serif" font-size="11.00"> &#160;</text>
<polygon fill="#ffffff" stroke="transparent" points="481.5,-371 481.5,-389 515.5,-389 515.5,-371 481.5,-371"/>
<polygon fill="none" stroke="black" points="481.5,-371 481.5,-389 515.5,-389 515.5,-371 481.5,-371"/>
<text text-anchor="start" x="504.5" y="-377.2" font-family="Helvetica,sans-Serif" font-size="11.00"> &#160;</text>
</a>
</g>
</g>
<!-- maatregel_type -->
<g id="node9" class="node">
<title>maatregel_type</title>
<g id="a_node9"><a xlink:href="../../tables/maatregel_type.html" xlink:title="maatregel_type" target="_top">
<polygon fill="#ffffff" stroke="transparent" points="180,-284 180,-364 328,-364 328,-284 180,-284"/>
<polygon fill="#f5f5f5" stroke="transparent" points="180,-342 180,-364 328,-364 328,-342 180,-342"/>
<polygon fill="none" stroke="black" points="180,-342 180,-364 328,-364 328,-342 180,-342"/>
<text text-anchor="start" x="185" y="-351.2" font-family="Helvetica,sans-Serif" font-weight="bold" font-size="11.00">maatregel_type</text>
<text text-anchor="start" x="286" y="-350.2" font-family="Helvetica,sans-Serif" font-size="11.00">[table]</text>
<polygon fill="none" stroke="black" points="180,-320 180,-342 328,-342 328,-320 180,-320"/>
<image xlink:href="../../images/primaryKeys.png" width="11px" height="12px" preserveAspectRatio="xMinYMin meet" x="185" y="-337"/>
<text text-anchor="start" x="217" y="-328.2" font-family="Helvetica,sans-Serif" font-size="11.00">id</text>
<polygon fill="none" stroke="black" points="180,-302 180,-320 328,-320 328,-302 180,-302"/>
<text text-anchor="start" x="183" y="-308.2" font-family="Helvetica,sans-Serif" font-size="11.00">...</text>
<polygon fill="#ffffff" stroke="transparent" points="180,-284 180,-302 241,-302 241,-284 180,-284"/>
<polygon fill="none" stroke="black" points="180,-284 180,-302 241,-302 241,-284 180,-284"/>
<text text-anchor="start" x="183" y="-290.2" font-family="Helvetica,sans-Serif" font-size="11.00"> &#160;</text>
<polygon fill="#ffffff" stroke="transparent" points="241,-284 241,-302 278,-302 278,-284 241,-284"/>
<polygon fill="none" stroke="black" points="241,-284 241,-302 278,-302 278,-284 241,-284"/>
<text text-anchor="start" x="267" y="-290.2" font-family="Helvetica,sans-Serif" font-size="11.00"> &#160;</text>
<polygon fill="#ffffff" stroke="transparent" points="278,-284 278,-302 328,-302 328,-284 278,-284"/>
<polygon fill="none" stroke="black" points="278,-284 278,-302 328,-302 328,-284 278,-284"/>
<text text-anchor="start" x="305" y="-290.2" font-family="Helvetica,sans-Serif" font-size="11.00">1 &gt;</text>
</a>
</g>
</g>
<!-- maatregel&#45;&gt;maatregel_type -->
<g id="edge5" class="edge">
<title>maatregel:w&#45;&gt;maatregel_type:e</title>
<path fill="none" stroke="black" d="M369.61,-414.04C345.98,-397.02 368.75,-331 329,-331"/>
<polygon fill="black" stroke="black" points="375.81,-415.8 382.51,-421.46 379.65,-416.9 383.5,-418 383.5,-418 383.5,-418 379.65,-416.9 384.49,-414.54 375.81,-415.8 375.81,-415.8"/>
<ellipse fill="none" stroke="black" cx="372.73" cy="-414.93" rx="3.2" ry="3.2"/>
</g>
<!-- maatregel&#45;&gt;object -->
<g id="edge6" class="edge">
<title>maatregel:w&#45;&gt;object:e</title>
<path fill="none" stroke="black" d="M369.26,-443.65C343.93,-459.3 359.54,-520 320,-520"/>
<polygon fill="black" stroke="black" points="375.75,-441.98 384.39,-443.49 379.62,-440.99 383.5,-440 383.5,-440 383.5,-440 379.62,-440.99 382.61,-436.51 375.75,-441.98 375.75,-441.98"/>
<ellipse fill="none" stroke="black" cx="372.65" cy="-442.78" rx="3.2" ry="3.2"/>
</g>
<!-- object&#45;&gt;roi.fase -->
<g id="edge7" class="edge">
<title>object:w&#45;&gt;roi.fase:e</title>
<path fill="none" stroke="black" d="M174.34,-454.67C158.25,-456.08 141.87,-459.56 127.03,-463.66"/>
<polygon fill="black" stroke="black" points="181.01,-454.36 189.16,-457.6 185,-454.18 189,-454 189,-454 189,-454 185,-454.18 188.84,-450.4 181.01,-454.36 181.01,-454.36"/>
<ellipse fill="none" stroke="black" cx="177.81" cy="-454.51" rx="3.2" ry="3.2"/>
</g>
<!-- object_type -->
<g id="node11" class="node">
<title>object_type</title>
<g id="a_node11"><a xlink:href="../../tables/object_type.html" xlink:title="object_type" target="_top">
<polygon fill="#ffffff" stroke="transparent" points="8,-354 8,-434 131,-434 131,-354 8,-354"/>
<polygon fill="#f5f5f5" stroke="transparent" points="8.5,-412 8.5,-434 131.5,-434 131.5,-412 8.5,-412"/>
<polygon fill="none" stroke="black" points="8.5,-412 8.5,-434 131.5,-434 131.5,-412 8.5,-412"/>
<text text-anchor="start" x="13.5" y="-421.2" font-family="Helvetica,sans-Serif" font-weight="bold" font-size="11.00">object_type</text>
<text text-anchor="start" x="89.5" y="-420.2" font-family="Helvetica,sans-Serif" font-size="11.00">[table]</text>
<polygon fill="none" stroke="black" points="8.5,-390 8.5,-412 131.5,-412 131.5,-390 8.5,-390"/>
<image xlink:href="../../images/primaryKeys.png" width="11px" height="12px" preserveAspectRatio="xMinYMin meet" x="13.5" y="-407"/>
<text text-anchor="start" x="41.5" y="-398.2" font-family="Helvetica,sans-Serif" font-size="11.00">id</text>
<polygon fill="none" stroke="black" points="8.5,-372 8.5,-390 131.5,-390 131.5,-372 8.5,-372"/>
<text text-anchor="start" x="11.5" y="-378.2" font-family="Helvetica,sans-Serif" font-size="11.00">...</text>
<polygon fill="#ffffff" stroke="transparent" points="8.5,-354 8.5,-372 56.5,-372 56.5,-354 8.5,-354"/>
<polygon fill="none" stroke="black" points="8.5,-354 8.5,-372 56.5,-372 56.5,-354 8.5,-354"/>
<text text-anchor="start" x="11.5" y="-360.2" font-family="Helvetica,sans-Serif" font-size="11.00"> &#160;</text>
<polygon fill="#ffffff" stroke="transparent" points="56.5,-354 56.5,-372 87.5,-372 87.5,-354 56.5,-354"/>
<polygon fill="none" stroke="black" points="56.5,-354 56.5,-372 87.5,-372 87.5,-354 56.5,-354"/>
<text text-anchor="start" x="76.5" y="-360.2" font-family="Helvetica,sans-Serif" font-size="11.00"> &#160;</text>
<polygon fill="#ffffff" stroke="transparent" points="87.5,-354 87.5,-372 131.5,-372 131.5,-354 87.5,-354"/>
<polygon fill="none" stroke="black" points="87.5,-354 87.5,-372 131.5,-372 131.5,-354 87.5,-354"/>
<text text-anchor="start" x="108.5" y="-360.2" font-family="Helvetica,sans-Serif" font-size="11.00">1 &gt;</text>
</a>
</g>
</g>
<!-- object&#45;&gt;object_type -->
<g id="edge8" class="edge">
<title>object:w&#45;&gt;object_type:e</title>
<path fill="none" stroke="black" d="M174.7,-428.68C159.46,-420.69 155.32,-401 132.5,-401"/>
<polygon fill="black" stroke="black" points="181.21,-430.19 188.19,-435.51 185.1,-431.1 189,-432 189,-432 189,-432 185.1,-431.1 189.81,-428.49 181.21,-430.19 181.21,-430.19"/>
<ellipse fill="none" stroke="black" cx="178.09" cy="-429.47" rx="3.2" ry="3.2"/>
</g>
<!-- sector -->
<g id="node12" class="node">
<title>sector</title>
<g id="a_node12"><a xlink:href="../../tables/sector.html" xlink:title="sector" target="_top">
<polygon fill="#ffffff" stroke="transparent" points="392.5,-204 392.5,-350 506.5,-350 506.5,-204 392.5,-204"/>
<polygon fill="#f5f5f5" stroke="transparent" points="392.5,-328 392.5,-350 506.5,-350 506.5,-328 392.5,-328"/>
<polygon fill="none" stroke="black" points="392.5,-328 392.5,-350 506.5,-350 506.5,-328 392.5,-328"/>
<text text-anchor="start" x="397.5" y="-337.2" font-family="Helvetica,sans-Serif" font-weight="bold" font-size="11.00">sector</text>
<text text-anchor="start" x="464.5" y="-336.2" font-family="Helvetica,sans-Serif" font-size="11.00">[table]</text>
<polygon fill="none" stroke="black" points="392.5,-306 392.5,-328 506.5,-328 506.5,-306 392.5,-306"/>
<image xlink:href="../../images/primaryKeys.png" width="11px" height="12px" preserveAspectRatio="xMinYMin meet" x="397.5" y="-323"/>
<text text-anchor="start" x="412.5" y="-314.2" font-family="Helvetica,sans-Serif" font-size="11.00">uuid</text>
<polygon fill="#ffffff" stroke="transparent" points="392.5,-284 392.5,-306 506.5,-306 506.5,-284 392.5,-284"/>
<polygon fill="none" stroke="black" points="392.5,-284 392.5,-306 506.5,-306 506.5,-284 392.5,-284"/>
<text text-anchor="start" x="412.5" y="-292.2" font-family="Helvetica,sans-Serif" font-size="11.00">geom</text>
<polygon fill="#ffffff" stroke="transparent" points="392.5,-262 392.5,-284 506.5,-284 506.5,-262 392.5,-262"/>
<polygon fill="none" stroke="black" points="392.5,-262 392.5,-284 506.5,-284 506.5,-262 392.5,-262"/>
<image xlink:href="../../images/foreignKeys.png" width="11px" height="12px" preserveAspectRatio="xMinYMin meet" x="397.5" y="-279"/>
<text text-anchor="start" x="412.5" y="-270.2" font-family="Helvetica,sans-Serif" font-size="11.00">object_uuid</text>
<polygon fill="none" stroke="black" points="392.5,-240 392.5,-262 506.5,-262 506.5,-240 392.5,-240"/>
<image xlink:href="../../images/foreignKeys.png" width="11px" height="12px" preserveAspectRatio="xMinYMin meet" x="397.5" y="-257"/>
<text text-anchor="start" x="412.5" y="-248.2" font-family="Helvetica,sans-Serif" font-size="11.00">zone_id</text>
<polygon fill="none" stroke="black" points="392.5,-222 392.5,-240 506.5,-240 506.5,-222 392.5,-222"/>
<text text-anchor="start" x="395.5" y="-228.2" font-family="Helvetica,sans-Serif" font-size="11.00">...</text>
<polygon fill="#ffffff" stroke="transparent" points="392.5,-204 392.5,-222 448.5,-222 448.5,-204 392.5,-204"/>
<polygon fill="none" stroke="black" points="392.5,-204 392.5,-222 448.5,-222 448.5,-204 392.5,-204"/>
<text text-anchor="start" x="395.5" y="-210.2" font-family="Helvetica,sans-Serif" font-size="11.00">&lt; 2</text>
<polygon fill="#ffffff" stroke="transparent" points="448.5,-204 448.5,-222 477.5,-222 477.5,-204 448.5,-204"/>
<polygon fill="none" stroke="black" points="448.5,-204 448.5,-222 477.5,-222 477.5,-204 448.5,-204"/>
<text text-anchor="start" x="466.5" y="-210.2" font-family="Helvetica,sans-Serif" font-size="11.00"> &#160;</text>
<polygon fill="#ffffff" stroke="transparent" points="477.5,-204 477.5,-222 506.5,-222 506.5,-204 477.5,-204"/>
<polygon fill="none" stroke="black" points="477.5,-204 477.5,-222 506.5,-222 506.5,-204 477.5,-204"/>
<text text-anchor="start" x="495.5" y="-210.2" font-family="Helvetica,sans-Serif" font-size="11.00"> &#160;</text>
</a>
</g>
</g>
<!-- sector&#45;&gt;roi.zone -->
<g id="edge10" class="edge">
<title>sector:w&#45;&gt;roi.zone:e</title>
<path fill="none" stroke="black" d="M377.08,-250.71C355.45,-249.87 332.95,-247.33 313.26,-244.48"/>
<polygon fill="black" stroke="black" points="383.5,-250.84 391.43,-254.6 387.5,-250.92 391.5,-251 391.5,-251 391.5,-251 387.5,-250.92 391.57,-247.4 383.5,-250.84 383.5,-250.84"/>
<ellipse fill="none" stroke="black" cx="380.3" cy="-250.77" rx="3.2" ry="3.2"/>
</g>
<!-- sector&#45;&gt;object -->
<g id="edge9" class="edge">
<title>sector:w&#45;&gt;object:e</title>
<path fill="none" stroke="black" d="M377.16,-274.58C291.34,-295.61 428.93,-520 320,-520"/>
<polygon fill="black" stroke="black" points="383.55,-273.87 391.89,-276.58 387.52,-273.44 391.5,-273 391.5,-273 391.5,-273 387.52,-273.44 391.11,-269.42 383.55,-273.87 383.55,-273.87"/>
<ellipse fill="none" stroke="black" cx="380.37" cy="-274.22" rx="3.2" ry="3.2"/>
</g>
<!-- voorziening -->
<g id="node13" class="node">
<title>voorziening</title>
<g id="a_node13"><a xlink:href="../../tables/voorziening.html" xlink:title="voorziening" target="_top">
<polygon fill="#ffffff" stroke="transparent" points="387.5,-37 387.5,-183 511.5,-183 511.5,-37 387.5,-37"/>
<polygon fill="#f5f5f5" stroke="transparent" points="387.5,-161 387.5,-183 511.5,-183 511.5,-161 387.5,-161"/>
<polygon fill="none" stroke="black" points="387.5,-161 387.5,-183 511.5,-183 511.5,-161 387.5,-161"/>
<text text-anchor="start" x="392.5" y="-170.2" font-family="Helvetica,sans-Serif" font-weight="bold" font-size="11.00">voorziening</text>
<text text-anchor="start" x="469.5" y="-169.2" font-family="Helvetica,sans-Serif" font-size="11.00">[table]</text>
<polygon fill="none" stroke="black" points="387.5,-139 387.5,-161 511.5,-161 511.5,-139 387.5,-139"/>
<image xlink:href="../../images/primaryKeys.png" width="11px" height="12px" preserveAspectRatio="xMinYMin meet" x="392.5" y="-156"/>
<text text-anchor="start" x="412.5" y="-147.2" font-family="Helvetica,sans-Serif" font-size="11.00">uuid</text>
<polygon fill="#ffffff" stroke="transparent" points="387.5,-117 387.5,-139 511.5,-139 511.5,-117 387.5,-117"/>
<polygon fill="none" stroke="black" points="387.5,-117 387.5,-139 511.5,-139 511.5,-117 387.5,-117"/>
<text text-anchor="start" x="412.5" y="-125.2" font-family="Helvetica,sans-Serif" font-size="11.00">geom</text>
<polygon fill="#ffffff" stroke="transparent" points="387.5,-95 387.5,-117 511.5,-117 511.5,-95 387.5,-95"/>
<polygon fill="none" stroke="black" points="387.5,-95 387.5,-117 511.5,-117 511.5,-95 387.5,-95"/>
<image xlink:href="../../images/foreignKeys.png" width="11px" height="12px" preserveAspectRatio="xMinYMin meet" x="392.5" y="-112"/>
<text text-anchor="start" x="412.5" y="-103.2" font-family="Helvetica,sans-Serif" font-size="11.00">object_uuid</text>
<polygon fill="none" stroke="black" points="387.5,-73 387.5,-95 511.5,-95 511.5,-73 387.5,-73"/>
<image xlink:href="../../images/foreignKeys.png" width="11px" height="12px" preserveAspectRatio="xMinYMin meet" x="392.5" y="-90"/>
<text text-anchor="start" x="412.5" y="-81.2" font-family="Helvetica,sans-Serif" font-size="11.00">symbool_id</text>
<polygon fill="none" stroke="black" points="387.5,-55 387.5,-73 511.5,-73 511.5,-55 387.5,-55"/>
<text text-anchor="start" x="390.5" y="-61.2" font-family="Helvetica,sans-Serif" font-size="11.00">...</text>
<polygon fill="#ffffff" stroke="transparent" points="387.5,-37 387.5,-55 448.5,-55 448.5,-37 387.5,-37"/>
<polygon fill="none" stroke="black" points="387.5,-37 387.5,-55 448.5,-55 448.5,-37 387.5,-37"/>
<text text-anchor="start" x="390.5" y="-43.2" font-family="Helvetica,sans-Serif" font-size="11.00">&lt; 2</text>
<polygon fill="#ffffff" stroke="transparent" points="448.5,-37 448.5,-55 479.5,-55 479.5,-37 448.5,-37"/>
<polygon fill="none" stroke="black" points="448.5,-37 448.5,-55 479.5,-55 479.5,-37 448.5,-37"/>
<text text-anchor="start" x="468.5" y="-43.2" font-family="Helvetica,sans-Serif" font-size="11.00"> &#160;</text>
<polygon fill="#ffffff" stroke="transparent" points="479.5,-37 479.5,-55 511.5,-55 511.5,-37 479.5,-37"/>
<polygon fill="none" stroke="black" points="479.5,-37 479.5,-55 511.5,-55 511.5,-37 479.5,-37"/>
<text text-anchor="start" x="500.5" y="-43.2" font-family="Helvetica,sans-Serif" font-size="11.00"> &#160;</text>
</a>
</g>
</g>
<!-- voorziening&#45;&gt;roi.symbool -->
<g id="edge12" class="edge">
<title>voorziening:w&#45;&gt;roi.symbool:e</title>
<path fill="none" stroke="black" d="M372.05,-84C356.11,-84 339.64,-84 324.27,-84"/>
<polygon fill="black" stroke="black" points="378.5,-84 386.5,-87.6 382.5,-84 386.5,-84 386.5,-84 386.5,-84 382.5,-84 386.5,-80.4 378.5,-84 378.5,-84"/>
<ellipse fill="none" stroke="black" cx="375.3" cy="-84" rx="3.2" ry="3.2"/>
</g>
<!-- voorziening&#45;&gt;object -->
<g id="edge11" class="edge">
<title>voorziening:w&#45;&gt;object:e</title>
<path fill="none" stroke="black" d="M372.23,-110.1C306.64,-153.09 407.72,-520 320,-520"/>
<polygon fill="black" stroke="black" points="378.81,-108.21 387.49,-109.46 382.66,-107.1 386.5,-106 386.5,-106 386.5,-106 382.66,-107.1 385.51,-102.54 378.81,-108.21 378.81,-108.21"/>
<ellipse fill="none" stroke="black" cx="375.73" cy="-109.09" rx="3.2" ry="3.2"/>
</g>
</g>
</svg>
