<?xml version="1.0" encoding="UTF-8" standalone="no"?>
<!DOCTYPE svg PUBLIC "-//W3C//DTD SVG 1.1//EN"
 "http://www.w3.org/Graphics/SVG/1.1/DTD/svg11.dtd">
<!-- Generated by graphviz version 2.40.1 (20161225.0304)
 -->
<!-- Title: oneDegreeRelationshipsDiagram Pages: 1 -->
<svg width="468pt" height="976pt"
 viewBox="0.00 0.00 468.00 976.20" xmlns="http://www.w3.org/2000/svg" xmlns:xlink="http://www.w3.org/1999/xlink">
<g id="graph0" class="graph" transform="scale(1 1) rotate(0) translate(4 972.2)">
<title>oneDegreeRelationshipsDiagram</title>
<polygon fill="#ffffff" stroke="transparent" points="-4,4 -4,-972.2 464,-972.2 464,4 -4,4"/>
<text text-anchor="middle" x="72.4936" y="-7.3" font-family="Helvetica,sans-Serif" font-size="11.00" fill="#000000">Generated by SchemaSpy</text>
<!-- bluswaterriool -->
<g id="node1" class="node">
<title>bluswaterriool</title>
<g id="a_node1"><a xlink:href="../../tables/bluswaterriool.html" xlink:title="bluswaterriool" target="_top">
<polygon fill="#ffffff" stroke="transparent" points="164,-38.2 164,-964.2 452,-964.2 452,-38.2 164,-38.2"/>
<polygon fill="#f5f5f5" stroke="transparent" points="166,-939.2 166,-962.2 450,-962.2 450,-939.2 166,-939.2"/>
<polygon fill="none" stroke="#000000" points="166,-939.2 166,-962.2 450,-962.2 450,-939.2 166,-939.2"/>
<text text-anchor="start" x="171" y="-947.8" font-family="Helvetica,sans-Serif" font-weight="bold" font-size="11.00" fill="#000000">bluswaterriool</text>
<text text-anchor="start" x="415.0437" y="-947.3" font-family="Helvetica,sans-Serif" font-size="11.00" fill="#000000">[table]</text>
<polygon fill="none" stroke="#000000" points="166,-917.2 166,-939.2 331,-939.2 331,-917.2 166,-917.2"/>
<image xlink:href="../../images/primaryKeys.png" width="11px" height="12px" preserveAspectRatio="xMinYMin meet" x="171" y="-934.2"/>
<text text-anchor="start" x="186" y="-924.3" font-family="Helvetica,sans-Serif" font-size="11.00" fill="#000000">uuid</text>
<polygon fill="none" stroke="#000000" points="331,-917.2 331,-939.2 450,-939.2 450,-917.2 331,-917.2"/>
<text text-anchor="start" x="334" y="-924.9" font-family="Helvetica,sans-Serif" font-size="11.00" fill="#000000">uuid[2147483647]</text>
<polygon fill="#ffffff" stroke="transparent" points="166,-895.2 166,-917.2 331,-917.2 331,-895.2 166,-895.2"/>
<polygon fill="none" stroke="#000000" points="166,-895.2 166,-917.2 331,-917.2 331,-895.2 166,-895.2"/>
<text text-anchor="start" x="186" y="-902.3" font-family="Helvetica,sans-Serif" font-size="11.00" fill="#000000">geom</text>
<polygon fill="none" stroke="#000000" points="331,-895.2 331,-917.2 450,-917.2 450,-895.2 331,-895.2"/>
<text text-anchor="start" x="333.9485" y="-902.9" font-family="Helvetica,sans-Serif" font-size="11.00" fill="#000000">geometry[2147483647]</text>
<polygon fill="none" stroke="#000000" points="166,-873.2 166,-895.2 331,-895.2 331,-873.2 166,-873.2"/>
<text text-anchor="start" x="186" y="-880.3" font-family="Helvetica,sans-Serif" font-size="11.00" fill="#000000">datumtijd</text>
<polygon fill="none" stroke="#000000" points="331,-873.2 331,-895.2 450,-895.2 450,-873.2 331,-873.2"/>
<text text-anchor="start" x="334" y="-880.9" font-family="Helvetica,sans-Serif" font-size="11.00" fill="#000000">timestamptz[35,6]</text>
<polygon fill="none" stroke="#000000" points="166,-851.2 166,-873.2 331,-873.2 331,-851.2 166,-851.2"/>
<text text-anchor="start" x="186" y="-858.3" font-family="Helvetica,sans-Serif" font-size="11.00" fill="#000000">gebruiker</text>
<polygon fill="none" stroke="#000000" points="331,-851.2 331,-873.2 450,-873.2 450,-851.2 331,-851.2"/>
<text text-anchor="start" x="334" y="-858.9" font-family="Helvetica,sans-Serif" font-size="11.00" fill="#000000">varchar[255]</text>
<polygon fill="none" stroke="#000000" points="166,-829.2 166,-851.2 331,-851.2 331,-829.2 166,-829.2"/>
<text text-anchor="start" x="186" y="-836.3" font-family="Helvetica,sans-Serif" font-size="11.00" fill="#000000">label</text>
<polygon fill="none" stroke="#000000" points="331,-829.2 331,-851.2 450,-851.2 450,-829.2 331,-829.2"/>
<text text-anchor="start" x="334" y="-836.9" font-family="Helvetica,sans-Serif" font-size="11.00" fill="#000000">text[2147483647]</text>
<polygon fill="none" stroke="#000000" points="166,-807.2 166,-829.2 331,-829.2 331,-807.2 166,-807.2"/>
<text text-anchor="start" x="186" y="-814.3" font-family="Helvetica,sans-Serif" font-size="11.00" fill="#000000">rotatie</text>
<polygon fill="none" stroke="#000000" points="331,-807.2 331,-829.2 450,-829.2 450,-807.2 331,-807.2"/>
<text text-anchor="start" x="334" y="-814.9" font-family="Helvetica,sans-Serif" font-size="11.00" fill="#000000">int4[10]</text>
<polygon fill="none" stroke="#000000" points="166,-785.2 166,-807.2 331,-807.2 331,-785.2 166,-785.2"/>
<text text-anchor="start" x="186" y="-792.3" font-family="Helvetica,sans-Serif" font-size="11.00" fill="#000000">bijzonderheden</text>
<polygon fill="none" stroke="#000000" points="331,-785.2 331,-807.2 450,-807.2 450,-785.2 331,-785.2"/>
<text text-anchor="start" x="334" y="-792.9" font-family="Helvetica,sans-Serif" font-size="11.00" fill="#000000">text[2147483647]</text>
<polygon fill="none" stroke="#000000" points="166,-763.2 166,-785.2 331,-785.2 331,-763.2 166,-763.2"/>
<text text-anchor="start" x="186" y="-770.3" font-family="Helvetica,sans-Serif" font-size="11.00" fill="#000000">plusinfo</text>
<polygon fill="none" stroke="#000000" points="331,-763.2 331,-785.2 450,-785.2 450,-763.2 331,-763.2"/>
<text text-anchor="start" x="334" y="-770.9" font-family="Helvetica,sans-Serif" font-size="11.00" fill="#000000">jsonb[2147483647]</text>
<polygon fill="none" stroke="#000000" points="166,-741.2 166,-763.2 331,-763.2 331,-741.2 166,-741.2"/>
<text text-anchor="start" x="186" y="-748.3" font-family="Helvetica,sans-Serif" font-size="11.00" fill="#000000">aanleg</text>
<polygon fill="none" stroke="#000000" points="331,-741.2 331,-763.2 450,-763.2 450,-741.2 331,-741.2"/>
<text text-anchor="start" x="334" y="-748.9" font-family="Helvetica,sans-Serif" font-size="11.00" fill="#000000">date[13]</text>
<polygon fill="none" stroke="#000000" points="166,-719.2 166,-741.2 331,-741.2 331,-719.2 166,-719.2"/>
<text text-anchor="start" x="186" y="-726.3" font-family="Helvetica,sans-Serif" font-size="11.00" fill="#000000">code</text>
<polygon fill="none" stroke="#000000" points="331,-719.2 331,-741.2 450,-741.2 450,-719.2 331,-719.2"/>
<text text-anchor="start" x="334" y="-726.9" font-family="Helvetica,sans-Serif" font-size="11.00" fill="#000000">text[2147483647]</text>
<polygon fill="none" stroke="#000000" points="166,-697.2 166,-719.2 331,-719.2 331,-697.2 166,-697.2"/>
<text text-anchor="start" x="186" y="-704.3" font-family="Helvetica,sans-Serif" font-size="11.00" fill="#000000">beheerder</text>
<polygon fill="none" stroke="#000000" points="331,-697.2 331,-719.2 450,-719.2 450,-697.2 331,-697.2"/>
<text text-anchor="start" x="334" y="-704.9" font-family="Helvetica,sans-Serif" font-size="11.00" fill="#000000">text[2147483647]</text>
<polygon fill="none" stroke="#000000" points="166,-675.2 166,-697.2 331,-697.2 331,-675.2 166,-675.2"/>
<text text-anchor="start" x="186" y="-682.3" font-family="Helvetica,sans-Serif" font-size="11.00" fill="#000000">particulier</text>
<polygon fill="none" stroke="#000000" points="331,-675.2 331,-697.2 450,-697.2 450,-675.2 331,-675.2"/>
<text text-anchor="start" x="334" y="-682.9" font-family="Helvetica,sans-Serif" font-size="11.00" fill="#000000">text[2147483647]</text>
<polygon fill="none" stroke="#000000" points="166,-653.2 166,-675.2 331,-675.2 331,-653.2 166,-653.2"/>
<text text-anchor="start" x="186" y="-660.3" font-family="Helvetica,sans-Serif" font-size="11.00" fill="#000000">adres</text>
<polygon fill="none" stroke="#000000" points="331,-653.2 331,-675.2 450,-675.2 450,-653.2 331,-653.2"/>
<text text-anchor="start" x="334" y="-660.9" font-family="Helvetica,sans-Serif" font-size="11.00" fill="#000000">text[2147483647]</text>
<polygon fill="none" stroke="#000000" points="166,-631.2 166,-653.2 331,-653.2 331,-631.2 166,-631.2"/>
<text text-anchor="start" x="186" y="-638.3" font-family="Helvetica,sans-Serif" font-size="11.00" fill="#000000">onderhoud</text>
<polygon fill="none" stroke="#000000" points="331,-631.2 331,-653.2 450,-653.2 450,-631.2 331,-631.2"/>
<text text-anchor="start" x="334" y="-638.9" font-family="Helvetica,sans-Serif" font-size="11.00" fill="#000000">tstzrange[2147483647]</text>
<polygon fill="none" stroke="#000000" points="166,-609.2 166,-631.2 331,-631.2 331,-609.2 166,-609.2"/>
<text text-anchor="start" x="186" y="-616.3" font-family="Helvetica,sans-Serif" font-size="11.00" fill="#000000">revisie_frequentie</text>
<polygon fill="none" stroke="#000000" points="331,-609.2 331,-631.2 450,-631.2 450,-609.2 331,-609.2"/>
<text text-anchor="start" x="334" y="-616.9" font-family="Helvetica,sans-Serif" font-size="11.00" fill="#000000">int2[5]</text>
<polygon fill="none" stroke="#000000" points="166,-587.2 166,-609.2 331,-609.2 331,-587.2 166,-587.2"/>
<image xlink:href="../../images/foreignKeys.png" width="11px" height="12px" preserveAspectRatio="xMinYMin meet" x="171" y="-604.2"/>
<text text-anchor="start" x="186" y="-594.3" font-family="Helvetica,sans-Serif" font-size="11.00" fill="#000000">fase_id</text>
<polygon fill="none" stroke="#000000" points="331,-587.2 331,-609.2 450,-609.2 450,-587.2 331,-587.2"/>
<text text-anchor="start" x="334" y="-594.9" font-family="Helvetica,sans-Serif" font-size="11.00" fill="#000000">int2[5]</text>
<polygon fill="none" stroke="#000000" points="166,-565.2 166,-587.2 331,-587.2 331,-565.2 166,-565.2"/>
<image xlink:href="../../images/foreignKeys.png" width="11px" height="12px" preserveAspectRatio="xMinYMin meet" x="171" y="-582.2"/>
<text text-anchor="start" x="186" y="-572.3" font-family="Helvetica,sans-Serif" font-size="11.00" fill="#000000">symbool_id</text>
<polygon fill="none" stroke="#000000" points="331,-565.2 331,-587.2 450,-587.2 450,-565.2 331,-565.2"/>
<text text-anchor="start" x="334" y="-572.9" font-family="Helvetica,sans-Serif" font-size="11.00" fill="#000000">int2[5]</text>
<polygon fill="none" stroke="#000000" points="166,-543.2 166,-565.2 331,-565.2 331,-543.2 166,-543.2"/>
<image xlink:href="../../images/foreignKeys.png" width="11px" height="12px" preserveAspectRatio="xMinYMin meet" x="171" y="-560.2"/>
<text text-anchor="start" x="186" y="-550.3" font-family="Helvetica,sans-Serif" font-size="11.00" fill="#000000">gebied_id</text>
<polygon fill="none" stroke="#000000" points="331,-543.2 331,-565.2 450,-565.2 450,-543.2 331,-543.2"/>
<text text-anchor="start" x="334" y="-550.9" font-family="Helvetica,sans-Serif" font-size="11.00" fill="#000000">int2[5]</text>
<polygon fill="none" stroke="#000000" points="166,-521.2 166,-543.2 331,-543.2 331,-521.2 166,-521.2"/>
<text text-anchor="start" x="186" y="-528.3" font-family="Helvetica,sans-Serif" font-size="11.00" fill="#000000">opstelplaats</text>
<polygon fill="none" stroke="#000000" points="331,-521.2 331,-543.2 450,-543.2 450,-521.2 331,-521.2"/>
<text text-anchor="start" x="334" y="-528.9" font-family="Helvetica,sans-Serif" font-size="11.00" fill="#000000">bool[1]</text>
<polygon fill="none" stroke="#000000" points="166,-499.2 166,-521.2 331,-521.2 331,-499.2 166,-499.2"/>
<text text-anchor="start" x="186" y="-506.3" font-family="Helvetica,sans-Serif" font-size="11.00" fill="#000000">opstelplaats_locatie</text>
<polygon fill="none" stroke="#000000" points="331,-499.2 331,-521.2 450,-521.2 450,-499.2 331,-499.2"/>
<text text-anchor="start" x="334" y="-506.9" font-family="Helvetica,sans-Serif" font-size="11.00" fill="#000000">text[2147483647]</text>
<polygon fill="none" stroke="#000000" points="166,-477.2 166,-499.2 331,-499.2 331,-477.2 166,-477.2"/>
<text text-anchor="start" x="186" y="-484.3" font-family="Helvetica,sans-Serif" font-size="11.00" fill="#000000">markering</text>
<polygon fill="none" stroke="#000000" points="331,-477.2 331,-499.2 450,-499.2 450,-477.2 331,-477.2"/>
<text text-anchor="start" x="334" y="-484.9" font-family="Helvetica,sans-Serif" font-size="11.00" fill="#000000">text[2147483647]</text>
<polygon fill="none" stroke="#000000" points="166,-455.2 166,-477.2 331,-477.2 331,-455.2 166,-455.2"/>
<text text-anchor="start" x="186" y="-462.3" font-family="Helvetica,sans-Serif" font-size="11.00" fill="#000000">toegang</text>
<polygon fill="none" stroke="#000000" points="331,-455.2 331,-477.2 450,-477.2 450,-455.2 331,-455.2"/>
<text text-anchor="start" x="334" y="-462.9" font-family="Helvetica,sans-Serif" font-size="11.00" fill="#000000">text[2147483647]</text>
<polygon fill="none" stroke="#000000" points="166,-433.2 166,-455.2 331,-455.2 331,-433.2 166,-433.2"/>
<text text-anchor="start" x="186" y="-440.3" font-family="Helvetica,sans-Serif" font-size="11.00" fill="#000000">putdeksel_locatie</text>
<polygon fill="none" stroke="#000000" points="331,-433.2 331,-455.2 450,-455.2 450,-433.2 331,-433.2"/>
<text text-anchor="start" x="334" y="-440.9" font-family="Helvetica,sans-Serif" font-size="11.00" fill="#000000">text[2147483647]</text>
<polygon fill="none" stroke="#000000" points="166,-411.2 166,-433.2 331,-433.2 331,-411.2 166,-411.2"/>
<text text-anchor="start" x="186" y="-418.3" font-family="Helvetica,sans-Serif" font-size="11.00" fill="#000000">putdeksel_waterdiepte</text>
<polygon fill="none" stroke="#000000" points="331,-411.2 331,-433.2 450,-433.2 450,-411.2 331,-411.2"/>
<text text-anchor="start" x="334" y="-418.9" font-family="Helvetica,sans-Serif" font-size="11.00" fill="#000000">numeric[0]</text>
<polygon fill="none" stroke="#000000" points="166,-389.2 166,-411.2 331,-411.2 331,-389.2 166,-389.2"/>
<text text-anchor="start" x="186" y="-396.3" font-family="Helvetica,sans-Serif" font-size="11.00" fill="#000000">verzonken</text>
<polygon fill="none" stroke="#000000" points="331,-389.2 331,-411.2 450,-411.2 450,-389.2 331,-389.2"/>
<text text-anchor="start" x="334" y="-396.9" font-family="Helvetica,sans-Serif" font-size="11.00" fill="#000000">bool[1]</text>
<polygon fill="none" stroke="#000000" points="166,-367.2 166,-389.2 331,-389.2 331,-367.2 166,-367.2"/>
<text text-anchor="start" x="186" y="-374.3" font-family="Helvetica,sans-Serif" font-size="11.00" fill="#000000">diameter_leiding</text>
<polygon fill="none" stroke="#000000" points="331,-367.2 331,-389.2 450,-389.2 450,-367.2 331,-367.2"/>
<text text-anchor="start" x="334" y="-374.9" font-family="Helvetica,sans-Serif" font-size="11.00" fill="#000000">numeric[0]</text>
<polygon fill="none" stroke="#000000" points="166,-345.2 166,-367.2 331,-367.2 331,-345.2 166,-345.2"/>
<text text-anchor="start" x="186" y="-352.3" font-family="Helvetica,sans-Serif" font-size="11.00" fill="#000000">inspecteur</text>
<polygon fill="none" stroke="#000000" points="331,-345.2 331,-367.2 450,-367.2 450,-345.2 331,-345.2"/>
<text text-anchor="start" x="334" y="-352.9" font-family="Helvetica,sans-Serif" font-size="11.00" fill="#000000">text[2147483647]</text>
<polygon fill="none" stroke="#000000" points="166,-323.2 166,-345.2 331,-345.2 331,-323.2 166,-323.2"/>
<text text-anchor="start" x="186" y="-330.3" font-family="Helvetica,sans-Serif" font-size="11.00" fill="#000000">inspectie_datum</text>
<polygon fill="none" stroke="#000000" points="331,-323.2 331,-345.2 450,-345.2 450,-323.2 331,-323.2"/>
<text text-anchor="start" x="334" y="-330.9" font-family="Helvetica,sans-Serif" font-size="11.00" fill="#000000">date[13]</text>
<polygon fill="none" stroke="#000000" points="166,-301.2 166,-323.2 331,-323.2 331,-301.2 166,-301.2"/>
<image xlink:href="../../images/foreignKeys.png" width="11px" height="12px" preserveAspectRatio="xMinYMin meet" x="171" y="-318.2"/>
<text text-anchor="start" x="186" y="-308.3" font-family="Helvetica,sans-Serif" font-size="11.00" fill="#000000">inspectie_conditie_id</text>
<polygon fill="none" stroke="#000000" points="331,-301.2 331,-323.2 450,-323.2 450,-301.2 331,-301.2"/>
<text text-anchor="start" x="334" y="-308.9" font-family="Helvetica,sans-Serif" font-size="11.00" fill="#000000">int2[5]</text>
<polygon fill="none" stroke="#000000" points="166,-279.2 166,-301.2 331,-301.2 331,-279.2 166,-279.2"/>
<text text-anchor="start" x="186" y="-286.3" font-family="Helvetica,sans-Serif" font-size="11.00" fill="#000000">inspectie_opmerking</text>
<polygon fill="none" stroke="#000000" points="331,-279.2 331,-301.2 450,-301.2 450,-279.2 331,-279.2"/>
<text text-anchor="start" x="334" y="-286.9" font-family="Helvetica,sans-Serif" font-size="11.00" fill="#000000">text[2147483647]</text>
<polygon fill="none" stroke="#000000" points="166,-257.2 166,-279.2 331,-279.2 331,-257.2 166,-257.2"/>
<text text-anchor="start" x="186" y="-264.3" font-family="Helvetica,sans-Serif" font-size="11.00" fill="#000000">inspectie_plusinfo</text>
<polygon fill="none" stroke="#000000" points="331,-257.2 331,-279.2 450,-279.2 450,-257.2 331,-257.2"/>
<text text-anchor="start" x="334" y="-264.9" font-family="Helvetica,sans-Serif" font-size="11.00" fill="#000000">jsonb[2147483647]</text>
<polygon fill="none" stroke="#000000" points="166,-235.2 166,-257.2 331,-257.2 331,-235.2 166,-235.2"/>
<text text-anchor="start" x="186" y="-242.3" font-family="Helvetica,sans-Serif" font-size="11.00" fill="#000000">inspectie_opstelplaats</text>
<polygon fill="none" stroke="#000000" points="331,-235.2 331,-257.2 450,-257.2 450,-235.2 331,-235.2"/>
<text text-anchor="start" x="334" y="-242.9" font-family="Helvetica,sans-Serif" font-size="11.00" fill="#000000">text[2147483647]</text>
<polygon fill="none" stroke="#000000" points="166,-213.2 166,-235.2 331,-235.2 331,-213.2 166,-213.2"/>
<text text-anchor="start" x="186" y="-220.3" font-family="Helvetica,sans-Serif" font-size="11.00" fill="#000000">inspectie_reiniging</text>
<polygon fill="none" stroke="#000000" points="331,-213.2 331,-235.2 450,-235.2 450,-213.2 331,-213.2"/>
<text text-anchor="start" x="334" y="-220.9" font-family="Helvetica,sans-Serif" font-size="11.00" fill="#000000">date[13]</text>
<polygon fill="none" stroke="#000000" points="166,-191.2 166,-213.2 331,-213.2 331,-191.2 166,-191.2"/>
<text text-anchor="start" x="186" y="-198.3" font-family="Helvetica,sans-Serif" font-size="11.00" fill="#000000">inspectie_locatie</text>
<polygon fill="none" stroke="#000000" points="331,-191.2 331,-213.2 450,-213.2 450,-191.2 331,-191.2"/>
<text text-anchor="start" x="334" y="-198.9" font-family="Helvetica,sans-Serif" font-size="11.00" fill="#000000">text[2147483647]</text>
<polygon fill="none" stroke="#000000" points="166,-169.2 166,-191.2 331,-191.2 331,-169.2 166,-169.2"/>
<text text-anchor="start" x="186" y="-176.3" font-family="Helvetica,sans-Serif" font-size="11.00" fill="#000000">inspectie_markering</text>
<polygon fill="none" stroke="#000000" points="331,-169.2 331,-191.2 450,-191.2 450,-169.2 331,-169.2"/>
<text text-anchor="start" x="334" y="-176.9" font-family="Helvetica,sans-Serif" font-size="11.00" fill="#000000">text[2147483647]</text>
<polygon fill="none" stroke="#000000" points="166,-147.2 166,-169.2 331,-169.2 331,-147.2 166,-147.2"/>
<text text-anchor="start" x="186" y="-154.3" font-family="Helvetica,sans-Serif" font-size="11.00" fill="#000000">inspectie_beplanting</text>
<polygon fill="none" stroke="#000000" points="331,-147.2 331,-169.2 450,-169.2 450,-147.2 331,-147.2"/>
<text text-anchor="start" x="334" y="-154.9" font-family="Helvetica,sans-Serif" font-size="11.00" fill="#000000">text[2147483647]</text>
<polygon fill="none" stroke="#000000" points="166,-125.2 166,-147.2 331,-147.2 331,-125.2 166,-125.2"/>
<text text-anchor="start" x="186" y="-132.3" font-family="Helvetica,sans-Serif" font-size="11.00" fill="#000000">inspectie_obstakels</text>
<polygon fill="none" stroke="#000000" points="331,-125.2 331,-147.2 450,-147.2 450,-125.2 331,-125.2"/>
<text text-anchor="start" x="334" y="-132.9" font-family="Helvetica,sans-Serif" font-size="11.00" fill="#000000">text[2147483647]</text>
<polygon fill="none" stroke="#000000" points="166,-103.2 166,-125.2 331,-125.2 331,-103.2 166,-103.2"/>
<text text-anchor="start" x="186" y="-110.3" font-family="Helvetica,sans-Serif" font-size="11.00" fill="#000000">inspectie_bereikbaarheid</text>
<polygon fill="none" stroke="#000000" points="331,-103.2 331,-125.2 450,-125.2 450,-103.2 331,-103.2"/>
<text text-anchor="start" x="334" y="-110.9" font-family="Helvetica,sans-Serif" font-size="11.00" fill="#000000">text[2147483647]</text>
<polygon fill="none" stroke="#000000" points="166,-81.2 166,-103.2 331,-103.2 331,-81.2 166,-81.2"/>
<text text-anchor="start" x="186" y="-88.3" font-family="Helvetica,sans-Serif" font-size="11.00" fill="#000000">inspectie_waterdiepte</text>
<polygon fill="none" stroke="#000000" points="331,-81.2 331,-103.2 450,-103.2 450,-81.2 331,-81.2"/>
<text text-anchor="start" x="334" y="-88.9" font-family="Helvetica,sans-Serif" font-size="11.00" fill="#000000">text[2147483647]</text>
<polygon fill="none" stroke="#000000" points="166,-59.2 166,-81.2 331,-81.2 331,-59.2 166,-59.2"/>
<text text-anchor="start" x="186" y="-66.3" font-family="Helvetica,sans-Serif" font-size="11.00" fill="#000000">inspectie_bluswater</text>
<polygon fill="none" stroke="#000000" points="331,-59.2 331,-81.2 450,-81.2 450,-59.2 331,-59.2"/>
<text text-anchor="start" x="334" y="-66.9" font-family="Helvetica,sans-Serif" font-size="11.00" fill="#000000">text[2147483647]</text>
<polygon fill="#ffffff" stroke="transparent" points="166,-40.2 166,-59.2 253,-59.2 253,-40.2 166,-40.2"/>
<polygon fill="none" stroke="#000000" points="166,-40.2 166,-59.2 253,-59.2 253,-40.2 166,-40.2"/>
<text text-anchor="start" x="169" y="-46.3" font-family="Helvetica,sans-Serif" font-size="11.00" fill="#000000">&lt; 4</text>
<polygon fill="#ffffff" stroke="transparent" points="253,-40.2 253,-59.2 331,-59.2 331,-40.2 253,-40.2"/>
<polygon fill="none" stroke="#000000" points="253,-40.2 253,-59.2 331,-59.2 331,-40.2 253,-40.2"/>
<text text-anchor="start" x="321.8862" y="-46.3" font-family="Helvetica,sans-Serif" font-size="11.00" fill="#000000"> &#160;</text>
<polygon fill="#ffffff" stroke="transparent" points="331,-40.2 331,-59.2 450,-59.2 450,-40.2 331,-40.2"/>
<polygon fill="none" stroke="#000000" points="331,-40.2 331,-59.2 450,-59.2 450,-40.2 331,-40.2"/>
<text text-anchor="start" x="431.4053" y="-46.3" font-family="Helvetica,sans-Serif" font-size="11.00" fill="#000000">0 &gt;</text>
<polygon fill="none" stroke="#000000" stroke-width="2" points="165,-39.2 165,-963.2 451,-963.2 451,-39.2 165,-39.2"/>
</a>
</g>
</g>
<!-- roi.fase -->
<g id="node2" class="node">
<title>roi.fase</title>
<g id="a_node2"><a xlink:href="../../../roi/tables/fase.html" xlink:title="roi.fase" target="_top">
<polygon fill="#ffffff" stroke="transparent" points="21,-627.7 21,-688.7 102,-688.7 102,-627.7 21,-627.7"/>
<polygon fill="#f5f5f5" stroke="transparent" points="21.5,-665.2 21.5,-688.2 102.5,-688.2 102.5,-665.2 21.5,-665.2"/>
<polygon fill="none" stroke="#000000" points="21.5,-665.2 21.5,-688.2 102.5,-688.2 102.5,-665.2 21.5,-665.2"/>
<text text-anchor="start" x="26.5" y="-673.8" font-family="Helvetica,sans-Serif" font-weight="bold" font-size="11.00" fill="#000000">roi.fase</text>
<text text-anchor="start" x="68.0219" y="-673.3" font-family="Helvetica,sans-Serif" font-size="11.00" fill="#000000">[table]</text>
<polygon fill="none" stroke="#000000" points="21.5,-646.2 21.5,-665.2 102.5,-665.2 102.5,-646.2 21.5,-646.2"/>
<text text-anchor="start" x="24.5" y="-652.3" font-family="Helvetica,sans-Serif" font-size="11.00" fill="#000000">...</text>
<polygon fill="#ffffff" stroke="transparent" points="21.5,-627.2 21.5,-646.2 51.5,-646.2 51.5,-627.2 21.5,-627.2"/>
<polygon fill="none" stroke="#000000" points="21.5,-627.2 21.5,-646.2 51.5,-646.2 51.5,-627.2 21.5,-627.2"/>
<text text-anchor="start" x="24.5" y="-633.3" font-family="Helvetica,sans-Serif" font-size="11.00" fill="#000000"> &#160;</text>
<polygon fill="#ffffff" stroke="transparent" points="51.5,-627.2 51.5,-646.2 72.5,-646.2 72.5,-627.2 51.5,-627.2"/>
<polygon fill="none" stroke="#000000" points="51.5,-627.2 51.5,-646.2 72.5,-646.2 72.5,-627.2 51.5,-627.2"/>
<text text-anchor="start" x="63.3862" y="-633.3" font-family="Helvetica,sans-Serif" font-size="11.00" fill="#000000"> &#160;</text>
<polygon fill="#ffffff" stroke="transparent" points="72.5,-627.2 72.5,-646.2 102.5,-646.2 102.5,-627.2 72.5,-627.2"/>
<polygon fill="none" stroke="#000000" points="72.5,-627.2 72.5,-646.2 102.5,-646.2 102.5,-627.2 72.5,-627.2"/>
<text text-anchor="start" x="83.9053" y="-633.3" font-family="Helvetica,sans-Serif" font-size="11.00" fill="#000000">5 &gt;</text>
</a>
</g>
</g>
<!-- bluswaterriool&#45;&gt;roi.fase -->
<g id="edge1" class="edge">
<title>bluswaterriool:w&#45;&gt;roi.fase:e</title>
<path fill="none" stroke="#000000" d="M152.1992,-603.3326C141.0622,-608.8275 125.3701,-618.018 110.1636,-627.3212"/>
<polygon fill="#000000" stroke="#000000" points="158.5018,-600.9887 167.2549,-601.5742 162.2509,-599.5943 166,-598.2 166,-598.2 166,-598.2 162.2509,-599.5943 164.7451,-594.8258 158.5018,-600.9887 158.5018,-600.9887"/>
<ellipse fill="none" stroke="#000000" cx="155.5025" cy="-602.1041" rx="3.2" ry="3.2"/>
</g>
<!-- gebied -->
<g id="node3" class="node">
<title>gebied</title>
<g id="a_node3"><a xlink:href="../../tables/gebied.html" xlink:title="gebied" target="_top">
<polygon fill="#ffffff" stroke="transparent" points="14,-441.7 14,-524.7 109,-524.7 109,-441.7 14,-441.7"/>
<polygon fill="#f5f5f5" stroke="transparent" points="14.5,-501.2 14.5,-524.2 109.5,-524.2 109.5,-501.2 14.5,-501.2"/>
<polygon fill="none" stroke="#000000" points="14.5,-501.2 14.5,-524.2 109.5,-524.2 109.5,-501.2 14.5,-501.2"/>
<text text-anchor="start" x="19.5" y="-509.8" font-family="Helvetica,sans-Serif" font-weight="bold" font-size="11.00" fill="#000000">gebied</text>
<text text-anchor="start" x="74.5437" y="-509.3" font-family="Helvetica,sans-Serif" font-size="11.00" fill="#000000">[table]</text>
<polygon fill="none" stroke="#000000" points="14.5,-479.2 14.5,-501.2 109.5,-501.2 109.5,-479.2 14.5,-479.2"/>
<image xlink:href="../../images/primaryKeys.png" width="11px" height="12px" preserveAspectRatio="xMinYMin meet" x="19.5" y="-496.2"/>
<text text-anchor="start" x="34.5" y="-486.3" font-family="Helvetica,sans-Serif" font-size="11.00" fill="#000000">id</text>
<polygon fill="none" stroke="#000000" points="14.5,-460.2 14.5,-479.2 109.5,-479.2 109.5,-460.2 14.5,-460.2"/>
<text text-anchor="start" x="17.5" y="-466.3" font-family="Helvetica,sans-Serif" font-size="11.00" fill="#000000">...</text>
<polygon fill="#ffffff" stroke="transparent" points="14.5,-441.2 14.5,-460.2 51.5,-460.2 51.5,-441.2 14.5,-441.2"/>
<polygon fill="none" stroke="#000000" points="14.5,-441.2 14.5,-460.2 51.5,-460.2 51.5,-441.2 14.5,-441.2"/>
<text text-anchor="start" x="17.5" y="-447.3" font-family="Helvetica,sans-Serif" font-size="11.00" fill="#000000"> &#160;</text>
<polygon fill="#ffffff" stroke="transparent" points="51.5,-441.2 51.5,-460.2 75.5,-460.2 75.5,-441.2 51.5,-441.2"/>
<polygon fill="none" stroke="#000000" points="51.5,-441.2 51.5,-460.2 75.5,-460.2 75.5,-441.2 51.5,-441.2"/>
<text text-anchor="start" x="66.3862" y="-447.3" font-family="Helvetica,sans-Serif" font-size="11.00" fill="#000000"> &#160;</text>
<polygon fill="#ffffff" stroke="transparent" points="75.5,-441.2 75.5,-460.2 109.5,-460.2 109.5,-441.2 75.5,-441.2"/>
<polygon fill="none" stroke="#000000" points="75.5,-441.2 75.5,-460.2 109.5,-460.2 109.5,-441.2 75.5,-441.2"/>
<text text-anchor="start" x="90.9053" y="-447.3" font-family="Helvetica,sans-Serif" font-size="11.00" fill="#000000">5 &gt;</text>
</a>
</g>
</g>
<!-- bluswaterriool&#45;&gt;gebied -->
<g id="edge2" class="edge">
<title>bluswaterriool:w&#45;&gt;gebied:e</title>
<path fill="none" stroke="#000000" d="M151.9758,-550.0008C132.7156,-535.7625 141.5142,-490.2 109.5,-490.2"/>
<polygon fill="#000000" stroke="#000000" points="158.3362,-551.9052 164.9673,-557.6487 162.1681,-553.0526 166,-554.2 166,-554.2 166,-554.2 162.1681,-553.0526 167.0327,-550.7513 158.3362,-551.9052 158.3362,-551.9052"/>
<ellipse fill="none" stroke="#000000" cx="155.2707" cy="-550.9873" rx="3.2" ry="3.2"/>
</g>
<!-- conditie -->
<g id="node4" class="node">
<title>conditie</title>
<g id="a_node4"><a xlink:href="../../tables/conditie.html" xlink:title="conditie" target="_top">
<polygon fill="#ffffff" stroke="transparent" points="14,-263.7 14,-346.7 109,-346.7 109,-263.7 14,-263.7"/>
<polygon fill="#f5f5f5" stroke="transparent" points="14.5,-323.2 14.5,-346.2 109.5,-346.2 109.5,-323.2 14.5,-323.2"/>
<polygon fill="none" stroke="#000000" points="14.5,-323.2 14.5,-346.2 109.5,-346.2 109.5,-323.2 14.5,-323.2"/>
<text text-anchor="start" x="19.5" y="-331.8" font-family="Helvetica,sans-Serif" font-weight="bold" font-size="11.00" fill="#000000">conditie</text>
<text text-anchor="start" x="74.5437" y="-331.3" font-family="Helvetica,sans-Serif" font-size="11.00" fill="#000000">[table]</text>
<polygon fill="none" stroke="#000000" points="14.5,-301.2 14.5,-323.2 109.5,-323.2 109.5,-301.2 14.5,-301.2"/>
<image xlink:href="../../images/primaryKeys.png" width="11px" height="12px" preserveAspectRatio="xMinYMin meet" x="19.5" y="-318.2"/>
<text text-anchor="start" x="34.5" y="-308.3" font-family="Helvetica,sans-Serif" font-size="11.00" fill="#000000">id</text>
<polygon fill="none" stroke="#000000" points="14.5,-282.2 14.5,-301.2 109.5,-301.2 109.5,-282.2 14.5,-282.2"/>
<text text-anchor="start" x="17.5" y="-288.3" font-family="Helvetica,sans-Serif" font-size="11.00" fill="#000000">...</text>
<polygon fill="#ffffff" stroke="transparent" points="14.5,-263.2 14.5,-282.2 51.5,-282.2 51.5,-263.2 14.5,-263.2"/>
<polygon fill="none" stroke="#000000" points="14.5,-263.2 14.5,-282.2 51.5,-282.2 51.5,-263.2 14.5,-263.2"/>
<text text-anchor="start" x="17.5" y="-269.3" font-family="Helvetica,sans-Serif" font-size="11.00" fill="#000000"> &#160;</text>
<polygon fill="#ffffff" stroke="transparent" points="51.5,-263.2 51.5,-282.2 75.5,-282.2 75.5,-263.2 51.5,-263.2"/>
<polygon fill="none" stroke="#000000" points="51.5,-263.2 51.5,-282.2 75.5,-282.2 75.5,-263.2 51.5,-263.2"/>
<text text-anchor="start" x="66.3862" y="-269.3" font-family="Helvetica,sans-Serif" font-size="11.00" fill="#000000"> &#160;</text>
<polygon fill="#ffffff" stroke="transparent" points="75.5,-263.2 75.5,-282.2 109.5,-282.2 109.5,-263.2 75.5,-263.2"/>
<polygon fill="none" stroke="#000000" points="75.5,-263.2 75.5,-282.2 109.5,-282.2 109.5,-263.2 75.5,-263.2"/>
<text text-anchor="start" x="90.9053" y="-269.3" font-family="Helvetica,sans-Serif" font-size="11.00" fill="#000000">5 &gt;</text>
</a>
</g>
</g>
<!-- bluswaterriool&#45;&gt;conditie -->
<g id="edge3" class="edge">
<title>bluswaterriool:w&#45;&gt;conditie:e</title>
<path fill="none" stroke="#000000" d="M151.3944,-312.2C137.0775,-312.2 128.9219,-312.2 109.5,-312.2"/>
<polygon fill="#000000" stroke="#000000" points="158,-312.2001 166,-315.8 162,-312.2 166,-312.2 166,-312.2 166,-312.2 162,-312.2 166,-308.6 158,-312.2001 158,-312.2001"/>
<ellipse fill="none" stroke="#000000" cx="154.8" cy="-312.2001" rx="3.2" ry="3.2"/>
</g>
<!-- roi.symbool -->
<g id="node5" class="node">
<title>roi.symbool</title>
<g id="a_node5"><a xlink:href="../../../roi/tables/symbool.html" xlink:title="roi.symbool" target="_top">
<polygon fill="#ffffff" stroke="transparent" points="8,-545.7 8,-606.7 115,-606.7 115,-545.7 8,-545.7"/>
<polygon fill="#f5f5f5" stroke="transparent" points="8.5,-583.2 8.5,-606.2 115.5,-606.2 115.5,-583.2 8.5,-583.2"/>
<polygon fill="none" stroke="#000000" points="8.5,-583.2 8.5,-606.2 115.5,-606.2 115.5,-583.2 8.5,-583.2"/>
<text text-anchor="start" x="13.5" y="-591.8" font-family="Helvetica,sans-Serif" font-weight="bold" font-size="11.00" fill="#000000">roi.symbool</text>
<text text-anchor="start" x="81.0219" y="-591.3" font-family="Helvetica,sans-Serif" font-size="11.00" fill="#000000">[table]</text>
<polygon fill="none" stroke="#000000" points="8.5,-564.2 8.5,-583.2 115.5,-583.2 115.5,-564.2 8.5,-564.2"/>
<text text-anchor="start" x="11.5" y="-570.3" font-family="Helvetica,sans-Serif" font-size="11.00" fill="#000000">...</text>
<polygon fill="#ffffff" stroke="transparent" points="8.5,-545.2 8.5,-564.2 51.5,-564.2 51.5,-545.2 8.5,-545.2"/>
<polygon fill="none" stroke="#000000" points="8.5,-545.2 8.5,-564.2 51.5,-564.2 51.5,-545.2 8.5,-545.2"/>
<text text-anchor="start" x="11.5" y="-551.3" font-family="Helvetica,sans-Serif" font-size="11.00" fill="#000000"> &#160;</text>
<polygon fill="#ffffff" stroke="transparent" points="51.5,-545.2 51.5,-564.2 78.5,-564.2 78.5,-545.2 51.5,-545.2"/>
<polygon fill="none" stroke="#000000" points="51.5,-545.2 51.5,-564.2 78.5,-564.2 78.5,-545.2 51.5,-545.2"/>
<text text-anchor="start" x="69.3862" y="-551.3" font-family="Helvetica,sans-Serif" font-size="11.00" fill="#000000"> &#160;</text>
<polygon fill="#ffffff" stroke="transparent" points="78.5,-545.2 78.5,-564.2 115.5,-564.2 115.5,-545.2 78.5,-545.2"/>
<polygon fill="none" stroke="#000000" points="78.5,-545.2 78.5,-564.2 115.5,-564.2 115.5,-545.2 78.5,-545.2"/>
<text text-anchor="start" x="96.9053" y="-551.3" font-family="Helvetica,sans-Serif" font-size="11.00" fill="#000000">6 &gt;</text>
</a>
</g>
</g>
<!-- bluswaterriool&#45;&gt;roi.symbool -->
<g id="edge4" class="edge">
<title>bluswaterriool:w&#45;&gt;roi.symbool:e</title>
<path fill="none" stroke="#000000" d="M151.3953,-576.2C141.9637,-576.2 132.3607,-576.2 123.1118,-576.2"/>
<polygon fill="#000000" stroke="#000000" points="158,-576.2001 166,-579.8 162,-576.2 166,-576.2 166,-576.2 166,-576.2 162,-576.2 166,-572.6 158,-576.2001 158,-576.2001"/>
<ellipse fill="none" stroke="#000000" cx="154.8" cy="-576.2001" rx="3.2" ry="3.2"/>
</g>
</g>
</svg>
