<?xml version="1.0" encoding="UTF-8" standalone="no"?>
<!DOCTYPE svg PUBLIC "-//W3C//DTD SVG 1.1//EN"
 "http://www.w3.org/Graphics/SVG/1.1/DTD/svg11.dtd">
<!-- Generated by graphviz version 2.50.0 (0)
 -->
<!-- Title: twoDegreesRelationshipsDiagram Pages: 1 -->
<svg width="509pt" height="1289pt"
 viewBox="0.00 0.00 509.00 1289.00" xmlns="http://www.w3.org/2000/svg" xmlns:xlink="http://www.w3.org/1999/xlink">
<g id="graph0" class="graph" transform="scale(1 1) rotate(0) translate(4 1285)">
<title>twoDegreesRelationshipsDiagram</title>
<polygon fill="#ffffff" stroke="transparent" points="-4,4 -4,-1285 505,-1285 505,4 -4,4"/>
<text text-anchor="middle" x="79.5" y="-7.2" font-family="Helvetica,sans-Serif" font-size="11.00">Generated by SchemaSpy</text>
<!-- bluswaterriool -->
<g id="node1" class="node">
<title>bluswaterriool</title>
<g id="a_node1"><a xlink:href="../../tables/bluswaterriool.html" xlink:title="bluswaterriool" target="_top">
<polygon fill="#ffffff" stroke="transparent" points="181,-274 181,-1198 493,-1198 493,-274 181,-274"/>
<polygon fill="#f5f5f5" stroke="transparent" points="183,-1174 183,-1196 491,-1196 491,-1174 183,-1174"/>
<polygon fill="none" stroke="black" points="183,-1174 183,-1196 491,-1196 491,-1174 183,-1174"/>
<text text-anchor="start" x="188" y="-1183.2" font-family="Helvetica,sans-Serif" font-weight="bold" font-size="11.00">bluswaterriool</text>
<text text-anchor="start" x="449" y="-1182.2" font-family="Helvetica,sans-Serif" font-size="11.00">[table]</text>
<polygon fill="none" stroke="black" points="183,-1152 183,-1174 355,-1174 355,-1152 183,-1152"/>
<image xlink:href="../../images/primaryKeys.png" width="11px" height="12px" preserveAspectRatio="xMinYMin meet" x="188" y="-1169"/>
<text text-anchor="start" x="203" y="-1160.2" font-family="Helvetica,sans-Serif" font-size="11.00">uuid</text>
<polygon fill="none" stroke="black" points="355,-1152 355,-1174 491,-1174 491,-1152 355,-1152"/>
<text text-anchor="start" x="358" y="-1160.2" font-family="Helvetica,sans-Serif" font-size="11.00">uuid[2147483647]</text>
<polygon fill="#ffffff" stroke="transparent" points="183,-1130 183,-1152 355,-1152 355,-1130 183,-1130"/>
<polygon fill="none" stroke="black" points="183,-1130 183,-1152 355,-1152 355,-1130 183,-1130"/>
<text text-anchor="start" x="203" y="-1138.2" font-family="Helvetica,sans-Serif" font-size="11.00">geom</text>
<polygon fill="none" stroke="black" points="355,-1130 355,-1152 491,-1152 491,-1130 355,-1130"/>
<text text-anchor="start" x="358" y="-1138.2" font-family="Helvetica,sans-Serif" font-size="11.00">geometry[2147483647]</text>
<polygon fill="none" stroke="black" points="183,-1108 183,-1130 355,-1130 355,-1108 183,-1108"/>
<text text-anchor="start" x="203" y="-1116.2" font-family="Helvetica,sans-Serif" font-size="11.00">datumtijd</text>
<polygon fill="none" stroke="black" points="355,-1108 355,-1130 491,-1130 491,-1108 355,-1108"/>
<text text-anchor="start" x="358" y="-1116.2" font-family="Helvetica,sans-Serif" font-size="11.00">timestamptz[35,6]</text>
<polygon fill="none" stroke="black" points="183,-1086 183,-1108 355,-1108 355,-1086 183,-1086"/>
<text text-anchor="start" x="203" y="-1094.2" font-family="Helvetica,sans-Serif" font-size="11.00">gebruiker</text>
<polygon fill="none" stroke="black" points="355,-1086 355,-1108 491,-1108 491,-1086 355,-1086"/>
<text text-anchor="start" x="358" y="-1094.2" font-family="Helvetica,sans-Serif" font-size="11.00">varchar[255]</text>
<polygon fill="none" stroke="black" points="183,-1064 183,-1086 355,-1086 355,-1064 183,-1064"/>
<text text-anchor="start" x="203" y="-1072.2" font-family="Helvetica,sans-Serif" font-size="11.00">label</text>
<polygon fill="none" stroke="black" points="355,-1064 355,-1086 491,-1086 491,-1064 355,-1064"/>
<text text-anchor="start" x="358" y="-1072.2" font-family="Helvetica,sans-Serif" font-size="11.00">text[2147483647]</text>
<polygon fill="none" stroke="black" points="183,-1042 183,-1064 355,-1064 355,-1042 183,-1042"/>
<text text-anchor="start" x="203" y="-1050.2" font-family="Helvetica,sans-Serif" font-size="11.00">rotatie</text>
<polygon fill="none" stroke="black" points="355,-1042 355,-1064 491,-1064 491,-1042 355,-1042"/>
<text text-anchor="start" x="358" y="-1050.2" font-family="Helvetica,sans-Serif" font-size="11.00">int4[10]</text>
<polygon fill="none" stroke="black" points="183,-1020 183,-1042 355,-1042 355,-1020 183,-1020"/>
<text text-anchor="start" x="203" y="-1028.2" font-family="Helvetica,sans-Serif" font-size="11.00">bijzonderheden</text>
<polygon fill="none" stroke="black" points="355,-1020 355,-1042 491,-1042 491,-1020 355,-1020"/>
<text text-anchor="start" x="358" y="-1028.2" font-family="Helvetica,sans-Serif" font-size="11.00">text[2147483647]</text>
<polygon fill="none" stroke="black" points="183,-998 183,-1020 355,-1020 355,-998 183,-998"/>
<text text-anchor="start" x="203" y="-1006.2" font-family="Helvetica,sans-Serif" font-size="11.00">plusinfo</text>
<polygon fill="none" stroke="black" points="355,-998 355,-1020 491,-1020 491,-998 355,-998"/>
<text text-anchor="start" x="358" y="-1006.2" font-family="Helvetica,sans-Serif" font-size="11.00">jsonb[2147483647]</text>
<polygon fill="none" stroke="black" points="183,-976 183,-998 355,-998 355,-976 183,-976"/>
<text text-anchor="start" x="203" y="-984.2" font-family="Helvetica,sans-Serif" font-size="11.00">code</text>
<polygon fill="none" stroke="black" points="355,-976 355,-998 491,-998 491,-976 355,-976"/>
<text text-anchor="start" x="358" y="-984.2" font-family="Helvetica,sans-Serif" font-size="11.00">text[2147483647]</text>
<polygon fill="none" stroke="black" points="183,-954 183,-976 355,-976 355,-954 183,-954"/>
<text text-anchor="start" x="203" y="-962.2" font-family="Helvetica,sans-Serif" font-size="11.00">beheerder</text>
<polygon fill="none" stroke="black" points="355,-954 355,-976 491,-976 491,-954 355,-954"/>
<text text-anchor="start" x="358" y="-962.2" font-family="Helvetica,sans-Serif" font-size="11.00">text[2147483647]</text>
<polygon fill="none" stroke="black" points="183,-932 183,-954 355,-954 355,-932 183,-932"/>
<text text-anchor="start" x="203" y="-940.2" font-family="Helvetica,sans-Serif" font-size="11.00">particulier</text>
<polygon fill="none" stroke="black" points="355,-932 355,-954 491,-954 491,-932 355,-932"/>
<text text-anchor="start" x="358" y="-940.2" font-family="Helvetica,sans-Serif" font-size="11.00">text[2147483647]</text>
<polygon fill="none" stroke="black" points="183,-910 183,-932 355,-932 355,-910 183,-910"/>
<text text-anchor="start" x="203" y="-918.2" font-family="Helvetica,sans-Serif" font-size="11.00">adres</text>
<polygon fill="none" stroke="black" points="355,-910 355,-932 491,-932 491,-910 355,-910"/>
<text text-anchor="start" x="358" y="-918.2" font-family="Helvetica,sans-Serif" font-size="11.00">text[2147483647]</text>
<polygon fill="none" stroke="black" points="183,-888 183,-910 355,-910 355,-888 183,-888"/>
<text text-anchor="start" x="203" y="-896.2" font-family="Helvetica,sans-Serif" font-size="11.00">uitsluiten</text>
<polygon fill="none" stroke="black" points="355,-888 355,-910 491,-910 491,-888 355,-888"/>
<text text-anchor="start" x="358" y="-896.2" font-family="Helvetica,sans-Serif" font-size="11.00">bool[1]</text>
<polygon fill="none" stroke="black" points="183,-866 183,-888 355,-888 355,-866 183,-866"/>
<text text-anchor="start" x="203" y="-874.2" font-family="Helvetica,sans-Serif" font-size="11.00">revisie_frequentie</text>
<polygon fill="none" stroke="black" points="355,-866 355,-888 491,-888 491,-866 355,-866"/>
<text text-anchor="start" x="358" y="-874.2" font-family="Helvetica,sans-Serif" font-size="11.00">int2[5]</text>
<polygon fill="none" stroke="black" points="183,-844 183,-866 355,-866 355,-844 183,-844"/>
<image xlink:href="../../images/foreignKeys.png" width="11px" height="12px" preserveAspectRatio="xMinYMin meet" x="188" y="-861"/>
<text text-anchor="start" x="203" y="-852.2" font-family="Helvetica,sans-Serif" font-size="11.00">fase_id</text>
<polygon fill="none" stroke="black" points="355,-844 355,-866 491,-866 491,-844 355,-844"/>
<text text-anchor="start" x="358" y="-852.2" font-family="Helvetica,sans-Serif" font-size="11.00">int2[5]</text>
<polygon fill="none" stroke="black" points="183,-822 183,-844 355,-844 355,-822 183,-822"/>
<image xlink:href="../../images/foreignKeys.png" width="11px" height="12px" preserveAspectRatio="xMinYMin meet" x="188" y="-839"/>
<text text-anchor="start" x="203" y="-830.2" font-family="Helvetica,sans-Serif" font-size="11.00">symbool_id</text>
<polygon fill="none" stroke="black" points="355,-822 355,-844 491,-844 491,-822 355,-822"/>
<text text-anchor="start" x="358" y="-830.2" font-family="Helvetica,sans-Serif" font-size="11.00">int2[5]</text>
<polygon fill="none" stroke="black" points="183,-800 183,-822 355,-822 355,-800 183,-800"/>
<image xlink:href="../../images/foreignKeys.png" width="11px" height="12px" preserveAspectRatio="xMinYMin meet" x="188" y="-817"/>
<text text-anchor="start" x="203" y="-808.2" font-family="Helvetica,sans-Serif" font-size="11.00">gebied_id</text>
<polygon fill="none" stroke="black" points="355,-800 355,-822 491,-822 491,-800 355,-800"/>
<text text-anchor="start" x="358" y="-808.2" font-family="Helvetica,sans-Serif" font-size="11.00">int2[5]</text>
<polygon fill="none" stroke="black" points="183,-778 183,-800 355,-800 355,-778 183,-778"/>
<text text-anchor="start" x="203" y="-786.2" font-family="Helvetica,sans-Serif" font-size="11.00">opstelplaats</text>
<polygon fill="none" stroke="black" points="355,-778 355,-800 491,-800 491,-778 355,-778"/>
<text text-anchor="start" x="358" y="-786.2" font-family="Helvetica,sans-Serif" font-size="11.00">bool[1]</text>
<polygon fill="none" stroke="black" points="183,-756 183,-778 355,-778 355,-756 183,-756"/>
<text text-anchor="start" x="203" y="-764.2" font-family="Helvetica,sans-Serif" font-size="11.00">opstelplaats_locatie</text>
<polygon fill="none" stroke="black" points="355,-756 355,-778 491,-778 491,-756 355,-756"/>
<text text-anchor="start" x="358" y="-764.2" font-family="Helvetica,sans-Serif" font-size="11.00">text[2147483647]</text>
<polygon fill="none" stroke="black" points="183,-734 183,-756 355,-756 355,-734 183,-734"/>
<text text-anchor="start" x="203" y="-742.2" font-family="Helvetica,sans-Serif" font-size="11.00">markering</text>
<polygon fill="none" stroke="black" points="355,-734 355,-756 491,-756 491,-734 355,-734"/>
<text text-anchor="start" x="358" y="-742.2" font-family="Helvetica,sans-Serif" font-size="11.00">text[2147483647]</text>
<polygon fill="none" stroke="black" points="183,-712 183,-734 355,-734 355,-712 183,-712"/>
<text text-anchor="start" x="203" y="-720.2" font-family="Helvetica,sans-Serif" font-size="11.00">toegang</text>
<polygon fill="none" stroke="black" points="355,-712 355,-734 491,-734 491,-712 355,-712"/>
<text text-anchor="start" x="358" y="-720.2" font-family="Helvetica,sans-Serif" font-size="11.00">text[2147483647]</text>
<polygon fill="none" stroke="black" points="183,-690 183,-712 355,-712 355,-690 183,-690"/>
<text text-anchor="start" x="203" y="-698.2" font-family="Helvetica,sans-Serif" font-size="11.00">aanleg</text>
<polygon fill="none" stroke="black" points="355,-690 355,-712 491,-712 491,-690 355,-690"/>
<text text-anchor="start" x="358" y="-698.2" font-family="Helvetica,sans-Serif" font-size="11.00">date[13]</text>
<polygon fill="none" stroke="black" points="183,-668 183,-690 355,-690 355,-668 183,-668"/>
<text text-anchor="start" x="203" y="-676.2" font-family="Helvetica,sans-Serif" font-size="11.00">putdeksel_locatie</text>
<polygon fill="none" stroke="black" points="355,-668 355,-690 491,-690 491,-668 355,-668"/>
<text text-anchor="start" x="358" y="-676.2" font-family="Helvetica,sans-Serif" font-size="11.00">text[2147483647]</text>
<polygon fill="none" stroke="black" points="183,-646 183,-668 355,-668 355,-646 183,-646"/>
<text text-anchor="start" x="203" y="-654.2" font-family="Helvetica,sans-Serif" font-size="11.00">putdeksel_waterdiepte</text>
<polygon fill="none" stroke="black" points="355,-646 355,-668 491,-668 491,-646 355,-646"/>
<text text-anchor="start" x="358" y="-654.2" font-family="Helvetica,sans-Serif" font-size="11.00">numeric[0]</text>
<polygon fill="none" stroke="black" points="183,-624 183,-646 355,-646 355,-624 183,-624"/>
<text text-anchor="start" x="203" y="-632.2" font-family="Helvetica,sans-Serif" font-size="11.00">verzonken</text>
<polygon fill="none" stroke="black" points="355,-624 355,-646 491,-646 491,-624 355,-624"/>
<text text-anchor="start" x="358" y="-632.2" font-family="Helvetica,sans-Serif" font-size="11.00">bool[1]</text>
<polygon fill="none" stroke="black" points="183,-602 183,-624 355,-624 355,-602 183,-602"/>
<text text-anchor="start" x="203" y="-610.2" font-family="Helvetica,sans-Serif" font-size="11.00">diameter_leiding</text>
<polygon fill="none" stroke="black" points="355,-602 355,-624 491,-624 491,-602 355,-602"/>
<text text-anchor="start" x="358" y="-610.2" font-family="Helvetica,sans-Serif" font-size="11.00">numeric[0]</text>
<polygon fill="none" stroke="black" points="183,-580 183,-602 355,-602 355,-580 183,-580"/>
<text text-anchor="start" x="203" y="-588.2" font-family="Helvetica,sans-Serif" font-size="11.00">inspecteur</text>
<polygon fill="none" stroke="black" points="355,-580 355,-602 491,-602 491,-580 355,-580"/>
<text text-anchor="start" x="358" y="-588.2" font-family="Helvetica,sans-Serif" font-size="11.00">text[2147483647]</text>
<polygon fill="none" stroke="black" points="183,-558 183,-580 355,-580 355,-558 183,-558"/>
<text text-anchor="start" x="203" y="-566.2" font-family="Helvetica,sans-Serif" font-size="11.00">inspectie_datum</text>
<polygon fill="none" stroke="black" points="355,-558 355,-580 491,-580 491,-558 355,-558"/>
<text text-anchor="start" x="358" y="-566.2" font-family="Helvetica,sans-Serif" font-size="11.00">date[13]</text>
<polygon fill="none" stroke="black" points="183,-536 183,-558 355,-558 355,-536 183,-536"/>
<image xlink:href="../../images/foreignKeys.png" width="11px" height="12px" preserveAspectRatio="xMinYMin meet" x="188" y="-553"/>
<text text-anchor="start" x="203" y="-544.2" font-family="Helvetica,sans-Serif" font-size="11.00">inspectie_conditie_id</text>
<polygon fill="none" stroke="black" points="355,-536 355,-558 491,-558 491,-536 355,-536"/>
<text text-anchor="start" x="358" y="-544.2" font-family="Helvetica,sans-Serif" font-size="11.00">int2[5]</text>
<polygon fill="none" stroke="black" points="183,-514 183,-536 355,-536 355,-514 183,-514"/>
<text text-anchor="start" x="203" y="-522.2" font-family="Helvetica,sans-Serif" font-size="11.00">inspectie_opmerking</text>
<polygon fill="none" stroke="black" points="355,-514 355,-536 491,-536 491,-514 355,-514"/>
<text text-anchor="start" x="358" y="-522.2" font-family="Helvetica,sans-Serif" font-size="11.00">text[2147483647]</text>
<polygon fill="none" stroke="black" points="183,-492 183,-514 355,-514 355,-492 183,-492"/>
<text text-anchor="start" x="203" y="-500.2" font-family="Helvetica,sans-Serif" font-size="11.00">inspectie_plusinfo</text>
<polygon fill="none" stroke="black" points="355,-492 355,-514 491,-514 491,-492 355,-492"/>
<text text-anchor="start" x="358" y="-500.2" font-family="Helvetica,sans-Serif" font-size="11.00">jsonb[2147483647]</text>
<polygon fill="none" stroke="black" points="183,-470 183,-492 355,-492 355,-470 183,-470"/>
<text text-anchor="start" x="203" y="-478.2" font-family="Helvetica,sans-Serif" font-size="11.00">inspectie_opstelplaats</text>
<polygon fill="none" stroke="black" points="355,-470 355,-492 491,-492 491,-470 355,-470"/>
<text text-anchor="start" x="358" y="-478.2" font-family="Helvetica,sans-Serif" font-size="11.00">text[2147483647]</text>
<polygon fill="none" stroke="black" points="183,-448 183,-470 355,-470 355,-448 183,-448"/>
<text text-anchor="start" x="203" y="-456.2" font-family="Helvetica,sans-Serif" font-size="11.00">inspectie_reiniging</text>
<polygon fill="none" stroke="black" points="355,-448 355,-470 491,-470 491,-448 355,-448"/>
<text text-anchor="start" x="358" y="-456.2" font-family="Helvetica,sans-Serif" font-size="11.00">date[13]</text>
<polygon fill="none" stroke="black" points="183,-426 183,-448 355,-448 355,-426 183,-426"/>
<text text-anchor="start" x="203" y="-434.2" font-family="Helvetica,sans-Serif" font-size="11.00">inspectie_locatie</text>
<polygon fill="none" stroke="black" points="355,-426 355,-448 491,-448 491,-426 355,-426"/>
<text text-anchor="start" x="358" y="-434.2" font-family="Helvetica,sans-Serif" font-size="11.00">text[2147483647]</text>
<polygon fill="none" stroke="black" points="183,-404 183,-426 355,-426 355,-404 183,-404"/>
<text text-anchor="start" x="203" y="-412.2" font-family="Helvetica,sans-Serif" font-size="11.00">inspectie_markering</text>
<polygon fill="none" stroke="black" points="355,-404 355,-426 491,-426 491,-404 355,-404"/>
<text text-anchor="start" x="358" y="-412.2" font-family="Helvetica,sans-Serif" font-size="11.00">text[2147483647]</text>
<polygon fill="none" stroke="black" points="183,-382 183,-404 355,-404 355,-382 183,-382"/>
<text text-anchor="start" x="203" y="-390.2" font-family="Helvetica,sans-Serif" font-size="11.00">inspectie_beplanting</text>
<polygon fill="none" stroke="black" points="355,-382 355,-404 491,-404 491,-382 355,-382"/>
<text text-anchor="start" x="358" y="-390.2" font-family="Helvetica,sans-Serif" font-size="11.00">text[2147483647]</text>
<polygon fill="none" stroke="black" points="183,-360 183,-382 355,-382 355,-360 183,-360"/>
<text text-anchor="start" x="203" y="-368.2" font-family="Helvetica,sans-Serif" font-size="11.00">inspectie_obstakels</text>
<polygon fill="none" stroke="black" points="355,-360 355,-382 491,-382 491,-360 355,-360"/>
<text text-anchor="start" x="358" y="-368.2" font-family="Helvetica,sans-Serif" font-size="11.00">text[2147483647]</text>
<polygon fill="none" stroke="black" points="183,-338 183,-360 355,-360 355,-338 183,-338"/>
<text text-anchor="start" x="203" y="-346.2" font-family="Helvetica,sans-Serif" font-size="11.00">inspectie_bereikbaarheid</text>
<polygon fill="none" stroke="black" points="355,-338 355,-360 491,-360 491,-338 355,-338"/>
<text text-anchor="start" x="358" y="-346.2" font-family="Helvetica,sans-Serif" font-size="11.00">text[2147483647]</text>
<polygon fill="none" stroke="black" points="183,-316 183,-338 355,-338 355,-316 183,-316"/>
<text text-anchor="start" x="203" y="-324.2" font-family="Helvetica,sans-Serif" font-size="11.00">inspectie_waterdiepte</text>
<polygon fill="none" stroke="black" points="355,-316 355,-338 491,-338 491,-316 355,-316"/>
<text text-anchor="start" x="358" y="-324.2" font-family="Helvetica,sans-Serif" font-size="11.00">text[2147483647]</text>
<polygon fill="none" stroke="black" points="183,-294 183,-316 355,-316 355,-294 183,-294"/>
<text text-anchor="start" x="203" y="-302.2" font-family="Helvetica,sans-Serif" font-size="11.00">inspectie_bluswater</text>
<polygon fill="none" stroke="black" points="355,-294 355,-316 491,-316 491,-294 355,-294"/>
<text text-anchor="start" x="358" y="-302.2" font-family="Helvetica,sans-Serif" font-size="11.00">text[2147483647]</text>
<polygon fill="#ffffff" stroke="transparent" points="183,-276 183,-294 275,-294 275,-276 183,-276"/>
<polygon fill="none" stroke="black" points="183,-276 183,-294 275,-294 275,-276 183,-276"/>
<text text-anchor="start" x="186" y="-282.2" font-family="Helvetica,sans-Serif" font-size="11.00">&lt; 4</text>
<polygon fill="#ffffff" stroke="transparent" points="275,-276 275,-294 355,-294 355,-276 275,-276"/>
<polygon fill="none" stroke="black" points="275,-276 275,-294 355,-294 355,-276 275,-276"/>
<text text-anchor="start" x="344" y="-282.2" font-family="Helvetica,sans-Serif" font-size="11.00"> &#160;</text>
<polygon fill="#ffffff" stroke="transparent" points="355,-276 355,-294 491,-294 491,-276 355,-276"/>
<polygon fill="none" stroke="black" points="355,-276 355,-294 491,-294 491,-276 355,-276"/>
<text text-anchor="start" x="468" y="-282.2" font-family="Helvetica,sans-Serif" font-size="11.00">0 &gt;</text>
<polygon fill="none" stroke="black" stroke-width="2" points="182,-275 182,-1197 492,-1197 492,-275 182,-275"/>
</a>
</g>
</g>
<!-- roi.fase -->
<g id="node2" class="node">
<title>roi.fase</title>
<g id="a_node2"><a xlink:href="../../../roi/tables/fase.html" xlink:title="roi.fase" target="_top">
<polygon fill="#ffffff" stroke="transparent" points="20.5,-366 20.5,-424 119.5,-424 119.5,-366 20.5,-366"/>
<polygon fill="#f5f5f5" stroke="transparent" points="21,-402 21,-424 120,-424 120,-402 21,-402"/>
<polygon fill="none" stroke="black" points="21,-402 21,-424 120,-424 120,-402 21,-402"/>
<text text-anchor="start" x="26" y="-411.2" font-family="Helvetica,sans-Serif" font-weight="bold" font-size="11.00">roi.fase</text>
<text text-anchor="start" x="78" y="-410.2" font-family="Helvetica,sans-Serif" font-size="11.00">[table]</text>
<polygon fill="none" stroke="black" points="21,-384 21,-402 120,-402 120,-384 21,-384"/>
<text text-anchor="start" x="24" y="-390.2" font-family="Helvetica,sans-Serif" font-size="11.00">...</text>
<polygon fill="#ffffff" stroke="transparent" points="21,-366 21,-384 57,-384 57,-366 21,-366"/>
<polygon fill="none" stroke="black" points="21,-366 21,-384 57,-384 57,-366 21,-366"/>
<text text-anchor="start" x="24" y="-372.2" font-family="Helvetica,sans-Serif" font-size="11.00"> &#160;</text>
<polygon fill="#ffffff" stroke="transparent" points="57,-366 57,-384 82,-384 82,-366 57,-366"/>
<polygon fill="none" stroke="black" points="57,-366 57,-384 82,-384 82,-366 57,-366"/>
<text text-anchor="start" x="71" y="-372.2" font-family="Helvetica,sans-Serif" font-size="11.00"> &#160;</text>
<polygon fill="#ffffff" stroke="transparent" points="82,-366 82,-384 120,-384 120,-366 82,-366"/>
<polygon fill="none" stroke="black" points="82,-366 82,-384 120,-384 120,-366 82,-366"/>
<text text-anchor="start" x="97" y="-372.2" font-family="Helvetica,sans-Serif" font-size="11.00">5 &gt;</text>
</a>
</g>
</g>
<!-- bluswaterriool&#45;&gt;roi.fase -->
<g id="edge1" class="edge">
<title>bluswaterriool:w&#45;&gt;roi.fase:e</title>
<path fill="none" stroke="black" d="M167.72,-852C92.05,-819.28 75.38,-527.58 71.88,-428.08"/>
<polygon fill="black" stroke="black" points="174.17,-853.36 181.26,-858.52 178.09,-854.18 182,-855 182,-855 182,-855 178.09,-854.18 182.74,-851.48 174.17,-853.36 174.17,-853.36"/>
<ellipse fill="none" stroke="black" cx="171.04" cy="-852.7" rx="3.2" ry="3.2"/>
</g>
<!-- gebied -->
<g id="node3" class="node">
<title>gebied</title>
<g id="a_node3"><a xlink:href="../../tables/gebied.html" xlink:title="gebied" target="_top">
<polygon fill="#ffffff" stroke="transparent" points="21,-186 21,-266 119,-266 119,-186 21,-186"/>
<polygon fill="#f5f5f5" stroke="transparent" points="21,-244 21,-266 119,-266 119,-244 21,-244"/>
<polygon fill="none" stroke="black" points="21,-244 21,-266 119,-266 119,-244 21,-244"/>
<text text-anchor="start" x="26" y="-253.2" font-family="Helvetica,sans-Serif" font-weight="bold" font-size="11.00">gebied</text>
<text text-anchor="start" x="77" y="-252.2" font-family="Helvetica,sans-Serif" font-size="11.00">[table]</text>
<polygon fill="none" stroke="black" points="21,-222 21,-244 119,-244 119,-222 21,-222"/>
<image xlink:href="../../images/primaryKeys.png" width="11px" height="12px" preserveAspectRatio="xMinYMin meet" x="26" y="-239"/>
<text text-anchor="start" x="41" y="-230.2" font-family="Helvetica,sans-Serif" font-size="11.00">id</text>
<polygon fill="none" stroke="black" points="21,-204 21,-222 119,-222 119,-204 21,-204"/>
<text text-anchor="start" x="24" y="-210.2" font-family="Helvetica,sans-Serif" font-size="11.00">...</text>
<polygon fill="#ffffff" stroke="transparent" points="21,-186 21,-204 57,-204 57,-186 21,-186"/>
<polygon fill="none" stroke="black" points="21,-186 21,-204 57,-204 57,-186 21,-186"/>
<text text-anchor="start" x="24" y="-192.2" font-family="Helvetica,sans-Serif" font-size="11.00"> &#160;</text>
<polygon fill="#ffffff" stroke="transparent" points="57,-186 57,-204 82,-204 82,-186 57,-186"/>
<polygon fill="none" stroke="black" points="57,-186 57,-204 82,-204 82,-186 57,-186"/>
<text text-anchor="start" x="71" y="-192.2" font-family="Helvetica,sans-Serif" font-size="11.00"> &#160;</text>
<polygon fill="#ffffff" stroke="transparent" points="82,-186 82,-204 119,-204 119,-186 82,-186"/>
<polygon fill="none" stroke="black" points="82,-186 82,-204 119,-204 119,-186 82,-186"/>
<text text-anchor="start" x="96" y="-192.2" font-family="Helvetica,sans-Serif" font-size="11.00">5 &gt;</text>
</a>
</g>
</g>
<!-- bluswaterriool&#45;&gt;gebied -->
<g id="edge2" class="edge">
<title>bluswaterriool:w&#45;&gt;gebied:e</title>
<path fill="none" stroke="black" d="M169.96,-802.38C126.43,-730.48 179.92,-233 120,-233"/>
<polygon fill="black" stroke="black" points="175.5,-806.34 179.9,-813.93 178.75,-808.67 182,-811 182,-811 182,-811 178.75,-808.67 184.1,-808.07 175.5,-806.34 175.5,-806.34"/>
<ellipse fill="none" stroke="black" cx="172.89" cy="-804.48" rx="3.2" ry="3.2"/>
</g>
<!-- conditie -->
<g id="node4" class="node">
<title>conditie</title>
<g id="a_node4"><a xlink:href="../../tables/conditie.html" xlink:title="conditie" target="_top">
<polygon fill="#ffffff" stroke="transparent" points="19.5,-85 19.5,-165 120.5,-165 120.5,-85 19.5,-85"/>
<polygon fill="#f5f5f5" stroke="transparent" points="20,-143 20,-165 121,-165 121,-143 20,-143"/>
<polygon fill="none" stroke="black" points="20,-143 20,-165 121,-165 121,-143 20,-143"/>
<text text-anchor="start" x="25" y="-152.2" font-family="Helvetica,sans-Serif" font-weight="bold" font-size="11.00">conditie</text>
<text text-anchor="start" x="79" y="-151.2" font-family="Helvetica,sans-Serif" font-size="11.00">[table]</text>
<polygon fill="none" stroke="black" points="20,-121 20,-143 121,-143 121,-121 20,-121"/>
<image xlink:href="../../images/primaryKeys.png" width="11px" height="12px" preserveAspectRatio="xMinYMin meet" x="25" y="-138"/>
<text text-anchor="start" x="42" y="-129.2" font-family="Helvetica,sans-Serif" font-size="11.00">id</text>
<polygon fill="none" stroke="black" points="20,-103 20,-121 121,-121 121,-103 20,-103"/>
<text text-anchor="start" x="23" y="-109.2" font-family="Helvetica,sans-Serif" font-size="11.00">...</text>
<polygon fill="#ffffff" stroke="transparent" points="20,-85 20,-103 57,-103 57,-85 20,-85"/>
<polygon fill="none" stroke="black" points="20,-85 20,-103 57,-103 57,-85 20,-85"/>
<text text-anchor="start" x="23" y="-91.2" font-family="Helvetica,sans-Serif" font-size="11.00"> &#160;</text>
<polygon fill="#ffffff" stroke="transparent" points="57,-85 57,-103 83,-103 83,-85 57,-85"/>
<polygon fill="none" stroke="black" points="57,-85 57,-103 83,-103 83,-85 57,-85"/>
<text text-anchor="start" x="72" y="-91.2" font-family="Helvetica,sans-Serif" font-size="11.00"> &#160;</text>
<polygon fill="#ffffff" stroke="transparent" points="83,-85 83,-103 121,-103 121,-85 83,-85"/>
<polygon fill="none" stroke="black" points="83,-85 83,-103 121,-103 121,-85 83,-85"/>
<text text-anchor="start" x="98" y="-91.2" font-family="Helvetica,sans-Serif" font-size="11.00">5 &gt;</text>
</a>
</g>
</g>
<!-- bluswaterriool&#45;&gt;conditie -->
<g id="edge3" class="edge">
<title>bluswaterriool:w&#45;&gt;conditie:e</title>
<path fill="none" stroke="black" d="M167.79,-542.89C102.87,-499.79 209.72,-132 122,-132"/>
<polygon fill="black" stroke="black" points="174.31,-544.78 181,-550.46 178.16,-545.89 182,-547 182,-547 182,-547 178.16,-545.89 183,-543.54 174.31,-544.78 174.31,-544.78"/>
<ellipse fill="none" stroke="black" cx="171.24" cy="-543.89" rx="3.2" ry="3.2"/>
</g>
<!-- roi.symbool -->
<g id="node5" class="node">
<title>roi.symbool</title>
<g id="a_node5"><a xlink:href="../../../roi/tables/symbool.html" xlink:title="roi.symbool" target="_top">
<polygon fill="#ffffff" stroke="transparent" points="8,-287 8,-345 132,-345 132,-287 8,-287"/>
<polygon fill="#f5f5f5" stroke="transparent" points="8,-323 8,-345 132,-345 132,-323 8,-323"/>
<polygon fill="none" stroke="black" points="8,-323 8,-345 132,-345 132,-323 8,-323"/>
<text text-anchor="start" x="13" y="-332.2" font-family="Helvetica,sans-Serif" font-weight="bold" font-size="11.00">roi.symbool</text>
<text text-anchor="start" x="90" y="-331.2" font-family="Helvetica,sans-Serif" font-size="11.00">[table]</text>
<polygon fill="none" stroke="black" points="8,-305 8,-323 132,-323 132,-305 8,-305"/>
<text text-anchor="start" x="11" y="-311.2" font-family="Helvetica,sans-Serif" font-size="11.00">...</text>
<polygon fill="#ffffff" stroke="transparent" points="8,-287 8,-305 57,-305 57,-287 8,-287"/>
<polygon fill="none" stroke="black" points="8,-287 8,-305 57,-305 57,-287 8,-287"/>
<text text-anchor="start" x="11" y="-293.2" font-family="Helvetica,sans-Serif" font-size="11.00"> &#160;</text>
<polygon fill="#ffffff" stroke="transparent" points="57,-287 57,-305 88,-305 88,-287 57,-287"/>
<polygon fill="none" stroke="black" points="57,-287 57,-305 88,-305 88,-287 57,-287"/>
<text text-anchor="start" x="77" y="-293.2" font-family="Helvetica,sans-Serif" font-size="11.00"> &#160;</text>
<polygon fill="#ffffff" stroke="transparent" points="88,-287 88,-305 132,-305 132,-287 88,-287"/>
<polygon fill="none" stroke="black" points="88,-287 88,-305 132,-305 132,-287 88,-287"/>
<text text-anchor="start" x="109" y="-293.2" font-family="Helvetica,sans-Serif" font-size="11.00">5 &gt;</text>
</a>
</g>
</g>
<!-- bluswaterriool&#45;&gt;roi.symbool -->
<g id="edge4" class="edge">
<title>bluswaterriool:w&#45;&gt;roi.symbool:e</title>
<path fill="none" stroke="black" d="M170.47,-824.34C134.99,-763.15 166.16,-397.12 140,-356 138.44,-353.55 136.67,-351.23 134.74,-349.03"/>
<polygon fill="black" stroke="black" points="175.6,-828.2 179.84,-835.88 178.8,-830.6 182,-833 182,-833 182,-833 178.8,-830.6 184.16,-830.12 175.6,-828.2 175.6,-828.2"/>
<ellipse fill="none" stroke="black" cx="173.04" cy="-826.28" rx="3.2" ry="3.2"/>
</g>
<!-- brandkraan -->
<g id="node6" class="node">
<title>brandkraan</title>
<g id="a_node6"><a xlink:href="../../tables/brandkraan.html" xlink:title="brandkraan" target="_top">
<polygon fill="#ffffff" stroke="transparent" points="276,-195 276,-253 398,-253 398,-195 276,-195"/>
<polygon fill="#f5f5f5" stroke="transparent" points="276,-231 276,-253 398,-253 398,-231 276,-231"/>
<polygon fill="none" stroke="black" points="276,-231 276,-253 398,-253 398,-231 276,-231"/>
<text text-anchor="start" x="281" y="-240.2" font-family="Helvetica,sans-Serif" font-weight="bold" font-size="11.00">brandkraan</text>
<text text-anchor="start" x="356" y="-239.2" font-family="Helvetica,sans-Serif" font-size="11.00">[table]</text>
<polygon fill="none" stroke="black" points="276,-213 276,-231 398,-231 398,-213 276,-213"/>
<text text-anchor="start" x="279" y="-219.2" font-family="Helvetica,sans-Serif" font-size="11.00">...</text>
<polygon fill="#ffffff" stroke="transparent" points="276,-195 276,-213 336,-213 336,-195 276,-195"/>
<polygon fill="none" stroke="black" points="276,-195 276,-213 336,-213 336,-195 276,-195"/>
<text text-anchor="start" x="279" y="-201.2" font-family="Helvetica,sans-Serif" font-size="11.00">&lt; 4</text>
<polygon fill="#ffffff" stroke="transparent" points="336,-195 336,-213 367,-213 367,-195 336,-195"/>
<polygon fill="none" stroke="black" points="336,-195 336,-213 367,-213 367,-195 336,-195"/>
<text text-anchor="start" x="356" y="-201.2" font-family="Helvetica,sans-Serif" font-size="11.00"> &#160;</text>
<polygon fill="#ffffff" stroke="transparent" points="367,-195 367,-213 398,-213 398,-195 367,-195"/>
<polygon fill="none" stroke="black" points="367,-195 367,-213 398,-213 398,-195 367,-195"/>
<text text-anchor="start" x="387" y="-201.2" font-family="Helvetica,sans-Serif" font-size="11.00"> &#160;</text>
</a>
</g>
</g>
<!-- brandkraan&#45;&gt;roi.fase -->
<g id="edge5" class="edge">
<title>brandkraan:w&#45;&gt;roi.fase:e</title>
<path fill="none" stroke="black" d="M260.43,-222.24C221.78,-223.7 203.29,-232.28 173,-264 143,-295.42 168,-322.79 140,-356 136.36,-360.31 132.12,-364.25 127.56,-367.81"/>
<polygon fill="black" stroke="black" points="267,-222.13 275.06,-225.6 271,-222.07 275,-222 275,-222 275,-222 271,-222.07 274.94,-218.4 267,-222.13 267,-222.13"/>
<ellipse fill="none" stroke="black" cx="263.8" cy="-222.19" rx="3.2" ry="3.2"/>
</g>
<!-- brandkraan&#45;&gt;gebied -->
<g id="edge6" class="edge">
<title>brandkraan:w&#45;&gt;gebied:e</title>
<path fill="none" stroke="black" d="M260.44,-222.17C203.15,-223.57 183.94,-233 120,-233"/>
<polygon fill="black" stroke="black" points="267,-222.1 275.04,-225.6 271,-222.05 275,-222 275,-222 275,-222 271,-222.05 274.96,-218.4 267,-222.1 267,-222.1"/>
<ellipse fill="none" stroke="black" cx="263.8" cy="-222.13" rx="3.2" ry="3.2"/>
</g>
<!-- brandkraan&#45;&gt;conditie -->
<g id="edge7" class="edge">
<title>brandkraan:w&#45;&gt;conditie:e</title>
<path fill="none" stroke="black" d="M260.35,-221.61C223.53,-219.47 209.01,-208.4 173,-185 145.59,-167.19 154.69,-132 122,-132"/>
<polygon fill="black" stroke="black" points="267,-221.79 274.9,-225.6 271,-221.89 275,-222 275,-222 275,-222 271,-221.89 275.1,-218.4 267,-221.79 267,-221.79"/>
<ellipse fill="none" stroke="black" cx="263.8" cy="-221.7" rx="3.2" ry="3.2"/>
</g>
<!-- brandkraan&#45;&gt;roi.symbool -->
<g id="edge8" class="edge">
<title>brandkraan:w&#45;&gt;roi.symbool:e</title>
<path fill="none" stroke="black" d="M260.27,-222.74C223.7,-226.69 212.67,-245.76 173,-264 160.27,-269.85 146.81,-276.43 134,-282.88"/>
<polygon fill="black" stroke="black" points="267.01,-222.4 275.18,-225.6 271.01,-222.2 275,-222 275,-222 275,-222 271.01,-222.2 274.82,-218.4 267.01,-222.4 267.01,-222.4"/>
<ellipse fill="none" stroke="black" cx="263.81" cy="-222.56" rx="3.2" ry="3.2"/>
</g>
<!-- brandkraan_prive -->
<g id="node7" class="node">
<title>brandkraan_prive</title>
<g id="a_node7"><a xlink:href="../../tables/brandkraan_prive.html" xlink:title="brandkraan_prive" target="_top">
<polygon fill="#ffffff" stroke="transparent" points="257.5,-116 257.5,-174 416.5,-174 416.5,-116 257.5,-116"/>
<polygon fill="#f5f5f5" stroke="transparent" points="258,-152 258,-174 417,-174 417,-152 258,-152"/>
<polygon fill="none" stroke="black" points="258,-152 258,-174 417,-174 417,-152 258,-152"/>
<text text-anchor="start" x="263" y="-161.2" font-family="Helvetica,sans-Serif" font-weight="bold" font-size="11.00">brandkraan_prive</text>
<text text-anchor="start" x="375" y="-160.2" font-family="Helvetica,sans-Serif" font-size="11.00">[table]</text>
<polygon fill="none" stroke="black" points="258,-134 258,-152 417,-152 417,-134 258,-134"/>
<text text-anchor="start" x="261" y="-140.2" font-family="Helvetica,sans-Serif" font-size="11.00">...</text>
<polygon fill="#ffffff" stroke="transparent" points="258,-116 258,-134 336,-134 336,-116 258,-116"/>
<polygon fill="none" stroke="black" points="258,-116 258,-134 336,-134 336,-116 258,-116"/>
<text text-anchor="start" x="261" y="-122.2" font-family="Helvetica,sans-Serif" font-size="11.00">&lt; 4</text>
<polygon fill="#ffffff" stroke="transparent" points="336,-116 336,-134 376,-134 376,-116 336,-116"/>
<polygon fill="none" stroke="black" points="336,-116 336,-134 376,-134 376,-116 336,-116"/>
<text text-anchor="start" x="365" y="-122.2" font-family="Helvetica,sans-Serif" font-size="11.00"> &#160;</text>
<polygon fill="#ffffff" stroke="transparent" points="376,-116 376,-134 417,-134 417,-116 376,-116"/>
<polygon fill="none" stroke="black" points="376,-116 376,-134 417,-134 417,-116 376,-116"/>
<text text-anchor="start" x="406" y="-122.2" font-family="Helvetica,sans-Serif" font-size="11.00"> &#160;</text>
</a>
</g>
</g>
<!-- brandkraan_prive&#45;&gt;roi.fase -->
<g id="edge9" class="edge">
<title>brandkraan_prive:w&#45;&gt;roi.fase:e</title>
<path fill="none" stroke="black" d="M242.44,-143.44C210.87,-145.57 195.07,-155.9 173,-185 126.23,-246.67 185.19,-293.16 140,-356 136.55,-360.8 132.3,-365.09 127.64,-368.91"/>
<polygon fill="black" stroke="black" points="249,-143.24 257.11,-146.6 253,-143.12 257,-143 257,-143 257,-143 253,-143.12 256.89,-139.4 249,-143.24 249,-143.24"/>
<ellipse fill="none" stroke="black" cx="245.81" cy="-143.34" rx="3.2" ry="3.2"/>
</g>
<!-- brandkraan_prive&#45;&gt;gebied -->
<g id="edge10" class="edge">
<title>brandkraan_prive:w&#45;&gt;gebied:e</title>
<path fill="none" stroke="black" d="M242.42,-143.89C212.8,-147.84 203.01,-164.48 173,-185 146.77,-202.94 151.78,-233 120,-233"/>
<polygon fill="black" stroke="black" points="249.01,-143.49 257.22,-146.59 253.01,-143.24 257,-143 257,-143 257,-143 253.01,-143.24 256.78,-139.41 249.01,-143.49 249.01,-143.49"/>
<ellipse fill="none" stroke="black" cx="245.82" cy="-143.68" rx="3.2" ry="3.2"/>
</g>
<!-- brandkraan_prive&#45;&gt;conditie -->
<g id="edge11" class="edge">
<title>brandkraan_prive:w&#45;&gt;conditie:e</title>
<path fill="none" stroke="black" d="M242.43,-142.77C193.95,-141.19 177.03,-132 122,-132"/>
<polygon fill="black" stroke="black" points="249,-142.87 256.94,-146.6 253,-142.94 257,-143 257,-143 257,-143 253,-142.94 257.06,-139.4 249,-142.87 249,-142.87"/>
<ellipse fill="none" stroke="black" cx="245.8" cy="-142.82" rx="3.2" ry="3.2"/>
</g>
<!-- brandkraan_prive&#45;&gt;roi.symbool -->
<g id="edge12" class="edge">
<title>brandkraan_prive:w&#45;&gt;roi.symbool:e</title>
<path fill="none" stroke="black" d="M242.54,-143.52C211.42,-146.01 197.24,-157.68 173,-185 144.17,-217.49 168,-243.79 140,-277 138.31,-279 136.5,-280.92 134.58,-282.75"/>
<polygon fill="black" stroke="black" points="249.01,-143.29 257.13,-146.6 253,-143.14 257,-143 257,-143 257,-143 253,-143.14 256.87,-139.4 249.01,-143.29 249.01,-143.29"/>
<ellipse fill="none" stroke="black" cx="245.81" cy="-143.41" rx="3.2" ry="3.2"/>
</g>
<!-- brandput -->
<g id="node8" class="node">
<title>brandput</title>
<g id="a_node8"><a xlink:href="../../tables/brandput.html" xlink:title="brandput" target="_top">
<polygon fill="#ffffff" stroke="transparent" points="283.5,-37 283.5,-95 390.5,-95 390.5,-37 283.5,-37"/>
<polygon fill="#f5f5f5" stroke="transparent" points="284,-73 284,-95 391,-95 391,-73 284,-73"/>
<polygon fill="none" stroke="black" points="284,-73 284,-95 391,-95 391,-73 284,-73"/>
<text text-anchor="start" x="289" y="-82.2" font-family="Helvetica,sans-Serif" font-weight="bold" font-size="11.00">brandput</text>
<text text-anchor="start" x="349" y="-81.2" font-family="Helvetica,sans-Serif" font-size="11.00">[table]</text>
<polygon fill="none" stroke="black" points="284,-55 284,-73 391,-73 391,-55 284,-55"/>
<text text-anchor="start" x="287" y="-61.2" font-family="Helvetica,sans-Serif" font-size="11.00">...</text>
<polygon fill="#ffffff" stroke="transparent" points="284,-37 284,-55 336,-55 336,-37 284,-37"/>
<polygon fill="none" stroke="black" points="284,-37 284,-55 336,-55 336,-37 284,-37"/>
<text text-anchor="start" x="287" y="-43.2" font-family="Helvetica,sans-Serif" font-size="11.00">&lt; 4</text>
<polygon fill="#ffffff" stroke="transparent" points="336,-37 336,-55 363,-55 363,-37 336,-37"/>
<polygon fill="none" stroke="black" points="336,-37 336,-55 363,-55 363,-37 336,-37"/>
<text text-anchor="start" x="352" y="-43.2" font-family="Helvetica,sans-Serif" font-size="11.00"> &#160;</text>
<polygon fill="#ffffff" stroke="transparent" points="363,-37 363,-55 391,-55 391,-37 363,-37"/>
<polygon fill="none" stroke="black" points="363,-37 363,-55 391,-55 391,-37 363,-37"/>
<text text-anchor="start" x="380" y="-43.2" font-family="Helvetica,sans-Serif" font-size="11.00"> &#160;</text>
</a>
</g>
</g>
<!-- brandput&#45;&gt;roi.fase -->
<g id="edge13" class="edge">
<title>brandput:w&#45;&gt;roi.fase:e</title>
<path fill="none" stroke="black" d="M268.45,-64.04C225.81,-64.42 202.32,-68.17 173,-105 102.92,-193.03 202.93,-262.73 140,-356 136.61,-361.02 132.35,-365.46 127.62,-369.39"/>
<polygon fill="black" stroke="black" points="275,-64.02 283.01,-67.6 279,-64.01 283,-64 283,-64 283,-64 279,-64.01 282.99,-60.4 275,-64.02 275,-64.02"/>
<ellipse fill="none" stroke="black" cx="271.8" cy="-64.03" rx="3.2" ry="3.2"/>
</g>
<!-- brandput&#45;&gt;gebied -->
<g id="edge14" class="edge">
<title>brandput:w&#45;&gt;gebied:e</title>
<path fill="none" stroke="black" d="M268.58,-64.16C226.7,-65.23 206.88,-72.31 173,-105 128.69,-147.75 181.57,-233 120,-233"/>
<polygon fill="black" stroke="black" points="275,-64.09 283.04,-67.6 279,-64.04 283,-64 283,-64 283,-64 279,-64.04 282.96,-60.4 275,-64.09 275,-64.09"/>
<ellipse fill="none" stroke="black" cx="271.8" cy="-64.13" rx="3.2" ry="3.2"/>
</g>
<!-- brandput&#45;&gt;conditie -->
<g id="edge15" class="edge">
<title>brandput:w&#45;&gt;conditie:e</title>
<path fill="none" stroke="black" d="M268.58,-64.57C228.42,-67.93 215.86,-85.77 173,-105 149.6,-115.5 147.65,-132 122,-132"/>
<polygon fill="black" stroke="black" points="275.01,-64.31 283.14,-67.6 279,-64.16 283,-64 283,-64 283,-64 279,-64.16 282.86,-60.4 275.01,-64.31 275.01,-64.31"/>
<ellipse fill="none" stroke="black" cx="271.81" cy="-64.44" rx="3.2" ry="3.2"/>
</g>
<!-- brandput&#45;&gt;roi.symbool -->
<g id="edge16" class="edge">
<title>brandput:w&#45;&gt;roi.symbool:e</title>
<path fill="none" stroke="black" d="M268.48,-64.07C226.02,-64.59 203.39,-69.05 173,-105 122.75,-164.44 185.41,-213.78 140,-277 138.55,-279.01 136.97,-280.93 135.28,-282.77"/>
<polygon fill="black" stroke="black" points="275,-64.04 283.02,-67.6 279,-64.02 283,-64 283,-64 283,-64 279,-64.02 282.98,-60.4 275,-64.04 275,-64.04"/>
<ellipse fill="none" stroke="black" cx="271.8" cy="-64.05" rx="3.2" ry="3.2"/>
</g>
<!-- openwater -->
<g id="node9" class="node">
<title>openwater</title>
<g id="a_node9"><a xlink:href="../../tables/openwater.html" xlink:title="openwater" target="_top">
<polygon fill="#ffffff" stroke="transparent" points="278,-1219 278,-1277 396,-1277 396,-1219 278,-1219"/>
<polygon fill="#f5f5f5" stroke="transparent" points="278,-1255 278,-1277 396,-1277 396,-1255 278,-1255"/>
<polygon fill="none" stroke="black" points="278,-1255 278,-1277 396,-1277 396,-1255 278,-1255"/>
<text text-anchor="start" x="283" y="-1264.2" font-family="Helvetica,sans-Serif" font-weight="bold" font-size="11.00">openwater</text>
<text text-anchor="start" x="354" y="-1263.2" font-family="Helvetica,sans-Serif" font-size="11.00">[table]</text>
<polygon fill="none" stroke="black" points="278,-1237 278,-1255 396,-1255 396,-1237 278,-1237"/>
<text text-anchor="start" x="281" y="-1243.2" font-family="Helvetica,sans-Serif" font-size="11.00">...</text>
<polygon fill="#ffffff" stroke="transparent" points="278,-1219 278,-1237 336,-1237 336,-1219 278,-1219"/>
<polygon fill="none" stroke="black" points="278,-1219 278,-1237 336,-1237 336,-1219 278,-1219"/>
<text text-anchor="start" x="281" y="-1225.2" font-family="Helvetica,sans-Serif" font-size="11.00">&lt; 4</text>
<polygon fill="#ffffff" stroke="transparent" points="336,-1219 336,-1237 366,-1237 366,-1219 336,-1219"/>
<polygon fill="none" stroke="black" points="336,-1219 336,-1237 366,-1237 366,-1219 336,-1219"/>
<text text-anchor="start" x="355" y="-1225.2" font-family="Helvetica,sans-Serif" font-size="11.00"> &#160;</text>
<polygon fill="#ffffff" stroke="transparent" points="366,-1219 366,-1237 396,-1237 396,-1219 366,-1219"/>
<polygon fill="none" stroke="black" points="366,-1219 366,-1237 396,-1237 396,-1219 366,-1219"/>
<text text-anchor="start" x="385" y="-1225.2" font-family="Helvetica,sans-Serif" font-size="11.00"> &#160;</text>
</a>
</g>
</g>
<!-- openwater&#45;&gt;roi.fase -->
<g id="edge17" class="edge">
<title>openwater:w&#45;&gt;roi.fase:e</title>
<path fill="none" stroke="black" d="M262.53,-1245.99C222.86,-1245.83 200.55,-1243.29 173,-1209 74.1,-1085.9 70,-565.3 70.68,-428.2"/>
<polygon fill="black" stroke="black" points="269,-1246 277,-1249.6 273,-1246 277,-1246 277,-1246 277,-1246 273,-1246 277,-1242.4 269,-1246 269,-1246"/>
<ellipse fill="none" stroke="black" cx="265.8" cy="-1246" rx="3.2" ry="3.2"/>
</g>
<!-- openwater&#45;&gt;gebied -->
<g id="edge18" class="edge">
<title>openwater:w&#45;&gt;gebied:e</title>
<path fill="none" stroke="black" d="M262.48,-1246.03C222.53,-1246.08 198.99,-1244.48 173,-1209 108.82,-1121.39 228.6,-233 120,-233"/>
<polygon fill="black" stroke="black" points="269,-1246.02 277.01,-1249.6 273,-1246.01 277,-1246 277,-1246 277,-1246 273,-1246.01 276.99,-1242.4 269,-1246.02 269,-1246.02"/>
<ellipse fill="none" stroke="black" cx="265.8" cy="-1246.03" rx="3.2" ry="3.2"/>
</g>
<!-- openwater&#45;&gt;conditie -->
<g id="edge19" class="edge">
<title>openwater:w&#45;&gt;conditie:e</title>
<path fill="none" stroke="black" d="M262.48,-1246.03C222.52,-1246.09 198.93,-1244.53 173,-1209 102.38,-1112.23 241.8,-132 122,-132"/>
<polygon fill="black" stroke="black" points="269,-1246.02 277.01,-1249.6 273,-1246.01 277,-1246 277,-1246 277,-1246 273,-1246.01 276.99,-1242.4 269,-1246.02 269,-1246.02"/>
<ellipse fill="none" stroke="black" cx="265.8" cy="-1246.03" rx="3.2" ry="3.2"/>
</g>
<!-- openwater&#45;&gt;roi.symbool -->
<g id="edge20" class="edge">
<title>openwater:w&#45;&gt;roi.symbool:e</title>
<path fill="none" stroke="black" d="M262.48,-1246.03C222.55,-1246.07 199.05,-1244.44 173,-1209 116.83,-1132.57 188.93,-437.25 140,-356 138.57,-353.63 136.94,-351.38 135.16,-349.26"/>
<polygon fill="black" stroke="black" points="269,-1246.02 277.01,-1249.6 273,-1246.01 277,-1246 277,-1246 277,-1246 273,-1246.01 276.99,-1242.4 269,-1246.02 269,-1246.02"/>
<ellipse fill="none" stroke="black" cx="265.8" cy="-1246.02" rx="3.2" ry="3.2"/>
</g>
</g>
</svg>
