<?xml version="1.0" encoding="UTF-8" standalone="no"?>
<!DOCTYPE svg PUBLIC "-//W3C//DTD SVG 1.1//EN"
 "http://www.w3.org/Graphics/SVG/1.1/DTD/svg11.dtd">
<!-- Generated by graphviz version 2.50.0 (0)
 -->
<!-- Title: oneDegreeRelationshipsDiagram Pages: 1 -->
<svg width="509pt" height="973pt"
 viewBox="0.00 0.00 509.00 973.00" xmlns="http://www.w3.org/2000/svg" xmlns:xlink="http://www.w3.org/1999/xlink">
<g id="graph0" class="graph" transform="scale(1 1) rotate(0) translate(4 969)">
<title>oneDegreeRelationshipsDiagram</title>
<polygon fill="#ffffff" stroke="transparent" points="-4,4 -4,-969 505,-969 505,4 -4,4"/>
<text text-anchor="middle" x="79.5" y="-7.2" font-family="Helvetica,sans-Serif" font-size="11.00">Generated by SchemaSpy</text>
<!-- bluswaterriool -->
<g id="node1" class="node">
<title>bluswaterriool</title>
<g id="a_node1"><a xlink:href="../../tables/bluswaterriool.html" xlink:title="bluswaterriool" target="_top">
<polygon fill="#ffffff" stroke="transparent" points="181,-37 181,-961 493,-961 493,-37 181,-37"/>
<polygon fill="#f5f5f5" stroke="transparent" points="183,-937 183,-959 491,-959 491,-937 183,-937"/>
<polygon fill="none" stroke="black" points="183,-937 183,-959 491,-959 491,-937 183,-937"/>
<text text-anchor="start" x="188" y="-946.2" font-family="Helvetica,sans-Serif" font-weight="bold" font-size="11.00">bluswaterriool</text>
<text text-anchor="start" x="449" y="-945.2" font-family="Helvetica,sans-Serif" font-size="11.00">[table]</text>
<polygon fill="none" stroke="black" points="183,-915 183,-937 355,-937 355,-915 183,-915"/>
<image xlink:href="../../images/primaryKeys.png" width="11px" height="12px" preserveAspectRatio="xMinYMin meet" x="188" y="-932"/>
<text text-anchor="start" x="203" y="-923.2" font-family="Helvetica,sans-Serif" font-size="11.00">uuid</text>
<polygon fill="none" stroke="black" points="355,-915 355,-937 491,-937 491,-915 355,-915"/>
<text text-anchor="start" x="358" y="-923.2" font-family="Helvetica,sans-Serif" font-size="11.00">uuid[2147483647]</text>
<polygon fill="#ffffff" stroke="transparent" points="183,-893 183,-915 355,-915 355,-893 183,-893"/>
<polygon fill="none" stroke="black" points="183,-893 183,-915 355,-915 355,-893 183,-893"/>
<text text-anchor="start" x="203" y="-901.2" font-family="Helvetica,sans-Serif" font-size="11.00">geom</text>
<polygon fill="none" stroke="black" points="355,-893 355,-915 491,-915 491,-893 355,-893"/>
<text text-anchor="start" x="358" y="-901.2" font-family="Helvetica,sans-Serif" font-size="11.00">geometry[2147483647]</text>
<polygon fill="none" stroke="black" points="183,-871 183,-893 355,-893 355,-871 183,-871"/>
<text text-anchor="start" x="203" y="-879.2" font-family="Helvetica,sans-Serif" font-size="11.00">datumtijd</text>
<polygon fill="none" stroke="black" points="355,-871 355,-893 491,-893 491,-871 355,-871"/>
<text text-anchor="start" x="358" y="-879.2" font-family="Helvetica,sans-Serif" font-size="11.00">timestamptz[35,6]</text>
<polygon fill="none" stroke="black" points="183,-849 183,-871 355,-871 355,-849 183,-849"/>
<text text-anchor="start" x="203" y="-857.2" font-family="Helvetica,sans-Serif" font-size="11.00">gebruiker</text>
<polygon fill="none" stroke="black" points="355,-849 355,-871 491,-871 491,-849 355,-849"/>
<text text-anchor="start" x="358" y="-857.2" font-family="Helvetica,sans-Serif" font-size="11.00">varchar[255]</text>
<polygon fill="none" stroke="black" points="183,-827 183,-849 355,-849 355,-827 183,-827"/>
<text text-anchor="start" x="203" y="-835.2" font-family="Helvetica,sans-Serif" font-size="11.00">label</text>
<polygon fill="none" stroke="black" points="355,-827 355,-849 491,-849 491,-827 355,-827"/>
<text text-anchor="start" x="358" y="-835.2" font-family="Helvetica,sans-Serif" font-size="11.00">text[2147483647]</text>
<polygon fill="none" stroke="black" points="183,-805 183,-827 355,-827 355,-805 183,-805"/>
<text text-anchor="start" x="203" y="-813.2" font-family="Helvetica,sans-Serif" font-size="11.00">rotatie</text>
<polygon fill="none" stroke="black" points="355,-805 355,-827 491,-827 491,-805 355,-805"/>
<text text-anchor="start" x="358" y="-813.2" font-family="Helvetica,sans-Serif" font-size="11.00">int4[10]</text>
<polygon fill="none" stroke="black" points="183,-783 183,-805 355,-805 355,-783 183,-783"/>
<text text-anchor="start" x="203" y="-791.2" font-family="Helvetica,sans-Serif" font-size="11.00">bijzonderheden</text>
<polygon fill="none" stroke="black" points="355,-783 355,-805 491,-805 491,-783 355,-783"/>
<text text-anchor="start" x="358" y="-791.2" font-family="Helvetica,sans-Serif" font-size="11.00">text[2147483647]</text>
<polygon fill="none" stroke="black" points="183,-761 183,-783 355,-783 355,-761 183,-761"/>
<text text-anchor="start" x="203" y="-769.2" font-family="Helvetica,sans-Serif" font-size="11.00">plusinfo</text>
<polygon fill="none" stroke="black" points="355,-761 355,-783 491,-783 491,-761 355,-761"/>
<text text-anchor="start" x="358" y="-769.2" font-family="Helvetica,sans-Serif" font-size="11.00">jsonb[2147483647]</text>
<polygon fill="none" stroke="black" points="183,-739 183,-761 355,-761 355,-739 183,-739"/>
<text text-anchor="start" x="203" y="-747.2" font-family="Helvetica,sans-Serif" font-size="11.00">code</text>
<polygon fill="none" stroke="black" points="355,-739 355,-761 491,-761 491,-739 355,-739"/>
<text text-anchor="start" x="358" y="-747.2" font-family="Helvetica,sans-Serif" font-size="11.00">text[2147483647]</text>
<polygon fill="none" stroke="black" points="183,-717 183,-739 355,-739 355,-717 183,-717"/>
<text text-anchor="start" x="203" y="-725.2" font-family="Helvetica,sans-Serif" font-size="11.00">beheerder</text>
<polygon fill="none" stroke="black" points="355,-717 355,-739 491,-739 491,-717 355,-717"/>
<text text-anchor="start" x="358" y="-725.2" font-family="Helvetica,sans-Serif" font-size="11.00">text[2147483647]</text>
<polygon fill="none" stroke="black" points="183,-695 183,-717 355,-717 355,-695 183,-695"/>
<text text-anchor="start" x="203" y="-703.2" font-family="Helvetica,sans-Serif" font-size="11.00">particulier</text>
<polygon fill="none" stroke="black" points="355,-695 355,-717 491,-717 491,-695 355,-695"/>
<text text-anchor="start" x="358" y="-703.2" font-family="Helvetica,sans-Serif" font-size="11.00">text[2147483647]</text>
<polygon fill="none" stroke="black" points="183,-673 183,-695 355,-695 355,-673 183,-673"/>
<text text-anchor="start" x="203" y="-681.2" font-family="Helvetica,sans-Serif" font-size="11.00">adres</text>
<polygon fill="none" stroke="black" points="355,-673 355,-695 491,-695 491,-673 355,-673"/>
<text text-anchor="start" x="358" y="-681.2" font-family="Helvetica,sans-Serif" font-size="11.00">text[2147483647]</text>
<polygon fill="none" stroke="black" points="183,-651 183,-673 355,-673 355,-651 183,-651"/>
<text text-anchor="start" x="203" y="-659.2" font-family="Helvetica,sans-Serif" font-size="11.00">uitsluiten</text>
<polygon fill="none" stroke="black" points="355,-651 355,-673 491,-673 491,-651 355,-651"/>
<text text-anchor="start" x="358" y="-659.2" font-family="Helvetica,sans-Serif" font-size="11.00">bool[1]</text>
<polygon fill="none" stroke="black" points="183,-629 183,-651 355,-651 355,-629 183,-629"/>
<text text-anchor="start" x="203" y="-637.2" font-family="Helvetica,sans-Serif" font-size="11.00">revisie_frequentie</text>
<polygon fill="none" stroke="black" points="355,-629 355,-651 491,-651 491,-629 355,-629"/>
<text text-anchor="start" x="358" y="-637.2" font-family="Helvetica,sans-Serif" font-size="11.00">int2[5]</text>
<polygon fill="none" stroke="black" points="183,-607 183,-629 355,-629 355,-607 183,-607"/>
<image xlink:href="../../images/foreignKeys.png" width="11px" height="12px" preserveAspectRatio="xMinYMin meet" x="188" y="-624"/>
<text text-anchor="start" x="203" y="-615.2" font-family="Helvetica,sans-Serif" font-size="11.00">fase_id</text>
<polygon fill="none" stroke="black" points="355,-607 355,-629 491,-629 491,-607 355,-607"/>
<text text-anchor="start" x="358" y="-615.2" font-family="Helvetica,sans-Serif" font-size="11.00">int2[5]</text>
<polygon fill="none" stroke="black" points="183,-585 183,-607 355,-607 355,-585 183,-585"/>
<image xlink:href="../../images/foreignKeys.png" width="11px" height="12px" preserveAspectRatio="xMinYMin meet" x="188" y="-602"/>
<text text-anchor="start" x="203" y="-593.2" font-family="Helvetica,sans-Serif" font-size="11.00">symbool_id</text>
<polygon fill="none" stroke="black" points="355,-585 355,-607 491,-607 491,-585 355,-585"/>
<text text-anchor="start" x="358" y="-593.2" font-family="Helvetica,sans-Serif" font-size="11.00">int2[5]</text>
<polygon fill="none" stroke="black" points="183,-563 183,-585 355,-585 355,-563 183,-563"/>
<image xlink:href="../../images/foreignKeys.png" width="11px" height="12px" preserveAspectRatio="xMinYMin meet" x="188" y="-580"/>
<text text-anchor="start" x="203" y="-571.2" font-family="Helvetica,sans-Serif" font-size="11.00">gebied_id</text>
<polygon fill="none" stroke="black" points="355,-563 355,-585 491,-585 491,-563 355,-563"/>
<text text-anchor="start" x="358" y="-571.2" font-family="Helvetica,sans-Serif" font-size="11.00">int2[5]</text>
<polygon fill="none" stroke="black" points="183,-541 183,-563 355,-563 355,-541 183,-541"/>
<text text-anchor="start" x="203" y="-549.2" font-family="Helvetica,sans-Serif" font-size="11.00">opstelplaats</text>
<polygon fill="none" stroke="black" points="355,-541 355,-563 491,-563 491,-541 355,-541"/>
<text text-anchor="start" x="358" y="-549.2" font-family="Helvetica,sans-Serif" font-size="11.00">bool[1]</text>
<polygon fill="none" stroke="black" points="183,-519 183,-541 355,-541 355,-519 183,-519"/>
<text text-anchor="start" x="203" y="-527.2" font-family="Helvetica,sans-Serif" font-size="11.00">opstelplaats_locatie</text>
<polygon fill="none" stroke="black" points="355,-519 355,-541 491,-541 491,-519 355,-519"/>
<text text-anchor="start" x="358" y="-527.2" font-family="Helvetica,sans-Serif" font-size="11.00">text[2147483647]</text>
<polygon fill="none" stroke="black" points="183,-497 183,-519 355,-519 355,-497 183,-497"/>
<text text-anchor="start" x="203" y="-505.2" font-family="Helvetica,sans-Serif" font-size="11.00">markering</text>
<polygon fill="none" stroke="black" points="355,-497 355,-519 491,-519 491,-497 355,-497"/>
<text text-anchor="start" x="358" y="-505.2" font-family="Helvetica,sans-Serif" font-size="11.00">text[2147483647]</text>
<polygon fill="none" stroke="black" points="183,-475 183,-497 355,-497 355,-475 183,-475"/>
<text text-anchor="start" x="203" y="-483.2" font-family="Helvetica,sans-Serif" font-size="11.00">toegang</text>
<polygon fill="none" stroke="black" points="355,-475 355,-497 491,-497 491,-475 355,-475"/>
<text text-anchor="start" x="358" y="-483.2" font-family="Helvetica,sans-Serif" font-size="11.00">text[2147483647]</text>
<polygon fill="none" stroke="black" points="183,-453 183,-475 355,-475 355,-453 183,-453"/>
<text text-anchor="start" x="203" y="-461.2" font-family="Helvetica,sans-Serif" font-size="11.00">aanleg</text>
<polygon fill="none" stroke="black" points="355,-453 355,-475 491,-475 491,-453 355,-453"/>
<text text-anchor="start" x="358" y="-461.2" font-family="Helvetica,sans-Serif" font-size="11.00">date[13]</text>
<polygon fill="none" stroke="black" points="183,-431 183,-453 355,-453 355,-431 183,-431"/>
<text text-anchor="start" x="203" y="-439.2" font-family="Helvetica,sans-Serif" font-size="11.00">putdeksel_locatie</text>
<polygon fill="none" stroke="black" points="355,-431 355,-453 491,-453 491,-431 355,-431"/>
<text text-anchor="start" x="358" y="-439.2" font-family="Helvetica,sans-Serif" font-size="11.00">text[2147483647]</text>
<polygon fill="none" stroke="black" points="183,-409 183,-431 355,-431 355,-409 183,-409"/>
<text text-anchor="start" x="203" y="-417.2" font-family="Helvetica,sans-Serif" font-size="11.00">putdeksel_waterdiepte</text>
<polygon fill="none" stroke="black" points="355,-409 355,-431 491,-431 491,-409 355,-409"/>
<text text-anchor="start" x="358" y="-417.2" font-family="Helvetica,sans-Serif" font-size="11.00">numeric[0]</text>
<polygon fill="none" stroke="black" points="183,-387 183,-409 355,-409 355,-387 183,-387"/>
<text text-anchor="start" x="203" y="-395.2" font-family="Helvetica,sans-Serif" font-size="11.00">verzonken</text>
<polygon fill="none" stroke="black" points="355,-387 355,-409 491,-409 491,-387 355,-387"/>
<text text-anchor="start" x="358" y="-395.2" font-family="Helvetica,sans-Serif" font-size="11.00">bool[1]</text>
<polygon fill="none" stroke="black" points="183,-365 183,-387 355,-387 355,-365 183,-365"/>
<text text-anchor="start" x="203" y="-373.2" font-family="Helvetica,sans-Serif" font-size="11.00">diameter_leiding</text>
<polygon fill="none" stroke="black" points="355,-365 355,-387 491,-387 491,-365 355,-365"/>
<text text-anchor="start" x="358" y="-373.2" font-family="Helvetica,sans-Serif" font-size="11.00">numeric[0]</text>
<polygon fill="none" stroke="black" points="183,-343 183,-365 355,-365 355,-343 183,-343"/>
<text text-anchor="start" x="203" y="-351.2" font-family="Helvetica,sans-Serif" font-size="11.00">inspecteur</text>
<polygon fill="none" stroke="black" points="355,-343 355,-365 491,-365 491,-343 355,-343"/>
<text text-anchor="start" x="358" y="-351.2" font-family="Helvetica,sans-Serif" font-size="11.00">text[2147483647]</text>
<polygon fill="none" stroke="black" points="183,-321 183,-343 355,-343 355,-321 183,-321"/>
<text text-anchor="start" x="203" y="-329.2" font-family="Helvetica,sans-Serif" font-size="11.00">inspectie_datum</text>
<polygon fill="none" stroke="black" points="355,-321 355,-343 491,-343 491,-321 355,-321"/>
<text text-anchor="start" x="358" y="-329.2" font-family="Helvetica,sans-Serif" font-size="11.00">date[13]</text>
<polygon fill="none" stroke="black" points="183,-299 183,-321 355,-321 355,-299 183,-299"/>
<image xlink:href="../../images/foreignKeys.png" width="11px" height="12px" preserveAspectRatio="xMinYMin meet" x="188" y="-316"/>
<text text-anchor="start" x="203" y="-307.2" font-family="Helvetica,sans-Serif" font-size="11.00">inspectie_conditie_id</text>
<polygon fill="none" stroke="black" points="355,-299 355,-321 491,-321 491,-299 355,-299"/>
<text text-anchor="start" x="358" y="-307.2" font-family="Helvetica,sans-Serif" font-size="11.00">int2[5]</text>
<polygon fill="none" stroke="black" points="183,-277 183,-299 355,-299 355,-277 183,-277"/>
<text text-anchor="start" x="203" y="-285.2" font-family="Helvetica,sans-Serif" font-size="11.00">inspectie_opmerking</text>
<polygon fill="none" stroke="black" points="355,-277 355,-299 491,-299 491,-277 355,-277"/>
<text text-anchor="start" x="358" y="-285.2" font-family="Helvetica,sans-Serif" font-size="11.00">text[2147483647]</text>
<polygon fill="none" stroke="black" points="183,-255 183,-277 355,-277 355,-255 183,-255"/>
<text text-anchor="start" x="203" y="-263.2" font-family="Helvetica,sans-Serif" font-size="11.00">inspectie_plusinfo</text>
<polygon fill="none" stroke="black" points="355,-255 355,-277 491,-277 491,-255 355,-255"/>
<text text-anchor="start" x="358" y="-263.2" font-family="Helvetica,sans-Serif" font-size="11.00">jsonb[2147483647]</text>
<polygon fill="none" stroke="black" points="183,-233 183,-255 355,-255 355,-233 183,-233"/>
<text text-anchor="start" x="203" y="-241.2" font-family="Helvetica,sans-Serif" font-size="11.00">inspectie_opstelplaats</text>
<polygon fill="none" stroke="black" points="355,-233 355,-255 491,-255 491,-233 355,-233"/>
<text text-anchor="start" x="358" y="-241.2" font-family="Helvetica,sans-Serif" font-size="11.00">text[2147483647]</text>
<polygon fill="none" stroke="black" points="183,-211 183,-233 355,-233 355,-211 183,-211"/>
<text text-anchor="start" x="203" y="-219.2" font-family="Helvetica,sans-Serif" font-size="11.00">inspectie_reiniging</text>
<polygon fill="none" stroke="black" points="355,-211 355,-233 491,-233 491,-211 355,-211"/>
<text text-anchor="start" x="358" y="-219.2" font-family="Helvetica,sans-Serif" font-size="11.00">date[13]</text>
<polygon fill="none" stroke="black" points="183,-189 183,-211 355,-211 355,-189 183,-189"/>
<text text-anchor="start" x="203" y="-197.2" font-family="Helvetica,sans-Serif" font-size="11.00">inspectie_locatie</text>
<polygon fill="none" stroke="black" points="355,-189 355,-211 491,-211 491,-189 355,-189"/>
<text text-anchor="start" x="358" y="-197.2" font-family="Helvetica,sans-Serif" font-size="11.00">text[2147483647]</text>
<polygon fill="none" stroke="black" points="183,-167 183,-189 355,-189 355,-167 183,-167"/>
<text text-anchor="start" x="203" y="-175.2" font-family="Helvetica,sans-Serif" font-size="11.00">inspectie_markering</text>
<polygon fill="none" stroke="black" points="355,-167 355,-189 491,-189 491,-167 355,-167"/>
<text text-anchor="start" x="358" y="-175.2" font-family="Helvetica,sans-Serif" font-size="11.00">text[2147483647]</text>
<polygon fill="none" stroke="black" points="183,-145 183,-167 355,-167 355,-145 183,-145"/>
<text text-anchor="start" x="203" y="-153.2" font-family="Helvetica,sans-Serif" font-size="11.00">inspectie_beplanting</text>
<polygon fill="none" stroke="black" points="355,-145 355,-167 491,-167 491,-145 355,-145"/>
<text text-anchor="start" x="358" y="-153.2" font-family="Helvetica,sans-Serif" font-size="11.00">text[2147483647]</text>
<polygon fill="none" stroke="black" points="183,-123 183,-145 355,-145 355,-123 183,-123"/>
<text text-anchor="start" x="203" y="-131.2" font-family="Helvetica,sans-Serif" font-size="11.00">inspectie_obstakels</text>
<polygon fill="none" stroke="black" points="355,-123 355,-145 491,-145 491,-123 355,-123"/>
<text text-anchor="start" x="358" y="-131.2" font-family="Helvetica,sans-Serif" font-size="11.00">text[2147483647]</text>
<polygon fill="none" stroke="black" points="183,-101 183,-123 355,-123 355,-101 183,-101"/>
<text text-anchor="start" x="203" y="-109.2" font-family="Helvetica,sans-Serif" font-size="11.00">inspectie_bereikbaarheid</text>
<polygon fill="none" stroke="black" points="355,-101 355,-123 491,-123 491,-101 355,-101"/>
<text text-anchor="start" x="358" y="-109.2" font-family="Helvetica,sans-Serif" font-size="11.00">text[2147483647]</text>
<polygon fill="none" stroke="black" points="183,-79 183,-101 355,-101 355,-79 183,-79"/>
<text text-anchor="start" x="203" y="-87.2" font-family="Helvetica,sans-Serif" font-size="11.00">inspectie_waterdiepte</text>
<polygon fill="none" stroke="black" points="355,-79 355,-101 491,-101 491,-79 355,-79"/>
<text text-anchor="start" x="358" y="-87.2" font-family="Helvetica,sans-Serif" font-size="11.00">text[2147483647]</text>
<polygon fill="none" stroke="black" points="183,-57 183,-79 355,-79 355,-57 183,-57"/>
<text text-anchor="start" x="203" y="-65.2" font-family="Helvetica,sans-Serif" font-size="11.00">inspectie_bluswater</text>
<polygon fill="none" stroke="black" points="355,-57 355,-79 491,-79 491,-57 355,-57"/>
<text text-anchor="start" x="358" y="-65.2" font-family="Helvetica,sans-Serif" font-size="11.00">text[2147483647]</text>
<polygon fill="#ffffff" stroke="transparent" points="183,-39 183,-57 275,-57 275,-39 183,-39"/>
<polygon fill="none" stroke="black" points="183,-39 183,-57 275,-57 275,-39 183,-39"/>
<text text-anchor="start" x="186" y="-45.2" font-family="Helvetica,sans-Serif" font-size="11.00">&lt; 4</text>
<polygon fill="#ffffff" stroke="transparent" points="275,-39 275,-57 355,-57 355,-39 275,-39"/>
<polygon fill="none" stroke="black" points="275,-39 275,-57 355,-57 355,-39 275,-39"/>
<text text-anchor="start" x="344" y="-45.2" font-family="Helvetica,sans-Serif" font-size="11.00"> &#160;</text>
<polygon fill="#ffffff" stroke="transparent" points="355,-39 355,-57 491,-57 491,-39 355,-39"/>
<polygon fill="none" stroke="black" points="355,-39 355,-57 491,-57 491,-39 355,-39"/>
<text text-anchor="start" x="468" y="-45.2" font-family="Helvetica,sans-Serif" font-size="11.00">0 &gt;</text>
<polygon fill="none" stroke="black" stroke-width="2" points="182,-38 182,-960 492,-960 492,-38 182,-38"/>
</a>
</g>
</g>
<!-- roi.fase -->
<g id="node2" class="node">
<title>roi.fase</title>
<g id="a_node2"><a xlink:href="../../../roi/tables/fase.html" xlink:title="roi.fase" target="_top">
<polygon fill="#ffffff" stroke="transparent" points="20.5,-646 20.5,-704 119.5,-704 119.5,-646 20.5,-646"/>
<polygon fill="#f5f5f5" stroke="transparent" points="21,-682 21,-704 120,-704 120,-682 21,-682"/>
<polygon fill="none" stroke="black" points="21,-682 21,-704 120,-704 120,-682 21,-682"/>
<text text-anchor="start" x="26" y="-691.2" font-family="Helvetica,sans-Serif" font-weight="bold" font-size="11.00">roi.fase</text>
<text text-anchor="start" x="78" y="-690.2" font-family="Helvetica,sans-Serif" font-size="11.00">[table]</text>
<polygon fill="none" stroke="black" points="21,-664 21,-682 120,-682 120,-664 21,-664"/>
<text text-anchor="start" x="24" y="-670.2" font-family="Helvetica,sans-Serif" font-size="11.00">...</text>
<polygon fill="#ffffff" stroke="transparent" points="21,-646 21,-664 57,-664 57,-646 21,-646"/>
<polygon fill="none" stroke="black" points="21,-646 21,-664 57,-664 57,-646 21,-646"/>
<text text-anchor="start" x="24" y="-652.2" font-family="Helvetica,sans-Serif" font-size="11.00"> &#160;</text>
<polygon fill="#ffffff" stroke="transparent" points="57,-646 57,-664 82,-664 82,-646 57,-646"/>
<polygon fill="none" stroke="black" points="57,-646 57,-664 82,-664 82,-646 57,-646"/>
<text text-anchor="start" x="71" y="-652.2" font-family="Helvetica,sans-Serif" font-size="11.00"> &#160;</text>
<polygon fill="#ffffff" stroke="transparent" points="82,-646 82,-664 120,-664 120,-646 82,-646"/>
<polygon fill="none" stroke="black" points="82,-646 82,-664 120,-664 120,-646 82,-646"/>
<text text-anchor="start" x="97" y="-652.2" font-family="Helvetica,sans-Serif" font-size="11.00">5 &gt;</text>
</a>
</g>
</g>
<!-- bluswaterriool&#45;&gt;roi.fase -->
<g id="edge1" class="edge">
<title>bluswaterriool:w&#45;&gt;roi.fase:e</title>
<path fill="none" stroke="black" d="M167.96,-622.66C157.32,-627.34 142.54,-634.98 127.73,-643"/>
<polygon fill="black" stroke="black" points="174.41,-620.52 183.13,-621.42 178.2,-619.26 182,-618 182,-618 182,-618 178.2,-619.26 180.87,-614.58 174.41,-620.52 174.41,-620.52"/>
<ellipse fill="none" stroke="black" cx="171.37" cy="-621.53" rx="3.2" ry="3.2"/>
</g>
<!-- gebied -->
<g id="node3" class="node">
<title>gebied</title>
<g id="a_node3"><a xlink:href="../../tables/gebied.html" xlink:title="gebied" target="_top">
<polygon fill="#ffffff" stroke="transparent" points="21,-466 21,-546 119,-546 119,-466 21,-466"/>
<polygon fill="#f5f5f5" stroke="transparent" points="21,-524 21,-546 119,-546 119,-524 21,-524"/>
<polygon fill="none" stroke="black" points="21,-524 21,-546 119,-546 119,-524 21,-524"/>
<text text-anchor="start" x="26" y="-533.2" font-family="Helvetica,sans-Serif" font-weight="bold" font-size="11.00">gebied</text>
<text text-anchor="start" x="77" y="-532.2" font-family="Helvetica,sans-Serif" font-size="11.00">[table]</text>
<polygon fill="none" stroke="black" points="21,-502 21,-524 119,-524 119,-502 21,-502"/>
<image xlink:href="../../images/primaryKeys.png" width="11px" height="12px" preserveAspectRatio="xMinYMin meet" x="26" y="-519"/>
<text text-anchor="start" x="41" y="-510.2" font-family="Helvetica,sans-Serif" font-size="11.00">id</text>
<polygon fill="none" stroke="black" points="21,-484 21,-502 119,-502 119,-484 21,-484"/>
<text text-anchor="start" x="24" y="-490.2" font-family="Helvetica,sans-Serif" font-size="11.00">...</text>
<polygon fill="#ffffff" stroke="transparent" points="21,-466 21,-484 57,-484 57,-466 21,-466"/>
<polygon fill="none" stroke="black" points="21,-466 21,-484 57,-484 57,-466 21,-466"/>
<text text-anchor="start" x="24" y="-472.2" font-family="Helvetica,sans-Serif" font-size="11.00"> &#160;</text>
<polygon fill="#ffffff" stroke="transparent" points="57,-466 57,-484 82,-484 82,-466 57,-466"/>
<polygon fill="none" stroke="black" points="57,-466 57,-484 82,-484 82,-466 57,-466"/>
<text text-anchor="start" x="71" y="-472.2" font-family="Helvetica,sans-Serif" font-size="11.00"> &#160;</text>
<polygon fill="#ffffff" stroke="transparent" points="82,-466 82,-484 119,-484 119,-466 82,-466"/>
<polygon fill="none" stroke="black" points="82,-466 82,-484 119,-484 119,-466 82,-466"/>
<text text-anchor="start" x="96" y="-472.2" font-family="Helvetica,sans-Serif" font-size="11.00">5 &gt;</text>
</a>
</g>
</g>
<!-- bluswaterriool&#45;&gt;gebied -->
<g id="edge2" class="edge">
<title>bluswaterriool:w&#45;&gt;gebied:e</title>
<path fill="none" stroke="black" d="M168,-570.37C146.7,-557.23 152.92,-513 120,-513"/>
<polygon fill="black" stroke="black" points="174.26,-571.99 181.1,-577.48 178.13,-573 182,-574 182,-574 182,-574 178.13,-573 182.9,-570.52 174.26,-571.99 174.26,-571.99"/>
<ellipse fill="none" stroke="black" cx="171.16" cy="-571.19" rx="3.2" ry="3.2"/>
</g>
<!-- conditie -->
<g id="node4" class="node">
<title>conditie</title>
<g id="a_node4"><a xlink:href="../../tables/conditie.html" xlink:title="conditie" target="_top">
<polygon fill="#ffffff" stroke="transparent" points="19.5,-263 19.5,-343 120.5,-343 120.5,-263 19.5,-263"/>
<polygon fill="#f5f5f5" stroke="transparent" points="20,-321 20,-343 121,-343 121,-321 20,-321"/>
<polygon fill="none" stroke="black" points="20,-321 20,-343 121,-343 121,-321 20,-321"/>
<text text-anchor="start" x="25" y="-330.2" font-family="Helvetica,sans-Serif" font-weight="bold" font-size="11.00">conditie</text>
<text text-anchor="start" x="79" y="-329.2" font-family="Helvetica,sans-Serif" font-size="11.00">[table]</text>
<polygon fill="none" stroke="black" points="20,-299 20,-321 121,-321 121,-299 20,-299"/>
<image xlink:href="../../images/primaryKeys.png" width="11px" height="12px" preserveAspectRatio="xMinYMin meet" x="25" y="-316"/>
<text text-anchor="start" x="42" y="-307.2" font-family="Helvetica,sans-Serif" font-size="11.00">id</text>
<polygon fill="none" stroke="black" points="20,-281 20,-299 121,-299 121,-281 20,-281"/>
<text text-anchor="start" x="23" y="-287.2" font-family="Helvetica,sans-Serif" font-size="11.00">...</text>
<polygon fill="#ffffff" stroke="transparent" points="20,-263 20,-281 57,-281 57,-263 20,-263"/>
<polygon fill="none" stroke="black" points="20,-263 20,-281 57,-281 57,-263 20,-263"/>
<text text-anchor="start" x="23" y="-269.2" font-family="Helvetica,sans-Serif" font-size="11.00"> &#160;</text>
<polygon fill="#ffffff" stroke="transparent" points="57,-263 57,-281 83,-281 83,-263 57,-263"/>
<polygon fill="none" stroke="black" points="57,-263 57,-281 83,-281 83,-263 57,-263"/>
<text text-anchor="start" x="72" y="-269.2" font-family="Helvetica,sans-Serif" font-size="11.00"> &#160;</text>
<polygon fill="#ffffff" stroke="transparent" points="83,-263 83,-281 121,-281 121,-263 83,-263"/>
<polygon fill="none" stroke="black" points="83,-263 83,-281 121,-281 121,-263 83,-263"/>
<text text-anchor="start" x="98" y="-269.2" font-family="Helvetica,sans-Serif" font-size="11.00">5 &gt;</text>
</a>
</g>
</g>
<!-- bluswaterriool&#45;&gt;conditie -->
<g id="edge3" class="edge">
<title>bluswaterriool:w&#45;&gt;conditie:e</title>
<path fill="none" stroke="black" d="M167.42,-310C151.63,-310 143.04,-310 122,-310"/>
<polygon fill="black" stroke="black" points="174,-310 182,-313.6 178,-310 182,-310 182,-310 182,-310 178,-310 182,-306.4 174,-310 174,-310"/>
<ellipse fill="none" stroke="black" cx="170.8" cy="-310" rx="3.2" ry="3.2"/>
</g>
<!-- roi.symbool -->
<g id="node5" class="node">
<title>roi.symbool</title>
<g id="a_node5"><a xlink:href="../../../roi/tables/symbool.html" xlink:title="roi.symbool" target="_top">
<polygon fill="#ffffff" stroke="transparent" points="8,-567 8,-625 132,-625 132,-567 8,-567"/>
<polygon fill="#f5f5f5" stroke="transparent" points="8,-603 8,-625 132,-625 132,-603 8,-603"/>
<polygon fill="none" stroke="black" points="8,-603 8,-625 132,-625 132,-603 8,-603"/>
<text text-anchor="start" x="13" y="-612.2" font-family="Helvetica,sans-Serif" font-weight="bold" font-size="11.00">roi.symbool</text>
<text text-anchor="start" x="90" y="-611.2" font-family="Helvetica,sans-Serif" font-size="11.00">[table]</text>
<polygon fill="none" stroke="black" points="8,-585 8,-603 132,-603 132,-585 8,-585"/>
<text text-anchor="start" x="11" y="-591.2" font-family="Helvetica,sans-Serif" font-size="11.00">...</text>
<polygon fill="#ffffff" stroke="transparent" points="8,-567 8,-585 57,-585 57,-567 8,-567"/>
<polygon fill="none" stroke="black" points="8,-567 8,-585 57,-585 57,-567 8,-567"/>
<text text-anchor="start" x="11" y="-573.2" font-family="Helvetica,sans-Serif" font-size="11.00"> &#160;</text>
<polygon fill="#ffffff" stroke="transparent" points="57,-567 57,-585 88,-585 88,-567 57,-567"/>
<polygon fill="none" stroke="black" points="57,-567 57,-585 88,-585 88,-567 57,-567"/>
<text text-anchor="start" x="77" y="-573.2" font-family="Helvetica,sans-Serif" font-size="11.00"> &#160;</text>
<polygon fill="#ffffff" stroke="transparent" points="88,-567 88,-585 132,-585 132,-567 88,-567"/>
<polygon fill="none" stroke="black" points="88,-567 88,-585 132,-585 132,-567 88,-567"/>
<text text-anchor="start" x="109" y="-573.2" font-family="Helvetica,sans-Serif" font-size="11.00">5 &gt;</text>
</a>
</g>
</g>
<!-- bluswaterriool&#45;&gt;roi.symbool -->
<g id="edge4" class="edge">
<title>bluswaterriool:w&#45;&gt;roi.symbool:e</title>
<path fill="none" stroke="black" d="M167.5,-596C158.45,-596 149.24,-596 140.28,-596"/>
<polygon fill="black" stroke="black" points="174,-596 182,-599.6 178,-596 182,-596 182,-596 182,-596 178,-596 182,-592.4 174,-596 174,-596"/>
<ellipse fill="none" stroke="black" cx="170.8" cy="-596" rx="3.2" ry="3.2"/>
</g>
</g>
</svg>
