<?xml version="1.0" encoding="UTF-8" standalone="no"?>
<!DOCTYPE svg PUBLIC "-//W3C//DTD SVG 1.1//EN"
 "http://www.w3.org/Graphics/SVG/1.1/DTD/svg11.dtd">
<!-- Generated by graphviz version 2.50.0 (0)
 -->
<!-- Title: oneDegreeRelationshipsDiagram Pages: 1 -->
<svg width="526pt" height="1105pt"
 viewBox="0.00 0.00 526.00 1105.00" xmlns="http://www.w3.org/2000/svg" xmlns:xlink="http://www.w3.org/1999/xlink">
<g id="graph0" class="graph" transform="scale(1 1) rotate(0) translate(4 1101)">
<title>oneDegreeRelationshipsDiagram</title>
<polygon fill="#ffffff" stroke="transparent" points="-4,4 -4,-1101 522,-1101 522,4 -4,4"/>
<text text-anchor="middle" x="79.5" y="-7.2" font-family="Helvetica,sans-Serif" font-size="11.00">Generated by SchemaSpy</text>
<!-- brandput -->
<g id="node1" class="node">
<title>brandput</title>
<g id="a_node1"><a xlink:href="../../tables/brandput.html" xlink:title="brandput" target="_top">
<polygon fill="#ffffff" stroke="transparent" points="181,-37 181,-1093 510,-1093 510,-37 181,-37"/>
<polygon fill="#f5f5f5" stroke="transparent" points="183.5,-1069 183.5,-1091 508.5,-1091 508.5,-1069 183.5,-1069"/>
<polygon fill="none" stroke="black" points="183.5,-1069 183.5,-1091 508.5,-1091 508.5,-1069 183.5,-1069"/>
<text text-anchor="start" x="188.5" y="-1078.2" font-family="Helvetica,sans-Serif" font-weight="bold" font-size="11.00">brandput</text>
<text text-anchor="start" x="466.5" y="-1077.2" font-family="Helvetica,sans-Serif" font-size="11.00">[table]</text>
<polygon fill="none" stroke="black" points="183.5,-1047 183.5,-1069 372.5,-1069 372.5,-1047 183.5,-1047"/>
<image xlink:href="../../images/primaryKeys.png" width="11px" height="12px" preserveAspectRatio="xMinYMin meet" x="188.5" y="-1064"/>
<text text-anchor="start" x="203.5" y="-1055.2" font-family="Helvetica,sans-Serif" font-size="11.00">uuid</text>
<polygon fill="none" stroke="black" points="372.5,-1047 372.5,-1069 508.5,-1069 508.5,-1047 372.5,-1047"/>
<text text-anchor="start" x="375.5" y="-1055.2" font-family="Helvetica,sans-Serif" font-size="11.00">uuid[2147483647]</text>
<polygon fill="#ffffff" stroke="transparent" points="183.5,-1025 183.5,-1047 372.5,-1047 372.5,-1025 183.5,-1025"/>
<polygon fill="none" stroke="black" points="183.5,-1025 183.5,-1047 372.5,-1047 372.5,-1025 183.5,-1025"/>
<text text-anchor="start" x="203.5" y="-1033.2" font-family="Helvetica,sans-Serif" font-size="11.00">geom</text>
<polygon fill="none" stroke="black" points="372.5,-1025 372.5,-1047 508.5,-1047 508.5,-1025 372.5,-1025"/>
<text text-anchor="start" x="375.5" y="-1033.2" font-family="Helvetica,sans-Serif" font-size="11.00">geometry[2147483647]</text>
<polygon fill="none" stroke="black" points="183.5,-1003 183.5,-1025 372.5,-1025 372.5,-1003 183.5,-1003"/>
<text text-anchor="start" x="203.5" y="-1011.2" font-family="Helvetica,sans-Serif" font-size="11.00">datumtijd</text>
<polygon fill="none" stroke="black" points="372.5,-1003 372.5,-1025 508.5,-1025 508.5,-1003 372.5,-1003"/>
<text text-anchor="start" x="375.5" y="-1011.2" font-family="Helvetica,sans-Serif" font-size="11.00">timestamptz[35,6]</text>
<polygon fill="none" stroke="black" points="183.5,-981 183.5,-1003 372.5,-1003 372.5,-981 183.5,-981"/>
<text text-anchor="start" x="203.5" y="-989.2" font-family="Helvetica,sans-Serif" font-size="11.00">gebruiker</text>
<polygon fill="none" stroke="black" points="372.5,-981 372.5,-1003 508.5,-1003 508.5,-981 372.5,-981"/>
<text text-anchor="start" x="375.5" y="-989.2" font-family="Helvetica,sans-Serif" font-size="11.00">varchar[255]</text>
<polygon fill="none" stroke="black" points="183.5,-959 183.5,-981 372.5,-981 372.5,-959 183.5,-959"/>
<text text-anchor="start" x="203.5" y="-967.2" font-family="Helvetica,sans-Serif" font-size="11.00">label</text>
<polygon fill="none" stroke="black" points="372.5,-959 372.5,-981 508.5,-981 508.5,-959 372.5,-959"/>
<text text-anchor="start" x="375.5" y="-967.2" font-family="Helvetica,sans-Serif" font-size="11.00">text[2147483647]</text>
<polygon fill="none" stroke="black" points="183.5,-937 183.5,-959 372.5,-959 372.5,-937 183.5,-937"/>
<text text-anchor="start" x="203.5" y="-945.2" font-family="Helvetica,sans-Serif" font-size="11.00">rotatie</text>
<polygon fill="none" stroke="black" points="372.5,-937 372.5,-959 508.5,-959 508.5,-937 372.5,-937"/>
<text text-anchor="start" x="375.5" y="-945.2" font-family="Helvetica,sans-Serif" font-size="11.00">int4[10]</text>
<polygon fill="none" stroke="black" points="183.5,-915 183.5,-937 372.5,-937 372.5,-915 183.5,-915"/>
<text text-anchor="start" x="203.5" y="-923.2" font-family="Helvetica,sans-Serif" font-size="11.00">bijzonderheden</text>
<polygon fill="none" stroke="black" points="372.5,-915 372.5,-937 508.5,-937 508.5,-915 372.5,-915"/>
<text text-anchor="start" x="375.5" y="-923.2" font-family="Helvetica,sans-Serif" font-size="11.00">text[2147483647]</text>
<polygon fill="none" stroke="black" points="183.5,-893 183.5,-915 372.5,-915 372.5,-893 183.5,-893"/>
<text text-anchor="start" x="203.5" y="-901.2" font-family="Helvetica,sans-Serif" font-size="11.00">plusinfo</text>
<polygon fill="none" stroke="black" points="372.5,-893 372.5,-915 508.5,-915 508.5,-893 372.5,-893"/>
<text text-anchor="start" x="375.5" y="-901.2" font-family="Helvetica,sans-Serif" font-size="11.00">jsonb[2147483647]</text>
<polygon fill="none" stroke="black" points="183.5,-871 183.5,-893 372.5,-893 372.5,-871 183.5,-871"/>
<text text-anchor="start" x="203.5" y="-879.2" font-family="Helvetica,sans-Serif" font-size="11.00">code</text>
<polygon fill="none" stroke="black" points="372.5,-871 372.5,-893 508.5,-893 508.5,-871 372.5,-871"/>
<text text-anchor="start" x="375.5" y="-879.2" font-family="Helvetica,sans-Serif" font-size="11.00">text[2147483647]</text>
<polygon fill="none" stroke="black" points="183.5,-849 183.5,-871 372.5,-871 372.5,-849 183.5,-849"/>
<text text-anchor="start" x="203.5" y="-857.2" font-family="Helvetica,sans-Serif" font-size="11.00">beheerder</text>
<polygon fill="none" stroke="black" points="372.5,-849 372.5,-871 508.5,-871 508.5,-849 372.5,-849"/>
<text text-anchor="start" x="375.5" y="-857.2" font-family="Helvetica,sans-Serif" font-size="11.00">text[2147483647]</text>
<polygon fill="none" stroke="black" points="183.5,-827 183.5,-849 372.5,-849 372.5,-827 183.5,-827"/>
<text text-anchor="start" x="203.5" y="-835.2" font-family="Helvetica,sans-Serif" font-size="11.00">particulier</text>
<polygon fill="none" stroke="black" points="372.5,-827 372.5,-849 508.5,-849 508.5,-827 372.5,-827"/>
<text text-anchor="start" x="375.5" y="-835.2" font-family="Helvetica,sans-Serif" font-size="11.00">text[2147483647]</text>
<polygon fill="none" stroke="black" points="183.5,-805 183.5,-827 372.5,-827 372.5,-805 183.5,-805"/>
<text text-anchor="start" x="203.5" y="-813.2" font-family="Helvetica,sans-Serif" font-size="11.00">adres</text>
<polygon fill="none" stroke="black" points="372.5,-805 372.5,-827 508.5,-827 508.5,-805 372.5,-805"/>
<text text-anchor="start" x="375.5" y="-813.2" font-family="Helvetica,sans-Serif" font-size="11.00">text[2147483647]</text>
<polygon fill="none" stroke="black" points="183.5,-783 183.5,-805 372.5,-805 372.5,-783 183.5,-783"/>
<text text-anchor="start" x="203.5" y="-791.2" font-family="Helvetica,sans-Serif" font-size="11.00">uitsluiten</text>
<polygon fill="none" stroke="black" points="372.5,-783 372.5,-805 508.5,-805 508.5,-783 372.5,-783"/>
<text text-anchor="start" x="375.5" y="-791.2" font-family="Helvetica,sans-Serif" font-size="11.00">bool[1]</text>
<polygon fill="none" stroke="black" points="183.5,-761 183.5,-783 372.5,-783 372.5,-761 183.5,-761"/>
<text text-anchor="start" x="203.5" y="-769.2" font-family="Helvetica,sans-Serif" font-size="11.00">revisie_frequentie</text>
<polygon fill="none" stroke="black" points="372.5,-761 372.5,-783 508.5,-783 508.5,-761 372.5,-761"/>
<text text-anchor="start" x="375.5" y="-769.2" font-family="Helvetica,sans-Serif" font-size="11.00">int2[5]</text>
<polygon fill="none" stroke="black" points="183.5,-739 183.5,-761 372.5,-761 372.5,-739 183.5,-739"/>
<image xlink:href="../../images/foreignKeys.png" width="11px" height="12px" preserveAspectRatio="xMinYMin meet" x="188.5" y="-756"/>
<text text-anchor="start" x="203.5" y="-747.2" font-family="Helvetica,sans-Serif" font-size="11.00">fase_id</text>
<polygon fill="none" stroke="black" points="372.5,-739 372.5,-761 508.5,-761 508.5,-739 372.5,-739"/>
<text text-anchor="start" x="375.5" y="-747.2" font-family="Helvetica,sans-Serif" font-size="11.00">int2[5]</text>
<polygon fill="none" stroke="black" points="183.5,-717 183.5,-739 372.5,-739 372.5,-717 183.5,-717"/>
<image xlink:href="../../images/foreignKeys.png" width="11px" height="12px" preserveAspectRatio="xMinYMin meet" x="188.5" y="-734"/>
<text text-anchor="start" x="203.5" y="-725.2" font-family="Helvetica,sans-Serif" font-size="11.00">symbool_id</text>
<polygon fill="none" stroke="black" points="372.5,-717 372.5,-739 508.5,-739 508.5,-717 372.5,-717"/>
<text text-anchor="start" x="375.5" y="-725.2" font-family="Helvetica,sans-Serif" font-size="11.00">int2[5]</text>
<polygon fill="none" stroke="black" points="183.5,-695 183.5,-717 372.5,-717 372.5,-695 183.5,-695"/>
<image xlink:href="../../images/foreignKeys.png" width="11px" height="12px" preserveAspectRatio="xMinYMin meet" x="188.5" y="-712"/>
<text text-anchor="start" x="203.5" y="-703.2" font-family="Helvetica,sans-Serif" font-size="11.00">gebied_id</text>
<polygon fill="none" stroke="black" points="372.5,-695 372.5,-717 508.5,-717 508.5,-695 372.5,-695"/>
<text text-anchor="start" x="375.5" y="-703.2" font-family="Helvetica,sans-Serif" font-size="11.00">int2[5]</text>
<polygon fill="none" stroke="black" points="183.5,-673 183.5,-695 372.5,-695 372.5,-673 183.5,-673"/>
<text text-anchor="start" x="203.5" y="-681.2" font-family="Helvetica,sans-Serif" font-size="11.00">opstelplaats</text>
<polygon fill="none" stroke="black" points="372.5,-673 372.5,-695 508.5,-695 508.5,-673 372.5,-673"/>
<text text-anchor="start" x="375.5" y="-681.2" font-family="Helvetica,sans-Serif" font-size="11.00">bool[1]</text>
<polygon fill="none" stroke="black" points="183.5,-651 183.5,-673 372.5,-673 372.5,-651 183.5,-651"/>
<text text-anchor="start" x="203.5" y="-659.2" font-family="Helvetica,sans-Serif" font-size="11.00">opstelplaats_locatie</text>
<polygon fill="none" stroke="black" points="372.5,-651 372.5,-673 508.5,-673 508.5,-651 372.5,-651"/>
<text text-anchor="start" x="375.5" y="-659.2" font-family="Helvetica,sans-Serif" font-size="11.00">text[2147483647]</text>
<polygon fill="none" stroke="black" points="183.5,-629 183.5,-651 372.5,-651 372.5,-629 183.5,-629"/>
<text text-anchor="start" x="203.5" y="-637.2" font-family="Helvetica,sans-Serif" font-size="11.00">markering</text>
<polygon fill="none" stroke="black" points="372.5,-629 372.5,-651 508.5,-651 508.5,-629 372.5,-629"/>
<text text-anchor="start" x="375.5" y="-637.2" font-family="Helvetica,sans-Serif" font-size="11.00">text[2147483647]</text>
<polygon fill="none" stroke="black" points="183.5,-607 183.5,-629 372.5,-629 372.5,-607 183.5,-607"/>
<text text-anchor="start" x="203.5" y="-615.2" font-family="Helvetica,sans-Serif" font-size="11.00">toegang</text>
<polygon fill="none" stroke="black" points="372.5,-607 372.5,-629 508.5,-629 508.5,-607 372.5,-607"/>
<text text-anchor="start" x="375.5" y="-615.2" font-family="Helvetica,sans-Serif" font-size="11.00">text[2147483647]</text>
<polygon fill="none" stroke="black" points="183.5,-585 183.5,-607 372.5,-607 372.5,-585 183.5,-585"/>
<text text-anchor="start" x="203.5" y="-593.2" font-family="Helvetica,sans-Serif" font-size="11.00">aanleg</text>
<polygon fill="none" stroke="black" points="372.5,-585 372.5,-607 508.5,-607 508.5,-585 372.5,-585"/>
<text text-anchor="start" x="375.5" y="-593.2" font-family="Helvetica,sans-Serif" font-size="11.00">date[13]</text>
<polygon fill="none" stroke="black" points="183.5,-563 183.5,-585 372.5,-585 372.5,-563 183.5,-563"/>
<text text-anchor="start" x="203.5" y="-571.2" font-family="Helvetica,sans-Serif" font-size="11.00">kenmerk</text>
<polygon fill="none" stroke="black" points="372.5,-563 372.5,-585 508.5,-585 508.5,-563 372.5,-563"/>
<text text-anchor="start" x="375.5" y="-571.2" font-family="Helvetica,sans-Serif" font-size="11.00">text[2147483647]</text>
<polygon fill="none" stroke="black" points="183.5,-541 183.5,-563 372.5,-563 372.5,-541 183.5,-541"/>
<text text-anchor="start" x="203.5" y="-549.2" font-family="Helvetica,sans-Serif" font-size="11.00">koppeling</text>
<polygon fill="none" stroke="black" points="372.5,-541 372.5,-563 508.5,-563 508.5,-541 372.5,-541"/>
<text text-anchor="start" x="375.5" y="-549.2" font-family="Helvetica,sans-Serif" font-size="11.00">text[2147483647]</text>
<polygon fill="none" stroke="black" points="183.5,-519 183.5,-541 372.5,-541 372.5,-519 183.5,-519"/>
<text text-anchor="start" x="203.5" y="-527.2" font-family="Helvetica,sans-Serif" font-size="11.00">aanrijdbeveiliging</text>
<polygon fill="none" stroke="black" points="372.5,-519 372.5,-541 508.5,-541 508.5,-519 372.5,-519"/>
<text text-anchor="start" x="375.5" y="-527.2" font-family="Helvetica,sans-Serif" font-size="11.00">bool[1]</text>
<polygon fill="none" stroke="black" points="183.5,-497 183.5,-519 372.5,-519 372.5,-497 183.5,-497"/>
<text text-anchor="start" x="203.5" y="-505.2" font-family="Helvetica,sans-Serif" font-size="11.00">opvoerpomp</text>
<polygon fill="none" stroke="black" points="372.5,-497 372.5,-519 508.5,-519 508.5,-497 372.5,-497"/>
<text text-anchor="start" x="375.5" y="-505.2" font-family="Helvetica,sans-Serif" font-size="11.00">bool[1]</text>
<polygon fill="none" stroke="black" points="183.5,-475 183.5,-497 372.5,-497 372.5,-475 183.5,-475"/>
<text text-anchor="start" x="203.5" y="-483.2" font-family="Helvetica,sans-Serif" font-size="11.00">elektra</text>
<polygon fill="none" stroke="black" points="372.5,-475 372.5,-497 508.5,-497 508.5,-475 372.5,-475"/>
<text text-anchor="start" x="375.5" y="-483.2" font-family="Helvetica,sans-Serif" font-size="11.00">text[2147483647]</text>
<polygon fill="none" stroke="black" points="183.5,-453 183.5,-475 372.5,-475 372.5,-453 183.5,-453"/>
<text text-anchor="start" x="203.5" y="-461.2" font-family="Helvetica,sans-Serif" font-size="11.00">slot</text>
<polygon fill="none" stroke="black" points="372.5,-453 372.5,-475 508.5,-475 508.5,-453 372.5,-453"/>
<text text-anchor="start" x="375.5" y="-461.2" font-family="Helvetica,sans-Serif" font-size="11.00">text[2147483647]</text>
<polygon fill="none" stroke="black" points="183.5,-431 183.5,-453 372.5,-453 372.5,-431 183.5,-431"/>
<text text-anchor="start" x="203.5" y="-439.2" font-family="Helvetica,sans-Serif" font-size="11.00">inspecteur</text>
<polygon fill="none" stroke="black" points="372.5,-431 372.5,-453 508.5,-453 508.5,-431 372.5,-431"/>
<text text-anchor="start" x="375.5" y="-439.2" font-family="Helvetica,sans-Serif" font-size="11.00">text[2147483647]</text>
<polygon fill="none" stroke="black" points="183.5,-409 183.5,-431 372.5,-431 372.5,-409 183.5,-409"/>
<text text-anchor="start" x="203.5" y="-417.2" font-family="Helvetica,sans-Serif" font-size="11.00">inspectie_datum</text>
<polygon fill="none" stroke="black" points="372.5,-409 372.5,-431 508.5,-431 508.5,-409 372.5,-409"/>
<text text-anchor="start" x="375.5" y="-417.2" font-family="Helvetica,sans-Serif" font-size="11.00">date[13]</text>
<polygon fill="none" stroke="black" points="183.5,-387 183.5,-409 372.5,-409 372.5,-387 183.5,-387"/>
<image xlink:href="../../images/foreignKeys.png" width="11px" height="12px" preserveAspectRatio="xMinYMin meet" x="188.5" y="-404"/>
<text text-anchor="start" x="203.5" y="-395.2" font-family="Helvetica,sans-Serif" font-size="11.00">inspectie_conditie_id</text>
<polygon fill="none" stroke="black" points="372.5,-387 372.5,-409 508.5,-409 508.5,-387 372.5,-387"/>
<text text-anchor="start" x="375.5" y="-395.2" font-family="Helvetica,sans-Serif" font-size="11.00">int2[5]</text>
<polygon fill="none" stroke="black" points="183.5,-365 183.5,-387 372.5,-387 372.5,-365 183.5,-365"/>
<text text-anchor="start" x="203.5" y="-373.2" font-family="Helvetica,sans-Serif" font-size="11.00">inspectie_opmerking</text>
<polygon fill="none" stroke="black" points="372.5,-365 372.5,-387 508.5,-387 508.5,-365 372.5,-365"/>
<text text-anchor="start" x="375.5" y="-373.2" font-family="Helvetica,sans-Serif" font-size="11.00">text[2147483647]</text>
<polygon fill="none" stroke="black" points="183.5,-343 183.5,-365 372.5,-365 372.5,-343 183.5,-343"/>
<text text-anchor="start" x="203.5" y="-351.2" font-family="Helvetica,sans-Serif" font-size="11.00">inspectie_plusinfo</text>
<polygon fill="none" stroke="black" points="372.5,-343 372.5,-365 508.5,-365 508.5,-343 372.5,-343"/>
<text text-anchor="start" x="375.5" y="-351.2" font-family="Helvetica,sans-Serif" font-size="11.00">jsonb[2147483647]</text>
<polygon fill="none" stroke="black" points="183.5,-321 183.5,-343 372.5,-343 372.5,-321 183.5,-321"/>
<text text-anchor="start" x="203.5" y="-329.2" font-family="Helvetica,sans-Serif" font-size="11.00">inspectie_opstelplaats</text>
<polygon fill="none" stroke="black" points="372.5,-321 372.5,-343 508.5,-343 508.5,-321 372.5,-321"/>
<text text-anchor="start" x="375.5" y="-329.2" font-family="Helvetica,sans-Serif" font-size="11.00">text[2147483647]</text>
<polygon fill="none" stroke="black" points="183.5,-299 183.5,-321 372.5,-321 372.5,-299 183.5,-299"/>
<text text-anchor="start" x="203.5" y="-307.2" font-family="Helvetica,sans-Serif" font-size="11.00">inspectie_certificaat</text>
<polygon fill="none" stroke="black" points="372.5,-299 372.5,-321 508.5,-321 508.5,-299 372.5,-299"/>
<text text-anchor="start" x="375.5" y="-307.2" font-family="Helvetica,sans-Serif" font-size="11.00">date[13]</text>
<polygon fill="none" stroke="black" points="183.5,-277 183.5,-299 372.5,-299 372.5,-277 183.5,-277"/>
<text text-anchor="start" x="203.5" y="-285.2" font-family="Helvetica,sans-Serif" font-size="11.00">inspectie_locatie</text>
<polygon fill="none" stroke="black" points="372.5,-277 372.5,-299 508.5,-299 508.5,-277 372.5,-277"/>
<text text-anchor="start" x="375.5" y="-285.2" font-family="Helvetica,sans-Serif" font-size="11.00">text[2147483647]</text>
<polygon fill="none" stroke="black" points="183.5,-255 183.5,-277 372.5,-277 372.5,-255 183.5,-255"/>
<text text-anchor="start" x="203.5" y="-263.2" font-family="Helvetica,sans-Serif" font-size="11.00">inspectie_markering</text>
<polygon fill="none" stroke="black" points="372.5,-255 372.5,-277 508.5,-277 508.5,-255 372.5,-255"/>
<text text-anchor="start" x="375.5" y="-263.2" font-family="Helvetica,sans-Serif" font-size="11.00">text[2147483647]</text>
<polygon fill="none" stroke="black" points="183.5,-233 183.5,-255 372.5,-255 372.5,-233 183.5,-233"/>
<text text-anchor="start" x="203.5" y="-241.2" font-family="Helvetica,sans-Serif" font-size="11.00">inspectie_beplanting</text>
<polygon fill="none" stroke="black" points="372.5,-233 372.5,-255 508.5,-255 508.5,-233 372.5,-233"/>
<text text-anchor="start" x="375.5" y="-241.2" font-family="Helvetica,sans-Serif" font-size="11.00">text[2147483647]</text>
<polygon fill="none" stroke="black" points="183.5,-211 183.5,-233 372.5,-233 372.5,-211 183.5,-211"/>
<text text-anchor="start" x="203.5" y="-219.2" font-family="Helvetica,sans-Serif" font-size="11.00">inspectie_obstakels</text>
<polygon fill="none" stroke="black" points="372.5,-211 372.5,-233 508.5,-233 508.5,-211 372.5,-211"/>
<text text-anchor="start" x="375.5" y="-219.2" font-family="Helvetica,sans-Serif" font-size="11.00">text[2147483647]</text>
<polygon fill="none" stroke="black" points="183.5,-189 183.5,-211 372.5,-211 372.5,-189 183.5,-189"/>
<text text-anchor="start" x="203.5" y="-197.2" font-family="Helvetica,sans-Serif" font-size="11.00">inspectie_bereikbaarheid</text>
<polygon fill="none" stroke="black" points="372.5,-189 372.5,-211 508.5,-211 508.5,-189 372.5,-189"/>
<text text-anchor="start" x="375.5" y="-197.2" font-family="Helvetica,sans-Serif" font-size="11.00">text[2147483647]</text>
<polygon fill="none" stroke="black" points="183.5,-167 183.5,-189 372.5,-189 372.5,-167 183.5,-167"/>
<text text-anchor="start" x="203.5" y="-175.2" font-family="Helvetica,sans-Serif" font-size="11.00">inspectie_elektra</text>
<polygon fill="none" stroke="black" points="372.5,-167 372.5,-189 508.5,-189 508.5,-167 372.5,-167"/>
<text text-anchor="start" x="375.5" y="-175.2" font-family="Helvetica,sans-Serif" font-size="11.00">text[2147483647]</text>
<polygon fill="none" stroke="black" points="183.5,-145 183.5,-167 372.5,-167 372.5,-145 183.5,-145"/>
<text text-anchor="start" x="203.5" y="-153.2" font-family="Helvetica,sans-Serif" font-size="11.00">inspectie_aanrijdbeveiliging</text>
<polygon fill="none" stroke="black" points="372.5,-145 372.5,-167 508.5,-167 508.5,-145 372.5,-145"/>
<text text-anchor="start" x="375.5" y="-153.2" font-family="Helvetica,sans-Serif" font-size="11.00">text[2147483647]</text>
<polygon fill="none" stroke="black" points="183.5,-123 183.5,-145 372.5,-145 372.5,-123 183.5,-123"/>
<text text-anchor="start" x="203.5" y="-131.2" font-family="Helvetica,sans-Serif" font-size="11.00">inspectie_slot</text>
<polygon fill="none" stroke="black" points="372.5,-123 372.5,-145 508.5,-145 508.5,-123 372.5,-123"/>
<text text-anchor="start" x="375.5" y="-131.2" font-family="Helvetica,sans-Serif" font-size="11.00">text[2147483647]</text>
<polygon fill="none" stroke="black" points="183.5,-101 183.5,-123 372.5,-123 372.5,-101 183.5,-101"/>
<text text-anchor="start" x="203.5" y="-109.2" font-family="Helvetica,sans-Serif" font-size="11.00">inspectie_deksel</text>
<polygon fill="none" stroke="black" points="372.5,-101 372.5,-123 508.5,-123 508.5,-101 372.5,-101"/>
<text text-anchor="start" x="375.5" y="-109.2" font-family="Helvetica,sans-Serif" font-size="11.00">text[2147483647]</text>
<polygon fill="none" stroke="black" points="183.5,-79 183.5,-101 372.5,-101 372.5,-79 183.5,-79"/>
<text text-anchor="start" x="203.5" y="-87.2" font-family="Helvetica,sans-Serif" font-size="11.00">inspectie_rubber</text>
<polygon fill="none" stroke="black" points="372.5,-79 372.5,-101 508.5,-101 508.5,-79 372.5,-79"/>
<text text-anchor="start" x="375.5" y="-87.2" font-family="Helvetica,sans-Serif" font-size="11.00">text[2147483647]</text>
<polygon fill="none" stroke="black" points="183.5,-57 183.5,-79 372.5,-79 372.5,-57 183.5,-57"/>
<text text-anchor="start" x="203.5" y="-65.2" font-family="Helvetica,sans-Serif" font-size="11.00">inspectie_koppeling</text>
<polygon fill="none" stroke="black" points="372.5,-57 372.5,-79 508.5,-79 508.5,-57 372.5,-57"/>
<text text-anchor="start" x="375.5" y="-65.2" font-family="Helvetica,sans-Serif" font-size="11.00">text[2147483647]</text>
<polygon fill="#ffffff" stroke="transparent" points="183.5,-39 183.5,-57 283.5,-57 283.5,-39 183.5,-39"/>
<polygon fill="none" stroke="black" points="183.5,-39 183.5,-57 283.5,-57 283.5,-39 183.5,-39"/>
<text text-anchor="start" x="186.5" y="-45.2" font-family="Helvetica,sans-Serif" font-size="11.00">&lt; 4</text>
<polygon fill="#ffffff" stroke="transparent" points="283.5,-39 283.5,-57 372.5,-57 372.5,-39 283.5,-39"/>
<polygon fill="none" stroke="black" points="283.5,-39 283.5,-57 372.5,-57 372.5,-39 283.5,-39"/>
<text text-anchor="start" x="361.5" y="-45.2" font-family="Helvetica,sans-Serif" font-size="11.00"> &#160;</text>
<polygon fill="#ffffff" stroke="transparent" points="372.5,-39 372.5,-57 508.5,-57 508.5,-39 372.5,-39"/>
<polygon fill="none" stroke="black" points="372.5,-39 372.5,-57 508.5,-57 508.5,-39 372.5,-39"/>
<text text-anchor="start" x="485.5" y="-45.2" font-family="Helvetica,sans-Serif" font-size="11.00">0 &gt;</text>
<polygon fill="none" stroke="black" stroke-width="2" points="182,-38 182,-1092 509,-1092 509,-38 182,-38"/>
</a>
</g>
</g>
<!-- roi.fase -->
<g id="node2" class="node">
<title>roi.fase</title>
<g id="a_node2"><a xlink:href="../../../roi/tables/fase.html" xlink:title="roi.fase" target="_top">
<polygon fill="#ffffff" stroke="transparent" points="20.5,-778 20.5,-836 119.5,-836 119.5,-778 20.5,-778"/>
<polygon fill="#f5f5f5" stroke="transparent" points="21,-814 21,-836 120,-836 120,-814 21,-814"/>
<polygon fill="none" stroke="black" points="21,-814 21,-836 120,-836 120,-814 21,-814"/>
<text text-anchor="start" x="26" y="-823.2" font-family="Helvetica,sans-Serif" font-weight="bold" font-size="11.00">roi.fase</text>
<text text-anchor="start" x="78" y="-822.2" font-family="Helvetica,sans-Serif" font-size="11.00">[table]</text>
<polygon fill="none" stroke="black" points="21,-796 21,-814 120,-814 120,-796 21,-796"/>
<text text-anchor="start" x="24" y="-802.2" font-family="Helvetica,sans-Serif" font-size="11.00">...</text>
<polygon fill="#ffffff" stroke="transparent" points="21,-778 21,-796 57,-796 57,-778 21,-778"/>
<polygon fill="none" stroke="black" points="21,-778 21,-796 57,-796 57,-778 21,-778"/>
<text text-anchor="start" x="24" y="-784.2" font-family="Helvetica,sans-Serif" font-size="11.00"> &#160;</text>
<polygon fill="#ffffff" stroke="transparent" points="57,-778 57,-796 82,-796 82,-778 57,-778"/>
<polygon fill="none" stroke="black" points="57,-778 57,-796 82,-796 82,-778 57,-778"/>
<text text-anchor="start" x="71" y="-784.2" font-family="Helvetica,sans-Serif" font-size="11.00"> &#160;</text>
<polygon fill="#ffffff" stroke="transparent" points="82,-778 82,-796 120,-796 120,-778 82,-778"/>
<polygon fill="none" stroke="black" points="82,-778 82,-796 120,-796 120,-778 82,-778"/>
<text text-anchor="start" x="97" y="-784.2" font-family="Helvetica,sans-Serif" font-size="11.00">5 &gt;</text>
</a>
</g>
</g>
<!-- brandput&#45;&gt;roi.fase -->
<g id="edge1" class="edge">
<title>brandput:w&#45;&gt;roi.fase:e</title>
<path fill="none" stroke="black" d="M168.72,-754.52C157.94,-759.22 142.81,-767.01 127.68,-775.17"/>
<polygon fill="black" stroke="black" points="174.9,-752.49 183.62,-753.42 178.7,-751.25 182.5,-750 182.5,-750 182.5,-750 178.7,-751.25 181.38,-746.58 174.9,-752.49 174.9,-752.49"/>
<ellipse fill="none" stroke="black" cx="171.86" cy="-753.49" rx="3.2" ry="3.2"/>
</g>
<!-- gebied -->
<g id="node3" class="node">
<title>gebied</title>
<g id="a_node3"><a xlink:href="../../tables/gebied.html" xlink:title="gebied" target="_top">
<polygon fill="#ffffff" stroke="transparent" points="21,-598 21,-678 119,-678 119,-598 21,-598"/>
<polygon fill="#f5f5f5" stroke="transparent" points="21,-656 21,-678 119,-678 119,-656 21,-656"/>
<polygon fill="none" stroke="black" points="21,-656 21,-678 119,-678 119,-656 21,-656"/>
<text text-anchor="start" x="26" y="-665.2" font-family="Helvetica,sans-Serif" font-weight="bold" font-size="11.00">gebied</text>
<text text-anchor="start" x="77" y="-664.2" font-family="Helvetica,sans-Serif" font-size="11.00">[table]</text>
<polygon fill="none" stroke="black" points="21,-634 21,-656 119,-656 119,-634 21,-634"/>
<image xlink:href="../../images/primaryKeys.png" width="11px" height="12px" preserveAspectRatio="xMinYMin meet" x="26" y="-651"/>
<text text-anchor="start" x="41" y="-642.2" font-family="Helvetica,sans-Serif" font-size="11.00">id</text>
<polygon fill="none" stroke="black" points="21,-616 21,-634 119,-634 119,-616 21,-616"/>
<text text-anchor="start" x="24" y="-622.2" font-family="Helvetica,sans-Serif" font-size="11.00">...</text>
<polygon fill="#ffffff" stroke="transparent" points="21,-598 21,-616 57,-616 57,-598 21,-598"/>
<polygon fill="none" stroke="black" points="21,-598 21,-616 57,-616 57,-598 21,-598"/>
<text text-anchor="start" x="24" y="-604.2" font-family="Helvetica,sans-Serif" font-size="11.00"> &#160;</text>
<polygon fill="#ffffff" stroke="transparent" points="57,-598 57,-616 82,-616 82,-598 57,-598"/>
<polygon fill="none" stroke="black" points="57,-598 57,-616 82,-616 82,-598 57,-598"/>
<text text-anchor="start" x="71" y="-604.2" font-family="Helvetica,sans-Serif" font-size="11.00"> &#160;</text>
<polygon fill="#ffffff" stroke="transparent" points="82,-598 82,-616 119,-616 119,-598 82,-598"/>
<polygon fill="none" stroke="black" points="82,-598 82,-616 119,-616 119,-598 82,-598"/>
<text text-anchor="start" x="96" y="-604.2" font-family="Helvetica,sans-Serif" font-size="11.00">5 &gt;</text>
</a>
</g>
</g>
<!-- brandput&#45;&gt;gebied -->
<g id="edge2" class="edge">
<title>brandput:w&#45;&gt;gebied:e</title>
<path fill="none" stroke="black" d="M168.43,-702.37C146.99,-689.23 153.05,-645 120,-645"/>
<polygon fill="black" stroke="black" points="174.75,-704 181.6,-709.49 178.63,-705 182.5,-706 182.5,-706 182.5,-706 178.63,-705 183.4,-702.51 174.75,-704 174.75,-704"/>
<ellipse fill="none" stroke="black" cx="171.66" cy="-703.2" rx="3.2" ry="3.2"/>
</g>
<!-- conditie -->
<g id="node4" class="node">
<title>conditie</title>
<g id="a_node4"><a xlink:href="../../tables/conditie.html" xlink:title="conditie" target="_top">
<polygon fill="#ffffff" stroke="transparent" points="19.5,-351 19.5,-431 120.5,-431 120.5,-351 19.5,-351"/>
<polygon fill="#f5f5f5" stroke="transparent" points="20,-409 20,-431 121,-431 121,-409 20,-409"/>
<polygon fill="none" stroke="black" points="20,-409 20,-431 121,-431 121,-409 20,-409"/>
<text text-anchor="start" x="25" y="-418.2" font-family="Helvetica,sans-Serif" font-weight="bold" font-size="11.00">conditie</text>
<text text-anchor="start" x="79" y="-417.2" font-family="Helvetica,sans-Serif" font-size="11.00">[table]</text>
<polygon fill="none" stroke="black" points="20,-387 20,-409 121,-409 121,-387 20,-387"/>
<image xlink:href="../../images/primaryKeys.png" width="11px" height="12px" preserveAspectRatio="xMinYMin meet" x="25" y="-404"/>
<text text-anchor="start" x="42" y="-395.2" font-family="Helvetica,sans-Serif" font-size="11.00">id</text>
<polygon fill="none" stroke="black" points="20,-369 20,-387 121,-387 121,-369 20,-369"/>
<text text-anchor="start" x="23" y="-375.2" font-family="Helvetica,sans-Serif" font-size="11.00">...</text>
<polygon fill="#ffffff" stroke="transparent" points="20,-351 20,-369 57,-369 57,-351 20,-351"/>
<polygon fill="none" stroke="black" points="20,-351 20,-369 57,-369 57,-351 20,-351"/>
<text text-anchor="start" x="23" y="-357.2" font-family="Helvetica,sans-Serif" font-size="11.00"> &#160;</text>
<polygon fill="#ffffff" stroke="transparent" points="57,-351 57,-369 83,-369 83,-351 57,-351"/>
<polygon fill="none" stroke="black" points="57,-351 57,-369 83,-369 83,-351 57,-351"/>
<text text-anchor="start" x="72" y="-357.2" font-family="Helvetica,sans-Serif" font-size="11.00"> &#160;</text>
<polygon fill="#ffffff" stroke="transparent" points="83,-351 83,-369 121,-369 121,-351 83,-351"/>
<polygon fill="none" stroke="black" points="83,-351 83,-369 121,-369 121,-351 83,-351"/>
<text text-anchor="start" x="98" y="-357.2" font-family="Helvetica,sans-Serif" font-size="11.00">5 &gt;</text>
</a>
</g>
</g>
<!-- brandput&#45;&gt;conditie -->
<g id="edge3" class="edge">
<title>brandput:w&#45;&gt;conditie:e</title>
<path fill="none" stroke="black" d="M167.8,-398C151.88,-398 143.22,-398 122,-398"/>
<polygon fill="black" stroke="black" points="174.5,-398 182.5,-401.6 178.5,-398 182.5,-398 182.5,-398 182.5,-398 178.5,-398 182.5,-394.4 174.5,-398 174.5,-398"/>
<ellipse fill="none" stroke="black" cx="171.3" cy="-398" rx="3.2" ry="3.2"/>
</g>
<!-- roi.symbool -->
<g id="node5" class="node">
<title>roi.symbool</title>
<g id="a_node5"><a xlink:href="../../../roi/tables/symbool.html" xlink:title="roi.symbool" target="_top">
<polygon fill="#ffffff" stroke="transparent" points="8,-699 8,-757 132,-757 132,-699 8,-699"/>
<polygon fill="#f5f5f5" stroke="transparent" points="8,-735 8,-757 132,-757 132,-735 8,-735"/>
<polygon fill="none" stroke="black" points="8,-735 8,-757 132,-757 132,-735 8,-735"/>
<text text-anchor="start" x="13" y="-744.2" font-family="Helvetica,sans-Serif" font-weight="bold" font-size="11.00">roi.symbool</text>
<text text-anchor="start" x="90" y="-743.2" font-family="Helvetica,sans-Serif" font-size="11.00">[table]</text>
<polygon fill="none" stroke="black" points="8,-717 8,-735 132,-735 132,-717 8,-717"/>
<text text-anchor="start" x="11" y="-723.2" font-family="Helvetica,sans-Serif" font-size="11.00">...</text>
<polygon fill="#ffffff" stroke="transparent" points="8,-699 8,-717 57,-717 57,-699 8,-699"/>
<polygon fill="none" stroke="black" points="8,-699 8,-717 57,-717 57,-699 8,-699"/>
<text text-anchor="start" x="11" y="-705.2" font-family="Helvetica,sans-Serif" font-size="11.00"> &#160;</text>
<polygon fill="#ffffff" stroke="transparent" points="57,-699 57,-717 88,-717 88,-699 57,-699"/>
<polygon fill="none" stroke="black" points="57,-699 57,-717 88,-717 88,-699 57,-699"/>
<text text-anchor="start" x="77" y="-705.2" font-family="Helvetica,sans-Serif" font-size="11.00"> &#160;</text>
<polygon fill="#ffffff" stroke="transparent" points="88,-699 88,-717 132,-717 132,-699 88,-699"/>
<polygon fill="none" stroke="black" points="88,-699 88,-717 132,-717 132,-699 88,-699"/>
<text text-anchor="start" x="109" y="-705.2" font-family="Helvetica,sans-Serif" font-size="11.00">5 &gt;</text>
</a>
</g>
</g>
<!-- brandput&#45;&gt;roi.symbool -->
<g id="edge4" class="edge">
<title>brandput:w&#45;&gt;roi.symbool:e</title>
<path fill="none" stroke="black" d="M167.83,-728C158.67,-728 149.35,-728 140.29,-728"/>
<polygon fill="black" stroke="black" points="174.5,-728 182.5,-731.6 178.5,-728 182.5,-728 182.5,-728 182.5,-728 178.5,-728 182.5,-724.4 174.5,-728 174.5,-728"/>
<ellipse fill="none" stroke="black" cx="171.3" cy="-728" rx="3.2" ry="3.2"/>
</g>
</g>
</svg>
