<?xml version="1.0" encoding="UTF-8" standalone="no"?>
<!DOCTYPE svg PUBLIC "-//W3C//DTD SVG 1.1//EN"
 "http://www.w3.org/Graphics/SVG/1.1/DTD/svg11.dtd">
<!-- Generated by graphviz version 2.40.1 (20161225.0304)
 -->
<!-- Title: oneDegreeRelationshipsDiagram Pages: 1 -->
<svg width="501pt" height="1218pt"
 viewBox="0.00 0.00 501.00 1218.20" xmlns="http://www.w3.org/2000/svg" xmlns:xlink="http://www.w3.org/1999/xlink">
<g id="graph0" class="graph" transform="scale(1 1) rotate(0) translate(4 1214.2)">
<title>oneDegreeRelationshipsDiagram</title>
<polygon fill="#ffffff" stroke="transparent" points="-4,4 -4,-1214.2 497,-1214.2 497,4 -4,4"/>
<text text-anchor="middle" x="72.4936" y="-7.3" font-family="Helvetica,sans-Serif" font-size="11.00" fill="#000000">Generated by SchemaSpy</text>
<!-- brandkraan_prive -->
<g id="node1" class="node">
<title>brandkraan_prive</title>
<g id="a_node1"><a xlink:href="../../tables/brandkraan_prive.html" xlink:title="brandkraan_prive" target="_top">
<polygon fill="#ffffff" stroke="transparent" points="164,-38.2 164,-1206.2 485,-1206.2 485,-38.2 164,-38.2"/>
<polygon fill="#f5f5f5" stroke="transparent" points="166.5,-1181.2 166.5,-1204.2 483.5,-1204.2 483.5,-1181.2 166.5,-1181.2"/>
<polygon fill="none" stroke="#000000" points="166.5,-1181.2 166.5,-1204.2 483.5,-1204.2 483.5,-1181.2 166.5,-1181.2"/>
<text text-anchor="start" x="171.5" y="-1189.8" font-family="Helvetica,sans-Serif" font-weight="bold" font-size="11.00" fill="#000000">brandkraan_prive</text>
<text text-anchor="start" x="448.5437" y="-1189.3" font-family="Helvetica,sans-Serif" font-size="11.00" fill="#000000">[table]</text>
<polygon fill="none" stroke="#000000" points="166.5,-1159.2 166.5,-1181.2 364.5,-1181.2 364.5,-1159.2 166.5,-1159.2"/>
<image xlink:href="../../images/primaryKeys.png" width="11px" height="12px" preserveAspectRatio="xMinYMin meet" x="171.5" y="-1176.2"/>
<text text-anchor="start" x="186.5" y="-1166.3" font-family="Helvetica,sans-Serif" font-size="11.00" fill="#000000">uuid</text>
<polygon fill="none" stroke="#000000" points="364.5,-1159.2 364.5,-1181.2 483.5,-1181.2 483.5,-1159.2 364.5,-1159.2"/>
<text text-anchor="start" x="367.5" y="-1166.9" font-family="Helvetica,sans-Serif" font-size="11.00" fill="#000000">uuid[2147483647]</text>
<polygon fill="#ffffff" stroke="transparent" points="166.5,-1137.2 166.5,-1159.2 364.5,-1159.2 364.5,-1137.2 166.5,-1137.2"/>
<polygon fill="none" stroke="#000000" points="166.5,-1137.2 166.5,-1159.2 364.5,-1159.2 364.5,-1137.2 166.5,-1137.2"/>
<text text-anchor="start" x="186.5" y="-1144.3" font-family="Helvetica,sans-Serif" font-size="11.00" fill="#000000">geom</text>
<polygon fill="none" stroke="#000000" points="364.5,-1137.2 364.5,-1159.2 483.5,-1159.2 483.5,-1137.2 364.5,-1137.2"/>
<text text-anchor="start" x="367.4485" y="-1144.9" font-family="Helvetica,sans-Serif" font-size="11.00" fill="#000000">geometry[2147483647]</text>
<polygon fill="none" stroke="#000000" points="166.5,-1115.2 166.5,-1137.2 364.5,-1137.2 364.5,-1115.2 166.5,-1115.2"/>
<text text-anchor="start" x="186.5" y="-1122.3" font-family="Helvetica,sans-Serif" font-size="11.00" fill="#000000">datumtijd</text>
<polygon fill="none" stroke="#000000" points="364.5,-1115.2 364.5,-1137.2 483.5,-1137.2 483.5,-1115.2 364.5,-1115.2"/>
<text text-anchor="start" x="367.5" y="-1122.9" font-family="Helvetica,sans-Serif" font-size="11.00" fill="#000000">timestamptz[35,6]</text>
<polygon fill="none" stroke="#000000" points="166.5,-1093.2 166.5,-1115.2 364.5,-1115.2 364.5,-1093.2 166.5,-1093.2"/>
<text text-anchor="start" x="186.5" y="-1100.3" font-family="Helvetica,sans-Serif" font-size="11.00" fill="#000000">gebruiker</text>
<polygon fill="none" stroke="#000000" points="364.5,-1093.2 364.5,-1115.2 483.5,-1115.2 483.5,-1093.2 364.5,-1093.2"/>
<text text-anchor="start" x="367.5" y="-1100.9" font-family="Helvetica,sans-Serif" font-size="11.00" fill="#000000">varchar[255]</text>
<polygon fill="none" stroke="#000000" points="166.5,-1071.2 166.5,-1093.2 364.5,-1093.2 364.5,-1071.2 166.5,-1071.2"/>
<text text-anchor="start" x="186.5" y="-1078.3" font-family="Helvetica,sans-Serif" font-size="11.00" fill="#000000">label</text>
<polygon fill="none" stroke="#000000" points="364.5,-1071.2 364.5,-1093.2 483.5,-1093.2 483.5,-1071.2 364.5,-1071.2"/>
<text text-anchor="start" x="367.5" y="-1078.9" font-family="Helvetica,sans-Serif" font-size="11.00" fill="#000000">text[2147483647]</text>
<polygon fill="none" stroke="#000000" points="166.5,-1049.2 166.5,-1071.2 364.5,-1071.2 364.5,-1049.2 166.5,-1049.2"/>
<text text-anchor="start" x="186.5" y="-1056.3" font-family="Helvetica,sans-Serif" font-size="11.00" fill="#000000">rotatie</text>
<polygon fill="none" stroke="#000000" points="364.5,-1049.2 364.5,-1071.2 483.5,-1071.2 483.5,-1049.2 364.5,-1049.2"/>
<text text-anchor="start" x="367.5" y="-1056.9" font-family="Helvetica,sans-Serif" font-size="11.00" fill="#000000">int4[10]</text>
<polygon fill="none" stroke="#000000" points="166.5,-1027.2 166.5,-1049.2 364.5,-1049.2 364.5,-1027.2 166.5,-1027.2"/>
<text text-anchor="start" x="186.5" y="-1034.3" font-family="Helvetica,sans-Serif" font-size="11.00" fill="#000000">bijzonderheden</text>
<polygon fill="none" stroke="#000000" points="364.5,-1027.2 364.5,-1049.2 483.5,-1049.2 483.5,-1027.2 364.5,-1027.2"/>
<text text-anchor="start" x="367.5" y="-1034.9" font-family="Helvetica,sans-Serif" font-size="11.00" fill="#000000">text[2147483647]</text>
<polygon fill="none" stroke="#000000" points="166.5,-1005.2 166.5,-1027.2 364.5,-1027.2 364.5,-1005.2 166.5,-1005.2"/>
<text text-anchor="start" x="186.5" y="-1012.3" font-family="Helvetica,sans-Serif" font-size="11.00" fill="#000000">plusinfo</text>
<polygon fill="none" stroke="#000000" points="364.5,-1005.2 364.5,-1027.2 483.5,-1027.2 483.5,-1005.2 364.5,-1005.2"/>
<text text-anchor="start" x="367.5" y="-1012.9" font-family="Helvetica,sans-Serif" font-size="11.00" fill="#000000">jsonb[2147483647]</text>
<polygon fill="none" stroke="#000000" points="166.5,-983.2 166.5,-1005.2 364.5,-1005.2 364.5,-983.2 166.5,-983.2"/>
<text text-anchor="start" x="186.5" y="-990.3" font-family="Helvetica,sans-Serif" font-size="11.00" fill="#000000">aanleg</text>
<polygon fill="none" stroke="#000000" points="364.5,-983.2 364.5,-1005.2 483.5,-1005.2 483.5,-983.2 364.5,-983.2"/>
<text text-anchor="start" x="367.5" y="-990.9" font-family="Helvetica,sans-Serif" font-size="11.00" fill="#000000">date[13]</text>
<polygon fill="none" stroke="#000000" points="166.5,-961.2 166.5,-983.2 364.5,-983.2 364.5,-961.2 166.5,-961.2"/>
<text text-anchor="start" x="186.5" y="-968.3" font-family="Helvetica,sans-Serif" font-size="11.00" fill="#000000">code</text>
<polygon fill="none" stroke="#000000" points="364.5,-961.2 364.5,-983.2 483.5,-983.2 483.5,-961.2 364.5,-961.2"/>
<text text-anchor="start" x="367.5" y="-968.9" font-family="Helvetica,sans-Serif" font-size="11.00" fill="#000000">text[2147483647]</text>
<polygon fill="none" stroke="#000000" points="166.5,-939.2 166.5,-961.2 364.5,-961.2 364.5,-939.2 166.5,-939.2"/>
<text text-anchor="start" x="186.5" y="-946.3" font-family="Helvetica,sans-Serif" font-size="11.00" fill="#000000">beheerder</text>
<polygon fill="none" stroke="#000000" points="364.5,-939.2 364.5,-961.2 483.5,-961.2 483.5,-939.2 364.5,-939.2"/>
<text text-anchor="start" x="367.5" y="-946.9" font-family="Helvetica,sans-Serif" font-size="11.00" fill="#000000">text[2147483647]</text>
<polygon fill="none" stroke="#000000" points="166.5,-917.2 166.5,-939.2 364.5,-939.2 364.5,-917.2 166.5,-917.2"/>
<text text-anchor="start" x="186.5" y="-924.3" font-family="Helvetica,sans-Serif" font-size="11.00" fill="#000000">particulier</text>
<polygon fill="none" stroke="#000000" points="364.5,-917.2 364.5,-939.2 483.5,-939.2 483.5,-917.2 364.5,-917.2"/>
<text text-anchor="start" x="367.5" y="-924.9" font-family="Helvetica,sans-Serif" font-size="11.00" fill="#000000">text[2147483647]</text>
<polygon fill="none" stroke="#000000" points="166.5,-895.2 166.5,-917.2 364.5,-917.2 364.5,-895.2 166.5,-895.2"/>
<text text-anchor="start" x="186.5" y="-902.3" font-family="Helvetica,sans-Serif" font-size="11.00" fill="#000000">adres</text>
<polygon fill="none" stroke="#000000" points="364.5,-895.2 364.5,-917.2 483.5,-917.2 483.5,-895.2 364.5,-895.2"/>
<text text-anchor="start" x="367.5" y="-902.9" font-family="Helvetica,sans-Serif" font-size="11.00" fill="#000000">text[2147483647]</text>
<polygon fill="none" stroke="#000000" points="166.5,-873.2 166.5,-895.2 364.5,-895.2 364.5,-873.2 166.5,-873.2"/>
<text text-anchor="start" x="186.5" y="-880.3" font-family="Helvetica,sans-Serif" font-size="11.00" fill="#000000">onderhoud</text>
<polygon fill="none" stroke="#000000" points="364.5,-873.2 364.5,-895.2 483.5,-895.2 483.5,-873.2 364.5,-873.2"/>
<text text-anchor="start" x="367.5" y="-880.9" font-family="Helvetica,sans-Serif" font-size="11.00" fill="#000000">tstzrange[2147483647]</text>
<polygon fill="none" stroke="#000000" points="166.5,-851.2 166.5,-873.2 364.5,-873.2 364.5,-851.2 166.5,-851.2"/>
<text text-anchor="start" x="186.5" y="-858.3" font-family="Helvetica,sans-Serif" font-size="11.00" fill="#000000">revisie_frequentie</text>
<polygon fill="none" stroke="#000000" points="364.5,-851.2 364.5,-873.2 483.5,-873.2 483.5,-851.2 364.5,-851.2"/>
<text text-anchor="start" x="367.5" y="-858.9" font-family="Helvetica,sans-Serif" font-size="11.00" fill="#000000">int2[5]</text>
<polygon fill="none" stroke="#000000" points="166.5,-829.2 166.5,-851.2 364.5,-851.2 364.5,-829.2 166.5,-829.2"/>
<image xlink:href="../../images/foreignKeys.png" width="11px" height="12px" preserveAspectRatio="xMinYMin meet" x="171.5" y="-846.2"/>
<text text-anchor="start" x="186.5" y="-836.3" font-family="Helvetica,sans-Serif" font-size="11.00" fill="#000000">fase_id</text>
<polygon fill="none" stroke="#000000" points="364.5,-829.2 364.5,-851.2 483.5,-851.2 483.5,-829.2 364.5,-829.2"/>
<text text-anchor="start" x="367.5" y="-836.9" font-family="Helvetica,sans-Serif" font-size="11.00" fill="#000000">int2[5]</text>
<polygon fill="none" stroke="#000000" points="166.5,-807.2 166.5,-829.2 364.5,-829.2 364.5,-807.2 166.5,-807.2"/>
<image xlink:href="../../images/foreignKeys.png" width="11px" height="12px" preserveAspectRatio="xMinYMin meet" x="171.5" y="-824.2"/>
<text text-anchor="start" x="186.5" y="-814.3" font-family="Helvetica,sans-Serif" font-size="11.00" fill="#000000">symbool_id</text>
<polygon fill="none" stroke="#000000" points="364.5,-807.2 364.5,-829.2 483.5,-829.2 483.5,-807.2 364.5,-807.2"/>
<text text-anchor="start" x="367.5" y="-814.9" font-family="Helvetica,sans-Serif" font-size="11.00" fill="#000000">int2[5]</text>
<polygon fill="none" stroke="#000000" points="166.5,-785.2 166.5,-807.2 364.5,-807.2 364.5,-785.2 166.5,-785.2"/>
<image xlink:href="../../images/foreignKeys.png" width="11px" height="12px" preserveAspectRatio="xMinYMin meet" x="171.5" y="-802.2"/>
<text text-anchor="start" x="186.5" y="-792.3" font-family="Helvetica,sans-Serif" font-size="11.00" fill="#000000">gebied_id</text>
<polygon fill="none" stroke="#000000" points="364.5,-785.2 364.5,-807.2 483.5,-807.2 483.5,-785.2 364.5,-785.2"/>
<text text-anchor="start" x="367.5" y="-792.9" font-family="Helvetica,sans-Serif" font-size="11.00" fill="#000000">int2[5]</text>
<polygon fill="none" stroke="#000000" points="166.5,-763.2 166.5,-785.2 364.5,-785.2 364.5,-763.2 166.5,-763.2"/>
<text text-anchor="start" x="186.5" y="-770.3" font-family="Helvetica,sans-Serif" font-size="11.00" fill="#000000">locatie</text>
<polygon fill="none" stroke="#000000" points="364.5,-763.2 364.5,-785.2 483.5,-785.2 483.5,-763.2 364.5,-763.2"/>
<text text-anchor="start" x="367.5" y="-770.9" font-family="Helvetica,sans-Serif" font-size="11.00" fill="#000000">text[2147483647]</text>
<polygon fill="none" stroke="#000000" points="166.5,-741.2 166.5,-763.2 364.5,-763.2 364.5,-741.2 166.5,-741.2"/>
<text text-anchor="start" x="186.5" y="-748.3" font-family="Helvetica,sans-Serif" font-size="11.00" fill="#000000">opstelplaats</text>
<polygon fill="none" stroke="#000000" points="364.5,-741.2 364.5,-763.2 483.5,-763.2 483.5,-741.2 364.5,-741.2"/>
<text text-anchor="start" x="367.5" y="-748.9" font-family="Helvetica,sans-Serif" font-size="11.00" fill="#000000">bool[1]</text>
<polygon fill="none" stroke="#000000" points="166.5,-719.2 166.5,-741.2 364.5,-741.2 364.5,-719.2 166.5,-719.2"/>
<text text-anchor="start" x="186.5" y="-726.3" font-family="Helvetica,sans-Serif" font-size="11.00" fill="#000000">opstelplaats_locatie</text>
<polygon fill="none" stroke="#000000" points="364.5,-719.2 364.5,-741.2 483.5,-741.2 483.5,-719.2 364.5,-719.2"/>
<text text-anchor="start" x="367.5" y="-726.9" font-family="Helvetica,sans-Serif" font-size="11.00" fill="#000000">text[2147483647]</text>
<polygon fill="none" stroke="#000000" points="166.5,-697.2 166.5,-719.2 364.5,-719.2 364.5,-697.2 166.5,-697.2"/>
<text text-anchor="start" x="186.5" y="-704.3" font-family="Helvetica,sans-Serif" font-size="11.00" fill="#000000">markering</text>
<polygon fill="none" stroke="#000000" points="364.5,-697.2 364.5,-719.2 483.5,-719.2 483.5,-697.2 364.5,-697.2"/>
<text text-anchor="start" x="367.5" y="-704.9" font-family="Helvetica,sans-Serif" font-size="11.00" fill="#000000">text[2147483647]</text>
<polygon fill="none" stroke="#000000" points="166.5,-675.2 166.5,-697.2 364.5,-697.2 364.5,-675.2 166.5,-675.2"/>
<text text-anchor="start" x="186.5" y="-682.3" font-family="Helvetica,sans-Serif" font-size="11.00" fill="#000000">toegang</text>
<polygon fill="none" stroke="#000000" points="364.5,-675.2 364.5,-697.2 483.5,-697.2 483.5,-675.2 364.5,-675.2"/>
<text text-anchor="start" x="367.5" y="-682.9" font-family="Helvetica,sans-Serif" font-size="11.00" fill="#000000">text[2147483647]</text>
<polygon fill="none" stroke="#000000" points="166.5,-653.2 166.5,-675.2 364.5,-675.2 364.5,-653.2 166.5,-653.2"/>
<text text-anchor="start" x="186.5" y="-660.3" font-family="Helvetica,sans-Serif" font-size="11.00" fill="#000000">capaciteit</text>
<polygon fill="none" stroke="#000000" points="364.5,-653.2 364.5,-675.2 483.5,-675.2 483.5,-653.2 364.5,-653.2"/>
<text text-anchor="start" x="367.5" y="-660.9" font-family="Helvetica,sans-Serif" font-size="11.00" fill="#000000">numeric[0]</text>
<polygon fill="none" stroke="#000000" points="166.5,-631.2 166.5,-653.2 364.5,-653.2 364.5,-631.2 166.5,-631.2"/>
<text text-anchor="start" x="186.5" y="-638.3" font-family="Helvetica,sans-Serif" font-size="11.00" fill="#000000">inspecteur</text>
<polygon fill="none" stroke="#000000" points="364.5,-631.2 364.5,-653.2 483.5,-653.2 483.5,-631.2 364.5,-631.2"/>
<text text-anchor="start" x="367.5" y="-638.9" font-family="Helvetica,sans-Serif" font-size="11.00" fill="#000000">text[2147483647]</text>
<polygon fill="none" stroke="#000000" points="166.5,-609.2 166.5,-631.2 364.5,-631.2 364.5,-609.2 166.5,-609.2"/>
<text text-anchor="start" x="186.5" y="-616.3" font-family="Helvetica,sans-Serif" font-size="11.00" fill="#000000">inspectie_datum</text>
<polygon fill="none" stroke="#000000" points="364.5,-609.2 364.5,-631.2 483.5,-631.2 483.5,-609.2 364.5,-609.2"/>
<text text-anchor="start" x="367.5" y="-616.9" font-family="Helvetica,sans-Serif" font-size="11.00" fill="#000000">date[13]</text>
<polygon fill="none" stroke="#000000" points="166.5,-587.2 166.5,-609.2 364.5,-609.2 364.5,-587.2 166.5,-587.2"/>
<image xlink:href="../../images/foreignKeys.png" width="11px" height="12px" preserveAspectRatio="xMinYMin meet" x="171.5" y="-604.2"/>
<text text-anchor="start" x="186.5" y="-594.3" font-family="Helvetica,sans-Serif" font-size="11.00" fill="#000000">inspectie_conditie_id</text>
<polygon fill="none" stroke="#000000" points="364.5,-587.2 364.5,-609.2 483.5,-609.2 483.5,-587.2 364.5,-587.2"/>
<text text-anchor="start" x="367.5" y="-594.9" font-family="Helvetica,sans-Serif" font-size="11.00" fill="#000000">int2[5]</text>
<polygon fill="none" stroke="#000000" points="166.5,-565.2 166.5,-587.2 364.5,-587.2 364.5,-565.2 166.5,-565.2"/>
<text text-anchor="start" x="186.5" y="-572.3" font-family="Helvetica,sans-Serif" font-size="11.00" fill="#000000">inspectie_opmerking</text>
<polygon fill="none" stroke="#000000" points="364.5,-565.2 364.5,-587.2 483.5,-587.2 483.5,-565.2 364.5,-565.2"/>
<text text-anchor="start" x="367.5" y="-572.9" font-family="Helvetica,sans-Serif" font-size="11.00" fill="#000000">text[2147483647]</text>
<polygon fill="none" stroke="#000000" points="166.5,-543.2 166.5,-565.2 364.5,-565.2 364.5,-543.2 166.5,-543.2"/>
<text text-anchor="start" x="186.5" y="-550.3" font-family="Helvetica,sans-Serif" font-size="11.00" fill="#000000">inspectie_plusinfo</text>
<polygon fill="none" stroke="#000000" points="364.5,-543.2 364.5,-565.2 483.5,-565.2 483.5,-543.2 364.5,-543.2"/>
<text text-anchor="start" x="367.5" y="-550.9" font-family="Helvetica,sans-Serif" font-size="11.00" fill="#000000">jsonb[2147483647]</text>
<polygon fill="none" stroke="#000000" points="166.5,-521.2 166.5,-543.2 364.5,-543.2 364.5,-521.2 166.5,-521.2"/>
<text text-anchor="start" x="186.5" y="-528.3" font-family="Helvetica,sans-Serif" font-size="11.00" fill="#000000">inspectie_vindbaar</text>
<polygon fill="none" stroke="#000000" points="364.5,-521.2 364.5,-543.2 483.5,-543.2 483.5,-521.2 364.5,-521.2"/>
<text text-anchor="start" x="367.5" y="-528.9" font-family="Helvetica,sans-Serif" font-size="11.00" fill="#000000">text[2147483647]</text>
<polygon fill="none" stroke="#000000" points="166.5,-499.2 166.5,-521.2 364.5,-521.2 364.5,-499.2 166.5,-499.2"/>
<text text-anchor="start" x="186.5" y="-506.3" font-family="Helvetica,sans-Serif" font-size="11.00" fill="#000000">inspectie_locatie</text>
<polygon fill="none" stroke="#000000" points="364.5,-499.2 364.5,-521.2 483.5,-521.2 483.5,-499.2 364.5,-499.2"/>
<text text-anchor="start" x="367.5" y="-506.9" font-family="Helvetica,sans-Serif" font-size="11.00" fill="#000000">text[2147483647]</text>
<polygon fill="none" stroke="#000000" points="166.5,-477.2 166.5,-499.2 364.5,-499.2 364.5,-477.2 166.5,-477.2"/>
<text text-anchor="start" x="186.5" y="-484.3" font-family="Helvetica,sans-Serif" font-size="11.00" fill="#000000">inspectie_opstelplaats</text>
<polygon fill="none" stroke="#000000" points="364.5,-477.2 364.5,-499.2 483.5,-499.2 483.5,-477.2 364.5,-477.2"/>
<text text-anchor="start" x="367.5" y="-484.9" font-family="Helvetica,sans-Serif" font-size="11.00" fill="#000000">text[2147483647]</text>
<polygon fill="none" stroke="#000000" points="166.5,-455.2 166.5,-477.2 364.5,-477.2 364.5,-455.2 166.5,-455.2"/>
<text text-anchor="start" x="186.5" y="-462.3" font-family="Helvetica,sans-Serif" font-size="11.00" fill="#000000">inspectie_markering</text>
<polygon fill="none" stroke="#000000" points="364.5,-455.2 364.5,-477.2 483.5,-477.2 483.5,-455.2 364.5,-455.2"/>
<text text-anchor="start" x="367.5" y="-462.9" font-family="Helvetica,sans-Serif" font-size="11.00" fill="#000000">text[2147483647]</text>
<polygon fill="none" stroke="#000000" points="166.5,-433.2 166.5,-455.2 364.5,-455.2 364.5,-433.2 166.5,-433.2"/>
<text text-anchor="start" x="186.5" y="-440.3" font-family="Helvetica,sans-Serif" font-size="11.00" fill="#000000">inspectie_paal</text>
<polygon fill="none" stroke="#000000" points="364.5,-433.2 364.5,-455.2 483.5,-455.2 483.5,-433.2 364.5,-433.2"/>
<text text-anchor="start" x="367.5" y="-440.9" font-family="Helvetica,sans-Serif" font-size="11.00" fill="#000000">text[2147483647]</text>
<polygon fill="none" stroke="#000000" points="166.5,-411.2 166.5,-433.2 364.5,-433.2 364.5,-411.2 166.5,-411.2"/>
<text text-anchor="start" x="186.5" y="-418.3" font-family="Helvetica,sans-Serif" font-size="11.00" fill="#000000">inspectie_aanwijsplaat</text>
<polygon fill="none" stroke="#000000" points="364.5,-411.2 364.5,-433.2 483.5,-433.2 483.5,-411.2 364.5,-411.2"/>
<text text-anchor="start" x="367.5" y="-418.9" font-family="Helvetica,sans-Serif" font-size="11.00" fill="#000000">text[2147483647]</text>
<polygon fill="none" stroke="#000000" points="166.5,-389.2 166.5,-411.2 364.5,-411.2 364.5,-389.2 166.5,-389.2"/>
<text text-anchor="start" x="186.5" y="-396.3" font-family="Helvetica,sans-Serif" font-size="11.00" fill="#000000">inspectie_aanwijsplaat_correct</text>
<polygon fill="none" stroke="#000000" points="364.5,-389.2 364.5,-411.2 483.5,-411.2 483.5,-389.2 364.5,-389.2"/>
<text text-anchor="start" x="367.5" y="-396.9" font-family="Helvetica,sans-Serif" font-size="11.00" fill="#000000">text[2147483647]</text>
<polygon fill="none" stroke="#000000" points="166.5,-367.2 166.5,-389.2 364.5,-389.2 364.5,-367.2 166.5,-367.2"/>
<text text-anchor="start" x="186.5" y="-374.3" font-family="Helvetica,sans-Serif" font-size="11.00" fill="#000000">inspectie_bereikbaarheid</text>
<polygon fill="none" stroke="#000000" points="364.5,-367.2 364.5,-389.2 483.5,-389.2 483.5,-367.2 364.5,-367.2"/>
<text text-anchor="start" x="367.5" y="-374.9" font-family="Helvetica,sans-Serif" font-size="11.00" fill="#000000">text[2147483647]</text>
<polygon fill="none" stroke="#000000" points="166.5,-345.2 166.5,-367.2 364.5,-367.2 364.5,-345.2 166.5,-345.2"/>
<text text-anchor="start" x="186.5" y="-352.3" font-family="Helvetica,sans-Serif" font-size="11.00" fill="#000000">inspectie_beplanting</text>
<polygon fill="none" stroke="#000000" points="364.5,-345.2 364.5,-367.2 483.5,-367.2 483.5,-345.2 364.5,-345.2"/>
<text text-anchor="start" x="367.5" y="-352.9" font-family="Helvetica,sans-Serif" font-size="11.00" fill="#000000">text[2147483647]</text>
<polygon fill="none" stroke="#000000" points="166.5,-323.2 166.5,-345.2 364.5,-345.2 364.5,-323.2 166.5,-323.2"/>
<text text-anchor="start" x="186.5" y="-330.3" font-family="Helvetica,sans-Serif" font-size="11.00" fill="#000000">inspectie_puttegel</text>
<polygon fill="none" stroke="#000000" points="364.5,-323.2 364.5,-345.2 483.5,-345.2 483.5,-323.2 364.5,-323.2"/>
<text text-anchor="start" x="367.5" y="-330.9" font-family="Helvetica,sans-Serif" font-size="11.00" fill="#000000">text[2147483647]</text>
<polygon fill="none" stroke="#000000" points="166.5,-301.2 166.5,-323.2 364.5,-323.2 364.5,-301.2 166.5,-301.2"/>
<text text-anchor="start" x="186.5" y="-308.3" font-family="Helvetica,sans-Serif" font-size="11.00" fill="#000000">inspectie_straatpot</text>
<polygon fill="none" stroke="#000000" points="364.5,-301.2 364.5,-323.2 483.5,-323.2 483.5,-301.2 364.5,-301.2"/>
<text text-anchor="start" x="367.5" y="-308.9" font-family="Helvetica,sans-Serif" font-size="11.00" fill="#000000">text[2147483647]</text>
<polygon fill="none" stroke="#000000" points="166.5,-279.2 166.5,-301.2 364.5,-301.2 364.5,-279.2 166.5,-279.2"/>
<text text-anchor="start" x="186.5" y="-286.3" font-family="Helvetica,sans-Serif" font-size="11.00" fill="#000000">inspectie_putdeksel</text>
<polygon fill="none" stroke="#000000" points="364.5,-279.2 364.5,-301.2 483.5,-301.2 483.5,-279.2 364.5,-279.2"/>
<text text-anchor="start" x="367.5" y="-286.9" font-family="Helvetica,sans-Serif" font-size="11.00" fill="#000000">text[2147483647]</text>
<polygon fill="none" stroke="#000000" points="166.5,-257.2 166.5,-279.2 364.5,-279.2 364.5,-257.2 166.5,-257.2"/>
<text text-anchor="start" x="186.5" y="-264.3" font-family="Helvetica,sans-Serif" font-size="11.00" fill="#000000">inspectie_diepte</text>
<polygon fill="none" stroke="#000000" points="364.5,-257.2 364.5,-279.2 483.5,-279.2 483.5,-257.2 364.5,-257.2"/>
<text text-anchor="start" x="367.5" y="-264.9" font-family="Helvetica,sans-Serif" font-size="11.00" fill="#000000">text[2147483647]</text>
<polygon fill="none" stroke="#000000" points="166.5,-235.2 166.5,-257.2 364.5,-257.2 364.5,-235.2 166.5,-235.2"/>
<text text-anchor="start" x="186.5" y="-242.3" font-family="Helvetica,sans-Serif" font-size="11.00" fill="#000000">inspectie_lekkage</text>
<polygon fill="none" stroke="#000000" points="364.5,-235.2 364.5,-257.2 483.5,-257.2 483.5,-235.2 364.5,-235.2"/>
<text text-anchor="start" x="367.5" y="-242.9" font-family="Helvetica,sans-Serif" font-size="11.00" fill="#000000">text[2147483647]</text>
<polygon fill="none" stroke="#000000" points="166.5,-213.2 166.5,-235.2 364.5,-235.2 364.5,-213.2 166.5,-213.2"/>
<text text-anchor="start" x="186.5" y="-220.3" font-family="Helvetica,sans-Serif" font-size="11.00" fill="#000000">inspectie_slibdekstel</text>
<polygon fill="none" stroke="#000000" points="364.5,-213.2 364.5,-235.2 483.5,-235.2 483.5,-213.2 364.5,-213.2"/>
<text text-anchor="start" x="367.5" y="-220.9" font-family="Helvetica,sans-Serif" font-size="11.00" fill="#000000">text[2147483647]</text>
<polygon fill="none" stroke="#000000" points="166.5,-191.2 166.5,-213.2 364.5,-213.2 364.5,-191.2 166.5,-191.2"/>
<text text-anchor="start" x="186.5" y="-198.3" font-family="Helvetica,sans-Serif" font-size="11.00" fill="#000000">inspectie_klauw</text>
<polygon fill="none" stroke="#000000" points="364.5,-191.2 364.5,-213.2 483.5,-213.2 483.5,-191.2 364.5,-191.2"/>
<text text-anchor="start" x="367.5" y="-198.9" font-family="Helvetica,sans-Serif" font-size="11.00" fill="#000000">text[2147483647]</text>
<polygon fill="none" stroke="#000000" points="166.5,-169.2 166.5,-191.2 364.5,-191.2 364.5,-169.2 166.5,-169.2"/>
<text text-anchor="start" x="186.5" y="-176.3" font-family="Helvetica,sans-Serif" font-size="11.00" fill="#000000">inspectie_spindelkop</text>
<polygon fill="none" stroke="#000000" points="364.5,-169.2 364.5,-191.2 483.5,-191.2 483.5,-169.2 364.5,-169.2"/>
<text text-anchor="start" x="367.5" y="-176.9" font-family="Helvetica,sans-Serif" font-size="11.00" fill="#000000">text[2147483647]</text>
<polygon fill="none" stroke="#000000" points="166.5,-147.2 166.5,-169.2 364.5,-169.2 364.5,-147.2 166.5,-147.2"/>
<text text-anchor="start" x="186.5" y="-154.3" font-family="Helvetica,sans-Serif" font-size="11.00" fill="#000000">inspectie_spindel</text>
<polygon fill="none" stroke="#000000" points="364.5,-147.2 364.5,-169.2 483.5,-169.2 483.5,-147.2 364.5,-147.2"/>
<text text-anchor="start" x="367.5" y="-154.9" font-family="Helvetica,sans-Serif" font-size="11.00" fill="#000000">text[2147483647]</text>
<polygon fill="none" stroke="#000000" points="166.5,-125.2 166.5,-147.2 364.5,-147.2 364.5,-125.2 166.5,-125.2"/>
<text text-anchor="start" x="186.5" y="-132.3" font-family="Helvetica,sans-Serif" font-size="11.00" fill="#000000">inspectie_standpijp</text>
<polygon fill="none" stroke="#000000" points="364.5,-125.2 364.5,-147.2 483.5,-147.2 483.5,-125.2 364.5,-125.2"/>
<text text-anchor="start" x="367.5" y="-132.9" font-family="Helvetica,sans-Serif" font-size="11.00" fill="#000000">text[2147483647]</text>
<polygon fill="none" stroke="#000000" points="166.5,-103.2 166.5,-125.2 364.5,-125.2 364.5,-103.2 166.5,-103.2"/>
<text text-anchor="start" x="186.5" y="-110.3" font-family="Helvetica,sans-Serif" font-size="11.00" fill="#000000">inspectie_rechtzetten</text>
<polygon fill="none" stroke="#000000" points="364.5,-103.2 364.5,-125.2 483.5,-125.2 483.5,-103.2 364.5,-103.2"/>
<text text-anchor="start" x="367.5" y="-110.9" font-family="Helvetica,sans-Serif" font-size="11.00" fill="#000000">text[2147483647]</text>
<polygon fill="none" stroke="#000000" points="166.5,-81.2 166.5,-103.2 364.5,-103.2 364.5,-81.2 166.5,-81.2"/>
<text text-anchor="start" x="186.5" y="-88.3" font-family="Helvetica,sans-Serif" font-size="11.00" fill="#000000">inspectie_bluswater</text>
<polygon fill="none" stroke="#000000" points="364.5,-81.2 364.5,-103.2 483.5,-103.2 483.5,-81.2 364.5,-81.2"/>
<text text-anchor="start" x="367.5" y="-88.9" font-family="Helvetica,sans-Serif" font-size="11.00" fill="#000000">text[2147483647]</text>
<polygon fill="none" stroke="#000000" points="166.5,-59.2 166.5,-81.2 364.5,-81.2 364.5,-59.2 166.5,-59.2"/>
<text text-anchor="start" x="186.5" y="-66.3" font-family="Helvetica,sans-Serif" font-size="11.00" fill="#000000">inspectie_leegloopinrichting</text>
<polygon fill="none" stroke="#000000" points="364.5,-59.2 364.5,-81.2 483.5,-81.2 483.5,-59.2 364.5,-59.2"/>
<text text-anchor="start" x="367.5" y="-66.9" font-family="Helvetica,sans-Serif" font-size="11.00" fill="#000000">text[2147483647]</text>
<polygon fill="#ffffff" stroke="transparent" points="166.5,-40.2 166.5,-59.2 269.5,-59.2 269.5,-40.2 166.5,-40.2"/>
<polygon fill="none" stroke="#000000" points="166.5,-40.2 166.5,-59.2 269.5,-59.2 269.5,-40.2 166.5,-40.2"/>
<text text-anchor="start" x="169.5" y="-46.3" font-family="Helvetica,sans-Serif" font-size="11.00" fill="#000000">&lt; 4</text>
<polygon fill="#ffffff" stroke="transparent" points="269.5,-40.2 269.5,-59.2 364.5,-59.2 364.5,-40.2 269.5,-40.2"/>
<polygon fill="none" stroke="#000000" points="269.5,-40.2 269.5,-59.2 364.5,-59.2 364.5,-40.2 269.5,-40.2"/>
<text text-anchor="start" x="355.3862" y="-46.3" font-family="Helvetica,sans-Serif" font-size="11.00" fill="#000000"> &#160;</text>
<polygon fill="#ffffff" stroke="transparent" points="364.5,-40.2 364.5,-59.2 483.5,-59.2 483.5,-40.2 364.5,-40.2"/>
<polygon fill="none" stroke="#000000" points="364.5,-40.2 364.5,-59.2 483.5,-59.2 483.5,-40.2 364.5,-40.2"/>
<text text-anchor="start" x="464.9053" y="-46.3" font-family="Helvetica,sans-Serif" font-size="11.00" fill="#000000">0 &gt;</text>
<polygon fill="none" stroke="#000000" stroke-width="2" points="165,-39.2 165,-1205.2 484,-1205.2 484,-39.2 165,-39.2"/>
</a>
</g>
</g>
<!-- roi.fase -->
<g id="node2" class="node">
<title>roi.fase</title>
<g id="a_node2"><a xlink:href="../../../roi/tables/fase.html" xlink:title="roi.fase" target="_top">
<polygon fill="#ffffff" stroke="transparent" points="21,-869.7 21,-930.7 102,-930.7 102,-869.7 21,-869.7"/>
<polygon fill="#f5f5f5" stroke="transparent" points="21.5,-907.2 21.5,-930.2 102.5,-930.2 102.5,-907.2 21.5,-907.2"/>
<polygon fill="none" stroke="#000000" points="21.5,-907.2 21.5,-930.2 102.5,-930.2 102.5,-907.2 21.5,-907.2"/>
<text text-anchor="start" x="26.5" y="-915.8" font-family="Helvetica,sans-Serif" font-weight="bold" font-size="11.00" fill="#000000">roi.fase</text>
<text text-anchor="start" x="68.0219" y="-915.3" font-family="Helvetica,sans-Serif" font-size="11.00" fill="#000000">[table]</text>
<polygon fill="none" stroke="#000000" points="21.5,-888.2 21.5,-907.2 102.5,-907.2 102.5,-888.2 21.5,-888.2"/>
<text text-anchor="start" x="24.5" y="-894.3" font-family="Helvetica,sans-Serif" font-size="11.00" fill="#000000">...</text>
<polygon fill="#ffffff" stroke="transparent" points="21.5,-869.2 21.5,-888.2 51.5,-888.2 51.5,-869.2 21.5,-869.2"/>
<polygon fill="none" stroke="#000000" points="21.5,-869.2 21.5,-888.2 51.5,-888.2 51.5,-869.2 21.5,-869.2"/>
<text text-anchor="start" x="24.5" y="-875.3" font-family="Helvetica,sans-Serif" font-size="11.00" fill="#000000"> &#160;</text>
<polygon fill="#ffffff" stroke="transparent" points="51.5,-869.2 51.5,-888.2 72.5,-888.2 72.5,-869.2 51.5,-869.2"/>
<polygon fill="none" stroke="#000000" points="51.5,-869.2 51.5,-888.2 72.5,-888.2 72.5,-869.2 51.5,-869.2"/>
<text text-anchor="start" x="63.3862" y="-875.3" font-family="Helvetica,sans-Serif" font-size="11.00" fill="#000000"> &#160;</text>
<polygon fill="#ffffff" stroke="transparent" points="72.5,-869.2 72.5,-888.2 102.5,-888.2 102.5,-869.2 72.5,-869.2"/>
<polygon fill="none" stroke="#000000" points="72.5,-869.2 72.5,-888.2 102.5,-888.2 102.5,-869.2 72.5,-869.2"/>
<text text-anchor="start" x="83.9053" y="-875.3" font-family="Helvetica,sans-Serif" font-size="11.00" fill="#000000">5 &gt;</text>
</a>
</g>
</g>
<!-- brandkraan_prive&#45;&gt;roi.fase -->
<g id="edge1" class="edge">
<title>brandkraan_prive:w&#45;&gt;roi.fase:e</title>
<path fill="none" stroke="#000000" d="M152.9759,-845.1675C141.6987,-850.6763 125.6383,-860.04 110.114,-869.4969"/>
<polygon fill="#000000" stroke="#000000" points="158.9905,-842.9583 167.7412,-843.5793 162.7453,-841.5792 166.5,-840.2 166.5,-840.2 166.5,-840.2 162.7453,-841.5792 165.2588,-836.8207 158.9905,-842.9583 158.9905,-842.9583"/>
<ellipse fill="none" stroke="#000000" cx="155.9868" cy="-844.0616" rx="3.2" ry="3.2"/>
</g>
<!-- gebied -->
<g id="node3" class="node">
<title>gebied</title>
<g id="a_node3"><a xlink:href="../../tables/gebied.html" xlink:title="gebied" target="_top">
<polygon fill="#ffffff" stroke="transparent" points="14,-683.7 14,-766.7 109,-766.7 109,-683.7 14,-683.7"/>
<polygon fill="#f5f5f5" stroke="transparent" points="14.5,-743.2 14.5,-766.2 109.5,-766.2 109.5,-743.2 14.5,-743.2"/>
<polygon fill="none" stroke="#000000" points="14.5,-743.2 14.5,-766.2 109.5,-766.2 109.5,-743.2 14.5,-743.2"/>
<text text-anchor="start" x="19.5" y="-751.8" font-family="Helvetica,sans-Serif" font-weight="bold" font-size="11.00" fill="#000000">gebied</text>
<text text-anchor="start" x="74.5437" y="-751.3" font-family="Helvetica,sans-Serif" font-size="11.00" fill="#000000">[table]</text>
<polygon fill="none" stroke="#000000" points="14.5,-721.2 14.5,-743.2 109.5,-743.2 109.5,-721.2 14.5,-721.2"/>
<image xlink:href="../../images/primaryKeys.png" width="11px" height="12px" preserveAspectRatio="xMinYMin meet" x="19.5" y="-738.2"/>
<text text-anchor="start" x="34.5" y="-728.3" font-family="Helvetica,sans-Serif" font-size="11.00" fill="#000000">id</text>
<polygon fill="none" stroke="#000000" points="14.5,-702.2 14.5,-721.2 109.5,-721.2 109.5,-702.2 14.5,-702.2"/>
<text text-anchor="start" x="17.5" y="-708.3" font-family="Helvetica,sans-Serif" font-size="11.00" fill="#000000">...</text>
<polygon fill="#ffffff" stroke="transparent" points="14.5,-683.2 14.5,-702.2 51.5,-702.2 51.5,-683.2 14.5,-683.2"/>
<polygon fill="none" stroke="#000000" points="14.5,-683.2 14.5,-702.2 51.5,-702.2 51.5,-683.2 14.5,-683.2"/>
<text text-anchor="start" x="17.5" y="-689.3" font-family="Helvetica,sans-Serif" font-size="11.00" fill="#000000"> &#160;</text>
<polygon fill="#ffffff" stroke="transparent" points="51.5,-683.2 51.5,-702.2 75.5,-702.2 75.5,-683.2 51.5,-683.2"/>
<polygon fill="none" stroke="#000000" points="51.5,-683.2 51.5,-702.2 75.5,-702.2 75.5,-683.2 51.5,-683.2"/>
<text text-anchor="start" x="66.3862" y="-689.3" font-family="Helvetica,sans-Serif" font-size="11.00" fill="#000000"> &#160;</text>
<polygon fill="#ffffff" stroke="transparent" points="75.5,-683.2 75.5,-702.2 109.5,-702.2 109.5,-683.2 75.5,-683.2"/>
<polygon fill="none" stroke="#000000" points="75.5,-683.2 75.5,-702.2 109.5,-702.2 109.5,-683.2 75.5,-683.2"/>
<text text-anchor="start" x="90.9053" y="-689.3" font-family="Helvetica,sans-Serif" font-size="11.00" fill="#000000">5 &gt;</text>
</a>
</g>
</g>
<!-- brandkraan_prive&#45;&gt;gebied -->
<g id="edge2" class="edge">
<title>brandkraan_prive:w&#45;&gt;gebied:e</title>
<path fill="none" stroke="#000000" d="M152.4029,-792.0008C133.0055,-777.7625 141.6386,-732.2 109.5,-732.2"/>
<polygon fill="#000000" stroke="#000000" points="158.8329,-793.9161 165.4722,-799.6502 162.6665,-795.0581 166.5,-796.2 166.5,-796.2 166.5,-796.2 162.6665,-795.0581 167.5278,-792.7498 158.8329,-793.9161 158.8329,-793.9161"/>
<ellipse fill="none" stroke="#000000" cx="155.7661" cy="-793.0026" rx="3.2" ry="3.2"/>
</g>
<!-- conditie -->
<g id="node4" class="node">
<title>conditie</title>
<g id="a_node4"><a xlink:href="../../tables/conditie.html" xlink:title="conditie" target="_top">
<polygon fill="#ffffff" stroke="transparent" points="14,-549.7 14,-632.7 109,-632.7 109,-549.7 14,-549.7"/>
<polygon fill="#f5f5f5" stroke="transparent" points="14.5,-609.2 14.5,-632.2 109.5,-632.2 109.5,-609.2 14.5,-609.2"/>
<polygon fill="none" stroke="#000000" points="14.5,-609.2 14.5,-632.2 109.5,-632.2 109.5,-609.2 14.5,-609.2"/>
<text text-anchor="start" x="19.5" y="-617.8" font-family="Helvetica,sans-Serif" font-weight="bold" font-size="11.00" fill="#000000">conditie</text>
<text text-anchor="start" x="74.5437" y="-617.3" font-family="Helvetica,sans-Serif" font-size="11.00" fill="#000000">[table]</text>
<polygon fill="none" stroke="#000000" points="14.5,-587.2 14.5,-609.2 109.5,-609.2 109.5,-587.2 14.5,-587.2"/>
<image xlink:href="../../images/primaryKeys.png" width="11px" height="12px" preserveAspectRatio="xMinYMin meet" x="19.5" y="-604.2"/>
<text text-anchor="start" x="34.5" y="-594.3" font-family="Helvetica,sans-Serif" font-size="11.00" fill="#000000">id</text>
<polygon fill="none" stroke="#000000" points="14.5,-568.2 14.5,-587.2 109.5,-587.2 109.5,-568.2 14.5,-568.2"/>
<text text-anchor="start" x="17.5" y="-574.3" font-family="Helvetica,sans-Serif" font-size="11.00" fill="#000000">...</text>
<polygon fill="#ffffff" stroke="transparent" points="14.5,-549.2 14.5,-568.2 51.5,-568.2 51.5,-549.2 14.5,-549.2"/>
<polygon fill="none" stroke="#000000" points="14.5,-549.2 14.5,-568.2 51.5,-568.2 51.5,-549.2 14.5,-549.2"/>
<text text-anchor="start" x="17.5" y="-555.3" font-family="Helvetica,sans-Serif" font-size="11.00" fill="#000000"> &#160;</text>
<polygon fill="#ffffff" stroke="transparent" points="51.5,-549.2 51.5,-568.2 75.5,-568.2 75.5,-549.2 51.5,-549.2"/>
<polygon fill="none" stroke="#000000" points="51.5,-549.2 51.5,-568.2 75.5,-568.2 75.5,-549.2 51.5,-549.2"/>
<text text-anchor="start" x="66.3862" y="-555.3" font-family="Helvetica,sans-Serif" font-size="11.00" fill="#000000"> &#160;</text>
<polygon fill="#ffffff" stroke="transparent" points="75.5,-549.2 75.5,-568.2 109.5,-568.2 109.5,-549.2 75.5,-549.2"/>
<polygon fill="none" stroke="#000000" points="75.5,-549.2 75.5,-568.2 109.5,-568.2 109.5,-549.2 75.5,-549.2"/>
<text text-anchor="start" x="90.9053" y="-555.3" font-family="Helvetica,sans-Serif" font-size="11.00" fill="#000000">5 &gt;</text>
</a>
</g>
</g>
<!-- brandkraan_prive&#45;&gt;conditie -->
<g id="edge3" class="edge">
<title>brandkraan_prive:w&#45;&gt;conditie:e</title>
<path fill="none" stroke="#000000" d="M151.7652,-598.2C137.3216,-598.2 129.0938,-598.2 109.5,-598.2"/>
<polygon fill="#000000" stroke="#000000" points="158.5,-598.2001 166.5,-601.8 162.5,-598.2 166.5,-598.2 166.5,-598.2 166.5,-598.2 162.5,-598.2 166.5,-594.6 158.5,-598.2001 158.5,-598.2001"/>
<ellipse fill="none" stroke="#000000" cx="155.3" cy="-598.2001" rx="3.2" ry="3.2"/>
</g>
<!-- roi.symbool -->
<g id="node5" class="node">
<title>roi.symbool</title>
<g id="a_node5"><a xlink:href="../../../roi/tables/symbool.html" xlink:title="roi.symbool" target="_top">
<polygon fill="#ffffff" stroke="transparent" points="8,-787.7 8,-848.7 115,-848.7 115,-787.7 8,-787.7"/>
<polygon fill="#f5f5f5" stroke="transparent" points="8.5,-825.2 8.5,-848.2 115.5,-848.2 115.5,-825.2 8.5,-825.2"/>
<polygon fill="none" stroke="#000000" points="8.5,-825.2 8.5,-848.2 115.5,-848.2 115.5,-825.2 8.5,-825.2"/>
<text text-anchor="start" x="13.5" y="-833.8" font-family="Helvetica,sans-Serif" font-weight="bold" font-size="11.00" fill="#000000">roi.symbool</text>
<text text-anchor="start" x="81.0219" y="-833.3" font-family="Helvetica,sans-Serif" font-size="11.00" fill="#000000">[table]</text>
<polygon fill="none" stroke="#000000" points="8.5,-806.2 8.5,-825.2 115.5,-825.2 115.5,-806.2 8.5,-806.2"/>
<text text-anchor="start" x="11.5" y="-812.3" font-family="Helvetica,sans-Serif" font-size="11.00" fill="#000000">...</text>
<polygon fill="#ffffff" stroke="transparent" points="8.5,-787.2 8.5,-806.2 51.5,-806.2 51.5,-787.2 8.5,-787.2"/>
<polygon fill="none" stroke="#000000" points="8.5,-787.2 8.5,-806.2 51.5,-806.2 51.5,-787.2 8.5,-787.2"/>
<text text-anchor="start" x="11.5" y="-793.3" font-family="Helvetica,sans-Serif" font-size="11.00" fill="#000000"> &#160;</text>
<polygon fill="#ffffff" stroke="transparent" points="51.5,-787.2 51.5,-806.2 78.5,-806.2 78.5,-787.2 51.5,-787.2"/>
<polygon fill="none" stroke="#000000" points="51.5,-787.2 51.5,-806.2 78.5,-806.2 78.5,-787.2 51.5,-787.2"/>
<text text-anchor="start" x="69.3862" y="-793.3" font-family="Helvetica,sans-Serif" font-size="11.00" fill="#000000"> &#160;</text>
<polygon fill="#ffffff" stroke="transparent" points="78.5,-787.2 78.5,-806.2 115.5,-806.2 115.5,-787.2 78.5,-787.2"/>
<polygon fill="none" stroke="#000000" points="78.5,-787.2 78.5,-806.2 115.5,-806.2 115.5,-787.2 78.5,-787.2"/>
<text text-anchor="start" x="96.9053" y="-793.3" font-family="Helvetica,sans-Serif" font-size="11.00" fill="#000000">6 &gt;</text>
</a>
</g>
</g>
<!-- brandkraan_prive&#45;&gt;roi.symbool -->
<g id="edge4" class="edge">
<title>brandkraan_prive:w&#45;&gt;roi.symbool:e</title>
<path fill="none" stroke="#000000" d="M152.0688,-818.2C142.4195,-818.2 132.587,-818.2 123.129,-818.2"/>
<polygon fill="#000000" stroke="#000000" points="158.5,-818.2001 166.5,-821.8 162.5,-818.2 166.5,-818.2 166.5,-818.2 166.5,-818.2 162.5,-818.2 166.5,-814.6 158.5,-818.2001 158.5,-818.2001"/>
<ellipse fill="none" stroke="#000000" cx="155.3" cy="-818.2001" rx="3.2" ry="3.2"/>
</g>
</g>
</svg>
