<?xml version="1.0" encoding="UTF-8" standalone="no"?>
<!DOCTYPE svg PUBLIC "-//W3C//DTD SVG 1.1//EN"
 "http://www.w3.org/Graphics/SVG/1.1/DTD/svg11.dtd">
<!-- Generated by graphviz version 2.40.1 (20161225.0304)
 -->
<!-- Title: oneDegreeRelationshipsDiagram Pages: 1 -->
<svg width="484pt" height="1108pt"
 viewBox="0.00 0.00 484.00 1108.20" xmlns="http://www.w3.org/2000/svg" xmlns:xlink="http://www.w3.org/1999/xlink">
<g id="graph0" class="graph" transform="scale(1 1) rotate(0) translate(4 1104.2)">
<title>oneDegreeRelationshipsDiagram</title>
<polygon fill="#ffffff" stroke="transparent" points="-4,4 -4,-1104.2 480,-1104.2 480,4 -4,4"/>
<text text-anchor="middle" x="72.4936" y="-7.3" font-family="Helvetica,sans-Serif" font-size="11.00" fill="#000000">Generated by SchemaSpy</text>
<!-- brandput -->
<g id="node1" class="node">
<title>brandput</title>
<g id="a_node1"><a xlink:href="../../tables/brandput.html" xlink:title="brandput" target="_top">
<polygon fill="#ffffff" stroke="transparent" points="164,-38.2 164,-1096.2 468,-1096.2 468,-38.2 164,-38.2"/>
<polygon fill="#f5f5f5" stroke="transparent" points="166,-1071.2 166,-1094.2 466,-1094.2 466,-1071.2 166,-1071.2"/>
<polygon fill="none" stroke="#000000" points="166,-1071.2 166,-1094.2 466,-1094.2 466,-1071.2 166,-1071.2"/>
<text text-anchor="start" x="171" y="-1079.8" font-family="Helvetica,sans-Serif" font-weight="bold" font-size="11.00" fill="#000000">brandput</text>
<text text-anchor="start" x="431.0437" y="-1079.3" font-family="Helvetica,sans-Serif" font-size="11.00" fill="#000000">[table]</text>
<polygon fill="none" stroke="#000000" points="166,-1049.2 166,-1071.2 347,-1071.2 347,-1049.2 166,-1049.2"/>
<image xlink:href="../../images/primaryKeys.png" width="11px" height="12px" preserveAspectRatio="xMinYMin meet" x="171" y="-1066.2"/>
<text text-anchor="start" x="186" y="-1056.3" font-family="Helvetica,sans-Serif" font-size="11.00" fill="#000000">uuid</text>
<polygon fill="none" stroke="#000000" points="347,-1049.2 347,-1071.2 466,-1071.2 466,-1049.2 347,-1049.2"/>
<text text-anchor="start" x="350" y="-1056.9" font-family="Helvetica,sans-Serif" font-size="11.00" fill="#000000">uuid[2147483647]</text>
<polygon fill="#ffffff" stroke="transparent" points="166,-1027.2 166,-1049.2 347,-1049.2 347,-1027.2 166,-1027.2"/>
<polygon fill="none" stroke="#000000" points="166,-1027.2 166,-1049.2 347,-1049.2 347,-1027.2 166,-1027.2"/>
<text text-anchor="start" x="186" y="-1034.3" font-family="Helvetica,sans-Serif" font-size="11.00" fill="#000000">geom</text>
<polygon fill="none" stroke="#000000" points="347,-1027.2 347,-1049.2 466,-1049.2 466,-1027.2 347,-1027.2"/>
<text text-anchor="start" x="349.9485" y="-1034.9" font-family="Helvetica,sans-Serif" font-size="11.00" fill="#000000">geometry[2147483647]</text>
<polygon fill="none" stroke="#000000" points="166,-1005.2 166,-1027.2 347,-1027.2 347,-1005.2 166,-1005.2"/>
<text text-anchor="start" x="186" y="-1012.3" font-family="Helvetica,sans-Serif" font-size="11.00" fill="#000000">datumtijd</text>
<polygon fill="none" stroke="#000000" points="347,-1005.2 347,-1027.2 466,-1027.2 466,-1005.2 347,-1005.2"/>
<text text-anchor="start" x="350" y="-1012.9" font-family="Helvetica,sans-Serif" font-size="11.00" fill="#000000">timestamptz[35,6]</text>
<polygon fill="none" stroke="#000000" points="166,-983.2 166,-1005.2 347,-1005.2 347,-983.2 166,-983.2"/>
<text text-anchor="start" x="186" y="-990.3" font-family="Helvetica,sans-Serif" font-size="11.00" fill="#000000">gebruiker</text>
<polygon fill="none" stroke="#000000" points="347,-983.2 347,-1005.2 466,-1005.2 466,-983.2 347,-983.2"/>
<text text-anchor="start" x="350" y="-990.9" font-family="Helvetica,sans-Serif" font-size="11.00" fill="#000000">varchar[255]</text>
<polygon fill="none" stroke="#000000" points="166,-961.2 166,-983.2 347,-983.2 347,-961.2 166,-961.2"/>
<text text-anchor="start" x="186" y="-968.3" font-family="Helvetica,sans-Serif" font-size="11.00" fill="#000000">label</text>
<polygon fill="none" stroke="#000000" points="347,-961.2 347,-983.2 466,-983.2 466,-961.2 347,-961.2"/>
<text text-anchor="start" x="350" y="-968.9" font-family="Helvetica,sans-Serif" font-size="11.00" fill="#000000">text[2147483647]</text>
<polygon fill="none" stroke="#000000" points="166,-939.2 166,-961.2 347,-961.2 347,-939.2 166,-939.2"/>
<text text-anchor="start" x="186" y="-946.3" font-family="Helvetica,sans-Serif" font-size="11.00" fill="#000000">rotatie</text>
<polygon fill="none" stroke="#000000" points="347,-939.2 347,-961.2 466,-961.2 466,-939.2 347,-939.2"/>
<text text-anchor="start" x="350" y="-946.9" font-family="Helvetica,sans-Serif" font-size="11.00" fill="#000000">int4[10]</text>
<polygon fill="none" stroke="#000000" points="166,-917.2 166,-939.2 347,-939.2 347,-917.2 166,-917.2"/>
<text text-anchor="start" x="186" y="-924.3" font-family="Helvetica,sans-Serif" font-size="11.00" fill="#000000">bijzonderheden</text>
<polygon fill="none" stroke="#000000" points="347,-917.2 347,-939.2 466,-939.2 466,-917.2 347,-917.2"/>
<text text-anchor="start" x="350" y="-924.9" font-family="Helvetica,sans-Serif" font-size="11.00" fill="#000000">text[2147483647]</text>
<polygon fill="none" stroke="#000000" points="166,-895.2 166,-917.2 347,-917.2 347,-895.2 166,-895.2"/>
<text text-anchor="start" x="186" y="-902.3" font-family="Helvetica,sans-Serif" font-size="11.00" fill="#000000">plusinfo</text>
<polygon fill="none" stroke="#000000" points="347,-895.2 347,-917.2 466,-917.2 466,-895.2 347,-895.2"/>
<text text-anchor="start" x="350" y="-902.9" font-family="Helvetica,sans-Serif" font-size="11.00" fill="#000000">jsonb[2147483647]</text>
<polygon fill="none" stroke="#000000" points="166,-873.2 166,-895.2 347,-895.2 347,-873.2 166,-873.2"/>
<text text-anchor="start" x="186" y="-880.3" font-family="Helvetica,sans-Serif" font-size="11.00" fill="#000000">aanleg</text>
<polygon fill="none" stroke="#000000" points="347,-873.2 347,-895.2 466,-895.2 466,-873.2 347,-873.2"/>
<text text-anchor="start" x="350" y="-880.9" font-family="Helvetica,sans-Serif" font-size="11.00" fill="#000000">date[13]</text>
<polygon fill="none" stroke="#000000" points="166,-851.2 166,-873.2 347,-873.2 347,-851.2 166,-851.2"/>
<text text-anchor="start" x="186" y="-858.3" font-family="Helvetica,sans-Serif" font-size="11.00" fill="#000000">code</text>
<polygon fill="none" stroke="#000000" points="347,-851.2 347,-873.2 466,-873.2 466,-851.2 347,-851.2"/>
<text text-anchor="start" x="350" y="-858.9" font-family="Helvetica,sans-Serif" font-size="11.00" fill="#000000">text[2147483647]</text>
<polygon fill="none" stroke="#000000" points="166,-829.2 166,-851.2 347,-851.2 347,-829.2 166,-829.2"/>
<text text-anchor="start" x="186" y="-836.3" font-family="Helvetica,sans-Serif" font-size="11.00" fill="#000000">beheerder</text>
<polygon fill="none" stroke="#000000" points="347,-829.2 347,-851.2 466,-851.2 466,-829.2 347,-829.2"/>
<text text-anchor="start" x="350" y="-836.9" font-family="Helvetica,sans-Serif" font-size="11.00" fill="#000000">text[2147483647]</text>
<polygon fill="none" stroke="#000000" points="166,-807.2 166,-829.2 347,-829.2 347,-807.2 166,-807.2"/>
<text text-anchor="start" x="186" y="-814.3" font-family="Helvetica,sans-Serif" font-size="11.00" fill="#000000">particulier</text>
<polygon fill="none" stroke="#000000" points="347,-807.2 347,-829.2 466,-829.2 466,-807.2 347,-807.2"/>
<text text-anchor="start" x="350" y="-814.9" font-family="Helvetica,sans-Serif" font-size="11.00" fill="#000000">text[2147483647]</text>
<polygon fill="none" stroke="#000000" points="166,-785.2 166,-807.2 347,-807.2 347,-785.2 166,-785.2"/>
<text text-anchor="start" x="186" y="-792.3" font-family="Helvetica,sans-Serif" font-size="11.00" fill="#000000">adres</text>
<polygon fill="none" stroke="#000000" points="347,-785.2 347,-807.2 466,-807.2 466,-785.2 347,-785.2"/>
<text text-anchor="start" x="350" y="-792.9" font-family="Helvetica,sans-Serif" font-size="11.00" fill="#000000">text[2147483647]</text>
<polygon fill="none" stroke="#000000" points="166,-763.2 166,-785.2 347,-785.2 347,-763.2 166,-763.2"/>
<text text-anchor="start" x="186" y="-770.3" font-family="Helvetica,sans-Serif" font-size="11.00" fill="#000000">onderhoud</text>
<polygon fill="none" stroke="#000000" points="347,-763.2 347,-785.2 466,-785.2 466,-763.2 347,-763.2"/>
<text text-anchor="start" x="350" y="-770.9" font-family="Helvetica,sans-Serif" font-size="11.00" fill="#000000">tstzrange[2147483647]</text>
<polygon fill="none" stroke="#000000" points="166,-741.2 166,-763.2 347,-763.2 347,-741.2 166,-741.2"/>
<text text-anchor="start" x="186" y="-748.3" font-family="Helvetica,sans-Serif" font-size="11.00" fill="#000000">revisie_frequentie</text>
<polygon fill="none" stroke="#000000" points="347,-741.2 347,-763.2 466,-763.2 466,-741.2 347,-741.2"/>
<text text-anchor="start" x="350" y="-748.9" font-family="Helvetica,sans-Serif" font-size="11.00" fill="#000000">int2[5]</text>
<polygon fill="none" stroke="#000000" points="166,-719.2 166,-741.2 347,-741.2 347,-719.2 166,-719.2"/>
<image xlink:href="../../images/foreignKeys.png" width="11px" height="12px" preserveAspectRatio="xMinYMin meet" x="171" y="-736.2"/>
<text text-anchor="start" x="186" y="-726.3" font-family="Helvetica,sans-Serif" font-size="11.00" fill="#000000">fase_id</text>
<polygon fill="none" stroke="#000000" points="347,-719.2 347,-741.2 466,-741.2 466,-719.2 347,-719.2"/>
<text text-anchor="start" x="350" y="-726.9" font-family="Helvetica,sans-Serif" font-size="11.00" fill="#000000">int2[5]</text>
<polygon fill="none" stroke="#000000" points="166,-697.2 166,-719.2 347,-719.2 347,-697.2 166,-697.2"/>
<image xlink:href="../../images/foreignKeys.png" width="11px" height="12px" preserveAspectRatio="xMinYMin meet" x="171" y="-714.2"/>
<text text-anchor="start" x="186" y="-704.3" font-family="Helvetica,sans-Serif" font-size="11.00" fill="#000000">symbool_id</text>
<polygon fill="none" stroke="#000000" points="347,-697.2 347,-719.2 466,-719.2 466,-697.2 347,-697.2"/>
<text text-anchor="start" x="350" y="-704.9" font-family="Helvetica,sans-Serif" font-size="11.00" fill="#000000">int2[5]</text>
<polygon fill="none" stroke="#000000" points="166,-675.2 166,-697.2 347,-697.2 347,-675.2 166,-675.2"/>
<image xlink:href="../../images/foreignKeys.png" width="11px" height="12px" preserveAspectRatio="xMinYMin meet" x="171" y="-692.2"/>
<text text-anchor="start" x="186" y="-682.3" font-family="Helvetica,sans-Serif" font-size="11.00" fill="#000000">gebied_id</text>
<polygon fill="none" stroke="#000000" points="347,-675.2 347,-697.2 466,-697.2 466,-675.2 347,-675.2"/>
<text text-anchor="start" x="350" y="-682.9" font-family="Helvetica,sans-Serif" font-size="11.00" fill="#000000">int2[5]</text>
<polygon fill="none" stroke="#000000" points="166,-653.2 166,-675.2 347,-675.2 347,-653.2 166,-653.2"/>
<text text-anchor="start" x="186" y="-660.3" font-family="Helvetica,sans-Serif" font-size="11.00" fill="#000000">opstelplaats</text>
<polygon fill="none" stroke="#000000" points="347,-653.2 347,-675.2 466,-675.2 466,-653.2 347,-653.2"/>
<text text-anchor="start" x="350" y="-660.9" font-family="Helvetica,sans-Serif" font-size="11.00" fill="#000000">bool[1]</text>
<polygon fill="none" stroke="#000000" points="166,-631.2 166,-653.2 347,-653.2 347,-631.2 166,-631.2"/>
<text text-anchor="start" x="186" y="-638.3" font-family="Helvetica,sans-Serif" font-size="11.00" fill="#000000">opstelplaats_locatie</text>
<polygon fill="none" stroke="#000000" points="347,-631.2 347,-653.2 466,-653.2 466,-631.2 347,-631.2"/>
<text text-anchor="start" x="350" y="-638.9" font-family="Helvetica,sans-Serif" font-size="11.00" fill="#000000">text[2147483647]</text>
<polygon fill="none" stroke="#000000" points="166,-609.2 166,-631.2 347,-631.2 347,-609.2 166,-609.2"/>
<text text-anchor="start" x="186" y="-616.3" font-family="Helvetica,sans-Serif" font-size="11.00" fill="#000000">markering</text>
<polygon fill="none" stroke="#000000" points="347,-609.2 347,-631.2 466,-631.2 466,-609.2 347,-609.2"/>
<text text-anchor="start" x="350" y="-616.9" font-family="Helvetica,sans-Serif" font-size="11.00" fill="#000000">text[2147483647]</text>
<polygon fill="none" stroke="#000000" points="166,-587.2 166,-609.2 347,-609.2 347,-587.2 166,-587.2"/>
<text text-anchor="start" x="186" y="-594.3" font-family="Helvetica,sans-Serif" font-size="11.00" fill="#000000">toegang</text>
<polygon fill="none" stroke="#000000" points="347,-587.2 347,-609.2 466,-609.2 466,-587.2 347,-587.2"/>
<text text-anchor="start" x="350" y="-594.9" font-family="Helvetica,sans-Serif" font-size="11.00" fill="#000000">text[2147483647]</text>
<polygon fill="none" stroke="#000000" points="166,-565.2 166,-587.2 347,-587.2 347,-565.2 166,-565.2"/>
<text text-anchor="start" x="186" y="-572.3" font-family="Helvetica,sans-Serif" font-size="11.00" fill="#000000">kenmerk</text>
<polygon fill="none" stroke="#000000" points="347,-565.2 347,-587.2 466,-587.2 466,-565.2 347,-565.2"/>
<text text-anchor="start" x="350" y="-572.9" font-family="Helvetica,sans-Serif" font-size="11.00" fill="#000000">text[2147483647]</text>
<polygon fill="none" stroke="#000000" points="166,-543.2 166,-565.2 347,-565.2 347,-543.2 166,-543.2"/>
<text text-anchor="start" x="186" y="-550.3" font-family="Helvetica,sans-Serif" font-size="11.00" fill="#000000">koppeling</text>
<polygon fill="none" stroke="#000000" points="347,-543.2 347,-565.2 466,-565.2 466,-543.2 347,-543.2"/>
<text text-anchor="start" x="350" y="-550.9" font-family="Helvetica,sans-Serif" font-size="11.00" fill="#000000">text[2147483647]</text>
<polygon fill="none" stroke="#000000" points="166,-521.2 166,-543.2 347,-543.2 347,-521.2 166,-521.2"/>
<text text-anchor="start" x="186" y="-528.3" font-family="Helvetica,sans-Serif" font-size="11.00" fill="#000000">aanrijdbeveiliging</text>
<polygon fill="none" stroke="#000000" points="347,-521.2 347,-543.2 466,-543.2 466,-521.2 347,-521.2"/>
<text text-anchor="start" x="350" y="-528.9" font-family="Helvetica,sans-Serif" font-size="11.00" fill="#000000">bool[1]</text>
<polygon fill="none" stroke="#000000" points="166,-499.2 166,-521.2 347,-521.2 347,-499.2 166,-499.2"/>
<text text-anchor="start" x="186" y="-506.3" font-family="Helvetica,sans-Serif" font-size="11.00" fill="#000000">opvoerpomp</text>
<polygon fill="none" stroke="#000000" points="347,-499.2 347,-521.2 466,-521.2 466,-499.2 347,-499.2"/>
<text text-anchor="start" x="350" y="-506.9" font-family="Helvetica,sans-Serif" font-size="11.00" fill="#000000">bool[1]</text>
<polygon fill="none" stroke="#000000" points="166,-477.2 166,-499.2 347,-499.2 347,-477.2 166,-477.2"/>
<text text-anchor="start" x="186" y="-484.3" font-family="Helvetica,sans-Serif" font-size="11.00" fill="#000000">elektra</text>
<polygon fill="none" stroke="#000000" points="347,-477.2 347,-499.2 466,-499.2 466,-477.2 347,-477.2"/>
<text text-anchor="start" x="350" y="-484.9" font-family="Helvetica,sans-Serif" font-size="11.00" fill="#000000">text[2147483647]</text>
<polygon fill="none" stroke="#000000" points="166,-455.2 166,-477.2 347,-477.2 347,-455.2 166,-455.2"/>
<text text-anchor="start" x="186" y="-462.3" font-family="Helvetica,sans-Serif" font-size="11.00" fill="#000000">slot</text>
<polygon fill="none" stroke="#000000" points="347,-455.2 347,-477.2 466,-477.2 466,-455.2 347,-455.2"/>
<text text-anchor="start" x="350" y="-462.9" font-family="Helvetica,sans-Serif" font-size="11.00" fill="#000000">text[2147483647]</text>
<polygon fill="none" stroke="#000000" points="166,-433.2 166,-455.2 347,-455.2 347,-433.2 166,-433.2"/>
<text text-anchor="start" x="186" y="-440.3" font-family="Helvetica,sans-Serif" font-size="11.00" fill="#000000">inspecteur</text>
<polygon fill="none" stroke="#000000" points="347,-433.2 347,-455.2 466,-455.2 466,-433.2 347,-433.2"/>
<text text-anchor="start" x="350" y="-440.9" font-family="Helvetica,sans-Serif" font-size="11.00" fill="#000000">text[2147483647]</text>
<polygon fill="none" stroke="#000000" points="166,-411.2 166,-433.2 347,-433.2 347,-411.2 166,-411.2"/>
<text text-anchor="start" x="186" y="-418.3" font-family="Helvetica,sans-Serif" font-size="11.00" fill="#000000">inspectie_datum</text>
<polygon fill="none" stroke="#000000" points="347,-411.2 347,-433.2 466,-433.2 466,-411.2 347,-411.2"/>
<text text-anchor="start" x="350" y="-418.9" font-family="Helvetica,sans-Serif" font-size="11.00" fill="#000000">date[13]</text>
<polygon fill="none" stroke="#000000" points="166,-389.2 166,-411.2 347,-411.2 347,-389.2 166,-389.2"/>
<image xlink:href="../../images/foreignKeys.png" width="11px" height="12px" preserveAspectRatio="xMinYMin meet" x="171" y="-406.2"/>
<text text-anchor="start" x="186" y="-396.3" font-family="Helvetica,sans-Serif" font-size="11.00" fill="#000000">inspectie_conditie_id</text>
<polygon fill="none" stroke="#000000" points="347,-389.2 347,-411.2 466,-411.2 466,-389.2 347,-389.2"/>
<text text-anchor="start" x="350" y="-396.9" font-family="Helvetica,sans-Serif" font-size="11.00" fill="#000000">int2[5]</text>
<polygon fill="none" stroke="#000000" points="166,-367.2 166,-389.2 347,-389.2 347,-367.2 166,-367.2"/>
<text text-anchor="start" x="186" y="-374.3" font-family="Helvetica,sans-Serif" font-size="11.00" fill="#000000">inspectie_opmerking</text>
<polygon fill="none" stroke="#000000" points="347,-367.2 347,-389.2 466,-389.2 466,-367.2 347,-367.2"/>
<text text-anchor="start" x="350" y="-374.9" font-family="Helvetica,sans-Serif" font-size="11.00" fill="#000000">text[2147483647]</text>
<polygon fill="none" stroke="#000000" points="166,-345.2 166,-367.2 347,-367.2 347,-345.2 166,-345.2"/>
<text text-anchor="start" x="186" y="-352.3" font-family="Helvetica,sans-Serif" font-size="11.00" fill="#000000">inspectie_plusinfo</text>
<polygon fill="none" stroke="#000000" points="347,-345.2 347,-367.2 466,-367.2 466,-345.2 347,-345.2"/>
<text text-anchor="start" x="350" y="-352.9" font-family="Helvetica,sans-Serif" font-size="11.00" fill="#000000">jsonb[2147483647]</text>
<polygon fill="none" stroke="#000000" points="166,-323.2 166,-345.2 347,-345.2 347,-323.2 166,-323.2"/>
<text text-anchor="start" x="186" y="-330.3" font-family="Helvetica,sans-Serif" font-size="11.00" fill="#000000">inspectie_opstelplaats</text>
<polygon fill="none" stroke="#000000" points="347,-323.2 347,-345.2 466,-345.2 466,-323.2 347,-323.2"/>
<text text-anchor="start" x="350" y="-330.9" font-family="Helvetica,sans-Serif" font-size="11.00" fill="#000000">text[2147483647]</text>
<polygon fill="none" stroke="#000000" points="166,-301.2 166,-323.2 347,-323.2 347,-301.2 166,-301.2"/>
<text text-anchor="start" x="186" y="-308.3" font-family="Helvetica,sans-Serif" font-size="11.00" fill="#000000">inspectie_certificaat</text>
<polygon fill="none" stroke="#000000" points="347,-301.2 347,-323.2 466,-323.2 466,-301.2 347,-301.2"/>
<text text-anchor="start" x="350" y="-308.9" font-family="Helvetica,sans-Serif" font-size="11.00" fill="#000000">date[13]</text>
<polygon fill="none" stroke="#000000" points="166,-279.2 166,-301.2 347,-301.2 347,-279.2 166,-279.2"/>
<text text-anchor="start" x="186" y="-286.3" font-family="Helvetica,sans-Serif" font-size="11.00" fill="#000000">inspectie_locatie</text>
<polygon fill="none" stroke="#000000" points="347,-279.2 347,-301.2 466,-301.2 466,-279.2 347,-279.2"/>
<text text-anchor="start" x="350" y="-286.9" font-family="Helvetica,sans-Serif" font-size="11.00" fill="#000000">text[2147483647]</text>
<polygon fill="none" stroke="#000000" points="166,-257.2 166,-279.2 347,-279.2 347,-257.2 166,-257.2"/>
<text text-anchor="start" x="186" y="-264.3" font-family="Helvetica,sans-Serif" font-size="11.00" fill="#000000">inspectie_markering</text>
<polygon fill="none" stroke="#000000" points="347,-257.2 347,-279.2 466,-279.2 466,-257.2 347,-257.2"/>
<text text-anchor="start" x="350" y="-264.9" font-family="Helvetica,sans-Serif" font-size="11.00" fill="#000000">text[2147483647]</text>
<polygon fill="none" stroke="#000000" points="166,-235.2 166,-257.2 347,-257.2 347,-235.2 166,-235.2"/>
<text text-anchor="start" x="186" y="-242.3" font-family="Helvetica,sans-Serif" font-size="11.00" fill="#000000">inspectie_beplanting</text>
<polygon fill="none" stroke="#000000" points="347,-235.2 347,-257.2 466,-257.2 466,-235.2 347,-235.2"/>
<text text-anchor="start" x="350" y="-242.9" font-family="Helvetica,sans-Serif" font-size="11.00" fill="#000000">text[2147483647]</text>
<polygon fill="none" stroke="#000000" points="166,-213.2 166,-235.2 347,-235.2 347,-213.2 166,-213.2"/>
<text text-anchor="start" x="186" y="-220.3" font-family="Helvetica,sans-Serif" font-size="11.00" fill="#000000">inspectie_obstakels</text>
<polygon fill="none" stroke="#000000" points="347,-213.2 347,-235.2 466,-235.2 466,-213.2 347,-213.2"/>
<text text-anchor="start" x="350" y="-220.9" font-family="Helvetica,sans-Serif" font-size="11.00" fill="#000000">text[2147483647]</text>
<polygon fill="none" stroke="#000000" points="166,-191.2 166,-213.2 347,-213.2 347,-191.2 166,-191.2"/>
<text text-anchor="start" x="186" y="-198.3" font-family="Helvetica,sans-Serif" font-size="11.00" fill="#000000">inspectie_bereikbaarheid</text>
<polygon fill="none" stroke="#000000" points="347,-191.2 347,-213.2 466,-213.2 466,-191.2 347,-191.2"/>
<text text-anchor="start" x="350" y="-198.9" font-family="Helvetica,sans-Serif" font-size="11.00" fill="#000000">text[2147483647]</text>
<polygon fill="none" stroke="#000000" points="166,-169.2 166,-191.2 347,-191.2 347,-169.2 166,-169.2"/>
<text text-anchor="start" x="186" y="-176.3" font-family="Helvetica,sans-Serif" font-size="11.00" fill="#000000">inspectie_elektra</text>
<polygon fill="none" stroke="#000000" points="347,-169.2 347,-191.2 466,-191.2 466,-169.2 347,-169.2"/>
<text text-anchor="start" x="350" y="-176.9" font-family="Helvetica,sans-Serif" font-size="11.00" fill="#000000">text[2147483647]</text>
<polygon fill="none" stroke="#000000" points="166,-147.2 166,-169.2 347,-169.2 347,-147.2 166,-147.2"/>
<text text-anchor="start" x="186" y="-154.3" font-family="Helvetica,sans-Serif" font-size="11.00" fill="#000000">inspectie_aanrijdbeveiliging</text>
<polygon fill="none" stroke="#000000" points="347,-147.2 347,-169.2 466,-169.2 466,-147.2 347,-147.2"/>
<text text-anchor="start" x="350" y="-154.9" font-family="Helvetica,sans-Serif" font-size="11.00" fill="#000000">text[2147483647]</text>
<polygon fill="none" stroke="#000000" points="166,-125.2 166,-147.2 347,-147.2 347,-125.2 166,-125.2"/>
<text text-anchor="start" x="186" y="-132.3" font-family="Helvetica,sans-Serif" font-size="11.00" fill="#000000">inspectie_slot</text>
<polygon fill="none" stroke="#000000" points="347,-125.2 347,-147.2 466,-147.2 466,-125.2 347,-125.2"/>
<text text-anchor="start" x="350" y="-132.9" font-family="Helvetica,sans-Serif" font-size="11.00" fill="#000000">text[2147483647]</text>
<polygon fill="none" stroke="#000000" points="166,-103.2 166,-125.2 347,-125.2 347,-103.2 166,-103.2"/>
<text text-anchor="start" x="186" y="-110.3" font-family="Helvetica,sans-Serif" font-size="11.00" fill="#000000">inspectie_deksel</text>
<polygon fill="none" stroke="#000000" points="347,-103.2 347,-125.2 466,-125.2 466,-103.2 347,-103.2"/>
<text text-anchor="start" x="350" y="-110.9" font-family="Helvetica,sans-Serif" font-size="11.00" fill="#000000">text[2147483647]</text>
<polygon fill="none" stroke="#000000" points="166,-81.2 166,-103.2 347,-103.2 347,-81.2 166,-81.2"/>
<text text-anchor="start" x="186" y="-88.3" font-family="Helvetica,sans-Serif" font-size="11.00" fill="#000000">inspectie_rubber</text>
<polygon fill="none" stroke="#000000" points="347,-81.2 347,-103.2 466,-103.2 466,-81.2 347,-81.2"/>
<text text-anchor="start" x="350" y="-88.9" font-family="Helvetica,sans-Serif" font-size="11.00" fill="#000000">text[2147483647]</text>
<polygon fill="none" stroke="#000000" points="166,-59.2 166,-81.2 347,-81.2 347,-59.2 166,-59.2"/>
<text text-anchor="start" x="186" y="-66.3" font-family="Helvetica,sans-Serif" font-size="11.00" fill="#000000">inspectie_koppeling</text>
<polygon fill="none" stroke="#000000" points="347,-59.2 347,-81.2 466,-81.2 466,-59.2 347,-59.2"/>
<text text-anchor="start" x="350" y="-66.9" font-family="Helvetica,sans-Serif" font-size="11.00" fill="#000000">text[2147483647]</text>
<polygon fill="#ffffff" stroke="transparent" points="166,-40.2 166,-59.2 261,-59.2 261,-40.2 166,-40.2"/>
<polygon fill="none" stroke="#000000" points="166,-40.2 166,-59.2 261,-59.2 261,-40.2 166,-40.2"/>
<text text-anchor="start" x="169" y="-46.3" font-family="Helvetica,sans-Serif" font-size="11.00" fill="#000000">&lt; 4</text>
<polygon fill="#ffffff" stroke="transparent" points="261,-40.2 261,-59.2 347,-59.2 347,-40.2 261,-40.2"/>
<polygon fill="none" stroke="#000000" points="261,-40.2 261,-59.2 347,-59.2 347,-40.2 261,-40.2"/>
<text text-anchor="start" x="337.8862" y="-46.3" font-family="Helvetica,sans-Serif" font-size="11.00" fill="#000000"> &#160;</text>
<polygon fill="#ffffff" stroke="transparent" points="347,-40.2 347,-59.2 466,-59.2 466,-40.2 347,-40.2"/>
<polygon fill="none" stroke="#000000" points="347,-40.2 347,-59.2 466,-59.2 466,-40.2 347,-40.2"/>
<text text-anchor="start" x="447.4053" y="-46.3" font-family="Helvetica,sans-Serif" font-size="11.00" fill="#000000">0 &gt;</text>
<polygon fill="none" stroke="#000000" stroke-width="2" points="165,-39.2 165,-1095.2 467,-1095.2 467,-39.2 165,-39.2"/>
</a>
</g>
</g>
<!-- roi.fase -->
<g id="node2" class="node">
<title>roi.fase</title>
<g id="a_node2"><a xlink:href="../../../roi/tables/fase.html" xlink:title="roi.fase" target="_top">
<polygon fill="#ffffff" stroke="transparent" points="21,-759.7 21,-820.7 102,-820.7 102,-759.7 21,-759.7"/>
<polygon fill="#f5f5f5" stroke="transparent" points="21.5,-797.2 21.5,-820.2 102.5,-820.2 102.5,-797.2 21.5,-797.2"/>
<polygon fill="none" stroke="#000000" points="21.5,-797.2 21.5,-820.2 102.5,-820.2 102.5,-797.2 21.5,-797.2"/>
<text text-anchor="start" x="26.5" y="-805.8" font-family="Helvetica,sans-Serif" font-weight="bold" font-size="11.00" fill="#000000">roi.fase</text>
<text text-anchor="start" x="68.0219" y="-805.3" font-family="Helvetica,sans-Serif" font-size="11.00" fill="#000000">[table]</text>
<polygon fill="none" stroke="#000000" points="21.5,-778.2 21.5,-797.2 102.5,-797.2 102.5,-778.2 21.5,-778.2"/>
<text text-anchor="start" x="24.5" y="-784.3" font-family="Helvetica,sans-Serif" font-size="11.00" fill="#000000">...</text>
<polygon fill="#ffffff" stroke="transparent" points="21.5,-759.2 21.5,-778.2 51.5,-778.2 51.5,-759.2 21.5,-759.2"/>
<polygon fill="none" stroke="#000000" points="21.5,-759.2 21.5,-778.2 51.5,-778.2 51.5,-759.2 21.5,-759.2"/>
<text text-anchor="start" x="24.5" y="-765.3" font-family="Helvetica,sans-Serif" font-size="11.00" fill="#000000"> &#160;</text>
<polygon fill="#ffffff" stroke="transparent" points="51.5,-759.2 51.5,-778.2 72.5,-778.2 72.5,-759.2 51.5,-759.2"/>
<polygon fill="none" stroke="#000000" points="51.5,-759.2 51.5,-778.2 72.5,-778.2 72.5,-759.2 51.5,-759.2"/>
<text text-anchor="start" x="63.3862" y="-765.3" font-family="Helvetica,sans-Serif" font-size="11.00" fill="#000000"> &#160;</text>
<polygon fill="#ffffff" stroke="transparent" points="72.5,-759.2 72.5,-778.2 102.5,-778.2 102.5,-759.2 72.5,-759.2"/>
<polygon fill="none" stroke="#000000" points="72.5,-759.2 72.5,-778.2 102.5,-778.2 102.5,-759.2 72.5,-759.2"/>
<text text-anchor="start" x="83.9053" y="-765.3" font-family="Helvetica,sans-Serif" font-size="11.00" fill="#000000">5 &gt;</text>
</a>
</g>
</g>
<!-- brandput&#45;&gt;roi.fase -->
<g id="edge1" class="edge">
<title>brandput:w&#45;&gt;roi.fase:e</title>
<path fill="none" stroke="#000000" d="M152.1992,-735.3326C141.0622,-740.8275 125.3701,-750.018 110.1636,-759.3212"/>
<polygon fill="#000000" stroke="#000000" points="158.5018,-732.9887 167.2549,-733.5742 162.2509,-731.5943 166,-730.2 166,-730.2 166,-730.2 162.2509,-731.5943 164.7451,-726.8258 158.5018,-732.9887 158.5018,-732.9887"/>
<ellipse fill="none" stroke="#000000" cx="155.5025" cy="-734.1041" rx="3.2" ry="3.2"/>
</g>
<!-- gebied -->
<g id="node3" class="node">
<title>gebied</title>
<g id="a_node3"><a xlink:href="../../tables/gebied.html" xlink:title="gebied" target="_top">
<polygon fill="#ffffff" stroke="transparent" points="14,-573.7 14,-656.7 109,-656.7 109,-573.7 14,-573.7"/>
<polygon fill="#f5f5f5" stroke="transparent" points="14.5,-633.2 14.5,-656.2 109.5,-656.2 109.5,-633.2 14.5,-633.2"/>
<polygon fill="none" stroke="#000000" points="14.5,-633.2 14.5,-656.2 109.5,-656.2 109.5,-633.2 14.5,-633.2"/>
<text text-anchor="start" x="19.5" y="-641.8" font-family="Helvetica,sans-Serif" font-weight="bold" font-size="11.00" fill="#000000">gebied</text>
<text text-anchor="start" x="74.5437" y="-641.3" font-family="Helvetica,sans-Serif" font-size="11.00" fill="#000000">[table]</text>
<polygon fill="none" stroke="#000000" points="14.5,-611.2 14.5,-633.2 109.5,-633.2 109.5,-611.2 14.5,-611.2"/>
<image xlink:href="../../images/primaryKeys.png" width="11px" height="12px" preserveAspectRatio="xMinYMin meet" x="19.5" y="-628.2"/>
<text text-anchor="start" x="34.5" y="-618.3" font-family="Helvetica,sans-Serif" font-size="11.00" fill="#000000">id</text>
<polygon fill="none" stroke="#000000" points="14.5,-592.2 14.5,-611.2 109.5,-611.2 109.5,-592.2 14.5,-592.2"/>
<text text-anchor="start" x="17.5" y="-598.3" font-family="Helvetica,sans-Serif" font-size="11.00" fill="#000000">...</text>
<polygon fill="#ffffff" stroke="transparent" points="14.5,-573.2 14.5,-592.2 51.5,-592.2 51.5,-573.2 14.5,-573.2"/>
<polygon fill="none" stroke="#000000" points="14.5,-573.2 14.5,-592.2 51.5,-592.2 51.5,-573.2 14.5,-573.2"/>
<text text-anchor="start" x="17.5" y="-579.3" font-family="Helvetica,sans-Serif" font-size="11.00" fill="#000000"> &#160;</text>
<polygon fill="#ffffff" stroke="transparent" points="51.5,-573.2 51.5,-592.2 75.5,-592.2 75.5,-573.2 51.5,-573.2"/>
<polygon fill="none" stroke="#000000" points="51.5,-573.2 51.5,-592.2 75.5,-592.2 75.5,-573.2 51.5,-573.2"/>
<text text-anchor="start" x="66.3862" y="-579.3" font-family="Helvetica,sans-Serif" font-size="11.00" fill="#000000"> &#160;</text>
<polygon fill="#ffffff" stroke="transparent" points="75.5,-573.2 75.5,-592.2 109.5,-592.2 109.5,-573.2 75.5,-573.2"/>
<polygon fill="none" stroke="#000000" points="75.5,-573.2 75.5,-592.2 109.5,-592.2 109.5,-573.2 75.5,-573.2"/>
<text text-anchor="start" x="90.9053" y="-579.3" font-family="Helvetica,sans-Serif" font-size="11.00" fill="#000000">5 &gt;</text>
</a>
</g>
</g>
<!-- brandput&#45;&gt;gebied -->
<g id="edge2" class="edge">
<title>brandput:w&#45;&gt;gebied:e</title>
<path fill="none" stroke="#000000" d="M151.9758,-682.0008C132.7156,-667.7625 141.5142,-622.2 109.5,-622.2"/>
<polygon fill="#000000" stroke="#000000" points="158.3362,-683.9052 164.9673,-689.6487 162.1681,-685.0526 166,-686.2 166,-686.2 166,-686.2 162.1681,-685.0526 167.0327,-682.7513 158.3362,-683.9052 158.3362,-683.9052"/>
<ellipse fill="none" stroke="#000000" cx="155.2707" cy="-682.9873" rx="3.2" ry="3.2"/>
</g>
<!-- conditie -->
<g id="node4" class="node">
<title>conditie</title>
<g id="a_node4"><a xlink:href="../../tables/conditie.html" xlink:title="conditie" target="_top">
<polygon fill="#ffffff" stroke="transparent" points="14,-351.7 14,-434.7 109,-434.7 109,-351.7 14,-351.7"/>
<polygon fill="#f5f5f5" stroke="transparent" points="14.5,-411.2 14.5,-434.2 109.5,-434.2 109.5,-411.2 14.5,-411.2"/>
<polygon fill="none" stroke="#000000" points="14.5,-411.2 14.5,-434.2 109.5,-434.2 109.5,-411.2 14.5,-411.2"/>
<text text-anchor="start" x="19.5" y="-419.8" font-family="Helvetica,sans-Serif" font-weight="bold" font-size="11.00" fill="#000000">conditie</text>
<text text-anchor="start" x="74.5437" y="-419.3" font-family="Helvetica,sans-Serif" font-size="11.00" fill="#000000">[table]</text>
<polygon fill="none" stroke="#000000" points="14.5,-389.2 14.5,-411.2 109.5,-411.2 109.5,-389.2 14.5,-389.2"/>
<image xlink:href="../../images/primaryKeys.png" width="11px" height="12px" preserveAspectRatio="xMinYMin meet" x="19.5" y="-406.2"/>
<text text-anchor="start" x="34.5" y="-396.3" font-family="Helvetica,sans-Serif" font-size="11.00" fill="#000000">id</text>
<polygon fill="none" stroke="#000000" points="14.5,-370.2 14.5,-389.2 109.5,-389.2 109.5,-370.2 14.5,-370.2"/>
<text text-anchor="start" x="17.5" y="-376.3" font-family="Helvetica,sans-Serif" font-size="11.00" fill="#000000">...</text>
<polygon fill="#ffffff" stroke="transparent" points="14.5,-351.2 14.5,-370.2 51.5,-370.2 51.5,-351.2 14.5,-351.2"/>
<polygon fill="none" stroke="#000000" points="14.5,-351.2 14.5,-370.2 51.5,-370.2 51.5,-351.2 14.5,-351.2"/>
<text text-anchor="start" x="17.5" y="-357.3" font-family="Helvetica,sans-Serif" font-size="11.00" fill="#000000"> &#160;</text>
<polygon fill="#ffffff" stroke="transparent" points="51.5,-351.2 51.5,-370.2 75.5,-370.2 75.5,-351.2 51.5,-351.2"/>
<polygon fill="none" stroke="#000000" points="51.5,-351.2 51.5,-370.2 75.5,-370.2 75.5,-351.2 51.5,-351.2"/>
<text text-anchor="start" x="66.3862" y="-357.3" font-family="Helvetica,sans-Serif" font-size="11.00" fill="#000000"> &#160;</text>
<polygon fill="#ffffff" stroke="transparent" points="75.5,-351.2 75.5,-370.2 109.5,-370.2 109.5,-351.2 75.5,-351.2"/>
<polygon fill="none" stroke="#000000" points="75.5,-351.2 75.5,-370.2 109.5,-370.2 109.5,-351.2 75.5,-351.2"/>
<text text-anchor="start" x="90.9053" y="-357.3" font-family="Helvetica,sans-Serif" font-size="11.00" fill="#000000">5 &gt;</text>
</a>
</g>
</g>
<!-- brandput&#45;&gt;conditie -->
<g id="edge3" class="edge">
<title>brandput:w&#45;&gt;conditie:e</title>
<path fill="none" stroke="#000000" d="M151.3944,-400.2C137.0775,-400.2 128.9219,-400.2 109.5,-400.2"/>
<polygon fill="#000000" stroke="#000000" points="158,-400.2001 166,-403.8 162,-400.2 166,-400.2 166,-400.2 166,-400.2 162,-400.2 166,-396.6 158,-400.2001 158,-400.2001"/>
<ellipse fill="none" stroke="#000000" cx="154.8" cy="-400.2001" rx="3.2" ry="3.2"/>
</g>
<!-- roi.symbool -->
<g id="node5" class="node">
<title>roi.symbool</title>
<g id="a_node5"><a xlink:href="../../../roi/tables/symbool.html" xlink:title="roi.symbool" target="_top">
<polygon fill="#ffffff" stroke="transparent" points="8,-677.7 8,-738.7 115,-738.7 115,-677.7 8,-677.7"/>
<polygon fill="#f5f5f5" stroke="transparent" points="8.5,-715.2 8.5,-738.2 115.5,-738.2 115.5,-715.2 8.5,-715.2"/>
<polygon fill="none" stroke="#000000" points="8.5,-715.2 8.5,-738.2 115.5,-738.2 115.5,-715.2 8.5,-715.2"/>
<text text-anchor="start" x="13.5" y="-723.8" font-family="Helvetica,sans-Serif" font-weight="bold" font-size="11.00" fill="#000000">roi.symbool</text>
<text text-anchor="start" x="81.0219" y="-723.3" font-family="Helvetica,sans-Serif" font-size="11.00" fill="#000000">[table]</text>
<polygon fill="none" stroke="#000000" points="8.5,-696.2 8.5,-715.2 115.5,-715.2 115.5,-696.2 8.5,-696.2"/>
<text text-anchor="start" x="11.5" y="-702.3" font-family="Helvetica,sans-Serif" font-size="11.00" fill="#000000">...</text>
<polygon fill="#ffffff" stroke="transparent" points="8.5,-677.2 8.5,-696.2 51.5,-696.2 51.5,-677.2 8.5,-677.2"/>
<polygon fill="none" stroke="#000000" points="8.5,-677.2 8.5,-696.2 51.5,-696.2 51.5,-677.2 8.5,-677.2"/>
<text text-anchor="start" x="11.5" y="-683.3" font-family="Helvetica,sans-Serif" font-size="11.00" fill="#000000"> &#160;</text>
<polygon fill="#ffffff" stroke="transparent" points="51.5,-677.2 51.5,-696.2 78.5,-696.2 78.5,-677.2 51.5,-677.2"/>
<polygon fill="none" stroke="#000000" points="51.5,-677.2 51.5,-696.2 78.5,-696.2 78.5,-677.2 51.5,-677.2"/>
<text text-anchor="start" x="69.3862" y="-683.3" font-family="Helvetica,sans-Serif" font-size="11.00" fill="#000000"> &#160;</text>
<polygon fill="#ffffff" stroke="transparent" points="78.5,-677.2 78.5,-696.2 115.5,-696.2 115.5,-677.2 78.5,-677.2"/>
<polygon fill="none" stroke="#000000" points="78.5,-677.2 78.5,-696.2 115.5,-696.2 115.5,-677.2 78.5,-677.2"/>
<text text-anchor="start" x="96.9053" y="-683.3" font-family="Helvetica,sans-Serif" font-size="11.00" fill="#000000">6 &gt;</text>
</a>
</g>
</g>
<!-- brandput&#45;&gt;roi.symbool -->
<g id="edge4" class="edge">
<title>brandput:w&#45;&gt;roi.symbool:e</title>
<path fill="none" stroke="#000000" d="M151.3953,-708.2C141.9637,-708.2 132.3607,-708.2 123.1118,-708.2"/>
<polygon fill="#000000" stroke="#000000" points="158,-708.2001 166,-711.8 162,-708.2 166,-708.2 166,-708.2 166,-708.2 162,-708.2 166,-704.6 158,-708.2001 158,-708.2001"/>
<ellipse fill="none" stroke="#000000" cx="154.8" cy="-708.2001" rx="3.2" ry="3.2"/>
</g>
</g>
</svg>
