<?xml version="1.0" encoding="UTF-8" standalone="no"?>
<!DOCTYPE svg PUBLIC "-//W3C//DTD SVG 1.1//EN"
 "http://www.w3.org/Graphics/SVG/1.1/DTD/svg11.dtd">
<!-- Generated by graphviz version 2.50.0 (0)
 -->
<!-- Title: oneDegreeRelationshipsDiagram Pages: 1 -->
<svg width="542pt" height="1215pt"
 viewBox="0.00 0.00 542.00 1215.00" xmlns="http://www.w3.org/2000/svg" xmlns:xlink="http://www.w3.org/1999/xlink">
<g id="graph0" class="graph" transform="scale(1 1) rotate(0) translate(4 1211)">
<title>oneDegreeRelationshipsDiagram</title>
<polygon fill="#ffffff" stroke="transparent" points="-4,4 -4,-1211 538,-1211 538,4 -4,4"/>
<text text-anchor="middle" x="79.5" y="-7.2" font-family="Helvetica,sans-Serif" font-size="11.00">Generated by SchemaSpy</text>
<!-- brandkraan_prive -->
<g id="node1" class="node">
<title>brandkraan_prive</title>
<g id="a_node1"><a xlink:href="../../tables/brandkraan_prive.html" xlink:title="brandkraan_prive" target="_top">
<polygon fill="#ffffff" stroke="transparent" points="181,-37 181,-1203 526,-1203 526,-37 181,-37"/>
<polygon fill="#f5f5f5" stroke="transparent" points="183.5,-1179 183.5,-1201 524.5,-1201 524.5,-1179 183.5,-1179"/>
<polygon fill="none" stroke="black" points="183.5,-1179 183.5,-1201 524.5,-1201 524.5,-1179 183.5,-1179"/>
<text text-anchor="start" x="188.5" y="-1188.2" font-family="Helvetica,sans-Serif" font-weight="bold" font-size="11.00">brandkraan_prive</text>
<text text-anchor="start" x="482.5" y="-1187.2" font-family="Helvetica,sans-Serif" font-size="11.00">[table]</text>
<polygon fill="none" stroke="black" points="183.5,-1157 183.5,-1179 388.5,-1179 388.5,-1157 183.5,-1157"/>
<image xlink:href="../../images/primaryKeys.png" width="11px" height="12px" preserveAspectRatio="xMinYMin meet" x="188.5" y="-1174"/>
<text text-anchor="start" x="203.5" y="-1165.2" font-family="Helvetica,sans-Serif" font-size="11.00">uuid</text>
<polygon fill="none" stroke="black" points="388.5,-1157 388.5,-1179 524.5,-1179 524.5,-1157 388.5,-1157"/>
<text text-anchor="start" x="391.5" y="-1165.2" font-family="Helvetica,sans-Serif" font-size="11.00">uuid[2147483647]</text>
<polygon fill="#ffffff" stroke="transparent" points="183.5,-1135 183.5,-1157 388.5,-1157 388.5,-1135 183.5,-1135"/>
<polygon fill="none" stroke="black" points="183.5,-1135 183.5,-1157 388.5,-1157 388.5,-1135 183.5,-1135"/>
<text text-anchor="start" x="203.5" y="-1143.2" font-family="Helvetica,sans-Serif" font-size="11.00">geom</text>
<polygon fill="none" stroke="black" points="388.5,-1135 388.5,-1157 524.5,-1157 524.5,-1135 388.5,-1135"/>
<text text-anchor="start" x="391.5" y="-1143.2" font-family="Helvetica,sans-Serif" font-size="11.00">geometry[2147483647]</text>
<polygon fill="none" stroke="black" points="183.5,-1113 183.5,-1135 388.5,-1135 388.5,-1113 183.5,-1113"/>
<text text-anchor="start" x="203.5" y="-1121.2" font-family="Helvetica,sans-Serif" font-size="11.00">datumtijd</text>
<polygon fill="none" stroke="black" points="388.5,-1113 388.5,-1135 524.5,-1135 524.5,-1113 388.5,-1113"/>
<text text-anchor="start" x="391.5" y="-1121.2" font-family="Helvetica,sans-Serif" font-size="11.00">timestamptz[35,6]</text>
<polygon fill="none" stroke="black" points="183.5,-1091 183.5,-1113 388.5,-1113 388.5,-1091 183.5,-1091"/>
<text text-anchor="start" x="203.5" y="-1099.2" font-family="Helvetica,sans-Serif" font-size="11.00">gebruiker</text>
<polygon fill="none" stroke="black" points="388.5,-1091 388.5,-1113 524.5,-1113 524.5,-1091 388.5,-1091"/>
<text text-anchor="start" x="391.5" y="-1099.2" font-family="Helvetica,sans-Serif" font-size="11.00">varchar[255]</text>
<polygon fill="none" stroke="black" points="183.5,-1069 183.5,-1091 388.5,-1091 388.5,-1069 183.5,-1069"/>
<text text-anchor="start" x="203.5" y="-1077.2" font-family="Helvetica,sans-Serif" font-size="11.00">label</text>
<polygon fill="none" stroke="black" points="388.5,-1069 388.5,-1091 524.5,-1091 524.5,-1069 388.5,-1069"/>
<text text-anchor="start" x="391.5" y="-1077.2" font-family="Helvetica,sans-Serif" font-size="11.00">text[2147483647]</text>
<polygon fill="none" stroke="black" points="183.5,-1047 183.5,-1069 388.5,-1069 388.5,-1047 183.5,-1047"/>
<text text-anchor="start" x="203.5" y="-1055.2" font-family="Helvetica,sans-Serif" font-size="11.00">rotatie</text>
<polygon fill="none" stroke="black" points="388.5,-1047 388.5,-1069 524.5,-1069 524.5,-1047 388.5,-1047"/>
<text text-anchor="start" x="391.5" y="-1055.2" font-family="Helvetica,sans-Serif" font-size="11.00">int4[10]</text>
<polygon fill="none" stroke="black" points="183.5,-1025 183.5,-1047 388.5,-1047 388.5,-1025 183.5,-1025"/>
<text text-anchor="start" x="203.5" y="-1033.2" font-family="Helvetica,sans-Serif" font-size="11.00">bijzonderheden</text>
<polygon fill="none" stroke="black" points="388.5,-1025 388.5,-1047 524.5,-1047 524.5,-1025 388.5,-1025"/>
<text text-anchor="start" x="391.5" y="-1033.2" font-family="Helvetica,sans-Serif" font-size="11.00">text[2147483647]</text>
<polygon fill="none" stroke="black" points="183.5,-1003 183.5,-1025 388.5,-1025 388.5,-1003 183.5,-1003"/>
<text text-anchor="start" x="203.5" y="-1011.2" font-family="Helvetica,sans-Serif" font-size="11.00">plusinfo</text>
<polygon fill="none" stroke="black" points="388.5,-1003 388.5,-1025 524.5,-1025 524.5,-1003 388.5,-1003"/>
<text text-anchor="start" x="391.5" y="-1011.2" font-family="Helvetica,sans-Serif" font-size="11.00">jsonb[2147483647]</text>
<polygon fill="none" stroke="black" points="183.5,-981 183.5,-1003 388.5,-1003 388.5,-981 183.5,-981"/>
<text text-anchor="start" x="203.5" y="-989.2" font-family="Helvetica,sans-Serif" font-size="11.00">aanleg</text>
<polygon fill="none" stroke="black" points="388.5,-981 388.5,-1003 524.5,-1003 524.5,-981 388.5,-981"/>
<text text-anchor="start" x="391.5" y="-989.2" font-family="Helvetica,sans-Serif" font-size="11.00">date[13]</text>
<polygon fill="none" stroke="black" points="183.5,-959 183.5,-981 388.5,-981 388.5,-959 183.5,-959"/>
<text text-anchor="start" x="203.5" y="-967.2" font-family="Helvetica,sans-Serif" font-size="11.00">code</text>
<polygon fill="none" stroke="black" points="388.5,-959 388.5,-981 524.5,-981 524.5,-959 388.5,-959"/>
<text text-anchor="start" x="391.5" y="-967.2" font-family="Helvetica,sans-Serif" font-size="11.00">text[2147483647]</text>
<polygon fill="none" stroke="black" points="183.5,-937 183.5,-959 388.5,-959 388.5,-937 183.5,-937"/>
<text text-anchor="start" x="203.5" y="-945.2" font-family="Helvetica,sans-Serif" font-size="11.00">beheerder</text>
<polygon fill="none" stroke="black" points="388.5,-937 388.5,-959 524.5,-959 524.5,-937 388.5,-937"/>
<text text-anchor="start" x="391.5" y="-945.2" font-family="Helvetica,sans-Serif" font-size="11.00">text[2147483647]</text>
<polygon fill="none" stroke="black" points="183.5,-915 183.5,-937 388.5,-937 388.5,-915 183.5,-915"/>
<text text-anchor="start" x="203.5" y="-923.2" font-family="Helvetica,sans-Serif" font-size="11.00">particulier</text>
<polygon fill="none" stroke="black" points="388.5,-915 388.5,-937 524.5,-937 524.5,-915 388.5,-915"/>
<text text-anchor="start" x="391.5" y="-923.2" font-family="Helvetica,sans-Serif" font-size="11.00">text[2147483647]</text>
<polygon fill="none" stroke="black" points="183.5,-893 183.5,-915 388.5,-915 388.5,-893 183.5,-893"/>
<text text-anchor="start" x="203.5" y="-901.2" font-family="Helvetica,sans-Serif" font-size="11.00">adres</text>
<polygon fill="none" stroke="black" points="388.5,-893 388.5,-915 524.5,-915 524.5,-893 388.5,-893"/>
<text text-anchor="start" x="391.5" y="-901.2" font-family="Helvetica,sans-Serif" font-size="11.00">text[2147483647]</text>
<polygon fill="none" stroke="black" points="183.5,-871 183.5,-893 388.5,-893 388.5,-871 183.5,-871"/>
<text text-anchor="start" x="203.5" y="-879.2" font-family="Helvetica,sans-Serif" font-size="11.00">uitsluiten</text>
<polygon fill="none" stroke="black" points="388.5,-871 388.5,-893 524.5,-893 524.5,-871 388.5,-871"/>
<text text-anchor="start" x="391.5" y="-879.2" font-family="Helvetica,sans-Serif" font-size="11.00">bool[1]</text>
<polygon fill="none" stroke="black" points="183.5,-849 183.5,-871 388.5,-871 388.5,-849 183.5,-849"/>
<text text-anchor="start" x="203.5" y="-857.2" font-family="Helvetica,sans-Serif" font-size="11.00">revisie_frequentie</text>
<polygon fill="none" stroke="black" points="388.5,-849 388.5,-871 524.5,-871 524.5,-849 388.5,-849"/>
<text text-anchor="start" x="391.5" y="-857.2" font-family="Helvetica,sans-Serif" font-size="11.00">int2[5]</text>
<polygon fill="none" stroke="black" points="183.5,-827 183.5,-849 388.5,-849 388.5,-827 183.5,-827"/>
<image xlink:href="../../images/foreignKeys.png" width="11px" height="12px" preserveAspectRatio="xMinYMin meet" x="188.5" y="-844"/>
<text text-anchor="start" x="203.5" y="-835.2" font-family="Helvetica,sans-Serif" font-size="11.00">fase_id</text>
<polygon fill="none" stroke="black" points="388.5,-827 388.5,-849 524.5,-849 524.5,-827 388.5,-827"/>
<text text-anchor="start" x="391.5" y="-835.2" font-family="Helvetica,sans-Serif" font-size="11.00">int2[5]</text>
<polygon fill="none" stroke="black" points="183.5,-805 183.5,-827 388.5,-827 388.5,-805 183.5,-805"/>
<image xlink:href="../../images/foreignKeys.png" width="11px" height="12px" preserveAspectRatio="xMinYMin meet" x="188.5" y="-822"/>
<text text-anchor="start" x="203.5" y="-813.2" font-family="Helvetica,sans-Serif" font-size="11.00">symbool_id</text>
<polygon fill="none" stroke="black" points="388.5,-805 388.5,-827 524.5,-827 524.5,-805 388.5,-805"/>
<text text-anchor="start" x="391.5" y="-813.2" font-family="Helvetica,sans-Serif" font-size="11.00">int2[5]</text>
<polygon fill="none" stroke="black" points="183.5,-783 183.5,-805 388.5,-805 388.5,-783 183.5,-783"/>
<image xlink:href="../../images/foreignKeys.png" width="11px" height="12px" preserveAspectRatio="xMinYMin meet" x="188.5" y="-800"/>
<text text-anchor="start" x="203.5" y="-791.2" font-family="Helvetica,sans-Serif" font-size="11.00">gebied_id</text>
<polygon fill="none" stroke="black" points="388.5,-783 388.5,-805 524.5,-805 524.5,-783 388.5,-783"/>
<text text-anchor="start" x="391.5" y="-791.2" font-family="Helvetica,sans-Serif" font-size="11.00">int2[5]</text>
<polygon fill="none" stroke="black" points="183.5,-761 183.5,-783 388.5,-783 388.5,-761 183.5,-761"/>
<text text-anchor="start" x="203.5" y="-769.2" font-family="Helvetica,sans-Serif" font-size="11.00">locatie</text>
<polygon fill="none" stroke="black" points="388.5,-761 388.5,-783 524.5,-783 524.5,-761 388.5,-761"/>
<text text-anchor="start" x="391.5" y="-769.2" font-family="Helvetica,sans-Serif" font-size="11.00">text[2147483647]</text>
<polygon fill="none" stroke="black" points="183.5,-739 183.5,-761 388.5,-761 388.5,-739 183.5,-739"/>
<text text-anchor="start" x="203.5" y="-747.2" font-family="Helvetica,sans-Serif" font-size="11.00">opstelplaats</text>
<polygon fill="none" stroke="black" points="388.5,-739 388.5,-761 524.5,-761 524.5,-739 388.5,-739"/>
<text text-anchor="start" x="391.5" y="-747.2" font-family="Helvetica,sans-Serif" font-size="11.00">bool[1]</text>
<polygon fill="none" stroke="black" points="183.5,-717 183.5,-739 388.5,-739 388.5,-717 183.5,-717"/>
<text text-anchor="start" x="203.5" y="-725.2" font-family="Helvetica,sans-Serif" font-size="11.00">opstelplaats_locatie</text>
<polygon fill="none" stroke="black" points="388.5,-717 388.5,-739 524.5,-739 524.5,-717 388.5,-717"/>
<text text-anchor="start" x="391.5" y="-725.2" font-family="Helvetica,sans-Serif" font-size="11.00">text[2147483647]</text>
<polygon fill="none" stroke="black" points="183.5,-695 183.5,-717 388.5,-717 388.5,-695 183.5,-695"/>
<text text-anchor="start" x="203.5" y="-703.2" font-family="Helvetica,sans-Serif" font-size="11.00">markering</text>
<polygon fill="none" stroke="black" points="388.5,-695 388.5,-717 524.5,-717 524.5,-695 388.5,-695"/>
<text text-anchor="start" x="391.5" y="-703.2" font-family="Helvetica,sans-Serif" font-size="11.00">text[2147483647]</text>
<polygon fill="none" stroke="black" points="183.5,-673 183.5,-695 388.5,-695 388.5,-673 183.5,-673"/>
<text text-anchor="start" x="203.5" y="-681.2" font-family="Helvetica,sans-Serif" font-size="11.00">toegang</text>
<polygon fill="none" stroke="black" points="388.5,-673 388.5,-695 524.5,-695 524.5,-673 388.5,-673"/>
<text text-anchor="start" x="391.5" y="-681.2" font-family="Helvetica,sans-Serif" font-size="11.00">text[2147483647]</text>
<polygon fill="none" stroke="black" points="183.5,-651 183.5,-673 388.5,-673 388.5,-651 183.5,-651"/>
<text text-anchor="start" x="203.5" y="-659.2" font-family="Helvetica,sans-Serif" font-size="11.00">capaciteit</text>
<polygon fill="none" stroke="black" points="388.5,-651 388.5,-673 524.5,-673 524.5,-651 388.5,-651"/>
<text text-anchor="start" x="391.5" y="-659.2" font-family="Helvetica,sans-Serif" font-size="11.00">numeric[0]</text>
<polygon fill="none" stroke="black" points="183.5,-629 183.5,-651 388.5,-651 388.5,-629 183.5,-629"/>
<text text-anchor="start" x="203.5" y="-637.2" font-family="Helvetica,sans-Serif" font-size="11.00">inspecteur</text>
<polygon fill="none" stroke="black" points="388.5,-629 388.5,-651 524.5,-651 524.5,-629 388.5,-629"/>
<text text-anchor="start" x="391.5" y="-637.2" font-family="Helvetica,sans-Serif" font-size="11.00">text[2147483647]</text>
<polygon fill="none" stroke="black" points="183.5,-607 183.5,-629 388.5,-629 388.5,-607 183.5,-607"/>
<text text-anchor="start" x="203.5" y="-615.2" font-family="Helvetica,sans-Serif" font-size="11.00">inspectie_datum</text>
<polygon fill="none" stroke="black" points="388.5,-607 388.5,-629 524.5,-629 524.5,-607 388.5,-607"/>
<text text-anchor="start" x="391.5" y="-615.2" font-family="Helvetica,sans-Serif" font-size="11.00">date[13]</text>
<polygon fill="none" stroke="black" points="183.5,-585 183.5,-607 388.5,-607 388.5,-585 183.5,-585"/>
<image xlink:href="../../images/foreignKeys.png" width="11px" height="12px" preserveAspectRatio="xMinYMin meet" x="188.5" y="-602"/>
<text text-anchor="start" x="203.5" y="-593.2" font-family="Helvetica,sans-Serif" font-size="11.00">inspectie_conditie_id</text>
<polygon fill="none" stroke="black" points="388.5,-585 388.5,-607 524.5,-607 524.5,-585 388.5,-585"/>
<text text-anchor="start" x="391.5" y="-593.2" font-family="Helvetica,sans-Serif" font-size="11.00">int2[5]</text>
<polygon fill="none" stroke="black" points="183.5,-563 183.5,-585 388.5,-585 388.5,-563 183.5,-563"/>
<text text-anchor="start" x="203.5" y="-571.2" font-family="Helvetica,sans-Serif" font-size="11.00">inspectie_opmerking</text>
<polygon fill="none" stroke="black" points="388.5,-563 388.5,-585 524.5,-585 524.5,-563 388.5,-563"/>
<text text-anchor="start" x="391.5" y="-571.2" font-family="Helvetica,sans-Serif" font-size="11.00">text[2147483647]</text>
<polygon fill="none" stroke="black" points="183.5,-541 183.5,-563 388.5,-563 388.5,-541 183.5,-541"/>
<text text-anchor="start" x="203.5" y="-549.2" font-family="Helvetica,sans-Serif" font-size="11.00">inspectie_plusinfo</text>
<polygon fill="none" stroke="black" points="388.5,-541 388.5,-563 524.5,-563 524.5,-541 388.5,-541"/>
<text text-anchor="start" x="391.5" y="-549.2" font-family="Helvetica,sans-Serif" font-size="11.00">jsonb[2147483647]</text>
<polygon fill="none" stroke="black" points="183.5,-519 183.5,-541 388.5,-541 388.5,-519 183.5,-519"/>
<text text-anchor="start" x="203.5" y="-527.2" font-family="Helvetica,sans-Serif" font-size="11.00">inspectie_vindbaar</text>
<polygon fill="none" stroke="black" points="388.5,-519 388.5,-541 524.5,-541 524.5,-519 388.5,-519"/>
<text text-anchor="start" x="391.5" y="-527.2" font-family="Helvetica,sans-Serif" font-size="11.00">text[2147483647]</text>
<polygon fill="none" stroke="black" points="183.5,-497 183.5,-519 388.5,-519 388.5,-497 183.5,-497"/>
<text text-anchor="start" x="203.5" y="-505.2" font-family="Helvetica,sans-Serif" font-size="11.00">inspectie_locatie</text>
<polygon fill="none" stroke="black" points="388.5,-497 388.5,-519 524.5,-519 524.5,-497 388.5,-497"/>
<text text-anchor="start" x="391.5" y="-505.2" font-family="Helvetica,sans-Serif" font-size="11.00">text[2147483647]</text>
<polygon fill="none" stroke="black" points="183.5,-475 183.5,-497 388.5,-497 388.5,-475 183.5,-475"/>
<text text-anchor="start" x="203.5" y="-483.2" font-family="Helvetica,sans-Serif" font-size="11.00">inspectie_opstelplaats</text>
<polygon fill="none" stroke="black" points="388.5,-475 388.5,-497 524.5,-497 524.5,-475 388.5,-475"/>
<text text-anchor="start" x="391.5" y="-483.2" font-family="Helvetica,sans-Serif" font-size="11.00">text[2147483647]</text>
<polygon fill="none" stroke="black" points="183.5,-453 183.5,-475 388.5,-475 388.5,-453 183.5,-453"/>
<text text-anchor="start" x="203.5" y="-461.2" font-family="Helvetica,sans-Serif" font-size="11.00">inspectie_markering</text>
<polygon fill="none" stroke="black" points="388.5,-453 388.5,-475 524.5,-475 524.5,-453 388.5,-453"/>
<text text-anchor="start" x="391.5" y="-461.2" font-family="Helvetica,sans-Serif" font-size="11.00">text[2147483647]</text>
<polygon fill="none" stroke="black" points="183.5,-431 183.5,-453 388.5,-453 388.5,-431 183.5,-431"/>
<text text-anchor="start" x="203.5" y="-439.2" font-family="Helvetica,sans-Serif" font-size="11.00">inspectie_paal</text>
<polygon fill="none" stroke="black" points="388.5,-431 388.5,-453 524.5,-453 524.5,-431 388.5,-431"/>
<text text-anchor="start" x="391.5" y="-439.2" font-family="Helvetica,sans-Serif" font-size="11.00">text[2147483647]</text>
<polygon fill="none" stroke="black" points="183.5,-409 183.5,-431 388.5,-431 388.5,-409 183.5,-409"/>
<text text-anchor="start" x="203.5" y="-417.2" font-family="Helvetica,sans-Serif" font-size="11.00">inspectie_aanwijsplaat</text>
<polygon fill="none" stroke="black" points="388.5,-409 388.5,-431 524.5,-431 524.5,-409 388.5,-409"/>
<text text-anchor="start" x="391.5" y="-417.2" font-family="Helvetica,sans-Serif" font-size="11.00">text[2147483647]</text>
<polygon fill="none" stroke="black" points="183.5,-387 183.5,-409 388.5,-409 388.5,-387 183.5,-387"/>
<text text-anchor="start" x="203.5" y="-395.2" font-family="Helvetica,sans-Serif" font-size="11.00">inspectie_aanwijsplaat_correct</text>
<polygon fill="none" stroke="black" points="388.5,-387 388.5,-409 524.5,-409 524.5,-387 388.5,-387"/>
<text text-anchor="start" x="391.5" y="-395.2" font-family="Helvetica,sans-Serif" font-size="11.00">text[2147483647]</text>
<polygon fill="none" stroke="black" points="183.5,-365 183.5,-387 388.5,-387 388.5,-365 183.5,-365"/>
<text text-anchor="start" x="203.5" y="-373.2" font-family="Helvetica,sans-Serif" font-size="11.00">inspectie_bereikbaarheid</text>
<polygon fill="none" stroke="black" points="388.5,-365 388.5,-387 524.5,-387 524.5,-365 388.5,-365"/>
<text text-anchor="start" x="391.5" y="-373.2" font-family="Helvetica,sans-Serif" font-size="11.00">text[2147483647]</text>
<polygon fill="none" stroke="black" points="183.5,-343 183.5,-365 388.5,-365 388.5,-343 183.5,-343"/>
<text text-anchor="start" x="203.5" y="-351.2" font-family="Helvetica,sans-Serif" font-size="11.00">inspectie_beplanting</text>
<polygon fill="none" stroke="black" points="388.5,-343 388.5,-365 524.5,-365 524.5,-343 388.5,-343"/>
<text text-anchor="start" x="391.5" y="-351.2" font-family="Helvetica,sans-Serif" font-size="11.00">text[2147483647]</text>
<polygon fill="none" stroke="black" points="183.5,-321 183.5,-343 388.5,-343 388.5,-321 183.5,-321"/>
<text text-anchor="start" x="203.5" y="-329.2" font-family="Helvetica,sans-Serif" font-size="11.00">inspectie_puttegel</text>
<polygon fill="none" stroke="black" points="388.5,-321 388.5,-343 524.5,-343 524.5,-321 388.5,-321"/>
<text text-anchor="start" x="391.5" y="-329.2" font-family="Helvetica,sans-Serif" font-size="11.00">text[2147483647]</text>
<polygon fill="none" stroke="black" points="183.5,-299 183.5,-321 388.5,-321 388.5,-299 183.5,-299"/>
<text text-anchor="start" x="203.5" y="-307.2" font-family="Helvetica,sans-Serif" font-size="11.00">inspectie_straatpot</text>
<polygon fill="none" stroke="black" points="388.5,-299 388.5,-321 524.5,-321 524.5,-299 388.5,-299"/>
<text text-anchor="start" x="391.5" y="-307.2" font-family="Helvetica,sans-Serif" font-size="11.00">text[2147483647]</text>
<polygon fill="none" stroke="black" points="183.5,-277 183.5,-299 388.5,-299 388.5,-277 183.5,-277"/>
<text text-anchor="start" x="203.5" y="-285.2" font-family="Helvetica,sans-Serif" font-size="11.00">inspectie_putdeksel</text>
<polygon fill="none" stroke="black" points="388.5,-277 388.5,-299 524.5,-299 524.5,-277 388.5,-277"/>
<text text-anchor="start" x="391.5" y="-285.2" font-family="Helvetica,sans-Serif" font-size="11.00">text[2147483647]</text>
<polygon fill="none" stroke="black" points="183.5,-255 183.5,-277 388.5,-277 388.5,-255 183.5,-255"/>
<text text-anchor="start" x="203.5" y="-263.2" font-family="Helvetica,sans-Serif" font-size="11.00">inspectie_diepte</text>
<polygon fill="none" stroke="black" points="388.5,-255 388.5,-277 524.5,-277 524.5,-255 388.5,-255"/>
<text text-anchor="start" x="391.5" y="-263.2" font-family="Helvetica,sans-Serif" font-size="11.00">text[2147483647]</text>
<polygon fill="none" stroke="black" points="183.5,-233 183.5,-255 388.5,-255 388.5,-233 183.5,-233"/>
<text text-anchor="start" x="203.5" y="-241.2" font-family="Helvetica,sans-Serif" font-size="11.00">inspectie_lekkage</text>
<polygon fill="none" stroke="black" points="388.5,-233 388.5,-255 524.5,-255 524.5,-233 388.5,-233"/>
<text text-anchor="start" x="391.5" y="-241.2" font-family="Helvetica,sans-Serif" font-size="11.00">text[2147483647]</text>
<polygon fill="none" stroke="black" points="183.5,-211 183.5,-233 388.5,-233 388.5,-211 183.5,-211"/>
<text text-anchor="start" x="203.5" y="-219.2" font-family="Helvetica,sans-Serif" font-size="11.00">inspectie_slibdekstel</text>
<polygon fill="none" stroke="black" points="388.5,-211 388.5,-233 524.5,-233 524.5,-211 388.5,-211"/>
<text text-anchor="start" x="391.5" y="-219.2" font-family="Helvetica,sans-Serif" font-size="11.00">text[2147483647]</text>
<polygon fill="none" stroke="black" points="183.5,-189 183.5,-211 388.5,-211 388.5,-189 183.5,-189"/>
<text text-anchor="start" x="203.5" y="-197.2" font-family="Helvetica,sans-Serif" font-size="11.00">inspectie_klauw</text>
<polygon fill="none" stroke="black" points="388.5,-189 388.5,-211 524.5,-211 524.5,-189 388.5,-189"/>
<text text-anchor="start" x="391.5" y="-197.2" font-family="Helvetica,sans-Serif" font-size="11.00">text[2147483647]</text>
<polygon fill="none" stroke="black" points="183.5,-167 183.5,-189 388.5,-189 388.5,-167 183.5,-167"/>
<text text-anchor="start" x="203.5" y="-175.2" font-family="Helvetica,sans-Serif" font-size="11.00">inspectie_spindelkop</text>
<polygon fill="none" stroke="black" points="388.5,-167 388.5,-189 524.5,-189 524.5,-167 388.5,-167"/>
<text text-anchor="start" x="391.5" y="-175.2" font-family="Helvetica,sans-Serif" font-size="11.00">text[2147483647]</text>
<polygon fill="none" stroke="black" points="183.5,-145 183.5,-167 388.5,-167 388.5,-145 183.5,-145"/>
<text text-anchor="start" x="203.5" y="-153.2" font-family="Helvetica,sans-Serif" font-size="11.00">inspectie_spindel</text>
<polygon fill="none" stroke="black" points="388.5,-145 388.5,-167 524.5,-167 524.5,-145 388.5,-145"/>
<text text-anchor="start" x="391.5" y="-153.2" font-family="Helvetica,sans-Serif" font-size="11.00">text[2147483647]</text>
<polygon fill="none" stroke="black" points="183.5,-123 183.5,-145 388.5,-145 388.5,-123 183.5,-123"/>
<text text-anchor="start" x="203.5" y="-131.2" font-family="Helvetica,sans-Serif" font-size="11.00">inspectie_standpijp</text>
<polygon fill="none" stroke="black" points="388.5,-123 388.5,-145 524.5,-145 524.5,-123 388.5,-123"/>
<text text-anchor="start" x="391.5" y="-131.2" font-family="Helvetica,sans-Serif" font-size="11.00">text[2147483647]</text>
<polygon fill="none" stroke="black" points="183.5,-101 183.5,-123 388.5,-123 388.5,-101 183.5,-101"/>
<text text-anchor="start" x="203.5" y="-109.2" font-family="Helvetica,sans-Serif" font-size="11.00">inspectie_rechtzetten</text>
<polygon fill="none" stroke="black" points="388.5,-101 388.5,-123 524.5,-123 524.5,-101 388.5,-101"/>
<text text-anchor="start" x="391.5" y="-109.2" font-family="Helvetica,sans-Serif" font-size="11.00">text[2147483647]</text>
<polygon fill="none" stroke="black" points="183.5,-79 183.5,-101 388.5,-101 388.5,-79 183.5,-79"/>
<text text-anchor="start" x="203.5" y="-87.2" font-family="Helvetica,sans-Serif" font-size="11.00">inspectie_bluswater</text>
<polygon fill="none" stroke="black" points="388.5,-79 388.5,-101 524.5,-101 524.5,-79 388.5,-79"/>
<text text-anchor="start" x="391.5" y="-87.2" font-family="Helvetica,sans-Serif" font-size="11.00">text[2147483647]</text>
<polygon fill="none" stroke="black" points="183.5,-57 183.5,-79 388.5,-79 388.5,-57 183.5,-57"/>
<text text-anchor="start" x="203.5" y="-65.2" font-family="Helvetica,sans-Serif" font-size="11.00">inspectie_leegloopinrichting</text>
<polygon fill="none" stroke="black" points="388.5,-57 388.5,-79 524.5,-79 524.5,-57 388.5,-57"/>
<text text-anchor="start" x="391.5" y="-65.2" font-family="Helvetica,sans-Serif" font-size="11.00">text[2147483647]</text>
<polygon fill="#ffffff" stroke="transparent" points="183.5,-39 183.5,-57 291.5,-57 291.5,-39 183.5,-39"/>
<polygon fill="none" stroke="black" points="183.5,-39 183.5,-57 291.5,-57 291.5,-39 183.5,-39"/>
<text text-anchor="start" x="186.5" y="-45.2" font-family="Helvetica,sans-Serif" font-size="11.00">&lt; 4</text>
<polygon fill="#ffffff" stroke="transparent" points="291.5,-39 291.5,-57 388.5,-57 388.5,-39 291.5,-39"/>
<polygon fill="none" stroke="black" points="291.5,-39 291.5,-57 388.5,-57 388.5,-39 291.5,-39"/>
<text text-anchor="start" x="377.5" y="-45.2" font-family="Helvetica,sans-Serif" font-size="11.00"> &#160;</text>
<polygon fill="#ffffff" stroke="transparent" points="388.5,-39 388.5,-57 524.5,-57 524.5,-39 388.5,-39"/>
<polygon fill="none" stroke="black" points="388.5,-39 388.5,-57 524.5,-57 524.5,-39 388.5,-39"/>
<text text-anchor="start" x="501.5" y="-45.2" font-family="Helvetica,sans-Serif" font-size="11.00">0 &gt;</text>
<polygon fill="none" stroke="black" stroke-width="2" points="182,-38 182,-1202 525,-1202 525,-38 182,-38"/>
</a>
</g>
</g>
<!-- roi.fase -->
<g id="node2" class="node">
<title>roi.fase</title>
<g id="a_node2"><a xlink:href="../../../roi/tables/fase.html" xlink:title="roi.fase" target="_top">
<polygon fill="#ffffff" stroke="transparent" points="20.5,-866 20.5,-924 119.5,-924 119.5,-866 20.5,-866"/>
<polygon fill="#f5f5f5" stroke="transparent" points="21,-902 21,-924 120,-924 120,-902 21,-902"/>
<polygon fill="none" stroke="black" points="21,-902 21,-924 120,-924 120,-902 21,-902"/>
<text text-anchor="start" x="26" y="-911.2" font-family="Helvetica,sans-Serif" font-weight="bold" font-size="11.00">roi.fase</text>
<text text-anchor="start" x="78" y="-910.2" font-family="Helvetica,sans-Serif" font-size="11.00">[table]</text>
<polygon fill="none" stroke="black" points="21,-884 21,-902 120,-902 120,-884 21,-884"/>
<text text-anchor="start" x="24" y="-890.2" font-family="Helvetica,sans-Serif" font-size="11.00">...</text>
<polygon fill="#ffffff" stroke="transparent" points="21,-866 21,-884 57,-884 57,-866 21,-866"/>
<polygon fill="none" stroke="black" points="21,-866 21,-884 57,-884 57,-866 21,-866"/>
<text text-anchor="start" x="24" y="-872.2" font-family="Helvetica,sans-Serif" font-size="11.00"> &#160;</text>
<polygon fill="#ffffff" stroke="transparent" points="57,-866 57,-884 82,-884 82,-866 57,-866"/>
<polygon fill="none" stroke="black" points="57,-866 57,-884 82,-884 82,-866 57,-866"/>
<text text-anchor="start" x="71" y="-872.2" font-family="Helvetica,sans-Serif" font-size="11.00"> &#160;</text>
<polygon fill="#ffffff" stroke="transparent" points="82,-866 82,-884 120,-884 120,-866 82,-866"/>
<polygon fill="none" stroke="black" points="82,-866 82,-884 120,-884 120,-866 82,-866"/>
<text text-anchor="start" x="97" y="-872.2" font-family="Helvetica,sans-Serif" font-size="11.00">5 &gt;</text>
</a>
</g>
</g>
<!-- brandkraan_prive&#45;&gt;roi.fase -->
<g id="edge1" class="edge">
<title>brandkraan_prive:w&#45;&gt;roi.fase:e</title>
<path fill="none" stroke="black" d="M168.72,-842.52C157.94,-847.22 142.81,-855.01 127.68,-863.17"/>
<polygon fill="black" stroke="black" points="174.9,-840.49 183.62,-841.42 178.7,-839.25 182.5,-838 182.5,-838 182.5,-838 178.7,-839.25 181.38,-834.58 174.9,-840.49 174.9,-840.49"/>
<ellipse fill="none" stroke="black" cx="171.86" cy="-841.49" rx="3.2" ry="3.2"/>
</g>
<!-- gebied -->
<g id="node3" class="node">
<title>gebied</title>
<g id="a_node3"><a xlink:href="../../tables/gebied.html" xlink:title="gebied" target="_top">
<polygon fill="#ffffff" stroke="transparent" points="21,-686 21,-766 119,-766 119,-686 21,-686"/>
<polygon fill="#f5f5f5" stroke="transparent" points="21,-744 21,-766 119,-766 119,-744 21,-744"/>
<polygon fill="none" stroke="black" points="21,-744 21,-766 119,-766 119,-744 21,-744"/>
<text text-anchor="start" x="26" y="-753.2" font-family="Helvetica,sans-Serif" font-weight="bold" font-size="11.00">gebied</text>
<text text-anchor="start" x="77" y="-752.2" font-family="Helvetica,sans-Serif" font-size="11.00">[table]</text>
<polygon fill="none" stroke="black" points="21,-722 21,-744 119,-744 119,-722 21,-722"/>
<image xlink:href="../../images/primaryKeys.png" width="11px" height="12px" preserveAspectRatio="xMinYMin meet" x="26" y="-739"/>
<text text-anchor="start" x="41" y="-730.2" font-family="Helvetica,sans-Serif" font-size="11.00">id</text>
<polygon fill="none" stroke="black" points="21,-704 21,-722 119,-722 119,-704 21,-704"/>
<text text-anchor="start" x="24" y="-710.2" font-family="Helvetica,sans-Serif" font-size="11.00">...</text>
<polygon fill="#ffffff" stroke="transparent" points="21,-686 21,-704 57,-704 57,-686 21,-686"/>
<polygon fill="none" stroke="black" points="21,-686 21,-704 57,-704 57,-686 21,-686"/>
<text text-anchor="start" x="24" y="-692.2" font-family="Helvetica,sans-Serif" font-size="11.00"> &#160;</text>
<polygon fill="#ffffff" stroke="transparent" points="57,-686 57,-704 82,-704 82,-686 57,-686"/>
<polygon fill="none" stroke="black" points="57,-686 57,-704 82,-704 82,-686 57,-686"/>
<text text-anchor="start" x="71" y="-692.2" font-family="Helvetica,sans-Serif" font-size="11.00"> &#160;</text>
<polygon fill="#ffffff" stroke="transparent" points="82,-686 82,-704 119,-704 119,-686 82,-686"/>
<polygon fill="none" stroke="black" points="82,-686 82,-704 119,-704 119,-686 82,-686"/>
<text text-anchor="start" x="96" y="-692.2" font-family="Helvetica,sans-Serif" font-size="11.00">5 &gt;</text>
</a>
</g>
</g>
<!-- brandkraan_prive&#45;&gt;gebied -->
<g id="edge2" class="edge">
<title>brandkraan_prive:w&#45;&gt;gebied:e</title>
<path fill="none" stroke="black" d="M168.43,-790.37C146.99,-777.23 153.05,-733 120,-733"/>
<polygon fill="black" stroke="black" points="174.75,-792 181.6,-797.49 178.63,-793 182.5,-794 182.5,-794 182.5,-794 178.63,-793 183.4,-790.51 174.75,-792 174.75,-792"/>
<ellipse fill="none" stroke="black" cx="171.66" cy="-791.2" rx="3.2" ry="3.2"/>
</g>
<!-- conditie -->
<g id="node4" class="node">
<title>conditie</title>
<g id="a_node4"><a xlink:href="../../tables/conditie.html" xlink:title="conditie" target="_top">
<polygon fill="#ffffff" stroke="transparent" points="19.5,-549 19.5,-629 120.5,-629 120.5,-549 19.5,-549"/>
<polygon fill="#f5f5f5" stroke="transparent" points="20,-607 20,-629 121,-629 121,-607 20,-607"/>
<polygon fill="none" stroke="black" points="20,-607 20,-629 121,-629 121,-607 20,-607"/>
<text text-anchor="start" x="25" y="-616.2" font-family="Helvetica,sans-Serif" font-weight="bold" font-size="11.00">conditie</text>
<text text-anchor="start" x="79" y="-615.2" font-family="Helvetica,sans-Serif" font-size="11.00">[table]</text>
<polygon fill="none" stroke="black" points="20,-585 20,-607 121,-607 121,-585 20,-585"/>
<image xlink:href="../../images/primaryKeys.png" width="11px" height="12px" preserveAspectRatio="xMinYMin meet" x="25" y="-602"/>
<text text-anchor="start" x="42" y="-593.2" font-family="Helvetica,sans-Serif" font-size="11.00">id</text>
<polygon fill="none" stroke="black" points="20,-567 20,-585 121,-585 121,-567 20,-567"/>
<text text-anchor="start" x="23" y="-573.2" font-family="Helvetica,sans-Serif" font-size="11.00">...</text>
<polygon fill="#ffffff" stroke="transparent" points="20,-549 20,-567 57,-567 57,-549 20,-549"/>
<polygon fill="none" stroke="black" points="20,-549 20,-567 57,-567 57,-549 20,-549"/>
<text text-anchor="start" x="23" y="-555.2" font-family="Helvetica,sans-Serif" font-size="11.00"> &#160;</text>
<polygon fill="#ffffff" stroke="transparent" points="57,-549 57,-567 83,-567 83,-549 57,-549"/>
<polygon fill="none" stroke="black" points="57,-549 57,-567 83,-567 83,-549 57,-549"/>
<text text-anchor="start" x="72" y="-555.2" font-family="Helvetica,sans-Serif" font-size="11.00"> &#160;</text>
<polygon fill="#ffffff" stroke="transparent" points="83,-549 83,-567 121,-567 121,-549 83,-549"/>
<polygon fill="none" stroke="black" points="83,-549 83,-567 121,-567 121,-549 83,-549"/>
<text text-anchor="start" x="98" y="-555.2" font-family="Helvetica,sans-Serif" font-size="11.00">5 &gt;</text>
</a>
</g>
</g>
<!-- brandkraan_prive&#45;&gt;conditie -->
<g id="edge3" class="edge">
<title>brandkraan_prive:w&#45;&gt;conditie:e</title>
<path fill="none" stroke="black" d="M167.8,-596C151.88,-596 143.22,-596 122,-596"/>
<polygon fill="black" stroke="black" points="174.5,-596 182.5,-599.6 178.5,-596 182.5,-596 182.5,-596 182.5,-596 178.5,-596 182.5,-592.4 174.5,-596 174.5,-596"/>
<ellipse fill="none" stroke="black" cx="171.3" cy="-596" rx="3.2" ry="3.2"/>
</g>
<!-- roi.symbool -->
<g id="node5" class="node">
<title>roi.symbool</title>
<g id="a_node5"><a xlink:href="../../../roi/tables/symbool.html" xlink:title="roi.symbool" target="_top">
<polygon fill="#ffffff" stroke="transparent" points="8,-787 8,-845 132,-845 132,-787 8,-787"/>
<polygon fill="#f5f5f5" stroke="transparent" points="8,-823 8,-845 132,-845 132,-823 8,-823"/>
<polygon fill="none" stroke="black" points="8,-823 8,-845 132,-845 132,-823 8,-823"/>
<text text-anchor="start" x="13" y="-832.2" font-family="Helvetica,sans-Serif" font-weight="bold" font-size="11.00">roi.symbool</text>
<text text-anchor="start" x="90" y="-831.2" font-family="Helvetica,sans-Serif" font-size="11.00">[table]</text>
<polygon fill="none" stroke="black" points="8,-805 8,-823 132,-823 132,-805 8,-805"/>
<text text-anchor="start" x="11" y="-811.2" font-family="Helvetica,sans-Serif" font-size="11.00">...</text>
<polygon fill="#ffffff" stroke="transparent" points="8,-787 8,-805 57,-805 57,-787 8,-787"/>
<polygon fill="none" stroke="black" points="8,-787 8,-805 57,-805 57,-787 8,-787"/>
<text text-anchor="start" x="11" y="-793.2" font-family="Helvetica,sans-Serif" font-size="11.00"> &#160;</text>
<polygon fill="#ffffff" stroke="transparent" points="57,-787 57,-805 88,-805 88,-787 57,-787"/>
<polygon fill="none" stroke="black" points="57,-787 57,-805 88,-805 88,-787 57,-787"/>
<text text-anchor="start" x="77" y="-793.2" font-family="Helvetica,sans-Serif" font-size="11.00"> &#160;</text>
<polygon fill="#ffffff" stroke="transparent" points="88,-787 88,-805 132,-805 132,-787 88,-787"/>
<polygon fill="none" stroke="black" points="88,-787 88,-805 132,-805 132,-787 88,-787"/>
<text text-anchor="start" x="109" y="-793.2" font-family="Helvetica,sans-Serif" font-size="11.00">5 &gt;</text>
</a>
</g>
</g>
<!-- brandkraan_prive&#45;&gt;roi.symbool -->
<g id="edge4" class="edge">
<title>brandkraan_prive:w&#45;&gt;roi.symbool:e</title>
<path fill="none" stroke="black" d="M167.83,-816C158.67,-816 149.35,-816 140.29,-816"/>
<polygon fill="black" stroke="black" points="174.5,-816 182.5,-819.6 178.5,-816 182.5,-816 182.5,-816 182.5,-816 178.5,-816 182.5,-812.4 174.5,-816 174.5,-816"/>
<ellipse fill="none" stroke="black" cx="171.3" cy="-816" rx="3.2" ry="3.2"/>
</g>
</g>
</svg>
