<?xml version="1.0" encoding="UTF-8" standalone="no"?>
<!DOCTYPE svg PUBLIC "-//W3C//DTD SVG 1.1//EN"
 "http://www.w3.org/Graphics/SVG/1.1/DTD/svg11.dtd">
<!-- Generated by graphviz version 2.50.0 (0)
 -->
<!-- Title: twoDegreesRelationshipsDiagram Pages: 1 -->
<svg width="532pt" height="1105pt"
 viewBox="0.00 0.00 532.00 1105.00" xmlns="http://www.w3.org/2000/svg" xmlns:xlink="http://www.w3.org/1999/xlink">
<g id="graph0" class="graph" transform="scale(1 1) rotate(0) translate(4 1101)">
<title>twoDegreesRelationshipsDiagram</title>
<polygon fill="#ffffff" stroke="transparent" points="-4,4 -4,-1101 528,-1101 528,4 -4,4"/>
<text text-anchor="middle" x="79.5" y="-7.2" font-family="Helvetica,sans-Serif" font-size="11.00">Generated by SchemaSpy</text>
<!-- bluswaterriool -->
<g id="node1" class="node">
<title>bluswaterriool</title>
<g id="a_node1"><a xlink:href="../../tables/bluswaterriool.html" xlink:title="bluswaterriool" target="_top">
<polygon fill="#ffffff" stroke="transparent" points="304.5,-692 304.5,-882 476.5,-882 476.5,-692 304.5,-692"/>
<polygon fill="#f5f5f5" stroke="transparent" points="304.5,-860 304.5,-882 476.5,-882 476.5,-860 304.5,-860"/>
<polygon fill="none" stroke="black" points="304.5,-860 304.5,-882 476.5,-882 476.5,-860 304.5,-860"/>
<text text-anchor="start" x="309.5" y="-869.2" font-family="Helvetica,sans-Serif" font-weight="bold" font-size="11.00">bluswaterriool</text>
<text text-anchor="start" x="434.5" y="-868.2" font-family="Helvetica,sans-Serif" font-size="11.00">[table]</text>
<polygon fill="none" stroke="black" points="304.5,-838 304.5,-860 476.5,-860 476.5,-838 304.5,-838"/>
<image xlink:href="../../images/primaryKeys.png" width="11px" height="12px" preserveAspectRatio="xMinYMin meet" x="309.5" y="-855"/>
<text text-anchor="start" x="324.5" y="-846.2" font-family="Helvetica,sans-Serif" font-size="11.00">uuid</text>
<polygon fill="#ffffff" stroke="transparent" points="304.5,-816 304.5,-838 476.5,-838 476.5,-816 304.5,-816"/>
<polygon fill="none" stroke="black" points="304.5,-816 304.5,-838 476.5,-838 476.5,-816 304.5,-816"/>
<text text-anchor="start" x="324.5" y="-824.2" font-family="Helvetica,sans-Serif" font-size="11.00">geom</text>
<polygon fill="none" stroke="black" points="304.5,-794 304.5,-816 476.5,-816 476.5,-794 304.5,-794"/>
<image xlink:href="../../images/foreignKeys.png" width="11px" height="12px" preserveAspectRatio="xMinYMin meet" x="309.5" y="-811"/>
<text text-anchor="start" x="324.5" y="-802.2" font-family="Helvetica,sans-Serif" font-size="11.00">fase_id</text>
<polygon fill="none" stroke="black" points="304.5,-772 304.5,-794 476.5,-794 476.5,-772 304.5,-772"/>
<image xlink:href="../../images/foreignKeys.png" width="11px" height="12px" preserveAspectRatio="xMinYMin meet" x="309.5" y="-789"/>
<text text-anchor="start" x="324.5" y="-780.2" font-family="Helvetica,sans-Serif" font-size="11.00">symbool_id</text>
<polygon fill="none" stroke="black" points="304.5,-750 304.5,-772 476.5,-772 476.5,-750 304.5,-750"/>
<image xlink:href="../../images/foreignKeys.png" width="11px" height="12px" preserveAspectRatio="xMinYMin meet" x="309.5" y="-767"/>
<text text-anchor="start" x="324.5" y="-758.2" font-family="Helvetica,sans-Serif" font-size="11.00">gebied_id</text>
<polygon fill="none" stroke="black" points="304.5,-728 304.5,-750 476.5,-750 476.5,-728 304.5,-728"/>
<image xlink:href="../../images/foreignKeys.png" width="11px" height="12px" preserveAspectRatio="xMinYMin meet" x="309.5" y="-745"/>
<text text-anchor="start" x="324.5" y="-736.2" font-family="Helvetica,sans-Serif" font-size="11.00">inspectie_conditie_id</text>
<polygon fill="none" stroke="black" points="304.5,-710 304.5,-728 476.5,-728 476.5,-710 304.5,-710"/>
<text text-anchor="start" x="307.5" y="-716.2" font-family="Helvetica,sans-Serif" font-size="11.00">...</text>
<polygon fill="#ffffff" stroke="transparent" points="304.5,-692 304.5,-710 389.5,-710 389.5,-692 304.5,-692"/>
<polygon fill="none" stroke="black" points="304.5,-692 304.5,-710 389.5,-710 389.5,-692 304.5,-692"/>
<text text-anchor="start" x="307.5" y="-698.2" font-family="Helvetica,sans-Serif" font-size="11.00">&lt; 4</text>
<polygon fill="#ffffff" stroke="transparent" points="389.5,-692 389.5,-710 432.5,-710 432.5,-692 389.5,-692"/>
<polygon fill="none" stroke="black" points="389.5,-692 389.5,-710 432.5,-710 432.5,-692 389.5,-692"/>
<text text-anchor="start" x="421.5" y="-698.2" font-family="Helvetica,sans-Serif" font-size="11.00"> &#160;</text>
<polygon fill="#ffffff" stroke="transparent" points="432.5,-692 432.5,-710 476.5,-710 476.5,-692 432.5,-692"/>
<polygon fill="none" stroke="black" points="432.5,-692 432.5,-710 476.5,-710 476.5,-692 432.5,-692"/>
<text text-anchor="start" x="465.5" y="-698.2" font-family="Helvetica,sans-Serif" font-size="11.00"> &#160;</text>
</a>
</g>
</g>
<!-- roi.fase -->
<g id="node2" class="node">
<title>roi.fase</title>
<g id="a_node2"><a xlink:href="../../../roi/tables/fase.html" xlink:title="roi.fase" target="_top">
<polygon fill="#ffffff" stroke="transparent" points="62.5,-630 62.5,-688 161.5,-688 161.5,-630 62.5,-630"/>
<polygon fill="#f5f5f5" stroke="transparent" points="63,-666 63,-688 162,-688 162,-666 63,-666"/>
<polygon fill="none" stroke="black" points="63,-666 63,-688 162,-688 162,-666 63,-666"/>
<text text-anchor="start" x="68" y="-675.2" font-family="Helvetica,sans-Serif" font-weight="bold" font-size="11.00">roi.fase</text>
<text text-anchor="start" x="120" y="-674.2" font-family="Helvetica,sans-Serif" font-size="11.00">[table]</text>
<polygon fill="none" stroke="black" points="63,-648 63,-666 162,-666 162,-648 63,-648"/>
<text text-anchor="start" x="66" y="-654.2" font-family="Helvetica,sans-Serif" font-size="11.00">...</text>
<polygon fill="#ffffff" stroke="transparent" points="63,-630 63,-648 99,-648 99,-630 63,-630"/>
<polygon fill="none" stroke="black" points="63,-630 63,-648 99,-648 99,-630 63,-630"/>
<text text-anchor="start" x="66" y="-636.2" font-family="Helvetica,sans-Serif" font-size="11.00"> &#160;</text>
<polygon fill="#ffffff" stroke="transparent" points="99,-630 99,-648 124,-648 124,-630 99,-630"/>
<polygon fill="none" stroke="black" points="99,-630 99,-648 124,-648 124,-630 99,-630"/>
<text text-anchor="start" x="113" y="-636.2" font-family="Helvetica,sans-Serif" font-size="11.00"> &#160;</text>
<polygon fill="#ffffff" stroke="transparent" points="124,-630 124,-648 162,-648 162,-630 124,-630"/>
<polygon fill="none" stroke="black" points="124,-630 124,-648 162,-648 162,-630 124,-630"/>
<text text-anchor="start" x="139" y="-636.2" font-family="Helvetica,sans-Serif" font-size="11.00">5 &gt;</text>
</a>
</g>
</g>
<!-- bluswaterriool&#45;&gt;roi.fase -->
<g id="edge1" class="edge">
<title>bluswaterriool:w&#45;&gt;roi.fase:e</title>
<path fill="none" stroke="black" d="M288.86,-803.54C217.14,-788.16 248.38,-657 163,-657"/>
<polygon fill="black" stroke="black" points="295.54,-804.2 303.14,-808.58 299.52,-804.6 303.5,-805 303.5,-805 303.5,-805 299.52,-804.6 303.86,-801.42 295.54,-804.2 295.54,-804.2"/>
<ellipse fill="none" stroke="black" cx="292.36" cy="-803.88" rx="3.2" ry="3.2"/>
</g>
<!-- gebied -->
<g id="node3" class="node">
<title>gebied</title>
<g id="a_node3"><a xlink:href="../../tables/gebied.html" xlink:title="gebied" target="_top">
<polygon fill="#ffffff" stroke="transparent" points="65.5,-472 65.5,-530 158.5,-530 158.5,-472 65.5,-472"/>
<polygon fill="#f5f5f5" stroke="transparent" points="66,-508 66,-530 159,-530 159,-508 66,-508"/>
<polygon fill="none" stroke="black" points="66,-508 66,-530 159,-530 159,-508 66,-508"/>
<text text-anchor="start" x="71" y="-517.2" font-family="Helvetica,sans-Serif" font-weight="bold" font-size="11.00">gebied</text>
<text text-anchor="start" x="117" y="-516.2" font-family="Helvetica,sans-Serif" font-size="11.00">[table]</text>
<polygon fill="none" stroke="black" points="66,-490 66,-508 159,-508 159,-490 66,-490"/>
<text text-anchor="start" x="69" y="-496.2" font-family="Helvetica,sans-Serif" font-size="11.00">...</text>
<polygon fill="#ffffff" stroke="transparent" points="66,-472 66,-490 99,-490 99,-472 66,-472"/>
<polygon fill="none" stroke="black" points="66,-472 66,-490 99,-490 99,-472 66,-472"/>
<text text-anchor="start" x="69" y="-478.2" font-family="Helvetica,sans-Serif" font-size="11.00"> &#160;</text>
<polygon fill="#ffffff" stroke="transparent" points="99,-472 99,-490 123,-490 123,-472 99,-472"/>
<polygon fill="none" stroke="black" points="99,-472 99,-490 123,-490 123,-472 99,-472"/>
<text text-anchor="start" x="112" y="-478.2" font-family="Helvetica,sans-Serif" font-size="11.00"> &#160;</text>
<polygon fill="#ffffff" stroke="transparent" points="123,-472 123,-490 159,-490 159,-472 123,-472"/>
<polygon fill="none" stroke="black" points="123,-472 123,-490 159,-490 159,-472 123,-472"/>
<text text-anchor="start" x="136" y="-478.2" font-family="Helvetica,sans-Serif" font-size="11.00">5 &gt;</text>
</a>
</g>
</g>
<!-- bluswaterriool&#45;&gt;gebied -->
<g id="edge2" class="edge">
<title>bluswaterriool:w&#45;&gt;gebied:e</title>
<path fill="none" stroke="black" d="M289.08,-758.68C264.91,-749.48 270.02,-714.5 257,-682 233.07,-622.25 260.87,-593.75 224,-541 204.51,-513.11 194.02,-499 160,-499"/>
<polygon fill="black" stroke="black" points="295.6,-759.73 302.93,-764.55 299.55,-760.36 303.5,-761 303.5,-761 303.5,-761 299.55,-760.36 304.07,-757.45 295.6,-759.73 295.6,-759.73"/>
<ellipse fill="none" stroke="black" cx="292.44" cy="-759.22" rx="3.2" ry="3.2"/>
</g>
<!-- conditie -->
<g id="node4" class="node">
<title>conditie</title>
<g id="a_node4"><a xlink:href="../../tables/conditie.html" xlink:title="conditie" target="_top">
<polygon fill="#ffffff" stroke="transparent" points="8,-341 8,-451 216,-451 216,-341 8,-341"/>
<polygon fill="#f5f5f5" stroke="transparent" points="10,-427 10,-449 214,-449 214,-427 10,-427"/>
<polygon fill="none" stroke="black" points="10,-427 10,-449 214,-449 214,-427 10,-427"/>
<text text-anchor="start" x="15" y="-436.2" font-family="Helvetica,sans-Serif" font-weight="bold" font-size="11.00">conditie</text>
<text text-anchor="start" x="172" y="-435.2" font-family="Helvetica,sans-Serif" font-size="11.00">[table]</text>
<polygon fill="none" stroke="black" points="10,-405 10,-427 108,-427 108,-405 10,-405"/>
<image xlink:href="../../images/primaryKeys.png" width="11px" height="12px" preserveAspectRatio="xMinYMin meet" x="15" y="-422"/>
<text text-anchor="start" x="30" y="-413.2" font-family="Helvetica,sans-Serif" font-size="11.00">id</text>
<polygon fill="none" stroke="black" points="108,-405 108,-427 214,-427 214,-405 108,-405"/>
<text text-anchor="start" x="111" y="-413.2" font-family="Helvetica,sans-Serif" font-size="11.00">int2[5]</text>
<polygon fill="none" stroke="black" points="10,-383 10,-405 108,-405 108,-383 10,-383"/>
<text text-anchor="start" x="30" y="-391.2" font-family="Helvetica,sans-Serif" font-size="11.00">naam</text>
<polygon fill="none" stroke="black" points="108,-383 108,-405 214,-405 214,-383 108,-383"/>
<text text-anchor="start" x="111" y="-391.2" font-family="Helvetica,sans-Serif" font-size="11.00">text[2147483647]</text>
<polygon fill="none" stroke="black" points="10,-361 10,-383 108,-383 108,-361 10,-361"/>
<text text-anchor="start" x="30" y="-369.2" font-family="Helvetica,sans-Serif" font-size="11.00">omschrijving</text>
<polygon fill="none" stroke="black" points="108,-361 108,-383 214,-383 214,-361 108,-361"/>
<text text-anchor="start" x="111" y="-369.2" font-family="Helvetica,sans-Serif" font-size="11.00">text[2147483647]</text>
<polygon fill="#ffffff" stroke="transparent" points="10,-343 10,-361 65,-361 65,-343 10,-343"/>
<polygon fill="none" stroke="black" points="10,-343 10,-361 65,-361 65,-343 10,-343"/>
<text text-anchor="start" x="13" y="-349.2" font-family="Helvetica,sans-Serif" font-size="11.00">&lt; 0</text>
<polygon fill="#ffffff" stroke="transparent" points="65,-343 65,-361 108,-361 108,-343 65,-343"/>
<polygon fill="none" stroke="black" points="65,-343 65,-361 108,-361 108,-343 65,-343"/>
<text text-anchor="start" x="97" y="-349.2" font-family="Helvetica,sans-Serif" font-size="11.00"> &#160;</text>
<polygon fill="#ffffff" stroke="transparent" points="108,-343 108,-361 214,-361 214,-343 108,-343"/>
<polygon fill="none" stroke="black" points="108,-343 108,-361 214,-361 214,-343 108,-343"/>
<text text-anchor="start" x="191" y="-349.2" font-family="Helvetica,sans-Serif" font-size="11.00">5 &gt;</text>
<polygon fill="none" stroke="black" stroke-width="2" points="9,-342 9,-450 215,-450 215,-342 9,-342"/>
</a>
</g>
</g>
<!-- bluswaterriool&#45;&gt;conditie -->
<g id="edge3" class="edge">
<title>bluswaterriool:w&#45;&gt;conditie:e</title>
<path fill="none" stroke="black" d="M289.26,-736.72C270.23,-729.6 267.96,-706.76 257,-682 232.78,-627.27 274.84,-416 215,-416"/>
<polygon fill="black" stroke="black" points="295.6,-737.74 302.93,-742.55 299.55,-738.37 303.5,-739 303.5,-739 303.5,-739 299.55,-738.37 304.07,-735.45 295.6,-737.74 295.6,-737.74"/>
<ellipse fill="none" stroke="black" cx="292.44" cy="-737.23" rx="3.2" ry="3.2"/>
</g>
<!-- roi.symbool -->
<g id="node5" class="node">
<title>roi.symbool</title>
<g id="a_node5"><a xlink:href="../../../roi/tables/symbool.html" xlink:title="roi.symbool" target="_top">
<polygon fill="#ffffff" stroke="transparent" points="50,-551 50,-609 174,-609 174,-551 50,-551"/>
<polygon fill="#f5f5f5" stroke="transparent" points="50,-587 50,-609 174,-609 174,-587 50,-587"/>
<polygon fill="none" stroke="black" points="50,-587 50,-609 174,-609 174,-587 50,-587"/>
<text text-anchor="start" x="55" y="-596.2" font-family="Helvetica,sans-Serif" font-weight="bold" font-size="11.00">roi.symbool</text>
<text text-anchor="start" x="132" y="-595.2" font-family="Helvetica,sans-Serif" font-size="11.00">[table]</text>
<polygon fill="none" stroke="black" points="50,-569 50,-587 174,-587 174,-569 50,-569"/>
<text text-anchor="start" x="53" y="-575.2" font-family="Helvetica,sans-Serif" font-size="11.00">...</text>
<polygon fill="#ffffff" stroke="transparent" points="50,-551 50,-569 99,-569 99,-551 50,-551"/>
<polygon fill="none" stroke="black" points="50,-551 50,-569 99,-569 99,-551 50,-551"/>
<text text-anchor="start" x="53" y="-557.2" font-family="Helvetica,sans-Serif" font-size="11.00"> &#160;</text>
<polygon fill="#ffffff" stroke="transparent" points="99,-551 99,-569 130,-569 130,-551 99,-551"/>
<polygon fill="none" stroke="black" points="99,-551 99,-569 130,-569 130,-551 99,-551"/>
<text text-anchor="start" x="119" y="-557.2" font-family="Helvetica,sans-Serif" font-size="11.00"> &#160;</text>
<polygon fill="#ffffff" stroke="transparent" points="130,-551 130,-569 174,-569 174,-551 130,-551"/>
<polygon fill="none" stroke="black" points="130,-551 130,-569 174,-569 174,-551 130,-551"/>
<text text-anchor="start" x="151" y="-557.2" font-family="Helvetica,sans-Serif" font-size="11.00">5 &gt;</text>
</a>
</g>
</g>
<!-- bluswaterriool&#45;&gt;roi.symbool -->
<g id="edge4" class="edge">
<title>bluswaterriool:w&#45;&gt;roi.symbool:e</title>
<path fill="none" stroke="black" d="M289.09,-781.58C203.96,-763.47 277.28,-578 175,-578"/>
<polygon fill="black" stroke="black" points="295.54,-782.22 303.15,-786.58 299.52,-782.61 303.5,-783 303.5,-783 303.5,-783 299.52,-782.61 303.85,-779.42 295.54,-782.22 295.54,-782.22"/>
<ellipse fill="none" stroke="black" cx="292.35" cy="-781.9" rx="3.2" ry="3.2"/>
</g>
<!-- brandkraan -->
<g id="node6" class="node">
<title>brandkraan</title>
<g id="a_node6"><a xlink:href="../../tables/brandkraan.html" xlink:title="brandkraan" target="_top">
<polygon fill="#ffffff" stroke="transparent" points="288,-459 288,-671 493,-671 493,-459 288,-459"/>
<polygon fill="#f5f5f5" stroke="transparent" points="288.5,-649 288.5,-671 493.5,-671 493.5,-649 288.5,-649"/>
<polygon fill="none" stroke="black" points="288.5,-649 288.5,-671 493.5,-671 493.5,-649 288.5,-649"/>
<text text-anchor="start" x="293.5" y="-658.2" font-family="Helvetica,sans-Serif" font-weight="bold" font-size="11.00">brandkraan</text>
<text text-anchor="start" x="451.5" y="-657.2" font-family="Helvetica,sans-Serif" font-size="11.00">[table]</text>
<polygon fill="none" stroke="black" points="288.5,-627 288.5,-649 493.5,-649 493.5,-627 288.5,-627"/>
<image xlink:href="../../images/primaryKeys.png" width="11px" height="12px" preserveAspectRatio="xMinYMin meet" x="293.5" y="-644"/>
<text text-anchor="start" x="308.5" y="-635.2" font-family="Helvetica,sans-Serif" font-size="11.00">uuid</text>
<polygon fill="#ffffff" stroke="transparent" points="288.5,-605 288.5,-627 493.5,-627 493.5,-605 288.5,-605"/>
<polygon fill="none" stroke="black" points="288.5,-605 288.5,-627 493.5,-627 493.5,-605 288.5,-605"/>
<text text-anchor="start" x="308.5" y="-613.2" font-family="Helvetica,sans-Serif" font-size="11.00">geom</text>
<polygon fill="#ffffff" stroke="transparent" points="288.5,-583 288.5,-605 493.5,-605 493.5,-583 288.5,-583"/>
<polygon fill="none" stroke="black" points="288.5,-583 288.5,-605 493.5,-605 493.5,-583 288.5,-583"/>
<text text-anchor="start" x="308.5" y="-591.2" font-family="Helvetica,sans-Serif" font-size="11.00">nen3610id</text>
<polygon fill="none" stroke="black" points="288.5,-561 288.5,-583 493.5,-583 493.5,-561 288.5,-561"/>
<image xlink:href="../../images/foreignKeys.png" width="11px" height="12px" preserveAspectRatio="xMinYMin meet" x="293.5" y="-578"/>
<text text-anchor="start" x="308.5" y="-569.2" font-family="Helvetica,sans-Serif" font-size="11.00">fase_id</text>
<polygon fill="none" stroke="black" points="288.5,-539 288.5,-561 493.5,-561 493.5,-539 288.5,-539"/>
<image xlink:href="../../images/foreignKeys.png" width="11px" height="12px" preserveAspectRatio="xMinYMin meet" x="293.5" y="-556"/>
<text text-anchor="start" x="308.5" y="-547.2" font-family="Helvetica,sans-Serif" font-size="11.00">symbool_id</text>
<polygon fill="none" stroke="black" points="288.5,-517 288.5,-539 493.5,-539 493.5,-517 288.5,-517"/>
<image xlink:href="../../images/foreignKeys.png" width="11px" height="12px" preserveAspectRatio="xMinYMin meet" x="293.5" y="-534"/>
<text text-anchor="start" x="308.5" y="-525.2" font-family="Helvetica,sans-Serif" font-size="11.00">gebied_id</text>
<polygon fill="none" stroke="black" points="288.5,-495 288.5,-517 493.5,-517 493.5,-495 288.5,-495"/>
<image xlink:href="../../images/foreignKeys.png" width="11px" height="12px" preserveAspectRatio="xMinYMin meet" x="293.5" y="-512"/>
<text text-anchor="start" x="308.5" y="-503.2" font-family="Helvetica,sans-Serif" font-size="11.00">inspectie_conditie_id</text>
<polygon fill="none" stroke="black" points="288.5,-477 288.5,-495 493.5,-495 493.5,-477 288.5,-477"/>
<text text-anchor="start" x="291.5" y="-483.2" font-family="Helvetica,sans-Serif" font-size="11.00">...</text>
<polygon fill="#ffffff" stroke="transparent" points="288.5,-459 288.5,-477 389.5,-477 389.5,-459 288.5,-459"/>
<polygon fill="none" stroke="black" points="288.5,-459 288.5,-477 389.5,-477 389.5,-459 288.5,-459"/>
<text text-anchor="start" x="291.5" y="-465.2" font-family="Helvetica,sans-Serif" font-size="11.00">&lt; 4</text>
<polygon fill="#ffffff" stroke="transparent" points="389.5,-459 389.5,-477 441.5,-477 441.5,-459 389.5,-459"/>
<polygon fill="none" stroke="black" points="389.5,-459 389.5,-477 441.5,-477 441.5,-459 389.5,-459"/>
<text text-anchor="start" x="430.5" y="-465.2" font-family="Helvetica,sans-Serif" font-size="11.00"> &#160;</text>
<polygon fill="#ffffff" stroke="transparent" points="441.5,-459 441.5,-477 493.5,-477 493.5,-459 441.5,-459"/>
<polygon fill="none" stroke="black" points="441.5,-459 441.5,-477 493.5,-477 493.5,-459 441.5,-459"/>
<text text-anchor="start" x="482.5" y="-465.2" font-family="Helvetica,sans-Serif" font-size="11.00"> &#160;</text>
</a>
</g>
</g>
<!-- brandkraan&#45;&gt;roi.fase -->
<g id="edge5" class="edge">
<title>brandkraan:w&#45;&gt;roi.fase:e</title>
<path fill="none" stroke="black" d="M273.04,-574.02C251.71,-580.8 248.59,-603.32 224,-620 197.76,-637.81 194.71,-657 163,-657"/>
<polygon fill="black" stroke="black" points="279.58,-573.1 288,-575.57 283.54,-572.55 287.5,-572 287.5,-572 287.5,-572 283.54,-572.55 287,-568.43 279.58,-573.1 279.58,-573.1"/>
<ellipse fill="none" stroke="black" cx="276.41" cy="-573.55" rx="3.2" ry="3.2"/>
</g>
<!-- brandkraan&#45;&gt;gebied -->
<g id="edge6" class="edge">
<title>brandkraan:w&#45;&gt;gebied:e</title>
<path fill="none" stroke="black" d="M272.9,-527.34C226.98,-523.02 212.89,-499 160,-499"/>
<polygon fill="black" stroke="black" points="279.51,-527.64 287.34,-531.6 283.5,-527.82 287.5,-528 287.5,-528 287.5,-528 283.5,-527.82 287.66,-524.4 279.51,-527.64 279.51,-527.64"/>
<ellipse fill="none" stroke="black" cx="276.31" cy="-527.49" rx="3.2" ry="3.2"/>
</g>
<!-- brandkraan&#45;&gt;conditie -->
<g id="edge7" class="edge">
<title>brandkraan:w&#45;&gt;conditie:e</title>
<path fill="none" stroke="black" d="M273.36,-503.01C241.77,-487.39 260.75,-416 215,-416"/>
<polygon fill="black" stroke="black" points="279.67,-504.34 286.75,-509.52 283.59,-505.17 287.5,-506 287.5,-506 287.5,-506 283.59,-505.17 288.25,-502.48 279.67,-504.34 279.67,-504.34"/>
<ellipse fill="none" stroke="black" cx="276.54" cy="-503.68" rx="3.2" ry="3.2"/>
</g>
<!-- brandkraan&#45;&gt;roi.symbool -->
<g id="edge8" class="edge">
<title>brandkraan:w&#45;&gt;roi.symbool:e</title>
<path fill="none" stroke="black" d="M273.01,-550.81C233.62,-555.4 221.29,-578 175,-578"/>
<polygon fill="black" stroke="black" points="279.51,-550.45 287.7,-553.59 283.51,-550.22 287.5,-550 287.5,-550 287.5,-550 283.51,-550.22 287.3,-546.41 279.51,-550.45 279.51,-550.45"/>
<ellipse fill="none" stroke="black" cx="276.32" cy="-550.62" rx="3.2" ry="3.2"/>
</g>
<!-- brandkraan_prive -->
<g id="node7" class="node">
<title>brandkraan_prive</title>
<g id="a_node7"><a xlink:href="../../tables/brandkraan_prive.html" xlink:title="brandkraan_prive" target="_top">
<polygon fill="#ffffff" stroke="transparent" points="288,-248 288,-438 493,-438 493,-248 288,-248"/>
<polygon fill="#f5f5f5" stroke="transparent" points="288.5,-416 288.5,-438 493.5,-438 493.5,-416 288.5,-416"/>
<polygon fill="none" stroke="black" points="288.5,-416 288.5,-438 493.5,-438 493.5,-416 288.5,-416"/>
<text text-anchor="start" x="293.5" y="-425.2" font-family="Helvetica,sans-Serif" font-weight="bold" font-size="11.00">brandkraan_prive</text>
<text text-anchor="start" x="451.5" y="-424.2" font-family="Helvetica,sans-Serif" font-size="11.00">[table]</text>
<polygon fill="none" stroke="black" points="288.5,-394 288.5,-416 493.5,-416 493.5,-394 288.5,-394"/>
<image xlink:href="../../images/primaryKeys.png" width="11px" height="12px" preserveAspectRatio="xMinYMin meet" x="293.5" y="-411"/>
<text text-anchor="start" x="308.5" y="-402.2" font-family="Helvetica,sans-Serif" font-size="11.00">uuid</text>
<polygon fill="#ffffff" stroke="transparent" points="288.5,-372 288.5,-394 493.5,-394 493.5,-372 288.5,-372"/>
<polygon fill="none" stroke="black" points="288.5,-372 288.5,-394 493.5,-394 493.5,-372 288.5,-372"/>
<text text-anchor="start" x="308.5" y="-380.2" font-family="Helvetica,sans-Serif" font-size="11.00">geom</text>
<polygon fill="none" stroke="black" points="288.5,-350 288.5,-372 493.5,-372 493.5,-350 288.5,-350"/>
<image xlink:href="../../images/foreignKeys.png" width="11px" height="12px" preserveAspectRatio="xMinYMin meet" x="293.5" y="-367"/>
<text text-anchor="start" x="308.5" y="-358.2" font-family="Helvetica,sans-Serif" font-size="11.00">fase_id</text>
<polygon fill="none" stroke="black" points="288.5,-328 288.5,-350 493.5,-350 493.5,-328 288.5,-328"/>
<image xlink:href="../../images/foreignKeys.png" width="11px" height="12px" preserveAspectRatio="xMinYMin meet" x="293.5" y="-345"/>
<text text-anchor="start" x="308.5" y="-336.2" font-family="Helvetica,sans-Serif" font-size="11.00">symbool_id</text>
<polygon fill="none" stroke="black" points="288.5,-306 288.5,-328 493.5,-328 493.5,-306 288.5,-306"/>
<image xlink:href="../../images/foreignKeys.png" width="11px" height="12px" preserveAspectRatio="xMinYMin meet" x="293.5" y="-323"/>
<text text-anchor="start" x="308.5" y="-314.2" font-family="Helvetica,sans-Serif" font-size="11.00">gebied_id</text>
<polygon fill="none" stroke="black" points="288.5,-284 288.5,-306 493.5,-306 493.5,-284 288.5,-284"/>
<image xlink:href="../../images/foreignKeys.png" width="11px" height="12px" preserveAspectRatio="xMinYMin meet" x="293.5" y="-301"/>
<text text-anchor="start" x="308.5" y="-292.2" font-family="Helvetica,sans-Serif" font-size="11.00">inspectie_conditie_id</text>
<polygon fill="none" stroke="black" points="288.5,-266 288.5,-284 493.5,-284 493.5,-266 288.5,-266"/>
<text text-anchor="start" x="291.5" y="-272.2" font-family="Helvetica,sans-Serif" font-size="11.00">...</text>
<polygon fill="#ffffff" stroke="transparent" points="288.5,-248 288.5,-266 389.5,-266 389.5,-248 288.5,-248"/>
<polygon fill="none" stroke="black" points="288.5,-248 288.5,-266 389.5,-266 389.5,-248 288.5,-248"/>
<text text-anchor="start" x="291.5" y="-254.2" font-family="Helvetica,sans-Serif" font-size="11.00">&lt; 4</text>
<polygon fill="#ffffff" stroke="transparent" points="389.5,-248 389.5,-266 441.5,-266 441.5,-248 389.5,-248"/>
<polygon fill="none" stroke="black" points="389.5,-248 389.5,-266 441.5,-266 441.5,-248 389.5,-248"/>
<text text-anchor="start" x="430.5" y="-254.2" font-family="Helvetica,sans-Serif" font-size="11.00"> &#160;</text>
<polygon fill="#ffffff" stroke="transparent" points="441.5,-248 441.5,-266 493.5,-266 493.5,-248 441.5,-248"/>
<polygon fill="none" stroke="black" points="441.5,-248 441.5,-266 493.5,-266 493.5,-248 441.5,-248"/>
<text text-anchor="start" x="482.5" y="-254.2" font-family="Helvetica,sans-Serif" font-size="11.00"> &#160;</text>
</a>
</g>
</g>
<!-- brandkraan_prive&#45;&gt;roi.fase -->
<g id="edge9" class="edge">
<title>brandkraan_prive:w&#45;&gt;roi.fase:e</title>
<path fill="none" stroke="black" d="M273.21,-363.84C251.68,-374.71 266.18,-414.8 257,-449 236.94,-523.76 268.22,-556.47 224,-620 205.88,-646.02 194.71,-657 163,-657"/>
<polygon fill="black" stroke="black" points="279.65,-362.56 288.2,-364.53 283.58,-361.78 287.5,-361 287.5,-361 287.5,-361 283.58,-361.78 286.8,-357.47 279.65,-362.56 279.65,-362.56"/>
<ellipse fill="none" stroke="black" cx="276.51" cy="-363.18" rx="3.2" ry="3.2"/>
</g>
<!-- brandkraan_prive&#45;&gt;gebied -->
<g id="edge10" class="edge">
<title>brandkraan_prive:w&#45;&gt;gebied:e</title>
<path fill="none" stroke="black" d="M273.18,-318.63C224.93,-331.22 267.24,-413.66 224,-462 202.1,-486.49 192.86,-499 160,-499"/>
<polygon fill="black" stroke="black" points="279.55,-317.91 287.91,-320.58 283.53,-317.45 287.5,-317 287.5,-317 287.5,-317 283.53,-317.45 287.09,-313.42 279.55,-317.91 279.55,-317.91"/>
<ellipse fill="none" stroke="black" cx="276.37" cy="-318.27" rx="3.2" ry="3.2"/>
</g>
<!-- brandkraan_prive&#45;&gt;conditie -->
<g id="edge11" class="edge">
<title>brandkraan_prive:w&#45;&gt;conditie:e</title>
<path fill="none" stroke="black" d="M273.23,-297.75C233.38,-315.77 272.06,-416 215,-416"/>
<polygon fill="black" stroke="black" points="279.65,-296.52 288.18,-298.53 283.57,-295.76 287.5,-295 287.5,-295 287.5,-295 283.57,-295.76 286.82,-291.47 279.65,-296.52 279.65,-296.52"/>
<ellipse fill="none" stroke="black" cx="276.5" cy="-297.12" rx="3.2" ry="3.2"/>
</g>
<!-- brandkraan_prive&#45;&gt;roi.symbool -->
<g id="edge12" class="edge">
<title>brandkraan_prive:w&#45;&gt;roi.symbool:e</title>
<path fill="none" stroke="black" d="M273.09,-340.4C180.6,-359.99 287.13,-578 175,-578"/>
<polygon fill="black" stroke="black" points="279.54,-339.78 287.85,-342.58 283.52,-339.39 287.5,-339 287.5,-339 287.5,-339 283.52,-339.39 287.15,-335.42 279.54,-339.78 279.54,-339.78"/>
<ellipse fill="none" stroke="black" cx="276.35" cy="-340.09" rx="3.2" ry="3.2"/>
</g>
<!-- brandput -->
<g id="node8" class="node">
<title>brandput</title>
<g id="a_node8"><a xlink:href="../../tables/brandput.html" xlink:title="brandput" target="_top">
<polygon fill="#ffffff" stroke="transparent" points="296,-37 296,-227 485,-227 485,-37 296,-37"/>
<polygon fill="#f5f5f5" stroke="transparent" points="296.5,-205 296.5,-227 485.5,-227 485.5,-205 296.5,-205"/>
<polygon fill="none" stroke="black" points="296.5,-205 296.5,-227 485.5,-227 485.5,-205 296.5,-205"/>
<text text-anchor="start" x="301.5" y="-214.2" font-family="Helvetica,sans-Serif" font-weight="bold" font-size="11.00">brandput</text>
<text text-anchor="start" x="443.5" y="-213.2" font-family="Helvetica,sans-Serif" font-size="11.00">[table]</text>
<polygon fill="none" stroke="black" points="296.5,-183 296.5,-205 485.5,-205 485.5,-183 296.5,-183"/>
<image xlink:href="../../images/primaryKeys.png" width="11px" height="12px" preserveAspectRatio="xMinYMin meet" x="301.5" y="-200"/>
<text text-anchor="start" x="316.5" y="-191.2" font-family="Helvetica,sans-Serif" font-size="11.00">uuid</text>
<polygon fill="#ffffff" stroke="transparent" points="296.5,-161 296.5,-183 485.5,-183 485.5,-161 296.5,-161"/>
<polygon fill="none" stroke="black" points="296.5,-161 296.5,-183 485.5,-183 485.5,-161 296.5,-161"/>
<text text-anchor="start" x="316.5" y="-169.2" font-family="Helvetica,sans-Serif" font-size="11.00">geom</text>
<polygon fill="none" stroke="black" points="296.5,-139 296.5,-161 485.5,-161 485.5,-139 296.5,-139"/>
<image xlink:href="../../images/foreignKeys.png" width="11px" height="12px" preserveAspectRatio="xMinYMin meet" x="301.5" y="-156"/>
<text text-anchor="start" x="316.5" y="-147.2" font-family="Helvetica,sans-Serif" font-size="11.00">fase_id</text>
<polygon fill="none" stroke="black" points="296.5,-117 296.5,-139 485.5,-139 485.5,-117 296.5,-117"/>
<image xlink:href="../../images/foreignKeys.png" width="11px" height="12px" preserveAspectRatio="xMinYMin meet" x="301.5" y="-134"/>
<text text-anchor="start" x="316.5" y="-125.2" font-family="Helvetica,sans-Serif" font-size="11.00">symbool_id</text>
<polygon fill="none" stroke="black" points="296.5,-95 296.5,-117 485.5,-117 485.5,-95 296.5,-95"/>
<image xlink:href="../../images/foreignKeys.png" width="11px" height="12px" preserveAspectRatio="xMinYMin meet" x="301.5" y="-112"/>
<text text-anchor="start" x="316.5" y="-103.2" font-family="Helvetica,sans-Serif" font-size="11.00">gebied_id</text>
<polygon fill="none" stroke="black" points="296.5,-73 296.5,-95 485.5,-95 485.5,-73 296.5,-73"/>
<image xlink:href="../../images/foreignKeys.png" width="11px" height="12px" preserveAspectRatio="xMinYMin meet" x="301.5" y="-90"/>
<text text-anchor="start" x="316.5" y="-81.2" font-family="Helvetica,sans-Serif" font-size="11.00">inspectie_conditie_id</text>
<polygon fill="none" stroke="black" points="296.5,-55 296.5,-73 485.5,-73 485.5,-55 296.5,-55"/>
<text text-anchor="start" x="299.5" y="-61.2" font-family="Helvetica,sans-Serif" font-size="11.00">...</text>
<polygon fill="#ffffff" stroke="transparent" points="296.5,-37 296.5,-55 389.5,-55 389.5,-37 296.5,-37"/>
<polygon fill="none" stroke="black" points="296.5,-37 296.5,-55 389.5,-55 389.5,-37 296.5,-37"/>
<text text-anchor="start" x="299.5" y="-43.2" font-family="Helvetica,sans-Serif" font-size="11.00">&lt; 4</text>
<polygon fill="#ffffff" stroke="transparent" points="389.5,-37 389.5,-55 437.5,-55 437.5,-37 389.5,-37"/>
<polygon fill="none" stroke="black" points="389.5,-37 389.5,-55 437.5,-55 437.5,-37 389.5,-37"/>
<text text-anchor="start" x="426.5" y="-43.2" font-family="Helvetica,sans-Serif" font-size="11.00"> &#160;</text>
<polygon fill="#ffffff" stroke="transparent" points="437.5,-37 437.5,-55 485.5,-55 485.5,-37 437.5,-37"/>
<polygon fill="none" stroke="black" points="437.5,-37 437.5,-55 485.5,-55 485.5,-37 437.5,-37"/>
<text text-anchor="start" x="474.5" y="-43.2" font-family="Helvetica,sans-Serif" font-size="11.00"> &#160;</text>
</a>
</g>
</g>
<!-- brandput&#45;&gt;roi.fase -->
<g id="edge13" class="edge">
<title>brandput:w&#45;&gt;roi.fase:e</title>
<path fill="none" stroke="black" d="M281.12,-152.45C256.66,-162.5 266.08,-201.64 257,-237 235.76,-319.74 269.07,-547.43 224,-620 207.27,-646.94 194.71,-657 163,-657"/>
<polygon fill="black" stroke="black" points="287.61,-151.34 296.11,-153.55 291.56,-150.67 295.5,-150 295.5,-150 295.5,-150 291.56,-150.67 294.89,-146.45 287.61,-151.34 287.61,-151.34"/>
<ellipse fill="none" stroke="black" cx="284.46" cy="-151.88" rx="3.2" ry="3.2"/>
</g>
<!-- brandput&#45;&gt;gebied -->
<g id="edge14" class="edge">
<title>brandput:w&#45;&gt;gebied:e</title>
<path fill="none" stroke="black" d="M281.1,-107.75C240.87,-119.06 268.8,-183.16 257,-237 235.36,-335.73 280.74,-378.36 224,-462 205.55,-489.19 192.86,-499 160,-499"/>
<polygon fill="black" stroke="black" points="287.56,-106.96 295.93,-109.57 291.53,-106.48 295.5,-106 295.5,-106 295.5,-106 291.53,-106.48 295.07,-102.43 287.56,-106.96 287.56,-106.96"/>
<ellipse fill="none" stroke="black" cx="284.38" cy="-107.35" rx="3.2" ry="3.2"/>
</g>
<!-- brandput&#45;&gt;conditie -->
<g id="edge15" class="edge">
<title>brandput:w&#45;&gt;conditie:e</title>
<path fill="none" stroke="black" d="M281.57,-88.69C228.89,-129.05 285.58,-416 215,-416"/>
<polygon fill="black" stroke="black" points="287.92,-86.55 296.65,-87.41 291.71,-85.28 295.5,-84 295.5,-84 295.5,-84 291.71,-85.28 294.35,-80.59 287.92,-86.55 287.92,-86.55"/>
<ellipse fill="none" stroke="black" cx="284.89" cy="-87.58" rx="3.2" ry="3.2"/>
</g>
<!-- brandput&#45;&gt;roi.symbool -->
<g id="edge16" class="edge">
<title>brandput:w&#45;&gt;roi.symbool:e</title>
<path fill="none" stroke="black" d="M281.21,-130.03C249.01,-140.78 267.16,-192.38 257,-237 226.83,-369.51 291.07,-422.8 224,-541 210.53,-564.73 202.29,-578 175,-578"/>
<polygon fill="black" stroke="black" points="287.58,-129.12 296.01,-131.56 291.54,-128.56 295.5,-128 295.5,-128 295.5,-128 291.54,-128.56 294.99,-124.44 287.58,-129.12 287.58,-129.12"/>
<ellipse fill="none" stroke="black" cx="284.41" cy="-129.57" rx="3.2" ry="3.2"/>
</g>
<!-- openwater -->
<g id="node9" class="node">
<title>openwater</title>
<g id="a_node9"><a xlink:href="../../tables/openwater.html" xlink:title="openwater" target="_top">
<polygon fill="#ffffff" stroke="transparent" points="265,-903 265,-1093 516,-1093 516,-903 265,-903"/>
<polygon fill="#f5f5f5" stroke="transparent" points="265.5,-1071 265.5,-1093 516.5,-1093 516.5,-1071 265.5,-1071"/>
<polygon fill="none" stroke="black" points="265.5,-1071 265.5,-1093 516.5,-1093 516.5,-1071 265.5,-1071"/>
<text text-anchor="start" x="270.5" y="-1080.2" font-family="Helvetica,sans-Serif" font-weight="bold" font-size="11.00">openwater</text>
<text text-anchor="start" x="474.5" y="-1079.2" font-family="Helvetica,sans-Serif" font-size="11.00">[table]</text>
<polygon fill="none" stroke="black" points="265.5,-1049 265.5,-1071 516.5,-1071 516.5,-1049 265.5,-1049"/>
<image xlink:href="../../images/primaryKeys.png" width="11px" height="12px" preserveAspectRatio="xMinYMin meet" x="270.5" y="-1066"/>
<text text-anchor="start" x="285.5" y="-1057.2" font-family="Helvetica,sans-Serif" font-size="11.00">uuid</text>
<polygon fill="#ffffff" stroke="transparent" points="265.5,-1027 265.5,-1049 516.5,-1049 516.5,-1027 265.5,-1027"/>
<polygon fill="none" stroke="black" points="265.5,-1027 265.5,-1049 516.5,-1049 516.5,-1027 265.5,-1027"/>
<text text-anchor="start" x="285.5" y="-1035.2" font-family="Helvetica,sans-Serif" font-size="11.00">geom</text>
<polygon fill="none" stroke="black" points="265.5,-1005 265.5,-1027 516.5,-1027 516.5,-1005 265.5,-1005"/>
<image xlink:href="../../images/foreignKeys.png" width="11px" height="12px" preserveAspectRatio="xMinYMin meet" x="270.5" y="-1022"/>
<text text-anchor="start" x="285.5" y="-1013.2" font-family="Helvetica,sans-Serif" font-size="11.00">fase_id</text>
<polygon fill="none" stroke="black" points="265.5,-983 265.5,-1005 516.5,-1005 516.5,-983 265.5,-983"/>
<image xlink:href="../../images/foreignKeys.png" width="11px" height="12px" preserveAspectRatio="xMinYMin meet" x="270.5" y="-1000"/>
<text text-anchor="start" x="285.5" y="-991.2" font-family="Helvetica,sans-Serif" font-size="11.00">symbool_id</text>
<polygon fill="none" stroke="black" points="265.5,-961 265.5,-983 516.5,-983 516.5,-961 265.5,-961"/>
<image xlink:href="../../images/foreignKeys.png" width="11px" height="12px" preserveAspectRatio="xMinYMin meet" x="270.5" y="-978"/>
<text text-anchor="start" x="285.5" y="-969.2" font-family="Helvetica,sans-Serif" font-size="11.00">gebied_id</text>
<polygon fill="none" stroke="black" points="265.5,-939 265.5,-961 516.5,-961 516.5,-939 265.5,-939"/>
<image xlink:href="../../images/foreignKeys.png" width="11px" height="12px" preserveAspectRatio="xMinYMin meet" x="270.5" y="-956"/>
<text text-anchor="start" x="285.5" y="-947.2" font-family="Helvetica,sans-Serif" font-size="11.00">inspectie_conditie_id</text>
<polygon fill="none" stroke="black" points="265.5,-921 265.5,-939 516.5,-939 516.5,-921 265.5,-921"/>
<text text-anchor="start" x="268.5" y="-927.2" font-family="Helvetica,sans-Serif" font-size="11.00">...</text>
<polygon fill="#ffffff" stroke="transparent" points="265.5,-903 265.5,-921 389.5,-921 389.5,-903 265.5,-903"/>
<polygon fill="none" stroke="black" points="265.5,-903 265.5,-921 389.5,-921 389.5,-903 265.5,-903"/>
<text text-anchor="start" x="268.5" y="-909.2" font-family="Helvetica,sans-Serif" font-size="11.00">&lt; 4</text>
<polygon fill="#ffffff" stroke="transparent" points="389.5,-903 389.5,-921 452.5,-921 452.5,-903 389.5,-903"/>
<polygon fill="none" stroke="black" points="389.5,-903 389.5,-921 452.5,-921 452.5,-903 389.5,-903"/>
<text text-anchor="start" x="441.5" y="-909.2" font-family="Helvetica,sans-Serif" font-size="11.00"> &#160;</text>
<polygon fill="#ffffff" stroke="transparent" points="452.5,-903 452.5,-921 516.5,-921 516.5,-903 452.5,-903"/>
<polygon fill="none" stroke="black" points="452.5,-903 452.5,-921 516.5,-921 516.5,-903 452.5,-903"/>
<text text-anchor="start" x="505.5" y="-909.2" font-family="Helvetica,sans-Serif" font-size="11.00"> &#160;</text>
</a>
</g>
</g>
<!-- openwater&#45;&gt;roi.fase -->
<g id="edge17" class="edge">
<title>openwater:w&#45;&gt;roi.fase:e</title>
<path fill="none" stroke="black" d="M250.09,-1014.97C112.69,-993.91 323.63,-657 163,-657"/>
<polygon fill="black" stroke="black" points="256.52,-1015.43 264.24,-1019.59 260.51,-1015.71 264.5,-1016 264.5,-1016 264.5,-1016 260.51,-1015.71 264.76,-1012.41 256.52,-1015.43 256.52,-1015.43"/>
<ellipse fill="none" stroke="black" cx="253.33" cy="-1015.2" rx="3.2" ry="3.2"/>
</g>
<!-- openwater&#45;&gt;gebied -->
<g id="edge18" class="edge">
<title>openwater:w&#45;&gt;gebied:e</title>
<path fill="none" stroke="black" d="M250.68,-967.37C240.06,-955.19 259.67,-921.26 257,-893 249.62,-814.78 264.51,-608.31 224,-541 206.46,-511.85 194.02,-499 160,-499"/>
<polygon fill="black" stroke="black" points="256.91,-969.46 263.36,-975.41 260.71,-970.73 264.5,-972 264.5,-972 264.5,-972 260.71,-970.73 265.64,-968.59 256.91,-969.46 256.91,-969.46"/>
<ellipse fill="none" stroke="black" cx="253.88" cy="-968.44" rx="3.2" ry="3.2"/>
</g>
<!-- openwater&#45;&gt;conditie -->
<g id="edge19" class="edge">
<title>openwater:w&#45;&gt;conditie:e</title>
<path fill="none" stroke="black" d="M253.02,-941.18C214.78,-871.75 270.05,-416 215,-416"/>
<polygon fill="black" stroke="black" points="258.16,-945.13 262.31,-952.85 261.33,-947.56 264.5,-950 264.5,-950 264.5,-950 261.33,-947.56 266.69,-947.15 258.16,-945.13 258.16,-945.13"/>
<ellipse fill="none" stroke="black" cx="255.62" cy="-943.18" rx="3.2" ry="3.2"/>
</g>
<!-- openwater&#45;&gt;roi.symbool -->
<g id="edge20" class="edge">
<title>openwater:w&#45;&gt;roi.symbool:e</title>
<path fill="none" stroke="black" d="M250.32,-990.4C190.98,-956.26 260.46,-689.19 224,-620 210.63,-594.63 203.68,-578 175,-578"/>
<polygon fill="black" stroke="black" points="256.75,-992.03 263.61,-997.49 260.62,-993.02 264.5,-994 264.5,-994 264.5,-994 260.62,-993.02 265.39,-990.51 256.75,-992.03 256.75,-992.03"/>
<ellipse fill="none" stroke="black" cx="253.64" cy="-991.24" rx="3.2" ry="3.2"/>
</g>
</g>
</svg>
