<?xml version="1.0" encoding="UTF-8" standalone="no"?>
<!DOCTYPE svg PUBLIC "-//W3C//DTD SVG 1.1//EN"
 "http://www.w3.org/Graphics/SVG/1.1/DTD/svg11.dtd">
<!-- Generated by graphviz version 2.40.1 (20161225.0304)
 -->
<!-- Title: twoDegreesRelationshipsDiagram Pages: 1 -->
<svg width="503pt" height="1121pt"
 viewBox="0.00 0.00 503.00 1121.20" xmlns="http://www.w3.org/2000/svg" xmlns:xlink="http://www.w3.org/1999/xlink">
<g id="graph0" class="graph" transform="scale(1 1) rotate(0) translate(4 1117.2)">
<title>twoDegreesRelationshipsDiagram</title>
<polygon fill="#ffffff" stroke="transparent" points="-4,4 -4,-1117.2 499,-1117.2 499,4 -4,4"/>
<text text-anchor="middle" x="72.4936" y="-7.3" font-family="Helvetica,sans-Serif" font-size="11.00" fill="#000000">Generated by SchemaSpy</text>
<!-- bluswaterriool -->
<g id="node1" class="node">
<title>bluswaterriool</title>
<g id="a_node1"><a xlink:href="../../tables/bluswaterriool.html" xlink:title="bluswaterriool" target="_top">
<polygon fill="#ffffff" stroke="transparent" points="284,-702.2 284,-895.2 449,-895.2 449,-702.2 284,-702.2"/>
<polygon fill="#f5f5f5" stroke="transparent" points="284.5,-871.7 284.5,-894.7 449.5,-894.7 449.5,-871.7 284.5,-871.7"/>
<polygon fill="none" stroke="#000000" points="284.5,-871.7 284.5,-894.7 449.5,-894.7 449.5,-871.7 284.5,-871.7"/>
<text text-anchor="start" x="289.5" y="-880.3" font-family="Helvetica,sans-Serif" font-weight="bold" font-size="11.00" fill="#000000">bluswaterriool</text>
<text text-anchor="start" x="414.5437" y="-879.8" font-family="Helvetica,sans-Serif" font-size="11.00" fill="#000000">[table]</text>
<polygon fill="none" stroke="#000000" points="284.5,-849.7 284.5,-871.7 449.5,-871.7 449.5,-849.7 284.5,-849.7"/>
<image xlink:href="../../images/primaryKeys.png" width="11px" height="12px" preserveAspectRatio="xMinYMin meet" x="289.5" y="-866.7"/>
<text text-anchor="start" x="304.5" y="-856.8" font-family="Helvetica,sans-Serif" font-size="11.00" fill="#000000">uuid</text>
<polygon fill="#ffffff" stroke="transparent" points="284.5,-827.7 284.5,-849.7 449.5,-849.7 449.5,-827.7 284.5,-827.7"/>
<polygon fill="none" stroke="#000000" points="284.5,-827.7 284.5,-849.7 449.5,-849.7 449.5,-827.7 284.5,-827.7"/>
<text text-anchor="start" x="304.5" y="-834.8" font-family="Helvetica,sans-Serif" font-size="11.00" fill="#000000">geom</text>
<polygon fill="none" stroke="#000000" points="284.5,-805.7 284.5,-827.7 449.5,-827.7 449.5,-805.7 284.5,-805.7"/>
<image xlink:href="../../images/foreignKeys.png" width="11px" height="12px" preserveAspectRatio="xMinYMin meet" x="289.5" y="-822.7"/>
<text text-anchor="start" x="304.5" y="-812.8" font-family="Helvetica,sans-Serif" font-size="11.00" fill="#000000">fase_id</text>
<polygon fill="none" stroke="#000000" points="284.5,-783.7 284.5,-805.7 449.5,-805.7 449.5,-783.7 284.5,-783.7"/>
<image xlink:href="../../images/foreignKeys.png" width="11px" height="12px" preserveAspectRatio="xMinYMin meet" x="289.5" y="-800.7"/>
<text text-anchor="start" x="304.5" y="-790.8" font-family="Helvetica,sans-Serif" font-size="11.00" fill="#000000">symbool_id</text>
<polygon fill="none" stroke="#000000" points="284.5,-761.7 284.5,-783.7 449.5,-783.7 449.5,-761.7 284.5,-761.7"/>
<image xlink:href="../../images/foreignKeys.png" width="11px" height="12px" preserveAspectRatio="xMinYMin meet" x="289.5" y="-778.7"/>
<text text-anchor="start" x="304.5" y="-768.8" font-family="Helvetica,sans-Serif" font-size="11.00" fill="#000000">gebied_id</text>
<polygon fill="none" stroke="#000000" points="284.5,-739.7 284.5,-761.7 449.5,-761.7 449.5,-739.7 284.5,-739.7"/>
<image xlink:href="../../images/foreignKeys.png" width="11px" height="12px" preserveAspectRatio="xMinYMin meet" x="289.5" y="-756.7"/>
<text text-anchor="start" x="304.5" y="-746.8" font-family="Helvetica,sans-Serif" font-size="11.00" fill="#000000">inspectie_conditie_id</text>
<polygon fill="none" stroke="#000000" points="284.5,-720.7 284.5,-739.7 449.5,-739.7 449.5,-720.7 284.5,-720.7"/>
<text text-anchor="start" x="287.5" y="-726.8" font-family="Helvetica,sans-Serif" font-size="11.00" fill="#000000">...</text>
<polygon fill="#ffffff" stroke="transparent" points="284.5,-701.7 284.5,-720.7 365.5,-720.7 365.5,-701.7 284.5,-701.7"/>
<polygon fill="none" stroke="#000000" points="284.5,-701.7 284.5,-720.7 365.5,-720.7 365.5,-701.7 284.5,-701.7"/>
<text text-anchor="start" x="287.5" y="-707.8" font-family="Helvetica,sans-Serif" font-size="11.00" fill="#000000">&lt; 4</text>
<polygon fill="#ffffff" stroke="transparent" points="365.5,-701.7 365.5,-720.7 407.5,-720.7 407.5,-701.7 365.5,-701.7"/>
<polygon fill="none" stroke="#000000" points="365.5,-701.7 365.5,-720.7 407.5,-720.7 407.5,-701.7 365.5,-701.7"/>
<text text-anchor="start" x="398.3862" y="-707.8" font-family="Helvetica,sans-Serif" font-size="11.00" fill="#000000"> &#160;</text>
<polygon fill="#ffffff" stroke="transparent" points="407.5,-701.7 407.5,-720.7 449.5,-720.7 449.5,-701.7 407.5,-701.7"/>
<polygon fill="none" stroke="#000000" points="407.5,-701.7 407.5,-720.7 449.5,-720.7 449.5,-701.7 407.5,-701.7"/>
<text text-anchor="start" x="440.3862" y="-707.8" font-family="Helvetica,sans-Serif" font-size="11.00" fill="#000000"> &#160;</text>
</a>
</g>
</g>
<!-- roi.fase -->
<g id="node2" class="node">
<title>roi.fase</title>
<g id="a_node2"><a xlink:href="../../../roi/tables/fase.html" xlink:title="roi.fase" target="_top">
<polygon fill="#ffffff" stroke="transparent" points="62,-643.2 62,-704.2 143,-704.2 143,-643.2 62,-643.2"/>
<polygon fill="#f5f5f5" stroke="transparent" points="62.5,-680.7 62.5,-703.7 143.5,-703.7 143.5,-680.7 62.5,-680.7"/>
<polygon fill="none" stroke="#000000" points="62.5,-680.7 62.5,-703.7 143.5,-703.7 143.5,-680.7 62.5,-680.7"/>
<text text-anchor="start" x="67.5" y="-689.3" font-family="Helvetica,sans-Serif" font-weight="bold" font-size="11.00" fill="#000000">roi.fase</text>
<text text-anchor="start" x="109.0219" y="-688.8" font-family="Helvetica,sans-Serif" font-size="11.00" fill="#000000">[table]</text>
<polygon fill="none" stroke="#000000" points="62.5,-661.7 62.5,-680.7 143.5,-680.7 143.5,-661.7 62.5,-661.7"/>
<text text-anchor="start" x="65.5" y="-667.8" font-family="Helvetica,sans-Serif" font-size="11.00" fill="#000000">...</text>
<polygon fill="#ffffff" stroke="transparent" points="62.5,-642.7 62.5,-661.7 92.5,-661.7 92.5,-642.7 62.5,-642.7"/>
<polygon fill="none" stroke="#000000" points="62.5,-642.7 62.5,-661.7 92.5,-661.7 92.5,-642.7 62.5,-642.7"/>
<text text-anchor="start" x="65.5" y="-648.8" font-family="Helvetica,sans-Serif" font-size="11.00" fill="#000000"> &#160;</text>
<polygon fill="#ffffff" stroke="transparent" points="92.5,-642.7 92.5,-661.7 113.5,-661.7 113.5,-642.7 92.5,-642.7"/>
<polygon fill="none" stroke="#000000" points="92.5,-642.7 92.5,-661.7 113.5,-661.7 113.5,-642.7 92.5,-642.7"/>
<text text-anchor="start" x="104.3862" y="-648.8" font-family="Helvetica,sans-Serif" font-size="11.00" fill="#000000"> &#160;</text>
<polygon fill="#ffffff" stroke="transparent" points="113.5,-642.7 113.5,-661.7 143.5,-661.7 143.5,-642.7 113.5,-642.7"/>
<polygon fill="none" stroke="#000000" points="113.5,-642.7 113.5,-661.7 143.5,-661.7 143.5,-642.7 113.5,-642.7"/>
<text text-anchor="start" x="124.9053" y="-648.8" font-family="Helvetica,sans-Serif" font-size="11.00" fill="#000000">5 &gt;</text>
</a>
</g>
</g>
<!-- bluswaterriool&#45;&gt;roi.fase -->
<g id="edge1" class="edge">
<title>bluswaterriool:w&#45;&gt;roi.fase:e</title>
<path fill="none" stroke="#000000" d="M269.9259,-815.255C198.4652,-800.0919 228.4234,-670.7 143.5,-670.7"/>
<polygon fill="#000000" stroke="#000000" points="276.539,-815.9106 284.1448,-820.2824 280.5195,-816.3053 284.5,-816.7 284.5,-816.7 284.5,-816.7 280.5195,-816.3053 284.8552,-813.1176 276.539,-815.9106 276.539,-815.9106"/>
<ellipse fill="none" stroke="#000000" cx="273.3546" cy="-815.5949" rx="3.2" ry="3.2"/>
</g>
<!-- gebied -->
<g id="node3" class="node">
<title>gebied</title>
<g id="a_node3"><a xlink:href="../../tables/gebied.html" xlink:title="gebied" target="_top">
<polygon fill="#ffffff" stroke="transparent" points="64,-479.2 64,-540.2 141,-540.2 141,-479.2 64,-479.2"/>
<polygon fill="#f5f5f5" stroke="transparent" points="64.5,-516.7 64.5,-539.7 141.5,-539.7 141.5,-516.7 64.5,-516.7"/>
<polygon fill="none" stroke="#000000" points="64.5,-516.7 64.5,-539.7 141.5,-539.7 141.5,-516.7 64.5,-516.7"/>
<text text-anchor="start" x="69.5" y="-525.3" font-family="Helvetica,sans-Serif" font-weight="bold" font-size="11.00" fill="#000000">gebied</text>
<text text-anchor="start" x="107.0219" y="-524.8" font-family="Helvetica,sans-Serif" font-size="11.00" fill="#000000">[table]</text>
<polygon fill="none" stroke="#000000" points="64.5,-497.7 64.5,-516.7 141.5,-516.7 141.5,-497.7 64.5,-497.7"/>
<text text-anchor="start" x="67.5" y="-503.8" font-family="Helvetica,sans-Serif" font-size="11.00" fill="#000000">...</text>
<polygon fill="#ffffff" stroke="transparent" points="64.5,-478.7 64.5,-497.7 92.5,-497.7 92.5,-478.7 64.5,-478.7"/>
<polygon fill="none" stroke="#000000" points="64.5,-478.7 64.5,-497.7 92.5,-497.7 92.5,-478.7 64.5,-478.7"/>
<text text-anchor="start" x="67.5" y="-484.8" font-family="Helvetica,sans-Serif" font-size="11.00" fill="#000000"> &#160;</text>
<polygon fill="#ffffff" stroke="transparent" points="92.5,-478.7 92.5,-497.7 112.5,-497.7 112.5,-478.7 92.5,-478.7"/>
<polygon fill="none" stroke="#000000" points="92.5,-478.7 92.5,-497.7 112.5,-497.7 112.5,-478.7 92.5,-478.7"/>
<text text-anchor="start" x="103.3862" y="-484.8" font-family="Helvetica,sans-Serif" font-size="11.00" fill="#000000"> &#160;</text>
<polygon fill="#ffffff" stroke="transparent" points="112.5,-478.7 112.5,-497.7 141.5,-497.7 141.5,-478.7 112.5,-478.7"/>
<polygon fill="none" stroke="#000000" points="112.5,-478.7 112.5,-497.7 141.5,-497.7 141.5,-478.7 112.5,-478.7"/>
<text text-anchor="start" x="122.9053" y="-484.8" font-family="Helvetica,sans-Serif" font-size="11.00" fill="#000000">5 &gt;</text>
</a>
</g>
</g>
<!-- bluswaterriool&#45;&gt;gebied -->
<g id="edge2" class="edge">
<title>bluswaterriool:w&#45;&gt;gebied:e</title>
<path fill="none" stroke="#000000" d="M270.8007,-767.0064C233.3247,-734.563 220.6298,-573.6753 205,-550.7 185.6873,-522.311 175.8353,-506.7 141.5,-506.7"/>
<polygon fill="#000000" stroke="#000000" points="277.1126,-769.6297 283.1183,-776.0243 280.8063,-771.1648 284.5,-772.7 284.5,-772.7 284.5,-772.7 280.8063,-771.1648 285.8817,-769.3757 277.1126,-769.6297 277.1126,-769.6297"/>
<ellipse fill="none" stroke="#000000" cx="274.1577" cy="-768.4015" rx="3.2" ry="3.2"/>
</g>
<!-- conditie -->
<g id="node4" class="node">
<title>conditie</title>
<g id="a_node4"><a xlink:href="../../tables/conditie.html" xlink:title="conditie" target="_top">
<polygon fill="#ffffff" stroke="transparent" points="8,-345.7 8,-457.7 197,-457.7 197,-345.7 8,-345.7"/>
<polygon fill="#f5f5f5" stroke="transparent" points="10.5,-432.7 10.5,-455.7 195.5,-455.7 195.5,-432.7 10.5,-432.7"/>
<polygon fill="none" stroke="#000000" points="10.5,-432.7 10.5,-455.7 195.5,-455.7 195.5,-432.7 10.5,-432.7"/>
<text text-anchor="start" x="15.5" y="-441.3" font-family="Helvetica,sans-Serif" font-weight="bold" font-size="11.00" fill="#000000">conditie</text>
<text text-anchor="start" x="160.5437" y="-440.8" font-family="Helvetica,sans-Serif" font-size="11.00" fill="#000000">[table]</text>
<polygon fill="none" stroke="#000000" points="10.5,-410.7 10.5,-432.7 105.5,-432.7 105.5,-410.7 10.5,-410.7"/>
<image xlink:href="../../images/primaryKeys.png" width="11px" height="12px" preserveAspectRatio="xMinYMin meet" x="15.5" y="-427.7"/>
<text text-anchor="start" x="30.5" y="-417.8" font-family="Helvetica,sans-Serif" font-size="11.00" fill="#000000">id</text>
<polygon fill="none" stroke="#000000" points="105.5,-410.7 105.5,-432.7 195.5,-432.7 195.5,-410.7 105.5,-410.7"/>
<text text-anchor="start" x="108.5" y="-418.4" font-family="Helvetica,sans-Serif" font-size="11.00" fill="#000000">int2[5]</text>
<polygon fill="none" stroke="#000000" points="10.5,-388.7 10.5,-410.7 105.5,-410.7 105.5,-388.7 10.5,-388.7"/>
<text text-anchor="start" x="30.5" y="-395.8" font-family="Helvetica,sans-Serif" font-size="11.00" fill="#000000">naam</text>
<polygon fill="none" stroke="#000000" points="105.5,-388.7 105.5,-410.7 195.5,-410.7 195.5,-388.7 105.5,-388.7"/>
<text text-anchor="start" x="108.0042" y="-396.4" font-family="Helvetica,sans-Serif" font-size="11.00" fill="#000000">text[2147483647]</text>
<polygon fill="none" stroke="#000000" points="10.5,-366.7 10.5,-388.7 105.5,-388.7 105.5,-366.7 10.5,-366.7"/>
<text text-anchor="start" x="30.5" y="-373.8" font-family="Helvetica,sans-Serif" font-size="11.00" fill="#000000">omschrijving</text>
<polygon fill="none" stroke="#000000" points="105.5,-366.7 105.5,-388.7 195.5,-388.7 195.5,-366.7 105.5,-366.7"/>
<text text-anchor="start" x="108.0042" y="-374.4" font-family="Helvetica,sans-Serif" font-size="11.00" fill="#000000">text[2147483647]</text>
<polygon fill="#ffffff" stroke="transparent" points="10.5,-347.7 10.5,-366.7 62.5,-366.7 62.5,-347.7 10.5,-347.7"/>
<polygon fill="none" stroke="#000000" points="10.5,-347.7 10.5,-366.7 62.5,-366.7 62.5,-347.7 10.5,-347.7"/>
<text text-anchor="start" x="13.5" y="-353.8" font-family="Helvetica,sans-Serif" font-size="11.00" fill="#000000">&lt; 0</text>
<polygon fill="#ffffff" stroke="transparent" points="62.5,-347.7 62.5,-366.7 105.5,-366.7 105.5,-347.7 62.5,-347.7"/>
<polygon fill="none" stroke="#000000" points="62.5,-347.7 62.5,-366.7 105.5,-366.7 105.5,-347.7 62.5,-347.7"/>
<text text-anchor="start" x="96.3862" y="-353.8" font-family="Helvetica,sans-Serif" font-size="11.00" fill="#000000"> &#160;</text>
<polygon fill="#ffffff" stroke="transparent" points="105.5,-347.7 105.5,-366.7 195.5,-366.7 195.5,-347.7 105.5,-347.7"/>
<polygon fill="none" stroke="#000000" points="105.5,-347.7 105.5,-366.7 195.5,-366.7 195.5,-347.7 105.5,-347.7"/>
<text text-anchor="start" x="176.9053" y="-353.8" font-family="Helvetica,sans-Serif" font-size="11.00" fill="#000000">5 &gt;</text>
<polygon fill="none" stroke="#000000" stroke-width="2" points="9,-346.7 9,-456.7 196,-456.7 196,-346.7 9,-346.7"/>
</a>
</g>
</g>
<!-- bluswaterriool&#45;&gt;conditie -->
<g id="edge3" class="edge">
<title>bluswaterriool:w&#45;&gt;conditie:e</title>
<path fill="none" stroke="#000000" d="M270.0155,-748.3204C250.7565,-740.8889 248.9498,-717.0883 238,-691.7 213.9456,-635.9274 256.2388,-421.7 195.5,-421.7"/>
<polygon fill="#000000" stroke="#000000" points="276.6058,-749.403 283.9164,-754.2524 280.5529,-750.0515 284.5,-750.7 284.5,-750.7 284.5,-750.7 280.5529,-750.0515 285.0836,-747.1476 276.6058,-749.403 276.6058,-749.403"/>
<ellipse fill="none" stroke="#000000" cx="273.4482" cy="-748.8842" rx="3.2" ry="3.2"/>
</g>
<!-- roi.symbool -->
<g id="node5" class="node">
<title>roi.symbool</title>
<g id="a_node5"><a xlink:href="../../../roi/tables/symbool.html" xlink:title="roi.symbool" target="_top">
<polygon fill="#ffffff" stroke="transparent" points="49,-561.2 49,-622.2 156,-622.2 156,-561.2 49,-561.2"/>
<polygon fill="#f5f5f5" stroke="transparent" points="49.5,-598.7 49.5,-621.7 156.5,-621.7 156.5,-598.7 49.5,-598.7"/>
<polygon fill="none" stroke="#000000" points="49.5,-598.7 49.5,-621.7 156.5,-621.7 156.5,-598.7 49.5,-598.7"/>
<text text-anchor="start" x="54.5" y="-607.3" font-family="Helvetica,sans-Serif" font-weight="bold" font-size="11.00" fill="#000000">roi.symbool</text>
<text text-anchor="start" x="122.0219" y="-606.8" font-family="Helvetica,sans-Serif" font-size="11.00" fill="#000000">[table]</text>
<polygon fill="none" stroke="#000000" points="49.5,-579.7 49.5,-598.7 156.5,-598.7 156.5,-579.7 49.5,-579.7"/>
<text text-anchor="start" x="52.5" y="-585.8" font-family="Helvetica,sans-Serif" font-size="11.00" fill="#000000">...</text>
<polygon fill="#ffffff" stroke="transparent" points="49.5,-560.7 49.5,-579.7 92.5,-579.7 92.5,-560.7 49.5,-560.7"/>
<polygon fill="none" stroke="#000000" points="49.5,-560.7 49.5,-579.7 92.5,-579.7 92.5,-560.7 49.5,-560.7"/>
<text text-anchor="start" x="52.5" y="-566.8" font-family="Helvetica,sans-Serif" font-size="11.00" fill="#000000"> &#160;</text>
<polygon fill="#ffffff" stroke="transparent" points="92.5,-560.7 92.5,-579.7 119.5,-579.7 119.5,-560.7 92.5,-560.7"/>
<polygon fill="none" stroke="#000000" points="92.5,-560.7 92.5,-579.7 119.5,-579.7 119.5,-560.7 92.5,-560.7"/>
<text text-anchor="start" x="110.3862" y="-566.8" font-family="Helvetica,sans-Serif" font-size="11.00" fill="#000000"> &#160;</text>
<polygon fill="#ffffff" stroke="transparent" points="119.5,-560.7 119.5,-579.7 156.5,-579.7 156.5,-560.7 119.5,-560.7"/>
<polygon fill="none" stroke="#000000" points="119.5,-560.7 119.5,-579.7 156.5,-579.7 156.5,-560.7 119.5,-560.7"/>
<text text-anchor="start" x="137.9053" y="-566.8" font-family="Helvetica,sans-Serif" font-size="11.00" fill="#000000">6 &gt;</text>
</a>
</g>
</g>
<!-- bluswaterriool&#45;&gt;roi.symbool -->
<g id="edge4" class="edge">
<title>bluswaterriool:w&#45;&gt;roi.symbool:e</title>
<path fill="none" stroke="#000000" d="M270.0623,-793.2745C184.7966,-775.074 259.0272,-588.7 156.5,-588.7"/>
<polygon fill="#000000" stroke="#000000" points="276.5387,-793.9139 284.1463,-798.2826 280.5194,-794.307 284.5,-794.7 284.5,-794.7 284.5,-794.7 280.5194,-794.307 284.8537,-791.1174 276.5387,-793.9139 276.5387,-793.9139"/>
<ellipse fill="none" stroke="#000000" cx="273.3542" cy="-793.5995" rx="3.2" ry="3.2"/>
</g>
<!-- brandkraan -->
<g id="node6" class="node">
<title>brandkraan</title>
<g id="a_node6"><a xlink:href="../../tables/brandkraan.html" xlink:title="brandkraan" target="_top">
<polygon fill="#ffffff" stroke="transparent" points="267.5,-466.2 267.5,-681.2 465.5,-681.2 465.5,-466.2 267.5,-466.2"/>
<polygon fill="#f5f5f5" stroke="transparent" points="267.5,-657.7 267.5,-680.7 465.5,-680.7 465.5,-657.7 267.5,-657.7"/>
<polygon fill="none" stroke="#000000" points="267.5,-657.7 267.5,-680.7 465.5,-680.7 465.5,-657.7 267.5,-657.7"/>
<text text-anchor="start" x="272.5" y="-666.3" font-family="Helvetica,sans-Serif" font-weight="bold" font-size="11.00" fill="#000000">brandkraan</text>
<text text-anchor="start" x="430.5437" y="-665.8" font-family="Helvetica,sans-Serif" font-size="11.00" fill="#000000">[table]</text>
<polygon fill="none" stroke="#000000" points="267.5,-635.7 267.5,-657.7 465.5,-657.7 465.5,-635.7 267.5,-635.7"/>
<image xlink:href="../../images/primaryKeys.png" width="11px" height="12px" preserveAspectRatio="xMinYMin meet" x="272.5" y="-652.7"/>
<text text-anchor="start" x="287.5" y="-642.8" font-family="Helvetica,sans-Serif" font-size="11.00" fill="#000000">uuid</text>
<polygon fill="#ffffff" stroke="transparent" points="267.5,-613.7 267.5,-635.7 465.5,-635.7 465.5,-613.7 267.5,-613.7"/>
<polygon fill="none" stroke="#000000" points="267.5,-613.7 267.5,-635.7 465.5,-635.7 465.5,-613.7 267.5,-613.7"/>
<text text-anchor="start" x="287.5" y="-620.8" font-family="Helvetica,sans-Serif" font-size="11.00" fill="#000000">geom</text>
<polygon fill="#ffffff" stroke="transparent" points="267.5,-591.7 267.5,-613.7 465.5,-613.7 465.5,-591.7 267.5,-591.7"/>
<polygon fill="none" stroke="#000000" points="267.5,-591.7 267.5,-613.7 465.5,-613.7 465.5,-591.7 267.5,-591.7"/>
<text text-anchor="start" x="287.5" y="-598.8" font-family="Helvetica,sans-Serif" font-size="11.00" fill="#000000">nen3610id</text>
<polygon fill="none" stroke="#000000" points="267.5,-569.7 267.5,-591.7 465.5,-591.7 465.5,-569.7 267.5,-569.7"/>
<image xlink:href="../../images/foreignKeys.png" width="11px" height="12px" preserveAspectRatio="xMinYMin meet" x="272.5" y="-586.7"/>
<text text-anchor="start" x="287.5" y="-576.8" font-family="Helvetica,sans-Serif" font-size="11.00" fill="#000000">fase_id</text>
<polygon fill="none" stroke="#000000" points="267.5,-547.7 267.5,-569.7 465.5,-569.7 465.5,-547.7 267.5,-547.7"/>
<image xlink:href="../../images/foreignKeys.png" width="11px" height="12px" preserveAspectRatio="xMinYMin meet" x="272.5" y="-564.7"/>
<text text-anchor="start" x="287.5" y="-554.8" font-family="Helvetica,sans-Serif" font-size="11.00" fill="#000000">symbool_id</text>
<polygon fill="none" stroke="#000000" points="267.5,-525.7 267.5,-547.7 465.5,-547.7 465.5,-525.7 267.5,-525.7"/>
<image xlink:href="../../images/foreignKeys.png" width="11px" height="12px" preserveAspectRatio="xMinYMin meet" x="272.5" y="-542.7"/>
<text text-anchor="start" x="287.5" y="-532.8" font-family="Helvetica,sans-Serif" font-size="11.00" fill="#000000">gebied_id</text>
<polygon fill="none" stroke="#000000" points="267.5,-503.7 267.5,-525.7 465.5,-525.7 465.5,-503.7 267.5,-503.7"/>
<image xlink:href="../../images/foreignKeys.png" width="11px" height="12px" preserveAspectRatio="xMinYMin meet" x="272.5" y="-520.7"/>
<text text-anchor="start" x="287.5" y="-510.8" font-family="Helvetica,sans-Serif" font-size="11.00" fill="#000000">inspectie_conditie_id</text>
<polygon fill="none" stroke="#000000" points="267.5,-484.7 267.5,-503.7 465.5,-503.7 465.5,-484.7 267.5,-484.7"/>
<text text-anchor="start" x="270.5" y="-490.8" font-family="Helvetica,sans-Serif" font-size="11.00" fill="#000000">...</text>
<polygon fill="#ffffff" stroke="transparent" points="267.5,-465.7 267.5,-484.7 364.5,-484.7 364.5,-465.7 267.5,-465.7"/>
<polygon fill="none" stroke="#000000" points="267.5,-465.7 267.5,-484.7 364.5,-484.7 364.5,-465.7 267.5,-465.7"/>
<text text-anchor="start" x="270.5" y="-471.8" font-family="Helvetica,sans-Serif" font-size="11.00" fill="#000000">&lt; 4</text>
<polygon fill="#ffffff" stroke="transparent" points="364.5,-465.7 364.5,-484.7 414.5,-484.7 414.5,-465.7 364.5,-465.7"/>
<polygon fill="none" stroke="#000000" points="364.5,-465.7 364.5,-484.7 414.5,-484.7 414.5,-465.7 364.5,-465.7"/>
<text text-anchor="start" x="405.3862" y="-471.8" font-family="Helvetica,sans-Serif" font-size="11.00" fill="#000000"> &#160;</text>
<polygon fill="#ffffff" stroke="transparent" points="414.5,-465.7 414.5,-484.7 465.5,-484.7 465.5,-465.7 414.5,-465.7"/>
<polygon fill="none" stroke="#000000" points="414.5,-465.7 414.5,-484.7 465.5,-484.7 465.5,-465.7 414.5,-465.7"/>
<text text-anchor="start" x="456.3862" y="-471.8" font-family="Helvetica,sans-Serif" font-size="11.00" fill="#000000"> &#160;</text>
</a>
</g>
</g>
<!-- brandkraan&#45;&gt;roi.fase -->
<g id="edge5" class="edge">
<title>brandkraan:w&#45;&gt;roi.fase:e</title>
<path fill="none" stroke="#000000" d="M253.1533,-582.8076C231.5036,-590.1158 229.7483,-614.893 205,-632.7 178.9194,-651.4656 175.6301,-670.7 143.5,-670.7"/>
<polygon fill="#000000" stroke="#000000" points="259.585,-581.8628 268.0233,-584.2618 263.5425,-581.2814 267.5,-580.7 267.5,-580.7 267.5,-580.7 263.5425,-581.2814 266.9767,-577.1382 259.585,-581.8628 259.585,-581.8628"/>
<ellipse fill="none" stroke="#000000" cx="256.4189" cy="-582.328" rx="3.2" ry="3.2"/>
</g>
<!-- brandkraan&#45;&gt;gebied -->
<g id="edge6" class="edge">
<title>brandkraan:w&#45;&gt;gebied:e</title>
<path fill="none" stroke="#000000" d="M253.0474,-536.017C207.6046,-531.5515 193.8935,-506.7 141.5,-506.7"/>
<polygon fill="#000000" stroke="#000000" points="259.5089,-536.3223 267.33,-540.296 263.5045,-536.5112 267.5,-536.7 267.5,-536.7 267.5,-536.7 263.5045,-536.5112 267.67,-533.104 259.5089,-536.3223 259.5089,-536.3223"/>
<ellipse fill="none" stroke="#000000" cx="256.3125" cy="-536.1713" rx="3.2" ry="3.2"/>
</g>
<!-- brandkraan&#45;&gt;conditie -->
<g id="edge7" class="edge">
<title>brandkraan:w&#45;&gt;conditie:e</title>
<path fill="none" stroke="#000000" d="M253.1701,-511.6057C221.3319,-495.4688 242.0555,-421.7 195.5,-421.7"/>
<polygon fill="#000000" stroke="#000000" points="259.6802,-513.0114 266.7401,-518.2189 263.5901,-513.8557 267.5,-514.7 267.5,-514.7 267.5,-514.7 263.5901,-513.8557 268.2599,-511.1811 259.6802,-513.0114 259.6802,-513.0114"/>
<ellipse fill="none" stroke="#000000" cx="256.5523" cy="-512.336" rx="3.2" ry="3.2"/>
</g>
<!-- brandkraan&#45;&gt;roi.symbool -->
<g id="edge8" class="edge">
<title>brandkraan:w&#45;&gt;roi.symbool:e</title>
<path fill="none" stroke="#000000" d="M252.8963,-559.5978C214.1228,-564.5895 202.3134,-588.7 156.5,-588.7"/>
<polygon fill="#000000" stroke="#000000" points="259.5151,-559.191 267.7209,-562.2932 263.5075,-558.9455 267.5,-558.7 267.5,-558.7 267.5,-558.7 263.5075,-558.9455 267.2791,-555.1068 259.5151,-559.191 259.5151,-559.191"/>
<ellipse fill="none" stroke="#000000" cx="256.3211" cy="-559.3874" rx="3.2" ry="3.2"/>
</g>
<!-- brandkraan_prive -->
<g id="node7" class="node">
<title>brandkraan_prive</title>
<g id="a_node7"><a xlink:href="../../tables/brandkraan_prive.html" xlink:title="brandkraan_prive" target="_top">
<polygon fill="#ffffff" stroke="transparent" points="267.5,-252.2 267.5,-445.2 465.5,-445.2 465.5,-252.2 267.5,-252.2"/>
<polygon fill="#f5f5f5" stroke="transparent" points="267.5,-421.7 267.5,-444.7 465.5,-444.7 465.5,-421.7 267.5,-421.7"/>
<polygon fill="none" stroke="#000000" points="267.5,-421.7 267.5,-444.7 465.5,-444.7 465.5,-421.7 267.5,-421.7"/>
<text text-anchor="start" x="272.5" y="-430.3" font-family="Helvetica,sans-Serif" font-weight="bold" font-size="11.00" fill="#000000">brandkraan_prive</text>
<text text-anchor="start" x="430.5437" y="-429.8" font-family="Helvetica,sans-Serif" font-size="11.00" fill="#000000">[table]</text>
<polygon fill="none" stroke="#000000" points="267.5,-399.7 267.5,-421.7 465.5,-421.7 465.5,-399.7 267.5,-399.7"/>
<image xlink:href="../../images/primaryKeys.png" width="11px" height="12px" preserveAspectRatio="xMinYMin meet" x="272.5" y="-416.7"/>
<text text-anchor="start" x="287.5" y="-406.8" font-family="Helvetica,sans-Serif" font-size="11.00" fill="#000000">uuid</text>
<polygon fill="#ffffff" stroke="transparent" points="267.5,-377.7 267.5,-399.7 465.5,-399.7 465.5,-377.7 267.5,-377.7"/>
<polygon fill="none" stroke="#000000" points="267.5,-377.7 267.5,-399.7 465.5,-399.7 465.5,-377.7 267.5,-377.7"/>
<text text-anchor="start" x="287.5" y="-384.8" font-family="Helvetica,sans-Serif" font-size="11.00" fill="#000000">geom</text>
<polygon fill="none" stroke="#000000" points="267.5,-355.7 267.5,-377.7 465.5,-377.7 465.5,-355.7 267.5,-355.7"/>
<image xlink:href="../../images/foreignKeys.png" width="11px" height="12px" preserveAspectRatio="xMinYMin meet" x="272.5" y="-372.7"/>
<text text-anchor="start" x="287.5" y="-362.8" font-family="Helvetica,sans-Serif" font-size="11.00" fill="#000000">fase_id</text>
<polygon fill="none" stroke="#000000" points="267.5,-333.7 267.5,-355.7 465.5,-355.7 465.5,-333.7 267.5,-333.7"/>
<image xlink:href="../../images/foreignKeys.png" width="11px" height="12px" preserveAspectRatio="xMinYMin meet" x="272.5" y="-350.7"/>
<text text-anchor="start" x="287.5" y="-340.8" font-family="Helvetica,sans-Serif" font-size="11.00" fill="#000000">symbool_id</text>
<polygon fill="none" stroke="#000000" points="267.5,-311.7 267.5,-333.7 465.5,-333.7 465.5,-311.7 267.5,-311.7"/>
<image xlink:href="../../images/foreignKeys.png" width="11px" height="12px" preserveAspectRatio="xMinYMin meet" x="272.5" y="-328.7"/>
<text text-anchor="start" x="287.5" y="-318.8" font-family="Helvetica,sans-Serif" font-size="11.00" fill="#000000">gebied_id</text>
<polygon fill="none" stroke="#000000" points="267.5,-289.7 267.5,-311.7 465.5,-311.7 465.5,-289.7 267.5,-289.7"/>
<image xlink:href="../../images/foreignKeys.png" width="11px" height="12px" preserveAspectRatio="xMinYMin meet" x="272.5" y="-306.7"/>
<text text-anchor="start" x="287.5" y="-296.8" font-family="Helvetica,sans-Serif" font-size="11.00" fill="#000000">inspectie_conditie_id</text>
<polygon fill="none" stroke="#000000" points="267.5,-270.7 267.5,-289.7 465.5,-289.7 465.5,-270.7 267.5,-270.7"/>
<text text-anchor="start" x="270.5" y="-276.8" font-family="Helvetica,sans-Serif" font-size="11.00" fill="#000000">...</text>
<polygon fill="#ffffff" stroke="transparent" points="267.5,-251.7 267.5,-270.7 364.5,-270.7 364.5,-251.7 267.5,-251.7"/>
<polygon fill="none" stroke="#000000" points="267.5,-251.7 267.5,-270.7 364.5,-270.7 364.5,-251.7 267.5,-251.7"/>
<text text-anchor="start" x="270.5" y="-257.8" font-family="Helvetica,sans-Serif" font-size="11.00" fill="#000000">&lt; 4</text>
<polygon fill="#ffffff" stroke="transparent" points="364.5,-251.7 364.5,-270.7 414.5,-270.7 414.5,-251.7 364.5,-251.7"/>
<polygon fill="none" stroke="#000000" points="364.5,-251.7 364.5,-270.7 414.5,-270.7 414.5,-251.7 364.5,-251.7"/>
<text text-anchor="start" x="405.3862" y="-257.8" font-family="Helvetica,sans-Serif" font-size="11.00" fill="#000000"> &#160;</text>
<polygon fill="#ffffff" stroke="transparent" points="414.5,-251.7 414.5,-270.7 465.5,-270.7 465.5,-251.7 414.5,-251.7"/>
<polygon fill="none" stroke="#000000" points="414.5,-251.7 414.5,-270.7 465.5,-270.7 465.5,-251.7 414.5,-251.7"/>
<text text-anchor="start" x="456.3862" y="-257.8" font-family="Helvetica,sans-Serif" font-size="11.00" fill="#000000"> &#160;</text>
</a>
</g>
</g>
<!-- brandkraan_prive&#45;&gt;roi.fase -->
<g id="edge9" class="edge">
<title>brandkraan_prive:w&#45;&gt;roi.fase:e</title>
<path fill="none" stroke="#000000" d="M253.1638,-369.5767C231.6637,-380.5886 246.8955,-421.1787 238,-455.7 218.0321,-533.1909 250.2385,-566.6922 205,-632.7 186.836,-659.2031 175.6301,-670.7 143.5,-670.7"/>
<polygon fill="#000000" stroke="#000000" points="259.6563,-368.2739 268.2083,-370.2296 263.5782,-367.487 267.5,-366.7 267.5,-366.7 267.5,-366.7 263.5782,-367.487 266.7917,-363.1704 259.6563,-368.2739 259.6563,-368.2739"/>
<ellipse fill="none" stroke="#000000" cx="256.5189" cy="-368.9035" rx="3.2" ry="3.2"/>
</g>
<!-- brandkraan_prive&#45;&gt;gebied -->
<g id="edge10" class="edge">
<title>brandkraan_prive:w&#45;&gt;gebied:e</title>
<path fill="none" stroke="#000000" d="M253.1397,-324.3368C204.8182,-336.9643 247.8086,-419.6945 205,-468.7 183.3624,-493.4698 174.3896,-506.7 141.5,-506.7"/>
<polygon fill="#000000" stroke="#000000" points="259.5515,-323.606 267.9077,-326.2768 263.5257,-323.153 267.5,-322.7 267.5,-322.7 267.5,-322.7 263.5257,-323.153 267.0923,-319.1232 259.5515,-323.606 259.5515,-323.606"/>
<ellipse fill="none" stroke="#000000" cx="256.3721" cy="-323.9684" rx="3.2" ry="3.2"/>
</g>
<!-- brandkraan_prive&#45;&gt;conditie -->
<g id="edge11" class="edge">
<title>brandkraan_prive:w&#45;&gt;conditie:e</title>
<path fill="none" stroke="#000000" d="M253.2679,-303.4546C213.539,-321.4655 252.4561,-421.7 195.5,-421.7"/>
<polygon fill="#000000" stroke="#000000" points="259.6458,-302.2202 268.1841,-304.2344 263.5729,-301.4601 267.5,-300.7 267.5,-300.7 267.5,-300.7 263.5729,-301.4601 266.8159,-297.1656 259.6458,-302.2202 259.6458,-302.2202"/>
<ellipse fill="none" stroke="#000000" cx="256.5041" cy="-302.8283" rx="3.2" ry="3.2"/>
</g>
<!-- brandkraan_prive&#45;&gt;roi.symbool -->
<g id="edge12" class="edge">
<title>brandkraan_prive:w&#45;&gt;roi.symbool:e</title>
<path fill="none" stroke="#000000" d="M252.8913,-346.1329C159.2993,-366.1295 270.2865,-588.7 156.5,-588.7"/>
<polygon fill="#000000" stroke="#000000" points="259.5382,-345.481 267.8514,-348.2828 263.5191,-345.0905 267.5,-344.7 267.5,-344.7 267.5,-344.7 263.5191,-345.0905 267.1486,-341.1172 259.5382,-345.481 259.5382,-345.481"/>
<ellipse fill="none" stroke="#000000" cx="256.3535" cy="-345.7934" rx="3.2" ry="3.2"/>
</g>
<!-- brandput -->
<g id="node8" class="node">
<title>brandput</title>
<g id="a_node8"><a xlink:href="../../tables/brandput.html" xlink:title="brandput" target="_top">
<polygon fill="#ffffff" stroke="transparent" points="276,-38.2 276,-231.2 457,-231.2 457,-38.2 276,-38.2"/>
<polygon fill="#f5f5f5" stroke="transparent" points="276.5,-207.7 276.5,-230.7 457.5,-230.7 457.5,-207.7 276.5,-207.7"/>
<polygon fill="none" stroke="#000000" points="276.5,-207.7 276.5,-230.7 457.5,-230.7 457.5,-207.7 276.5,-207.7"/>
<text text-anchor="start" x="281.5" y="-216.3" font-family="Helvetica,sans-Serif" font-weight="bold" font-size="11.00" fill="#000000">brandput</text>
<text text-anchor="start" x="422.5437" y="-215.8" font-family="Helvetica,sans-Serif" font-size="11.00" fill="#000000">[table]</text>
<polygon fill="none" stroke="#000000" points="276.5,-185.7 276.5,-207.7 457.5,-207.7 457.5,-185.7 276.5,-185.7"/>
<image xlink:href="../../images/primaryKeys.png" width="11px" height="12px" preserveAspectRatio="xMinYMin meet" x="281.5" y="-202.7"/>
<text text-anchor="start" x="296.5" y="-192.8" font-family="Helvetica,sans-Serif" font-size="11.00" fill="#000000">uuid</text>
<polygon fill="#ffffff" stroke="transparent" points="276.5,-163.7 276.5,-185.7 457.5,-185.7 457.5,-163.7 276.5,-163.7"/>
<polygon fill="none" stroke="#000000" points="276.5,-163.7 276.5,-185.7 457.5,-185.7 457.5,-163.7 276.5,-163.7"/>
<text text-anchor="start" x="296.5" y="-170.8" font-family="Helvetica,sans-Serif" font-size="11.00" fill="#000000">geom</text>
<polygon fill="none" stroke="#000000" points="276.5,-141.7 276.5,-163.7 457.5,-163.7 457.5,-141.7 276.5,-141.7"/>
<image xlink:href="../../images/foreignKeys.png" width="11px" height="12px" preserveAspectRatio="xMinYMin meet" x="281.5" y="-158.7"/>
<text text-anchor="start" x="296.5" y="-148.8" font-family="Helvetica,sans-Serif" font-size="11.00" fill="#000000">fase_id</text>
<polygon fill="none" stroke="#000000" points="276.5,-119.7 276.5,-141.7 457.5,-141.7 457.5,-119.7 276.5,-119.7"/>
<image xlink:href="../../images/foreignKeys.png" width="11px" height="12px" preserveAspectRatio="xMinYMin meet" x="281.5" y="-136.7"/>
<text text-anchor="start" x="296.5" y="-126.8" font-family="Helvetica,sans-Serif" font-size="11.00" fill="#000000">symbool_id</text>
<polygon fill="none" stroke="#000000" points="276.5,-97.7 276.5,-119.7 457.5,-119.7 457.5,-97.7 276.5,-97.7"/>
<image xlink:href="../../images/foreignKeys.png" width="11px" height="12px" preserveAspectRatio="xMinYMin meet" x="281.5" y="-114.7"/>
<text text-anchor="start" x="296.5" y="-104.8" font-family="Helvetica,sans-Serif" font-size="11.00" fill="#000000">gebied_id</text>
<polygon fill="none" stroke="#000000" points="276.5,-75.7 276.5,-97.7 457.5,-97.7 457.5,-75.7 276.5,-75.7"/>
<image xlink:href="../../images/foreignKeys.png" width="11px" height="12px" preserveAspectRatio="xMinYMin meet" x="281.5" y="-92.7"/>
<text text-anchor="start" x="296.5" y="-82.8" font-family="Helvetica,sans-Serif" font-size="11.00" fill="#000000">inspectie_conditie_id</text>
<polygon fill="none" stroke="#000000" points="276.5,-56.7 276.5,-75.7 457.5,-75.7 457.5,-56.7 276.5,-56.7"/>
<text text-anchor="start" x="279.5" y="-62.8" font-family="Helvetica,sans-Serif" font-size="11.00" fill="#000000">...</text>
<polygon fill="#ffffff" stroke="transparent" points="276.5,-37.7 276.5,-56.7 365.5,-56.7 365.5,-37.7 276.5,-37.7"/>
<polygon fill="none" stroke="#000000" points="276.5,-37.7 276.5,-56.7 365.5,-56.7 365.5,-37.7 276.5,-37.7"/>
<text text-anchor="start" x="279.5" y="-43.8" font-family="Helvetica,sans-Serif" font-size="11.00" fill="#000000">&lt; 4</text>
<polygon fill="#ffffff" stroke="transparent" points="365.5,-37.7 365.5,-56.7 411.5,-56.7 411.5,-37.7 365.5,-37.7"/>
<polygon fill="none" stroke="#000000" points="365.5,-37.7 365.5,-56.7 411.5,-56.7 411.5,-37.7 365.5,-37.7"/>
<text text-anchor="start" x="402.3862" y="-43.8" font-family="Helvetica,sans-Serif" font-size="11.00" fill="#000000"> &#160;</text>
<polygon fill="#ffffff" stroke="transparent" points="411.5,-37.7 411.5,-56.7 457.5,-56.7 457.5,-37.7 411.5,-37.7"/>
<polygon fill="none" stroke="#000000" points="411.5,-37.7 411.5,-56.7 457.5,-56.7 457.5,-37.7 411.5,-37.7"/>
<text text-anchor="start" x="448.3862" y="-43.8" font-family="Helvetica,sans-Serif" font-size="11.00" fill="#000000"> &#160;</text>
</a>
</g>
</g>
<!-- brandput&#45;&gt;roi.fase -->
<g id="edge13" class="edge">
<title>brandput:w&#45;&gt;roi.fase:e</title>
<path fill="none" stroke="#000000" d="M262.2117,-155.0746C236.9622,-165.1427 247.1102,-205.4533 238,-241.7 216.7449,-326.2676 250.634,-558.3966 205,-632.7 188.1851,-660.0789 175.6301,-670.7 143.5,-670.7"/>
<polygon fill="#000000" stroke="#000000" points="268.6082,-154.0116 277.0902,-156.2513 272.5541,-153.3558 276.5,-152.7 276.5,-152.7 276.5,-152.7 272.5541,-153.3558 275.9098,-149.1487 268.6082,-154.0116 268.6082,-154.0116"/>
<ellipse fill="none" stroke="#000000" cx="265.4515" cy="-154.5362" rx="3.2" ry="3.2"/>
</g>
<!-- brandput&#45;&gt;gebied -->
<g id="edge14" class="edge">
<title>brandput:w&#45;&gt;gebied:e</title>
<path fill="none" stroke="#000000" d="M262.1704,-110.4022C221.0439,-121.6883 249.8436,-186.9574 238,-241.7 216.4419,-341.344 261.5468,-383.87 205,-468.7 186.7576,-496.0668 174.3896,-506.7 141.5,-506.7"/>
<polygon fill="#000000" stroke="#000000" points="268.5558,-109.6437 276.9247,-112.2749 272.5279,-109.1719 276.5,-108.7 276.5,-108.7 276.5,-108.7 272.5279,-109.1719 276.0753,-105.1251 268.5558,-109.6437 268.5558,-109.6437"/>
<ellipse fill="none" stroke="#000000" cx="265.3782" cy="-110.0212" rx="3.2" ry="3.2"/>
</g>
<!-- brandput&#45;&gt;conditie -->
<g id="edge15" class="edge">
<title>brandput:w&#45;&gt;conditie:e</title>
<path fill="none" stroke="#000000" d="M262.7837,-91.1823C209.0834,-130.9353 266.854,-421.7 195.5,-421.7"/>
<polygon fill="#000000" stroke="#000000" points="268.8957,-89.185 277.6183,-90.1219 272.6979,-87.9425 276.5,-86.7 276.5,-86.7 276.5,-86.7 272.6979,-87.9425 275.3817,-83.2781 268.8957,-89.185 268.8957,-89.185"/>
<ellipse fill="none" stroke="#000000" cx="265.854" cy="-90.179" rx="3.2" ry="3.2"/>
</g>
<!-- brandput&#45;&gt;roi.symbool -->
<g id="edge16" class="edge">
<title>brandput:w&#45;&gt;roi.symbool:e</title>
<path fill="none" stroke="#000000" d="M261.9929,-132.7644C229.3412,-143.7258 248.1547,-196.3168 238,-241.7 207.8421,-376.4815 271.977,-429.9124 205,-550.7 191.7205,-574.6485 183.8839,-588.7 156.5,-588.7"/>
<polygon fill="#000000" stroke="#000000" points="268.5798,-131.8271 277.0072,-134.2641 272.5399,-131.2636 276.5,-130.7 276.5,-130.7 276.5,-130.7 272.5399,-131.2636 275.9928,-127.1359 268.5798,-131.8271 268.5798,-131.8271"/>
<ellipse fill="none" stroke="#000000" cx="265.4117" cy="-132.278" rx="3.2" ry="3.2"/>
</g>
<!-- openwater -->
<g id="node9" class="node">
<title>openwater</title>
<g id="a_node9"><a xlink:href="../../tables/openwater.html" xlink:title="openwater" target="_top">
<polygon fill="#ffffff" stroke="transparent" points="246,-916.2 246,-1109.2 487,-1109.2 487,-916.2 246,-916.2"/>
<polygon fill="#f5f5f5" stroke="transparent" points="246.5,-1085.7 246.5,-1108.7 487.5,-1108.7 487.5,-1085.7 246.5,-1085.7"/>
<polygon fill="none" stroke="#000000" points="246.5,-1085.7 246.5,-1108.7 487.5,-1108.7 487.5,-1085.7 246.5,-1085.7"/>
<text text-anchor="start" x="251.5" y="-1094.3" font-family="Helvetica,sans-Serif" font-weight="bold" font-size="11.00" fill="#000000">openwater</text>
<text text-anchor="start" x="452.5437" y="-1093.8" font-family="Helvetica,sans-Serif" font-size="11.00" fill="#000000">[table]</text>
<polygon fill="none" stroke="#000000" points="246.5,-1063.7 246.5,-1085.7 487.5,-1085.7 487.5,-1063.7 246.5,-1063.7"/>
<image xlink:href="../../images/primaryKeys.png" width="11px" height="12px" preserveAspectRatio="xMinYMin meet" x="251.5" y="-1080.7"/>
<text text-anchor="start" x="266.5" y="-1070.8" font-family="Helvetica,sans-Serif" font-size="11.00" fill="#000000">uuid</text>
<polygon fill="#ffffff" stroke="transparent" points="246.5,-1041.7 246.5,-1063.7 487.5,-1063.7 487.5,-1041.7 246.5,-1041.7"/>
<polygon fill="none" stroke="#000000" points="246.5,-1041.7 246.5,-1063.7 487.5,-1063.7 487.5,-1041.7 246.5,-1041.7"/>
<text text-anchor="start" x="266.5" y="-1048.8" font-family="Helvetica,sans-Serif" font-size="11.00" fill="#000000">geom</text>
<polygon fill="none" stroke="#000000" points="246.5,-1019.7 246.5,-1041.7 487.5,-1041.7 487.5,-1019.7 246.5,-1019.7"/>
<image xlink:href="../../images/foreignKeys.png" width="11px" height="12px" preserveAspectRatio="xMinYMin meet" x="251.5" y="-1036.7"/>
<text text-anchor="start" x="266.5" y="-1026.8" font-family="Helvetica,sans-Serif" font-size="11.00" fill="#000000">fase_id</text>
<polygon fill="none" stroke="#000000" points="246.5,-997.7 246.5,-1019.7 487.5,-1019.7 487.5,-997.7 246.5,-997.7"/>
<image xlink:href="../../images/foreignKeys.png" width="11px" height="12px" preserveAspectRatio="xMinYMin meet" x="251.5" y="-1014.7"/>
<text text-anchor="start" x="266.5" y="-1004.8" font-family="Helvetica,sans-Serif" font-size="11.00" fill="#000000">symbool_id</text>
<polygon fill="none" stroke="#000000" points="246.5,-975.7 246.5,-997.7 487.5,-997.7 487.5,-975.7 246.5,-975.7"/>
<image xlink:href="../../images/foreignKeys.png" width="11px" height="12px" preserveAspectRatio="xMinYMin meet" x="251.5" y="-992.7"/>
<text text-anchor="start" x="266.5" y="-982.8" font-family="Helvetica,sans-Serif" font-size="11.00" fill="#000000">gebied_id</text>
<polygon fill="none" stroke="#000000" points="246.5,-953.7 246.5,-975.7 487.5,-975.7 487.5,-953.7 246.5,-953.7"/>
<image xlink:href="../../images/foreignKeys.png" width="11px" height="12px" preserveAspectRatio="xMinYMin meet" x="251.5" y="-970.7"/>
<text text-anchor="start" x="266.5" y="-960.8" font-family="Helvetica,sans-Serif" font-size="11.00" fill="#000000">inspectie_conditie_id</text>
<polygon fill="none" stroke="#000000" points="246.5,-934.7 246.5,-953.7 487.5,-953.7 487.5,-934.7 246.5,-934.7"/>
<text text-anchor="start" x="249.5" y="-940.8" font-family="Helvetica,sans-Serif" font-size="11.00" fill="#000000">...</text>
<polygon fill="#ffffff" stroke="transparent" points="246.5,-915.7 246.5,-934.7 365.5,-934.7 365.5,-915.7 246.5,-915.7"/>
<polygon fill="none" stroke="#000000" points="246.5,-915.7 246.5,-934.7 365.5,-934.7 365.5,-915.7 246.5,-915.7"/>
<text text-anchor="start" x="249.5" y="-921.8" font-family="Helvetica,sans-Serif" font-size="11.00" fill="#000000">&lt; 4</text>
<polygon fill="#ffffff" stroke="transparent" points="365.5,-915.7 365.5,-934.7 426.5,-934.7 426.5,-915.7 365.5,-915.7"/>
<polygon fill="none" stroke="#000000" points="365.5,-915.7 365.5,-934.7 426.5,-934.7 426.5,-915.7 365.5,-915.7"/>
<text text-anchor="start" x="417.3862" y="-921.8" font-family="Helvetica,sans-Serif" font-size="11.00" fill="#000000"> &#160;</text>
<polygon fill="#ffffff" stroke="transparent" points="426.5,-915.7 426.5,-934.7 487.5,-934.7 487.5,-915.7 426.5,-915.7"/>
<polygon fill="none" stroke="#000000" points="426.5,-915.7 426.5,-934.7 487.5,-934.7 487.5,-915.7 426.5,-915.7"/>
<text text-anchor="start" x="478.3862" y="-921.8" font-family="Helvetica,sans-Serif" font-size="11.00" fill="#000000"> &#160;</text>
</a>
</g>
</g>
<!-- openwater&#45;&gt;roi.fase -->
<g id="edge17" class="edge">
<title>openwater:w&#45;&gt;roi.fase:e</title>
<path fill="none" stroke="#000000" d="M232.0349,-1029.6673C94.0581,-1008.5516 304.7193,-670.7 143.5,-670.7"/>
<polygon fill="#000000" stroke="#000000" points="238.5203,-1030.1303 246.2436,-1034.2909 242.5102,-1030.4151 246.5,-1030.7 246.5,-1030.7 246.5,-1030.7 242.5102,-1030.4151 246.7564,-1027.1091 238.5203,-1030.1303 238.5203,-1030.1303"/>
<ellipse fill="none" stroke="#000000" cx="235.3284" cy="-1029.9024" rx="3.2" ry="3.2"/>
</g>
<!-- openwater&#45;&gt;gebied -->
<g id="edge18" class="edge">
<title>openwater:w&#45;&gt;gebied:e</title>
<path fill="none" stroke="#000000" d="M232.5794,-982.3117C220.8012,-970.148 240.8959,-934.9677 238,-905.7 230.1988,-826.856 244.9686,-619.1087 205,-550.7 187.6789,-521.0539 175.8353,-506.7 141.5,-506.7"/>
<polygon fill="#000000" stroke="#000000" points="238.8701,-984.2947 245.4176,-990.1334 242.6851,-985.4974 246.5,-986.7 246.5,-986.7 246.5,-986.7 242.6851,-985.4974 247.5824,-983.2666 238.8701,-984.2947 238.8701,-984.2947"/>
<ellipse fill="none" stroke="#000000" cx="235.8182" cy="-983.3326" rx="3.2" ry="3.2"/>
</g>
<!-- openwater&#45;&gt;conditie -->
<g id="edge19" class="edge">
<title>openwater:w&#45;&gt;conditie:e</title>
<path fill="none" stroke="#000000" d="M234.8133,-955.7283C195.8364,-885.1279 251.4829,-421.7 195.5,-421.7"/>
<polygon fill="#000000" stroke="#000000" points="240.1543,-959.8284 244.3078,-967.5556 243.3271,-962.2642 246.5,-964.7 246.5,-964.7 246.5,-964.7 243.3271,-962.2642 248.6922,-961.8444 240.1543,-959.8284 240.1543,-959.8284"/>
<ellipse fill="none" stroke="#000000" cx="237.616" cy="-957.8798" rx="3.2" ry="3.2"/>
</g>
<!-- openwater&#45;&gt;roi.symbool -->
<g id="edge20" class="edge">
<title>openwater:w&#45;&gt;roi.symbool:e</title>
<path fill="none" stroke="#000000" d="M232.224,-1005.0884C172.3559,-970.8227 240.7551,-702.747 205,-632.7 191.768,-606.7775 185.6043,-588.7 156.5,-588.7"/>
<polygon fill="#000000" stroke="#000000" points="238.7443,-1006.7379 245.617,-1012.19 242.6222,-1007.7189 246.5,-1008.7 246.5,-1008.7 246.5,-1008.7 242.6222,-1007.7189 247.383,-1005.21 238.7443,-1006.7379 238.7443,-1006.7379"/>
<ellipse fill="none" stroke="#000000" cx="235.6421" cy="-1005.953" rx="3.2" ry="3.2"/>
</g>
</g>
</svg>
