<?xml version="1.0" encoding="UTF-8" standalone="no"?>
<!DOCTYPE svg PUBLIC "-//W3C//DTD SVG 1.1//EN"
 "http://www.w3.org/Graphics/SVG/1.1/DTD/svg11.dtd">
<!-- Generated by graphviz version 2.50.0 (0)
 -->
<!-- Title: oneDegreeRelationshipsDiagram Pages: 1 -->
<svg width="532pt" height="1105pt"
 viewBox="0.00 0.00 532.00 1105.00" xmlns="http://www.w3.org/2000/svg" xmlns:xlink="http://www.w3.org/1999/xlink">
<g id="graph0" class="graph" transform="scale(1 1) rotate(0) translate(4 1101)">
<title>oneDegreeRelationshipsDiagram</title>
<polygon fill="#ffffff" stroke="transparent" points="-4,4 -4,-1101 528,-1101 528,4 -4,4"/>
<text text-anchor="middle" x="79.5" y="-7.2" font-family="Helvetica,sans-Serif" font-size="11.00">Generated by SchemaSpy</text>
<!-- bluswaterriool -->
<g id="node1" class="node">
<title>bluswaterriool</title>
<g id="a_node1"><a xlink:href="../../tables/bluswaterriool.html" xlink:title="bluswaterriool" target="_top">
<polygon fill="#ffffff" stroke="transparent" points="304.5,-903 304.5,-1093 476.5,-1093 476.5,-903 304.5,-903"/>
<polygon fill="#f5f5f5" stroke="transparent" points="304.5,-1071 304.5,-1093 476.5,-1093 476.5,-1071 304.5,-1071"/>
<polygon fill="none" stroke="black" points="304.5,-1071 304.5,-1093 476.5,-1093 476.5,-1071 304.5,-1071"/>
<text text-anchor="start" x="309.5" y="-1080.2" font-family="Helvetica,sans-Serif" font-weight="bold" font-size="11.00">bluswaterriool</text>
<text text-anchor="start" x="434.5" y="-1079.2" font-family="Helvetica,sans-Serif" font-size="11.00">[table]</text>
<polygon fill="none" stroke="black" points="304.5,-1049 304.5,-1071 476.5,-1071 476.5,-1049 304.5,-1049"/>
<image xlink:href="../../images/primaryKeys.png" width="11px" height="12px" preserveAspectRatio="xMinYMin meet" x="309.5" y="-1066"/>
<text text-anchor="start" x="324.5" y="-1057.2" font-family="Helvetica,sans-Serif" font-size="11.00">uuid</text>
<polygon fill="#ffffff" stroke="transparent" points="304.5,-1027 304.5,-1049 476.5,-1049 476.5,-1027 304.5,-1027"/>
<polygon fill="none" stroke="black" points="304.5,-1027 304.5,-1049 476.5,-1049 476.5,-1027 304.5,-1027"/>
<text text-anchor="start" x="324.5" y="-1035.2" font-family="Helvetica,sans-Serif" font-size="11.00">geom</text>
<polygon fill="none" stroke="black" points="304.5,-1005 304.5,-1027 476.5,-1027 476.5,-1005 304.5,-1005"/>
<image xlink:href="../../images/foreignKeys.png" width="11px" height="12px" preserveAspectRatio="xMinYMin meet" x="309.5" y="-1022"/>
<text text-anchor="start" x="324.5" y="-1013.2" font-family="Helvetica,sans-Serif" font-size="11.00">fase_id</text>
<polygon fill="none" stroke="black" points="304.5,-983 304.5,-1005 476.5,-1005 476.5,-983 304.5,-983"/>
<image xlink:href="../../images/foreignKeys.png" width="11px" height="12px" preserveAspectRatio="xMinYMin meet" x="309.5" y="-1000"/>
<text text-anchor="start" x="324.5" y="-991.2" font-family="Helvetica,sans-Serif" font-size="11.00">symbool_id</text>
<polygon fill="none" stroke="black" points="304.5,-961 304.5,-983 476.5,-983 476.5,-961 304.5,-961"/>
<image xlink:href="../../images/foreignKeys.png" width="11px" height="12px" preserveAspectRatio="xMinYMin meet" x="309.5" y="-978"/>
<text text-anchor="start" x="324.5" y="-969.2" font-family="Helvetica,sans-Serif" font-size="11.00">gebied_id</text>
<polygon fill="none" stroke="black" points="304.5,-939 304.5,-961 476.5,-961 476.5,-939 304.5,-939"/>
<image xlink:href="../../images/foreignKeys.png" width="11px" height="12px" preserveAspectRatio="xMinYMin meet" x="309.5" y="-956"/>
<text text-anchor="start" x="324.5" y="-947.2" font-family="Helvetica,sans-Serif" font-size="11.00">inspectie_conditie_id</text>
<polygon fill="none" stroke="black" points="304.5,-921 304.5,-939 476.5,-939 476.5,-921 304.5,-921"/>
<text text-anchor="start" x="307.5" y="-927.2" font-family="Helvetica,sans-Serif" font-size="11.00">...</text>
<polygon fill="#ffffff" stroke="transparent" points="304.5,-903 304.5,-921 389.5,-921 389.5,-903 304.5,-903"/>
<polygon fill="none" stroke="black" points="304.5,-903 304.5,-921 389.5,-921 389.5,-903 304.5,-903"/>
<text text-anchor="start" x="307.5" y="-909.2" font-family="Helvetica,sans-Serif" font-size="11.00">&lt; 4</text>
<polygon fill="#ffffff" stroke="transparent" points="389.5,-903 389.5,-921 432.5,-921 432.5,-903 389.5,-903"/>
<polygon fill="none" stroke="black" points="389.5,-903 389.5,-921 432.5,-921 432.5,-903 389.5,-903"/>
<text text-anchor="start" x="421.5" y="-909.2" font-family="Helvetica,sans-Serif" font-size="11.00"> &#160;</text>
<polygon fill="#ffffff" stroke="transparent" points="432.5,-903 432.5,-921 476.5,-921 476.5,-903 432.5,-903"/>
<polygon fill="none" stroke="black" points="432.5,-903 432.5,-921 476.5,-921 476.5,-903 432.5,-903"/>
<text text-anchor="start" x="465.5" y="-909.2" font-family="Helvetica,sans-Serif" font-size="11.00"> &#160;</text>
</a>
</g>
</g>
<!-- conditie -->
<g id="node2" class="node">
<title>conditie</title>
<g id="a_node2"><a xlink:href="../../tables/conditie.html" xlink:title="conditie" target="_top">
<polygon fill="#ffffff" stroke="transparent" points="8,-431 8,-541 216,-541 216,-431 8,-431"/>
<polygon fill="#f5f5f5" stroke="transparent" points="10,-517 10,-539 214,-539 214,-517 10,-517"/>
<polygon fill="none" stroke="black" points="10,-517 10,-539 214,-539 214,-517 10,-517"/>
<text text-anchor="start" x="15" y="-526.2" font-family="Helvetica,sans-Serif" font-weight="bold" font-size="11.00">conditie</text>
<text text-anchor="start" x="172" y="-525.2" font-family="Helvetica,sans-Serif" font-size="11.00">[table]</text>
<polygon fill="none" stroke="black" points="10,-495 10,-517 108,-517 108,-495 10,-495"/>
<image xlink:href="../../images/primaryKeys.png" width="11px" height="12px" preserveAspectRatio="xMinYMin meet" x="15" y="-512"/>
<text text-anchor="start" x="30" y="-503.2" font-family="Helvetica,sans-Serif" font-size="11.00">id</text>
<polygon fill="none" stroke="black" points="108,-495 108,-517 214,-517 214,-495 108,-495"/>
<text text-anchor="start" x="111" y="-503.2" font-family="Helvetica,sans-Serif" font-size="11.00">int2[5]</text>
<polygon fill="none" stroke="black" points="10,-473 10,-495 108,-495 108,-473 10,-473"/>
<text text-anchor="start" x="30" y="-481.2" font-family="Helvetica,sans-Serif" font-size="11.00">naam</text>
<polygon fill="none" stroke="black" points="108,-473 108,-495 214,-495 214,-473 108,-473"/>
<text text-anchor="start" x="111" y="-481.2" font-family="Helvetica,sans-Serif" font-size="11.00">text[2147483647]</text>
<polygon fill="none" stroke="black" points="10,-451 10,-473 108,-473 108,-451 10,-451"/>
<text text-anchor="start" x="30" y="-459.2" font-family="Helvetica,sans-Serif" font-size="11.00">omschrijving</text>
<polygon fill="none" stroke="black" points="108,-451 108,-473 214,-473 214,-451 108,-451"/>
<text text-anchor="start" x="111" y="-459.2" font-family="Helvetica,sans-Serif" font-size="11.00">text[2147483647]</text>
<polygon fill="#ffffff" stroke="transparent" points="10,-433 10,-451 65,-451 65,-433 10,-433"/>
<polygon fill="none" stroke="black" points="10,-433 10,-451 65,-451 65,-433 10,-433"/>
<text text-anchor="start" x="13" y="-439.2" font-family="Helvetica,sans-Serif" font-size="11.00">&lt; 0</text>
<polygon fill="#ffffff" stroke="transparent" points="65,-433 65,-451 108,-451 108,-433 65,-433"/>
<polygon fill="none" stroke="black" points="65,-433 65,-451 108,-451 108,-433 65,-433"/>
<text text-anchor="start" x="97" y="-439.2" font-family="Helvetica,sans-Serif" font-size="11.00"> &#160;</text>
<polygon fill="#ffffff" stroke="transparent" points="108,-433 108,-451 214,-451 214,-433 108,-433"/>
<polygon fill="none" stroke="black" points="108,-433 108,-451 214,-451 214,-433 108,-433"/>
<text text-anchor="start" x="191" y="-439.2" font-family="Helvetica,sans-Serif" font-size="11.00">5 &gt;</text>
<polygon fill="none" stroke="black" stroke-width="2" points="9,-432 9,-540 215,-540 215,-432 9,-432"/>
</a>
</g>
</g>
<!-- bluswaterriool&#45;&gt;conditie -->
<g id="edge1" class="edge">
<title>bluswaterriool:w&#45;&gt;conditie:e</title>
<path fill="none" stroke="black" d="M289.22,-947.74C270.06,-940.68 267.45,-917.98 257,-893 240.31,-853.1 258.25,-506 215,-506"/>
<polygon fill="black" stroke="black" points="295.6,-948.75 302.94,-953.56 299.55,-949.38 303.5,-950 303.5,-950 303.5,-950 299.55,-949.38 304.06,-946.44 295.6,-948.75 295.6,-948.75"/>
<ellipse fill="none" stroke="black" cx="292.44" cy="-948.25" rx="3.2" ry="3.2"/>
</g>
<!-- brandkraan -->
<g id="node3" class="node">
<title>brandkraan</title>
<g id="a_node3"><a xlink:href="../../tables/brandkraan.html" xlink:title="brandkraan" target="_top">
<polygon fill="#ffffff" stroke="transparent" points="288,-670 288,-882 493,-882 493,-670 288,-670"/>
<polygon fill="#f5f5f5" stroke="transparent" points="288.5,-860 288.5,-882 493.5,-882 493.5,-860 288.5,-860"/>
<polygon fill="none" stroke="black" points="288.5,-860 288.5,-882 493.5,-882 493.5,-860 288.5,-860"/>
<text text-anchor="start" x="293.5" y="-869.2" font-family="Helvetica,sans-Serif" font-weight="bold" font-size="11.00">brandkraan</text>
<text text-anchor="start" x="451.5" y="-868.2" font-family="Helvetica,sans-Serif" font-size="11.00">[table]</text>
<polygon fill="none" stroke="black" points="288.5,-838 288.5,-860 493.5,-860 493.5,-838 288.5,-838"/>
<image xlink:href="../../images/primaryKeys.png" width="11px" height="12px" preserveAspectRatio="xMinYMin meet" x="293.5" y="-855"/>
<text text-anchor="start" x="308.5" y="-846.2" font-family="Helvetica,sans-Serif" font-size="11.00">uuid</text>
<polygon fill="#ffffff" stroke="transparent" points="288.5,-816 288.5,-838 493.5,-838 493.5,-816 288.5,-816"/>
<polygon fill="none" stroke="black" points="288.5,-816 288.5,-838 493.5,-838 493.5,-816 288.5,-816"/>
<text text-anchor="start" x="308.5" y="-824.2" font-family="Helvetica,sans-Serif" font-size="11.00">geom</text>
<polygon fill="#ffffff" stroke="transparent" points="288.5,-794 288.5,-816 493.5,-816 493.5,-794 288.5,-794"/>
<polygon fill="none" stroke="black" points="288.5,-794 288.5,-816 493.5,-816 493.5,-794 288.5,-794"/>
<text text-anchor="start" x="308.5" y="-802.2" font-family="Helvetica,sans-Serif" font-size="11.00">nen3610id</text>
<polygon fill="none" stroke="black" points="288.5,-772 288.5,-794 493.5,-794 493.5,-772 288.5,-772"/>
<image xlink:href="../../images/foreignKeys.png" width="11px" height="12px" preserveAspectRatio="xMinYMin meet" x="293.5" y="-789"/>
<text text-anchor="start" x="308.5" y="-780.2" font-family="Helvetica,sans-Serif" font-size="11.00">fase_id</text>
<polygon fill="none" stroke="black" points="288.5,-750 288.5,-772 493.5,-772 493.5,-750 288.5,-750"/>
<image xlink:href="../../images/foreignKeys.png" width="11px" height="12px" preserveAspectRatio="xMinYMin meet" x="293.5" y="-767"/>
<text text-anchor="start" x="308.5" y="-758.2" font-family="Helvetica,sans-Serif" font-size="11.00">symbool_id</text>
<polygon fill="none" stroke="black" points="288.5,-728 288.5,-750 493.5,-750 493.5,-728 288.5,-728"/>
<image xlink:href="../../images/foreignKeys.png" width="11px" height="12px" preserveAspectRatio="xMinYMin meet" x="293.5" y="-745"/>
<text text-anchor="start" x="308.5" y="-736.2" font-family="Helvetica,sans-Serif" font-size="11.00">gebied_id</text>
<polygon fill="none" stroke="black" points="288.5,-706 288.5,-728 493.5,-728 493.5,-706 288.5,-706"/>
<image xlink:href="../../images/foreignKeys.png" width="11px" height="12px" preserveAspectRatio="xMinYMin meet" x="293.5" y="-723"/>
<text text-anchor="start" x="308.5" y="-714.2" font-family="Helvetica,sans-Serif" font-size="11.00">inspectie_conditie_id</text>
<polygon fill="none" stroke="black" points="288.5,-688 288.5,-706 493.5,-706 493.5,-688 288.5,-688"/>
<text text-anchor="start" x="291.5" y="-694.2" font-family="Helvetica,sans-Serif" font-size="11.00">...</text>
<polygon fill="#ffffff" stroke="transparent" points="288.5,-670 288.5,-688 389.5,-688 389.5,-670 288.5,-670"/>
<polygon fill="none" stroke="black" points="288.5,-670 288.5,-688 389.5,-688 389.5,-670 288.5,-670"/>
<text text-anchor="start" x="291.5" y="-676.2" font-family="Helvetica,sans-Serif" font-size="11.00">&lt; 4</text>
<polygon fill="#ffffff" stroke="transparent" points="389.5,-670 389.5,-688 441.5,-688 441.5,-670 389.5,-670"/>
<polygon fill="none" stroke="black" points="389.5,-670 389.5,-688 441.5,-688 441.5,-670 389.5,-670"/>
<text text-anchor="start" x="430.5" y="-676.2" font-family="Helvetica,sans-Serif" font-size="11.00"> &#160;</text>
<polygon fill="#ffffff" stroke="transparent" points="441.5,-670 441.5,-688 493.5,-688 493.5,-670 441.5,-670"/>
<polygon fill="none" stroke="black" points="441.5,-670 441.5,-688 493.5,-688 493.5,-670 441.5,-670"/>
<text text-anchor="start" x="482.5" y="-676.2" font-family="Helvetica,sans-Serif" font-size="11.00"> &#160;</text>
</a>
</g>
</g>
<!-- brandkraan&#45;&gt;conditie -->
<g id="edge2" class="edge">
<title>brandkraan:w&#45;&gt;conditie:e</title>
<path fill="none" stroke="black" d="M273.18,-715.18C201.43,-694.55 308.74,-506 215,-506"/>
<polygon fill="black" stroke="black" points="279.56,-715.99 287.05,-720.57 283.53,-716.49 287.5,-717 287.5,-717 287.5,-717 283.53,-716.49 287.95,-713.43 279.56,-715.99 279.56,-715.99"/>
<ellipse fill="none" stroke="black" cx="276.39" cy="-715.59" rx="3.2" ry="3.2"/>
</g>
<!-- brandkraan_prive -->
<g id="node4" class="node">
<title>brandkraan_prive</title>
<g id="a_node4"><a xlink:href="../../tables/brandkraan_prive.html" xlink:title="brandkraan_prive" target="_top">
<polygon fill="#ffffff" stroke="transparent" points="288,-459 288,-649 493,-649 493,-459 288,-459"/>
<polygon fill="#f5f5f5" stroke="transparent" points="288.5,-627 288.5,-649 493.5,-649 493.5,-627 288.5,-627"/>
<polygon fill="none" stroke="black" points="288.5,-627 288.5,-649 493.5,-649 493.5,-627 288.5,-627"/>
<text text-anchor="start" x="293.5" y="-636.2" font-family="Helvetica,sans-Serif" font-weight="bold" font-size="11.00">brandkraan_prive</text>
<text text-anchor="start" x="451.5" y="-635.2" font-family="Helvetica,sans-Serif" font-size="11.00">[table]</text>
<polygon fill="none" stroke="black" points="288.5,-605 288.5,-627 493.5,-627 493.5,-605 288.5,-605"/>
<image xlink:href="../../images/primaryKeys.png" width="11px" height="12px" preserveAspectRatio="xMinYMin meet" x="293.5" y="-622"/>
<text text-anchor="start" x="308.5" y="-613.2" font-family="Helvetica,sans-Serif" font-size="11.00">uuid</text>
<polygon fill="#ffffff" stroke="transparent" points="288.5,-583 288.5,-605 493.5,-605 493.5,-583 288.5,-583"/>
<polygon fill="none" stroke="black" points="288.5,-583 288.5,-605 493.5,-605 493.5,-583 288.5,-583"/>
<text text-anchor="start" x="308.5" y="-591.2" font-family="Helvetica,sans-Serif" font-size="11.00">geom</text>
<polygon fill="none" stroke="black" points="288.5,-561 288.5,-583 493.5,-583 493.5,-561 288.5,-561"/>
<image xlink:href="../../images/foreignKeys.png" width="11px" height="12px" preserveAspectRatio="xMinYMin meet" x="293.5" y="-578"/>
<text text-anchor="start" x="308.5" y="-569.2" font-family="Helvetica,sans-Serif" font-size="11.00">fase_id</text>
<polygon fill="none" stroke="black" points="288.5,-539 288.5,-561 493.5,-561 493.5,-539 288.5,-539"/>
<image xlink:href="../../images/foreignKeys.png" width="11px" height="12px" preserveAspectRatio="xMinYMin meet" x="293.5" y="-556"/>
<text text-anchor="start" x="308.5" y="-547.2" font-family="Helvetica,sans-Serif" font-size="11.00">symbool_id</text>
<polygon fill="none" stroke="black" points="288.5,-517 288.5,-539 493.5,-539 493.5,-517 288.5,-517"/>
<image xlink:href="../../images/foreignKeys.png" width="11px" height="12px" preserveAspectRatio="xMinYMin meet" x="293.5" y="-534"/>
<text text-anchor="start" x="308.5" y="-525.2" font-family="Helvetica,sans-Serif" font-size="11.00">gebied_id</text>
<polygon fill="none" stroke="black" points="288.5,-495 288.5,-517 493.5,-517 493.5,-495 288.5,-495"/>
<image xlink:href="../../images/foreignKeys.png" width="11px" height="12px" preserveAspectRatio="xMinYMin meet" x="293.5" y="-512"/>
<text text-anchor="start" x="308.5" y="-503.2" font-family="Helvetica,sans-Serif" font-size="11.00">inspectie_conditie_id</text>
<polygon fill="none" stroke="black" points="288.5,-477 288.5,-495 493.5,-495 493.5,-477 288.5,-477"/>
<text text-anchor="start" x="291.5" y="-483.2" font-family="Helvetica,sans-Serif" font-size="11.00">...</text>
<polygon fill="#ffffff" stroke="transparent" points="288.5,-459 288.5,-477 389.5,-477 389.5,-459 288.5,-459"/>
<polygon fill="none" stroke="black" points="288.5,-459 288.5,-477 389.5,-477 389.5,-459 288.5,-459"/>
<text text-anchor="start" x="291.5" y="-465.2" font-family="Helvetica,sans-Serif" font-size="11.00">&lt; 4</text>
<polygon fill="#ffffff" stroke="transparent" points="389.5,-459 389.5,-477 441.5,-477 441.5,-459 389.5,-459"/>
<polygon fill="none" stroke="black" points="389.5,-459 389.5,-477 441.5,-477 441.5,-459 389.5,-459"/>
<text text-anchor="start" x="430.5" y="-465.2" font-family="Helvetica,sans-Serif" font-size="11.00"> &#160;</text>
<polygon fill="#ffffff" stroke="transparent" points="441.5,-459 441.5,-477 493.5,-477 493.5,-459 441.5,-459"/>
<polygon fill="none" stroke="black" points="441.5,-459 441.5,-477 493.5,-477 493.5,-459 441.5,-459"/>
<text text-anchor="start" x="482.5" y="-465.2" font-family="Helvetica,sans-Serif" font-size="11.00"> &#160;</text>
</a>
</g>
</g>
<!-- brandkraan_prive&#45;&gt;conditie -->
<g id="edge3" class="edge">
<title>brandkraan_prive:w&#45;&gt;conditie:e</title>
<path fill="none" stroke="black" d="M273.08,-506C251.89,-506 241.81,-506 215,-506"/>
<polygon fill="black" stroke="black" points="279.5,-506 287.5,-509.6 283.5,-506 287.5,-506 287.5,-506 287.5,-506 283.5,-506 287.5,-502.4 279.5,-506 279.5,-506"/>
<ellipse fill="none" stroke="black" cx="276.3" cy="-506" rx="3.2" ry="3.2"/>
</g>
<!-- brandput -->
<g id="node5" class="node">
<title>brandput</title>
<g id="a_node5"><a xlink:href="../../tables/brandput.html" xlink:title="brandput" target="_top">
<polygon fill="#ffffff" stroke="transparent" points="296,-248 296,-438 485,-438 485,-248 296,-248"/>
<polygon fill="#f5f5f5" stroke="transparent" points="296.5,-416 296.5,-438 485.5,-438 485.5,-416 296.5,-416"/>
<polygon fill="none" stroke="black" points="296.5,-416 296.5,-438 485.5,-438 485.5,-416 296.5,-416"/>
<text text-anchor="start" x="301.5" y="-425.2" font-family="Helvetica,sans-Serif" font-weight="bold" font-size="11.00">brandput</text>
<text text-anchor="start" x="443.5" y="-424.2" font-family="Helvetica,sans-Serif" font-size="11.00">[table]</text>
<polygon fill="none" stroke="black" points="296.5,-394 296.5,-416 485.5,-416 485.5,-394 296.5,-394"/>
<image xlink:href="../../images/primaryKeys.png" width="11px" height="12px" preserveAspectRatio="xMinYMin meet" x="301.5" y="-411"/>
<text text-anchor="start" x="316.5" y="-402.2" font-family="Helvetica,sans-Serif" font-size="11.00">uuid</text>
<polygon fill="#ffffff" stroke="transparent" points="296.5,-372 296.5,-394 485.5,-394 485.5,-372 296.5,-372"/>
<polygon fill="none" stroke="black" points="296.5,-372 296.5,-394 485.5,-394 485.5,-372 296.5,-372"/>
<text text-anchor="start" x="316.5" y="-380.2" font-family="Helvetica,sans-Serif" font-size="11.00">geom</text>
<polygon fill="none" stroke="black" points="296.5,-350 296.5,-372 485.5,-372 485.5,-350 296.5,-350"/>
<image xlink:href="../../images/foreignKeys.png" width="11px" height="12px" preserveAspectRatio="xMinYMin meet" x="301.5" y="-367"/>
<text text-anchor="start" x="316.5" y="-358.2" font-family="Helvetica,sans-Serif" font-size="11.00">fase_id</text>
<polygon fill="none" stroke="black" points="296.5,-328 296.5,-350 485.5,-350 485.5,-328 296.5,-328"/>
<image xlink:href="../../images/foreignKeys.png" width="11px" height="12px" preserveAspectRatio="xMinYMin meet" x="301.5" y="-345"/>
<text text-anchor="start" x="316.5" y="-336.2" font-family="Helvetica,sans-Serif" font-size="11.00">symbool_id</text>
<polygon fill="none" stroke="black" points="296.5,-306 296.5,-328 485.5,-328 485.5,-306 296.5,-306"/>
<image xlink:href="../../images/foreignKeys.png" width="11px" height="12px" preserveAspectRatio="xMinYMin meet" x="301.5" y="-323"/>
<text text-anchor="start" x="316.5" y="-314.2" font-family="Helvetica,sans-Serif" font-size="11.00">gebied_id</text>
<polygon fill="none" stroke="black" points="296.5,-284 296.5,-306 485.5,-306 485.5,-284 296.5,-284"/>
<image xlink:href="../../images/foreignKeys.png" width="11px" height="12px" preserveAspectRatio="xMinYMin meet" x="301.5" y="-301"/>
<text text-anchor="start" x="316.5" y="-292.2" font-family="Helvetica,sans-Serif" font-size="11.00">inspectie_conditie_id</text>
<polygon fill="none" stroke="black" points="296.5,-266 296.5,-284 485.5,-284 485.5,-266 296.5,-266"/>
<text text-anchor="start" x="299.5" y="-272.2" font-family="Helvetica,sans-Serif" font-size="11.00">...</text>
<polygon fill="#ffffff" stroke="transparent" points="296.5,-248 296.5,-266 389.5,-266 389.5,-248 296.5,-248"/>
<polygon fill="none" stroke="black" points="296.5,-248 296.5,-266 389.5,-266 389.5,-248 296.5,-248"/>
<text text-anchor="start" x="299.5" y="-254.2" font-family="Helvetica,sans-Serif" font-size="11.00">&lt; 4</text>
<polygon fill="#ffffff" stroke="transparent" points="389.5,-248 389.5,-266 437.5,-266 437.5,-248 389.5,-248"/>
<polygon fill="none" stroke="black" points="389.5,-248 389.5,-266 437.5,-266 437.5,-248 389.5,-248"/>
<text text-anchor="start" x="426.5" y="-254.2" font-family="Helvetica,sans-Serif" font-size="11.00"> &#160;</text>
<polygon fill="#ffffff" stroke="transparent" points="437.5,-248 437.5,-266 485.5,-266 485.5,-248 437.5,-248"/>
<polygon fill="none" stroke="black" points="437.5,-248 437.5,-266 485.5,-266 485.5,-248 437.5,-248"/>
<text text-anchor="start" x="474.5" y="-254.2" font-family="Helvetica,sans-Serif" font-size="11.00"> &#160;</text>
</a>
</g>
</g>
<!-- brandput&#45;&gt;conditie -->
<g id="edge4" class="edge">
<title>brandput:w&#45;&gt;conditie:e</title>
<path fill="none" stroke="black" d="M282.23,-301.09C248.63,-335.68 260.09,-506 215,-506"/>
<polygon fill="black" stroke="black" points="288.23,-298.34 297,-298.27 291.86,-296.67 295.5,-295 295.5,-295 295.5,-295 291.86,-296.67 294,-291.73 288.23,-298.34 288.23,-298.34"/>
<ellipse fill="none" stroke="black" cx="285.32" cy="-299.67" rx="3.2" ry="3.2"/>
</g>
<!-- openwater -->
<g id="node6" class="node">
<title>openwater</title>
<g id="a_node6"><a xlink:href="../../tables/openwater.html" xlink:title="openwater" target="_top">
<polygon fill="#ffffff" stroke="transparent" points="265,-37 265,-227 516,-227 516,-37 265,-37"/>
<polygon fill="#f5f5f5" stroke="transparent" points="265.5,-205 265.5,-227 516.5,-227 516.5,-205 265.5,-205"/>
<polygon fill="none" stroke="black" points="265.5,-205 265.5,-227 516.5,-227 516.5,-205 265.5,-205"/>
<text text-anchor="start" x="270.5" y="-214.2" font-family="Helvetica,sans-Serif" font-weight="bold" font-size="11.00">openwater</text>
<text text-anchor="start" x="474.5" y="-213.2" font-family="Helvetica,sans-Serif" font-size="11.00">[table]</text>
<polygon fill="none" stroke="black" points="265.5,-183 265.5,-205 516.5,-205 516.5,-183 265.5,-183"/>
<image xlink:href="../../images/primaryKeys.png" width="11px" height="12px" preserveAspectRatio="xMinYMin meet" x="270.5" y="-200"/>
<text text-anchor="start" x="285.5" y="-191.2" font-family="Helvetica,sans-Serif" font-size="11.00">uuid</text>
<polygon fill="#ffffff" stroke="transparent" points="265.5,-161 265.5,-183 516.5,-183 516.5,-161 265.5,-161"/>
<polygon fill="none" stroke="black" points="265.5,-161 265.5,-183 516.5,-183 516.5,-161 265.5,-161"/>
<text text-anchor="start" x="285.5" y="-169.2" font-family="Helvetica,sans-Serif" font-size="11.00">geom</text>
<polygon fill="none" stroke="black" points="265.5,-139 265.5,-161 516.5,-161 516.5,-139 265.5,-139"/>
<image xlink:href="../../images/foreignKeys.png" width="11px" height="12px" preserveAspectRatio="xMinYMin meet" x="270.5" y="-156"/>
<text text-anchor="start" x="285.5" y="-147.2" font-family="Helvetica,sans-Serif" font-size="11.00">fase_id</text>
<polygon fill="none" stroke="black" points="265.5,-117 265.5,-139 516.5,-139 516.5,-117 265.5,-117"/>
<image xlink:href="../../images/foreignKeys.png" width="11px" height="12px" preserveAspectRatio="xMinYMin meet" x="270.5" y="-134"/>
<text text-anchor="start" x="285.5" y="-125.2" font-family="Helvetica,sans-Serif" font-size="11.00">symbool_id</text>
<polygon fill="none" stroke="black" points="265.5,-95 265.5,-117 516.5,-117 516.5,-95 265.5,-95"/>
<image xlink:href="../../images/foreignKeys.png" width="11px" height="12px" preserveAspectRatio="xMinYMin meet" x="270.5" y="-112"/>
<text text-anchor="start" x="285.5" y="-103.2" font-family="Helvetica,sans-Serif" font-size="11.00">gebied_id</text>
<polygon fill="none" stroke="black" points="265.5,-73 265.5,-95 516.5,-95 516.5,-73 265.5,-73"/>
<image xlink:href="../../images/foreignKeys.png" width="11px" height="12px" preserveAspectRatio="xMinYMin meet" x="270.5" y="-90"/>
<text text-anchor="start" x="285.5" y="-81.2" font-family="Helvetica,sans-Serif" font-size="11.00">inspectie_conditie_id</text>
<polygon fill="none" stroke="black" points="265.5,-55 265.5,-73 516.5,-73 516.5,-55 265.5,-55"/>
<text text-anchor="start" x="268.5" y="-61.2" font-family="Helvetica,sans-Serif" font-size="11.00">...</text>
<polygon fill="#ffffff" stroke="transparent" points="265.5,-37 265.5,-55 389.5,-55 389.5,-37 265.5,-37"/>
<polygon fill="none" stroke="black" points="265.5,-37 265.5,-55 389.5,-55 389.5,-37 265.5,-37"/>
<text text-anchor="start" x="268.5" y="-43.2" font-family="Helvetica,sans-Serif" font-size="11.00">&lt; 4</text>
<polygon fill="#ffffff" stroke="transparent" points="389.5,-37 389.5,-55 452.5,-55 452.5,-37 389.5,-37"/>
<polygon fill="none" stroke="black" points="389.5,-37 389.5,-55 452.5,-55 452.5,-37 389.5,-37"/>
<text text-anchor="start" x="441.5" y="-43.2" font-family="Helvetica,sans-Serif" font-size="11.00"> &#160;</text>
<polygon fill="#ffffff" stroke="transparent" points="452.5,-37 452.5,-55 516.5,-55 516.5,-37 452.5,-37"/>
<polygon fill="none" stroke="black" points="452.5,-37 452.5,-55 516.5,-55 516.5,-37 452.5,-37"/>
<text text-anchor="start" x="505.5" y="-43.2" font-family="Helvetica,sans-Serif" font-size="11.00"> &#160;</text>
</a>
</g>
</g>
<!-- openwater&#45;&gt;conditie -->
<g id="edge5" class="edge">
<title>openwater:w&#45;&gt;conditie:e</title>
<path fill="none" stroke="black" d="M250.62,-87.91C185.11,-130.45 304.07,-506 215,-506"/>
<polygon fill="black" stroke="black" points="256.8,-86.17 265.48,-87.47 260.65,-85.08 264.5,-84 264.5,-84 264.5,-84 260.65,-85.08 263.52,-80.53 256.8,-86.17 256.8,-86.17"/>
<ellipse fill="none" stroke="black" cx="253.72" cy="-87.04" rx="3.2" ry="3.2"/>
</g>
</g>
</svg>
