<?xml version="1.0" encoding="UTF-8" standalone="no"?>
<!DOCTYPE svg PUBLIC "-//W3C//DTD SVG 1.1//EN"
 "http://www.w3.org/Graphics/SVG/1.1/DTD/svg11.dtd">
<!-- Generated by graphviz version 2.40.1 (20161225.0304)
 -->
<!-- Title: oneDegreeRelationshipsDiagram Pages: 1 -->
<svg width="503pt" height="1121pt"
 viewBox="0.00 0.00 503.00 1121.20" xmlns="http://www.w3.org/2000/svg" xmlns:xlink="http://www.w3.org/1999/xlink">
<g id="graph0" class="graph" transform="scale(1 1) rotate(0) translate(4 1117.2)">
<title>oneDegreeRelationshipsDiagram</title>
<polygon fill="#ffffff" stroke="transparent" points="-4,4 -4,-1117.2 499,-1117.2 499,4 -4,4"/>
<text text-anchor="middle" x="72.4936" y="-7.3" font-family="Helvetica,sans-Serif" font-size="11.00" fill="#000000">Generated by SchemaSpy</text>
<!-- bluswaterriool -->
<g id="node1" class="node">
<title>bluswaterriool</title>
<g id="a_node1"><a xlink:href="../../tables/bluswaterriool.html" xlink:title="bluswaterriool" target="_top">
<polygon fill="#ffffff" stroke="transparent" points="284,-916.2 284,-1109.2 449,-1109.2 449,-916.2 284,-916.2"/>
<polygon fill="#f5f5f5" stroke="transparent" points="284.5,-1085.7 284.5,-1108.7 449.5,-1108.7 449.5,-1085.7 284.5,-1085.7"/>
<polygon fill="none" stroke="#000000" points="284.5,-1085.7 284.5,-1108.7 449.5,-1108.7 449.5,-1085.7 284.5,-1085.7"/>
<text text-anchor="start" x="289.5" y="-1094.3" font-family="Helvetica,sans-Serif" font-weight="bold" font-size="11.00" fill="#000000">bluswaterriool</text>
<text text-anchor="start" x="414.5437" y="-1093.8" font-family="Helvetica,sans-Serif" font-size="11.00" fill="#000000">[table]</text>
<polygon fill="none" stroke="#000000" points="284.5,-1063.7 284.5,-1085.7 449.5,-1085.7 449.5,-1063.7 284.5,-1063.7"/>
<image xlink:href="../../images/primaryKeys.png" width="11px" height="12px" preserveAspectRatio="xMinYMin meet" x="289.5" y="-1080.7"/>
<text text-anchor="start" x="304.5" y="-1070.8" font-family="Helvetica,sans-Serif" font-size="11.00" fill="#000000">uuid</text>
<polygon fill="#ffffff" stroke="transparent" points="284.5,-1041.7 284.5,-1063.7 449.5,-1063.7 449.5,-1041.7 284.5,-1041.7"/>
<polygon fill="none" stroke="#000000" points="284.5,-1041.7 284.5,-1063.7 449.5,-1063.7 449.5,-1041.7 284.5,-1041.7"/>
<text text-anchor="start" x="304.5" y="-1048.8" font-family="Helvetica,sans-Serif" font-size="11.00" fill="#000000">geom</text>
<polygon fill="none" stroke="#000000" points="284.5,-1019.7 284.5,-1041.7 449.5,-1041.7 449.5,-1019.7 284.5,-1019.7"/>
<image xlink:href="../../images/foreignKeys.png" width="11px" height="12px" preserveAspectRatio="xMinYMin meet" x="289.5" y="-1036.7"/>
<text text-anchor="start" x="304.5" y="-1026.8" font-family="Helvetica,sans-Serif" font-size="11.00" fill="#000000">fase_id</text>
<polygon fill="none" stroke="#000000" points="284.5,-997.7 284.5,-1019.7 449.5,-1019.7 449.5,-997.7 284.5,-997.7"/>
<image xlink:href="../../images/foreignKeys.png" width="11px" height="12px" preserveAspectRatio="xMinYMin meet" x="289.5" y="-1014.7"/>
<text text-anchor="start" x="304.5" y="-1004.8" font-family="Helvetica,sans-Serif" font-size="11.00" fill="#000000">symbool_id</text>
<polygon fill="none" stroke="#000000" points="284.5,-975.7 284.5,-997.7 449.5,-997.7 449.5,-975.7 284.5,-975.7"/>
<image xlink:href="../../images/foreignKeys.png" width="11px" height="12px" preserveAspectRatio="xMinYMin meet" x="289.5" y="-992.7"/>
<text text-anchor="start" x="304.5" y="-982.8" font-family="Helvetica,sans-Serif" font-size="11.00" fill="#000000">gebied_id</text>
<polygon fill="none" stroke="#000000" points="284.5,-953.7 284.5,-975.7 449.5,-975.7 449.5,-953.7 284.5,-953.7"/>
<image xlink:href="../../images/foreignKeys.png" width="11px" height="12px" preserveAspectRatio="xMinYMin meet" x="289.5" y="-970.7"/>
<text text-anchor="start" x="304.5" y="-960.8" font-family="Helvetica,sans-Serif" font-size="11.00" fill="#000000">inspectie_conditie_id</text>
<polygon fill="none" stroke="#000000" points="284.5,-934.7 284.5,-953.7 449.5,-953.7 449.5,-934.7 284.5,-934.7"/>
<text text-anchor="start" x="287.5" y="-940.8" font-family="Helvetica,sans-Serif" font-size="11.00" fill="#000000">...</text>
<polygon fill="#ffffff" stroke="transparent" points="284.5,-915.7 284.5,-934.7 365.5,-934.7 365.5,-915.7 284.5,-915.7"/>
<polygon fill="none" stroke="#000000" points="284.5,-915.7 284.5,-934.7 365.5,-934.7 365.5,-915.7 284.5,-915.7"/>
<text text-anchor="start" x="287.5" y="-921.8" font-family="Helvetica,sans-Serif" font-size="11.00" fill="#000000">&lt; 4</text>
<polygon fill="#ffffff" stroke="transparent" points="365.5,-915.7 365.5,-934.7 407.5,-934.7 407.5,-915.7 365.5,-915.7"/>
<polygon fill="none" stroke="#000000" points="365.5,-915.7 365.5,-934.7 407.5,-934.7 407.5,-915.7 365.5,-915.7"/>
<text text-anchor="start" x="398.3862" y="-921.8" font-family="Helvetica,sans-Serif" font-size="11.00" fill="#000000"> &#160;</text>
<polygon fill="#ffffff" stroke="transparent" points="407.5,-915.7 407.5,-934.7 449.5,-934.7 449.5,-915.7 407.5,-915.7"/>
<polygon fill="none" stroke="#000000" points="407.5,-915.7 407.5,-934.7 449.5,-934.7 449.5,-915.7 407.5,-915.7"/>
<text text-anchor="start" x="440.3862" y="-921.8" font-family="Helvetica,sans-Serif" font-size="11.00" fill="#000000"> &#160;</text>
</a>
</g>
</g>
<!-- conditie -->
<g id="node2" class="node">
<title>conditie</title>
<g id="a_node2"><a xlink:href="../../tables/conditie.html" xlink:title="conditie" target="_top">
<polygon fill="#ffffff" stroke="transparent" points="8,-438.7 8,-550.7 197,-550.7 197,-438.7 8,-438.7"/>
<polygon fill="#f5f5f5" stroke="transparent" points="10.5,-525.7 10.5,-548.7 195.5,-548.7 195.5,-525.7 10.5,-525.7"/>
<polygon fill="none" stroke="#000000" points="10.5,-525.7 10.5,-548.7 195.5,-548.7 195.5,-525.7 10.5,-525.7"/>
<text text-anchor="start" x="15.5" y="-534.3" font-family="Helvetica,sans-Serif" font-weight="bold" font-size="11.00" fill="#000000">conditie</text>
<text text-anchor="start" x="160.5437" y="-533.8" font-family="Helvetica,sans-Serif" font-size="11.00" fill="#000000">[table]</text>
<polygon fill="none" stroke="#000000" points="10.5,-503.7 10.5,-525.7 105.5,-525.7 105.5,-503.7 10.5,-503.7"/>
<image xlink:href="../../images/primaryKeys.png" width="11px" height="12px" preserveAspectRatio="xMinYMin meet" x="15.5" y="-520.7"/>
<text text-anchor="start" x="30.5" y="-510.8" font-family="Helvetica,sans-Serif" font-size="11.00" fill="#000000">id</text>
<polygon fill="none" stroke="#000000" points="105.5,-503.7 105.5,-525.7 195.5,-525.7 195.5,-503.7 105.5,-503.7"/>
<text text-anchor="start" x="108.5" y="-511.4" font-family="Helvetica,sans-Serif" font-size="11.00" fill="#000000">int2[5]</text>
<polygon fill="none" stroke="#000000" points="10.5,-481.7 10.5,-503.7 105.5,-503.7 105.5,-481.7 10.5,-481.7"/>
<text text-anchor="start" x="30.5" y="-488.8" font-family="Helvetica,sans-Serif" font-size="11.00" fill="#000000">naam</text>
<polygon fill="none" stroke="#000000" points="105.5,-481.7 105.5,-503.7 195.5,-503.7 195.5,-481.7 105.5,-481.7"/>
<text text-anchor="start" x="108.0042" y="-489.4" font-family="Helvetica,sans-Serif" font-size="11.00" fill="#000000">text[2147483647]</text>
<polygon fill="none" stroke="#000000" points="10.5,-459.7 10.5,-481.7 105.5,-481.7 105.5,-459.7 10.5,-459.7"/>
<text text-anchor="start" x="30.5" y="-466.8" font-family="Helvetica,sans-Serif" font-size="11.00" fill="#000000">omschrijving</text>
<polygon fill="none" stroke="#000000" points="105.5,-459.7 105.5,-481.7 195.5,-481.7 195.5,-459.7 105.5,-459.7"/>
<text text-anchor="start" x="108.0042" y="-467.4" font-family="Helvetica,sans-Serif" font-size="11.00" fill="#000000">text[2147483647]</text>
<polygon fill="#ffffff" stroke="transparent" points="10.5,-440.7 10.5,-459.7 62.5,-459.7 62.5,-440.7 10.5,-440.7"/>
<polygon fill="none" stroke="#000000" points="10.5,-440.7 10.5,-459.7 62.5,-459.7 62.5,-440.7 10.5,-440.7"/>
<text text-anchor="start" x="13.5" y="-446.8" font-family="Helvetica,sans-Serif" font-size="11.00" fill="#000000">&lt; 0</text>
<polygon fill="#ffffff" stroke="transparent" points="62.5,-440.7 62.5,-459.7 105.5,-459.7 105.5,-440.7 62.5,-440.7"/>
<polygon fill="none" stroke="#000000" points="62.5,-440.7 62.5,-459.7 105.5,-459.7 105.5,-440.7 62.5,-440.7"/>
<text text-anchor="start" x="96.3862" y="-446.8" font-family="Helvetica,sans-Serif" font-size="11.00" fill="#000000"> &#160;</text>
<polygon fill="#ffffff" stroke="transparent" points="105.5,-440.7 105.5,-459.7 195.5,-459.7 195.5,-440.7 105.5,-440.7"/>
<polygon fill="none" stroke="#000000" points="105.5,-440.7 105.5,-459.7 195.5,-459.7 195.5,-440.7 105.5,-440.7"/>
<text text-anchor="start" x="176.9053" y="-446.8" font-family="Helvetica,sans-Serif" font-size="11.00" fill="#000000">5 &gt;</text>
<polygon fill="none" stroke="#000000" stroke-width="2" points="9,-439.7 9,-549.7 196,-549.7 196,-439.7 9,-439.7"/>
</a>
</g>
</g>
<!-- bluswaterriool&#45;&gt;conditie -->
<g id="edge1" class="edge">
<title>bluswaterriool:w&#45;&gt;conditie:e</title>
<path fill="none" stroke="#000000" d="M270.2473,-962.442C250.6071,-955.1832 248.5066,-931.4158 238,-905.7 221.4719,-865.2458 239.2003,-514.7 195.5,-514.7"/>
<polygon fill="#000000" stroke="#000000" points="276.5985,-963.4482 283.9367,-968.2557 280.5493,-964.0741 284.5,-964.7 284.5,-964.7 284.5,-964.7 280.5493,-964.0741 285.0633,-961.1443 276.5985,-963.4482 276.5985,-963.4482"/>
<ellipse fill="none" stroke="#000000" cx="273.438" cy="-962.9474" rx="3.2" ry="3.2"/>
</g>
<!-- brandkraan -->
<g id="node3" class="node">
<title>brandkraan</title>
<g id="a_node3"><a xlink:href="../../tables/brandkraan.html" xlink:title="brandkraan" target="_top">
<polygon fill="#ffffff" stroke="transparent" points="267.5,-680.2 267.5,-895.2 465.5,-895.2 465.5,-680.2 267.5,-680.2"/>
<polygon fill="#f5f5f5" stroke="transparent" points="267.5,-871.7 267.5,-894.7 465.5,-894.7 465.5,-871.7 267.5,-871.7"/>
<polygon fill="none" stroke="#000000" points="267.5,-871.7 267.5,-894.7 465.5,-894.7 465.5,-871.7 267.5,-871.7"/>
<text text-anchor="start" x="272.5" y="-880.3" font-family="Helvetica,sans-Serif" font-weight="bold" font-size="11.00" fill="#000000">brandkraan</text>
<text text-anchor="start" x="430.5437" y="-879.8" font-family="Helvetica,sans-Serif" font-size="11.00" fill="#000000">[table]</text>
<polygon fill="none" stroke="#000000" points="267.5,-849.7 267.5,-871.7 465.5,-871.7 465.5,-849.7 267.5,-849.7"/>
<image xlink:href="../../images/primaryKeys.png" width="11px" height="12px" preserveAspectRatio="xMinYMin meet" x="272.5" y="-866.7"/>
<text text-anchor="start" x="287.5" y="-856.8" font-family="Helvetica,sans-Serif" font-size="11.00" fill="#000000">uuid</text>
<polygon fill="#ffffff" stroke="transparent" points="267.5,-827.7 267.5,-849.7 465.5,-849.7 465.5,-827.7 267.5,-827.7"/>
<polygon fill="none" stroke="#000000" points="267.5,-827.7 267.5,-849.7 465.5,-849.7 465.5,-827.7 267.5,-827.7"/>
<text text-anchor="start" x="287.5" y="-834.8" font-family="Helvetica,sans-Serif" font-size="11.00" fill="#000000">geom</text>
<polygon fill="#ffffff" stroke="transparent" points="267.5,-805.7 267.5,-827.7 465.5,-827.7 465.5,-805.7 267.5,-805.7"/>
<polygon fill="none" stroke="#000000" points="267.5,-805.7 267.5,-827.7 465.5,-827.7 465.5,-805.7 267.5,-805.7"/>
<text text-anchor="start" x="287.5" y="-812.8" font-family="Helvetica,sans-Serif" font-size="11.00" fill="#000000">nen3610id</text>
<polygon fill="none" stroke="#000000" points="267.5,-783.7 267.5,-805.7 465.5,-805.7 465.5,-783.7 267.5,-783.7"/>
<image xlink:href="../../images/foreignKeys.png" width="11px" height="12px" preserveAspectRatio="xMinYMin meet" x="272.5" y="-800.7"/>
<text text-anchor="start" x="287.5" y="-790.8" font-family="Helvetica,sans-Serif" font-size="11.00" fill="#000000">fase_id</text>
<polygon fill="none" stroke="#000000" points="267.5,-761.7 267.5,-783.7 465.5,-783.7 465.5,-761.7 267.5,-761.7"/>
<image xlink:href="../../images/foreignKeys.png" width="11px" height="12px" preserveAspectRatio="xMinYMin meet" x="272.5" y="-778.7"/>
<text text-anchor="start" x="287.5" y="-768.8" font-family="Helvetica,sans-Serif" font-size="11.00" fill="#000000">symbool_id</text>
<polygon fill="none" stroke="#000000" points="267.5,-739.7 267.5,-761.7 465.5,-761.7 465.5,-739.7 267.5,-739.7"/>
<image xlink:href="../../images/foreignKeys.png" width="11px" height="12px" preserveAspectRatio="xMinYMin meet" x="272.5" y="-756.7"/>
<text text-anchor="start" x="287.5" y="-746.8" font-family="Helvetica,sans-Serif" font-size="11.00" fill="#000000">gebied_id</text>
<polygon fill="none" stroke="#000000" points="267.5,-717.7 267.5,-739.7 465.5,-739.7 465.5,-717.7 267.5,-717.7"/>
<image xlink:href="../../images/foreignKeys.png" width="11px" height="12px" preserveAspectRatio="xMinYMin meet" x="272.5" y="-734.7"/>
<text text-anchor="start" x="287.5" y="-724.8" font-family="Helvetica,sans-Serif" font-size="11.00" fill="#000000">inspectie_conditie_id</text>
<polygon fill="none" stroke="#000000" points="267.5,-698.7 267.5,-717.7 465.5,-717.7 465.5,-698.7 267.5,-698.7"/>
<text text-anchor="start" x="270.5" y="-704.8" font-family="Helvetica,sans-Serif" font-size="11.00" fill="#000000">...</text>
<polygon fill="#ffffff" stroke="transparent" points="267.5,-679.7 267.5,-698.7 364.5,-698.7 364.5,-679.7 267.5,-679.7"/>
<polygon fill="none" stroke="#000000" points="267.5,-679.7 267.5,-698.7 364.5,-698.7 364.5,-679.7 267.5,-679.7"/>
<text text-anchor="start" x="270.5" y="-685.8" font-family="Helvetica,sans-Serif" font-size="11.00" fill="#000000">&lt; 4</text>
<polygon fill="#ffffff" stroke="transparent" points="364.5,-679.7 364.5,-698.7 414.5,-698.7 414.5,-679.7 364.5,-679.7"/>
<polygon fill="none" stroke="#000000" points="364.5,-679.7 364.5,-698.7 414.5,-698.7 414.5,-679.7 364.5,-679.7"/>
<text text-anchor="start" x="405.3862" y="-685.8" font-family="Helvetica,sans-Serif" font-size="11.00" fill="#000000"> &#160;</text>
<polygon fill="#ffffff" stroke="transparent" points="414.5,-679.7 414.5,-698.7 465.5,-698.7 465.5,-679.7 414.5,-679.7"/>
<polygon fill="none" stroke="#000000" points="414.5,-679.7 414.5,-698.7 465.5,-698.7 465.5,-679.7 414.5,-679.7"/>
<text text-anchor="start" x="456.3862" y="-685.8" font-family="Helvetica,sans-Serif" font-size="11.00" fill="#000000"> &#160;</text>
</a>
</g>
</g>
<!-- brandkraan&#45;&gt;conditie -->
<g id="edge2" class="edge">
<title>brandkraan:w&#45;&gt;conditie:e</title>
<path fill="none" stroke="#000000" d="M253.0165,-726.85C180.5415,-705.9338 290.3621,-514.7 195.5,-514.7"/>
<polygon fill="#000000" stroke="#000000" points="259.5645,-727.6863 267.0438,-732.271 263.5322,-728.1932 267.5,-728.7 267.5,-728.7 267.5,-728.7 263.5322,-728.1932 267.9562,-725.129 259.5645,-727.6863 259.5645,-727.6863"/>
<ellipse fill="none" stroke="#000000" cx="256.3903" cy="-727.2808" rx="3.2" ry="3.2"/>
</g>
<!-- brandkraan_prive -->
<g id="node4" class="node">
<title>brandkraan_prive</title>
<g id="a_node4"><a xlink:href="../../tables/brandkraan_prive.html" xlink:title="brandkraan_prive" target="_top">
<polygon fill="#ffffff" stroke="transparent" points="267.5,-466.2 267.5,-659.2 465.5,-659.2 465.5,-466.2 267.5,-466.2"/>
<polygon fill="#f5f5f5" stroke="transparent" points="267.5,-635.7 267.5,-658.7 465.5,-658.7 465.5,-635.7 267.5,-635.7"/>
<polygon fill="none" stroke="#000000" points="267.5,-635.7 267.5,-658.7 465.5,-658.7 465.5,-635.7 267.5,-635.7"/>
<text text-anchor="start" x="272.5" y="-644.3" font-family="Helvetica,sans-Serif" font-weight="bold" font-size="11.00" fill="#000000">brandkraan_prive</text>
<text text-anchor="start" x="430.5437" y="-643.8" font-family="Helvetica,sans-Serif" font-size="11.00" fill="#000000">[table]</text>
<polygon fill="none" stroke="#000000" points="267.5,-613.7 267.5,-635.7 465.5,-635.7 465.5,-613.7 267.5,-613.7"/>
<image xlink:href="../../images/primaryKeys.png" width="11px" height="12px" preserveAspectRatio="xMinYMin meet" x="272.5" y="-630.7"/>
<text text-anchor="start" x="287.5" y="-620.8" font-family="Helvetica,sans-Serif" font-size="11.00" fill="#000000">uuid</text>
<polygon fill="#ffffff" stroke="transparent" points="267.5,-591.7 267.5,-613.7 465.5,-613.7 465.5,-591.7 267.5,-591.7"/>
<polygon fill="none" stroke="#000000" points="267.5,-591.7 267.5,-613.7 465.5,-613.7 465.5,-591.7 267.5,-591.7"/>
<text text-anchor="start" x="287.5" y="-598.8" font-family="Helvetica,sans-Serif" font-size="11.00" fill="#000000">geom</text>
<polygon fill="none" stroke="#000000" points="267.5,-569.7 267.5,-591.7 465.5,-591.7 465.5,-569.7 267.5,-569.7"/>
<image xlink:href="../../images/foreignKeys.png" width="11px" height="12px" preserveAspectRatio="xMinYMin meet" x="272.5" y="-586.7"/>
<text text-anchor="start" x="287.5" y="-576.8" font-family="Helvetica,sans-Serif" font-size="11.00" fill="#000000">fase_id</text>
<polygon fill="none" stroke="#000000" points="267.5,-547.7 267.5,-569.7 465.5,-569.7 465.5,-547.7 267.5,-547.7"/>
<image xlink:href="../../images/foreignKeys.png" width="11px" height="12px" preserveAspectRatio="xMinYMin meet" x="272.5" y="-564.7"/>
<text text-anchor="start" x="287.5" y="-554.8" font-family="Helvetica,sans-Serif" font-size="11.00" fill="#000000">symbool_id</text>
<polygon fill="none" stroke="#000000" points="267.5,-525.7 267.5,-547.7 465.5,-547.7 465.5,-525.7 267.5,-525.7"/>
<image xlink:href="../../images/foreignKeys.png" width="11px" height="12px" preserveAspectRatio="xMinYMin meet" x="272.5" y="-542.7"/>
<text text-anchor="start" x="287.5" y="-532.8" font-family="Helvetica,sans-Serif" font-size="11.00" fill="#000000">gebied_id</text>
<polygon fill="none" stroke="#000000" points="267.5,-503.7 267.5,-525.7 465.5,-525.7 465.5,-503.7 267.5,-503.7"/>
<image xlink:href="../../images/foreignKeys.png" width="11px" height="12px" preserveAspectRatio="xMinYMin meet" x="272.5" y="-520.7"/>
<text text-anchor="start" x="287.5" y="-510.8" font-family="Helvetica,sans-Serif" font-size="11.00" fill="#000000">inspectie_conditie_id</text>
<polygon fill="none" stroke="#000000" points="267.5,-484.7 267.5,-503.7 465.5,-503.7 465.5,-484.7 267.5,-484.7"/>
<text text-anchor="start" x="270.5" y="-490.8" font-family="Helvetica,sans-Serif" font-size="11.00" fill="#000000">...</text>
<polygon fill="#ffffff" stroke="transparent" points="267.5,-465.7 267.5,-484.7 364.5,-484.7 364.5,-465.7 267.5,-465.7"/>
<polygon fill="none" stroke="#000000" points="267.5,-465.7 267.5,-484.7 364.5,-484.7 364.5,-465.7 267.5,-465.7"/>
<text text-anchor="start" x="270.5" y="-471.8" font-family="Helvetica,sans-Serif" font-size="11.00" fill="#000000">&lt; 4</text>
<polygon fill="#ffffff" stroke="transparent" points="364.5,-465.7 364.5,-484.7 414.5,-484.7 414.5,-465.7 364.5,-465.7"/>
<polygon fill="none" stroke="#000000" points="364.5,-465.7 364.5,-484.7 414.5,-484.7 414.5,-465.7 364.5,-465.7"/>
<text text-anchor="start" x="405.3862" y="-471.8" font-family="Helvetica,sans-Serif" font-size="11.00" fill="#000000"> &#160;</text>
<polygon fill="#ffffff" stroke="transparent" points="414.5,-465.7 414.5,-484.7 465.5,-484.7 465.5,-465.7 414.5,-465.7"/>
<polygon fill="none" stroke="#000000" points="414.5,-465.7 414.5,-484.7 465.5,-484.7 465.5,-465.7 414.5,-465.7"/>
<text text-anchor="start" x="456.3862" y="-471.8" font-family="Helvetica,sans-Serif" font-size="11.00" fill="#000000"> &#160;</text>
</a>
</g>
</g>
<!-- brandkraan_prive&#45;&gt;conditie -->
<g id="edge3" class="edge">
<title>brandkraan_prive:w&#45;&gt;conditie:e</title>
<path fill="none" stroke="#000000" d="M252.8832,-514.7C232.041,-514.7 222,-514.7 195.5,-514.7"/>
<polygon fill="#000000" stroke="#000000" points="259.5,-514.7001 267.5,-518.3 263.5,-514.7 267.5,-514.7 267.5,-514.7 267.5,-514.7 263.5,-514.7 267.5,-511.1 259.5,-514.7001 259.5,-514.7001"/>
<ellipse fill="none" stroke="#000000" cx="256.3" cy="-514.7001" rx="3.2" ry="3.2"/>
</g>
<!-- brandput -->
<g id="node5" class="node">
<title>brandput</title>
<g id="a_node5"><a xlink:href="../../tables/brandput.html" xlink:title="brandput" target="_top">
<polygon fill="#ffffff" stroke="transparent" points="276,-252.2 276,-445.2 457,-445.2 457,-252.2 276,-252.2"/>
<polygon fill="#f5f5f5" stroke="transparent" points="276.5,-421.7 276.5,-444.7 457.5,-444.7 457.5,-421.7 276.5,-421.7"/>
<polygon fill="none" stroke="#000000" points="276.5,-421.7 276.5,-444.7 457.5,-444.7 457.5,-421.7 276.5,-421.7"/>
<text text-anchor="start" x="281.5" y="-430.3" font-family="Helvetica,sans-Serif" font-weight="bold" font-size="11.00" fill="#000000">brandput</text>
<text text-anchor="start" x="422.5437" y="-429.8" font-family="Helvetica,sans-Serif" font-size="11.00" fill="#000000">[table]</text>
<polygon fill="none" stroke="#000000" points="276.5,-399.7 276.5,-421.7 457.5,-421.7 457.5,-399.7 276.5,-399.7"/>
<image xlink:href="../../images/primaryKeys.png" width="11px" height="12px" preserveAspectRatio="xMinYMin meet" x="281.5" y="-416.7"/>
<text text-anchor="start" x="296.5" y="-406.8" font-family="Helvetica,sans-Serif" font-size="11.00" fill="#000000">uuid</text>
<polygon fill="#ffffff" stroke="transparent" points="276.5,-377.7 276.5,-399.7 457.5,-399.7 457.5,-377.7 276.5,-377.7"/>
<polygon fill="none" stroke="#000000" points="276.5,-377.7 276.5,-399.7 457.5,-399.7 457.5,-377.7 276.5,-377.7"/>
<text text-anchor="start" x="296.5" y="-384.8" font-family="Helvetica,sans-Serif" font-size="11.00" fill="#000000">geom</text>
<polygon fill="none" stroke="#000000" points="276.5,-355.7 276.5,-377.7 457.5,-377.7 457.5,-355.7 276.5,-355.7"/>
<image xlink:href="../../images/foreignKeys.png" width="11px" height="12px" preserveAspectRatio="xMinYMin meet" x="281.5" y="-372.7"/>
<text text-anchor="start" x="296.5" y="-362.8" font-family="Helvetica,sans-Serif" font-size="11.00" fill="#000000">fase_id</text>
<polygon fill="none" stroke="#000000" points="276.5,-333.7 276.5,-355.7 457.5,-355.7 457.5,-333.7 276.5,-333.7"/>
<image xlink:href="../../images/foreignKeys.png" width="11px" height="12px" preserveAspectRatio="xMinYMin meet" x="281.5" y="-350.7"/>
<text text-anchor="start" x="296.5" y="-340.8" font-family="Helvetica,sans-Serif" font-size="11.00" fill="#000000">symbool_id</text>
<polygon fill="none" stroke="#000000" points="276.5,-311.7 276.5,-333.7 457.5,-333.7 457.5,-311.7 276.5,-311.7"/>
<image xlink:href="../../images/foreignKeys.png" width="11px" height="12px" preserveAspectRatio="xMinYMin meet" x="281.5" y="-328.7"/>
<text text-anchor="start" x="296.5" y="-318.8" font-family="Helvetica,sans-Serif" font-size="11.00" fill="#000000">gebied_id</text>
<polygon fill="none" stroke="#000000" points="276.5,-289.7 276.5,-311.7 457.5,-311.7 457.5,-289.7 276.5,-289.7"/>
<image xlink:href="../../images/foreignKeys.png" width="11px" height="12px" preserveAspectRatio="xMinYMin meet" x="281.5" y="-306.7"/>
<text text-anchor="start" x="296.5" y="-296.8" font-family="Helvetica,sans-Serif" font-size="11.00" fill="#000000">inspectie_conditie_id</text>
<polygon fill="none" stroke="#000000" points="276.5,-270.7 276.5,-289.7 457.5,-289.7 457.5,-270.7 276.5,-270.7"/>
<text text-anchor="start" x="279.5" y="-276.8" font-family="Helvetica,sans-Serif" font-size="11.00" fill="#000000">...</text>
<polygon fill="#ffffff" stroke="transparent" points="276.5,-251.7 276.5,-270.7 365.5,-270.7 365.5,-251.7 276.5,-251.7"/>
<polygon fill="none" stroke="#000000" points="276.5,-251.7 276.5,-270.7 365.5,-270.7 365.5,-251.7 276.5,-251.7"/>
<text text-anchor="start" x="279.5" y="-257.8" font-family="Helvetica,sans-Serif" font-size="11.00" fill="#000000">&lt; 4</text>
<polygon fill="#ffffff" stroke="transparent" points="365.5,-251.7 365.5,-270.7 411.5,-270.7 411.5,-251.7 365.5,-251.7"/>
<polygon fill="none" stroke="#000000" points="365.5,-251.7 365.5,-270.7 411.5,-270.7 411.5,-251.7 365.5,-251.7"/>
<text text-anchor="start" x="402.3862" y="-257.8" font-family="Helvetica,sans-Serif" font-size="11.00" fill="#000000"> &#160;</text>
<polygon fill="#ffffff" stroke="transparent" points="411.5,-251.7 411.5,-270.7 457.5,-270.7 457.5,-251.7 411.5,-251.7"/>
<polygon fill="none" stroke="#000000" points="411.5,-251.7 411.5,-270.7 457.5,-270.7 457.5,-251.7 411.5,-251.7"/>
<text text-anchor="start" x="448.3862" y="-257.8" font-family="Helvetica,sans-Serif" font-size="11.00" fill="#000000"> &#160;</text>
</a>
</g>
</g>
<!-- brandput&#45;&gt;conditie -->
<g id="edge4" class="edge">
<title>brandput:w&#45;&gt;conditie:e</title>
<path fill="none" stroke="#000000" d="M263.0712,-306.8738C229.1178,-341.9614 241.1839,-514.7 195.5,-514.7"/>
<polygon fill="#000000" stroke="#000000" points="269.2314,-304.0418 278.0038,-303.9709 272.8657,-302.3709 276.5,-300.7 276.5,-300.7 276.5,-300.7 272.8657,-302.3709 274.9962,-297.4291 269.2314,-304.0418 269.2314,-304.0418"/>
<ellipse fill="none" stroke="#000000" cx="266.3239" cy="-305.3785" rx="3.2" ry="3.2"/>
</g>
<!-- openwater -->
<g id="node6" class="node">
<title>openwater</title>
<g id="a_node6"><a xlink:href="../../tables/openwater.html" xlink:title="openwater" target="_top">
<polygon fill="#ffffff" stroke="transparent" points="246,-38.2 246,-231.2 487,-231.2 487,-38.2 246,-38.2"/>
<polygon fill="#f5f5f5" stroke="transparent" points="246.5,-207.7 246.5,-230.7 487.5,-230.7 487.5,-207.7 246.5,-207.7"/>
<polygon fill="none" stroke="#000000" points="246.5,-207.7 246.5,-230.7 487.5,-230.7 487.5,-207.7 246.5,-207.7"/>
<text text-anchor="start" x="251.5" y="-216.3" font-family="Helvetica,sans-Serif" font-weight="bold" font-size="11.00" fill="#000000">openwater</text>
<text text-anchor="start" x="452.5437" y="-215.8" font-family="Helvetica,sans-Serif" font-size="11.00" fill="#000000">[table]</text>
<polygon fill="none" stroke="#000000" points="246.5,-185.7 246.5,-207.7 487.5,-207.7 487.5,-185.7 246.5,-185.7"/>
<image xlink:href="../../images/primaryKeys.png" width="11px" height="12px" preserveAspectRatio="xMinYMin meet" x="251.5" y="-202.7"/>
<text text-anchor="start" x="266.5" y="-192.8" font-family="Helvetica,sans-Serif" font-size="11.00" fill="#000000">uuid</text>
<polygon fill="#ffffff" stroke="transparent" points="246.5,-163.7 246.5,-185.7 487.5,-185.7 487.5,-163.7 246.5,-163.7"/>
<polygon fill="none" stroke="#000000" points="246.5,-163.7 246.5,-185.7 487.5,-185.7 487.5,-163.7 246.5,-163.7"/>
<text text-anchor="start" x="266.5" y="-170.8" font-family="Helvetica,sans-Serif" font-size="11.00" fill="#000000">geom</text>
<polygon fill="none" stroke="#000000" points="246.5,-141.7 246.5,-163.7 487.5,-163.7 487.5,-141.7 246.5,-141.7"/>
<image xlink:href="../../images/foreignKeys.png" width="11px" height="12px" preserveAspectRatio="xMinYMin meet" x="251.5" y="-158.7"/>
<text text-anchor="start" x="266.5" y="-148.8" font-family="Helvetica,sans-Serif" font-size="11.00" fill="#000000">fase_id</text>
<polygon fill="none" stroke="#000000" points="246.5,-119.7 246.5,-141.7 487.5,-141.7 487.5,-119.7 246.5,-119.7"/>
<image xlink:href="../../images/foreignKeys.png" width="11px" height="12px" preserveAspectRatio="xMinYMin meet" x="251.5" y="-136.7"/>
<text text-anchor="start" x="266.5" y="-126.8" font-family="Helvetica,sans-Serif" font-size="11.00" fill="#000000">symbool_id</text>
<polygon fill="none" stroke="#000000" points="246.5,-97.7 246.5,-119.7 487.5,-119.7 487.5,-97.7 246.5,-97.7"/>
<image xlink:href="../../images/foreignKeys.png" width="11px" height="12px" preserveAspectRatio="xMinYMin meet" x="251.5" y="-114.7"/>
<text text-anchor="start" x="266.5" y="-104.8" font-family="Helvetica,sans-Serif" font-size="11.00" fill="#000000">gebied_id</text>
<polygon fill="none" stroke="#000000" points="246.5,-75.7 246.5,-97.7 487.5,-97.7 487.5,-75.7 246.5,-75.7"/>
<image xlink:href="../../images/foreignKeys.png" width="11px" height="12px" preserveAspectRatio="xMinYMin meet" x="251.5" y="-92.7"/>
<text text-anchor="start" x="266.5" y="-82.8" font-family="Helvetica,sans-Serif" font-size="11.00" fill="#000000">inspectie_conditie_id</text>
<polygon fill="none" stroke="#000000" points="246.5,-56.7 246.5,-75.7 487.5,-75.7 487.5,-56.7 246.5,-56.7"/>
<text text-anchor="start" x="249.5" y="-62.8" font-family="Helvetica,sans-Serif" font-size="11.00" fill="#000000">...</text>
<polygon fill="#ffffff" stroke="transparent" points="246.5,-37.7 246.5,-56.7 365.5,-56.7 365.5,-37.7 246.5,-37.7"/>
<polygon fill="none" stroke="#000000" points="246.5,-37.7 246.5,-56.7 365.5,-56.7 365.5,-37.7 246.5,-37.7"/>
<text text-anchor="start" x="249.5" y="-43.8" font-family="Helvetica,sans-Serif" font-size="11.00" fill="#000000">&lt; 4</text>
<polygon fill="#ffffff" stroke="transparent" points="365.5,-37.7 365.5,-56.7 426.5,-56.7 426.5,-37.7 365.5,-37.7"/>
<polygon fill="none" stroke="#000000" points="365.5,-37.7 365.5,-56.7 426.5,-56.7 426.5,-37.7 365.5,-37.7"/>
<text text-anchor="start" x="417.3862" y="-43.8" font-family="Helvetica,sans-Serif" font-size="11.00" fill="#000000"> &#160;</text>
<polygon fill="#ffffff" stroke="transparent" points="426.5,-37.7 426.5,-56.7 487.5,-56.7 487.5,-37.7 426.5,-37.7"/>
<polygon fill="none" stroke="#000000" points="426.5,-37.7 426.5,-56.7 487.5,-56.7 487.5,-37.7 426.5,-37.7"/>
<text text-anchor="start" x="478.3862" y="-43.8" font-family="Helvetica,sans-Serif" font-size="11.00" fill="#000000"> &#160;</text>
</a>
</g>
</g>
<!-- openwater&#45;&gt;conditie -->
<g id="edge5" class="edge">
<title>openwater:w&#45;&gt;conditie:e</title>
<path fill="none" stroke="#000000" d="M232.4131,-90.6637C165.8815,-133.8113 285.8587,-514.7 195.5,-514.7"/>
<polygon fill="#000000" stroke="#000000" points="238.799,-88.8669 247.4751,-90.1654 242.6495,-87.7835 246.5,-86.7 246.5,-86.7 246.5,-86.7 242.6495,-87.7835 245.5249,-83.2346 238.799,-88.8669 238.799,-88.8669"/>
<ellipse fill="none" stroke="#000000" cx="235.7187" cy="-89.7337" rx="3.2" ry="3.2"/>
</g>
</g>
</svg>
