<?xml version="1.0" encoding="UTF-8" standalone="no"?>
<!DOCTYPE svg PUBLIC "-//W3C//DTD SVG 1.1//EN"
 "http://www.w3.org/Graphics/SVG/1.1/DTD/svg11.dtd">
<!-- Generated by graphviz version 2.40.1 (20161225.0304)
 -->
<!-- Title: oneDegreeRelationshipsDiagram Pages: 1 -->
<svg width="532pt" height="1121pt"
 viewBox="0.00 0.00 532.00 1121.20" xmlns="http://www.w3.org/2000/svg" xmlns:xlink="http://www.w3.org/1999/xlink">
<g id="graph0" class="graph" transform="scale(1 1) rotate(0) translate(4 1117.2)">
<title>oneDegreeRelationshipsDiagram</title>
<polygon fill="#ffffff" stroke="transparent" points="-4,4 -4,-1117.2 528,-1117.2 528,4 -4,4"/>
<text text-anchor="middle" x="72.4936" y="-7.3" font-family="Helvetica,sans-Serif" font-size="11.00" fill="#000000">Generated by SchemaSpy</text>
<!-- bluswaterriool -->
<g id="node1" class="node">
<title>bluswaterriool</title>
<g id="a_node1"><a xlink:href="../../tables/bluswaterriool.html" xlink:title="bluswaterriool" target="_top">
<polygon fill="#ffffff" stroke="transparent" points="313,-916.2 313,-1109.2 478,-1109.2 478,-916.2 313,-916.2"/>
<polygon fill="#f5f5f5" stroke="transparent" points="313.5,-1085.7 313.5,-1108.7 478.5,-1108.7 478.5,-1085.7 313.5,-1085.7"/>
<polygon fill="none" stroke="#000000" points="313.5,-1085.7 313.5,-1108.7 478.5,-1108.7 478.5,-1085.7 313.5,-1085.7"/>
<text text-anchor="start" x="318.5" y="-1094.3" font-family="Helvetica,sans-Serif" font-weight="bold" font-size="11.00" fill="#000000">bluswaterriool</text>
<text text-anchor="start" x="443.5437" y="-1093.8" font-family="Helvetica,sans-Serif" font-size="11.00" fill="#000000">[table]</text>
<polygon fill="none" stroke="#000000" points="313.5,-1063.7 313.5,-1085.7 478.5,-1085.7 478.5,-1063.7 313.5,-1063.7"/>
<image xlink:href="../../images/primaryKeys.png" width="11px" height="12px" preserveAspectRatio="xMinYMin meet" x="318.5" y="-1080.7"/>
<text text-anchor="start" x="333.5" y="-1070.8" font-family="Helvetica,sans-Serif" font-size="11.00" fill="#000000">uuid</text>
<polygon fill="#ffffff" stroke="transparent" points="313.5,-1041.7 313.5,-1063.7 478.5,-1063.7 478.5,-1041.7 313.5,-1041.7"/>
<polygon fill="none" stroke="#000000" points="313.5,-1041.7 313.5,-1063.7 478.5,-1063.7 478.5,-1041.7 313.5,-1041.7"/>
<text text-anchor="start" x="333.5" y="-1048.8" font-family="Helvetica,sans-Serif" font-size="11.00" fill="#000000">geom</text>
<polygon fill="none" stroke="#000000" points="313.5,-1019.7 313.5,-1041.7 478.5,-1041.7 478.5,-1019.7 313.5,-1019.7"/>
<image xlink:href="../../images/foreignKeys.png" width="11px" height="12px" preserveAspectRatio="xMinYMin meet" x="318.5" y="-1036.7"/>
<text text-anchor="start" x="333.5" y="-1026.8" font-family="Helvetica,sans-Serif" font-size="11.00" fill="#000000">fase_id</text>
<polygon fill="none" stroke="#000000" points="313.5,-997.7 313.5,-1019.7 478.5,-1019.7 478.5,-997.7 313.5,-997.7"/>
<image xlink:href="../../images/foreignKeys.png" width="11px" height="12px" preserveAspectRatio="xMinYMin meet" x="318.5" y="-1014.7"/>
<text text-anchor="start" x="333.5" y="-1004.8" font-family="Helvetica,sans-Serif" font-size="11.00" fill="#000000">symbool_id</text>
<polygon fill="none" stroke="#000000" points="313.5,-975.7 313.5,-997.7 478.5,-997.7 478.5,-975.7 313.5,-975.7"/>
<image xlink:href="../../images/foreignKeys.png" width="11px" height="12px" preserveAspectRatio="xMinYMin meet" x="318.5" y="-992.7"/>
<text text-anchor="start" x="333.5" y="-982.8" font-family="Helvetica,sans-Serif" font-size="11.00" fill="#000000">gebied_id</text>
<polygon fill="none" stroke="#000000" points="313.5,-953.7 313.5,-975.7 478.5,-975.7 478.5,-953.7 313.5,-953.7"/>
<image xlink:href="../../images/foreignKeys.png" width="11px" height="12px" preserveAspectRatio="xMinYMin meet" x="318.5" y="-970.7"/>
<text text-anchor="start" x="333.5" y="-960.8" font-family="Helvetica,sans-Serif" font-size="11.00" fill="#000000">inspectie_conditie_id</text>
<polygon fill="none" stroke="#000000" points="313.5,-934.7 313.5,-953.7 478.5,-953.7 478.5,-934.7 313.5,-934.7"/>
<text text-anchor="start" x="316.5" y="-940.8" font-family="Helvetica,sans-Serif" font-size="11.00" fill="#000000">...</text>
<polygon fill="#ffffff" stroke="transparent" points="313.5,-915.7 313.5,-934.7 394.5,-934.7 394.5,-915.7 313.5,-915.7"/>
<polygon fill="none" stroke="#000000" points="313.5,-915.7 313.5,-934.7 394.5,-934.7 394.5,-915.7 313.5,-915.7"/>
<text text-anchor="start" x="316.5" y="-921.8" font-family="Helvetica,sans-Serif" font-size="11.00" fill="#000000">&lt; 4</text>
<polygon fill="#ffffff" stroke="transparent" points="394.5,-915.7 394.5,-934.7 436.5,-934.7 436.5,-915.7 394.5,-915.7"/>
<polygon fill="none" stroke="#000000" points="394.5,-915.7 394.5,-934.7 436.5,-934.7 436.5,-915.7 394.5,-915.7"/>
<text text-anchor="start" x="427.3862" y="-921.8" font-family="Helvetica,sans-Serif" font-size="11.00" fill="#000000"> &#160;</text>
<polygon fill="#ffffff" stroke="transparent" points="436.5,-915.7 436.5,-934.7 478.5,-934.7 478.5,-915.7 436.5,-915.7"/>
<polygon fill="none" stroke="#000000" points="436.5,-915.7 436.5,-934.7 478.5,-934.7 478.5,-915.7 436.5,-915.7"/>
<text text-anchor="start" x="469.3862" y="-921.8" font-family="Helvetica,sans-Serif" font-size="11.00" fill="#000000"> &#160;</text>
</a>
</g>
</g>
<!-- gebied -->
<g id="node2" class="node">
<title>gebied</title>
<g id="a_node2"><a xlink:href="../../tables/gebied.html" xlink:title="gebied" target="_top">
<polygon fill="#ffffff" stroke="transparent" points="8,-438.7 8,-572.7 226,-572.7 226,-438.7 8,-438.7"/>
<polygon fill="#f5f5f5" stroke="transparent" points="10,-547.7 10,-570.7 224,-570.7 224,-547.7 10,-547.7"/>
<polygon fill="none" stroke="#000000" points="10,-547.7 10,-570.7 224,-570.7 224,-547.7 10,-547.7"/>
<text text-anchor="start" x="15" y="-556.3" font-family="Helvetica,sans-Serif" font-weight="bold" font-size="11.00" fill="#000000">gebied</text>
<text text-anchor="start" x="189.0437" y="-555.8" font-family="Helvetica,sans-Serif" font-size="11.00" fill="#000000">[table]</text>
<polygon fill="none" stroke="#000000" points="10,-525.7 10,-547.7 105,-547.7 105,-525.7 10,-525.7"/>
<image xlink:href="../../images/primaryKeys.png" width="11px" height="12px" preserveAspectRatio="xMinYMin meet" x="15" y="-542.7"/>
<text text-anchor="start" x="30" y="-532.8" font-family="Helvetica,sans-Serif" font-size="11.00" fill="#000000">id</text>
<polygon fill="none" stroke="#000000" points="105,-525.7 105,-547.7 224,-547.7 224,-525.7 105,-525.7"/>
<text text-anchor="start" x="108" y="-533.4" font-family="Helvetica,sans-Serif" font-size="11.00" fill="#000000">int2[5]</text>
<polygon fill="none" stroke="#000000" points="10,-503.7 10,-525.7 105,-525.7 105,-503.7 10,-503.7"/>
<text text-anchor="start" x="30" y="-510.8" font-family="Helvetica,sans-Serif" font-size="11.00" fill="#000000">naam</text>
<polygon fill="none" stroke="#000000" points="105,-503.7 105,-525.7 224,-525.7 224,-503.7 105,-503.7"/>
<text text-anchor="start" x="108" y="-511.4" font-family="Helvetica,sans-Serif" font-size="11.00" fill="#000000">text[2147483647]</text>
<polygon fill="none" stroke="#000000" points="10,-481.7 10,-503.7 105,-503.7 105,-481.7 10,-481.7"/>
<text text-anchor="start" x="30" y="-488.8" font-family="Helvetica,sans-Serif" font-size="11.00" fill="#000000">omschrijving</text>
<polygon fill="none" stroke="#000000" points="105,-481.7 105,-503.7 224,-503.7 224,-481.7 105,-481.7"/>
<text text-anchor="start" x="108" y="-489.4" font-family="Helvetica,sans-Serif" font-size="11.00" fill="#000000">text[2147483647]</text>
<polygon fill="none" stroke="#000000" points="10,-459.7 10,-481.7 105,-481.7 105,-459.7 10,-459.7"/>
<text text-anchor="start" x="30" y="-466.8" font-family="Helvetica,sans-Serif" font-size="11.00" fill="#000000">geom</text>
<polygon fill="none" stroke="#000000" points="105,-459.7 105,-481.7 224,-481.7 224,-459.7 105,-459.7"/>
<text text-anchor="start" x="107.9485" y="-467.4" font-family="Helvetica,sans-Serif" font-size="11.00" fill="#000000">geometry[2147483647]</text>
<polygon fill="#ffffff" stroke="transparent" points="10,-440.7 10,-459.7 62,-459.7 62,-440.7 10,-440.7"/>
<polygon fill="none" stroke="#000000" points="10,-440.7 10,-459.7 62,-459.7 62,-440.7 10,-440.7"/>
<text text-anchor="start" x="13" y="-446.8" font-family="Helvetica,sans-Serif" font-size="11.00" fill="#000000">&lt; 0</text>
<polygon fill="#ffffff" stroke="transparent" points="62,-440.7 62,-459.7 105,-459.7 105,-440.7 62,-440.7"/>
<polygon fill="none" stroke="#000000" points="62,-440.7 62,-459.7 105,-459.7 105,-440.7 62,-440.7"/>
<text text-anchor="start" x="95.8862" y="-446.8" font-family="Helvetica,sans-Serif" font-size="11.00" fill="#000000"> &#160;</text>
<polygon fill="#ffffff" stroke="transparent" points="105,-440.7 105,-459.7 224,-459.7 224,-440.7 105,-440.7"/>
<polygon fill="none" stroke="#000000" points="105,-440.7 105,-459.7 224,-459.7 224,-440.7 105,-440.7"/>
<text text-anchor="start" x="205.4053" y="-446.8" font-family="Helvetica,sans-Serif" font-size="11.00" fill="#000000">5 &gt;</text>
<polygon fill="none" stroke="#000000" stroke-width="2" points="9,-439.7 9,-571.7 225,-571.7 225,-439.7 9,-439.7"/>
</a>
</g>
</g>
<!-- bluswaterriool&#45;&gt;gebied -->
<g id="edge1" class="edge">
<title>bluswaterriool:w&#45;&gt;gebied:e</title>
<path fill="none" stroke="#000000" d="M299.071,-984.4802C273.7876,-975.3712 278.224,-939.732 267,-905.7 254.0714,-866.4995 265.2774,-536.7 224,-536.7"/>
<polygon fill="#000000" stroke="#000000" points="305.593,-985.4835 312.9526,-990.2581 309.5465,-986.0918 313.5,-986.7 313.5,-986.7 313.5,-986.7 309.5465,-986.0918 314.0474,-983.1419 305.593,-985.4835 305.593,-985.4835"/>
<ellipse fill="none" stroke="#000000" cx="302.4302" cy="-984.9969" rx="3.2" ry="3.2"/>
</g>
<!-- brandkraan -->
<g id="node3" class="node">
<title>brandkraan</title>
<g id="a_node3"><a xlink:href="../../tables/brandkraan.html" xlink:title="brandkraan" target="_top">
<polygon fill="#ffffff" stroke="transparent" points="296.5,-680.2 296.5,-895.2 494.5,-895.2 494.5,-680.2 296.5,-680.2"/>
<polygon fill="#f5f5f5" stroke="transparent" points="296.5,-871.7 296.5,-894.7 494.5,-894.7 494.5,-871.7 296.5,-871.7"/>
<polygon fill="none" stroke="#000000" points="296.5,-871.7 296.5,-894.7 494.5,-894.7 494.5,-871.7 296.5,-871.7"/>
<text text-anchor="start" x="301.5" y="-880.3" font-family="Helvetica,sans-Serif" font-weight="bold" font-size="11.00" fill="#000000">brandkraan</text>
<text text-anchor="start" x="459.5437" y="-879.8" font-family="Helvetica,sans-Serif" font-size="11.00" fill="#000000">[table]</text>
<polygon fill="none" stroke="#000000" points="296.5,-849.7 296.5,-871.7 494.5,-871.7 494.5,-849.7 296.5,-849.7"/>
<image xlink:href="../../images/primaryKeys.png" width="11px" height="12px" preserveAspectRatio="xMinYMin meet" x="301.5" y="-866.7"/>
<text text-anchor="start" x="316.5" y="-856.8" font-family="Helvetica,sans-Serif" font-size="11.00" fill="#000000">uuid</text>
<polygon fill="#ffffff" stroke="transparent" points="296.5,-827.7 296.5,-849.7 494.5,-849.7 494.5,-827.7 296.5,-827.7"/>
<polygon fill="none" stroke="#000000" points="296.5,-827.7 296.5,-849.7 494.5,-849.7 494.5,-827.7 296.5,-827.7"/>
<text text-anchor="start" x="316.5" y="-834.8" font-family="Helvetica,sans-Serif" font-size="11.00" fill="#000000">geom</text>
<polygon fill="#ffffff" stroke="transparent" points="296.5,-805.7 296.5,-827.7 494.5,-827.7 494.5,-805.7 296.5,-805.7"/>
<polygon fill="none" stroke="#000000" points="296.5,-805.7 296.5,-827.7 494.5,-827.7 494.5,-805.7 296.5,-805.7"/>
<text text-anchor="start" x="316.5" y="-812.8" font-family="Helvetica,sans-Serif" font-size="11.00" fill="#000000">nen3610id</text>
<polygon fill="none" stroke="#000000" points="296.5,-783.7 296.5,-805.7 494.5,-805.7 494.5,-783.7 296.5,-783.7"/>
<image xlink:href="../../images/foreignKeys.png" width="11px" height="12px" preserveAspectRatio="xMinYMin meet" x="301.5" y="-800.7"/>
<text text-anchor="start" x="316.5" y="-790.8" font-family="Helvetica,sans-Serif" font-size="11.00" fill="#000000">fase_id</text>
<polygon fill="none" stroke="#000000" points="296.5,-761.7 296.5,-783.7 494.5,-783.7 494.5,-761.7 296.5,-761.7"/>
<image xlink:href="../../images/foreignKeys.png" width="11px" height="12px" preserveAspectRatio="xMinYMin meet" x="301.5" y="-778.7"/>
<text text-anchor="start" x="316.5" y="-768.8" font-family="Helvetica,sans-Serif" font-size="11.00" fill="#000000">symbool_id</text>
<polygon fill="none" stroke="#000000" points="296.5,-739.7 296.5,-761.7 494.5,-761.7 494.5,-739.7 296.5,-739.7"/>
<image xlink:href="../../images/foreignKeys.png" width="11px" height="12px" preserveAspectRatio="xMinYMin meet" x="301.5" y="-756.7"/>
<text text-anchor="start" x="316.5" y="-746.8" font-family="Helvetica,sans-Serif" font-size="11.00" fill="#000000">gebied_id</text>
<polygon fill="none" stroke="#000000" points="296.5,-717.7 296.5,-739.7 494.5,-739.7 494.5,-717.7 296.5,-717.7"/>
<image xlink:href="../../images/foreignKeys.png" width="11px" height="12px" preserveAspectRatio="xMinYMin meet" x="301.5" y="-734.7"/>
<text text-anchor="start" x="316.5" y="-724.8" font-family="Helvetica,sans-Serif" font-size="11.00" fill="#000000">inspectie_conditie_id</text>
<polygon fill="none" stroke="#000000" points="296.5,-698.7 296.5,-717.7 494.5,-717.7 494.5,-698.7 296.5,-698.7"/>
<text text-anchor="start" x="299.5" y="-704.8" font-family="Helvetica,sans-Serif" font-size="11.00" fill="#000000">...</text>
<polygon fill="#ffffff" stroke="transparent" points="296.5,-679.7 296.5,-698.7 393.5,-698.7 393.5,-679.7 296.5,-679.7"/>
<polygon fill="none" stroke="#000000" points="296.5,-679.7 296.5,-698.7 393.5,-698.7 393.5,-679.7 296.5,-679.7"/>
<text text-anchor="start" x="299.5" y="-685.8" font-family="Helvetica,sans-Serif" font-size="11.00" fill="#000000">&lt; 4</text>
<polygon fill="#ffffff" stroke="transparent" points="393.5,-679.7 393.5,-698.7 443.5,-698.7 443.5,-679.7 393.5,-679.7"/>
<polygon fill="none" stroke="#000000" points="393.5,-679.7 393.5,-698.7 443.5,-698.7 443.5,-679.7 393.5,-679.7"/>
<text text-anchor="start" x="434.3862" y="-685.8" font-family="Helvetica,sans-Serif" font-size="11.00" fill="#000000"> &#160;</text>
<polygon fill="#ffffff" stroke="transparent" points="443.5,-679.7 443.5,-698.7 494.5,-698.7 494.5,-679.7 443.5,-679.7"/>
<polygon fill="none" stroke="#000000" points="443.5,-679.7 443.5,-698.7 494.5,-698.7 494.5,-679.7 443.5,-679.7"/>
<text text-anchor="start" x="485.3862" y="-685.8" font-family="Helvetica,sans-Serif" font-size="11.00" fill="#000000"> &#160;</text>
</a>
</g>
</g>
<!-- brandkraan&#45;&gt;gebied -->
<g id="edge2" class="edge">
<title>brandkraan:w&#45;&gt;gebied:e</title>
<path fill="none" stroke="#000000" d="M282.0023,-748.85C209.4322,-727.9338 318.9293,-536.7 224,-536.7"/>
<polygon fill="#000000" stroke="#000000" points="288.5644,-749.6873 296.0443,-754.271 292.5322,-750.1936 296.5,-750.7 296.5,-750.7 296.5,-750.7 292.5322,-750.1936 296.9557,-747.129 288.5644,-749.6873 288.5644,-749.6873"/>
<ellipse fill="none" stroke="#000000" cx="285.3901" cy="-749.2822" rx="3.2" ry="3.2"/>
</g>
<!-- brandkraan_prive -->
<g id="node4" class="node">
<title>brandkraan_prive</title>
<g id="a_node4"><a xlink:href="../../tables/brandkraan_prive.html" xlink:title="brandkraan_prive" target="_top">
<polygon fill="#ffffff" stroke="transparent" points="296.5,-466.2 296.5,-659.2 494.5,-659.2 494.5,-466.2 296.5,-466.2"/>
<polygon fill="#f5f5f5" stroke="transparent" points="296.5,-635.7 296.5,-658.7 494.5,-658.7 494.5,-635.7 296.5,-635.7"/>
<polygon fill="none" stroke="#000000" points="296.5,-635.7 296.5,-658.7 494.5,-658.7 494.5,-635.7 296.5,-635.7"/>
<text text-anchor="start" x="301.5" y="-644.3" font-family="Helvetica,sans-Serif" font-weight="bold" font-size="11.00" fill="#000000">brandkraan_prive</text>
<text text-anchor="start" x="459.5437" y="-643.8" font-family="Helvetica,sans-Serif" font-size="11.00" fill="#000000">[table]</text>
<polygon fill="none" stroke="#000000" points="296.5,-613.7 296.5,-635.7 494.5,-635.7 494.5,-613.7 296.5,-613.7"/>
<image xlink:href="../../images/primaryKeys.png" width="11px" height="12px" preserveAspectRatio="xMinYMin meet" x="301.5" y="-630.7"/>
<text text-anchor="start" x="316.5" y="-620.8" font-family="Helvetica,sans-Serif" font-size="11.00" fill="#000000">uuid</text>
<polygon fill="#ffffff" stroke="transparent" points="296.5,-591.7 296.5,-613.7 494.5,-613.7 494.5,-591.7 296.5,-591.7"/>
<polygon fill="none" stroke="#000000" points="296.5,-591.7 296.5,-613.7 494.5,-613.7 494.5,-591.7 296.5,-591.7"/>
<text text-anchor="start" x="316.5" y="-598.8" font-family="Helvetica,sans-Serif" font-size="11.00" fill="#000000">geom</text>
<polygon fill="none" stroke="#000000" points="296.5,-569.7 296.5,-591.7 494.5,-591.7 494.5,-569.7 296.5,-569.7"/>
<image xlink:href="../../images/foreignKeys.png" width="11px" height="12px" preserveAspectRatio="xMinYMin meet" x="301.5" y="-586.7"/>
<text text-anchor="start" x="316.5" y="-576.8" font-family="Helvetica,sans-Serif" font-size="11.00" fill="#000000">fase_id</text>
<polygon fill="none" stroke="#000000" points="296.5,-547.7 296.5,-569.7 494.5,-569.7 494.5,-547.7 296.5,-547.7"/>
<image xlink:href="../../images/foreignKeys.png" width="11px" height="12px" preserveAspectRatio="xMinYMin meet" x="301.5" y="-564.7"/>
<text text-anchor="start" x="316.5" y="-554.8" font-family="Helvetica,sans-Serif" font-size="11.00" fill="#000000">symbool_id</text>
<polygon fill="none" stroke="#000000" points="296.5,-525.7 296.5,-547.7 494.5,-547.7 494.5,-525.7 296.5,-525.7"/>
<image xlink:href="../../images/foreignKeys.png" width="11px" height="12px" preserveAspectRatio="xMinYMin meet" x="301.5" y="-542.7"/>
<text text-anchor="start" x="316.5" y="-532.8" font-family="Helvetica,sans-Serif" font-size="11.00" fill="#000000">gebied_id</text>
<polygon fill="none" stroke="#000000" points="296.5,-503.7 296.5,-525.7 494.5,-525.7 494.5,-503.7 296.5,-503.7"/>
<image xlink:href="../../images/foreignKeys.png" width="11px" height="12px" preserveAspectRatio="xMinYMin meet" x="301.5" y="-520.7"/>
<text text-anchor="start" x="316.5" y="-510.8" font-family="Helvetica,sans-Serif" font-size="11.00" fill="#000000">inspectie_conditie_id</text>
<polygon fill="none" stroke="#000000" points="296.5,-484.7 296.5,-503.7 494.5,-503.7 494.5,-484.7 296.5,-484.7"/>
<text text-anchor="start" x="299.5" y="-490.8" font-family="Helvetica,sans-Serif" font-size="11.00" fill="#000000">...</text>
<polygon fill="#ffffff" stroke="transparent" points="296.5,-465.7 296.5,-484.7 393.5,-484.7 393.5,-465.7 296.5,-465.7"/>
<polygon fill="none" stroke="#000000" points="296.5,-465.7 296.5,-484.7 393.5,-484.7 393.5,-465.7 296.5,-465.7"/>
<text text-anchor="start" x="299.5" y="-471.8" font-family="Helvetica,sans-Serif" font-size="11.00" fill="#000000">&lt; 4</text>
<polygon fill="#ffffff" stroke="transparent" points="393.5,-465.7 393.5,-484.7 443.5,-484.7 443.5,-465.7 393.5,-465.7"/>
<polygon fill="none" stroke="#000000" points="393.5,-465.7 393.5,-484.7 443.5,-484.7 443.5,-465.7 393.5,-465.7"/>
<text text-anchor="start" x="434.3862" y="-471.8" font-family="Helvetica,sans-Serif" font-size="11.00" fill="#000000"> &#160;</text>
<polygon fill="#ffffff" stroke="transparent" points="443.5,-465.7 443.5,-484.7 494.5,-484.7 494.5,-465.7 443.5,-465.7"/>
<polygon fill="none" stroke="#000000" points="443.5,-465.7 443.5,-484.7 494.5,-484.7 494.5,-465.7 443.5,-465.7"/>
<text text-anchor="start" x="485.3862" y="-471.8" font-family="Helvetica,sans-Serif" font-size="11.00" fill="#000000"> &#160;</text>
</a>
</g>
</g>
<!-- brandkraan_prive&#45;&gt;gebied -->
<g id="edge3" class="edge">
<title>brandkraan_prive:w&#45;&gt;gebied:e</title>
<path fill="none" stroke="#000000" d="M282.0794,-536.7C260.8898,-536.7 250.8099,-536.7 224,-536.7"/>
<polygon fill="#000000" stroke="#000000" points="288.5,-536.7001 296.5,-540.3 292.5,-536.7 296.5,-536.7 296.5,-536.7 296.5,-536.7 292.5,-536.7 296.5,-533.1 288.5,-536.7001 288.5,-536.7001"/>
<ellipse fill="none" stroke="#000000" cx="285.3" cy="-536.7001" rx="3.2" ry="3.2"/>
</g>
<!-- brandput -->
<g id="node5" class="node">
<title>brandput</title>
<g id="a_node5"><a xlink:href="../../tables/brandput.html" xlink:title="brandput" target="_top">
<polygon fill="#ffffff" stroke="transparent" points="305,-252.2 305,-445.2 486,-445.2 486,-252.2 305,-252.2"/>
<polygon fill="#f5f5f5" stroke="transparent" points="305.5,-421.7 305.5,-444.7 486.5,-444.7 486.5,-421.7 305.5,-421.7"/>
<polygon fill="none" stroke="#000000" points="305.5,-421.7 305.5,-444.7 486.5,-444.7 486.5,-421.7 305.5,-421.7"/>
<text text-anchor="start" x="310.5" y="-430.3" font-family="Helvetica,sans-Serif" font-weight="bold" font-size="11.00" fill="#000000">brandput</text>
<text text-anchor="start" x="451.5437" y="-429.8" font-family="Helvetica,sans-Serif" font-size="11.00" fill="#000000">[table]</text>
<polygon fill="none" stroke="#000000" points="305.5,-399.7 305.5,-421.7 486.5,-421.7 486.5,-399.7 305.5,-399.7"/>
<image xlink:href="../../images/primaryKeys.png" width="11px" height="12px" preserveAspectRatio="xMinYMin meet" x="310.5" y="-416.7"/>
<text text-anchor="start" x="325.5" y="-406.8" font-family="Helvetica,sans-Serif" font-size="11.00" fill="#000000">uuid</text>
<polygon fill="#ffffff" stroke="transparent" points="305.5,-377.7 305.5,-399.7 486.5,-399.7 486.5,-377.7 305.5,-377.7"/>
<polygon fill="none" stroke="#000000" points="305.5,-377.7 305.5,-399.7 486.5,-399.7 486.5,-377.7 305.5,-377.7"/>
<text text-anchor="start" x="325.5" y="-384.8" font-family="Helvetica,sans-Serif" font-size="11.00" fill="#000000">geom</text>
<polygon fill="none" stroke="#000000" points="305.5,-355.7 305.5,-377.7 486.5,-377.7 486.5,-355.7 305.5,-355.7"/>
<image xlink:href="../../images/foreignKeys.png" width="11px" height="12px" preserveAspectRatio="xMinYMin meet" x="310.5" y="-372.7"/>
<text text-anchor="start" x="325.5" y="-362.8" font-family="Helvetica,sans-Serif" font-size="11.00" fill="#000000">fase_id</text>
<polygon fill="none" stroke="#000000" points="305.5,-333.7 305.5,-355.7 486.5,-355.7 486.5,-333.7 305.5,-333.7"/>
<image xlink:href="../../images/foreignKeys.png" width="11px" height="12px" preserveAspectRatio="xMinYMin meet" x="310.5" y="-350.7"/>
<text text-anchor="start" x="325.5" y="-340.8" font-family="Helvetica,sans-Serif" font-size="11.00" fill="#000000">symbool_id</text>
<polygon fill="none" stroke="#000000" points="305.5,-311.7 305.5,-333.7 486.5,-333.7 486.5,-311.7 305.5,-311.7"/>
<image xlink:href="../../images/foreignKeys.png" width="11px" height="12px" preserveAspectRatio="xMinYMin meet" x="310.5" y="-328.7"/>
<text text-anchor="start" x="325.5" y="-318.8" font-family="Helvetica,sans-Serif" font-size="11.00" fill="#000000">gebied_id</text>
<polygon fill="none" stroke="#000000" points="305.5,-289.7 305.5,-311.7 486.5,-311.7 486.5,-289.7 305.5,-289.7"/>
<image xlink:href="../../images/foreignKeys.png" width="11px" height="12px" preserveAspectRatio="xMinYMin meet" x="310.5" y="-306.7"/>
<text text-anchor="start" x="325.5" y="-296.8" font-family="Helvetica,sans-Serif" font-size="11.00" fill="#000000">inspectie_conditie_id</text>
<polygon fill="none" stroke="#000000" points="305.5,-270.7 305.5,-289.7 486.5,-289.7 486.5,-270.7 305.5,-270.7"/>
<text text-anchor="start" x="308.5" y="-276.8" font-family="Helvetica,sans-Serif" font-size="11.00" fill="#000000">...</text>
<polygon fill="#ffffff" stroke="transparent" points="305.5,-251.7 305.5,-270.7 394.5,-270.7 394.5,-251.7 305.5,-251.7"/>
<polygon fill="none" stroke="#000000" points="305.5,-251.7 305.5,-270.7 394.5,-270.7 394.5,-251.7 305.5,-251.7"/>
<text text-anchor="start" x="308.5" y="-257.8" font-family="Helvetica,sans-Serif" font-size="11.00" fill="#000000">&lt; 4</text>
<polygon fill="#ffffff" stroke="transparent" points="394.5,-251.7 394.5,-270.7 440.5,-270.7 440.5,-251.7 394.5,-251.7"/>
<polygon fill="none" stroke="#000000" points="394.5,-251.7 394.5,-270.7 440.5,-270.7 440.5,-251.7 394.5,-251.7"/>
<text text-anchor="start" x="431.3862" y="-257.8" font-family="Helvetica,sans-Serif" font-size="11.00" fill="#000000"> &#160;</text>
<polygon fill="#ffffff" stroke="transparent" points="440.5,-251.7 440.5,-270.7 486.5,-270.7 486.5,-251.7 440.5,-251.7"/>
<polygon fill="none" stroke="#000000" points="440.5,-251.7 440.5,-270.7 486.5,-270.7 486.5,-251.7 440.5,-251.7"/>
<text text-anchor="start" x="477.3862" y="-257.8" font-family="Helvetica,sans-Serif" font-size="11.00" fill="#000000"> &#160;</text>
</a>
</g>
</g>
<!-- brandput&#45;&gt;gebied -->
<g id="edge4" class="edge">
<title>brandput:w&#45;&gt;gebied:e</title>
<path fill="none" stroke="#000000" d="M292.0482,-328.8738C257.9968,-363.9614 269.7193,-536.7 224,-536.7"/>
<polygon fill="#000000" stroke="#000000" points="298.2292,-326.037 307.0017,-325.9719 301.8646,-324.3685 305.5,-322.7 305.5,-322.7 305.5,-322.7 301.8646,-324.3685 303.9983,-319.4281 298.2292,-326.037 298.2292,-326.037"/>
<ellipse fill="none" stroke="#000000" cx="295.3209" cy="-327.3718" rx="3.2" ry="3.2"/>
</g>
<!-- openwater -->
<g id="node6" class="node">
<title>openwater</title>
<g id="a_node6"><a xlink:href="../../tables/openwater.html" xlink:title="openwater" target="_top">
<polygon fill="#ffffff" stroke="transparent" points="275,-38.2 275,-231.2 516,-231.2 516,-38.2 275,-38.2"/>
<polygon fill="#f5f5f5" stroke="transparent" points="275.5,-207.7 275.5,-230.7 516.5,-230.7 516.5,-207.7 275.5,-207.7"/>
<polygon fill="none" stroke="#000000" points="275.5,-207.7 275.5,-230.7 516.5,-230.7 516.5,-207.7 275.5,-207.7"/>
<text text-anchor="start" x="280.5" y="-216.3" font-family="Helvetica,sans-Serif" font-weight="bold" font-size="11.00" fill="#000000">openwater</text>
<text text-anchor="start" x="481.5437" y="-215.8" font-family="Helvetica,sans-Serif" font-size="11.00" fill="#000000">[table]</text>
<polygon fill="none" stroke="#000000" points="275.5,-185.7 275.5,-207.7 516.5,-207.7 516.5,-185.7 275.5,-185.7"/>
<image xlink:href="../../images/primaryKeys.png" width="11px" height="12px" preserveAspectRatio="xMinYMin meet" x="280.5" y="-202.7"/>
<text text-anchor="start" x="295.5" y="-192.8" font-family="Helvetica,sans-Serif" font-size="11.00" fill="#000000">uuid</text>
<polygon fill="#ffffff" stroke="transparent" points="275.5,-163.7 275.5,-185.7 516.5,-185.7 516.5,-163.7 275.5,-163.7"/>
<polygon fill="none" stroke="#000000" points="275.5,-163.7 275.5,-185.7 516.5,-185.7 516.5,-163.7 275.5,-163.7"/>
<text text-anchor="start" x="295.5" y="-170.8" font-family="Helvetica,sans-Serif" font-size="11.00" fill="#000000">geom</text>
<polygon fill="none" stroke="#000000" points="275.5,-141.7 275.5,-163.7 516.5,-163.7 516.5,-141.7 275.5,-141.7"/>
<image xlink:href="../../images/foreignKeys.png" width="11px" height="12px" preserveAspectRatio="xMinYMin meet" x="280.5" y="-158.7"/>
<text text-anchor="start" x="295.5" y="-148.8" font-family="Helvetica,sans-Serif" font-size="11.00" fill="#000000">fase_id</text>
<polygon fill="none" stroke="#000000" points="275.5,-119.7 275.5,-141.7 516.5,-141.7 516.5,-119.7 275.5,-119.7"/>
<image xlink:href="../../images/foreignKeys.png" width="11px" height="12px" preserveAspectRatio="xMinYMin meet" x="280.5" y="-136.7"/>
<text text-anchor="start" x="295.5" y="-126.8" font-family="Helvetica,sans-Serif" font-size="11.00" fill="#000000">symbool_id</text>
<polygon fill="none" stroke="#000000" points="275.5,-97.7 275.5,-119.7 516.5,-119.7 516.5,-97.7 275.5,-97.7"/>
<image xlink:href="../../images/foreignKeys.png" width="11px" height="12px" preserveAspectRatio="xMinYMin meet" x="280.5" y="-114.7"/>
<text text-anchor="start" x="295.5" y="-104.8" font-family="Helvetica,sans-Serif" font-size="11.00" fill="#000000">gebied_id</text>
<polygon fill="none" stroke="#000000" points="275.5,-75.7 275.5,-97.7 516.5,-97.7 516.5,-75.7 275.5,-75.7"/>
<image xlink:href="../../images/foreignKeys.png" width="11px" height="12px" preserveAspectRatio="xMinYMin meet" x="280.5" y="-92.7"/>
<text text-anchor="start" x="295.5" y="-82.8" font-family="Helvetica,sans-Serif" font-size="11.00" fill="#000000">inspectie_conditie_id</text>
<polygon fill="none" stroke="#000000" points="275.5,-56.7 275.5,-75.7 516.5,-75.7 516.5,-56.7 275.5,-56.7"/>
<text text-anchor="start" x="278.5" y="-62.8" font-family="Helvetica,sans-Serif" font-size="11.00" fill="#000000">...</text>
<polygon fill="#ffffff" stroke="transparent" points="275.5,-37.7 275.5,-56.7 394.5,-56.7 394.5,-37.7 275.5,-37.7"/>
<polygon fill="none" stroke="#000000" points="275.5,-37.7 275.5,-56.7 394.5,-56.7 394.5,-37.7 275.5,-37.7"/>
<text text-anchor="start" x="278.5" y="-43.8" font-family="Helvetica,sans-Serif" font-size="11.00" fill="#000000">&lt; 4</text>
<polygon fill="#ffffff" stroke="transparent" points="394.5,-37.7 394.5,-56.7 455.5,-56.7 455.5,-37.7 394.5,-37.7"/>
<polygon fill="none" stroke="#000000" points="394.5,-37.7 394.5,-56.7 455.5,-56.7 455.5,-37.7 394.5,-37.7"/>
<text text-anchor="start" x="446.3862" y="-43.8" font-family="Helvetica,sans-Serif" font-size="11.00" fill="#000000"> &#160;</text>
<polygon fill="#ffffff" stroke="transparent" points="455.5,-37.7 455.5,-56.7 516.5,-56.7 516.5,-37.7 455.5,-37.7"/>
<polygon fill="none" stroke="#000000" points="455.5,-37.7 455.5,-56.7 516.5,-56.7 516.5,-37.7 455.5,-37.7"/>
<text text-anchor="start" x="507.3862" y="-43.8" font-family="Helvetica,sans-Serif" font-size="11.00" fill="#000000"> &#160;</text>
</a>
</g>
</g>
<!-- openwater&#45;&gt;gebied -->
<g id="edge5" class="edge">
<title>openwater:w&#45;&gt;gebied:e</title>
<path fill="none" stroke="#000000" d="M261.4066,-112.6637C194.8161,-155.8113 314.3712,-536.7 224,-536.7"/>
<polygon fill="#000000" stroke="#000000" points="267.7988,-110.866 276.4747,-112.1655 271.6494,-109.783 275.5,-108.7 275.5,-108.7 275.5,-108.7 271.6494,-109.783 274.5253,-105.2345 267.7988,-110.866 267.7988,-110.866"/>
<ellipse fill="none" stroke="#000000" cx="264.7183" cy="-111.7324" rx="3.2" ry="3.2"/>
</g>
</g>
</svg>
