<?xml version="1.0" encoding="UTF-8" standalone="no"?>
<!DOCTYPE svg PUBLIC "-//W3C//DTD SVG 1.1//EN"
 "http://www.w3.org/Graphics/SVG/1.1/DTD/svg11.dtd">
<!-- Generated by graphviz version 2.50.0 (0)
 -->
<!-- Title: twoDegreesRelationshipsDiagram Pages: 1 -->
<svg width="562pt" height="1105pt"
 viewBox="0.00 0.00 562.00 1105.00" xmlns="http://www.w3.org/2000/svg" xmlns:xlink="http://www.w3.org/1999/xlink">
<g id="graph0" class="graph" transform="scale(1 1) rotate(0) translate(4 1101)">
<title>twoDegreesRelationshipsDiagram</title>
<polygon fill="#ffffff" stroke="transparent" points="-4,4 -4,-1101 558,-1101 558,4 -4,4"/>
<text text-anchor="middle" x="79.5" y="-7.2" font-family="Helvetica,sans-Serif" font-size="11.00">Generated by SchemaSpy</text>
<!-- bluswaterriool -->
<g id="node1" class="node">
<title>bluswaterriool</title>
<g id="a_node1"><a xlink:href="../../tables/bluswaterriool.html" xlink:title="bluswaterriool" target="_top">
<polygon fill="#ffffff" stroke="transparent" points="334.5,-692 334.5,-882 506.5,-882 506.5,-692 334.5,-692"/>
<polygon fill="#f5f5f5" stroke="transparent" points="334.5,-860 334.5,-882 506.5,-882 506.5,-860 334.5,-860"/>
<polygon fill="none" stroke="black" points="334.5,-860 334.5,-882 506.5,-882 506.5,-860 334.5,-860"/>
<text text-anchor="start" x="339.5" y="-869.2" font-family="Helvetica,sans-Serif" font-weight="bold" font-size="11.00">bluswaterriool</text>
<text text-anchor="start" x="464.5" y="-868.2" font-family="Helvetica,sans-Serif" font-size="11.00">[table]</text>
<polygon fill="none" stroke="black" points="334.5,-838 334.5,-860 506.5,-860 506.5,-838 334.5,-838"/>
<image xlink:href="../../images/primaryKeys.png" width="11px" height="12px" preserveAspectRatio="xMinYMin meet" x="339.5" y="-855"/>
<text text-anchor="start" x="354.5" y="-846.2" font-family="Helvetica,sans-Serif" font-size="11.00">uuid</text>
<polygon fill="#ffffff" stroke="transparent" points="334.5,-816 334.5,-838 506.5,-838 506.5,-816 334.5,-816"/>
<polygon fill="none" stroke="black" points="334.5,-816 334.5,-838 506.5,-838 506.5,-816 334.5,-816"/>
<text text-anchor="start" x="354.5" y="-824.2" font-family="Helvetica,sans-Serif" font-size="11.00">geom</text>
<polygon fill="none" stroke="black" points="334.5,-794 334.5,-816 506.5,-816 506.5,-794 334.5,-794"/>
<image xlink:href="../../images/foreignKeys.png" width="11px" height="12px" preserveAspectRatio="xMinYMin meet" x="339.5" y="-811"/>
<text text-anchor="start" x="354.5" y="-802.2" font-family="Helvetica,sans-Serif" font-size="11.00">fase_id</text>
<polygon fill="none" stroke="black" points="334.5,-772 334.5,-794 506.5,-794 506.5,-772 334.5,-772"/>
<image xlink:href="../../images/foreignKeys.png" width="11px" height="12px" preserveAspectRatio="xMinYMin meet" x="339.5" y="-789"/>
<text text-anchor="start" x="354.5" y="-780.2" font-family="Helvetica,sans-Serif" font-size="11.00">symbool_id</text>
<polygon fill="none" stroke="black" points="334.5,-750 334.5,-772 506.5,-772 506.5,-750 334.5,-750"/>
<image xlink:href="../../images/foreignKeys.png" width="11px" height="12px" preserveAspectRatio="xMinYMin meet" x="339.5" y="-767"/>
<text text-anchor="start" x="354.5" y="-758.2" font-family="Helvetica,sans-Serif" font-size="11.00">gebied_id</text>
<polygon fill="none" stroke="black" points="334.5,-728 334.5,-750 506.5,-750 506.5,-728 334.5,-728"/>
<image xlink:href="../../images/foreignKeys.png" width="11px" height="12px" preserveAspectRatio="xMinYMin meet" x="339.5" y="-745"/>
<text text-anchor="start" x="354.5" y="-736.2" font-family="Helvetica,sans-Serif" font-size="11.00">inspectie_conditie_id</text>
<polygon fill="none" stroke="black" points="334.5,-710 334.5,-728 506.5,-728 506.5,-710 334.5,-710"/>
<text text-anchor="start" x="337.5" y="-716.2" font-family="Helvetica,sans-Serif" font-size="11.00">...</text>
<polygon fill="#ffffff" stroke="transparent" points="334.5,-692 334.5,-710 419.5,-710 419.5,-692 334.5,-692"/>
<polygon fill="none" stroke="black" points="334.5,-692 334.5,-710 419.5,-710 419.5,-692 334.5,-692"/>
<text text-anchor="start" x="337.5" y="-698.2" font-family="Helvetica,sans-Serif" font-size="11.00">&lt; 4</text>
<polygon fill="#ffffff" stroke="transparent" points="419.5,-692 419.5,-710 462.5,-710 462.5,-692 419.5,-692"/>
<polygon fill="none" stroke="black" points="419.5,-692 419.5,-710 462.5,-710 462.5,-692 419.5,-692"/>
<text text-anchor="start" x="451.5" y="-698.2" font-family="Helvetica,sans-Serif" font-size="11.00"> &#160;</text>
<polygon fill="#ffffff" stroke="transparent" points="462.5,-692 462.5,-710 506.5,-710 506.5,-692 462.5,-692"/>
<polygon fill="none" stroke="black" points="462.5,-692 462.5,-710 506.5,-710 506.5,-692 462.5,-692"/>
<text text-anchor="start" x="495.5" y="-698.2" font-family="Helvetica,sans-Serif" font-size="11.00"> &#160;</text>
</a>
</g>
</g>
<!-- roi.fase -->
<g id="node2" class="node">
<title>roi.fase</title>
<g id="a_node2"><a xlink:href="../../../roi/tables/fase.html" xlink:title="roi.fase" target="_top">
<polygon fill="#ffffff" stroke="transparent" points="77.5,-632 77.5,-690 176.5,-690 176.5,-632 77.5,-632"/>
<polygon fill="#f5f5f5" stroke="transparent" points="78,-668 78,-690 177,-690 177,-668 78,-668"/>
<polygon fill="none" stroke="black" points="78,-668 78,-690 177,-690 177,-668 78,-668"/>
<text text-anchor="start" x="83" y="-677.2" font-family="Helvetica,sans-Serif" font-weight="bold" font-size="11.00">roi.fase</text>
<text text-anchor="start" x="135" y="-676.2" font-family="Helvetica,sans-Serif" font-size="11.00">[table]</text>
<polygon fill="none" stroke="black" points="78,-650 78,-668 177,-668 177,-650 78,-650"/>
<text text-anchor="start" x="81" y="-656.2" font-family="Helvetica,sans-Serif" font-size="11.00">...</text>
<polygon fill="#ffffff" stroke="transparent" points="78,-632 78,-650 114,-650 114,-632 78,-632"/>
<polygon fill="none" stroke="black" points="78,-632 78,-650 114,-650 114,-632 78,-632"/>
<text text-anchor="start" x="81" y="-638.2" font-family="Helvetica,sans-Serif" font-size="11.00"> &#160;</text>
<polygon fill="#ffffff" stroke="transparent" points="114,-632 114,-650 139,-650 139,-632 114,-632"/>
<polygon fill="none" stroke="black" points="114,-632 114,-650 139,-650 139,-632 114,-632"/>
<text text-anchor="start" x="128" y="-638.2" font-family="Helvetica,sans-Serif" font-size="11.00"> &#160;</text>
<polygon fill="#ffffff" stroke="transparent" points="139,-632 139,-650 177,-650 177,-632 139,-632"/>
<polygon fill="none" stroke="black" points="139,-632 139,-650 177,-650 177,-632 139,-632"/>
<text text-anchor="start" x="154" y="-638.2" font-family="Helvetica,sans-Serif" font-size="11.00">5 &gt;</text>
</a>
</g>
</g>
<!-- bluswaterriool&#45;&gt;roi.fase -->
<g id="edge1" class="edge">
<title>bluswaterriool:w&#45;&gt;roi.fase:e</title>
<path fill="none" stroke="black" d="M319.06,-803.74C242.04,-789.47 267.61,-659 178,-659"/>
<polygon fill="black" stroke="black" points="325.53,-804.3 333.19,-808.59 329.52,-804.65 333.5,-805 333.5,-805 333.5,-805 329.52,-804.65 333.81,-801.41 325.53,-804.3 325.53,-804.3"/>
<ellipse fill="none" stroke="black" cx="322.34" cy="-804.02" rx="3.2" ry="3.2"/>
</g>
<!-- gebied -->
<g id="node3" class="node">
<title>gebied</title>
<g id="a_node3"><a xlink:href="../../tables/gebied.html" xlink:title="gebied" target="_top">
<polygon fill="#ffffff" stroke="transparent" points="8,-400 8,-532 246,-532 246,-400 8,-400"/>
<polygon fill="#f5f5f5" stroke="transparent" points="10,-508 10,-530 244,-530 244,-508 10,-508"/>
<polygon fill="none" stroke="black" points="10,-508 10,-530 244,-530 244,-508 10,-508"/>
<text text-anchor="start" x="15" y="-517.2" font-family="Helvetica,sans-Serif" font-weight="bold" font-size="11.00">gebied</text>
<text text-anchor="start" x="202" y="-516.2" font-family="Helvetica,sans-Serif" font-size="11.00">[table]</text>
<polygon fill="none" stroke="black" points="10,-486 10,-508 108,-508 108,-486 10,-486"/>
<image xlink:href="../../images/primaryKeys.png" width="11px" height="12px" preserveAspectRatio="xMinYMin meet" x="15" y="-503"/>
<text text-anchor="start" x="30" y="-494.2" font-family="Helvetica,sans-Serif" font-size="11.00">id</text>
<polygon fill="none" stroke="black" points="108,-486 108,-508 244,-508 244,-486 108,-486"/>
<text text-anchor="start" x="111" y="-494.2" font-family="Helvetica,sans-Serif" font-size="11.00">int2[5]</text>
<polygon fill="none" stroke="black" points="10,-464 10,-486 108,-486 108,-464 10,-464"/>
<text text-anchor="start" x="30" y="-472.2" font-family="Helvetica,sans-Serif" font-size="11.00">naam</text>
<polygon fill="none" stroke="black" points="108,-464 108,-486 244,-486 244,-464 108,-464"/>
<text text-anchor="start" x="111" y="-472.2" font-family="Helvetica,sans-Serif" font-size="11.00">text[2147483647]</text>
<polygon fill="none" stroke="black" points="10,-442 10,-464 108,-464 108,-442 10,-442"/>
<text text-anchor="start" x="30" y="-450.2" font-family="Helvetica,sans-Serif" font-size="11.00">omschrijving</text>
<polygon fill="none" stroke="black" points="108,-442 108,-464 244,-464 244,-442 108,-442"/>
<text text-anchor="start" x="111" y="-450.2" font-family="Helvetica,sans-Serif" font-size="11.00">text[2147483647]</text>
<polygon fill="none" stroke="black" points="10,-420 10,-442 108,-442 108,-420 10,-420"/>
<text text-anchor="start" x="30" y="-428.2" font-family="Helvetica,sans-Serif" font-size="11.00">geom</text>
<polygon fill="none" stroke="black" points="108,-420 108,-442 244,-442 244,-420 108,-420"/>
<text text-anchor="start" x="111" y="-428.2" font-family="Helvetica,sans-Serif" font-size="11.00">geometry[2147483647]</text>
<polygon fill="#ffffff" stroke="transparent" points="10,-402 10,-420 65,-420 65,-402 10,-402"/>
<polygon fill="none" stroke="black" points="10,-402 10,-420 65,-420 65,-402 10,-402"/>
<text text-anchor="start" x="13" y="-408.2" font-family="Helvetica,sans-Serif" font-size="11.00">&lt; 0</text>
<polygon fill="#ffffff" stroke="transparent" points="65,-402 65,-420 108,-420 108,-402 65,-402"/>
<polygon fill="none" stroke="black" points="65,-402 65,-420 108,-420 108,-402 65,-402"/>
<text text-anchor="start" x="97" y="-408.2" font-family="Helvetica,sans-Serif" font-size="11.00"> &#160;</text>
<polygon fill="#ffffff" stroke="transparent" points="108,-402 108,-420 244,-420 244,-402 108,-402"/>
<polygon fill="none" stroke="black" points="108,-402 108,-420 244,-420 244,-402 108,-402"/>
<text text-anchor="start" x="221" y="-408.2" font-family="Helvetica,sans-Serif" font-size="11.00">5 &gt;</text>
<polygon fill="none" stroke="black" stroke-width="2" points="9,-401 9,-531 245,-531 245,-401 9,-401"/>
</a>
</g>
</g>
<!-- bluswaterriool&#45;&gt;gebied -->
<g id="edge2" class="edge">
<title>bluswaterriool:w&#45;&gt;gebied:e</title>
<path fill="none" stroke="black" d="M319.07,-758.68C294.88,-749.5 299.91,-714.55 287,-682 271.46,-642.81 287.16,-497 245,-497"/>
<polygon fill="black" stroke="black" points="325.6,-759.73 332.93,-764.55 329.55,-760.37 333.5,-761 333.5,-761 333.5,-761 329.55,-760.37 334.07,-757.45 325.6,-759.73 325.6,-759.73"/>
<ellipse fill="none" stroke="black" cx="322.44" cy="-759.22" rx="3.2" ry="3.2"/>
</g>
<!-- conditie -->
<g id="node4" class="node">
<title>conditie</title>
<g id="a_node4"><a xlink:href="../../tables/conditie.html" xlink:title="conditie" target="_top">
<polygon fill="#ffffff" stroke="transparent" points="76.5,-321 76.5,-379 177.5,-379 177.5,-321 76.5,-321"/>
<polygon fill="#f5f5f5" stroke="transparent" points="77,-357 77,-379 178,-379 178,-357 77,-357"/>
<polygon fill="none" stroke="black" points="77,-357 77,-379 178,-379 178,-357 77,-357"/>
<text text-anchor="start" x="82" y="-366.2" font-family="Helvetica,sans-Serif" font-weight="bold" font-size="11.00">conditie</text>
<text text-anchor="start" x="136" y="-365.2" font-family="Helvetica,sans-Serif" font-size="11.00">[table]</text>
<polygon fill="none" stroke="black" points="77,-339 77,-357 178,-357 178,-339 77,-339"/>
<text text-anchor="start" x="80" y="-345.2" font-family="Helvetica,sans-Serif" font-size="11.00">...</text>
<polygon fill="#ffffff" stroke="transparent" points="77,-321 77,-339 114,-339 114,-321 77,-321"/>
<polygon fill="none" stroke="black" points="77,-321 77,-339 114,-339 114,-321 77,-321"/>
<text text-anchor="start" x="80" y="-327.2" font-family="Helvetica,sans-Serif" font-size="11.00"> &#160;</text>
<polygon fill="#ffffff" stroke="transparent" points="114,-321 114,-339 140,-339 140,-321 114,-321"/>
<polygon fill="none" stroke="black" points="114,-321 114,-339 140,-339 140,-321 114,-321"/>
<text text-anchor="start" x="129" y="-327.2" font-family="Helvetica,sans-Serif" font-size="11.00"> &#160;</text>
<polygon fill="#ffffff" stroke="transparent" points="140,-321 140,-339 178,-339 178,-321 140,-321"/>
<polygon fill="none" stroke="black" points="140,-321 140,-339 178,-339 178,-321 140,-321"/>
<text text-anchor="start" x="155" y="-327.2" font-family="Helvetica,sans-Serif" font-size="11.00">5 &gt;</text>
</a>
</g>
</g>
<!-- bluswaterriool&#45;&gt;conditie -->
<g id="edge3" class="edge">
<title>bluswaterriool:w&#45;&gt;conditie:e</title>
<path fill="none" stroke="black" d="M319.22,-736.74C300.08,-729.67 297.5,-706.95 287,-682 236.33,-561.63 326.27,-498.78 254,-390 232.86,-358.18 217.2,-348 179,-348"/>
<polygon fill="black" stroke="black" points="325.6,-737.75 332.94,-742.56 329.55,-738.37 333.5,-739 333.5,-739 333.5,-739 329.55,-738.37 334.06,-735.44 325.6,-737.75 325.6,-737.75"/>
<ellipse fill="none" stroke="black" cx="322.44" cy="-737.25" rx="3.2" ry="3.2"/>
</g>
<!-- roi.symbool -->
<g id="node5" class="node">
<title>roi.symbool</title>
<g id="a_node5"><a xlink:href="../../../roi/tables/symbool.html" xlink:title="roi.symbool" target="_top">
<polygon fill="#ffffff" stroke="transparent" points="65,-553 65,-611 189,-611 189,-553 65,-553"/>
<polygon fill="#f5f5f5" stroke="transparent" points="65,-589 65,-611 189,-611 189,-589 65,-589"/>
<polygon fill="none" stroke="black" points="65,-589 65,-611 189,-611 189,-589 65,-589"/>
<text text-anchor="start" x="70" y="-598.2" font-family="Helvetica,sans-Serif" font-weight="bold" font-size="11.00">roi.symbool</text>
<text text-anchor="start" x="147" y="-597.2" font-family="Helvetica,sans-Serif" font-size="11.00">[table]</text>
<polygon fill="none" stroke="black" points="65,-571 65,-589 189,-589 189,-571 65,-571"/>
<text text-anchor="start" x="68" y="-577.2" font-family="Helvetica,sans-Serif" font-size="11.00">...</text>
<polygon fill="#ffffff" stroke="transparent" points="65,-553 65,-571 114,-571 114,-553 65,-553"/>
<polygon fill="none" stroke="black" points="65,-553 65,-571 114,-571 114,-553 65,-553"/>
<text text-anchor="start" x="68" y="-559.2" font-family="Helvetica,sans-Serif" font-size="11.00"> &#160;</text>
<polygon fill="#ffffff" stroke="transparent" points="114,-553 114,-571 145,-571 145,-553 114,-553"/>
<polygon fill="none" stroke="black" points="114,-553 114,-571 145,-571 145,-553 114,-553"/>
<text text-anchor="start" x="134" y="-559.2" font-family="Helvetica,sans-Serif" font-size="11.00"> &#160;</text>
<polygon fill="#ffffff" stroke="transparent" points="145,-553 145,-571 189,-571 189,-553 145,-553"/>
<polygon fill="none" stroke="black" points="145,-553 145,-571 189,-571 189,-553 145,-553"/>
<text text-anchor="start" x="166" y="-559.2" font-family="Helvetica,sans-Serif" font-size="11.00">5 &gt;</text>
</a>
</g>
</g>
<!-- bluswaterriool&#45;&gt;roi.symbool -->
<g id="edge4" class="edge">
<title>bluswaterriool:w&#45;&gt;roi.symbool:e</title>
<path fill="none" stroke="black" d="M318.92,-781.63C260.47,-769.35 303.27,-677.68 254,-622 231.45,-596.52 224.02,-580 190,-580"/>
<polygon fill="black" stroke="black" points="325.54,-782.25 333.16,-786.58 329.52,-782.62 333.5,-783 333.5,-783 333.5,-783 329.52,-782.62 333.84,-779.42 325.54,-782.25 325.54,-782.25"/>
<ellipse fill="none" stroke="black" cx="322.35" cy="-781.95" rx="3.2" ry="3.2"/>
</g>
<!-- brandkraan -->
<g id="node6" class="node">
<title>brandkraan</title>
<g id="a_node6"><a xlink:href="../../tables/brandkraan.html" xlink:title="brandkraan" target="_top">
<polygon fill="#ffffff" stroke="transparent" points="318,-459 318,-671 523,-671 523,-459 318,-459"/>
<polygon fill="#f5f5f5" stroke="transparent" points="318.5,-649 318.5,-671 523.5,-671 523.5,-649 318.5,-649"/>
<polygon fill="none" stroke="black" points="318.5,-649 318.5,-671 523.5,-671 523.5,-649 318.5,-649"/>
<text text-anchor="start" x="323.5" y="-658.2" font-family="Helvetica,sans-Serif" font-weight="bold" font-size="11.00">brandkraan</text>
<text text-anchor="start" x="481.5" y="-657.2" font-family="Helvetica,sans-Serif" font-size="11.00">[table]</text>
<polygon fill="none" stroke="black" points="318.5,-627 318.5,-649 523.5,-649 523.5,-627 318.5,-627"/>
<image xlink:href="../../images/primaryKeys.png" width="11px" height="12px" preserveAspectRatio="xMinYMin meet" x="323.5" y="-644"/>
<text text-anchor="start" x="338.5" y="-635.2" font-family="Helvetica,sans-Serif" font-size="11.00">uuid</text>
<polygon fill="#ffffff" stroke="transparent" points="318.5,-605 318.5,-627 523.5,-627 523.5,-605 318.5,-605"/>
<polygon fill="none" stroke="black" points="318.5,-605 318.5,-627 523.5,-627 523.5,-605 318.5,-605"/>
<text text-anchor="start" x="338.5" y="-613.2" font-family="Helvetica,sans-Serif" font-size="11.00">geom</text>
<polygon fill="#ffffff" stroke="transparent" points="318.5,-583 318.5,-605 523.5,-605 523.5,-583 318.5,-583"/>
<polygon fill="none" stroke="black" points="318.5,-583 318.5,-605 523.5,-605 523.5,-583 318.5,-583"/>
<text text-anchor="start" x="338.5" y="-591.2" font-family="Helvetica,sans-Serif" font-size="11.00">nen3610id</text>
<polygon fill="none" stroke="black" points="318.5,-561 318.5,-583 523.5,-583 523.5,-561 318.5,-561"/>
<image xlink:href="../../images/foreignKeys.png" width="11px" height="12px" preserveAspectRatio="xMinYMin meet" x="323.5" y="-578"/>
<text text-anchor="start" x="338.5" y="-569.2" font-family="Helvetica,sans-Serif" font-size="11.00">fase_id</text>
<polygon fill="none" stroke="black" points="318.5,-539 318.5,-561 523.5,-561 523.5,-539 318.5,-539"/>
<image xlink:href="../../images/foreignKeys.png" width="11px" height="12px" preserveAspectRatio="xMinYMin meet" x="323.5" y="-556"/>
<text text-anchor="start" x="338.5" y="-547.2" font-family="Helvetica,sans-Serif" font-size="11.00">symbool_id</text>
<polygon fill="none" stroke="black" points="318.5,-517 318.5,-539 523.5,-539 523.5,-517 318.5,-517"/>
<image xlink:href="../../images/foreignKeys.png" width="11px" height="12px" preserveAspectRatio="xMinYMin meet" x="323.5" y="-534"/>
<text text-anchor="start" x="338.5" y="-525.2" font-family="Helvetica,sans-Serif" font-size="11.00">gebied_id</text>
<polygon fill="none" stroke="black" points="318.5,-495 318.5,-517 523.5,-517 523.5,-495 318.5,-495"/>
<image xlink:href="../../images/foreignKeys.png" width="11px" height="12px" preserveAspectRatio="xMinYMin meet" x="323.5" y="-512"/>
<text text-anchor="start" x="338.5" y="-503.2" font-family="Helvetica,sans-Serif" font-size="11.00">inspectie_conditie_id</text>
<polygon fill="none" stroke="black" points="318.5,-477 318.5,-495 523.5,-495 523.5,-477 318.5,-477"/>
<text text-anchor="start" x="321.5" y="-483.2" font-family="Helvetica,sans-Serif" font-size="11.00">...</text>
<polygon fill="#ffffff" stroke="transparent" points="318.5,-459 318.5,-477 419.5,-477 419.5,-459 318.5,-459"/>
<polygon fill="none" stroke="black" points="318.5,-459 318.5,-477 419.5,-477 419.5,-459 318.5,-459"/>
<text text-anchor="start" x="321.5" y="-465.2" font-family="Helvetica,sans-Serif" font-size="11.00">&lt; 4</text>
<polygon fill="#ffffff" stroke="transparent" points="419.5,-459 419.5,-477 471.5,-477 471.5,-459 419.5,-459"/>
<polygon fill="none" stroke="black" points="419.5,-459 419.5,-477 471.5,-477 471.5,-459 419.5,-459"/>
<text text-anchor="start" x="460.5" y="-465.2" font-family="Helvetica,sans-Serif" font-size="11.00"> &#160;</text>
<polygon fill="#ffffff" stroke="transparent" points="471.5,-459 471.5,-477 523.5,-477 523.5,-459 471.5,-459"/>
<polygon fill="none" stroke="black" points="471.5,-459 471.5,-477 523.5,-477 523.5,-459 471.5,-459"/>
<text text-anchor="start" x="512.5" y="-465.2" font-family="Helvetica,sans-Serif" font-size="11.00"> &#160;</text>
</a>
</g>
</g>
<!-- brandkraan&#45;&gt;roi.fase -->
<g id="edge5" class="edge">
<title>brandkraan:w&#45;&gt;roi.fase:e</title>
<path fill="none" stroke="black" d="M303.23,-574.1C281.66,-581.37 279.68,-605.9 254,-622 222.17,-641.96 215.57,-659 178,-659"/>
<polygon fill="black" stroke="black" points="309.59,-573.17 318.02,-575.56 313.54,-572.58 317.5,-572 317.5,-572 317.5,-572 313.54,-572.58 316.98,-568.44 309.59,-573.17 309.59,-573.17"/>
<ellipse fill="none" stroke="black" cx="306.42" cy="-573.63" rx="3.2" ry="3.2"/>
</g>
<!-- brandkraan&#45;&gt;gebied -->
<g id="edge6" class="edge">
<title>brandkraan:w&#45;&gt;gebied:e</title>
<path fill="none" stroke="black" d="M303.21,-525.97C280.91,-519.07 274.57,-497 245,-497"/>
<polygon fill="black" stroke="black" points="309.58,-526.87 316.99,-531.56 313.54,-527.44 317.5,-528 317.5,-528 317.5,-528 313.54,-527.44 318.01,-524.44 309.58,-526.87 309.58,-526.87"/>
<ellipse fill="none" stroke="black" cx="306.41" cy="-526.42" rx="3.2" ry="3.2"/>
</g>
<!-- brandkraan&#45;&gt;conditie -->
<g id="edge7" class="edge">
<title>brandkraan:w&#45;&gt;conditie:e</title>
<path fill="none" stroke="black" d="M302.85,-503.98C265.14,-491.81 291.32,-427.68 254,-390 227.12,-362.86 217.2,-348 179,-348"/>
<polygon fill="black" stroke="black" points="309.58,-504.9 317.01,-509.57 313.54,-505.45 317.5,-506 317.5,-506 317.5,-506 313.54,-505.45 317.99,-502.43 309.58,-504.9 309.58,-504.9"/>
<ellipse fill="none" stroke="black" cx="306.41" cy="-504.47" rx="3.2" ry="3.2"/>
</g>
<!-- brandkraan&#45;&gt;roi.symbool -->
<g id="edge8" class="edge">
<title>brandkraan:w&#45;&gt;roi.symbool:e</title>
<path fill="none" stroke="black" d="M302.88,-550.68C256.92,-555.15 242.98,-580 190,-580"/>
<polygon fill="black" stroke="black" points="309.51,-550.37 317.67,-553.6 313.5,-550.19 317.5,-550 317.5,-550 317.5,-550 313.5,-550.19 317.33,-546.4 309.51,-550.37 309.51,-550.37"/>
<ellipse fill="none" stroke="black" cx="306.31" cy="-550.52" rx="3.2" ry="3.2"/>
</g>
<!-- brandkraan_prive -->
<g id="node7" class="node">
<title>brandkraan_prive</title>
<g id="a_node7"><a xlink:href="../../tables/brandkraan_prive.html" xlink:title="brandkraan_prive" target="_top">
<polygon fill="#ffffff" stroke="transparent" points="318,-248 318,-438 523,-438 523,-248 318,-248"/>
<polygon fill="#f5f5f5" stroke="transparent" points="318.5,-416 318.5,-438 523.5,-438 523.5,-416 318.5,-416"/>
<polygon fill="none" stroke="black" points="318.5,-416 318.5,-438 523.5,-438 523.5,-416 318.5,-416"/>
<text text-anchor="start" x="323.5" y="-425.2" font-family="Helvetica,sans-Serif" font-weight="bold" font-size="11.00">brandkraan_prive</text>
<text text-anchor="start" x="481.5" y="-424.2" font-family="Helvetica,sans-Serif" font-size="11.00">[table]</text>
<polygon fill="none" stroke="black" points="318.5,-394 318.5,-416 523.5,-416 523.5,-394 318.5,-394"/>
<image xlink:href="../../images/primaryKeys.png" width="11px" height="12px" preserveAspectRatio="xMinYMin meet" x="323.5" y="-411"/>
<text text-anchor="start" x="338.5" y="-402.2" font-family="Helvetica,sans-Serif" font-size="11.00">uuid</text>
<polygon fill="#ffffff" stroke="transparent" points="318.5,-372 318.5,-394 523.5,-394 523.5,-372 318.5,-372"/>
<polygon fill="none" stroke="black" points="318.5,-372 318.5,-394 523.5,-394 523.5,-372 318.5,-372"/>
<text text-anchor="start" x="338.5" y="-380.2" font-family="Helvetica,sans-Serif" font-size="11.00">geom</text>
<polygon fill="none" stroke="black" points="318.5,-350 318.5,-372 523.5,-372 523.5,-350 318.5,-350"/>
<image xlink:href="../../images/foreignKeys.png" width="11px" height="12px" preserveAspectRatio="xMinYMin meet" x="323.5" y="-367"/>
<text text-anchor="start" x="338.5" y="-358.2" font-family="Helvetica,sans-Serif" font-size="11.00">fase_id</text>
<polygon fill="none" stroke="black" points="318.5,-328 318.5,-350 523.5,-350 523.5,-328 318.5,-328"/>
<image xlink:href="../../images/foreignKeys.png" width="11px" height="12px" preserveAspectRatio="xMinYMin meet" x="323.5" y="-345"/>
<text text-anchor="start" x="338.5" y="-336.2" font-family="Helvetica,sans-Serif" font-size="11.00">symbool_id</text>
<polygon fill="none" stroke="black" points="318.5,-306 318.5,-328 523.5,-328 523.5,-306 318.5,-306"/>
<image xlink:href="../../images/foreignKeys.png" width="11px" height="12px" preserveAspectRatio="xMinYMin meet" x="323.5" y="-323"/>
<text text-anchor="start" x="338.5" y="-314.2" font-family="Helvetica,sans-Serif" font-size="11.00">gebied_id</text>
<polygon fill="none" stroke="black" points="318.5,-284 318.5,-306 523.5,-306 523.5,-284 318.5,-284"/>
<image xlink:href="../../images/foreignKeys.png" width="11px" height="12px" preserveAspectRatio="xMinYMin meet" x="323.5" y="-301"/>
<text text-anchor="start" x="338.5" y="-292.2" font-family="Helvetica,sans-Serif" font-size="11.00">inspectie_conditie_id</text>
<polygon fill="none" stroke="black" points="318.5,-266 318.5,-284 523.5,-284 523.5,-266 318.5,-266"/>
<text text-anchor="start" x="321.5" y="-272.2" font-family="Helvetica,sans-Serif" font-size="11.00">...</text>
<polygon fill="#ffffff" stroke="transparent" points="318.5,-248 318.5,-266 419.5,-266 419.5,-248 318.5,-248"/>
<polygon fill="none" stroke="black" points="318.5,-248 318.5,-266 419.5,-266 419.5,-248 318.5,-248"/>
<text text-anchor="start" x="321.5" y="-254.2" font-family="Helvetica,sans-Serif" font-size="11.00">&lt; 4</text>
<polygon fill="#ffffff" stroke="transparent" points="419.5,-248 419.5,-266 471.5,-266 471.5,-248 419.5,-248"/>
<polygon fill="none" stroke="black" points="419.5,-248 419.5,-266 471.5,-266 471.5,-248 419.5,-248"/>
<text text-anchor="start" x="460.5" y="-254.2" font-family="Helvetica,sans-Serif" font-size="11.00"> &#160;</text>
<polygon fill="#ffffff" stroke="transparent" points="471.5,-248 471.5,-266 523.5,-266 523.5,-248 471.5,-248"/>
<polygon fill="none" stroke="black" points="471.5,-248 471.5,-266 523.5,-266 523.5,-248 471.5,-248"/>
<text text-anchor="start" x="512.5" y="-254.2" font-family="Helvetica,sans-Serif" font-size="11.00"> &#160;</text>
</a>
</g>
</g>
<!-- brandkraan_prive&#45;&gt;roi.fase -->
<g id="edge9" class="edge">
<title>brandkraan_prive:w&#45;&gt;roi.fase:e</title>
<path fill="none" stroke="black" d="M303.21,-363.84C281.67,-374.71 296.14,-414.79 287,-449 266.8,-524.62 301.56,-559.83 254,-622 231.17,-651.84 215.57,-659 178,-659"/>
<polygon fill="black" stroke="black" points="309.65,-362.56 318.2,-364.53 313.58,-361.78 317.5,-361 317.5,-361 317.5,-361 313.58,-361.78 316.8,-357.47 309.65,-362.56 309.65,-362.56"/>
<ellipse fill="none" stroke="black" cx="306.51" cy="-363.18" rx="3.2" ry="3.2"/>
</g>
<!-- brandkraan_prive&#45;&gt;gebied -->
<g id="edge10" class="edge">
<title>brandkraan_prive:w&#45;&gt;gebied:e</title>
<path fill="none" stroke="black" d="M303.04,-319.15C243.37,-339.46 325.69,-497 245,-497"/>
<polygon fill="black" stroke="black" points="309.59,-318.18 318.03,-320.56 313.54,-317.59 317.5,-317 317.5,-317 317.5,-317 313.54,-317.59 316.97,-313.44 309.59,-318.18 309.59,-318.18"/>
<ellipse fill="none" stroke="black" cx="306.42" cy="-318.65" rx="3.2" ry="3.2"/>
</g>
<!-- brandkraan_prive&#45;&gt;conditie -->
<g id="edge11" class="edge">
<title>brandkraan_prive:w&#45;&gt;conditie:e</title>
<path fill="none" stroke="black" d="M303.08,-295.92C250.19,-302.96 239.76,-348 179,-348"/>
<polygon fill="black" stroke="black" points="309.52,-295.51 317.73,-298.59 313.51,-295.25 317.5,-295 317.5,-295 317.5,-295 313.51,-295.25 317.27,-291.41 309.52,-295.51 309.52,-295.51"/>
<ellipse fill="none" stroke="black" cx="306.32" cy="-295.71" rx="3.2" ry="3.2"/>
</g>
<!-- brandkraan_prive&#45;&gt;roi.symbool -->
<g id="edge12" class="edge">
<title>brandkraan_prive:w&#45;&gt;roi.symbool:e</title>
<path fill="none" stroke="black" d="M303.09,-340.22C232.34,-353.53 309.92,-473.02 254,-543 233.49,-568.67 222.86,-580 190,-580"/>
<polygon fill="black" stroke="black" points="309.53,-339.67 317.8,-342.59 313.51,-339.34 317.5,-339 317.5,-339 317.5,-339 313.51,-339.34 317.2,-335.41 309.53,-339.67 309.53,-339.67"/>
<ellipse fill="none" stroke="black" cx="306.34" cy="-339.94" rx="3.2" ry="3.2"/>
</g>
<!-- brandput -->
<g id="node8" class="node">
<title>brandput</title>
<g id="a_node8"><a xlink:href="../../tables/brandput.html" xlink:title="brandput" target="_top">
<polygon fill="#ffffff" stroke="transparent" points="326,-37 326,-227 515,-227 515,-37 326,-37"/>
<polygon fill="#f5f5f5" stroke="transparent" points="326.5,-205 326.5,-227 515.5,-227 515.5,-205 326.5,-205"/>
<polygon fill="none" stroke="black" points="326.5,-205 326.5,-227 515.5,-227 515.5,-205 326.5,-205"/>
<text text-anchor="start" x="331.5" y="-214.2" font-family="Helvetica,sans-Serif" font-weight="bold" font-size="11.00">brandput</text>
<text text-anchor="start" x="473.5" y="-213.2" font-family="Helvetica,sans-Serif" font-size="11.00">[table]</text>
<polygon fill="none" stroke="black" points="326.5,-183 326.5,-205 515.5,-205 515.5,-183 326.5,-183"/>
<image xlink:href="../../images/primaryKeys.png" width="11px" height="12px" preserveAspectRatio="xMinYMin meet" x="331.5" y="-200"/>
<text text-anchor="start" x="346.5" y="-191.2" font-family="Helvetica,sans-Serif" font-size="11.00">uuid</text>
<polygon fill="#ffffff" stroke="transparent" points="326.5,-161 326.5,-183 515.5,-183 515.5,-161 326.5,-161"/>
<polygon fill="none" stroke="black" points="326.5,-161 326.5,-183 515.5,-183 515.5,-161 326.5,-161"/>
<text text-anchor="start" x="346.5" y="-169.2" font-family="Helvetica,sans-Serif" font-size="11.00">geom</text>
<polygon fill="none" stroke="black" points="326.5,-139 326.5,-161 515.5,-161 515.5,-139 326.5,-139"/>
<image xlink:href="../../images/foreignKeys.png" width="11px" height="12px" preserveAspectRatio="xMinYMin meet" x="331.5" y="-156"/>
<text text-anchor="start" x="346.5" y="-147.2" font-family="Helvetica,sans-Serif" font-size="11.00">fase_id</text>
<polygon fill="none" stroke="black" points="326.5,-117 326.5,-139 515.5,-139 515.5,-117 326.5,-117"/>
<image xlink:href="../../images/foreignKeys.png" width="11px" height="12px" preserveAspectRatio="xMinYMin meet" x="331.5" y="-134"/>
<text text-anchor="start" x="346.5" y="-125.2" font-family="Helvetica,sans-Serif" font-size="11.00">symbool_id</text>
<polygon fill="none" stroke="black" points="326.5,-95 326.5,-117 515.5,-117 515.5,-95 326.5,-95"/>
<image xlink:href="../../images/foreignKeys.png" width="11px" height="12px" preserveAspectRatio="xMinYMin meet" x="331.5" y="-112"/>
<text text-anchor="start" x="346.5" y="-103.2" font-family="Helvetica,sans-Serif" font-size="11.00">gebied_id</text>
<polygon fill="none" stroke="black" points="326.5,-73 326.5,-95 515.5,-95 515.5,-73 326.5,-73"/>
<image xlink:href="../../images/foreignKeys.png" width="11px" height="12px" preserveAspectRatio="xMinYMin meet" x="331.5" y="-90"/>
<text text-anchor="start" x="346.5" y="-81.2" font-family="Helvetica,sans-Serif" font-size="11.00">inspectie_conditie_id</text>
<polygon fill="none" stroke="black" points="326.5,-55 326.5,-73 515.5,-73 515.5,-55 326.5,-55"/>
<text text-anchor="start" x="329.5" y="-61.2" font-family="Helvetica,sans-Serif" font-size="11.00">...</text>
<polygon fill="#ffffff" stroke="transparent" points="326.5,-37 326.5,-55 419.5,-55 419.5,-37 326.5,-37"/>
<polygon fill="none" stroke="black" points="326.5,-37 326.5,-55 419.5,-55 419.5,-37 326.5,-37"/>
<text text-anchor="start" x="329.5" y="-43.2" font-family="Helvetica,sans-Serif" font-size="11.00">&lt; 4</text>
<polygon fill="#ffffff" stroke="transparent" points="419.5,-37 419.5,-55 467.5,-55 467.5,-37 419.5,-37"/>
<polygon fill="none" stroke="black" points="419.5,-37 419.5,-55 467.5,-55 467.5,-37 419.5,-37"/>
<text text-anchor="start" x="456.5" y="-43.2" font-family="Helvetica,sans-Serif" font-size="11.00"> &#160;</text>
<polygon fill="#ffffff" stroke="transparent" points="467.5,-37 467.5,-55 515.5,-55 515.5,-37 467.5,-37"/>
<polygon fill="none" stroke="black" points="467.5,-37 467.5,-55 515.5,-55 515.5,-37 467.5,-37"/>
<text text-anchor="start" x="504.5" y="-43.2" font-family="Helvetica,sans-Serif" font-size="11.00"> &#160;</text>
</a>
</g>
</g>
<!-- brandput&#45;&gt;roi.fase -->
<g id="edge13" class="edge">
<title>brandput:w&#45;&gt;roi.fase:e</title>
<path fill="none" stroke="black" d="M311.12,-152.45C286.66,-162.49 296.07,-201.64 287,-237 265.67,-320.18 302.6,-551.21 254,-622 232.74,-652.97 215.57,-659 178,-659"/>
<polygon fill="black" stroke="black" points="317.61,-151.34 326.11,-153.55 321.56,-150.67 325.5,-150 325.5,-150 325.5,-150 321.56,-150.67 324.89,-146.45 317.61,-151.34 317.61,-151.34"/>
<ellipse fill="none" stroke="black" cx="314.46" cy="-151.88" rx="3.2" ry="3.2"/>
</g>
<!-- brandput&#45;&gt;gebied -->
<g id="edge14" class="edge">
<title>brandput:w&#45;&gt;gebied:e</title>
<path fill="none" stroke="black" d="M311.35,-110.13C247.84,-151.91 328.34,-497 245,-497"/>
<polygon fill="black" stroke="black" points="317.82,-108.24 326.51,-109.46 321.66,-107.12 325.5,-106 325.5,-106 325.5,-106 321.66,-107.12 324.49,-102.54 317.82,-108.24 317.82,-108.24"/>
<ellipse fill="none" stroke="black" cx="314.75" cy="-109.13" rx="3.2" ry="3.2"/>
</g>
<!-- brandput&#45;&gt;conditie -->
<g id="edge15" class="edge">
<title>brandput:w&#45;&gt;conditie:e</title>
<path fill="none" stroke="black" d="M310.92,-85.18C200.44,-104.22 307.95,-348 179,-348"/>
<polygon fill="black" stroke="black" points="317.53,-84.64 325.79,-87.59 321.51,-84.32 325.5,-84 325.5,-84 325.5,-84 321.51,-84.32 325.21,-80.41 317.53,-84.64 317.53,-84.64"/>
<ellipse fill="none" stroke="black" cx="314.34" cy="-84.9" rx="3.2" ry="3.2"/>
</g>
<!-- brandput&#45;&gt;roi.symbool -->
<g id="edge16" class="edge">
<title>brandput:w&#45;&gt;roi.symbool:e</title>
<path fill="none" stroke="black" d="M311.21,-130.03C279,-140.78 297.14,-192.38 287,-237 251.89,-391.48 348.42,-580 190,-580"/>
<polygon fill="black" stroke="black" points="317.58,-129.12 326.01,-131.56 321.54,-128.56 325.5,-128 325.5,-128 325.5,-128 321.54,-128.56 324.99,-124.44 317.58,-129.12 317.58,-129.12"/>
<ellipse fill="none" stroke="black" cx="314.41" cy="-129.57" rx="3.2" ry="3.2"/>
</g>
<!-- openwater -->
<g id="node9" class="node">
<title>openwater</title>
<g id="a_node9"><a xlink:href="../../tables/openwater.html" xlink:title="openwater" target="_top">
<polygon fill="#ffffff" stroke="transparent" points="295,-903 295,-1093 546,-1093 546,-903 295,-903"/>
<polygon fill="#f5f5f5" stroke="transparent" points="295.5,-1071 295.5,-1093 546.5,-1093 546.5,-1071 295.5,-1071"/>
<polygon fill="none" stroke="black" points="295.5,-1071 295.5,-1093 546.5,-1093 546.5,-1071 295.5,-1071"/>
<text text-anchor="start" x="300.5" y="-1080.2" font-family="Helvetica,sans-Serif" font-weight="bold" font-size="11.00">openwater</text>
<text text-anchor="start" x="504.5" y="-1079.2" font-family="Helvetica,sans-Serif" font-size="11.00">[table]</text>
<polygon fill="none" stroke="black" points="295.5,-1049 295.5,-1071 546.5,-1071 546.5,-1049 295.5,-1049"/>
<image xlink:href="../../images/primaryKeys.png" width="11px" height="12px" preserveAspectRatio="xMinYMin meet" x="300.5" y="-1066"/>
<text text-anchor="start" x="315.5" y="-1057.2" font-family="Helvetica,sans-Serif" font-size="11.00">uuid</text>
<polygon fill="#ffffff" stroke="transparent" points="295.5,-1027 295.5,-1049 546.5,-1049 546.5,-1027 295.5,-1027"/>
<polygon fill="none" stroke="black" points="295.5,-1027 295.5,-1049 546.5,-1049 546.5,-1027 295.5,-1027"/>
<text text-anchor="start" x="315.5" y="-1035.2" font-family="Helvetica,sans-Serif" font-size="11.00">geom</text>
<polygon fill="none" stroke="black" points="295.5,-1005 295.5,-1027 546.5,-1027 546.5,-1005 295.5,-1005"/>
<image xlink:href="../../images/foreignKeys.png" width="11px" height="12px" preserveAspectRatio="xMinYMin meet" x="300.5" y="-1022"/>
<text text-anchor="start" x="315.5" y="-1013.2" font-family="Helvetica,sans-Serif" font-size="11.00">fase_id</text>
<polygon fill="none" stroke="black" points="295.5,-983 295.5,-1005 546.5,-1005 546.5,-983 295.5,-983"/>
<image xlink:href="../../images/foreignKeys.png" width="11px" height="12px" preserveAspectRatio="xMinYMin meet" x="300.5" y="-1000"/>
<text text-anchor="start" x="315.5" y="-991.2" font-family="Helvetica,sans-Serif" font-size="11.00">symbool_id</text>
<polygon fill="none" stroke="black" points="295.5,-961 295.5,-983 546.5,-983 546.5,-961 295.5,-961"/>
<image xlink:href="../../images/foreignKeys.png" width="11px" height="12px" preserveAspectRatio="xMinYMin meet" x="300.5" y="-978"/>
<text text-anchor="start" x="315.5" y="-969.2" font-family="Helvetica,sans-Serif" font-size="11.00">gebied_id</text>
<polygon fill="none" stroke="black" points="295.5,-939 295.5,-961 546.5,-961 546.5,-939 295.5,-939"/>
<image xlink:href="../../images/foreignKeys.png" width="11px" height="12px" preserveAspectRatio="xMinYMin meet" x="300.5" y="-956"/>
<text text-anchor="start" x="315.5" y="-947.2" font-family="Helvetica,sans-Serif" font-size="11.00">inspectie_conditie_id</text>
<polygon fill="none" stroke="black" points="295.5,-921 295.5,-939 546.5,-939 546.5,-921 295.5,-921"/>
<text text-anchor="start" x="298.5" y="-927.2" font-family="Helvetica,sans-Serif" font-size="11.00">...</text>
<polygon fill="#ffffff" stroke="transparent" points="295.5,-903 295.5,-921 419.5,-921 419.5,-903 295.5,-903"/>
<polygon fill="none" stroke="black" points="295.5,-903 295.5,-921 419.5,-921 419.5,-903 295.5,-903"/>
<text text-anchor="start" x="298.5" y="-909.2" font-family="Helvetica,sans-Serif" font-size="11.00">&lt; 4</text>
<polygon fill="#ffffff" stroke="transparent" points="419.5,-903 419.5,-921 482.5,-921 482.5,-903 419.5,-903"/>
<polygon fill="none" stroke="black" points="419.5,-903 419.5,-921 482.5,-921 482.5,-903 419.5,-903"/>
<text text-anchor="start" x="471.5" y="-909.2" font-family="Helvetica,sans-Serif" font-size="11.00"> &#160;</text>
<polygon fill="#ffffff" stroke="transparent" points="482.5,-903 482.5,-921 546.5,-921 546.5,-903 482.5,-903"/>
<polygon fill="none" stroke="black" points="482.5,-903 482.5,-921 546.5,-921 546.5,-903 482.5,-903"/>
<text text-anchor="start" x="535.5" y="-909.2" font-family="Helvetica,sans-Serif" font-size="11.00"> &#160;</text>
</a>
</g>
</g>
<!-- openwater&#45;&gt;roi.fase -->
<g id="edge17" class="edge">
<title>openwater:w&#45;&gt;roi.fase:e</title>
<path fill="none" stroke="black" d="M279.96,-1014.98C140.8,-994.04 339.69,-659 178,-659"/>
<polygon fill="black" stroke="black" points="286.52,-1015.44 294.25,-1019.59 290.51,-1015.72 294.5,-1016 294.5,-1016 294.5,-1016 290.51,-1015.72 294.75,-1012.41 286.52,-1015.44 286.52,-1015.44"/>
<ellipse fill="none" stroke="black" cx="283.33" cy="-1015.21" rx="3.2" ry="3.2"/>
</g>
<!-- openwater&#45;&gt;gebied -->
<g id="edge18" class="edge">
<title>openwater:w&#45;&gt;gebied:e</title>
<path fill="none" stroke="black" d="M280.34,-968.45C204.21,-924.98 345.74,-497 245,-497"/>
<polygon fill="black" stroke="black" points="286.74,-970.05 293.62,-975.49 290.62,-971.03 294.5,-972 294.5,-972 294.5,-972 290.62,-971.03 295.38,-968.51 286.74,-970.05 286.74,-970.05"/>
<ellipse fill="none" stroke="black" cx="283.64" cy="-969.28" rx="3.2" ry="3.2"/>
</g>
<!-- openwater&#45;&gt;conditie -->
<g id="edge19" class="edge">
<title>openwater:w&#45;&gt;conditie:e</title>
<path fill="none" stroke="black" d="M282.47,-942.01C239.82,-877.21 284.82,-438.84 254,-390 233.61,-357.69 217.2,-348 179,-348"/>
<polygon fill="black" stroke="black" points="287.84,-945.57 292.51,-953 291.17,-947.79 294.5,-950 294.5,-950 294.5,-950 291.17,-947.79 296.49,-947 287.84,-945.57 287.84,-945.57"/>
<ellipse fill="none" stroke="black" cx="285.17" cy="-943.8" rx="3.2" ry="3.2"/>
</g>
<!-- openwater&#45;&gt;roi.symbool -->
<g id="edge20" class="edge">
<title>openwater:w&#45;&gt;roi.symbool:e</title>
<path fill="none" stroke="black" d="M280.45,-990.39C221.9,-956.15 294.61,-688.35 254,-622 236.24,-592.98 224.02,-580 190,-580"/>
<polygon fill="black" stroke="black" points="286.75,-992.01 293.6,-997.49 290.63,-993 294.5,-994 294.5,-994 294.5,-994 290.63,-993 295.4,-990.51 286.75,-992.01 286.75,-992.01"/>
<ellipse fill="none" stroke="black" cx="283.65" cy="-991.21" rx="3.2" ry="3.2"/>
</g>
</g>
</svg>
