<?xml version="1.0" encoding="UTF-8" standalone="no"?>
<!DOCTYPE svg PUBLIC "-//W3C//DTD SVG 1.1//EN"
 "http://www.w3.org/Graphics/SVG/1.1/DTD/svg11.dtd">
<!-- Generated by graphviz version 2.50.0 (0)
 -->
<!-- Title: oneDegreeRelationshipsDiagram Pages: 1 -->
<svg width="562pt" height="1105pt"
 viewBox="0.00 0.00 562.00 1105.00" xmlns="http://www.w3.org/2000/svg" xmlns:xlink="http://www.w3.org/1999/xlink">
<g id="graph0" class="graph" transform="scale(1 1) rotate(0) translate(4 1101)">
<title>oneDegreeRelationshipsDiagram</title>
<polygon fill="#ffffff" stroke="transparent" points="-4,4 -4,-1101 558,-1101 558,4 -4,4"/>
<text text-anchor="middle" x="79.5" y="-7.2" font-family="Helvetica,sans-Serif" font-size="11.00">Generated by SchemaSpy</text>
<!-- bluswaterriool -->
<g id="node1" class="node">
<title>bluswaterriool</title>
<g id="a_node1"><a xlink:href="../../tables/bluswaterriool.html" xlink:title="bluswaterriool" target="_top">
<polygon fill="#ffffff" stroke="transparent" points="334.5,-903 334.5,-1093 506.5,-1093 506.5,-903 334.5,-903"/>
<polygon fill="#f5f5f5" stroke="transparent" points="334.5,-1071 334.5,-1093 506.5,-1093 506.5,-1071 334.5,-1071"/>
<polygon fill="none" stroke="black" points="334.5,-1071 334.5,-1093 506.5,-1093 506.5,-1071 334.5,-1071"/>
<text text-anchor="start" x="339.5" y="-1080.2" font-family="Helvetica,sans-Serif" font-weight="bold" font-size="11.00">bluswaterriool</text>
<text text-anchor="start" x="464.5" y="-1079.2" font-family="Helvetica,sans-Serif" font-size="11.00">[table]</text>
<polygon fill="none" stroke="black" points="334.5,-1049 334.5,-1071 506.5,-1071 506.5,-1049 334.5,-1049"/>
<image xlink:href="../../images/primaryKeys.png" width="11px" height="12px" preserveAspectRatio="xMinYMin meet" x="339.5" y="-1066"/>
<text text-anchor="start" x="354.5" y="-1057.2" font-family="Helvetica,sans-Serif" font-size="11.00">uuid</text>
<polygon fill="#ffffff" stroke="transparent" points="334.5,-1027 334.5,-1049 506.5,-1049 506.5,-1027 334.5,-1027"/>
<polygon fill="none" stroke="black" points="334.5,-1027 334.5,-1049 506.5,-1049 506.5,-1027 334.5,-1027"/>
<text text-anchor="start" x="354.5" y="-1035.2" font-family="Helvetica,sans-Serif" font-size="11.00">geom</text>
<polygon fill="none" stroke="black" points="334.5,-1005 334.5,-1027 506.5,-1027 506.5,-1005 334.5,-1005"/>
<image xlink:href="../../images/foreignKeys.png" width="11px" height="12px" preserveAspectRatio="xMinYMin meet" x="339.5" y="-1022"/>
<text text-anchor="start" x="354.5" y="-1013.2" font-family="Helvetica,sans-Serif" font-size="11.00">fase_id</text>
<polygon fill="none" stroke="black" points="334.5,-983 334.5,-1005 506.5,-1005 506.5,-983 334.5,-983"/>
<image xlink:href="../../images/foreignKeys.png" width="11px" height="12px" preserveAspectRatio="xMinYMin meet" x="339.5" y="-1000"/>
<text text-anchor="start" x="354.5" y="-991.2" font-family="Helvetica,sans-Serif" font-size="11.00">symbool_id</text>
<polygon fill="none" stroke="black" points="334.5,-961 334.5,-983 506.5,-983 506.5,-961 334.5,-961"/>
<image xlink:href="../../images/foreignKeys.png" width="11px" height="12px" preserveAspectRatio="xMinYMin meet" x="339.5" y="-978"/>
<text text-anchor="start" x="354.5" y="-969.2" font-family="Helvetica,sans-Serif" font-size="11.00">gebied_id</text>
<polygon fill="none" stroke="black" points="334.5,-939 334.5,-961 506.5,-961 506.5,-939 334.5,-939"/>
<image xlink:href="../../images/foreignKeys.png" width="11px" height="12px" preserveAspectRatio="xMinYMin meet" x="339.5" y="-956"/>
<text text-anchor="start" x="354.5" y="-947.2" font-family="Helvetica,sans-Serif" font-size="11.00">inspectie_conditie_id</text>
<polygon fill="none" stroke="black" points="334.5,-921 334.5,-939 506.5,-939 506.5,-921 334.5,-921"/>
<text text-anchor="start" x="337.5" y="-927.2" font-family="Helvetica,sans-Serif" font-size="11.00">...</text>
<polygon fill="#ffffff" stroke="transparent" points="334.5,-903 334.5,-921 419.5,-921 419.5,-903 334.5,-903"/>
<polygon fill="none" stroke="black" points="334.5,-903 334.5,-921 419.5,-921 419.5,-903 334.5,-903"/>
<text text-anchor="start" x="337.5" y="-909.2" font-family="Helvetica,sans-Serif" font-size="11.00">&lt; 4</text>
<polygon fill="#ffffff" stroke="transparent" points="419.5,-903 419.5,-921 462.5,-921 462.5,-903 419.5,-903"/>
<polygon fill="none" stroke="black" points="419.5,-903 419.5,-921 462.5,-921 462.5,-903 419.5,-903"/>
<text text-anchor="start" x="451.5" y="-909.2" font-family="Helvetica,sans-Serif" font-size="11.00"> &#160;</text>
<polygon fill="#ffffff" stroke="transparent" points="462.5,-903 462.5,-921 506.5,-921 506.5,-903 462.5,-903"/>
<polygon fill="none" stroke="black" points="462.5,-903 462.5,-921 506.5,-921 506.5,-903 462.5,-903"/>
<text text-anchor="start" x="495.5" y="-909.2" font-family="Helvetica,sans-Serif" font-size="11.00"> &#160;</text>
</a>
</g>
</g>
<!-- gebied -->
<g id="node2" class="node">
<title>gebied</title>
<g id="a_node2"><a xlink:href="../../tables/gebied.html" xlink:title="gebied" target="_top">
<polygon fill="#ffffff" stroke="transparent" points="8,-431 8,-563 246,-563 246,-431 8,-431"/>
<polygon fill="#f5f5f5" stroke="transparent" points="10,-539 10,-561 244,-561 244,-539 10,-539"/>
<polygon fill="none" stroke="black" points="10,-539 10,-561 244,-561 244,-539 10,-539"/>
<text text-anchor="start" x="15" y="-548.2" font-family="Helvetica,sans-Serif" font-weight="bold" font-size="11.00">gebied</text>
<text text-anchor="start" x="202" y="-547.2" font-family="Helvetica,sans-Serif" font-size="11.00">[table]</text>
<polygon fill="none" stroke="black" points="10,-517 10,-539 108,-539 108,-517 10,-517"/>
<image xlink:href="../../images/primaryKeys.png" width="11px" height="12px" preserveAspectRatio="xMinYMin meet" x="15" y="-534"/>
<text text-anchor="start" x="30" y="-525.2" font-family="Helvetica,sans-Serif" font-size="11.00">id</text>
<polygon fill="none" stroke="black" points="108,-517 108,-539 244,-539 244,-517 108,-517"/>
<text text-anchor="start" x="111" y="-525.2" font-family="Helvetica,sans-Serif" font-size="11.00">int2[5]</text>
<polygon fill="none" stroke="black" points="10,-495 10,-517 108,-517 108,-495 10,-495"/>
<text text-anchor="start" x="30" y="-503.2" font-family="Helvetica,sans-Serif" font-size="11.00">naam</text>
<polygon fill="none" stroke="black" points="108,-495 108,-517 244,-517 244,-495 108,-495"/>
<text text-anchor="start" x="111" y="-503.2" font-family="Helvetica,sans-Serif" font-size="11.00">text[2147483647]</text>
<polygon fill="none" stroke="black" points="10,-473 10,-495 108,-495 108,-473 10,-473"/>
<text text-anchor="start" x="30" y="-481.2" font-family="Helvetica,sans-Serif" font-size="11.00">omschrijving</text>
<polygon fill="none" stroke="black" points="108,-473 108,-495 244,-495 244,-473 108,-473"/>
<text text-anchor="start" x="111" y="-481.2" font-family="Helvetica,sans-Serif" font-size="11.00">text[2147483647]</text>
<polygon fill="none" stroke="black" points="10,-451 10,-473 108,-473 108,-451 10,-451"/>
<text text-anchor="start" x="30" y="-459.2" font-family="Helvetica,sans-Serif" font-size="11.00">geom</text>
<polygon fill="none" stroke="black" points="108,-451 108,-473 244,-473 244,-451 108,-451"/>
<text text-anchor="start" x="111" y="-459.2" font-family="Helvetica,sans-Serif" font-size="11.00">geometry[2147483647]</text>
<polygon fill="#ffffff" stroke="transparent" points="10,-433 10,-451 65,-451 65,-433 10,-433"/>
<polygon fill="none" stroke="black" points="10,-433 10,-451 65,-451 65,-433 10,-433"/>
<text text-anchor="start" x="13" y="-439.2" font-family="Helvetica,sans-Serif" font-size="11.00">&lt; 0</text>
<polygon fill="#ffffff" stroke="transparent" points="65,-433 65,-451 108,-451 108,-433 65,-433"/>
<polygon fill="none" stroke="black" points="65,-433 65,-451 108,-451 108,-433 65,-433"/>
<text text-anchor="start" x="97" y="-439.2" font-family="Helvetica,sans-Serif" font-size="11.00"> &#160;</text>
<polygon fill="#ffffff" stroke="transparent" points="108,-433 108,-451 244,-451 244,-433 108,-433"/>
<polygon fill="none" stroke="black" points="108,-433 108,-451 244,-451 244,-433 108,-433"/>
<text text-anchor="start" x="221" y="-439.2" font-family="Helvetica,sans-Serif" font-size="11.00">5 &gt;</text>
<polygon fill="none" stroke="black" stroke-width="2" points="9,-432 9,-562 245,-562 245,-432 9,-432"/>
</a>
</g>
</g>
<!-- bluswaterriool&#45;&gt;gebied -->
<g id="edge1" class="edge">
<title>bluswaterriool:w&#45;&gt;gebied:e</title>
<path fill="none" stroke="black" d="M318.97,-969.72C294.38,-960.68 298.12,-926.2 287,-893 274.03,-854.29 285.82,-528 245,-528"/>
<polygon fill="black" stroke="black" points="325.6,-970.76 332.94,-975.56 329.55,-971.38 333.5,-972 333.5,-972 333.5,-972 329.55,-971.38 334.06,-968.44 325.6,-970.76 325.6,-970.76"/>
<ellipse fill="none" stroke="black" cx="322.44" cy="-970.27" rx="3.2" ry="3.2"/>
</g>
<!-- brandkraan -->
<g id="node3" class="node">
<title>brandkraan</title>
<g id="a_node3"><a xlink:href="../../tables/brandkraan.html" xlink:title="brandkraan" target="_top">
<polygon fill="#ffffff" stroke="transparent" points="318,-670 318,-882 523,-882 523,-670 318,-670"/>
<polygon fill="#f5f5f5" stroke="transparent" points="318.5,-860 318.5,-882 523.5,-882 523.5,-860 318.5,-860"/>
<polygon fill="none" stroke="black" points="318.5,-860 318.5,-882 523.5,-882 523.5,-860 318.5,-860"/>
<text text-anchor="start" x="323.5" y="-869.2" font-family="Helvetica,sans-Serif" font-weight="bold" font-size="11.00">brandkraan</text>
<text text-anchor="start" x="481.5" y="-868.2" font-family="Helvetica,sans-Serif" font-size="11.00">[table]</text>
<polygon fill="none" stroke="black" points="318.5,-838 318.5,-860 523.5,-860 523.5,-838 318.5,-838"/>
<image xlink:href="../../images/primaryKeys.png" width="11px" height="12px" preserveAspectRatio="xMinYMin meet" x="323.5" y="-855"/>
<text text-anchor="start" x="338.5" y="-846.2" font-family="Helvetica,sans-Serif" font-size="11.00">uuid</text>
<polygon fill="#ffffff" stroke="transparent" points="318.5,-816 318.5,-838 523.5,-838 523.5,-816 318.5,-816"/>
<polygon fill="none" stroke="black" points="318.5,-816 318.5,-838 523.5,-838 523.5,-816 318.5,-816"/>
<text text-anchor="start" x="338.5" y="-824.2" font-family="Helvetica,sans-Serif" font-size="11.00">geom</text>
<polygon fill="#ffffff" stroke="transparent" points="318.5,-794 318.5,-816 523.5,-816 523.5,-794 318.5,-794"/>
<polygon fill="none" stroke="black" points="318.5,-794 318.5,-816 523.5,-816 523.5,-794 318.5,-794"/>
<text text-anchor="start" x="338.5" y="-802.2" font-family="Helvetica,sans-Serif" font-size="11.00">nen3610id</text>
<polygon fill="none" stroke="black" points="318.5,-772 318.5,-794 523.5,-794 523.5,-772 318.5,-772"/>
<image xlink:href="../../images/foreignKeys.png" width="11px" height="12px" preserveAspectRatio="xMinYMin meet" x="323.5" y="-789"/>
<text text-anchor="start" x="338.5" y="-780.2" font-family="Helvetica,sans-Serif" font-size="11.00">fase_id</text>
<polygon fill="none" stroke="black" points="318.5,-750 318.5,-772 523.5,-772 523.5,-750 318.5,-750"/>
<image xlink:href="../../images/foreignKeys.png" width="11px" height="12px" preserveAspectRatio="xMinYMin meet" x="323.5" y="-767"/>
<text text-anchor="start" x="338.5" y="-758.2" font-family="Helvetica,sans-Serif" font-size="11.00">symbool_id</text>
<polygon fill="none" stroke="black" points="318.5,-728 318.5,-750 523.5,-750 523.5,-728 318.5,-728"/>
<image xlink:href="../../images/foreignKeys.png" width="11px" height="12px" preserveAspectRatio="xMinYMin meet" x="323.5" y="-745"/>
<text text-anchor="start" x="338.5" y="-736.2" font-family="Helvetica,sans-Serif" font-size="11.00">gebied_id</text>
<polygon fill="none" stroke="black" points="318.5,-706 318.5,-728 523.5,-728 523.5,-706 318.5,-706"/>
<image xlink:href="../../images/foreignKeys.png" width="11px" height="12px" preserveAspectRatio="xMinYMin meet" x="323.5" y="-723"/>
<text text-anchor="start" x="338.5" y="-714.2" font-family="Helvetica,sans-Serif" font-size="11.00">inspectie_conditie_id</text>
<polygon fill="none" stroke="black" points="318.5,-688 318.5,-706 523.5,-706 523.5,-688 318.5,-688"/>
<text text-anchor="start" x="321.5" y="-694.2" font-family="Helvetica,sans-Serif" font-size="11.00">...</text>
<polygon fill="#ffffff" stroke="transparent" points="318.5,-670 318.5,-688 419.5,-688 419.5,-670 318.5,-670"/>
<polygon fill="none" stroke="black" points="318.5,-670 318.5,-688 419.5,-688 419.5,-670 318.5,-670"/>
<text text-anchor="start" x="321.5" y="-676.2" font-family="Helvetica,sans-Serif" font-size="11.00">&lt; 4</text>
<polygon fill="#ffffff" stroke="transparent" points="419.5,-670 419.5,-688 471.5,-688 471.5,-670 419.5,-670"/>
<polygon fill="none" stroke="black" points="419.5,-670 419.5,-688 471.5,-688 471.5,-670 419.5,-670"/>
<text text-anchor="start" x="460.5" y="-676.2" font-family="Helvetica,sans-Serif" font-size="11.00"> &#160;</text>
<polygon fill="#ffffff" stroke="transparent" points="471.5,-670 471.5,-688 523.5,-688 523.5,-670 471.5,-670"/>
<polygon fill="none" stroke="black" points="471.5,-670 471.5,-688 523.5,-688 523.5,-670 471.5,-670"/>
<text text-anchor="start" x="512.5" y="-676.2" font-family="Helvetica,sans-Serif" font-size="11.00"> &#160;</text>
</a>
</g>
</g>
<!-- brandkraan&#45;&gt;gebied -->
<g id="edge2" class="edge">
<title>brandkraan:w&#45;&gt;gebied:e</title>
<path fill="none" stroke="black" d="M303.18,-737.18C231.43,-716.55 338.74,-528 245,-528"/>
<polygon fill="black" stroke="black" points="309.56,-737.99 317.05,-742.57 313.53,-738.49 317.5,-739 317.5,-739 317.5,-739 313.53,-738.49 317.95,-735.43 309.56,-737.99 309.56,-737.99"/>
<ellipse fill="none" stroke="black" cx="306.39" cy="-737.59" rx="3.2" ry="3.2"/>
</g>
<!-- brandkraan_prive -->
<g id="node4" class="node">
<title>brandkraan_prive</title>
<g id="a_node4"><a xlink:href="../../tables/brandkraan_prive.html" xlink:title="brandkraan_prive" target="_top">
<polygon fill="#ffffff" stroke="transparent" points="318,-459 318,-649 523,-649 523,-459 318,-459"/>
<polygon fill="#f5f5f5" stroke="transparent" points="318.5,-627 318.5,-649 523.5,-649 523.5,-627 318.5,-627"/>
<polygon fill="none" stroke="black" points="318.5,-627 318.5,-649 523.5,-649 523.5,-627 318.5,-627"/>
<text text-anchor="start" x="323.5" y="-636.2" font-family="Helvetica,sans-Serif" font-weight="bold" font-size="11.00">brandkraan_prive</text>
<text text-anchor="start" x="481.5" y="-635.2" font-family="Helvetica,sans-Serif" font-size="11.00">[table]</text>
<polygon fill="none" stroke="black" points="318.5,-605 318.5,-627 523.5,-627 523.5,-605 318.5,-605"/>
<image xlink:href="../../images/primaryKeys.png" width="11px" height="12px" preserveAspectRatio="xMinYMin meet" x="323.5" y="-622"/>
<text text-anchor="start" x="338.5" y="-613.2" font-family="Helvetica,sans-Serif" font-size="11.00">uuid</text>
<polygon fill="#ffffff" stroke="transparent" points="318.5,-583 318.5,-605 523.5,-605 523.5,-583 318.5,-583"/>
<polygon fill="none" stroke="black" points="318.5,-583 318.5,-605 523.5,-605 523.5,-583 318.5,-583"/>
<text text-anchor="start" x="338.5" y="-591.2" font-family="Helvetica,sans-Serif" font-size="11.00">geom</text>
<polygon fill="none" stroke="black" points="318.5,-561 318.5,-583 523.5,-583 523.5,-561 318.5,-561"/>
<image xlink:href="../../images/foreignKeys.png" width="11px" height="12px" preserveAspectRatio="xMinYMin meet" x="323.5" y="-578"/>
<text text-anchor="start" x="338.5" y="-569.2" font-family="Helvetica,sans-Serif" font-size="11.00">fase_id</text>
<polygon fill="none" stroke="black" points="318.5,-539 318.5,-561 523.5,-561 523.5,-539 318.5,-539"/>
<image xlink:href="../../images/foreignKeys.png" width="11px" height="12px" preserveAspectRatio="xMinYMin meet" x="323.5" y="-556"/>
<text text-anchor="start" x="338.5" y="-547.2" font-family="Helvetica,sans-Serif" font-size="11.00">symbool_id</text>
<polygon fill="none" stroke="black" points="318.5,-517 318.5,-539 523.5,-539 523.5,-517 318.5,-517"/>
<image xlink:href="../../images/foreignKeys.png" width="11px" height="12px" preserveAspectRatio="xMinYMin meet" x="323.5" y="-534"/>
<text text-anchor="start" x="338.5" y="-525.2" font-family="Helvetica,sans-Serif" font-size="11.00">gebied_id</text>
<polygon fill="none" stroke="black" points="318.5,-495 318.5,-517 523.5,-517 523.5,-495 318.5,-495"/>
<image xlink:href="../../images/foreignKeys.png" width="11px" height="12px" preserveAspectRatio="xMinYMin meet" x="323.5" y="-512"/>
<text text-anchor="start" x="338.5" y="-503.2" font-family="Helvetica,sans-Serif" font-size="11.00">inspectie_conditie_id</text>
<polygon fill="none" stroke="black" points="318.5,-477 318.5,-495 523.5,-495 523.5,-477 318.5,-477"/>
<text text-anchor="start" x="321.5" y="-483.2" font-family="Helvetica,sans-Serif" font-size="11.00">...</text>
<polygon fill="#ffffff" stroke="transparent" points="318.5,-459 318.5,-477 419.5,-477 419.5,-459 318.5,-459"/>
<polygon fill="none" stroke="black" points="318.5,-459 318.5,-477 419.5,-477 419.5,-459 318.5,-459"/>
<text text-anchor="start" x="321.5" y="-465.2" font-family="Helvetica,sans-Serif" font-size="11.00">&lt; 4</text>
<polygon fill="#ffffff" stroke="transparent" points="419.5,-459 419.5,-477 471.5,-477 471.5,-459 419.5,-459"/>
<polygon fill="none" stroke="black" points="419.5,-459 419.5,-477 471.5,-477 471.5,-459 419.5,-459"/>
<text text-anchor="start" x="460.5" y="-465.2" font-family="Helvetica,sans-Serif" font-size="11.00"> &#160;</text>
<polygon fill="#ffffff" stroke="transparent" points="471.5,-459 471.5,-477 523.5,-477 523.5,-459 471.5,-459"/>
<polygon fill="none" stroke="black" points="471.5,-459 471.5,-477 523.5,-477 523.5,-459 471.5,-459"/>
<text text-anchor="start" x="512.5" y="-465.2" font-family="Helvetica,sans-Serif" font-size="11.00"> &#160;</text>
</a>
</g>
</g>
<!-- brandkraan_prive&#45;&gt;gebied -->
<g id="edge3" class="edge">
<title>brandkraan_prive:w&#45;&gt;gebied:e</title>
<path fill="none" stroke="black" d="M303.08,-528C281.89,-528 271.81,-528 245,-528"/>
<polygon fill="black" stroke="black" points="309.5,-528 317.5,-531.6 313.5,-528 317.5,-528 317.5,-528 317.5,-528 313.5,-528 317.5,-524.4 309.5,-528 309.5,-528"/>
<ellipse fill="none" stroke="black" cx="306.3" cy="-528" rx="3.2" ry="3.2"/>
</g>
<!-- brandput -->
<g id="node5" class="node">
<title>brandput</title>
<g id="a_node5"><a xlink:href="../../tables/brandput.html" xlink:title="brandput" target="_top">
<polygon fill="#ffffff" stroke="transparent" points="326,-248 326,-438 515,-438 515,-248 326,-248"/>
<polygon fill="#f5f5f5" stroke="transparent" points="326.5,-416 326.5,-438 515.5,-438 515.5,-416 326.5,-416"/>
<polygon fill="none" stroke="black" points="326.5,-416 326.5,-438 515.5,-438 515.5,-416 326.5,-416"/>
<text text-anchor="start" x="331.5" y="-425.2" font-family="Helvetica,sans-Serif" font-weight="bold" font-size="11.00">brandput</text>
<text text-anchor="start" x="473.5" y="-424.2" font-family="Helvetica,sans-Serif" font-size="11.00">[table]</text>
<polygon fill="none" stroke="black" points="326.5,-394 326.5,-416 515.5,-416 515.5,-394 326.5,-394"/>
<image xlink:href="../../images/primaryKeys.png" width="11px" height="12px" preserveAspectRatio="xMinYMin meet" x="331.5" y="-411"/>
<text text-anchor="start" x="346.5" y="-402.2" font-family="Helvetica,sans-Serif" font-size="11.00">uuid</text>
<polygon fill="#ffffff" stroke="transparent" points="326.5,-372 326.5,-394 515.5,-394 515.5,-372 326.5,-372"/>
<polygon fill="none" stroke="black" points="326.5,-372 326.5,-394 515.5,-394 515.5,-372 326.5,-372"/>
<text text-anchor="start" x="346.5" y="-380.2" font-family="Helvetica,sans-Serif" font-size="11.00">geom</text>
<polygon fill="none" stroke="black" points="326.5,-350 326.5,-372 515.5,-372 515.5,-350 326.5,-350"/>
<image xlink:href="../../images/foreignKeys.png" width="11px" height="12px" preserveAspectRatio="xMinYMin meet" x="331.5" y="-367"/>
<text text-anchor="start" x="346.5" y="-358.2" font-family="Helvetica,sans-Serif" font-size="11.00">fase_id</text>
<polygon fill="none" stroke="black" points="326.5,-328 326.5,-350 515.5,-350 515.5,-328 326.5,-328"/>
<image xlink:href="../../images/foreignKeys.png" width="11px" height="12px" preserveAspectRatio="xMinYMin meet" x="331.5" y="-345"/>
<text text-anchor="start" x="346.5" y="-336.2" font-family="Helvetica,sans-Serif" font-size="11.00">symbool_id</text>
<polygon fill="none" stroke="black" points="326.5,-306 326.5,-328 515.5,-328 515.5,-306 326.5,-306"/>
<image xlink:href="../../images/foreignKeys.png" width="11px" height="12px" preserveAspectRatio="xMinYMin meet" x="331.5" y="-323"/>
<text text-anchor="start" x="346.5" y="-314.2" font-family="Helvetica,sans-Serif" font-size="11.00">gebied_id</text>
<polygon fill="none" stroke="black" points="326.5,-284 326.5,-306 515.5,-306 515.5,-284 326.5,-284"/>
<image xlink:href="../../images/foreignKeys.png" width="11px" height="12px" preserveAspectRatio="xMinYMin meet" x="331.5" y="-301"/>
<text text-anchor="start" x="346.5" y="-292.2" font-family="Helvetica,sans-Serif" font-size="11.00">inspectie_conditie_id</text>
<polygon fill="none" stroke="black" points="326.5,-266 326.5,-284 515.5,-284 515.5,-266 326.5,-266"/>
<text text-anchor="start" x="329.5" y="-272.2" font-family="Helvetica,sans-Serif" font-size="11.00">...</text>
<polygon fill="#ffffff" stroke="transparent" points="326.5,-248 326.5,-266 419.5,-266 419.5,-248 326.5,-248"/>
<polygon fill="none" stroke="black" points="326.5,-248 326.5,-266 419.5,-266 419.5,-248 326.5,-248"/>
<text text-anchor="start" x="329.5" y="-254.2" font-family="Helvetica,sans-Serif" font-size="11.00">&lt; 4</text>
<polygon fill="#ffffff" stroke="transparent" points="419.5,-248 419.5,-266 467.5,-266 467.5,-248 419.5,-248"/>
<polygon fill="none" stroke="black" points="419.5,-248 419.5,-266 467.5,-266 467.5,-248 419.5,-248"/>
<text text-anchor="start" x="456.5" y="-254.2" font-family="Helvetica,sans-Serif" font-size="11.00"> &#160;</text>
<polygon fill="#ffffff" stroke="transparent" points="467.5,-248 467.5,-266 515.5,-266 515.5,-248 467.5,-248"/>
<polygon fill="none" stroke="black" points="467.5,-248 467.5,-266 515.5,-266 515.5,-248 467.5,-248"/>
<text text-anchor="start" x="504.5" y="-254.2" font-family="Helvetica,sans-Serif" font-size="11.00"> &#160;</text>
</a>
</g>
</g>
<!-- brandput&#45;&gt;gebied -->
<g id="edge4" class="edge">
<title>brandput:w&#45;&gt;gebied:e</title>
<path fill="none" stroke="black" d="M312.23,-323.09C278.63,-357.68 290.09,-528 245,-528"/>
<polygon fill="black" stroke="black" points="318.23,-320.34 327,-320.27 321.86,-318.67 325.5,-317 325.5,-317 325.5,-317 321.86,-318.67 324,-313.73 318.23,-320.34 318.23,-320.34"/>
<ellipse fill="none" stroke="black" cx="315.32" cy="-321.67" rx="3.2" ry="3.2"/>
</g>
<!-- openwater -->
<g id="node6" class="node">
<title>openwater</title>
<g id="a_node6"><a xlink:href="../../tables/openwater.html" xlink:title="openwater" target="_top">
<polygon fill="#ffffff" stroke="transparent" points="295,-37 295,-227 546,-227 546,-37 295,-37"/>
<polygon fill="#f5f5f5" stroke="transparent" points="295.5,-205 295.5,-227 546.5,-227 546.5,-205 295.5,-205"/>
<polygon fill="none" stroke="black" points="295.5,-205 295.5,-227 546.5,-227 546.5,-205 295.5,-205"/>
<text text-anchor="start" x="300.5" y="-214.2" font-family="Helvetica,sans-Serif" font-weight="bold" font-size="11.00">openwater</text>
<text text-anchor="start" x="504.5" y="-213.2" font-family="Helvetica,sans-Serif" font-size="11.00">[table]</text>
<polygon fill="none" stroke="black" points="295.5,-183 295.5,-205 546.5,-205 546.5,-183 295.5,-183"/>
<image xlink:href="../../images/primaryKeys.png" width="11px" height="12px" preserveAspectRatio="xMinYMin meet" x="300.5" y="-200"/>
<text text-anchor="start" x="315.5" y="-191.2" font-family="Helvetica,sans-Serif" font-size="11.00">uuid</text>
<polygon fill="#ffffff" stroke="transparent" points="295.5,-161 295.5,-183 546.5,-183 546.5,-161 295.5,-161"/>
<polygon fill="none" stroke="black" points="295.5,-161 295.5,-183 546.5,-183 546.5,-161 295.5,-161"/>
<text text-anchor="start" x="315.5" y="-169.2" font-family="Helvetica,sans-Serif" font-size="11.00">geom</text>
<polygon fill="none" stroke="black" points="295.5,-139 295.5,-161 546.5,-161 546.5,-139 295.5,-139"/>
<image xlink:href="../../images/foreignKeys.png" width="11px" height="12px" preserveAspectRatio="xMinYMin meet" x="300.5" y="-156"/>
<text text-anchor="start" x="315.5" y="-147.2" font-family="Helvetica,sans-Serif" font-size="11.00">fase_id</text>
<polygon fill="none" stroke="black" points="295.5,-117 295.5,-139 546.5,-139 546.5,-117 295.5,-117"/>
<image xlink:href="../../images/foreignKeys.png" width="11px" height="12px" preserveAspectRatio="xMinYMin meet" x="300.5" y="-134"/>
<text text-anchor="start" x="315.5" y="-125.2" font-family="Helvetica,sans-Serif" font-size="11.00">symbool_id</text>
<polygon fill="none" stroke="black" points="295.5,-95 295.5,-117 546.5,-117 546.5,-95 295.5,-95"/>
<image xlink:href="../../images/foreignKeys.png" width="11px" height="12px" preserveAspectRatio="xMinYMin meet" x="300.5" y="-112"/>
<text text-anchor="start" x="315.5" y="-103.2" font-family="Helvetica,sans-Serif" font-size="11.00">gebied_id</text>
<polygon fill="none" stroke="black" points="295.5,-73 295.5,-95 546.5,-95 546.5,-73 295.5,-73"/>
<image xlink:href="../../images/foreignKeys.png" width="11px" height="12px" preserveAspectRatio="xMinYMin meet" x="300.5" y="-90"/>
<text text-anchor="start" x="315.5" y="-81.2" font-family="Helvetica,sans-Serif" font-size="11.00">inspectie_conditie_id</text>
<polygon fill="none" stroke="black" points="295.5,-55 295.5,-73 546.5,-73 546.5,-55 295.5,-55"/>
<text text-anchor="start" x="298.5" y="-61.2" font-family="Helvetica,sans-Serif" font-size="11.00">...</text>
<polygon fill="#ffffff" stroke="transparent" points="295.5,-37 295.5,-55 419.5,-55 419.5,-37 295.5,-37"/>
<polygon fill="none" stroke="black" points="295.5,-37 295.5,-55 419.5,-55 419.5,-37 295.5,-37"/>
<text text-anchor="start" x="298.5" y="-43.2" font-family="Helvetica,sans-Serif" font-size="11.00">&lt; 4</text>
<polygon fill="#ffffff" stroke="transparent" points="419.5,-37 419.5,-55 482.5,-55 482.5,-37 419.5,-37"/>
<polygon fill="none" stroke="black" points="419.5,-37 419.5,-55 482.5,-55 482.5,-37 419.5,-37"/>
<text text-anchor="start" x="471.5" y="-43.2" font-family="Helvetica,sans-Serif" font-size="11.00"> &#160;</text>
<polygon fill="#ffffff" stroke="transparent" points="482.5,-37 482.5,-55 546.5,-55 546.5,-37 482.5,-37"/>
<polygon fill="none" stroke="black" points="482.5,-37 482.5,-55 546.5,-55 546.5,-37 482.5,-37"/>
<text text-anchor="start" x="535.5" y="-43.2" font-family="Helvetica,sans-Serif" font-size="11.00"> &#160;</text>
</a>
</g>
</g>
<!-- openwater&#45;&gt;gebied -->
<g id="edge5" class="edge">
<title>openwater:w&#45;&gt;gebied:e</title>
<path fill="none" stroke="black" d="M280.62,-109.91C215.11,-152.45 334.07,-528 245,-528"/>
<polygon fill="black" stroke="black" points="286.8,-108.17 295.48,-109.47 290.65,-107.08 294.5,-106 294.5,-106 294.5,-106 290.65,-107.08 293.52,-102.53 286.8,-108.17 286.8,-108.17"/>
<ellipse fill="none" stroke="black" cx="283.72" cy="-109.04" rx="3.2" ry="3.2"/>
</g>
</g>
</svg>
