<?xml version="1.0" encoding="UTF-8" standalone="no"?>
<!DOCTYPE svg PUBLIC "-//W3C//DTD SVG 1.1//EN"
 "http://www.w3.org/Graphics/SVG/1.1/DTD/svg11.dtd">
<!-- Generated by graphviz version 2.40.1 (20161225.0304)
 -->
<!-- Title: twoDegreesRelationshipsDiagram Pages: 1 -->
<svg width="532pt" height="1121pt"
 viewBox="0.00 0.00 532.00 1121.20" xmlns="http://www.w3.org/2000/svg" xmlns:xlink="http://www.w3.org/1999/xlink">
<g id="graph0" class="graph" transform="scale(1 1) rotate(0) translate(4 1117.2)">
<title>twoDegreesRelationshipsDiagram</title>
<polygon fill="#ffffff" stroke="transparent" points="-4,4 -4,-1117.2 528,-1117.2 528,4 -4,4"/>
<text text-anchor="middle" x="72.4936" y="-7.3" font-family="Helvetica,sans-Serif" font-size="11.00" fill="#000000">Generated by SchemaSpy</text>
<!-- bluswaterriool -->
<g id="node1" class="node">
<title>bluswaterriool</title>
<g id="a_node1"><a xlink:href="../../tables/bluswaterriool.html" xlink:title="bluswaterriool" target="_top">
<polygon fill="#ffffff" stroke="transparent" points="313,-702.2 313,-895.2 478,-895.2 478,-702.2 313,-702.2"/>
<polygon fill="#f5f5f5" stroke="transparent" points="313.5,-871.7 313.5,-894.7 478.5,-894.7 478.5,-871.7 313.5,-871.7"/>
<polygon fill="none" stroke="#000000" points="313.5,-871.7 313.5,-894.7 478.5,-894.7 478.5,-871.7 313.5,-871.7"/>
<text text-anchor="start" x="318.5" y="-880.3" font-family="Helvetica,sans-Serif" font-weight="bold" font-size="11.00" fill="#000000">bluswaterriool</text>
<text text-anchor="start" x="443.5437" y="-879.8" font-family="Helvetica,sans-Serif" font-size="11.00" fill="#000000">[table]</text>
<polygon fill="none" stroke="#000000" points="313.5,-849.7 313.5,-871.7 478.5,-871.7 478.5,-849.7 313.5,-849.7"/>
<image xlink:href="../../images/primaryKeys.png" width="11px" height="12px" preserveAspectRatio="xMinYMin meet" x="318.5" y="-866.7"/>
<text text-anchor="start" x="333.5" y="-856.8" font-family="Helvetica,sans-Serif" font-size="11.00" fill="#000000">uuid</text>
<polygon fill="#ffffff" stroke="transparent" points="313.5,-827.7 313.5,-849.7 478.5,-849.7 478.5,-827.7 313.5,-827.7"/>
<polygon fill="none" stroke="#000000" points="313.5,-827.7 313.5,-849.7 478.5,-849.7 478.5,-827.7 313.5,-827.7"/>
<text text-anchor="start" x="333.5" y="-834.8" font-family="Helvetica,sans-Serif" font-size="11.00" fill="#000000">geom</text>
<polygon fill="none" stroke="#000000" points="313.5,-805.7 313.5,-827.7 478.5,-827.7 478.5,-805.7 313.5,-805.7"/>
<image xlink:href="../../images/foreignKeys.png" width="11px" height="12px" preserveAspectRatio="xMinYMin meet" x="318.5" y="-822.7"/>
<text text-anchor="start" x="333.5" y="-812.8" font-family="Helvetica,sans-Serif" font-size="11.00" fill="#000000">fase_id</text>
<polygon fill="none" stroke="#000000" points="313.5,-783.7 313.5,-805.7 478.5,-805.7 478.5,-783.7 313.5,-783.7"/>
<image xlink:href="../../images/foreignKeys.png" width="11px" height="12px" preserveAspectRatio="xMinYMin meet" x="318.5" y="-800.7"/>
<text text-anchor="start" x="333.5" y="-790.8" font-family="Helvetica,sans-Serif" font-size="11.00" fill="#000000">symbool_id</text>
<polygon fill="none" stroke="#000000" points="313.5,-761.7 313.5,-783.7 478.5,-783.7 478.5,-761.7 313.5,-761.7"/>
<image xlink:href="../../images/foreignKeys.png" width="11px" height="12px" preserveAspectRatio="xMinYMin meet" x="318.5" y="-778.7"/>
<text text-anchor="start" x="333.5" y="-768.8" font-family="Helvetica,sans-Serif" font-size="11.00" fill="#000000">gebied_id</text>
<polygon fill="none" stroke="#000000" points="313.5,-739.7 313.5,-761.7 478.5,-761.7 478.5,-739.7 313.5,-739.7"/>
<image xlink:href="../../images/foreignKeys.png" width="11px" height="12px" preserveAspectRatio="xMinYMin meet" x="318.5" y="-756.7"/>
<text text-anchor="start" x="333.5" y="-746.8" font-family="Helvetica,sans-Serif" font-size="11.00" fill="#000000">inspectie_conditie_id</text>
<polygon fill="none" stroke="#000000" points="313.5,-720.7 313.5,-739.7 478.5,-739.7 478.5,-720.7 313.5,-720.7"/>
<text text-anchor="start" x="316.5" y="-726.8" font-family="Helvetica,sans-Serif" font-size="11.00" fill="#000000">...</text>
<polygon fill="#ffffff" stroke="transparent" points="313.5,-701.7 313.5,-720.7 394.5,-720.7 394.5,-701.7 313.5,-701.7"/>
<polygon fill="none" stroke="#000000" points="313.5,-701.7 313.5,-720.7 394.5,-720.7 394.5,-701.7 313.5,-701.7"/>
<text text-anchor="start" x="316.5" y="-707.8" font-family="Helvetica,sans-Serif" font-size="11.00" fill="#000000">&lt; 4</text>
<polygon fill="#ffffff" stroke="transparent" points="394.5,-701.7 394.5,-720.7 436.5,-720.7 436.5,-701.7 394.5,-701.7"/>
<polygon fill="none" stroke="#000000" points="394.5,-701.7 394.5,-720.7 436.5,-720.7 436.5,-701.7 394.5,-701.7"/>
<text text-anchor="start" x="427.3862" y="-707.8" font-family="Helvetica,sans-Serif" font-size="11.00" fill="#000000"> &#160;</text>
<polygon fill="#ffffff" stroke="transparent" points="436.5,-701.7 436.5,-720.7 478.5,-720.7 478.5,-701.7 436.5,-701.7"/>
<polygon fill="none" stroke="#000000" points="436.5,-701.7 436.5,-720.7 478.5,-720.7 478.5,-701.7 436.5,-701.7"/>
<text text-anchor="start" x="469.3862" y="-707.8" font-family="Helvetica,sans-Serif" font-size="11.00" fill="#000000"> &#160;</text>
</a>
</g>
</g>
<!-- roi.fase -->
<g id="node2" class="node">
<title>roi.fase</title>
<g id="a_node2"><a xlink:href="../../../roi/tables/fase.html" xlink:title="roi.fase" target="_top">
<polygon fill="#ffffff" stroke="transparent" points="76.5,-644.2 76.5,-705.2 157.5,-705.2 157.5,-644.2 76.5,-644.2"/>
<polygon fill="#f5f5f5" stroke="transparent" points="77,-681.7 77,-704.7 158,-704.7 158,-681.7 77,-681.7"/>
<polygon fill="none" stroke="#000000" points="77,-681.7 77,-704.7 158,-704.7 158,-681.7 77,-681.7"/>
<text text-anchor="start" x="82" y="-690.3" font-family="Helvetica,sans-Serif" font-weight="bold" font-size="11.00" fill="#000000">roi.fase</text>
<text text-anchor="start" x="123.5219" y="-689.8" font-family="Helvetica,sans-Serif" font-size="11.00" fill="#000000">[table]</text>
<polygon fill="none" stroke="#000000" points="77,-662.7 77,-681.7 158,-681.7 158,-662.7 77,-662.7"/>
<text text-anchor="start" x="80" y="-668.8" font-family="Helvetica,sans-Serif" font-size="11.00" fill="#000000">...</text>
<polygon fill="#ffffff" stroke="transparent" points="77,-643.7 77,-662.7 107,-662.7 107,-643.7 77,-643.7"/>
<polygon fill="none" stroke="#000000" points="77,-643.7 77,-662.7 107,-662.7 107,-643.7 77,-643.7"/>
<text text-anchor="start" x="80" y="-649.8" font-family="Helvetica,sans-Serif" font-size="11.00" fill="#000000"> &#160;</text>
<polygon fill="#ffffff" stroke="transparent" points="107,-643.7 107,-662.7 128,-662.7 128,-643.7 107,-643.7"/>
<polygon fill="none" stroke="#000000" points="107,-643.7 107,-662.7 128,-662.7 128,-643.7 107,-643.7"/>
<text text-anchor="start" x="118.8862" y="-649.8" font-family="Helvetica,sans-Serif" font-size="11.00" fill="#000000"> &#160;</text>
<polygon fill="#ffffff" stroke="transparent" points="128,-643.7 128,-662.7 158,-662.7 158,-643.7 128,-643.7"/>
<polygon fill="none" stroke="#000000" points="128,-643.7 128,-662.7 158,-662.7 158,-643.7 128,-643.7"/>
<text text-anchor="start" x="139.4053" y="-649.8" font-family="Helvetica,sans-Serif" font-size="11.00" fill="#000000">5 &gt;</text>
</a>
</g>
</g>
<!-- bluswaterriool&#45;&gt;roi.fase -->
<g id="edge1" class="edge">
<title>bluswaterriool:w&#45;&gt;roi.fase:e</title>
<path fill="none" stroke="#000000" d="M299.1033,-815.4465C222.2847,-801.2743 247.3279,-671.7 158,-671.7"/>
<polygon fill="#000000" stroke="#000000" points="305.5302,-816.006 313.1877,-820.2864 309.5151,-816.353 313.5,-816.7 313.5,-816.7 313.5,-816.7 309.5151,-816.353 313.8123,-813.1136 305.5302,-816.006 305.5302,-816.006"/>
<ellipse fill="none" stroke="#000000" cx="302.3422" cy="-815.7284" rx="3.2" ry="3.2"/>
</g>
<!-- gebied -->
<g id="node3" class="node">
<title>gebied</title>
<g id="a_node3"><a xlink:href="../../tables/gebied.html" xlink:title="gebied" target="_top">
<polygon fill="#ffffff" stroke="transparent" points="8,-406.7 8,-540.7 226,-540.7 226,-406.7 8,-406.7"/>
<polygon fill="#f5f5f5" stroke="transparent" points="10,-515.7 10,-538.7 224,-538.7 224,-515.7 10,-515.7"/>
<polygon fill="none" stroke="#000000" points="10,-515.7 10,-538.7 224,-538.7 224,-515.7 10,-515.7"/>
<text text-anchor="start" x="15" y="-524.3" font-family="Helvetica,sans-Serif" font-weight="bold" font-size="11.00" fill="#000000">gebied</text>
<text text-anchor="start" x="189.0437" y="-523.8" font-family="Helvetica,sans-Serif" font-size="11.00" fill="#000000">[table]</text>
<polygon fill="none" stroke="#000000" points="10,-493.7 10,-515.7 105,-515.7 105,-493.7 10,-493.7"/>
<image xlink:href="../../images/primaryKeys.png" width="11px" height="12px" preserveAspectRatio="xMinYMin meet" x="15" y="-510.7"/>
<text text-anchor="start" x="30" y="-500.8" font-family="Helvetica,sans-Serif" font-size="11.00" fill="#000000">id</text>
<polygon fill="none" stroke="#000000" points="105,-493.7 105,-515.7 224,-515.7 224,-493.7 105,-493.7"/>
<text text-anchor="start" x="108" y="-501.4" font-family="Helvetica,sans-Serif" font-size="11.00" fill="#000000">int2[5]</text>
<polygon fill="none" stroke="#000000" points="10,-471.7 10,-493.7 105,-493.7 105,-471.7 10,-471.7"/>
<text text-anchor="start" x="30" y="-478.8" font-family="Helvetica,sans-Serif" font-size="11.00" fill="#000000">naam</text>
<polygon fill="none" stroke="#000000" points="105,-471.7 105,-493.7 224,-493.7 224,-471.7 105,-471.7"/>
<text text-anchor="start" x="108" y="-479.4" font-family="Helvetica,sans-Serif" font-size="11.00" fill="#000000">text[2147483647]</text>
<polygon fill="none" stroke="#000000" points="10,-449.7 10,-471.7 105,-471.7 105,-449.7 10,-449.7"/>
<text text-anchor="start" x="30" y="-456.8" font-family="Helvetica,sans-Serif" font-size="11.00" fill="#000000">omschrijving</text>
<polygon fill="none" stroke="#000000" points="105,-449.7 105,-471.7 224,-471.7 224,-449.7 105,-449.7"/>
<text text-anchor="start" x="108" y="-457.4" font-family="Helvetica,sans-Serif" font-size="11.00" fill="#000000">text[2147483647]</text>
<polygon fill="none" stroke="#000000" points="10,-427.7 10,-449.7 105,-449.7 105,-427.7 10,-427.7"/>
<text text-anchor="start" x="30" y="-434.8" font-family="Helvetica,sans-Serif" font-size="11.00" fill="#000000">geom</text>
<polygon fill="none" stroke="#000000" points="105,-427.7 105,-449.7 224,-449.7 224,-427.7 105,-427.7"/>
<text text-anchor="start" x="107.9485" y="-435.4" font-family="Helvetica,sans-Serif" font-size="11.00" fill="#000000">geometry[2147483647]</text>
<polygon fill="#ffffff" stroke="transparent" points="10,-408.7 10,-427.7 62,-427.7 62,-408.7 10,-408.7"/>
<polygon fill="none" stroke="#000000" points="10,-408.7 10,-427.7 62,-427.7 62,-408.7 10,-408.7"/>
<text text-anchor="start" x="13" y="-414.8" font-family="Helvetica,sans-Serif" font-size="11.00" fill="#000000">&lt; 0</text>
<polygon fill="#ffffff" stroke="transparent" points="62,-408.7 62,-427.7 105,-427.7 105,-408.7 62,-408.7"/>
<polygon fill="none" stroke="#000000" points="62,-408.7 62,-427.7 105,-427.7 105,-408.7 62,-408.7"/>
<text text-anchor="start" x="95.8862" y="-414.8" font-family="Helvetica,sans-Serif" font-size="11.00" fill="#000000"> &#160;</text>
<polygon fill="#ffffff" stroke="transparent" points="105,-408.7 105,-427.7 224,-427.7 224,-408.7 105,-408.7"/>
<polygon fill="none" stroke="#000000" points="105,-408.7 105,-427.7 224,-427.7 224,-408.7 105,-408.7"/>
<text text-anchor="start" x="205.4053" y="-414.8" font-family="Helvetica,sans-Serif" font-size="11.00" fill="#000000">5 &gt;</text>
<polygon fill="none" stroke="#000000" stroke-width="2" points="9,-407.7 9,-539.7 225,-539.7 225,-407.7 9,-407.7"/>
</a>
</g>
</g>
<!-- bluswaterriool&#45;&gt;gebied -->
<g id="edge2" class="edge">
<title>bluswaterriool:w&#45;&gt;gebied:e</title>
<path fill="none" stroke="#000000" d="M299.175,-770.4427C274.2946,-761.1884 280.078,-725.0635 267,-691.7 251.4386,-652.0009 266.64,-504.7 224,-504.7"/>
<polygon fill="#000000" stroke="#000000" points="305.5975,-771.4547 312.9396,-776.2561 309.5488,-772.0774 313.5,-772.7 313.5,-772.7 313.5,-772.7 309.5488,-772.0774 314.0604,-769.1439 305.5975,-771.4547 305.5975,-771.4547"/>
<ellipse fill="none" stroke="#000000" cx="302.4365" cy="-770.9566" rx="3.2" ry="3.2"/>
</g>
<!-- conditie -->
<g id="node4" class="node">
<title>conditie</title>
<g id="a_node4"><a xlink:href="../../tables/conditie.html" xlink:title="conditie" target="_top">
<polygon fill="#ffffff" stroke="transparent" points="74.5,-324.2 74.5,-385.2 159.5,-385.2 159.5,-324.2 74.5,-324.2"/>
<polygon fill="#f5f5f5" stroke="transparent" points="75,-361.7 75,-384.7 160,-384.7 160,-361.7 75,-361.7"/>
<polygon fill="none" stroke="#000000" points="75,-361.7 75,-384.7 160,-384.7 160,-361.7 75,-361.7"/>
<text text-anchor="start" x="80" y="-370.3" font-family="Helvetica,sans-Serif" font-weight="bold" font-size="11.00" fill="#000000">conditie</text>
<text text-anchor="start" x="125.5219" y="-369.8" font-family="Helvetica,sans-Serif" font-size="11.00" fill="#000000">[table]</text>
<polygon fill="none" stroke="#000000" points="75,-342.7 75,-361.7 160,-361.7 160,-342.7 75,-342.7"/>
<text text-anchor="start" x="78" y="-348.8" font-family="Helvetica,sans-Serif" font-size="11.00" fill="#000000">...</text>
<polygon fill="#ffffff" stroke="transparent" points="75,-323.7 75,-342.7 107,-342.7 107,-323.7 75,-323.7"/>
<polygon fill="none" stroke="#000000" points="75,-323.7 75,-342.7 107,-342.7 107,-323.7 75,-323.7"/>
<text text-anchor="start" x="78" y="-329.8" font-family="Helvetica,sans-Serif" font-size="11.00" fill="#000000"> &#160;</text>
<polygon fill="#ffffff" stroke="transparent" points="107,-323.7 107,-342.7 129,-342.7 129,-323.7 107,-323.7"/>
<polygon fill="none" stroke="#000000" points="107,-323.7 107,-342.7 129,-342.7 129,-323.7 107,-323.7"/>
<text text-anchor="start" x="119.8862" y="-329.8" font-family="Helvetica,sans-Serif" font-size="11.00" fill="#000000"> &#160;</text>
<polygon fill="#ffffff" stroke="transparent" points="129,-323.7 129,-342.7 160,-342.7 160,-323.7 129,-323.7"/>
<polygon fill="none" stroke="#000000" points="129,-323.7 129,-342.7 160,-342.7 160,-323.7 129,-323.7"/>
<text text-anchor="start" x="141.4053" y="-329.8" font-family="Helvetica,sans-Serif" font-size="11.00" fill="#000000">5 &gt;</text>
</a>
</g>
</g>
<!-- bluswaterriool&#45;&gt;conditie -->
<g id="edge3" class="edge">
<title>bluswaterriool:w&#45;&gt;conditie:e</title>
<path fill="none" stroke="#000000" d="M299.2507,-748.4406C279.6206,-741.1777 277.5468,-717.3993 267,-691.7 216.9114,-569.6493 304.9617,-507.919 234,-396.7 213.2957,-364.2499 198.4926,-351.7 160,-351.7"/>
<polygon fill="#000000" stroke="#000000" points="305.5987,-749.4471 312.9362,-754.2556 309.5494,-750.0736 313.5,-750.7 313.5,-750.7 313.5,-750.7 309.5494,-750.0736 314.0638,-747.1444 305.5987,-749.4471 305.5987,-749.4471"/>
<ellipse fill="none" stroke="#000000" cx="302.4382" cy="-748.946" rx="3.2" ry="3.2"/>
</g>
<!-- roi.symbool -->
<g id="node5" class="node">
<title>roi.symbool</title>
<g id="a_node5"><a xlink:href="../../../roi/tables/symbool.html" xlink:title="roi.symbool" target="_top">
<polygon fill="#ffffff" stroke="transparent" points="63.5,-562.2 63.5,-623.2 170.5,-623.2 170.5,-562.2 63.5,-562.2"/>
<polygon fill="#f5f5f5" stroke="transparent" points="64,-599.7 64,-622.7 171,-622.7 171,-599.7 64,-599.7"/>
<polygon fill="none" stroke="#000000" points="64,-599.7 64,-622.7 171,-622.7 171,-599.7 64,-599.7"/>
<text text-anchor="start" x="69" y="-608.3" font-family="Helvetica,sans-Serif" font-weight="bold" font-size="11.00" fill="#000000">roi.symbool</text>
<text text-anchor="start" x="136.5219" y="-607.8" font-family="Helvetica,sans-Serif" font-size="11.00" fill="#000000">[table]</text>
<polygon fill="none" stroke="#000000" points="64,-580.7 64,-599.7 171,-599.7 171,-580.7 64,-580.7"/>
<text text-anchor="start" x="67" y="-586.8" font-family="Helvetica,sans-Serif" font-size="11.00" fill="#000000">...</text>
<polygon fill="#ffffff" stroke="transparent" points="64,-561.7 64,-580.7 107,-580.7 107,-561.7 64,-561.7"/>
<polygon fill="none" stroke="#000000" points="64,-561.7 64,-580.7 107,-580.7 107,-561.7 64,-561.7"/>
<text text-anchor="start" x="67" y="-567.8" font-family="Helvetica,sans-Serif" font-size="11.00" fill="#000000"> &#160;</text>
<polygon fill="#ffffff" stroke="transparent" points="107,-561.7 107,-580.7 134,-580.7 134,-561.7 107,-561.7"/>
<polygon fill="none" stroke="#000000" points="107,-561.7 107,-580.7 134,-580.7 134,-561.7 107,-561.7"/>
<text text-anchor="start" x="124.8862" y="-567.8" font-family="Helvetica,sans-Serif" font-size="11.00" fill="#000000"> &#160;</text>
<polygon fill="#ffffff" stroke="transparent" points="134,-561.7 134,-580.7 171,-580.7 171,-561.7 134,-561.7"/>
<polygon fill="none" stroke="#000000" points="134,-561.7 134,-580.7 171,-580.7 171,-561.7 134,-561.7"/>
<text text-anchor="start" x="152.4053" y="-567.8" font-family="Helvetica,sans-Serif" font-size="11.00" fill="#000000">6 &gt;</text>
</a>
</g>
</g>
<!-- bluswaterriool&#45;&gt;roi.symbool -->
<g id="edge4" class="edge">
<title>bluswaterriool:w&#45;&gt;roi.symbool:e</title>
<path fill="none" stroke="#000000" d="M298.9107,-793.3363C240.3614,-781.1499 282.4573,-690.0878 234,-633.7 211.7405,-607.7976 205.1529,-589.7 171,-589.7"/>
<polygon fill="#000000" stroke="#000000" points="305.5347,-793.9554 313.1649,-798.2844 309.5174,-794.3277 313.5,-794.7 313.5,-794.7 313.5,-794.7 309.5174,-794.3277 313.8351,-791.1156 305.5347,-793.9554 305.5347,-793.9554"/>
<ellipse fill="none" stroke="#000000" cx="302.3486" cy="-793.6576" rx="3.2" ry="3.2"/>
</g>
<!-- brandkraan -->
<g id="node6" class="node">
<title>brandkraan</title>
<g id="a_node6"><a xlink:href="../../tables/brandkraan.html" xlink:title="brandkraan" target="_top">
<polygon fill="#ffffff" stroke="transparent" points="296.5,-466.2 296.5,-681.2 494.5,-681.2 494.5,-466.2 296.5,-466.2"/>
<polygon fill="#f5f5f5" stroke="transparent" points="296.5,-657.7 296.5,-680.7 494.5,-680.7 494.5,-657.7 296.5,-657.7"/>
<polygon fill="none" stroke="#000000" points="296.5,-657.7 296.5,-680.7 494.5,-680.7 494.5,-657.7 296.5,-657.7"/>
<text text-anchor="start" x="301.5" y="-666.3" font-family="Helvetica,sans-Serif" font-weight="bold" font-size="11.00" fill="#000000">brandkraan</text>
<text text-anchor="start" x="459.5437" y="-665.8" font-family="Helvetica,sans-Serif" font-size="11.00" fill="#000000">[table]</text>
<polygon fill="none" stroke="#000000" points="296.5,-635.7 296.5,-657.7 494.5,-657.7 494.5,-635.7 296.5,-635.7"/>
<image xlink:href="../../images/primaryKeys.png" width="11px" height="12px" preserveAspectRatio="xMinYMin meet" x="301.5" y="-652.7"/>
<text text-anchor="start" x="316.5" y="-642.8" font-family="Helvetica,sans-Serif" font-size="11.00" fill="#000000">uuid</text>
<polygon fill="#ffffff" stroke="transparent" points="296.5,-613.7 296.5,-635.7 494.5,-635.7 494.5,-613.7 296.5,-613.7"/>
<polygon fill="none" stroke="#000000" points="296.5,-613.7 296.5,-635.7 494.5,-635.7 494.5,-613.7 296.5,-613.7"/>
<text text-anchor="start" x="316.5" y="-620.8" font-family="Helvetica,sans-Serif" font-size="11.00" fill="#000000">geom</text>
<polygon fill="#ffffff" stroke="transparent" points="296.5,-591.7 296.5,-613.7 494.5,-613.7 494.5,-591.7 296.5,-591.7"/>
<polygon fill="none" stroke="#000000" points="296.5,-591.7 296.5,-613.7 494.5,-613.7 494.5,-591.7 296.5,-591.7"/>
<text text-anchor="start" x="316.5" y="-598.8" font-family="Helvetica,sans-Serif" font-size="11.00" fill="#000000">nen3610id</text>
<polygon fill="none" stroke="#000000" points="296.5,-569.7 296.5,-591.7 494.5,-591.7 494.5,-569.7 296.5,-569.7"/>
<image xlink:href="../../images/foreignKeys.png" width="11px" height="12px" preserveAspectRatio="xMinYMin meet" x="301.5" y="-586.7"/>
<text text-anchor="start" x="316.5" y="-576.8" font-family="Helvetica,sans-Serif" font-size="11.00" fill="#000000">fase_id</text>
<polygon fill="none" stroke="#000000" points="296.5,-547.7 296.5,-569.7 494.5,-569.7 494.5,-547.7 296.5,-547.7"/>
<image xlink:href="../../images/foreignKeys.png" width="11px" height="12px" preserveAspectRatio="xMinYMin meet" x="301.5" y="-564.7"/>
<text text-anchor="start" x="316.5" y="-554.8" font-family="Helvetica,sans-Serif" font-size="11.00" fill="#000000">symbool_id</text>
<polygon fill="none" stroke="#000000" points="296.5,-525.7 296.5,-547.7 494.5,-547.7 494.5,-525.7 296.5,-525.7"/>
<image xlink:href="../../images/foreignKeys.png" width="11px" height="12px" preserveAspectRatio="xMinYMin meet" x="301.5" y="-542.7"/>
<text text-anchor="start" x="316.5" y="-532.8" font-family="Helvetica,sans-Serif" font-size="11.00" fill="#000000">gebied_id</text>
<polygon fill="none" stroke="#000000" points="296.5,-503.7 296.5,-525.7 494.5,-525.7 494.5,-503.7 296.5,-503.7"/>
<image xlink:href="../../images/foreignKeys.png" width="11px" height="12px" preserveAspectRatio="xMinYMin meet" x="301.5" y="-520.7"/>
<text text-anchor="start" x="316.5" y="-510.8" font-family="Helvetica,sans-Serif" font-size="11.00" fill="#000000">inspectie_conditie_id</text>
<polygon fill="none" stroke="#000000" points="296.5,-484.7 296.5,-503.7 494.5,-503.7 494.5,-484.7 296.5,-484.7"/>
<text text-anchor="start" x="299.5" y="-490.8" font-family="Helvetica,sans-Serif" font-size="11.00" fill="#000000">...</text>
<polygon fill="#ffffff" stroke="transparent" points="296.5,-465.7 296.5,-484.7 393.5,-484.7 393.5,-465.7 296.5,-465.7"/>
<polygon fill="none" stroke="#000000" points="296.5,-465.7 296.5,-484.7 393.5,-484.7 393.5,-465.7 296.5,-465.7"/>
<text text-anchor="start" x="299.5" y="-471.8" font-family="Helvetica,sans-Serif" font-size="11.00" fill="#000000">&lt; 4</text>
<polygon fill="#ffffff" stroke="transparent" points="393.5,-465.7 393.5,-484.7 443.5,-484.7 443.5,-465.7 393.5,-465.7"/>
<polygon fill="none" stroke="#000000" points="393.5,-465.7 393.5,-484.7 443.5,-484.7 443.5,-465.7 393.5,-465.7"/>
<text text-anchor="start" x="434.3862" y="-471.8" font-family="Helvetica,sans-Serif" font-size="11.00" fill="#000000"> &#160;</text>
<polygon fill="#ffffff" stroke="transparent" points="443.5,-465.7 443.5,-484.7 494.5,-484.7 494.5,-465.7 443.5,-465.7"/>
<polygon fill="none" stroke="#000000" points="443.5,-465.7 443.5,-484.7 494.5,-484.7 494.5,-465.7 443.5,-465.7"/>
<text text-anchor="start" x="485.3862" y="-471.8" font-family="Helvetica,sans-Serif" font-size="11.00" fill="#000000"> &#160;</text>
</a>
</g>
</g>
<!-- brandkraan&#45;&gt;roi.fase -->
<g id="edge5" class="edge">
<title>brandkraan:w&#45;&gt;roi.fase:e</title>
<path fill="none" stroke="#000000" d="M282.1236,-582.9375C260.5804,-590.6778 259.6456,-616.7696 234,-633.7 202.4837,-654.5061 195.7647,-671.7 158,-671.7"/>
<polygon fill="#000000" stroke="#000000" points="288.5952,-581.9303 297.0536,-584.2572 292.5476,-581.3152 296.5,-580.7 296.5,-580.7 296.5,-580.7 292.5476,-581.3152 295.9464,-577.1428 288.5952,-581.9303 288.5952,-581.9303"/>
<ellipse fill="none" stroke="#000000" cx="285.4332" cy="-582.4224" rx="3.2" ry="3.2"/>
</g>
<!-- brandkraan&#45;&gt;gebied -->
<g id="edge6" class="edge">
<title>brandkraan:w&#45;&gt;gebied:e</title>
<path fill="none" stroke="#000000" d="M282.166,-534.6004C259.8261,-527.4813 253.718,-504.7 224,-504.7"/>
<polygon fill="#000000" stroke="#000000" points="288.5845,-535.5405 295.9782,-540.262 292.5422,-536.1203 296.5,-536.7 296.5,-536.7 296.5,-536.7 292.5422,-536.1203 297.0218,-533.138 288.5845,-535.5405 288.5845,-535.5405"/>
<ellipse fill="none" stroke="#000000" cx="285.4183" cy="-535.0767" rx="3.2" ry="3.2"/>
</g>
<!-- brandkraan&#45;&gt;conditie -->
<g id="edge7" class="edge">
<title>brandkraan:w&#45;&gt;conditie:e</title>
<path fill="none" stroke="#000000" d="M282.2193,-512.8152C243.5061,-500.9509 270.8868,-435.8403 234,-396.7 207.6,-368.6871 198.4926,-351.7 160,-351.7"/>
<polygon fill="#000000" stroke="#000000" points="288.5688,-513.6531 296.0289,-518.269 292.5344,-514.1766 296.5,-514.7 296.5,-514.7 296.5,-514.7 292.5344,-514.1766 296.9711,-511.131 288.5688,-513.6531 288.5688,-513.6531"/>
<ellipse fill="none" stroke="#000000" cx="285.3963" cy="-513.2344" rx="3.2" ry="3.2"/>
</g>
<!-- brandkraan&#45;&gt;roi.symbool -->
<g id="edge8" class="edge">
<title>brandkraan:w&#45;&gt;roi.symbool:e</title>
<path fill="none" stroke="#000000" d="M282.0811,-559.4057C236.7643,-564.0201 223.2923,-589.7 171,-589.7"/>
<polygon fill="#000000" stroke="#000000" points="288.5096,-559.0911 296.676,-562.2957 292.5048,-558.8956 296.5,-558.7 296.5,-558.7 296.5,-558.7 292.5048,-558.8956 296.324,-555.1043 288.5096,-559.0911 288.5096,-559.0911"/>
<ellipse fill="none" stroke="#000000" cx="285.3134" cy="-559.2476" rx="3.2" ry="3.2"/>
</g>
<!-- brandkraan_prive -->
<g id="node7" class="node">
<title>brandkraan_prive</title>
<g id="a_node7"><a xlink:href="../../tables/brandkraan_prive.html" xlink:title="brandkraan_prive" target="_top">
<polygon fill="#ffffff" stroke="transparent" points="296.5,-252.2 296.5,-445.2 494.5,-445.2 494.5,-252.2 296.5,-252.2"/>
<polygon fill="#f5f5f5" stroke="transparent" points="296.5,-421.7 296.5,-444.7 494.5,-444.7 494.5,-421.7 296.5,-421.7"/>
<polygon fill="none" stroke="#000000" points="296.5,-421.7 296.5,-444.7 494.5,-444.7 494.5,-421.7 296.5,-421.7"/>
<text text-anchor="start" x="301.5" y="-430.3" font-family="Helvetica,sans-Serif" font-weight="bold" font-size="11.00" fill="#000000">brandkraan_prive</text>
<text text-anchor="start" x="459.5437" y="-429.8" font-family="Helvetica,sans-Serif" font-size="11.00" fill="#000000">[table]</text>
<polygon fill="none" stroke="#000000" points="296.5,-399.7 296.5,-421.7 494.5,-421.7 494.5,-399.7 296.5,-399.7"/>
<image xlink:href="../../images/primaryKeys.png" width="11px" height="12px" preserveAspectRatio="xMinYMin meet" x="301.5" y="-416.7"/>
<text text-anchor="start" x="316.5" y="-406.8" font-family="Helvetica,sans-Serif" font-size="11.00" fill="#000000">uuid</text>
<polygon fill="#ffffff" stroke="transparent" points="296.5,-377.7 296.5,-399.7 494.5,-399.7 494.5,-377.7 296.5,-377.7"/>
<polygon fill="none" stroke="#000000" points="296.5,-377.7 296.5,-399.7 494.5,-399.7 494.5,-377.7 296.5,-377.7"/>
<text text-anchor="start" x="316.5" y="-384.8" font-family="Helvetica,sans-Serif" font-size="11.00" fill="#000000">geom</text>
<polygon fill="none" stroke="#000000" points="296.5,-355.7 296.5,-377.7 494.5,-377.7 494.5,-355.7 296.5,-355.7"/>
<image xlink:href="../../images/foreignKeys.png" width="11px" height="12px" preserveAspectRatio="xMinYMin meet" x="301.5" y="-372.7"/>
<text text-anchor="start" x="316.5" y="-362.8" font-family="Helvetica,sans-Serif" font-size="11.00" fill="#000000">fase_id</text>
<polygon fill="none" stroke="#000000" points="296.5,-333.7 296.5,-355.7 494.5,-355.7 494.5,-333.7 296.5,-333.7"/>
<image xlink:href="../../images/foreignKeys.png" width="11px" height="12px" preserveAspectRatio="xMinYMin meet" x="301.5" y="-350.7"/>
<text text-anchor="start" x="316.5" y="-340.8" font-family="Helvetica,sans-Serif" font-size="11.00" fill="#000000">symbool_id</text>
<polygon fill="none" stroke="#000000" points="296.5,-311.7 296.5,-333.7 494.5,-333.7 494.5,-311.7 296.5,-311.7"/>
<image xlink:href="../../images/foreignKeys.png" width="11px" height="12px" preserveAspectRatio="xMinYMin meet" x="301.5" y="-328.7"/>
<text text-anchor="start" x="316.5" y="-318.8" font-family="Helvetica,sans-Serif" font-size="11.00" fill="#000000">gebied_id</text>
<polygon fill="none" stroke="#000000" points="296.5,-289.7 296.5,-311.7 494.5,-311.7 494.5,-289.7 296.5,-289.7"/>
<image xlink:href="../../images/foreignKeys.png" width="11px" height="12px" preserveAspectRatio="xMinYMin meet" x="301.5" y="-306.7"/>
<text text-anchor="start" x="316.5" y="-296.8" font-family="Helvetica,sans-Serif" font-size="11.00" fill="#000000">inspectie_conditie_id</text>
<polygon fill="none" stroke="#000000" points="296.5,-270.7 296.5,-289.7 494.5,-289.7 494.5,-270.7 296.5,-270.7"/>
<text text-anchor="start" x="299.5" y="-276.8" font-family="Helvetica,sans-Serif" font-size="11.00" fill="#000000">...</text>
<polygon fill="#ffffff" stroke="transparent" points="296.5,-251.7 296.5,-270.7 393.5,-270.7 393.5,-251.7 296.5,-251.7"/>
<polygon fill="none" stroke="#000000" points="296.5,-251.7 296.5,-270.7 393.5,-270.7 393.5,-251.7 296.5,-251.7"/>
<text text-anchor="start" x="299.5" y="-257.8" font-family="Helvetica,sans-Serif" font-size="11.00" fill="#000000">&lt; 4</text>
<polygon fill="#ffffff" stroke="transparent" points="393.5,-251.7 393.5,-270.7 443.5,-270.7 443.5,-251.7 393.5,-251.7"/>
<polygon fill="none" stroke="#000000" points="393.5,-251.7 393.5,-270.7 443.5,-270.7 443.5,-251.7 393.5,-251.7"/>
<text text-anchor="start" x="434.3862" y="-257.8" font-family="Helvetica,sans-Serif" font-size="11.00" fill="#000000"> &#160;</text>
<polygon fill="#ffffff" stroke="transparent" points="443.5,-251.7 443.5,-270.7 494.5,-270.7 494.5,-251.7 443.5,-251.7"/>
<polygon fill="none" stroke="#000000" points="443.5,-251.7 443.5,-270.7 494.5,-270.7 494.5,-251.7 443.5,-251.7"/>
<text text-anchor="start" x="485.3862" y="-257.8" font-family="Helvetica,sans-Serif" font-size="11.00" fill="#000000"> &#160;</text>
</a>
</g>
</g>
<!-- brandkraan_prive&#45;&gt;roi.fase -->
<g id="edge9" class="edge">
<title>brandkraan_prive:w&#45;&gt;roi.fase:e</title>
<path fill="none" stroke="#000000" d="M281.8682,-367.6622C185.888,-381.4691 304.0723,-540.6061 234,-633.7 211.289,-663.8725 195.7647,-671.7 158,-671.7"/>
<polygon fill="#000000" stroke="#000000" points="288.5172,-367.225 296.7363,-370.2922 292.5086,-366.9625 296.5,-366.7 296.5,-366.7 296.5,-366.7 292.5086,-366.9625 296.2637,-363.1078 288.5172,-367.225 288.5172,-367.225"/>
<ellipse fill="none" stroke="#000000" cx="285.3241" cy="-367.435" rx="3.2" ry="3.2"/>
</g>
<!-- brandkraan_prive&#45;&gt;gebied -->
<g id="edge10" class="edge">
<title>brandkraan_prive:w&#45;&gt;gebied:e</title>
<path fill="none" stroke="#000000" d="M281.9149,-324.8707C221.7477,-345.4049 305.4586,-504.7 224,-504.7"/>
<polygon fill="#000000" stroke="#000000" points="288.5872,-323.8777 297.03,-326.2608 292.5436,-323.2889 296.5,-322.7 296.5,-322.7 296.5,-322.7 292.5436,-323.2889 295.97,-319.1392 288.5872,-323.8777 288.5872,-323.8777"/>
<ellipse fill="none" stroke="#000000" cx="285.422" cy="-324.3488" rx="3.2" ry="3.2"/>
</g>
<!-- brandkraan_prive&#45;&gt;conditie -->
<g id="edge11" class="edge">
<title>brandkraan_prive:w&#45;&gt;conditie:e</title>
<path fill="none" stroke="#000000" d="M281.9941,-301.6287C230.2496,-308.5409 219.5767,-351.7 160,-351.7"/>
<polygon fill="#000000" stroke="#000000" points="288.5163,-301.2112 296.73,-304.2926 292.5082,-300.9556 296.5,-300.7 296.5,-300.7 296.5,-300.7 292.5082,-300.9556 296.27,-297.1074 288.5163,-301.2112 288.5163,-301.2112"/>
<ellipse fill="none" stroke="#000000" cx="285.3229" cy="-301.4157" rx="3.2" ry="3.2"/>
</g>
<!-- brandkraan_prive&#45;&gt;roi.symbool -->
<g id="edge12" class="edge">
<title>brandkraan_prive:w&#45;&gt;roi.symbool:e</title>
<path fill="none" stroke="#000000" d="M281.9242,-345.9281C210.3985,-359.376 289.6301,-480.1157 234,-551.7 213.9351,-577.5193 203.6992,-589.7 171,-589.7"/>
<polygon fill="#000000" stroke="#000000" points="288.5282,-345.3717 296.8023,-348.2873 292.5141,-345.0359 296.5,-344.7 296.5,-344.7 296.5,-344.7 292.5141,-345.0359 296.1977,-341.1127 288.5282,-345.3717 288.5282,-345.3717"/>
<ellipse fill="none" stroke="#000000" cx="285.3395" cy="-345.6404" rx="3.2" ry="3.2"/>
</g>
<!-- brandput -->
<g id="node8" class="node">
<title>brandput</title>
<g id="a_node8"><a xlink:href="../../tables/brandput.html" xlink:title="brandput" target="_top">
<polygon fill="#ffffff" stroke="transparent" points="305,-38.2 305,-231.2 486,-231.2 486,-38.2 305,-38.2"/>
<polygon fill="#f5f5f5" stroke="transparent" points="305.5,-207.7 305.5,-230.7 486.5,-230.7 486.5,-207.7 305.5,-207.7"/>
<polygon fill="none" stroke="#000000" points="305.5,-207.7 305.5,-230.7 486.5,-230.7 486.5,-207.7 305.5,-207.7"/>
<text text-anchor="start" x="310.5" y="-216.3" font-family="Helvetica,sans-Serif" font-weight="bold" font-size="11.00" fill="#000000">brandput</text>
<text text-anchor="start" x="451.5437" y="-215.8" font-family="Helvetica,sans-Serif" font-size="11.00" fill="#000000">[table]</text>
<polygon fill="none" stroke="#000000" points="305.5,-185.7 305.5,-207.7 486.5,-207.7 486.5,-185.7 305.5,-185.7"/>
<image xlink:href="../../images/primaryKeys.png" width="11px" height="12px" preserveAspectRatio="xMinYMin meet" x="310.5" y="-202.7"/>
<text text-anchor="start" x="325.5" y="-192.8" font-family="Helvetica,sans-Serif" font-size="11.00" fill="#000000">uuid</text>
<polygon fill="#ffffff" stroke="transparent" points="305.5,-163.7 305.5,-185.7 486.5,-185.7 486.5,-163.7 305.5,-163.7"/>
<polygon fill="none" stroke="#000000" points="305.5,-163.7 305.5,-185.7 486.5,-185.7 486.5,-163.7 305.5,-163.7"/>
<text text-anchor="start" x="325.5" y="-170.8" font-family="Helvetica,sans-Serif" font-size="11.00" fill="#000000">geom</text>
<polygon fill="none" stroke="#000000" points="305.5,-141.7 305.5,-163.7 486.5,-163.7 486.5,-141.7 305.5,-141.7"/>
<image xlink:href="../../images/foreignKeys.png" width="11px" height="12px" preserveAspectRatio="xMinYMin meet" x="310.5" y="-158.7"/>
<text text-anchor="start" x="325.5" y="-148.8" font-family="Helvetica,sans-Serif" font-size="11.00" fill="#000000">fase_id</text>
<polygon fill="none" stroke="#000000" points="305.5,-119.7 305.5,-141.7 486.5,-141.7 486.5,-119.7 305.5,-119.7"/>
<image xlink:href="../../images/foreignKeys.png" width="11px" height="12px" preserveAspectRatio="xMinYMin meet" x="310.5" y="-136.7"/>
<text text-anchor="start" x="325.5" y="-126.8" font-family="Helvetica,sans-Serif" font-size="11.00" fill="#000000">symbool_id</text>
<polygon fill="none" stroke="#000000" points="305.5,-97.7 305.5,-119.7 486.5,-119.7 486.5,-97.7 305.5,-97.7"/>
<image xlink:href="../../images/foreignKeys.png" width="11px" height="12px" preserveAspectRatio="xMinYMin meet" x="310.5" y="-114.7"/>
<text text-anchor="start" x="325.5" y="-104.8" font-family="Helvetica,sans-Serif" font-size="11.00" fill="#000000">gebied_id</text>
<polygon fill="none" stroke="#000000" points="305.5,-75.7 305.5,-97.7 486.5,-97.7 486.5,-75.7 305.5,-75.7"/>
<image xlink:href="../../images/foreignKeys.png" width="11px" height="12px" preserveAspectRatio="xMinYMin meet" x="310.5" y="-92.7"/>
<text text-anchor="start" x="325.5" y="-82.8" font-family="Helvetica,sans-Serif" font-size="11.00" fill="#000000">inspectie_conditie_id</text>
<polygon fill="none" stroke="#000000" points="305.5,-56.7 305.5,-75.7 486.5,-75.7 486.5,-56.7 305.5,-56.7"/>
<text text-anchor="start" x="308.5" y="-62.8" font-family="Helvetica,sans-Serif" font-size="11.00" fill="#000000">...</text>
<polygon fill="#ffffff" stroke="transparent" points="305.5,-37.7 305.5,-56.7 394.5,-56.7 394.5,-37.7 305.5,-37.7"/>
<polygon fill="none" stroke="#000000" points="305.5,-37.7 305.5,-56.7 394.5,-56.7 394.5,-37.7 305.5,-37.7"/>
<text text-anchor="start" x="308.5" y="-43.8" font-family="Helvetica,sans-Serif" font-size="11.00" fill="#000000">&lt; 4</text>
<polygon fill="#ffffff" stroke="transparent" points="394.5,-37.7 394.5,-56.7 440.5,-56.7 440.5,-37.7 394.5,-37.7"/>
<polygon fill="none" stroke="#000000" points="394.5,-37.7 394.5,-56.7 440.5,-56.7 440.5,-37.7 394.5,-37.7"/>
<text text-anchor="start" x="431.3862" y="-43.8" font-family="Helvetica,sans-Serif" font-size="11.00" fill="#000000"> &#160;</text>
<polygon fill="#ffffff" stroke="transparent" points="440.5,-37.7 440.5,-56.7 486.5,-56.7 486.5,-37.7 440.5,-37.7"/>
<polygon fill="none" stroke="#000000" points="440.5,-37.7 440.5,-56.7 486.5,-56.7 486.5,-37.7 440.5,-37.7"/>
<text text-anchor="start" x="477.3862" y="-43.8" font-family="Helvetica,sans-Serif" font-size="11.00" fill="#000000"> &#160;</text>
</a>
</g>
</g>
<!-- brandput&#45;&gt;roi.fase -->
<g id="edge13" class="edge">
<title>brandput:w&#45;&gt;roi.fase:e</title>
<path fill="none" stroke="#000000" d="M291.2115,-155.0745C265.9612,-165.1425 276.1063,-205.4524 267,-241.7 245.7,-326.4846 283.0403,-561.3317 234,-633.7 212.8148,-664.9628 195.7647,-671.7 158,-671.7"/>
<polygon fill="#000000" stroke="#000000" points="297.6082,-154.0115 306.0902,-156.2513 301.5541,-153.3558 305.5,-152.7 305.5,-152.7 305.5,-152.7 301.5541,-153.3558 304.9098,-149.1487 297.6082,-154.0115 297.6082,-154.0115"/>
<ellipse fill="none" stroke="#000000" cx="294.4515" cy="-154.5361" rx="3.2" ry="3.2"/>
</g>
<!-- brandput&#45;&gt;gebied -->
<g id="edge14" class="edge">
<title>brandput:w&#45;&gt;gebied:e</title>
<path fill="none" stroke="#000000" d="M291.5681,-112.6194C226.5166,-153.7467 308.5801,-504.7 224,-504.7"/>
<polygon fill="#000000" stroke="#000000" points="297.7989,-110.8665 306.4749,-112.1655 301.6495,-109.7833 305.5,-108.7 305.5,-108.7 305.5,-108.7 301.6495,-109.7833 304.5251,-105.2345 297.7989,-110.8665 297.7989,-110.8665"/>
<ellipse fill="none" stroke="#000000" cx="294.7185" cy="-111.7331" rx="3.2" ry="3.2"/>
</g>
<!-- brandput&#45;&gt;conditie -->
<g id="edge15" class="edge">
<title>brandput:w&#45;&gt;conditie:e</title>
<path fill="none" stroke="#000000" d="M290.9028,-87.8815C180.3711,-106.9988 289.1143,-351.7 160,-351.7"/>
<polygon fill="#000000" stroke="#000000" points="297.5261,-87.3455 305.7905,-90.2883 301.513,-87.0227 305.5,-86.7 305.5,-86.7 305.5,-86.7 301.513,-87.0227 305.2095,-83.1117 297.5261,-87.3455 297.5261,-87.3455"/>
<ellipse fill="none" stroke="#000000" cx="294.3365" cy="-87.6036" rx="3.2" ry="3.2"/>
</g>
<!-- brandput&#45;&gt;roi.symbool -->
<g id="edge16" class="edge">
<title>brandput:w&#45;&gt;roi.symbool:e</title>
<path fill="none" stroke="#000000" d="M290.9926,-132.7644C258.3395,-143.7254 277.1469,-196.3151 267,-241.7 231.993,-398.2782 331.4438,-589.7 171,-589.7"/>
<polygon fill="#000000" stroke="#000000" points="297.5798,-131.8271 306.0072,-134.2641 301.5399,-131.2635 305.5,-130.7 305.5,-130.7 305.5,-130.7 301.5399,-131.2635 304.9928,-127.1359 297.5798,-131.8271 297.5798,-131.8271"/>
<ellipse fill="none" stroke="#000000" cx="294.4117" cy="-132.2779" rx="3.2" ry="3.2"/>
</g>
<!-- openwater -->
<g id="node9" class="node">
<title>openwater</title>
<g id="a_node9"><a xlink:href="../../tables/openwater.html" xlink:title="openwater" target="_top">
<polygon fill="#ffffff" stroke="transparent" points="275,-916.2 275,-1109.2 516,-1109.2 516,-916.2 275,-916.2"/>
<polygon fill="#f5f5f5" stroke="transparent" points="275.5,-1085.7 275.5,-1108.7 516.5,-1108.7 516.5,-1085.7 275.5,-1085.7"/>
<polygon fill="none" stroke="#000000" points="275.5,-1085.7 275.5,-1108.7 516.5,-1108.7 516.5,-1085.7 275.5,-1085.7"/>
<text text-anchor="start" x="280.5" y="-1094.3" font-family="Helvetica,sans-Serif" font-weight="bold" font-size="11.00" fill="#000000">openwater</text>
<text text-anchor="start" x="481.5437" y="-1093.8" font-family="Helvetica,sans-Serif" font-size="11.00" fill="#000000">[table]</text>
<polygon fill="none" stroke="#000000" points="275.5,-1063.7 275.5,-1085.7 516.5,-1085.7 516.5,-1063.7 275.5,-1063.7"/>
<image xlink:href="../../images/primaryKeys.png" width="11px" height="12px" preserveAspectRatio="xMinYMin meet" x="280.5" y="-1080.7"/>
<text text-anchor="start" x="295.5" y="-1070.8" font-family="Helvetica,sans-Serif" font-size="11.00" fill="#000000">uuid</text>
<polygon fill="#ffffff" stroke="transparent" points="275.5,-1041.7 275.5,-1063.7 516.5,-1063.7 516.5,-1041.7 275.5,-1041.7"/>
<polygon fill="none" stroke="#000000" points="275.5,-1041.7 275.5,-1063.7 516.5,-1063.7 516.5,-1041.7 275.5,-1041.7"/>
<text text-anchor="start" x="295.5" y="-1048.8" font-family="Helvetica,sans-Serif" font-size="11.00" fill="#000000">geom</text>
<polygon fill="none" stroke="#000000" points="275.5,-1019.7 275.5,-1041.7 516.5,-1041.7 516.5,-1019.7 275.5,-1019.7"/>
<image xlink:href="../../images/foreignKeys.png" width="11px" height="12px" preserveAspectRatio="xMinYMin meet" x="280.5" y="-1036.7"/>
<text text-anchor="start" x="295.5" y="-1026.8" font-family="Helvetica,sans-Serif" font-size="11.00" fill="#000000">fase_id</text>
<polygon fill="none" stroke="#000000" points="275.5,-997.7 275.5,-1019.7 516.5,-1019.7 516.5,-997.7 275.5,-997.7"/>
<image xlink:href="../../images/foreignKeys.png" width="11px" height="12px" preserveAspectRatio="xMinYMin meet" x="280.5" y="-1014.7"/>
<text text-anchor="start" x="295.5" y="-1004.8" font-family="Helvetica,sans-Serif" font-size="11.00" fill="#000000">symbool_id</text>
<polygon fill="none" stroke="#000000" points="275.5,-975.7 275.5,-997.7 516.5,-997.7 516.5,-975.7 275.5,-975.7"/>
<image xlink:href="../../images/foreignKeys.png" width="11px" height="12px" preserveAspectRatio="xMinYMin meet" x="280.5" y="-992.7"/>
<text text-anchor="start" x="295.5" y="-982.8" font-family="Helvetica,sans-Serif" font-size="11.00" fill="#000000">gebied_id</text>
<polygon fill="none" stroke="#000000" points="275.5,-953.7 275.5,-975.7 516.5,-975.7 516.5,-953.7 275.5,-953.7"/>
<image xlink:href="../../images/foreignKeys.png" width="11px" height="12px" preserveAspectRatio="xMinYMin meet" x="280.5" y="-970.7"/>
<text text-anchor="start" x="295.5" y="-960.8" font-family="Helvetica,sans-Serif" font-size="11.00" fill="#000000">inspectie_conditie_id</text>
<polygon fill="none" stroke="#000000" points="275.5,-934.7 275.5,-953.7 516.5,-953.7 516.5,-934.7 275.5,-934.7"/>
<text text-anchor="start" x="278.5" y="-940.8" font-family="Helvetica,sans-Serif" font-size="11.00" fill="#000000">...</text>
<polygon fill="#ffffff" stroke="transparent" points="275.5,-915.7 275.5,-934.7 394.5,-934.7 394.5,-915.7 275.5,-915.7"/>
<polygon fill="none" stroke="#000000" points="275.5,-915.7 275.5,-934.7 394.5,-934.7 394.5,-915.7 275.5,-915.7"/>
<text text-anchor="start" x="278.5" y="-921.8" font-family="Helvetica,sans-Serif" font-size="11.00" fill="#000000">&lt; 4</text>
<polygon fill="#ffffff" stroke="transparent" points="394.5,-915.7 394.5,-934.7 455.5,-934.7 455.5,-915.7 394.5,-915.7"/>
<polygon fill="none" stroke="#000000" points="394.5,-915.7 394.5,-934.7 455.5,-934.7 455.5,-915.7 394.5,-915.7"/>
<text text-anchor="start" x="446.3862" y="-921.8" font-family="Helvetica,sans-Serif" font-size="11.00" fill="#000000"> &#160;</text>
<polygon fill="#ffffff" stroke="transparent" points="455.5,-915.7 455.5,-934.7 516.5,-934.7 516.5,-915.7 455.5,-915.7"/>
<polygon fill="none" stroke="#000000" points="455.5,-915.7 455.5,-934.7 516.5,-934.7 516.5,-915.7 455.5,-915.7"/>
<text text-anchor="start" x="507.3862" y="-921.8" font-family="Helvetica,sans-Serif" font-size="11.00" fill="#000000"> &#160;</text>
</a>
</g>
</g>
<!-- openwater&#45;&gt;roi.fase -->
<g id="edge17" class="edge">
<title>openwater:w&#45;&gt;roi.fase:e</title>
<path fill="none" stroke="#000000" d="M260.8686,-1029.6702C120.8804,-1008.6131 320.6379,-671.7 158,-671.7"/>
<polygon fill="#000000" stroke="#000000" points="267.5197,-1030.1383 275.2472,-1034.2911 271.5099,-1030.4191 275.5,-1030.7 275.5,-1030.7 275.5,-1030.7 271.5099,-1030.4191 275.7528,-1027.1089 267.5197,-1030.1383 267.5197,-1030.1383"/>
<ellipse fill="none" stroke="#000000" cx="264.3276" cy="-1029.9136" rx="3.2" ry="3.2"/>
</g>
<!-- openwater&#45;&gt;gebied -->
<g id="edge18" class="edge">
<title>openwater:w&#45;&gt;gebied:e</title>
<path fill="none" stroke="#000000" d="M261.1199,-983.0974C183.729,-938.9898 326.2506,-504.7 224,-504.7"/>
<polygon fill="#000000" stroke="#000000" points="267.7398,-984.7558 274.6251,-990.1921 271.6199,-985.7279 275.5,-986.7 275.5,-986.7 275.5,-986.7 271.6199,-985.7279 276.3749,-983.2079 267.7398,-984.7558 267.7398,-984.7558"/>
<ellipse fill="none" stroke="#000000" cx="264.6358" cy="-983.9781" rx="3.2" ry="3.2"/>
</g>
<!-- openwater&#45;&gt;conditie -->
<g id="edge19" class="edge">
<title>openwater:w&#45;&gt;conditie:e</title>
<path fill="none" stroke="#000000" d="M263.2739,-956.6061C219.8386,-890.9542 264.3498,-446.8082 234,-396.7 214.0583,-363.7757 198.4926,-351.7 160,-351.7"/>
<polygon fill="#000000" stroke="#000000" points="268.8293,-960.2839 273.5127,-967.7018 272.1647,-962.4919 275.5,-964.7 275.5,-964.7 275.5,-964.7 272.1647,-962.4919 277.4873,-961.6982 268.8293,-960.2839 268.8293,-960.2839"/>
<ellipse fill="none" stroke="#000000" cx="266.161" cy="-958.5174" rx="3.2" ry="3.2"/>
</g>
<!-- openwater&#45;&gt;roi.symbool -->
<g id="edge20" class="edge">
<title>openwater:w&#45;&gt;roi.symbool:e</title>
<path fill="none" stroke="#000000" d="M261.3148,-1005.0679C202.1012,-970.6128 274.0367,-701.1508 234,-633.7 216.5676,-604.3311 205.1529,-589.7 171,-589.7"/>
<polygon fill="#000000" stroke="#000000" points="267.75,-1006.7156 274.607,-1012.1875 271.625,-1007.7078 275.5,-1008.7 275.5,-1008.7 275.5,-1008.7 271.625,-1007.7078 276.393,-1005.2125 267.75,-1006.7156 267.75,-1006.7156"/>
<ellipse fill="none" stroke="#000000" cx="264.65" cy="-1005.9219" rx="3.2" ry="3.2"/>
</g>
</g>
</svg>
