<?xml version="1.0" encoding="UTF-8" standalone="no"?>
<!DOCTYPE svg PUBLIC "-//W3C//DTD SVG 1.1//EN"
 "http://www.w3.org/Graphics/SVG/1.1/DTD/svg11.dtd">
<!-- Generated by graphviz version 2.50.0 (0)
 -->
<!-- Title: twoDegreesRelationshipsDiagram Pages: 1 -->
<svg width="588pt" height="1245pt"
 viewBox="0.00 0.00 588.00 1245.00" xmlns="http://www.w3.org/2000/svg" xmlns:xlink="http://www.w3.org/1999/xlink">
<g id="graph0" class="graph" transform="scale(1 1) rotate(0) translate(4 1241)">
<title>twoDegreesRelationshipsDiagram</title>
<polygon fill="#ffffff" stroke="transparent" points="-4,4 -4,-1241 584,-1241 584,4 -4,4"/>
<text text-anchor="middle" x="79.5" y="-7.2" font-family="Helvetica,sans-Serif" font-size="11.00">Generated by SchemaSpy</text>
<!-- bluswaterriool -->
<g id="node1" class="node">
<title>bluswaterriool</title>
<g id="a_node1"><a xlink:href="../../tables/bluswaterriool.html" xlink:title="bluswaterriool" target="_top">
<polygon fill="#ffffff" stroke="transparent" points="306,-274 306,-332 447,-332 447,-274 306,-274"/>
<polygon fill="#f5f5f5" stroke="transparent" points="306.5,-310 306.5,-332 447.5,-332 447.5,-310 306.5,-310"/>
<polygon fill="none" stroke="black" points="306.5,-310 306.5,-332 447.5,-332 447.5,-310 306.5,-310"/>
<text text-anchor="start" x="311.5" y="-319.2" font-family="Helvetica,sans-Serif" font-weight="bold" font-size="11.00">bluswaterriool</text>
<text text-anchor="start" x="405.5" y="-318.2" font-family="Helvetica,sans-Serif" font-size="11.00">[table]</text>
<polygon fill="none" stroke="black" points="306.5,-292 306.5,-310 447.5,-310 447.5,-292 306.5,-292"/>
<text text-anchor="start" x="309.5" y="-298.2" font-family="Helvetica,sans-Serif" font-size="11.00">...</text>
<polygon fill="#ffffff" stroke="transparent" points="306.5,-274 306.5,-292 375.5,-292 375.5,-274 306.5,-274"/>
<polygon fill="none" stroke="black" points="306.5,-274 306.5,-292 375.5,-292 375.5,-274 306.5,-274"/>
<text text-anchor="start" x="309.5" y="-280.2" font-family="Helvetica,sans-Serif" font-size="11.00">&lt; 4</text>
<polygon fill="#ffffff" stroke="transparent" points="375.5,-274 375.5,-292 411.5,-292 411.5,-274 375.5,-274"/>
<polygon fill="none" stroke="black" points="375.5,-274 375.5,-292 411.5,-292 411.5,-274 375.5,-274"/>
<text text-anchor="start" x="400.5" y="-280.2" font-family="Helvetica,sans-Serif" font-size="11.00"> &#160;</text>
<polygon fill="#ffffff" stroke="transparent" points="411.5,-274 411.5,-292 447.5,-292 447.5,-274 411.5,-274"/>
<polygon fill="none" stroke="black" points="411.5,-274 411.5,-292 447.5,-292 447.5,-274 411.5,-274"/>
<text text-anchor="start" x="436.5" y="-280.2" font-family="Helvetica,sans-Serif" font-size="11.00"> &#160;</text>
</a>
</g>
</g>
<!-- roi.fase -->
<g id="node2" class="node">
<title>roi.fase</title>
<g id="a_node2"><a xlink:href="../../../roi/tables/fase.html" xlink:title="roi.fase" target="_top">
<polygon fill="#ffffff" stroke="transparent" points="20.5,-324 20.5,-382 119.5,-382 119.5,-324 20.5,-324"/>
<polygon fill="#f5f5f5" stroke="transparent" points="21,-360 21,-382 120,-382 120,-360 21,-360"/>
<polygon fill="none" stroke="black" points="21,-360 21,-382 120,-382 120,-360 21,-360"/>
<text text-anchor="start" x="26" y="-369.2" font-family="Helvetica,sans-Serif" font-weight="bold" font-size="11.00">roi.fase</text>
<text text-anchor="start" x="78" y="-368.2" font-family="Helvetica,sans-Serif" font-size="11.00">[table]</text>
<polygon fill="none" stroke="black" points="21,-342 21,-360 120,-360 120,-342 21,-342"/>
<text text-anchor="start" x="24" y="-348.2" font-family="Helvetica,sans-Serif" font-size="11.00">...</text>
<polygon fill="#ffffff" stroke="transparent" points="21,-324 21,-342 57,-342 57,-324 21,-324"/>
<polygon fill="none" stroke="black" points="21,-324 21,-342 57,-342 57,-324 21,-324"/>
<text text-anchor="start" x="24" y="-330.2" font-family="Helvetica,sans-Serif" font-size="11.00"> &#160;</text>
<polygon fill="#ffffff" stroke="transparent" points="57,-324 57,-342 82,-342 82,-324 57,-324"/>
<polygon fill="none" stroke="black" points="57,-324 57,-342 82,-342 82,-324 57,-324"/>
<text text-anchor="start" x="71" y="-330.2" font-family="Helvetica,sans-Serif" font-size="11.00"> &#160;</text>
<polygon fill="#ffffff" stroke="transparent" points="82,-324 82,-342 120,-342 120,-324 82,-324"/>
<polygon fill="none" stroke="black" points="82,-324 82,-342 120,-342 120,-324 82,-324"/>
<text text-anchor="start" x="97" y="-330.2" font-family="Helvetica,sans-Serif" font-size="11.00">5 &gt;</text>
</a>
</g>
</g>
<!-- bluswaterriool&#45;&gt;roi.fase -->
<g id="edge1" class="edge">
<title>bluswaterriool:w&#45;&gt;roi.fase:e</title>
<path fill="none" stroke="black" d="M290.87,-301.31C232.93,-303.72 170.91,-319.65 127.56,-333.19"/>
<polygon fill="black" stroke="black" points="297.5,-301.17 305.58,-304.6 301.5,-301.08 305.5,-301 305.5,-301 305.5,-301 301.5,-301.08 305.42,-297.4 297.5,-301.17 297.5,-301.17"/>
<ellipse fill="none" stroke="black" cx="294.3" cy="-301.24" rx="3.2" ry="3.2"/>
</g>
<!-- gebied -->
<g id="node3" class="node">
<title>gebied</title>
<g id="a_node3"><a xlink:href="../../tables/gebied.html" xlink:title="gebied" target="_top">
<polygon fill="#ffffff" stroke="transparent" points="21,-144 21,-224 119,-224 119,-144 21,-144"/>
<polygon fill="#f5f5f5" stroke="transparent" points="21,-202 21,-224 119,-224 119,-202 21,-202"/>
<polygon fill="none" stroke="black" points="21,-202 21,-224 119,-224 119,-202 21,-202"/>
<text text-anchor="start" x="26" y="-211.2" font-family="Helvetica,sans-Serif" font-weight="bold" font-size="11.00">gebied</text>
<text text-anchor="start" x="77" y="-210.2" font-family="Helvetica,sans-Serif" font-size="11.00">[table]</text>
<polygon fill="none" stroke="black" points="21,-180 21,-202 119,-202 119,-180 21,-180"/>
<image xlink:href="../../images/primaryKeys.png" width="11px" height="12px" preserveAspectRatio="xMinYMin meet" x="26" y="-197"/>
<text text-anchor="start" x="41" y="-188.2" font-family="Helvetica,sans-Serif" font-size="11.00">id</text>
<polygon fill="none" stroke="black" points="21,-162 21,-180 119,-180 119,-162 21,-162"/>
<text text-anchor="start" x="24" y="-168.2" font-family="Helvetica,sans-Serif" font-size="11.00">...</text>
<polygon fill="#ffffff" stroke="transparent" points="21,-144 21,-162 57,-162 57,-144 21,-144"/>
<polygon fill="none" stroke="black" points="21,-144 21,-162 57,-162 57,-144 21,-144"/>
<text text-anchor="start" x="24" y="-150.2" font-family="Helvetica,sans-Serif" font-size="11.00"> &#160;</text>
<polygon fill="#ffffff" stroke="transparent" points="57,-144 57,-162 82,-162 82,-144 57,-144"/>
<polygon fill="none" stroke="black" points="57,-144 57,-162 82,-162 82,-144 57,-144"/>
<text text-anchor="start" x="71" y="-150.2" font-family="Helvetica,sans-Serif" font-size="11.00"> &#160;</text>
<polygon fill="#ffffff" stroke="transparent" points="82,-144 82,-162 119,-162 119,-144 82,-144"/>
<polygon fill="none" stroke="black" points="82,-144 82,-162 119,-162 119,-144 82,-144"/>
<text text-anchor="start" x="96" y="-150.2" font-family="Helvetica,sans-Serif" font-size="11.00">5 &gt;</text>
</a>
</g>
</g>
<!-- bluswaterriool&#45;&gt;gebied -->
<g id="edge2" class="edge">
<title>bluswaterriool:w&#45;&gt;gebied:e</title>
<path fill="none" stroke="black" d="M290.9,-300.94C240.6,-300.42 218.98,-295.97 173,-264 140.08,-241.11 160.09,-191 120,-191"/>
<polygon fill="black" stroke="black" points="297.5,-300.97 305.48,-304.6 301.5,-300.98 305.5,-301 305.5,-301 305.5,-301 301.5,-300.98 305.52,-297.4 297.5,-300.97 297.5,-300.97"/>
<ellipse fill="none" stroke="black" cx="294.3" cy="-300.95" rx="3.2" ry="3.2"/>
</g>
<!-- conditie -->
<g id="node4" class="node">
<title>conditie</title>
<g id="a_node4"><a xlink:href="../../tables/conditie.html" xlink:title="conditie" target="_top">
<polygon fill="#ffffff" stroke="transparent" points="19.5,-43 19.5,-123 120.5,-123 120.5,-43 19.5,-43"/>
<polygon fill="#f5f5f5" stroke="transparent" points="20,-101 20,-123 121,-123 121,-101 20,-101"/>
<polygon fill="none" stroke="black" points="20,-101 20,-123 121,-123 121,-101 20,-101"/>
<text text-anchor="start" x="25" y="-110.2" font-family="Helvetica,sans-Serif" font-weight="bold" font-size="11.00">conditie</text>
<text text-anchor="start" x="79" y="-109.2" font-family="Helvetica,sans-Serif" font-size="11.00">[table]</text>
<polygon fill="none" stroke="black" points="20,-79 20,-101 121,-101 121,-79 20,-79"/>
<image xlink:href="../../images/primaryKeys.png" width="11px" height="12px" preserveAspectRatio="xMinYMin meet" x="25" y="-96"/>
<text text-anchor="start" x="42" y="-87.2" font-family="Helvetica,sans-Serif" font-size="11.00">id</text>
<polygon fill="none" stroke="black" points="20,-61 20,-79 121,-79 121,-61 20,-61"/>
<text text-anchor="start" x="23" y="-67.2" font-family="Helvetica,sans-Serif" font-size="11.00">...</text>
<polygon fill="#ffffff" stroke="transparent" points="20,-43 20,-61 57,-61 57,-43 20,-43"/>
<polygon fill="none" stroke="black" points="20,-43 20,-61 57,-61 57,-43 20,-43"/>
<text text-anchor="start" x="23" y="-49.2" font-family="Helvetica,sans-Serif" font-size="11.00"> &#160;</text>
<polygon fill="#ffffff" stroke="transparent" points="57,-43 57,-61 83,-61 83,-43 57,-43"/>
<polygon fill="none" stroke="black" points="57,-43 57,-61 83,-61 83,-43 57,-43"/>
<text text-anchor="start" x="72" y="-49.2" font-family="Helvetica,sans-Serif" font-size="11.00"> &#160;</text>
<polygon fill="#ffffff" stroke="transparent" points="83,-43 83,-61 121,-61 121,-43 83,-43"/>
<polygon fill="none" stroke="black" points="83,-43 83,-61 121,-61 121,-43 83,-43"/>
<text text-anchor="start" x="98" y="-49.2" font-family="Helvetica,sans-Serif" font-size="11.00">5 &gt;</text>
</a>
</g>
</g>
<!-- bluswaterriool&#45;&gt;conditie -->
<g id="edge3" class="edge">
<title>bluswaterriool:w&#45;&gt;conditie:e</title>
<path fill="none" stroke="black" d="M291.08,-301.1C239.56,-301.77 212.21,-304.16 173,-264 116.7,-206.34 202.59,-90 122,-90"/>
<polygon fill="black" stroke="black" points="297.5,-301.06 305.53,-304.6 301.5,-301.03 305.5,-301 305.5,-301 305.5,-301 301.5,-301.03 305.47,-297.4 297.5,-301.06 297.5,-301.06"/>
<ellipse fill="none" stroke="black" cx="294.3" cy="-301.08" rx="3.2" ry="3.2"/>
</g>
<!-- roi.symbool -->
<g id="node5" class="node">
<title>roi.symbool</title>
<g id="a_node5"><a xlink:href="../../../roi/tables/symbool.html" xlink:title="roi.symbool" target="_top">
<polygon fill="#ffffff" stroke="transparent" points="8,-245 8,-303 132,-303 132,-245 8,-245"/>
<polygon fill="#f5f5f5" stroke="transparent" points="8,-281 8,-303 132,-303 132,-281 8,-281"/>
<polygon fill="none" stroke="black" points="8,-281 8,-303 132,-303 132,-281 8,-281"/>
<text text-anchor="start" x="13" y="-290.2" font-family="Helvetica,sans-Serif" font-weight="bold" font-size="11.00">roi.symbool</text>
<text text-anchor="start" x="90" y="-289.2" font-family="Helvetica,sans-Serif" font-size="11.00">[table]</text>
<polygon fill="none" stroke="black" points="8,-263 8,-281 132,-281 132,-263 8,-263"/>
<text text-anchor="start" x="11" y="-269.2" font-family="Helvetica,sans-Serif" font-size="11.00">...</text>
<polygon fill="#ffffff" stroke="transparent" points="8,-245 8,-263 57,-263 57,-245 8,-245"/>
<polygon fill="none" stroke="black" points="8,-245 8,-263 57,-263 57,-245 8,-245"/>
<text text-anchor="start" x="11" y="-251.2" font-family="Helvetica,sans-Serif" font-size="11.00"> &#160;</text>
<polygon fill="#ffffff" stroke="transparent" points="57,-245 57,-263 88,-263 88,-245 57,-245"/>
<polygon fill="none" stroke="black" points="57,-245 57,-263 88,-263 88,-245 57,-245"/>
<text text-anchor="start" x="77" y="-251.2" font-family="Helvetica,sans-Serif" font-size="11.00"> &#160;</text>
<polygon fill="#ffffff" stroke="transparent" points="88,-245 88,-263 132,-263 132,-245 88,-245"/>
<polygon fill="none" stroke="black" points="88,-245 88,-263 132,-263 132,-245 88,-245"/>
<text text-anchor="start" x="109" y="-251.2" font-family="Helvetica,sans-Serif" font-size="11.00">5 &gt;</text>
</a>
</g>
</g>
<!-- bluswaterriool&#45;&gt;roi.symbool -->
<g id="edge4" class="edge">
<title>bluswaterriool:w&#45;&gt;roi.symbool:e</title>
<path fill="none" stroke="black" d="M290.94,-300.84C238.86,-299.68 182.6,-292.71 140.02,-286.16"/>
<polygon fill="black" stroke="black" points="297.5,-300.91 305.46,-304.6 301.5,-300.95 305.5,-301 305.5,-301 305.5,-301 301.5,-300.95 305.54,-297.4 297.5,-300.91 297.5,-300.91"/>
<ellipse fill="none" stroke="black" cx="294.3" cy="-300.87" rx="3.2" ry="3.2"/>
</g>
<!-- brandkraan -->
<g id="node6" class="node">
<title>brandkraan</title>
<g id="a_node6"><a xlink:href="../../tables/brandkraan.html" xlink:title="brandkraan" target="_top">
<polygon fill="#ffffff" stroke="transparent" points="315.5,-195 315.5,-253 437.5,-253 437.5,-195 315.5,-195"/>
<polygon fill="#f5f5f5" stroke="transparent" points="315.5,-231 315.5,-253 437.5,-253 437.5,-231 315.5,-231"/>
<polygon fill="none" stroke="black" points="315.5,-231 315.5,-253 437.5,-253 437.5,-231 315.5,-231"/>
<text text-anchor="start" x="320.5" y="-240.2" font-family="Helvetica,sans-Serif" font-weight="bold" font-size="11.00">brandkraan</text>
<text text-anchor="start" x="395.5" y="-239.2" font-family="Helvetica,sans-Serif" font-size="11.00">[table]</text>
<polygon fill="none" stroke="black" points="315.5,-213 315.5,-231 437.5,-231 437.5,-213 315.5,-213"/>
<text text-anchor="start" x="318.5" y="-219.2" font-family="Helvetica,sans-Serif" font-size="11.00">...</text>
<polygon fill="#ffffff" stroke="transparent" points="315.5,-195 315.5,-213 375.5,-213 375.5,-195 315.5,-195"/>
<polygon fill="none" stroke="black" points="315.5,-195 315.5,-213 375.5,-213 375.5,-195 315.5,-195"/>
<text text-anchor="start" x="318.5" y="-201.2" font-family="Helvetica,sans-Serif" font-size="11.00">&lt; 4</text>
<polygon fill="#ffffff" stroke="transparent" points="375.5,-195 375.5,-213 406.5,-213 406.5,-195 375.5,-195"/>
<polygon fill="none" stroke="black" points="375.5,-195 375.5,-213 406.5,-213 406.5,-195 375.5,-195"/>
<text text-anchor="start" x="395.5" y="-201.2" font-family="Helvetica,sans-Serif" font-size="11.00"> &#160;</text>
<polygon fill="#ffffff" stroke="transparent" points="406.5,-195 406.5,-213 437.5,-213 437.5,-195 406.5,-195"/>
<polygon fill="none" stroke="black" points="406.5,-195 406.5,-213 437.5,-213 437.5,-195 406.5,-195"/>
<text text-anchor="start" x="426.5" y="-201.2" font-family="Helvetica,sans-Serif" font-size="11.00"> &#160;</text>
</a>
</g>
</g>
<!-- brandkraan&#45;&gt;roi.fase -->
<g id="edge5" class="edge">
<title>brandkraan:w&#45;&gt;roi.fase:e</title>
<path fill="none" stroke="black" d="M299.87,-222.07C245.09,-222.68 221.58,-227.98 173,-264 151.61,-279.86 159.46,-295.83 140,-314 136.18,-317.57 131.97,-320.94 127.57,-324.08"/>
<polygon fill="black" stroke="black" points="306.5,-222.04 314.52,-225.6 310.5,-222.02 314.5,-222 314.5,-222 314.5,-222 310.5,-222.02 314.48,-218.4 306.5,-222.04 306.5,-222.04"/>
<ellipse fill="none" stroke="black" cx="303.3" cy="-222.05" rx="3.2" ry="3.2"/>
</g>
<!-- brandkraan&#45;&gt;gebied -->
<g id="edge6" class="edge">
<title>brandkraan:w&#45;&gt;gebied:e</title>
<path fill="none" stroke="black" d="M299.79,-221.69C224.45,-218.47 202.41,-191 120,-191"/>
<polygon fill="black" stroke="black" points="306.5,-221.83 314.42,-225.6 310.5,-221.92 314.5,-222 314.5,-222 314.5,-222 310.5,-221.92 314.58,-218.4 306.5,-221.83 306.5,-221.83"/>
<ellipse fill="none" stroke="black" cx="303.3" cy="-221.77" rx="3.2" ry="3.2"/>
</g>
<!-- brandkraan&#45;&gt;conditie -->
<g id="edge7" class="edge">
<title>brandkraan:w&#45;&gt;conditie:e</title>
<path fill="none" stroke="black" d="M299.96,-222.04C245.37,-222.24 220.08,-222.07 173,-185 135.35,-155.36 169.92,-90 122,-90"/>
<polygon fill="black" stroke="black" points="306.5,-222.02 314.51,-225.6 310.5,-222.01 314.5,-222 314.5,-222 314.5,-222 310.5,-222.01 314.49,-218.4 306.5,-222.02 306.5,-222.02"/>
<ellipse fill="none" stroke="black" cx="303.3" cy="-222.03" rx="3.2" ry="3.2"/>
</g>
<!-- brandkraan&#45;&gt;roi.symbool -->
<g id="edge8" class="edge">
<title>brandkraan:w&#45;&gt;roi.symbool:e</title>
<path fill="none" stroke="black" d="M300.03,-222.28C244.25,-224.42 184.64,-238.28 140.23,-251.12"/>
<polygon fill="black" stroke="black" points="306.5,-222.16 314.57,-225.6 310.5,-222.08 314.5,-222 314.5,-222 314.5,-222 310.5,-222.08 314.43,-218.4 306.5,-222.16 306.5,-222.16"/>
<ellipse fill="none" stroke="black" cx="303.3" cy="-222.22" rx="3.2" ry="3.2"/>
</g>
<!-- brandkraan_prive -->
<g id="node7" class="node">
<title>brandkraan_prive</title>
<g id="a_node7"><a xlink:href="../../tables/brandkraan_prive.html" xlink:title="brandkraan_prive" target="_top">
<polygon fill="#ffffff" stroke="transparent" points="297,-116 297,-174 456,-174 456,-116 297,-116"/>
<polygon fill="#f5f5f5" stroke="transparent" points="297.5,-152 297.5,-174 456.5,-174 456.5,-152 297.5,-152"/>
<polygon fill="none" stroke="black" points="297.5,-152 297.5,-174 456.5,-174 456.5,-152 297.5,-152"/>
<text text-anchor="start" x="302.5" y="-161.2" font-family="Helvetica,sans-Serif" font-weight="bold" font-size="11.00">brandkraan_prive</text>
<text text-anchor="start" x="414.5" y="-160.2" font-family="Helvetica,sans-Serif" font-size="11.00">[table]</text>
<polygon fill="none" stroke="black" points="297.5,-134 297.5,-152 456.5,-152 456.5,-134 297.5,-134"/>
<text text-anchor="start" x="300.5" y="-140.2" font-family="Helvetica,sans-Serif" font-size="11.00">...</text>
<polygon fill="#ffffff" stroke="transparent" points="297.5,-116 297.5,-134 375.5,-134 375.5,-116 297.5,-116"/>
<polygon fill="none" stroke="black" points="297.5,-116 297.5,-134 375.5,-134 375.5,-116 297.5,-116"/>
<text text-anchor="start" x="300.5" y="-122.2" font-family="Helvetica,sans-Serif" font-size="11.00">&lt; 4</text>
<polygon fill="#ffffff" stroke="transparent" points="375.5,-116 375.5,-134 415.5,-134 415.5,-116 375.5,-116"/>
<polygon fill="none" stroke="black" points="375.5,-116 375.5,-134 415.5,-134 415.5,-116 375.5,-116"/>
<text text-anchor="start" x="404.5" y="-122.2" font-family="Helvetica,sans-Serif" font-size="11.00"> &#160;</text>
<polygon fill="#ffffff" stroke="transparent" points="415.5,-116 415.5,-134 456.5,-134 456.5,-116 415.5,-116"/>
<polygon fill="none" stroke="black" points="415.5,-116 415.5,-134 456.5,-134 456.5,-116 415.5,-116"/>
<text text-anchor="start" x="445.5" y="-122.2" font-family="Helvetica,sans-Serif" font-size="11.00"> &#160;</text>
</a>
</g>
</g>
<!-- brandkraan_prive&#45;&gt;roi.fase -->
<g id="edge9" class="edge">
<title>brandkraan_prive:w&#45;&gt;roi.fase:e</title>
<path fill="none" stroke="black" d="M281.92,-143.02C233.83,-143.24 208.92,-146.19 173,-185 132.8,-228.43 175.97,-267.01 140,-314 136.49,-318.59 132.27,-322.72 127.67,-326.42"/>
<polygon fill="black" stroke="black" points="288.5,-143.01 296.5,-146.6 292.5,-143 296.5,-143 296.5,-143 296.5,-143 292.5,-143 296.5,-139.4 288.5,-143.01 288.5,-143.01"/>
<ellipse fill="none" stroke="black" cx="285.3" cy="-143.01" rx="3.2" ry="3.2"/>
</g>
<!-- brandkraan_prive&#45;&gt;gebied -->
<g id="edge10" class="edge">
<title>brandkraan_prive:w&#45;&gt;gebied:e</title>
<path fill="none" stroke="black" d="M282.01,-143.54C213.2,-148.81 196.21,-191 120,-191"/>
<polygon fill="black" stroke="black" points="288.51,-143.3 296.63,-146.6 292.5,-143.15 296.5,-143 296.5,-143 296.5,-143 292.5,-143.15 296.37,-139.4 288.51,-143.3 288.51,-143.3"/>
<ellipse fill="none" stroke="black" cx="285.31" cy="-143.42" rx="3.2" ry="3.2"/>
</g>
<!-- brandkraan_prive&#45;&gt;conditie -->
<g id="edge11" class="edge">
<title>brandkraan_prive:w&#45;&gt;conditie:e</title>
<path fill="none" stroke="black" d="M282.1,-142.53C236.8,-139.4 222.86,-121.29 173,-106 150.29,-99.04 145.76,-90 122,-90"/>
<polygon fill="black" stroke="black" points="288.5,-142.74 296.38,-146.6 292.5,-142.87 296.5,-143 296.5,-143 296.5,-143 292.5,-142.87 296.62,-139.4 288.5,-142.74 288.5,-142.74"/>
<ellipse fill="none" stroke="black" cx="285.31" cy="-142.63" rx="3.2" ry="3.2"/>
</g>
<!-- brandkraan_prive&#45;&gt;roi.symbool -->
<g id="edge12" class="edge">
<title>brandkraan_prive:w&#45;&gt;roi.symbool:e</title>
<path fill="none" stroke="black" d="M282.06,-143.17C234.87,-144.38 214.85,-152.68 173,-185 151.93,-201.27 159.46,-216.83 140,-235 137.79,-237.07 135.44,-239.06 133.01,-240.99"/>
<polygon fill="black" stroke="black" points="288.5,-143.09 296.54,-146.6 292.5,-143.05 296.5,-143 296.5,-143 296.5,-143 292.5,-143.05 296.46,-139.4 288.5,-143.09 288.5,-143.09"/>
<ellipse fill="none" stroke="black" cx="285.3" cy="-143.13" rx="3.2" ry="3.2"/>
</g>
<!-- brandput -->
<g id="node8" class="node">
<title>brandput</title>
<g id="a_node8"><a xlink:href="../../tables/brandput.html" xlink:title="brandput" target="_top">
<polygon fill="#ffffff" stroke="transparent" points="323,-37 323,-95 430,-95 430,-37 323,-37"/>
<polygon fill="#f5f5f5" stroke="transparent" points="323.5,-73 323.5,-95 430.5,-95 430.5,-73 323.5,-73"/>
<polygon fill="none" stroke="black" points="323.5,-73 323.5,-95 430.5,-95 430.5,-73 323.5,-73"/>
<text text-anchor="start" x="328.5" y="-82.2" font-family="Helvetica,sans-Serif" font-weight="bold" font-size="11.00">brandput</text>
<text text-anchor="start" x="388.5" y="-81.2" font-family="Helvetica,sans-Serif" font-size="11.00">[table]</text>
<polygon fill="none" stroke="black" points="323.5,-55 323.5,-73 430.5,-73 430.5,-55 323.5,-55"/>
<text text-anchor="start" x="326.5" y="-61.2" font-family="Helvetica,sans-Serif" font-size="11.00">...</text>
<polygon fill="#ffffff" stroke="transparent" points="323.5,-37 323.5,-55 375.5,-55 375.5,-37 323.5,-37"/>
<polygon fill="none" stroke="black" points="323.5,-37 323.5,-55 375.5,-55 375.5,-37 323.5,-37"/>
<text text-anchor="start" x="326.5" y="-43.2" font-family="Helvetica,sans-Serif" font-size="11.00">&lt; 4</text>
<polygon fill="#ffffff" stroke="transparent" points="375.5,-37 375.5,-55 402.5,-55 402.5,-37 375.5,-37"/>
<polygon fill="none" stroke="black" points="375.5,-37 375.5,-55 402.5,-55 402.5,-37 375.5,-37"/>
<text text-anchor="start" x="391.5" y="-43.2" font-family="Helvetica,sans-Serif" font-size="11.00"> &#160;</text>
<polygon fill="#ffffff" stroke="transparent" points="402.5,-37 402.5,-55 430.5,-55 430.5,-37 402.5,-37"/>
<polygon fill="none" stroke="black" points="402.5,-37 402.5,-55 430.5,-55 430.5,-37 402.5,-37"/>
<text text-anchor="start" x="419.5" y="-43.2" font-family="Helvetica,sans-Serif" font-size="11.00"> &#160;</text>
</a>
</g>
</g>
<!-- brandput&#45;&gt;roi.fase -->
<g id="edge13" class="edge">
<title>brandput:w&#45;&gt;roi.fase:e</title>
<path fill="none" stroke="black" d="M308.06,-63.88C248.42,-62.94 215.56,-58.16 173,-106 110.78,-175.93 193.38,-237.11 140,-314 136.63,-318.86 132.44,-323.19 127.81,-327.03"/>
<polygon fill="black" stroke="black" points="314.5,-63.93 322.47,-67.6 318.5,-63.97 322.5,-64 322.5,-64 322.5,-64 318.5,-63.97 322.53,-60.4 314.5,-63.93 314.5,-63.93"/>
<ellipse fill="none" stroke="black" cx="311.3" cy="-63.9" rx="3.2" ry="3.2"/>
</g>
<!-- brandput&#45;&gt;gebied -->
<g id="edge14" class="edge">
<title>brandput:w&#45;&gt;gebied:e</title>
<path fill="none" stroke="black" d="M307.83,-64.03C249.57,-64.31 224.11,-67.66 173,-106 137.39,-132.71 164.52,-191 120,-191"/>
<polygon fill="black" stroke="black" points="314.5,-64.01 322.51,-67.6 318.5,-64.01 322.5,-64 322.5,-64 322.5,-64 318.5,-64.01 322.49,-60.4 314.5,-64.01 314.5,-64.01"/>
<ellipse fill="none" stroke="black" cx="311.3" cy="-64.02" rx="3.2" ry="3.2"/>
</g>
<!-- brandput&#45;&gt;conditie -->
<g id="edge15" class="edge">
<title>brandput:w&#45;&gt;conditie:e</title>
<path fill="none" stroke="black" d="M307.87,-64.24C230.07,-66.86 206.77,-90 122,-90"/>
<polygon fill="black" stroke="black" points="314.5,-64.13 322.56,-67.6 318.5,-64.07 322.5,-64 322.5,-64 322.5,-64 318.5,-64.07 322.44,-60.4 314.5,-64.13 314.5,-64.13"/>
<ellipse fill="none" stroke="black" cx="311.3" cy="-64.18" rx="3.2" ry="3.2"/>
</g>
<!-- brandput&#45;&gt;roi.symbool -->
<g id="edge16" class="edge">
<title>brandput:w&#45;&gt;roi.symbool:e</title>
<path fill="none" stroke="black" d="M308.09,-63.91C248.74,-63.23 217.74,-60.2 173,-106 131.65,-148.33 175.97,-188.01 140,-235 138.41,-237.08 136.68,-239.06 134.83,-240.95"/>
<polygon fill="black" stroke="black" points="314.5,-63.95 322.48,-67.6 318.5,-63.97 322.5,-64 322.5,-64 322.5,-64 318.5,-63.97 322.52,-60.4 314.5,-63.95 314.5,-63.95"/>
<ellipse fill="none" stroke="black" cx="311.3" cy="-63.93" rx="3.2" ry="3.2"/>
</g>
<!-- openwater -->
<g id="node9" class="node">
<title>openwater</title>
<g id="a_node9"><a xlink:href="../../tables/openwater.html" xlink:title="openwater" target="_top">
<polygon fill="#ffffff" stroke="transparent" points="181,-353 181,-1233 572,-1233 572,-353 181,-353"/>
<polygon fill="#f5f5f5" stroke="transparent" points="183.5,-1209 183.5,-1231 570.5,-1231 570.5,-1209 183.5,-1209"/>
<polygon fill="none" stroke="black" points="183.5,-1209 183.5,-1231 570.5,-1231 570.5,-1209 183.5,-1209"/>
<text text-anchor="start" x="188.5" y="-1218.2" font-family="Helvetica,sans-Serif" font-weight="bold" font-size="11.00">openwater</text>
<text text-anchor="start" x="528.5" y="-1217.2" font-family="Helvetica,sans-Serif" font-size="11.00">[table]</text>
<polygon fill="none" stroke="black" points="183.5,-1187 183.5,-1209 434.5,-1209 434.5,-1187 183.5,-1187"/>
<image xlink:href="../../images/primaryKeys.png" width="11px" height="12px" preserveAspectRatio="xMinYMin meet" x="188.5" y="-1204"/>
<text text-anchor="start" x="203.5" y="-1195.2" font-family="Helvetica,sans-Serif" font-size="11.00">uuid</text>
<polygon fill="none" stroke="black" points="434.5,-1187 434.5,-1209 570.5,-1209 570.5,-1187 434.5,-1187"/>
<text text-anchor="start" x="437.5" y="-1195.2" font-family="Helvetica,sans-Serif" font-size="11.00">uuid[2147483647]</text>
<polygon fill="#ffffff" stroke="transparent" points="183.5,-1165 183.5,-1187 434.5,-1187 434.5,-1165 183.5,-1165"/>
<polygon fill="none" stroke="black" points="183.5,-1165 183.5,-1187 434.5,-1187 434.5,-1165 183.5,-1165"/>
<text text-anchor="start" x="203.5" y="-1173.2" font-family="Helvetica,sans-Serif" font-size="11.00">geom</text>
<polygon fill="none" stroke="black" points="434.5,-1165 434.5,-1187 570.5,-1187 570.5,-1165 434.5,-1165"/>
<text text-anchor="start" x="437.5" y="-1173.2" font-family="Helvetica,sans-Serif" font-size="11.00">geometry[2147483647]</text>
<polygon fill="none" stroke="black" points="183.5,-1143 183.5,-1165 434.5,-1165 434.5,-1143 183.5,-1143"/>
<text text-anchor="start" x="203.5" y="-1151.2" font-family="Helvetica,sans-Serif" font-size="11.00">datumtijd</text>
<polygon fill="none" stroke="black" points="434.5,-1143 434.5,-1165 570.5,-1165 570.5,-1143 434.5,-1143"/>
<text text-anchor="start" x="437.5" y="-1151.2" font-family="Helvetica,sans-Serif" font-size="11.00">timestamptz[35,6]</text>
<polygon fill="none" stroke="black" points="183.5,-1121 183.5,-1143 434.5,-1143 434.5,-1121 183.5,-1121"/>
<text text-anchor="start" x="203.5" y="-1129.2" font-family="Helvetica,sans-Serif" font-size="11.00">gebruiker</text>
<polygon fill="none" stroke="black" points="434.5,-1121 434.5,-1143 570.5,-1143 570.5,-1121 434.5,-1121"/>
<text text-anchor="start" x="437.5" y="-1129.2" font-family="Helvetica,sans-Serif" font-size="11.00">varchar[255]</text>
<polygon fill="none" stroke="black" points="183.5,-1099 183.5,-1121 434.5,-1121 434.5,-1099 183.5,-1099"/>
<text text-anchor="start" x="203.5" y="-1107.2" font-family="Helvetica,sans-Serif" font-size="11.00">label</text>
<polygon fill="none" stroke="black" points="434.5,-1099 434.5,-1121 570.5,-1121 570.5,-1099 434.5,-1099"/>
<text text-anchor="start" x="437.5" y="-1107.2" font-family="Helvetica,sans-Serif" font-size="11.00">text[2147483647]</text>
<polygon fill="none" stroke="black" points="183.5,-1077 183.5,-1099 434.5,-1099 434.5,-1077 183.5,-1077"/>
<text text-anchor="start" x="203.5" y="-1085.2" font-family="Helvetica,sans-Serif" font-size="11.00">rotatie</text>
<polygon fill="none" stroke="black" points="434.5,-1077 434.5,-1099 570.5,-1099 570.5,-1077 434.5,-1077"/>
<text text-anchor="start" x="437.5" y="-1085.2" font-family="Helvetica,sans-Serif" font-size="11.00">int4[10]</text>
<polygon fill="none" stroke="black" points="183.5,-1055 183.5,-1077 434.5,-1077 434.5,-1055 183.5,-1055"/>
<text text-anchor="start" x="203.5" y="-1063.2" font-family="Helvetica,sans-Serif" font-size="11.00">bijzonderheden</text>
<polygon fill="none" stroke="black" points="434.5,-1055 434.5,-1077 570.5,-1077 570.5,-1055 434.5,-1055"/>
<text text-anchor="start" x="437.5" y="-1063.2" font-family="Helvetica,sans-Serif" font-size="11.00">text[2147483647]</text>
<polygon fill="none" stroke="black" points="183.5,-1033 183.5,-1055 434.5,-1055 434.5,-1033 183.5,-1033"/>
<text text-anchor="start" x="203.5" y="-1041.2" font-family="Helvetica,sans-Serif" font-size="11.00">plusinfo</text>
<polygon fill="none" stroke="black" points="434.5,-1033 434.5,-1055 570.5,-1055 570.5,-1033 434.5,-1033"/>
<text text-anchor="start" x="437.5" y="-1041.2" font-family="Helvetica,sans-Serif" font-size="11.00">jsonb[2147483647]</text>
<polygon fill="none" stroke="black" points="183.5,-1011 183.5,-1033 434.5,-1033 434.5,-1011 183.5,-1011"/>
<text text-anchor="start" x="203.5" y="-1019.2" font-family="Helvetica,sans-Serif" font-size="11.00">code</text>
<polygon fill="none" stroke="black" points="434.5,-1011 434.5,-1033 570.5,-1033 570.5,-1011 434.5,-1011"/>
<text text-anchor="start" x="437.5" y="-1019.2" font-family="Helvetica,sans-Serif" font-size="11.00">text[2147483647]</text>
<polygon fill="none" stroke="black" points="183.5,-989 183.5,-1011 434.5,-1011 434.5,-989 183.5,-989"/>
<text text-anchor="start" x="203.5" y="-997.2" font-family="Helvetica,sans-Serif" font-size="11.00">beheerder</text>
<polygon fill="none" stroke="black" points="434.5,-989 434.5,-1011 570.5,-1011 570.5,-989 434.5,-989"/>
<text text-anchor="start" x="437.5" y="-997.2" font-family="Helvetica,sans-Serif" font-size="11.00">text[2147483647]</text>
<polygon fill="none" stroke="black" points="183.5,-967 183.5,-989 434.5,-989 434.5,-967 183.5,-967"/>
<text text-anchor="start" x="203.5" y="-975.2" font-family="Helvetica,sans-Serif" font-size="11.00">particulier</text>
<polygon fill="none" stroke="black" points="434.5,-967 434.5,-989 570.5,-989 570.5,-967 434.5,-967"/>
<text text-anchor="start" x="437.5" y="-975.2" font-family="Helvetica,sans-Serif" font-size="11.00">text[2147483647]</text>
<polygon fill="none" stroke="black" points="183.5,-945 183.5,-967 434.5,-967 434.5,-945 183.5,-945"/>
<text text-anchor="start" x="203.5" y="-953.2" font-family="Helvetica,sans-Serif" font-size="11.00">adres</text>
<polygon fill="none" stroke="black" points="434.5,-945 434.5,-967 570.5,-967 570.5,-945 434.5,-945"/>
<text text-anchor="start" x="437.5" y="-953.2" font-family="Helvetica,sans-Serif" font-size="11.00">text[2147483647]</text>
<polygon fill="none" stroke="black" points="183.5,-923 183.5,-945 434.5,-945 434.5,-923 183.5,-923"/>
<text text-anchor="start" x="203.5" y="-931.2" font-family="Helvetica,sans-Serif" font-size="11.00">uitsluiten</text>
<polygon fill="none" stroke="black" points="434.5,-923 434.5,-945 570.5,-945 570.5,-923 434.5,-923"/>
<text text-anchor="start" x="437.5" y="-931.2" font-family="Helvetica,sans-Serif" font-size="11.00">bool[1]</text>
<polygon fill="none" stroke="black" points="183.5,-901 183.5,-923 434.5,-923 434.5,-901 183.5,-901"/>
<text text-anchor="start" x="203.5" y="-909.2" font-family="Helvetica,sans-Serif" font-size="11.00">revisie_frequentie</text>
<polygon fill="none" stroke="black" points="434.5,-901 434.5,-923 570.5,-923 570.5,-901 434.5,-901"/>
<text text-anchor="start" x="437.5" y="-909.2" font-family="Helvetica,sans-Serif" font-size="11.00">int2[5]</text>
<polygon fill="none" stroke="black" points="183.5,-879 183.5,-901 434.5,-901 434.5,-879 183.5,-879"/>
<image xlink:href="../../images/foreignKeys.png" width="11px" height="12px" preserveAspectRatio="xMinYMin meet" x="188.5" y="-896"/>
<text text-anchor="start" x="203.5" y="-887.2" font-family="Helvetica,sans-Serif" font-size="11.00">fase_id</text>
<polygon fill="none" stroke="black" points="434.5,-879 434.5,-901 570.5,-901 570.5,-879 434.5,-879"/>
<text text-anchor="start" x="437.5" y="-887.2" font-family="Helvetica,sans-Serif" font-size="11.00">int2[5]</text>
<polygon fill="none" stroke="black" points="183.5,-857 183.5,-879 434.5,-879 434.5,-857 183.5,-857"/>
<image xlink:href="../../images/foreignKeys.png" width="11px" height="12px" preserveAspectRatio="xMinYMin meet" x="188.5" y="-874"/>
<text text-anchor="start" x="203.5" y="-865.2" font-family="Helvetica,sans-Serif" font-size="11.00">symbool_id</text>
<polygon fill="none" stroke="black" points="434.5,-857 434.5,-879 570.5,-879 570.5,-857 434.5,-857"/>
<text text-anchor="start" x="437.5" y="-865.2" font-family="Helvetica,sans-Serif" font-size="11.00">int2[5]</text>
<polygon fill="none" stroke="black" points="183.5,-835 183.5,-857 434.5,-857 434.5,-835 183.5,-835"/>
<image xlink:href="../../images/foreignKeys.png" width="11px" height="12px" preserveAspectRatio="xMinYMin meet" x="188.5" y="-852"/>
<text text-anchor="start" x="203.5" y="-843.2" font-family="Helvetica,sans-Serif" font-size="11.00">gebied_id</text>
<polygon fill="none" stroke="black" points="434.5,-835 434.5,-857 570.5,-857 570.5,-835 434.5,-835"/>
<text text-anchor="start" x="437.5" y="-843.2" font-family="Helvetica,sans-Serif" font-size="11.00">int2[5]</text>
<polygon fill="none" stroke="black" points="183.5,-813 183.5,-835 434.5,-835 434.5,-813 183.5,-813"/>
<text text-anchor="start" x="203.5" y="-821.2" font-family="Helvetica,sans-Serif" font-size="11.00">opstelplaats</text>
<polygon fill="none" stroke="black" points="434.5,-813 434.5,-835 570.5,-835 570.5,-813 434.5,-813"/>
<text text-anchor="start" x="437.5" y="-821.2" font-family="Helvetica,sans-Serif" font-size="11.00">bool[1]</text>
<polygon fill="none" stroke="black" points="183.5,-791 183.5,-813 434.5,-813 434.5,-791 183.5,-791"/>
<text text-anchor="start" x="203.5" y="-799.2" font-family="Helvetica,sans-Serif" font-size="11.00">opstelplaats_locatie</text>
<polygon fill="none" stroke="black" points="434.5,-791 434.5,-813 570.5,-813 570.5,-791 434.5,-791"/>
<text text-anchor="start" x="437.5" y="-799.2" font-family="Helvetica,sans-Serif" font-size="11.00">text[2147483647]</text>
<polygon fill="none" stroke="black" points="183.5,-769 183.5,-791 434.5,-791 434.5,-769 183.5,-769"/>
<text text-anchor="start" x="203.5" y="-777.2" font-family="Helvetica,sans-Serif" font-size="11.00">opstelplaats_waterdiepte</text>
<polygon fill="none" stroke="black" points="434.5,-769 434.5,-791 570.5,-791 570.5,-769 434.5,-769"/>
<text text-anchor="start" x="437.5" y="-777.2" font-family="Helvetica,sans-Serif" font-size="11.00">numeric[0]</text>
<polygon fill="none" stroke="black" points="183.5,-747 183.5,-769 434.5,-769 434.5,-747 183.5,-747"/>
<text text-anchor="start" x="203.5" y="-755.2" font-family="Helvetica,sans-Serif" font-size="11.00">markering</text>
<polygon fill="none" stroke="black" points="434.5,-747 434.5,-769 570.5,-769 570.5,-747 434.5,-747"/>
<text text-anchor="start" x="437.5" y="-755.2" font-family="Helvetica,sans-Serif" font-size="11.00">text[2147483647]</text>
<polygon fill="none" stroke="black" points="183.5,-725 183.5,-747 434.5,-747 434.5,-725 183.5,-725"/>
<text text-anchor="start" x="203.5" y="-733.2" font-family="Helvetica,sans-Serif" font-size="11.00">toegang</text>
<polygon fill="none" stroke="black" points="434.5,-725 434.5,-747 570.5,-747 570.5,-725 434.5,-725"/>
<text text-anchor="start" x="437.5" y="-733.2" font-family="Helvetica,sans-Serif" font-size="11.00">text[2147483647]</text>
<polygon fill="none" stroke="black" points="183.5,-703 183.5,-725 434.5,-725 434.5,-703 183.5,-703"/>
<text text-anchor="start" x="203.5" y="-711.2" font-family="Helvetica,sans-Serif" font-size="11.00">aanleg</text>
<polygon fill="none" stroke="black" points="434.5,-703 434.5,-725 570.5,-725 570.5,-703 434.5,-703"/>
<text text-anchor="start" x="437.5" y="-711.2" font-family="Helvetica,sans-Serif" font-size="11.00">date[13]</text>
<polygon fill="none" stroke="black" points="183.5,-681 183.5,-703 434.5,-703 434.5,-681 183.5,-681"/>
<text text-anchor="start" x="203.5" y="-689.2" font-family="Helvetica,sans-Serif" font-size="11.00">oever</text>
<polygon fill="none" stroke="black" points="434.5,-681 434.5,-703 570.5,-703 570.5,-681 434.5,-681"/>
<text text-anchor="start" x="437.5" y="-689.2" font-family="Helvetica,sans-Serif" font-size="11.00">text[2147483647]</text>
<polygon fill="none" stroke="black" points="183.5,-659 183.5,-681 434.5,-681 434.5,-659 183.5,-659"/>
<text text-anchor="start" x="203.5" y="-667.2" font-family="Helvetica,sans-Serif" font-size="11.00">bodem</text>
<polygon fill="none" stroke="black" points="434.5,-659 434.5,-681 570.5,-681 570.5,-659 434.5,-659"/>
<text text-anchor="start" x="437.5" y="-667.2" font-family="Helvetica,sans-Serif" font-size="11.00">text[2147483647]</text>
<polygon fill="none" stroke="black" points="183.5,-637 183.5,-659 434.5,-659 434.5,-637 183.5,-637"/>
<text text-anchor="start" x="203.5" y="-645.2" font-family="Helvetica,sans-Serif" font-size="11.00">open_verbinding</text>
<polygon fill="none" stroke="black" points="434.5,-637 434.5,-659 570.5,-659 570.5,-637 434.5,-637"/>
<text text-anchor="start" x="437.5" y="-645.2" font-family="Helvetica,sans-Serif" font-size="11.00">bool[1]</text>
<polygon fill="none" stroke="black" points="183.5,-615 183.5,-637 434.5,-637 434.5,-615 183.5,-615"/>
<text text-anchor="start" x="203.5" y="-623.2" font-family="Helvetica,sans-Serif" font-size="11.00">voertuig</text>
<polygon fill="none" stroke="black" points="434.5,-615 434.5,-637 570.5,-637 570.5,-615 434.5,-615"/>
<text text-anchor="start" x="437.5" y="-623.2" font-family="Helvetica,sans-Serif" font-size="11.00">text[2147483647]</text>
<polygon fill="none" stroke="black" points="183.5,-593 183.5,-615 434.5,-615 434.5,-593 183.5,-593"/>
<text text-anchor="start" x="203.5" y="-601.2" font-family="Helvetica,sans-Serif" font-size="11.00">inspecteur</text>
<polygon fill="none" stroke="black" points="434.5,-593 434.5,-615 570.5,-615 570.5,-593 434.5,-593"/>
<text text-anchor="start" x="437.5" y="-601.2" font-family="Helvetica,sans-Serif" font-size="11.00">text[2147483647]</text>
<polygon fill="none" stroke="black" points="183.5,-571 183.5,-593 434.5,-593 434.5,-571 183.5,-571"/>
<text text-anchor="start" x="203.5" y="-579.2" font-family="Helvetica,sans-Serif" font-size="11.00">inspectie_datum</text>
<polygon fill="none" stroke="black" points="434.5,-571 434.5,-593 570.5,-593 570.5,-571 434.5,-571"/>
<text text-anchor="start" x="437.5" y="-579.2" font-family="Helvetica,sans-Serif" font-size="11.00">date[13]</text>
<polygon fill="none" stroke="black" points="183.5,-549 183.5,-571 434.5,-571 434.5,-549 183.5,-549"/>
<image xlink:href="../../images/foreignKeys.png" width="11px" height="12px" preserveAspectRatio="xMinYMin meet" x="188.5" y="-566"/>
<text text-anchor="start" x="203.5" y="-557.2" font-family="Helvetica,sans-Serif" font-size="11.00">inspectie_conditie_id</text>
<polygon fill="none" stroke="black" points="434.5,-549 434.5,-571 570.5,-571 570.5,-549 434.5,-549"/>
<text text-anchor="start" x="437.5" y="-557.2" font-family="Helvetica,sans-Serif" font-size="11.00">int2[5]</text>
<polygon fill="none" stroke="black" points="183.5,-527 183.5,-549 434.5,-549 434.5,-527 183.5,-527"/>
<text text-anchor="start" x="203.5" y="-535.2" font-family="Helvetica,sans-Serif" font-size="11.00">inspectie_opmerking</text>
<polygon fill="none" stroke="black" points="434.5,-527 434.5,-549 570.5,-549 570.5,-527 434.5,-527"/>
<text text-anchor="start" x="437.5" y="-535.2" font-family="Helvetica,sans-Serif" font-size="11.00">text[2147483647]</text>
<polygon fill="none" stroke="black" points="183.5,-505 183.5,-527 434.5,-527 434.5,-505 183.5,-505"/>
<text text-anchor="start" x="203.5" y="-513.2" font-family="Helvetica,sans-Serif" font-size="11.00">inspectie_plusinfo</text>
<polygon fill="none" stroke="black" points="434.5,-505 434.5,-527 570.5,-527 570.5,-505 434.5,-505"/>
<text text-anchor="start" x="437.5" y="-513.2" font-family="Helvetica,sans-Serif" font-size="11.00">jsonb[2147483647]</text>
<polygon fill="none" stroke="black" points="183.5,-483 183.5,-505 434.5,-505 434.5,-483 183.5,-483"/>
<text text-anchor="start" x="203.5" y="-491.2" font-family="Helvetica,sans-Serif" font-size="11.00">inspectie_opstelplaats</text>
<polygon fill="none" stroke="black" points="434.5,-483 434.5,-505 570.5,-505 570.5,-483 434.5,-483"/>
<text text-anchor="start" x="437.5" y="-491.2" font-family="Helvetica,sans-Serif" font-size="11.00">text[2147483647]</text>
<polygon fill="none" stroke="black" points="183.5,-461 183.5,-483 434.5,-483 434.5,-461 183.5,-461"/>
<text text-anchor="start" x="203.5" y="-469.2" font-family="Helvetica,sans-Serif" font-size="11.00">inspectie_opstelplaats_bereikbaarheid</text>
<polygon fill="none" stroke="black" points="434.5,-461 434.5,-483 570.5,-483 570.5,-461 434.5,-461"/>
<text text-anchor="start" x="437.5" y="-469.2" font-family="Helvetica,sans-Serif" font-size="11.00">text[2147483647]</text>
<polygon fill="none" stroke="black" points="183.5,-439 183.5,-461 434.5,-461 434.5,-439 183.5,-439"/>
<text text-anchor="start" x="203.5" y="-447.2" font-family="Helvetica,sans-Serif" font-size="11.00">inspectie_opstelplaats_waterdiepte</text>
<polygon fill="none" stroke="black" points="434.5,-439 434.5,-461 570.5,-461 570.5,-439 434.5,-439"/>
<text text-anchor="start" x="437.5" y="-447.2" font-family="Helvetica,sans-Serif" font-size="11.00">text[2147483647]</text>
<polygon fill="none" stroke="black" points="183.5,-417 183.5,-439 434.5,-439 434.5,-417 183.5,-417"/>
<text text-anchor="start" x="203.5" y="-425.2" font-family="Helvetica,sans-Serif" font-size="11.00">inspectie_markering</text>
<polygon fill="none" stroke="black" points="434.5,-417 434.5,-439 570.5,-439 570.5,-417 434.5,-417"/>
<text text-anchor="start" x="437.5" y="-425.2" font-family="Helvetica,sans-Serif" font-size="11.00">text[2147483647]</text>
<polygon fill="none" stroke="black" points="183.5,-395 183.5,-417 434.5,-417 434.5,-395 183.5,-395"/>
<text text-anchor="start" x="203.5" y="-403.2" font-family="Helvetica,sans-Serif" font-size="11.00">inspectie_beplanting</text>
<polygon fill="none" stroke="black" points="434.5,-395 434.5,-417 570.5,-417 570.5,-395 434.5,-395"/>
<text text-anchor="start" x="437.5" y="-403.2" font-family="Helvetica,sans-Serif" font-size="11.00">text[2147483647]</text>
<polygon fill="none" stroke="black" points="183.5,-373 183.5,-395 434.5,-395 434.5,-373 183.5,-373"/>
<text text-anchor="start" x="203.5" y="-381.2" font-family="Helvetica,sans-Serif" font-size="11.00">inspectie_obstakels</text>
<polygon fill="none" stroke="black" points="434.5,-373 434.5,-395 570.5,-395 570.5,-373 434.5,-373"/>
<text text-anchor="start" x="437.5" y="-381.2" font-family="Helvetica,sans-Serif" font-size="11.00">text[2147483647]</text>
<polygon fill="#ffffff" stroke="transparent" points="183.5,-355 183.5,-373 314.5,-373 314.5,-355 183.5,-355"/>
<polygon fill="none" stroke="black" points="183.5,-355 183.5,-373 314.5,-373 314.5,-355 183.5,-355"/>
<text text-anchor="start" x="186.5" y="-361.2" font-family="Helvetica,sans-Serif" font-size="11.00">&lt; 4</text>
<polygon fill="#ffffff" stroke="transparent" points="314.5,-355 314.5,-373 434.5,-373 434.5,-355 314.5,-355"/>
<polygon fill="none" stroke="black" points="314.5,-355 314.5,-373 434.5,-373 434.5,-355 314.5,-355"/>
<text text-anchor="start" x="423.5" y="-361.2" font-family="Helvetica,sans-Serif" font-size="11.00"> &#160;</text>
<polygon fill="#ffffff" stroke="transparent" points="434.5,-355 434.5,-373 570.5,-373 570.5,-355 434.5,-355"/>
<polygon fill="none" stroke="black" points="434.5,-355 434.5,-373 570.5,-373 570.5,-355 434.5,-355"/>
<text text-anchor="start" x="547.5" y="-361.2" font-family="Helvetica,sans-Serif" font-size="11.00">0 &gt;</text>
<polygon fill="none" stroke="black" stroke-width="2" points="182,-354 182,-1232 571,-1232 571,-354 182,-354"/>
</a>
</g>
</g>
<!-- openwater&#45;&gt;roi.fase -->
<g id="edge17" class="edge">
<title>openwater:w&#45;&gt;roi.fase:e</title>
<path fill="none" stroke="black" d="M168.3,-887.42C78.31,-853.61 70.88,-497.66 70.78,-386.19"/>
<polygon fill="black" stroke="black" points="174.63,-888.57 181.86,-893.54 178.56,-889.28 182.5,-890 182.5,-890 182.5,-890 178.56,-889.28 183.14,-886.46 174.63,-888.57 174.63,-888.57"/>
<ellipse fill="none" stroke="black" cx="171.48" cy="-887.99" rx="3.2" ry="3.2"/>
</g>
<!-- openwater&#45;&gt;gebied -->
<g id="edge18" class="edge">
<title>openwater:w&#45;&gt;gebied:e</title>
<path fill="none" stroke="black" d="M170.23,-838.19C119.53,-764.29 188.4,-191 120,-191"/>
<polygon fill="black" stroke="black" points="175.75,-841.7 180.57,-849.04 179.13,-843.85 182.5,-846 182.5,-846 182.5,-846 179.13,-843.85 184.43,-842.96 175.75,-841.7 175.75,-841.7"/>
<ellipse fill="none" stroke="black" cx="173.05" cy="-839.98" rx="3.2" ry="3.2"/>
</g>
<!-- openwater&#45;&gt;conditie -->
<g id="edge19" class="edge">
<title>openwater:w&#45;&gt;conditie:e</title>
<path fill="none" stroke="black" d="M168.37,-556.49C91.78,-513.48 221.96,-90 122,-90"/>
<polygon fill="black" stroke="black" points="174.74,-558.07 181.63,-563.49 178.62,-559.04 182.5,-560 182.5,-560 182.5,-560 178.62,-559.04 183.37,-556.51 174.74,-558.07 174.74,-558.07"/>
<ellipse fill="none" stroke="black" cx="171.63" cy="-557.3" rx="3.2" ry="3.2"/>
</g>
<!-- openwater&#45;&gt;roi.symbool -->
<g id="edge20" class="edge">
<title>openwater:w&#45;&gt;roi.symbool:e</title>
<path fill="none" stroke="black" d="M170.29,-859.69C128.21,-794.17 170.34,-362.29 140,-314 138.45,-311.54 136.7,-309.21 134.77,-307.01"/>
<polygon fill="black" stroke="black" points="175.89,-863.5 180.47,-870.98 179.19,-865.75 182.5,-868 182.5,-868 182.5,-868 179.19,-865.75 184.53,-865.02 175.89,-863.5 175.89,-863.5"/>
<ellipse fill="none" stroke="black" cx="173.24" cy="-861.7" rx="3.2" ry="3.2"/>
</g>
</g>
</svg>
