<?xml version="1.0" encoding="UTF-8" standalone="no"?>
<!DOCTYPE svg PUBLIC "-//W3C//DTD SVG 1.1//EN"
 "http://www.w3.org/Graphics/SVG/1.1/DTD/svg11.dtd">
<!-- Generated by graphviz version 2.40.1 (20161225.0304)
 -->
<!-- Title: oneDegreeRelationshipsDiagram Pages: 1 -->
<svg width="544pt" height="932pt"
 viewBox="0.00 0.00 544.00 932.20" xmlns="http://www.w3.org/2000/svg" xmlns:xlink="http://www.w3.org/1999/xlink">
<g id="graph0" class="graph" transform="scale(1 1) rotate(0) translate(4 928.2)">
<title>oneDegreeRelationshipsDiagram</title>
<polygon fill="#ffffff" stroke="transparent" points="-4,4 -4,-928.2 540,-928.2 540,4 -4,4"/>
<text text-anchor="middle" x="72.4936" y="-7.3" font-family="Helvetica,sans-Serif" font-size="11.00" fill="#000000">Generated by SchemaSpy</text>
<!-- openwater -->
<g id="node1" class="node">
<title>openwater</title>
<g id="a_node1"><a xlink:href="../../tables/openwater.html" xlink:title="openwater" target="_top">
<polygon fill="#ffffff" stroke="transparent" points="164,-38.2 164,-920.2 528,-920.2 528,-38.2 164,-38.2"/>
<polygon fill="#f5f5f5" stroke="transparent" points="166,-895.2 166,-918.2 526,-918.2 526,-895.2 166,-895.2"/>
<polygon fill="none" stroke="#000000" points="166,-895.2 166,-918.2 526,-918.2 526,-895.2 166,-895.2"/>
<text text-anchor="start" x="171" y="-903.8" font-family="Helvetica,sans-Serif" font-weight="bold" font-size="11.00" fill="#000000">openwater</text>
<text text-anchor="start" x="491.0437" y="-903.3" font-family="Helvetica,sans-Serif" font-size="11.00" fill="#000000">[table]</text>
<polygon fill="none" stroke="#000000" points="166,-873.2 166,-895.2 407,-895.2 407,-873.2 166,-873.2"/>
<image xlink:href="../../images/primaryKeys.png" width="11px" height="12px" preserveAspectRatio="xMinYMin meet" x="171" y="-890.2"/>
<text text-anchor="start" x="186" y="-880.3" font-family="Helvetica,sans-Serif" font-size="11.00" fill="#000000">uuid</text>
<polygon fill="none" stroke="#000000" points="407,-873.2 407,-895.2 526,-895.2 526,-873.2 407,-873.2"/>
<text text-anchor="start" x="410" y="-880.9" font-family="Helvetica,sans-Serif" font-size="11.00" fill="#000000">uuid[2147483647]</text>
<polygon fill="#ffffff" stroke="transparent" points="166,-851.2 166,-873.2 407,-873.2 407,-851.2 166,-851.2"/>
<polygon fill="none" stroke="#000000" points="166,-851.2 166,-873.2 407,-873.2 407,-851.2 166,-851.2"/>
<text text-anchor="start" x="186" y="-858.3" font-family="Helvetica,sans-Serif" font-size="11.00" fill="#000000">geom</text>
<polygon fill="none" stroke="#000000" points="407,-851.2 407,-873.2 526,-873.2 526,-851.2 407,-851.2"/>
<text text-anchor="start" x="409.9485" y="-858.9" font-family="Helvetica,sans-Serif" font-size="11.00" fill="#000000">geometry[2147483647]</text>
<polygon fill="none" stroke="#000000" points="166,-829.2 166,-851.2 407,-851.2 407,-829.2 166,-829.2"/>
<text text-anchor="start" x="186" y="-836.3" font-family="Helvetica,sans-Serif" font-size="11.00" fill="#000000">datumtijd</text>
<polygon fill="none" stroke="#000000" points="407,-829.2 407,-851.2 526,-851.2 526,-829.2 407,-829.2"/>
<text text-anchor="start" x="410" y="-836.9" font-family="Helvetica,sans-Serif" font-size="11.00" fill="#000000">timestamptz[35,6]</text>
<polygon fill="none" stroke="#000000" points="166,-807.2 166,-829.2 407,-829.2 407,-807.2 166,-807.2"/>
<text text-anchor="start" x="186" y="-814.3" font-family="Helvetica,sans-Serif" font-size="11.00" fill="#000000">gebruiker</text>
<polygon fill="none" stroke="#000000" points="407,-807.2 407,-829.2 526,-829.2 526,-807.2 407,-807.2"/>
<text text-anchor="start" x="410" y="-814.9" font-family="Helvetica,sans-Serif" font-size="11.00" fill="#000000">varchar[255]</text>
<polygon fill="none" stroke="#000000" points="166,-785.2 166,-807.2 407,-807.2 407,-785.2 166,-785.2"/>
<text text-anchor="start" x="186" y="-792.3" font-family="Helvetica,sans-Serif" font-size="11.00" fill="#000000">label</text>
<polygon fill="none" stroke="#000000" points="407,-785.2 407,-807.2 526,-807.2 526,-785.2 407,-785.2"/>
<text text-anchor="start" x="410" y="-792.9" font-family="Helvetica,sans-Serif" font-size="11.00" fill="#000000">text[2147483647]</text>
<polygon fill="none" stroke="#000000" points="166,-763.2 166,-785.2 407,-785.2 407,-763.2 166,-763.2"/>
<text text-anchor="start" x="186" y="-770.3" font-family="Helvetica,sans-Serif" font-size="11.00" fill="#000000">rotatie</text>
<polygon fill="none" stroke="#000000" points="407,-763.2 407,-785.2 526,-785.2 526,-763.2 407,-763.2"/>
<text text-anchor="start" x="410" y="-770.9" font-family="Helvetica,sans-Serif" font-size="11.00" fill="#000000">int4[10]</text>
<polygon fill="none" stroke="#000000" points="166,-741.2 166,-763.2 407,-763.2 407,-741.2 166,-741.2"/>
<text text-anchor="start" x="186" y="-748.3" font-family="Helvetica,sans-Serif" font-size="11.00" fill="#000000">bijzonderheden</text>
<polygon fill="none" stroke="#000000" points="407,-741.2 407,-763.2 526,-763.2 526,-741.2 407,-741.2"/>
<text text-anchor="start" x="410" y="-748.9" font-family="Helvetica,sans-Serif" font-size="11.00" fill="#000000">text[2147483647]</text>
<polygon fill="none" stroke="#000000" points="166,-719.2 166,-741.2 407,-741.2 407,-719.2 166,-719.2"/>
<text text-anchor="start" x="186" y="-726.3" font-family="Helvetica,sans-Serif" font-size="11.00" fill="#000000">plusinfo</text>
<polygon fill="none" stroke="#000000" points="407,-719.2 407,-741.2 526,-741.2 526,-719.2 407,-719.2"/>
<text text-anchor="start" x="410" y="-726.9" font-family="Helvetica,sans-Serif" font-size="11.00" fill="#000000">jsonb[2147483647]</text>
<polygon fill="none" stroke="#000000" points="166,-697.2 166,-719.2 407,-719.2 407,-697.2 166,-697.2"/>
<text text-anchor="start" x="186" y="-704.3" font-family="Helvetica,sans-Serif" font-size="11.00" fill="#000000">aanleg</text>
<polygon fill="none" stroke="#000000" points="407,-697.2 407,-719.2 526,-719.2 526,-697.2 407,-697.2"/>
<text text-anchor="start" x="410" y="-704.9" font-family="Helvetica,sans-Serif" font-size="11.00" fill="#000000">date[13]</text>
<polygon fill="none" stroke="#000000" points="166,-675.2 166,-697.2 407,-697.2 407,-675.2 166,-675.2"/>
<text text-anchor="start" x="186" y="-682.3" font-family="Helvetica,sans-Serif" font-size="11.00" fill="#000000">code</text>
<polygon fill="none" stroke="#000000" points="407,-675.2 407,-697.2 526,-697.2 526,-675.2 407,-675.2"/>
<text text-anchor="start" x="410" y="-682.9" font-family="Helvetica,sans-Serif" font-size="11.00" fill="#000000">text[2147483647]</text>
<polygon fill="none" stroke="#000000" points="166,-653.2 166,-675.2 407,-675.2 407,-653.2 166,-653.2"/>
<text text-anchor="start" x="186" y="-660.3" font-family="Helvetica,sans-Serif" font-size="11.00" fill="#000000">beheerder</text>
<polygon fill="none" stroke="#000000" points="407,-653.2 407,-675.2 526,-675.2 526,-653.2 407,-653.2"/>
<text text-anchor="start" x="410" y="-660.9" font-family="Helvetica,sans-Serif" font-size="11.00" fill="#000000">text[2147483647]</text>
<polygon fill="none" stroke="#000000" points="166,-631.2 166,-653.2 407,-653.2 407,-631.2 166,-631.2"/>
<text text-anchor="start" x="186" y="-638.3" font-family="Helvetica,sans-Serif" font-size="11.00" fill="#000000">particulier</text>
<polygon fill="none" stroke="#000000" points="407,-631.2 407,-653.2 526,-653.2 526,-631.2 407,-631.2"/>
<text text-anchor="start" x="410" y="-638.9" font-family="Helvetica,sans-Serif" font-size="11.00" fill="#000000">text[2147483647]</text>
<polygon fill="none" stroke="#000000" points="166,-609.2 166,-631.2 407,-631.2 407,-609.2 166,-609.2"/>
<text text-anchor="start" x="186" y="-616.3" font-family="Helvetica,sans-Serif" font-size="11.00" fill="#000000">adres</text>
<polygon fill="none" stroke="#000000" points="407,-609.2 407,-631.2 526,-631.2 526,-609.2 407,-609.2"/>
<text text-anchor="start" x="410" y="-616.9" font-family="Helvetica,sans-Serif" font-size="11.00" fill="#000000">text[2147483647]</text>
<polygon fill="none" stroke="#000000" points="166,-587.2 166,-609.2 407,-609.2 407,-587.2 166,-587.2"/>
<text text-anchor="start" x="186" y="-594.3" font-family="Helvetica,sans-Serif" font-size="11.00" fill="#000000">onderhoud</text>
<polygon fill="none" stroke="#000000" points="407,-587.2 407,-609.2 526,-609.2 526,-587.2 407,-587.2"/>
<text text-anchor="start" x="410" y="-594.9" font-family="Helvetica,sans-Serif" font-size="11.00" fill="#000000">tstzrange[2147483647]</text>
<polygon fill="none" stroke="#000000" points="166,-565.2 166,-587.2 407,-587.2 407,-565.2 166,-565.2"/>
<text text-anchor="start" x="186" y="-572.3" font-family="Helvetica,sans-Serif" font-size="11.00" fill="#000000">revisie_frequentie</text>
<polygon fill="none" stroke="#000000" points="407,-565.2 407,-587.2 526,-587.2 526,-565.2 407,-565.2"/>
<text text-anchor="start" x="410" y="-572.9" font-family="Helvetica,sans-Serif" font-size="11.00" fill="#000000">int2[5]</text>
<polygon fill="none" stroke="#000000" points="166,-543.2 166,-565.2 407,-565.2 407,-543.2 166,-543.2"/>
<image xlink:href="../../images/foreignKeys.png" width="11px" height="12px" preserveAspectRatio="xMinYMin meet" x="171" y="-560.2"/>
<text text-anchor="start" x="186" y="-550.3" font-family="Helvetica,sans-Serif" font-size="11.00" fill="#000000">fase_id</text>
<polygon fill="none" stroke="#000000" points="407,-543.2 407,-565.2 526,-565.2 526,-543.2 407,-543.2"/>
<text text-anchor="start" x="410" y="-550.9" font-family="Helvetica,sans-Serif" font-size="11.00" fill="#000000">int2[5]</text>
<polygon fill="none" stroke="#000000" points="166,-521.2 166,-543.2 407,-543.2 407,-521.2 166,-521.2"/>
<image xlink:href="../../images/foreignKeys.png" width="11px" height="12px" preserveAspectRatio="xMinYMin meet" x="171" y="-538.2"/>
<text text-anchor="start" x="186" y="-528.3" font-family="Helvetica,sans-Serif" font-size="11.00" fill="#000000">symbool_id</text>
<polygon fill="none" stroke="#000000" points="407,-521.2 407,-543.2 526,-543.2 526,-521.2 407,-521.2"/>
<text text-anchor="start" x="410" y="-528.9" font-family="Helvetica,sans-Serif" font-size="11.00" fill="#000000">int2[5]</text>
<polygon fill="none" stroke="#000000" points="166,-499.2 166,-521.2 407,-521.2 407,-499.2 166,-499.2"/>
<image xlink:href="../../images/foreignKeys.png" width="11px" height="12px" preserveAspectRatio="xMinYMin meet" x="171" y="-516.2"/>
<text text-anchor="start" x="186" y="-506.3" font-family="Helvetica,sans-Serif" font-size="11.00" fill="#000000">gebied_id</text>
<polygon fill="none" stroke="#000000" points="407,-499.2 407,-521.2 526,-521.2 526,-499.2 407,-499.2"/>
<text text-anchor="start" x="410" y="-506.9" font-family="Helvetica,sans-Serif" font-size="11.00" fill="#000000">int2[5]</text>
<polygon fill="none" stroke="#000000" points="166,-477.2 166,-499.2 407,-499.2 407,-477.2 166,-477.2"/>
<text text-anchor="start" x="186" y="-484.3" font-family="Helvetica,sans-Serif" font-size="11.00" fill="#000000">opstelplaats</text>
<polygon fill="none" stroke="#000000" points="407,-477.2 407,-499.2 526,-499.2 526,-477.2 407,-477.2"/>
<text text-anchor="start" x="410" y="-484.9" font-family="Helvetica,sans-Serif" font-size="11.00" fill="#000000">bool[1]</text>
<polygon fill="none" stroke="#000000" points="166,-455.2 166,-477.2 407,-477.2 407,-455.2 166,-455.2"/>
<text text-anchor="start" x="186" y="-462.3" font-family="Helvetica,sans-Serif" font-size="11.00" fill="#000000">opstelplaats_locatie</text>
<polygon fill="none" stroke="#000000" points="407,-455.2 407,-477.2 526,-477.2 526,-455.2 407,-455.2"/>
<text text-anchor="start" x="410" y="-462.9" font-family="Helvetica,sans-Serif" font-size="11.00" fill="#000000">text[2147483647]</text>
<polygon fill="none" stroke="#000000" points="166,-433.2 166,-455.2 407,-455.2 407,-433.2 166,-433.2"/>
<text text-anchor="start" x="186" y="-440.3" font-family="Helvetica,sans-Serif" font-size="11.00" fill="#000000">opstelplaats_waterdiepte</text>
<polygon fill="none" stroke="#000000" points="407,-433.2 407,-455.2 526,-455.2 526,-433.2 407,-433.2"/>
<text text-anchor="start" x="410" y="-440.9" font-family="Helvetica,sans-Serif" font-size="11.00" fill="#000000">numeric[0]</text>
<polygon fill="none" stroke="#000000" points="166,-411.2 166,-433.2 407,-433.2 407,-411.2 166,-411.2"/>
<text text-anchor="start" x="186" y="-418.3" font-family="Helvetica,sans-Serif" font-size="11.00" fill="#000000">markering</text>
<polygon fill="none" stroke="#000000" points="407,-411.2 407,-433.2 526,-433.2 526,-411.2 407,-411.2"/>
<text text-anchor="start" x="410" y="-418.9" font-family="Helvetica,sans-Serif" font-size="11.00" fill="#000000">text[2147483647]</text>
<polygon fill="none" stroke="#000000" points="166,-389.2 166,-411.2 407,-411.2 407,-389.2 166,-389.2"/>
<text text-anchor="start" x="186" y="-396.3" font-family="Helvetica,sans-Serif" font-size="11.00" fill="#000000">toegang</text>
<polygon fill="none" stroke="#000000" points="407,-389.2 407,-411.2 526,-411.2 526,-389.2 407,-389.2"/>
<text text-anchor="start" x="410" y="-396.9" font-family="Helvetica,sans-Serif" font-size="11.00" fill="#000000">text[2147483647]</text>
<polygon fill="none" stroke="#000000" points="166,-367.2 166,-389.2 407,-389.2 407,-367.2 166,-367.2"/>
<text text-anchor="start" x="186" y="-374.3" font-family="Helvetica,sans-Serif" font-size="11.00" fill="#000000">oever</text>
<polygon fill="none" stroke="#000000" points="407,-367.2 407,-389.2 526,-389.2 526,-367.2 407,-367.2"/>
<text text-anchor="start" x="410" y="-374.9" font-family="Helvetica,sans-Serif" font-size="11.00" fill="#000000">text[2147483647]</text>
<polygon fill="none" stroke="#000000" points="166,-345.2 166,-367.2 407,-367.2 407,-345.2 166,-345.2"/>
<text text-anchor="start" x="186" y="-352.3" font-family="Helvetica,sans-Serif" font-size="11.00" fill="#000000">bodem</text>
<polygon fill="none" stroke="#000000" points="407,-345.2 407,-367.2 526,-367.2 526,-345.2 407,-345.2"/>
<text text-anchor="start" x="410" y="-352.9" font-family="Helvetica,sans-Serif" font-size="11.00" fill="#000000">text[2147483647]</text>
<polygon fill="none" stroke="#000000" points="166,-323.2 166,-345.2 407,-345.2 407,-323.2 166,-323.2"/>
<text text-anchor="start" x="186" y="-330.3" font-family="Helvetica,sans-Serif" font-size="11.00" fill="#000000">open_verbinding</text>
<polygon fill="none" stroke="#000000" points="407,-323.2 407,-345.2 526,-345.2 526,-323.2 407,-323.2"/>
<text text-anchor="start" x="410" y="-330.9" font-family="Helvetica,sans-Serif" font-size="11.00" fill="#000000">bool[1]</text>
<polygon fill="none" stroke="#000000" points="166,-301.2 166,-323.2 407,-323.2 407,-301.2 166,-301.2"/>
<text text-anchor="start" x="186" y="-308.3" font-family="Helvetica,sans-Serif" font-size="11.00" fill="#000000">voertuig</text>
<polygon fill="none" stroke="#000000" points="407,-301.2 407,-323.2 526,-323.2 526,-301.2 407,-301.2"/>
<text text-anchor="start" x="410" y="-308.9" font-family="Helvetica,sans-Serif" font-size="11.00" fill="#000000">text[2147483647]</text>
<polygon fill="none" stroke="#000000" points="166,-279.2 166,-301.2 407,-301.2 407,-279.2 166,-279.2"/>
<text text-anchor="start" x="186" y="-286.3" font-family="Helvetica,sans-Serif" font-size="11.00" fill="#000000">inspecteur</text>
<polygon fill="none" stroke="#000000" points="407,-279.2 407,-301.2 526,-301.2 526,-279.2 407,-279.2"/>
<text text-anchor="start" x="410" y="-286.9" font-family="Helvetica,sans-Serif" font-size="11.00" fill="#000000">text[2147483647]</text>
<polygon fill="none" stroke="#000000" points="166,-257.2 166,-279.2 407,-279.2 407,-257.2 166,-257.2"/>
<text text-anchor="start" x="186" y="-264.3" font-family="Helvetica,sans-Serif" font-size="11.00" fill="#000000">inspectie_datum</text>
<polygon fill="none" stroke="#000000" points="407,-257.2 407,-279.2 526,-279.2 526,-257.2 407,-257.2"/>
<text text-anchor="start" x="410" y="-264.9" font-family="Helvetica,sans-Serif" font-size="11.00" fill="#000000">date[13]</text>
<polygon fill="none" stroke="#000000" points="166,-235.2 166,-257.2 407,-257.2 407,-235.2 166,-235.2"/>
<image xlink:href="../../images/foreignKeys.png" width="11px" height="12px" preserveAspectRatio="xMinYMin meet" x="171" y="-252.2"/>
<text text-anchor="start" x="186" y="-242.3" font-family="Helvetica,sans-Serif" font-size="11.00" fill="#000000">inspectie_conditie_id</text>
<polygon fill="none" stroke="#000000" points="407,-235.2 407,-257.2 526,-257.2 526,-235.2 407,-235.2"/>
<text text-anchor="start" x="410" y="-242.9" font-family="Helvetica,sans-Serif" font-size="11.00" fill="#000000">int2[5]</text>
<polygon fill="none" stroke="#000000" points="166,-213.2 166,-235.2 407,-235.2 407,-213.2 166,-213.2"/>
<text text-anchor="start" x="186" y="-220.3" font-family="Helvetica,sans-Serif" font-size="11.00" fill="#000000">inspectie_opmerking</text>
<polygon fill="none" stroke="#000000" points="407,-213.2 407,-235.2 526,-235.2 526,-213.2 407,-213.2"/>
<text text-anchor="start" x="410" y="-220.9" font-family="Helvetica,sans-Serif" font-size="11.00" fill="#000000">text[2147483647]</text>
<polygon fill="none" stroke="#000000" points="166,-191.2 166,-213.2 407,-213.2 407,-191.2 166,-191.2"/>
<text text-anchor="start" x="186" y="-198.3" font-family="Helvetica,sans-Serif" font-size="11.00" fill="#000000">inspectie_plusinfo</text>
<polygon fill="none" stroke="#000000" points="407,-191.2 407,-213.2 526,-213.2 526,-191.2 407,-191.2"/>
<text text-anchor="start" x="410" y="-198.9" font-family="Helvetica,sans-Serif" font-size="11.00" fill="#000000">jsonb[2147483647]</text>
<polygon fill="none" stroke="#000000" points="166,-169.2 166,-191.2 407,-191.2 407,-169.2 166,-169.2"/>
<text text-anchor="start" x="186" y="-176.3" font-family="Helvetica,sans-Serif" font-size="11.00" fill="#000000">inspectie_opstelplaats</text>
<polygon fill="none" stroke="#000000" points="407,-169.2 407,-191.2 526,-191.2 526,-169.2 407,-169.2"/>
<text text-anchor="start" x="410" y="-176.9" font-family="Helvetica,sans-Serif" font-size="11.00" fill="#000000">text[2147483647]</text>
<polygon fill="none" stroke="#000000" points="166,-147.2 166,-169.2 407,-169.2 407,-147.2 166,-147.2"/>
<text text-anchor="start" x="186" y="-154.3" font-family="Helvetica,sans-Serif" font-size="11.00" fill="#000000">inspectie_opstelplaats_bereikbaarheid</text>
<polygon fill="none" stroke="#000000" points="407,-147.2 407,-169.2 526,-169.2 526,-147.2 407,-147.2"/>
<text text-anchor="start" x="410" y="-154.9" font-family="Helvetica,sans-Serif" font-size="11.00" fill="#000000">text[2147483647]</text>
<polygon fill="none" stroke="#000000" points="166,-125.2 166,-147.2 407,-147.2 407,-125.2 166,-125.2"/>
<text text-anchor="start" x="186" y="-132.3" font-family="Helvetica,sans-Serif" font-size="11.00" fill="#000000">inspectie_opstelplaats_waterdiepte</text>
<polygon fill="none" stroke="#000000" points="407,-125.2 407,-147.2 526,-147.2 526,-125.2 407,-125.2"/>
<text text-anchor="start" x="410" y="-132.9" font-family="Helvetica,sans-Serif" font-size="11.00" fill="#000000">text[2147483647]</text>
<polygon fill="none" stroke="#000000" points="166,-103.2 166,-125.2 407,-125.2 407,-103.2 166,-103.2"/>
<text text-anchor="start" x="186" y="-110.3" font-family="Helvetica,sans-Serif" font-size="11.00" fill="#000000">inspectie_markering</text>
<polygon fill="none" stroke="#000000" points="407,-103.2 407,-125.2 526,-125.2 526,-103.2 407,-103.2"/>
<text text-anchor="start" x="410" y="-110.9" font-family="Helvetica,sans-Serif" font-size="11.00" fill="#000000">text[2147483647]</text>
<polygon fill="none" stroke="#000000" points="166,-81.2 166,-103.2 407,-103.2 407,-81.2 166,-81.2"/>
<text text-anchor="start" x="186" y="-88.3" font-family="Helvetica,sans-Serif" font-size="11.00" fill="#000000">inspectie_beplanting</text>
<polygon fill="none" stroke="#000000" points="407,-81.2 407,-103.2 526,-103.2 526,-81.2 407,-81.2"/>
<text text-anchor="start" x="410" y="-88.9" font-family="Helvetica,sans-Serif" font-size="11.00" fill="#000000">text[2147483647]</text>
<polygon fill="none" stroke="#000000" points="166,-59.2 166,-81.2 407,-81.2 407,-59.2 166,-59.2"/>
<text text-anchor="start" x="186" y="-66.3" font-family="Helvetica,sans-Serif" font-size="11.00" fill="#000000">inspectie_obstakels</text>
<polygon fill="none" stroke="#000000" points="407,-59.2 407,-81.2 526,-81.2 526,-59.2 407,-59.2"/>
<text text-anchor="start" x="410" y="-66.9" font-family="Helvetica,sans-Serif" font-size="11.00" fill="#000000">text[2147483647]</text>
<polygon fill="#ffffff" stroke="transparent" points="166,-40.2 166,-59.2 291,-59.2 291,-40.2 166,-40.2"/>
<polygon fill="none" stroke="#000000" points="166,-40.2 166,-59.2 291,-59.2 291,-40.2 166,-40.2"/>
<text text-anchor="start" x="169" y="-46.3" font-family="Helvetica,sans-Serif" font-size="11.00" fill="#000000">&lt; 4</text>
<polygon fill="#ffffff" stroke="transparent" points="291,-40.2 291,-59.2 407,-59.2 407,-40.2 291,-40.2"/>
<polygon fill="none" stroke="#000000" points="291,-40.2 291,-59.2 407,-59.2 407,-40.2 291,-40.2"/>
<text text-anchor="start" x="397.8862" y="-46.3" font-family="Helvetica,sans-Serif" font-size="11.00" fill="#000000"> &#160;</text>
<polygon fill="#ffffff" stroke="transparent" points="407,-40.2 407,-59.2 526,-59.2 526,-40.2 407,-40.2"/>
<polygon fill="none" stroke="#000000" points="407,-40.2 407,-59.2 526,-59.2 526,-40.2 407,-40.2"/>
<text text-anchor="start" x="507.4053" y="-46.3" font-family="Helvetica,sans-Serif" font-size="11.00" fill="#000000">0 &gt;</text>
<polygon fill="none" stroke="#000000" stroke-width="2" points="165,-39.2 165,-919.2 527,-919.2 527,-39.2 165,-39.2"/>
</a>
</g>
</g>
<!-- roi.fase -->
<g id="node2" class="node">
<title>roi.fase</title>
<g id="a_node2"><a xlink:href="../../../roi/tables/fase.html" xlink:title="roi.fase" target="_top">
<polygon fill="#ffffff" stroke="transparent" points="21,-583.7 21,-644.7 102,-644.7 102,-583.7 21,-583.7"/>
<polygon fill="#f5f5f5" stroke="transparent" points="21.5,-621.2 21.5,-644.2 102.5,-644.2 102.5,-621.2 21.5,-621.2"/>
<polygon fill="none" stroke="#000000" points="21.5,-621.2 21.5,-644.2 102.5,-644.2 102.5,-621.2 21.5,-621.2"/>
<text text-anchor="start" x="26.5" y="-629.8" font-family="Helvetica,sans-Serif" font-weight="bold" font-size="11.00" fill="#000000">roi.fase</text>
<text text-anchor="start" x="68.0219" y="-629.3" font-family="Helvetica,sans-Serif" font-size="11.00" fill="#000000">[table]</text>
<polygon fill="none" stroke="#000000" points="21.5,-602.2 21.5,-621.2 102.5,-621.2 102.5,-602.2 21.5,-602.2"/>
<text text-anchor="start" x="24.5" y="-608.3" font-family="Helvetica,sans-Serif" font-size="11.00" fill="#000000">...</text>
<polygon fill="#ffffff" stroke="transparent" points="21.5,-583.2 21.5,-602.2 51.5,-602.2 51.5,-583.2 21.5,-583.2"/>
<polygon fill="none" stroke="#000000" points="21.5,-583.2 21.5,-602.2 51.5,-602.2 51.5,-583.2 21.5,-583.2"/>
<text text-anchor="start" x="24.5" y="-589.3" font-family="Helvetica,sans-Serif" font-size="11.00" fill="#000000"> &#160;</text>
<polygon fill="#ffffff" stroke="transparent" points="51.5,-583.2 51.5,-602.2 72.5,-602.2 72.5,-583.2 51.5,-583.2"/>
<polygon fill="none" stroke="#000000" points="51.5,-583.2 51.5,-602.2 72.5,-602.2 72.5,-583.2 51.5,-583.2"/>
<text text-anchor="start" x="63.3862" y="-589.3" font-family="Helvetica,sans-Serif" font-size="11.00" fill="#000000"> &#160;</text>
<polygon fill="#ffffff" stroke="transparent" points="72.5,-583.2 72.5,-602.2 102.5,-602.2 102.5,-583.2 72.5,-583.2"/>
<polygon fill="none" stroke="#000000" points="72.5,-583.2 72.5,-602.2 102.5,-602.2 102.5,-583.2 72.5,-583.2"/>
<text text-anchor="start" x="83.9053" y="-589.3" font-family="Helvetica,sans-Serif" font-size="11.00" fill="#000000">5 &gt;</text>
</a>
</g>
</g>
<!-- openwater&#45;&gt;roi.fase -->
<g id="edge1" class="edge">
<title>openwater:w&#45;&gt;roi.fase:e</title>
<path fill="none" stroke="#000000" d="M152.1992,-559.3326C141.0622,-564.8275 125.3701,-574.018 110.1636,-583.3212"/>
<polygon fill="#000000" stroke="#000000" points="158.5018,-556.9887 167.2549,-557.5742 162.2509,-555.5943 166,-554.2 166,-554.2 166,-554.2 162.2509,-555.5943 164.7451,-550.8258 158.5018,-556.9887 158.5018,-556.9887"/>
<ellipse fill="none" stroke="#000000" cx="155.5025" cy="-558.1041" rx="3.2" ry="3.2"/>
</g>
<!-- gebied -->
<g id="node3" class="node">
<title>gebied</title>
<g id="a_node3"><a xlink:href="../../tables/gebied.html" xlink:title="gebied" target="_top">
<polygon fill="#ffffff" stroke="transparent" points="14,-397.7 14,-480.7 109,-480.7 109,-397.7 14,-397.7"/>
<polygon fill="#f5f5f5" stroke="transparent" points="14.5,-457.2 14.5,-480.2 109.5,-480.2 109.5,-457.2 14.5,-457.2"/>
<polygon fill="none" stroke="#000000" points="14.5,-457.2 14.5,-480.2 109.5,-480.2 109.5,-457.2 14.5,-457.2"/>
<text text-anchor="start" x="19.5" y="-465.8" font-family="Helvetica,sans-Serif" font-weight="bold" font-size="11.00" fill="#000000">gebied</text>
<text text-anchor="start" x="74.5437" y="-465.3" font-family="Helvetica,sans-Serif" font-size="11.00" fill="#000000">[table]</text>
<polygon fill="none" stroke="#000000" points="14.5,-435.2 14.5,-457.2 109.5,-457.2 109.5,-435.2 14.5,-435.2"/>
<image xlink:href="../../images/primaryKeys.png" width="11px" height="12px" preserveAspectRatio="xMinYMin meet" x="19.5" y="-452.2"/>
<text text-anchor="start" x="34.5" y="-442.3" font-family="Helvetica,sans-Serif" font-size="11.00" fill="#000000">id</text>
<polygon fill="none" stroke="#000000" points="14.5,-416.2 14.5,-435.2 109.5,-435.2 109.5,-416.2 14.5,-416.2"/>
<text text-anchor="start" x="17.5" y="-422.3" font-family="Helvetica,sans-Serif" font-size="11.00" fill="#000000">...</text>
<polygon fill="#ffffff" stroke="transparent" points="14.5,-397.2 14.5,-416.2 51.5,-416.2 51.5,-397.2 14.5,-397.2"/>
<polygon fill="none" stroke="#000000" points="14.5,-397.2 14.5,-416.2 51.5,-416.2 51.5,-397.2 14.5,-397.2"/>
<text text-anchor="start" x="17.5" y="-403.3" font-family="Helvetica,sans-Serif" font-size="11.00" fill="#000000"> &#160;</text>
<polygon fill="#ffffff" stroke="transparent" points="51.5,-397.2 51.5,-416.2 75.5,-416.2 75.5,-397.2 51.5,-397.2"/>
<polygon fill="none" stroke="#000000" points="51.5,-397.2 51.5,-416.2 75.5,-416.2 75.5,-397.2 51.5,-397.2"/>
<text text-anchor="start" x="66.3862" y="-403.3" font-family="Helvetica,sans-Serif" font-size="11.00" fill="#000000"> &#160;</text>
<polygon fill="#ffffff" stroke="transparent" points="75.5,-397.2 75.5,-416.2 109.5,-416.2 109.5,-397.2 75.5,-397.2"/>
<polygon fill="none" stroke="#000000" points="75.5,-397.2 75.5,-416.2 109.5,-416.2 109.5,-397.2 75.5,-397.2"/>
<text text-anchor="start" x="90.9053" y="-403.3" font-family="Helvetica,sans-Serif" font-size="11.00" fill="#000000">5 &gt;</text>
</a>
</g>
</g>
<!-- openwater&#45;&gt;gebied -->
<g id="edge2" class="edge">
<title>openwater:w&#45;&gt;gebied:e</title>
<path fill="none" stroke="#000000" d="M151.9758,-506.0008C132.7156,-491.7625 141.5142,-446.2 109.5,-446.2"/>
<polygon fill="#000000" stroke="#000000" points="158.3362,-507.9052 164.9673,-513.6487 162.1681,-509.0526 166,-510.2 166,-510.2 166,-510.2 162.1681,-509.0526 167.0327,-506.7513 158.3362,-507.9052 158.3362,-507.9052"/>
<ellipse fill="none" stroke="#000000" cx="155.2707" cy="-506.9873" rx="3.2" ry="3.2"/>
</g>
<!-- conditie -->
<g id="node4" class="node">
<title>conditie</title>
<g id="a_node4"><a xlink:href="../../tables/conditie.html" xlink:title="conditie" target="_top">
<polygon fill="#ffffff" stroke="transparent" points="14,-197.7 14,-280.7 109,-280.7 109,-197.7 14,-197.7"/>
<polygon fill="#f5f5f5" stroke="transparent" points="14.5,-257.2 14.5,-280.2 109.5,-280.2 109.5,-257.2 14.5,-257.2"/>
<polygon fill="none" stroke="#000000" points="14.5,-257.2 14.5,-280.2 109.5,-280.2 109.5,-257.2 14.5,-257.2"/>
<text text-anchor="start" x="19.5" y="-265.8" font-family="Helvetica,sans-Serif" font-weight="bold" font-size="11.00" fill="#000000">conditie</text>
<text text-anchor="start" x="74.5437" y="-265.3" font-family="Helvetica,sans-Serif" font-size="11.00" fill="#000000">[table]</text>
<polygon fill="none" stroke="#000000" points="14.5,-235.2 14.5,-257.2 109.5,-257.2 109.5,-235.2 14.5,-235.2"/>
<image xlink:href="../../images/primaryKeys.png" width="11px" height="12px" preserveAspectRatio="xMinYMin meet" x="19.5" y="-252.2"/>
<text text-anchor="start" x="34.5" y="-242.3" font-family="Helvetica,sans-Serif" font-size="11.00" fill="#000000">id</text>
<polygon fill="none" stroke="#000000" points="14.5,-216.2 14.5,-235.2 109.5,-235.2 109.5,-216.2 14.5,-216.2"/>
<text text-anchor="start" x="17.5" y="-222.3" font-family="Helvetica,sans-Serif" font-size="11.00" fill="#000000">...</text>
<polygon fill="#ffffff" stroke="transparent" points="14.5,-197.2 14.5,-216.2 51.5,-216.2 51.5,-197.2 14.5,-197.2"/>
<polygon fill="none" stroke="#000000" points="14.5,-197.2 14.5,-216.2 51.5,-216.2 51.5,-197.2 14.5,-197.2"/>
<text text-anchor="start" x="17.5" y="-203.3" font-family="Helvetica,sans-Serif" font-size="11.00" fill="#000000"> &#160;</text>
<polygon fill="#ffffff" stroke="transparent" points="51.5,-197.2 51.5,-216.2 75.5,-216.2 75.5,-197.2 51.5,-197.2"/>
<polygon fill="none" stroke="#000000" points="51.5,-197.2 51.5,-216.2 75.5,-216.2 75.5,-197.2 51.5,-197.2"/>
<text text-anchor="start" x="66.3862" y="-203.3" font-family="Helvetica,sans-Serif" font-size="11.00" fill="#000000"> &#160;</text>
<polygon fill="#ffffff" stroke="transparent" points="75.5,-197.2 75.5,-216.2 109.5,-216.2 109.5,-197.2 75.5,-197.2"/>
<polygon fill="none" stroke="#000000" points="75.5,-197.2 75.5,-216.2 109.5,-216.2 109.5,-197.2 75.5,-197.2"/>
<text text-anchor="start" x="90.9053" y="-203.3" font-family="Helvetica,sans-Serif" font-size="11.00" fill="#000000">5 &gt;</text>
</a>
</g>
</g>
<!-- openwater&#45;&gt;conditie -->
<g id="edge3" class="edge">
<title>openwater:w&#45;&gt;conditie:e</title>
<path fill="none" stroke="#000000" d="M151.3944,-246.2C137.0775,-246.2 128.9219,-246.2 109.5,-246.2"/>
<polygon fill="#000000" stroke="#000000" points="158,-246.2001 166,-249.8 162,-246.2 166,-246.2 166,-246.2 166,-246.2 162,-246.2 166,-242.6 158,-246.2001 158,-246.2001"/>
<ellipse fill="none" stroke="#000000" cx="154.8" cy="-246.2001" rx="3.2" ry="3.2"/>
</g>
<!-- roi.symbool -->
<g id="node5" class="node">
<title>roi.symbool</title>
<g id="a_node5"><a xlink:href="../../../roi/tables/symbool.html" xlink:title="roi.symbool" target="_top">
<polygon fill="#ffffff" stroke="transparent" points="8,-501.7 8,-562.7 115,-562.7 115,-501.7 8,-501.7"/>
<polygon fill="#f5f5f5" stroke="transparent" points="8.5,-539.2 8.5,-562.2 115.5,-562.2 115.5,-539.2 8.5,-539.2"/>
<polygon fill="none" stroke="#000000" points="8.5,-539.2 8.5,-562.2 115.5,-562.2 115.5,-539.2 8.5,-539.2"/>
<text text-anchor="start" x="13.5" y="-547.8" font-family="Helvetica,sans-Serif" font-weight="bold" font-size="11.00" fill="#000000">roi.symbool</text>
<text text-anchor="start" x="81.0219" y="-547.3" font-family="Helvetica,sans-Serif" font-size="11.00" fill="#000000">[table]</text>
<polygon fill="none" stroke="#000000" points="8.5,-520.2 8.5,-539.2 115.5,-539.2 115.5,-520.2 8.5,-520.2"/>
<text text-anchor="start" x="11.5" y="-526.3" font-family="Helvetica,sans-Serif" font-size="11.00" fill="#000000">...</text>
<polygon fill="#ffffff" stroke="transparent" points="8.5,-501.2 8.5,-520.2 51.5,-520.2 51.5,-501.2 8.5,-501.2"/>
<polygon fill="none" stroke="#000000" points="8.5,-501.2 8.5,-520.2 51.5,-520.2 51.5,-501.2 8.5,-501.2"/>
<text text-anchor="start" x="11.5" y="-507.3" font-family="Helvetica,sans-Serif" font-size="11.00" fill="#000000"> &#160;</text>
<polygon fill="#ffffff" stroke="transparent" points="51.5,-501.2 51.5,-520.2 78.5,-520.2 78.5,-501.2 51.5,-501.2"/>
<polygon fill="none" stroke="#000000" points="51.5,-501.2 51.5,-520.2 78.5,-520.2 78.5,-501.2 51.5,-501.2"/>
<text text-anchor="start" x="69.3862" y="-507.3" font-family="Helvetica,sans-Serif" font-size="11.00" fill="#000000"> &#160;</text>
<polygon fill="#ffffff" stroke="transparent" points="78.5,-501.2 78.5,-520.2 115.5,-520.2 115.5,-501.2 78.5,-501.2"/>
<polygon fill="none" stroke="#000000" points="78.5,-501.2 78.5,-520.2 115.5,-520.2 115.5,-501.2 78.5,-501.2"/>
<text text-anchor="start" x="96.9053" y="-507.3" font-family="Helvetica,sans-Serif" font-size="11.00" fill="#000000">6 &gt;</text>
</a>
</g>
</g>
<!-- openwater&#45;&gt;roi.symbool -->
<g id="edge4" class="edge">
<title>openwater:w&#45;&gt;roi.symbool:e</title>
<path fill="none" stroke="#000000" d="M151.3953,-532.2C141.9637,-532.2 132.3607,-532.2 123.1118,-532.2"/>
<polygon fill="#000000" stroke="#000000" points="158,-532.2001 166,-535.8 162,-532.2 166,-532.2 166,-532.2 166,-532.2 162,-532.2 166,-528.6 158,-532.2001 158,-532.2001"/>
<ellipse fill="none" stroke="#000000" cx="154.8" cy="-532.2001" rx="3.2" ry="3.2"/>
</g>
</g>
</svg>
