<?xml version="1.0" encoding="UTF-8" standalone="no"?>
<!DOCTYPE svg PUBLIC "-//W3C//DTD SVG 1.1//EN"
 "http://www.w3.org/Graphics/SVG/1.1/DTD/svg11.dtd">
<!-- Generated by graphviz version 2.50.0 (0)
 -->
<!-- Title: oneDegreeRelationshipsDiagram Pages: 1 -->
<svg width="588pt" height="929pt"
 viewBox="0.00 0.00 588.00 929.00" xmlns="http://www.w3.org/2000/svg" xmlns:xlink="http://www.w3.org/1999/xlink">
<g id="graph0" class="graph" transform="scale(1 1) rotate(0) translate(4 925)">
<title>oneDegreeRelationshipsDiagram</title>
<polygon fill="#ffffff" stroke="transparent" points="-4,4 -4,-925 584,-925 584,4 -4,4"/>
<text text-anchor="middle" x="79.5" y="-7.2" font-family="Helvetica,sans-Serif" font-size="11.00">Generated by SchemaSpy</text>
<!-- openwater -->
<g id="node1" class="node">
<title>openwater</title>
<g id="a_node1"><a xlink:href="../../tables/openwater.html" xlink:title="openwater" target="_top">
<polygon fill="#ffffff" stroke="transparent" points="181,-37 181,-917 572,-917 572,-37 181,-37"/>
<polygon fill="#f5f5f5" stroke="transparent" points="183.5,-893 183.5,-915 570.5,-915 570.5,-893 183.5,-893"/>
<polygon fill="none" stroke="black" points="183.5,-893 183.5,-915 570.5,-915 570.5,-893 183.5,-893"/>
<text text-anchor="start" x="188.5" y="-902.2" font-family="Helvetica,sans-Serif" font-weight="bold" font-size="11.00">openwater</text>
<text text-anchor="start" x="528.5" y="-901.2" font-family="Helvetica,sans-Serif" font-size="11.00">[table]</text>
<polygon fill="none" stroke="black" points="183.5,-871 183.5,-893 434.5,-893 434.5,-871 183.5,-871"/>
<image xlink:href="../../images/primaryKeys.png" width="11px" height="12px" preserveAspectRatio="xMinYMin meet" x="188.5" y="-888"/>
<text text-anchor="start" x="203.5" y="-879.2" font-family="Helvetica,sans-Serif" font-size="11.00">uuid</text>
<polygon fill="none" stroke="black" points="434.5,-871 434.5,-893 570.5,-893 570.5,-871 434.5,-871"/>
<text text-anchor="start" x="437.5" y="-879.2" font-family="Helvetica,sans-Serif" font-size="11.00">uuid[2147483647]</text>
<polygon fill="#ffffff" stroke="transparent" points="183.5,-849 183.5,-871 434.5,-871 434.5,-849 183.5,-849"/>
<polygon fill="none" stroke="black" points="183.5,-849 183.5,-871 434.5,-871 434.5,-849 183.5,-849"/>
<text text-anchor="start" x="203.5" y="-857.2" font-family="Helvetica,sans-Serif" font-size="11.00">geom</text>
<polygon fill="none" stroke="black" points="434.5,-849 434.5,-871 570.5,-871 570.5,-849 434.5,-849"/>
<text text-anchor="start" x="437.5" y="-857.2" font-family="Helvetica,sans-Serif" font-size="11.00">geometry[2147483647]</text>
<polygon fill="none" stroke="black" points="183.5,-827 183.5,-849 434.5,-849 434.5,-827 183.5,-827"/>
<text text-anchor="start" x="203.5" y="-835.2" font-family="Helvetica,sans-Serif" font-size="11.00">datumtijd</text>
<polygon fill="none" stroke="black" points="434.5,-827 434.5,-849 570.5,-849 570.5,-827 434.5,-827"/>
<text text-anchor="start" x="437.5" y="-835.2" font-family="Helvetica,sans-Serif" font-size="11.00">timestamptz[35,6]</text>
<polygon fill="none" stroke="black" points="183.5,-805 183.5,-827 434.5,-827 434.5,-805 183.5,-805"/>
<text text-anchor="start" x="203.5" y="-813.2" font-family="Helvetica,sans-Serif" font-size="11.00">gebruiker</text>
<polygon fill="none" stroke="black" points="434.5,-805 434.5,-827 570.5,-827 570.5,-805 434.5,-805"/>
<text text-anchor="start" x="437.5" y="-813.2" font-family="Helvetica,sans-Serif" font-size="11.00">varchar[255]</text>
<polygon fill="none" stroke="black" points="183.5,-783 183.5,-805 434.5,-805 434.5,-783 183.5,-783"/>
<text text-anchor="start" x="203.5" y="-791.2" font-family="Helvetica,sans-Serif" font-size="11.00">label</text>
<polygon fill="none" stroke="black" points="434.5,-783 434.5,-805 570.5,-805 570.5,-783 434.5,-783"/>
<text text-anchor="start" x="437.5" y="-791.2" font-family="Helvetica,sans-Serif" font-size="11.00">text[2147483647]</text>
<polygon fill="none" stroke="black" points="183.5,-761 183.5,-783 434.5,-783 434.5,-761 183.5,-761"/>
<text text-anchor="start" x="203.5" y="-769.2" font-family="Helvetica,sans-Serif" font-size="11.00">rotatie</text>
<polygon fill="none" stroke="black" points="434.5,-761 434.5,-783 570.5,-783 570.5,-761 434.5,-761"/>
<text text-anchor="start" x="437.5" y="-769.2" font-family="Helvetica,sans-Serif" font-size="11.00">int4[10]</text>
<polygon fill="none" stroke="black" points="183.5,-739 183.5,-761 434.5,-761 434.5,-739 183.5,-739"/>
<text text-anchor="start" x="203.5" y="-747.2" font-family="Helvetica,sans-Serif" font-size="11.00">bijzonderheden</text>
<polygon fill="none" stroke="black" points="434.5,-739 434.5,-761 570.5,-761 570.5,-739 434.5,-739"/>
<text text-anchor="start" x="437.5" y="-747.2" font-family="Helvetica,sans-Serif" font-size="11.00">text[2147483647]</text>
<polygon fill="none" stroke="black" points="183.5,-717 183.5,-739 434.5,-739 434.5,-717 183.5,-717"/>
<text text-anchor="start" x="203.5" y="-725.2" font-family="Helvetica,sans-Serif" font-size="11.00">plusinfo</text>
<polygon fill="none" stroke="black" points="434.5,-717 434.5,-739 570.5,-739 570.5,-717 434.5,-717"/>
<text text-anchor="start" x="437.5" y="-725.2" font-family="Helvetica,sans-Serif" font-size="11.00">jsonb[2147483647]</text>
<polygon fill="none" stroke="black" points="183.5,-695 183.5,-717 434.5,-717 434.5,-695 183.5,-695"/>
<text text-anchor="start" x="203.5" y="-703.2" font-family="Helvetica,sans-Serif" font-size="11.00">code</text>
<polygon fill="none" stroke="black" points="434.5,-695 434.5,-717 570.5,-717 570.5,-695 434.5,-695"/>
<text text-anchor="start" x="437.5" y="-703.2" font-family="Helvetica,sans-Serif" font-size="11.00">text[2147483647]</text>
<polygon fill="none" stroke="black" points="183.5,-673 183.5,-695 434.5,-695 434.5,-673 183.5,-673"/>
<text text-anchor="start" x="203.5" y="-681.2" font-family="Helvetica,sans-Serif" font-size="11.00">beheerder</text>
<polygon fill="none" stroke="black" points="434.5,-673 434.5,-695 570.5,-695 570.5,-673 434.5,-673"/>
<text text-anchor="start" x="437.5" y="-681.2" font-family="Helvetica,sans-Serif" font-size="11.00">text[2147483647]</text>
<polygon fill="none" stroke="black" points="183.5,-651 183.5,-673 434.5,-673 434.5,-651 183.5,-651"/>
<text text-anchor="start" x="203.5" y="-659.2" font-family="Helvetica,sans-Serif" font-size="11.00">particulier</text>
<polygon fill="none" stroke="black" points="434.5,-651 434.5,-673 570.5,-673 570.5,-651 434.5,-651"/>
<text text-anchor="start" x="437.5" y="-659.2" font-family="Helvetica,sans-Serif" font-size="11.00">text[2147483647]</text>
<polygon fill="none" stroke="black" points="183.5,-629 183.5,-651 434.5,-651 434.5,-629 183.5,-629"/>
<text text-anchor="start" x="203.5" y="-637.2" font-family="Helvetica,sans-Serif" font-size="11.00">adres</text>
<polygon fill="none" stroke="black" points="434.5,-629 434.5,-651 570.5,-651 570.5,-629 434.5,-629"/>
<text text-anchor="start" x="437.5" y="-637.2" font-family="Helvetica,sans-Serif" font-size="11.00">text[2147483647]</text>
<polygon fill="none" stroke="black" points="183.5,-607 183.5,-629 434.5,-629 434.5,-607 183.5,-607"/>
<text text-anchor="start" x="203.5" y="-615.2" font-family="Helvetica,sans-Serif" font-size="11.00">uitsluiten</text>
<polygon fill="none" stroke="black" points="434.5,-607 434.5,-629 570.5,-629 570.5,-607 434.5,-607"/>
<text text-anchor="start" x="437.5" y="-615.2" font-family="Helvetica,sans-Serif" font-size="11.00">bool[1]</text>
<polygon fill="none" stroke="black" points="183.5,-585 183.5,-607 434.5,-607 434.5,-585 183.5,-585"/>
<text text-anchor="start" x="203.5" y="-593.2" font-family="Helvetica,sans-Serif" font-size="11.00">revisie_frequentie</text>
<polygon fill="none" stroke="black" points="434.5,-585 434.5,-607 570.5,-607 570.5,-585 434.5,-585"/>
<text text-anchor="start" x="437.5" y="-593.2" font-family="Helvetica,sans-Serif" font-size="11.00">int2[5]</text>
<polygon fill="none" stroke="black" points="183.5,-563 183.5,-585 434.5,-585 434.5,-563 183.5,-563"/>
<image xlink:href="../../images/foreignKeys.png" width="11px" height="12px" preserveAspectRatio="xMinYMin meet" x="188.5" y="-580"/>
<text text-anchor="start" x="203.5" y="-571.2" font-family="Helvetica,sans-Serif" font-size="11.00">fase_id</text>
<polygon fill="none" stroke="black" points="434.5,-563 434.5,-585 570.5,-585 570.5,-563 434.5,-563"/>
<text text-anchor="start" x="437.5" y="-571.2" font-family="Helvetica,sans-Serif" font-size="11.00">int2[5]</text>
<polygon fill="none" stroke="black" points="183.5,-541 183.5,-563 434.5,-563 434.5,-541 183.5,-541"/>
<image xlink:href="../../images/foreignKeys.png" width="11px" height="12px" preserveAspectRatio="xMinYMin meet" x="188.5" y="-558"/>
<text text-anchor="start" x="203.5" y="-549.2" font-family="Helvetica,sans-Serif" font-size="11.00">symbool_id</text>
<polygon fill="none" stroke="black" points="434.5,-541 434.5,-563 570.5,-563 570.5,-541 434.5,-541"/>
<text text-anchor="start" x="437.5" y="-549.2" font-family="Helvetica,sans-Serif" font-size="11.00">int2[5]</text>
<polygon fill="none" stroke="black" points="183.5,-519 183.5,-541 434.5,-541 434.5,-519 183.5,-519"/>
<image xlink:href="../../images/foreignKeys.png" width="11px" height="12px" preserveAspectRatio="xMinYMin meet" x="188.5" y="-536"/>
<text text-anchor="start" x="203.5" y="-527.2" font-family="Helvetica,sans-Serif" font-size="11.00">gebied_id</text>
<polygon fill="none" stroke="black" points="434.5,-519 434.5,-541 570.5,-541 570.5,-519 434.5,-519"/>
<text text-anchor="start" x="437.5" y="-527.2" font-family="Helvetica,sans-Serif" font-size="11.00">int2[5]</text>
<polygon fill="none" stroke="black" points="183.5,-497 183.5,-519 434.5,-519 434.5,-497 183.5,-497"/>
<text text-anchor="start" x="203.5" y="-505.2" font-family="Helvetica,sans-Serif" font-size="11.00">opstelplaats</text>
<polygon fill="none" stroke="black" points="434.5,-497 434.5,-519 570.5,-519 570.5,-497 434.5,-497"/>
<text text-anchor="start" x="437.5" y="-505.2" font-family="Helvetica,sans-Serif" font-size="11.00">bool[1]</text>
<polygon fill="none" stroke="black" points="183.5,-475 183.5,-497 434.5,-497 434.5,-475 183.5,-475"/>
<text text-anchor="start" x="203.5" y="-483.2" font-family="Helvetica,sans-Serif" font-size="11.00">opstelplaats_locatie</text>
<polygon fill="none" stroke="black" points="434.5,-475 434.5,-497 570.5,-497 570.5,-475 434.5,-475"/>
<text text-anchor="start" x="437.5" y="-483.2" font-family="Helvetica,sans-Serif" font-size="11.00">text[2147483647]</text>
<polygon fill="none" stroke="black" points="183.5,-453 183.5,-475 434.5,-475 434.5,-453 183.5,-453"/>
<text text-anchor="start" x="203.5" y="-461.2" font-family="Helvetica,sans-Serif" font-size="11.00">opstelplaats_waterdiepte</text>
<polygon fill="none" stroke="black" points="434.5,-453 434.5,-475 570.5,-475 570.5,-453 434.5,-453"/>
<text text-anchor="start" x="437.5" y="-461.2" font-family="Helvetica,sans-Serif" font-size="11.00">numeric[0]</text>
<polygon fill="none" stroke="black" points="183.5,-431 183.5,-453 434.5,-453 434.5,-431 183.5,-431"/>
<text text-anchor="start" x="203.5" y="-439.2" font-family="Helvetica,sans-Serif" font-size="11.00">markering</text>
<polygon fill="none" stroke="black" points="434.5,-431 434.5,-453 570.5,-453 570.5,-431 434.5,-431"/>
<text text-anchor="start" x="437.5" y="-439.2" font-family="Helvetica,sans-Serif" font-size="11.00">text[2147483647]</text>
<polygon fill="none" stroke="black" points="183.5,-409 183.5,-431 434.5,-431 434.5,-409 183.5,-409"/>
<text text-anchor="start" x="203.5" y="-417.2" font-family="Helvetica,sans-Serif" font-size="11.00">toegang</text>
<polygon fill="none" stroke="black" points="434.5,-409 434.5,-431 570.5,-431 570.5,-409 434.5,-409"/>
<text text-anchor="start" x="437.5" y="-417.2" font-family="Helvetica,sans-Serif" font-size="11.00">text[2147483647]</text>
<polygon fill="none" stroke="black" points="183.5,-387 183.5,-409 434.5,-409 434.5,-387 183.5,-387"/>
<text text-anchor="start" x="203.5" y="-395.2" font-family="Helvetica,sans-Serif" font-size="11.00">aanleg</text>
<polygon fill="none" stroke="black" points="434.5,-387 434.5,-409 570.5,-409 570.5,-387 434.5,-387"/>
<text text-anchor="start" x="437.5" y="-395.2" font-family="Helvetica,sans-Serif" font-size="11.00">date[13]</text>
<polygon fill="none" stroke="black" points="183.5,-365 183.5,-387 434.5,-387 434.5,-365 183.5,-365"/>
<text text-anchor="start" x="203.5" y="-373.2" font-family="Helvetica,sans-Serif" font-size="11.00">oever</text>
<polygon fill="none" stroke="black" points="434.5,-365 434.5,-387 570.5,-387 570.5,-365 434.5,-365"/>
<text text-anchor="start" x="437.5" y="-373.2" font-family="Helvetica,sans-Serif" font-size="11.00">text[2147483647]</text>
<polygon fill="none" stroke="black" points="183.5,-343 183.5,-365 434.5,-365 434.5,-343 183.5,-343"/>
<text text-anchor="start" x="203.5" y="-351.2" font-family="Helvetica,sans-Serif" font-size="11.00">bodem</text>
<polygon fill="none" stroke="black" points="434.5,-343 434.5,-365 570.5,-365 570.5,-343 434.5,-343"/>
<text text-anchor="start" x="437.5" y="-351.2" font-family="Helvetica,sans-Serif" font-size="11.00">text[2147483647]</text>
<polygon fill="none" stroke="black" points="183.5,-321 183.5,-343 434.5,-343 434.5,-321 183.5,-321"/>
<text text-anchor="start" x="203.5" y="-329.2" font-family="Helvetica,sans-Serif" font-size="11.00">open_verbinding</text>
<polygon fill="none" stroke="black" points="434.5,-321 434.5,-343 570.5,-343 570.5,-321 434.5,-321"/>
<text text-anchor="start" x="437.5" y="-329.2" font-family="Helvetica,sans-Serif" font-size="11.00">bool[1]</text>
<polygon fill="none" stroke="black" points="183.5,-299 183.5,-321 434.5,-321 434.5,-299 183.5,-299"/>
<text text-anchor="start" x="203.5" y="-307.2" font-family="Helvetica,sans-Serif" font-size="11.00">voertuig</text>
<polygon fill="none" stroke="black" points="434.5,-299 434.5,-321 570.5,-321 570.5,-299 434.5,-299"/>
<text text-anchor="start" x="437.5" y="-307.2" font-family="Helvetica,sans-Serif" font-size="11.00">text[2147483647]</text>
<polygon fill="none" stroke="black" points="183.5,-277 183.5,-299 434.5,-299 434.5,-277 183.5,-277"/>
<text text-anchor="start" x="203.5" y="-285.2" font-family="Helvetica,sans-Serif" font-size="11.00">inspecteur</text>
<polygon fill="none" stroke="black" points="434.5,-277 434.5,-299 570.5,-299 570.5,-277 434.5,-277"/>
<text text-anchor="start" x="437.5" y="-285.2" font-family="Helvetica,sans-Serif" font-size="11.00">text[2147483647]</text>
<polygon fill="none" stroke="black" points="183.5,-255 183.5,-277 434.5,-277 434.5,-255 183.5,-255"/>
<text text-anchor="start" x="203.5" y="-263.2" font-family="Helvetica,sans-Serif" font-size="11.00">inspectie_datum</text>
<polygon fill="none" stroke="black" points="434.5,-255 434.5,-277 570.5,-277 570.5,-255 434.5,-255"/>
<text text-anchor="start" x="437.5" y="-263.2" font-family="Helvetica,sans-Serif" font-size="11.00">date[13]</text>
<polygon fill="none" stroke="black" points="183.5,-233 183.5,-255 434.5,-255 434.5,-233 183.5,-233"/>
<image xlink:href="../../images/foreignKeys.png" width="11px" height="12px" preserveAspectRatio="xMinYMin meet" x="188.5" y="-250"/>
<text text-anchor="start" x="203.5" y="-241.2" font-family="Helvetica,sans-Serif" font-size="11.00">inspectie_conditie_id</text>
<polygon fill="none" stroke="black" points="434.5,-233 434.5,-255 570.5,-255 570.5,-233 434.5,-233"/>
<text text-anchor="start" x="437.5" y="-241.2" font-family="Helvetica,sans-Serif" font-size="11.00">int2[5]</text>
<polygon fill="none" stroke="black" points="183.5,-211 183.5,-233 434.5,-233 434.5,-211 183.5,-211"/>
<text text-anchor="start" x="203.5" y="-219.2" font-family="Helvetica,sans-Serif" font-size="11.00">inspectie_opmerking</text>
<polygon fill="none" stroke="black" points="434.5,-211 434.5,-233 570.5,-233 570.5,-211 434.5,-211"/>
<text text-anchor="start" x="437.5" y="-219.2" font-family="Helvetica,sans-Serif" font-size="11.00">text[2147483647]</text>
<polygon fill="none" stroke="black" points="183.5,-189 183.5,-211 434.5,-211 434.5,-189 183.5,-189"/>
<text text-anchor="start" x="203.5" y="-197.2" font-family="Helvetica,sans-Serif" font-size="11.00">inspectie_plusinfo</text>
<polygon fill="none" stroke="black" points="434.5,-189 434.5,-211 570.5,-211 570.5,-189 434.5,-189"/>
<text text-anchor="start" x="437.5" y="-197.2" font-family="Helvetica,sans-Serif" font-size="11.00">jsonb[2147483647]</text>
<polygon fill="none" stroke="black" points="183.5,-167 183.5,-189 434.5,-189 434.5,-167 183.5,-167"/>
<text text-anchor="start" x="203.5" y="-175.2" font-family="Helvetica,sans-Serif" font-size="11.00">inspectie_opstelplaats</text>
<polygon fill="none" stroke="black" points="434.5,-167 434.5,-189 570.5,-189 570.5,-167 434.5,-167"/>
<text text-anchor="start" x="437.5" y="-175.2" font-family="Helvetica,sans-Serif" font-size="11.00">text[2147483647]</text>
<polygon fill="none" stroke="black" points="183.5,-145 183.5,-167 434.5,-167 434.5,-145 183.5,-145"/>
<text text-anchor="start" x="203.5" y="-153.2" font-family="Helvetica,sans-Serif" font-size="11.00">inspectie_opstelplaats_bereikbaarheid</text>
<polygon fill="none" stroke="black" points="434.5,-145 434.5,-167 570.5,-167 570.5,-145 434.5,-145"/>
<text text-anchor="start" x="437.5" y="-153.2" font-family="Helvetica,sans-Serif" font-size="11.00">text[2147483647]</text>
<polygon fill="none" stroke="black" points="183.5,-123 183.5,-145 434.5,-145 434.5,-123 183.5,-123"/>
<text text-anchor="start" x="203.5" y="-131.2" font-family="Helvetica,sans-Serif" font-size="11.00">inspectie_opstelplaats_waterdiepte</text>
<polygon fill="none" stroke="black" points="434.5,-123 434.5,-145 570.5,-145 570.5,-123 434.5,-123"/>
<text text-anchor="start" x="437.5" y="-131.2" font-family="Helvetica,sans-Serif" font-size="11.00">text[2147483647]</text>
<polygon fill="none" stroke="black" points="183.5,-101 183.5,-123 434.5,-123 434.5,-101 183.5,-101"/>
<text text-anchor="start" x="203.5" y="-109.2" font-family="Helvetica,sans-Serif" font-size="11.00">inspectie_markering</text>
<polygon fill="none" stroke="black" points="434.5,-101 434.5,-123 570.5,-123 570.5,-101 434.5,-101"/>
<text text-anchor="start" x="437.5" y="-109.2" font-family="Helvetica,sans-Serif" font-size="11.00">text[2147483647]</text>
<polygon fill="none" stroke="black" points="183.5,-79 183.5,-101 434.5,-101 434.5,-79 183.5,-79"/>
<text text-anchor="start" x="203.5" y="-87.2" font-family="Helvetica,sans-Serif" font-size="11.00">inspectie_beplanting</text>
<polygon fill="none" stroke="black" points="434.5,-79 434.5,-101 570.5,-101 570.5,-79 434.5,-79"/>
<text text-anchor="start" x="437.5" y="-87.2" font-family="Helvetica,sans-Serif" font-size="11.00">text[2147483647]</text>
<polygon fill="none" stroke="black" points="183.5,-57 183.5,-79 434.5,-79 434.5,-57 183.5,-57"/>
<text text-anchor="start" x="203.5" y="-65.2" font-family="Helvetica,sans-Serif" font-size="11.00">inspectie_obstakels</text>
<polygon fill="none" stroke="black" points="434.5,-57 434.5,-79 570.5,-79 570.5,-57 434.5,-57"/>
<text text-anchor="start" x="437.5" y="-65.2" font-family="Helvetica,sans-Serif" font-size="11.00">text[2147483647]</text>
<polygon fill="#ffffff" stroke="transparent" points="183.5,-39 183.5,-57 314.5,-57 314.5,-39 183.5,-39"/>
<polygon fill="none" stroke="black" points="183.5,-39 183.5,-57 314.5,-57 314.5,-39 183.5,-39"/>
<text text-anchor="start" x="186.5" y="-45.2" font-family="Helvetica,sans-Serif" font-size="11.00">&lt; 4</text>
<polygon fill="#ffffff" stroke="transparent" points="314.5,-39 314.5,-57 434.5,-57 434.5,-39 314.5,-39"/>
<polygon fill="none" stroke="black" points="314.5,-39 314.5,-57 434.5,-57 434.5,-39 314.5,-39"/>
<text text-anchor="start" x="423.5" y="-45.2" font-family="Helvetica,sans-Serif" font-size="11.00"> &#160;</text>
<polygon fill="#ffffff" stroke="transparent" points="434.5,-39 434.5,-57 570.5,-57 570.5,-39 434.5,-39"/>
<polygon fill="none" stroke="black" points="434.5,-39 434.5,-57 570.5,-57 570.5,-39 434.5,-39"/>
<text text-anchor="start" x="547.5" y="-45.2" font-family="Helvetica,sans-Serif" font-size="11.00">0 &gt;</text>
<polygon fill="none" stroke="black" stroke-width="2" points="182,-38 182,-916 571,-916 571,-38 182,-38"/>
</a>
</g>
</g>
<!-- roi.fase -->
<g id="node2" class="node">
<title>roi.fase</title>
<g id="a_node2"><a xlink:href="../../../roi/tables/fase.html" xlink:title="roi.fase" target="_top">
<polygon fill="#ffffff" stroke="transparent" points="20.5,-602 20.5,-660 119.5,-660 119.5,-602 20.5,-602"/>
<polygon fill="#f5f5f5" stroke="transparent" points="21,-638 21,-660 120,-660 120,-638 21,-638"/>
<polygon fill="none" stroke="black" points="21,-638 21,-660 120,-660 120,-638 21,-638"/>
<text text-anchor="start" x="26" y="-647.2" font-family="Helvetica,sans-Serif" font-weight="bold" font-size="11.00">roi.fase</text>
<text text-anchor="start" x="78" y="-646.2" font-family="Helvetica,sans-Serif" font-size="11.00">[table]</text>
<polygon fill="none" stroke="black" points="21,-620 21,-638 120,-638 120,-620 21,-620"/>
<text text-anchor="start" x="24" y="-626.2" font-family="Helvetica,sans-Serif" font-size="11.00">...</text>
<polygon fill="#ffffff" stroke="transparent" points="21,-602 21,-620 57,-620 57,-602 21,-602"/>
<polygon fill="none" stroke="black" points="21,-602 21,-620 57,-620 57,-602 21,-602"/>
<text text-anchor="start" x="24" y="-608.2" font-family="Helvetica,sans-Serif" font-size="11.00"> &#160;</text>
<polygon fill="#ffffff" stroke="transparent" points="57,-602 57,-620 82,-620 82,-602 57,-602"/>
<polygon fill="none" stroke="black" points="57,-602 57,-620 82,-620 82,-602 57,-602"/>
<text text-anchor="start" x="71" y="-608.2" font-family="Helvetica,sans-Serif" font-size="11.00"> &#160;</text>
<polygon fill="#ffffff" stroke="transparent" points="82,-602 82,-620 120,-620 120,-602 82,-602"/>
<polygon fill="none" stroke="black" points="82,-602 82,-620 120,-620 120,-602 82,-602"/>
<text text-anchor="start" x="97" y="-608.2" font-family="Helvetica,sans-Serif" font-size="11.00">5 &gt;</text>
</a>
</g>
</g>
<!-- openwater&#45;&gt;roi.fase -->
<g id="edge1" class="edge">
<title>openwater:w&#45;&gt;roi.fase:e</title>
<path fill="none" stroke="black" d="M168.72,-578.52C157.94,-583.22 142.81,-591.01 127.68,-599.17"/>
<polygon fill="black" stroke="black" points="174.9,-576.49 183.62,-577.42 178.7,-575.25 182.5,-574 182.5,-574 182.5,-574 178.7,-575.25 181.38,-570.58 174.9,-576.49 174.9,-576.49"/>
<ellipse fill="none" stroke="black" cx="171.86" cy="-577.49" rx="3.2" ry="3.2"/>
</g>
<!-- gebied -->
<g id="node3" class="node">
<title>gebied</title>
<g id="a_node3"><a xlink:href="../../tables/gebied.html" xlink:title="gebied" target="_top">
<polygon fill="#ffffff" stroke="transparent" points="21,-422 21,-502 119,-502 119,-422 21,-422"/>
<polygon fill="#f5f5f5" stroke="transparent" points="21,-480 21,-502 119,-502 119,-480 21,-480"/>
<polygon fill="none" stroke="black" points="21,-480 21,-502 119,-502 119,-480 21,-480"/>
<text text-anchor="start" x="26" y="-489.2" font-family="Helvetica,sans-Serif" font-weight="bold" font-size="11.00">gebied</text>
<text text-anchor="start" x="77" y="-488.2" font-family="Helvetica,sans-Serif" font-size="11.00">[table]</text>
<polygon fill="none" stroke="black" points="21,-458 21,-480 119,-480 119,-458 21,-458"/>
<image xlink:href="../../images/primaryKeys.png" width="11px" height="12px" preserveAspectRatio="xMinYMin meet" x="26" y="-475"/>
<text text-anchor="start" x="41" y="-466.2" font-family="Helvetica,sans-Serif" font-size="11.00">id</text>
<polygon fill="none" stroke="black" points="21,-440 21,-458 119,-458 119,-440 21,-440"/>
<text text-anchor="start" x="24" y="-446.2" font-family="Helvetica,sans-Serif" font-size="11.00">...</text>
<polygon fill="#ffffff" stroke="transparent" points="21,-422 21,-440 57,-440 57,-422 21,-422"/>
<polygon fill="none" stroke="black" points="21,-422 21,-440 57,-440 57,-422 21,-422"/>
<text text-anchor="start" x="24" y="-428.2" font-family="Helvetica,sans-Serif" font-size="11.00"> &#160;</text>
<polygon fill="#ffffff" stroke="transparent" points="57,-422 57,-440 82,-440 82,-422 57,-422"/>
<polygon fill="none" stroke="black" points="57,-422 57,-440 82,-440 82,-422 57,-422"/>
<text text-anchor="start" x="71" y="-428.2" font-family="Helvetica,sans-Serif" font-size="11.00"> &#160;</text>
<polygon fill="#ffffff" stroke="transparent" points="82,-422 82,-440 119,-440 119,-422 82,-422"/>
<polygon fill="none" stroke="black" points="82,-422 82,-440 119,-440 119,-422 82,-422"/>
<text text-anchor="start" x="96" y="-428.2" font-family="Helvetica,sans-Serif" font-size="11.00">5 &gt;</text>
</a>
</g>
</g>
<!-- openwater&#45;&gt;gebied -->
<g id="edge2" class="edge">
<title>openwater:w&#45;&gt;gebied:e</title>
<path fill="none" stroke="black" d="M168.43,-526.37C146.99,-513.23 153.05,-469 120,-469"/>
<polygon fill="black" stroke="black" points="174.75,-528 181.6,-533.49 178.63,-529 182.5,-530 182.5,-530 182.5,-530 178.63,-529 183.4,-526.51 174.75,-528 174.75,-528"/>
<ellipse fill="none" stroke="black" cx="171.66" cy="-527.2" rx="3.2" ry="3.2"/>
</g>
<!-- conditie -->
<g id="node4" class="node">
<title>conditie</title>
<g id="a_node4"><a xlink:href="../../tables/conditie.html" xlink:title="conditie" target="_top">
<polygon fill="#ffffff" stroke="transparent" points="19.5,-197 19.5,-277 120.5,-277 120.5,-197 19.5,-197"/>
<polygon fill="#f5f5f5" stroke="transparent" points="20,-255 20,-277 121,-277 121,-255 20,-255"/>
<polygon fill="none" stroke="black" points="20,-255 20,-277 121,-277 121,-255 20,-255"/>
<text text-anchor="start" x="25" y="-264.2" font-family="Helvetica,sans-Serif" font-weight="bold" font-size="11.00">conditie</text>
<text text-anchor="start" x="79" y="-263.2" font-family="Helvetica,sans-Serif" font-size="11.00">[table]</text>
<polygon fill="none" stroke="black" points="20,-233 20,-255 121,-255 121,-233 20,-233"/>
<image xlink:href="../../images/primaryKeys.png" width="11px" height="12px" preserveAspectRatio="xMinYMin meet" x="25" y="-250"/>
<text text-anchor="start" x="42" y="-241.2" font-family="Helvetica,sans-Serif" font-size="11.00">id</text>
<polygon fill="none" stroke="black" points="20,-215 20,-233 121,-233 121,-215 20,-215"/>
<text text-anchor="start" x="23" y="-221.2" font-family="Helvetica,sans-Serif" font-size="11.00">...</text>
<polygon fill="#ffffff" stroke="transparent" points="20,-197 20,-215 57,-215 57,-197 20,-197"/>
<polygon fill="none" stroke="black" points="20,-197 20,-215 57,-215 57,-197 20,-197"/>
<text text-anchor="start" x="23" y="-203.2" font-family="Helvetica,sans-Serif" font-size="11.00"> &#160;</text>
<polygon fill="#ffffff" stroke="transparent" points="57,-197 57,-215 83,-215 83,-197 57,-197"/>
<polygon fill="none" stroke="black" points="57,-197 57,-215 83,-215 83,-197 57,-197"/>
<text text-anchor="start" x="72" y="-203.2" font-family="Helvetica,sans-Serif" font-size="11.00"> &#160;</text>
<polygon fill="#ffffff" stroke="transparent" points="83,-197 83,-215 121,-215 121,-197 83,-197"/>
<polygon fill="none" stroke="black" points="83,-197 83,-215 121,-215 121,-197 83,-197"/>
<text text-anchor="start" x="98" y="-203.2" font-family="Helvetica,sans-Serif" font-size="11.00">5 &gt;</text>
</a>
</g>
</g>
<!-- openwater&#45;&gt;conditie -->
<g id="edge3" class="edge">
<title>openwater:w&#45;&gt;conditie:e</title>
<path fill="none" stroke="black" d="M167.8,-244C151.88,-244 143.22,-244 122,-244"/>
<polygon fill="black" stroke="black" points="174.5,-244 182.5,-247.6 178.5,-244 182.5,-244 182.5,-244 182.5,-244 178.5,-244 182.5,-240.4 174.5,-244 174.5,-244"/>
<ellipse fill="none" stroke="black" cx="171.3" cy="-244" rx="3.2" ry="3.2"/>
</g>
<!-- roi.symbool -->
<g id="node5" class="node">
<title>roi.symbool</title>
<g id="a_node5"><a xlink:href="../../../roi/tables/symbool.html" xlink:title="roi.symbool" target="_top">
<polygon fill="#ffffff" stroke="transparent" points="8,-523 8,-581 132,-581 132,-523 8,-523"/>
<polygon fill="#f5f5f5" stroke="transparent" points="8,-559 8,-581 132,-581 132,-559 8,-559"/>
<polygon fill="none" stroke="black" points="8,-559 8,-581 132,-581 132,-559 8,-559"/>
<text text-anchor="start" x="13" y="-568.2" font-family="Helvetica,sans-Serif" font-weight="bold" font-size="11.00">roi.symbool</text>
<text text-anchor="start" x="90" y="-567.2" font-family="Helvetica,sans-Serif" font-size="11.00">[table]</text>
<polygon fill="none" stroke="black" points="8,-541 8,-559 132,-559 132,-541 8,-541"/>
<text text-anchor="start" x="11" y="-547.2" font-family="Helvetica,sans-Serif" font-size="11.00">...</text>
<polygon fill="#ffffff" stroke="transparent" points="8,-523 8,-541 57,-541 57,-523 8,-523"/>
<polygon fill="none" stroke="black" points="8,-523 8,-541 57,-541 57,-523 8,-523"/>
<text text-anchor="start" x="11" y="-529.2" font-family="Helvetica,sans-Serif" font-size="11.00"> &#160;</text>
<polygon fill="#ffffff" stroke="transparent" points="57,-523 57,-541 88,-541 88,-523 57,-523"/>
<polygon fill="none" stroke="black" points="57,-523 57,-541 88,-541 88,-523 57,-523"/>
<text text-anchor="start" x="77" y="-529.2" font-family="Helvetica,sans-Serif" font-size="11.00"> &#160;</text>
<polygon fill="#ffffff" stroke="transparent" points="88,-523 88,-541 132,-541 132,-523 88,-523"/>
<polygon fill="none" stroke="black" points="88,-523 88,-541 132,-541 132,-523 88,-523"/>
<text text-anchor="start" x="109" y="-529.2" font-family="Helvetica,sans-Serif" font-size="11.00">5 &gt;</text>
</a>
</g>
</g>
<!-- openwater&#45;&gt;roi.symbool -->
<g id="edge4" class="edge">
<title>openwater:w&#45;&gt;roi.symbool:e</title>
<path fill="none" stroke="black" d="M167.83,-552C158.67,-552 149.35,-552 140.29,-552"/>
<polygon fill="black" stroke="black" points="174.5,-552 182.5,-555.6 178.5,-552 182.5,-552 182.5,-552 182.5,-552 178.5,-552 182.5,-548.4 174.5,-552 174.5,-552"/>
<ellipse fill="none" stroke="black" cx="171.3" cy="-552" rx="3.2" ry="3.2"/>
</g>
</g>
</svg>
