<?xml version="1.0" encoding="UTF-8" standalone="no"?>
<!DOCTYPE svg PUBLIC "-//W3C//DTD SVG 1.1//EN"
 "http://www.w3.org/Graphics/SVG/1.1/DTD/svg11.dtd">
<!-- Generated by graphviz version 2.40.1 (20161225.0304)
 -->
<!-- Title: oneDegreeRelationshipsDiagram Pages: 1 -->
<svg width="412pt" height="294pt"
 viewBox="0.00 0.00 412.00 294.20" xmlns="http://www.w3.org/2000/svg" xmlns:xlink="http://www.w3.org/1999/xlink">
<g id="graph0" class="graph" transform="scale(1 1) rotate(0) translate(4 290.2)">
<title>oneDegreeRelationshipsDiagram</title>
<polygon fill="#ffffff" stroke="transparent" points="-4,4 -4,-290.2 408,-290.2 408,4 -4,4"/>
<text text-anchor="middle" x="72.4936" y="-7.3" font-family="Helvetica,sans-Serif" font-size="11.00" fill="#000000">Generated by SchemaSpy</text>
<!-- voorziening -->
<g id="node1" class="node">
<title>voorziening</title>
<g id="a_node1"><a xlink:href="../../tables/voorziening.html" xlink:title="voorziening" target="_top">
<polygon fill="#ffffff" stroke="transparent" points="164,-38.2 164,-282.2 396,-282.2 396,-38.2 164,-38.2"/>
<polygon fill="#f5f5f5" stroke="transparent" points="166,-257.2 166,-280.2 394,-280.2 394,-257.2 166,-257.2"/>
<polygon fill="none" stroke="#000000" points="166,-257.2 166,-280.2 394,-280.2 394,-257.2 166,-257.2"/>
<text text-anchor="start" x="171" y="-265.8" font-family="Helvetica,sans-Serif" font-weight="bold" font-size="11.00" fill="#000000">voorziening</text>
<text text-anchor="start" x="359.0437" y="-265.3" font-family="Helvetica,sans-Serif" font-size="11.00" fill="#000000">[table]</text>
<polygon fill="none" stroke="#000000" points="166,-235.2 166,-257.2 275,-257.2 275,-235.2 166,-235.2"/>
<image xlink:href="../../images/primaryKeys.png" width="11px" height="12px" preserveAspectRatio="xMinYMin meet" x="171" y="-252.2"/>
<text text-anchor="start" x="186" y="-242.3" font-family="Helvetica,sans-Serif" font-size="11.00" fill="#000000">uuid</text>
<polygon fill="none" stroke="#000000" points="275,-235.2 275,-257.2 394,-257.2 394,-235.2 275,-235.2"/>
<text text-anchor="start" x="278" y="-242.9" font-family="Helvetica,sans-Serif" font-size="11.00" fill="#000000">uuid[2147483647]</text>
<polygon fill="#ffffff" stroke="transparent" points="166,-213.2 166,-235.2 275,-235.2 275,-213.2 166,-213.2"/>
<polygon fill="none" stroke="#000000" points="166,-213.2 166,-235.2 275,-235.2 275,-213.2 166,-213.2"/>
<text text-anchor="start" x="186" y="-220.3" font-family="Helvetica,sans-Serif" font-size="11.00" fill="#000000">geom</text>
<polygon fill="none" stroke="#000000" points="275,-213.2 275,-235.2 394,-235.2 394,-213.2 275,-213.2"/>
<text text-anchor="start" x="277.9485" y="-220.9" font-family="Helvetica,sans-Serif" font-size="11.00" fill="#000000">geometry[2147483647]</text>
<polygon fill="none" stroke="#000000" points="166,-191.2 166,-213.2 275,-213.2 275,-191.2 166,-191.2"/>
<text text-anchor="start" x="186" y="-198.3" font-family="Helvetica,sans-Serif" font-size="11.00" fill="#000000">datumtijd</text>
<polygon fill="none" stroke="#000000" points="275,-191.2 275,-213.2 394,-213.2 394,-191.2 275,-191.2"/>
<text text-anchor="start" x="278" y="-198.9" font-family="Helvetica,sans-Serif" font-size="11.00" fill="#000000">timestamptz[35,6]</text>
<polygon fill="none" stroke="#000000" points="166,-169.2 166,-191.2 275,-191.2 275,-169.2 166,-169.2"/>
<text text-anchor="start" x="186" y="-176.3" font-family="Helvetica,sans-Serif" font-size="11.00" fill="#000000">gebruiker</text>
<polygon fill="none" stroke="#000000" points="275,-169.2 275,-191.2 394,-191.2 394,-169.2 275,-169.2"/>
<text text-anchor="start" x="278" y="-176.9" font-family="Helvetica,sans-Serif" font-size="11.00" fill="#000000">varchar[255]</text>
<polygon fill="none" stroke="#000000" points="166,-147.2 166,-169.2 275,-169.2 275,-147.2 166,-147.2"/>
<text text-anchor="start" x="186" y="-154.3" font-family="Helvetica,sans-Serif" font-size="11.00" fill="#000000">label</text>
<polygon fill="none" stroke="#000000" points="275,-147.2 275,-169.2 394,-169.2 394,-147.2 275,-147.2"/>
<text text-anchor="start" x="278" y="-154.9" font-family="Helvetica,sans-Serif" font-size="11.00" fill="#000000">text[2147483647]</text>
<polygon fill="none" stroke="#000000" points="166,-125.2 166,-147.2 275,-147.2 275,-125.2 166,-125.2"/>
<text text-anchor="start" x="186" y="-132.3" font-family="Helvetica,sans-Serif" font-size="11.00" fill="#000000">rotatie</text>
<polygon fill="none" stroke="#000000" points="275,-125.2 275,-147.2 394,-147.2 394,-125.2 275,-125.2"/>
<text text-anchor="start" x="278" y="-132.9" font-family="Helvetica,sans-Serif" font-size="11.00" fill="#000000">int4[10]</text>
<polygon fill="none" stroke="#000000" points="166,-103.2 166,-125.2 275,-125.2 275,-103.2 166,-103.2"/>
<text text-anchor="start" x="186" y="-110.3" font-family="Helvetica,sans-Serif" font-size="11.00" fill="#000000">bijzonderheden</text>
<polygon fill="none" stroke="#000000" points="275,-103.2 275,-125.2 394,-125.2 394,-103.2 275,-103.2"/>
<text text-anchor="start" x="278" y="-110.9" font-family="Helvetica,sans-Serif" font-size="11.00" fill="#000000">text[2147483647]</text>
<polygon fill="none" stroke="#000000" points="166,-81.2 166,-103.2 275,-103.2 275,-81.2 166,-81.2"/>
<text text-anchor="start" x="186" y="-88.3" font-family="Helvetica,sans-Serif" font-size="11.00" fill="#000000">plusinfo</text>
<polygon fill="none" stroke="#000000" points="275,-81.2 275,-103.2 394,-103.2 394,-81.2 275,-81.2"/>
<text text-anchor="start" x="278" y="-88.9" font-family="Helvetica,sans-Serif" font-size="11.00" fill="#000000">jsonb[2147483647]</text>
<polygon fill="#ffffff" stroke="transparent" points="166,-59.2 166,-81.2 275,-81.2 275,-59.2 166,-59.2"/>
<polygon fill="none" stroke="#000000" points="166,-59.2 166,-81.2 275,-81.2 275,-59.2 166,-59.2"/>
<image xlink:href="../../images/foreignKeys.png" width="11px" height="12px" preserveAspectRatio="xMinYMin meet" x="171" y="-76.2"/>
<text text-anchor="start" x="186" y="-66.3" font-family="Helvetica,sans-Serif" font-size="11.00" fill="#000000">symbool_id</text>
<polygon fill="none" stroke="#000000" points="275,-59.2 275,-81.2 394,-81.2 394,-59.2 275,-59.2"/>
<text text-anchor="start" x="278" y="-66.9" font-family="Helvetica,sans-Serif" font-size="11.00" fill="#000000">int4[10]</text>
<polygon fill="#ffffff" stroke="transparent" points="166,-40.2 166,-59.2 225,-59.2 225,-40.2 166,-40.2"/>
<polygon fill="none" stroke="#000000" points="166,-40.2 166,-59.2 225,-59.2 225,-40.2 166,-40.2"/>
<text text-anchor="start" x="169" y="-46.3" font-family="Helvetica,sans-Serif" font-size="11.00" fill="#000000">&lt; 1</text>
<polygon fill="#ffffff" stroke="transparent" points="225,-40.2 225,-59.2 275,-59.2 275,-40.2 225,-40.2"/>
<polygon fill="none" stroke="#000000" points="225,-40.2 225,-59.2 275,-59.2 275,-40.2 225,-40.2"/>
<text text-anchor="start" x="265.8862" y="-46.3" font-family="Helvetica,sans-Serif" font-size="11.00" fill="#000000"> &#160;</text>
<polygon fill="#ffffff" stroke="transparent" points="275,-40.2 275,-59.2 394,-59.2 394,-40.2 275,-40.2"/>
<polygon fill="none" stroke="#000000" points="275,-40.2 275,-59.2 394,-59.2 394,-40.2 275,-40.2"/>
<text text-anchor="start" x="375.4053" y="-46.3" font-family="Helvetica,sans-Serif" font-size="11.00" fill="#000000">0 &gt;</text>
<polygon fill="none" stroke="#000000" stroke-width="2" points="165,-39.2 165,-281.2 395,-281.2 395,-39.2 165,-39.2"/>
</a>
</g>
</g>
<!-- roi.symbool -->
<g id="node2" class="node">
<title>roi.symbool</title>
<g id="a_node2"><a xlink:href="../../../roi/tables/symbool.html" xlink:title="roi.symbool" target="_top">
<polygon fill="#ffffff" stroke="transparent" points="8,-39.7 8,-100.7 115,-100.7 115,-39.7 8,-39.7"/>
<polygon fill="#f5f5f5" stroke="transparent" points="8.5,-77.2 8.5,-100.2 115.5,-100.2 115.5,-77.2 8.5,-77.2"/>
<polygon fill="none" stroke="#000000" points="8.5,-77.2 8.5,-100.2 115.5,-100.2 115.5,-77.2 8.5,-77.2"/>
<text text-anchor="start" x="13.5" y="-85.8" font-family="Helvetica,sans-Serif" font-weight="bold" font-size="11.00" fill="#000000">roi.symbool</text>
<text text-anchor="start" x="81.0219" y="-85.3" font-family="Helvetica,sans-Serif" font-size="11.00" fill="#000000">[table]</text>
<polygon fill="none" stroke="#000000" points="8.5,-58.2 8.5,-77.2 115.5,-77.2 115.5,-58.2 8.5,-58.2"/>
<text text-anchor="start" x="11.5" y="-64.3" font-family="Helvetica,sans-Serif" font-size="11.00" fill="#000000">...</text>
<polygon fill="#ffffff" stroke="transparent" points="8.5,-39.2 8.5,-58.2 51.5,-58.2 51.5,-39.2 8.5,-39.2"/>
<polygon fill="none" stroke="#000000" points="8.5,-39.2 8.5,-58.2 51.5,-58.2 51.5,-39.2 8.5,-39.2"/>
<text text-anchor="start" x="11.5" y="-45.3" font-family="Helvetica,sans-Serif" font-size="11.00" fill="#000000"> &#160;</text>
<polygon fill="#ffffff" stroke="transparent" points="51.5,-39.2 51.5,-58.2 78.5,-58.2 78.5,-39.2 51.5,-39.2"/>
<polygon fill="none" stroke="#000000" points="51.5,-39.2 51.5,-58.2 78.5,-58.2 78.5,-39.2 51.5,-39.2"/>
<text text-anchor="start" x="69.3862" y="-45.3" font-family="Helvetica,sans-Serif" font-size="11.00" fill="#000000"> &#160;</text>
<polygon fill="#ffffff" stroke="transparent" points="78.5,-39.2 78.5,-58.2 115.5,-58.2 115.5,-39.2 78.5,-39.2"/>
<polygon fill="none" stroke="#000000" points="78.5,-39.2 78.5,-58.2 115.5,-58.2 115.5,-39.2 78.5,-39.2"/>
<text text-anchor="start" x="96.9053" y="-45.3" font-family="Helvetica,sans-Serif" font-size="11.00" fill="#000000">6 &gt;</text>
</a>
</g>
</g>
<!-- voorziening&#45;&gt;roi.symbool -->
<g id="edge1" class="edge">
<title>voorziening:w&#45;&gt;roi.symbool:e</title>
<path fill="none" stroke="#000000" d="M151.3953,-70.2C141.9637,-70.2 132.3607,-70.2 123.1118,-70.2"/>
<polygon fill="#000000" stroke="#000000" points="158,-70.2001 166,-73.8 162,-70.2 166,-70.2 166,-70.2 166,-70.2 162,-70.2 166,-66.6 158,-70.2001 158,-70.2001"/>
<ellipse fill="none" stroke="#000000" cx="154.8" cy="-70.2001" rx="3.2" ry="3.2"/>
</g>
</g>
</svg>
