<?xml version="1.0" encoding="UTF-8" standalone="no"?>
<!DOCTYPE svg PUBLIC "-//W3C//DTD SVG 1.1//EN"
 "http://www.w3.org/Graphics/SVG/1.1/DTD/svg11.dtd">
<!-- Generated by graphviz version 2.40.1 (20161225.0304)
 -->
<!-- Title: twoDegreesRelationshipsDiagram Pages: 1 -->
<svg width="412pt" height="705pt"
 viewBox="0.00 0.00 412.00 704.70" xmlns="http://www.w3.org/2000/svg" xmlns:xlink="http://www.w3.org/1999/xlink">
<g id="graph0" class="graph" transform="scale(1 1) rotate(0) translate(4 700.7)">
<title>twoDegreesRelationshipsDiagram</title>
<polygon fill="#ffffff" stroke="transparent" points="-4,4 -4,-700.7 408,-700.7 408,4 -4,4"/>
<text text-anchor="middle" x="72.4936" y="-7.3" font-family="Helvetica,sans-Serif" font-size="11.00" fill="#000000">Generated by SchemaSpy</text>
<!-- bluswaterriool -->
<g id="node1" class="node">
<title>bluswaterriool</title>
<g id="a_node1"><a xlink:href="../../tables/bluswaterriool.html" xlink:title="bluswaterriool" target="_top">
<polygon fill="#ffffff" stroke="transparent" points="219.5,-631.7 219.5,-692.7 340.5,-692.7 340.5,-631.7 219.5,-631.7"/>
<polygon fill="#f5f5f5" stroke="transparent" points="220,-669.2 220,-692.2 341,-692.2 341,-669.2 220,-669.2"/>
<polygon fill="none" stroke="#000000" points="220,-669.2 220,-692.2 341,-692.2 341,-669.2 220,-669.2"/>
<text text-anchor="start" x="225" y="-677.8" font-family="Helvetica,sans-Serif" font-weight="bold" font-size="11.00" fill="#000000">bluswaterriool</text>
<text text-anchor="start" x="306.5219" y="-677.3" font-family="Helvetica,sans-Serif" font-size="11.00" fill="#000000">[table]</text>
<polygon fill="none" stroke="#000000" points="220,-650.2 220,-669.2 341,-669.2 341,-650.2 220,-650.2"/>
<text text-anchor="start" x="223" y="-656.3" font-family="Helvetica,sans-Serif" font-size="11.00" fill="#000000">...</text>
<polygon fill="#ffffff" stroke="transparent" points="220,-631.2 220,-650.2 279,-650.2 279,-631.2 220,-631.2"/>
<polygon fill="none" stroke="#000000" points="220,-631.2 220,-650.2 279,-650.2 279,-631.2 220,-631.2"/>
<text text-anchor="start" x="223" y="-637.3" font-family="Helvetica,sans-Serif" font-size="11.00" fill="#000000">&lt; 4</text>
<polygon fill="#ffffff" stroke="transparent" points="279,-631.2 279,-650.2 310,-650.2 310,-631.2 279,-631.2"/>
<polygon fill="none" stroke="#000000" points="279,-631.2 279,-650.2 310,-650.2 310,-631.2 279,-631.2"/>
<text text-anchor="start" x="300.8862" y="-637.3" font-family="Helvetica,sans-Serif" font-size="11.00" fill="#000000"> &#160;</text>
<polygon fill="#ffffff" stroke="transparent" points="310,-631.2 310,-650.2 341,-650.2 341,-631.2 310,-631.2"/>
<polygon fill="none" stroke="#000000" points="310,-631.2 310,-650.2 341,-650.2 341,-631.2 310,-631.2"/>
<text text-anchor="start" x="331.8862" y="-637.3" font-family="Helvetica,sans-Serif" font-size="11.00" fill="#000000"> &#160;</text>
</a>
</g>
</g>
<!-- roi.symbool -->
<g id="node2" class="node">
<title>roi.symbool</title>
<g id="a_node2"><a xlink:href="../../../roi/tables/symbool.html" xlink:title="roi.symbool" target="_top">
<polygon fill="#ffffff" stroke="transparent" points="8,-423.7 8,-484.7 115,-484.7 115,-423.7 8,-423.7"/>
<polygon fill="#f5f5f5" stroke="transparent" points="8.5,-461.2 8.5,-484.2 115.5,-484.2 115.5,-461.2 8.5,-461.2"/>
<polygon fill="none" stroke="#000000" points="8.5,-461.2 8.5,-484.2 115.5,-484.2 115.5,-461.2 8.5,-461.2"/>
<text text-anchor="start" x="13.5" y="-469.8" font-family="Helvetica,sans-Serif" font-weight="bold" font-size="11.00" fill="#000000">roi.symbool</text>
<text text-anchor="start" x="81.0219" y="-469.3" font-family="Helvetica,sans-Serif" font-size="11.00" fill="#000000">[table]</text>
<polygon fill="none" stroke="#000000" points="8.5,-442.2 8.5,-461.2 115.5,-461.2 115.5,-442.2 8.5,-442.2"/>
<text text-anchor="start" x="11.5" y="-448.3" font-family="Helvetica,sans-Serif" font-size="11.00" fill="#000000">...</text>
<polygon fill="#ffffff" stroke="transparent" points="8.5,-423.2 8.5,-442.2 51.5,-442.2 51.5,-423.2 8.5,-423.2"/>
<polygon fill="none" stroke="#000000" points="8.5,-423.2 8.5,-442.2 51.5,-442.2 51.5,-423.2 8.5,-423.2"/>
<text text-anchor="start" x="11.5" y="-429.3" font-family="Helvetica,sans-Serif" font-size="11.00" fill="#000000"> &#160;</text>
<polygon fill="#ffffff" stroke="transparent" points="51.5,-423.2 51.5,-442.2 78.5,-442.2 78.5,-423.2 51.5,-423.2"/>
<polygon fill="none" stroke="#000000" points="51.5,-423.2 51.5,-442.2 78.5,-442.2 78.5,-423.2 51.5,-423.2"/>
<text text-anchor="start" x="69.3862" y="-429.3" font-family="Helvetica,sans-Serif" font-size="11.00" fill="#000000"> &#160;</text>
<polygon fill="#ffffff" stroke="transparent" points="78.5,-423.2 78.5,-442.2 115.5,-442.2 115.5,-423.2 78.5,-423.2"/>
<polygon fill="none" stroke="#000000" points="78.5,-423.2 78.5,-442.2 115.5,-442.2 115.5,-423.2 78.5,-423.2"/>
<text text-anchor="start" x="96.9053" y="-429.3" font-family="Helvetica,sans-Serif" font-size="11.00" fill="#000000">6 &gt;</text>
</a>
</g>
</g>
<!-- bluswaterriool&#45;&gt;roi.symbool -->
<g id="edge1" class="edge">
<title>bluswaterriool:w&#45;&gt;roi.symbool:e</title>
<path fill="none" stroke="#000000" d="M205.4549,-658.0823C129.6931,-646.2886 88.0365,-544.0359 70.9153,-488.9755"/>
<polygon fill="#000000" stroke="#000000" points="212.0235,-658.587 219.7242,-662.7894 216.0118,-658.8935 220,-659.2 220,-659.2 220,-659.2 216.0118,-658.8935 220.2758,-655.6106 212.0235,-658.587 212.0235,-658.587"/>
<ellipse fill="none" stroke="#000000" cx="208.8329" cy="-658.3418" rx="3.2" ry="3.2"/>
</g>
<!-- brandkraan -->
<g id="node3" class="node">
<title>brandkraan</title>
<g id="a_node3"><a xlink:href="../../tables/brandkraan.html" xlink:title="brandkraan" target="_top">
<polygon fill="#ffffff" stroke="transparent" points="228,-549.7 228,-610.7 332,-610.7 332,-549.7 228,-549.7"/>
<polygon fill="#f5f5f5" stroke="transparent" points="228,-587.2 228,-610.2 332,-610.2 332,-587.2 228,-587.2"/>
<polygon fill="none" stroke="#000000" points="228,-587.2 228,-610.2 332,-610.2 332,-587.2 228,-587.2"/>
<text text-anchor="start" x="233" y="-595.8" font-family="Helvetica,sans-Serif" font-weight="bold" font-size="11.00" fill="#000000">brandkraan</text>
<text text-anchor="start" x="297.5219" y="-595.3" font-family="Helvetica,sans-Serif" font-size="11.00" fill="#000000">[table]</text>
<polygon fill="none" stroke="#000000" points="228,-568.2 228,-587.2 332,-587.2 332,-568.2 228,-568.2"/>
<text text-anchor="start" x="231" y="-574.3" font-family="Helvetica,sans-Serif" font-size="11.00" fill="#000000">...</text>
<polygon fill="#ffffff" stroke="transparent" points="228,-549.2 228,-568.2 278,-568.2 278,-549.2 228,-549.2"/>
<polygon fill="none" stroke="#000000" points="228,-549.2 228,-568.2 278,-568.2 278,-549.2 228,-549.2"/>
<text text-anchor="start" x="231" y="-555.3" font-family="Helvetica,sans-Serif" font-size="11.00" fill="#000000">&lt; 4</text>
<polygon fill="#ffffff" stroke="transparent" points="278,-549.2 278,-568.2 305,-568.2 305,-549.2 278,-549.2"/>
<polygon fill="none" stroke="#000000" points="278,-549.2 278,-568.2 305,-568.2 305,-549.2 278,-549.2"/>
<text text-anchor="start" x="295.8862" y="-555.3" font-family="Helvetica,sans-Serif" font-size="11.00" fill="#000000"> &#160;</text>
<polygon fill="#ffffff" stroke="transparent" points="305,-549.2 305,-568.2 332,-568.2 332,-549.2 305,-549.2"/>
<polygon fill="none" stroke="#000000" points="305,-549.2 305,-568.2 332,-568.2 332,-549.2 305,-549.2"/>
<text text-anchor="start" x="322.8862" y="-555.3" font-family="Helvetica,sans-Serif" font-size="11.00" fill="#000000"> &#160;</text>
</a>
</g>
</g>
<!-- brandkraan&#45;&gt;roi.symbool -->
<g id="edge2" class="edge">
<title>brandkraan:w&#45;&gt;roi.symbool:e</title>
<path fill="none" stroke="#000000" d="M213.4325,-576.187C159.7156,-568.7691 113.3222,-522.1857 86.3814,-488.7897"/>
<polygon fill="#000000" stroke="#000000" points="220.0193,-576.645 227.7502,-580.7913 224.0096,-576.9225 228,-577.2 228,-577.2 228,-577.2 224.0096,-576.9225 228.2498,-573.6087 220.0193,-576.645 220.0193,-576.645"/>
<ellipse fill="none" stroke="#000000" cx="216.827" cy="-576.423" rx="3.2" ry="3.2"/>
</g>
<!-- brandkraan_prive -->
<g id="node4" class="node">
<title>brandkraan_prive</title>
<g id="a_node4"><a xlink:href="../../tables/brandkraan_prive.html" xlink:title="brandkraan_prive" target="_top">
<polygon fill="#ffffff" stroke="transparent" points="210.5,-467.7 210.5,-528.7 349.5,-528.7 349.5,-467.7 210.5,-467.7"/>
<polygon fill="#f5f5f5" stroke="transparent" points="211,-505.2 211,-528.2 350,-528.2 350,-505.2 211,-505.2"/>
<polygon fill="none" stroke="#000000" points="211,-505.2 211,-528.2 350,-528.2 350,-505.2 211,-505.2"/>
<text text-anchor="start" x="216" y="-513.8" font-family="Helvetica,sans-Serif" font-weight="bold" font-size="11.00" fill="#000000">brandkraan_prive</text>
<text text-anchor="start" x="315.5219" y="-513.3" font-family="Helvetica,sans-Serif" font-size="11.00" fill="#000000">[table]</text>
<polygon fill="none" stroke="#000000" points="211,-486.2 211,-505.2 350,-505.2 350,-486.2 211,-486.2"/>
<text text-anchor="start" x="214" y="-492.3" font-family="Helvetica,sans-Serif" font-size="11.00" fill="#000000">...</text>
<polygon fill="#ffffff" stroke="transparent" points="211,-467.2 211,-486.2 279,-486.2 279,-467.2 211,-467.2"/>
<polygon fill="none" stroke="#000000" points="211,-467.2 211,-486.2 279,-486.2 279,-467.2 211,-467.2"/>
<text text-anchor="start" x="214" y="-473.3" font-family="Helvetica,sans-Serif" font-size="11.00" fill="#000000">&lt; 4</text>
<polygon fill="#ffffff" stroke="transparent" points="279,-467.2 279,-486.2 314,-486.2 314,-467.2 279,-467.2"/>
<polygon fill="none" stroke="#000000" points="279,-467.2 279,-486.2 314,-486.2 314,-467.2 279,-467.2"/>
<text text-anchor="start" x="304.8862" y="-473.3" font-family="Helvetica,sans-Serif" font-size="11.00" fill="#000000"> &#160;</text>
<polygon fill="#ffffff" stroke="transparent" points="314,-467.2 314,-486.2 350,-486.2 350,-467.2 314,-467.2"/>
<polygon fill="none" stroke="#000000" points="314,-467.2 314,-486.2 350,-486.2 350,-467.2 314,-467.2"/>
<text text-anchor="start" x="340.8862" y="-473.3" font-family="Helvetica,sans-Serif" font-size="11.00" fill="#000000"> &#160;</text>
</a>
</g>
</g>
<!-- brandkraan_prive&#45;&gt;roi.symbool -->
<g id="edge3" class="edge">
<title>brandkraan_prive:w&#45;&gt;roi.symbool:e</title>
<path fill="none" stroke="#000000" d="M196.2869,-494.6175C171.1113,-492.6875 145.2653,-486.2135 123.0264,-478.9957"/>
<polygon fill="#000000" stroke="#000000" points="203.0063,-494.8835 210.8576,-498.7972 207.0031,-495.0417 211,-495.2 211,-495.2 211,-495.2 207.0031,-495.0417 211.1424,-491.6028 203.0063,-494.8835 203.0063,-494.8835"/>
<ellipse fill="none" stroke="#000000" cx="199.8088" cy="-494.7568" rx="3.2" ry="3.2"/>
</g>
<!-- brandput -->
<g id="node5" class="node">
<title>brandput</title>
<g id="a_node5"><a xlink:href="../../tables/brandput.html" xlink:title="brandput" target="_top">
<polygon fill="#ffffff" stroke="transparent" points="235,-385.7 235,-446.7 325,-446.7 325,-385.7 235,-385.7"/>
<polygon fill="#f5f5f5" stroke="transparent" points="235,-423.2 235,-446.2 325,-446.2 325,-423.2 235,-423.2"/>
<polygon fill="none" stroke="#000000" points="235,-423.2 235,-446.2 325,-446.2 325,-423.2 235,-423.2"/>
<text text-anchor="start" x="240" y="-431.8" font-family="Helvetica,sans-Serif" font-weight="bold" font-size="11.00" fill="#000000">brandput</text>
<text text-anchor="start" x="290.5219" y="-431.3" font-family="Helvetica,sans-Serif" font-size="11.00" fill="#000000">[table]</text>
<polygon fill="none" stroke="#000000" points="235,-404.2 235,-423.2 325,-423.2 325,-404.2 235,-404.2"/>
<text text-anchor="start" x="238" y="-410.3" font-family="Helvetica,sans-Serif" font-size="11.00" fill="#000000">...</text>
<polygon fill="#ffffff" stroke="transparent" points="235,-385.2 235,-404.2 278,-404.2 278,-385.2 235,-385.2"/>
<polygon fill="none" stroke="#000000" points="235,-385.2 235,-404.2 278,-404.2 278,-385.2 235,-385.2"/>
<text text-anchor="start" x="238" y="-391.3" font-family="Helvetica,sans-Serif" font-size="11.00" fill="#000000">&lt; 4</text>
<polygon fill="#ffffff" stroke="transparent" points="278,-385.2 278,-404.2 301,-404.2 301,-385.2 278,-385.2"/>
<polygon fill="none" stroke="#000000" points="278,-385.2 278,-404.2 301,-404.2 301,-385.2 278,-385.2"/>
<text text-anchor="start" x="291.8862" y="-391.3" font-family="Helvetica,sans-Serif" font-size="11.00" fill="#000000"> &#160;</text>
<polygon fill="#ffffff" stroke="transparent" points="301,-385.2 301,-404.2 325,-404.2 325,-385.2 301,-385.2"/>
<polygon fill="none" stroke="#000000" points="301,-385.2 301,-404.2 325,-404.2 325,-385.2 301,-385.2"/>
<text text-anchor="start" x="315.8862" y="-391.3" font-family="Helvetica,sans-Serif" font-size="11.00" fill="#000000"> &#160;</text>
</a>
</g>
</g>
<!-- brandput&#45;&gt;roi.symbool -->
<g id="edge4" class="edge">
<title>brandput:w&#45;&gt;roi.symbool:e</title>
<path fill="none" stroke="#000000" d="M220.2525,-413.6452C186.7643,-415.6079 151.843,-423.7682 123.3076,-432.2596"/>
<polygon fill="#000000" stroke="#000000" points="227.0036,-413.4414 235.1086,-416.7984 231.0018,-413.3207 235,-413.2 235,-413.2 235,-413.2 231.0018,-413.3207 234.8914,-409.6016 227.0036,-413.4414 227.0036,-413.4414"/>
<ellipse fill="none" stroke="#000000" cx="223.8051" cy="-413.538" rx="3.2" ry="3.2"/>
</g>
<!-- openwater -->
<g id="node6" class="node">
<title>openwater</title>
<g id="a_node6"><a xlink:href="../../tables/openwater.html" xlink:title="openwater" target="_top">
<polygon fill="#ffffff" stroke="transparent" points="230.5,-303.7 230.5,-364.7 329.5,-364.7 329.5,-303.7 230.5,-303.7"/>
<polygon fill="#f5f5f5" stroke="transparent" points="231,-341.2 231,-364.2 330,-364.2 330,-341.2 231,-341.2"/>
<polygon fill="none" stroke="#000000" points="231,-341.2 231,-364.2 330,-364.2 330,-341.2 231,-341.2"/>
<text text-anchor="start" x="236" y="-349.8" font-family="Helvetica,sans-Serif" font-weight="bold" font-size="11.00" fill="#000000">openwater</text>
<text text-anchor="start" x="295.5219" y="-349.3" font-family="Helvetica,sans-Serif" font-size="11.00" fill="#000000">[table]</text>
<polygon fill="none" stroke="#000000" points="231,-322.2 231,-341.2 330,-341.2 330,-322.2 231,-322.2"/>
<text text-anchor="start" x="234" y="-328.3" font-family="Helvetica,sans-Serif" font-size="11.00" fill="#000000">...</text>
<polygon fill="#ffffff" stroke="transparent" points="231,-303.2 231,-322.2 279,-322.2 279,-303.2 231,-303.2"/>
<polygon fill="none" stroke="#000000" points="231,-303.2 231,-322.2 279,-322.2 279,-303.2 231,-303.2"/>
<text text-anchor="start" x="234" y="-309.3" font-family="Helvetica,sans-Serif" font-size="11.00" fill="#000000">&lt; 4</text>
<polygon fill="#ffffff" stroke="transparent" points="279,-303.2 279,-322.2 304,-322.2 304,-303.2 279,-303.2"/>
<polygon fill="none" stroke="#000000" points="279,-303.2 279,-322.2 304,-322.2 304,-303.2 279,-303.2"/>
<text text-anchor="start" x="294.8862" y="-309.3" font-family="Helvetica,sans-Serif" font-size="11.00" fill="#000000"> &#160;</text>
<polygon fill="#ffffff" stroke="transparent" points="304,-303.2 304,-322.2 330,-322.2 330,-303.2 304,-303.2"/>
<polygon fill="none" stroke="#000000" points="304,-303.2 304,-322.2 330,-322.2 330,-303.2 304,-303.2"/>
<text text-anchor="start" x="320.8862" y="-309.3" font-family="Helvetica,sans-Serif" font-size="11.00" fill="#000000"> &#160;</text>
</a>
</g>
</g>
<!-- openwater&#45;&gt;roi.symbool -->
<g id="edge5" class="edge">
<title>openwater:w&#45;&gt;roi.symbool:e</title>
<path fill="none" stroke="#000000" d="M216.6009,-332.1662C162.0464,-339.4326 114.5688,-386.1432 86.9685,-419.6103"/>
<polygon fill="#000000" stroke="#000000" points="223.0179,-331.7356 231.241,-334.7919 227.009,-331.4678 231,-331.2 231,-331.2 231,-331.2 227.009,-331.4678 230.759,-327.6081 223.0179,-331.7356 223.0179,-331.7356"/>
<ellipse fill="none" stroke="#000000" cx="219.8251" cy="-331.9499" rx="3.2" ry="3.2"/>
</g>
<!-- voorziening -->
<g id="node7" class="node">
<title>voorziening</title>
<g id="a_node7"><a xlink:href="../../tables/voorziening.html" xlink:title="voorziening" target="_top">
<polygon fill="#ffffff" stroke="transparent" points="164,-38.2 164,-282.2 396,-282.2 396,-38.2 164,-38.2"/>
<polygon fill="#f5f5f5" stroke="transparent" points="166,-257.2 166,-280.2 394,-280.2 394,-257.2 166,-257.2"/>
<polygon fill="none" stroke="#000000" points="166,-257.2 166,-280.2 394,-280.2 394,-257.2 166,-257.2"/>
<text text-anchor="start" x="171" y="-265.8" font-family="Helvetica,sans-Serif" font-weight="bold" font-size="11.00" fill="#000000">voorziening</text>
<text text-anchor="start" x="359.0437" y="-265.3" font-family="Helvetica,sans-Serif" font-size="11.00" fill="#000000">[table]</text>
<polygon fill="none" stroke="#000000" points="166,-235.2 166,-257.2 275,-257.2 275,-235.2 166,-235.2"/>
<image xlink:href="../../images/primaryKeys.png" width="11px" height="12px" preserveAspectRatio="xMinYMin meet" x="171" y="-252.2"/>
<text text-anchor="start" x="186" y="-242.3" font-family="Helvetica,sans-Serif" font-size="11.00" fill="#000000">uuid</text>
<polygon fill="none" stroke="#000000" points="275,-235.2 275,-257.2 394,-257.2 394,-235.2 275,-235.2"/>
<text text-anchor="start" x="278" y="-242.9" font-family="Helvetica,sans-Serif" font-size="11.00" fill="#000000">uuid[2147483647]</text>
<polygon fill="#ffffff" stroke="transparent" points="166,-213.2 166,-235.2 275,-235.2 275,-213.2 166,-213.2"/>
<polygon fill="none" stroke="#000000" points="166,-213.2 166,-235.2 275,-235.2 275,-213.2 166,-213.2"/>
<text text-anchor="start" x="186" y="-220.3" font-family="Helvetica,sans-Serif" font-size="11.00" fill="#000000">geom</text>
<polygon fill="none" stroke="#000000" points="275,-213.2 275,-235.2 394,-235.2 394,-213.2 275,-213.2"/>
<text text-anchor="start" x="277.9485" y="-220.9" font-family="Helvetica,sans-Serif" font-size="11.00" fill="#000000">geometry[2147483647]</text>
<polygon fill="none" stroke="#000000" points="166,-191.2 166,-213.2 275,-213.2 275,-191.2 166,-191.2"/>
<text text-anchor="start" x="186" y="-198.3" font-family="Helvetica,sans-Serif" font-size="11.00" fill="#000000">datumtijd</text>
<polygon fill="none" stroke="#000000" points="275,-191.2 275,-213.2 394,-213.2 394,-191.2 275,-191.2"/>
<text text-anchor="start" x="278" y="-198.9" font-family="Helvetica,sans-Serif" font-size="11.00" fill="#000000">timestamptz[35,6]</text>
<polygon fill="none" stroke="#000000" points="166,-169.2 166,-191.2 275,-191.2 275,-169.2 166,-169.2"/>
<text text-anchor="start" x="186" y="-176.3" font-family="Helvetica,sans-Serif" font-size="11.00" fill="#000000">gebruiker</text>
<polygon fill="none" stroke="#000000" points="275,-169.2 275,-191.2 394,-191.2 394,-169.2 275,-169.2"/>
<text text-anchor="start" x="278" y="-176.9" font-family="Helvetica,sans-Serif" font-size="11.00" fill="#000000">varchar[255]</text>
<polygon fill="none" stroke="#000000" points="166,-147.2 166,-169.2 275,-169.2 275,-147.2 166,-147.2"/>
<text text-anchor="start" x="186" y="-154.3" font-family="Helvetica,sans-Serif" font-size="11.00" fill="#000000">label</text>
<polygon fill="none" stroke="#000000" points="275,-147.2 275,-169.2 394,-169.2 394,-147.2 275,-147.2"/>
<text text-anchor="start" x="278" y="-154.9" font-family="Helvetica,sans-Serif" font-size="11.00" fill="#000000">text[2147483647]</text>
<polygon fill="none" stroke="#000000" points="166,-125.2 166,-147.2 275,-147.2 275,-125.2 166,-125.2"/>
<text text-anchor="start" x="186" y="-132.3" font-family="Helvetica,sans-Serif" font-size="11.00" fill="#000000">rotatie</text>
<polygon fill="none" stroke="#000000" points="275,-125.2 275,-147.2 394,-147.2 394,-125.2 275,-125.2"/>
<text text-anchor="start" x="278" y="-132.9" font-family="Helvetica,sans-Serif" font-size="11.00" fill="#000000">int4[10]</text>
<polygon fill="none" stroke="#000000" points="166,-103.2 166,-125.2 275,-125.2 275,-103.2 166,-103.2"/>
<text text-anchor="start" x="186" y="-110.3" font-family="Helvetica,sans-Serif" font-size="11.00" fill="#000000">bijzonderheden</text>
<polygon fill="none" stroke="#000000" points="275,-103.2 275,-125.2 394,-125.2 394,-103.2 275,-103.2"/>
<text text-anchor="start" x="278" y="-110.9" font-family="Helvetica,sans-Serif" font-size="11.00" fill="#000000">text[2147483647]</text>
<polygon fill="none" stroke="#000000" points="166,-81.2 166,-103.2 275,-103.2 275,-81.2 166,-81.2"/>
<text text-anchor="start" x="186" y="-88.3" font-family="Helvetica,sans-Serif" font-size="11.00" fill="#000000">plusinfo</text>
<polygon fill="none" stroke="#000000" points="275,-81.2 275,-103.2 394,-103.2 394,-81.2 275,-81.2"/>
<text text-anchor="start" x="278" y="-88.9" font-family="Helvetica,sans-Serif" font-size="11.00" fill="#000000">jsonb[2147483647]</text>
<polygon fill="#ffffff" stroke="transparent" points="166,-59.2 166,-81.2 275,-81.2 275,-59.2 166,-59.2"/>
<polygon fill="none" stroke="#000000" points="166,-59.2 166,-81.2 275,-81.2 275,-59.2 166,-59.2"/>
<image xlink:href="../../images/foreignKeys.png" width="11px" height="12px" preserveAspectRatio="xMinYMin meet" x="171" y="-76.2"/>
<text text-anchor="start" x="186" y="-66.3" font-family="Helvetica,sans-Serif" font-size="11.00" fill="#000000">symbool_id</text>
<polygon fill="none" stroke="#000000" points="275,-59.2 275,-81.2 394,-81.2 394,-59.2 275,-59.2"/>
<text text-anchor="start" x="278" y="-66.9" font-family="Helvetica,sans-Serif" font-size="11.00" fill="#000000">int4[10]</text>
<polygon fill="#ffffff" stroke="transparent" points="166,-40.2 166,-59.2 225,-59.2 225,-40.2 166,-40.2"/>
<polygon fill="none" stroke="#000000" points="166,-40.2 166,-59.2 225,-59.2 225,-40.2 166,-40.2"/>
<text text-anchor="start" x="169" y="-46.3" font-family="Helvetica,sans-Serif" font-size="11.00" fill="#000000">&lt; 1</text>
<polygon fill="#ffffff" stroke="transparent" points="225,-40.2 225,-59.2 275,-59.2 275,-40.2 225,-40.2"/>
<polygon fill="none" stroke="#000000" points="225,-40.2 225,-59.2 275,-59.2 275,-40.2 225,-40.2"/>
<text text-anchor="start" x="265.8862" y="-46.3" font-family="Helvetica,sans-Serif" font-size="11.00" fill="#000000"> &#160;</text>
<polygon fill="#ffffff" stroke="transparent" points="275,-40.2 275,-59.2 394,-59.2 394,-40.2 275,-40.2"/>
<polygon fill="none" stroke="#000000" points="275,-40.2 275,-59.2 394,-59.2 394,-40.2 275,-40.2"/>
<text text-anchor="start" x="375.4053" y="-46.3" font-family="Helvetica,sans-Serif" font-size="11.00" fill="#000000">0 &gt;</text>
<polygon fill="none" stroke="#000000" stroke-width="2" points="165,-39.2 165,-281.2 395,-281.2 395,-39.2 165,-39.2"/>
</a>
</g>
</g>
<!-- voorziening&#45;&gt;roi.symbool -->
<g id="edge6" class="edge">
<title>voorziening:w&#45;&gt;roi.symbool:e</title>
<path fill="none" stroke="#000000" d="M151.892,-73.6384C90.7707,-104.2764 69.5128,-331.3819 63.5188,-419.4453"/>
<polygon fill="#000000" stroke="#000000" points="158.2275,-72.0943 166.8525,-73.6976 162.1138,-71.1472 166,-70.2 166,-70.2 166,-70.2 162.1138,-71.1472 165.1475,-66.7024 158.2275,-72.0943 158.2275,-72.0943"/>
<ellipse fill="none" stroke="#000000" cx="155.1185" cy="-72.8521" rx="3.2" ry="3.2"/>
</g>
</g>
</svg>
