<?xml version="1.0" encoding="UTF-8" standalone="no"?>
<!DOCTYPE svg PUBLIC "-//W3C//DTD SVG 1.1//EN"
 "http://www.w3.org/Graphics/SVG/1.1/DTD/svg11.dtd">
<!-- Generated by graphviz version 2.50.0 (0)
 -->
<!-- Title: bijlage Pages: 1 -->
<svg width="278pt" height="390pt"
 viewBox="0.00 0.00 278.00 390.00" xmlns="http://www.w3.org/2000/svg" xmlns:xlink="http://www.w3.org/1999/xlink">
<g id="graph0" class="graph" transform="scale(1 1) rotate(0) translate(4 386)">
<title>bijlage</title>
<polygon fill="#ffffff" stroke="transparent" points="-4,4 -4,-386 274,-386 274,4 -4,4"/>
<!-- bijlage -->
<g id="node1" class="node">
<title>bijlage</title>
<g id="a_node1"><a xlink:href="../../tables/bijlage.html" xlink:title="bijlage" target="_top">
<polygon fill="#ffffff" stroke="transparent" points="8,-4 8,-378 262,-378 262,-4 8,-4"/>
<polygon fill="#f5f5f5" stroke="transparent" points="10,-354 10,-376 260,-376 260,-354 10,-354"/>
<polygon fill="none" stroke="black" points="10,-354 10,-376 260,-376 260,-354 10,-354"/>
<text text-anchor="start" x="15" y="-363.2" font-family="Helvetica,sans-Serif" font-weight="bold" font-size="11.00">bijlage</text>
<text text-anchor="start" x="218" y="-362.2" font-family="Helvetica,sans-Serif" font-size="11.00">[table]</text>
<polygon fill="none" stroke="black" points="10,-332 10,-354 124,-354 124,-332 10,-332"/>
<image xlink:href="../../images/primaryKeys.png" width="11px" height="12px" preserveAspectRatio="xMinYMin meet" x="15" y="-349"/>
<text text-anchor="start" x="30" y="-340.2" font-family="Helvetica,sans-Serif" font-size="11.00">uuid</text>
<polygon fill="none" stroke="black" points="124,-332 124,-354 260,-354 260,-332 124,-332"/>
<text text-anchor="start" x="127" y="-340.2" font-family="Helvetica,sans-Serif" font-size="11.00">uuid[2147483647]</text>
<polygon fill="#ffffff" stroke="transparent" points="10,-310 10,-332 124,-332 124,-310 10,-310"/>
<polygon fill="none" stroke="black" points="10,-310 10,-332 124,-332 124,-310 10,-310"/>
<text text-anchor="start" x="30" y="-318.2" font-family="Helvetica,sans-Serif" font-size="11.00">geom</text>
<polygon fill="none" stroke="black" points="124,-310 124,-332 260,-332 260,-310 124,-310"/>
<text text-anchor="start" x="127" y="-318.2" font-family="Helvetica,sans-Serif" font-size="11.00">geometry[2147483647]</text>
<polygon fill="#ffffff" stroke="transparent" points="10,-288 10,-310 124,-310 124,-288 10,-288"/>
<polygon fill="none" stroke="black" points="10,-288 10,-310 124,-310 124,-288 10,-288"/>
<text text-anchor="start" x="30" y="-296.2" font-family="Helvetica,sans-Serif" font-size="11.00">periode</text>
<polygon fill="none" stroke="black" points="124,-288 124,-310 260,-310 260,-288 124,-288"/>
<text text-anchor="start" x="127" y="-296.2" font-family="Helvetica,sans-Serif" font-size="11.00">tstzrange[2147483647]</text>
<polygon fill="none" stroke="black" points="10,-266 10,-288 124,-288 124,-266 10,-266"/>
<text text-anchor="start" x="30" y="-274.2" font-family="Helvetica,sans-Serif" font-size="11.00">gebruiker</text>
<polygon fill="none" stroke="black" points="124,-266 124,-288 260,-288 260,-266 124,-266"/>
<text text-anchor="start" x="127" y="-274.2" font-family="Helvetica,sans-Serif" font-size="11.00">varchar[255]</text>
<polygon fill="#ffffff" stroke="transparent" points="10,-244 10,-266 124,-266 124,-244 10,-244"/>
<polygon fill="none" stroke="black" points="10,-244 10,-266 124,-266 124,-244 10,-244"/>
<text text-anchor="start" x="30" y="-252.2" font-family="Helvetica,sans-Serif" font-size="11.00">schema</text>
<polygon fill="none" stroke="black" points="124,-244 124,-266 260,-266 260,-244 124,-244"/>
<text text-anchor="start" x="127" y="-252.2" font-family="Helvetica,sans-Serif" font-size="11.00">text[2147483647]</text>
<polygon fill="#ffffff" stroke="transparent" points="10,-222 10,-244 124,-244 124,-222 10,-222"/>
<polygon fill="none" stroke="black" points="10,-222 10,-244 124,-244 124,-222 10,-222"/>
<text text-anchor="start" x="30" y="-230.2" font-family="Helvetica,sans-Serif" font-size="11.00">tabel</text>
<polygon fill="none" stroke="black" points="124,-222 124,-244 260,-244 260,-222 124,-222"/>
<text text-anchor="start" x="127" y="-230.2" font-family="Helvetica,sans-Serif" font-size="11.00">text[2147483647]</text>
<polygon fill="#ffffff" stroke="transparent" points="10,-200 10,-222 124,-222 124,-200 10,-200"/>
<polygon fill="none" stroke="black" points="10,-200 10,-222 124,-222 124,-200 10,-200"/>
<text text-anchor="start" x="30" y="-208.2" font-family="Helvetica,sans-Serif" font-size="11.00">obj_uuid</text>
<polygon fill="none" stroke="black" points="124,-200 124,-222 260,-222 260,-200 124,-200"/>
<text text-anchor="start" x="127" y="-208.2" font-family="Helvetica,sans-Serif" font-size="11.00">uuid[2147483647]</text>
<polygon fill="none" stroke="black" points="10,-178 10,-200 124,-200 124,-178 10,-178"/>
<text text-anchor="start" x="30" y="-186.2" font-family="Helvetica,sans-Serif" font-size="11.00">mime</text>
<polygon fill="none" stroke="black" points="124,-178 124,-200 260,-200 260,-178 124,-178"/>
<text text-anchor="start" x="127" y="-186.2" font-family="Helvetica,sans-Serif" font-size="11.00">text[2147483647]</text>
<polygon fill="none" stroke="black" points="10,-156 10,-178 124,-178 124,-156 10,-156"/>
<text text-anchor="start" x="30" y="-164.2" font-family="Helvetica,sans-Serif" font-size="11.00">blob</text>
<polygon fill="none" stroke="black" points="124,-156 124,-178 260,-178 260,-156 124,-156"/>
<text text-anchor="start" x="127" y="-164.2" font-family="Helvetica,sans-Serif" font-size="11.00">bytea[2147483647]</text>
<polygon fill="none" stroke="black" points="10,-134 10,-156 124,-156 124,-134 10,-134"/>
<text text-anchor="start" x="30" y="-142.2" font-family="Helvetica,sans-Serif" font-size="11.00">exif</text>
<polygon fill="none" stroke="black" points="124,-134 124,-156 260,-156 260,-134 124,-134"/>
<text text-anchor="start" x="127" y="-142.2" font-family="Helvetica,sans-Serif" font-size="11.00">jsonb[2147483647]</text>
<polygon fill="none" stroke="black" points="10,-112 10,-134 124,-134 124,-112 10,-112"/>
<text text-anchor="start" x="30" y="-120.2" font-family="Helvetica,sans-Serif" font-size="11.00">rd_x</text>
<polygon fill="none" stroke="black" points="124,-112 124,-134 260,-134 260,-112 124,-112"/>
<text text-anchor="start" x="127" y="-120.2" font-family="Helvetica,sans-Serif" font-size="11.00">numeric[0]</text>
<polygon fill="none" stroke="black" points="10,-90 10,-112 124,-112 124,-90 10,-90"/>
<text text-anchor="start" x="30" y="-98.2" font-family="Helvetica,sans-Serif" font-size="11.00">rd_y</text>
<polygon fill="none" stroke="black" points="124,-90 124,-112 260,-112 260,-90 124,-90"/>
<text text-anchor="start" x="127" y="-98.2" font-family="Helvetica,sans-Serif" font-size="11.00">numeric[0]</text>
<polygon fill="none" stroke="black" points="10,-68 10,-90 124,-90 124,-68 10,-68"/>
<text text-anchor="start" x="30" y="-76.2" font-family="Helvetica,sans-Serif" font-size="11.00">naam</text>
<polygon fill="none" stroke="black" points="124,-68 124,-90 260,-90 260,-68 124,-68"/>
<text text-anchor="start" x="127" y="-76.2" font-family="Helvetica,sans-Serif" font-size="11.00">varchar[255]</text>
<polygon fill="none" stroke="black" points="10,-46 10,-68 124,-68 124,-46 10,-46"/>
<text text-anchor="start" x="30" y="-54.2" font-family="Helvetica,sans-Serif" font-size="11.00">bijzonderheden</text>
<polygon fill="none" stroke="black" points="124,-46 124,-68 260,-68 260,-46 124,-46"/>
<text text-anchor="start" x="127" y="-54.2" font-family="Helvetica,sans-Serif" font-size="11.00">text[2147483647]</text>
<polygon fill="none" stroke="black" points="10,-24 10,-46 124,-46 124,-24 10,-24"/>
<text text-anchor="start" x="30" y="-32.2" font-family="Helvetica,sans-Serif" font-size="11.00">plusinfo</text>
<polygon fill="none" stroke="black" points="124,-24 124,-46 260,-46 260,-24 124,-24"/>
<text text-anchor="start" x="127" y="-32.2" font-family="Helvetica,sans-Serif" font-size="11.00">jsonb[2147483647]</text>
<polygon fill="#ffffff" stroke="transparent" points="10,-6 10,-24 73,-24 73,-6 10,-6"/>
<polygon fill="none" stroke="black" points="10,-6 10,-24 73,-24 73,-6 10,-6"/>
<text text-anchor="start" x="13" y="-12.2" font-family="Helvetica,sans-Serif" font-size="11.00">&lt; 0</text>
<polygon fill="#ffffff" stroke="transparent" points="73,-6 73,-24 124,-24 124,-6 73,-6"/>
<polygon fill="none" stroke="black" points="73,-6 73,-24 124,-24 124,-6 73,-6"/>
<text text-anchor="start" x="113" y="-12.2" font-family="Helvetica,sans-Serif" font-size="11.00"> &#160;</text>
<polygon fill="#ffffff" stroke="transparent" points="124,-6 124,-24 260,-24 260,-6 124,-6"/>
<polygon fill="none" stroke="black" points="124,-6 124,-24 260,-24 260,-6 124,-6"/>
<text text-anchor="start" x="237" y="-12.2" font-family="Helvetica,sans-Serif" font-size="11.00">0 &gt;</text>
<polygon fill="none" stroke="black" stroke-width="2" points="9,-5 9,-377 261,-377 261,-5 9,-5"/>
</a>
</g>
</g>
</g>
</svg>
