<?xml version="1.0" encoding="UTF-8" standalone="no"?>
<!DOCTYPE svg PUBLIC "-//W3C//DTD SVG 1.1//EN"
 "http://www.w3.org/Graphics/SVG/1.1/DTD/svg11.dtd">
<!-- Generated by graphviz version 2.50.0 (0)
 -->
<!-- Title: configuratie Pages: 1 -->
<svg width="228pt" height="104pt"
 viewBox="0.00 0.00 228.00 104.00" xmlns="http://www.w3.org/2000/svg" xmlns:xlink="http://www.w3.org/1999/xlink">
<g id="graph0" class="graph" transform="scale(1 1) rotate(0) translate(4 100)">
<title>configuratie</title>
<polygon fill="#ffffff" stroke="transparent" points="-4,4 -4,-100 224,-100 224,4 -4,4"/>
<!-- configuratie -->
<g id="node1" class="node">
<title>configuratie</title>
<g id="a_node1"><a xlink:href="../../tables/configuratie.html" xlink:title="configuratie" target="_top">
<polygon fill="#ffffff" stroke="transparent" points="8,-4 8,-92 212,-92 212,-4 8,-4"/>
<polygon fill="#f5f5f5" stroke="transparent" points="10,-68 10,-90 210,-90 210,-68 10,-68"/>
<polygon fill="none" stroke="black" points="10,-68 10,-90 210,-90 210,-68 10,-68"/>
<text text-anchor="start" x="15" y="-77.2" font-family="Helvetica,sans-Serif" font-weight="bold" font-size="11.00">configuratie</text>
<text text-anchor="start" x="168" y="-76.2" font-family="Helvetica,sans-Serif" font-size="11.00">[table]</text>
<polygon fill="none" stroke="black" points="10,-46 10,-68 104,-68 104,-46 10,-46"/>
<image xlink:href="../../images/primaryKeys.png" width="11px" height="12px" preserveAspectRatio="xMinYMin meet" x="15" y="-63"/>
<text text-anchor="start" x="30" y="-54.2" font-family="Helvetica,sans-Serif" font-size="11.00">sleutel</text>
<polygon fill="none" stroke="black" points="104,-46 104,-68 210,-68 210,-46 104,-46"/>
<text text-anchor="start" x="107" y="-54.2" font-family="Helvetica,sans-Serif" font-size="11.00">varchar[24]</text>
<polygon fill="none" stroke="black" points="10,-24 10,-46 104,-46 104,-24 10,-24"/>
<text text-anchor="start" x="30" y="-32.2" font-family="Helvetica,sans-Serif" font-size="11.00">waarde</text>
<polygon fill="none" stroke="black" points="104,-24 104,-46 210,-46 210,-24 104,-24"/>
<text text-anchor="start" x="107" y="-32.2" font-family="Helvetica,sans-Serif" font-size="11.00">text[2147483647]</text>
<polygon fill="#ffffff" stroke="transparent" points="10,-6 10,-24 63,-24 63,-6 10,-6"/>
<polygon fill="none" stroke="black" points="10,-6 10,-24 63,-24 63,-6 10,-6"/>
<text text-anchor="start" x="13" y="-12.2" font-family="Helvetica,sans-Serif" font-size="11.00">&lt; 0</text>
<polygon fill="#ffffff" stroke="transparent" points="63,-6 63,-24 104,-24 104,-6 63,-6"/>
<polygon fill="none" stroke="black" points="63,-6 63,-24 104,-24 104,-6 63,-6"/>
<text text-anchor="start" x="93" y="-12.2" font-family="Helvetica,sans-Serif" font-size="11.00"> &#160;</text>
<polygon fill="#ffffff" stroke="transparent" points="104,-6 104,-24 210,-24 210,-6 104,-6"/>
<polygon fill="none" stroke="black" points="104,-6 104,-24 210,-24 210,-6 104,-6"/>
<text text-anchor="start" x="187" y="-12.2" font-family="Helvetica,sans-Serif" font-size="11.00">0 &gt;</text>
<polygon fill="none" stroke="black" stroke-width="2" points="9,-5 9,-91 211,-91 211,-5 9,-5"/>
</a>
</g>
</g>
</g>
</svg>
