<?xml version="1.0" encoding="UTF-8" standalone="no"?>
<!DOCTYPE svg PUBLIC "-//W3C//DTD SVG 1.1//EN"
 "http://www.w3.org/Graphics/SVG/1.1/DTD/svg11.dtd">
<!-- Generated by graphviz version 2.40.1 (20161225.0304)
 -->
<!-- Title: orphans Pages: 1 -->
<svg width="256pt" height="990pt"
 viewBox="0.00 0.00 256.00 990.00" xmlns="http://www.w3.org/2000/svg" xmlns:xlink="http://www.w3.org/1999/xlink">
<g id="graph0" class="graph" transform="scale(1 1) rotate(0) translate(4 986)">
<title>orphans</title>
<polygon fill="#ffffff" stroke="transparent" points="-4,4 -4,-986 252,-986 252,4 -4,4"/>
<!-- bijlage -->
<g id="node1" class="node">
<title>bijlage</title>
<g id="a_node1"><a xlink:href="../../tables/bijlage.html" xlink:title="bijlage" target="_top">
<polygon fill="#ffffff" stroke="transparent" points="8,-4 8,-380 240,-380 240,-4 8,-4"/>
<polygon fill="#f5f5f5" stroke="transparent" points="10,-355 10,-378 238,-378 238,-355 10,-355"/>
<polygon fill="none" stroke="#000000" points="10,-355 10,-378 238,-378 238,-355 10,-355"/>
<text text-anchor="start" x="15" y="-363.6" font-family="Helvetica,sans-Serif" font-weight="bold" font-size="11.00" fill="#000000">bijlage</text>
<text text-anchor="start" x="203.0437" y="-363.1" font-family="Helvetica,sans-Serif" font-size="11.00" fill="#000000">[table]</text>
<polygon fill="none" stroke="#000000" points="10,-333 10,-355 119,-355 119,-333 10,-333"/>
<image xlink:href="../../images/primaryKeys.png" width="11px" height="12px" preserveAspectRatio="xMinYMin meet" x="15" y="-350"/>
<text text-anchor="start" x="30" y="-340.1" font-family="Helvetica,sans-Serif" font-size="11.00" fill="#000000">uuid</text>
<polygon fill="none" stroke="#000000" points="119,-333 119,-355 238,-355 238,-333 119,-333"/>
<text text-anchor="start" x="122" y="-340.7" font-family="Helvetica,sans-Serif" font-size="11.00" fill="#000000">uuid[2147483647]</text>
<polygon fill="#ffffff" stroke="transparent" points="10,-311 10,-333 119,-333 119,-311 10,-311"/>
<polygon fill="none" stroke="#000000" points="10,-311 10,-333 119,-333 119,-311 10,-311"/>
<text text-anchor="start" x="30" y="-318.1" font-family="Helvetica,sans-Serif" font-size="11.00" fill="#000000">geom</text>
<polygon fill="none" stroke="#000000" points="119,-311 119,-333 238,-333 238,-311 119,-311"/>
<text text-anchor="start" x="121.9485" y="-318.7" font-family="Helvetica,sans-Serif" font-size="11.00" fill="#000000">geometry[2147483647]</text>
<polygon fill="#ffffff" stroke="transparent" points="10,-289 10,-311 119,-311 119,-289 10,-289"/>
<polygon fill="none" stroke="#000000" points="10,-289 10,-311 119,-311 119,-289 10,-289"/>
<text text-anchor="start" x="30" y="-296.1" font-family="Helvetica,sans-Serif" font-size="11.00" fill="#000000">periode</text>
<polygon fill="none" stroke="#000000" points="119,-289 119,-311 238,-311 238,-289 119,-289"/>
<text text-anchor="start" x="122" y="-296.7" font-family="Helvetica,sans-Serif" font-size="11.00" fill="#000000">tstzrange[2147483647]</text>
<polygon fill="none" stroke="#000000" points="10,-267 10,-289 119,-289 119,-267 10,-267"/>
<text text-anchor="start" x="30" y="-274.1" font-family="Helvetica,sans-Serif" font-size="11.00" fill="#000000">gebruiker</text>
<polygon fill="none" stroke="#000000" points="119,-267 119,-289 238,-289 238,-267 119,-267"/>
<text text-anchor="start" x="122" y="-274.7" font-family="Helvetica,sans-Serif" font-size="11.00" fill="#000000">varchar[255]</text>
<polygon fill="#ffffff" stroke="transparent" points="10,-245 10,-267 119,-267 119,-245 10,-245"/>
<polygon fill="none" stroke="#000000" points="10,-245 10,-267 119,-267 119,-245 10,-245"/>
<text text-anchor="start" x="30" y="-252.1" font-family="Helvetica,sans-Serif" font-size="11.00" fill="#000000">schema</text>
<polygon fill="none" stroke="#000000" points="119,-245 119,-267 238,-267 238,-245 119,-245"/>
<text text-anchor="start" x="122" y="-252.7" font-family="Helvetica,sans-Serif" font-size="11.00" fill="#000000">text[2147483647]</text>
<polygon fill="#ffffff" stroke="transparent" points="10,-223 10,-245 119,-245 119,-223 10,-223"/>
<polygon fill="none" stroke="#000000" points="10,-223 10,-245 119,-245 119,-223 10,-223"/>
<text text-anchor="start" x="30" y="-230.1" font-family="Helvetica,sans-Serif" font-size="11.00" fill="#000000">tabel</text>
<polygon fill="none" stroke="#000000" points="119,-223 119,-245 238,-245 238,-223 119,-223"/>
<text text-anchor="start" x="122" y="-230.7" font-family="Helvetica,sans-Serif" font-size="11.00" fill="#000000">text[2147483647]</text>
<polygon fill="#ffffff" stroke="transparent" points="10,-201 10,-223 119,-223 119,-201 10,-201"/>
<polygon fill="none" stroke="#000000" points="10,-201 10,-223 119,-223 119,-201 10,-201"/>
<text text-anchor="start" x="30" y="-208.1" font-family="Helvetica,sans-Serif" font-size="11.00" fill="#000000">obj_uuid</text>
<polygon fill="none" stroke="#000000" points="119,-201 119,-223 238,-223 238,-201 119,-201"/>
<text text-anchor="start" x="122" y="-208.7" font-family="Helvetica,sans-Serif" font-size="11.00" fill="#000000">uuid[2147483647]</text>
<polygon fill="none" stroke="#000000" points="10,-179 10,-201 119,-201 119,-179 10,-179"/>
<text text-anchor="start" x="30" y="-186.1" font-family="Helvetica,sans-Serif" font-size="11.00" fill="#000000">mime</text>
<polygon fill="none" stroke="#000000" points="119,-179 119,-201 238,-201 238,-179 119,-179"/>
<text text-anchor="start" x="122" y="-186.7" font-family="Helvetica,sans-Serif" font-size="11.00" fill="#000000">text[2147483647]</text>
<polygon fill="none" stroke="#000000" points="10,-157 10,-179 119,-179 119,-157 10,-157"/>
<text text-anchor="start" x="30" y="-164.1" font-family="Helvetica,sans-Serif" font-size="11.00" fill="#000000">blob</text>
<polygon fill="none" stroke="#000000" points="119,-157 119,-179 238,-179 238,-157 119,-157"/>
<text text-anchor="start" x="122" y="-164.7" font-family="Helvetica,sans-Serif" font-size="11.00" fill="#000000">bytea[2147483647]</text>
<polygon fill="none" stroke="#000000" points="10,-135 10,-157 119,-157 119,-135 10,-135"/>
<text text-anchor="start" x="30" y="-142.1" font-family="Helvetica,sans-Serif" font-size="11.00" fill="#000000">exif</text>
<polygon fill="none" stroke="#000000" points="119,-135 119,-157 238,-157 238,-135 119,-135"/>
<text text-anchor="start" x="122" y="-142.7" font-family="Helvetica,sans-Serif" font-size="11.00" fill="#000000">jsonb[2147483647]</text>
<polygon fill="none" stroke="#000000" points="10,-113 10,-135 119,-135 119,-113 10,-113"/>
<text text-anchor="start" x="30" y="-120.1" font-family="Helvetica,sans-Serif" font-size="11.00" fill="#000000">rd_x</text>
<polygon fill="none" stroke="#000000" points="119,-113 119,-135 238,-135 238,-113 119,-113"/>
<text text-anchor="start" x="122" y="-120.7" font-family="Helvetica,sans-Serif" font-size="11.00" fill="#000000">numeric[0]</text>
<polygon fill="none" stroke="#000000" points="10,-91 10,-113 119,-113 119,-91 10,-91"/>
<text text-anchor="start" x="30" y="-98.1" font-family="Helvetica,sans-Serif" font-size="11.00" fill="#000000">rd_y</text>
<polygon fill="none" stroke="#000000" points="119,-91 119,-113 238,-113 238,-91 119,-91"/>
<text text-anchor="start" x="122" y="-98.7" font-family="Helvetica,sans-Serif" font-size="11.00" fill="#000000">numeric[0]</text>
<polygon fill="none" stroke="#000000" points="10,-69 10,-91 119,-91 119,-69 10,-69"/>
<text text-anchor="start" x="30" y="-76.1" font-family="Helvetica,sans-Serif" font-size="11.00" fill="#000000">naam</text>
<polygon fill="none" stroke="#000000" points="119,-69 119,-91 238,-91 238,-69 119,-69"/>
<text text-anchor="start" x="122" y="-76.7" font-family="Helvetica,sans-Serif" font-size="11.00" fill="#000000">varchar[255]</text>
<polygon fill="none" stroke="#000000" points="10,-47 10,-69 119,-69 119,-47 10,-47"/>
<text text-anchor="start" x="30" y="-54.1" font-family="Helvetica,sans-Serif" font-size="11.00" fill="#000000">bijzonderheden</text>
<polygon fill="none" stroke="#000000" points="119,-47 119,-69 238,-69 238,-47 119,-47"/>
<text text-anchor="start" x="122" y="-54.7" font-family="Helvetica,sans-Serif" font-size="11.00" fill="#000000">text[2147483647]</text>
<polygon fill="none" stroke="#000000" points="10,-25 10,-47 119,-47 119,-25 10,-25"/>
<text text-anchor="start" x="30" y="-32.1" font-family="Helvetica,sans-Serif" font-size="11.00" fill="#000000">plusinfo</text>
<polygon fill="none" stroke="#000000" points="119,-25 119,-47 238,-47 238,-25 119,-25"/>
<text text-anchor="start" x="122" y="-32.7" font-family="Helvetica,sans-Serif" font-size="11.00" fill="#000000">jsonb[2147483647]</text>
<polygon fill="#ffffff" stroke="transparent" points="10,-6 10,-25 69,-25 69,-6 10,-6"/>
<polygon fill="none" stroke="#000000" points="10,-6 10,-25 69,-25 69,-6 10,-6"/>
<text text-anchor="start" x="13" y="-12.1" font-family="Helvetica,sans-Serif" font-size="11.00" fill="#000000">&lt; 0</text>
<polygon fill="#ffffff" stroke="transparent" points="69,-6 69,-25 119,-25 119,-6 69,-6"/>
<polygon fill="none" stroke="#000000" points="69,-6 69,-25 119,-25 119,-6 69,-6"/>
<text text-anchor="start" x="109.8862" y="-12.1" font-family="Helvetica,sans-Serif" font-size="11.00" fill="#000000"> &#160;</text>
<polygon fill="#ffffff" stroke="transparent" points="119,-6 119,-25 238,-25 238,-6 119,-6"/>
<polygon fill="none" stroke="#000000" points="119,-6 119,-25 238,-25 238,-6 119,-6"/>
<text text-anchor="start" x="219.4053" y="-12.1" font-family="Helvetica,sans-Serif" font-size="11.00" fill="#000000">0 &gt;</text>
<polygon fill="none" stroke="#000000" stroke-width="2" points="9,-5 9,-379 239,-379 239,-5 9,-5"/>
</a>
</g>
</g>
<!-- configuratie -->
<g id="node2" class="node">
<title>configuratie</title>
<g id="a_node2"><a xlink:href="../../tables/configuratie.html" xlink:title="configuratie" target="_top">
<polygon fill="#ffffff" stroke="transparent" points="32.5,-401 32.5,-491 215.5,-491 215.5,-401 32.5,-401"/>
<polygon fill="#f5f5f5" stroke="transparent" points="35,-466 35,-489 214,-489 214,-466 35,-466"/>
<polygon fill="none" stroke="#000000" points="35,-466 35,-489 214,-489 214,-466 35,-466"/>
<text text-anchor="start" x="40" y="-474.6" font-family="Helvetica,sans-Serif" font-weight="bold" font-size="11.00" fill="#000000">configuratie</text>
<text text-anchor="start" x="179.0437" y="-474.1" font-family="Helvetica,sans-Serif" font-size="11.00" fill="#000000">[table]</text>
<polygon fill="none" stroke="#000000" points="35,-444 35,-466 124,-466 124,-444 35,-444"/>
<image xlink:href="../../images/primaryKeys.png" width="11px" height="12px" preserveAspectRatio="xMinYMin meet" x="40" y="-461"/>
<text text-anchor="start" x="55" y="-451.1" font-family="Helvetica,sans-Serif" font-size="11.00" fill="#000000">sleutel</text>
<polygon fill="none" stroke="#000000" points="124,-444 124,-466 214,-466 214,-444 124,-444"/>
<text text-anchor="start" x="127" y="-451.7" font-family="Helvetica,sans-Serif" font-size="11.00" fill="#000000">varchar[24]</text>
<polygon fill="none" stroke="#000000" points="35,-422 35,-444 124,-444 124,-422 35,-422"/>
<text text-anchor="start" x="55" y="-429.1" font-family="Helvetica,sans-Serif" font-size="11.00" fill="#000000">waarde</text>
<polygon fill="none" stroke="#000000" points="124,-422 124,-444 214,-444 214,-422 124,-422"/>
<text text-anchor="start" x="126.5042" y="-429.7" font-family="Helvetica,sans-Serif" font-size="11.00" fill="#000000">text[2147483647]</text>
<polygon fill="#ffffff" stroke="transparent" points="35,-403 35,-422 84,-422 84,-403 35,-403"/>
<polygon fill="none" stroke="#000000" points="35,-403 35,-422 84,-422 84,-403 35,-403"/>
<text text-anchor="start" x="38" y="-409.1" font-family="Helvetica,sans-Serif" font-size="11.00" fill="#000000">&lt; 0</text>
<polygon fill="#ffffff" stroke="transparent" points="84,-403 84,-422 124,-422 124,-403 84,-403"/>
<polygon fill="none" stroke="#000000" points="84,-403 84,-422 124,-422 124,-403 84,-403"/>
<text text-anchor="start" x="114.8862" y="-409.1" font-family="Helvetica,sans-Serif" font-size="11.00" fill="#000000"> &#160;</text>
<polygon fill="#ffffff" stroke="transparent" points="124,-403 124,-422 214,-422 214,-403 124,-403"/>
<polygon fill="none" stroke="#000000" points="124,-403 124,-422 214,-422 214,-403 124,-403"/>
<text text-anchor="start" x="195.4053" y="-409.1" font-family="Helvetica,sans-Serif" font-size="11.00" fill="#000000">0 &gt;</text>
<polygon fill="none" stroke="#000000" stroke-width="2" points="33.5,-402 33.5,-490 214.5,-490 214.5,-402 33.5,-402"/>
</a>
</g>
</g>
<!-- discipline -->
<g id="node3" class="node">
<title>discipline</title>
<g id="a_node3"><a xlink:href="../../tables/discipline.html" xlink:title="discipline" target="_top">
<polygon fill="#ffffff" stroke="transparent" points="29.5,-512 29.5,-624 218.5,-624 218.5,-512 29.5,-512"/>
<polygon fill="#f5f5f5" stroke="transparent" points="32,-599 32,-622 217,-622 217,-599 32,-599"/>
<polygon fill="none" stroke="#000000" points="32,-599 32,-622 217,-622 217,-599 32,-599"/>
<text text-anchor="start" x="37" y="-607.6" font-family="Helvetica,sans-Serif" font-weight="bold" font-size="11.00" fill="#000000">discipline</text>
<text text-anchor="start" x="182.0437" y="-607.1" font-family="Helvetica,sans-Serif" font-size="11.00" fill="#000000">[table]</text>
<polygon fill="none" stroke="#000000" points="32,-577 32,-599 127,-599 127,-577 32,-577"/>
<image xlink:href="../../images/primaryKeys.png" width="11px" height="12px" preserveAspectRatio="xMinYMin meet" x="37" y="-594"/>
<text text-anchor="start" x="52" y="-584.1" font-family="Helvetica,sans-Serif" font-size="11.00" fill="#000000">id</text>
<polygon fill="none" stroke="#000000" points="127,-577 127,-599 217,-599 217,-577 127,-577"/>
<text text-anchor="start" x="130" y="-584.7" font-family="Helvetica,sans-Serif" font-size="11.00" fill="#000000">int2[5]</text>
<polygon fill="none" stroke="#000000" points="32,-555 32,-577 127,-577 127,-555 32,-555"/>
<text text-anchor="start" x="52" y="-562.1" font-family="Helvetica,sans-Serif" font-size="11.00" fill="#000000">naam</text>
<polygon fill="none" stroke="#000000" points="127,-555 127,-577 217,-577 217,-555 127,-555"/>
<text text-anchor="start" x="129.5042" y="-562.7" font-family="Helvetica,sans-Serif" font-size="11.00" fill="#000000">text[2147483647]</text>
<polygon fill="none" stroke="#000000" points="32,-533 32,-555 127,-555 127,-533 32,-533"/>
<text text-anchor="start" x="52" y="-540.1" font-family="Helvetica,sans-Serif" font-size="11.00" fill="#000000">omschrijving</text>
<polygon fill="none" stroke="#000000" points="127,-533 127,-555 217,-555 217,-533 127,-533"/>
<text text-anchor="start" x="129.5042" y="-540.7" font-family="Helvetica,sans-Serif" font-size="11.00" fill="#000000">text[2147483647]</text>
<polygon fill="#ffffff" stroke="transparent" points="32,-514 32,-533 84,-533 84,-514 32,-514"/>
<polygon fill="none" stroke="#000000" points="32,-514 32,-533 84,-533 84,-514 32,-514"/>
<text text-anchor="start" x="35" y="-520.1" font-family="Helvetica,sans-Serif" font-size="11.00" fill="#000000">&lt; 0</text>
<polygon fill="#ffffff" stroke="transparent" points="84,-514 84,-533 127,-533 127,-514 84,-514"/>
<polygon fill="none" stroke="#000000" points="84,-514 84,-533 127,-533 127,-514 84,-514"/>
<text text-anchor="start" x="117.8862" y="-520.1" font-family="Helvetica,sans-Serif" font-size="11.00" fill="#000000"> &#160;</text>
<polygon fill="#ffffff" stroke="transparent" points="127,-514 127,-533 217,-533 217,-514 127,-514"/>
<polygon fill="none" stroke="#000000" points="127,-514 127,-533 217,-533 217,-514 127,-514"/>
<text text-anchor="start" x="198.4053" y="-520.1" font-family="Helvetica,sans-Serif" font-size="11.00" fill="#000000">0 &gt;</text>
<polygon fill="none" stroke="#000000" stroke-width="2" points="30.5,-513 30.5,-623 217.5,-623 217.5,-513 30.5,-513"/>
</a>
</g>
</g>
<!-- regio -->
<g id="node4" class="node">
<title>regio</title>
<g id="a_node4"><a xlink:href="../../tables/regio.html" xlink:title="regio" target="_top">
<polygon fill="#ffffff" stroke="transparent" points="15,-645 15,-779 233,-779 233,-645 15,-645"/>
<polygon fill="#f5f5f5" stroke="transparent" points="17,-754 17,-777 231,-777 231,-754 17,-754"/>
<polygon fill="none" stroke="#000000" points="17,-754 17,-777 231,-777 231,-754 17,-754"/>
<text text-anchor="start" x="22" y="-762.6" font-family="Helvetica,sans-Serif" font-weight="bold" font-size="11.00" fill="#000000">regio</text>
<text text-anchor="start" x="196.0437" y="-762.1" font-family="Helvetica,sans-Serif" font-size="11.00" fill="#000000">[table]</text>
<polygon fill="none" stroke="#000000" points="17,-732 17,-754 112,-754 112,-732 17,-732"/>
<image xlink:href="../../images/primaryKeys.png" width="11px" height="12px" preserveAspectRatio="xMinYMin meet" x="22" y="-749"/>
<text text-anchor="start" x="37" y="-739.1" font-family="Helvetica,sans-Serif" font-size="11.00" fill="#000000">id</text>
<polygon fill="none" stroke="#000000" points="112,-732 112,-754 231,-754 231,-732 112,-732"/>
<text text-anchor="start" x="115" y="-739.7" font-family="Helvetica,sans-Serif" font-size="11.00" fill="#000000">int2[5]</text>
<polygon fill="none" stroke="#000000" points="17,-710 17,-732 112,-732 112,-710 17,-710"/>
<text text-anchor="start" x="37" y="-717.1" font-family="Helvetica,sans-Serif" font-size="11.00" fill="#000000">geom</text>
<polygon fill="none" stroke="#000000" points="112,-710 112,-732 231,-732 231,-710 112,-710"/>
<text text-anchor="start" x="114.9485" y="-717.7" font-family="Helvetica,sans-Serif" font-size="11.00" fill="#000000">geometry[2147483647]</text>
<polygon fill="none" stroke="#000000" points="17,-688 17,-710 112,-710 112,-688 17,-688"/>
<text text-anchor="start" x="37" y="-695.1" font-family="Helvetica,sans-Serif" font-size="11.00" fill="#000000">naam</text>
<polygon fill="none" stroke="#000000" points="112,-688 112,-710 231,-710 231,-688 112,-688"/>
<text text-anchor="start" x="115" y="-695.7" font-family="Helvetica,sans-Serif" font-size="11.00" fill="#000000">text[2147483647]</text>
<polygon fill="none" stroke="#000000" points="17,-666 17,-688 112,-688 112,-666 17,-666"/>
<text text-anchor="start" x="37" y="-673.1" font-family="Helvetica,sans-Serif" font-size="11.00" fill="#000000">omschrijving</text>
<polygon fill="none" stroke="#000000" points="112,-666 112,-688 231,-688 231,-666 112,-666"/>
<text text-anchor="start" x="115" y="-673.7" font-family="Helvetica,sans-Serif" font-size="11.00" fill="#000000">text[2147483647]</text>
<polygon fill="#ffffff" stroke="transparent" points="17,-647 17,-666 69,-666 69,-647 17,-647"/>
<polygon fill="none" stroke="#000000" points="17,-647 17,-666 69,-666 69,-647 17,-647"/>
<text text-anchor="start" x="20" y="-653.1" font-family="Helvetica,sans-Serif" font-size="11.00" fill="#000000">&lt; 0</text>
<polygon fill="#ffffff" stroke="transparent" points="69,-647 69,-666 112,-666 112,-647 69,-647"/>
<polygon fill="none" stroke="#000000" points="69,-647 69,-666 112,-666 112,-647 69,-647"/>
<text text-anchor="start" x="102.8862" y="-653.1" font-family="Helvetica,sans-Serif" font-size="11.00" fill="#000000"> &#160;</text>
<polygon fill="#ffffff" stroke="transparent" points="112,-647 112,-666 231,-666 231,-647 112,-647"/>
<polygon fill="none" stroke="#000000" points="112,-647 112,-666 231,-666 231,-647 112,-647"/>
<text text-anchor="start" x="212.4053" y="-653.1" font-family="Helvetica,sans-Serif" font-size="11.00" fill="#000000">0 &gt;</text>
<polygon fill="none" stroke="#000000" stroke-width="2" points="16,-646 16,-778 232,-778 232,-646 16,-646"/>
</a>
</g>
</g>
<!-- versie -->
<g id="node5" class="node">
<title>versie</title>
<g id="a_node5"><a xlink:href="../../tables/versie.html" xlink:title="versie" target="_top">
<polygon fill="#ffffff" stroke="transparent" points="28.5,-800 28.5,-978 219.5,-978 219.5,-800 28.5,-800"/>
<polygon fill="#f5f5f5" stroke="transparent" points="31,-953 31,-976 218,-976 218,-953 31,-953"/>
<polygon fill="none" stroke="#000000" points="31,-953 31,-976 218,-976 218,-953 31,-953"/>
<text text-anchor="start" x="36" y="-961.6" font-family="Helvetica,sans-Serif" font-weight="bold" font-size="11.00" fill="#000000">versie</text>
<text text-anchor="start" x="183.0437" y="-961.1" font-family="Helvetica,sans-Serif" font-size="11.00" fill="#000000">[table]</text>
<polygon fill="none" stroke="#000000" points="31,-931 31,-953 126,-953 126,-931 31,-931"/>
<image xlink:href="../../images/primaryKeys.png" width="11px" height="12px" preserveAspectRatio="xMinYMin meet" x="36" y="-948"/>
<text text-anchor="start" x="51" y="-938.1" font-family="Helvetica,sans-Serif" font-size="11.00" fill="#000000">naam</text>
<polygon fill="none" stroke="#000000" points="126,-931 126,-953 218,-953 218,-931 126,-931"/>
<text text-anchor="start" x="129" y="-938.7" font-family="Helvetica,sans-Serif" font-size="11.00" fill="#000000">varchar[50]</text>
<polygon fill="none" stroke="#000000" points="31,-909 31,-931 126,-931 126,-909 31,-909"/>
<text text-anchor="start" x="51" y="-916.1" font-family="Helvetica,sans-Serif" font-size="11.00" fill="#000000">datum</text>
<polygon fill="none" stroke="#000000" points="126,-909 126,-931 218,-931 218,-909 126,-909"/>
<text text-anchor="start" x="128.6023" y="-916.7" font-family="Helvetica,sans-Serif" font-size="11.00" fill="#000000">timestamptz[35,6]</text>
<polygon fill="none" stroke="#000000" points="31,-887 31,-909 126,-909 126,-887 31,-887"/>
<text text-anchor="start" x="51" y="-894.1" font-family="Helvetica,sans-Serif" font-size="11.00" fill="#000000">versie</text>
<polygon fill="none" stroke="#000000" points="126,-887 126,-909 218,-909 218,-887 126,-887"/>
<text text-anchor="start" x="129" y="-894.7" font-family="Helvetica,sans-Serif" font-size="11.00" fill="#000000">int2[5]</text>
<polygon fill="none" stroke="#000000" points="31,-865 31,-887 126,-887 126,-865 31,-865"/>
<text text-anchor="start" x="51" y="-872.1" font-family="Helvetica,sans-Serif" font-size="11.00" fill="#000000">sub</text>
<polygon fill="none" stroke="#000000" points="126,-865 126,-887 218,-887 218,-865 126,-865"/>
<text text-anchor="start" x="129" y="-872.7" font-family="Helvetica,sans-Serif" font-size="11.00" fill="#000000">int2[5]</text>
<polygon fill="none" stroke="#000000" points="31,-843 31,-865 126,-865 126,-843 31,-843"/>
<text text-anchor="start" x="51" y="-850.1" font-family="Helvetica,sans-Serif" font-size="11.00" fill="#000000">revisie</text>
<polygon fill="none" stroke="#000000" points="126,-843 126,-865 218,-865 218,-843 126,-843"/>
<text text-anchor="start" x="129" y="-850.7" font-family="Helvetica,sans-Serif" font-size="11.00" fill="#000000">int2[5]</text>
<polygon fill="none" stroke="#000000" points="31,-821 31,-843 126,-843 126,-821 31,-821"/>
<text text-anchor="start" x="51" y="-828.1" font-family="Helvetica,sans-Serif" font-size="11.00" fill="#000000">omschrijving</text>
<polygon fill="none" stroke="#000000" points="126,-821 126,-843 218,-843 218,-821 126,-821"/>
<text text-anchor="start" x="129" y="-828.7" font-family="Helvetica,sans-Serif" font-size="11.00" fill="#000000">varchar[250]</text>
<polygon fill="#ffffff" stroke="transparent" points="31,-802 31,-821 83,-821 83,-802 31,-802"/>
<polygon fill="none" stroke="#000000" points="31,-802 31,-821 83,-821 83,-802 31,-802"/>
<text text-anchor="start" x="34" y="-808.1" font-family="Helvetica,sans-Serif" font-size="11.00" fill="#000000">&lt; 0</text>
<polygon fill="#ffffff" stroke="transparent" points="83,-802 83,-821 126,-821 126,-802 83,-802"/>
<polygon fill="none" stroke="#000000" points="83,-802 83,-821 126,-821 126,-802 83,-802"/>
<text text-anchor="start" x="116.8862" y="-808.1" font-family="Helvetica,sans-Serif" font-size="11.00" fill="#000000"> &#160;</text>
<polygon fill="#ffffff" stroke="transparent" points="126,-802 126,-821 218,-821 218,-802 126,-802"/>
<polygon fill="none" stroke="#000000" points="126,-802 126,-821 218,-821 218,-802 126,-802"/>
<text text-anchor="start" x="199.4053" y="-808.1" font-family="Helvetica,sans-Serif" font-size="11.00" fill="#000000">0 &gt;</text>
<polygon fill="none" stroke="#000000" stroke-width="2" points="29.5,-801 29.5,-977 218.5,-977 218.5,-801 29.5,-801"/>
</a>
</g>
</g>
</g>
</svg>
