<?xml version="1.0" encoding="UTF-8" standalone="no"?>
<!DOCTYPE svg PUBLIC "-//W3C//DTD SVG 1.1//EN"
 "http://www.w3.org/Graphics/SVG/1.1/DTD/svg11.dtd">
<!-- Generated by graphviz version 2.50.0 (0)
 -->
<!-- Title: regio Pages: 1 -->
<svg width="262pt" height="148pt"
 viewBox="0.00 0.00 262.00 148.00" xmlns="http://www.w3.org/2000/svg" xmlns:xlink="http://www.w3.org/1999/xlink">
<g id="graph0" class="graph" transform="scale(1 1) rotate(0) translate(4 144)">
<title>regio</title>
<polygon fill="#ffffff" stroke="transparent" points="-4,4 -4,-144 258,-144 258,4 -4,4"/>
<!-- regio -->
<g id="node1" class="node">
<title>regio</title>
<g id="a_node1"><a xlink:href="../../tables/regio.html" xlink:title="regio" target="_top">
<polygon fill="#ffffff" stroke="transparent" points="8,-4 8,-136 246,-136 246,-4 8,-4"/>
<polygon fill="#f5f5f5" stroke="transparent" points="10,-112 10,-134 244,-134 244,-112 10,-112"/>
<polygon fill="none" stroke="black" points="10,-112 10,-134 244,-134 244,-112 10,-112"/>
<text text-anchor="start" x="15" y="-121.2" font-family="Helvetica,sans-Serif" font-weight="bold" font-size="11.00">regio</text>
<text text-anchor="start" x="202" y="-120.2" font-family="Helvetica,sans-Serif" font-size="11.00">[table]</text>
<polygon fill="none" stroke="black" points="10,-90 10,-112 108,-112 108,-90 10,-90"/>
<image xlink:href="../../images/primaryKeys.png" width="11px" height="12px" preserveAspectRatio="xMinYMin meet" x="15" y="-107"/>
<text text-anchor="start" x="30" y="-98.2" font-family="Helvetica,sans-Serif" font-size="11.00">id</text>
<polygon fill="none" stroke="black" points="108,-90 108,-112 244,-112 244,-90 108,-90"/>
<text text-anchor="start" x="111" y="-98.2" font-family="Helvetica,sans-Serif" font-size="11.00">int2[5]</text>
<polygon fill="none" stroke="black" points="10,-68 10,-90 108,-90 108,-68 10,-68"/>
<text text-anchor="start" x="30" y="-76.2" font-family="Helvetica,sans-Serif" font-size="11.00">geom</text>
<polygon fill="none" stroke="black" points="108,-68 108,-90 244,-90 244,-68 108,-68"/>
<text text-anchor="start" x="111" y="-76.2" font-family="Helvetica,sans-Serif" font-size="11.00">geometry[2147483647]</text>
<polygon fill="none" stroke="black" points="10,-46 10,-68 108,-68 108,-46 10,-46"/>
<text text-anchor="start" x="30" y="-54.2" font-family="Helvetica,sans-Serif" font-size="11.00">naam</text>
<polygon fill="none" stroke="black" points="108,-46 108,-68 244,-68 244,-46 108,-46"/>
<text text-anchor="start" x="111" y="-54.2" font-family="Helvetica,sans-Serif" font-size="11.00">text[2147483647]</text>
<polygon fill="none" stroke="black" points="10,-24 10,-46 108,-46 108,-24 10,-24"/>
<text text-anchor="start" x="30" y="-32.2" font-family="Helvetica,sans-Serif" font-size="11.00">omschrijving</text>
<polygon fill="none" stroke="black" points="108,-24 108,-46 244,-46 244,-24 108,-24"/>
<text text-anchor="start" x="111" y="-32.2" font-family="Helvetica,sans-Serif" font-size="11.00">text[2147483647]</text>
<polygon fill="#ffffff" stroke="transparent" points="10,-6 10,-24 65,-24 65,-6 10,-6"/>
<polygon fill="none" stroke="black" points="10,-6 10,-24 65,-24 65,-6 10,-6"/>
<text text-anchor="start" x="13" y="-12.2" font-family="Helvetica,sans-Serif" font-size="11.00">&lt; 0</text>
<polygon fill="#ffffff" stroke="transparent" points="65,-6 65,-24 108,-24 108,-6 65,-6"/>
<polygon fill="none" stroke="black" points="65,-6 65,-24 108,-24 108,-6 65,-6"/>
<text text-anchor="start" x="97" y="-12.2" font-family="Helvetica,sans-Serif" font-size="11.00"> &#160;</text>
<polygon fill="#ffffff" stroke="transparent" points="108,-6 108,-24 244,-24 244,-6 108,-6"/>
<polygon fill="none" stroke="black" points="108,-6 108,-24 244,-24 244,-6 108,-6"/>
<text text-anchor="start" x="221" y="-12.2" font-family="Helvetica,sans-Serif" font-size="11.00">0 &gt;</text>
<polygon fill="none" stroke="black" stroke-width="2" points="9,-5 9,-135 245,-135 245,-5 9,-5"/>
</a>
</g>
</g>
</g>
</svg>
