<?xml version="1.0" encoding="UTF-8" standalone="no"?>
<!DOCTYPE svg PUBLIC "-//W3C//DTD SVG 1.1//EN"
 "http://www.w3.org/Graphics/SVG/1.1/DTD/svg11.dtd">
<!-- Generated by graphviz version 2.50.0 (0)
 -->
<!-- Title: twoDegreesRelationshipsDiagram Pages: 1 -->
<svg width="637pt" height="629pt"
 viewBox="0.00 0.00 637.00 629.00" xmlns="http://www.w3.org/2000/svg" xmlns:xlink="http://www.w3.org/1999/xlink">
<g id="graph0" class="graph" transform="scale(1 1) rotate(0) translate(4 625)">
<title>twoDegreesRelationshipsDiagram</title>
<polygon fill="#ffffff" stroke="transparent" points="-4,4 -4,-625 633,-625 633,4 -4,4"/>
<text text-anchor="middle" x="79.5" y="-7.2" font-family="Helvetica,sans-Serif" font-size="11.00">Generated by SchemaSpy</text>
<!-- bereikbaarheid -->
<g id="node1" class="node">
<title>bereikbaarheid</title>
<g id="a_node1"><a xlink:href="../../tables/bereikbaarheid.html" xlink:title="bereikbaarheid" target="_top">
<polygon fill="#ffffff" stroke="transparent" points="367,-353 367,-617 621,-617 621,-353 367,-353"/>
<polygon fill="#f5f5f5" stroke="transparent" points="369,-593 369,-615 619,-615 619,-593 369,-593"/>
<polygon fill="none" stroke="black" points="369,-593 369,-615 619,-615 619,-593 369,-593"/>
<text text-anchor="start" x="374" y="-602.2" font-family="Helvetica,sans-Serif" font-weight="bold" font-size="11.00">bereikbaarheid</text>
<text text-anchor="start" x="577" y="-601.2" font-family="Helvetica,sans-Serif" font-size="11.00">[table]</text>
<polygon fill="none" stroke="black" points="369,-571 369,-593 483,-593 483,-571 369,-571"/>
<image xlink:href="../../images/primaryKeys.png" width="11px" height="12px" preserveAspectRatio="xMinYMin meet" x="374" y="-588"/>
<text text-anchor="start" x="389" y="-579.2" font-family="Helvetica,sans-Serif" font-size="11.00">uuid</text>
<polygon fill="none" stroke="black" points="483,-571 483,-593 619,-593 619,-571 483,-571"/>
<text text-anchor="start" x="486" y="-579.2" font-family="Helvetica,sans-Serif" font-size="11.00">uuid[2147483647]</text>
<polygon fill="#ffffff" stroke="transparent" points="369,-549 369,-571 483,-571 483,-549 369,-549"/>
<polygon fill="none" stroke="black" points="369,-549 369,-571 483,-571 483,-549 369,-549"/>
<text text-anchor="start" x="389" y="-557.2" font-family="Helvetica,sans-Serif" font-size="11.00">geom</text>
<polygon fill="none" stroke="black" points="483,-549 483,-571 619,-571 619,-549 483,-549"/>
<text text-anchor="start" x="486" y="-557.2" font-family="Helvetica,sans-Serif" font-size="11.00">geometry[2147483647]</text>
<polygon fill="none" stroke="black" points="369,-527 369,-549 483,-549 483,-527 369,-527"/>
<text text-anchor="start" x="389" y="-535.2" font-family="Helvetica,sans-Serif" font-size="11.00">datumtijd</text>
<polygon fill="none" stroke="black" points="483,-527 483,-549 619,-549 619,-527 483,-527"/>
<text text-anchor="start" x="486" y="-535.2" font-family="Helvetica,sans-Serif" font-size="11.00">timestamptz[35,6]</text>
<polygon fill="none" stroke="black" points="369,-505 369,-527 483,-527 483,-505 369,-505"/>
<text text-anchor="start" x="389" y="-513.2" font-family="Helvetica,sans-Serif" font-size="11.00">gebruiker</text>
<polygon fill="none" stroke="black" points="483,-505 483,-527 619,-527 619,-505 483,-505"/>
<text text-anchor="start" x="486" y="-513.2" font-family="Helvetica,sans-Serif" font-size="11.00">varchar[255]</text>
<polygon fill="none" stroke="black" points="369,-483 369,-505 483,-505 483,-483 369,-483"/>
<text text-anchor="start" x="389" y="-491.2" font-family="Helvetica,sans-Serif" font-size="11.00">label</text>
<polygon fill="none" stroke="black" points="483,-483 483,-505 619,-505 619,-483 483,-483"/>
<text text-anchor="start" x="486" y="-491.2" font-family="Helvetica,sans-Serif" font-size="11.00">text[2147483647]</text>
<polygon fill="none" stroke="black" points="369,-461 369,-483 483,-483 483,-461 369,-461"/>
<text text-anchor="start" x="389" y="-469.2" font-family="Helvetica,sans-Serif" font-size="11.00">rotatie</text>
<polygon fill="none" stroke="black" points="483,-461 483,-483 619,-483 619,-461 483,-461"/>
<text text-anchor="start" x="486" y="-469.2" font-family="Helvetica,sans-Serif" font-size="11.00">int4[10]</text>
<polygon fill="none" stroke="black" points="369,-439 369,-461 483,-461 483,-439 369,-439"/>
<text text-anchor="start" x="389" y="-447.2" font-family="Helvetica,sans-Serif" font-size="11.00">bijzonderheden</text>
<polygon fill="none" stroke="black" points="483,-439 483,-461 619,-461 619,-439 483,-439"/>
<text text-anchor="start" x="486" y="-447.2" font-family="Helvetica,sans-Serif" font-size="11.00">text[2147483647]</text>
<polygon fill="none" stroke="black" points="369,-417 369,-439 483,-439 483,-417 369,-417"/>
<text text-anchor="start" x="389" y="-425.2" font-family="Helvetica,sans-Serif" font-size="11.00">plusinfo</text>
<polygon fill="none" stroke="black" points="483,-417 483,-439 619,-439 619,-417 483,-417"/>
<text text-anchor="start" x="486" y="-425.2" font-family="Helvetica,sans-Serif" font-size="11.00">jsonb[2147483647]</text>
<polygon fill="#ffffff" stroke="transparent" points="369,-395 369,-417 483,-417 483,-395 369,-395"/>
<polygon fill="none" stroke="black" points="369,-395 369,-417 483,-417 483,-395 369,-395"/>
<image xlink:href="../../images/foreignKeys.png" width="11px" height="12px" preserveAspectRatio="xMinYMin meet" x="374" y="-412"/>
<text text-anchor="start" x="389" y="-403.2" font-family="Helvetica,sans-Serif" font-size="11.00">object_uuid</text>
<polygon fill="none" stroke="black" points="483,-395 483,-417 619,-417 619,-395 483,-395"/>
<text text-anchor="start" x="486" y="-403.2" font-family="Helvetica,sans-Serif" font-size="11.00">uuid[2147483647]</text>
<polygon fill="none" stroke="black" points="369,-373 369,-395 483,-395 483,-373 369,-373"/>
<image xlink:href="../../images/foreignKeys.png" width="11px" height="12px" preserveAspectRatio="xMinYMin meet" x="374" y="-390"/>
<text text-anchor="start" x="389" y="-381.2" font-family="Helvetica,sans-Serif" font-size="11.00">verbinding_id</text>
<polygon fill="none" stroke="black" points="483,-373 483,-395 619,-395 619,-373 483,-373"/>
<text text-anchor="start" x="486" y="-381.2" font-family="Helvetica,sans-Serif" font-size="11.00">int2[5]</text>
<polygon fill="#ffffff" stroke="transparent" points="369,-355 369,-373 432,-373 432,-355 369,-355"/>
<polygon fill="none" stroke="black" points="369,-355 369,-373 432,-373 432,-355 369,-355"/>
<text text-anchor="start" x="372" y="-361.2" font-family="Helvetica,sans-Serif" font-size="11.00">&lt; 2</text>
<polygon fill="#ffffff" stroke="transparent" points="432,-355 432,-373 483,-373 483,-355 432,-355"/>
<polygon fill="none" stroke="black" points="432,-355 432,-373 483,-373 483,-355 432,-355"/>
<text text-anchor="start" x="472" y="-361.2" font-family="Helvetica,sans-Serif" font-size="11.00"> &#160;</text>
<polygon fill="#ffffff" stroke="transparent" points="483,-355 483,-373 619,-373 619,-355 483,-355"/>
<polygon fill="none" stroke="black" points="483,-355 483,-373 619,-373 619,-355 483,-355"/>
<text text-anchor="start" x="596" y="-361.2" font-family="Helvetica,sans-Serif" font-size="11.00">0 &gt;</text>
<polygon fill="none" stroke="black" stroke-width="2" points="368,-354 368,-616 620,-616 620,-354 368,-354"/>
</a>
</g>
</g>
<!-- object -->
<g id="node2" class="node">
<title>object</title>
<g id="a_node2"><a xlink:href="../../tables/object.html" xlink:title="object" target="_top">
<polygon fill="#ffffff" stroke="transparent" points="184.5,-87 184.5,-255 313.5,-255 313.5,-87 184.5,-87"/>
<polygon fill="#f5f5f5" stroke="transparent" points="185,-233 185,-255 314,-255 314,-233 185,-233"/>
<polygon fill="none" stroke="black" points="185,-233 185,-255 314,-255 314,-233 185,-233"/>
<text text-anchor="start" x="190" y="-242.2" font-family="Helvetica,sans-Serif" font-weight="bold" font-size="11.00">object</text>
<text text-anchor="start" x="272" y="-241.2" font-family="Helvetica,sans-Serif" font-size="11.00">[table]</text>
<polygon fill="none" stroke="black" points="185,-211 185,-233 314,-233 314,-211 185,-211"/>
<image xlink:href="../../images/primaryKeys.png" width="11px" height="12px" preserveAspectRatio="xMinYMin meet" x="190" y="-228"/>
<text text-anchor="start" x="205" y="-219.2" font-family="Helvetica,sans-Serif" font-size="11.00">uuid</text>
<polygon fill="#ffffff" stroke="transparent" points="185,-189 185,-211 314,-211 314,-189 185,-189"/>
<polygon fill="none" stroke="black" points="185,-189 185,-211 314,-211 314,-189 185,-189"/>
<text text-anchor="start" x="205" y="-197.2" font-family="Helvetica,sans-Serif" font-size="11.00">geom</text>
<polygon fill="#ffffff" stroke="transparent" points="185,-167 185,-189 314,-189 314,-167 185,-167"/>
<polygon fill="none" stroke="black" points="185,-167 185,-189 314,-189 314,-167 185,-167"/>
<text text-anchor="start" x="205" y="-175.2" font-family="Helvetica,sans-Serif" font-size="11.00">revisie_frequentie</text>
<polygon fill="#ffffff" stroke="transparent" points="185,-145 185,-167 314,-167 314,-145 185,-145"/>
<polygon fill="none" stroke="black" points="185,-145 185,-167 314,-167 314,-145 185,-145"/>
<image xlink:href="../../images/foreignKeys.png" width="11px" height="12px" preserveAspectRatio="xMinYMin meet" x="190" y="-162"/>
<text text-anchor="start" x="205" y="-153.2" font-family="Helvetica,sans-Serif" font-size="11.00">fase_id</text>
<polygon fill="#ffffff" stroke="transparent" points="185,-123 185,-145 314,-145 314,-123 185,-123"/>
<polygon fill="none" stroke="black" points="185,-123 185,-145 314,-145 314,-123 185,-123"/>
<image xlink:href="../../images/foreignKeys.png" width="11px" height="12px" preserveAspectRatio="xMinYMin meet" x="190" y="-140"/>
<text text-anchor="start" x="205" y="-131.2" font-family="Helvetica,sans-Serif" font-size="11.00">object_type_id</text>
<polygon fill="none" stroke="black" points="185,-105 185,-123 314,-123 314,-105 185,-105"/>
<text text-anchor="start" x="188" y="-111.2" font-family="Helvetica,sans-Serif" font-size="11.00">...</text>
<polygon fill="#ffffff" stroke="transparent" points="185,-87 185,-105 242,-105 242,-87 185,-87"/>
<polygon fill="none" stroke="black" points="185,-87 185,-105 242,-105 242,-87 185,-87"/>
<text text-anchor="start" x="188" y="-93.2" font-family="Helvetica,sans-Serif" font-size="11.00">&lt; 2</text>
<polygon fill="#ffffff" stroke="transparent" points="242,-87 242,-105 272,-105 272,-87 242,-87"/>
<polygon fill="none" stroke="black" points="242,-87 242,-105 272,-105 272,-87 242,-87"/>
<text text-anchor="start" x="261" y="-93.2" font-family="Helvetica,sans-Serif" font-size="11.00"> &#160;</text>
<polygon fill="#ffffff" stroke="transparent" points="272,-87 272,-105 314,-105 314,-87 272,-87"/>
<polygon fill="none" stroke="black" points="272,-87 272,-105 314,-105 314,-87 272,-87"/>
<text text-anchor="start" x="291" y="-93.2" font-family="Helvetica,sans-Serif" font-size="11.00">5 &gt;</text>
</a>
</g>
</g>
<!-- bereikbaarheid&#45;&gt;object -->
<g id="edge1" class="edge">
<title>bereikbaarheid:w&#45;&gt;object:e</title>
<path fill="none" stroke="black" d="M353.6,-403.67C297.57,-382.37 394.45,-222 315,-222"/>
<polygon fill="black" stroke="black" points="360.1,-404.72 367.43,-409.55 364.05,-405.36 368,-406 368,-406 368,-406 364.05,-405.36 368.57,-402.45 360.1,-404.72 360.1,-404.72"/>
<ellipse fill="none" stroke="black" cx="356.94" cy="-404.21" rx="3.2" ry="3.2"/>
</g>
<!-- roi.verbinding -->
<g id="node3" class="node">
<title>roi.verbinding</title>
<g id="a_node3"><a xlink:href="../../../roi/tables/verbinding.html" xlink:title="roi.verbinding" target="_top">
<polygon fill="#ffffff" stroke="transparent" points="180,-355 180,-413 318,-413 318,-355 180,-355"/>
<polygon fill="#f5f5f5" stroke="transparent" points="180,-391 180,-413 318,-413 318,-391 180,-391"/>
<polygon fill="none" stroke="black" points="180,-391 180,-413 318,-413 318,-391 180,-391"/>
<text text-anchor="start" x="185" y="-400.2" font-family="Helvetica,sans-Serif" font-weight="bold" font-size="11.00">roi.verbinding</text>
<text text-anchor="start" x="276" y="-399.2" font-family="Helvetica,sans-Serif" font-size="11.00">[table]</text>
<polygon fill="none" stroke="black" points="180,-373 180,-391 318,-391 318,-373 180,-373"/>
<text text-anchor="start" x="183" y="-379.2" font-family="Helvetica,sans-Serif" font-size="11.00">...</text>
<polygon fill="#ffffff" stroke="transparent" points="180,-355 180,-373 236,-373 236,-355 180,-355"/>
<polygon fill="none" stroke="black" points="180,-355 180,-373 236,-373 236,-355 180,-355"/>
<text text-anchor="start" x="183" y="-361.2" font-family="Helvetica,sans-Serif" font-size="11.00"> &#160;</text>
<polygon fill="#ffffff" stroke="transparent" points="236,-355 236,-373 271,-373 271,-355 236,-355"/>
<polygon fill="none" stroke="black" points="236,-355 236,-373 271,-373 271,-355 236,-355"/>
<text text-anchor="start" x="260" y="-361.2" font-family="Helvetica,sans-Serif" font-size="11.00"> &#160;</text>
<polygon fill="#ffffff" stroke="transparent" points="271,-355 271,-373 318,-373 318,-355 271,-355"/>
<polygon fill="none" stroke="black" points="271,-355 271,-373 318,-373 318,-355 271,-355"/>
<text text-anchor="start" x="295" y="-361.2" font-family="Helvetica,sans-Serif" font-size="11.00">1 &gt;</text>
</a>
</g>
</g>
<!-- bereikbaarheid&#45;&gt;roi.verbinding -->
<g id="edge2" class="edge">
<title>bereikbaarheid:w&#45;&gt;roi.verbinding:e</title>
<path fill="none" stroke="black" d="M353.48,-384C344.42,-384 335.19,-384 326.17,-384"/>
<polygon fill="black" stroke="black" points="360,-384 368,-387.6 364,-384 368,-384 368,-384 368,-384 364,-384 368,-380.4 360,-384 360,-384"/>
<ellipse fill="none" stroke="black" cx="356.8" cy="-384" rx="3.2" ry="3.2"/>
</g>
<!-- roi.fase -->
<g id="node6" class="node">
<title>roi.fase</title>
<g id="a_node6"><a xlink:href="../../../roi/tables/fase.html" xlink:title="roi.fase" target="_top">
<polygon fill="#ffffff" stroke="transparent" points="20,-158 20,-216 119,-216 119,-158 20,-158"/>
<polygon fill="#f5f5f5" stroke="transparent" points="20.5,-194 20.5,-216 119.5,-216 119.5,-194 20.5,-194"/>
<polygon fill="none" stroke="black" points="20.5,-194 20.5,-216 119.5,-216 119.5,-194 20.5,-194"/>
<text text-anchor="start" x="25.5" y="-203.2" font-family="Helvetica,sans-Serif" font-weight="bold" font-size="11.00">roi.fase</text>
<text text-anchor="start" x="77.5" y="-202.2" font-family="Helvetica,sans-Serif" font-size="11.00">[table]</text>
<polygon fill="none" stroke="black" points="20.5,-176 20.5,-194 119.5,-194 119.5,-176 20.5,-176"/>
<text text-anchor="start" x="23.5" y="-182.2" font-family="Helvetica,sans-Serif" font-size="11.00">...</text>
<polygon fill="#ffffff" stroke="transparent" points="20.5,-158 20.5,-176 56.5,-176 56.5,-158 20.5,-158"/>
<polygon fill="none" stroke="black" points="20.5,-158 20.5,-176 56.5,-176 56.5,-158 20.5,-158"/>
<text text-anchor="start" x="23.5" y="-164.2" font-family="Helvetica,sans-Serif" font-size="11.00"> &#160;</text>
<polygon fill="#ffffff" stroke="transparent" points="56.5,-158 56.5,-176 81.5,-176 81.5,-158 56.5,-158"/>
<polygon fill="none" stroke="black" points="56.5,-158 56.5,-176 81.5,-176 81.5,-158 56.5,-158"/>
<text text-anchor="start" x="70.5" y="-164.2" font-family="Helvetica,sans-Serif" font-size="11.00"> &#160;</text>
<polygon fill="#ffffff" stroke="transparent" points="81.5,-158 81.5,-176 119.5,-176 119.5,-158 81.5,-158"/>
<polygon fill="none" stroke="black" points="81.5,-158 81.5,-176 119.5,-176 119.5,-158 81.5,-158"/>
<text text-anchor="start" x="96.5" y="-164.2" font-family="Helvetica,sans-Serif" font-size="11.00">1 &gt;</text>
</a>
</g>
</g>
<!-- object&#45;&gt;roi.fase -->
<g id="edge5" class="edge">
<title>object:w&#45;&gt;roi.fase:e</title>
<path fill="none" stroke="black" d="M169.8,-158.47C151.5,-165.49 145.95,-185 120.5,-185"/>
<polygon fill="black" stroke="black" points="176.12,-157.37 184.62,-159.55 180.06,-156.69 184,-156 184,-156 184,-156 180.06,-156.69 183.38,-152.45 176.12,-157.37 176.12,-157.37"/>
<ellipse fill="none" stroke="black" cx="172.97" cy="-157.92" rx="3.2" ry="3.2"/>
</g>
<!-- object_type -->
<g id="node7" class="node">
<title>object_type</title>
<g id="a_node7"><a xlink:href="../../tables/object_type.html" xlink:title="object_type" target="_top">
<polygon fill="#ffffff" stroke="transparent" points="8,-79 8,-137 131,-137 131,-79 8,-79"/>
<polygon fill="#f5f5f5" stroke="transparent" points="8.5,-115 8.5,-137 131.5,-137 131.5,-115 8.5,-115"/>
<polygon fill="none" stroke="black" points="8.5,-115 8.5,-137 131.5,-137 131.5,-115 8.5,-115"/>
<text text-anchor="start" x="13.5" y="-124.2" font-family="Helvetica,sans-Serif" font-weight="bold" font-size="11.00">object_type</text>
<text text-anchor="start" x="89.5" y="-123.2" font-family="Helvetica,sans-Serif" font-size="11.00">[table]</text>
<polygon fill="none" stroke="black" points="8.5,-97 8.5,-115 131.5,-115 131.5,-97 8.5,-97"/>
<text text-anchor="start" x="11.5" y="-103.2" font-family="Helvetica,sans-Serif" font-size="11.00">...</text>
<polygon fill="#ffffff" stroke="transparent" points="8.5,-79 8.5,-97 56.5,-97 56.5,-79 8.5,-79"/>
<polygon fill="none" stroke="black" points="8.5,-79 8.5,-97 56.5,-97 56.5,-79 8.5,-79"/>
<text text-anchor="start" x="11.5" y="-85.2" font-family="Helvetica,sans-Serif" font-size="11.00"> &#160;</text>
<polygon fill="#ffffff" stroke="transparent" points="56.5,-79 56.5,-97 87.5,-97 87.5,-79 56.5,-79"/>
<polygon fill="none" stroke="black" points="56.5,-79 56.5,-97 87.5,-97 87.5,-79 56.5,-79"/>
<text text-anchor="start" x="76.5" y="-85.2" font-family="Helvetica,sans-Serif" font-size="11.00"> &#160;</text>
<polygon fill="#ffffff" stroke="transparent" points="87.5,-79 87.5,-97 131.5,-97 131.5,-79 87.5,-79"/>
<polygon fill="none" stroke="black" points="87.5,-79 87.5,-97 131.5,-97 131.5,-79 87.5,-79"/>
<text text-anchor="start" x="108.5" y="-85.2" font-family="Helvetica,sans-Serif" font-size="11.00">1 &gt;</text>
</a>
</g>
</g>
<!-- object&#45;&gt;object_type -->
<g id="edge6" class="edge">
<title>object:w&#45;&gt;object_type:e</title>
<path fill="none" stroke="black" d="M169.78,-130.34C156.85,-122.75 152.65,-106 132.5,-106"/>
<polygon fill="black" stroke="black" points="176.25,-132.01 183.1,-137.49 180.13,-133 184,-134 184,-134 184,-134 180.13,-133 184.9,-130.51 176.25,-132.01 176.25,-132.01"/>
<ellipse fill="none" stroke="black" cx="173.15" cy="-131.21" rx="3.2" ry="3.2"/>
</g>
<!-- label -->
<g id="node4" class="node">
<title>label</title>
<g id="a_node4"><a xlink:href="../../tables/label.html" xlink:title="label" target="_top">
<polygon fill="#ffffff" stroke="transparent" points="453,-37 453,-95 535,-95 535,-37 453,-37"/>
<polygon fill="#f5f5f5" stroke="transparent" points="453,-73 453,-95 535,-95 535,-73 453,-73"/>
<polygon fill="none" stroke="black" points="453,-73 453,-95 535,-95 535,-73 453,-73"/>
<text text-anchor="start" x="458" y="-82.2" font-family="Helvetica,sans-Serif" font-weight="bold" font-size="11.00">label</text>
<text text-anchor="start" x="493" y="-81.2" font-family="Helvetica,sans-Serif" font-size="11.00">[table]</text>
<polygon fill="none" stroke="black" points="453,-55 453,-73 535,-73 535,-55 453,-55"/>
<text text-anchor="start" x="456" y="-61.2" font-family="Helvetica,sans-Serif" font-size="11.00">...</text>
<polygon fill="#ffffff" stroke="transparent" points="453,-37 453,-55 493,-55 493,-37 453,-37"/>
<polygon fill="none" stroke="black" points="453,-37 453,-55 493,-55 493,-37 453,-37"/>
<text text-anchor="start" x="456" y="-43.2" font-family="Helvetica,sans-Serif" font-size="11.00">&lt; 2</text>
<polygon fill="#ffffff" stroke="transparent" points="493,-37 493,-55 514,-55 514,-37 493,-37"/>
<polygon fill="none" stroke="black" points="493,-37 493,-55 514,-55 514,-37 493,-37"/>
<text text-anchor="start" x="503" y="-43.2" font-family="Helvetica,sans-Serif" font-size="11.00"> &#160;</text>
<polygon fill="#ffffff" stroke="transparent" points="514,-37 514,-55 535,-55 535,-37 514,-37"/>
<polygon fill="none" stroke="black" points="514,-37 514,-55 535,-55 535,-37 514,-37"/>
<text text-anchor="start" x="524" y="-43.2" font-family="Helvetica,sans-Serif" font-size="11.00"> &#160;</text>
</a>
</g>
</g>
<!-- label&#45;&gt;object -->
<g id="edge3" class="edge">
<title>label:w&#45;&gt;object:e</title>
<path fill="none" stroke="black" d="M437.17,-64.39C402.56,-66.43 386.43,-76.83 359,-106 321.23,-146.17 370.14,-222 315,-222"/>
<polygon fill="black" stroke="black" points="444,-64.21 452.1,-67.6 448,-64.11 452,-64 452,-64 452,-64 448,-64.11 451.9,-60.4 444,-64.21 444,-64.21"/>
<ellipse fill="none" stroke="black" cx="440.8" cy="-64.3" rx="3.2" ry="3.2"/>
</g>
<!-- maatregel -->
<g id="node5" class="node">
<title>maatregel</title>
<g id="a_node5"><a xlink:href="../../tables/maatregel.html" xlink:title="maatregel" target="_top">
<polygon fill="#ffffff" stroke="transparent" points="436.5,-274 436.5,-332 551.5,-332 551.5,-274 436.5,-274"/>
<polygon fill="#f5f5f5" stroke="transparent" points="437,-310 437,-332 552,-332 552,-310 437,-310"/>
<polygon fill="none" stroke="black" points="437,-310 437,-332 552,-332 552,-310 437,-310"/>
<text text-anchor="start" x="442" y="-319.2" font-family="Helvetica,sans-Serif" font-weight="bold" font-size="11.00">maatregel</text>
<text text-anchor="start" x="510" y="-318.2" font-family="Helvetica,sans-Serif" font-size="11.00">[table]</text>
<polygon fill="none" stroke="black" points="437,-292 437,-310 552,-310 552,-292 437,-292"/>
<text text-anchor="start" x="440" y="-298.2" font-family="Helvetica,sans-Serif" font-size="11.00">...</text>
<polygon fill="#ffffff" stroke="transparent" points="437,-274 437,-292 493,-292 493,-274 437,-274"/>
<polygon fill="none" stroke="black" points="437,-274 437,-292 493,-292 493,-274 437,-274"/>
<text text-anchor="start" x="440" y="-280.2" font-family="Helvetica,sans-Serif" font-size="11.00">&lt; 2</text>
<polygon fill="#ffffff" stroke="transparent" points="493,-274 493,-292 522,-292 522,-274 493,-274"/>
<polygon fill="none" stroke="black" points="493,-274 493,-292 522,-292 522,-274 493,-274"/>
<text text-anchor="start" x="511" y="-280.2" font-family="Helvetica,sans-Serif" font-size="11.00"> &#160;</text>
<polygon fill="#ffffff" stroke="transparent" points="522,-274 522,-292 552,-292 552,-274 522,-274"/>
<polygon fill="none" stroke="black" points="522,-274 522,-292 552,-292 552,-274 522,-274"/>
<text text-anchor="start" x="541" y="-280.2" font-family="Helvetica,sans-Serif" font-size="11.00"> &#160;</text>
</a>
</g>
</g>
<!-- maatregel&#45;&gt;object -->
<g id="edge4" class="edge">
<title>maatregel:w&#45;&gt;object:e</title>
<path fill="none" stroke="black" d="M421.62,-300.11C395.37,-296.55 385.84,-282.56 359,-264 336.76,-248.62 342.03,-222 315,-222"/>
<polygon fill="black" stroke="black" points="428.02,-300.51 435.78,-304.59 432.01,-300.75 436,-301 436,-301 436,-301 432.01,-300.75 436.22,-297.41 428.02,-300.51 428.02,-300.51"/>
<ellipse fill="none" stroke="black" cx="424.82" cy="-300.31" rx="3.2" ry="3.2"/>
</g>
<!-- sector -->
<g id="node8" class="node">
<title>sector</title>
<g id="a_node8"><a xlink:href="../../tables/sector.html" xlink:title="sector" target="_top">
<polygon fill="#ffffff" stroke="transparent" points="448.5,-195 448.5,-253 539.5,-253 539.5,-195 448.5,-195"/>
<polygon fill="#f5f5f5" stroke="transparent" points="449,-231 449,-253 540,-253 540,-231 449,-231"/>
<polygon fill="none" stroke="black" points="449,-231 449,-253 540,-253 540,-231 449,-231"/>
<text text-anchor="start" x="454" y="-240.2" font-family="Helvetica,sans-Serif" font-weight="bold" font-size="11.00">sector</text>
<text text-anchor="start" x="498" y="-239.2" font-family="Helvetica,sans-Serif" font-size="11.00">[table]</text>
<polygon fill="none" stroke="black" points="449,-213 449,-231 540,-231 540,-213 449,-213"/>
<text text-anchor="start" x="452" y="-219.2" font-family="Helvetica,sans-Serif" font-size="11.00">...</text>
<polygon fill="#ffffff" stroke="transparent" points="449,-195 449,-213 493,-213 493,-195 449,-195"/>
<polygon fill="none" stroke="black" points="449,-195 449,-213 493,-213 493,-195 449,-195"/>
<text text-anchor="start" x="452" y="-201.2" font-family="Helvetica,sans-Serif" font-size="11.00">&lt; 2</text>
<polygon fill="#ffffff" stroke="transparent" points="493,-195 493,-213 516,-213 516,-195 493,-195"/>
<polygon fill="none" stroke="black" points="493,-195 493,-213 516,-213 516,-195 493,-195"/>
<text text-anchor="start" x="505" y="-201.2" font-family="Helvetica,sans-Serif" font-size="11.00"> &#160;</text>
<polygon fill="#ffffff" stroke="transparent" points="516,-195 516,-213 540,-213 540,-195 516,-195"/>
<polygon fill="none" stroke="black" points="516,-195 516,-213 540,-213 540,-195 516,-195"/>
<text text-anchor="start" x="529" y="-201.2" font-family="Helvetica,sans-Serif" font-size="11.00"> &#160;</text>
</a>
</g>
</g>
<!-- sector&#45;&gt;object -->
<g id="edge7" class="edge">
<title>sector:w&#45;&gt;object:e</title>
<path fill="none" stroke="black" d="M433.38,-222C385.95,-222 368.92,-222 315,-222"/>
<polygon fill="black" stroke="black" points="440,-222 448,-225.6 444,-222 448,-222 448,-222 448,-222 444,-222 448,-218.4 440,-222 440,-222"/>
<ellipse fill="none" stroke="black" cx="436.8" cy="-222" rx="3.2" ry="3.2"/>
</g>
<!-- voorziening -->
<g id="node9" class="node">
<title>voorziening</title>
<g id="a_node9"><a xlink:href="../../tables/voorziening.html" xlink:title="voorziening" target="_top">
<polygon fill="#ffffff" stroke="transparent" points="432,-116 432,-174 556,-174 556,-116 432,-116"/>
<polygon fill="#f5f5f5" stroke="transparent" points="432,-152 432,-174 556,-174 556,-152 432,-152"/>
<polygon fill="none" stroke="black" points="432,-152 432,-174 556,-174 556,-152 432,-152"/>
<text text-anchor="start" x="437" y="-161.2" font-family="Helvetica,sans-Serif" font-weight="bold" font-size="11.00">voorziening</text>
<text text-anchor="start" x="514" y="-160.2" font-family="Helvetica,sans-Serif" font-size="11.00">[table]</text>
<polygon fill="none" stroke="black" points="432,-134 432,-152 556,-152 556,-134 432,-134"/>
<text text-anchor="start" x="435" y="-140.2" font-family="Helvetica,sans-Serif" font-size="11.00">...</text>
<polygon fill="#ffffff" stroke="transparent" points="432,-116 432,-134 493,-134 493,-116 432,-116"/>
<polygon fill="none" stroke="black" points="432,-116 432,-134 493,-134 493,-116 432,-116"/>
<text text-anchor="start" x="435" y="-122.2" font-family="Helvetica,sans-Serif" font-size="11.00">&lt; 2</text>
<polygon fill="#ffffff" stroke="transparent" points="493,-116 493,-134 524,-134 524,-116 493,-116"/>
<polygon fill="none" stroke="black" points="493,-116 493,-134 524,-134 524,-116 493,-116"/>
<text text-anchor="start" x="513" y="-122.2" font-family="Helvetica,sans-Serif" font-size="11.00"> &#160;</text>
<polygon fill="#ffffff" stroke="transparent" points="524,-116 524,-134 556,-134 556,-116 524,-116"/>
<polygon fill="none" stroke="black" points="524,-116 524,-134 556,-134 556,-116 524,-116"/>
<text text-anchor="start" x="545" y="-122.2" font-family="Helvetica,sans-Serif" font-size="11.00"> &#160;</text>
</a>
</g>
</g>
<!-- voorziening&#45;&gt;object -->
<g id="edge8" class="edge">
<title>voorziening:w&#45;&gt;object:e</title>
<path fill="none" stroke="black" d="M416.45,-144.3C392,-149.15 384.79,-166.83 359,-185 338.11,-199.71 340.55,-222 315,-222"/>
<polygon fill="black" stroke="black" points="423.03,-143.71 431.32,-146.59 427.02,-143.36 431,-143 431,-143 431,-143 427.02,-143.36 430.68,-139.41 423.03,-143.71 423.03,-143.71"/>
<ellipse fill="none" stroke="black" cx="419.84" cy="-144" rx="3.2" ry="3.2"/>
</g>
</g>
</svg>
