<?xml version="1.0" encoding="UTF-8" standalone="no"?>
<!DOCTYPE svg PUBLIC "-//W3C//DTD SVG 1.1//EN"
 "http://www.w3.org/Graphics/SVG/1.1/DTD/svg11.dtd">
<!-- Generated by graphviz version 2.40.1 (20161225.0304)
 -->
<!-- Title: twoDegreesRelationshipsDiagram Pages: 1 -->
<svg width="582pt" height="645pt"
 viewBox="0.00 0.00 582.00 644.70" xmlns="http://www.w3.org/2000/svg" xmlns:xlink="http://www.w3.org/1999/xlink">
<g id="graph0" class="graph" transform="scale(1 1) rotate(0) translate(4 640.7)">
<title>twoDegreesRelationshipsDiagram</title>
<polygon fill="#ffffff" stroke="transparent" points="-4,4 -4,-640.7 578,-640.7 578,4 -4,4"/>
<text text-anchor="middle" x="72.4936" y="-7.3" font-family="Helvetica,sans-Serif" font-size="11.00" fill="#000000">Generated by SchemaSpy</text>
<!-- bereikbaarheid -->
<g id="node1" class="node">
<title>bereikbaarheid</title>
<g id="a_node1"><a xlink:href="../../tables/bereikbaarheid.html" xlink:title="bereikbaarheid" target="_top">
<polygon fill="#ffffff" stroke="transparent" points="334,-366.7 334,-632.7 566,-632.7 566,-366.7 334,-366.7"/>
<polygon fill="#f5f5f5" stroke="transparent" points="336,-607.7 336,-630.7 564,-630.7 564,-607.7 336,-607.7"/>
<polygon fill="none" stroke="#000000" points="336,-607.7 336,-630.7 564,-630.7 564,-607.7 336,-607.7"/>
<text text-anchor="start" x="341" y="-616.3" font-family="Helvetica,sans-Serif" font-weight="bold" font-size="11.00" fill="#000000">bereikbaarheid</text>
<text text-anchor="start" x="529.0437" y="-615.8" font-family="Helvetica,sans-Serif" font-size="11.00" fill="#000000">[table]</text>
<polygon fill="none" stroke="#000000" points="336,-585.7 336,-607.7 445,-607.7 445,-585.7 336,-585.7"/>
<image xlink:href="../../images/primaryKeys.png" width="11px" height="12px" preserveAspectRatio="xMinYMin meet" x="341" y="-602.7"/>
<text text-anchor="start" x="356" y="-592.8" font-family="Helvetica,sans-Serif" font-size="11.00" fill="#000000">uuid</text>
<polygon fill="none" stroke="#000000" points="445,-585.7 445,-607.7 564,-607.7 564,-585.7 445,-585.7"/>
<text text-anchor="start" x="448" y="-593.4" font-family="Helvetica,sans-Serif" font-size="11.00" fill="#000000">uuid[2147483647]</text>
<polygon fill="#ffffff" stroke="transparent" points="336,-563.7 336,-585.7 445,-585.7 445,-563.7 336,-563.7"/>
<polygon fill="none" stroke="#000000" points="336,-563.7 336,-585.7 445,-585.7 445,-563.7 336,-563.7"/>
<text text-anchor="start" x="356" y="-570.8" font-family="Helvetica,sans-Serif" font-size="11.00" fill="#000000">geom</text>
<polygon fill="none" stroke="#000000" points="445,-563.7 445,-585.7 564,-585.7 564,-563.7 445,-563.7"/>
<text text-anchor="start" x="447.9485" y="-571.4" font-family="Helvetica,sans-Serif" font-size="11.00" fill="#000000">geometry[2147483647]</text>
<polygon fill="none" stroke="#000000" points="336,-541.7 336,-563.7 445,-563.7 445,-541.7 336,-541.7"/>
<text text-anchor="start" x="356" y="-548.8" font-family="Helvetica,sans-Serif" font-size="11.00" fill="#000000">datumtijd</text>
<polygon fill="none" stroke="#000000" points="445,-541.7 445,-563.7 564,-563.7 564,-541.7 445,-541.7"/>
<text text-anchor="start" x="448" y="-549.4" font-family="Helvetica,sans-Serif" font-size="11.00" fill="#000000">timestamptz[35,6]</text>
<polygon fill="none" stroke="#000000" points="336,-519.7 336,-541.7 445,-541.7 445,-519.7 336,-519.7"/>
<text text-anchor="start" x="356" y="-526.8" font-family="Helvetica,sans-Serif" font-size="11.00" fill="#000000">gebruiker</text>
<polygon fill="none" stroke="#000000" points="445,-519.7 445,-541.7 564,-541.7 564,-519.7 445,-519.7"/>
<text text-anchor="start" x="448" y="-527.4" font-family="Helvetica,sans-Serif" font-size="11.00" fill="#000000">varchar[255]</text>
<polygon fill="none" stroke="#000000" points="336,-497.7 336,-519.7 445,-519.7 445,-497.7 336,-497.7"/>
<text text-anchor="start" x="356" y="-504.8" font-family="Helvetica,sans-Serif" font-size="11.00" fill="#000000">label</text>
<polygon fill="none" stroke="#000000" points="445,-497.7 445,-519.7 564,-519.7 564,-497.7 445,-497.7"/>
<text text-anchor="start" x="448" y="-505.4" font-family="Helvetica,sans-Serif" font-size="11.00" fill="#000000">text[2147483647]</text>
<polygon fill="none" stroke="#000000" points="336,-475.7 336,-497.7 445,-497.7 445,-475.7 336,-475.7"/>
<text text-anchor="start" x="356" y="-482.8" font-family="Helvetica,sans-Serif" font-size="11.00" fill="#000000">rotatie</text>
<polygon fill="none" stroke="#000000" points="445,-475.7 445,-497.7 564,-497.7 564,-475.7 445,-475.7"/>
<text text-anchor="start" x="448" y="-483.4" font-family="Helvetica,sans-Serif" font-size="11.00" fill="#000000">int4[10]</text>
<polygon fill="none" stroke="#000000" points="336,-453.7 336,-475.7 445,-475.7 445,-453.7 336,-453.7"/>
<text text-anchor="start" x="356" y="-460.8" font-family="Helvetica,sans-Serif" font-size="11.00" fill="#000000">bijzonderheden</text>
<polygon fill="none" stroke="#000000" points="445,-453.7 445,-475.7 564,-475.7 564,-453.7 445,-453.7"/>
<text text-anchor="start" x="448" y="-461.4" font-family="Helvetica,sans-Serif" font-size="11.00" fill="#000000">text[2147483647]</text>
<polygon fill="none" stroke="#000000" points="336,-431.7 336,-453.7 445,-453.7 445,-431.7 336,-431.7"/>
<text text-anchor="start" x="356" y="-438.8" font-family="Helvetica,sans-Serif" font-size="11.00" fill="#000000">plusinfo</text>
<polygon fill="none" stroke="#000000" points="445,-431.7 445,-453.7 564,-453.7 564,-431.7 445,-431.7"/>
<text text-anchor="start" x="448" y="-439.4" font-family="Helvetica,sans-Serif" font-size="11.00" fill="#000000">jsonb[2147483647]</text>
<polygon fill="#ffffff" stroke="transparent" points="336,-409.7 336,-431.7 445,-431.7 445,-409.7 336,-409.7"/>
<polygon fill="none" stroke="#000000" points="336,-409.7 336,-431.7 445,-431.7 445,-409.7 336,-409.7"/>
<image xlink:href="../../images/foreignKeys.png" width="11px" height="12px" preserveAspectRatio="xMinYMin meet" x="341" y="-426.7"/>
<text text-anchor="start" x="356" y="-416.8" font-family="Helvetica,sans-Serif" font-size="11.00" fill="#000000">object_uuid</text>
<polygon fill="none" stroke="#000000" points="445,-409.7 445,-431.7 564,-431.7 564,-409.7 445,-409.7"/>
<text text-anchor="start" x="448" y="-417.4" font-family="Helvetica,sans-Serif" font-size="11.00" fill="#000000">uuid[2147483647]</text>
<polygon fill="none" stroke="#000000" points="336,-387.7 336,-409.7 445,-409.7 445,-387.7 336,-387.7"/>
<image xlink:href="../../images/foreignKeys.png" width="11px" height="12px" preserveAspectRatio="xMinYMin meet" x="341" y="-404.7"/>
<text text-anchor="start" x="356" y="-394.8" font-family="Helvetica,sans-Serif" font-size="11.00" fill="#000000">verbinding_id</text>
<polygon fill="none" stroke="#000000" points="445,-387.7 445,-409.7 564,-409.7 564,-387.7 445,-387.7"/>
<text text-anchor="start" x="448" y="-395.4" font-family="Helvetica,sans-Serif" font-size="11.00" fill="#000000">int2[5]</text>
<polygon fill="#ffffff" stroke="transparent" points="336,-368.7 336,-387.7 395,-387.7 395,-368.7 336,-368.7"/>
<polygon fill="none" stroke="#000000" points="336,-368.7 336,-387.7 395,-387.7 395,-368.7 336,-368.7"/>
<text text-anchor="start" x="339" y="-374.8" font-family="Helvetica,sans-Serif" font-size="11.00" fill="#000000">&lt; 2</text>
<polygon fill="#ffffff" stroke="transparent" points="395,-368.7 395,-387.7 445,-387.7 445,-368.7 395,-368.7"/>
<polygon fill="none" stroke="#000000" points="395,-368.7 395,-387.7 445,-387.7 445,-368.7 395,-368.7"/>
<text text-anchor="start" x="435.8862" y="-374.8" font-family="Helvetica,sans-Serif" font-size="11.00" fill="#000000"> &#160;</text>
<polygon fill="#ffffff" stroke="transparent" points="445,-368.7 445,-387.7 564,-387.7 564,-368.7 445,-368.7"/>
<polygon fill="none" stroke="#000000" points="445,-368.7 445,-387.7 564,-387.7 564,-368.7 445,-368.7"/>
<text text-anchor="start" x="545.4053" y="-374.8" font-family="Helvetica,sans-Serif" font-size="11.00" fill="#000000">0 &gt;</text>
<polygon fill="none" stroke="#000000" stroke-width="2" points="335,-367.7 335,-631.7 565,-631.7 565,-367.7 335,-367.7"/>
</a>
</g>
</g>
<!-- object -->
<g id="node2" class="node">
<title>object</title>
<g id="a_node2"><a xlink:href="../../tables/object.html" xlink:title="object" target="_top">
<polygon fill="#ffffff" stroke="transparent" points="162,-93.2 162,-264.2 285,-264.2 285,-93.2 162,-93.2"/>
<polygon fill="#f5f5f5" stroke="transparent" points="162.5,-240.7 162.5,-263.7 285.5,-263.7 285.5,-240.7 162.5,-240.7"/>
<polygon fill="none" stroke="#000000" points="162.5,-240.7 162.5,-263.7 285.5,-263.7 285.5,-240.7 162.5,-240.7"/>
<text text-anchor="start" x="167.5" y="-249.3" font-family="Helvetica,sans-Serif" font-weight="bold" font-size="11.00" fill="#000000">object</text>
<text text-anchor="start" x="250.5437" y="-248.8" font-family="Helvetica,sans-Serif" font-size="11.00" fill="#000000">[table]</text>
<polygon fill="none" stroke="#000000" points="162.5,-218.7 162.5,-240.7 285.5,-240.7 285.5,-218.7 162.5,-218.7"/>
<image xlink:href="../../images/primaryKeys.png" width="11px" height="12px" preserveAspectRatio="xMinYMin meet" x="167.5" y="-235.7"/>
<text text-anchor="start" x="182.5" y="-225.8" font-family="Helvetica,sans-Serif" font-size="11.00" fill="#000000">uuid</text>
<polygon fill="#ffffff" stroke="transparent" points="162.5,-196.7 162.5,-218.7 285.5,-218.7 285.5,-196.7 162.5,-196.7"/>
<polygon fill="none" stroke="#000000" points="162.5,-196.7 162.5,-218.7 285.5,-218.7 285.5,-196.7 162.5,-196.7"/>
<text text-anchor="start" x="182.5" y="-203.8" font-family="Helvetica,sans-Serif" font-size="11.00" fill="#000000">geom</text>
<polygon fill="#ffffff" stroke="transparent" points="162.5,-174.7 162.5,-196.7 285.5,-196.7 285.5,-174.7 162.5,-174.7"/>
<polygon fill="none" stroke="#000000" points="162.5,-174.7 162.5,-196.7 285.5,-196.7 285.5,-174.7 162.5,-174.7"/>
<text text-anchor="start" x="182.5" y="-181.8" font-family="Helvetica,sans-Serif" font-size="11.00" fill="#000000">revisie_frequentie</text>
<polygon fill="#ffffff" stroke="transparent" points="162.5,-152.7 162.5,-174.7 285.5,-174.7 285.5,-152.7 162.5,-152.7"/>
<polygon fill="none" stroke="#000000" points="162.5,-152.7 162.5,-174.7 285.5,-174.7 285.5,-152.7 162.5,-152.7"/>
<image xlink:href="../../images/foreignKeys.png" width="11px" height="12px" preserveAspectRatio="xMinYMin meet" x="167.5" y="-169.7"/>
<text text-anchor="start" x="182.5" y="-159.8" font-family="Helvetica,sans-Serif" font-size="11.00" fill="#000000">fase_id</text>
<polygon fill="#ffffff" stroke="transparent" points="162.5,-130.7 162.5,-152.7 285.5,-152.7 285.5,-130.7 162.5,-130.7"/>
<polygon fill="none" stroke="#000000" points="162.5,-130.7 162.5,-152.7 285.5,-152.7 285.5,-130.7 162.5,-130.7"/>
<image xlink:href="../../images/foreignKeys.png" width="11px" height="12px" preserveAspectRatio="xMinYMin meet" x="167.5" y="-147.7"/>
<text text-anchor="start" x="182.5" y="-137.8" font-family="Helvetica,sans-Serif" font-size="11.00" fill="#000000">object_type_id</text>
<polygon fill="none" stroke="#000000" points="162.5,-111.7 162.5,-130.7 285.5,-130.7 285.5,-111.7 162.5,-111.7"/>
<text text-anchor="start" x="165.5" y="-117.8" font-family="Helvetica,sans-Serif" font-size="11.00" fill="#000000">...</text>
<polygon fill="#ffffff" stroke="transparent" points="162.5,-92.7 162.5,-111.7 217.5,-111.7 217.5,-92.7 162.5,-92.7"/>
<polygon fill="none" stroke="#000000" points="162.5,-92.7 162.5,-111.7 217.5,-111.7 217.5,-92.7 162.5,-92.7"/>
<text text-anchor="start" x="165.5" y="-98.8" font-family="Helvetica,sans-Serif" font-size="11.00" fill="#000000">&lt; 2</text>
<polygon fill="#ffffff" stroke="transparent" points="217.5,-92.7 217.5,-111.7 246.5,-111.7 246.5,-92.7 217.5,-92.7"/>
<polygon fill="none" stroke="#000000" points="217.5,-92.7 217.5,-111.7 246.5,-111.7 246.5,-92.7 217.5,-92.7"/>
<text text-anchor="start" x="237.3862" y="-98.8" font-family="Helvetica,sans-Serif" font-size="11.00" fill="#000000"> &#160;</text>
<polygon fill="#ffffff" stroke="transparent" points="246.5,-92.7 246.5,-111.7 285.5,-111.7 285.5,-92.7 246.5,-92.7"/>
<polygon fill="none" stroke="#000000" points="246.5,-92.7 246.5,-111.7 285.5,-111.7 285.5,-92.7 246.5,-92.7"/>
<text text-anchor="start" x="266.9053" y="-98.8" font-family="Helvetica,sans-Serif" font-size="11.00" fill="#000000">5 &gt;</text>
</a>
</g>
</g>
<!-- bereikbaarheid&#45;&gt;object -->
<g id="edge1" class="edge">
<title>bereikbaarheid:w&#45;&gt;object:e</title>
<path fill="none" stroke="#000000" d="M321.5614,-418.4219C263.4373,-396.8724 367.6465,-229.7 285.5,-229.7"/>
<polygon fill="#000000" stroke="#000000" points="328.0978,-419.4532 335.4389,-424.256 332.0489,-420.0766 336,-420.7 336,-420.7 336,-420.7 332.0489,-420.0766 336.5611,-417.144 328.0978,-419.4532 328.0978,-419.4532"/>
<ellipse fill="none" stroke="#000000" cx="324.9369" cy="-418.9544" rx="3.2" ry="3.2"/>
</g>
<!-- roi.verbinding -->
<g id="node3" class="node">
<title>roi.verbinding</title>
<g id="a_node3"><a xlink:href="../../../roi/tables/verbinding.html" xlink:title="roi.verbinding" target="_top">
<polygon fill="#ffffff" stroke="transparent" points="164,-368.2 164,-429.2 283,-429.2 283,-368.2 164,-368.2"/>
<polygon fill="#f5f5f5" stroke="transparent" points="164.5,-405.7 164.5,-428.7 283.5,-428.7 283.5,-405.7 164.5,-405.7"/>
<polygon fill="none" stroke="#000000" points="164.5,-405.7 164.5,-428.7 283.5,-428.7 283.5,-405.7 164.5,-405.7"/>
<text text-anchor="start" x="169.5" y="-414.3" font-family="Helvetica,sans-Serif" font-weight="bold" font-size="11.00" fill="#000000">roi.verbinding</text>
<text text-anchor="start" x="249.0219" y="-413.8" font-family="Helvetica,sans-Serif" font-size="11.00" fill="#000000">[table]</text>
<polygon fill="none" stroke="#000000" points="164.5,-386.7 164.5,-405.7 283.5,-405.7 283.5,-386.7 164.5,-386.7"/>
<text text-anchor="start" x="167.5" y="-392.8" font-family="Helvetica,sans-Serif" font-size="11.00" fill="#000000">...</text>
<polygon fill="#ffffff" stroke="transparent" points="164.5,-367.7 164.5,-386.7 213.5,-386.7 213.5,-367.7 164.5,-367.7"/>
<polygon fill="none" stroke="#000000" points="164.5,-367.7 164.5,-386.7 213.5,-386.7 213.5,-367.7 164.5,-367.7"/>
<text text-anchor="start" x="167.5" y="-373.8" font-family="Helvetica,sans-Serif" font-size="11.00" fill="#000000"> &#160;</text>
<polygon fill="#ffffff" stroke="transparent" points="213.5,-367.7 213.5,-386.7 243.5,-386.7 243.5,-367.7 213.5,-367.7"/>
<polygon fill="none" stroke="#000000" points="213.5,-367.7 213.5,-386.7 243.5,-386.7 243.5,-367.7 213.5,-367.7"/>
<text text-anchor="start" x="234.3862" y="-373.8" font-family="Helvetica,sans-Serif" font-size="11.00" fill="#000000"> &#160;</text>
<polygon fill="#ffffff" stroke="transparent" points="243.5,-367.7 243.5,-386.7 283.5,-386.7 283.5,-367.7 243.5,-367.7"/>
<polygon fill="none" stroke="#000000" points="243.5,-367.7 243.5,-386.7 283.5,-386.7 283.5,-367.7 243.5,-367.7"/>
<text text-anchor="start" x="264.9053" y="-373.8" font-family="Helvetica,sans-Serif" font-size="11.00" fill="#000000">1 &gt;</text>
</a>
</g>
</g>
<!-- bereikbaarheid&#45;&gt;roi.verbinding -->
<g id="edge2" class="edge">
<title>bereikbaarheid:w&#45;&gt;roi.verbinding:e</title>
<path fill="none" stroke="#000000" d="M321.3999,-398.7C311.2906,-398.7 300.9771,-398.7 291.0202,-398.7"/>
<polygon fill="#000000" stroke="#000000" points="328,-398.7001 336,-402.3 332,-398.7 336,-398.7 336,-398.7 336,-398.7 332,-398.7 336,-395.1 328,-398.7001 328,-398.7001"/>
<ellipse fill="none" stroke="#000000" cx="324.8" cy="-398.7001" rx="3.2" ry="3.2"/>
</g>
<!-- roi.fase -->
<g id="node6" class="node">
<title>roi.fase</title>
<g id="a_node6"><a xlink:href="../../../roi/tables/fase.html" xlink:title="roi.fase" target="_top">
<polygon fill="#ffffff" stroke="transparent" points="20,-166.2 20,-227.2 101,-227.2 101,-166.2 20,-166.2"/>
<polygon fill="#f5f5f5" stroke="transparent" points="20.5,-203.7 20.5,-226.7 101.5,-226.7 101.5,-203.7 20.5,-203.7"/>
<polygon fill="none" stroke="#000000" points="20.5,-203.7 20.5,-226.7 101.5,-226.7 101.5,-203.7 20.5,-203.7"/>
<text text-anchor="start" x="25.5" y="-212.3" font-family="Helvetica,sans-Serif" font-weight="bold" font-size="11.00" fill="#000000">roi.fase</text>
<text text-anchor="start" x="67.0219" y="-211.8" font-family="Helvetica,sans-Serif" font-size="11.00" fill="#000000">[table]</text>
<polygon fill="none" stroke="#000000" points="20.5,-184.7 20.5,-203.7 101.5,-203.7 101.5,-184.7 20.5,-184.7"/>
<text text-anchor="start" x="23.5" y="-190.8" font-family="Helvetica,sans-Serif" font-size="11.00" fill="#000000">...</text>
<polygon fill="#ffffff" stroke="transparent" points="20.5,-165.7 20.5,-184.7 50.5,-184.7 50.5,-165.7 20.5,-165.7"/>
<polygon fill="none" stroke="#000000" points="20.5,-165.7 20.5,-184.7 50.5,-184.7 50.5,-165.7 20.5,-165.7"/>
<text text-anchor="start" x="23.5" y="-171.8" font-family="Helvetica,sans-Serif" font-size="11.00" fill="#000000"> &#160;</text>
<polygon fill="#ffffff" stroke="transparent" points="50.5,-165.7 50.5,-184.7 71.5,-184.7 71.5,-165.7 50.5,-165.7"/>
<polygon fill="none" stroke="#000000" points="50.5,-165.7 50.5,-184.7 71.5,-184.7 71.5,-165.7 50.5,-165.7"/>
<text text-anchor="start" x="62.3862" y="-171.8" font-family="Helvetica,sans-Serif" font-size="11.00" fill="#000000"> &#160;</text>
<polygon fill="#ffffff" stroke="transparent" points="71.5,-165.7 71.5,-184.7 101.5,-184.7 101.5,-165.7 71.5,-165.7"/>
<polygon fill="none" stroke="#000000" points="71.5,-165.7 71.5,-184.7 101.5,-184.7 101.5,-165.7 71.5,-165.7"/>
<text text-anchor="start" x="82.9053" y="-171.8" font-family="Helvetica,sans-Serif" font-size="11.00" fill="#000000">1 &gt;</text>
</a>
</g>
</g>
<!-- object&#45;&gt;roi.fase -->
<g id="edge5" class="edge">
<title>object:w&#45;&gt;roi.fase:e</title>
<path fill="none" stroke="#000000" d="M148.2406,-166.4686C131.03,-173.8953 126.0476,-193.7 101.5,-193.7"/>
<polygon fill="#000000" stroke="#000000" points="154.6467,-165.2248 163.1862,-167.234 158.5733,-164.4624 162.5,-163.7 162.5,-163.7 162.5,-163.7 158.5733,-164.4624 161.8138,-160.166 154.6467,-165.2248 154.6467,-165.2248"/>
<ellipse fill="none" stroke="#000000" cx="151.5053" cy="-165.8348" rx="3.2" ry="3.2"/>
</g>
<!-- object_type -->
<g id="node7" class="node">
<title>object_type</title>
<g id="a_node7"><a xlink:href="../../tables/object_type.html" xlink:title="object_type" target="_top">
<polygon fill="#ffffff" stroke="transparent" points="8,-84.2 8,-145.2 113,-145.2 113,-84.2 8,-84.2"/>
<polygon fill="#f5f5f5" stroke="transparent" points="8.5,-121.7 8.5,-144.7 113.5,-144.7 113.5,-121.7 8.5,-121.7"/>
<polygon fill="none" stroke="#000000" points="8.5,-121.7 8.5,-144.7 113.5,-144.7 113.5,-121.7 8.5,-121.7"/>
<text text-anchor="start" x="13.5" y="-130.3" font-family="Helvetica,sans-Serif" font-weight="bold" font-size="11.00" fill="#000000">object_type</text>
<text text-anchor="start" x="79.0219" y="-129.8" font-family="Helvetica,sans-Serif" font-size="11.00" fill="#000000">[table]</text>
<polygon fill="none" stroke="#000000" points="8.5,-102.7 8.5,-121.7 113.5,-121.7 113.5,-102.7 8.5,-102.7"/>
<text text-anchor="start" x="11.5" y="-108.8" font-family="Helvetica,sans-Serif" font-size="11.00" fill="#000000">...</text>
<polygon fill="#ffffff" stroke="transparent" points="8.5,-83.7 8.5,-102.7 50.5,-102.7 50.5,-83.7 8.5,-83.7"/>
<polygon fill="none" stroke="#000000" points="8.5,-83.7 8.5,-102.7 50.5,-102.7 50.5,-83.7 8.5,-83.7"/>
<text text-anchor="start" x="11.5" y="-89.8" font-family="Helvetica,sans-Serif" font-size="11.00" fill="#000000"> &#160;</text>
<polygon fill="#ffffff" stroke="transparent" points="50.5,-83.7 50.5,-102.7 77.5,-102.7 77.5,-83.7 50.5,-83.7"/>
<polygon fill="none" stroke="#000000" points="50.5,-83.7 50.5,-102.7 77.5,-102.7 77.5,-83.7 50.5,-83.7"/>
<text text-anchor="start" x="68.3862" y="-89.8" font-family="Helvetica,sans-Serif" font-size="11.00" fill="#000000"> &#160;</text>
<polygon fill="#ffffff" stroke="transparent" points="77.5,-83.7 77.5,-102.7 113.5,-102.7 113.5,-83.7 77.5,-83.7"/>
<polygon fill="none" stroke="#000000" points="77.5,-83.7 77.5,-102.7 113.5,-102.7 113.5,-83.7 77.5,-83.7"/>
<text text-anchor="start" x="94.9053" y="-89.8" font-family="Helvetica,sans-Serif" font-size="11.00" fill="#000000">1 &gt;</text>
</a>
</g>
</g>
<!-- object&#45;&gt;object_type -->
<g id="edge6" class="edge">
<title>object:w&#45;&gt;object_type:e</title>
<path fill="none" stroke="#000000" d="M148.384,-137.5286C136.4189,-129.2854 133.0504,-111.7 113.5,-111.7"/>
<polygon fill="#000000" stroke="#000000" points="154.828,-139.4328 161.4798,-145.1524 158.664,-140.5664 162.5,-141.7 162.5,-141.7 162.5,-141.7 158.664,-140.5664 163.5202,-138.2476 154.828,-139.4328 154.828,-139.4328"/>
<ellipse fill="none" stroke="#000000" cx="151.7591" cy="-138.526" rx="3.2" ry="3.2"/>
</g>
<!-- label -->
<g id="node4" class="node">
<title>label</title>
<g id="a_node4"><a xlink:href="../../tables/label.html" xlink:title="label" target="_top">
<polygon fill="#ffffff" stroke="transparent" points="417,-38.2 417,-99.2 483,-99.2 483,-38.2 417,-38.2"/>
<polygon fill="#f5f5f5" stroke="transparent" points="417,-75.7 417,-98.7 483,-98.7 483,-75.7 417,-75.7"/>
<polygon fill="none" stroke="#000000" points="417,-75.7 417,-98.7 483,-98.7 483,-75.7 417,-75.7"/>
<text text-anchor="start" x="421.8868" y="-84.3" font-family="Helvetica,sans-Serif" font-weight="bold" font-size="11.00" fill="#000000">label</text>
<text text-anchor="start" x="448.5219" y="-83.8" font-family="Helvetica,sans-Serif" font-size="11.00" fill="#000000">[table]</text>
<polygon fill="none" stroke="#000000" points="417,-56.7 417,-75.7 483,-75.7 483,-56.7 417,-56.7"/>
<text text-anchor="start" x="420" y="-62.8" font-family="Helvetica,sans-Serif" font-size="11.00" fill="#000000">...</text>
<polygon fill="#ffffff" stroke="transparent" points="417,-37.7 417,-56.7 448,-56.7 448,-37.7 417,-37.7"/>
<polygon fill="none" stroke="#000000" points="417,-37.7 417,-56.7 448,-56.7 448,-37.7 417,-37.7"/>
<text text-anchor="start" x="420" y="-43.8" font-family="Helvetica,sans-Serif" font-size="11.00" fill="#000000">&lt; 2</text>
<polygon fill="#ffffff" stroke="transparent" points="448,-37.7 448,-56.7 465,-56.7 465,-37.7 448,-37.7"/>
<polygon fill="none" stroke="#000000" points="448,-37.7 448,-56.7 465,-56.7 465,-37.7 448,-37.7"/>
<text text-anchor="start" x="455.8862" y="-43.8" font-family="Helvetica,sans-Serif" font-size="11.00" fill="#000000"> &#160;</text>
<polygon fill="#ffffff" stroke="transparent" points="465,-37.7 465,-56.7 483,-56.7 483,-37.7 465,-37.7"/>
<polygon fill="none" stroke="#000000" points="465,-37.7 465,-56.7 483,-56.7 483,-37.7 465,-37.7"/>
<text text-anchor="start" x="473.8862" y="-43.8" font-family="Helvetica,sans-Serif" font-size="11.00" fill="#000000"> &#160;</text>
</a>
</g>
</g>
<!-- label&#45;&gt;object -->
<g id="edge3" class="edge">
<title>label:w&#45;&gt;object:e</title>
<path fill="none" stroke="#000000" d="M402.3159,-66.1459C368.0594,-68.4382 352.239,-79.9612 326,-109.7 288.7589,-151.9083 341.7889,-229.7 285.5,-229.7"/>
<polygon fill="#000000" stroke="#000000" points="409.0037,-65.9429 417.1093,-69.2983 413.0018,-65.8214 417,-65.7 417,-65.7 417,-65.7 413.0018,-65.8214 416.8907,-62.1017 409.0037,-65.9429 409.0037,-65.9429"/>
<ellipse fill="none" stroke="#000000" cx="405.8052" cy="-66.04" rx="3.2" ry="3.2"/>
</g>
<!-- maatregel -->
<g id="node5" class="node">
<title>maatregel</title>
<g id="a_node5"><a xlink:href="../../tables/maatregel.html" xlink:title="maatregel" target="_top">
<polygon fill="#ffffff" stroke="transparent" points="402.5,-284.2 402.5,-345.2 497.5,-345.2 497.5,-284.2 402.5,-284.2"/>
<polygon fill="#f5f5f5" stroke="transparent" points="403,-321.7 403,-344.7 498,-344.7 498,-321.7 403,-321.7"/>
<polygon fill="none" stroke="#000000" points="403,-321.7 403,-344.7 498,-344.7 498,-321.7 403,-321.7"/>
<text text-anchor="start" x="408" y="-330.3" font-family="Helvetica,sans-Serif" font-weight="bold" font-size="11.00" fill="#000000">maatregel</text>
<text text-anchor="start" x="463.5219" y="-329.8" font-family="Helvetica,sans-Serif" font-size="11.00" fill="#000000">[table]</text>
<polygon fill="none" stroke="#000000" points="403,-302.7 403,-321.7 498,-321.7 498,-302.7 403,-302.7"/>
<text text-anchor="start" x="406" y="-308.8" font-family="Helvetica,sans-Serif" font-size="11.00" fill="#000000">...</text>
<polygon fill="#ffffff" stroke="transparent" points="403,-283.7 403,-302.7 449,-302.7 449,-283.7 403,-283.7"/>
<polygon fill="none" stroke="#000000" points="403,-283.7 403,-302.7 449,-302.7 449,-283.7 403,-283.7"/>
<text text-anchor="start" x="406" y="-289.8" font-family="Helvetica,sans-Serif" font-size="11.00" fill="#000000">&lt; 2</text>
<polygon fill="#ffffff" stroke="transparent" points="449,-283.7 449,-302.7 473,-302.7 473,-283.7 449,-283.7"/>
<polygon fill="none" stroke="#000000" points="449,-283.7 449,-302.7 473,-302.7 473,-283.7 449,-283.7"/>
<text text-anchor="start" x="463.8862" y="-289.8" font-family="Helvetica,sans-Serif" font-size="11.00" fill="#000000"> &#160;</text>
<polygon fill="#ffffff" stroke="transparent" points="473,-283.7 473,-302.7 498,-302.7 498,-283.7 473,-283.7"/>
<polygon fill="none" stroke="#000000" points="473,-283.7 473,-302.7 498,-302.7 498,-283.7 473,-283.7"/>
<text text-anchor="start" x="488.8862" y="-289.8" font-family="Helvetica,sans-Serif" font-size="11.00" fill="#000000"> &#160;</text>
</a>
</g>
</g>
<!-- maatregel&#45;&gt;object -->
<g id="edge4" class="edge">
<title>maatregel:w&#45;&gt;object:e</title>
<path fill="none" stroke="#000000" d="M388.5275,-310.823C362.0663,-307.2918 352.2543,-293.3545 326,-273.7 304.7231,-257.7717 312.0786,-229.7 285.5,-229.7"/>
<polygon fill="#000000" stroke="#000000" points="395.0146,-311.216 402.7822,-315.2934 399.0073,-311.458 403,-311.7 403,-311.7 403,-311.7 399.0073,-311.458 403.2178,-308.1066 395.0146,-311.216 395.0146,-311.216"/>
<ellipse fill="none" stroke="#000000" cx="391.8205" cy="-311.0225" rx="3.2" ry="3.2"/>
</g>
<!-- sector -->
<g id="node8" class="node">
<title>sector</title>
<g id="a_node8"><a xlink:href="../../tables/sector.html" xlink:title="sector" target="_top">
<polygon fill="#ffffff" stroke="transparent" points="412.5,-202.2 412.5,-263.2 487.5,-263.2 487.5,-202.2 412.5,-202.2"/>
<polygon fill="#f5f5f5" stroke="transparent" points="413,-239.7 413,-262.7 488,-262.7 488,-239.7 413,-239.7"/>
<polygon fill="none" stroke="#000000" points="413,-239.7 413,-262.7 488,-262.7 488,-239.7 413,-239.7"/>
<text text-anchor="start" x="418" y="-248.3" font-family="Helvetica,sans-Serif" font-weight="bold" font-size="11.00" fill="#000000">sector</text>
<text text-anchor="start" x="453.5219" y="-247.8" font-family="Helvetica,sans-Serif" font-size="11.00" fill="#000000">[table]</text>
<polygon fill="none" stroke="#000000" points="413,-220.7 413,-239.7 488,-239.7 488,-220.7 413,-220.7"/>
<text text-anchor="start" x="416" y="-226.8" font-family="Helvetica,sans-Serif" font-size="11.00" fill="#000000">...</text>
<polygon fill="#ffffff" stroke="transparent" points="413,-201.7 413,-220.7 449,-220.7 449,-201.7 413,-201.7"/>
<polygon fill="none" stroke="#000000" points="413,-201.7 413,-220.7 449,-220.7 449,-201.7 413,-201.7"/>
<text text-anchor="start" x="416" y="-207.8" font-family="Helvetica,sans-Serif" font-size="11.00" fill="#000000">&lt; 2</text>
<polygon fill="#ffffff" stroke="transparent" points="449,-201.7 449,-220.7 468,-220.7 468,-201.7 449,-201.7"/>
<polygon fill="none" stroke="#000000" points="449,-201.7 449,-220.7 468,-220.7 468,-201.7 449,-201.7"/>
<text text-anchor="start" x="458.8862" y="-207.8" font-family="Helvetica,sans-Serif" font-size="11.00" fill="#000000"> &#160;</text>
<polygon fill="#ffffff" stroke="transparent" points="468,-201.7 468,-220.7 488,-220.7 488,-201.7 468,-201.7"/>
<polygon fill="none" stroke="#000000" points="468,-201.7 468,-220.7 488,-220.7 488,-201.7 468,-201.7"/>
<text text-anchor="start" x="478.8862" y="-207.8" font-family="Helvetica,sans-Serif" font-size="11.00" fill="#000000"> &#160;</text>
</a>
</g>
</g>
<!-- sector&#45;&gt;object -->
<g id="edge7" class="edge">
<title>sector:w&#45;&gt;object:e</title>
<path fill="none" stroke="#000000" d="M398.4032,-229.7C353.3743,-229.7 336.9648,-229.7 285.5,-229.7"/>
<polygon fill="#000000" stroke="#000000" points="405,-229.7001 413,-233.3 409,-229.7 413,-229.7 413,-229.7 413,-229.7 409,-229.7 413,-226.1 405,-229.7001 405,-229.7001"/>
<ellipse fill="none" stroke="#000000" cx="401.8" cy="-229.7001" rx="3.2" ry="3.2"/>
</g>
<!-- voorziening -->
<g id="node9" class="node">
<title>voorziening</title>
<g id="a_node9"><a xlink:href="../../tables/voorziening.html" xlink:title="voorziening" target="_top">
<polygon fill="#ffffff" stroke="transparent" points="397,-120.2 397,-181.2 503,-181.2 503,-120.2 397,-120.2"/>
<polygon fill="#f5f5f5" stroke="transparent" points="397,-157.7 397,-180.7 503,-180.7 503,-157.7 397,-157.7"/>
<polygon fill="none" stroke="#000000" points="397,-157.7 397,-180.7 503,-180.7 503,-157.7 397,-157.7"/>
<text text-anchor="start" x="402" y="-166.3" font-family="Helvetica,sans-Serif" font-weight="bold" font-size="11.00" fill="#000000">voorziening</text>
<text text-anchor="start" x="468.5219" y="-165.8" font-family="Helvetica,sans-Serif" font-size="11.00" fill="#000000">[table]</text>
<polygon fill="none" stroke="#000000" points="397,-138.7 397,-157.7 503,-157.7 503,-138.7 397,-138.7"/>
<text text-anchor="start" x="400" y="-144.8" font-family="Helvetica,sans-Serif" font-size="11.00" fill="#000000">...</text>
<polygon fill="#ffffff" stroke="transparent" points="397,-119.7 397,-138.7 448,-138.7 448,-119.7 397,-119.7"/>
<polygon fill="none" stroke="#000000" points="397,-119.7 397,-138.7 448,-138.7 448,-119.7 397,-119.7"/>
<text text-anchor="start" x="400" y="-125.8" font-family="Helvetica,sans-Serif" font-size="11.00" fill="#000000">&lt; 2</text>
<polygon fill="#ffffff" stroke="transparent" points="448,-119.7 448,-138.7 475,-138.7 475,-119.7 448,-119.7"/>
<polygon fill="none" stroke="#000000" points="448,-119.7 448,-138.7 475,-138.7 475,-119.7 448,-119.7"/>
<text text-anchor="start" x="465.8862" y="-125.8" font-family="Helvetica,sans-Serif" font-size="11.00" fill="#000000"> &#160;</text>
<polygon fill="#ffffff" stroke="transparent" points="475,-119.7 475,-138.7 503,-138.7 503,-119.7 475,-119.7"/>
<polygon fill="none" stroke="#000000" points="475,-119.7 475,-138.7 503,-138.7 503,-119.7 475,-119.7"/>
<text text-anchor="start" x="493.8862" y="-125.8" font-family="Helvetica,sans-Serif" font-size="11.00" fill="#000000"> &#160;</text>
</a>
</g>
</g>
<!-- voorziening&#45;&gt;object -->
<g id="edge8" class="edge">
<title>voorziening:w&#45;&gt;object:e</title>
<path fill="none" stroke="#000000" d="M382.4414,-149.0491C358.0132,-154.0821 351.0866,-172.4632 326,-191.7 306.4131,-206.7196 310.1827,-229.7 285.5,-229.7"/>
<polygon fill="#000000" stroke="#000000" points="389.0341,-148.4382 397.3322,-151.2846 393.0171,-148.0691 397,-147.7 397,-147.7 397,-147.7 393.0171,-148.0691 396.6678,-144.1154 389.0341,-148.4382 389.0341,-148.4382"/>
<ellipse fill="none" stroke="#000000" cx="385.8478" cy="-148.7335" rx="3.2" ry="3.2"/>
</g>
</g>
</svg>
