<?xml version="1.0" encoding="UTF-8" standalone="no"?>
<!DOCTYPE svg PUBLIC "-//W3C//DTD SVG 1.1//EN"
 "http://www.w3.org/Graphics/SVG/1.1/DTD/svg11.dtd">
<!-- Generated by graphviz version 2.50.0 (0)
 -->
<!-- Title: oneDegreeRelationshipsDiagram Pages: 1 -->
<svg width="459pt" height="392pt"
 viewBox="0.00 0.00 459.00 392.00" xmlns="http://www.w3.org/2000/svg" xmlns:xlink="http://www.w3.org/1999/xlink">
<g id="graph0" class="graph" transform="scale(1 1) rotate(0) translate(4 388)">
<title>oneDegreeRelationshipsDiagram</title>
<polygon fill="#ffffff" stroke="transparent" points="-4,4 -4,-388 455,-388 455,4 -4,4"/>
<text text-anchor="middle" x="79.5" y="-7.2" font-family="Helvetica,sans-Serif" font-size="11.00">Generated by SchemaSpy</text>
<!-- label -->
<g id="node1" class="node">
<title>label</title>
<g id="a_node1"><a xlink:href="../../tables/label.html" xlink:title="label" target="_top">
<polygon fill="#ffffff" stroke="transparent" points="189,-116 189,-380 443,-380 443,-116 189,-116"/>
<polygon fill="#f5f5f5" stroke="transparent" points="191,-356 191,-378 441,-378 441,-356 191,-356"/>
<polygon fill="none" stroke="black" points="191,-356 191,-378 441,-378 441,-356 191,-356"/>
<text text-anchor="start" x="196" y="-365.2" font-family="Helvetica,sans-Serif" font-weight="bold" font-size="11.00">label</text>
<text text-anchor="start" x="399" y="-364.2" font-family="Helvetica,sans-Serif" font-size="11.00">[table]</text>
<polygon fill="none" stroke="black" points="191,-334 191,-356 305,-356 305,-334 191,-334"/>
<image xlink:href="../../images/primaryKeys.png" width="11px" height="12px" preserveAspectRatio="xMinYMin meet" x="196" y="-351"/>
<text text-anchor="start" x="211" y="-342.2" font-family="Helvetica,sans-Serif" font-size="11.00">uuid</text>
<polygon fill="none" stroke="black" points="305,-334 305,-356 441,-356 441,-334 305,-334"/>
<text text-anchor="start" x="308" y="-342.2" font-family="Helvetica,sans-Serif" font-size="11.00">uuid[2147483647]</text>
<polygon fill="#ffffff" stroke="transparent" points="191,-312 191,-334 305,-334 305,-312 191,-312"/>
<polygon fill="none" stroke="black" points="191,-312 191,-334 305,-334 305,-312 191,-312"/>
<text text-anchor="start" x="211" y="-320.2" font-family="Helvetica,sans-Serif" font-size="11.00">geom</text>
<polygon fill="none" stroke="black" points="305,-312 305,-334 441,-334 441,-312 305,-312"/>
<text text-anchor="start" x="308" y="-320.2" font-family="Helvetica,sans-Serif" font-size="11.00">geometry[2147483647]</text>
<polygon fill="none" stroke="black" points="191,-290 191,-312 305,-312 305,-290 191,-290"/>
<text text-anchor="start" x="211" y="-298.2" font-family="Helvetica,sans-Serif" font-size="11.00">datumtijd</text>
<polygon fill="none" stroke="black" points="305,-290 305,-312 441,-312 441,-290 305,-290"/>
<text text-anchor="start" x="308" y="-298.2" font-family="Helvetica,sans-Serif" font-size="11.00">timestamptz[35,6]</text>
<polygon fill="none" stroke="black" points="191,-268 191,-290 305,-290 305,-268 191,-268"/>
<text text-anchor="start" x="211" y="-276.2" font-family="Helvetica,sans-Serif" font-size="11.00">gebruiker</text>
<polygon fill="none" stroke="black" points="305,-268 305,-290 441,-290 441,-268 305,-268"/>
<text text-anchor="start" x="308" y="-276.2" font-family="Helvetica,sans-Serif" font-size="11.00">varchar[255]</text>
<polygon fill="none" stroke="black" points="191,-246 191,-268 305,-268 305,-246 191,-246"/>
<text text-anchor="start" x="211" y="-254.2" font-family="Helvetica,sans-Serif" font-size="11.00">label</text>
<polygon fill="none" stroke="black" points="305,-246 305,-268 441,-268 441,-246 305,-246"/>
<text text-anchor="start" x="308" y="-254.2" font-family="Helvetica,sans-Serif" font-size="11.00">text[2147483647]</text>
<polygon fill="none" stroke="black" points="191,-224 191,-246 305,-246 305,-224 191,-224"/>
<text text-anchor="start" x="211" y="-232.2" font-family="Helvetica,sans-Serif" font-size="11.00">rotatie</text>
<polygon fill="none" stroke="black" points="305,-224 305,-246 441,-246 441,-224 305,-224"/>
<text text-anchor="start" x="308" y="-232.2" font-family="Helvetica,sans-Serif" font-size="11.00">int4[10]</text>
<polygon fill="none" stroke="black" points="191,-202 191,-224 305,-224 305,-202 191,-202"/>
<text text-anchor="start" x="211" y="-210.2" font-family="Helvetica,sans-Serif" font-size="11.00">bijzonderheden</text>
<polygon fill="none" stroke="black" points="305,-202 305,-224 441,-224 441,-202 305,-202"/>
<text text-anchor="start" x="308" y="-210.2" font-family="Helvetica,sans-Serif" font-size="11.00">text[2147483647]</text>
<polygon fill="none" stroke="black" points="191,-180 191,-202 305,-202 305,-180 191,-180"/>
<text text-anchor="start" x="211" y="-188.2" font-family="Helvetica,sans-Serif" font-size="11.00">plusinfo</text>
<polygon fill="none" stroke="black" points="305,-180 305,-202 441,-202 441,-180 305,-180"/>
<text text-anchor="start" x="308" y="-188.2" font-family="Helvetica,sans-Serif" font-size="11.00">jsonb[2147483647]</text>
<polygon fill="#ffffff" stroke="transparent" points="191,-158 191,-180 305,-180 305,-158 191,-158"/>
<polygon fill="none" stroke="black" points="191,-158 191,-180 305,-180 305,-158 191,-158"/>
<image xlink:href="../../images/foreignKeys.png" width="11px" height="12px" preserveAspectRatio="xMinYMin meet" x="196" y="-175"/>
<text text-anchor="start" x="211" y="-166.2" font-family="Helvetica,sans-Serif" font-size="11.00">object_uuid</text>
<polygon fill="none" stroke="black" points="305,-158 305,-180 441,-180 441,-158 305,-158"/>
<text text-anchor="start" x="308" y="-166.2" font-family="Helvetica,sans-Serif" font-size="11.00">uuid[2147483647]</text>
<polygon fill="none" stroke="black" points="191,-136 191,-158 305,-158 305,-136 191,-136"/>
<image xlink:href="../../images/foreignKeys.png" width="11px" height="12px" preserveAspectRatio="xMinYMin meet" x="196" y="-153"/>
<text text-anchor="start" x="211" y="-144.2" font-family="Helvetica,sans-Serif" font-size="11.00">annotatie_id</text>
<polygon fill="none" stroke="black" points="305,-136 305,-158 441,-158 441,-136 305,-136"/>
<text text-anchor="start" x="308" y="-144.2" font-family="Helvetica,sans-Serif" font-size="11.00">int2[5]</text>
<polygon fill="#ffffff" stroke="transparent" points="191,-118 191,-136 254,-136 254,-118 191,-118"/>
<polygon fill="none" stroke="black" points="191,-118 191,-136 254,-136 254,-118 191,-118"/>
<text text-anchor="start" x="194" y="-124.2" font-family="Helvetica,sans-Serif" font-size="11.00">&lt; 2</text>
<polygon fill="#ffffff" stroke="transparent" points="254,-118 254,-136 305,-136 305,-118 254,-118"/>
<polygon fill="none" stroke="black" points="254,-118 254,-136 305,-136 305,-118 254,-118"/>
<text text-anchor="start" x="294" y="-124.2" font-family="Helvetica,sans-Serif" font-size="11.00"> &#160;</text>
<polygon fill="#ffffff" stroke="transparent" points="305,-118 305,-136 441,-136 441,-118 305,-118"/>
<polygon fill="none" stroke="black" points="305,-118 305,-136 441,-136 441,-118 305,-118"/>
<text text-anchor="start" x="418" y="-124.2" font-family="Helvetica,sans-Serif" font-size="11.00">0 &gt;</text>
<polygon fill="none" stroke="black" stroke-width="2" points="190,-117 190,-379 442,-379 442,-117 190,-117"/>
</a>
</g>
</g>
<!-- roi.annotatie -->
<g id="node2" class="node">
<title>roi.annotatie</title>
<g id="a_node2"><a xlink:href="../../../roi/tables/annotatie.html" xlink:title="roi.annotatie" target="_top">
<polygon fill="#ffffff" stroke="transparent" points="8,-37 8,-95 140,-95 140,-37 8,-37"/>
<polygon fill="#f5f5f5" stroke="transparent" points="8,-73 8,-95 140,-95 140,-73 8,-73"/>
<polygon fill="none" stroke="black" points="8,-73 8,-95 140,-95 140,-73 8,-73"/>
<text text-anchor="start" x="13" y="-82.2" font-family="Helvetica,sans-Serif" font-weight="bold" font-size="11.00">roi.annotatie</text>
<text text-anchor="start" x="98" y="-81.2" font-family="Helvetica,sans-Serif" font-size="11.00">[table]</text>
<polygon fill="none" stroke="black" points="8,-55 8,-73 140,-73 140,-55 8,-55"/>
<text text-anchor="start" x="11" y="-61.2" font-family="Helvetica,sans-Serif" font-size="11.00">...</text>
<polygon fill="#ffffff" stroke="transparent" points="8,-37 8,-55 61,-55 61,-37 8,-37"/>
<polygon fill="none" stroke="black" points="8,-37 8,-55 61,-55 61,-37 8,-37"/>
<text text-anchor="start" x="11" y="-43.2" font-family="Helvetica,sans-Serif" font-size="11.00"> &#160;</text>
<polygon fill="#ffffff" stroke="transparent" points="61,-37 61,-55 94,-55 94,-37 61,-37"/>
<polygon fill="none" stroke="black" points="61,-37 61,-55 94,-55 94,-37 61,-37"/>
<text text-anchor="start" x="83" y="-43.2" font-family="Helvetica,sans-Serif" font-size="11.00"> &#160;</text>
<polygon fill="#ffffff" stroke="transparent" points="94,-37 94,-55 140,-55 140,-37 94,-37"/>
<polygon fill="none" stroke="black" points="94,-37 94,-55 140,-55 140,-37 94,-37"/>
<text text-anchor="start" x="117" y="-43.2" font-family="Helvetica,sans-Serif" font-size="11.00">1 &gt;</text>
</a>
</g>
</g>
<!-- label&#45;&gt;roi.annotatie -->
<g id="edge1" class="edge">
<title>label:w&#45;&gt;roi.annotatie:e</title>
<path fill="none" stroke="black" d="M175.96,-143.14C164.76,-135.26 164.24,-117.04 148,-105 145.35,-103.03 142.58,-101.1 139.74,-99.22"/>
<polygon fill="black" stroke="black" points="182.29,-144.88 189.05,-150.47 186.14,-145.94 190,-147 190,-147 190,-147 186.14,-145.94 190.95,-143.53 182.29,-144.88 182.29,-144.88"/>
<ellipse fill="none" stroke="black" cx="179.2" cy="-144.03" rx="3.2" ry="3.2"/>
</g>
<!-- object -->
<g id="node3" class="node">
<title>object</title>
<g id="a_node3"><a xlink:href="../../tables/object.html" xlink:title="object" target="_top">
<polygon fill="#ffffff" stroke="transparent" points="9.5,-116 9.5,-284 138.5,-284 138.5,-116 9.5,-116"/>
<polygon fill="#f5f5f5" stroke="transparent" points="10,-262 10,-284 139,-284 139,-262 10,-262"/>
<polygon fill="none" stroke="black" points="10,-262 10,-284 139,-284 139,-262 10,-262"/>
<text text-anchor="start" x="15" y="-271.2" font-family="Helvetica,sans-Serif" font-weight="bold" font-size="11.00">object</text>
<text text-anchor="start" x="97" y="-270.2" font-family="Helvetica,sans-Serif" font-size="11.00">[table]</text>
<polygon fill="none" stroke="black" points="10,-240 10,-262 139,-262 139,-240 10,-240"/>
<image xlink:href="../../images/primaryKeys.png" width="11px" height="12px" preserveAspectRatio="xMinYMin meet" x="15" y="-257"/>
<text text-anchor="start" x="30" y="-248.2" font-family="Helvetica,sans-Serif" font-size="11.00">uuid</text>
<polygon fill="#ffffff" stroke="transparent" points="10,-218 10,-240 139,-240 139,-218 10,-218"/>
<polygon fill="none" stroke="black" points="10,-218 10,-240 139,-240 139,-218 10,-218"/>
<text text-anchor="start" x="30" y="-226.2" font-family="Helvetica,sans-Serif" font-size="11.00">geom</text>
<polygon fill="#ffffff" stroke="transparent" points="10,-196 10,-218 139,-218 139,-196 10,-196"/>
<polygon fill="none" stroke="black" points="10,-196 10,-218 139,-218 139,-196 10,-196"/>
<text text-anchor="start" x="30" y="-204.2" font-family="Helvetica,sans-Serif" font-size="11.00">revisie_frequentie</text>
<polygon fill="#ffffff" stroke="transparent" points="10,-174 10,-196 139,-196 139,-174 10,-174"/>
<polygon fill="none" stroke="black" points="10,-174 10,-196 139,-196 139,-174 10,-174"/>
<image xlink:href="../../images/foreignKeys.png" width="11px" height="12px" preserveAspectRatio="xMinYMin meet" x="15" y="-191"/>
<text text-anchor="start" x="30" y="-182.2" font-family="Helvetica,sans-Serif" font-size="11.00">fase_id</text>
<polygon fill="#ffffff" stroke="transparent" points="10,-152 10,-174 139,-174 139,-152 10,-152"/>
<polygon fill="none" stroke="black" points="10,-152 10,-174 139,-174 139,-152 10,-152"/>
<image xlink:href="../../images/foreignKeys.png" width="11px" height="12px" preserveAspectRatio="xMinYMin meet" x="15" y="-169"/>
<text text-anchor="start" x="30" y="-160.2" font-family="Helvetica,sans-Serif" font-size="11.00">object_type_id</text>
<polygon fill="none" stroke="black" points="10,-134 10,-152 139,-152 139,-134 10,-134"/>
<text text-anchor="start" x="13" y="-140.2" font-family="Helvetica,sans-Serif" font-size="11.00">...</text>
<polygon fill="#ffffff" stroke="transparent" points="10,-116 10,-134 67,-134 67,-116 10,-116"/>
<polygon fill="none" stroke="black" points="10,-116 10,-134 67,-134 67,-116 10,-116"/>
<text text-anchor="start" x="13" y="-122.2" font-family="Helvetica,sans-Serif" font-size="11.00">&lt; 2</text>
<polygon fill="#ffffff" stroke="transparent" points="67,-116 67,-134 97,-134 97,-116 67,-116"/>
<polygon fill="none" stroke="black" points="67,-116 67,-134 97,-134 97,-116 67,-116"/>
<text text-anchor="start" x="86" y="-122.2" font-family="Helvetica,sans-Serif" font-size="11.00"> &#160;</text>
<polygon fill="#ffffff" stroke="transparent" points="97,-116 97,-134 139,-134 139,-116 97,-116"/>
<polygon fill="none" stroke="black" points="97,-116 97,-134 139,-134 139,-116 97,-116"/>
<text text-anchor="start" x="116" y="-122.2" font-family="Helvetica,sans-Serif" font-size="11.00">5 &gt;</text>
</a>
</g>
</g>
<!-- label&#45;&gt;object -->
<g id="edge2" class="edge">
<title>label:w&#45;&gt;object:e</title>
<path fill="none" stroke="black" d="M176.19,-173.41C155.72,-190.44 176.68,-251 140,-251"/>
<polygon fill="black" stroke="black" points="182.38,-171.43 191.09,-172.43 186.19,-170.22 190,-169 190,-169 190,-169 186.19,-170.22 188.91,-165.57 182.38,-171.43 182.38,-171.43"/>
<ellipse fill="none" stroke="black" cx="179.33" cy="-172.41" rx="3.2" ry="3.2"/>
</g>
</g>
</svg>
