<?xml version="1.0" encoding="UTF-8" standalone="no"?>
<!DOCTYPE svg PUBLIC "-//W3C//DTD SVG 1.1//EN"
 "http://www.w3.org/Graphics/SVG/1.1/DTD/svg11.dtd">
<!-- Generated by graphviz version 2.50.0 (0)
 -->
<!-- Title: twoDegreesRelationshipsDiagram Pages: 1 -->
<svg width="631pt" height="629pt"
 viewBox="0.00 0.00 631.00 629.00" xmlns="http://www.w3.org/2000/svg" xmlns:xlink="http://www.w3.org/1999/xlink">
<g id="graph0" class="graph" transform="scale(1 1) rotate(0) translate(4 625)">
<title>twoDegreesRelationshipsDiagram</title>
<polygon fill="#ffffff" stroke="transparent" points="-4,4 -4,-625 627,-625 627,4 -4,4"/>
<text text-anchor="middle" x="79.5" y="-7.2" font-family="Helvetica,sans-Serif" font-size="11.00">Generated by SchemaSpy</text>
<!-- bereikbaarheid -->
<g id="node1" class="node">
<title>bereikbaarheid</title>
<g id="a_node1"><a xlink:href="../../tables/bereikbaarheid.html" xlink:title="bereikbaarheid" target="_top">
<polygon fill="#ffffff" stroke="transparent" points="415.5,-559 415.5,-617 560.5,-617 560.5,-559 415.5,-559"/>
<polygon fill="#f5f5f5" stroke="transparent" points="416,-595 416,-617 561,-617 561,-595 416,-595"/>
<polygon fill="none" stroke="black" points="416,-595 416,-617 561,-617 561,-595 416,-595"/>
<text text-anchor="start" x="421" y="-604.2" font-family="Helvetica,sans-Serif" font-weight="bold" font-size="11.00">bereikbaarheid</text>
<text text-anchor="start" x="519" y="-603.2" font-family="Helvetica,sans-Serif" font-size="11.00">[table]</text>
<polygon fill="none" stroke="black" points="416,-577 416,-595 561,-595 561,-577 416,-577"/>
<text text-anchor="start" x="419" y="-583.2" font-family="Helvetica,sans-Serif" font-size="11.00">...</text>
<polygon fill="#ffffff" stroke="transparent" points="416,-559 416,-577 487,-577 487,-559 416,-559"/>
<polygon fill="none" stroke="black" points="416,-559 416,-577 487,-577 487,-559 416,-559"/>
<text text-anchor="start" x="419" y="-565.2" font-family="Helvetica,sans-Serif" font-size="11.00">&lt; 2</text>
<polygon fill="#ffffff" stroke="transparent" points="487,-559 487,-577 524,-577 524,-559 487,-559"/>
<polygon fill="none" stroke="black" points="487,-559 487,-577 524,-577 524,-559 487,-559"/>
<text text-anchor="start" x="513" y="-565.2" font-family="Helvetica,sans-Serif" font-size="11.00"> &#160;</text>
<polygon fill="#ffffff" stroke="transparent" points="524,-559 524,-577 561,-577 561,-559 524,-559"/>
<polygon fill="none" stroke="black" points="524,-559 524,-577 561,-577 561,-559 524,-559"/>
<text text-anchor="start" x="550" y="-565.2" font-family="Helvetica,sans-Serif" font-size="11.00"> &#160;</text>
</a>
</g>
</g>
<!-- object -->
<g id="node2" class="node">
<title>object</title>
<g id="a_node2"><a xlink:href="../../tables/object.html" xlink:title="object" target="_top">
<polygon fill="#ffffff" stroke="transparent" points="181.5,-293 181.5,-461 310.5,-461 310.5,-293 181.5,-293"/>
<polygon fill="#f5f5f5" stroke="transparent" points="182,-439 182,-461 311,-461 311,-439 182,-439"/>
<polygon fill="none" stroke="black" points="182,-439 182,-461 311,-461 311,-439 182,-439"/>
<text text-anchor="start" x="187" y="-448.2" font-family="Helvetica,sans-Serif" font-weight="bold" font-size="11.00">object</text>
<text text-anchor="start" x="269" y="-447.2" font-family="Helvetica,sans-Serif" font-size="11.00">[table]</text>
<polygon fill="none" stroke="black" points="182,-417 182,-439 311,-439 311,-417 182,-417"/>
<image xlink:href="../../images/primaryKeys.png" width="11px" height="12px" preserveAspectRatio="xMinYMin meet" x="187" y="-434"/>
<text text-anchor="start" x="202" y="-425.2" font-family="Helvetica,sans-Serif" font-size="11.00">uuid</text>
<polygon fill="#ffffff" stroke="transparent" points="182,-395 182,-417 311,-417 311,-395 182,-395"/>
<polygon fill="none" stroke="black" points="182,-395 182,-417 311,-417 311,-395 182,-395"/>
<text text-anchor="start" x="202" y="-403.2" font-family="Helvetica,sans-Serif" font-size="11.00">geom</text>
<polygon fill="#ffffff" stroke="transparent" points="182,-373 182,-395 311,-395 311,-373 182,-373"/>
<polygon fill="none" stroke="black" points="182,-373 182,-395 311,-395 311,-373 182,-373"/>
<text text-anchor="start" x="202" y="-381.2" font-family="Helvetica,sans-Serif" font-size="11.00">revisie_frequentie</text>
<polygon fill="#ffffff" stroke="transparent" points="182,-351 182,-373 311,-373 311,-351 182,-351"/>
<polygon fill="none" stroke="black" points="182,-351 182,-373 311,-373 311,-351 182,-351"/>
<image xlink:href="../../images/foreignKeys.png" width="11px" height="12px" preserveAspectRatio="xMinYMin meet" x="187" y="-368"/>
<text text-anchor="start" x="202" y="-359.2" font-family="Helvetica,sans-Serif" font-size="11.00">fase_id</text>
<polygon fill="#ffffff" stroke="transparent" points="182,-329 182,-351 311,-351 311,-329 182,-329"/>
<polygon fill="none" stroke="black" points="182,-329 182,-351 311,-351 311,-329 182,-329"/>
<image xlink:href="../../images/foreignKeys.png" width="11px" height="12px" preserveAspectRatio="xMinYMin meet" x="187" y="-346"/>
<text text-anchor="start" x="202" y="-337.2" font-family="Helvetica,sans-Serif" font-size="11.00">object_type_id</text>
<polygon fill="none" stroke="black" points="182,-311 182,-329 311,-329 311,-311 182,-311"/>
<text text-anchor="start" x="185" y="-317.2" font-family="Helvetica,sans-Serif" font-size="11.00">...</text>
<polygon fill="#ffffff" stroke="transparent" points="182,-293 182,-311 239,-311 239,-293 182,-293"/>
<polygon fill="none" stroke="black" points="182,-293 182,-311 239,-311 239,-293 182,-293"/>
<text text-anchor="start" x="185" y="-299.2" font-family="Helvetica,sans-Serif" font-size="11.00">&lt; 2</text>
<polygon fill="#ffffff" stroke="transparent" points="239,-293 239,-311 269,-311 269,-293 239,-293"/>
<polygon fill="none" stroke="black" points="239,-293 239,-311 269,-311 269,-293 239,-293"/>
<text text-anchor="start" x="258" y="-299.2" font-family="Helvetica,sans-Serif" font-size="11.00"> &#160;</text>
<polygon fill="#ffffff" stroke="transparent" points="269,-293 269,-311 311,-311 311,-293 269,-293"/>
<polygon fill="none" stroke="black" points="269,-293 269,-311 311,-311 311,-293 269,-293"/>
<text text-anchor="start" x="288" y="-299.2" font-family="Helvetica,sans-Serif" font-size="11.00">5 &gt;</text>
</a>
</g>
</g>
<!-- bereikbaarheid&#45;&gt;object -->
<g id="edge1" class="edge">
<title>bereikbaarheid:w&#45;&gt;object:e</title>
<path fill="none" stroke="black" d="M400.57,-584.98C379.34,-581.59 369.78,-569.77 353,-549 317.31,-504.84 368.78,-428 312,-428"/>
<polygon fill="black" stroke="black" points="407.02,-585.43 414.75,-589.59 411.01,-585.72 415,-586 415,-586 415,-586 411.01,-585.72 415.25,-582.41 407.02,-585.43 407.02,-585.43"/>
<ellipse fill="none" stroke="black" cx="403.83" cy="-585.21" rx="3.2" ry="3.2"/>
</g>
<!-- roi.fase -->
<g id="node6" class="node">
<title>roi.fase</title>
<g id="a_node6"><a xlink:href="../../../roi/tables/fase.html" xlink:title="roi.fase" target="_top">
<polygon fill="#ffffff" stroke="transparent" points="20,-363 20,-421 119,-421 119,-363 20,-363"/>
<polygon fill="#f5f5f5" stroke="transparent" points="20.5,-399 20.5,-421 119.5,-421 119.5,-399 20.5,-399"/>
<polygon fill="none" stroke="black" points="20.5,-399 20.5,-421 119.5,-421 119.5,-399 20.5,-399"/>
<text text-anchor="start" x="25.5" y="-408.2" font-family="Helvetica,sans-Serif" font-weight="bold" font-size="11.00">roi.fase</text>
<text text-anchor="start" x="77.5" y="-407.2" font-family="Helvetica,sans-Serif" font-size="11.00">[table]</text>
<polygon fill="none" stroke="black" points="20.5,-381 20.5,-399 119.5,-399 119.5,-381 20.5,-381"/>
<text text-anchor="start" x="23.5" y="-387.2" font-family="Helvetica,sans-Serif" font-size="11.00">...</text>
<polygon fill="#ffffff" stroke="transparent" points="20.5,-363 20.5,-381 56.5,-381 56.5,-363 20.5,-363"/>
<polygon fill="none" stroke="black" points="20.5,-363 20.5,-381 56.5,-381 56.5,-363 20.5,-363"/>
<text text-anchor="start" x="23.5" y="-369.2" font-family="Helvetica,sans-Serif" font-size="11.00"> &#160;</text>
<polygon fill="#ffffff" stroke="transparent" points="56.5,-363 56.5,-381 81.5,-381 81.5,-363 56.5,-363"/>
<polygon fill="none" stroke="black" points="56.5,-363 56.5,-381 81.5,-381 81.5,-363 56.5,-363"/>
<text text-anchor="start" x="70.5" y="-369.2" font-family="Helvetica,sans-Serif" font-size="11.00"> &#160;</text>
<polygon fill="#ffffff" stroke="transparent" points="81.5,-363 81.5,-381 119.5,-381 119.5,-363 81.5,-363"/>
<polygon fill="none" stroke="black" points="81.5,-363 81.5,-381 119.5,-381 119.5,-363 81.5,-363"/>
<text text-anchor="start" x="96.5" y="-369.2" font-family="Helvetica,sans-Serif" font-size="11.00">1 &gt;</text>
</a>
</g>
</g>
<!-- object&#45;&gt;roi.fase -->
<g id="edge5" class="edge">
<title>object:w&#45;&gt;roi.fase:e</title>
<path fill="none" stroke="black" d="M166.46,-364.79C149.8,-371.87 144.34,-390 120.5,-390"/>
<polygon fill="black" stroke="black" points="173.14,-363.51 181.68,-365.54 177.07,-362.75 181,-362 181,-362 181,-362 177.07,-362.75 180.32,-358.46 173.14,-363.51 173.14,-363.51"/>
<ellipse fill="none" stroke="black" cx="170" cy="-364.11" rx="3.2" ry="3.2"/>
</g>
<!-- object_type -->
<g id="node7" class="node">
<title>object_type</title>
<g id="a_node7"><a xlink:href="../../tables/object_type.html" xlink:title="object_type" target="_top">
<polygon fill="#ffffff" stroke="transparent" points="8,-284 8,-342 131,-342 131,-284 8,-284"/>
<polygon fill="#f5f5f5" stroke="transparent" points="8.5,-320 8.5,-342 131.5,-342 131.5,-320 8.5,-320"/>
<polygon fill="none" stroke="black" points="8.5,-320 8.5,-342 131.5,-342 131.5,-320 8.5,-320"/>
<text text-anchor="start" x="13.5" y="-329.2" font-family="Helvetica,sans-Serif" font-weight="bold" font-size="11.00">object_type</text>
<text text-anchor="start" x="89.5" y="-328.2" font-family="Helvetica,sans-Serif" font-size="11.00">[table]</text>
<polygon fill="none" stroke="black" points="8.5,-302 8.5,-320 131.5,-320 131.5,-302 8.5,-302"/>
<text text-anchor="start" x="11.5" y="-308.2" font-family="Helvetica,sans-Serif" font-size="11.00">...</text>
<polygon fill="#ffffff" stroke="transparent" points="8.5,-284 8.5,-302 56.5,-302 56.5,-284 8.5,-284"/>
<polygon fill="none" stroke="black" points="8.5,-284 8.5,-302 56.5,-302 56.5,-284 8.5,-284"/>
<text text-anchor="start" x="11.5" y="-290.2" font-family="Helvetica,sans-Serif" font-size="11.00"> &#160;</text>
<polygon fill="#ffffff" stroke="transparent" points="56.5,-284 56.5,-302 87.5,-302 87.5,-284 56.5,-284"/>
<polygon fill="none" stroke="black" points="56.5,-284 56.5,-302 87.5,-302 87.5,-284 56.5,-284"/>
<text text-anchor="start" x="76.5" y="-290.2" font-family="Helvetica,sans-Serif" font-size="11.00"> &#160;</text>
<polygon fill="#ffffff" stroke="transparent" points="87.5,-284 87.5,-302 131.5,-302 131.5,-284 87.5,-284"/>
<polygon fill="none" stroke="black" points="87.5,-284 87.5,-302 131.5,-302 131.5,-284 87.5,-284"/>
<text text-anchor="start" x="108.5" y="-290.2" font-family="Helvetica,sans-Serif" font-size="11.00">1 &gt;</text>
</a>
</g>
</g>
<!-- object&#45;&gt;object_type -->
<g id="edge6" class="edge">
<title>object:w&#45;&gt;object_type:e</title>
<path fill="none" stroke="black" d="M167.07,-335.97C155.22,-328 151.73,-311 132.5,-311"/>
<polygon fill="black" stroke="black" points="173.32,-337.77 180,-343.46 177.16,-338.89 181,-340 181,-340 181,-340 177.16,-338.89 182,-336.54 173.32,-337.77 173.32,-337.77"/>
<ellipse fill="none" stroke="black" cx="170.24" cy="-336.88" rx="3.2" ry="3.2"/>
</g>
<!-- label -->
<g id="node3" class="node">
<title>label</title>
<g id="a_node3"><a xlink:href="../../tables/label.html" xlink:title="label" target="_top">
<polygon fill="#ffffff" stroke="transparent" points="361,-37 361,-301 615,-301 615,-37 361,-37"/>
<polygon fill="#f5f5f5" stroke="transparent" points="363,-277 363,-299 613,-299 613,-277 363,-277"/>
<polygon fill="none" stroke="black" points="363,-277 363,-299 613,-299 613,-277 363,-277"/>
<text text-anchor="start" x="368" y="-286.2" font-family="Helvetica,sans-Serif" font-weight="bold" font-size="11.00">label</text>
<text text-anchor="start" x="571" y="-285.2" font-family="Helvetica,sans-Serif" font-size="11.00">[table]</text>
<polygon fill="none" stroke="black" points="363,-255 363,-277 477,-277 477,-255 363,-255"/>
<image xlink:href="../../images/primaryKeys.png" width="11px" height="12px" preserveAspectRatio="xMinYMin meet" x="368" y="-272"/>
<text text-anchor="start" x="383" y="-263.2" font-family="Helvetica,sans-Serif" font-size="11.00">uuid</text>
<polygon fill="none" stroke="black" points="477,-255 477,-277 613,-277 613,-255 477,-255"/>
<text text-anchor="start" x="480" y="-263.2" font-family="Helvetica,sans-Serif" font-size="11.00">uuid[2147483647]</text>
<polygon fill="#ffffff" stroke="transparent" points="363,-233 363,-255 477,-255 477,-233 363,-233"/>
<polygon fill="none" stroke="black" points="363,-233 363,-255 477,-255 477,-233 363,-233"/>
<text text-anchor="start" x="383" y="-241.2" font-family="Helvetica,sans-Serif" font-size="11.00">geom</text>
<polygon fill="none" stroke="black" points="477,-233 477,-255 613,-255 613,-233 477,-233"/>
<text text-anchor="start" x="480" y="-241.2" font-family="Helvetica,sans-Serif" font-size="11.00">geometry[2147483647]</text>
<polygon fill="none" stroke="black" points="363,-211 363,-233 477,-233 477,-211 363,-211"/>
<text text-anchor="start" x="383" y="-219.2" font-family="Helvetica,sans-Serif" font-size="11.00">datumtijd</text>
<polygon fill="none" stroke="black" points="477,-211 477,-233 613,-233 613,-211 477,-211"/>
<text text-anchor="start" x="480" y="-219.2" font-family="Helvetica,sans-Serif" font-size="11.00">timestamptz[35,6]</text>
<polygon fill="none" stroke="black" points="363,-189 363,-211 477,-211 477,-189 363,-189"/>
<text text-anchor="start" x="383" y="-197.2" font-family="Helvetica,sans-Serif" font-size="11.00">gebruiker</text>
<polygon fill="none" stroke="black" points="477,-189 477,-211 613,-211 613,-189 477,-189"/>
<text text-anchor="start" x="480" y="-197.2" font-family="Helvetica,sans-Serif" font-size="11.00">varchar[255]</text>
<polygon fill="none" stroke="black" points="363,-167 363,-189 477,-189 477,-167 363,-167"/>
<text text-anchor="start" x="383" y="-175.2" font-family="Helvetica,sans-Serif" font-size="11.00">label</text>
<polygon fill="none" stroke="black" points="477,-167 477,-189 613,-189 613,-167 477,-167"/>
<text text-anchor="start" x="480" y="-175.2" font-family="Helvetica,sans-Serif" font-size="11.00">text[2147483647]</text>
<polygon fill="none" stroke="black" points="363,-145 363,-167 477,-167 477,-145 363,-145"/>
<text text-anchor="start" x="383" y="-153.2" font-family="Helvetica,sans-Serif" font-size="11.00">rotatie</text>
<polygon fill="none" stroke="black" points="477,-145 477,-167 613,-167 613,-145 477,-145"/>
<text text-anchor="start" x="480" y="-153.2" font-family="Helvetica,sans-Serif" font-size="11.00">int4[10]</text>
<polygon fill="none" stroke="black" points="363,-123 363,-145 477,-145 477,-123 363,-123"/>
<text text-anchor="start" x="383" y="-131.2" font-family="Helvetica,sans-Serif" font-size="11.00">bijzonderheden</text>
<polygon fill="none" stroke="black" points="477,-123 477,-145 613,-145 613,-123 477,-123"/>
<text text-anchor="start" x="480" y="-131.2" font-family="Helvetica,sans-Serif" font-size="11.00">text[2147483647]</text>
<polygon fill="none" stroke="black" points="363,-101 363,-123 477,-123 477,-101 363,-101"/>
<text text-anchor="start" x="383" y="-109.2" font-family="Helvetica,sans-Serif" font-size="11.00">plusinfo</text>
<polygon fill="none" stroke="black" points="477,-101 477,-123 613,-123 613,-101 477,-101"/>
<text text-anchor="start" x="480" y="-109.2" font-family="Helvetica,sans-Serif" font-size="11.00">jsonb[2147483647]</text>
<polygon fill="#ffffff" stroke="transparent" points="363,-79 363,-101 477,-101 477,-79 363,-79"/>
<polygon fill="none" stroke="black" points="363,-79 363,-101 477,-101 477,-79 363,-79"/>
<image xlink:href="../../images/foreignKeys.png" width="11px" height="12px" preserveAspectRatio="xMinYMin meet" x="368" y="-96"/>
<text text-anchor="start" x="383" y="-87.2" font-family="Helvetica,sans-Serif" font-size="11.00">object_uuid</text>
<polygon fill="none" stroke="black" points="477,-79 477,-101 613,-101 613,-79 477,-79"/>
<text text-anchor="start" x="480" y="-87.2" font-family="Helvetica,sans-Serif" font-size="11.00">uuid[2147483647]</text>
<polygon fill="none" stroke="black" points="363,-57 363,-79 477,-79 477,-57 363,-57"/>
<image xlink:href="../../images/foreignKeys.png" width="11px" height="12px" preserveAspectRatio="xMinYMin meet" x="368" y="-74"/>
<text text-anchor="start" x="383" y="-65.2" font-family="Helvetica,sans-Serif" font-size="11.00">annotatie_id</text>
<polygon fill="none" stroke="black" points="477,-57 477,-79 613,-79 613,-57 477,-57"/>
<text text-anchor="start" x="480" y="-65.2" font-family="Helvetica,sans-Serif" font-size="11.00">int2[5]</text>
<polygon fill="#ffffff" stroke="transparent" points="363,-39 363,-57 426,-57 426,-39 363,-39"/>
<polygon fill="none" stroke="black" points="363,-39 363,-57 426,-57 426,-39 363,-39"/>
<text text-anchor="start" x="366" y="-45.2" font-family="Helvetica,sans-Serif" font-size="11.00">&lt; 2</text>
<polygon fill="#ffffff" stroke="transparent" points="426,-39 426,-57 477,-57 477,-39 426,-39"/>
<polygon fill="none" stroke="black" points="426,-39 426,-57 477,-57 477,-39 426,-39"/>
<text text-anchor="start" x="466" y="-45.2" font-family="Helvetica,sans-Serif" font-size="11.00"> &#160;</text>
<polygon fill="#ffffff" stroke="transparent" points="477,-39 477,-57 613,-57 613,-39 477,-39"/>
<polygon fill="none" stroke="black" points="477,-39 477,-57 613,-57 613,-39 477,-39"/>
<text text-anchor="start" x="590" y="-45.2" font-family="Helvetica,sans-Serif" font-size="11.00">0 &gt;</text>
<polygon fill="none" stroke="black" stroke-width="2" points="362,-38 362,-300 614,-300 614,-38 362,-38"/>
</a>
</g>
</g>
<!-- label&#45;&gt;object -->
<g id="edge3" class="edge">
<title>label:w&#45;&gt;object:e</title>
<path fill="none" stroke="black" d="M348.19,-95.04C299.86,-137.09 382.44,-428 312,-428"/>
<polygon fill="black" stroke="black" points="354.48,-92.74 363.23,-93.38 358.24,-91.37 362,-90 362,-90 362,-90 358.24,-91.37 360.77,-86.62 354.48,-92.74 354.48,-92.74"/>
<ellipse fill="none" stroke="black" cx="351.48" cy="-93.84" rx="3.2" ry="3.2"/>
</g>
<!-- roi.annotatie -->
<g id="node4" class="node">
<title>roi.annotatie</title>
<g id="a_node4"><a xlink:href="../../../roi/tables/annotatie.html" xlink:title="roi.annotatie" target="_top">
<polygon fill="#ffffff" stroke="transparent" points="180,-39 180,-97 312,-97 312,-39 180,-39"/>
<polygon fill="#f5f5f5" stroke="transparent" points="180,-75 180,-97 312,-97 312,-75 180,-75"/>
<polygon fill="none" stroke="black" points="180,-75 180,-97 312,-97 312,-75 180,-75"/>
<text text-anchor="start" x="185" y="-84.2" font-family="Helvetica,sans-Serif" font-weight="bold" font-size="11.00">roi.annotatie</text>
<text text-anchor="start" x="270" y="-83.2" font-family="Helvetica,sans-Serif" font-size="11.00">[table]</text>
<polygon fill="none" stroke="black" points="180,-57 180,-75 312,-75 312,-57 180,-57"/>
<text text-anchor="start" x="183" y="-63.2" font-family="Helvetica,sans-Serif" font-size="11.00">...</text>
<polygon fill="#ffffff" stroke="transparent" points="180,-39 180,-57 233,-57 233,-39 180,-39"/>
<polygon fill="none" stroke="black" points="180,-39 180,-57 233,-57 233,-39 180,-39"/>
<text text-anchor="start" x="183" y="-45.2" font-family="Helvetica,sans-Serif" font-size="11.00"> &#160;</text>
<polygon fill="#ffffff" stroke="transparent" points="233,-39 233,-57 266,-57 266,-39 233,-39"/>
<polygon fill="none" stroke="black" points="233,-39 233,-57 266,-57 266,-39 233,-39"/>
<text text-anchor="start" x="255" y="-45.2" font-family="Helvetica,sans-Serif" font-size="11.00"> &#160;</text>
<polygon fill="#ffffff" stroke="transparent" points="266,-39 266,-57 312,-57 312,-39 266,-39"/>
<polygon fill="none" stroke="black" points="266,-39 266,-57 312,-57 312,-39 266,-39"/>
<text text-anchor="start" x="289" y="-45.2" font-family="Helvetica,sans-Serif" font-size="11.00">1 &gt;</text>
</a>
</g>
</g>
<!-- label&#45;&gt;roi.annotatie -->
<g id="edge2" class="edge">
<title>label:w&#45;&gt;roi.annotatie:e</title>
<path fill="none" stroke="black" d="M347.41,-68C338.31,-68 329.04,-68 320,-68"/>
<polygon fill="black" stroke="black" points="354,-68 362,-71.6 358,-68 362,-68 362,-68 362,-68 358,-68 362,-64.4 354,-68 354,-68"/>
<ellipse fill="none" stroke="black" cx="350.8" cy="-68" rx="3.2" ry="3.2"/>
</g>
<!-- maatregel -->
<g id="node5" class="node">
<title>maatregel</title>
<g id="a_node5"><a xlink:href="../../tables/maatregel.html" xlink:title="maatregel" target="_top">
<polygon fill="#ffffff" stroke="transparent" points="430.5,-480 430.5,-538 545.5,-538 545.5,-480 430.5,-480"/>
<polygon fill="#f5f5f5" stroke="transparent" points="431,-516 431,-538 546,-538 546,-516 431,-516"/>
<polygon fill="none" stroke="black" points="431,-516 431,-538 546,-538 546,-516 431,-516"/>
<text text-anchor="start" x="436" y="-525.2" font-family="Helvetica,sans-Serif" font-weight="bold" font-size="11.00">maatregel</text>
<text text-anchor="start" x="504" y="-524.2" font-family="Helvetica,sans-Serif" font-size="11.00">[table]</text>
<polygon fill="none" stroke="black" points="431,-498 431,-516 546,-516 546,-498 431,-498"/>
<text text-anchor="start" x="434" y="-504.2" font-family="Helvetica,sans-Serif" font-size="11.00">...</text>
<polygon fill="#ffffff" stroke="transparent" points="431,-480 431,-498 487,-498 487,-480 431,-480"/>
<polygon fill="none" stroke="black" points="431,-480 431,-498 487,-498 487,-480 431,-480"/>
<text text-anchor="start" x="434" y="-486.2" font-family="Helvetica,sans-Serif" font-size="11.00">&lt; 2</text>
<polygon fill="#ffffff" stroke="transparent" points="487,-480 487,-498 516,-498 516,-480 487,-480"/>
<polygon fill="none" stroke="black" points="487,-480 487,-498 516,-498 516,-480 487,-480"/>
<text text-anchor="start" x="505" y="-486.2" font-family="Helvetica,sans-Serif" font-size="11.00"> &#160;</text>
<polygon fill="#ffffff" stroke="transparent" points="516,-480 516,-498 546,-498 546,-480 516,-480"/>
<polygon fill="none" stroke="black" points="516,-480 516,-498 546,-498 546,-480 516,-480"/>
<text text-anchor="start" x="535" y="-486.2" font-family="Helvetica,sans-Serif" font-size="11.00"> &#160;</text>
</a>
</g>
</g>
<!-- maatregel&#45;&gt;object -->
<g id="edge4" class="edge">
<title>maatregel:w&#45;&gt;object:e</title>
<path fill="none" stroke="black" d="M415.6,-506.14C389.28,-502.68 379.5,-489.03 353,-470 331.81,-454.79 338.09,-428 312,-428"/>
<polygon fill="black" stroke="black" points="422.01,-506.52 429.79,-510.59 426.01,-506.76 430,-507 430,-507 430,-507 426.01,-506.76 430.21,-503.41 422.01,-506.52 422.01,-506.52"/>
<ellipse fill="none" stroke="black" cx="418.82" cy="-506.33" rx="3.2" ry="3.2"/>
</g>
<!-- sector -->
<g id="node8" class="node">
<title>sector</title>
<g id="a_node8"><a xlink:href="../../tables/sector.html" xlink:title="sector" target="_top">
<polygon fill="#ffffff" stroke="transparent" points="442.5,-401 442.5,-459 533.5,-459 533.5,-401 442.5,-401"/>
<polygon fill="#f5f5f5" stroke="transparent" points="443,-437 443,-459 534,-459 534,-437 443,-437"/>
<polygon fill="none" stroke="black" points="443,-437 443,-459 534,-459 534,-437 443,-437"/>
<text text-anchor="start" x="448" y="-446.2" font-family="Helvetica,sans-Serif" font-weight="bold" font-size="11.00">sector</text>
<text text-anchor="start" x="492" y="-445.2" font-family="Helvetica,sans-Serif" font-size="11.00">[table]</text>
<polygon fill="none" stroke="black" points="443,-419 443,-437 534,-437 534,-419 443,-419"/>
<text text-anchor="start" x="446" y="-425.2" font-family="Helvetica,sans-Serif" font-size="11.00">...</text>
<polygon fill="#ffffff" stroke="transparent" points="443,-401 443,-419 487,-419 487,-401 443,-401"/>
<polygon fill="none" stroke="black" points="443,-401 443,-419 487,-419 487,-401 443,-401"/>
<text text-anchor="start" x="446" y="-407.2" font-family="Helvetica,sans-Serif" font-size="11.00">&lt; 2</text>
<polygon fill="#ffffff" stroke="transparent" points="487,-401 487,-419 510,-419 510,-401 487,-401"/>
<polygon fill="none" stroke="black" points="487,-401 487,-419 510,-419 510,-401 487,-401"/>
<text text-anchor="start" x="499" y="-407.2" font-family="Helvetica,sans-Serif" font-size="11.00"> &#160;</text>
<polygon fill="#ffffff" stroke="transparent" points="510,-401 510,-419 534,-419 534,-401 510,-401"/>
<polygon fill="none" stroke="black" points="510,-401 510,-419 534,-419 534,-401 510,-401"/>
<text text-anchor="start" x="523" y="-407.2" font-family="Helvetica,sans-Serif" font-size="11.00"> &#160;</text>
</a>
</g>
</g>
<!-- sector&#45;&gt;object -->
<g id="edge7" class="edge">
<title>sector:w&#45;&gt;object:e</title>
<path fill="none" stroke="black" d="M427.41,-428C381.28,-428 364.59,-428 312,-428"/>
<polygon fill="black" stroke="black" points="434,-428 442,-431.6 438,-428 442,-428 442,-428 442,-428 438,-428 442,-424.4 434,-428 434,-428"/>
<ellipse fill="none" stroke="black" cx="430.8" cy="-428" rx="3.2" ry="3.2"/>
</g>
<!-- voorziening -->
<g id="node9" class="node">
<title>voorziening</title>
<g id="a_node9"><a xlink:href="../../tables/voorziening.html" xlink:title="voorziening" target="_top">
<polygon fill="#ffffff" stroke="transparent" points="426,-322 426,-380 550,-380 550,-322 426,-322"/>
<polygon fill="#f5f5f5" stroke="transparent" points="426,-358 426,-380 550,-380 550,-358 426,-358"/>
<polygon fill="none" stroke="black" points="426,-358 426,-380 550,-380 550,-358 426,-358"/>
<text text-anchor="start" x="431" y="-367.2" font-family="Helvetica,sans-Serif" font-weight="bold" font-size="11.00">voorziening</text>
<text text-anchor="start" x="508" y="-366.2" font-family="Helvetica,sans-Serif" font-size="11.00">[table]</text>
<polygon fill="none" stroke="black" points="426,-340 426,-358 550,-358 550,-340 426,-340"/>
<text text-anchor="start" x="429" y="-346.2" font-family="Helvetica,sans-Serif" font-size="11.00">...</text>
<polygon fill="#ffffff" stroke="transparent" points="426,-322 426,-340 487,-340 487,-322 426,-322"/>
<polygon fill="none" stroke="black" points="426,-322 426,-340 487,-340 487,-322 426,-322"/>
<text text-anchor="start" x="429" y="-328.2" font-family="Helvetica,sans-Serif" font-size="11.00">&lt; 2</text>
<polygon fill="#ffffff" stroke="transparent" points="487,-322 487,-340 518,-340 518,-322 487,-322"/>
<polygon fill="none" stroke="black" points="487,-322 487,-340 518,-340 518,-322 487,-322"/>
<text text-anchor="start" x="507" y="-328.2" font-family="Helvetica,sans-Serif" font-size="11.00"> &#160;</text>
<polygon fill="#ffffff" stroke="transparent" points="518,-322 518,-340 550,-340 550,-322 518,-322"/>
<polygon fill="none" stroke="black" points="518,-322 518,-340 550,-340 550,-322 518,-322"/>
<text text-anchor="start" x="539" y="-328.2" font-family="Helvetica,sans-Serif" font-size="11.00"> &#160;</text>
</a>
</g>
</g>
<!-- voorziening&#45;&gt;object -->
<g id="edge8" class="edge">
<title>voorziening:w&#45;&gt;object:e</title>
<path fill="none" stroke="black" d="M410.43,-350.27C385.91,-355.02 378.47,-372.39 353,-391 333.18,-405.48 336.55,-428 312,-428"/>
<polygon fill="black" stroke="black" points="417.03,-349.7 425.31,-352.59 421.02,-349.35 425,-349 425,-349 425,-349 421.02,-349.35 424.69,-345.41 417.03,-349.7 417.03,-349.7"/>
<ellipse fill="none" stroke="black" cx="413.84" cy="-349.97" rx="3.2" ry="3.2"/>
</g>
</g>
</svg>
