<?xml version="1.0" encoding="UTF-8" standalone="no"?>
<!DOCTYPE svg PUBLIC "-//W3C//DTD SVG 1.1//EN"
 "http://www.w3.org/Graphics/SVG/1.1/DTD/svg11.dtd">
<!-- Generated by graphviz version 2.40.1 (20161225.0304)
 -->
<!-- Title: twoDegreesRelationshipsDiagram Pages: 1 -->
<svg width="402pt" height="258pt"
 viewBox="0.00 0.00 402.00 257.70" xmlns="http://www.w3.org/2000/svg" xmlns:xlink="http://www.w3.org/1999/xlink">
<g id="graph0" class="graph" transform="scale(1 1) rotate(0) translate(4 253.7)">
<title>twoDegreesRelationshipsDiagram</title>
<polygon fill="#ffffff" stroke="transparent" points="-4,4 -4,-253.7 398,-253.7 398,4 -4,4"/>
<text text-anchor="middle" x="72.4936" y="-7.3" font-family="Helvetica,sans-Serif" font-size="11.00" fill="#000000">Generated by SchemaSpy</text>
<!-- maatregel -->
<g id="node1" class="node">
<title>maatregel</title>
<g id="a_node1"><a xlink:href="../../tables/maatregel.html" xlink:title="maatregel" target="_top">
<polygon fill="#ffffff" stroke="transparent" points="260,-96.7 260,-245.7 386,-245.7 386,-96.7 260,-96.7"/>
<polygon fill="#f5f5f5" stroke="transparent" points="260,-222.2 260,-245.2 386,-245.2 386,-222.2 260,-222.2"/>
<polygon fill="none" stroke="#000000" points="260,-222.2 260,-245.2 386,-245.2 386,-222.2 260,-222.2"/>
<text text-anchor="start" x="265" y="-230.8" font-family="Helvetica,sans-Serif" font-weight="bold" font-size="11.00" fill="#000000">maatregel</text>
<text text-anchor="start" x="351.0437" y="-230.3" font-family="Helvetica,sans-Serif" font-size="11.00" fill="#000000">[table]</text>
<polygon fill="none" stroke="#000000" points="260,-200.2 260,-222.2 386,-222.2 386,-200.2 260,-200.2"/>
<image xlink:href="../../images/primaryKeys.png" width="11px" height="12px" preserveAspectRatio="xMinYMin meet" x="265" y="-217.2"/>
<text text-anchor="start" x="280" y="-207.3" font-family="Helvetica,sans-Serif" font-size="11.00" fill="#000000">uuid</text>
<polygon fill="#ffffff" stroke="transparent" points="260,-178.2 260,-200.2 386,-200.2 386,-178.2 260,-178.2"/>
<polygon fill="none" stroke="#000000" points="260,-178.2 260,-200.2 386,-200.2 386,-178.2 260,-178.2"/>
<text text-anchor="start" x="280" y="-185.3" font-family="Helvetica,sans-Serif" font-size="11.00" fill="#000000">geom</text>
<polygon fill="#ffffff" stroke="transparent" points="260,-156.2 260,-178.2 386,-178.2 386,-156.2 260,-156.2"/>
<polygon fill="none" stroke="#000000" points="260,-156.2 260,-178.2 386,-178.2 386,-156.2 260,-156.2"/>
<image xlink:href="../../images/foreignKeys.png" width="11px" height="12px" preserveAspectRatio="xMinYMin meet" x="265" y="-173.2"/>
<text text-anchor="start" x="280" y="-163.3" font-family="Helvetica,sans-Serif" font-size="11.00" fill="#000000">object_uuid</text>
<polygon fill="none" stroke="#000000" points="260,-134.2 260,-156.2 386,-156.2 386,-134.2 260,-134.2"/>
<image xlink:href="../../images/foreignKeys.png" width="11px" height="12px" preserveAspectRatio="xMinYMin meet" x="265" y="-151.2"/>
<text text-anchor="start" x="280" y="-141.3" font-family="Helvetica,sans-Serif" font-size="11.00" fill="#000000">maatregel_type_id</text>
<polygon fill="none" stroke="#000000" points="260,-115.2 260,-134.2 386,-134.2 386,-115.2 260,-115.2"/>
<text text-anchor="start" x="263" y="-121.3" font-family="Helvetica,sans-Serif" font-size="11.00" fill="#000000">...</text>
<polygon fill="#ffffff" stroke="transparent" points="260,-96.2 260,-115.2 321,-115.2 321,-96.2 260,-96.2"/>
<polygon fill="none" stroke="#000000" points="260,-96.2 260,-115.2 321,-115.2 321,-96.2 260,-96.2"/>
<text text-anchor="start" x="263" y="-102.3" font-family="Helvetica,sans-Serif" font-size="11.00" fill="#000000">&lt; 2</text>
<polygon fill="#ffffff" stroke="transparent" points="321,-96.2 321,-115.2 353,-115.2 353,-96.2 321,-96.2"/>
<polygon fill="none" stroke="#000000" points="321,-96.2 321,-115.2 353,-115.2 353,-96.2 321,-96.2"/>
<text text-anchor="start" x="343.8862" y="-102.3" font-family="Helvetica,sans-Serif" font-size="11.00" fill="#000000"> &#160;</text>
<polygon fill="#ffffff" stroke="transparent" points="353,-96.2 353,-115.2 386,-115.2 386,-96.2 353,-96.2"/>
<polygon fill="none" stroke="#000000" points="353,-96.2 353,-115.2 386,-115.2 386,-96.2 353,-96.2"/>
<text text-anchor="start" x="376.8862" y="-102.3" font-family="Helvetica,sans-Serif" font-size="11.00" fill="#000000"> &#160;</text>
</a>
</g>
</g>
<!-- maatregel_type -->
<g id="node2" class="node">
<title>maatregel_type</title>
<g id="a_node2"><a xlink:href="../../tables/maatregel_type.html" xlink:title="maatregel_type" target="_top">
<polygon fill="#ffffff" stroke="transparent" points="8,-38.2 8,-150.2 211,-150.2 211,-38.2 8,-38.2"/>
<polygon fill="#f5f5f5" stroke="transparent" points="10.5,-125.2 10.5,-148.2 209.5,-148.2 209.5,-125.2 10.5,-125.2"/>
<polygon fill="none" stroke="#000000" points="10.5,-125.2 10.5,-148.2 209.5,-148.2 209.5,-125.2 10.5,-125.2"/>
<text text-anchor="start" x="15.5" y="-133.8" font-family="Helvetica,sans-Serif" font-weight="bold" font-size="11.00" fill="#000000">maatregel_type</text>
<text text-anchor="start" x="174.5437" y="-133.3" font-family="Helvetica,sans-Serif" font-size="11.00" fill="#000000">[table]</text>
<polygon fill="none" stroke="#000000" points="10.5,-103.2 10.5,-125.2 119.5,-125.2 119.5,-103.2 10.5,-103.2"/>
<image xlink:href="../../images/primaryKeys.png" width="11px" height="12px" preserveAspectRatio="xMinYMin meet" x="15.5" y="-120.2"/>
<text text-anchor="start" x="30.5" y="-110.3" font-family="Helvetica,sans-Serif" font-size="11.00" fill="#000000">id</text>
<polygon fill="none" stroke="#000000" points="119.5,-103.2 119.5,-125.2 209.5,-125.2 209.5,-103.2 119.5,-103.2"/>
<text text-anchor="start" x="122.5" y="-110.9" font-family="Helvetica,sans-Serif" font-size="11.00" fill="#000000">int2[5]</text>
<polygon fill="none" stroke="#000000" points="10.5,-81.2 10.5,-103.2 119.5,-103.2 119.5,-81.2 10.5,-81.2"/>
<text text-anchor="start" x="30.5" y="-88.3" font-family="Helvetica,sans-Serif" font-size="11.00" fill="#000000">naam</text>
<polygon fill="none" stroke="#000000" points="119.5,-81.2 119.5,-103.2 209.5,-103.2 209.5,-81.2 119.5,-81.2"/>
<text text-anchor="start" x="122.0042" y="-88.9" font-family="Helvetica,sans-Serif" font-size="11.00" fill="#000000">text[2147483647]</text>
<polygon fill="none" stroke="#000000" points="10.5,-59.2 10.5,-81.2 119.5,-81.2 119.5,-59.2 10.5,-59.2"/>
<text text-anchor="start" x="30.5" y="-66.3" font-family="Helvetica,sans-Serif" font-size="11.00" fill="#000000">omschrijving</text>
<polygon fill="none" stroke="#000000" points="119.5,-59.2 119.5,-81.2 209.5,-81.2 209.5,-59.2 119.5,-59.2"/>
<text text-anchor="start" x="122.0042" y="-66.9" font-family="Helvetica,sans-Serif" font-size="11.00" fill="#000000">text[2147483647]</text>
<polygon fill="#ffffff" stroke="transparent" points="10.5,-40.2 10.5,-59.2 69.5,-59.2 69.5,-40.2 10.5,-40.2"/>
<polygon fill="none" stroke="#000000" points="10.5,-40.2 10.5,-59.2 69.5,-59.2 69.5,-40.2 10.5,-40.2"/>
<text text-anchor="start" x="13.5" y="-46.3" font-family="Helvetica,sans-Serif" font-size="11.00" fill="#000000">&lt; 0</text>
<polygon fill="#ffffff" stroke="transparent" points="69.5,-40.2 69.5,-59.2 119.5,-59.2 119.5,-40.2 69.5,-40.2"/>
<polygon fill="none" stroke="#000000" points="69.5,-40.2 69.5,-59.2 119.5,-59.2 119.5,-40.2 69.5,-40.2"/>
<text text-anchor="start" x="110.3862" y="-46.3" font-family="Helvetica,sans-Serif" font-size="11.00" fill="#000000"> &#160;</text>
<polygon fill="#ffffff" stroke="transparent" points="119.5,-40.2 119.5,-59.2 209.5,-59.2 209.5,-40.2 119.5,-40.2"/>
<polygon fill="none" stroke="#000000" points="119.5,-40.2 119.5,-59.2 209.5,-59.2 209.5,-40.2 119.5,-40.2"/>
<text text-anchor="start" x="190.9053" y="-46.3" font-family="Helvetica,sans-Serif" font-size="11.00" fill="#000000">1 &gt;</text>
<polygon fill="none" stroke="#000000" stroke-width="2" points="9,-39.2 9,-149.2 210,-149.2 210,-39.2 9,-39.2"/>
</a>
</g>
</g>
<!-- maatregel&#45;&gt;maatregel_type -->
<g id="edge1" class="edge">
<title>maatregel:w&#45;&gt;maatregel_type:e</title>
<path fill="none" stroke="#000000" d="M245.8267,-141.1473C233.1849,-132.7444 229.8692,-114.2 209.5,-114.2"/>
<polygon fill="#000000" stroke="#000000" points="252.3083,-143.0006 259.0103,-148.6613 256.1541,-144.1003 260,-145.2 260,-145.2 260,-145.2 256.1541,-144.1003 260.9897,-141.7387 252.3083,-143.0006 252.3083,-143.0006"/>
<ellipse fill="none" stroke="#000000" cx="249.2316" cy="-142.1208" rx="3.2" ry="3.2"/>
</g>
<!-- object -->
<g id="node3" class="node">
<title>object</title>
<g id="a_node3"><a xlink:href="../../tables/object.html" xlink:title="object" target="_top">
<polygon fill="#ffffff" stroke="transparent" points="72.5,-171.7 72.5,-232.7 146.5,-232.7 146.5,-171.7 72.5,-171.7"/>
<polygon fill="#f5f5f5" stroke="transparent" points="72.5,-209.2 72.5,-232.2 146.5,-232.2 146.5,-209.2 72.5,-209.2"/>
<polygon fill="none" stroke="#000000" points="72.5,-209.2 72.5,-232.2 146.5,-232.2 146.5,-209.2 72.5,-209.2"/>
<text text-anchor="start" x="77.5" y="-217.8" font-family="Helvetica,sans-Serif" font-weight="bold" font-size="11.00" fill="#000000">object</text>
<text text-anchor="start" x="112.0219" y="-217.3" font-family="Helvetica,sans-Serif" font-size="11.00" fill="#000000">[table]</text>
<polygon fill="none" stroke="#000000" points="72.5,-190.2 72.5,-209.2 146.5,-209.2 146.5,-190.2 72.5,-190.2"/>
<text text-anchor="start" x="75.5" y="-196.3" font-family="Helvetica,sans-Serif" font-size="11.00" fill="#000000">...</text>
<polygon fill="#ffffff" stroke="transparent" points="72.5,-171.2 72.5,-190.2 103.5,-190.2 103.5,-171.2 72.5,-171.2"/>
<polygon fill="none" stroke="#000000" points="72.5,-171.2 72.5,-190.2 103.5,-190.2 103.5,-171.2 72.5,-171.2"/>
<text text-anchor="start" x="75.5" y="-177.3" font-family="Helvetica,sans-Serif" font-size="11.00" fill="#000000">&lt; 2</text>
<polygon fill="#ffffff" stroke="transparent" points="103.5,-171.2 103.5,-190.2 120.5,-190.2 120.5,-171.2 103.5,-171.2"/>
<polygon fill="none" stroke="#000000" points="103.5,-171.2 103.5,-190.2 120.5,-190.2 120.5,-171.2 103.5,-171.2"/>
<text text-anchor="start" x="111.3862" y="-177.3" font-family="Helvetica,sans-Serif" font-size="11.00" fill="#000000"> &#160;</text>
<polygon fill="#ffffff" stroke="transparent" points="120.5,-171.2 120.5,-190.2 146.5,-190.2 146.5,-171.2 120.5,-171.2"/>
<polygon fill="none" stroke="#000000" points="120.5,-171.2 120.5,-190.2 146.5,-190.2 146.5,-171.2 120.5,-171.2"/>
<text text-anchor="start" x="127.9053" y="-177.3" font-family="Helvetica,sans-Serif" font-size="11.00" fill="#000000">5 &gt;</text>
</a>
</g>
</g>
<!-- maatregel&#45;&gt;object -->
<g id="edge2" class="edge">
<title>maatregel:w&#45;&gt;object:e</title>
<path fill="none" stroke="#000000" d="M245.5534,-168.0893C205.4263,-173.2575 193.6904,-199.2 146.5,-199.2"/>
<polygon fill="#000000" stroke="#000000" points="252.0151,-167.6916 260.2212,-170.7932 256.0076,-167.4458 260,-167.2 260,-167.2 260,-167.2 256.0076,-167.4458 259.7788,-163.6068 252.0151,-167.6916 252.0151,-167.6916"/>
<ellipse fill="none" stroke="#000000" cx="248.8212" cy="-167.8882" rx="3.2" ry="3.2"/>
</g>
</g>
</svg>
