<?xml version="1.0" encoding="UTF-8" standalone="no"?>
<!DOCTYPE svg PUBLIC "-//W3C//DTD SVG 1.1//EN"
 "http://www.w3.org/Graphics/SVG/1.1/DTD/svg11.dtd">
<!-- Generated by graphviz version 2.50.0 (0)
 -->
<!-- Title: oneDegreeRelationshipsDiagram Pages: 1 -->
<svg width="492pt" height="412pt"
 viewBox="0.00 0.00 492.00 412.00" xmlns="http://www.w3.org/2000/svg" xmlns:xlink="http://www.w3.org/1999/xlink">
<g id="graph0" class="graph" transform="scale(1 1) rotate(0) translate(4 408)">
<title>oneDegreeRelationshipsDiagram</title>
<polygon fill="#ffffff" stroke="transparent" points="-4,4 -4,-408 488,-408 488,4 -4,4"/>
<text text-anchor="middle" x="79.5" y="-7.2" font-family="Helvetica,sans-Serif" font-size="11.00">Generated by SchemaSpy</text>
<!-- maatregel -->
<g id="node1" class="node">
<title>maatregel</title>
<g id="a_node1"><a xlink:href="../../tables/maatregel.html" xlink:title="maatregel" target="_top">
<polygon fill="#ffffff" stroke="transparent" points="205,-136 205,-400 476,-400 476,-136 205,-136"/>
<polygon fill="#f5f5f5" stroke="transparent" points="207.5,-376 207.5,-398 474.5,-398 474.5,-376 207.5,-376"/>
<polygon fill="none" stroke="black" points="207.5,-376 207.5,-398 474.5,-398 474.5,-376 207.5,-376"/>
<text text-anchor="start" x="212.5" y="-385.2" font-family="Helvetica,sans-Serif" font-weight="bold" font-size="11.00">maatregel</text>
<text text-anchor="start" x="432.5" y="-384.2" font-family="Helvetica,sans-Serif" font-size="11.00">[table]</text>
<polygon fill="none" stroke="black" points="207.5,-354 207.5,-376 338.5,-376 338.5,-354 207.5,-354"/>
<image xlink:href="../../images/primaryKeys.png" width="11px" height="12px" preserveAspectRatio="xMinYMin meet" x="212.5" y="-371"/>
<text text-anchor="start" x="227.5" y="-362.2" font-family="Helvetica,sans-Serif" font-size="11.00">uuid</text>
<polygon fill="none" stroke="black" points="338.5,-354 338.5,-376 474.5,-376 474.5,-354 338.5,-354"/>
<text text-anchor="start" x="341.5" y="-362.2" font-family="Helvetica,sans-Serif" font-size="11.00">uuid[2147483647]</text>
<polygon fill="#ffffff" stroke="transparent" points="207.5,-332 207.5,-354 338.5,-354 338.5,-332 207.5,-332"/>
<polygon fill="none" stroke="black" points="207.5,-332 207.5,-354 338.5,-354 338.5,-332 207.5,-332"/>
<text text-anchor="start" x="227.5" y="-340.2" font-family="Helvetica,sans-Serif" font-size="11.00">geom</text>
<polygon fill="none" stroke="black" points="338.5,-332 338.5,-354 474.5,-354 474.5,-332 338.5,-332"/>
<text text-anchor="start" x="341.5" y="-340.2" font-family="Helvetica,sans-Serif" font-size="11.00">geometry[2147483647]</text>
<polygon fill="none" stroke="black" points="207.5,-310 207.5,-332 338.5,-332 338.5,-310 207.5,-310"/>
<text text-anchor="start" x="227.5" y="-318.2" font-family="Helvetica,sans-Serif" font-size="11.00">datumtijd</text>
<polygon fill="none" stroke="black" points="338.5,-310 338.5,-332 474.5,-332 474.5,-310 338.5,-310"/>
<text text-anchor="start" x="341.5" y="-318.2" font-family="Helvetica,sans-Serif" font-size="11.00">timestamptz[35,6]</text>
<polygon fill="none" stroke="black" points="207.5,-288 207.5,-310 338.5,-310 338.5,-288 207.5,-288"/>
<text text-anchor="start" x="227.5" y="-296.2" font-family="Helvetica,sans-Serif" font-size="11.00">gebruiker</text>
<polygon fill="none" stroke="black" points="338.5,-288 338.5,-310 474.5,-310 474.5,-288 338.5,-288"/>
<text text-anchor="start" x="341.5" y="-296.2" font-family="Helvetica,sans-Serif" font-size="11.00">varchar[255]</text>
<polygon fill="none" stroke="black" points="207.5,-266 207.5,-288 338.5,-288 338.5,-266 207.5,-266"/>
<text text-anchor="start" x="227.5" y="-274.2" font-family="Helvetica,sans-Serif" font-size="11.00">label</text>
<polygon fill="none" stroke="black" points="338.5,-266 338.5,-288 474.5,-288 474.5,-266 338.5,-266"/>
<text text-anchor="start" x="341.5" y="-274.2" font-family="Helvetica,sans-Serif" font-size="11.00">text[2147483647]</text>
<polygon fill="none" stroke="black" points="207.5,-244 207.5,-266 338.5,-266 338.5,-244 207.5,-244"/>
<text text-anchor="start" x="227.5" y="-252.2" font-family="Helvetica,sans-Serif" font-size="11.00">rotatie</text>
<polygon fill="none" stroke="black" points="338.5,-244 338.5,-266 474.5,-266 474.5,-244 338.5,-244"/>
<text text-anchor="start" x="341.5" y="-252.2" font-family="Helvetica,sans-Serif" font-size="11.00">int4[10]</text>
<polygon fill="none" stroke="black" points="207.5,-222 207.5,-244 338.5,-244 338.5,-222 207.5,-222"/>
<text text-anchor="start" x="227.5" y="-230.2" font-family="Helvetica,sans-Serif" font-size="11.00">bijzonderheden</text>
<polygon fill="none" stroke="black" points="338.5,-222 338.5,-244 474.5,-244 474.5,-222 338.5,-222"/>
<text text-anchor="start" x="341.5" y="-230.2" font-family="Helvetica,sans-Serif" font-size="11.00">text[2147483647]</text>
<polygon fill="none" stroke="black" points="207.5,-200 207.5,-222 338.5,-222 338.5,-200 207.5,-200"/>
<text text-anchor="start" x="227.5" y="-208.2" font-family="Helvetica,sans-Serif" font-size="11.00">plusinfo</text>
<polygon fill="none" stroke="black" points="338.5,-200 338.5,-222 474.5,-222 474.5,-200 338.5,-200"/>
<text text-anchor="start" x="341.5" y="-208.2" font-family="Helvetica,sans-Serif" font-size="11.00">jsonb[2147483647]</text>
<polygon fill="#ffffff" stroke="transparent" points="207.5,-178 207.5,-200 338.5,-200 338.5,-178 207.5,-178"/>
<polygon fill="none" stroke="black" points="207.5,-178 207.5,-200 338.5,-200 338.5,-178 207.5,-178"/>
<image xlink:href="../../images/foreignKeys.png" width="11px" height="12px" preserveAspectRatio="xMinYMin meet" x="212.5" y="-195"/>
<text text-anchor="start" x="227.5" y="-186.2" font-family="Helvetica,sans-Serif" font-size="11.00">object_uuid</text>
<polygon fill="none" stroke="black" points="338.5,-178 338.5,-200 474.5,-200 474.5,-178 338.5,-178"/>
<text text-anchor="start" x="341.5" y="-186.2" font-family="Helvetica,sans-Serif" font-size="11.00">uuid[2147483647]</text>
<polygon fill="none" stroke="black" points="207.5,-156 207.5,-178 338.5,-178 338.5,-156 207.5,-156"/>
<image xlink:href="../../images/foreignKeys.png" width="11px" height="12px" preserveAspectRatio="xMinYMin meet" x="212.5" y="-173"/>
<text text-anchor="start" x="227.5" y="-164.2" font-family="Helvetica,sans-Serif" font-size="11.00">maatregel_type_id</text>
<polygon fill="none" stroke="black" points="338.5,-156 338.5,-178 474.5,-178 474.5,-156 338.5,-156"/>
<text text-anchor="start" x="341.5" y="-164.2" font-family="Helvetica,sans-Serif" font-size="11.00">int2[5]</text>
<polygon fill="#ffffff" stroke="transparent" points="207.5,-138 207.5,-156 278.5,-156 278.5,-138 207.5,-138"/>
<polygon fill="none" stroke="black" points="207.5,-138 207.5,-156 278.5,-156 278.5,-138 207.5,-138"/>
<text text-anchor="start" x="210.5" y="-144.2" font-family="Helvetica,sans-Serif" font-size="11.00">&lt; 2</text>
<polygon fill="#ffffff" stroke="transparent" points="278.5,-138 278.5,-156 338.5,-156 338.5,-138 278.5,-138"/>
<polygon fill="none" stroke="black" points="278.5,-138 278.5,-156 338.5,-156 338.5,-138 278.5,-138"/>
<text text-anchor="start" x="327.5" y="-144.2" font-family="Helvetica,sans-Serif" font-size="11.00"> &#160;</text>
<polygon fill="#ffffff" stroke="transparent" points="338.5,-138 338.5,-156 474.5,-156 474.5,-138 338.5,-138"/>
<polygon fill="none" stroke="black" points="338.5,-138 338.5,-156 474.5,-156 474.5,-138 338.5,-138"/>
<text text-anchor="start" x="451.5" y="-144.2" font-family="Helvetica,sans-Serif" font-size="11.00">0 &gt;</text>
<polygon fill="none" stroke="black" stroke-width="2" points="206,-137 206,-399 475,-399 475,-137 206,-137"/>
</a>
</g>
</g>
<!-- maatregel_type -->
<g id="node2" class="node">
<title>maatregel_type</title>
<g id="a_node2"><a xlink:href="../../tables/maatregel_type.html" xlink:title="maatregel_type" target="_top">
<polygon fill="#ffffff" stroke="transparent" points="8,-37 8,-117 156,-117 156,-37 8,-37"/>
<polygon fill="#f5f5f5" stroke="transparent" points="8,-95 8,-117 156,-117 156,-95 8,-95"/>
<polygon fill="none" stroke="black" points="8,-95 8,-117 156,-117 156,-95 8,-95"/>
<text text-anchor="start" x="13" y="-104.2" font-family="Helvetica,sans-Serif" font-weight="bold" font-size="11.00">maatregel_type</text>
<text text-anchor="start" x="114" y="-103.2" font-family="Helvetica,sans-Serif" font-size="11.00">[table]</text>
<polygon fill="none" stroke="black" points="8,-73 8,-95 156,-95 156,-73 8,-73"/>
<image xlink:href="../../images/primaryKeys.png" width="11px" height="12px" preserveAspectRatio="xMinYMin meet" x="13" y="-90"/>
<text text-anchor="start" x="45" y="-81.2" font-family="Helvetica,sans-Serif" font-size="11.00">id</text>
<polygon fill="none" stroke="black" points="8,-55 8,-73 156,-73 156,-55 8,-55"/>
<text text-anchor="start" x="11" y="-61.2" font-family="Helvetica,sans-Serif" font-size="11.00">...</text>
<polygon fill="#ffffff" stroke="transparent" points="8,-37 8,-55 69,-55 69,-37 8,-37"/>
<polygon fill="none" stroke="black" points="8,-37 8,-55 69,-55 69,-37 8,-37"/>
<text text-anchor="start" x="11" y="-43.2" font-family="Helvetica,sans-Serif" font-size="11.00"> &#160;</text>
<polygon fill="#ffffff" stroke="transparent" points="69,-37 69,-55 106,-55 106,-37 69,-37"/>
<polygon fill="none" stroke="black" points="69,-37 69,-55 106,-55 106,-37 69,-37"/>
<text text-anchor="start" x="95" y="-43.2" font-family="Helvetica,sans-Serif" font-size="11.00"> &#160;</text>
<polygon fill="#ffffff" stroke="transparent" points="106,-37 106,-55 156,-55 156,-37 106,-37"/>
<polygon fill="none" stroke="black" points="106,-37 106,-55 156,-55 156,-37 106,-37"/>
<text text-anchor="start" x="133" y="-43.2" font-family="Helvetica,sans-Serif" font-size="11.00">1 &gt;</text>
</a>
</g>
</g>
<!-- maatregel&#45;&gt;maatregel_type -->
<g id="edge1" class="edge">
<title>maatregel:w&#45;&gt;maatregel_type:e</title>
<path fill="none" stroke="black" d="M192.65,-162.54C172.22,-145.3 193.91,-84 157,-84"/>
<polygon fill="black" stroke="black" points="198.89,-164.55 205.4,-170.43 202.69,-165.77 206.5,-167 206.5,-167 206.5,-167 202.69,-165.77 207.6,-163.57 198.89,-164.55 198.89,-164.55"/>
<ellipse fill="none" stroke="black" cx="195.84" cy="-163.57" rx="3.2" ry="3.2"/>
</g>
<!-- object -->
<g id="node3" class="node">
<title>object</title>
<g id="a_node3"><a xlink:href="../../tables/object.html" xlink:title="object" target="_top">
<polygon fill="#ffffff" stroke="transparent" points="17.5,-138 17.5,-306 146.5,-306 146.5,-138 17.5,-138"/>
<polygon fill="#f5f5f5" stroke="transparent" points="18,-284 18,-306 147,-306 147,-284 18,-284"/>
<polygon fill="none" stroke="black" points="18,-284 18,-306 147,-306 147,-284 18,-284"/>
<text text-anchor="start" x="23" y="-293.2" font-family="Helvetica,sans-Serif" font-weight="bold" font-size="11.00">object</text>
<text text-anchor="start" x="105" y="-292.2" font-family="Helvetica,sans-Serif" font-size="11.00">[table]</text>
<polygon fill="none" stroke="black" points="18,-262 18,-284 147,-284 147,-262 18,-262"/>
<image xlink:href="../../images/primaryKeys.png" width="11px" height="12px" preserveAspectRatio="xMinYMin meet" x="23" y="-279"/>
<text text-anchor="start" x="38" y="-270.2" font-family="Helvetica,sans-Serif" font-size="11.00">uuid</text>
<polygon fill="#ffffff" stroke="transparent" points="18,-240 18,-262 147,-262 147,-240 18,-240"/>
<polygon fill="none" stroke="black" points="18,-240 18,-262 147,-262 147,-240 18,-240"/>
<text text-anchor="start" x="38" y="-248.2" font-family="Helvetica,sans-Serif" font-size="11.00">geom</text>
<polygon fill="#ffffff" stroke="transparent" points="18,-218 18,-240 147,-240 147,-218 18,-218"/>
<polygon fill="none" stroke="black" points="18,-218 18,-240 147,-240 147,-218 18,-218"/>
<text text-anchor="start" x="38" y="-226.2" font-family="Helvetica,sans-Serif" font-size="11.00">revisie_frequentie</text>
<polygon fill="#ffffff" stroke="transparent" points="18,-196 18,-218 147,-218 147,-196 18,-196"/>
<polygon fill="none" stroke="black" points="18,-196 18,-218 147,-218 147,-196 18,-196"/>
<image xlink:href="../../images/foreignKeys.png" width="11px" height="12px" preserveAspectRatio="xMinYMin meet" x="23" y="-213"/>
<text text-anchor="start" x="38" y="-204.2" font-family="Helvetica,sans-Serif" font-size="11.00">fase_id</text>
<polygon fill="#ffffff" stroke="transparent" points="18,-174 18,-196 147,-196 147,-174 18,-174"/>
<polygon fill="none" stroke="black" points="18,-174 18,-196 147,-196 147,-174 18,-174"/>
<image xlink:href="../../images/foreignKeys.png" width="11px" height="12px" preserveAspectRatio="xMinYMin meet" x="23" y="-191"/>
<text text-anchor="start" x="38" y="-182.2" font-family="Helvetica,sans-Serif" font-size="11.00">object_type_id</text>
<polygon fill="none" stroke="black" points="18,-156 18,-174 147,-174 147,-156 18,-156"/>
<text text-anchor="start" x="21" y="-162.2" font-family="Helvetica,sans-Serif" font-size="11.00">...</text>
<polygon fill="#ffffff" stroke="transparent" points="18,-138 18,-156 75,-156 75,-138 18,-138"/>
<polygon fill="none" stroke="black" points="18,-138 18,-156 75,-156 75,-138 18,-138"/>
<text text-anchor="start" x="21" y="-144.2" font-family="Helvetica,sans-Serif" font-size="11.00">&lt; 2</text>
<polygon fill="#ffffff" stroke="transparent" points="75,-138 75,-156 105,-156 105,-138 75,-138"/>
<polygon fill="none" stroke="black" points="75,-138 75,-156 105,-156 105,-138 75,-138"/>
<text text-anchor="start" x="94" y="-144.2" font-family="Helvetica,sans-Serif" font-size="11.00"> &#160;</text>
<polygon fill="#ffffff" stroke="transparent" points="105,-138 105,-156 147,-156 147,-138 105,-138"/>
<polygon fill="none" stroke="black" points="105,-138 105,-156 147,-156 147,-138 105,-138"/>
<text text-anchor="start" x="124" y="-144.2" font-family="Helvetica,sans-Serif" font-size="11.00">5 &gt;</text>
</a>
</g>
</g>
<!-- maatregel&#45;&gt;object -->
<g id="edge2" class="edge">
<title>maatregel:w&#45;&gt;object:e</title>
<path fill="none" stroke="black" d="M192.46,-192.83C168.09,-209.26 187.63,-273 148,-273"/>
<polygon fill="black" stroke="black" points="198.78,-191.1 207.45,-192.47 202.64,-190.05 206.5,-189 206.5,-189 206.5,-189 202.64,-190.05 205.55,-185.53 198.78,-191.1 198.78,-191.1"/>
<ellipse fill="none" stroke="black" cx="195.69" cy="-191.95" rx="3.2" ry="3.2"/>
</g>
</g>
</svg>
