<?xml version="1.0" encoding="UTF-8" standalone="no"?>
<!DOCTYPE svg PUBLIC "-//W3C//DTD SVG 1.1//EN"
 "http://www.w3.org/Graphics/SVG/1.1/DTD/svg11.dtd">
<!-- Generated by graphviz version 2.40.1 (20161225.0304)
 -->
<!-- Title: twoDegreesRelationshipsDiagram Pages: 1 -->
<svg width="603pt" height="661pt"
 viewBox="0.00 0.00 603.00 661.20" xmlns="http://www.w3.org/2000/svg" xmlns:xlink="http://www.w3.org/1999/xlink">
<g id="graph0" class="graph" transform="scale(1 1) rotate(0) translate(4 657.2)">
<title>twoDegreesRelationshipsDiagram</title>
<polygon fill="#ffffff" stroke="transparent" points="-4,4 -4,-657.2 599,-657.2 599,4 -4,4"/>
<text text-anchor="middle" x="72.4936" y="-7.3" font-family="Helvetica,sans-Serif" font-size="11.00" fill="#000000">Generated by SchemaSpy</text>
<!-- bereikbaarheid -->
<g id="node1" class="node">
<title>bereikbaarheid</title>
<g id="a_node1"><a xlink:href="../../tables/bereikbaarheid.html" xlink:title="bereikbaarheid" target="_top">
<polygon fill="#ffffff" stroke="transparent" points="400.5,-588.2 400.5,-649.2 524.5,-649.2 524.5,-588.2 400.5,-588.2"/>
<polygon fill="#f5f5f5" stroke="transparent" points="400.5,-625.7 400.5,-648.7 524.5,-648.7 524.5,-625.7 400.5,-625.7"/>
<polygon fill="none" stroke="#000000" points="400.5,-625.7 400.5,-648.7 524.5,-648.7 524.5,-625.7 400.5,-625.7"/>
<text text-anchor="start" x="405.5" y="-634.3" font-family="Helvetica,sans-Serif" font-weight="bold" font-size="11.00" fill="#000000">bereikbaarheid</text>
<text text-anchor="start" x="490.0219" y="-633.8" font-family="Helvetica,sans-Serif" font-size="11.00" fill="#000000">[table]</text>
<polygon fill="none" stroke="#000000" points="400.5,-606.7 400.5,-625.7 524.5,-625.7 524.5,-606.7 400.5,-606.7"/>
<text text-anchor="start" x="403.5" y="-612.8" font-family="Helvetica,sans-Serif" font-size="11.00" fill="#000000">...</text>
<polygon fill="#ffffff" stroke="transparent" points="400.5,-587.7 400.5,-606.7 460.5,-606.7 460.5,-587.7 400.5,-587.7"/>
<polygon fill="none" stroke="#000000" points="400.5,-587.7 400.5,-606.7 460.5,-606.7 460.5,-587.7 400.5,-587.7"/>
<text text-anchor="start" x="403.5" y="-593.8" font-family="Helvetica,sans-Serif" font-size="11.00" fill="#000000">&lt; 2</text>
<polygon fill="#ffffff" stroke="transparent" points="460.5,-587.7 460.5,-606.7 492.5,-606.7 492.5,-587.7 460.5,-587.7"/>
<polygon fill="none" stroke="#000000" points="460.5,-587.7 460.5,-606.7 492.5,-606.7 492.5,-587.7 460.5,-587.7"/>
<text text-anchor="start" x="483.3862" y="-593.8" font-family="Helvetica,sans-Serif" font-size="11.00" fill="#000000"> &#160;</text>
<polygon fill="#ffffff" stroke="transparent" points="492.5,-587.7 492.5,-606.7 524.5,-606.7 524.5,-587.7 492.5,-587.7"/>
<polygon fill="none" stroke="#000000" points="492.5,-587.7 492.5,-606.7 524.5,-606.7 524.5,-587.7 492.5,-587.7"/>
<text text-anchor="start" x="515.3862" y="-593.8" font-family="Helvetica,sans-Serif" font-size="11.00" fill="#000000"> &#160;</text>
</a>
</g>
</g>
<!-- object -->
<g id="node2" class="node">
<title>object</title>
<g id="a_node2"><a xlink:href="../../tables/object.html" xlink:title="object" target="_top">
<polygon fill="#ffffff" stroke="transparent" points="164,-315.2 164,-486.2 287,-486.2 287,-315.2 164,-315.2"/>
<polygon fill="#f5f5f5" stroke="transparent" points="164.5,-462.7 164.5,-485.7 287.5,-485.7 287.5,-462.7 164.5,-462.7"/>
<polygon fill="none" stroke="#000000" points="164.5,-462.7 164.5,-485.7 287.5,-485.7 287.5,-462.7 164.5,-462.7"/>
<text text-anchor="start" x="169.5" y="-471.3" font-family="Helvetica,sans-Serif" font-weight="bold" font-size="11.00" fill="#000000">object</text>
<text text-anchor="start" x="252.5437" y="-470.8" font-family="Helvetica,sans-Serif" font-size="11.00" fill="#000000">[table]</text>
<polygon fill="none" stroke="#000000" points="164.5,-440.7 164.5,-462.7 287.5,-462.7 287.5,-440.7 164.5,-440.7"/>
<image xlink:href="../../images/primaryKeys.png" width="11px" height="12px" preserveAspectRatio="xMinYMin meet" x="169.5" y="-457.7"/>
<text text-anchor="start" x="184.5" y="-447.8" font-family="Helvetica,sans-Serif" font-size="11.00" fill="#000000">uuid</text>
<polygon fill="#ffffff" stroke="transparent" points="164.5,-418.7 164.5,-440.7 287.5,-440.7 287.5,-418.7 164.5,-418.7"/>
<polygon fill="none" stroke="#000000" points="164.5,-418.7 164.5,-440.7 287.5,-440.7 287.5,-418.7 164.5,-418.7"/>
<text text-anchor="start" x="184.5" y="-425.8" font-family="Helvetica,sans-Serif" font-size="11.00" fill="#000000">geom</text>
<polygon fill="#ffffff" stroke="transparent" points="164.5,-396.7 164.5,-418.7 287.5,-418.7 287.5,-396.7 164.5,-396.7"/>
<polygon fill="none" stroke="#000000" points="164.5,-396.7 164.5,-418.7 287.5,-418.7 287.5,-396.7 164.5,-396.7"/>
<text text-anchor="start" x="184.5" y="-403.8" font-family="Helvetica,sans-Serif" font-size="11.00" fill="#000000">revisie_frequentie</text>
<polygon fill="#ffffff" stroke="transparent" points="164.5,-374.7 164.5,-396.7 287.5,-396.7 287.5,-374.7 164.5,-374.7"/>
<polygon fill="none" stroke="#000000" points="164.5,-374.7 164.5,-396.7 287.5,-396.7 287.5,-374.7 164.5,-374.7"/>
<image xlink:href="../../images/foreignKeys.png" width="11px" height="12px" preserveAspectRatio="xMinYMin meet" x="169.5" y="-391.7"/>
<text text-anchor="start" x="184.5" y="-381.8" font-family="Helvetica,sans-Serif" font-size="11.00" fill="#000000">fase_id</text>
<polygon fill="#ffffff" stroke="transparent" points="164.5,-352.7 164.5,-374.7 287.5,-374.7 287.5,-352.7 164.5,-352.7"/>
<polygon fill="none" stroke="#000000" points="164.5,-352.7 164.5,-374.7 287.5,-374.7 287.5,-352.7 164.5,-352.7"/>
<image xlink:href="../../images/foreignKeys.png" width="11px" height="12px" preserveAspectRatio="xMinYMin meet" x="169.5" y="-369.7"/>
<text text-anchor="start" x="184.5" y="-359.8" font-family="Helvetica,sans-Serif" font-size="11.00" fill="#000000">object_type_id</text>
<polygon fill="none" stroke="#000000" points="164.5,-333.7 164.5,-352.7 287.5,-352.7 287.5,-333.7 164.5,-333.7"/>
<text text-anchor="start" x="167.5" y="-339.8" font-family="Helvetica,sans-Serif" font-size="11.00" fill="#000000">...</text>
<polygon fill="#ffffff" stroke="transparent" points="164.5,-314.7 164.5,-333.7 219.5,-333.7 219.5,-314.7 164.5,-314.7"/>
<polygon fill="none" stroke="#000000" points="164.5,-314.7 164.5,-333.7 219.5,-333.7 219.5,-314.7 164.5,-314.7"/>
<text text-anchor="start" x="167.5" y="-320.8" font-family="Helvetica,sans-Serif" font-size="11.00" fill="#000000">&lt; 2</text>
<polygon fill="#ffffff" stroke="transparent" points="219.5,-314.7 219.5,-333.7 248.5,-333.7 248.5,-314.7 219.5,-314.7"/>
<polygon fill="none" stroke="#000000" points="219.5,-314.7 219.5,-333.7 248.5,-333.7 248.5,-314.7 219.5,-314.7"/>
<text text-anchor="start" x="239.3862" y="-320.8" font-family="Helvetica,sans-Serif" font-size="11.00" fill="#000000"> &#160;</text>
<polygon fill="#ffffff" stroke="transparent" points="248.5,-314.7 248.5,-333.7 287.5,-333.7 287.5,-314.7 248.5,-314.7"/>
<polygon fill="none" stroke="#000000" points="248.5,-314.7 248.5,-333.7 287.5,-333.7 287.5,-314.7 248.5,-314.7"/>
<text text-anchor="start" x="268.9053" y="-320.8" font-family="Helvetica,sans-Serif" font-size="11.00" fill="#000000">5 &gt;</text>
</a>
</g>
</g>
<!-- bereikbaarheid&#45;&gt;object -->
<g id="edge1" class="edge">
<title>bereikbaarheid:w&#45;&gt;object:e</title>
<path fill="none" stroke="#000000" d="M386.0987,-614.9681C361.1147,-612.1336 349.5475,-600.8664 330,-577.7 291.8873,-532.5313 346.5998,-451.7 287.5,-451.7"/>
<polygon fill="#000000" stroke="#000000" points="392.5103,-615.2939 400.3172,-619.2954 396.5052,-615.4969 400.5,-615.7 400.5,-615.7 400.5,-615.7 396.5052,-615.4969 400.6828,-612.1046 392.5103,-615.2939 392.5103,-615.2939"/>
<ellipse fill="none" stroke="#000000" cx="389.3144" cy="-615.1314" rx="3.2" ry="3.2"/>
</g>
<!-- roi.fase -->
<g id="node6" class="node">
<title>roi.fase</title>
<g id="a_node6"><a xlink:href="../../../roi/tables/fase.html" xlink:title="roi.fase" target="_top">
<polygon fill="#ffffff" stroke="transparent" points="20,-388.2 20,-449.2 101,-449.2 101,-388.2 20,-388.2"/>
<polygon fill="#f5f5f5" stroke="transparent" points="20.5,-425.7 20.5,-448.7 101.5,-448.7 101.5,-425.7 20.5,-425.7"/>
<polygon fill="none" stroke="#000000" points="20.5,-425.7 20.5,-448.7 101.5,-448.7 101.5,-425.7 20.5,-425.7"/>
<text text-anchor="start" x="25.5" y="-434.3" font-family="Helvetica,sans-Serif" font-weight="bold" font-size="11.00" fill="#000000">roi.fase</text>
<text text-anchor="start" x="67.0219" y="-433.8" font-family="Helvetica,sans-Serif" font-size="11.00" fill="#000000">[table]</text>
<polygon fill="none" stroke="#000000" points="20.5,-406.7 20.5,-425.7 101.5,-425.7 101.5,-406.7 20.5,-406.7"/>
<text text-anchor="start" x="23.5" y="-412.8" font-family="Helvetica,sans-Serif" font-size="11.00" fill="#000000">...</text>
<polygon fill="#ffffff" stroke="transparent" points="20.5,-387.7 20.5,-406.7 50.5,-406.7 50.5,-387.7 20.5,-387.7"/>
<polygon fill="none" stroke="#000000" points="20.5,-387.7 20.5,-406.7 50.5,-406.7 50.5,-387.7 20.5,-387.7"/>
<text text-anchor="start" x="23.5" y="-393.8" font-family="Helvetica,sans-Serif" font-size="11.00" fill="#000000"> &#160;</text>
<polygon fill="#ffffff" stroke="transparent" points="50.5,-387.7 50.5,-406.7 71.5,-406.7 71.5,-387.7 50.5,-387.7"/>
<polygon fill="none" stroke="#000000" points="50.5,-387.7 50.5,-406.7 71.5,-406.7 71.5,-387.7 50.5,-387.7"/>
<text text-anchor="start" x="62.3862" y="-393.8" font-family="Helvetica,sans-Serif" font-size="11.00" fill="#000000"> &#160;</text>
<polygon fill="#ffffff" stroke="transparent" points="71.5,-387.7 71.5,-406.7 101.5,-406.7 101.5,-387.7 71.5,-387.7"/>
<polygon fill="none" stroke="#000000" points="71.5,-387.7 71.5,-406.7 101.5,-406.7 101.5,-387.7 71.5,-387.7"/>
<text text-anchor="start" x="82.9053" y="-393.8" font-family="Helvetica,sans-Serif" font-size="11.00" fill="#000000">1 &gt;</text>
</a>
</g>
</g>
<!-- object&#45;&gt;roi.fase -->
<g id="edge5" class="edge">
<title>object:w&#45;&gt;roi.fase:e</title>
<path fill="none" stroke="#000000" d="M150.0845,-388.3623C132.117,-395.7044 126.8188,-415.7 101.5,-415.7"/>
<polygon fill="#000000" stroke="#000000" points="156.633,-387.1529 165.1538,-389.2401 160.5665,-386.4265 164.5,-385.7 164.5,-385.7 164.5,-385.7 160.5665,-386.4265 163.8462,-382.1599 156.633,-387.1529 156.633,-387.1529"/>
<ellipse fill="none" stroke="#000000" cx="153.4863" cy="-387.7341" rx="3.2" ry="3.2"/>
</g>
<!-- object_type -->
<g id="node7" class="node">
<title>object_type</title>
<g id="a_node7"><a xlink:href="../../tables/object_type.html" xlink:title="object_type" target="_top">
<polygon fill="#ffffff" stroke="transparent" points="8,-306.2 8,-367.2 113,-367.2 113,-306.2 8,-306.2"/>
<polygon fill="#f5f5f5" stroke="transparent" points="8.5,-343.7 8.5,-366.7 113.5,-366.7 113.5,-343.7 8.5,-343.7"/>
<polygon fill="none" stroke="#000000" points="8.5,-343.7 8.5,-366.7 113.5,-366.7 113.5,-343.7 8.5,-343.7"/>
<text text-anchor="start" x="13.5" y="-352.3" font-family="Helvetica,sans-Serif" font-weight="bold" font-size="11.00" fill="#000000">object_type</text>
<text text-anchor="start" x="79.0219" y="-351.8" font-family="Helvetica,sans-Serif" font-size="11.00" fill="#000000">[table]</text>
<polygon fill="none" stroke="#000000" points="8.5,-324.7 8.5,-343.7 113.5,-343.7 113.5,-324.7 8.5,-324.7"/>
<text text-anchor="start" x="11.5" y="-330.8" font-family="Helvetica,sans-Serif" font-size="11.00" fill="#000000">...</text>
<polygon fill="#ffffff" stroke="transparent" points="8.5,-305.7 8.5,-324.7 50.5,-324.7 50.5,-305.7 8.5,-305.7"/>
<polygon fill="none" stroke="#000000" points="8.5,-305.7 8.5,-324.7 50.5,-324.7 50.5,-305.7 8.5,-305.7"/>
<text text-anchor="start" x="11.5" y="-311.8" font-family="Helvetica,sans-Serif" font-size="11.00" fill="#000000"> &#160;</text>
<polygon fill="#ffffff" stroke="transparent" points="50.5,-305.7 50.5,-324.7 77.5,-324.7 77.5,-305.7 50.5,-305.7"/>
<polygon fill="none" stroke="#000000" points="50.5,-305.7 50.5,-324.7 77.5,-324.7 77.5,-305.7 50.5,-305.7"/>
<text text-anchor="start" x="68.3862" y="-311.8" font-family="Helvetica,sans-Serif" font-size="11.00" fill="#000000"> &#160;</text>
<polygon fill="#ffffff" stroke="transparent" points="77.5,-305.7 77.5,-324.7 113.5,-324.7 113.5,-305.7 77.5,-305.7"/>
<polygon fill="none" stroke="#000000" points="77.5,-305.7 77.5,-324.7 113.5,-324.7 113.5,-305.7 77.5,-305.7"/>
<text text-anchor="start" x="94.9053" y="-311.8" font-family="Helvetica,sans-Serif" font-size="11.00" fill="#000000">1 &gt;</text>
</a>
</g>
</g>
<!-- object&#45;&gt;object_type -->
<g id="edge6" class="edge">
<title>object:w&#45;&gt;object_type:e</title>
<path fill="none" stroke="#000000" d="M150.2724,-359.778C137.4935,-351.6462 133.8394,-333.7 113.5,-333.7"/>
<polygon fill="#000000" stroke="#000000" points="156.7877,-361.574 163.5433,-367.1706 160.6438,-362.637 164.5,-363.7 164.5,-363.7 164.5,-363.7 160.6438,-362.637 165.4567,-360.2294 156.7877,-361.574 156.7877,-361.574"/>
<ellipse fill="none" stroke="#000000" cx="153.7027" cy="-360.7236" rx="3.2" ry="3.2"/>
</g>
<!-- label -->
<g id="node3" class="node">
<title>label</title>
<g id="a_node3"><a xlink:href="../../tables/label.html" xlink:title="label" target="_top">
<polygon fill="#ffffff" stroke="transparent" points="429.5,-506.2 429.5,-567.2 495.5,-567.2 495.5,-506.2 429.5,-506.2"/>
<polygon fill="#f5f5f5" stroke="transparent" points="429.5,-543.7 429.5,-566.7 495.5,-566.7 495.5,-543.7 429.5,-543.7"/>
<polygon fill="none" stroke="#000000" points="429.5,-543.7 429.5,-566.7 495.5,-566.7 495.5,-543.7 429.5,-543.7"/>
<text text-anchor="start" x="434.3868" y="-552.3" font-family="Helvetica,sans-Serif" font-weight="bold" font-size="11.00" fill="#000000">label</text>
<text text-anchor="start" x="461.0219" y="-551.8" font-family="Helvetica,sans-Serif" font-size="11.00" fill="#000000">[table]</text>
<polygon fill="none" stroke="#000000" points="429.5,-524.7 429.5,-543.7 495.5,-543.7 495.5,-524.7 429.5,-524.7"/>
<text text-anchor="start" x="432.5" y="-530.8" font-family="Helvetica,sans-Serif" font-size="11.00" fill="#000000">...</text>
<polygon fill="#ffffff" stroke="transparent" points="429.5,-505.7 429.5,-524.7 460.5,-524.7 460.5,-505.7 429.5,-505.7"/>
<polygon fill="none" stroke="#000000" points="429.5,-505.7 429.5,-524.7 460.5,-524.7 460.5,-505.7 429.5,-505.7"/>
<text text-anchor="start" x="432.5" y="-511.8" font-family="Helvetica,sans-Serif" font-size="11.00" fill="#000000">&lt; 2</text>
<polygon fill="#ffffff" stroke="transparent" points="460.5,-505.7 460.5,-524.7 477.5,-524.7 477.5,-505.7 460.5,-505.7"/>
<polygon fill="none" stroke="#000000" points="460.5,-505.7 460.5,-524.7 477.5,-524.7 477.5,-505.7 460.5,-505.7"/>
<text text-anchor="start" x="468.3862" y="-511.8" font-family="Helvetica,sans-Serif" font-size="11.00" fill="#000000"> &#160;</text>
<polygon fill="#ffffff" stroke="transparent" points="477.5,-505.7 477.5,-524.7 495.5,-524.7 495.5,-505.7 477.5,-505.7"/>
<polygon fill="none" stroke="#000000" points="477.5,-505.7 477.5,-524.7 495.5,-524.7 495.5,-505.7 477.5,-505.7"/>
<text text-anchor="start" x="486.3862" y="-511.8" font-family="Helvetica,sans-Serif" font-size="11.00" fill="#000000"> &#160;</text>
</a>
</g>
</g>
<!-- label&#45;&gt;object -->
<g id="edge2" class="edge">
<title>label:w&#45;&gt;object:e</title>
<path fill="none" stroke="#000000" d="M414.6581,-533.2382C378.9488,-530.82 365.0235,-518.8357 330,-495.7 307.3143,-480.7143 314.6884,-451.7 287.5,-451.7"/>
<polygon fill="#000000" stroke="#000000" points="421.5039,-533.4512 429.388,-537.2983 425.5019,-533.5756 429.5,-533.7 429.5,-533.7 429.5,-533.7 425.5019,-533.5756 429.612,-530.1017 421.5039,-533.4512 421.5039,-533.4512"/>
<ellipse fill="none" stroke="#000000" cx="418.3054" cy="-533.3516" rx="3.2" ry="3.2"/>
</g>
<!-- maatregel -->
<g id="node4" class="node">
<title>maatregel</title>
<g id="a_node4"><a xlink:href="../../tables/maatregel.html" xlink:title="maatregel" target="_top">
<polygon fill="#ffffff" stroke="transparent" points="338,-54.7 338,-320.7 587,-320.7 587,-54.7 338,-54.7"/>
<polygon fill="#f5f5f5" stroke="transparent" points="340.5,-295.7 340.5,-318.7 585.5,-318.7 585.5,-295.7 340.5,-295.7"/>
<polygon fill="none" stroke="#000000" points="340.5,-295.7 340.5,-318.7 585.5,-318.7 585.5,-295.7 340.5,-295.7"/>
<text text-anchor="start" x="345.5" y="-304.3" font-family="Helvetica,sans-Serif" font-weight="bold" font-size="11.00" fill="#000000">maatregel</text>
<text text-anchor="start" x="550.5437" y="-303.8" font-family="Helvetica,sans-Serif" font-size="11.00" fill="#000000">[table]</text>
<polygon fill="none" stroke="#000000" points="340.5,-273.7 340.5,-295.7 466.5,-295.7 466.5,-273.7 340.5,-273.7"/>
<image xlink:href="../../images/primaryKeys.png" width="11px" height="12px" preserveAspectRatio="xMinYMin meet" x="345.5" y="-290.7"/>
<text text-anchor="start" x="360.5" y="-280.8" font-family="Helvetica,sans-Serif" font-size="11.00" fill="#000000">uuid</text>
<polygon fill="none" stroke="#000000" points="466.5,-273.7 466.5,-295.7 585.5,-295.7 585.5,-273.7 466.5,-273.7"/>
<text text-anchor="start" x="469.5" y="-281.4" font-family="Helvetica,sans-Serif" font-size="11.00" fill="#000000">uuid[2147483647]</text>
<polygon fill="#ffffff" stroke="transparent" points="340.5,-251.7 340.5,-273.7 466.5,-273.7 466.5,-251.7 340.5,-251.7"/>
<polygon fill="none" stroke="#000000" points="340.5,-251.7 340.5,-273.7 466.5,-273.7 466.5,-251.7 340.5,-251.7"/>
<text text-anchor="start" x="360.5" y="-258.8" font-family="Helvetica,sans-Serif" font-size="11.00" fill="#000000">geom</text>
<polygon fill="none" stroke="#000000" points="466.5,-251.7 466.5,-273.7 585.5,-273.7 585.5,-251.7 466.5,-251.7"/>
<text text-anchor="start" x="469.4485" y="-259.4" font-family="Helvetica,sans-Serif" font-size="11.00" fill="#000000">geometry[2147483647]</text>
<polygon fill="none" stroke="#000000" points="340.5,-229.7 340.5,-251.7 466.5,-251.7 466.5,-229.7 340.5,-229.7"/>
<text text-anchor="start" x="360.5" y="-236.8" font-family="Helvetica,sans-Serif" font-size="11.00" fill="#000000">datumtijd</text>
<polygon fill="none" stroke="#000000" points="466.5,-229.7 466.5,-251.7 585.5,-251.7 585.5,-229.7 466.5,-229.7"/>
<text text-anchor="start" x="469.5" y="-237.4" font-family="Helvetica,sans-Serif" font-size="11.00" fill="#000000">timestamptz[35,6]</text>
<polygon fill="none" stroke="#000000" points="340.5,-207.7 340.5,-229.7 466.5,-229.7 466.5,-207.7 340.5,-207.7"/>
<text text-anchor="start" x="360.5" y="-214.8" font-family="Helvetica,sans-Serif" font-size="11.00" fill="#000000">gebruiker</text>
<polygon fill="none" stroke="#000000" points="466.5,-207.7 466.5,-229.7 585.5,-229.7 585.5,-207.7 466.5,-207.7"/>
<text text-anchor="start" x="469.5" y="-215.4" font-family="Helvetica,sans-Serif" font-size="11.00" fill="#000000">varchar[255]</text>
<polygon fill="none" stroke="#000000" points="340.5,-185.7 340.5,-207.7 466.5,-207.7 466.5,-185.7 340.5,-185.7"/>
<text text-anchor="start" x="360.5" y="-192.8" font-family="Helvetica,sans-Serif" font-size="11.00" fill="#000000">label</text>
<polygon fill="none" stroke="#000000" points="466.5,-185.7 466.5,-207.7 585.5,-207.7 585.5,-185.7 466.5,-185.7"/>
<text text-anchor="start" x="469.5" y="-193.4" font-family="Helvetica,sans-Serif" font-size="11.00" fill="#000000">text[2147483647]</text>
<polygon fill="none" stroke="#000000" points="340.5,-163.7 340.5,-185.7 466.5,-185.7 466.5,-163.7 340.5,-163.7"/>
<text text-anchor="start" x="360.5" y="-170.8" font-family="Helvetica,sans-Serif" font-size="11.00" fill="#000000">rotatie</text>
<polygon fill="none" stroke="#000000" points="466.5,-163.7 466.5,-185.7 585.5,-185.7 585.5,-163.7 466.5,-163.7"/>
<text text-anchor="start" x="469.5" y="-171.4" font-family="Helvetica,sans-Serif" font-size="11.00" fill="#000000">int4[10]</text>
<polygon fill="none" stroke="#000000" points="340.5,-141.7 340.5,-163.7 466.5,-163.7 466.5,-141.7 340.5,-141.7"/>
<text text-anchor="start" x="360.5" y="-148.8" font-family="Helvetica,sans-Serif" font-size="11.00" fill="#000000">bijzonderheden</text>
<polygon fill="none" stroke="#000000" points="466.5,-141.7 466.5,-163.7 585.5,-163.7 585.5,-141.7 466.5,-141.7"/>
<text text-anchor="start" x="469.5" y="-149.4" font-family="Helvetica,sans-Serif" font-size="11.00" fill="#000000">text[2147483647]</text>
<polygon fill="none" stroke="#000000" points="340.5,-119.7 340.5,-141.7 466.5,-141.7 466.5,-119.7 340.5,-119.7"/>
<text text-anchor="start" x="360.5" y="-126.8" font-family="Helvetica,sans-Serif" font-size="11.00" fill="#000000">plusinfo</text>
<polygon fill="none" stroke="#000000" points="466.5,-119.7 466.5,-141.7 585.5,-141.7 585.5,-119.7 466.5,-119.7"/>
<text text-anchor="start" x="469.5" y="-127.4" font-family="Helvetica,sans-Serif" font-size="11.00" fill="#000000">jsonb[2147483647]</text>
<polygon fill="#ffffff" stroke="transparent" points="340.5,-97.7 340.5,-119.7 466.5,-119.7 466.5,-97.7 340.5,-97.7"/>
<polygon fill="none" stroke="#000000" points="340.5,-97.7 340.5,-119.7 466.5,-119.7 466.5,-97.7 340.5,-97.7"/>
<image xlink:href="../../images/foreignKeys.png" width="11px" height="12px" preserveAspectRatio="xMinYMin meet" x="345.5" y="-114.7"/>
<text text-anchor="start" x="360.5" y="-104.8" font-family="Helvetica,sans-Serif" font-size="11.00" fill="#000000">object_uuid</text>
<polygon fill="none" stroke="#000000" points="466.5,-97.7 466.5,-119.7 585.5,-119.7 585.5,-97.7 466.5,-97.7"/>
<text text-anchor="start" x="469.5" y="-105.4" font-family="Helvetica,sans-Serif" font-size="11.00" fill="#000000">uuid[2147483647]</text>
<polygon fill="none" stroke="#000000" points="340.5,-75.7 340.5,-97.7 466.5,-97.7 466.5,-75.7 340.5,-75.7"/>
<image xlink:href="../../images/foreignKeys.png" width="11px" height="12px" preserveAspectRatio="xMinYMin meet" x="345.5" y="-92.7"/>
<text text-anchor="start" x="360.5" y="-82.8" font-family="Helvetica,sans-Serif" font-size="11.00" fill="#000000">maatregel_type_id</text>
<polygon fill="none" stroke="#000000" points="466.5,-75.7 466.5,-97.7 585.5,-97.7 585.5,-75.7 466.5,-75.7"/>
<text text-anchor="start" x="469.5" y="-83.4" font-family="Helvetica,sans-Serif" font-size="11.00" fill="#000000">int2[5]</text>
<polygon fill="#ffffff" stroke="transparent" points="340.5,-56.7 340.5,-75.7 407.5,-75.7 407.5,-56.7 340.5,-56.7"/>
<polygon fill="none" stroke="#000000" points="340.5,-56.7 340.5,-75.7 407.5,-75.7 407.5,-56.7 340.5,-56.7"/>
<text text-anchor="start" x="343.5" y="-62.8" font-family="Helvetica,sans-Serif" font-size="11.00" fill="#000000">&lt; 2</text>
<polygon fill="#ffffff" stroke="transparent" points="407.5,-56.7 407.5,-75.7 466.5,-75.7 466.5,-56.7 407.5,-56.7"/>
<polygon fill="none" stroke="#000000" points="407.5,-56.7 407.5,-75.7 466.5,-75.7 466.5,-56.7 407.5,-56.7"/>
<text text-anchor="start" x="457.3862" y="-62.8" font-family="Helvetica,sans-Serif" font-size="11.00" fill="#000000"> &#160;</text>
<polygon fill="#ffffff" stroke="transparent" points="466.5,-56.7 466.5,-75.7 585.5,-75.7 585.5,-56.7 466.5,-56.7"/>
<polygon fill="none" stroke="#000000" points="466.5,-56.7 466.5,-75.7 585.5,-75.7 585.5,-56.7 466.5,-56.7"/>
<text text-anchor="start" x="566.9053" y="-62.8" font-family="Helvetica,sans-Serif" font-size="11.00" fill="#000000">0 &gt;</text>
<polygon fill="none" stroke="#000000" stroke-width="2" points="339,-55.7 339,-319.7 586,-319.7 586,-55.7 339,-55.7"/>
</a>
</g>
</g>
<!-- maatregel&#45;&gt;object -->
<g id="edge4" class="edge">
<title>maatregel:w&#45;&gt;object:e</title>
<path fill="none" stroke="#000000" d="M326.7527,-113.5488C276.7301,-155.2386 359.2038,-451.7 287.5,-451.7"/>
<polygon fill="#000000" stroke="#000000" points="332.9555,-111.361 341.6975,-112.095 336.7278,-110.0305 340.5,-108.7 340.5,-108.7 340.5,-108.7 336.7278,-110.0305 339.3025,-105.305 332.9555,-111.361 332.9555,-111.361"/>
<ellipse fill="none" stroke="#000000" cx="329.9377" cy="-112.4254" rx="3.2" ry="3.2"/>
</g>
<!-- maatregel_type -->
<g id="node5" class="node">
<title>maatregel_type</title>
<g id="a_node5"><a xlink:href="../../tables/maatregel_type.html" xlink:title="maatregel_type" target="_top">
<polygon fill="#ffffff" stroke="transparent" points="162,-38.2 162,-121.2 289,-121.2 289,-38.2 162,-38.2"/>
<polygon fill="#f5f5f5" stroke="transparent" points="162.5,-97.7 162.5,-120.7 289.5,-120.7 289.5,-97.7 162.5,-97.7"/>
<polygon fill="none" stroke="#000000" points="162.5,-97.7 162.5,-120.7 289.5,-120.7 289.5,-97.7 162.5,-97.7"/>
<text text-anchor="start" x="167.5" y="-106.3" font-family="Helvetica,sans-Serif" font-weight="bold" font-size="11.00" fill="#000000">maatregel_type</text>
<text text-anchor="start" x="255.0219" y="-105.8" font-family="Helvetica,sans-Serif" font-size="11.00" fill="#000000">[table]</text>
<polygon fill="none" stroke="#000000" points="162.5,-75.7 162.5,-97.7 289.5,-97.7 289.5,-75.7 162.5,-75.7"/>
<image xlink:href="../../images/primaryKeys.png" width="11px" height="12px" preserveAspectRatio="xMinYMin meet" x="167.5" y="-92.7"/>
<text text-anchor="start" x="191.5" y="-82.8" font-family="Helvetica,sans-Serif" font-size="11.00" fill="#000000">id</text>
<polygon fill="none" stroke="#000000" points="162.5,-56.7 162.5,-75.7 289.5,-75.7 289.5,-56.7 162.5,-56.7"/>
<text text-anchor="start" x="165.5" y="-62.8" font-family="Helvetica,sans-Serif" font-size="11.00" fill="#000000">...</text>
<polygon fill="#ffffff" stroke="transparent" points="162.5,-37.7 162.5,-56.7 215.5,-56.7 215.5,-37.7 162.5,-37.7"/>
<polygon fill="none" stroke="#000000" points="162.5,-37.7 162.5,-56.7 215.5,-56.7 215.5,-37.7 162.5,-37.7"/>
<text text-anchor="start" x="165.5" y="-43.8" font-family="Helvetica,sans-Serif" font-size="11.00" fill="#000000"> &#160;</text>
<polygon fill="#ffffff" stroke="transparent" points="215.5,-37.7 215.5,-56.7 247.5,-56.7 247.5,-37.7 215.5,-37.7"/>
<polygon fill="none" stroke="#000000" points="215.5,-37.7 215.5,-56.7 247.5,-56.7 247.5,-37.7 215.5,-37.7"/>
<text text-anchor="start" x="238.3862" y="-43.8" font-family="Helvetica,sans-Serif" font-size="11.00" fill="#000000"> &#160;</text>
<polygon fill="#ffffff" stroke="transparent" points="247.5,-37.7 247.5,-56.7 289.5,-56.7 289.5,-37.7 247.5,-37.7"/>
<polygon fill="none" stroke="#000000" points="247.5,-37.7 247.5,-56.7 289.5,-56.7 289.5,-37.7 247.5,-37.7"/>
<text text-anchor="start" x="270.9053" y="-43.8" font-family="Helvetica,sans-Serif" font-size="11.00" fill="#000000">1 &gt;</text>
</a>
</g>
</g>
<!-- maatregel&#45;&gt;maatregel_type -->
<g id="edge3" class="edge">
<title>maatregel:w&#45;&gt;maatregel_type:e</title>
<path fill="none" stroke="#000000" d="M325.776,-86.7C313.7815,-86.7 306.3229,-86.7 289.5,-86.7"/>
<polygon fill="#000000" stroke="#000000" points="332.5,-86.7001 340.5,-90.3 336.5,-86.7 340.5,-86.7 340.5,-86.7 340.5,-86.7 336.5,-86.7 340.5,-83.1 332.5,-86.7001 332.5,-86.7001"/>
<ellipse fill="none" stroke="#000000" cx="329.3" cy="-86.7001" rx="3.2" ry="3.2"/>
</g>
<!-- sector -->
<g id="node8" class="node">
<title>sector</title>
<g id="a_node8"><a xlink:href="../../tables/sector.html" xlink:title="sector" target="_top">
<polygon fill="#ffffff" stroke="transparent" points="425,-424.2 425,-485.2 500,-485.2 500,-424.2 425,-424.2"/>
<polygon fill="#f5f5f5" stroke="transparent" points="425.5,-461.7 425.5,-484.7 500.5,-484.7 500.5,-461.7 425.5,-461.7"/>
<polygon fill="none" stroke="#000000" points="425.5,-461.7 425.5,-484.7 500.5,-484.7 500.5,-461.7 425.5,-461.7"/>
<text text-anchor="start" x="430.5" y="-470.3" font-family="Helvetica,sans-Serif" font-weight="bold" font-size="11.00" fill="#000000">sector</text>
<text text-anchor="start" x="466.0219" y="-469.8" font-family="Helvetica,sans-Serif" font-size="11.00" fill="#000000">[table]</text>
<polygon fill="none" stroke="#000000" points="425.5,-442.7 425.5,-461.7 500.5,-461.7 500.5,-442.7 425.5,-442.7"/>
<text text-anchor="start" x="428.5" y="-448.8" font-family="Helvetica,sans-Serif" font-size="11.00" fill="#000000">...</text>
<polygon fill="#ffffff" stroke="transparent" points="425.5,-423.7 425.5,-442.7 461.5,-442.7 461.5,-423.7 425.5,-423.7"/>
<polygon fill="none" stroke="#000000" points="425.5,-423.7 425.5,-442.7 461.5,-442.7 461.5,-423.7 425.5,-423.7"/>
<text text-anchor="start" x="428.5" y="-429.8" font-family="Helvetica,sans-Serif" font-size="11.00" fill="#000000">&lt; 2</text>
<polygon fill="#ffffff" stroke="transparent" points="461.5,-423.7 461.5,-442.7 480.5,-442.7 480.5,-423.7 461.5,-423.7"/>
<polygon fill="none" stroke="#000000" points="461.5,-423.7 461.5,-442.7 480.5,-442.7 480.5,-423.7 461.5,-423.7"/>
<text text-anchor="start" x="471.3862" y="-429.8" font-family="Helvetica,sans-Serif" font-size="11.00" fill="#000000"> &#160;</text>
<polygon fill="#ffffff" stroke="transparent" points="480.5,-423.7 480.5,-442.7 500.5,-442.7 500.5,-423.7 480.5,-423.7"/>
<polygon fill="none" stroke="#000000" points="480.5,-423.7 480.5,-442.7 500.5,-442.7 500.5,-423.7 480.5,-423.7"/>
<text text-anchor="start" x="491.3862" y="-429.8" font-family="Helvetica,sans-Serif" font-size="11.00" fill="#000000"> &#160;</text>
</a>
</g>
</g>
<!-- sector&#45;&gt;object -->
<g id="edge7" class="edge">
<title>sector:w&#45;&gt;object:e</title>
<path fill="none" stroke="#000000" d="M410.9657,-451.7C361.2667,-451.7 343.6823,-451.7 287.5,-451.7"/>
<polygon fill="#000000" stroke="#000000" points="417.5,-451.7001 425.5,-455.3 421.5,-451.7 425.5,-451.7 425.5,-451.7 425.5,-451.7 421.5,-451.7 425.5,-448.1 417.5,-451.7001 417.5,-451.7001"/>
<ellipse fill="none" stroke="#000000" cx="414.3" cy="-451.7001" rx="3.2" ry="3.2"/>
</g>
<!-- voorziening -->
<g id="node9" class="node">
<title>voorziening</title>
<g id="a_node9"><a xlink:href="../../tables/voorziening.html" xlink:title="voorziening" target="_top">
<polygon fill="#ffffff" stroke="transparent" points="409.5,-342.2 409.5,-403.2 515.5,-403.2 515.5,-342.2 409.5,-342.2"/>
<polygon fill="#f5f5f5" stroke="transparent" points="409.5,-379.7 409.5,-402.7 515.5,-402.7 515.5,-379.7 409.5,-379.7"/>
<polygon fill="none" stroke="#000000" points="409.5,-379.7 409.5,-402.7 515.5,-402.7 515.5,-379.7 409.5,-379.7"/>
<text text-anchor="start" x="414.5" y="-388.3" font-family="Helvetica,sans-Serif" font-weight="bold" font-size="11.00" fill="#000000">voorziening</text>
<text text-anchor="start" x="481.0219" y="-387.8" font-family="Helvetica,sans-Serif" font-size="11.00" fill="#000000">[table]</text>
<polygon fill="none" stroke="#000000" points="409.5,-360.7 409.5,-379.7 515.5,-379.7 515.5,-360.7 409.5,-360.7"/>
<text text-anchor="start" x="412.5" y="-366.8" font-family="Helvetica,sans-Serif" font-size="11.00" fill="#000000">...</text>
<polygon fill="#ffffff" stroke="transparent" points="409.5,-341.7 409.5,-360.7 460.5,-360.7 460.5,-341.7 409.5,-341.7"/>
<polygon fill="none" stroke="#000000" points="409.5,-341.7 409.5,-360.7 460.5,-360.7 460.5,-341.7 409.5,-341.7"/>
<text text-anchor="start" x="412.5" y="-347.8" font-family="Helvetica,sans-Serif" font-size="11.00" fill="#000000">&lt; 2</text>
<polygon fill="#ffffff" stroke="transparent" points="460.5,-341.7 460.5,-360.7 487.5,-360.7 487.5,-341.7 460.5,-341.7"/>
<polygon fill="none" stroke="#000000" points="460.5,-341.7 460.5,-360.7 487.5,-360.7 487.5,-341.7 460.5,-341.7"/>
<text text-anchor="start" x="478.3862" y="-347.8" font-family="Helvetica,sans-Serif" font-size="11.00" fill="#000000"> &#160;</text>
<polygon fill="#ffffff" stroke="transparent" points="487.5,-341.7 487.5,-360.7 515.5,-360.7 515.5,-341.7 487.5,-341.7"/>
<polygon fill="none" stroke="#000000" points="487.5,-341.7 487.5,-360.7 515.5,-360.7 515.5,-341.7 487.5,-341.7"/>
<text text-anchor="start" x="506.3862" y="-347.8" font-family="Helvetica,sans-Serif" font-size="11.00" fill="#000000"> &#160;</text>
</a>
</g>
</g>
<!-- voorziening&#45;&gt;object -->
<g id="edge8" class="edge">
<title>voorziening:w&#45;&gt;object:e</title>
<path fill="none" stroke="#000000" d="M395.0762,-370.7492C367.0001,-375.2252 358.5527,-393.4225 330,-413.7 309.3414,-428.3713 312.8382,-451.7 287.5,-451.7"/>
<polygon fill="#000000" stroke="#000000" points="401.5211,-370.2804 409.7612,-373.2905 405.5105,-369.9902 409.5,-369.7 409.5,-369.7 409.5,-369.7 405.5105,-369.9902 409.2388,-366.1095 401.5211,-370.2804 401.5211,-370.2804"/>
<ellipse fill="none" stroke="#000000" cx="398.3295" cy="-370.5126" rx="3.2" ry="3.2"/>
</g>
</g>
</svg>
