<?xml version="1.0" encoding="UTF-8" standalone="no"?>
<!DOCTYPE svg PUBLIC "-//W3C//DTD SVG 1.1//EN"
 "http://www.w3.org/Graphics/SVG/1.1/DTD/svg11.dtd">
<!-- Generated by graphviz version 2.40.1 (20161225.0304)
 -->
<!-- Title: oneDegreeRelationshipsDiagram Pages: 1 -->
<svg width="449pt" height="418pt"
 viewBox="0.00 0.00 449.00 417.70" xmlns="http://www.w3.org/2000/svg" xmlns:xlink="http://www.w3.org/1999/xlink">
<g id="graph0" class="graph" transform="scale(1 1) rotate(0) translate(4 413.7)">
<title>oneDegreeRelationshipsDiagram</title>
<polygon fill="#ffffff" stroke="transparent" points="-4,4 -4,-413.7 445,-413.7 445,4 -4,4"/>
<text text-anchor="middle" x="72.4936" y="-7.3" font-family="Helvetica,sans-Serif" font-size="11.00" fill="#000000">Generated by SchemaSpy</text>
<!-- maatregel -->
<g id="node1" class="node">
<title>maatregel</title>
<g id="a_node1"><a xlink:href="../../tables/maatregel.html" xlink:title="maatregel" target="_top">
<polygon fill="#ffffff" stroke="transparent" points="184,-139.7 184,-405.7 433,-405.7 433,-139.7 184,-139.7"/>
<polygon fill="#f5f5f5" stroke="transparent" points="186.5,-380.7 186.5,-403.7 431.5,-403.7 431.5,-380.7 186.5,-380.7"/>
<polygon fill="none" stroke="#000000" points="186.5,-380.7 186.5,-403.7 431.5,-403.7 431.5,-380.7 186.5,-380.7"/>
<text text-anchor="start" x="191.5" y="-389.3" font-family="Helvetica,sans-Serif" font-weight="bold" font-size="11.00" fill="#000000">maatregel</text>
<text text-anchor="start" x="396.5437" y="-388.8" font-family="Helvetica,sans-Serif" font-size="11.00" fill="#000000">[table]</text>
<polygon fill="none" stroke="#000000" points="186.5,-358.7 186.5,-380.7 312.5,-380.7 312.5,-358.7 186.5,-358.7"/>
<image xlink:href="../../images/primaryKeys.png" width="11px" height="12px" preserveAspectRatio="xMinYMin meet" x="191.5" y="-375.7"/>
<text text-anchor="start" x="206.5" y="-365.8" font-family="Helvetica,sans-Serif" font-size="11.00" fill="#000000">uuid</text>
<polygon fill="none" stroke="#000000" points="312.5,-358.7 312.5,-380.7 431.5,-380.7 431.5,-358.7 312.5,-358.7"/>
<text text-anchor="start" x="315.5" y="-366.4" font-family="Helvetica,sans-Serif" font-size="11.00" fill="#000000">uuid[2147483647]</text>
<polygon fill="#ffffff" stroke="transparent" points="186.5,-336.7 186.5,-358.7 312.5,-358.7 312.5,-336.7 186.5,-336.7"/>
<polygon fill="none" stroke="#000000" points="186.5,-336.7 186.5,-358.7 312.5,-358.7 312.5,-336.7 186.5,-336.7"/>
<text text-anchor="start" x="206.5" y="-343.8" font-family="Helvetica,sans-Serif" font-size="11.00" fill="#000000">geom</text>
<polygon fill="none" stroke="#000000" points="312.5,-336.7 312.5,-358.7 431.5,-358.7 431.5,-336.7 312.5,-336.7"/>
<text text-anchor="start" x="315.4485" y="-344.4" font-family="Helvetica,sans-Serif" font-size="11.00" fill="#000000">geometry[2147483647]</text>
<polygon fill="none" stroke="#000000" points="186.5,-314.7 186.5,-336.7 312.5,-336.7 312.5,-314.7 186.5,-314.7"/>
<text text-anchor="start" x="206.5" y="-321.8" font-family="Helvetica,sans-Serif" font-size="11.00" fill="#000000">datumtijd</text>
<polygon fill="none" stroke="#000000" points="312.5,-314.7 312.5,-336.7 431.5,-336.7 431.5,-314.7 312.5,-314.7"/>
<text text-anchor="start" x="315.5" y="-322.4" font-family="Helvetica,sans-Serif" font-size="11.00" fill="#000000">timestamptz[35,6]</text>
<polygon fill="none" stroke="#000000" points="186.5,-292.7 186.5,-314.7 312.5,-314.7 312.5,-292.7 186.5,-292.7"/>
<text text-anchor="start" x="206.5" y="-299.8" font-family="Helvetica,sans-Serif" font-size="11.00" fill="#000000">gebruiker</text>
<polygon fill="none" stroke="#000000" points="312.5,-292.7 312.5,-314.7 431.5,-314.7 431.5,-292.7 312.5,-292.7"/>
<text text-anchor="start" x="315.5" y="-300.4" font-family="Helvetica,sans-Serif" font-size="11.00" fill="#000000">varchar[255]</text>
<polygon fill="none" stroke="#000000" points="186.5,-270.7 186.5,-292.7 312.5,-292.7 312.5,-270.7 186.5,-270.7"/>
<text text-anchor="start" x="206.5" y="-277.8" font-family="Helvetica,sans-Serif" font-size="11.00" fill="#000000">label</text>
<polygon fill="none" stroke="#000000" points="312.5,-270.7 312.5,-292.7 431.5,-292.7 431.5,-270.7 312.5,-270.7"/>
<text text-anchor="start" x="315.5" y="-278.4" font-family="Helvetica,sans-Serif" font-size="11.00" fill="#000000">text[2147483647]</text>
<polygon fill="none" stroke="#000000" points="186.5,-248.7 186.5,-270.7 312.5,-270.7 312.5,-248.7 186.5,-248.7"/>
<text text-anchor="start" x="206.5" y="-255.8" font-family="Helvetica,sans-Serif" font-size="11.00" fill="#000000">rotatie</text>
<polygon fill="none" stroke="#000000" points="312.5,-248.7 312.5,-270.7 431.5,-270.7 431.5,-248.7 312.5,-248.7"/>
<text text-anchor="start" x="315.5" y="-256.4" font-family="Helvetica,sans-Serif" font-size="11.00" fill="#000000">int4[10]</text>
<polygon fill="none" stroke="#000000" points="186.5,-226.7 186.5,-248.7 312.5,-248.7 312.5,-226.7 186.5,-226.7"/>
<text text-anchor="start" x="206.5" y="-233.8" font-family="Helvetica,sans-Serif" font-size="11.00" fill="#000000">bijzonderheden</text>
<polygon fill="none" stroke="#000000" points="312.5,-226.7 312.5,-248.7 431.5,-248.7 431.5,-226.7 312.5,-226.7"/>
<text text-anchor="start" x="315.5" y="-234.4" font-family="Helvetica,sans-Serif" font-size="11.00" fill="#000000">text[2147483647]</text>
<polygon fill="none" stroke="#000000" points="186.5,-204.7 186.5,-226.7 312.5,-226.7 312.5,-204.7 186.5,-204.7"/>
<text text-anchor="start" x="206.5" y="-211.8" font-family="Helvetica,sans-Serif" font-size="11.00" fill="#000000">plusinfo</text>
<polygon fill="none" stroke="#000000" points="312.5,-204.7 312.5,-226.7 431.5,-226.7 431.5,-204.7 312.5,-204.7"/>
<text text-anchor="start" x="315.5" y="-212.4" font-family="Helvetica,sans-Serif" font-size="11.00" fill="#000000">jsonb[2147483647]</text>
<polygon fill="#ffffff" stroke="transparent" points="186.5,-182.7 186.5,-204.7 312.5,-204.7 312.5,-182.7 186.5,-182.7"/>
<polygon fill="none" stroke="#000000" points="186.5,-182.7 186.5,-204.7 312.5,-204.7 312.5,-182.7 186.5,-182.7"/>
<image xlink:href="../../images/foreignKeys.png" width="11px" height="12px" preserveAspectRatio="xMinYMin meet" x="191.5" y="-199.7"/>
<text text-anchor="start" x="206.5" y="-189.8" font-family="Helvetica,sans-Serif" font-size="11.00" fill="#000000">object_uuid</text>
<polygon fill="none" stroke="#000000" points="312.5,-182.7 312.5,-204.7 431.5,-204.7 431.5,-182.7 312.5,-182.7"/>
<text text-anchor="start" x="315.5" y="-190.4" font-family="Helvetica,sans-Serif" font-size="11.00" fill="#000000">uuid[2147483647]</text>
<polygon fill="none" stroke="#000000" points="186.5,-160.7 186.5,-182.7 312.5,-182.7 312.5,-160.7 186.5,-160.7"/>
<image xlink:href="../../images/foreignKeys.png" width="11px" height="12px" preserveAspectRatio="xMinYMin meet" x="191.5" y="-177.7"/>
<text text-anchor="start" x="206.5" y="-167.8" font-family="Helvetica,sans-Serif" font-size="11.00" fill="#000000">maatregel_type_id</text>
<polygon fill="none" stroke="#000000" points="312.5,-160.7 312.5,-182.7 431.5,-182.7 431.5,-160.7 312.5,-160.7"/>
<text text-anchor="start" x="315.5" y="-168.4" font-family="Helvetica,sans-Serif" font-size="11.00" fill="#000000">int2[5]</text>
<polygon fill="#ffffff" stroke="transparent" points="186.5,-141.7 186.5,-160.7 253.5,-160.7 253.5,-141.7 186.5,-141.7"/>
<polygon fill="none" stroke="#000000" points="186.5,-141.7 186.5,-160.7 253.5,-160.7 253.5,-141.7 186.5,-141.7"/>
<text text-anchor="start" x="189.5" y="-147.8" font-family="Helvetica,sans-Serif" font-size="11.00" fill="#000000">&lt; 2</text>
<polygon fill="#ffffff" stroke="transparent" points="253.5,-141.7 253.5,-160.7 312.5,-160.7 312.5,-141.7 253.5,-141.7"/>
<polygon fill="none" stroke="#000000" points="253.5,-141.7 253.5,-160.7 312.5,-160.7 312.5,-141.7 253.5,-141.7"/>
<text text-anchor="start" x="303.3862" y="-147.8" font-family="Helvetica,sans-Serif" font-size="11.00" fill="#000000"> &#160;</text>
<polygon fill="#ffffff" stroke="transparent" points="312.5,-141.7 312.5,-160.7 431.5,-160.7 431.5,-141.7 312.5,-141.7"/>
<polygon fill="none" stroke="#000000" points="312.5,-141.7 312.5,-160.7 431.5,-160.7 431.5,-141.7 312.5,-141.7"/>
<text text-anchor="start" x="412.9053" y="-147.8" font-family="Helvetica,sans-Serif" font-size="11.00" fill="#000000">0 &gt;</text>
<polygon fill="none" stroke="#000000" stroke-width="2" points="185,-140.7 185,-404.7 432,-404.7 432,-140.7 185,-140.7"/>
</a>
</g>
</g>
<!-- maatregel_type -->
<g id="node2" class="node">
<title>maatregel_type</title>
<g id="a_node2"><a xlink:href="../../tables/maatregel_type.html" xlink:title="maatregel_type" target="_top">
<polygon fill="#ffffff" stroke="transparent" points="8,-38.2 8,-121.2 135,-121.2 135,-38.2 8,-38.2"/>
<polygon fill="#f5f5f5" stroke="transparent" points="8.5,-97.7 8.5,-120.7 135.5,-120.7 135.5,-97.7 8.5,-97.7"/>
<polygon fill="none" stroke="#000000" points="8.5,-97.7 8.5,-120.7 135.5,-120.7 135.5,-97.7 8.5,-97.7"/>
<text text-anchor="start" x="13.5" y="-106.3" font-family="Helvetica,sans-Serif" font-weight="bold" font-size="11.00" fill="#000000">maatregel_type</text>
<text text-anchor="start" x="101.0219" y="-105.8" font-family="Helvetica,sans-Serif" font-size="11.00" fill="#000000">[table]</text>
<polygon fill="none" stroke="#000000" points="8.5,-75.7 8.5,-97.7 135.5,-97.7 135.5,-75.7 8.5,-75.7"/>
<image xlink:href="../../images/primaryKeys.png" width="11px" height="12px" preserveAspectRatio="xMinYMin meet" x="13.5" y="-92.7"/>
<text text-anchor="start" x="37.5" y="-82.8" font-family="Helvetica,sans-Serif" font-size="11.00" fill="#000000">id</text>
<polygon fill="none" stroke="#000000" points="8.5,-56.7 8.5,-75.7 135.5,-75.7 135.5,-56.7 8.5,-56.7"/>
<text text-anchor="start" x="11.5" y="-62.8" font-family="Helvetica,sans-Serif" font-size="11.00" fill="#000000">...</text>
<polygon fill="#ffffff" stroke="transparent" points="8.5,-37.7 8.5,-56.7 61.5,-56.7 61.5,-37.7 8.5,-37.7"/>
<polygon fill="none" stroke="#000000" points="8.5,-37.7 8.5,-56.7 61.5,-56.7 61.5,-37.7 8.5,-37.7"/>
<text text-anchor="start" x="11.5" y="-43.8" font-family="Helvetica,sans-Serif" font-size="11.00" fill="#000000"> &#160;</text>
<polygon fill="#ffffff" stroke="transparent" points="61.5,-37.7 61.5,-56.7 93.5,-56.7 93.5,-37.7 61.5,-37.7"/>
<polygon fill="none" stroke="#000000" points="61.5,-37.7 61.5,-56.7 93.5,-56.7 93.5,-37.7 61.5,-37.7"/>
<text text-anchor="start" x="84.3862" y="-43.8" font-family="Helvetica,sans-Serif" font-size="11.00" fill="#000000"> &#160;</text>
<polygon fill="#ffffff" stroke="transparent" points="93.5,-37.7 93.5,-56.7 135.5,-56.7 135.5,-37.7 93.5,-37.7"/>
<polygon fill="none" stroke="#000000" points="93.5,-37.7 93.5,-56.7 135.5,-56.7 135.5,-37.7 93.5,-37.7"/>
<text text-anchor="start" x="116.9053" y="-43.8" font-family="Helvetica,sans-Serif" font-size="11.00" fill="#000000">1 &gt;</text>
</a>
</g>
</g>
<!-- maatregel&#45;&gt;maatregel_type -->
<g id="edge1" class="edge">
<title>maatregel:w&#45;&gt;maatregel_type:e</title>
<path fill="none" stroke="#000000" d="M172.5669,-167.368C151.0746,-150.0466 173.5328,-86.7 135.5,-86.7"/>
<polygon fill="#000000" stroke="#000000" points="178.8607,-169.3248 185.4312,-175.1377 182.6804,-170.5124 186.5,-171.7 186.5,-171.7 186.5,-171.7 182.6804,-170.5124 187.5688,-168.2623 178.8607,-169.3248 178.8607,-169.3248"/>
<ellipse fill="none" stroke="#000000" cx="175.805" cy="-168.3747" rx="3.2" ry="3.2"/>
</g>
<!-- object -->
<g id="node3" class="node">
<title>object</title>
<g id="a_node3"><a xlink:href="../../tables/object.html" xlink:title="object" target="_top">
<polygon fill="#ffffff" stroke="transparent" points="10,-142.2 10,-313.2 133,-313.2 133,-142.2 10,-142.2"/>
<polygon fill="#f5f5f5" stroke="transparent" points="10.5,-289.7 10.5,-312.7 133.5,-312.7 133.5,-289.7 10.5,-289.7"/>
<polygon fill="none" stroke="#000000" points="10.5,-289.7 10.5,-312.7 133.5,-312.7 133.5,-289.7 10.5,-289.7"/>
<text text-anchor="start" x="15.5" y="-298.3" font-family="Helvetica,sans-Serif" font-weight="bold" font-size="11.00" fill="#000000">object</text>
<text text-anchor="start" x="98.5437" y="-297.8" font-family="Helvetica,sans-Serif" font-size="11.00" fill="#000000">[table]</text>
<polygon fill="none" stroke="#000000" points="10.5,-267.7 10.5,-289.7 133.5,-289.7 133.5,-267.7 10.5,-267.7"/>
<image xlink:href="../../images/primaryKeys.png" width="11px" height="12px" preserveAspectRatio="xMinYMin meet" x="15.5" y="-284.7"/>
<text text-anchor="start" x="30.5" y="-274.8" font-family="Helvetica,sans-Serif" font-size="11.00" fill="#000000">uuid</text>
<polygon fill="#ffffff" stroke="transparent" points="10.5,-245.7 10.5,-267.7 133.5,-267.7 133.5,-245.7 10.5,-245.7"/>
<polygon fill="none" stroke="#000000" points="10.5,-245.7 10.5,-267.7 133.5,-267.7 133.5,-245.7 10.5,-245.7"/>
<text text-anchor="start" x="30.5" y="-252.8" font-family="Helvetica,sans-Serif" font-size="11.00" fill="#000000">geom</text>
<polygon fill="#ffffff" stroke="transparent" points="10.5,-223.7 10.5,-245.7 133.5,-245.7 133.5,-223.7 10.5,-223.7"/>
<polygon fill="none" stroke="#000000" points="10.5,-223.7 10.5,-245.7 133.5,-245.7 133.5,-223.7 10.5,-223.7"/>
<text text-anchor="start" x="30.5" y="-230.8" font-family="Helvetica,sans-Serif" font-size="11.00" fill="#000000">revisie_frequentie</text>
<polygon fill="#ffffff" stroke="transparent" points="10.5,-201.7 10.5,-223.7 133.5,-223.7 133.5,-201.7 10.5,-201.7"/>
<polygon fill="none" stroke="#000000" points="10.5,-201.7 10.5,-223.7 133.5,-223.7 133.5,-201.7 10.5,-201.7"/>
<image xlink:href="../../images/foreignKeys.png" width="11px" height="12px" preserveAspectRatio="xMinYMin meet" x="15.5" y="-218.7"/>
<text text-anchor="start" x="30.5" y="-208.8" font-family="Helvetica,sans-Serif" font-size="11.00" fill="#000000">fase_id</text>
<polygon fill="#ffffff" stroke="transparent" points="10.5,-179.7 10.5,-201.7 133.5,-201.7 133.5,-179.7 10.5,-179.7"/>
<polygon fill="none" stroke="#000000" points="10.5,-179.7 10.5,-201.7 133.5,-201.7 133.5,-179.7 10.5,-179.7"/>
<image xlink:href="../../images/foreignKeys.png" width="11px" height="12px" preserveAspectRatio="xMinYMin meet" x="15.5" y="-196.7"/>
<text text-anchor="start" x="30.5" y="-186.8" font-family="Helvetica,sans-Serif" font-size="11.00" fill="#000000">object_type_id</text>
<polygon fill="none" stroke="#000000" points="10.5,-160.7 10.5,-179.7 133.5,-179.7 133.5,-160.7 10.5,-160.7"/>
<text text-anchor="start" x="13.5" y="-166.8" font-family="Helvetica,sans-Serif" font-size="11.00" fill="#000000">...</text>
<polygon fill="#ffffff" stroke="transparent" points="10.5,-141.7 10.5,-160.7 65.5,-160.7 65.5,-141.7 10.5,-141.7"/>
<polygon fill="none" stroke="#000000" points="10.5,-141.7 10.5,-160.7 65.5,-160.7 65.5,-141.7 10.5,-141.7"/>
<text text-anchor="start" x="13.5" y="-147.8" font-family="Helvetica,sans-Serif" font-size="11.00" fill="#000000">&lt; 2</text>
<polygon fill="#ffffff" stroke="transparent" points="65.5,-141.7 65.5,-160.7 94.5,-160.7 94.5,-141.7 65.5,-141.7"/>
<polygon fill="none" stroke="#000000" points="65.5,-141.7 65.5,-160.7 94.5,-160.7 94.5,-141.7 65.5,-141.7"/>
<text text-anchor="start" x="85.3862" y="-147.8" font-family="Helvetica,sans-Serif" font-size="11.00" fill="#000000"> &#160;</text>
<polygon fill="#ffffff" stroke="transparent" points="94.5,-141.7 94.5,-160.7 133.5,-160.7 133.5,-141.7 94.5,-141.7"/>
<polygon fill="none" stroke="#000000" points="94.5,-141.7 94.5,-160.7 133.5,-160.7 133.5,-141.7 94.5,-141.7"/>
<text text-anchor="start" x="114.9053" y="-147.8" font-family="Helvetica,sans-Serif" font-size="11.00" fill="#000000">5 &gt;</text>
</a>
</g>
</g>
<!-- maatregel&#45;&gt;object -->
<g id="edge2" class="edge">
<title>maatregel:w&#45;&gt;object:e</title>
<path fill="none" stroke="#000000" d="M172.6472,-197.7997C150.1321,-214.7788 172.1071,-278.7 133.5,-278.7"/>
<polygon fill="#000000" stroke="#000000" points="178.8289,-195.9703 187.5216,-197.152 182.6644,-194.8351 186.5,-193.7 186.5,-193.7 186.5,-193.7 182.6644,-194.8351 185.4784,-190.248 178.8289,-195.9703 178.8289,-195.9703"/>
<ellipse fill="none" stroke="#000000" cx="175.7604" cy="-196.8784" rx="3.2" ry="3.2"/>
</g>
</g>
</svg>
