<?xml version="1.0" encoding="UTF-8" standalone="no"?>
<!DOCTYPE svg PUBLIC "-//W3C//DTD SVG 1.1//EN"
 "http://www.w3.org/Graphics/SVG/1.1/DTD/svg11.dtd">
<!-- Generated by graphviz version 2.50.0 (0)
 -->
<!-- Title: twoDegreesRelationshipsDiagram Pages: 1 -->
<svg width="664pt" height="645pt"
 viewBox="0.00 0.00 664.00 645.00" xmlns="http://www.w3.org/2000/svg" xmlns:xlink="http://www.w3.org/1999/xlink">
<g id="graph0" class="graph" transform="scale(1 1) rotate(0) translate(4 641)">
<title>twoDegreesRelationshipsDiagram</title>
<polygon fill="#ffffff" stroke="transparent" points="-4,4 -4,-641 660,-641 660,4 -4,4"/>
<text text-anchor="middle" x="79.5" y="-7.2" font-family="Helvetica,sans-Serif" font-size="11.00">Generated by SchemaSpy</text>
<!-- bereikbaarheid -->
<g id="node1" class="node">
<title>bereikbaarheid</title>
<g id="a_node1"><a xlink:href="../../tables/bereikbaarheid.html" xlink:title="bereikbaarheid" target="_top">
<polygon fill="#ffffff" stroke="transparent" points="440,-575 440,-633 585,-633 585,-575 440,-575"/>
<polygon fill="#f5f5f5" stroke="transparent" points="440.5,-611 440.5,-633 585.5,-633 585.5,-611 440.5,-611"/>
<polygon fill="none" stroke="black" points="440.5,-611 440.5,-633 585.5,-633 585.5,-611 440.5,-611"/>
<text text-anchor="start" x="445.5" y="-620.2" font-family="Helvetica,sans-Serif" font-weight="bold" font-size="11.00">bereikbaarheid</text>
<text text-anchor="start" x="543.5" y="-619.2" font-family="Helvetica,sans-Serif" font-size="11.00">[table]</text>
<polygon fill="none" stroke="black" points="440.5,-593 440.5,-611 585.5,-611 585.5,-593 440.5,-593"/>
<text text-anchor="start" x="443.5" y="-599.2" font-family="Helvetica,sans-Serif" font-size="11.00">...</text>
<polygon fill="#ffffff" stroke="transparent" points="440.5,-575 440.5,-593 511.5,-593 511.5,-575 440.5,-575"/>
<polygon fill="none" stroke="black" points="440.5,-575 440.5,-593 511.5,-593 511.5,-575 440.5,-575"/>
<text text-anchor="start" x="443.5" y="-581.2" font-family="Helvetica,sans-Serif" font-size="11.00">&lt; 2</text>
<polygon fill="#ffffff" stroke="transparent" points="511.5,-575 511.5,-593 548.5,-593 548.5,-575 511.5,-575"/>
<polygon fill="none" stroke="black" points="511.5,-575 511.5,-593 548.5,-593 548.5,-575 511.5,-575"/>
<text text-anchor="start" x="537.5" y="-581.2" font-family="Helvetica,sans-Serif" font-size="11.00"> &#160;</text>
<polygon fill="#ffffff" stroke="transparent" points="548.5,-575 548.5,-593 585.5,-593 585.5,-575 548.5,-575"/>
<polygon fill="none" stroke="black" points="548.5,-575 548.5,-593 585.5,-593 585.5,-575 548.5,-575"/>
<text text-anchor="start" x="574.5" y="-581.2" font-family="Helvetica,sans-Serif" font-size="11.00"> &#160;</text>
</a>
</g>
</g>
<!-- object -->
<g id="node2" class="node">
<title>object</title>
<g id="a_node2"><a xlink:href="../../tables/object.html" xlink:title="object" target="_top">
<polygon fill="#ffffff" stroke="transparent" points="189.5,-309 189.5,-477 318.5,-477 318.5,-309 189.5,-309"/>
<polygon fill="#f5f5f5" stroke="transparent" points="190,-455 190,-477 319,-477 319,-455 190,-455"/>
<polygon fill="none" stroke="black" points="190,-455 190,-477 319,-477 319,-455 190,-455"/>
<text text-anchor="start" x="195" y="-464.2" font-family="Helvetica,sans-Serif" font-weight="bold" font-size="11.00">object</text>
<text text-anchor="start" x="277" y="-463.2" font-family="Helvetica,sans-Serif" font-size="11.00">[table]</text>
<polygon fill="none" stroke="black" points="190,-433 190,-455 319,-455 319,-433 190,-433"/>
<image xlink:href="../../images/primaryKeys.png" width="11px" height="12px" preserveAspectRatio="xMinYMin meet" x="195" y="-450"/>
<text text-anchor="start" x="210" y="-441.2" font-family="Helvetica,sans-Serif" font-size="11.00">uuid</text>
<polygon fill="#ffffff" stroke="transparent" points="190,-411 190,-433 319,-433 319,-411 190,-411"/>
<polygon fill="none" stroke="black" points="190,-411 190,-433 319,-433 319,-411 190,-411"/>
<text text-anchor="start" x="210" y="-419.2" font-family="Helvetica,sans-Serif" font-size="11.00">geom</text>
<polygon fill="#ffffff" stroke="transparent" points="190,-389 190,-411 319,-411 319,-389 190,-389"/>
<polygon fill="none" stroke="black" points="190,-389 190,-411 319,-411 319,-389 190,-389"/>
<text text-anchor="start" x="210" y="-397.2" font-family="Helvetica,sans-Serif" font-size="11.00">revisie_frequentie</text>
<polygon fill="#ffffff" stroke="transparent" points="190,-367 190,-389 319,-389 319,-367 190,-367"/>
<polygon fill="none" stroke="black" points="190,-367 190,-389 319,-389 319,-367 190,-367"/>
<image xlink:href="../../images/foreignKeys.png" width="11px" height="12px" preserveAspectRatio="xMinYMin meet" x="195" y="-384"/>
<text text-anchor="start" x="210" y="-375.2" font-family="Helvetica,sans-Serif" font-size="11.00">fase_id</text>
<polygon fill="#ffffff" stroke="transparent" points="190,-345 190,-367 319,-367 319,-345 190,-345"/>
<polygon fill="none" stroke="black" points="190,-345 190,-367 319,-367 319,-345 190,-345"/>
<image xlink:href="../../images/foreignKeys.png" width="11px" height="12px" preserveAspectRatio="xMinYMin meet" x="195" y="-362"/>
<text text-anchor="start" x="210" y="-353.2" font-family="Helvetica,sans-Serif" font-size="11.00">object_type_id</text>
<polygon fill="none" stroke="black" points="190,-327 190,-345 319,-345 319,-327 190,-327"/>
<text text-anchor="start" x="193" y="-333.2" font-family="Helvetica,sans-Serif" font-size="11.00">...</text>
<polygon fill="#ffffff" stroke="transparent" points="190,-309 190,-327 247,-327 247,-309 190,-309"/>
<polygon fill="none" stroke="black" points="190,-309 190,-327 247,-327 247,-309 190,-309"/>
<text text-anchor="start" x="193" y="-315.2" font-family="Helvetica,sans-Serif" font-size="11.00">&lt; 2</text>
<polygon fill="#ffffff" stroke="transparent" points="247,-309 247,-327 277,-327 277,-309 247,-309"/>
<polygon fill="none" stroke="black" points="247,-309 247,-327 277,-327 277,-309 247,-309"/>
<text text-anchor="start" x="266" y="-315.2" font-family="Helvetica,sans-Serif" font-size="11.00"> &#160;</text>
<polygon fill="#ffffff" stroke="transparent" points="277,-309 277,-327 319,-327 319,-309 277,-309"/>
<polygon fill="none" stroke="black" points="277,-309 277,-327 319,-327 319,-309 277,-309"/>
<text text-anchor="start" x="296" y="-315.2" font-family="Helvetica,sans-Serif" font-size="11.00">5 &gt;</text>
</a>
</g>
</g>
<!-- bereikbaarheid&#45;&gt;object -->
<g id="edge1" class="edge">
<title>bereikbaarheid:w&#45;&gt;object:e</title>
<path fill="none" stroke="black" d="M424.87,-601.23C400.37,-598.36 389.14,-587.23 369,-565 330.04,-522 378.02,-444 320,-444"/>
<polygon fill="black" stroke="black" points="431.51,-601.58 439.31,-605.6 435.51,-601.79 439.5,-602 439.5,-602 439.5,-602 435.51,-601.79 439.69,-598.4 431.51,-601.58 431.51,-601.58"/>
<ellipse fill="none" stroke="black" cx="428.32" cy="-601.41" rx="3.2" ry="3.2"/>
</g>
<!-- roi.fase -->
<g id="node6" class="node">
<title>roi.fase</title>
<g id="a_node6"><a xlink:href="../../../roi/tables/fase.html" xlink:title="roi.fase" target="_top">
<polygon fill="#ffffff" stroke="transparent" points="20,-379 20,-437 119,-437 119,-379 20,-379"/>
<polygon fill="#f5f5f5" stroke="transparent" points="20.5,-415 20.5,-437 119.5,-437 119.5,-415 20.5,-415"/>
<polygon fill="none" stroke="black" points="20.5,-415 20.5,-437 119.5,-437 119.5,-415 20.5,-415"/>
<text text-anchor="start" x="25.5" y="-424.2" font-family="Helvetica,sans-Serif" font-weight="bold" font-size="11.00">roi.fase</text>
<text text-anchor="start" x="77.5" y="-423.2" font-family="Helvetica,sans-Serif" font-size="11.00">[table]</text>
<polygon fill="none" stroke="black" points="20.5,-397 20.5,-415 119.5,-415 119.5,-397 20.5,-397"/>
<text text-anchor="start" x="23.5" y="-403.2" font-family="Helvetica,sans-Serif" font-size="11.00">...</text>
<polygon fill="#ffffff" stroke="transparent" points="20.5,-379 20.5,-397 56.5,-397 56.5,-379 20.5,-379"/>
<polygon fill="none" stroke="black" points="20.5,-379 20.5,-397 56.5,-397 56.5,-379 20.5,-379"/>
<text text-anchor="start" x="23.5" y="-385.2" font-family="Helvetica,sans-Serif" font-size="11.00"> &#160;</text>
<polygon fill="#ffffff" stroke="transparent" points="56.5,-379 56.5,-397 81.5,-397 81.5,-379 56.5,-379"/>
<polygon fill="none" stroke="black" points="56.5,-379 56.5,-397 81.5,-397 81.5,-379 56.5,-379"/>
<text text-anchor="start" x="70.5" y="-385.2" font-family="Helvetica,sans-Serif" font-size="11.00"> &#160;</text>
<polygon fill="#ffffff" stroke="transparent" points="81.5,-379 81.5,-397 119.5,-397 119.5,-379 81.5,-379"/>
<polygon fill="none" stroke="black" points="81.5,-379 81.5,-397 119.5,-397 119.5,-379 81.5,-379"/>
<text text-anchor="start" x="96.5" y="-385.2" font-family="Helvetica,sans-Serif" font-size="11.00">1 &gt;</text>
</a>
</g>
</g>
<!-- object&#45;&gt;roi.fase -->
<g id="edge5" class="edge">
<title>object:w&#45;&gt;roi.fase:e</title>
<path fill="none" stroke="black" d="M174.69,-380.1C154.35,-386.62 147.87,-406 120.5,-406"/>
<polygon fill="black" stroke="black" points="181.09,-379.16 189.52,-381.56 185.04,-378.58 189,-378 189,-378 189,-378 185.04,-378.58 188.48,-374.44 181.09,-379.16 181.09,-379.16"/>
<ellipse fill="none" stroke="black" cx="177.92" cy="-379.63" rx="3.2" ry="3.2"/>
</g>
<!-- object_type -->
<g id="node7" class="node">
<title>object_type</title>
<g id="a_node7"><a xlink:href="../../tables/object_type.html" xlink:title="object_type" target="_top">
<polygon fill="#ffffff" stroke="transparent" points="8,-300 8,-358 131,-358 131,-300 8,-300"/>
<polygon fill="#f5f5f5" stroke="transparent" points="8.5,-336 8.5,-358 131.5,-358 131.5,-336 8.5,-336"/>
<polygon fill="none" stroke="black" points="8.5,-336 8.5,-358 131.5,-358 131.5,-336 8.5,-336"/>
<text text-anchor="start" x="13.5" y="-345.2" font-family="Helvetica,sans-Serif" font-weight="bold" font-size="11.00">object_type</text>
<text text-anchor="start" x="89.5" y="-344.2" font-family="Helvetica,sans-Serif" font-size="11.00">[table]</text>
<polygon fill="none" stroke="black" points="8.5,-318 8.5,-336 131.5,-336 131.5,-318 8.5,-318"/>
<text text-anchor="start" x="11.5" y="-324.2" font-family="Helvetica,sans-Serif" font-size="11.00">...</text>
<polygon fill="#ffffff" stroke="transparent" points="8.5,-300 8.5,-318 56.5,-318 56.5,-300 8.5,-300"/>
<polygon fill="none" stroke="black" points="8.5,-300 8.5,-318 56.5,-318 56.5,-300 8.5,-300"/>
<text text-anchor="start" x="11.5" y="-306.2" font-family="Helvetica,sans-Serif" font-size="11.00"> &#160;</text>
<polygon fill="#ffffff" stroke="transparent" points="56.5,-300 56.5,-318 87.5,-318 87.5,-300 56.5,-300"/>
<polygon fill="none" stroke="black" points="56.5,-300 56.5,-318 87.5,-318 87.5,-300 56.5,-300"/>
<text text-anchor="start" x="76.5" y="-306.2" font-family="Helvetica,sans-Serif" font-size="11.00"> &#160;</text>
<polygon fill="#ffffff" stroke="transparent" points="87.5,-300 87.5,-318 131.5,-318 131.5,-300 87.5,-300"/>
<polygon fill="none" stroke="black" points="87.5,-300 87.5,-318 131.5,-318 131.5,-300 87.5,-300"/>
<text text-anchor="start" x="108.5" y="-306.2" font-family="Helvetica,sans-Serif" font-size="11.00">1 &gt;</text>
</a>
</g>
</g>
<!-- object&#45;&gt;object_type -->
<g id="edge6" class="edge">
<title>object:w&#45;&gt;object_type:e</title>
<path fill="none" stroke="black" d="M174.82,-352.9C159.59,-345.42 154.99,-327 132.5,-327"/>
<polygon fill="black" stroke="black" points="181.18,-354.29 188.23,-359.52 185.09,-355.15 189,-356 189,-356 189,-356 185.09,-355.15 189.77,-352.48 181.18,-354.29 181.18,-354.29"/>
<ellipse fill="none" stroke="black" cx="178.06" cy="-353.61" rx="3.2" ry="3.2"/>
</g>
<!-- label -->
<g id="node3" class="node">
<title>label</title>
<g id="a_node3"><a xlink:href="../../tables/label.html" xlink:title="label" target="_top">
<polygon fill="#ffffff" stroke="transparent" points="471.5,-496 471.5,-554 553.5,-554 553.5,-496 471.5,-496"/>
<polygon fill="#f5f5f5" stroke="transparent" points="471.5,-532 471.5,-554 553.5,-554 553.5,-532 471.5,-532"/>
<polygon fill="none" stroke="black" points="471.5,-532 471.5,-554 553.5,-554 553.5,-532 471.5,-532"/>
<text text-anchor="start" x="476.5" y="-541.2" font-family="Helvetica,sans-Serif" font-weight="bold" font-size="11.00">label</text>
<text text-anchor="start" x="511.5" y="-540.2" font-family="Helvetica,sans-Serif" font-size="11.00">[table]</text>
<polygon fill="none" stroke="black" points="471.5,-514 471.5,-532 553.5,-532 553.5,-514 471.5,-514"/>
<text text-anchor="start" x="474.5" y="-520.2" font-family="Helvetica,sans-Serif" font-size="11.00">...</text>
<polygon fill="#ffffff" stroke="transparent" points="471.5,-496 471.5,-514 511.5,-514 511.5,-496 471.5,-496"/>
<polygon fill="none" stroke="black" points="471.5,-496 471.5,-514 511.5,-514 511.5,-496 471.5,-496"/>
<text text-anchor="start" x="474.5" y="-502.2" font-family="Helvetica,sans-Serif" font-size="11.00">&lt; 2</text>
<polygon fill="#ffffff" stroke="transparent" points="511.5,-496 511.5,-514 532.5,-514 532.5,-496 511.5,-496"/>
<polygon fill="none" stroke="black" points="511.5,-496 511.5,-514 532.5,-514 532.5,-496 511.5,-496"/>
<text text-anchor="start" x="521.5" y="-502.2" font-family="Helvetica,sans-Serif" font-size="11.00"> &#160;</text>
<polygon fill="#ffffff" stroke="transparent" points="532.5,-496 532.5,-514 553.5,-514 553.5,-496 532.5,-496"/>
<polygon fill="none" stroke="black" points="532.5,-496 532.5,-514 553.5,-514 553.5,-496 532.5,-496"/>
<text text-anchor="start" x="542.5" y="-502.2" font-family="Helvetica,sans-Serif" font-size="11.00"> &#160;</text>
</a>
</g>
</g>
<!-- label&#45;&gt;object -->
<g id="edge2" class="edge">
<title>label:w&#45;&gt;object:e</title>
<path fill="none" stroke="black" d="M455.95,-522.54C419.5,-520.07 405.92,-507.58 369,-486 344.24,-471.52 348.68,-444 320,-444"/>
<polygon fill="black" stroke="black" points="462.5,-522.75 470.39,-526.6 466.5,-522.87 470.5,-523 470.5,-523 470.5,-523 466.5,-522.87 470.61,-519.4 462.5,-522.75 462.5,-522.75"/>
<ellipse fill="none" stroke="black" cx="459.31" cy="-522.65" rx="3.2" ry="3.2"/>
</g>
<!-- maatregel -->
<g id="node4" class="node">
<title>maatregel</title>
<g id="a_node4"><a xlink:href="../../tables/maatregel.html" xlink:title="maatregel" target="_top">
<polygon fill="#ffffff" stroke="transparent" points="377,-53 377,-317 648,-317 648,-53 377,-53"/>
<polygon fill="#f5f5f5" stroke="transparent" points="379.5,-293 379.5,-315 646.5,-315 646.5,-293 379.5,-293"/>
<polygon fill="none" stroke="black" points="379.5,-293 379.5,-315 646.5,-315 646.5,-293 379.5,-293"/>
<text text-anchor="start" x="384.5" y="-302.2" font-family="Helvetica,sans-Serif" font-weight="bold" font-size="11.00">maatregel</text>
<text text-anchor="start" x="604.5" y="-301.2" font-family="Helvetica,sans-Serif" font-size="11.00">[table]</text>
<polygon fill="none" stroke="black" points="379.5,-271 379.5,-293 510.5,-293 510.5,-271 379.5,-271"/>
<image xlink:href="../../images/primaryKeys.png" width="11px" height="12px" preserveAspectRatio="xMinYMin meet" x="384.5" y="-288"/>
<text text-anchor="start" x="399.5" y="-279.2" font-family="Helvetica,sans-Serif" font-size="11.00">uuid</text>
<polygon fill="none" stroke="black" points="510.5,-271 510.5,-293 646.5,-293 646.5,-271 510.5,-271"/>
<text text-anchor="start" x="513.5" y="-279.2" font-family="Helvetica,sans-Serif" font-size="11.00">uuid[2147483647]</text>
<polygon fill="#ffffff" stroke="transparent" points="379.5,-249 379.5,-271 510.5,-271 510.5,-249 379.5,-249"/>
<polygon fill="none" stroke="black" points="379.5,-249 379.5,-271 510.5,-271 510.5,-249 379.5,-249"/>
<text text-anchor="start" x="399.5" y="-257.2" font-family="Helvetica,sans-Serif" font-size="11.00">geom</text>
<polygon fill="none" stroke="black" points="510.5,-249 510.5,-271 646.5,-271 646.5,-249 510.5,-249"/>
<text text-anchor="start" x="513.5" y="-257.2" font-family="Helvetica,sans-Serif" font-size="11.00">geometry[2147483647]</text>
<polygon fill="none" stroke="black" points="379.5,-227 379.5,-249 510.5,-249 510.5,-227 379.5,-227"/>
<text text-anchor="start" x="399.5" y="-235.2" font-family="Helvetica,sans-Serif" font-size="11.00">datumtijd</text>
<polygon fill="none" stroke="black" points="510.5,-227 510.5,-249 646.5,-249 646.5,-227 510.5,-227"/>
<text text-anchor="start" x="513.5" y="-235.2" font-family="Helvetica,sans-Serif" font-size="11.00">timestamptz[35,6]</text>
<polygon fill="none" stroke="black" points="379.5,-205 379.5,-227 510.5,-227 510.5,-205 379.5,-205"/>
<text text-anchor="start" x="399.5" y="-213.2" font-family="Helvetica,sans-Serif" font-size="11.00">gebruiker</text>
<polygon fill="none" stroke="black" points="510.5,-205 510.5,-227 646.5,-227 646.5,-205 510.5,-205"/>
<text text-anchor="start" x="513.5" y="-213.2" font-family="Helvetica,sans-Serif" font-size="11.00">varchar[255]</text>
<polygon fill="none" stroke="black" points="379.5,-183 379.5,-205 510.5,-205 510.5,-183 379.5,-183"/>
<text text-anchor="start" x="399.5" y="-191.2" font-family="Helvetica,sans-Serif" font-size="11.00">label</text>
<polygon fill="none" stroke="black" points="510.5,-183 510.5,-205 646.5,-205 646.5,-183 510.5,-183"/>
<text text-anchor="start" x="513.5" y="-191.2" font-family="Helvetica,sans-Serif" font-size="11.00">text[2147483647]</text>
<polygon fill="none" stroke="black" points="379.5,-161 379.5,-183 510.5,-183 510.5,-161 379.5,-161"/>
<text text-anchor="start" x="399.5" y="-169.2" font-family="Helvetica,sans-Serif" font-size="11.00">rotatie</text>
<polygon fill="none" stroke="black" points="510.5,-161 510.5,-183 646.5,-183 646.5,-161 510.5,-161"/>
<text text-anchor="start" x="513.5" y="-169.2" font-family="Helvetica,sans-Serif" font-size="11.00">int4[10]</text>
<polygon fill="none" stroke="black" points="379.5,-139 379.5,-161 510.5,-161 510.5,-139 379.5,-139"/>
<text text-anchor="start" x="399.5" y="-147.2" font-family="Helvetica,sans-Serif" font-size="11.00">bijzonderheden</text>
<polygon fill="none" stroke="black" points="510.5,-139 510.5,-161 646.5,-161 646.5,-139 510.5,-139"/>
<text text-anchor="start" x="513.5" y="-147.2" font-family="Helvetica,sans-Serif" font-size="11.00">text[2147483647]</text>
<polygon fill="none" stroke="black" points="379.5,-117 379.5,-139 510.5,-139 510.5,-117 379.5,-117"/>
<text text-anchor="start" x="399.5" y="-125.2" font-family="Helvetica,sans-Serif" font-size="11.00">plusinfo</text>
<polygon fill="none" stroke="black" points="510.5,-117 510.5,-139 646.5,-139 646.5,-117 510.5,-117"/>
<text text-anchor="start" x="513.5" y="-125.2" font-family="Helvetica,sans-Serif" font-size="11.00">jsonb[2147483647]</text>
<polygon fill="#ffffff" stroke="transparent" points="379.5,-95 379.5,-117 510.5,-117 510.5,-95 379.5,-95"/>
<polygon fill="none" stroke="black" points="379.5,-95 379.5,-117 510.5,-117 510.5,-95 379.5,-95"/>
<image xlink:href="../../images/foreignKeys.png" width="11px" height="12px" preserveAspectRatio="xMinYMin meet" x="384.5" y="-112"/>
<text text-anchor="start" x="399.5" y="-103.2" font-family="Helvetica,sans-Serif" font-size="11.00">object_uuid</text>
<polygon fill="none" stroke="black" points="510.5,-95 510.5,-117 646.5,-117 646.5,-95 510.5,-95"/>
<text text-anchor="start" x="513.5" y="-103.2" font-family="Helvetica,sans-Serif" font-size="11.00">uuid[2147483647]</text>
<polygon fill="none" stroke="black" points="379.5,-73 379.5,-95 510.5,-95 510.5,-73 379.5,-73"/>
<image xlink:href="../../images/foreignKeys.png" width="11px" height="12px" preserveAspectRatio="xMinYMin meet" x="384.5" y="-90"/>
<text text-anchor="start" x="399.5" y="-81.2" font-family="Helvetica,sans-Serif" font-size="11.00">maatregel_type_id</text>
<polygon fill="none" stroke="black" points="510.5,-73 510.5,-95 646.5,-95 646.5,-73 510.5,-73"/>
<text text-anchor="start" x="513.5" y="-81.2" font-family="Helvetica,sans-Serif" font-size="11.00">int2[5]</text>
<polygon fill="#ffffff" stroke="transparent" points="379.5,-55 379.5,-73 450.5,-73 450.5,-55 379.5,-55"/>
<polygon fill="none" stroke="black" points="379.5,-55 379.5,-73 450.5,-73 450.5,-55 379.5,-55"/>
<text text-anchor="start" x="382.5" y="-61.2" font-family="Helvetica,sans-Serif" font-size="11.00">&lt; 2</text>
<polygon fill="#ffffff" stroke="transparent" points="450.5,-55 450.5,-73 510.5,-73 510.5,-55 450.5,-55"/>
<polygon fill="none" stroke="black" points="450.5,-55 450.5,-73 510.5,-73 510.5,-55 450.5,-55"/>
<text text-anchor="start" x="499.5" y="-61.2" font-family="Helvetica,sans-Serif" font-size="11.00"> &#160;</text>
<polygon fill="#ffffff" stroke="transparent" points="510.5,-55 510.5,-73 646.5,-73 646.5,-55 510.5,-55"/>
<polygon fill="none" stroke="black" points="510.5,-55 510.5,-73 646.5,-73 646.5,-55 510.5,-55"/>
<text text-anchor="start" x="623.5" y="-61.2" font-family="Helvetica,sans-Serif" font-size="11.00">0 &gt;</text>
<polygon fill="none" stroke="black" stroke-width="2" points="378,-54 378,-316 647,-316 647,-54 378,-54"/>
</a>
</g>
</g>
<!-- maatregel&#45;&gt;object -->
<g id="edge4" class="edge">
<title>maatregel:w&#45;&gt;object:e</title>
<path fill="none" stroke="black" d="M364.83,-110.78C314.64,-151.86 390.87,-444 320,-444"/>
<polygon fill="black" stroke="black" points="370.95,-108.64 379.69,-109.4 374.72,-107.32 378.5,-106 378.5,-106 378.5,-106 374.72,-107.32 377.31,-102.6 370.95,-108.64 370.95,-108.64"/>
<ellipse fill="none" stroke="black" cx="367.93" cy="-109.69" rx="3.2" ry="3.2"/>
</g>
<!-- maatregel_type -->
<g id="node5" class="node">
<title>maatregel_type</title>
<g id="a_node5"><a xlink:href="../../tables/maatregel_type.html" xlink:title="maatregel_type" target="_top">
<polygon fill="#ffffff" stroke="transparent" points="180,-37 180,-117 328,-117 328,-37 180,-37"/>
<polygon fill="#f5f5f5" stroke="transparent" points="180,-95 180,-117 328,-117 328,-95 180,-95"/>
<polygon fill="none" stroke="black" points="180,-95 180,-117 328,-117 328,-95 180,-95"/>
<text text-anchor="start" x="185" y="-104.2" font-family="Helvetica,sans-Serif" font-weight="bold" font-size="11.00">maatregel_type</text>
<text text-anchor="start" x="286" y="-103.2" font-family="Helvetica,sans-Serif" font-size="11.00">[table]</text>
<polygon fill="none" stroke="black" points="180,-73 180,-95 328,-95 328,-73 180,-73"/>
<image xlink:href="../../images/primaryKeys.png" width="11px" height="12px" preserveAspectRatio="xMinYMin meet" x="185" y="-90"/>
<text text-anchor="start" x="217" y="-81.2" font-family="Helvetica,sans-Serif" font-size="11.00">id</text>
<polygon fill="none" stroke="black" points="180,-55 180,-73 328,-73 328,-55 180,-55"/>
<text text-anchor="start" x="183" y="-61.2" font-family="Helvetica,sans-Serif" font-size="11.00">...</text>
<polygon fill="#ffffff" stroke="transparent" points="180,-37 180,-55 241,-55 241,-37 180,-37"/>
<polygon fill="none" stroke="black" points="180,-37 180,-55 241,-55 241,-37 180,-37"/>
<text text-anchor="start" x="183" y="-43.2" font-family="Helvetica,sans-Serif" font-size="11.00"> &#160;</text>
<polygon fill="#ffffff" stroke="transparent" points="241,-37 241,-55 278,-55 278,-37 241,-37"/>
<polygon fill="none" stroke="black" points="241,-37 241,-55 278,-55 278,-37 241,-37"/>
<text text-anchor="start" x="267" y="-43.2" font-family="Helvetica,sans-Serif" font-size="11.00"> &#160;</text>
<polygon fill="#ffffff" stroke="transparent" points="278,-37 278,-55 328,-55 328,-37 278,-37"/>
<polygon fill="none" stroke="black" points="278,-37 278,-55 328,-55 328,-37 278,-37"/>
<text text-anchor="start" x="305" y="-43.2" font-family="Helvetica,sans-Serif" font-size="11.00">1 &gt;</text>
</a>
</g>
</g>
<!-- maatregel&#45;&gt;maatregel_type -->
<g id="edge3" class="edge">
<title>maatregel:w&#45;&gt;maatregel_type:e</title>
<path fill="none" stroke="black" d="M363.84,-84C352.41,-84 345.16,-84 329,-84"/>
<polygon fill="black" stroke="black" points="370.5,-84 378.5,-87.6 374.5,-84 378.5,-84 378.5,-84 378.5,-84 374.5,-84 378.5,-80.4 370.5,-84 370.5,-84"/>
<ellipse fill="none" stroke="black" cx="367.3" cy="-84" rx="3.2" ry="3.2"/>
</g>
<!-- sector -->
<g id="node8" class="node">
<title>sector</title>
<g id="a_node8"><a xlink:href="../../tables/sector.html" xlink:title="sector" target="_top">
<polygon fill="#ffffff" stroke="transparent" points="467,-417 467,-475 558,-475 558,-417 467,-417"/>
<polygon fill="#f5f5f5" stroke="transparent" points="467.5,-453 467.5,-475 558.5,-475 558.5,-453 467.5,-453"/>
<polygon fill="none" stroke="black" points="467.5,-453 467.5,-475 558.5,-475 558.5,-453 467.5,-453"/>
<text text-anchor="start" x="472.5" y="-462.2" font-family="Helvetica,sans-Serif" font-weight="bold" font-size="11.00">sector</text>
<text text-anchor="start" x="516.5" y="-461.2" font-family="Helvetica,sans-Serif" font-size="11.00">[table]</text>
<polygon fill="none" stroke="black" points="467.5,-435 467.5,-453 558.5,-453 558.5,-435 467.5,-435"/>
<text text-anchor="start" x="470.5" y="-441.2" font-family="Helvetica,sans-Serif" font-size="11.00">...</text>
<polygon fill="#ffffff" stroke="transparent" points="467.5,-417 467.5,-435 511.5,-435 511.5,-417 467.5,-417"/>
<polygon fill="none" stroke="black" points="467.5,-417 467.5,-435 511.5,-435 511.5,-417 467.5,-417"/>
<text text-anchor="start" x="470.5" y="-423.2" font-family="Helvetica,sans-Serif" font-size="11.00">&lt; 2</text>
<polygon fill="#ffffff" stroke="transparent" points="511.5,-417 511.5,-435 534.5,-435 534.5,-417 511.5,-417"/>
<polygon fill="none" stroke="black" points="511.5,-417 511.5,-435 534.5,-435 534.5,-417 511.5,-417"/>
<text text-anchor="start" x="523.5" y="-423.2" font-family="Helvetica,sans-Serif" font-size="11.00"> &#160;</text>
<polygon fill="#ffffff" stroke="transparent" points="534.5,-417 534.5,-435 558.5,-435 558.5,-417 534.5,-417"/>
<polygon fill="none" stroke="black" points="534.5,-417 534.5,-435 558.5,-435 558.5,-417 534.5,-417"/>
<text text-anchor="start" x="547.5" y="-423.2" font-family="Helvetica,sans-Serif" font-size="11.00"> &#160;</text>
</a>
</g>
</g>
<!-- sector&#45;&gt;object -->
<g id="edge7" class="edge">
<title>sector:w&#45;&gt;object:e</title>
<path fill="none" stroke="black" d="M452.09,-444C398.55,-444 380.02,-444 320,-444"/>
<polygon fill="black" stroke="black" points="458.5,-444 466.5,-447.6 462.5,-444 466.5,-444 466.5,-444 466.5,-444 462.5,-444 466.5,-440.4 458.5,-444 458.5,-444"/>
<ellipse fill="none" stroke="black" cx="455.3" cy="-444" rx="3.2" ry="3.2"/>
</g>
<!-- voorziening -->
<g id="node9" class="node">
<title>voorziening</title>
<g id="a_node9"><a xlink:href="../../tables/voorziening.html" xlink:title="voorziening" target="_top">
<polygon fill="#ffffff" stroke="transparent" points="450.5,-338 450.5,-396 574.5,-396 574.5,-338 450.5,-338"/>
<polygon fill="#f5f5f5" stroke="transparent" points="450.5,-374 450.5,-396 574.5,-396 574.5,-374 450.5,-374"/>
<polygon fill="none" stroke="black" points="450.5,-374 450.5,-396 574.5,-396 574.5,-374 450.5,-374"/>
<text text-anchor="start" x="455.5" y="-383.2" font-family="Helvetica,sans-Serif" font-weight="bold" font-size="11.00">voorziening</text>
<text text-anchor="start" x="532.5" y="-382.2" font-family="Helvetica,sans-Serif" font-size="11.00">[table]</text>
<polygon fill="none" stroke="black" points="450.5,-356 450.5,-374 574.5,-374 574.5,-356 450.5,-356"/>
<text text-anchor="start" x="453.5" y="-362.2" font-family="Helvetica,sans-Serif" font-size="11.00">...</text>
<polygon fill="#ffffff" stroke="transparent" points="450.5,-338 450.5,-356 511.5,-356 511.5,-338 450.5,-338"/>
<polygon fill="none" stroke="black" points="450.5,-338 450.5,-356 511.5,-356 511.5,-338 450.5,-338"/>
<text text-anchor="start" x="453.5" y="-344.2" font-family="Helvetica,sans-Serif" font-size="11.00">&lt; 2</text>
<polygon fill="#ffffff" stroke="transparent" points="511.5,-338 511.5,-356 542.5,-356 542.5,-338 511.5,-338"/>
<polygon fill="none" stroke="black" points="511.5,-338 511.5,-356 542.5,-356 542.5,-338 511.5,-338"/>
<text text-anchor="start" x="531.5" y="-344.2" font-family="Helvetica,sans-Serif" font-size="11.00"> &#160;</text>
<polygon fill="#ffffff" stroke="transparent" points="542.5,-338 542.5,-356 574.5,-356 574.5,-338 542.5,-338"/>
<polygon fill="none" stroke="black" points="542.5,-338 542.5,-356 574.5,-356 574.5,-338 542.5,-338"/>
<text text-anchor="start" x="563.5" y="-344.2" font-family="Helvetica,sans-Serif" font-size="11.00"> &#160;</text>
</a>
</g>
</g>
<!-- voorziening&#45;&gt;object -->
<g id="edge8" class="edge">
<title>voorziening:w&#45;&gt;object:e</title>
<path fill="none" stroke="black" d="M435.09,-366.04C407.05,-370.45 398.58,-388.3 369,-407 345.93,-421.58 347.29,-444 320,-444"/>
<polygon fill="black" stroke="black" points="441.52,-365.57 449.76,-368.59 445.51,-365.29 449.5,-365 449.5,-365 449.5,-365 445.51,-365.29 449.24,-361.41 441.52,-365.57 441.52,-365.57"/>
<ellipse fill="none" stroke="black" cx="438.33" cy="-365.8" rx="3.2" ry="3.2"/>
</g>
</g>
</svg>
