<?xml version="1.0" encoding="UTF-8" standalone="no"?>
<!DOCTYPE svg PUBLIC "-//W3C//DTD SVG 1.1//EN"
 "http://www.w3.org/Graphics/SVG/1.1/DTD/svg11.dtd">
<!-- Generated by graphviz version 2.40.1 (20161225.0304)
 -->
<!-- Title: oneDegreeRelationshipsDiagram Pages: 1 -->
<svg width="402pt" height="227pt"
 viewBox="0.00 0.00 402.00 226.70" xmlns="http://www.w3.org/2000/svg" xmlns:xlink="http://www.w3.org/1999/xlink">
<g id="graph0" class="graph" transform="scale(1 1) rotate(0) translate(4 222.7)">
<title>oneDegreeRelationshipsDiagram</title>
<polygon fill="#ffffff" stroke="transparent" points="-4,4 -4,-222.7 398,-222.7 398,4 -4,4"/>
<text text-anchor="middle" x="72.4936" y="-7.3" font-family="Helvetica,sans-Serif" font-size="11.00" fill="#000000">Generated by SchemaSpy</text>
<!-- maatregel -->
<g id="node1" class="node">
<title>maatregel</title>
<g id="a_node1"><a xlink:href="../../tables/maatregel.html" xlink:title="maatregel" target="_top">
<polygon fill="#ffffff" stroke="transparent" points="260,-65.7 260,-214.7 386,-214.7 386,-65.7 260,-65.7"/>
<polygon fill="#f5f5f5" stroke="transparent" points="260,-191.2 260,-214.2 386,-214.2 386,-191.2 260,-191.2"/>
<polygon fill="none" stroke="#000000" points="260,-191.2 260,-214.2 386,-214.2 386,-191.2 260,-191.2"/>
<text text-anchor="start" x="265" y="-199.8" font-family="Helvetica,sans-Serif" font-weight="bold" font-size="11.00" fill="#000000">maatregel</text>
<text text-anchor="start" x="351.0437" y="-199.3" font-family="Helvetica,sans-Serif" font-size="11.00" fill="#000000">[table]</text>
<polygon fill="none" stroke="#000000" points="260,-169.2 260,-191.2 386,-191.2 386,-169.2 260,-169.2"/>
<image xlink:href="../../images/primaryKeys.png" width="11px" height="12px" preserveAspectRatio="xMinYMin meet" x="265" y="-186.2"/>
<text text-anchor="start" x="280" y="-176.3" font-family="Helvetica,sans-Serif" font-size="11.00" fill="#000000">uuid</text>
<polygon fill="#ffffff" stroke="transparent" points="260,-147.2 260,-169.2 386,-169.2 386,-147.2 260,-147.2"/>
<polygon fill="none" stroke="#000000" points="260,-147.2 260,-169.2 386,-169.2 386,-147.2 260,-147.2"/>
<text text-anchor="start" x="280" y="-154.3" font-family="Helvetica,sans-Serif" font-size="11.00" fill="#000000">geom</text>
<polygon fill="#ffffff" stroke="transparent" points="260,-125.2 260,-147.2 386,-147.2 386,-125.2 260,-125.2"/>
<polygon fill="none" stroke="#000000" points="260,-125.2 260,-147.2 386,-147.2 386,-125.2 260,-125.2"/>
<image xlink:href="../../images/foreignKeys.png" width="11px" height="12px" preserveAspectRatio="xMinYMin meet" x="265" y="-142.2"/>
<text text-anchor="start" x="280" y="-132.3" font-family="Helvetica,sans-Serif" font-size="11.00" fill="#000000">object_uuid</text>
<polygon fill="none" stroke="#000000" points="260,-103.2 260,-125.2 386,-125.2 386,-103.2 260,-103.2"/>
<image xlink:href="../../images/foreignKeys.png" width="11px" height="12px" preserveAspectRatio="xMinYMin meet" x="265" y="-120.2"/>
<text text-anchor="start" x="280" y="-110.3" font-family="Helvetica,sans-Serif" font-size="11.00" fill="#000000">maatregel_type_id</text>
<polygon fill="none" stroke="#000000" points="260,-84.2 260,-103.2 386,-103.2 386,-84.2 260,-84.2"/>
<text text-anchor="start" x="263" y="-90.3" font-family="Helvetica,sans-Serif" font-size="11.00" fill="#000000">...</text>
<polygon fill="#ffffff" stroke="transparent" points="260,-65.2 260,-84.2 321,-84.2 321,-65.2 260,-65.2"/>
<polygon fill="none" stroke="#000000" points="260,-65.2 260,-84.2 321,-84.2 321,-65.2 260,-65.2"/>
<text text-anchor="start" x="263" y="-71.3" font-family="Helvetica,sans-Serif" font-size="11.00" fill="#000000">&lt; 2</text>
<polygon fill="#ffffff" stroke="transparent" points="321,-65.2 321,-84.2 353,-84.2 353,-65.2 321,-65.2"/>
<polygon fill="none" stroke="#000000" points="321,-65.2 321,-84.2 353,-84.2 353,-65.2 321,-65.2"/>
<text text-anchor="start" x="343.8862" y="-71.3" font-family="Helvetica,sans-Serif" font-size="11.00" fill="#000000"> &#160;</text>
<polygon fill="#ffffff" stroke="transparent" points="353,-65.2 353,-84.2 386,-84.2 386,-65.2 353,-65.2"/>
<polygon fill="none" stroke="#000000" points="353,-65.2 353,-84.2 386,-84.2 386,-65.2 353,-65.2"/>
<text text-anchor="start" x="376.8862" y="-71.3" font-family="Helvetica,sans-Serif" font-size="11.00" fill="#000000"> &#160;</text>
</a>
</g>
</g>
<!-- maatregel_type -->
<g id="node2" class="node">
<title>maatregel_type</title>
<g id="a_node2"><a xlink:href="../../tables/maatregel_type.html" xlink:title="maatregel_type" target="_top">
<polygon fill="#ffffff" stroke="transparent" points="8,-38.2 8,-150.2 211,-150.2 211,-38.2 8,-38.2"/>
<polygon fill="#f5f5f5" stroke="transparent" points="10.5,-125.2 10.5,-148.2 209.5,-148.2 209.5,-125.2 10.5,-125.2"/>
<polygon fill="none" stroke="#000000" points="10.5,-125.2 10.5,-148.2 209.5,-148.2 209.5,-125.2 10.5,-125.2"/>
<text text-anchor="start" x="15.5" y="-133.8" font-family="Helvetica,sans-Serif" font-weight="bold" font-size="11.00" fill="#000000">maatregel_type</text>
<text text-anchor="start" x="174.5437" y="-133.3" font-family="Helvetica,sans-Serif" font-size="11.00" fill="#000000">[table]</text>
<polygon fill="none" stroke="#000000" points="10.5,-103.2 10.5,-125.2 119.5,-125.2 119.5,-103.2 10.5,-103.2"/>
<image xlink:href="../../images/primaryKeys.png" width="11px" height="12px" preserveAspectRatio="xMinYMin meet" x="15.5" y="-120.2"/>
<text text-anchor="start" x="30.5" y="-110.3" font-family="Helvetica,sans-Serif" font-size="11.00" fill="#000000">id</text>
<polygon fill="none" stroke="#000000" points="119.5,-103.2 119.5,-125.2 209.5,-125.2 209.5,-103.2 119.5,-103.2"/>
<text text-anchor="start" x="122.5" y="-110.9" font-family="Helvetica,sans-Serif" font-size="11.00" fill="#000000">int2[5]</text>
<polygon fill="none" stroke="#000000" points="10.5,-81.2 10.5,-103.2 119.5,-103.2 119.5,-81.2 10.5,-81.2"/>
<text text-anchor="start" x="30.5" y="-88.3" font-family="Helvetica,sans-Serif" font-size="11.00" fill="#000000">naam</text>
<polygon fill="none" stroke="#000000" points="119.5,-81.2 119.5,-103.2 209.5,-103.2 209.5,-81.2 119.5,-81.2"/>
<text text-anchor="start" x="122.0042" y="-88.9" font-family="Helvetica,sans-Serif" font-size="11.00" fill="#000000">text[2147483647]</text>
<polygon fill="none" stroke="#000000" points="10.5,-59.2 10.5,-81.2 119.5,-81.2 119.5,-59.2 10.5,-59.2"/>
<text text-anchor="start" x="30.5" y="-66.3" font-family="Helvetica,sans-Serif" font-size="11.00" fill="#000000">omschrijving</text>
<polygon fill="none" stroke="#000000" points="119.5,-59.2 119.5,-81.2 209.5,-81.2 209.5,-59.2 119.5,-59.2"/>
<text text-anchor="start" x="122.0042" y="-66.9" font-family="Helvetica,sans-Serif" font-size="11.00" fill="#000000">text[2147483647]</text>
<polygon fill="#ffffff" stroke="transparent" points="10.5,-40.2 10.5,-59.2 69.5,-59.2 69.5,-40.2 10.5,-40.2"/>
<polygon fill="none" stroke="#000000" points="10.5,-40.2 10.5,-59.2 69.5,-59.2 69.5,-40.2 10.5,-40.2"/>
<text text-anchor="start" x="13.5" y="-46.3" font-family="Helvetica,sans-Serif" font-size="11.00" fill="#000000">&lt; 0</text>
<polygon fill="#ffffff" stroke="transparent" points="69.5,-40.2 69.5,-59.2 119.5,-59.2 119.5,-40.2 69.5,-40.2"/>
<polygon fill="none" stroke="#000000" points="69.5,-40.2 69.5,-59.2 119.5,-59.2 119.5,-40.2 69.5,-40.2"/>
<text text-anchor="start" x="110.3862" y="-46.3" font-family="Helvetica,sans-Serif" font-size="11.00" fill="#000000"> &#160;</text>
<polygon fill="#ffffff" stroke="transparent" points="119.5,-40.2 119.5,-59.2 209.5,-59.2 209.5,-40.2 119.5,-40.2"/>
<polygon fill="none" stroke="#000000" points="119.5,-40.2 119.5,-59.2 209.5,-59.2 209.5,-40.2 119.5,-40.2"/>
<text text-anchor="start" x="190.9053" y="-46.3" font-family="Helvetica,sans-Serif" font-size="11.00" fill="#000000">1 &gt;</text>
<polygon fill="none" stroke="#000000" stroke-width="2" points="9,-39.2 9,-149.2 210,-149.2 210,-39.2 9,-39.2"/>
</a>
</g>
</g>
<!-- maatregel&#45;&gt;maatregel_type -->
<g id="edge1" class="edge">
<title>maatregel:w&#45;&gt;maatregel_type:e</title>
<path fill="none" stroke="#000000" d="M245.4203,-114.2C233.5435,-114.2 226.158,-114.2 209.5,-114.2"/>
<polygon fill="#000000" stroke="#000000" points="252,-114.2001 260,-117.8 256,-114.2 260,-114.2 260,-114.2 260,-114.2 256,-114.2 260,-110.6 252,-114.2001 252,-114.2001"/>
<ellipse fill="none" stroke="#000000" cx="248.8" cy="-114.2001" rx="3.2" ry="3.2"/>
</g>
</g>
</svg>
