<?xml version="1.0" encoding="UTF-8" standalone="no"?>
<!DOCTYPE svg PUBLIC "-//W3C//DTD SVG 1.1//EN"
 "http://www.w3.org/Graphics/SVG/1.1/DTD/svg11.dtd">
<!-- Generated by graphviz version 2.50.0 (0)
 -->
<!-- Title: twoDegreesRelationshipsDiagram Pages: 1 -->
<svg width="429pt" height="253pt"
 viewBox="0.00 0.00 429.00 253.00" xmlns="http://www.w3.org/2000/svg" xmlns:xlink="http://www.w3.org/1999/xlink">
<g id="graph0" class="graph" transform="scale(1 1) rotate(0) translate(4 249)">
<title>twoDegreesRelationshipsDiagram</title>
<polygon fill="#ffffff" stroke="transparent" points="-4,4 -4,-249 425,-249 425,4 -4,4"/>
<text text-anchor="middle" x="79.5" y="-7.2" font-family="Helvetica,sans-Serif" font-size="11.00">Generated by SchemaSpy</text>
<!-- maatregel -->
<g id="node1" class="node">
<title>maatregel</title>
<g id="a_node1"><a xlink:href="../../tables/maatregel.html" xlink:title="maatregel" target="_top">
<polygon fill="#ffffff" stroke="transparent" points="282,-95 282,-241 413,-241 413,-95 282,-95"/>
<polygon fill="#f5f5f5" stroke="transparent" points="282.5,-219 282.5,-241 413.5,-241 413.5,-219 282.5,-219"/>
<polygon fill="none" stroke="black" points="282.5,-219 282.5,-241 413.5,-241 413.5,-219 282.5,-219"/>
<text text-anchor="start" x="287.5" y="-228.2" font-family="Helvetica,sans-Serif" font-weight="bold" font-size="11.00">maatregel</text>
<text text-anchor="start" x="371.5" y="-227.2" font-family="Helvetica,sans-Serif" font-size="11.00">[table]</text>
<polygon fill="none" stroke="black" points="282.5,-197 282.5,-219 413.5,-219 413.5,-197 282.5,-197"/>
<image xlink:href="../../images/primaryKeys.png" width="11px" height="12px" preserveAspectRatio="xMinYMin meet" x="287.5" y="-214"/>
<text text-anchor="start" x="302.5" y="-205.2" font-family="Helvetica,sans-Serif" font-size="11.00">uuid</text>
<polygon fill="#ffffff" stroke="transparent" points="282.5,-175 282.5,-197 413.5,-197 413.5,-175 282.5,-175"/>
<polygon fill="none" stroke="black" points="282.5,-175 282.5,-197 413.5,-197 413.5,-175 282.5,-175"/>
<text text-anchor="start" x="302.5" y="-183.2" font-family="Helvetica,sans-Serif" font-size="11.00">geom</text>
<polygon fill="#ffffff" stroke="transparent" points="282.5,-153 282.5,-175 413.5,-175 413.5,-153 282.5,-153"/>
<polygon fill="none" stroke="black" points="282.5,-153 282.5,-175 413.5,-175 413.5,-153 282.5,-153"/>
<image xlink:href="../../images/foreignKeys.png" width="11px" height="12px" preserveAspectRatio="xMinYMin meet" x="287.5" y="-170"/>
<text text-anchor="start" x="302.5" y="-161.2" font-family="Helvetica,sans-Serif" font-size="11.00">object_uuid</text>
<polygon fill="none" stroke="black" points="282.5,-131 282.5,-153 413.5,-153 413.5,-131 282.5,-131"/>
<image xlink:href="../../images/foreignKeys.png" width="11px" height="12px" preserveAspectRatio="xMinYMin meet" x="287.5" y="-148"/>
<text text-anchor="start" x="302.5" y="-139.2" font-family="Helvetica,sans-Serif" font-size="11.00">maatregel_type_id</text>
<polygon fill="none" stroke="black" points="282.5,-113 282.5,-131 413.5,-131 413.5,-113 282.5,-113"/>
<text text-anchor="start" x="285.5" y="-119.2" font-family="Helvetica,sans-Serif" font-size="11.00">...</text>
<polygon fill="#ffffff" stroke="transparent" points="282.5,-95 282.5,-113 346.5,-113 346.5,-95 282.5,-95"/>
<polygon fill="none" stroke="black" points="282.5,-95 282.5,-113 346.5,-113 346.5,-95 282.5,-95"/>
<text text-anchor="start" x="285.5" y="-101.2" font-family="Helvetica,sans-Serif" font-size="11.00">&lt; 2</text>
<polygon fill="#ffffff" stroke="transparent" points="346.5,-95 346.5,-113 379.5,-113 379.5,-95 346.5,-95"/>
<polygon fill="none" stroke="black" points="346.5,-95 346.5,-113 379.5,-113 379.5,-95 346.5,-95"/>
<text text-anchor="start" x="368.5" y="-101.2" font-family="Helvetica,sans-Serif" font-size="11.00"> &#160;</text>
<polygon fill="#ffffff" stroke="transparent" points="379.5,-95 379.5,-113 413.5,-113 413.5,-95 379.5,-95"/>
<polygon fill="none" stroke="black" points="379.5,-95 379.5,-113 413.5,-113 413.5,-95 379.5,-95"/>
<text text-anchor="start" x="402.5" y="-101.2" font-family="Helvetica,sans-Serif" font-size="11.00"> &#160;</text>
</a>
</g>
</g>
<!-- maatregel_type -->
<g id="node2" class="node">
<title>maatregel_type</title>
<g id="a_node2"><a xlink:href="../../tables/maatregel_type.html" xlink:title="maatregel_type" target="_top">
<polygon fill="#ffffff" stroke="transparent" points="8,-37 8,-147 233,-147 233,-37 8,-37"/>
<polygon fill="#f5f5f5" stroke="transparent" points="10.5,-123 10.5,-145 231.5,-145 231.5,-123 10.5,-123"/>
<polygon fill="none" stroke="black" points="10.5,-123 10.5,-145 231.5,-145 231.5,-123 10.5,-123"/>
<text text-anchor="start" x="15.5" y="-132.2" font-family="Helvetica,sans-Serif" font-weight="bold" font-size="11.00">maatregel_type</text>
<text text-anchor="start" x="189.5" y="-131.2" font-family="Helvetica,sans-Serif" font-size="11.00">[table]</text>
<polygon fill="none" stroke="black" points="10.5,-101 10.5,-123 125.5,-123 125.5,-101 10.5,-101"/>
<image xlink:href="../../images/primaryKeys.png" width="11px" height="12px" preserveAspectRatio="xMinYMin meet" x="15.5" y="-118"/>
<text text-anchor="start" x="30.5" y="-109.2" font-family="Helvetica,sans-Serif" font-size="11.00">id</text>
<polygon fill="none" stroke="black" points="125.5,-101 125.5,-123 231.5,-123 231.5,-101 125.5,-101"/>
<text text-anchor="start" x="128.5" y="-109.2" font-family="Helvetica,sans-Serif" font-size="11.00">int2[5]</text>
<polygon fill="none" stroke="black" points="10.5,-79 10.5,-101 125.5,-101 125.5,-79 10.5,-79"/>
<text text-anchor="start" x="30.5" y="-87.2" font-family="Helvetica,sans-Serif" font-size="11.00">naam</text>
<polygon fill="none" stroke="black" points="125.5,-79 125.5,-101 231.5,-101 231.5,-79 125.5,-79"/>
<text text-anchor="start" x="128.5" y="-87.2" font-family="Helvetica,sans-Serif" font-size="11.00">text[2147483647]</text>
<polygon fill="none" stroke="black" points="10.5,-57 10.5,-79 125.5,-79 125.5,-57 10.5,-57"/>
<text text-anchor="start" x="30.5" y="-65.2" font-family="Helvetica,sans-Serif" font-size="11.00">omschrijving</text>
<polygon fill="none" stroke="black" points="125.5,-57 125.5,-79 231.5,-79 231.5,-57 125.5,-57"/>
<text text-anchor="start" x="128.5" y="-65.2" font-family="Helvetica,sans-Serif" font-size="11.00">text[2147483647]</text>
<polygon fill="#ffffff" stroke="transparent" points="10.5,-39 10.5,-57 73.5,-57 73.5,-39 10.5,-39"/>
<polygon fill="none" stroke="black" points="10.5,-39 10.5,-57 73.5,-57 73.5,-39 10.5,-39"/>
<text text-anchor="start" x="13.5" y="-45.2" font-family="Helvetica,sans-Serif" font-size="11.00">&lt; 0</text>
<polygon fill="#ffffff" stroke="transparent" points="73.5,-39 73.5,-57 125.5,-57 125.5,-39 73.5,-39"/>
<polygon fill="none" stroke="black" points="73.5,-39 73.5,-57 125.5,-57 125.5,-39 73.5,-39"/>
<text text-anchor="start" x="114.5" y="-45.2" font-family="Helvetica,sans-Serif" font-size="11.00"> &#160;</text>
<polygon fill="#ffffff" stroke="transparent" points="125.5,-39 125.5,-57 231.5,-57 231.5,-39 125.5,-39"/>
<polygon fill="none" stroke="black" points="125.5,-39 125.5,-57 231.5,-57 231.5,-39 125.5,-39"/>
<text text-anchor="start" x="208.5" y="-45.2" font-family="Helvetica,sans-Serif" font-size="11.00">1 &gt;</text>
<polygon fill="none" stroke="black" stroke-width="2" points="9,-38 9,-146 232,-146 232,-38 9,-38"/>
</a>
</g>
</g>
<!-- maatregel&#45;&gt;maatregel_type -->
<g id="edge1" class="edge">
<title>maatregel:w&#45;&gt;maatregel_type:e</title>
<path fill="none" stroke="black" d="M267.38,-137.83C255.42,-129.59 252.05,-112 232.5,-112"/>
<polygon fill="black" stroke="black" points="273.83,-139.73 280.48,-145.45 277.66,-140.87 281.5,-142 281.5,-142 281.5,-142 277.66,-140.87 282.52,-138.55 273.83,-139.73 273.83,-139.73"/>
<ellipse fill="none" stroke="black" cx="270.76" cy="-138.83" rx="3.2" ry="3.2"/>
</g>
<!-- object -->
<g id="node3" class="node">
<title>object</title>
<g id="a_node3"><a xlink:href="../../tables/object.html" xlink:title="object" target="_top">
<polygon fill="#ffffff" stroke="transparent" points="75.5,-168 75.5,-226 165.5,-226 165.5,-168 75.5,-168"/>
<polygon fill="#f5f5f5" stroke="transparent" points="75.5,-204 75.5,-226 165.5,-226 165.5,-204 75.5,-204"/>
<polygon fill="none" stroke="black" points="75.5,-204 75.5,-226 165.5,-226 165.5,-204 75.5,-204"/>
<text text-anchor="start" x="80.5" y="-213.2" font-family="Helvetica,sans-Serif" font-weight="bold" font-size="11.00">object</text>
<text text-anchor="start" x="123.5" y="-212.2" font-family="Helvetica,sans-Serif" font-size="11.00">[table]</text>
<polygon fill="none" stroke="black" points="75.5,-186 75.5,-204 165.5,-204 165.5,-186 75.5,-186"/>
<text text-anchor="start" x="78.5" y="-192.2" font-family="Helvetica,sans-Serif" font-size="11.00">...</text>
<polygon fill="#ffffff" stroke="transparent" points="75.5,-168 75.5,-186 113.5,-186 113.5,-168 75.5,-168"/>
<polygon fill="none" stroke="black" points="75.5,-168 75.5,-186 113.5,-186 113.5,-168 75.5,-168"/>
<text text-anchor="start" x="78.5" y="-174.2" font-family="Helvetica,sans-Serif" font-size="11.00">&lt; 2</text>
<polygon fill="#ffffff" stroke="transparent" points="113.5,-168 113.5,-186 133.5,-186 133.5,-168 113.5,-168"/>
<polygon fill="none" stroke="black" points="113.5,-168 113.5,-186 133.5,-186 133.5,-168 113.5,-168"/>
<text text-anchor="start" x="122.5" y="-174.2" font-family="Helvetica,sans-Serif" font-size="11.00"> &#160;</text>
<polygon fill="#ffffff" stroke="transparent" points="133.5,-168 133.5,-186 165.5,-186 165.5,-168 133.5,-168"/>
<polygon fill="none" stroke="black" points="133.5,-168 133.5,-186 165.5,-186 165.5,-168 133.5,-168"/>
<text text-anchor="start" x="142.5" y="-174.2" font-family="Helvetica,sans-Serif" font-size="11.00">5 &gt;</text>
</a>
</g>
</g>
<!-- maatregel&#45;&gt;object -->
<g id="edge2" class="edge">
<title>maatregel:w&#45;&gt;object:e</title>
<path fill="none" stroke="black" d="M266.9,-164.86C226.31,-169.87 214.16,-195 166.5,-195"/>
<polygon fill="black" stroke="black" points="273.51,-164.47 281.71,-167.59 277.51,-164.24 281.5,-164 281.5,-164 281.5,-164 277.51,-164.24 281.29,-160.41 273.51,-164.47 273.51,-164.47"/>
<ellipse fill="none" stroke="black" cx="270.32" cy="-164.66" rx="3.2" ry="3.2"/>
</g>
</g>
</svg>
