<?xml version="1.0" encoding="UTF-8" standalone="no"?>
<!DOCTYPE svg PUBLIC "-//W3C//DTD SVG 1.1//EN"
 "http://www.w3.org/Graphics/SVG/1.1/DTD/svg11.dtd">
<!-- Generated by graphviz version 2.50.0 (0)
 -->
<!-- Title: twoDegreesRelationshipsDiagram Pages: 1 -->
<svg width="659pt" height="863pt"
 viewBox="0.00 0.00 659.00 863.00" xmlns="http://www.w3.org/2000/svg" xmlns:xlink="http://www.w3.org/1999/xlink">
<g id="graph0" class="graph" transform="scale(1 1) rotate(0) translate(4 859)">
<title>twoDegreesRelationshipsDiagram</title>
<polygon fill="#ffffff" stroke="transparent" points="-4,4 -4,-859 655,-859 655,4 -4,4"/>
<text text-anchor="middle" x="79.5" y="-7.2" font-family="Helvetica,sans-Serif" font-size="11.00">Generated by SchemaSpy</text>
<!-- bereikbaarheid -->
<g id="node1" class="node">
<title>bereikbaarheid</title>
<g id="a_node1"><a xlink:href="../../tables/bereikbaarheid.html" xlink:title="bereikbaarheid" target="_top">
<polygon fill="#ffffff" stroke="transparent" points="498,-538 498,-684 643,-684 643,-538 498,-538"/>
<polygon fill="#f5f5f5" stroke="transparent" points="498.5,-662 498.5,-684 643.5,-684 643.5,-662 498.5,-662"/>
<polygon fill="none" stroke="black" points="498.5,-662 498.5,-684 643.5,-684 643.5,-662 498.5,-662"/>
<text text-anchor="start" x="503.5" y="-671.2" font-family="Helvetica,sans-Serif" font-weight="bold" font-size="11.00">bereikbaarheid</text>
<text text-anchor="start" x="601.5" y="-670.2" font-family="Helvetica,sans-Serif" font-size="11.00">[table]</text>
<polygon fill="none" stroke="black" points="498.5,-640 498.5,-662 643.5,-662 643.5,-640 498.5,-640"/>
<image xlink:href="../../images/primaryKeys.png" width="11px" height="12px" preserveAspectRatio="xMinYMin meet" x="503.5" y="-657"/>
<text text-anchor="start" x="534.5" y="-648.2" font-family="Helvetica,sans-Serif" font-size="11.00">uuid</text>
<polygon fill="#ffffff" stroke="transparent" points="498.5,-618 498.5,-640 643.5,-640 643.5,-618 498.5,-618"/>
<polygon fill="none" stroke="black" points="498.5,-618 498.5,-640 643.5,-640 643.5,-618 498.5,-618"/>
<text text-anchor="start" x="534.5" y="-626.2" font-family="Helvetica,sans-Serif" font-size="11.00">geom</text>
<polygon fill="#ffffff" stroke="transparent" points="498.5,-596 498.5,-618 643.5,-618 643.5,-596 498.5,-596"/>
<polygon fill="none" stroke="black" points="498.5,-596 498.5,-618 643.5,-618 643.5,-596 498.5,-596"/>
<image xlink:href="../../images/foreignKeys.png" width="11px" height="12px" preserveAspectRatio="xMinYMin meet" x="503.5" y="-613"/>
<text text-anchor="start" x="534.5" y="-604.2" font-family="Helvetica,sans-Serif" font-size="11.00">object_uuid</text>
<polygon fill="none" stroke="black" points="498.5,-574 498.5,-596 643.5,-596 643.5,-574 498.5,-574"/>
<image xlink:href="../../images/foreignKeys.png" width="11px" height="12px" preserveAspectRatio="xMinYMin meet" x="503.5" y="-591"/>
<text text-anchor="start" x="534.5" y="-582.2" font-family="Helvetica,sans-Serif" font-size="11.00">verbinding_id</text>
<polygon fill="none" stroke="black" points="498.5,-556 498.5,-574 643.5,-574 643.5,-556 498.5,-556"/>
<text text-anchor="start" x="501.5" y="-562.2" font-family="Helvetica,sans-Serif" font-size="11.00">...</text>
<polygon fill="#ffffff" stroke="transparent" points="498.5,-538 498.5,-556 569.5,-556 569.5,-538 498.5,-538"/>
<polygon fill="none" stroke="black" points="498.5,-538 498.5,-556 569.5,-556 569.5,-538 498.5,-538"/>
<text text-anchor="start" x="501.5" y="-544.2" font-family="Helvetica,sans-Serif" font-size="11.00">&lt; 2</text>
<polygon fill="#ffffff" stroke="transparent" points="569.5,-538 569.5,-556 606.5,-556 606.5,-538 569.5,-538"/>
<polygon fill="none" stroke="black" points="569.5,-538 569.5,-556 606.5,-556 606.5,-538 569.5,-538"/>
<text text-anchor="start" x="595.5" y="-544.2" font-family="Helvetica,sans-Serif" font-size="11.00"> &#160;</text>
<polygon fill="#ffffff" stroke="transparent" points="606.5,-538 606.5,-556 643.5,-556 643.5,-538 606.5,-538"/>
<polygon fill="none" stroke="black" points="606.5,-538 606.5,-556 643.5,-556 643.5,-538 606.5,-538"/>
<text text-anchor="start" x="632.5" y="-544.2" font-family="Helvetica,sans-Serif" font-size="11.00"> &#160;</text>
</a>
</g>
</g>
<!-- object -->
<g id="node2" class="node">
<title>object</title>
<g id="a_node2"><a xlink:href="../../tables/object.html" xlink:title="object" target="_top">
<polygon fill="#ffffff" stroke="transparent" points="180,-295 180,-625 449,-625 449,-295 180,-295"/>
<polygon fill="#f5f5f5" stroke="transparent" points="182.5,-601 182.5,-623 447.5,-623 447.5,-601 182.5,-601"/>
<polygon fill="none" stroke="black" points="182.5,-601 182.5,-623 447.5,-623 447.5,-601 182.5,-601"/>
<text text-anchor="start" x="187.5" y="-610.2" font-family="Helvetica,sans-Serif" font-weight="bold" font-size="11.00">object</text>
<text text-anchor="start" x="405.5" y="-609.2" font-family="Helvetica,sans-Serif" font-size="11.00">[table]</text>
<polygon fill="none" stroke="black" points="182.5,-579 182.5,-601 311.5,-601 311.5,-579 182.5,-579"/>
<image xlink:href="../../images/primaryKeys.png" width="11px" height="12px" preserveAspectRatio="xMinYMin meet" x="187.5" y="-596"/>
<text text-anchor="start" x="202.5" y="-587.2" font-family="Helvetica,sans-Serif" font-size="11.00">uuid</text>
<polygon fill="none" stroke="black" points="311.5,-579 311.5,-601 447.5,-601 447.5,-579 311.5,-579"/>
<text text-anchor="start" x="314.5" y="-587.2" font-family="Helvetica,sans-Serif" font-size="11.00">uuid[2147483647]</text>
<polygon fill="#ffffff" stroke="transparent" points="182.5,-557 182.5,-579 311.5,-579 311.5,-557 182.5,-557"/>
<polygon fill="none" stroke="black" points="182.5,-557 182.5,-579 311.5,-579 311.5,-557 182.5,-557"/>
<text text-anchor="start" x="202.5" y="-565.2" font-family="Helvetica,sans-Serif" font-size="11.00">geom</text>
<polygon fill="none" stroke="black" points="311.5,-557 311.5,-579 447.5,-579 447.5,-557 311.5,-557"/>
<text text-anchor="start" x="314.5" y="-565.2" font-family="Helvetica,sans-Serif" font-size="11.00">geometry[2147483647]</text>
<polygon fill="none" stroke="black" points="182.5,-535 182.5,-557 311.5,-557 311.5,-535 182.5,-535"/>
<text text-anchor="start" x="202.5" y="-543.2" font-family="Helvetica,sans-Serif" font-size="11.00">datumtijd</text>
<polygon fill="none" stroke="black" points="311.5,-535 311.5,-557 447.5,-557 447.5,-535 311.5,-535"/>
<text text-anchor="start" x="314.5" y="-543.2" font-family="Helvetica,sans-Serif" font-size="11.00">timestamptz[35,6]</text>
<polygon fill="none" stroke="black" points="182.5,-513 182.5,-535 311.5,-535 311.5,-513 182.5,-513"/>
<text text-anchor="start" x="202.5" y="-521.2" font-family="Helvetica,sans-Serif" font-size="11.00">gebruiker</text>
<polygon fill="none" stroke="black" points="311.5,-513 311.5,-535 447.5,-535 447.5,-513 311.5,-513"/>
<text text-anchor="start" x="314.5" y="-521.2" font-family="Helvetica,sans-Serif" font-size="11.00">varchar[255]</text>
<polygon fill="#ffffff" stroke="transparent" points="182.5,-491 182.5,-513 311.5,-513 311.5,-491 182.5,-491"/>
<polygon fill="none" stroke="black" points="182.5,-491 182.5,-513 311.5,-513 311.5,-491 182.5,-491"/>
<text text-anchor="start" x="202.5" y="-499.2" font-family="Helvetica,sans-Serif" font-size="11.00">revisie_frequentie</text>
<polygon fill="none" stroke="black" points="311.5,-491 311.5,-513 447.5,-513 447.5,-491 311.5,-491"/>
<text text-anchor="start" x="314.5" y="-499.2" font-family="Helvetica,sans-Serif" font-size="11.00">int2[5]</text>
<polygon fill="none" stroke="black" points="182.5,-469 182.5,-491 311.5,-491 311.5,-469 182.5,-469"/>
<text text-anchor="start" x="202.5" y="-477.2" font-family="Helvetica,sans-Serif" font-size="11.00">formelenaam</text>
<polygon fill="none" stroke="black" points="311.5,-469 311.5,-491 447.5,-491 447.5,-469 311.5,-469"/>
<text text-anchor="start" x="314.5" y="-477.2" font-family="Helvetica,sans-Serif" font-size="11.00">text[2147483647]</text>
<polygon fill="none" stroke="black" points="182.5,-447 182.5,-469 311.5,-469 311.5,-447 182.5,-447"/>
<text text-anchor="start" x="202.5" y="-455.2" font-family="Helvetica,sans-Serif" font-size="11.00">code</text>
<polygon fill="none" stroke="black" points="311.5,-447 311.5,-469 447.5,-469 447.5,-447 311.5,-447"/>
<text text-anchor="start" x="314.5" y="-455.2" font-family="Helvetica,sans-Serif" font-size="11.00">text[2147483647]</text>
<polygon fill="none" stroke="black" points="182.5,-425 182.5,-447 311.5,-447 311.5,-425 182.5,-425"/>
<text text-anchor="start" x="202.5" y="-433.2" font-family="Helvetica,sans-Serif" font-size="11.00">adres</text>
<polygon fill="none" stroke="black" points="311.5,-425 311.5,-447 447.5,-447 447.5,-425 311.5,-425"/>
<text text-anchor="start" x="314.5" y="-433.2" font-family="Helvetica,sans-Serif" font-size="11.00">text[2147483647]</text>
<polygon fill="none" stroke="black" points="182.5,-403 182.5,-425 311.5,-425 311.5,-403 182.5,-403"/>
<text text-anchor="start" x="202.5" y="-411.2" font-family="Helvetica,sans-Serif" font-size="11.00">bijzonderheden</text>
<polygon fill="none" stroke="black" points="311.5,-403 311.5,-425 447.5,-425 447.5,-403 311.5,-403"/>
<text text-anchor="start" x="314.5" y="-411.2" font-family="Helvetica,sans-Serif" font-size="11.00">text[2147483647]</text>
<polygon fill="none" stroke="black" points="182.5,-381 182.5,-403 311.5,-403 311.5,-381 182.5,-381"/>
<text text-anchor="start" x="202.5" y="-389.2" font-family="Helvetica,sans-Serif" font-size="11.00">plusinfo</text>
<polygon fill="none" stroke="black" points="311.5,-381 311.5,-403 447.5,-403 447.5,-381 311.5,-381"/>
<text text-anchor="start" x="314.5" y="-389.2" font-family="Helvetica,sans-Serif" font-size="11.00">jsonb[2147483647]</text>
<polygon fill="#ffffff" stroke="transparent" points="182.5,-359 182.5,-381 311.5,-381 311.5,-359 182.5,-359"/>
<polygon fill="none" stroke="black" points="182.5,-359 182.5,-381 311.5,-381 311.5,-359 182.5,-359"/>
<image xlink:href="../../images/foreignKeys.png" width="11px" height="12px" preserveAspectRatio="xMinYMin meet" x="187.5" y="-376"/>
<text text-anchor="start" x="202.5" y="-367.2" font-family="Helvetica,sans-Serif" font-size="11.00">fase_id</text>
<polygon fill="none" stroke="black" points="311.5,-359 311.5,-381 447.5,-381 447.5,-359 311.5,-359"/>
<text text-anchor="start" x="314.5" y="-367.2" font-family="Helvetica,sans-Serif" font-size="11.00">int2[5]</text>
<polygon fill="#ffffff" stroke="transparent" points="182.5,-337 182.5,-359 311.5,-359 311.5,-337 182.5,-337"/>
<polygon fill="none" stroke="black" points="182.5,-337 182.5,-359 311.5,-359 311.5,-337 182.5,-337"/>
<image xlink:href="../../images/foreignKeys.png" width="11px" height="12px" preserveAspectRatio="xMinYMin meet" x="187.5" y="-354"/>
<text text-anchor="start" x="202.5" y="-345.2" font-family="Helvetica,sans-Serif" font-size="11.00">object_type_id</text>
<polygon fill="none" stroke="black" points="311.5,-337 311.5,-359 447.5,-359 447.5,-337 311.5,-337"/>
<text text-anchor="start" x="314.5" y="-345.2" font-family="Helvetica,sans-Serif" font-size="11.00">int2[5]</text>
<polygon fill="none" stroke="black" points="182.5,-315 182.5,-337 311.5,-337 311.5,-315 182.5,-315"/>
<text text-anchor="start" x="202.5" y="-323.2" font-family="Helvetica,sans-Serif" font-size="11.00">beheerder</text>
<polygon fill="none" stroke="black" points="311.5,-315 311.5,-337 447.5,-337 447.5,-315 311.5,-315"/>
<text text-anchor="start" x="314.5" y="-323.2" font-family="Helvetica,sans-Serif" font-size="11.00">text[2147483647]</text>
<polygon fill="#ffffff" stroke="transparent" points="182.5,-297 182.5,-315 252.5,-315 252.5,-297 182.5,-297"/>
<polygon fill="none" stroke="black" points="182.5,-297 182.5,-315 252.5,-315 252.5,-297 182.5,-297"/>
<text text-anchor="start" x="185.5" y="-303.2" font-family="Helvetica,sans-Serif" font-size="11.00">&lt; 2</text>
<polygon fill="#ffffff" stroke="transparent" points="252.5,-297 252.5,-315 311.5,-315 311.5,-297 252.5,-297"/>
<polygon fill="none" stroke="black" points="252.5,-297 252.5,-315 311.5,-315 311.5,-297 252.5,-297"/>
<text text-anchor="start" x="300.5" y="-303.2" font-family="Helvetica,sans-Serif" font-size="11.00"> &#160;</text>
<polygon fill="#ffffff" stroke="transparent" points="311.5,-297 311.5,-315 447.5,-315 447.5,-297 311.5,-297"/>
<polygon fill="none" stroke="black" points="311.5,-297 311.5,-315 447.5,-315 447.5,-297 311.5,-297"/>
<text text-anchor="start" x="424.5" y="-303.2" font-family="Helvetica,sans-Serif" font-size="11.00">5 &gt;</text>
<polygon fill="none" stroke="black" stroke-width="2" points="181,-296 181,-624 448,-624 448,-296 181,-296"/>
</a>
</g>
</g>
<!-- bereikbaarheid&#45;&gt;object -->
<g id="edge1" class="edge">
<title>bereikbaarheid:w&#45;&gt;object:e</title>
<path fill="none" stroke="black" d="M483,-604.19C471.62,-599.36 465.61,-590 448.5,-590"/>
<polygon fill="black" stroke="black" points="489.65,-605.48 496.82,-610.53 493.57,-606.24 497.5,-607 497.5,-607 497.5,-607 493.57,-606.24 498.18,-603.47 489.65,-605.48 489.65,-605.48"/>
<ellipse fill="none" stroke="black" cx="486.5" cy="-604.87" rx="3.2" ry="3.2"/>
</g>
<!-- roi.verbinding -->
<g id="node3" class="node">
<title>roi.verbinding</title>
<g id="a_node3"><a xlink:href="../../../roi/tables/verbinding.html" xlink:title="roi.verbinding" target="_top">
<polygon fill="#ffffff" stroke="transparent" points="245.5,-646 245.5,-704 383.5,-704 383.5,-646 245.5,-646"/>
<polygon fill="#f5f5f5" stroke="transparent" points="245.5,-682 245.5,-704 383.5,-704 383.5,-682 245.5,-682"/>
<polygon fill="none" stroke="black" points="245.5,-682 245.5,-704 383.5,-704 383.5,-682 245.5,-682"/>
<text text-anchor="start" x="250.5" y="-691.2" font-family="Helvetica,sans-Serif" font-weight="bold" font-size="11.00">roi.verbinding</text>
<text text-anchor="start" x="341.5" y="-690.2" font-family="Helvetica,sans-Serif" font-size="11.00">[table]</text>
<polygon fill="none" stroke="black" points="245.5,-664 245.5,-682 383.5,-682 383.5,-664 245.5,-664"/>
<text text-anchor="start" x="248.5" y="-670.2" font-family="Helvetica,sans-Serif" font-size="11.00">...</text>
<polygon fill="#ffffff" stroke="transparent" points="245.5,-646 245.5,-664 301.5,-664 301.5,-646 245.5,-646"/>
<polygon fill="none" stroke="black" points="245.5,-646 245.5,-664 301.5,-664 301.5,-646 245.5,-646"/>
<text text-anchor="start" x="248.5" y="-652.2" font-family="Helvetica,sans-Serif" font-size="11.00"> &#160;</text>
<polygon fill="#ffffff" stroke="transparent" points="301.5,-646 301.5,-664 336.5,-664 336.5,-646 301.5,-646"/>
<polygon fill="none" stroke="black" points="301.5,-646 301.5,-664 336.5,-664 336.5,-646 301.5,-646"/>
<text text-anchor="start" x="325.5" y="-652.2" font-family="Helvetica,sans-Serif" font-size="11.00"> &#160;</text>
<polygon fill="#ffffff" stroke="transparent" points="336.5,-646 336.5,-664 383.5,-664 383.5,-646 336.5,-646"/>
<polygon fill="none" stroke="black" points="336.5,-646 336.5,-664 383.5,-664 383.5,-646 336.5,-646"/>
<text text-anchor="start" x="360.5" y="-652.2" font-family="Helvetica,sans-Serif" font-size="11.00">1 &gt;</text>
</a>
</g>
</g>
<!-- bereikbaarheid&#45;&gt;roi.verbinding -->
<g id="edge2" class="edge">
<title>bereikbaarheid:w&#45;&gt;roi.verbinding:e</title>
<path fill="none" stroke="black" d="M483.45,-589.2C471.71,-598.61 474.5,-621.68 457,-636 429,-658.91 420.68,-673 384.5,-673"/>
<polygon fill="black" stroke="black" points="489.83,-587.29 498.53,-588.45 493.67,-586.15 497.5,-585 497.5,-585 497.5,-585 493.67,-586.15 496.47,-581.55 489.83,-587.29 489.83,-587.29"/>
<ellipse fill="none" stroke="black" cx="486.77" cy="-588.21" rx="3.2" ry="3.2"/>
</g>
<!-- roi.fase -->
<g id="node8" class="node">
<title>roi.fase</title>
<g id="a_node8"><a xlink:href="../../../roi/tables/fase.html" xlink:title="roi.fase" target="_top">
<polygon fill="#ffffff" stroke="transparent" points="20,-371 20,-429 119,-429 119,-371 20,-371"/>
<polygon fill="#f5f5f5" stroke="transparent" points="20.5,-407 20.5,-429 119.5,-429 119.5,-407 20.5,-407"/>
<polygon fill="none" stroke="black" points="20.5,-407 20.5,-429 119.5,-429 119.5,-407 20.5,-407"/>
<text text-anchor="start" x="25.5" y="-416.2" font-family="Helvetica,sans-Serif" font-weight="bold" font-size="11.00">roi.fase</text>
<text text-anchor="start" x="77.5" y="-415.2" font-family="Helvetica,sans-Serif" font-size="11.00">[table]</text>
<polygon fill="none" stroke="black" points="20.5,-389 20.5,-407 119.5,-407 119.5,-389 20.5,-389"/>
<text text-anchor="start" x="23.5" y="-395.2" font-family="Helvetica,sans-Serif" font-size="11.00">...</text>
<polygon fill="#ffffff" stroke="transparent" points="20.5,-371 20.5,-389 56.5,-389 56.5,-371 20.5,-371"/>
<polygon fill="none" stroke="black" points="20.5,-371 20.5,-389 56.5,-389 56.5,-371 20.5,-371"/>
<text text-anchor="start" x="23.5" y="-377.2" font-family="Helvetica,sans-Serif" font-size="11.00"> &#160;</text>
<polygon fill="#ffffff" stroke="transparent" points="56.5,-371 56.5,-389 81.5,-389 81.5,-371 56.5,-371"/>
<polygon fill="none" stroke="black" points="56.5,-371 56.5,-389 81.5,-389 81.5,-371 56.5,-371"/>
<text text-anchor="start" x="70.5" y="-377.2" font-family="Helvetica,sans-Serif" font-size="11.00"> &#160;</text>
<polygon fill="#ffffff" stroke="transparent" points="81.5,-371 81.5,-389 119.5,-389 119.5,-371 81.5,-371"/>
<polygon fill="none" stroke="black" points="81.5,-371 81.5,-389 119.5,-389 119.5,-371 81.5,-371"/>
<text text-anchor="start" x="96.5" y="-377.2" font-family="Helvetica,sans-Serif" font-size="11.00">1 &gt;</text>
</a>
</g>
</g>
<!-- object&#45;&gt;roi.fase -->
<g id="edge7" class="edge">
<title>object:w&#45;&gt;roi.fase:e</title>
<path fill="none" stroke="black" d="M166.93,-370.74C153.39,-372.07 139.69,-375.04 127.04,-378.6"/>
<polygon fill="black" stroke="black" points="173.51,-370.41 181.68,-373.6 177.51,-370.2 181.5,-370 181.5,-370 181.5,-370 177.51,-370.2 181.32,-366.4 173.51,-370.41 173.51,-370.41"/>
<ellipse fill="none" stroke="black" cx="170.31" cy="-370.57" rx="3.2" ry="3.2"/>
</g>
<!-- object_type -->
<g id="node9" class="node">
<title>object_type</title>
<g id="a_node9"><a xlink:href="../../tables/object_type.html" xlink:title="object_type" target="_top">
<polygon fill="#ffffff" stroke="transparent" points="8,-270 8,-350 131,-350 131,-270 8,-270"/>
<polygon fill="#f5f5f5" stroke="transparent" points="8.5,-328 8.5,-350 131.5,-350 131.5,-328 8.5,-328"/>
<polygon fill="none" stroke="black" points="8.5,-328 8.5,-350 131.5,-350 131.5,-328 8.5,-328"/>
<text text-anchor="start" x="13.5" y="-337.2" font-family="Helvetica,sans-Serif" font-weight="bold" font-size="11.00">object_type</text>
<text text-anchor="start" x="89.5" y="-336.2" font-family="Helvetica,sans-Serif" font-size="11.00">[table]</text>
<polygon fill="none" stroke="black" points="8.5,-306 8.5,-328 131.5,-328 131.5,-306 8.5,-306"/>
<image xlink:href="../../images/primaryKeys.png" width="11px" height="12px" preserveAspectRatio="xMinYMin meet" x="13.5" y="-323"/>
<text text-anchor="start" x="41.5" y="-314.2" font-family="Helvetica,sans-Serif" font-size="11.00">id</text>
<polygon fill="none" stroke="black" points="8.5,-288 8.5,-306 131.5,-306 131.5,-288 8.5,-288"/>
<text text-anchor="start" x="11.5" y="-294.2" font-family="Helvetica,sans-Serif" font-size="11.00">...</text>
<polygon fill="#ffffff" stroke="transparent" points="8.5,-270 8.5,-288 56.5,-288 56.5,-270 8.5,-270"/>
<polygon fill="none" stroke="black" points="8.5,-270 8.5,-288 56.5,-288 56.5,-270 8.5,-270"/>
<text text-anchor="start" x="11.5" y="-276.2" font-family="Helvetica,sans-Serif" font-size="11.00"> &#160;</text>
<polygon fill="#ffffff" stroke="transparent" points="56.5,-270 56.5,-288 87.5,-288 87.5,-270 56.5,-270"/>
<polygon fill="none" stroke="black" points="56.5,-270 56.5,-288 87.5,-288 87.5,-270 56.5,-270"/>
<text text-anchor="start" x="76.5" y="-276.2" font-family="Helvetica,sans-Serif" font-size="11.00"> &#160;</text>
<polygon fill="#ffffff" stroke="transparent" points="87.5,-270 87.5,-288 131.5,-288 131.5,-270 87.5,-270"/>
<polygon fill="none" stroke="black" points="87.5,-270 87.5,-288 131.5,-288 131.5,-270 87.5,-270"/>
<text text-anchor="start" x="108.5" y="-276.2" font-family="Helvetica,sans-Serif" font-size="11.00">1 &gt;</text>
</a>
</g>
</g>
<!-- object&#45;&gt;object_type -->
<g id="edge8" class="edge">
<title>object:w&#45;&gt;object_type:e</title>
<path fill="none" stroke="black" d="M167.32,-343.69C155.37,-335.17 152.23,-317 132.5,-317"/>
<polygon fill="black" stroke="black" points="173.85,-345.67 180.45,-351.44 177.67,-346.84 181.5,-348 181.5,-348 181.5,-348 177.67,-346.84 182.55,-344.56 173.85,-345.67 173.85,-345.67"/>
<ellipse fill="none" stroke="black" cx="170.78" cy="-344.74" rx="3.2" ry="3.2"/>
</g>
<!-- label -->
<g id="node4" class="node">
<title>label</title>
<g id="a_node4"><a xlink:href="../../tables/label.html" xlink:title="label" target="_top">
<polygon fill="#ffffff" stroke="transparent" points="513.5,-705 513.5,-851 627.5,-851 627.5,-705 513.5,-705"/>
<polygon fill="#f5f5f5" stroke="transparent" points="513.5,-829 513.5,-851 627.5,-851 627.5,-829 513.5,-829"/>
<polygon fill="none" stroke="black" points="513.5,-829 513.5,-851 627.5,-851 627.5,-829 513.5,-829"/>
<text text-anchor="start" x="518.5" y="-838.2" font-family="Helvetica,sans-Serif" font-weight="bold" font-size="11.00">label</text>
<text text-anchor="start" x="585.5" y="-837.2" font-family="Helvetica,sans-Serif" font-size="11.00">[table]</text>
<polygon fill="none" stroke="black" points="513.5,-807 513.5,-829 627.5,-829 627.5,-807 513.5,-807"/>
<image xlink:href="../../images/primaryKeys.png" width="11px" height="12px" preserveAspectRatio="xMinYMin meet" x="518.5" y="-824"/>
<text text-anchor="start" x="533.5" y="-815.2" font-family="Helvetica,sans-Serif" font-size="11.00">uuid</text>
<polygon fill="#ffffff" stroke="transparent" points="513.5,-785 513.5,-807 627.5,-807 627.5,-785 513.5,-785"/>
<polygon fill="none" stroke="black" points="513.5,-785 513.5,-807 627.5,-807 627.5,-785 513.5,-785"/>
<text text-anchor="start" x="533.5" y="-793.2" font-family="Helvetica,sans-Serif" font-size="11.00">geom</text>
<polygon fill="#ffffff" stroke="transparent" points="513.5,-763 513.5,-785 627.5,-785 627.5,-763 513.5,-763"/>
<polygon fill="none" stroke="black" points="513.5,-763 513.5,-785 627.5,-785 627.5,-763 513.5,-763"/>
<image xlink:href="../../images/foreignKeys.png" width="11px" height="12px" preserveAspectRatio="xMinYMin meet" x="518.5" y="-780"/>
<text text-anchor="start" x="533.5" y="-771.2" font-family="Helvetica,sans-Serif" font-size="11.00">object_uuid</text>
<polygon fill="none" stroke="black" points="513.5,-741 513.5,-763 627.5,-763 627.5,-741 513.5,-741"/>
<image xlink:href="../../images/foreignKeys.png" width="11px" height="12px" preserveAspectRatio="xMinYMin meet" x="518.5" y="-758"/>
<text text-anchor="start" x="533.5" y="-749.2" font-family="Helvetica,sans-Serif" font-size="11.00">annotatie_id</text>
<polygon fill="none" stroke="black" points="513.5,-723 513.5,-741 627.5,-741 627.5,-723 513.5,-723"/>
<text text-anchor="start" x="516.5" y="-729.2" font-family="Helvetica,sans-Serif" font-size="11.00">...</text>
<polygon fill="#ffffff" stroke="transparent" points="513.5,-705 513.5,-723 569.5,-723 569.5,-705 513.5,-705"/>
<polygon fill="none" stroke="black" points="513.5,-705 513.5,-723 569.5,-723 569.5,-705 513.5,-705"/>
<text text-anchor="start" x="516.5" y="-711.2" font-family="Helvetica,sans-Serif" font-size="11.00">&lt; 2</text>
<polygon fill="#ffffff" stroke="transparent" points="569.5,-705 569.5,-723 598.5,-723 598.5,-705 569.5,-705"/>
<polygon fill="none" stroke="black" points="569.5,-705 569.5,-723 598.5,-723 598.5,-705 569.5,-705"/>
<text text-anchor="start" x="587.5" y="-711.2" font-family="Helvetica,sans-Serif" font-size="11.00"> &#160;</text>
<polygon fill="#ffffff" stroke="transparent" points="598.5,-705 598.5,-723 627.5,-723 627.5,-705 598.5,-705"/>
<polygon fill="none" stroke="black" points="598.5,-705 598.5,-723 627.5,-723 627.5,-705 598.5,-705"/>
<text text-anchor="start" x="616.5" y="-711.2" font-family="Helvetica,sans-Serif" font-size="11.00"> &#160;</text>
</a>
</g>
</g>
<!-- label&#45;&gt;object -->
<g id="edge4" class="edge">
<title>label:w&#45;&gt;object:e</title>
<path fill="none" stroke="black" d="M498.09,-771.81C439.18,-751.05 529.5,-590 448.5,-590"/>
<polygon fill="black" stroke="black" points="504.59,-772.8 511.96,-777.56 508.55,-773.4 512.5,-774 512.5,-774 512.5,-774 508.55,-773.4 513.04,-770.44 504.59,-772.8 504.59,-772.8"/>
<ellipse fill="none" stroke="black" cx="501.43" cy="-772.31" rx="3.2" ry="3.2"/>
</g>
<!-- roi.annotatie -->
<g id="node5" class="node">
<title>roi.annotatie</title>
<g id="a_node5"><a xlink:href="../../../roi/tables/annotatie.html" xlink:title="roi.annotatie" target="_top">
<polygon fill="#ffffff" stroke="transparent" points="248.5,-725 248.5,-783 380.5,-783 380.5,-725 248.5,-725"/>
<polygon fill="#f5f5f5" stroke="transparent" points="248.5,-761 248.5,-783 380.5,-783 380.5,-761 248.5,-761"/>
<polygon fill="none" stroke="black" points="248.5,-761 248.5,-783 380.5,-783 380.5,-761 248.5,-761"/>
<text text-anchor="start" x="253.5" y="-770.2" font-family="Helvetica,sans-Serif" font-weight="bold" font-size="11.00">roi.annotatie</text>
<text text-anchor="start" x="338.5" y="-769.2" font-family="Helvetica,sans-Serif" font-size="11.00">[table]</text>
<polygon fill="none" stroke="black" points="248.5,-743 248.5,-761 380.5,-761 380.5,-743 248.5,-743"/>
<text text-anchor="start" x="251.5" y="-749.2" font-family="Helvetica,sans-Serif" font-size="11.00">...</text>
<polygon fill="#ffffff" stroke="transparent" points="248.5,-725 248.5,-743 301.5,-743 301.5,-725 248.5,-725"/>
<polygon fill="none" stroke="black" points="248.5,-725 248.5,-743 301.5,-743 301.5,-725 248.5,-725"/>
<text text-anchor="start" x="251.5" y="-731.2" font-family="Helvetica,sans-Serif" font-size="11.00"> &#160;</text>
<polygon fill="#ffffff" stroke="transparent" points="301.5,-725 301.5,-743 334.5,-743 334.5,-725 301.5,-725"/>
<polygon fill="none" stroke="black" points="301.5,-725 301.5,-743 334.5,-743 334.5,-725 301.5,-725"/>
<text text-anchor="start" x="323.5" y="-731.2" font-family="Helvetica,sans-Serif" font-size="11.00"> &#160;</text>
<polygon fill="#ffffff" stroke="transparent" points="334.5,-725 334.5,-743 380.5,-743 380.5,-725 334.5,-725"/>
<polygon fill="none" stroke="black" points="334.5,-725 334.5,-743 380.5,-743 380.5,-725 334.5,-725"/>
<text text-anchor="start" x="357.5" y="-731.2" font-family="Helvetica,sans-Serif" font-size="11.00">1 &gt;</text>
</a>
</g>
</g>
<!-- label&#45;&gt;roi.annotatie -->
<g id="edge3" class="edge">
<title>label:w&#45;&gt;roi.annotatie:e</title>
<path fill="none" stroke="black" d="M497.8,-752C451.31,-752 434.49,-752 381.5,-752"/>
<polygon fill="black" stroke="black" points="504.5,-752 512.5,-755.6 508.5,-752 512.5,-752 512.5,-752 512.5,-752 508.5,-752 512.5,-748.4 504.5,-752 504.5,-752"/>
<ellipse fill="none" stroke="black" cx="501.3" cy="-752" rx="3.2" ry="3.2"/>
</g>
<!-- maatregel -->
<g id="node6" class="node">
<title>maatregel</title>
<g id="a_node6"><a xlink:href="../../tables/maatregel.html" xlink:title="maatregel" target="_top">
<polygon fill="#ffffff" stroke="transparent" points="505,-371 505,-517 636,-517 636,-371 505,-371"/>
<polygon fill="#f5f5f5" stroke="transparent" points="505.5,-495 505.5,-517 636.5,-517 636.5,-495 505.5,-495"/>
<polygon fill="none" stroke="black" points="505.5,-495 505.5,-517 636.5,-517 636.5,-495 505.5,-495"/>
<text text-anchor="start" x="510.5" y="-504.2" font-family="Helvetica,sans-Serif" font-weight="bold" font-size="11.00">maatregel</text>
<text text-anchor="start" x="594.5" y="-503.2" font-family="Helvetica,sans-Serif" font-size="11.00">[table]</text>
<polygon fill="none" stroke="black" points="505.5,-473 505.5,-495 636.5,-495 636.5,-473 505.5,-473"/>
<image xlink:href="../../images/primaryKeys.png" width="11px" height="12px" preserveAspectRatio="xMinYMin meet" x="510.5" y="-490"/>
<text text-anchor="start" x="525.5" y="-481.2" font-family="Helvetica,sans-Serif" font-size="11.00">uuid</text>
<polygon fill="#ffffff" stroke="transparent" points="505.5,-451 505.5,-473 636.5,-473 636.5,-451 505.5,-451"/>
<polygon fill="none" stroke="black" points="505.5,-451 505.5,-473 636.5,-473 636.5,-451 505.5,-451"/>
<text text-anchor="start" x="525.5" y="-459.2" font-family="Helvetica,sans-Serif" font-size="11.00">geom</text>
<polygon fill="#ffffff" stroke="transparent" points="505.5,-429 505.5,-451 636.5,-451 636.5,-429 505.5,-429"/>
<polygon fill="none" stroke="black" points="505.5,-429 505.5,-451 636.5,-451 636.5,-429 505.5,-429"/>
<image xlink:href="../../images/foreignKeys.png" width="11px" height="12px" preserveAspectRatio="xMinYMin meet" x="510.5" y="-446"/>
<text text-anchor="start" x="525.5" y="-437.2" font-family="Helvetica,sans-Serif" font-size="11.00">object_uuid</text>
<polygon fill="none" stroke="black" points="505.5,-407 505.5,-429 636.5,-429 636.5,-407 505.5,-407"/>
<image xlink:href="../../images/foreignKeys.png" width="11px" height="12px" preserveAspectRatio="xMinYMin meet" x="510.5" y="-424"/>
<text text-anchor="start" x="525.5" y="-415.2" font-family="Helvetica,sans-Serif" font-size="11.00">maatregel_type_id</text>
<polygon fill="none" stroke="black" points="505.5,-389 505.5,-407 636.5,-407 636.5,-389 505.5,-389"/>
<text text-anchor="start" x="508.5" y="-395.2" font-family="Helvetica,sans-Serif" font-size="11.00">...</text>
<polygon fill="#ffffff" stroke="transparent" points="505.5,-371 505.5,-389 569.5,-389 569.5,-371 505.5,-371"/>
<polygon fill="none" stroke="black" points="505.5,-371 505.5,-389 569.5,-389 569.5,-371 505.5,-371"/>
<text text-anchor="start" x="508.5" y="-377.2" font-family="Helvetica,sans-Serif" font-size="11.00">&lt; 2</text>
<polygon fill="#ffffff" stroke="transparent" points="569.5,-371 569.5,-389 602.5,-389 602.5,-371 569.5,-371"/>
<polygon fill="none" stroke="black" points="569.5,-371 569.5,-389 602.5,-389 602.5,-371 569.5,-371"/>
<text text-anchor="start" x="591.5" y="-377.2" font-family="Helvetica,sans-Serif" font-size="11.00"> &#160;</text>
<polygon fill="#ffffff" stroke="transparent" points="602.5,-371 602.5,-389 636.5,-389 636.5,-371 602.5,-371"/>
<polygon fill="none" stroke="black" points="602.5,-371 602.5,-389 636.5,-389 636.5,-371 602.5,-371"/>
<text text-anchor="start" x="625.5" y="-377.2" font-family="Helvetica,sans-Serif" font-size="11.00"> &#160;</text>
</a>
</g>
</g>
<!-- maatregel&#45;&gt;object -->
<g id="edge6" class="edge">
<title>maatregel:w&#45;&gt;object:e</title>
<path fill="none" stroke="black" d="M490.27,-442.73C446.15,-463.06 513.96,-590 448.5,-590"/>
<polygon fill="black" stroke="black" points="496.64,-441.51 505.18,-443.54 500.57,-440.75 504.5,-440 504.5,-440 504.5,-440 500.57,-440.75 503.82,-436.46 496.64,-441.51 496.64,-441.51"/>
<ellipse fill="none" stroke="black" cx="493.5" cy="-442.11" rx="3.2" ry="3.2"/>
</g>
<!-- maatregel_type -->
<g id="node7" class="node">
<title>maatregel_type</title>
<g id="a_node7"><a xlink:href="../../tables/maatregel_type.html" xlink:title="maatregel_type" target="_top">
<polygon fill="#ffffff" stroke="transparent" points="240.5,-216 240.5,-274 388.5,-274 388.5,-216 240.5,-216"/>
<polygon fill="#f5f5f5" stroke="transparent" points="240.5,-252 240.5,-274 388.5,-274 388.5,-252 240.5,-252"/>
<polygon fill="none" stroke="black" points="240.5,-252 240.5,-274 388.5,-274 388.5,-252 240.5,-252"/>
<text text-anchor="start" x="245.5" y="-261.2" font-family="Helvetica,sans-Serif" font-weight="bold" font-size="11.00">maatregel_type</text>
<text text-anchor="start" x="346.5" y="-260.2" font-family="Helvetica,sans-Serif" font-size="11.00">[table]</text>
<polygon fill="none" stroke="black" points="240.5,-234 240.5,-252 388.5,-252 388.5,-234 240.5,-234"/>
<text text-anchor="start" x="243.5" y="-240.2" font-family="Helvetica,sans-Serif" font-size="11.00">...</text>
<polygon fill="#ffffff" stroke="transparent" points="240.5,-216 240.5,-234 301.5,-234 301.5,-216 240.5,-216"/>
<polygon fill="none" stroke="black" points="240.5,-216 240.5,-234 301.5,-234 301.5,-216 240.5,-216"/>
<text text-anchor="start" x="243.5" y="-222.2" font-family="Helvetica,sans-Serif" font-size="11.00"> &#160;</text>
<polygon fill="#ffffff" stroke="transparent" points="301.5,-216 301.5,-234 338.5,-234 338.5,-216 301.5,-216"/>
<polygon fill="none" stroke="black" points="301.5,-216 301.5,-234 338.5,-234 338.5,-216 301.5,-216"/>
<text text-anchor="start" x="327.5" y="-222.2" font-family="Helvetica,sans-Serif" font-size="11.00"> &#160;</text>
<polygon fill="#ffffff" stroke="transparent" points="338.5,-216 338.5,-234 388.5,-234 388.5,-216 338.5,-216"/>
<polygon fill="none" stroke="black" points="338.5,-216 338.5,-234 388.5,-234 388.5,-216 338.5,-216"/>
<text text-anchor="start" x="365.5" y="-222.2" font-family="Helvetica,sans-Serif" font-size="11.00">1 &gt;</text>
</a>
</g>
</g>
<!-- maatregel&#45;&gt;maatregel_type -->
<g id="edge5" class="edge">
<title>maatregel:w&#45;&gt;maatregel_type:e</title>
<path fill="none" stroke="black" d="M490.02,-415.97C450.98,-402.85 492.78,-329.38 457,-285 434.82,-257.49 424.83,-243 389.5,-243"/>
<polygon fill="black" stroke="black" points="496.58,-416.89 504,-421.56 500.54,-417.44 504.5,-418 504.5,-418 504.5,-418 500.54,-417.44 505,-414.44 496.58,-416.89 496.58,-416.89"/>
<ellipse fill="none" stroke="black" cx="493.41" cy="-416.44" rx="3.2" ry="3.2"/>
</g>
<!-- sector -->
<g id="node10" class="node">
<title>sector</title>
<g id="a_node10"><a xlink:href="../../tables/sector.html" xlink:title="sector" target="_top">
<polygon fill="#ffffff" stroke="transparent" points="513.5,-204 513.5,-350 627.5,-350 627.5,-204 513.5,-204"/>
<polygon fill="#f5f5f5" stroke="transparent" points="513.5,-328 513.5,-350 627.5,-350 627.5,-328 513.5,-328"/>
<polygon fill="none" stroke="black" points="513.5,-328 513.5,-350 627.5,-350 627.5,-328 513.5,-328"/>
<text text-anchor="start" x="518.5" y="-337.2" font-family="Helvetica,sans-Serif" font-weight="bold" font-size="11.00">sector</text>
<text text-anchor="start" x="585.5" y="-336.2" font-family="Helvetica,sans-Serif" font-size="11.00">[table]</text>
<polygon fill="none" stroke="black" points="513.5,-306 513.5,-328 627.5,-328 627.5,-306 513.5,-306"/>
<image xlink:href="../../images/primaryKeys.png" width="11px" height="12px" preserveAspectRatio="xMinYMin meet" x="518.5" y="-323"/>
<text text-anchor="start" x="533.5" y="-314.2" font-family="Helvetica,sans-Serif" font-size="11.00">uuid</text>
<polygon fill="#ffffff" stroke="transparent" points="513.5,-284 513.5,-306 627.5,-306 627.5,-284 513.5,-284"/>
<polygon fill="none" stroke="black" points="513.5,-284 513.5,-306 627.5,-306 627.5,-284 513.5,-284"/>
<text text-anchor="start" x="533.5" y="-292.2" font-family="Helvetica,sans-Serif" font-size="11.00">geom</text>
<polygon fill="#ffffff" stroke="transparent" points="513.5,-262 513.5,-284 627.5,-284 627.5,-262 513.5,-262"/>
<polygon fill="none" stroke="black" points="513.5,-262 513.5,-284 627.5,-284 627.5,-262 513.5,-262"/>
<image xlink:href="../../images/foreignKeys.png" width="11px" height="12px" preserveAspectRatio="xMinYMin meet" x="518.5" y="-279"/>
<text text-anchor="start" x="533.5" y="-270.2" font-family="Helvetica,sans-Serif" font-size="11.00">object_uuid</text>
<polygon fill="none" stroke="black" points="513.5,-240 513.5,-262 627.5,-262 627.5,-240 513.5,-240"/>
<image xlink:href="../../images/foreignKeys.png" width="11px" height="12px" preserveAspectRatio="xMinYMin meet" x="518.5" y="-257"/>
<text text-anchor="start" x="533.5" y="-248.2" font-family="Helvetica,sans-Serif" font-size="11.00">zone_id</text>
<polygon fill="none" stroke="black" points="513.5,-222 513.5,-240 627.5,-240 627.5,-222 513.5,-222"/>
<text text-anchor="start" x="516.5" y="-228.2" font-family="Helvetica,sans-Serif" font-size="11.00">...</text>
<polygon fill="#ffffff" stroke="transparent" points="513.5,-204 513.5,-222 569.5,-222 569.5,-204 513.5,-204"/>
<polygon fill="none" stroke="black" points="513.5,-204 513.5,-222 569.5,-222 569.5,-204 513.5,-204"/>
<text text-anchor="start" x="516.5" y="-210.2" font-family="Helvetica,sans-Serif" font-size="11.00">&lt; 2</text>
<polygon fill="#ffffff" stroke="transparent" points="569.5,-204 569.5,-222 598.5,-222 598.5,-204 569.5,-204"/>
<polygon fill="none" stroke="black" points="569.5,-204 569.5,-222 598.5,-222 598.5,-204 569.5,-204"/>
<text text-anchor="start" x="587.5" y="-210.2" font-family="Helvetica,sans-Serif" font-size="11.00"> &#160;</text>
<polygon fill="#ffffff" stroke="transparent" points="598.5,-204 598.5,-222 627.5,-222 627.5,-204 598.5,-204"/>
<polygon fill="none" stroke="black" points="598.5,-204 598.5,-222 627.5,-222 627.5,-204 598.5,-204"/>
<text text-anchor="start" x="616.5" y="-210.2" font-family="Helvetica,sans-Serif" font-size="11.00"> &#160;</text>
</a>
</g>
</g>
<!-- sector&#45;&gt;object -->
<g id="edge9" class="edge">
<title>sector:w&#45;&gt;object:e</title>
<path fill="none" stroke="black" d="M498.88,-277.98C451.63,-318.31 515.03,-590 448.5,-590"/>
<polygon fill="black" stroke="black" points="504.99,-275.75 513.74,-276.38 508.74,-274.37 512.5,-273 512.5,-273 512.5,-273 508.74,-274.37 511.26,-269.62 504.99,-275.75 504.99,-275.75"/>
<ellipse fill="none" stroke="black" cx="501.98" cy="-276.85" rx="3.2" ry="3.2"/>
</g>
<!-- roi.zone -->
<g id="node11" class="node">
<title>roi.zone</title>
<g id="a_node11"><a xlink:href="../../../roi/tables/zone.html" xlink:title="roi.zone" target="_top">
<polygon fill="#ffffff" stroke="transparent" points="263.5,-137 263.5,-195 365.5,-195 365.5,-137 263.5,-137"/>
<polygon fill="#f5f5f5" stroke="transparent" points="263.5,-173 263.5,-195 365.5,-195 365.5,-173 263.5,-173"/>
<polygon fill="none" stroke="black" points="263.5,-173 263.5,-195 365.5,-195 365.5,-173 263.5,-173"/>
<text text-anchor="start" x="268.5" y="-182.2" font-family="Helvetica,sans-Serif" font-weight="bold" font-size="11.00">roi.zone</text>
<text text-anchor="start" x="323.5" y="-181.2" font-family="Helvetica,sans-Serif" font-size="11.00">[table]</text>
<polygon fill="none" stroke="black" points="263.5,-155 263.5,-173 365.5,-173 365.5,-155 263.5,-155"/>
<text text-anchor="start" x="266.5" y="-161.2" font-family="Helvetica,sans-Serif" font-size="11.00">...</text>
<polygon fill="#ffffff" stroke="transparent" points="263.5,-137 263.5,-155 301.5,-155 301.5,-137 263.5,-137"/>
<polygon fill="none" stroke="black" points="263.5,-137 263.5,-155 301.5,-155 301.5,-137 263.5,-137"/>
<text text-anchor="start" x="266.5" y="-143.2" font-family="Helvetica,sans-Serif" font-size="11.00"> &#160;</text>
<polygon fill="#ffffff" stroke="transparent" points="301.5,-137 301.5,-155 327.5,-155 327.5,-137 301.5,-137"/>
<polygon fill="none" stroke="black" points="301.5,-137 301.5,-155 327.5,-155 327.5,-137 301.5,-137"/>
<text text-anchor="start" x="316.5" y="-143.2" font-family="Helvetica,sans-Serif" font-size="11.00"> &#160;</text>
<polygon fill="#ffffff" stroke="transparent" points="327.5,-137 327.5,-155 365.5,-155 365.5,-137 327.5,-137"/>
<polygon fill="none" stroke="black" points="327.5,-137 327.5,-155 365.5,-155 365.5,-137 327.5,-137"/>
<text text-anchor="start" x="342.5" y="-143.2" font-family="Helvetica,sans-Serif" font-size="11.00">1 &gt;</text>
</a>
</g>
</g>
<!-- sector&#45;&gt;roi.zone -->
<g id="edge10" class="edge">
<title>sector:w&#45;&gt;roi.zone:e</title>
<path fill="none" stroke="black" d="M498.14,-248.39C480.9,-241.03 478.99,-219.73 457,-206 419.38,-182.52 410.84,-164 366.5,-164"/>
<polygon fill="black" stroke="black" points="504.63,-249.57 511.86,-254.54 508.56,-250.29 512.5,-251 512.5,-251 512.5,-251 508.56,-250.29 513.14,-247.46 504.63,-249.57 504.63,-249.57"/>
<ellipse fill="none" stroke="black" cx="501.48" cy="-249" rx="3.2" ry="3.2"/>
</g>
<!-- voorziening -->
<g id="node12" class="node">
<title>voorziening</title>
<g id="a_node12"><a xlink:href="../../tables/voorziening.html" xlink:title="voorziening" target="_top">
<polygon fill="#ffffff" stroke="transparent" points="508.5,-37 508.5,-183 632.5,-183 632.5,-37 508.5,-37"/>
<polygon fill="#f5f5f5" stroke="transparent" points="508.5,-161 508.5,-183 632.5,-183 632.5,-161 508.5,-161"/>
<polygon fill="none" stroke="black" points="508.5,-161 508.5,-183 632.5,-183 632.5,-161 508.5,-161"/>
<text text-anchor="start" x="513.5" y="-170.2" font-family="Helvetica,sans-Serif" font-weight="bold" font-size="11.00">voorziening</text>
<text text-anchor="start" x="590.5" y="-169.2" font-family="Helvetica,sans-Serif" font-size="11.00">[table]</text>
<polygon fill="none" stroke="black" points="508.5,-139 508.5,-161 632.5,-161 632.5,-139 508.5,-139"/>
<image xlink:href="../../images/primaryKeys.png" width="11px" height="12px" preserveAspectRatio="xMinYMin meet" x="513.5" y="-156"/>
<text text-anchor="start" x="533.5" y="-147.2" font-family="Helvetica,sans-Serif" font-size="11.00">uuid</text>
<polygon fill="#ffffff" stroke="transparent" points="508.5,-117 508.5,-139 632.5,-139 632.5,-117 508.5,-117"/>
<polygon fill="none" stroke="black" points="508.5,-117 508.5,-139 632.5,-139 632.5,-117 508.5,-117"/>
<text text-anchor="start" x="533.5" y="-125.2" font-family="Helvetica,sans-Serif" font-size="11.00">geom</text>
<polygon fill="#ffffff" stroke="transparent" points="508.5,-95 508.5,-117 632.5,-117 632.5,-95 508.5,-95"/>
<polygon fill="none" stroke="black" points="508.5,-95 508.5,-117 632.5,-117 632.5,-95 508.5,-95"/>
<image xlink:href="../../images/foreignKeys.png" width="11px" height="12px" preserveAspectRatio="xMinYMin meet" x="513.5" y="-112"/>
<text text-anchor="start" x="533.5" y="-103.2" font-family="Helvetica,sans-Serif" font-size="11.00">object_uuid</text>
<polygon fill="none" stroke="black" points="508.5,-73 508.5,-95 632.5,-95 632.5,-73 508.5,-73"/>
<image xlink:href="../../images/foreignKeys.png" width="11px" height="12px" preserveAspectRatio="xMinYMin meet" x="513.5" y="-90"/>
<text text-anchor="start" x="533.5" y="-81.2" font-family="Helvetica,sans-Serif" font-size="11.00">symbool_id</text>
<polygon fill="none" stroke="black" points="508.5,-55 508.5,-73 632.5,-73 632.5,-55 508.5,-55"/>
<text text-anchor="start" x="511.5" y="-61.2" font-family="Helvetica,sans-Serif" font-size="11.00">...</text>
<polygon fill="#ffffff" stroke="transparent" points="508.5,-37 508.5,-55 569.5,-55 569.5,-37 508.5,-37"/>
<polygon fill="none" stroke="black" points="508.5,-37 508.5,-55 569.5,-55 569.5,-37 508.5,-37"/>
<text text-anchor="start" x="511.5" y="-43.2" font-family="Helvetica,sans-Serif" font-size="11.00">&lt; 2</text>
<polygon fill="#ffffff" stroke="transparent" points="569.5,-37 569.5,-55 600.5,-55 600.5,-37 569.5,-37"/>
<polygon fill="none" stroke="black" points="569.5,-37 569.5,-55 600.5,-55 600.5,-37 569.5,-37"/>
<text text-anchor="start" x="589.5" y="-43.2" font-family="Helvetica,sans-Serif" font-size="11.00"> &#160;</text>
<polygon fill="#ffffff" stroke="transparent" points="600.5,-37 600.5,-55 632.5,-55 632.5,-37 600.5,-37"/>
<polygon fill="none" stroke="black" points="600.5,-37 600.5,-55 632.5,-55 632.5,-37 600.5,-37"/>
<text text-anchor="start" x="621.5" y="-43.2" font-family="Helvetica,sans-Serif" font-size="11.00"> &#160;</text>
</a>
</g>
</g>
<!-- voorziening&#45;&gt;object -->
<g id="edge11" class="edge">
<title>voorziening:w&#45;&gt;object:e</title>
<path fill="none" stroke="black" d="M493.47,-109.35C413.91,-152.11 551.56,-590 448.5,-590"/>
<polygon fill="black" stroke="black" points="499.72,-107.86 508.34,-109.5 503.61,-106.93 507.5,-106 507.5,-106 507.5,-106 503.61,-106.93 506.66,-102.5 499.72,-107.86 499.72,-107.86"/>
<ellipse fill="none" stroke="black" cx="496.61" cy="-108.6" rx="3.2" ry="3.2"/>
</g>
<!-- roi.symbool -->
<g id="node13" class="node">
<title>roi.symbool</title>
<g id="a_node13"><a xlink:href="../../../roi/tables/symbool.html" xlink:title="roi.symbool" target="_top">
<polygon fill="#ffffff" stroke="transparent" points="252.5,-57 252.5,-115 376.5,-115 376.5,-57 252.5,-57"/>
<polygon fill="#f5f5f5" stroke="transparent" points="252.5,-93 252.5,-115 376.5,-115 376.5,-93 252.5,-93"/>
<polygon fill="none" stroke="black" points="252.5,-93 252.5,-115 376.5,-115 376.5,-93 252.5,-93"/>
<text text-anchor="start" x="257.5" y="-102.2" font-family="Helvetica,sans-Serif" font-weight="bold" font-size="11.00">roi.symbool</text>
<text text-anchor="start" x="334.5" y="-101.2" font-family="Helvetica,sans-Serif" font-size="11.00">[table]</text>
<polygon fill="none" stroke="black" points="252.5,-75 252.5,-93 376.5,-93 376.5,-75 252.5,-75"/>
<text text-anchor="start" x="255.5" y="-81.2" font-family="Helvetica,sans-Serif" font-size="11.00">...</text>
<polygon fill="#ffffff" stroke="transparent" points="252.5,-57 252.5,-75 301.5,-75 301.5,-57 252.5,-57"/>
<polygon fill="none" stroke="black" points="252.5,-57 252.5,-75 301.5,-75 301.5,-57 252.5,-57"/>
<text text-anchor="start" x="255.5" y="-63.2" font-family="Helvetica,sans-Serif" font-size="11.00"> &#160;</text>
<polygon fill="#ffffff" stroke="transparent" points="301.5,-57 301.5,-75 332.5,-75 332.5,-57 301.5,-57"/>
<polygon fill="none" stroke="black" points="301.5,-57 301.5,-75 332.5,-75 332.5,-57 301.5,-57"/>
<text text-anchor="start" x="321.5" y="-63.2" font-family="Helvetica,sans-Serif" font-size="11.00"> &#160;</text>
<polygon fill="#ffffff" stroke="transparent" points="332.5,-57 332.5,-75 376.5,-75 376.5,-57 332.5,-57"/>
<polygon fill="none" stroke="black" points="332.5,-57 332.5,-75 376.5,-75 376.5,-57 332.5,-57"/>
<text text-anchor="start" x="353.5" y="-63.2" font-family="Helvetica,sans-Serif" font-size="11.00">1 &gt;</text>
</a>
</g>
</g>
<!-- voorziening&#45;&gt;roi.symbool -->
<g id="edge12" class="edge">
<title>voorziening:w&#45;&gt;roi.symbool:e</title>
<path fill="none" stroke="black" d="M492.91,-84C446.78,-84 430.09,-84 377.5,-84"/>
<polygon fill="black" stroke="black" points="499.5,-84 507.5,-87.6 503.5,-84 507.5,-84 507.5,-84 507.5,-84 503.5,-84 507.5,-80.4 499.5,-84 499.5,-84"/>
<ellipse fill="none" stroke="black" cx="496.3" cy="-84" rx="3.2" ry="3.2"/>
</g>
</g>
</svg>
