<?xml version="1.0" encoding="UTF-8" standalone="no"?>
<!DOCTYPE svg PUBLIC "-//W3C//DTD SVG 1.1//EN"
 "http://www.w3.org/Graphics/SVG/1.1/DTD/svg11.dtd">
<!-- Generated by graphviz version 2.40.1 (20161225.0304)
 -->
<!-- Title: twoDegreesRelationshipsDiagram Pages: 1 -->
<svg width="558pt" height="443pt"
 viewBox="0.00 0.00 558.00 442.70" xmlns="http://www.w3.org/2000/svg" xmlns:xlink="http://www.w3.org/1999/xlink">
<g id="graph0" class="graph" transform="scale(1 1) rotate(0) translate(4 438.7)">
<title>twoDegreesRelationshipsDiagram</title>
<polygon fill="#ffffff" stroke="transparent" points="-4,4 -4,-438.7 554,-438.7 554,4 -4,4"/>
<text text-anchor="middle" x="72.4936" y="-7.3" font-family="Helvetica,sans-Serif" font-size="11.00" fill="#000000">Generated by SchemaSpy</text>
<!-- bereikbaarheid -->
<g id="node1" class="node">
<title>bereikbaarheid</title>
<g id="a_node1"><a xlink:href="../../tables/bereikbaarheid.html" xlink:title="bereikbaarheid" target="_top">
<polygon fill="#ffffff" stroke="transparent" points="418,-369.7 418,-430.7 542,-430.7 542,-369.7 418,-369.7"/>
<polygon fill="#f5f5f5" stroke="transparent" points="418,-407.2 418,-430.2 542,-430.2 542,-407.2 418,-407.2"/>
<polygon fill="none" stroke="#000000" points="418,-407.2 418,-430.2 542,-430.2 542,-407.2 418,-407.2"/>
<text text-anchor="start" x="423" y="-415.8" font-family="Helvetica,sans-Serif" font-weight="bold" font-size="11.00" fill="#000000">bereikbaarheid</text>
<text text-anchor="start" x="507.5219" y="-415.3" font-family="Helvetica,sans-Serif" font-size="11.00" fill="#000000">[table]</text>
<polygon fill="none" stroke="#000000" points="418,-388.2 418,-407.2 542,-407.2 542,-388.2 418,-388.2"/>
<text text-anchor="start" x="421" y="-394.3" font-family="Helvetica,sans-Serif" font-size="11.00" fill="#000000">...</text>
<polygon fill="#ffffff" stroke="transparent" points="418,-369.2 418,-388.2 478,-388.2 478,-369.2 418,-369.2"/>
<polygon fill="none" stroke="#000000" points="418,-369.2 418,-388.2 478,-388.2 478,-369.2 418,-369.2"/>
<text text-anchor="start" x="421" y="-375.3" font-family="Helvetica,sans-Serif" font-size="11.00" fill="#000000">&lt; 2</text>
<polygon fill="#ffffff" stroke="transparent" points="478,-369.2 478,-388.2 510,-388.2 510,-369.2 478,-369.2"/>
<polygon fill="none" stroke="#000000" points="478,-369.2 478,-388.2 510,-388.2 510,-369.2 478,-369.2"/>
<text text-anchor="start" x="500.8862" y="-375.3" font-family="Helvetica,sans-Serif" font-size="11.00" fill="#000000"> &#160;</text>
<polygon fill="#ffffff" stroke="transparent" points="510,-369.2 510,-388.2 542,-388.2 542,-369.2 510,-369.2"/>
<polygon fill="none" stroke="#000000" points="510,-369.2 510,-388.2 542,-388.2 542,-369.2 510,-369.2"/>
<text text-anchor="start" x="532.8862" y="-375.3" font-family="Helvetica,sans-Serif" font-size="11.00" fill="#000000"> &#160;</text>
</a>
</g>
</g>
<!-- object -->
<g id="node2" class="node">
<title>object</title>
<g id="a_node2"><a xlink:href="../../tables/object.html" xlink:title="object" target="_top">
<polygon fill="#ffffff" stroke="transparent" points="246,-96.7 246,-267.7 369,-267.7 369,-96.7 246,-96.7"/>
<polygon fill="#f5f5f5" stroke="transparent" points="246.5,-244.2 246.5,-267.2 369.5,-267.2 369.5,-244.2 246.5,-244.2"/>
<polygon fill="none" stroke="#000000" points="246.5,-244.2 246.5,-267.2 369.5,-267.2 369.5,-244.2 246.5,-244.2"/>
<text text-anchor="start" x="251.5" y="-252.8" font-family="Helvetica,sans-Serif" font-weight="bold" font-size="11.00" fill="#000000">object</text>
<text text-anchor="start" x="334.5437" y="-252.3" font-family="Helvetica,sans-Serif" font-size="11.00" fill="#000000">[table]</text>
<polygon fill="none" stroke="#000000" points="246.5,-222.2 246.5,-244.2 369.5,-244.2 369.5,-222.2 246.5,-222.2"/>
<image xlink:href="../../images/primaryKeys.png" width="11px" height="12px" preserveAspectRatio="xMinYMin meet" x="251.5" y="-239.2"/>
<text text-anchor="start" x="266.5" y="-229.3" font-family="Helvetica,sans-Serif" font-size="11.00" fill="#000000">uuid</text>
<polygon fill="#ffffff" stroke="transparent" points="246.5,-200.2 246.5,-222.2 369.5,-222.2 369.5,-200.2 246.5,-200.2"/>
<polygon fill="none" stroke="#000000" points="246.5,-200.2 246.5,-222.2 369.5,-222.2 369.5,-200.2 246.5,-200.2"/>
<text text-anchor="start" x="266.5" y="-207.3" font-family="Helvetica,sans-Serif" font-size="11.00" fill="#000000">geom</text>
<polygon fill="#ffffff" stroke="transparent" points="246.5,-178.2 246.5,-200.2 369.5,-200.2 369.5,-178.2 246.5,-178.2"/>
<polygon fill="none" stroke="#000000" points="246.5,-178.2 246.5,-200.2 369.5,-200.2 369.5,-178.2 246.5,-178.2"/>
<text text-anchor="start" x="266.5" y="-185.3" font-family="Helvetica,sans-Serif" font-size="11.00" fill="#000000">revisie_frequentie</text>
<polygon fill="#ffffff" stroke="transparent" points="246.5,-156.2 246.5,-178.2 369.5,-178.2 369.5,-156.2 246.5,-156.2"/>
<polygon fill="none" stroke="#000000" points="246.5,-156.2 246.5,-178.2 369.5,-178.2 369.5,-156.2 246.5,-156.2"/>
<image xlink:href="../../images/foreignKeys.png" width="11px" height="12px" preserveAspectRatio="xMinYMin meet" x="251.5" y="-173.2"/>
<text text-anchor="start" x="266.5" y="-163.3" font-family="Helvetica,sans-Serif" font-size="11.00" fill="#000000">fase_id</text>
<polygon fill="#ffffff" stroke="transparent" points="246.5,-134.2 246.5,-156.2 369.5,-156.2 369.5,-134.2 246.5,-134.2"/>
<polygon fill="none" stroke="#000000" points="246.5,-134.2 246.5,-156.2 369.5,-156.2 369.5,-134.2 246.5,-134.2"/>
<image xlink:href="../../images/foreignKeys.png" width="11px" height="12px" preserveAspectRatio="xMinYMin meet" x="251.5" y="-151.2"/>
<text text-anchor="start" x="266.5" y="-141.3" font-family="Helvetica,sans-Serif" font-size="11.00" fill="#000000">object_type_id</text>
<polygon fill="none" stroke="#000000" points="246.5,-115.2 246.5,-134.2 369.5,-134.2 369.5,-115.2 246.5,-115.2"/>
<text text-anchor="start" x="249.5" y="-121.3" font-family="Helvetica,sans-Serif" font-size="11.00" fill="#000000">...</text>
<polygon fill="#ffffff" stroke="transparent" points="246.5,-96.2 246.5,-115.2 301.5,-115.2 301.5,-96.2 246.5,-96.2"/>
<polygon fill="none" stroke="#000000" points="246.5,-96.2 246.5,-115.2 301.5,-115.2 301.5,-96.2 246.5,-96.2"/>
<text text-anchor="start" x="249.5" y="-102.3" font-family="Helvetica,sans-Serif" font-size="11.00" fill="#000000">&lt; 2</text>
<polygon fill="#ffffff" stroke="transparent" points="301.5,-96.2 301.5,-115.2 330.5,-115.2 330.5,-96.2 301.5,-96.2"/>
<polygon fill="none" stroke="#000000" points="301.5,-96.2 301.5,-115.2 330.5,-115.2 330.5,-96.2 301.5,-96.2"/>
<text text-anchor="start" x="321.3862" y="-102.3" font-family="Helvetica,sans-Serif" font-size="11.00" fill="#000000"> &#160;</text>
<polygon fill="#ffffff" stroke="transparent" points="330.5,-96.2 330.5,-115.2 369.5,-115.2 369.5,-96.2 330.5,-96.2"/>
<polygon fill="none" stroke="#000000" points="330.5,-96.2 330.5,-115.2 369.5,-115.2 369.5,-96.2 330.5,-96.2"/>
<text text-anchor="start" x="350.9053" y="-102.3" font-family="Helvetica,sans-Serif" font-size="11.00" fill="#000000">5 &gt;</text>
</a>
</g>
</g>
<!-- bereikbaarheid&#45;&gt;object -->
<g id="edge1" class="edge">
<title>bereikbaarheid:w&#45;&gt;object:e</title>
<path fill="none" stroke="#000000" d="M403.5969,-394.4903C356.7194,-373.1672 439.7196,-233.2 369.5,-233.2"/>
<polygon fill="#000000" stroke="#000000" points="410.1379,-395.7208 417.3344,-400.7379 414.069,-396.4604 418,-397.2 418,-397.2 418,-397.2 414.069,-396.4604 418.6656,-393.6621 410.1379,-395.7208 410.1379,-395.7208"/>
<ellipse fill="none" stroke="#000000" cx="406.9931" cy="-395.1292" rx="3.2" ry="3.2"/>
</g>
<!-- roi.fase -->
<g id="node5" class="node">
<title>roi.fase</title>
<g id="a_node5"><a xlink:href="../../../roi/tables/fase.html" xlink:title="roi.fase" target="_top">
<polygon fill="#ffffff" stroke="transparent" points="62,-171.7 62,-232.7 143,-232.7 143,-171.7 62,-171.7"/>
<polygon fill="#f5f5f5" stroke="transparent" points="62.5,-209.2 62.5,-232.2 143.5,-232.2 143.5,-209.2 62.5,-209.2"/>
<polygon fill="none" stroke="#000000" points="62.5,-209.2 62.5,-232.2 143.5,-232.2 143.5,-209.2 62.5,-209.2"/>
<text text-anchor="start" x="67.5" y="-217.8" font-family="Helvetica,sans-Serif" font-weight="bold" font-size="11.00" fill="#000000">roi.fase</text>
<text text-anchor="start" x="109.0219" y="-217.3" font-family="Helvetica,sans-Serif" font-size="11.00" fill="#000000">[table]</text>
<polygon fill="none" stroke="#000000" points="62.5,-190.2 62.5,-209.2 143.5,-209.2 143.5,-190.2 62.5,-190.2"/>
<text text-anchor="start" x="65.5" y="-196.3" font-family="Helvetica,sans-Serif" font-size="11.00" fill="#000000">...</text>
<polygon fill="#ffffff" stroke="transparent" points="62.5,-171.2 62.5,-190.2 92.5,-190.2 92.5,-171.2 62.5,-171.2"/>
<polygon fill="none" stroke="#000000" points="62.5,-171.2 62.5,-190.2 92.5,-190.2 92.5,-171.2 62.5,-171.2"/>
<text text-anchor="start" x="65.5" y="-177.3" font-family="Helvetica,sans-Serif" font-size="11.00" fill="#000000"> &#160;</text>
<polygon fill="#ffffff" stroke="transparent" points="92.5,-171.2 92.5,-190.2 113.5,-190.2 113.5,-171.2 92.5,-171.2"/>
<polygon fill="none" stroke="#000000" points="92.5,-171.2 92.5,-190.2 113.5,-190.2 113.5,-171.2 92.5,-171.2"/>
<text text-anchor="start" x="104.3862" y="-177.3" font-family="Helvetica,sans-Serif" font-size="11.00" fill="#000000"> &#160;</text>
<polygon fill="#ffffff" stroke="transparent" points="113.5,-171.2 113.5,-190.2 143.5,-190.2 143.5,-171.2 113.5,-171.2"/>
<polygon fill="none" stroke="#000000" points="113.5,-171.2 113.5,-190.2 143.5,-190.2 143.5,-171.2 113.5,-171.2"/>
<text text-anchor="start" x="124.9053" y="-177.3" font-family="Helvetica,sans-Serif" font-size="11.00" fill="#000000">1 &gt;</text>
</a>
</g>
</g>
<!-- object&#45;&gt;roi.fase -->
<g id="edge4" class="edge">
<title>object:w&#45;&gt;roi.fase:e</title>
<path fill="none" stroke="#000000" d="M232.1287,-168.2647C196.5165,-173.8172 186.1932,-199.2 143.5,-199.2"/>
<polygon fill="#000000" stroke="#000000" points="238.5219,-167.7911 246.766,-170.7902 242.5109,-167.4956 246.5,-167.2 246.5,-167.2 246.5,-167.2 242.5109,-167.4956 246.234,-163.6098 238.5219,-167.7911 238.5219,-167.7911"/>
<ellipse fill="none" stroke="#000000" cx="235.3306" cy="-168.0276" rx="3.2" ry="3.2"/>
</g>
<!-- object_type -->
<g id="node6" class="node">
<title>object_type</title>
<g id="a_node6"><a xlink:href="../../tables/object_type.html" xlink:title="object_type" target="_top">
<polygon fill="#ffffff" stroke="transparent" points="8,-38.2 8,-150.2 197,-150.2 197,-38.2 8,-38.2"/>
<polygon fill="#f5f5f5" stroke="transparent" points="10.5,-125.2 10.5,-148.2 195.5,-148.2 195.5,-125.2 10.5,-125.2"/>
<polygon fill="none" stroke="#000000" points="10.5,-125.2 10.5,-148.2 195.5,-148.2 195.5,-125.2 10.5,-125.2"/>
<text text-anchor="start" x="15.5" y="-133.8" font-family="Helvetica,sans-Serif" font-weight="bold" font-size="11.00" fill="#000000">object_type</text>
<text text-anchor="start" x="160.5437" y="-133.3" font-family="Helvetica,sans-Serif" font-size="11.00" fill="#000000">[table]</text>
<polygon fill="none" stroke="#000000" points="10.5,-103.2 10.5,-125.2 105.5,-125.2 105.5,-103.2 10.5,-103.2"/>
<image xlink:href="../../images/primaryKeys.png" width="11px" height="12px" preserveAspectRatio="xMinYMin meet" x="15.5" y="-120.2"/>
<text text-anchor="start" x="30.5" y="-110.3" font-family="Helvetica,sans-Serif" font-size="11.00" fill="#000000">id</text>
<polygon fill="none" stroke="#000000" points="105.5,-103.2 105.5,-125.2 195.5,-125.2 195.5,-103.2 105.5,-103.2"/>
<text text-anchor="start" x="108.5" y="-110.9" font-family="Helvetica,sans-Serif" font-size="11.00" fill="#000000">int2[5]</text>
<polygon fill="none" stroke="#000000" points="10.5,-81.2 10.5,-103.2 105.5,-103.2 105.5,-81.2 10.5,-81.2"/>
<text text-anchor="start" x="30.5" y="-88.3" font-family="Helvetica,sans-Serif" font-size="11.00" fill="#000000">naam</text>
<polygon fill="none" stroke="#000000" points="105.5,-81.2 105.5,-103.2 195.5,-103.2 195.5,-81.2 105.5,-81.2"/>
<text text-anchor="start" x="108.0042" y="-88.9" font-family="Helvetica,sans-Serif" font-size="11.00" fill="#000000">text[2147483647]</text>
<polygon fill="none" stroke="#000000" points="10.5,-59.2 10.5,-81.2 105.5,-81.2 105.5,-59.2 10.5,-59.2"/>
<text text-anchor="start" x="30.5" y="-66.3" font-family="Helvetica,sans-Serif" font-size="11.00" fill="#000000">omschrijving</text>
<polygon fill="none" stroke="#000000" points="105.5,-59.2 105.5,-81.2 195.5,-81.2 195.5,-59.2 105.5,-59.2"/>
<text text-anchor="start" x="108.0042" y="-66.9" font-family="Helvetica,sans-Serif" font-size="11.00" fill="#000000">text[2147483647]</text>
<polygon fill="#ffffff" stroke="transparent" points="10.5,-40.2 10.5,-59.2 62.5,-59.2 62.5,-40.2 10.5,-40.2"/>
<polygon fill="none" stroke="#000000" points="10.5,-40.2 10.5,-59.2 62.5,-59.2 62.5,-40.2 10.5,-40.2"/>
<text text-anchor="start" x="13.5" y="-46.3" font-family="Helvetica,sans-Serif" font-size="11.00" fill="#000000">&lt; 0</text>
<polygon fill="#ffffff" stroke="transparent" points="62.5,-40.2 62.5,-59.2 105.5,-59.2 105.5,-40.2 62.5,-40.2"/>
<polygon fill="none" stroke="#000000" points="62.5,-40.2 62.5,-59.2 105.5,-59.2 105.5,-40.2 62.5,-40.2"/>
<text text-anchor="start" x="96.3862" y="-46.3" font-family="Helvetica,sans-Serif" font-size="11.00" fill="#000000"> &#160;</text>
<polygon fill="#ffffff" stroke="transparent" points="105.5,-40.2 105.5,-59.2 195.5,-59.2 195.5,-40.2 105.5,-40.2"/>
<polygon fill="none" stroke="#000000" points="105.5,-40.2 105.5,-59.2 195.5,-59.2 195.5,-40.2 105.5,-40.2"/>
<text text-anchor="start" x="176.9053" y="-46.3" font-family="Helvetica,sans-Serif" font-size="11.00" fill="#000000">1 &gt;</text>
<polygon fill="none" stroke="#000000" stroke-width="2" points="9,-39.2 9,-149.2 196,-149.2 196,-39.2 9,-39.2"/>
</a>
</g>
</g>
<!-- object&#45;&gt;object_type -->
<g id="edge5" class="edge">
<title>object:w&#45;&gt;object_type:e</title>
<path fill="none" stroke="#000000" d="M232.5967,-141.3988C219.5044,-133.1209 216.2231,-114.2 195.5,-114.2"/>
<polygon fill="#000000" stroke="#000000" points="238.7832,-143.0902 245.5506,-148.6726 242.6416,-144.1451 246.5,-145.2 246.5,-145.2 246.5,-145.2 242.6416,-144.1451 247.4494,-141.7274 238.7832,-143.0902 238.7832,-143.0902"/>
<ellipse fill="none" stroke="#000000" cx="235.6965" cy="-142.2462" rx="3.2" ry="3.2"/>
</g>
<!-- label -->
<g id="node3" class="node">
<title>label</title>
<g id="a_node3"><a xlink:href="../../tables/label.html" xlink:title="label" target="_top">
<polygon fill="#ffffff" stroke="transparent" points="447,-287.7 447,-348.7 513,-348.7 513,-287.7 447,-287.7"/>
<polygon fill="#f5f5f5" stroke="transparent" points="447,-325.2 447,-348.2 513,-348.2 513,-325.2 447,-325.2"/>
<polygon fill="none" stroke="#000000" points="447,-325.2 447,-348.2 513,-348.2 513,-325.2 447,-325.2"/>
<text text-anchor="start" x="451.8868" y="-333.8" font-family="Helvetica,sans-Serif" font-weight="bold" font-size="11.00" fill="#000000">label</text>
<text text-anchor="start" x="478.5219" y="-333.3" font-family="Helvetica,sans-Serif" font-size="11.00" fill="#000000">[table]</text>
<polygon fill="none" stroke="#000000" points="447,-306.2 447,-325.2 513,-325.2 513,-306.2 447,-306.2"/>
<text text-anchor="start" x="450" y="-312.3" font-family="Helvetica,sans-Serif" font-size="11.00" fill="#000000">...</text>
<polygon fill="#ffffff" stroke="transparent" points="447,-287.2 447,-306.2 478,-306.2 478,-287.2 447,-287.2"/>
<polygon fill="none" stroke="#000000" points="447,-287.2 447,-306.2 478,-306.2 478,-287.2 447,-287.2"/>
<text text-anchor="start" x="450" y="-293.3" font-family="Helvetica,sans-Serif" font-size="11.00" fill="#000000">&lt; 2</text>
<polygon fill="#ffffff" stroke="transparent" points="478,-287.2 478,-306.2 495,-306.2 495,-287.2 478,-287.2"/>
<polygon fill="none" stroke="#000000" points="478,-287.2 478,-306.2 495,-306.2 495,-287.2 478,-287.2"/>
<text text-anchor="start" x="485.8862" y="-293.3" font-family="Helvetica,sans-Serif" font-size="11.00" fill="#000000"> &#160;</text>
<polygon fill="#ffffff" stroke="transparent" points="495,-287.2 495,-306.2 513,-306.2 513,-287.2 495,-287.2"/>
<polygon fill="none" stroke="#000000" points="495,-287.2 495,-306.2 513,-306.2 513,-287.2 495,-287.2"/>
<text text-anchor="start" x="503.8862" y="-293.3" font-family="Helvetica,sans-Serif" font-size="11.00" fill="#000000"> &#160;</text>
</a>
</g>
</g>
<!-- label&#45;&gt;object -->
<g id="edge2" class="edge">
<title>label:w&#45;&gt;object:e</title>
<path fill="none" stroke="#000000" d="M432.5541,-312.2816C401.0818,-297.6742 413.9654,-233.2 369.5,-233.2"/>
<polygon fill="#000000" stroke="#000000" points="439.1584,-313.6158 446.2871,-318.7287 443.0792,-314.4079 447,-315.2 447,-315.2 447,-315.2 443.0792,-314.4079 447.7129,-311.6713 439.1584,-313.6158 439.1584,-313.6158"/>
<ellipse fill="none" stroke="#000000" cx="436.0218" cy="-312.9821" rx="3.2" ry="3.2"/>
</g>
<!-- maatregel -->
<g id="node4" class="node">
<title>maatregel</title>
<g id="a_node4"><a xlink:href="../../tables/maatregel.html" xlink:title="maatregel" target="_top">
<polygon fill="#ffffff" stroke="transparent" points="432.5,-205.7 432.5,-266.7 527.5,-266.7 527.5,-205.7 432.5,-205.7"/>
<polygon fill="#f5f5f5" stroke="transparent" points="433,-243.2 433,-266.2 528,-266.2 528,-243.2 433,-243.2"/>
<polygon fill="none" stroke="#000000" points="433,-243.2 433,-266.2 528,-266.2 528,-243.2 433,-243.2"/>
<text text-anchor="start" x="438" y="-251.8" font-family="Helvetica,sans-Serif" font-weight="bold" font-size="11.00" fill="#000000">maatregel</text>
<text text-anchor="start" x="493.5219" y="-251.3" font-family="Helvetica,sans-Serif" font-size="11.00" fill="#000000">[table]</text>
<polygon fill="none" stroke="#000000" points="433,-224.2 433,-243.2 528,-243.2 528,-224.2 433,-224.2"/>
<text text-anchor="start" x="436" y="-230.3" font-family="Helvetica,sans-Serif" font-size="11.00" fill="#000000">...</text>
<polygon fill="#ffffff" stroke="transparent" points="433,-205.2 433,-224.2 479,-224.2 479,-205.2 433,-205.2"/>
<polygon fill="none" stroke="#000000" points="433,-205.2 433,-224.2 479,-224.2 479,-205.2 433,-205.2"/>
<text text-anchor="start" x="436" y="-211.3" font-family="Helvetica,sans-Serif" font-size="11.00" fill="#000000">&lt; 2</text>
<polygon fill="#ffffff" stroke="transparent" points="479,-205.2 479,-224.2 503,-224.2 503,-205.2 479,-205.2"/>
<polygon fill="none" stroke="#000000" points="479,-205.2 479,-224.2 503,-224.2 503,-205.2 479,-205.2"/>
<text text-anchor="start" x="493.8862" y="-211.3" font-family="Helvetica,sans-Serif" font-size="11.00" fill="#000000"> &#160;</text>
<polygon fill="#ffffff" stroke="transparent" points="503,-205.2 503,-224.2 528,-224.2 528,-205.2 503,-205.2"/>
<polygon fill="none" stroke="#000000" points="503,-205.2 503,-224.2 528,-224.2 528,-205.2 503,-205.2"/>
<text text-anchor="start" x="518.8862" y="-211.3" font-family="Helvetica,sans-Serif" font-size="11.00" fill="#000000"> &#160;</text>
</a>
</g>
</g>
<!-- maatregel&#45;&gt;object -->
<g id="edge3" class="edge">
<title>maatregel:w&#45;&gt;object:e</title>
<path fill="none" stroke="#000000" d="M418.5705,-233.2C401.2143,-233.2 392.2101,-233.2 369.5,-233.2"/>
<polygon fill="#000000" stroke="#000000" points="425,-233.2001 433,-236.8 429,-233.2 433,-233.2 433,-233.2 433,-233.2 429,-233.2 433,-229.6 425,-233.2001 425,-233.2001"/>
<ellipse fill="none" stroke="#000000" cx="421.8" cy="-233.2001" rx="3.2" ry="3.2"/>
</g>
<!-- sector -->
<g id="node7" class="node">
<title>sector</title>
<g id="a_node7"><a xlink:href="../../tables/sector.html" xlink:title="sector" target="_top">
<polygon fill="#ffffff" stroke="transparent" points="442.5,-123.7 442.5,-184.7 517.5,-184.7 517.5,-123.7 442.5,-123.7"/>
<polygon fill="#f5f5f5" stroke="transparent" points="443,-161.2 443,-184.2 518,-184.2 518,-161.2 443,-161.2"/>
<polygon fill="none" stroke="#000000" points="443,-161.2 443,-184.2 518,-184.2 518,-161.2 443,-161.2"/>
<text text-anchor="start" x="448" y="-169.8" font-family="Helvetica,sans-Serif" font-weight="bold" font-size="11.00" fill="#000000">sector</text>
<text text-anchor="start" x="483.5219" y="-169.3" font-family="Helvetica,sans-Serif" font-size="11.00" fill="#000000">[table]</text>
<polygon fill="none" stroke="#000000" points="443,-142.2 443,-161.2 518,-161.2 518,-142.2 443,-142.2"/>
<text text-anchor="start" x="446" y="-148.3" font-family="Helvetica,sans-Serif" font-size="11.00" fill="#000000">...</text>
<polygon fill="#ffffff" stroke="transparent" points="443,-123.2 443,-142.2 479,-142.2 479,-123.2 443,-123.2"/>
<polygon fill="none" stroke="#000000" points="443,-123.2 443,-142.2 479,-142.2 479,-123.2 443,-123.2"/>
<text text-anchor="start" x="446" y="-129.3" font-family="Helvetica,sans-Serif" font-size="11.00" fill="#000000">&lt; 2</text>
<polygon fill="#ffffff" stroke="transparent" points="479,-123.2 479,-142.2 498,-142.2 498,-123.2 479,-123.2"/>
<polygon fill="none" stroke="#000000" points="479,-123.2 479,-142.2 498,-142.2 498,-123.2 479,-123.2"/>
<text text-anchor="start" x="488.8862" y="-129.3" font-family="Helvetica,sans-Serif" font-size="11.00" fill="#000000"> &#160;</text>
<polygon fill="#ffffff" stroke="transparent" points="498,-123.2 498,-142.2 518,-142.2 518,-123.2 498,-123.2"/>
<polygon fill="none" stroke="#000000" points="498,-123.2 498,-142.2 518,-142.2 518,-123.2 498,-123.2"/>
<text text-anchor="start" x="508.8862" y="-129.3" font-family="Helvetica,sans-Serif" font-size="11.00" fill="#000000"> &#160;</text>
</a>
</g>
</g>
<!-- sector&#45;&gt;object -->
<g id="edge6" class="edge">
<title>sector:w&#45;&gt;object:e</title>
<path fill="none" stroke="#000000" d="M428.5788,-154.3144C398.7661,-169.2927 412.7065,-233.2 369.5,-233.2"/>
<polygon fill="#000000" stroke="#000000" points="435.1803,-152.8888 443.7599,-154.7189 439.0901,-152.0444 443,-151.2 443,-151.2 443,-151.2 439.0901,-152.0444 442.2401,-147.6811 435.1803,-152.8888 435.1803,-152.8888"/>
<ellipse fill="none" stroke="#000000" cx="432.0524" cy="-153.5643" rx="3.2" ry="3.2"/>
</g>
<!-- voorziening -->
<g id="node8" class="node">
<title>voorziening</title>
<g id="a_node8"><a xlink:href="../../tables/voorziening.html" xlink:title="voorziening" target="_top">
<polygon fill="#ffffff" stroke="transparent" points="427,-41.7 427,-102.7 533,-102.7 533,-41.7 427,-41.7"/>
<polygon fill="#f5f5f5" stroke="transparent" points="427,-79.2 427,-102.2 533,-102.2 533,-79.2 427,-79.2"/>
<polygon fill="none" stroke="#000000" points="427,-79.2 427,-102.2 533,-102.2 533,-79.2 427,-79.2"/>
<text text-anchor="start" x="432" y="-87.8" font-family="Helvetica,sans-Serif" font-weight="bold" font-size="11.00" fill="#000000">voorziening</text>
<text text-anchor="start" x="498.5219" y="-87.3" font-family="Helvetica,sans-Serif" font-size="11.00" fill="#000000">[table]</text>
<polygon fill="none" stroke="#000000" points="427,-60.2 427,-79.2 533,-79.2 533,-60.2 427,-60.2"/>
<text text-anchor="start" x="430" y="-66.3" font-family="Helvetica,sans-Serif" font-size="11.00" fill="#000000">...</text>
<polygon fill="#ffffff" stroke="transparent" points="427,-41.2 427,-60.2 478,-60.2 478,-41.2 427,-41.2"/>
<polygon fill="none" stroke="#000000" points="427,-41.2 427,-60.2 478,-60.2 478,-41.2 427,-41.2"/>
<text text-anchor="start" x="430" y="-47.3" font-family="Helvetica,sans-Serif" font-size="11.00" fill="#000000">&lt; 2</text>
<polygon fill="#ffffff" stroke="transparent" points="478,-41.2 478,-60.2 505,-60.2 505,-41.2 478,-41.2"/>
<polygon fill="none" stroke="#000000" points="478,-41.2 478,-60.2 505,-60.2 505,-41.2 478,-41.2"/>
<text text-anchor="start" x="495.8862" y="-47.3" font-family="Helvetica,sans-Serif" font-size="11.00" fill="#000000"> &#160;</text>
<polygon fill="#ffffff" stroke="transparent" points="505,-41.2 505,-60.2 533,-60.2 533,-41.2 505,-41.2"/>
<polygon fill="none" stroke="#000000" points="505,-41.2 505,-60.2 533,-60.2 533,-41.2 505,-41.2"/>
<text text-anchor="start" x="523.8862" y="-47.3" font-family="Helvetica,sans-Serif" font-size="11.00" fill="#000000"> &#160;</text>
</a>
</g>
</g>
<!-- voorziening&#45;&gt;object -->
<g id="edge7" class="edge">
<title>voorziening:w&#45;&gt;object:e</title>
<path fill="none" stroke="#000000" d="M412.5388,-71.776C363.1964,-92.6404 441.0065,-233.2 369.5,-233.2"/>
<polygon fill="#000000" stroke="#000000" points="419.124,-70.603 427.6314,-72.7442 423.062,-69.9015 427,-69.2 427,-69.2 427,-69.2 423.062,-69.9015 426.3686,-65.6558 419.124,-70.603 419.124,-70.603"/>
<ellipse fill="none" stroke="#000000" cx="415.9736" cy="-71.1643" rx="3.2" ry="3.2"/>
</g>
</g>
</svg>
