<?xml version="1.0" encoding="UTF-8" standalone="no"?>
<!DOCTYPE svg PUBLIC "-//W3C//DTD SVG 1.1//EN"
 "http://www.w3.org/Graphics/SVG/1.1/DTD/svg11.dtd">
<!-- Generated by graphviz version 2.40.1 (20161225.0304)
 -->
<!-- Title: oneDegreeRelationshipsDiagram Pages: 1 -->
<svg width="599pt" height="879pt"
 viewBox="0.00 0.00 599.00 879.20" xmlns="http://www.w3.org/2000/svg" xmlns:xlink="http://www.w3.org/1999/xlink">
<g id="graph0" class="graph" transform="scale(1 1) rotate(0) translate(4 875.2)">
<title>oneDegreeRelationshipsDiagram</title>
<polygon fill="#ffffff" stroke="transparent" points="-4,4 -4,-875.2 595,-875.2 595,4 -4,4"/>
<text text-anchor="middle" x="72.4936" y="-7.3" font-family="Helvetica,sans-Serif" font-size="11.00" fill="#000000">Generated by SchemaSpy</text>
<!-- bereikbaarheid -->
<g id="node1" class="node">
<title>bereikbaarheid</title>
<g id="a_node1"><a xlink:href="../../tables/bereikbaarheid.html" xlink:title="bereikbaarheid" target="_top">
<polygon fill="#ffffff" stroke="transparent" points="458,-718.2 458,-867.2 582,-867.2 582,-718.2 458,-718.2"/>
<polygon fill="#f5f5f5" stroke="transparent" points="458,-843.7 458,-866.7 582,-866.7 582,-843.7 458,-843.7"/>
<polygon fill="none" stroke="#000000" points="458,-843.7 458,-866.7 582,-866.7 582,-843.7 458,-843.7"/>
<text text-anchor="start" x="463" y="-852.3" font-family="Helvetica,sans-Serif" font-weight="bold" font-size="11.00" fill="#000000">bereikbaarheid</text>
<text text-anchor="start" x="547.5219" y="-851.8" font-family="Helvetica,sans-Serif" font-size="11.00" fill="#000000">[table]</text>
<polygon fill="none" stroke="#000000" points="458,-821.7 458,-843.7 582,-843.7 582,-821.7 458,-821.7"/>
<image xlink:href="../../images/primaryKeys.png" width="11px" height="12px" preserveAspectRatio="xMinYMin meet" x="463" y="-838.7"/>
<text text-anchor="start" x="486" y="-828.8" font-family="Helvetica,sans-Serif" font-size="11.00" fill="#000000">uuid</text>
<polygon fill="#ffffff" stroke="transparent" points="458,-799.7 458,-821.7 582,-821.7 582,-799.7 458,-799.7"/>
<polygon fill="none" stroke="#000000" points="458,-799.7 458,-821.7 582,-821.7 582,-799.7 458,-799.7"/>
<text text-anchor="start" x="486" y="-806.8" font-family="Helvetica,sans-Serif" font-size="11.00" fill="#000000">geom</text>
<polygon fill="#ffffff" stroke="transparent" points="458,-777.7 458,-799.7 582,-799.7 582,-777.7 458,-777.7"/>
<polygon fill="none" stroke="#000000" points="458,-777.7 458,-799.7 582,-799.7 582,-777.7 458,-777.7"/>
<image xlink:href="../../images/foreignKeys.png" width="11px" height="12px" preserveAspectRatio="xMinYMin meet" x="463" y="-794.7"/>
<text text-anchor="start" x="486" y="-784.8" font-family="Helvetica,sans-Serif" font-size="11.00" fill="#000000">object_uuid</text>
<polygon fill="none" stroke="#000000" points="458,-755.7 458,-777.7 582,-777.7 582,-755.7 458,-755.7"/>
<image xlink:href="../../images/foreignKeys.png" width="11px" height="12px" preserveAspectRatio="xMinYMin meet" x="463" y="-772.7"/>
<text text-anchor="start" x="486" y="-762.8" font-family="Helvetica,sans-Serif" font-size="11.00" fill="#000000">verbinding_id</text>
<polygon fill="none" stroke="#000000" points="458,-736.7 458,-755.7 582,-755.7 582,-736.7 458,-736.7"/>
<text text-anchor="start" x="461" y="-742.8" font-family="Helvetica,sans-Serif" font-size="11.00" fill="#000000">...</text>
<polygon fill="#ffffff" stroke="transparent" points="458,-717.7 458,-736.7 518,-736.7 518,-717.7 458,-717.7"/>
<polygon fill="none" stroke="#000000" points="458,-717.7 458,-736.7 518,-736.7 518,-717.7 458,-717.7"/>
<text text-anchor="start" x="461" y="-723.8" font-family="Helvetica,sans-Serif" font-size="11.00" fill="#000000">&lt; 2</text>
<polygon fill="#ffffff" stroke="transparent" points="518,-717.7 518,-736.7 550,-736.7 550,-717.7 518,-717.7"/>
<polygon fill="none" stroke="#000000" points="518,-717.7 518,-736.7 550,-736.7 550,-717.7 518,-717.7"/>
<text text-anchor="start" x="540.8862" y="-723.8" font-family="Helvetica,sans-Serif" font-size="11.00" fill="#000000"> &#160;</text>
<polygon fill="#ffffff" stroke="transparent" points="550,-717.7 550,-736.7 582,-736.7 582,-717.7 550,-717.7"/>
<polygon fill="none" stroke="#000000" points="550,-717.7 550,-736.7 582,-736.7 582,-717.7 550,-717.7"/>
<text text-anchor="start" x="572.8862" y="-723.8" font-family="Helvetica,sans-Serif" font-size="11.00" fill="#000000"> &#160;</text>
</a>
</g>
</g>
<!-- object -->
<g id="node2" class="node">
<title>object</title>
<g id="a_node2"><a xlink:href="../../tables/object.html" xlink:title="object" target="_top">
<polygon fill="#ffffff" stroke="transparent" points="162,-152.7 162,-484.7 408,-484.7 408,-152.7 162,-152.7"/>
<polygon fill="#f5f5f5" stroke="transparent" points="164,-459.7 164,-482.7 406,-482.7 406,-459.7 164,-459.7"/>
<polygon fill="none" stroke="#000000" points="164,-459.7 164,-482.7 406,-482.7 406,-459.7 164,-459.7"/>
<text text-anchor="start" x="169" y="-468.3" font-family="Helvetica,sans-Serif" font-weight="bold" font-size="11.00" fill="#000000">object</text>
<text text-anchor="start" x="371.0437" y="-467.8" font-family="Helvetica,sans-Serif" font-size="11.00" fill="#000000">[table]</text>
<polygon fill="none" stroke="#000000" points="164,-437.7 164,-459.7 287,-459.7 287,-437.7 164,-437.7"/>
<image xlink:href="../../images/primaryKeys.png" width="11px" height="12px" preserveAspectRatio="xMinYMin meet" x="169" y="-454.7"/>
<text text-anchor="start" x="184" y="-444.8" font-family="Helvetica,sans-Serif" font-size="11.00" fill="#000000">uuid</text>
<polygon fill="none" stroke="#000000" points="287,-437.7 287,-459.7 406,-459.7 406,-437.7 287,-437.7"/>
<text text-anchor="start" x="290" y="-445.4" font-family="Helvetica,sans-Serif" font-size="11.00" fill="#000000">uuid[2147483647]</text>
<polygon fill="#ffffff" stroke="transparent" points="164,-415.7 164,-437.7 287,-437.7 287,-415.7 164,-415.7"/>
<polygon fill="none" stroke="#000000" points="164,-415.7 164,-437.7 287,-437.7 287,-415.7 164,-415.7"/>
<text text-anchor="start" x="184" y="-422.8" font-family="Helvetica,sans-Serif" font-size="11.00" fill="#000000">geom</text>
<polygon fill="none" stroke="#000000" points="287,-415.7 287,-437.7 406,-437.7 406,-415.7 287,-415.7"/>
<text text-anchor="start" x="289.9485" y="-423.4" font-family="Helvetica,sans-Serif" font-size="11.00" fill="#000000">geometry[2147483647]</text>
<polygon fill="none" stroke="#000000" points="164,-393.7 164,-415.7 287,-415.7 287,-393.7 164,-393.7"/>
<text text-anchor="start" x="184" y="-400.8" font-family="Helvetica,sans-Serif" font-size="11.00" fill="#000000">datumtijd</text>
<polygon fill="none" stroke="#000000" points="287,-393.7 287,-415.7 406,-415.7 406,-393.7 287,-393.7"/>
<text text-anchor="start" x="290" y="-401.4" font-family="Helvetica,sans-Serif" font-size="11.00" fill="#000000">timestamptz[35,6]</text>
<polygon fill="none" stroke="#000000" points="164,-371.7 164,-393.7 287,-393.7 287,-371.7 164,-371.7"/>
<text text-anchor="start" x="184" y="-378.8" font-family="Helvetica,sans-Serif" font-size="11.00" fill="#000000">gebruiker</text>
<polygon fill="none" stroke="#000000" points="287,-371.7 287,-393.7 406,-393.7 406,-371.7 287,-371.7"/>
<text text-anchor="start" x="290" y="-379.4" font-family="Helvetica,sans-Serif" font-size="11.00" fill="#000000">varchar[255]</text>
<polygon fill="#ffffff" stroke="transparent" points="164,-349.7 164,-371.7 287,-371.7 287,-349.7 164,-349.7"/>
<polygon fill="none" stroke="#000000" points="164,-349.7 164,-371.7 287,-371.7 287,-349.7 164,-349.7"/>
<text text-anchor="start" x="184" y="-356.8" font-family="Helvetica,sans-Serif" font-size="11.00" fill="#000000">revisie_frequentie</text>
<polygon fill="none" stroke="#000000" points="287,-349.7 287,-371.7 406,-371.7 406,-349.7 287,-349.7"/>
<text text-anchor="start" x="290" y="-357.4" font-family="Helvetica,sans-Serif" font-size="11.00" fill="#000000">int2[5]</text>
<polygon fill="none" stroke="#000000" points="164,-327.7 164,-349.7 287,-349.7 287,-327.7 164,-327.7"/>
<text text-anchor="start" x="184" y="-334.8" font-family="Helvetica,sans-Serif" font-size="11.00" fill="#000000">formelenaam</text>
<polygon fill="none" stroke="#000000" points="287,-327.7 287,-349.7 406,-349.7 406,-327.7 287,-327.7"/>
<text text-anchor="start" x="290" y="-335.4" font-family="Helvetica,sans-Serif" font-size="11.00" fill="#000000">text[2147483647]</text>
<polygon fill="none" stroke="#000000" points="164,-305.7 164,-327.7 287,-327.7 287,-305.7 164,-305.7"/>
<text text-anchor="start" x="184" y="-312.8" font-family="Helvetica,sans-Serif" font-size="11.00" fill="#000000">code</text>
<polygon fill="none" stroke="#000000" points="287,-305.7 287,-327.7 406,-327.7 406,-305.7 287,-305.7"/>
<text text-anchor="start" x="290" y="-313.4" font-family="Helvetica,sans-Serif" font-size="11.00" fill="#000000">text[2147483647]</text>
<polygon fill="none" stroke="#000000" points="164,-283.7 164,-305.7 287,-305.7 287,-283.7 164,-283.7"/>
<text text-anchor="start" x="184" y="-290.8" font-family="Helvetica,sans-Serif" font-size="11.00" fill="#000000">adres</text>
<polygon fill="none" stroke="#000000" points="287,-283.7 287,-305.7 406,-305.7 406,-283.7 287,-283.7"/>
<text text-anchor="start" x="290" y="-291.4" font-family="Helvetica,sans-Serif" font-size="11.00" fill="#000000">text[2147483647]</text>
<polygon fill="none" stroke="#000000" points="164,-261.7 164,-283.7 287,-283.7 287,-261.7 164,-261.7"/>
<text text-anchor="start" x="184" y="-268.8" font-family="Helvetica,sans-Serif" font-size="11.00" fill="#000000">bijzonderheden</text>
<polygon fill="none" stroke="#000000" points="287,-261.7 287,-283.7 406,-283.7 406,-261.7 287,-261.7"/>
<text text-anchor="start" x="290" y="-269.4" font-family="Helvetica,sans-Serif" font-size="11.00" fill="#000000">text[2147483647]</text>
<polygon fill="none" stroke="#000000" points="164,-239.7 164,-261.7 287,-261.7 287,-239.7 164,-239.7"/>
<text text-anchor="start" x="184" y="-246.8" font-family="Helvetica,sans-Serif" font-size="11.00" fill="#000000">plusinfo</text>
<polygon fill="none" stroke="#000000" points="287,-239.7 287,-261.7 406,-261.7 406,-239.7 287,-239.7"/>
<text text-anchor="start" x="290" y="-247.4" font-family="Helvetica,sans-Serif" font-size="11.00" fill="#000000">jsonb[2147483647]</text>
<polygon fill="#ffffff" stroke="transparent" points="164,-217.7 164,-239.7 287,-239.7 287,-217.7 164,-217.7"/>
<polygon fill="none" stroke="#000000" points="164,-217.7 164,-239.7 287,-239.7 287,-217.7 164,-217.7"/>
<image xlink:href="../../images/foreignKeys.png" width="11px" height="12px" preserveAspectRatio="xMinYMin meet" x="169" y="-234.7"/>
<text text-anchor="start" x="184" y="-224.8" font-family="Helvetica,sans-Serif" font-size="11.00" fill="#000000">fase_id</text>
<polygon fill="none" stroke="#000000" points="287,-217.7 287,-239.7 406,-239.7 406,-217.7 287,-217.7"/>
<text text-anchor="start" x="290" y="-225.4" font-family="Helvetica,sans-Serif" font-size="11.00" fill="#000000">int2[5]</text>
<polygon fill="#ffffff" stroke="transparent" points="164,-195.7 164,-217.7 287,-217.7 287,-195.7 164,-195.7"/>
<polygon fill="none" stroke="#000000" points="164,-195.7 164,-217.7 287,-217.7 287,-195.7 164,-195.7"/>
<image xlink:href="../../images/foreignKeys.png" width="11px" height="12px" preserveAspectRatio="xMinYMin meet" x="169" y="-212.7"/>
<text text-anchor="start" x="184" y="-202.8" font-family="Helvetica,sans-Serif" font-size="11.00" fill="#000000">object_type_id</text>
<polygon fill="none" stroke="#000000" points="287,-195.7 287,-217.7 406,-217.7 406,-195.7 287,-195.7"/>
<text text-anchor="start" x="290" y="-203.4" font-family="Helvetica,sans-Serif" font-size="11.00" fill="#000000">int2[5]</text>
<polygon fill="none" stroke="#000000" points="164,-173.7 164,-195.7 287,-195.7 287,-173.7 164,-173.7"/>
<text text-anchor="start" x="184" y="-180.8" font-family="Helvetica,sans-Serif" font-size="11.00" fill="#000000">beheerder</text>
<polygon fill="none" stroke="#000000" points="287,-173.7 287,-195.7 406,-195.7 406,-173.7 287,-173.7"/>
<text text-anchor="start" x="290" y="-181.4" font-family="Helvetica,sans-Serif" font-size="11.00" fill="#000000">text[2147483647]</text>
<polygon fill="#ffffff" stroke="transparent" points="164,-154.7 164,-173.7 230,-173.7 230,-154.7 164,-154.7"/>
<polygon fill="none" stroke="#000000" points="164,-154.7 164,-173.7 230,-173.7 230,-154.7 164,-154.7"/>
<text text-anchor="start" x="167" y="-160.8" font-family="Helvetica,sans-Serif" font-size="11.00" fill="#000000">&lt; 2</text>
<polygon fill="#ffffff" stroke="transparent" points="230,-154.7 230,-173.7 287,-173.7 287,-154.7 230,-154.7"/>
<polygon fill="none" stroke="#000000" points="230,-154.7 230,-173.7 287,-173.7 287,-154.7 230,-154.7"/>
<text text-anchor="start" x="277.8862" y="-160.8" font-family="Helvetica,sans-Serif" font-size="11.00" fill="#000000"> &#160;</text>
<polygon fill="#ffffff" stroke="transparent" points="287,-154.7 287,-173.7 406,-173.7 406,-154.7 287,-154.7"/>
<polygon fill="none" stroke="#000000" points="287,-154.7 287,-173.7 406,-173.7 406,-154.7 287,-154.7"/>
<text text-anchor="start" x="387.4053" y="-160.8" font-family="Helvetica,sans-Serif" font-size="11.00" fill="#000000">5 &gt;</text>
<polygon fill="none" stroke="#000000" stroke-width="2" points="163,-153.7 163,-483.7 407,-483.7 407,-153.7 163,-153.7"/>
</a>
</g>
</g>
<!-- bereikbaarheid&#45;&gt;object -->
<g id="edge1" class="edge">
<title>bereikbaarheid:w&#45;&gt;object:e</title>
<path fill="none" stroke="#000000" d="M444.3836,-783.8937C394.8739,-742.5684 477.0598,-448.7 406,-448.7"/>
<polygon fill="#000000" stroke="#000000" points="450.4562,-786.0371 456.8017,-792.0947 454.2281,-787.3686 458,-788.7 458,-788.7 458,-788.7 454.2281,-787.3686 459.1983,-785.3053 450.4562,-786.0371 450.4562,-786.0371"/>
<ellipse fill="none" stroke="#000000" cx="447.4386" cy="-784.972" rx="3.2" ry="3.2"/>
</g>
<!-- roi.fase -->
<g id="node5" class="node">
<title>roi.fase</title>
<g id="a_node5"><a xlink:href="../../../roi/tables/fase.html" xlink:title="roi.fase" target="_top">
<polygon fill="#ffffff" stroke="transparent" points="20,-230.2 20,-291.2 101,-291.2 101,-230.2 20,-230.2"/>
<polygon fill="#f5f5f5" stroke="transparent" points="20.5,-267.7 20.5,-290.7 101.5,-290.7 101.5,-267.7 20.5,-267.7"/>
<polygon fill="none" stroke="#000000" points="20.5,-267.7 20.5,-290.7 101.5,-290.7 101.5,-267.7 20.5,-267.7"/>
<text text-anchor="start" x="25.5" y="-276.3" font-family="Helvetica,sans-Serif" font-weight="bold" font-size="11.00" fill="#000000">roi.fase</text>
<text text-anchor="start" x="67.0219" y="-275.8" font-family="Helvetica,sans-Serif" font-size="11.00" fill="#000000">[table]</text>
<polygon fill="none" stroke="#000000" points="20.5,-248.7 20.5,-267.7 101.5,-267.7 101.5,-248.7 20.5,-248.7"/>
<text text-anchor="start" x="23.5" y="-254.8" font-family="Helvetica,sans-Serif" font-size="11.00" fill="#000000">...</text>
<polygon fill="#ffffff" stroke="transparent" points="20.5,-229.7 20.5,-248.7 50.5,-248.7 50.5,-229.7 20.5,-229.7"/>
<polygon fill="none" stroke="#000000" points="20.5,-229.7 20.5,-248.7 50.5,-248.7 50.5,-229.7 20.5,-229.7"/>
<text text-anchor="start" x="23.5" y="-235.8" font-family="Helvetica,sans-Serif" font-size="11.00" fill="#000000"> &#160;</text>
<polygon fill="#ffffff" stroke="transparent" points="50.5,-229.7 50.5,-248.7 71.5,-248.7 71.5,-229.7 50.5,-229.7"/>
<polygon fill="none" stroke="#000000" points="50.5,-229.7 50.5,-248.7 71.5,-248.7 71.5,-229.7 50.5,-229.7"/>
<text text-anchor="start" x="62.3862" y="-235.8" font-family="Helvetica,sans-Serif" font-size="11.00" fill="#000000"> &#160;</text>
<polygon fill="#ffffff" stroke="transparent" points="71.5,-229.7 71.5,-248.7 101.5,-248.7 101.5,-229.7 71.5,-229.7"/>
<polygon fill="none" stroke="#000000" points="71.5,-229.7 71.5,-248.7 101.5,-248.7 101.5,-229.7 71.5,-229.7"/>
<text text-anchor="start" x="82.9053" y="-235.8" font-family="Helvetica,sans-Serif" font-size="11.00" fill="#000000">1 &gt;</text>
</a>
</g>
</g>
<!-- object&#45;&gt;roi.fase -->
<g id="edge4" class="edge">
<title>object:w&#45;&gt;roi.fase:e</title>
<path fill="none" stroke="#000000" d="M149.5938,-229.5736C135.6831,-231.1911 121.6893,-234.8818 109.0471,-239.178"/>
<polygon fill="#000000" stroke="#000000" points="156.0147,-229.1843 164.2179,-232.2934 160.0073,-228.9421 164,-228.7 164,-228.7 164,-228.7 160.0073,-228.9421 163.7821,-225.1066 156.0147,-229.1843 156.0147,-229.1843"/>
<ellipse fill="none" stroke="#000000" cx="152.8205" cy="-229.378" rx="3.2" ry="3.2"/>
</g>
<!-- object_type -->
<g id="node6" class="node">
<title>object_type</title>
<g id="a_node6"><a xlink:href="../../tables/object_type.html" xlink:title="object_type" target="_top">
<polygon fill="#ffffff" stroke="transparent" points="8,-126.2 8,-209.2 113,-209.2 113,-126.2 8,-126.2"/>
<polygon fill="#f5f5f5" stroke="transparent" points="8.5,-185.7 8.5,-208.7 113.5,-208.7 113.5,-185.7 8.5,-185.7"/>
<polygon fill="none" stroke="#000000" points="8.5,-185.7 8.5,-208.7 113.5,-208.7 113.5,-185.7 8.5,-185.7"/>
<text text-anchor="start" x="13.5" y="-194.3" font-family="Helvetica,sans-Serif" font-weight="bold" font-size="11.00" fill="#000000">object_type</text>
<text text-anchor="start" x="79.0219" y="-193.8" font-family="Helvetica,sans-Serif" font-size="11.00" fill="#000000">[table]</text>
<polygon fill="none" stroke="#000000" points="8.5,-163.7 8.5,-185.7 113.5,-185.7 113.5,-163.7 8.5,-163.7"/>
<image xlink:href="../../images/primaryKeys.png" width="11px" height="12px" preserveAspectRatio="xMinYMin meet" x="13.5" y="-180.7"/>
<text text-anchor="start" x="33.5" y="-170.8" font-family="Helvetica,sans-Serif" font-size="11.00" fill="#000000">id</text>
<polygon fill="none" stroke="#000000" points="8.5,-144.7 8.5,-163.7 113.5,-163.7 113.5,-144.7 8.5,-144.7"/>
<text text-anchor="start" x="11.5" y="-150.8" font-family="Helvetica,sans-Serif" font-size="11.00" fill="#000000">...</text>
<polygon fill="#ffffff" stroke="transparent" points="8.5,-125.7 8.5,-144.7 50.5,-144.7 50.5,-125.7 8.5,-125.7"/>
<polygon fill="none" stroke="#000000" points="8.5,-125.7 8.5,-144.7 50.5,-144.7 50.5,-125.7 8.5,-125.7"/>
<text text-anchor="start" x="11.5" y="-131.8" font-family="Helvetica,sans-Serif" font-size="11.00" fill="#000000"> &#160;</text>
<polygon fill="#ffffff" stroke="transparent" points="50.5,-125.7 50.5,-144.7 77.5,-144.7 77.5,-125.7 50.5,-125.7"/>
<polygon fill="none" stroke="#000000" points="50.5,-125.7 50.5,-144.7 77.5,-144.7 77.5,-125.7 50.5,-125.7"/>
<text text-anchor="start" x="68.3862" y="-131.8" font-family="Helvetica,sans-Serif" font-size="11.00" fill="#000000"> &#160;</text>
<polygon fill="#ffffff" stroke="transparent" points="77.5,-125.7 77.5,-144.7 113.5,-144.7 113.5,-125.7 77.5,-125.7"/>
<polygon fill="none" stroke="#000000" points="77.5,-125.7 77.5,-144.7 113.5,-144.7 113.5,-125.7 77.5,-125.7"/>
<text text-anchor="start" x="94.9053" y="-131.8" font-family="Helvetica,sans-Serif" font-size="11.00" fill="#000000">1 &gt;</text>
</a>
</g>
</g>
<!-- object&#45;&gt;object_type -->
<g id="edge5" class="edge">
<title>object:w&#45;&gt;object_type:e</title>
<path fill="none" stroke="#000000" d="M150.1448,-202.7762C137.187,-194.2313 134.2587,-174.7 113.5,-174.7"/>
<polygon fill="#000000" stroke="#000000" points="156.3027,-204.5201 163.019,-210.1638 160.1514,-205.61 164,-206.7 164,-206.7 164,-206.7 160.1514,-205.61 164.981,-203.2362 156.3027,-204.5201 156.3027,-204.5201"/>
<ellipse fill="none" stroke="#000000" cx="153.2238" cy="-203.6481" rx="3.2" ry="3.2"/>
</g>
<!-- label -->
<g id="node3" class="node">
<title>label</title>
<g id="a_node3"><a xlink:href="../../tables/label.html" xlink:title="label" target="_top">
<polygon fill="#ffffff" stroke="transparent" points="465.5,-548.2 465.5,-697.2 574.5,-697.2 574.5,-548.2 465.5,-548.2"/>
<polygon fill="#f5f5f5" stroke="transparent" points="466,-673.7 466,-696.7 575,-696.7 575,-673.7 466,-673.7"/>
<polygon fill="none" stroke="#000000" points="466,-673.7 466,-696.7 575,-696.7 575,-673.7 466,-673.7"/>
<text text-anchor="start" x="470.8868" y="-682.3" font-family="Helvetica,sans-Serif" font-weight="bold" font-size="11.00" fill="#000000">label</text>
<text text-anchor="start" x="540.0437" y="-681.8" font-family="Helvetica,sans-Serif" font-size="11.00" fill="#000000">[table]</text>
<polygon fill="none" stroke="#000000" points="466,-651.7 466,-673.7 575,-673.7 575,-651.7 466,-651.7"/>
<image xlink:href="../../images/primaryKeys.png" width="11px" height="12px" preserveAspectRatio="xMinYMin meet" x="471" y="-668.7"/>
<text text-anchor="start" x="486" y="-658.8" font-family="Helvetica,sans-Serif" font-size="11.00" fill="#000000">uuid</text>
<polygon fill="#ffffff" stroke="transparent" points="466,-629.7 466,-651.7 575,-651.7 575,-629.7 466,-629.7"/>
<polygon fill="none" stroke="#000000" points="466,-629.7 466,-651.7 575,-651.7 575,-629.7 466,-629.7"/>
<text text-anchor="start" x="486" y="-636.8" font-family="Helvetica,sans-Serif" font-size="11.00" fill="#000000">geom</text>
<polygon fill="#ffffff" stroke="transparent" points="466,-607.7 466,-629.7 575,-629.7 575,-607.7 466,-607.7"/>
<polygon fill="none" stroke="#000000" points="466,-607.7 466,-629.7 575,-629.7 575,-607.7 466,-607.7"/>
<image xlink:href="../../images/foreignKeys.png" width="11px" height="12px" preserveAspectRatio="xMinYMin meet" x="471" y="-624.7"/>
<text text-anchor="start" x="486" y="-614.8" font-family="Helvetica,sans-Serif" font-size="11.00" fill="#000000">object_uuid</text>
<polygon fill="none" stroke="#000000" points="466,-585.7 466,-607.7 575,-607.7 575,-585.7 466,-585.7"/>
<image xlink:href="../../images/foreignKeys.png" width="11px" height="12px" preserveAspectRatio="xMinYMin meet" x="471" y="-602.7"/>
<text text-anchor="start" x="486" y="-592.8" font-family="Helvetica,sans-Serif" font-size="11.00" fill="#000000">annotatie_id</text>
<polygon fill="none" stroke="#000000" points="466,-566.7 466,-585.7 575,-585.7 575,-566.7 466,-566.7"/>
<text text-anchor="start" x="469" y="-572.8" font-family="Helvetica,sans-Serif" font-size="11.00" fill="#000000">...</text>
<polygon fill="#ffffff" stroke="transparent" points="466,-547.7 466,-566.7 519,-566.7 519,-547.7 466,-547.7"/>
<polygon fill="none" stroke="#000000" points="466,-547.7 466,-566.7 519,-566.7 519,-547.7 466,-547.7"/>
<text text-anchor="start" x="469" y="-553.8" font-family="Helvetica,sans-Serif" font-size="11.00" fill="#000000">&lt; 2</text>
<polygon fill="#ffffff" stroke="transparent" points="519,-547.7 519,-566.7 547,-566.7 547,-547.7 519,-547.7"/>
<polygon fill="none" stroke="#000000" points="519,-547.7 519,-566.7 547,-566.7 547,-547.7 519,-547.7"/>
<text text-anchor="start" x="537.8862" y="-553.8" font-family="Helvetica,sans-Serif" font-size="11.00" fill="#000000"> &#160;</text>
<polygon fill="#ffffff" stroke="transparent" points="547,-547.7 547,-566.7 575,-566.7 575,-547.7 547,-547.7"/>
<polygon fill="none" stroke="#000000" points="547,-547.7 547,-566.7 575,-566.7 575,-547.7 547,-547.7"/>
<text text-anchor="start" x="565.8862" y="-553.8" font-family="Helvetica,sans-Serif" font-size="11.00" fill="#000000"> &#160;</text>
</a>
</g>
</g>
<!-- label&#45;&gt;object -->
<g id="edge2" class="edge">
<title>label:w&#45;&gt;object:e</title>
<path fill="none" stroke="#000000" d="M451.6487,-616.2968C399.0821,-595.6342 480.4897,-448.7 406,-448.7"/>
<polygon fill="#000000" stroke="#000000" points="458.1099,-617.3787 465.4054,-622.2506 462.0549,-618.0394 466,-618.7 466,-618.7 466,-618.7 462.0549,-618.0394 466.5946,-615.1494 458.1099,-617.3787 458.1099,-617.3787"/>
<ellipse fill="none" stroke="#000000" cx="454.9538" cy="-616.8502" rx="3.2" ry="3.2"/>
</g>
<!-- maatregel -->
<g id="node4" class="node">
<title>maatregel</title>
<g id="a_node4"><a xlink:href="../../tables/maatregel.html" xlink:title="maatregel" target="_top">
<polygon fill="#ffffff" stroke="transparent" points="457,-378.2 457,-527.2 583,-527.2 583,-378.2 457,-378.2"/>
<polygon fill="#f5f5f5" stroke="transparent" points="457,-503.7 457,-526.7 583,-526.7 583,-503.7 457,-503.7"/>
<polygon fill="none" stroke="#000000" points="457,-503.7 457,-526.7 583,-526.7 583,-503.7 457,-503.7"/>
<text text-anchor="start" x="462" y="-512.3" font-family="Helvetica,sans-Serif" font-weight="bold" font-size="11.00" fill="#000000">maatregel</text>
<text text-anchor="start" x="548.0437" y="-511.8" font-family="Helvetica,sans-Serif" font-size="11.00" fill="#000000">[table]</text>
<polygon fill="none" stroke="#000000" points="457,-481.7 457,-503.7 583,-503.7 583,-481.7 457,-481.7"/>
<image xlink:href="../../images/primaryKeys.png" width="11px" height="12px" preserveAspectRatio="xMinYMin meet" x="462" y="-498.7"/>
<text text-anchor="start" x="477" y="-488.8" font-family="Helvetica,sans-Serif" font-size="11.00" fill="#000000">uuid</text>
<polygon fill="#ffffff" stroke="transparent" points="457,-459.7 457,-481.7 583,-481.7 583,-459.7 457,-459.7"/>
<polygon fill="none" stroke="#000000" points="457,-459.7 457,-481.7 583,-481.7 583,-459.7 457,-459.7"/>
<text text-anchor="start" x="477" y="-466.8" font-family="Helvetica,sans-Serif" font-size="11.00" fill="#000000">geom</text>
<polygon fill="#ffffff" stroke="transparent" points="457,-437.7 457,-459.7 583,-459.7 583,-437.7 457,-437.7"/>
<polygon fill="none" stroke="#000000" points="457,-437.7 457,-459.7 583,-459.7 583,-437.7 457,-437.7"/>
<image xlink:href="../../images/foreignKeys.png" width="11px" height="12px" preserveAspectRatio="xMinYMin meet" x="462" y="-454.7"/>
<text text-anchor="start" x="477" y="-444.8" font-family="Helvetica,sans-Serif" font-size="11.00" fill="#000000">object_uuid</text>
<polygon fill="none" stroke="#000000" points="457,-415.7 457,-437.7 583,-437.7 583,-415.7 457,-415.7"/>
<image xlink:href="../../images/foreignKeys.png" width="11px" height="12px" preserveAspectRatio="xMinYMin meet" x="462" y="-432.7"/>
<text text-anchor="start" x="477" y="-422.8" font-family="Helvetica,sans-Serif" font-size="11.00" fill="#000000">maatregel_type_id</text>
<polygon fill="none" stroke="#000000" points="457,-396.7 457,-415.7 583,-415.7 583,-396.7 457,-396.7"/>
<text text-anchor="start" x="460" y="-402.8" font-family="Helvetica,sans-Serif" font-size="11.00" fill="#000000">...</text>
<polygon fill="#ffffff" stroke="transparent" points="457,-377.7 457,-396.7 518,-396.7 518,-377.7 457,-377.7"/>
<polygon fill="none" stroke="#000000" points="457,-377.7 457,-396.7 518,-396.7 518,-377.7 457,-377.7"/>
<text text-anchor="start" x="460" y="-383.8" font-family="Helvetica,sans-Serif" font-size="11.00" fill="#000000">&lt; 2</text>
<polygon fill="#ffffff" stroke="transparent" points="518,-377.7 518,-396.7 550,-396.7 550,-377.7 518,-377.7"/>
<polygon fill="none" stroke="#000000" points="518,-377.7 518,-396.7 550,-396.7 550,-377.7 518,-377.7"/>
<text text-anchor="start" x="540.8862" y="-383.8" font-family="Helvetica,sans-Serif" font-size="11.00" fill="#000000"> &#160;</text>
<polygon fill="#ffffff" stroke="transparent" points="550,-377.7 550,-396.7 583,-396.7 583,-377.7 550,-377.7"/>
<polygon fill="none" stroke="#000000" points="550,-377.7 550,-396.7 583,-396.7 583,-377.7 550,-377.7"/>
<text text-anchor="start" x="573.8862" y="-383.8" font-family="Helvetica,sans-Serif" font-size="11.00" fill="#000000"> &#160;</text>
</a>
</g>
</g>
<!-- maatregel&#45;&gt;object -->
<g id="edge3" class="edge">
<title>maatregel:w&#45;&gt;object:e</title>
<path fill="none" stroke="#000000" d="M442.276,-448.7C430.2815,-448.7 422.8229,-448.7 406,-448.7"/>
<polygon fill="#000000" stroke="#000000" points="449,-448.7001 457,-452.3 453,-448.7 457,-448.7 457,-448.7 457,-448.7 453,-448.7 457,-445.1 449,-448.7001 449,-448.7001"/>
<ellipse fill="none" stroke="#000000" cx="445.8" cy="-448.7001" rx="3.2" ry="3.2"/>
</g>
<!-- sector -->
<g id="node7" class="node">
<title>sector</title>
<g id="a_node7"><a xlink:href="../../tables/sector.html" xlink:title="sector" target="_top">
<polygon fill="#ffffff" stroke="transparent" points="465.5,-208.2 465.5,-357.2 574.5,-357.2 574.5,-208.2 465.5,-208.2"/>
<polygon fill="#f5f5f5" stroke="transparent" points="466,-333.7 466,-356.7 575,-356.7 575,-333.7 466,-333.7"/>
<polygon fill="none" stroke="#000000" points="466,-333.7 466,-356.7 575,-356.7 575,-333.7 466,-333.7"/>
<text text-anchor="start" x="471" y="-342.3" font-family="Helvetica,sans-Serif" font-weight="bold" font-size="11.00" fill="#000000">sector</text>
<text text-anchor="start" x="540.0437" y="-341.8" font-family="Helvetica,sans-Serif" font-size="11.00" fill="#000000">[table]</text>
<polygon fill="none" stroke="#000000" points="466,-311.7 466,-333.7 575,-333.7 575,-311.7 466,-311.7"/>
<image xlink:href="../../images/primaryKeys.png" width="11px" height="12px" preserveAspectRatio="xMinYMin meet" x="471" y="-328.7"/>
<text text-anchor="start" x="486" y="-318.8" font-family="Helvetica,sans-Serif" font-size="11.00" fill="#000000">uuid</text>
<polygon fill="#ffffff" stroke="transparent" points="466,-289.7 466,-311.7 575,-311.7 575,-289.7 466,-289.7"/>
<polygon fill="none" stroke="#000000" points="466,-289.7 466,-311.7 575,-311.7 575,-289.7 466,-289.7"/>
<text text-anchor="start" x="486" y="-296.8" font-family="Helvetica,sans-Serif" font-size="11.00" fill="#000000">geom</text>
<polygon fill="#ffffff" stroke="transparent" points="466,-267.7 466,-289.7 575,-289.7 575,-267.7 466,-267.7"/>
<polygon fill="none" stroke="#000000" points="466,-267.7 466,-289.7 575,-289.7 575,-267.7 466,-267.7"/>
<image xlink:href="../../images/foreignKeys.png" width="11px" height="12px" preserveAspectRatio="xMinYMin meet" x="471" y="-284.7"/>
<text text-anchor="start" x="486" y="-274.8" font-family="Helvetica,sans-Serif" font-size="11.00" fill="#000000">object_uuid</text>
<polygon fill="none" stroke="#000000" points="466,-245.7 466,-267.7 575,-267.7 575,-245.7 466,-245.7"/>
<image xlink:href="../../images/foreignKeys.png" width="11px" height="12px" preserveAspectRatio="xMinYMin meet" x="471" y="-262.7"/>
<text text-anchor="start" x="486" y="-252.8" font-family="Helvetica,sans-Serif" font-size="11.00" fill="#000000">zone_id</text>
<polygon fill="none" stroke="#000000" points="466,-226.7 466,-245.7 575,-245.7 575,-226.7 466,-226.7"/>
<text text-anchor="start" x="469" y="-232.8" font-family="Helvetica,sans-Serif" font-size="11.00" fill="#000000">...</text>
<polygon fill="#ffffff" stroke="transparent" points="466,-207.7 466,-226.7 519,-226.7 519,-207.7 466,-207.7"/>
<polygon fill="none" stroke="#000000" points="466,-207.7 466,-226.7 519,-226.7 519,-207.7 466,-207.7"/>
<text text-anchor="start" x="469" y="-213.8" font-family="Helvetica,sans-Serif" font-size="11.00" fill="#000000">&lt; 2</text>
<polygon fill="#ffffff" stroke="transparent" points="519,-207.7 519,-226.7 547,-226.7 547,-207.7 519,-207.7"/>
<polygon fill="none" stroke="#000000" points="519,-207.7 519,-226.7 547,-226.7 547,-207.7 519,-207.7"/>
<text text-anchor="start" x="537.8862" y="-213.8" font-family="Helvetica,sans-Serif" font-size="11.00" fill="#000000"> &#160;</text>
<polygon fill="#ffffff" stroke="transparent" points="547,-207.7 547,-226.7 575,-226.7 575,-207.7 547,-207.7"/>
<polygon fill="none" stroke="#000000" points="547,-207.7 547,-226.7 575,-226.7 575,-207.7 547,-207.7"/>
<text text-anchor="start" x="565.8862" y="-213.8" font-family="Helvetica,sans-Serif" font-size="11.00" fill="#000000"> &#160;</text>
</a>
</g>
</g>
<!-- sector&#45;&gt;object -->
<g id="edge6" class="edge">
<title>sector:w&#45;&gt;object:e</title>
<path fill="none" stroke="#000000" d="M451.6487,-281.1032C399.0821,-301.7658 480.4897,-448.7 406,-448.7"/>
<polygon fill="#000000" stroke="#000000" points="458.1099,-280.0213 466.5946,-282.2506 462.0549,-279.3606 466,-278.7 466,-278.7 466,-278.7 462.0549,-279.3606 465.4054,-275.1494 458.1099,-280.0213 458.1099,-280.0213"/>
<ellipse fill="none" stroke="#000000" cx="454.9538" cy="-280.5498" rx="3.2" ry="3.2"/>
</g>
<!-- voorziening -->
<g id="node8" class="node">
<title>voorziening</title>
<g id="a_node8"><a xlink:href="../../tables/voorziening.html" xlink:title="voorziening" target="_top">
<polygon fill="#ffffff" stroke="transparent" points="465.5,-38.2 465.5,-187.2 574.5,-187.2 574.5,-38.2 465.5,-38.2"/>
<polygon fill="#f5f5f5" stroke="transparent" points="466,-163.7 466,-186.7 575,-186.7 575,-163.7 466,-163.7"/>
<polygon fill="none" stroke="#000000" points="466,-163.7 466,-186.7 575,-186.7 575,-163.7 466,-163.7"/>
<text text-anchor="start" x="471" y="-172.3" font-family="Helvetica,sans-Serif" font-weight="bold" font-size="11.00" fill="#000000">voorziening</text>
<text text-anchor="start" x="540.0437" y="-171.8" font-family="Helvetica,sans-Serif" font-size="11.00" fill="#000000">[table]</text>
<polygon fill="none" stroke="#000000" points="466,-141.7 466,-163.7 575,-163.7 575,-141.7 466,-141.7"/>
<image xlink:href="../../images/primaryKeys.png" width="11px" height="12px" preserveAspectRatio="xMinYMin meet" x="471" y="-158.7"/>
<text text-anchor="start" x="486" y="-148.8" font-family="Helvetica,sans-Serif" font-size="11.00" fill="#000000">uuid</text>
<polygon fill="#ffffff" stroke="transparent" points="466,-119.7 466,-141.7 575,-141.7 575,-119.7 466,-119.7"/>
<polygon fill="none" stroke="#000000" points="466,-119.7 466,-141.7 575,-141.7 575,-119.7 466,-119.7"/>
<text text-anchor="start" x="486" y="-126.8" font-family="Helvetica,sans-Serif" font-size="11.00" fill="#000000">geom</text>
<polygon fill="#ffffff" stroke="transparent" points="466,-97.7 466,-119.7 575,-119.7 575,-97.7 466,-97.7"/>
<polygon fill="none" stroke="#000000" points="466,-97.7 466,-119.7 575,-119.7 575,-97.7 466,-97.7"/>
<image xlink:href="../../images/foreignKeys.png" width="11px" height="12px" preserveAspectRatio="xMinYMin meet" x="471" y="-114.7"/>
<text text-anchor="start" x="486" y="-104.8" font-family="Helvetica,sans-Serif" font-size="11.00" fill="#000000">object_uuid</text>
<polygon fill="none" stroke="#000000" points="466,-75.7 466,-97.7 575,-97.7 575,-75.7 466,-75.7"/>
<image xlink:href="../../images/foreignKeys.png" width="11px" height="12px" preserveAspectRatio="xMinYMin meet" x="471" y="-92.7"/>
<text text-anchor="start" x="486" y="-82.8" font-family="Helvetica,sans-Serif" font-size="11.00" fill="#000000">symbool_id</text>
<polygon fill="none" stroke="#000000" points="466,-56.7 466,-75.7 575,-75.7 575,-56.7 466,-56.7"/>
<text text-anchor="start" x="469" y="-62.8" font-family="Helvetica,sans-Serif" font-size="11.00" fill="#000000">...</text>
<polygon fill="#ffffff" stroke="transparent" points="466,-37.7 466,-56.7 519,-56.7 519,-37.7 466,-37.7"/>
<polygon fill="none" stroke="#000000" points="466,-37.7 466,-56.7 519,-56.7 519,-37.7 466,-37.7"/>
<text text-anchor="start" x="469" y="-43.8" font-family="Helvetica,sans-Serif" font-size="11.00" fill="#000000">&lt; 2</text>
<polygon fill="#ffffff" stroke="transparent" points="519,-37.7 519,-56.7 547,-56.7 547,-37.7 519,-37.7"/>
<polygon fill="none" stroke="#000000" points="519,-37.7 519,-56.7 547,-56.7 547,-37.7 519,-37.7"/>
<text text-anchor="start" x="537.8862" y="-43.8" font-family="Helvetica,sans-Serif" font-size="11.00" fill="#000000"> &#160;</text>
<polygon fill="#ffffff" stroke="transparent" points="547,-37.7 547,-56.7 575,-56.7 575,-37.7 547,-37.7"/>
<polygon fill="none" stroke="#000000" points="547,-37.7 547,-56.7 575,-56.7 575,-37.7 547,-37.7"/>
<text text-anchor="start" x="565.8862" y="-43.8" font-family="Helvetica,sans-Serif" font-size="11.00" fill="#000000"> &#160;</text>
</a>
</g>
</g>
<!-- voorziening&#45;&gt;object -->
<g id="edge7" class="edge">
<title>voorziening:w&#45;&gt;object:e</title>
<path fill="none" stroke="#000000" d="M452.2218,-113.5063C401.5765,-154.8316 477.3284,-448.7 406,-448.7"/>
<polygon fill="#000000" stroke="#000000" points="458.4464,-111.335 467.1858,-112.0991 462.2232,-110.0175 466,-108.7 466,-108.7 466,-108.7 462.2232,-110.0175 464.8142,-105.3009 458.4464,-111.335 458.4464,-111.335"/>
<ellipse fill="none" stroke="#000000" cx="455.425" cy="-112.389" rx="3.2" ry="3.2"/>
</g>
</g>
</svg>
