<?xml version="1.0" encoding="UTF-8" standalone="no"?>
<!DOCTYPE svg PUBLIC "-//W3C//DTD SVG 1.1//EN"
 "http://www.w3.org/Graphics/SVG/1.1/DTD/svg11.dtd">
<!-- Generated by graphviz version 2.50.0 (0)
 -->
<!-- Title: oneDegreeRelationshipsDiagram Pages: 1 -->
<svg width="659pt" height="863pt"
 viewBox="0.00 0.00 659.00 863.00" xmlns="http://www.w3.org/2000/svg" xmlns:xlink="http://www.w3.org/1999/xlink">
<g id="graph0" class="graph" transform="scale(1 1) rotate(0) translate(4 859)">
<title>oneDegreeRelationshipsDiagram</title>
<polygon fill="#ffffff" stroke="transparent" points="-4,4 -4,-859 655,-859 655,4 -4,4"/>
<text text-anchor="middle" x="79.5" y="-7.2" font-family="Helvetica,sans-Serif" font-size="11.00">Generated by SchemaSpy</text>
<!-- bereikbaarheid -->
<g id="node1" class="node">
<title>bereikbaarheid</title>
<g id="a_node1"><a xlink:href="../../tables/bereikbaarheid.html" xlink:title="bereikbaarheid" target="_top">
<polygon fill="#ffffff" stroke="transparent" points="498,-705 498,-851 643,-851 643,-705 498,-705"/>
<polygon fill="#f5f5f5" stroke="transparent" points="498.5,-829 498.5,-851 643.5,-851 643.5,-829 498.5,-829"/>
<polygon fill="none" stroke="black" points="498.5,-829 498.5,-851 643.5,-851 643.5,-829 498.5,-829"/>
<text text-anchor="start" x="503.5" y="-838.2" font-family="Helvetica,sans-Serif" font-weight="bold" font-size="11.00">bereikbaarheid</text>
<text text-anchor="start" x="601.5" y="-837.2" font-family="Helvetica,sans-Serif" font-size="11.00">[table]</text>
<polygon fill="none" stroke="black" points="498.5,-807 498.5,-829 643.5,-829 643.5,-807 498.5,-807"/>
<image xlink:href="../../images/primaryKeys.png" width="11px" height="12px" preserveAspectRatio="xMinYMin meet" x="503.5" y="-824"/>
<text text-anchor="start" x="534.5" y="-815.2" font-family="Helvetica,sans-Serif" font-size="11.00">uuid</text>
<polygon fill="#ffffff" stroke="transparent" points="498.5,-785 498.5,-807 643.5,-807 643.5,-785 498.5,-785"/>
<polygon fill="none" stroke="black" points="498.5,-785 498.5,-807 643.5,-807 643.5,-785 498.5,-785"/>
<text text-anchor="start" x="534.5" y="-793.2" font-family="Helvetica,sans-Serif" font-size="11.00">geom</text>
<polygon fill="#ffffff" stroke="transparent" points="498.5,-763 498.5,-785 643.5,-785 643.5,-763 498.5,-763"/>
<polygon fill="none" stroke="black" points="498.5,-763 498.5,-785 643.5,-785 643.5,-763 498.5,-763"/>
<image xlink:href="../../images/foreignKeys.png" width="11px" height="12px" preserveAspectRatio="xMinYMin meet" x="503.5" y="-780"/>
<text text-anchor="start" x="534.5" y="-771.2" font-family="Helvetica,sans-Serif" font-size="11.00">object_uuid</text>
<polygon fill="none" stroke="black" points="498.5,-741 498.5,-763 643.5,-763 643.5,-741 498.5,-741"/>
<image xlink:href="../../images/foreignKeys.png" width="11px" height="12px" preserveAspectRatio="xMinYMin meet" x="503.5" y="-758"/>
<text text-anchor="start" x="534.5" y="-749.2" font-family="Helvetica,sans-Serif" font-size="11.00">verbinding_id</text>
<polygon fill="none" stroke="black" points="498.5,-723 498.5,-741 643.5,-741 643.5,-723 498.5,-723"/>
<text text-anchor="start" x="501.5" y="-729.2" font-family="Helvetica,sans-Serif" font-size="11.00">...</text>
<polygon fill="#ffffff" stroke="transparent" points="498.5,-705 498.5,-723 569.5,-723 569.5,-705 498.5,-705"/>
<polygon fill="none" stroke="black" points="498.5,-705 498.5,-723 569.5,-723 569.5,-705 498.5,-705"/>
<text text-anchor="start" x="501.5" y="-711.2" font-family="Helvetica,sans-Serif" font-size="11.00">&lt; 2</text>
<polygon fill="#ffffff" stroke="transparent" points="569.5,-705 569.5,-723 606.5,-723 606.5,-705 569.5,-705"/>
<polygon fill="none" stroke="black" points="569.5,-705 569.5,-723 606.5,-723 606.5,-705 569.5,-705"/>
<text text-anchor="start" x="595.5" y="-711.2" font-family="Helvetica,sans-Serif" font-size="11.00"> &#160;</text>
<polygon fill="#ffffff" stroke="transparent" points="606.5,-705 606.5,-723 643.5,-723 643.5,-705 606.5,-705"/>
<polygon fill="none" stroke="black" points="606.5,-705 606.5,-723 643.5,-723 643.5,-705 606.5,-705"/>
<text text-anchor="start" x="632.5" y="-711.2" font-family="Helvetica,sans-Serif" font-size="11.00"> &#160;</text>
</a>
</g>
</g>
<!-- object -->
<g id="node2" class="node">
<title>object</title>
<g id="a_node2"><a xlink:href="../../tables/object.html" xlink:title="object" target="_top">
<polygon fill="#ffffff" stroke="transparent" points="180,-145 180,-475 449,-475 449,-145 180,-145"/>
<polygon fill="#f5f5f5" stroke="transparent" points="182.5,-451 182.5,-473 447.5,-473 447.5,-451 182.5,-451"/>
<polygon fill="none" stroke="black" points="182.5,-451 182.5,-473 447.5,-473 447.5,-451 182.5,-451"/>
<text text-anchor="start" x="187.5" y="-460.2" font-family="Helvetica,sans-Serif" font-weight="bold" font-size="11.00">object</text>
<text text-anchor="start" x="405.5" y="-459.2" font-family="Helvetica,sans-Serif" font-size="11.00">[table]</text>
<polygon fill="none" stroke="black" points="182.5,-429 182.5,-451 311.5,-451 311.5,-429 182.5,-429"/>
<image xlink:href="../../images/primaryKeys.png" width="11px" height="12px" preserveAspectRatio="xMinYMin meet" x="187.5" y="-446"/>
<text text-anchor="start" x="202.5" y="-437.2" font-family="Helvetica,sans-Serif" font-size="11.00">uuid</text>
<polygon fill="none" stroke="black" points="311.5,-429 311.5,-451 447.5,-451 447.5,-429 311.5,-429"/>
<text text-anchor="start" x="314.5" y="-437.2" font-family="Helvetica,sans-Serif" font-size="11.00">uuid[2147483647]</text>
<polygon fill="#ffffff" stroke="transparent" points="182.5,-407 182.5,-429 311.5,-429 311.5,-407 182.5,-407"/>
<polygon fill="none" stroke="black" points="182.5,-407 182.5,-429 311.5,-429 311.5,-407 182.5,-407"/>
<text text-anchor="start" x="202.5" y="-415.2" font-family="Helvetica,sans-Serif" font-size="11.00">geom</text>
<polygon fill="none" stroke="black" points="311.5,-407 311.5,-429 447.5,-429 447.5,-407 311.5,-407"/>
<text text-anchor="start" x="314.5" y="-415.2" font-family="Helvetica,sans-Serif" font-size="11.00">geometry[2147483647]</text>
<polygon fill="none" stroke="black" points="182.5,-385 182.5,-407 311.5,-407 311.5,-385 182.5,-385"/>
<text text-anchor="start" x="202.5" y="-393.2" font-family="Helvetica,sans-Serif" font-size="11.00">datumtijd</text>
<polygon fill="none" stroke="black" points="311.5,-385 311.5,-407 447.5,-407 447.5,-385 311.5,-385"/>
<text text-anchor="start" x="314.5" y="-393.2" font-family="Helvetica,sans-Serif" font-size="11.00">timestamptz[35,6]</text>
<polygon fill="none" stroke="black" points="182.5,-363 182.5,-385 311.5,-385 311.5,-363 182.5,-363"/>
<text text-anchor="start" x="202.5" y="-371.2" font-family="Helvetica,sans-Serif" font-size="11.00">gebruiker</text>
<polygon fill="none" stroke="black" points="311.5,-363 311.5,-385 447.5,-385 447.5,-363 311.5,-363"/>
<text text-anchor="start" x="314.5" y="-371.2" font-family="Helvetica,sans-Serif" font-size="11.00">varchar[255]</text>
<polygon fill="#ffffff" stroke="transparent" points="182.5,-341 182.5,-363 311.5,-363 311.5,-341 182.5,-341"/>
<polygon fill="none" stroke="black" points="182.5,-341 182.5,-363 311.5,-363 311.5,-341 182.5,-341"/>
<text text-anchor="start" x="202.5" y="-349.2" font-family="Helvetica,sans-Serif" font-size="11.00">revisie_frequentie</text>
<polygon fill="none" stroke="black" points="311.5,-341 311.5,-363 447.5,-363 447.5,-341 311.5,-341"/>
<text text-anchor="start" x="314.5" y="-349.2" font-family="Helvetica,sans-Serif" font-size="11.00">int2[5]</text>
<polygon fill="none" stroke="black" points="182.5,-319 182.5,-341 311.5,-341 311.5,-319 182.5,-319"/>
<text text-anchor="start" x="202.5" y="-327.2" font-family="Helvetica,sans-Serif" font-size="11.00">formelenaam</text>
<polygon fill="none" stroke="black" points="311.5,-319 311.5,-341 447.5,-341 447.5,-319 311.5,-319"/>
<text text-anchor="start" x="314.5" y="-327.2" font-family="Helvetica,sans-Serif" font-size="11.00">text[2147483647]</text>
<polygon fill="none" stroke="black" points="182.5,-297 182.5,-319 311.5,-319 311.5,-297 182.5,-297"/>
<text text-anchor="start" x="202.5" y="-305.2" font-family="Helvetica,sans-Serif" font-size="11.00">code</text>
<polygon fill="none" stroke="black" points="311.5,-297 311.5,-319 447.5,-319 447.5,-297 311.5,-297"/>
<text text-anchor="start" x="314.5" y="-305.2" font-family="Helvetica,sans-Serif" font-size="11.00">text[2147483647]</text>
<polygon fill="none" stroke="black" points="182.5,-275 182.5,-297 311.5,-297 311.5,-275 182.5,-275"/>
<text text-anchor="start" x="202.5" y="-283.2" font-family="Helvetica,sans-Serif" font-size="11.00">adres</text>
<polygon fill="none" stroke="black" points="311.5,-275 311.5,-297 447.5,-297 447.5,-275 311.5,-275"/>
<text text-anchor="start" x="314.5" y="-283.2" font-family="Helvetica,sans-Serif" font-size="11.00">text[2147483647]</text>
<polygon fill="none" stroke="black" points="182.5,-253 182.5,-275 311.5,-275 311.5,-253 182.5,-253"/>
<text text-anchor="start" x="202.5" y="-261.2" font-family="Helvetica,sans-Serif" font-size="11.00">bijzonderheden</text>
<polygon fill="none" stroke="black" points="311.5,-253 311.5,-275 447.5,-275 447.5,-253 311.5,-253"/>
<text text-anchor="start" x="314.5" y="-261.2" font-family="Helvetica,sans-Serif" font-size="11.00">text[2147483647]</text>
<polygon fill="none" stroke="black" points="182.5,-231 182.5,-253 311.5,-253 311.5,-231 182.5,-231"/>
<text text-anchor="start" x="202.5" y="-239.2" font-family="Helvetica,sans-Serif" font-size="11.00">plusinfo</text>
<polygon fill="none" stroke="black" points="311.5,-231 311.5,-253 447.5,-253 447.5,-231 311.5,-231"/>
<text text-anchor="start" x="314.5" y="-239.2" font-family="Helvetica,sans-Serif" font-size="11.00">jsonb[2147483647]</text>
<polygon fill="#ffffff" stroke="transparent" points="182.5,-209 182.5,-231 311.5,-231 311.5,-209 182.5,-209"/>
<polygon fill="none" stroke="black" points="182.5,-209 182.5,-231 311.5,-231 311.5,-209 182.5,-209"/>
<image xlink:href="../../images/foreignKeys.png" width="11px" height="12px" preserveAspectRatio="xMinYMin meet" x="187.5" y="-226"/>
<text text-anchor="start" x="202.5" y="-217.2" font-family="Helvetica,sans-Serif" font-size="11.00">fase_id</text>
<polygon fill="none" stroke="black" points="311.5,-209 311.5,-231 447.5,-231 447.5,-209 311.5,-209"/>
<text text-anchor="start" x="314.5" y="-217.2" font-family="Helvetica,sans-Serif" font-size="11.00">int2[5]</text>
<polygon fill="#ffffff" stroke="transparent" points="182.5,-187 182.5,-209 311.5,-209 311.5,-187 182.5,-187"/>
<polygon fill="none" stroke="black" points="182.5,-187 182.5,-209 311.5,-209 311.5,-187 182.5,-187"/>
<image xlink:href="../../images/foreignKeys.png" width="11px" height="12px" preserveAspectRatio="xMinYMin meet" x="187.5" y="-204"/>
<text text-anchor="start" x="202.5" y="-195.2" font-family="Helvetica,sans-Serif" font-size="11.00">object_type_id</text>
<polygon fill="none" stroke="black" points="311.5,-187 311.5,-209 447.5,-209 447.5,-187 311.5,-187"/>
<text text-anchor="start" x="314.5" y="-195.2" font-family="Helvetica,sans-Serif" font-size="11.00">int2[5]</text>
<polygon fill="none" stroke="black" points="182.5,-165 182.5,-187 311.5,-187 311.5,-165 182.5,-165"/>
<text text-anchor="start" x="202.5" y="-173.2" font-family="Helvetica,sans-Serif" font-size="11.00">beheerder</text>
<polygon fill="none" stroke="black" points="311.5,-165 311.5,-187 447.5,-187 447.5,-165 311.5,-165"/>
<text text-anchor="start" x="314.5" y="-173.2" font-family="Helvetica,sans-Serif" font-size="11.00">text[2147483647]</text>
<polygon fill="#ffffff" stroke="transparent" points="182.5,-147 182.5,-165 252.5,-165 252.5,-147 182.5,-147"/>
<polygon fill="none" stroke="black" points="182.5,-147 182.5,-165 252.5,-165 252.5,-147 182.5,-147"/>
<text text-anchor="start" x="185.5" y="-153.2" font-family="Helvetica,sans-Serif" font-size="11.00">&lt; 2</text>
<polygon fill="#ffffff" stroke="transparent" points="252.5,-147 252.5,-165 311.5,-165 311.5,-147 252.5,-147"/>
<polygon fill="none" stroke="black" points="252.5,-147 252.5,-165 311.5,-165 311.5,-147 252.5,-147"/>
<text text-anchor="start" x="300.5" y="-153.2" font-family="Helvetica,sans-Serif" font-size="11.00"> &#160;</text>
<polygon fill="#ffffff" stroke="transparent" points="311.5,-147 311.5,-165 447.5,-165 447.5,-147 311.5,-147"/>
<polygon fill="none" stroke="black" points="311.5,-147 311.5,-165 447.5,-165 447.5,-147 311.5,-147"/>
<text text-anchor="start" x="424.5" y="-153.2" font-family="Helvetica,sans-Serif" font-size="11.00">5 &gt;</text>
<polygon fill="none" stroke="black" stroke-width="2" points="181,-146 181,-474 448,-474 448,-146 181,-146"/>
</a>
</g>
</g>
<!-- bereikbaarheid&#45;&gt;object -->
<g id="edge1" class="edge">
<title>bereikbaarheid:w&#45;&gt;object:e</title>
<path fill="none" stroke="black" d="M483.86,-769.02C436.17,-727.47 518.1,-440 448.5,-440"/>
<polygon fill="black" stroke="black" points="489.99,-771.26 496.27,-777.38 493.74,-772.63 497.5,-774 497.5,-774 497.5,-774 493.74,-772.63 498.73,-770.62 489.99,-771.26 489.99,-771.26"/>
<ellipse fill="none" stroke="black" cx="486.98" cy="-770.16" rx="3.2" ry="3.2"/>
</g>
<!-- roi.fase -->
<g id="node5" class="node">
<title>roi.fase</title>
<g id="a_node5"><a xlink:href="../../../roi/tables/fase.html" xlink:title="roi.fase" target="_top">
<polygon fill="#ffffff" stroke="transparent" points="20,-222 20,-280 119,-280 119,-222 20,-222"/>
<polygon fill="#f5f5f5" stroke="transparent" points="20.5,-258 20.5,-280 119.5,-280 119.5,-258 20.5,-258"/>
<polygon fill="none" stroke="black" points="20.5,-258 20.5,-280 119.5,-280 119.5,-258 20.5,-258"/>
<text text-anchor="start" x="25.5" y="-267.2" font-family="Helvetica,sans-Serif" font-weight="bold" font-size="11.00">roi.fase</text>
<text text-anchor="start" x="77.5" y="-266.2" font-family="Helvetica,sans-Serif" font-size="11.00">[table]</text>
<polygon fill="none" stroke="black" points="20.5,-240 20.5,-258 119.5,-258 119.5,-240 20.5,-240"/>
<text text-anchor="start" x="23.5" y="-246.2" font-family="Helvetica,sans-Serif" font-size="11.00">...</text>
<polygon fill="#ffffff" stroke="transparent" points="20.5,-222 20.5,-240 56.5,-240 56.5,-222 20.5,-222"/>
<polygon fill="none" stroke="black" points="20.5,-222 20.5,-240 56.5,-240 56.5,-222 20.5,-222"/>
<text text-anchor="start" x="23.5" y="-228.2" font-family="Helvetica,sans-Serif" font-size="11.00"> &#160;</text>
<polygon fill="#ffffff" stroke="transparent" points="56.5,-222 56.5,-240 81.5,-240 81.5,-222 56.5,-222"/>
<polygon fill="none" stroke="black" points="56.5,-222 56.5,-240 81.5,-240 81.5,-222 56.5,-222"/>
<text text-anchor="start" x="70.5" y="-228.2" font-family="Helvetica,sans-Serif" font-size="11.00"> &#160;</text>
<polygon fill="#ffffff" stroke="transparent" points="81.5,-222 81.5,-240 119.5,-240 119.5,-222 81.5,-222"/>
<polygon fill="none" stroke="black" points="81.5,-222 81.5,-240 119.5,-240 119.5,-222 81.5,-222"/>
<text text-anchor="start" x="96.5" y="-228.2" font-family="Helvetica,sans-Serif" font-size="11.00">1 &gt;</text>
</a>
</g>
</g>
<!-- object&#45;&gt;roi.fase -->
<g id="edge4" class="edge">
<title>object:w&#45;&gt;roi.fase:e</title>
<path fill="none" stroke="black" d="M166.98,-220.76C153.5,-222.12 139.87,-225.15 127.27,-228.8"/>
<polygon fill="black" stroke="black" points="173.51,-220.42 181.69,-223.6 177.51,-220.21 181.5,-220 181.5,-220 181.5,-220 177.51,-220.21 181.31,-216.4 173.51,-220.42 173.51,-220.42"/>
<ellipse fill="none" stroke="black" cx="170.32" cy="-220.59" rx="3.2" ry="3.2"/>
</g>
<!-- object_type -->
<g id="node6" class="node">
<title>object_type</title>
<g id="a_node6"><a xlink:href="../../tables/object_type.html" xlink:title="object_type" target="_top">
<polygon fill="#ffffff" stroke="transparent" points="8,-121 8,-201 131,-201 131,-121 8,-121"/>
<polygon fill="#f5f5f5" stroke="transparent" points="8.5,-179 8.5,-201 131.5,-201 131.5,-179 8.5,-179"/>
<polygon fill="none" stroke="black" points="8.5,-179 8.5,-201 131.5,-201 131.5,-179 8.5,-179"/>
<text text-anchor="start" x="13.5" y="-188.2" font-family="Helvetica,sans-Serif" font-weight="bold" font-size="11.00">object_type</text>
<text text-anchor="start" x="89.5" y="-187.2" font-family="Helvetica,sans-Serif" font-size="11.00">[table]</text>
<polygon fill="none" stroke="black" points="8.5,-157 8.5,-179 131.5,-179 131.5,-157 8.5,-157"/>
<image xlink:href="../../images/primaryKeys.png" width="11px" height="12px" preserveAspectRatio="xMinYMin meet" x="13.5" y="-174"/>
<text text-anchor="start" x="41.5" y="-165.2" font-family="Helvetica,sans-Serif" font-size="11.00">id</text>
<polygon fill="none" stroke="black" points="8.5,-139 8.5,-157 131.5,-157 131.5,-139 8.5,-139"/>
<text text-anchor="start" x="11.5" y="-145.2" font-family="Helvetica,sans-Serif" font-size="11.00">...</text>
<polygon fill="#ffffff" stroke="transparent" points="8.5,-121 8.5,-139 56.5,-139 56.5,-121 8.5,-121"/>
<polygon fill="none" stroke="black" points="8.5,-121 8.5,-139 56.5,-139 56.5,-121 8.5,-121"/>
<text text-anchor="start" x="11.5" y="-127.2" font-family="Helvetica,sans-Serif" font-size="11.00"> &#160;</text>
<polygon fill="#ffffff" stroke="transparent" points="56.5,-121 56.5,-139 87.5,-139 87.5,-121 56.5,-121"/>
<polygon fill="none" stroke="black" points="56.5,-121 56.5,-139 87.5,-139 87.5,-121 56.5,-121"/>
<text text-anchor="start" x="76.5" y="-127.2" font-family="Helvetica,sans-Serif" font-size="11.00"> &#160;</text>
<polygon fill="#ffffff" stroke="transparent" points="87.5,-121 87.5,-139 131.5,-139 131.5,-121 87.5,-121"/>
<polygon fill="none" stroke="black" points="87.5,-121 87.5,-139 131.5,-139 131.5,-121 87.5,-121"/>
<text text-anchor="start" x="108.5" y="-127.2" font-family="Helvetica,sans-Serif" font-size="11.00">1 &gt;</text>
</a>
</g>
</g>
<!-- object&#45;&gt;object_type -->
<g id="edge5" class="edge">
<title>object:w&#45;&gt;object_type:e</title>
<path fill="none" stroke="black" d="M167.38,-193.83C155.42,-185.59 152.05,-168 132.5,-168"/>
<polygon fill="black" stroke="black" points="173.83,-195.73 180.48,-201.45 177.66,-196.87 181.5,-198 181.5,-198 181.5,-198 177.66,-196.87 182.52,-194.55 173.83,-195.73 173.83,-195.73"/>
<ellipse fill="none" stroke="black" cx="170.76" cy="-194.83" rx="3.2" ry="3.2"/>
</g>
<!-- label -->
<g id="node3" class="node">
<title>label</title>
<g id="a_node3"><a xlink:href="../../tables/label.html" xlink:title="label" target="_top">
<polygon fill="#ffffff" stroke="transparent" points="513.5,-538 513.5,-684 627.5,-684 627.5,-538 513.5,-538"/>
<polygon fill="#f5f5f5" stroke="transparent" points="513.5,-662 513.5,-684 627.5,-684 627.5,-662 513.5,-662"/>
<polygon fill="none" stroke="black" points="513.5,-662 513.5,-684 627.5,-684 627.5,-662 513.5,-662"/>
<text text-anchor="start" x="518.5" y="-671.2" font-family="Helvetica,sans-Serif" font-weight="bold" font-size="11.00">label</text>
<text text-anchor="start" x="585.5" y="-670.2" font-family="Helvetica,sans-Serif" font-size="11.00">[table]</text>
<polygon fill="none" stroke="black" points="513.5,-640 513.5,-662 627.5,-662 627.5,-640 513.5,-640"/>
<image xlink:href="../../images/primaryKeys.png" width="11px" height="12px" preserveAspectRatio="xMinYMin meet" x="518.5" y="-657"/>
<text text-anchor="start" x="533.5" y="-648.2" font-family="Helvetica,sans-Serif" font-size="11.00">uuid</text>
<polygon fill="#ffffff" stroke="transparent" points="513.5,-618 513.5,-640 627.5,-640 627.5,-618 513.5,-618"/>
<polygon fill="none" stroke="black" points="513.5,-618 513.5,-640 627.5,-640 627.5,-618 513.5,-618"/>
<text text-anchor="start" x="533.5" y="-626.2" font-family="Helvetica,sans-Serif" font-size="11.00">geom</text>
<polygon fill="#ffffff" stroke="transparent" points="513.5,-596 513.5,-618 627.5,-618 627.5,-596 513.5,-596"/>
<polygon fill="none" stroke="black" points="513.5,-596 513.5,-618 627.5,-618 627.5,-596 513.5,-596"/>
<image xlink:href="../../images/foreignKeys.png" width="11px" height="12px" preserveAspectRatio="xMinYMin meet" x="518.5" y="-613"/>
<text text-anchor="start" x="533.5" y="-604.2" font-family="Helvetica,sans-Serif" font-size="11.00">object_uuid</text>
<polygon fill="none" stroke="black" points="513.5,-574 513.5,-596 627.5,-596 627.5,-574 513.5,-574"/>
<image xlink:href="../../images/foreignKeys.png" width="11px" height="12px" preserveAspectRatio="xMinYMin meet" x="518.5" y="-591"/>
<text text-anchor="start" x="533.5" y="-582.2" font-family="Helvetica,sans-Serif" font-size="11.00">annotatie_id</text>
<polygon fill="none" stroke="black" points="513.5,-556 513.5,-574 627.5,-574 627.5,-556 513.5,-556"/>
<text text-anchor="start" x="516.5" y="-562.2" font-family="Helvetica,sans-Serif" font-size="11.00">...</text>
<polygon fill="#ffffff" stroke="transparent" points="513.5,-538 513.5,-556 569.5,-556 569.5,-538 513.5,-538"/>
<polygon fill="none" stroke="black" points="513.5,-538 513.5,-556 569.5,-556 569.5,-538 513.5,-538"/>
<text text-anchor="start" x="516.5" y="-544.2" font-family="Helvetica,sans-Serif" font-size="11.00">&lt; 2</text>
<polygon fill="#ffffff" stroke="transparent" points="569.5,-538 569.5,-556 598.5,-556 598.5,-538 569.5,-538"/>
<polygon fill="none" stroke="black" points="569.5,-538 569.5,-556 598.5,-556 598.5,-538 569.5,-538"/>
<text text-anchor="start" x="587.5" y="-544.2" font-family="Helvetica,sans-Serif" font-size="11.00"> &#160;</text>
<polygon fill="#ffffff" stroke="transparent" points="598.5,-538 598.5,-556 627.5,-556 627.5,-538 598.5,-538"/>
<polygon fill="none" stroke="black" points="598.5,-538 598.5,-556 627.5,-556 627.5,-538 598.5,-538"/>
<text text-anchor="start" x="616.5" y="-544.2" font-family="Helvetica,sans-Serif" font-size="11.00"> &#160;</text>
</a>
</g>
</g>
<!-- label&#45;&gt;object -->
<g id="edge2" class="edge">
<title>label:w&#45;&gt;object:e</title>
<path fill="none" stroke="black" d="M498.2,-604.64C445.51,-584.34 522.4,-440 448.5,-440"/>
<polygon fill="black" stroke="black" points="504.61,-605.7 511.91,-610.55 508.55,-606.35 512.5,-607 512.5,-607 512.5,-607 508.55,-606.35 513.09,-603.45 504.61,-605.7 504.61,-605.7"/>
<ellipse fill="none" stroke="black" cx="501.45" cy="-605.18" rx="3.2" ry="3.2"/>
</g>
<!-- maatregel -->
<g id="node4" class="node">
<title>maatregel</title>
<g id="a_node4"><a xlink:href="../../tables/maatregel.html" xlink:title="maatregel" target="_top">
<polygon fill="#ffffff" stroke="transparent" points="505,-371 505,-517 636,-517 636,-371 505,-371"/>
<polygon fill="#f5f5f5" stroke="transparent" points="505.5,-495 505.5,-517 636.5,-517 636.5,-495 505.5,-495"/>
<polygon fill="none" stroke="black" points="505.5,-495 505.5,-517 636.5,-517 636.5,-495 505.5,-495"/>
<text text-anchor="start" x="510.5" y="-504.2" font-family="Helvetica,sans-Serif" font-weight="bold" font-size="11.00">maatregel</text>
<text text-anchor="start" x="594.5" y="-503.2" font-family="Helvetica,sans-Serif" font-size="11.00">[table]</text>
<polygon fill="none" stroke="black" points="505.5,-473 505.5,-495 636.5,-495 636.5,-473 505.5,-473"/>
<image xlink:href="../../images/primaryKeys.png" width="11px" height="12px" preserveAspectRatio="xMinYMin meet" x="510.5" y="-490"/>
<text text-anchor="start" x="525.5" y="-481.2" font-family="Helvetica,sans-Serif" font-size="11.00">uuid</text>
<polygon fill="#ffffff" stroke="transparent" points="505.5,-451 505.5,-473 636.5,-473 636.5,-451 505.5,-451"/>
<polygon fill="none" stroke="black" points="505.5,-451 505.5,-473 636.5,-473 636.5,-451 505.5,-451"/>
<text text-anchor="start" x="525.5" y="-459.2" font-family="Helvetica,sans-Serif" font-size="11.00">geom</text>
<polygon fill="#ffffff" stroke="transparent" points="505.5,-429 505.5,-451 636.5,-451 636.5,-429 505.5,-429"/>
<polygon fill="none" stroke="black" points="505.5,-429 505.5,-451 636.5,-451 636.5,-429 505.5,-429"/>
<image xlink:href="../../images/foreignKeys.png" width="11px" height="12px" preserveAspectRatio="xMinYMin meet" x="510.5" y="-446"/>
<text text-anchor="start" x="525.5" y="-437.2" font-family="Helvetica,sans-Serif" font-size="11.00">object_uuid</text>
<polygon fill="none" stroke="black" points="505.5,-407 505.5,-429 636.5,-429 636.5,-407 505.5,-407"/>
<image xlink:href="../../images/foreignKeys.png" width="11px" height="12px" preserveAspectRatio="xMinYMin meet" x="510.5" y="-424"/>
<text text-anchor="start" x="525.5" y="-415.2" font-family="Helvetica,sans-Serif" font-size="11.00">maatregel_type_id</text>
<polygon fill="none" stroke="black" points="505.5,-389 505.5,-407 636.5,-407 636.5,-389 505.5,-389"/>
<text text-anchor="start" x="508.5" y="-395.2" font-family="Helvetica,sans-Serif" font-size="11.00">...</text>
<polygon fill="#ffffff" stroke="transparent" points="505.5,-371 505.5,-389 569.5,-389 569.5,-371 505.5,-371"/>
<polygon fill="none" stroke="black" points="505.5,-371 505.5,-389 569.5,-389 569.5,-371 505.5,-371"/>
<text text-anchor="start" x="508.5" y="-377.2" font-family="Helvetica,sans-Serif" font-size="11.00">&lt; 2</text>
<polygon fill="#ffffff" stroke="transparent" points="569.5,-371 569.5,-389 602.5,-389 602.5,-371 569.5,-371"/>
<polygon fill="none" stroke="black" points="569.5,-371 569.5,-389 602.5,-389 602.5,-371 569.5,-371"/>
<text text-anchor="start" x="591.5" y="-377.2" font-family="Helvetica,sans-Serif" font-size="11.00"> &#160;</text>
<polygon fill="#ffffff" stroke="transparent" points="602.5,-371 602.5,-389 636.5,-389 636.5,-371 602.5,-371"/>
<polygon fill="none" stroke="black" points="602.5,-371 602.5,-389 636.5,-389 636.5,-371 602.5,-371"/>
<text text-anchor="start" x="625.5" y="-377.2" font-family="Helvetica,sans-Serif" font-size="11.00"> &#160;</text>
</a>
</g>
</g>
<!-- maatregel&#45;&gt;object -->
<g id="edge3" class="edge">
<title>maatregel:w&#45;&gt;object:e</title>
<path fill="none" stroke="black" d="M490.02,-440C475.83,-440 467.75,-440 448.5,-440"/>
<polygon fill="black" stroke="black" points="496.5,-440 504.5,-443.6 500.5,-440 504.5,-440 504.5,-440 504.5,-440 500.5,-440 504.5,-436.4 496.5,-440 496.5,-440"/>
<ellipse fill="none" stroke="black" cx="493.3" cy="-440" rx="3.2" ry="3.2"/>
</g>
<!-- sector -->
<g id="node7" class="node">
<title>sector</title>
<g id="a_node7"><a xlink:href="../../tables/sector.html" xlink:title="sector" target="_top">
<polygon fill="#ffffff" stroke="transparent" points="513.5,-204 513.5,-350 627.5,-350 627.5,-204 513.5,-204"/>
<polygon fill="#f5f5f5" stroke="transparent" points="513.5,-328 513.5,-350 627.5,-350 627.5,-328 513.5,-328"/>
<polygon fill="none" stroke="black" points="513.5,-328 513.5,-350 627.5,-350 627.5,-328 513.5,-328"/>
<text text-anchor="start" x="518.5" y="-337.2" font-family="Helvetica,sans-Serif" font-weight="bold" font-size="11.00">sector</text>
<text text-anchor="start" x="585.5" y="-336.2" font-family="Helvetica,sans-Serif" font-size="11.00">[table]</text>
<polygon fill="none" stroke="black" points="513.5,-306 513.5,-328 627.5,-328 627.5,-306 513.5,-306"/>
<image xlink:href="../../images/primaryKeys.png" width="11px" height="12px" preserveAspectRatio="xMinYMin meet" x="518.5" y="-323"/>
<text text-anchor="start" x="533.5" y="-314.2" font-family="Helvetica,sans-Serif" font-size="11.00">uuid</text>
<polygon fill="#ffffff" stroke="transparent" points="513.5,-284 513.5,-306 627.5,-306 627.5,-284 513.5,-284"/>
<polygon fill="none" stroke="black" points="513.5,-284 513.5,-306 627.5,-306 627.5,-284 513.5,-284"/>
<text text-anchor="start" x="533.5" y="-292.2" font-family="Helvetica,sans-Serif" font-size="11.00">geom</text>
<polygon fill="#ffffff" stroke="transparent" points="513.5,-262 513.5,-284 627.5,-284 627.5,-262 513.5,-262"/>
<polygon fill="none" stroke="black" points="513.5,-262 513.5,-284 627.5,-284 627.5,-262 513.5,-262"/>
<image xlink:href="../../images/foreignKeys.png" width="11px" height="12px" preserveAspectRatio="xMinYMin meet" x="518.5" y="-279"/>
<text text-anchor="start" x="533.5" y="-270.2" font-family="Helvetica,sans-Serif" font-size="11.00">object_uuid</text>
<polygon fill="none" stroke="black" points="513.5,-240 513.5,-262 627.5,-262 627.5,-240 513.5,-240"/>
<image xlink:href="../../images/foreignKeys.png" width="11px" height="12px" preserveAspectRatio="xMinYMin meet" x="518.5" y="-257"/>
<text text-anchor="start" x="533.5" y="-248.2" font-family="Helvetica,sans-Serif" font-size="11.00">zone_id</text>
<polygon fill="none" stroke="black" points="513.5,-222 513.5,-240 627.5,-240 627.5,-222 513.5,-222"/>
<text text-anchor="start" x="516.5" y="-228.2" font-family="Helvetica,sans-Serif" font-size="11.00">...</text>
<polygon fill="#ffffff" stroke="transparent" points="513.5,-204 513.5,-222 569.5,-222 569.5,-204 513.5,-204"/>
<polygon fill="none" stroke="black" points="513.5,-204 513.5,-222 569.5,-222 569.5,-204 513.5,-204"/>
<text text-anchor="start" x="516.5" y="-210.2" font-family="Helvetica,sans-Serif" font-size="11.00">&lt; 2</text>
<polygon fill="#ffffff" stroke="transparent" points="569.5,-204 569.5,-222 598.5,-222 598.5,-204 569.5,-204"/>
<polygon fill="none" stroke="black" points="569.5,-204 569.5,-222 598.5,-222 598.5,-204 569.5,-204"/>
<text text-anchor="start" x="587.5" y="-210.2" font-family="Helvetica,sans-Serif" font-size="11.00"> &#160;</text>
<polygon fill="#ffffff" stroke="transparent" points="598.5,-204 598.5,-222 627.5,-222 627.5,-204 598.5,-204"/>
<polygon fill="none" stroke="black" points="598.5,-204 598.5,-222 627.5,-222 627.5,-204 598.5,-204"/>
<text text-anchor="start" x="616.5" y="-210.2" font-family="Helvetica,sans-Serif" font-size="11.00"> &#160;</text>
</a>
</g>
</g>
<!-- sector&#45;&gt;object -->
<g id="edge6" class="edge">
<title>sector:w&#45;&gt;object:e</title>
<path fill="none" stroke="black" d="M498.2,-275.36C445.51,-295.66 522.4,-440 448.5,-440"/>
<polygon fill="black" stroke="black" points="504.61,-274.3 513.09,-276.55 508.55,-273.65 512.5,-273 512.5,-273 512.5,-273 508.55,-273.65 511.91,-269.45 504.61,-274.3 504.61,-274.3"/>
<ellipse fill="none" stroke="black" cx="501.45" cy="-274.82" rx="3.2" ry="3.2"/>
</g>
<!-- voorziening -->
<g id="node8" class="node">
<title>voorziening</title>
<g id="a_node8"><a xlink:href="../../tables/voorziening.html" xlink:title="voorziening" target="_top">
<polygon fill="#ffffff" stroke="transparent" points="508.5,-37 508.5,-183 632.5,-183 632.5,-37 508.5,-37"/>
<polygon fill="#f5f5f5" stroke="transparent" points="508.5,-161 508.5,-183 632.5,-183 632.5,-161 508.5,-161"/>
<polygon fill="none" stroke="black" points="508.5,-161 508.5,-183 632.5,-183 632.5,-161 508.5,-161"/>
<text text-anchor="start" x="513.5" y="-170.2" font-family="Helvetica,sans-Serif" font-weight="bold" font-size="11.00">voorziening</text>
<text text-anchor="start" x="590.5" y="-169.2" font-family="Helvetica,sans-Serif" font-size="11.00">[table]</text>
<polygon fill="none" stroke="black" points="508.5,-139 508.5,-161 632.5,-161 632.5,-139 508.5,-139"/>
<image xlink:href="../../images/primaryKeys.png" width="11px" height="12px" preserveAspectRatio="xMinYMin meet" x="513.5" y="-156"/>
<text text-anchor="start" x="533.5" y="-147.2" font-family="Helvetica,sans-Serif" font-size="11.00">uuid</text>
<polygon fill="#ffffff" stroke="transparent" points="508.5,-117 508.5,-139 632.5,-139 632.5,-117 508.5,-117"/>
<polygon fill="none" stroke="black" points="508.5,-117 508.5,-139 632.5,-139 632.5,-117 508.5,-117"/>
<text text-anchor="start" x="533.5" y="-125.2" font-family="Helvetica,sans-Serif" font-size="11.00">geom</text>
<polygon fill="#ffffff" stroke="transparent" points="508.5,-95 508.5,-117 632.5,-117 632.5,-95 508.5,-95"/>
<polygon fill="none" stroke="black" points="508.5,-95 508.5,-117 632.5,-117 632.5,-95 508.5,-95"/>
<image xlink:href="../../images/foreignKeys.png" width="11px" height="12px" preserveAspectRatio="xMinYMin meet" x="513.5" y="-112"/>
<text text-anchor="start" x="533.5" y="-103.2" font-family="Helvetica,sans-Serif" font-size="11.00">object_uuid</text>
<polygon fill="none" stroke="black" points="508.5,-73 508.5,-95 632.5,-95 632.5,-73 508.5,-73"/>
<image xlink:href="../../images/foreignKeys.png" width="11px" height="12px" preserveAspectRatio="xMinYMin meet" x="513.5" y="-90"/>
<text text-anchor="start" x="533.5" y="-81.2" font-family="Helvetica,sans-Serif" font-size="11.00">symbool_id</text>
<polygon fill="none" stroke="black" points="508.5,-55 508.5,-73 632.5,-73 632.5,-55 508.5,-55"/>
<text text-anchor="start" x="511.5" y="-61.2" font-family="Helvetica,sans-Serif" font-size="11.00">...</text>
<polygon fill="#ffffff" stroke="transparent" points="508.5,-37 508.5,-55 569.5,-55 569.5,-37 508.5,-37"/>
<polygon fill="none" stroke="black" points="508.5,-37 508.5,-55 569.5,-55 569.5,-37 508.5,-37"/>
<text text-anchor="start" x="511.5" y="-43.2" font-family="Helvetica,sans-Serif" font-size="11.00">&lt; 2</text>
<polygon fill="#ffffff" stroke="transparent" points="569.5,-37 569.5,-55 600.5,-55 600.5,-37 569.5,-37"/>
<polygon fill="none" stroke="black" points="569.5,-37 569.5,-55 600.5,-55 600.5,-37 569.5,-37"/>
<text text-anchor="start" x="589.5" y="-43.2" font-family="Helvetica,sans-Serif" font-size="11.00"> &#160;</text>
<polygon fill="#ffffff" stroke="transparent" points="600.5,-37 600.5,-55 632.5,-55 632.5,-37 600.5,-37"/>
<polygon fill="none" stroke="black" points="600.5,-37 600.5,-55 632.5,-55 632.5,-37 600.5,-37"/>
<text text-anchor="start" x="621.5" y="-43.2" font-family="Helvetica,sans-Serif" font-size="11.00"> &#160;</text>
</a>
</g>
</g>
<!-- voorziening&#45;&gt;object -->
<g id="edge7" class="edge">
<title>voorziening:w&#45;&gt;object:e</title>
<path fill="none" stroke="black" d="M493.65,-110.98C444.52,-152.53 518.42,-440 448.5,-440"/>
<polygon fill="black" stroke="black" points="499.97,-108.71 508.72,-109.39 503.74,-107.35 507.5,-106 507.5,-106 507.5,-106 503.74,-107.35 506.28,-102.61 499.97,-108.71 499.97,-108.71"/>
<ellipse fill="none" stroke="black" cx="496.96" cy="-109.79" rx="3.2" ry="3.2"/>
</g>
</g>
</svg>
