<?xml version="1.0" encoding="UTF-8" standalone="no"?>
<!DOCTYPE svg PUBLIC "-//W3C//DTD SVG 1.1//EN"
 "http://www.w3.org/Graphics/SVG/1.1/DTD/svg11.dtd">
<!-- Generated by graphviz version 2.40.1 (20161225.0304)
 -->
<!-- Title: oneDegreeRelationshipsDiagram Pages: 1 -->
<svg width="385pt" height="249pt"
 viewBox="0.00 0.00 385.00 248.70" xmlns="http://www.w3.org/2000/svg" xmlns:xlink="http://www.w3.org/1999/xlink">
<g id="graph0" class="graph" transform="scale(1 1) rotate(0) translate(4 244.7)">
<title>oneDegreeRelationshipsDiagram</title>
<polygon fill="#ffffff" stroke="transparent" points="-4,4 -4,-244.7 381,-244.7 381,4 -4,4"/>
<text text-anchor="middle" x="72.4936" y="-7.3" font-family="Helvetica,sans-Serif" font-size="11.00" fill="#000000">Generated by SchemaSpy</text>
<!-- object -->
<g id="node1" class="node">
<title>object</title>
<g id="a_node1"><a xlink:href="../../tables/object.html" xlink:title="object" target="_top">
<polygon fill="#ffffff" stroke="transparent" points="246,-65.7 246,-236.7 369,-236.7 369,-65.7 246,-65.7"/>
<polygon fill="#f5f5f5" stroke="transparent" points="246.5,-213.2 246.5,-236.2 369.5,-236.2 369.5,-213.2 246.5,-213.2"/>
<polygon fill="none" stroke="#000000" points="246.5,-213.2 246.5,-236.2 369.5,-236.2 369.5,-213.2 246.5,-213.2"/>
<text text-anchor="start" x="251.5" y="-221.8" font-family="Helvetica,sans-Serif" font-weight="bold" font-size="11.00" fill="#000000">object</text>
<text text-anchor="start" x="334.5437" y="-221.3" font-family="Helvetica,sans-Serif" font-size="11.00" fill="#000000">[table]</text>
<polygon fill="none" stroke="#000000" points="246.5,-191.2 246.5,-213.2 369.5,-213.2 369.5,-191.2 246.5,-191.2"/>
<image xlink:href="../../images/primaryKeys.png" width="11px" height="12px" preserveAspectRatio="xMinYMin meet" x="251.5" y="-208.2"/>
<text text-anchor="start" x="266.5" y="-198.3" font-family="Helvetica,sans-Serif" font-size="11.00" fill="#000000">uuid</text>
<polygon fill="#ffffff" stroke="transparent" points="246.5,-169.2 246.5,-191.2 369.5,-191.2 369.5,-169.2 246.5,-169.2"/>
<polygon fill="none" stroke="#000000" points="246.5,-169.2 246.5,-191.2 369.5,-191.2 369.5,-169.2 246.5,-169.2"/>
<text text-anchor="start" x="266.5" y="-176.3" font-family="Helvetica,sans-Serif" font-size="11.00" fill="#000000">geom</text>
<polygon fill="#ffffff" stroke="transparent" points="246.5,-147.2 246.5,-169.2 369.5,-169.2 369.5,-147.2 246.5,-147.2"/>
<polygon fill="none" stroke="#000000" points="246.5,-147.2 246.5,-169.2 369.5,-169.2 369.5,-147.2 246.5,-147.2"/>
<text text-anchor="start" x="266.5" y="-154.3" font-family="Helvetica,sans-Serif" font-size="11.00" fill="#000000">revisie_frequentie</text>
<polygon fill="#ffffff" stroke="transparent" points="246.5,-125.2 246.5,-147.2 369.5,-147.2 369.5,-125.2 246.5,-125.2"/>
<polygon fill="none" stroke="#000000" points="246.5,-125.2 246.5,-147.2 369.5,-147.2 369.5,-125.2 246.5,-125.2"/>
<image xlink:href="../../images/foreignKeys.png" width="11px" height="12px" preserveAspectRatio="xMinYMin meet" x="251.5" y="-142.2"/>
<text text-anchor="start" x="266.5" y="-132.3" font-family="Helvetica,sans-Serif" font-size="11.00" fill="#000000">fase_id</text>
<polygon fill="#ffffff" stroke="transparent" points="246.5,-103.2 246.5,-125.2 369.5,-125.2 369.5,-103.2 246.5,-103.2"/>
<polygon fill="none" stroke="#000000" points="246.5,-103.2 246.5,-125.2 369.5,-125.2 369.5,-103.2 246.5,-103.2"/>
<image xlink:href="../../images/foreignKeys.png" width="11px" height="12px" preserveAspectRatio="xMinYMin meet" x="251.5" y="-120.2"/>
<text text-anchor="start" x="266.5" y="-110.3" font-family="Helvetica,sans-Serif" font-size="11.00" fill="#000000">object_type_id</text>
<polygon fill="none" stroke="#000000" points="246.5,-84.2 246.5,-103.2 369.5,-103.2 369.5,-84.2 246.5,-84.2"/>
<text text-anchor="start" x="249.5" y="-90.3" font-family="Helvetica,sans-Serif" font-size="11.00" fill="#000000">...</text>
<polygon fill="#ffffff" stroke="transparent" points="246.5,-65.2 246.5,-84.2 301.5,-84.2 301.5,-65.2 246.5,-65.2"/>
<polygon fill="none" stroke="#000000" points="246.5,-65.2 246.5,-84.2 301.5,-84.2 301.5,-65.2 246.5,-65.2"/>
<text text-anchor="start" x="249.5" y="-71.3" font-family="Helvetica,sans-Serif" font-size="11.00" fill="#000000">&lt; 2</text>
<polygon fill="#ffffff" stroke="transparent" points="301.5,-65.2 301.5,-84.2 330.5,-84.2 330.5,-65.2 301.5,-65.2"/>
<polygon fill="none" stroke="#000000" points="301.5,-65.2 301.5,-84.2 330.5,-84.2 330.5,-65.2 301.5,-65.2"/>
<text text-anchor="start" x="321.3862" y="-71.3" font-family="Helvetica,sans-Serif" font-size="11.00" fill="#000000"> &#160;</text>
<polygon fill="#ffffff" stroke="transparent" points="330.5,-65.2 330.5,-84.2 369.5,-84.2 369.5,-65.2 330.5,-65.2"/>
<polygon fill="none" stroke="#000000" points="330.5,-65.2 330.5,-84.2 369.5,-84.2 369.5,-65.2 330.5,-65.2"/>
<text text-anchor="start" x="350.9053" y="-71.3" font-family="Helvetica,sans-Serif" font-size="11.00" fill="#000000">5 &gt;</text>
</a>
</g>
</g>
<!-- object_type -->
<g id="node2" class="node">
<title>object_type</title>
<g id="a_node2"><a xlink:href="../../tables/object_type.html" xlink:title="object_type" target="_top">
<polygon fill="#ffffff" stroke="transparent" points="8,-38.2 8,-150.2 197,-150.2 197,-38.2 8,-38.2"/>
<polygon fill="#f5f5f5" stroke="transparent" points="10.5,-125.2 10.5,-148.2 195.5,-148.2 195.5,-125.2 10.5,-125.2"/>
<polygon fill="none" stroke="#000000" points="10.5,-125.2 10.5,-148.2 195.5,-148.2 195.5,-125.2 10.5,-125.2"/>
<text text-anchor="start" x="15.5" y="-133.8" font-family="Helvetica,sans-Serif" font-weight="bold" font-size="11.00" fill="#000000">object_type</text>
<text text-anchor="start" x="160.5437" y="-133.3" font-family="Helvetica,sans-Serif" font-size="11.00" fill="#000000">[table]</text>
<polygon fill="none" stroke="#000000" points="10.5,-103.2 10.5,-125.2 105.5,-125.2 105.5,-103.2 10.5,-103.2"/>
<image xlink:href="../../images/primaryKeys.png" width="11px" height="12px" preserveAspectRatio="xMinYMin meet" x="15.5" y="-120.2"/>
<text text-anchor="start" x="30.5" y="-110.3" font-family="Helvetica,sans-Serif" font-size="11.00" fill="#000000">id</text>
<polygon fill="none" stroke="#000000" points="105.5,-103.2 105.5,-125.2 195.5,-125.2 195.5,-103.2 105.5,-103.2"/>
<text text-anchor="start" x="108.5" y="-110.9" font-family="Helvetica,sans-Serif" font-size="11.00" fill="#000000">int2[5]</text>
<polygon fill="none" stroke="#000000" points="10.5,-81.2 10.5,-103.2 105.5,-103.2 105.5,-81.2 10.5,-81.2"/>
<text text-anchor="start" x="30.5" y="-88.3" font-family="Helvetica,sans-Serif" font-size="11.00" fill="#000000">naam</text>
<polygon fill="none" stroke="#000000" points="105.5,-81.2 105.5,-103.2 195.5,-103.2 195.5,-81.2 105.5,-81.2"/>
<text text-anchor="start" x="108.0042" y="-88.9" font-family="Helvetica,sans-Serif" font-size="11.00" fill="#000000">text[2147483647]</text>
<polygon fill="none" stroke="#000000" points="10.5,-59.2 10.5,-81.2 105.5,-81.2 105.5,-59.2 10.5,-59.2"/>
<text text-anchor="start" x="30.5" y="-66.3" font-family="Helvetica,sans-Serif" font-size="11.00" fill="#000000">omschrijving</text>
<polygon fill="none" stroke="#000000" points="105.5,-59.2 105.5,-81.2 195.5,-81.2 195.5,-59.2 105.5,-59.2"/>
<text text-anchor="start" x="108.0042" y="-66.9" font-family="Helvetica,sans-Serif" font-size="11.00" fill="#000000">text[2147483647]</text>
<polygon fill="#ffffff" stroke="transparent" points="10.5,-40.2 10.5,-59.2 62.5,-59.2 62.5,-40.2 10.5,-40.2"/>
<polygon fill="none" stroke="#000000" points="10.5,-40.2 10.5,-59.2 62.5,-59.2 62.5,-40.2 10.5,-40.2"/>
<text text-anchor="start" x="13.5" y="-46.3" font-family="Helvetica,sans-Serif" font-size="11.00" fill="#000000">&lt; 0</text>
<polygon fill="#ffffff" stroke="transparent" points="62.5,-40.2 62.5,-59.2 105.5,-59.2 105.5,-40.2 62.5,-40.2"/>
<polygon fill="none" stroke="#000000" points="62.5,-40.2 62.5,-59.2 105.5,-59.2 105.5,-40.2 62.5,-40.2"/>
<text text-anchor="start" x="96.3862" y="-46.3" font-family="Helvetica,sans-Serif" font-size="11.00" fill="#000000"> &#160;</text>
<polygon fill="#ffffff" stroke="transparent" points="105.5,-40.2 105.5,-59.2 195.5,-59.2 195.5,-40.2 105.5,-40.2"/>
<polygon fill="none" stroke="#000000" points="105.5,-40.2 105.5,-59.2 195.5,-59.2 195.5,-40.2 105.5,-40.2"/>
<text text-anchor="start" x="176.9053" y="-46.3" font-family="Helvetica,sans-Serif" font-size="11.00" fill="#000000">1 &gt;</text>
<polygon fill="none" stroke="#000000" stroke-width="2" points="9,-39.2 9,-149.2 196,-149.2 196,-39.2 9,-39.2"/>
</a>
</g>
</g>
<!-- object&#45;&gt;object_type -->
<g id="edge1" class="edge">
<title>object:w&#45;&gt;object_type:e</title>
<path fill="none" stroke="#000000" d="M231.776,-114.2C219.7815,-114.2 212.3229,-114.2 195.5,-114.2"/>
<polygon fill="#000000" stroke="#000000" points="238.5,-114.2001 246.5,-117.8 242.5,-114.2 246.5,-114.2 246.5,-114.2 246.5,-114.2 242.5,-114.2 246.5,-110.6 238.5,-114.2001 238.5,-114.2001"/>
<ellipse fill="none" stroke="#000000" cx="235.3" cy="-114.2001" rx="3.2" ry="3.2"/>
</g>
</g>
</svg>
