<?xml version="1.0" encoding="UTF-8" standalone="no"?>
<!DOCTYPE svg PUBLIC "-//W3C//DTD SVG 1.1//EN"
 "http://www.w3.org/Graphics/SVG/1.1/DTD/svg11.dtd">
<!-- Generated by graphviz version 2.40.1 (20161225.0304)
 -->
<!-- Title: twoDegreesRelationshipsDiagram Pages: 1 -->
<svg width="599pt" height="880pt"
 viewBox="0.00 0.00 599.00 880.20" xmlns="http://www.w3.org/2000/svg" xmlns:xlink="http://www.w3.org/1999/xlink">
<g id="graph0" class="graph" transform="scale(1 1) rotate(0) translate(4 876.2)">
<title>twoDegreesRelationshipsDiagram</title>
<polygon fill="#ffffff" stroke="transparent" points="-4,4 -4,-876.2 595,-876.2 595,4 -4,4"/>
<text text-anchor="middle" x="72.4936" y="-7.3" font-family="Helvetica,sans-Serif" font-size="11.00" fill="#000000">Generated by SchemaSpy</text>
<!-- bereikbaarheid -->
<g id="node1" class="node">
<title>bereikbaarheid</title>
<g id="a_node1"><a xlink:href="../../tables/bereikbaarheid.html" xlink:title="bereikbaarheid" target="_top">
<polygon fill="#ffffff" stroke="transparent" points="458,-549.2 458,-698.2 582,-698.2 582,-549.2 458,-549.2"/>
<polygon fill="#f5f5f5" stroke="transparent" points="458,-674.7 458,-697.7 582,-697.7 582,-674.7 458,-674.7"/>
<polygon fill="none" stroke="#000000" points="458,-674.7 458,-697.7 582,-697.7 582,-674.7 458,-674.7"/>
<text text-anchor="start" x="463" y="-683.3" font-family="Helvetica,sans-Serif" font-weight="bold" font-size="11.00" fill="#000000">bereikbaarheid</text>
<text text-anchor="start" x="547.5219" y="-682.8" font-family="Helvetica,sans-Serif" font-size="11.00" fill="#000000">[table]</text>
<polygon fill="none" stroke="#000000" points="458,-652.7 458,-674.7 582,-674.7 582,-652.7 458,-652.7"/>
<image xlink:href="../../images/primaryKeys.png" width="11px" height="12px" preserveAspectRatio="xMinYMin meet" x="463" y="-669.7"/>
<text text-anchor="start" x="486" y="-659.8" font-family="Helvetica,sans-Serif" font-size="11.00" fill="#000000">uuid</text>
<polygon fill="#ffffff" stroke="transparent" points="458,-630.7 458,-652.7 582,-652.7 582,-630.7 458,-630.7"/>
<polygon fill="none" stroke="#000000" points="458,-630.7 458,-652.7 582,-652.7 582,-630.7 458,-630.7"/>
<text text-anchor="start" x="486" y="-637.8" font-family="Helvetica,sans-Serif" font-size="11.00" fill="#000000">geom</text>
<polygon fill="#ffffff" stroke="transparent" points="458,-608.7 458,-630.7 582,-630.7 582,-608.7 458,-608.7"/>
<polygon fill="none" stroke="#000000" points="458,-608.7 458,-630.7 582,-630.7 582,-608.7 458,-608.7"/>
<image xlink:href="../../images/foreignKeys.png" width="11px" height="12px" preserveAspectRatio="xMinYMin meet" x="463" y="-625.7"/>
<text text-anchor="start" x="486" y="-615.8" font-family="Helvetica,sans-Serif" font-size="11.00" fill="#000000">object_uuid</text>
<polygon fill="none" stroke="#000000" points="458,-586.7 458,-608.7 582,-608.7 582,-586.7 458,-586.7"/>
<image xlink:href="../../images/foreignKeys.png" width="11px" height="12px" preserveAspectRatio="xMinYMin meet" x="463" y="-603.7"/>
<text text-anchor="start" x="486" y="-593.8" font-family="Helvetica,sans-Serif" font-size="11.00" fill="#000000">verbinding_id</text>
<polygon fill="none" stroke="#000000" points="458,-567.7 458,-586.7 582,-586.7 582,-567.7 458,-567.7"/>
<text text-anchor="start" x="461" y="-573.8" font-family="Helvetica,sans-Serif" font-size="11.00" fill="#000000">...</text>
<polygon fill="#ffffff" stroke="transparent" points="458,-548.7 458,-567.7 518,-567.7 518,-548.7 458,-548.7"/>
<polygon fill="none" stroke="#000000" points="458,-548.7 458,-567.7 518,-567.7 518,-548.7 458,-548.7"/>
<text text-anchor="start" x="461" y="-554.8" font-family="Helvetica,sans-Serif" font-size="11.00" fill="#000000">&lt; 2</text>
<polygon fill="#ffffff" stroke="transparent" points="518,-548.7 518,-567.7 550,-567.7 550,-548.7 518,-548.7"/>
<polygon fill="none" stroke="#000000" points="518,-548.7 518,-567.7 550,-567.7 550,-548.7 518,-548.7"/>
<text text-anchor="start" x="540.8862" y="-554.8" font-family="Helvetica,sans-Serif" font-size="11.00" fill="#000000"> &#160;</text>
<polygon fill="#ffffff" stroke="transparent" points="550,-548.7 550,-567.7 582,-567.7 582,-548.7 550,-548.7"/>
<polygon fill="none" stroke="#000000" points="550,-548.7 550,-567.7 582,-567.7 582,-548.7 550,-548.7"/>
<text text-anchor="start" x="572.8862" y="-554.8" font-family="Helvetica,sans-Serif" font-size="11.00" fill="#000000"> &#160;</text>
</a>
</g>
</g>
<!-- object -->
<g id="node2" class="node">
<title>object</title>
<g id="a_node2"><a xlink:href="../../tables/object.html" xlink:title="object" target="_top">
<polygon fill="#ffffff" stroke="transparent" points="162,-304.7 162,-636.7 408,-636.7 408,-304.7 162,-304.7"/>
<polygon fill="#f5f5f5" stroke="transparent" points="164,-611.7 164,-634.7 406,-634.7 406,-611.7 164,-611.7"/>
<polygon fill="none" stroke="#000000" points="164,-611.7 164,-634.7 406,-634.7 406,-611.7 164,-611.7"/>
<text text-anchor="start" x="169" y="-620.3" font-family="Helvetica,sans-Serif" font-weight="bold" font-size="11.00" fill="#000000">object</text>
<text text-anchor="start" x="371.0437" y="-619.8" font-family="Helvetica,sans-Serif" font-size="11.00" fill="#000000">[table]</text>
<polygon fill="none" stroke="#000000" points="164,-589.7 164,-611.7 287,-611.7 287,-589.7 164,-589.7"/>
<image xlink:href="../../images/primaryKeys.png" width="11px" height="12px" preserveAspectRatio="xMinYMin meet" x="169" y="-606.7"/>
<text text-anchor="start" x="184" y="-596.8" font-family="Helvetica,sans-Serif" font-size="11.00" fill="#000000">uuid</text>
<polygon fill="none" stroke="#000000" points="287,-589.7 287,-611.7 406,-611.7 406,-589.7 287,-589.7"/>
<text text-anchor="start" x="290" y="-597.4" font-family="Helvetica,sans-Serif" font-size="11.00" fill="#000000">uuid[2147483647]</text>
<polygon fill="#ffffff" stroke="transparent" points="164,-567.7 164,-589.7 287,-589.7 287,-567.7 164,-567.7"/>
<polygon fill="none" stroke="#000000" points="164,-567.7 164,-589.7 287,-589.7 287,-567.7 164,-567.7"/>
<text text-anchor="start" x="184" y="-574.8" font-family="Helvetica,sans-Serif" font-size="11.00" fill="#000000">geom</text>
<polygon fill="none" stroke="#000000" points="287,-567.7 287,-589.7 406,-589.7 406,-567.7 287,-567.7"/>
<text text-anchor="start" x="289.9485" y="-575.4" font-family="Helvetica,sans-Serif" font-size="11.00" fill="#000000">geometry[2147483647]</text>
<polygon fill="none" stroke="#000000" points="164,-545.7 164,-567.7 287,-567.7 287,-545.7 164,-545.7"/>
<text text-anchor="start" x="184" y="-552.8" font-family="Helvetica,sans-Serif" font-size="11.00" fill="#000000">datumtijd</text>
<polygon fill="none" stroke="#000000" points="287,-545.7 287,-567.7 406,-567.7 406,-545.7 287,-545.7"/>
<text text-anchor="start" x="290" y="-553.4" font-family="Helvetica,sans-Serif" font-size="11.00" fill="#000000">timestamptz[35,6]</text>
<polygon fill="none" stroke="#000000" points="164,-523.7 164,-545.7 287,-545.7 287,-523.7 164,-523.7"/>
<text text-anchor="start" x="184" y="-530.8" font-family="Helvetica,sans-Serif" font-size="11.00" fill="#000000">gebruiker</text>
<polygon fill="none" stroke="#000000" points="287,-523.7 287,-545.7 406,-545.7 406,-523.7 287,-523.7"/>
<text text-anchor="start" x="290" y="-531.4" font-family="Helvetica,sans-Serif" font-size="11.00" fill="#000000">varchar[255]</text>
<polygon fill="#ffffff" stroke="transparent" points="164,-501.7 164,-523.7 287,-523.7 287,-501.7 164,-501.7"/>
<polygon fill="none" stroke="#000000" points="164,-501.7 164,-523.7 287,-523.7 287,-501.7 164,-501.7"/>
<text text-anchor="start" x="184" y="-508.8" font-family="Helvetica,sans-Serif" font-size="11.00" fill="#000000">revisie_frequentie</text>
<polygon fill="none" stroke="#000000" points="287,-501.7 287,-523.7 406,-523.7 406,-501.7 287,-501.7"/>
<text text-anchor="start" x="290" y="-509.4" font-family="Helvetica,sans-Serif" font-size="11.00" fill="#000000">int2[5]</text>
<polygon fill="none" stroke="#000000" points="164,-479.7 164,-501.7 287,-501.7 287,-479.7 164,-479.7"/>
<text text-anchor="start" x="184" y="-486.8" font-family="Helvetica,sans-Serif" font-size="11.00" fill="#000000">formelenaam</text>
<polygon fill="none" stroke="#000000" points="287,-479.7 287,-501.7 406,-501.7 406,-479.7 287,-479.7"/>
<text text-anchor="start" x="290" y="-487.4" font-family="Helvetica,sans-Serif" font-size="11.00" fill="#000000">text[2147483647]</text>
<polygon fill="none" stroke="#000000" points="164,-457.7 164,-479.7 287,-479.7 287,-457.7 164,-457.7"/>
<text text-anchor="start" x="184" y="-464.8" font-family="Helvetica,sans-Serif" font-size="11.00" fill="#000000">code</text>
<polygon fill="none" stroke="#000000" points="287,-457.7 287,-479.7 406,-479.7 406,-457.7 287,-457.7"/>
<text text-anchor="start" x="290" y="-465.4" font-family="Helvetica,sans-Serif" font-size="11.00" fill="#000000">text[2147483647]</text>
<polygon fill="none" stroke="#000000" points="164,-435.7 164,-457.7 287,-457.7 287,-435.7 164,-435.7"/>
<text text-anchor="start" x="184" y="-442.8" font-family="Helvetica,sans-Serif" font-size="11.00" fill="#000000">adres</text>
<polygon fill="none" stroke="#000000" points="287,-435.7 287,-457.7 406,-457.7 406,-435.7 287,-435.7"/>
<text text-anchor="start" x="290" y="-443.4" font-family="Helvetica,sans-Serif" font-size="11.00" fill="#000000">text[2147483647]</text>
<polygon fill="none" stroke="#000000" points="164,-413.7 164,-435.7 287,-435.7 287,-413.7 164,-413.7"/>
<text text-anchor="start" x="184" y="-420.8" font-family="Helvetica,sans-Serif" font-size="11.00" fill="#000000">bijzonderheden</text>
<polygon fill="none" stroke="#000000" points="287,-413.7 287,-435.7 406,-435.7 406,-413.7 287,-413.7"/>
<text text-anchor="start" x="290" y="-421.4" font-family="Helvetica,sans-Serif" font-size="11.00" fill="#000000">text[2147483647]</text>
<polygon fill="none" stroke="#000000" points="164,-391.7 164,-413.7 287,-413.7 287,-391.7 164,-391.7"/>
<text text-anchor="start" x="184" y="-398.8" font-family="Helvetica,sans-Serif" font-size="11.00" fill="#000000">plusinfo</text>
<polygon fill="none" stroke="#000000" points="287,-391.7 287,-413.7 406,-413.7 406,-391.7 287,-391.7"/>
<text text-anchor="start" x="290" y="-399.4" font-family="Helvetica,sans-Serif" font-size="11.00" fill="#000000">jsonb[2147483647]</text>
<polygon fill="#ffffff" stroke="transparent" points="164,-369.7 164,-391.7 287,-391.7 287,-369.7 164,-369.7"/>
<polygon fill="none" stroke="#000000" points="164,-369.7 164,-391.7 287,-391.7 287,-369.7 164,-369.7"/>
<image xlink:href="../../images/foreignKeys.png" width="11px" height="12px" preserveAspectRatio="xMinYMin meet" x="169" y="-386.7"/>
<text text-anchor="start" x="184" y="-376.8" font-family="Helvetica,sans-Serif" font-size="11.00" fill="#000000">fase_id</text>
<polygon fill="none" stroke="#000000" points="287,-369.7 287,-391.7 406,-391.7 406,-369.7 287,-369.7"/>
<text text-anchor="start" x="290" y="-377.4" font-family="Helvetica,sans-Serif" font-size="11.00" fill="#000000">int2[5]</text>
<polygon fill="#ffffff" stroke="transparent" points="164,-347.7 164,-369.7 287,-369.7 287,-347.7 164,-347.7"/>
<polygon fill="none" stroke="#000000" points="164,-347.7 164,-369.7 287,-369.7 287,-347.7 164,-347.7"/>
<image xlink:href="../../images/foreignKeys.png" width="11px" height="12px" preserveAspectRatio="xMinYMin meet" x="169" y="-364.7"/>
<text text-anchor="start" x="184" y="-354.8" font-family="Helvetica,sans-Serif" font-size="11.00" fill="#000000">object_type_id</text>
<polygon fill="none" stroke="#000000" points="287,-347.7 287,-369.7 406,-369.7 406,-347.7 287,-347.7"/>
<text text-anchor="start" x="290" y="-355.4" font-family="Helvetica,sans-Serif" font-size="11.00" fill="#000000">int2[5]</text>
<polygon fill="none" stroke="#000000" points="164,-325.7 164,-347.7 287,-347.7 287,-325.7 164,-325.7"/>
<text text-anchor="start" x="184" y="-332.8" font-family="Helvetica,sans-Serif" font-size="11.00" fill="#000000">beheerder</text>
<polygon fill="none" stroke="#000000" points="287,-325.7 287,-347.7 406,-347.7 406,-325.7 287,-325.7"/>
<text text-anchor="start" x="290" y="-333.4" font-family="Helvetica,sans-Serif" font-size="11.00" fill="#000000">text[2147483647]</text>
<polygon fill="#ffffff" stroke="transparent" points="164,-306.7 164,-325.7 230,-325.7 230,-306.7 164,-306.7"/>
<polygon fill="none" stroke="#000000" points="164,-306.7 164,-325.7 230,-325.7 230,-306.7 164,-306.7"/>
<text text-anchor="start" x="167" y="-312.8" font-family="Helvetica,sans-Serif" font-size="11.00" fill="#000000">&lt; 2</text>
<polygon fill="#ffffff" stroke="transparent" points="230,-306.7 230,-325.7 287,-325.7 287,-306.7 230,-306.7"/>
<polygon fill="none" stroke="#000000" points="230,-306.7 230,-325.7 287,-325.7 287,-306.7 230,-306.7"/>
<text text-anchor="start" x="277.8862" y="-312.8" font-family="Helvetica,sans-Serif" font-size="11.00" fill="#000000"> &#160;</text>
<polygon fill="#ffffff" stroke="transparent" points="287,-306.7 287,-325.7 406,-325.7 406,-306.7 287,-306.7"/>
<polygon fill="none" stroke="#000000" points="287,-306.7 287,-325.7 406,-325.7 406,-306.7 287,-306.7"/>
<text text-anchor="start" x="387.4053" y="-312.8" font-family="Helvetica,sans-Serif" font-size="11.00" fill="#000000">5 &gt;</text>
<polygon fill="none" stroke="#000000" stroke-width="2" points="163,-305.7 163,-635.7 407,-635.7 407,-305.7 163,-305.7"/>
</a>
</g>
</g>
<!-- bereikbaarheid&#45;&gt;object -->
<g id="edge1" class="edge">
<title>bereikbaarheid:w&#45;&gt;object:e</title>
<path fill="none" stroke="#000000" d="M443.7327,-617.0581C430.8887,-611.8375 424.8386,-600.7 406,-600.7"/>
<polygon fill="#000000" stroke="#000000" points="450.1337,-618.2434 457.3445,-623.2398 454.0669,-618.9717 458,-619.7 458,-619.7 458,-619.7 454.0669,-618.9717 458.6555,-616.1602 450.1337,-618.2434 450.1337,-618.2434"/>
<ellipse fill="none" stroke="#000000" cx="446.9872" cy="-617.6607" rx="3.2" ry="3.2"/>
</g>
<!-- roi.verbinding -->
<g id="node3" class="node">
<title>roi.verbinding</title>
<g id="a_node3"><a xlink:href="../../../roi/tables/verbinding.html" xlink:title="roi.verbinding" target="_top">
<polygon fill="#ffffff" stroke="transparent" points="225.5,-658.2 225.5,-719.2 344.5,-719.2 344.5,-658.2 225.5,-658.2"/>
<polygon fill="#f5f5f5" stroke="transparent" points="226,-695.7 226,-718.7 345,-718.7 345,-695.7 226,-695.7"/>
<polygon fill="none" stroke="#000000" points="226,-695.7 226,-718.7 345,-718.7 345,-695.7 226,-695.7"/>
<text text-anchor="start" x="231" y="-704.3" font-family="Helvetica,sans-Serif" font-weight="bold" font-size="11.00" fill="#000000">roi.verbinding</text>
<text text-anchor="start" x="310.5219" y="-703.8" font-family="Helvetica,sans-Serif" font-size="11.00" fill="#000000">[table]</text>
<polygon fill="none" stroke="#000000" points="226,-676.7 226,-695.7 345,-695.7 345,-676.7 226,-676.7"/>
<text text-anchor="start" x="229" y="-682.8" font-family="Helvetica,sans-Serif" font-size="11.00" fill="#000000">...</text>
<polygon fill="#ffffff" stroke="transparent" points="226,-657.7 226,-676.7 275,-676.7 275,-657.7 226,-657.7"/>
<polygon fill="none" stroke="#000000" points="226,-657.7 226,-676.7 275,-676.7 275,-657.7 226,-657.7"/>
<text text-anchor="start" x="229" y="-663.8" font-family="Helvetica,sans-Serif" font-size="11.00" fill="#000000"> &#160;</text>
<polygon fill="#ffffff" stroke="transparent" points="275,-657.7 275,-676.7 305,-676.7 305,-657.7 275,-657.7"/>
<polygon fill="none" stroke="#000000" points="275,-657.7 275,-676.7 305,-676.7 305,-657.7 275,-657.7"/>
<text text-anchor="start" x="295.8862" y="-663.8" font-family="Helvetica,sans-Serif" font-size="11.00" fill="#000000"> &#160;</text>
<polygon fill="#ffffff" stroke="transparent" points="305,-657.7 305,-676.7 345,-676.7 345,-657.7 305,-657.7"/>
<polygon fill="none" stroke="#000000" points="305,-657.7 305,-676.7 345,-676.7 345,-657.7 305,-657.7"/>
<text text-anchor="start" x="326.4053" y="-663.8" font-family="Helvetica,sans-Serif" font-size="11.00" fill="#000000">1 &gt;</text>
</a>
</g>
</g>
<!-- bereikbaarheid&#45;&gt;roi.verbinding -->
<g id="edge2" class="edge">
<title>bereikbaarheid:w&#45;&gt;roi.verbinding:e</title>
<path fill="none" stroke="#000000" d="M443.7527,-601.7798C431.6233,-610.9313 433.6048,-633.4118 416,-647.7 388.21,-670.2545 380.7909,-685.7 345,-685.7"/>
<polygon fill="#000000" stroke="#000000" points="450.3091,-599.9024 458.9911,-601.1609 454.1546,-598.8012 458,-597.7 458,-597.7 458,-597.7 454.1546,-598.8012 457.0089,-594.2391 450.3091,-599.9024 450.3091,-599.9024"/>
<ellipse fill="none" stroke="#000000" cx="447.2328" cy="-600.7834" rx="3.2" ry="3.2"/>
</g>
<!-- roi.fase -->
<g id="node8" class="node">
<title>roi.fase</title>
<g id="a_node8"><a xlink:href="../../../roi/tables/fase.html" xlink:title="roi.fase" target="_top">
<polygon fill="#ffffff" stroke="transparent" points="20,-382.2 20,-443.2 101,-443.2 101,-382.2 20,-382.2"/>
<polygon fill="#f5f5f5" stroke="transparent" points="20.5,-419.7 20.5,-442.7 101.5,-442.7 101.5,-419.7 20.5,-419.7"/>
<polygon fill="none" stroke="#000000" points="20.5,-419.7 20.5,-442.7 101.5,-442.7 101.5,-419.7 20.5,-419.7"/>
<text text-anchor="start" x="25.5" y="-428.3" font-family="Helvetica,sans-Serif" font-weight="bold" font-size="11.00" fill="#000000">roi.fase</text>
<text text-anchor="start" x="67.0219" y="-427.8" font-family="Helvetica,sans-Serif" font-size="11.00" fill="#000000">[table]</text>
<polygon fill="none" stroke="#000000" points="20.5,-400.7 20.5,-419.7 101.5,-419.7 101.5,-400.7 20.5,-400.7"/>
<text text-anchor="start" x="23.5" y="-406.8" font-family="Helvetica,sans-Serif" font-size="11.00" fill="#000000">...</text>
<polygon fill="#ffffff" stroke="transparent" points="20.5,-381.7 20.5,-400.7 50.5,-400.7 50.5,-381.7 20.5,-381.7"/>
<polygon fill="none" stroke="#000000" points="20.5,-381.7 20.5,-400.7 50.5,-400.7 50.5,-381.7 20.5,-381.7"/>
<text text-anchor="start" x="23.5" y="-387.8" font-family="Helvetica,sans-Serif" font-size="11.00" fill="#000000"> &#160;</text>
<polygon fill="#ffffff" stroke="transparent" points="50.5,-381.7 50.5,-400.7 71.5,-400.7 71.5,-381.7 50.5,-381.7"/>
<polygon fill="none" stroke="#000000" points="50.5,-381.7 50.5,-400.7 71.5,-400.7 71.5,-381.7 50.5,-381.7"/>
<text text-anchor="start" x="62.3862" y="-387.8" font-family="Helvetica,sans-Serif" font-size="11.00" fill="#000000"> &#160;</text>
<polygon fill="#ffffff" stroke="transparent" points="71.5,-381.7 71.5,-400.7 101.5,-400.7 101.5,-381.7 71.5,-381.7"/>
<polygon fill="none" stroke="#000000" points="71.5,-381.7 71.5,-400.7 101.5,-400.7 101.5,-381.7 71.5,-381.7"/>
<text text-anchor="start" x="82.9053" y="-387.8" font-family="Helvetica,sans-Serif" font-size="11.00" fill="#000000">1 &gt;</text>
</a>
</g>
</g>
<!-- object&#45;&gt;roi.fase -->
<g id="edge7" class="edge">
<title>object:w&#45;&gt;roi.fase:e</title>
<path fill="none" stroke="#000000" d="M149.5938,-381.5736C135.6831,-383.1911 121.6893,-386.8818 109.0471,-391.178"/>
<polygon fill="#000000" stroke="#000000" points="156.0147,-381.1843 164.2179,-384.2934 160.0073,-380.9421 164,-380.7 164,-380.7 164,-380.7 160.0073,-380.9421 163.7821,-377.1066 156.0147,-381.1843 156.0147,-381.1843"/>
<ellipse fill="none" stroke="#000000" cx="152.8205" cy="-381.378" rx="3.2" ry="3.2"/>
</g>
<!-- object_type -->
<g id="node9" class="node">
<title>object_type</title>
<g id="a_node9"><a xlink:href="../../tables/object_type.html" xlink:title="object_type" target="_top">
<polygon fill="#ffffff" stroke="transparent" points="8,-278.2 8,-361.2 113,-361.2 113,-278.2 8,-278.2"/>
<polygon fill="#f5f5f5" stroke="transparent" points="8.5,-337.7 8.5,-360.7 113.5,-360.7 113.5,-337.7 8.5,-337.7"/>
<polygon fill="none" stroke="#000000" points="8.5,-337.7 8.5,-360.7 113.5,-360.7 113.5,-337.7 8.5,-337.7"/>
<text text-anchor="start" x="13.5" y="-346.3" font-family="Helvetica,sans-Serif" font-weight="bold" font-size="11.00" fill="#000000">object_type</text>
<text text-anchor="start" x="79.0219" y="-345.8" font-family="Helvetica,sans-Serif" font-size="11.00" fill="#000000">[table]</text>
<polygon fill="none" stroke="#000000" points="8.5,-315.7 8.5,-337.7 113.5,-337.7 113.5,-315.7 8.5,-315.7"/>
<image xlink:href="../../images/primaryKeys.png" width="11px" height="12px" preserveAspectRatio="xMinYMin meet" x="13.5" y="-332.7"/>
<text text-anchor="start" x="33.5" y="-322.8" font-family="Helvetica,sans-Serif" font-size="11.00" fill="#000000">id</text>
<polygon fill="none" stroke="#000000" points="8.5,-296.7 8.5,-315.7 113.5,-315.7 113.5,-296.7 8.5,-296.7"/>
<text text-anchor="start" x="11.5" y="-302.8" font-family="Helvetica,sans-Serif" font-size="11.00" fill="#000000">...</text>
<polygon fill="#ffffff" stroke="transparent" points="8.5,-277.7 8.5,-296.7 50.5,-296.7 50.5,-277.7 8.5,-277.7"/>
<polygon fill="none" stroke="#000000" points="8.5,-277.7 8.5,-296.7 50.5,-296.7 50.5,-277.7 8.5,-277.7"/>
<text text-anchor="start" x="11.5" y="-283.8" font-family="Helvetica,sans-Serif" font-size="11.00" fill="#000000"> &#160;</text>
<polygon fill="#ffffff" stroke="transparent" points="50.5,-277.7 50.5,-296.7 77.5,-296.7 77.5,-277.7 50.5,-277.7"/>
<polygon fill="none" stroke="#000000" points="50.5,-277.7 50.5,-296.7 77.5,-296.7 77.5,-277.7 50.5,-277.7"/>
<text text-anchor="start" x="68.3862" y="-283.8" font-family="Helvetica,sans-Serif" font-size="11.00" fill="#000000"> &#160;</text>
<polygon fill="#ffffff" stroke="transparent" points="77.5,-277.7 77.5,-296.7 113.5,-296.7 113.5,-277.7 77.5,-277.7"/>
<polygon fill="none" stroke="#000000" points="77.5,-277.7 77.5,-296.7 113.5,-296.7 113.5,-277.7 77.5,-277.7"/>
<text text-anchor="start" x="94.9053" y="-283.8" font-family="Helvetica,sans-Serif" font-size="11.00" fill="#000000">1 &gt;</text>
</a>
</g>
</g>
<!-- object&#45;&gt;object_type -->
<g id="edge8" class="edge">
<title>object:w&#45;&gt;object_type:e</title>
<path fill="none" stroke="#000000" d="M150.1448,-354.7762C137.187,-346.2313 134.2587,-326.7 113.5,-326.7"/>
<polygon fill="#000000" stroke="#000000" points="156.3027,-356.5201 163.019,-362.1638 160.1514,-357.61 164,-358.7 164,-358.7 164,-358.7 160.1514,-357.61 164.981,-355.2362 156.3027,-356.5201 156.3027,-356.5201"/>
<ellipse fill="none" stroke="#000000" cx="153.2238" cy="-355.6481" rx="3.2" ry="3.2"/>
</g>
<!-- label -->
<g id="node4" class="node">
<title>label</title>
<g id="a_node4"><a xlink:href="../../tables/label.html" xlink:title="label" target="_top">
<polygon fill="#ffffff" stroke="transparent" points="465.5,-719.2 465.5,-868.2 574.5,-868.2 574.5,-719.2 465.5,-719.2"/>
<polygon fill="#f5f5f5" stroke="transparent" points="466,-844.7 466,-867.7 575,-867.7 575,-844.7 466,-844.7"/>
<polygon fill="none" stroke="#000000" points="466,-844.7 466,-867.7 575,-867.7 575,-844.7 466,-844.7"/>
<text text-anchor="start" x="470.8868" y="-853.3" font-family="Helvetica,sans-Serif" font-weight="bold" font-size="11.00" fill="#000000">label</text>
<text text-anchor="start" x="540.0437" y="-852.8" font-family="Helvetica,sans-Serif" font-size="11.00" fill="#000000">[table]</text>
<polygon fill="none" stroke="#000000" points="466,-822.7 466,-844.7 575,-844.7 575,-822.7 466,-822.7"/>
<image xlink:href="../../images/primaryKeys.png" width="11px" height="12px" preserveAspectRatio="xMinYMin meet" x="471" y="-839.7"/>
<text text-anchor="start" x="486" y="-829.8" font-family="Helvetica,sans-Serif" font-size="11.00" fill="#000000">uuid</text>
<polygon fill="#ffffff" stroke="transparent" points="466,-800.7 466,-822.7 575,-822.7 575,-800.7 466,-800.7"/>
<polygon fill="none" stroke="#000000" points="466,-800.7 466,-822.7 575,-822.7 575,-800.7 466,-800.7"/>
<text text-anchor="start" x="486" y="-807.8" font-family="Helvetica,sans-Serif" font-size="11.00" fill="#000000">geom</text>
<polygon fill="#ffffff" stroke="transparent" points="466,-778.7 466,-800.7 575,-800.7 575,-778.7 466,-778.7"/>
<polygon fill="none" stroke="#000000" points="466,-778.7 466,-800.7 575,-800.7 575,-778.7 466,-778.7"/>
<image xlink:href="../../images/foreignKeys.png" width="11px" height="12px" preserveAspectRatio="xMinYMin meet" x="471" y="-795.7"/>
<text text-anchor="start" x="486" y="-785.8" font-family="Helvetica,sans-Serif" font-size="11.00" fill="#000000">object_uuid</text>
<polygon fill="none" stroke="#000000" points="466,-756.7 466,-778.7 575,-778.7 575,-756.7 466,-756.7"/>
<image xlink:href="../../images/foreignKeys.png" width="11px" height="12px" preserveAspectRatio="xMinYMin meet" x="471" y="-773.7"/>
<text text-anchor="start" x="486" y="-763.8" font-family="Helvetica,sans-Serif" font-size="11.00" fill="#000000">annotatie_id</text>
<polygon fill="none" stroke="#000000" points="466,-737.7 466,-756.7 575,-756.7 575,-737.7 466,-737.7"/>
<text text-anchor="start" x="469" y="-743.8" font-family="Helvetica,sans-Serif" font-size="11.00" fill="#000000">...</text>
<polygon fill="#ffffff" stroke="transparent" points="466,-718.7 466,-737.7 519,-737.7 519,-718.7 466,-718.7"/>
<polygon fill="none" stroke="#000000" points="466,-718.7 466,-737.7 519,-737.7 519,-718.7 466,-718.7"/>
<text text-anchor="start" x="469" y="-724.8" font-family="Helvetica,sans-Serif" font-size="11.00" fill="#000000">&lt; 2</text>
<polygon fill="#ffffff" stroke="transparent" points="519,-718.7 519,-737.7 547,-737.7 547,-718.7 519,-718.7"/>
<polygon fill="none" stroke="#000000" points="519,-718.7 519,-737.7 547,-737.7 547,-718.7 519,-718.7"/>
<text text-anchor="start" x="537.8862" y="-724.8" font-family="Helvetica,sans-Serif" font-size="11.00" fill="#000000"> &#160;</text>
<polygon fill="#ffffff" stroke="transparent" points="547,-718.7 547,-737.7 575,-737.7 575,-718.7 547,-718.7"/>
<polygon fill="none" stroke="#000000" points="547,-718.7 547,-737.7 575,-737.7 575,-718.7 547,-718.7"/>
<text text-anchor="start" x="565.8862" y="-724.8" font-family="Helvetica,sans-Serif" font-size="11.00" fill="#000000"> &#160;</text>
</a>
</g>
</g>
<!-- label&#45;&gt;object -->
<g id="edge4" class="edge">
<title>label:w&#45;&gt;object:e</title>
<path fill="none" stroke="#000000" d="M451.3968,-787.4458C392.0066,-766.1219 488.4509,-600.7 406,-600.7"/>
<polygon fill="#000000" stroke="#000000" points="458.0936,-788.4795 465.4508,-793.2579 462.0468,-789.0897 466,-789.7 466,-789.7 466,-789.7 462.0468,-789.0897 466.5492,-786.1421 458.0936,-788.4795 458.0936,-788.4795"/>
<ellipse fill="none" stroke="#000000" cx="454.9311" cy="-787.9913" rx="3.2" ry="3.2"/>
</g>
<!-- roi.annotatie -->
<g id="node5" class="node">
<title>roi.annotatie</title>
<g id="a_node5"><a xlink:href="../../../roi/tables/annotatie.html" xlink:title="roi.annotatie" target="_top">
<polygon fill="#ffffff" stroke="transparent" points="229.5,-740.2 229.5,-801.2 340.5,-801.2 340.5,-740.2 229.5,-740.2"/>
<polygon fill="#f5f5f5" stroke="transparent" points="230,-777.7 230,-800.7 341,-800.7 341,-777.7 230,-777.7"/>
<polygon fill="none" stroke="#000000" points="230,-777.7 230,-800.7 341,-800.7 341,-777.7 230,-777.7"/>
<text text-anchor="start" x="235" y="-786.3" font-family="Helvetica,sans-Serif" font-weight="bold" font-size="11.00" fill="#000000">roi.annotatie</text>
<text text-anchor="start" x="306.5219" y="-785.8" font-family="Helvetica,sans-Serif" font-size="11.00" fill="#000000">[table]</text>
<polygon fill="none" stroke="#000000" points="230,-758.7 230,-777.7 341,-777.7 341,-758.7 230,-758.7"/>
<text text-anchor="start" x="233" y="-764.8" font-family="Helvetica,sans-Serif" font-size="11.00" fill="#000000">...</text>
<polygon fill="#ffffff" stroke="transparent" points="230,-739.7 230,-758.7 275,-758.7 275,-739.7 230,-739.7"/>
<polygon fill="none" stroke="#000000" points="230,-739.7 230,-758.7 275,-758.7 275,-739.7 230,-739.7"/>
<text text-anchor="start" x="233" y="-745.8" font-family="Helvetica,sans-Serif" font-size="11.00" fill="#000000"> &#160;</text>
<polygon fill="#ffffff" stroke="transparent" points="275,-739.7 275,-758.7 303,-758.7 303,-739.7 275,-739.7"/>
<polygon fill="none" stroke="#000000" points="275,-739.7 275,-758.7 303,-758.7 303,-739.7 275,-739.7"/>
<text text-anchor="start" x="293.8862" y="-745.8" font-family="Helvetica,sans-Serif" font-size="11.00" fill="#000000"> &#160;</text>
<polygon fill="#ffffff" stroke="transparent" points="303,-739.7 303,-758.7 341,-758.7 341,-739.7 303,-739.7"/>
<polygon fill="none" stroke="#000000" points="303,-739.7 303,-758.7 341,-758.7 341,-739.7 303,-739.7"/>
<text text-anchor="start" x="322.4053" y="-745.8" font-family="Helvetica,sans-Serif" font-size="11.00" fill="#000000">1 &gt;</text>
</a>
</g>
</g>
<!-- label&#45;&gt;roi.annotatie -->
<g id="edge3" class="edge">
<title>label:w&#45;&gt;roi.annotatie:e</title>
<path fill="none" stroke="#000000" d="M451.405,-767.7C407.4741,-767.7 391.3472,-767.7 341,-767.7"/>
<polygon fill="#000000" stroke="#000000" points="458,-767.7001 466,-771.3 462,-767.7 466,-767.7 466,-767.7 466,-767.7 462,-767.7 466,-764.1 458,-767.7001 458,-767.7001"/>
<ellipse fill="none" stroke="#000000" cx="454.8" cy="-767.7001" rx="3.2" ry="3.2"/>
</g>
<!-- maatregel -->
<g id="node6" class="node">
<title>maatregel</title>
<g id="a_node6"><a xlink:href="../../tables/maatregel.html" xlink:title="maatregel" target="_top">
<polygon fill="#ffffff" stroke="transparent" points="457,-379.2 457,-528.2 583,-528.2 583,-379.2 457,-379.2"/>
<polygon fill="#f5f5f5" stroke="transparent" points="457,-504.7 457,-527.7 583,-527.7 583,-504.7 457,-504.7"/>
<polygon fill="none" stroke="#000000" points="457,-504.7 457,-527.7 583,-527.7 583,-504.7 457,-504.7"/>
<text text-anchor="start" x="462" y="-513.3" font-family="Helvetica,sans-Serif" font-weight="bold" font-size="11.00" fill="#000000">maatregel</text>
<text text-anchor="start" x="548.0437" y="-512.8" font-family="Helvetica,sans-Serif" font-size="11.00" fill="#000000">[table]</text>
<polygon fill="none" stroke="#000000" points="457,-482.7 457,-504.7 583,-504.7 583,-482.7 457,-482.7"/>
<image xlink:href="../../images/primaryKeys.png" width="11px" height="12px" preserveAspectRatio="xMinYMin meet" x="462" y="-499.7"/>
<text text-anchor="start" x="477" y="-489.8" font-family="Helvetica,sans-Serif" font-size="11.00" fill="#000000">uuid</text>
<polygon fill="#ffffff" stroke="transparent" points="457,-460.7 457,-482.7 583,-482.7 583,-460.7 457,-460.7"/>
<polygon fill="none" stroke="#000000" points="457,-460.7 457,-482.7 583,-482.7 583,-460.7 457,-460.7"/>
<text text-anchor="start" x="477" y="-467.8" font-family="Helvetica,sans-Serif" font-size="11.00" fill="#000000">geom</text>
<polygon fill="#ffffff" stroke="transparent" points="457,-438.7 457,-460.7 583,-460.7 583,-438.7 457,-438.7"/>
<polygon fill="none" stroke="#000000" points="457,-438.7 457,-460.7 583,-460.7 583,-438.7 457,-438.7"/>
<image xlink:href="../../images/foreignKeys.png" width="11px" height="12px" preserveAspectRatio="xMinYMin meet" x="462" y="-455.7"/>
<text text-anchor="start" x="477" y="-445.8" font-family="Helvetica,sans-Serif" font-size="11.00" fill="#000000">object_uuid</text>
<polygon fill="none" stroke="#000000" points="457,-416.7 457,-438.7 583,-438.7 583,-416.7 457,-416.7"/>
<image xlink:href="../../images/foreignKeys.png" width="11px" height="12px" preserveAspectRatio="xMinYMin meet" x="462" y="-433.7"/>
<text text-anchor="start" x="477" y="-423.8" font-family="Helvetica,sans-Serif" font-size="11.00" fill="#000000">maatregel_type_id</text>
<polygon fill="none" stroke="#000000" points="457,-397.7 457,-416.7 583,-416.7 583,-397.7 457,-397.7"/>
<text text-anchor="start" x="460" y="-403.8" font-family="Helvetica,sans-Serif" font-size="11.00" fill="#000000">...</text>
<polygon fill="#ffffff" stroke="transparent" points="457,-378.7 457,-397.7 518,-397.7 518,-378.7 457,-378.7"/>
<polygon fill="none" stroke="#000000" points="457,-378.7 457,-397.7 518,-397.7 518,-378.7 457,-378.7"/>
<text text-anchor="start" x="460" y="-384.8" font-family="Helvetica,sans-Serif" font-size="11.00" fill="#000000">&lt; 2</text>
<polygon fill="#ffffff" stroke="transparent" points="518,-378.7 518,-397.7 550,-397.7 550,-378.7 518,-378.7"/>
<polygon fill="none" stroke="#000000" points="518,-378.7 518,-397.7 550,-397.7 550,-378.7 518,-378.7"/>
<text text-anchor="start" x="540.8862" y="-384.8" font-family="Helvetica,sans-Serif" font-size="11.00" fill="#000000"> &#160;</text>
<polygon fill="#ffffff" stroke="transparent" points="550,-378.7 550,-397.7 583,-397.7 583,-378.7 550,-378.7"/>
<polygon fill="none" stroke="#000000" points="550,-378.7 550,-397.7 583,-397.7 583,-378.7 550,-378.7"/>
<text text-anchor="start" x="573.8862" y="-384.8" font-family="Helvetica,sans-Serif" font-size="11.00" fill="#000000"> &#160;</text>
</a>
</g>
</g>
<!-- maatregel&#45;&gt;object -->
<g id="edge6" class="edge">
<title>maatregel:w&#45;&gt;object:e</title>
<path fill="none" stroke="#000000" d="M442.6499,-452.5816C399.9534,-473.4573 471.0248,-600.7 406,-600.7"/>
<polygon fill="#000000" stroke="#000000" points="449.1566,-451.2751 457.7088,-453.2295 453.0783,-450.4875 457,-449.7 457,-449.7 457,-449.7 453.0783,-450.4875 456.2912,-446.1705 449.1566,-451.2751 449.1566,-451.2751"/>
<ellipse fill="none" stroke="#000000" cx="446.0192" cy="-451.9051" rx="3.2" ry="3.2"/>
</g>
<!-- maatregel_type -->
<g id="node7" class="node">
<title>maatregel_type</title>
<g id="a_node7"><a xlink:href="../../tables/maatregel_type.html" xlink:title="maatregel_type" target="_top">
<polygon fill="#ffffff" stroke="transparent" points="221.5,-222.2 221.5,-283.2 348.5,-283.2 348.5,-222.2 221.5,-222.2"/>
<polygon fill="#f5f5f5" stroke="transparent" points="222,-259.7 222,-282.7 349,-282.7 349,-259.7 222,-259.7"/>
<polygon fill="none" stroke="#000000" points="222,-259.7 222,-282.7 349,-282.7 349,-259.7 222,-259.7"/>
<text text-anchor="start" x="227" y="-268.3" font-family="Helvetica,sans-Serif" font-weight="bold" font-size="11.00" fill="#000000">maatregel_type</text>
<text text-anchor="start" x="314.5219" y="-267.8" font-family="Helvetica,sans-Serif" font-size="11.00" fill="#000000">[table]</text>
<polygon fill="none" stroke="#000000" points="222,-240.7 222,-259.7 349,-259.7 349,-240.7 222,-240.7"/>
<text text-anchor="start" x="225" y="-246.8" font-family="Helvetica,sans-Serif" font-size="11.00" fill="#000000">...</text>
<polygon fill="#ffffff" stroke="transparent" points="222,-221.7 222,-240.7 275,-240.7 275,-221.7 222,-221.7"/>
<polygon fill="none" stroke="#000000" points="222,-221.7 222,-240.7 275,-240.7 275,-221.7 222,-221.7"/>
<text text-anchor="start" x="225" y="-227.8" font-family="Helvetica,sans-Serif" font-size="11.00" fill="#000000"> &#160;</text>
<polygon fill="#ffffff" stroke="transparent" points="275,-221.7 275,-240.7 307,-240.7 307,-221.7 275,-221.7"/>
<polygon fill="none" stroke="#000000" points="275,-221.7 275,-240.7 307,-240.7 307,-221.7 275,-221.7"/>
<text text-anchor="start" x="297.8862" y="-227.8" font-family="Helvetica,sans-Serif" font-size="11.00" fill="#000000"> &#160;</text>
<polygon fill="#ffffff" stroke="transparent" points="307,-221.7 307,-240.7 349,-240.7 349,-221.7 307,-221.7"/>
<polygon fill="none" stroke="#000000" points="307,-221.7 307,-240.7 349,-240.7 349,-221.7 307,-221.7"/>
<text text-anchor="start" x="330.4053" y="-227.8" font-family="Helvetica,sans-Serif" font-size="11.00" fill="#000000">1 &gt;</text>
</a>
</g>
</g>
<!-- maatregel&#45;&gt;maatregel_type -->
<g id="edge5" class="edge">
<title>maatregel:w&#45;&gt;maatregel_type:e</title>
<path fill="none" stroke="#000000" d="M442.5803,-425.5986C405.1413,-412.3671 449.4407,-339.6902 416,-294.7 394.6014,-265.9109 384.8708,-249.7 349,-249.7"/>
<polygon fill="#000000" stroke="#000000" points="449.0836,-426.5463 456.4808,-431.2624 453.0418,-427.1231 457,-427.7 457,-427.7 457,-427.7 453.0418,-427.1231 457.5192,-424.1376 449.0836,-426.5463 449.0836,-426.5463"/>
<ellipse fill="none" stroke="#000000" cx="445.9171" cy="-426.0848" rx="3.2" ry="3.2"/>
</g>
<!-- sector -->
<g id="node10" class="node">
<title>sector</title>
<g id="a_node10"><a xlink:href="../../tables/sector.html" xlink:title="sector" target="_top">
<polygon fill="#ffffff" stroke="transparent" points="465.5,-209.2 465.5,-358.2 574.5,-358.2 574.5,-209.2 465.5,-209.2"/>
<polygon fill="#f5f5f5" stroke="transparent" points="466,-334.7 466,-357.7 575,-357.7 575,-334.7 466,-334.7"/>
<polygon fill="none" stroke="#000000" points="466,-334.7 466,-357.7 575,-357.7 575,-334.7 466,-334.7"/>
<text text-anchor="start" x="471" y="-343.3" font-family="Helvetica,sans-Serif" font-weight="bold" font-size="11.00" fill="#000000">sector</text>
<text text-anchor="start" x="540.0437" y="-342.8" font-family="Helvetica,sans-Serif" font-size="11.00" fill="#000000">[table]</text>
<polygon fill="none" stroke="#000000" points="466,-312.7 466,-334.7 575,-334.7 575,-312.7 466,-312.7"/>
<image xlink:href="../../images/primaryKeys.png" width="11px" height="12px" preserveAspectRatio="xMinYMin meet" x="471" y="-329.7"/>
<text text-anchor="start" x="486" y="-319.8" font-family="Helvetica,sans-Serif" font-size="11.00" fill="#000000">uuid</text>
<polygon fill="#ffffff" stroke="transparent" points="466,-290.7 466,-312.7 575,-312.7 575,-290.7 466,-290.7"/>
<polygon fill="none" stroke="#000000" points="466,-290.7 466,-312.7 575,-312.7 575,-290.7 466,-290.7"/>
<text text-anchor="start" x="486" y="-297.8" font-family="Helvetica,sans-Serif" font-size="11.00" fill="#000000">geom</text>
<polygon fill="#ffffff" stroke="transparent" points="466,-268.7 466,-290.7 575,-290.7 575,-268.7 466,-268.7"/>
<polygon fill="none" stroke="#000000" points="466,-268.7 466,-290.7 575,-290.7 575,-268.7 466,-268.7"/>
<image xlink:href="../../images/foreignKeys.png" width="11px" height="12px" preserveAspectRatio="xMinYMin meet" x="471" y="-285.7"/>
<text text-anchor="start" x="486" y="-275.8" font-family="Helvetica,sans-Serif" font-size="11.00" fill="#000000">object_uuid</text>
<polygon fill="none" stroke="#000000" points="466,-246.7 466,-268.7 575,-268.7 575,-246.7 466,-246.7"/>
<image xlink:href="../../images/foreignKeys.png" width="11px" height="12px" preserveAspectRatio="xMinYMin meet" x="471" y="-263.7"/>
<text text-anchor="start" x="486" y="-253.8" font-family="Helvetica,sans-Serif" font-size="11.00" fill="#000000">zone_id</text>
<polygon fill="none" stroke="#000000" points="466,-227.7 466,-246.7 575,-246.7 575,-227.7 466,-227.7"/>
<text text-anchor="start" x="469" y="-233.8" font-family="Helvetica,sans-Serif" font-size="11.00" fill="#000000">...</text>
<polygon fill="#ffffff" stroke="transparent" points="466,-208.7 466,-227.7 519,-227.7 519,-208.7 466,-208.7"/>
<polygon fill="none" stroke="#000000" points="466,-208.7 466,-227.7 519,-227.7 519,-208.7 466,-208.7"/>
<text text-anchor="start" x="469" y="-214.8" font-family="Helvetica,sans-Serif" font-size="11.00" fill="#000000">&lt; 2</text>
<polygon fill="#ffffff" stroke="transparent" points="519,-208.7 519,-227.7 547,-227.7 547,-208.7 519,-208.7"/>
<polygon fill="none" stroke="#000000" points="519,-208.7 519,-227.7 547,-227.7 547,-208.7 519,-208.7"/>
<text text-anchor="start" x="537.8862" y="-214.8" font-family="Helvetica,sans-Serif" font-size="11.00" fill="#000000"> &#160;</text>
<polygon fill="#ffffff" stroke="transparent" points="547,-208.7 547,-227.7 575,-227.7 575,-208.7 547,-208.7"/>
<polygon fill="none" stroke="#000000" points="547,-208.7 547,-227.7 575,-227.7 575,-208.7 547,-208.7"/>
<text text-anchor="start" x="565.8862" y="-214.8" font-family="Helvetica,sans-Serif" font-size="11.00" fill="#000000"> &#160;</text>
</a>
</g>
</g>
<!-- sector&#45;&gt;object -->
<g id="edge9" class="edge">
<title>sector:w&#45;&gt;object:e</title>
<path fill="none" stroke="#000000" d="M452.3193,-284.7421C405.2001,-325.5802 473.1828,-600.7 406,-600.7"/>
<polygon fill="#000000" stroke="#000000" points="458.4936,-282.4666 467.245,-283.0779 462.2468,-281.0833 466,-279.7 466,-279.7 466,-279.7 462.2468,-281.0833 464.755,-276.3221 458.4936,-282.4666 458.4936,-282.4666"/>
<ellipse fill="none" stroke="#000000" cx="455.491" cy="-283.5732" rx="3.2" ry="3.2"/>
</g>
<!-- roi.zone -->
<g id="node11" class="node">
<title>roi.zone</title>
<g id="a_node11"><a xlink:href="../../../roi/tables/zone.html" xlink:title="roi.zone" target="_top">
<polygon fill="#ffffff" stroke="transparent" points="242.5,-140.2 242.5,-201.2 327.5,-201.2 327.5,-140.2 242.5,-140.2"/>
<polygon fill="#f5f5f5" stroke="transparent" points="243,-177.7 243,-200.7 328,-200.7 328,-177.7 243,-177.7"/>
<polygon fill="none" stroke="#000000" points="243,-177.7 243,-200.7 328,-200.7 328,-177.7 243,-177.7"/>
<text text-anchor="start" x="248" y="-186.3" font-family="Helvetica,sans-Serif" font-weight="bold" font-size="11.00" fill="#000000">roi.zone</text>
<text text-anchor="start" x="293.5219" y="-185.8" font-family="Helvetica,sans-Serif" font-size="11.00" fill="#000000">[table]</text>
<polygon fill="none" stroke="#000000" points="243,-158.7 243,-177.7 328,-177.7 328,-158.7 243,-158.7"/>
<text text-anchor="start" x="246" y="-164.8" font-family="Helvetica,sans-Serif" font-size="11.00" fill="#000000">...</text>
<polygon fill="#ffffff" stroke="transparent" points="243,-139.7 243,-158.7 275,-158.7 275,-139.7 243,-139.7"/>
<polygon fill="none" stroke="#000000" points="243,-139.7 243,-158.7 275,-158.7 275,-139.7 243,-139.7"/>
<text text-anchor="start" x="246" y="-145.8" font-family="Helvetica,sans-Serif" font-size="11.00" fill="#000000"> &#160;</text>
<polygon fill="#ffffff" stroke="transparent" points="275,-139.7 275,-158.7 297,-158.7 297,-139.7 275,-139.7"/>
<polygon fill="none" stroke="#000000" points="275,-139.7 275,-158.7 297,-158.7 297,-139.7 275,-139.7"/>
<text text-anchor="start" x="287.8862" y="-145.8" font-family="Helvetica,sans-Serif" font-size="11.00" fill="#000000"> &#160;</text>
<polygon fill="#ffffff" stroke="transparent" points="297,-139.7 297,-158.7 328,-158.7 328,-139.7 297,-139.7"/>
<polygon fill="none" stroke="#000000" points="297,-139.7 297,-158.7 328,-158.7 328,-139.7 297,-139.7"/>
<text text-anchor="start" x="309.4053" y="-145.8" font-family="Helvetica,sans-Serif" font-size="11.00" fill="#000000">1 &gt;</text>
</a>
</g>
</g>
<!-- sector&#45;&gt;roi.zone -->
<g id="edge10" class="edge">
<title>sector:w&#45;&gt;roi.zone:e</title>
<path fill="none" stroke="#000000" d="M451.8556,-254.6998C436.6373,-246.8743 436.0034,-225.494 416,-211.7 380.0017,-186.8761 371.7276,-167.7 328,-167.7"/>
<polygon fill="#000000" stroke="#000000" points="458.1741,-256.04 465.253,-261.2216 462.0871,-256.87 466,-257.7 466,-257.7 466,-257.7 462.0871,-256.87 466.747,-254.1784 458.1741,-256.04 458.1741,-256.04"/>
<ellipse fill="none" stroke="#000000" cx="455.0438" cy="-255.376" rx="3.2" ry="3.2"/>
</g>
<!-- voorziening -->
<g id="node12" class="node">
<title>voorziening</title>
<g id="a_node12"><a xlink:href="../../tables/voorziening.html" xlink:title="voorziening" target="_top">
<polygon fill="#ffffff" stroke="transparent" points="465.5,-38.2 465.5,-187.2 574.5,-187.2 574.5,-38.2 465.5,-38.2"/>
<polygon fill="#f5f5f5" stroke="transparent" points="466,-163.7 466,-186.7 575,-186.7 575,-163.7 466,-163.7"/>
<polygon fill="none" stroke="#000000" points="466,-163.7 466,-186.7 575,-186.7 575,-163.7 466,-163.7"/>
<text text-anchor="start" x="471" y="-172.3" font-family="Helvetica,sans-Serif" font-weight="bold" font-size="11.00" fill="#000000">voorziening</text>
<text text-anchor="start" x="540.0437" y="-171.8" font-family="Helvetica,sans-Serif" font-size="11.00" fill="#000000">[table]</text>
<polygon fill="none" stroke="#000000" points="466,-141.7 466,-163.7 575,-163.7 575,-141.7 466,-141.7"/>
<image xlink:href="../../images/primaryKeys.png" width="11px" height="12px" preserveAspectRatio="xMinYMin meet" x="471" y="-158.7"/>
<text text-anchor="start" x="486" y="-148.8" font-family="Helvetica,sans-Serif" font-size="11.00" fill="#000000">uuid</text>
<polygon fill="#ffffff" stroke="transparent" points="466,-119.7 466,-141.7 575,-141.7 575,-119.7 466,-119.7"/>
<polygon fill="none" stroke="#000000" points="466,-119.7 466,-141.7 575,-141.7 575,-119.7 466,-119.7"/>
<text text-anchor="start" x="486" y="-126.8" font-family="Helvetica,sans-Serif" font-size="11.00" fill="#000000">geom</text>
<polygon fill="#ffffff" stroke="transparent" points="466,-97.7 466,-119.7 575,-119.7 575,-97.7 466,-97.7"/>
<polygon fill="none" stroke="#000000" points="466,-97.7 466,-119.7 575,-119.7 575,-97.7 466,-97.7"/>
<image xlink:href="../../images/foreignKeys.png" width="11px" height="12px" preserveAspectRatio="xMinYMin meet" x="471" y="-114.7"/>
<text text-anchor="start" x="486" y="-104.8" font-family="Helvetica,sans-Serif" font-size="11.00" fill="#000000">object_uuid</text>
<polygon fill="none" stroke="#000000" points="466,-75.7 466,-97.7 575,-97.7 575,-75.7 466,-75.7"/>
<image xlink:href="../../images/foreignKeys.png" width="11px" height="12px" preserveAspectRatio="xMinYMin meet" x="471" y="-92.7"/>
<text text-anchor="start" x="486" y="-82.8" font-family="Helvetica,sans-Serif" font-size="11.00" fill="#000000">symbool_id</text>
<polygon fill="none" stroke="#000000" points="466,-56.7 466,-75.7 575,-75.7 575,-56.7 466,-56.7"/>
<text text-anchor="start" x="469" y="-62.8" font-family="Helvetica,sans-Serif" font-size="11.00" fill="#000000">...</text>
<polygon fill="#ffffff" stroke="transparent" points="466,-37.7 466,-56.7 519,-56.7 519,-37.7 466,-37.7"/>
<polygon fill="none" stroke="#000000" points="466,-37.7 466,-56.7 519,-56.7 519,-37.7 466,-37.7"/>
<text text-anchor="start" x="469" y="-43.8" font-family="Helvetica,sans-Serif" font-size="11.00" fill="#000000">&lt; 2</text>
<polygon fill="#ffffff" stroke="transparent" points="519,-37.7 519,-56.7 547,-56.7 547,-37.7 519,-37.7"/>
<polygon fill="none" stroke="#000000" points="519,-37.7 519,-56.7 547,-56.7 547,-37.7 519,-37.7"/>
<text text-anchor="start" x="537.8862" y="-43.8" font-family="Helvetica,sans-Serif" font-size="11.00" fill="#000000"> &#160;</text>
<polygon fill="#ffffff" stroke="transparent" points="547,-37.7 547,-56.7 575,-56.7 575,-37.7 547,-37.7"/>
<polygon fill="none" stroke="#000000" points="547,-37.7 547,-56.7 575,-56.7 575,-37.7 547,-37.7"/>
<text text-anchor="start" x="565.8862" y="-43.8" font-family="Helvetica,sans-Serif" font-size="11.00" fill="#000000"> &#160;</text>
</a>
</g>
</g>
<!-- voorziening&#45;&gt;object -->
<g id="edge11" class="edge">
<title>voorziening:w&#45;&gt;object:e</title>
<path fill="none" stroke="#000000" d="M451.737,-112.1045C370.8649,-155.5739 510.7652,-600.7 406,-600.7"/>
<polygon fill="#000000" stroke="#000000" points="458.2186,-110.5574 466.8358,-112.2016 462.1093,-109.6287 466,-108.7 466,-108.7 466,-108.7 462.1093,-109.6287 465.1642,-105.1984 458.2186,-110.5574 458.2186,-110.5574"/>
<ellipse fill="none" stroke="#000000" cx="455.106" cy="-111.3004" rx="3.2" ry="3.2"/>
</g>
<!-- roi.symbool -->
<g id="node13" class="node">
<title>roi.symbool</title>
<g id="a_node13"><a xlink:href="../../../roi/tables/symbool.html" xlink:title="roi.symbool" target="_top">
<polygon fill="#ffffff" stroke="transparent" points="231.5,-58.2 231.5,-119.2 338.5,-119.2 338.5,-58.2 231.5,-58.2"/>
<polygon fill="#f5f5f5" stroke="transparent" points="232,-95.7 232,-118.7 339,-118.7 339,-95.7 232,-95.7"/>
<polygon fill="none" stroke="#000000" points="232,-95.7 232,-118.7 339,-118.7 339,-95.7 232,-95.7"/>
<text text-anchor="start" x="237" y="-104.3" font-family="Helvetica,sans-Serif" font-weight="bold" font-size="11.00" fill="#000000">roi.symbool</text>
<text text-anchor="start" x="304.5219" y="-103.8" font-family="Helvetica,sans-Serif" font-size="11.00" fill="#000000">[table]</text>
<polygon fill="none" stroke="#000000" points="232,-76.7 232,-95.7 339,-95.7 339,-76.7 232,-76.7"/>
<text text-anchor="start" x="235" y="-82.8" font-family="Helvetica,sans-Serif" font-size="11.00" fill="#000000">...</text>
<polygon fill="#ffffff" stroke="transparent" points="232,-57.7 232,-76.7 275,-76.7 275,-57.7 232,-57.7"/>
<polygon fill="none" stroke="#000000" points="232,-57.7 232,-76.7 275,-76.7 275,-57.7 232,-57.7"/>
<text text-anchor="start" x="235" y="-63.8" font-family="Helvetica,sans-Serif" font-size="11.00" fill="#000000"> &#160;</text>
<polygon fill="#ffffff" stroke="transparent" points="275,-57.7 275,-76.7 302,-76.7 302,-57.7 275,-57.7"/>
<polygon fill="none" stroke="#000000" points="275,-57.7 275,-76.7 302,-76.7 302,-57.7 275,-57.7"/>
<text text-anchor="start" x="292.8862" y="-63.8" font-family="Helvetica,sans-Serif" font-size="11.00" fill="#000000"> &#160;</text>
<polygon fill="#ffffff" stroke="transparent" points="302,-57.7 302,-76.7 339,-76.7 339,-57.7 302,-57.7"/>
<polygon fill="none" stroke="#000000" points="302,-57.7 302,-76.7 339,-76.7 339,-57.7 302,-57.7"/>
<text text-anchor="start" x="320.4053" y="-63.8" font-family="Helvetica,sans-Serif" font-size="11.00" fill="#000000">1 &gt;</text>
</a>
</g>
</g>
<!-- voorziening&#45;&gt;roi.symbool -->
<g id="edge12" class="edge">
<title>voorziening:w&#45;&gt;roi.symbool:e</title>
<path fill="none" stroke="#000000" d="M451.4601,-86.6763C406.607,-86.5248 390.2646,-85.7 339,-85.7"/>
<polygon fill="#000000" stroke="#000000" points="458,-86.6869 465.9941,-90.3 462,-86.6934 466,-86.7 466,-86.7 466,-86.7 462,-86.6934 466.0059,-83.1 458,-86.6869 458,-86.6869"/>
<ellipse fill="none" stroke="#000000" cx="454.8" cy="-86.6816" rx="3.2" ry="3.2"/>
</g>
</g>
</svg>
