<?xml version="1.0" encoding="UTF-8" standalone="no"?>
<!DOCTYPE svg PUBLIC "-//W3C//DTD SVG 1.1//EN"
 "http://www.w3.org/Graphics/SVG/1.1/DTD/svg11.dtd">
<!-- Generated by graphviz version 2.50.0 (0)
 -->
<!-- Title: twoDegreesRelationshipsDiagram Pages: 1 -->
<svg width="604pt" height="431pt"
 viewBox="0.00 0.00 604.00 431.00" xmlns="http://www.w3.org/2000/svg" xmlns:xlink="http://www.w3.org/1999/xlink">
<g id="graph0" class="graph" transform="scale(1 1) rotate(0) translate(4 427)">
<title>twoDegreesRelationshipsDiagram</title>
<polygon fill="#ffffff" stroke="transparent" points="-4,4 -4,-427 600,-427 600,4 -4,4"/>
<text text-anchor="middle" x="79.5" y="-7.2" font-family="Helvetica,sans-Serif" font-size="11.00">Generated by SchemaSpy</text>
<!-- bereikbaarheid -->
<g id="node1" class="node">
<title>bereikbaarheid</title>
<g id="a_node1"><a xlink:href="../../tables/bereikbaarheid.html" xlink:title="bereikbaarheid" target="_top">
<polygon fill="#ffffff" stroke="transparent" points="443,-361 443,-419 588,-419 588,-361 443,-361"/>
<polygon fill="#f5f5f5" stroke="transparent" points="443.5,-397 443.5,-419 588.5,-419 588.5,-397 443.5,-397"/>
<polygon fill="none" stroke="black" points="443.5,-397 443.5,-419 588.5,-419 588.5,-397 443.5,-397"/>
<text text-anchor="start" x="448.5" y="-406.2" font-family="Helvetica,sans-Serif" font-weight="bold" font-size="11.00">bereikbaarheid</text>
<text text-anchor="start" x="546.5" y="-405.2" font-family="Helvetica,sans-Serif" font-size="11.00">[table]</text>
<polygon fill="none" stroke="black" points="443.5,-379 443.5,-397 588.5,-397 588.5,-379 443.5,-379"/>
<text text-anchor="start" x="446.5" y="-385.2" font-family="Helvetica,sans-Serif" font-size="11.00">...</text>
<polygon fill="#ffffff" stroke="transparent" points="443.5,-361 443.5,-379 514.5,-379 514.5,-361 443.5,-361"/>
<polygon fill="none" stroke="black" points="443.5,-361 443.5,-379 514.5,-379 514.5,-361 443.5,-361"/>
<text text-anchor="start" x="446.5" y="-367.2" font-family="Helvetica,sans-Serif" font-size="11.00">&lt; 2</text>
<polygon fill="#ffffff" stroke="transparent" points="514.5,-361 514.5,-379 551.5,-379 551.5,-361 514.5,-361"/>
<polygon fill="none" stroke="black" points="514.5,-361 514.5,-379 551.5,-379 551.5,-361 514.5,-361"/>
<text text-anchor="start" x="540.5" y="-367.2" font-family="Helvetica,sans-Serif" font-size="11.00"> &#160;</text>
<polygon fill="#ffffff" stroke="transparent" points="551.5,-361 551.5,-379 588.5,-379 588.5,-361 551.5,-361"/>
<polygon fill="none" stroke="black" points="551.5,-361 551.5,-379 588.5,-379 588.5,-361 551.5,-361"/>
<text text-anchor="start" x="577.5" y="-367.2" font-family="Helvetica,sans-Serif" font-size="11.00"> &#160;</text>
</a>
</g>
</g>
<!-- object -->
<g id="node2" class="node">
<title>object</title>
<g id="a_node2"><a xlink:href="../../tables/object.html" xlink:title="object" target="_top">
<polygon fill="#ffffff" stroke="transparent" points="265,-95 265,-263 394,-263 394,-95 265,-95"/>
<polygon fill="#f5f5f5" stroke="transparent" points="265.5,-241 265.5,-263 394.5,-263 394.5,-241 265.5,-241"/>
<polygon fill="none" stroke="black" points="265.5,-241 265.5,-263 394.5,-263 394.5,-241 265.5,-241"/>
<text text-anchor="start" x="270.5" y="-250.2" font-family="Helvetica,sans-Serif" font-weight="bold" font-size="11.00">object</text>
<text text-anchor="start" x="352.5" y="-249.2" font-family="Helvetica,sans-Serif" font-size="11.00">[table]</text>
<polygon fill="none" stroke="black" points="265.5,-219 265.5,-241 394.5,-241 394.5,-219 265.5,-219"/>
<image xlink:href="../../images/primaryKeys.png" width="11px" height="12px" preserveAspectRatio="xMinYMin meet" x="270.5" y="-236"/>
<text text-anchor="start" x="285.5" y="-227.2" font-family="Helvetica,sans-Serif" font-size="11.00">uuid</text>
<polygon fill="#ffffff" stroke="transparent" points="265.5,-197 265.5,-219 394.5,-219 394.5,-197 265.5,-197"/>
<polygon fill="none" stroke="black" points="265.5,-197 265.5,-219 394.5,-219 394.5,-197 265.5,-197"/>
<text text-anchor="start" x="285.5" y="-205.2" font-family="Helvetica,sans-Serif" font-size="11.00">geom</text>
<polygon fill="#ffffff" stroke="transparent" points="265.5,-175 265.5,-197 394.5,-197 394.5,-175 265.5,-175"/>
<polygon fill="none" stroke="black" points="265.5,-175 265.5,-197 394.5,-197 394.5,-175 265.5,-175"/>
<text text-anchor="start" x="285.5" y="-183.2" font-family="Helvetica,sans-Serif" font-size="11.00">revisie_frequentie</text>
<polygon fill="#ffffff" stroke="transparent" points="265.5,-153 265.5,-175 394.5,-175 394.5,-153 265.5,-153"/>
<polygon fill="none" stroke="black" points="265.5,-153 265.5,-175 394.5,-175 394.5,-153 265.5,-153"/>
<image xlink:href="../../images/foreignKeys.png" width="11px" height="12px" preserveAspectRatio="xMinYMin meet" x="270.5" y="-170"/>
<text text-anchor="start" x="285.5" y="-161.2" font-family="Helvetica,sans-Serif" font-size="11.00">fase_id</text>
<polygon fill="#ffffff" stroke="transparent" points="265.5,-131 265.5,-153 394.5,-153 394.5,-131 265.5,-131"/>
<polygon fill="none" stroke="black" points="265.5,-131 265.5,-153 394.5,-153 394.5,-131 265.5,-131"/>
<image xlink:href="../../images/foreignKeys.png" width="11px" height="12px" preserveAspectRatio="xMinYMin meet" x="270.5" y="-148"/>
<text text-anchor="start" x="285.5" y="-139.2" font-family="Helvetica,sans-Serif" font-size="11.00">object_type_id</text>
<polygon fill="none" stroke="black" points="265.5,-113 265.5,-131 394.5,-131 394.5,-113 265.5,-113"/>
<text text-anchor="start" x="268.5" y="-119.2" font-family="Helvetica,sans-Serif" font-size="11.00">...</text>
<polygon fill="#ffffff" stroke="transparent" points="265.5,-95 265.5,-113 322.5,-113 322.5,-95 265.5,-95"/>
<polygon fill="none" stroke="black" points="265.5,-95 265.5,-113 322.5,-113 322.5,-95 265.5,-95"/>
<text text-anchor="start" x="268.5" y="-101.2" font-family="Helvetica,sans-Serif" font-size="11.00">&lt; 2</text>
<polygon fill="#ffffff" stroke="transparent" points="322.5,-95 322.5,-113 352.5,-113 352.5,-95 322.5,-95"/>
<polygon fill="none" stroke="black" points="322.5,-95 322.5,-113 352.5,-113 352.5,-95 322.5,-95"/>
<text text-anchor="start" x="341.5" y="-101.2" font-family="Helvetica,sans-Serif" font-size="11.00"> &#160;</text>
<polygon fill="#ffffff" stroke="transparent" points="352.5,-95 352.5,-113 394.5,-113 394.5,-95 352.5,-95"/>
<polygon fill="none" stroke="black" points="352.5,-95 352.5,-113 394.5,-113 394.5,-95 352.5,-95"/>
<text text-anchor="start" x="371.5" y="-101.2" font-family="Helvetica,sans-Serif" font-size="11.00">5 &gt;</text>
</a>
</g>
</g>
<!-- bereikbaarheid&#45;&gt;object -->
<g id="edge1" class="edge">
<title>bereikbaarheid:w&#45;&gt;object:e</title>
<path fill="none" stroke="black" d="M428.33,-385.26C383.73,-364.28 463.04,-230 395.5,-230"/>
<polygon fill="black" stroke="black" points="434.65,-386.48 441.82,-391.53 438.57,-387.24 442.5,-388 442.5,-388 442.5,-388 438.57,-387.24 443.18,-384.47 434.65,-386.48 434.65,-386.48"/>
<ellipse fill="none" stroke="black" cx="431.5" cy="-385.87" rx="3.2" ry="3.2"/>
</g>
<!-- roi.fase -->
<g id="node5" class="node">
<title>roi.fase</title>
<g id="a_node5"><a xlink:href="../../../roi/tables/fase.html" xlink:title="roi.fase" target="_top">
<polygon fill="#ffffff" stroke="transparent" points="62.5,-168 62.5,-226 161.5,-226 161.5,-168 62.5,-168"/>
<polygon fill="#f5f5f5" stroke="transparent" points="63,-204 63,-226 162,-226 162,-204 63,-204"/>
<polygon fill="none" stroke="black" points="63,-204 63,-226 162,-226 162,-204 63,-204"/>
<text text-anchor="start" x="68" y="-213.2" font-family="Helvetica,sans-Serif" font-weight="bold" font-size="11.00">roi.fase</text>
<text text-anchor="start" x="120" y="-212.2" font-family="Helvetica,sans-Serif" font-size="11.00">[table]</text>
<polygon fill="none" stroke="black" points="63,-186 63,-204 162,-204 162,-186 63,-186"/>
<text text-anchor="start" x="66" y="-192.2" font-family="Helvetica,sans-Serif" font-size="11.00">...</text>
<polygon fill="#ffffff" stroke="transparent" points="63,-168 63,-186 99,-186 99,-168 63,-168"/>
<polygon fill="none" stroke="black" points="63,-168 63,-186 99,-186 99,-168 63,-168"/>
<text text-anchor="start" x="66" y="-174.2" font-family="Helvetica,sans-Serif" font-size="11.00"> &#160;</text>
<polygon fill="#ffffff" stroke="transparent" points="99,-168 99,-186 124,-186 124,-168 99,-168"/>
<polygon fill="none" stroke="black" points="99,-168 99,-186 124,-186 124,-168 99,-168"/>
<text text-anchor="start" x="113" y="-174.2" font-family="Helvetica,sans-Serif" font-size="11.00"> &#160;</text>
<polygon fill="#ffffff" stroke="transparent" points="124,-168 124,-186 162,-186 162,-168 124,-168"/>
<polygon fill="none" stroke="black" points="124,-168 124,-186 162,-186 162,-168 124,-168"/>
<text text-anchor="start" x="139" y="-174.2" font-family="Helvetica,sans-Serif" font-size="11.00">1 &gt;</text>
</a>
</g>
</g>
<!-- object&#45;&gt;roi.fase -->
<g id="edge4" class="edge">
<title>object:w&#45;&gt;roi.fase:e</title>
<path fill="none" stroke="black" d="M249.89,-165.1C215.2,-170.63 204.82,-195 163,-195"/>
<polygon fill="black" stroke="black" points="256.52,-164.6 264.77,-167.59 260.51,-164.3 264.5,-164 264.5,-164 264.5,-164 260.51,-164.3 264.23,-160.41 256.52,-164.6 256.52,-164.6"/>
<ellipse fill="none" stroke="black" cx="253.33" cy="-164.84" rx="3.2" ry="3.2"/>
</g>
<!-- object_type -->
<g id="node6" class="node">
<title>object_type</title>
<g id="a_node6"><a xlink:href="../../tables/object_type.html" xlink:title="object_type" target="_top">
<polygon fill="#ffffff" stroke="transparent" points="8,-37 8,-147 216,-147 216,-37 8,-37"/>
<polygon fill="#f5f5f5" stroke="transparent" points="10,-123 10,-145 214,-145 214,-123 10,-123"/>
<polygon fill="none" stroke="black" points="10,-123 10,-145 214,-145 214,-123 10,-123"/>
<text text-anchor="start" x="15" y="-132.2" font-family="Helvetica,sans-Serif" font-weight="bold" font-size="11.00">object_type</text>
<text text-anchor="start" x="172" y="-131.2" font-family="Helvetica,sans-Serif" font-size="11.00">[table]</text>
<polygon fill="none" stroke="black" points="10,-101 10,-123 108,-123 108,-101 10,-101"/>
<image xlink:href="../../images/primaryKeys.png" width="11px" height="12px" preserveAspectRatio="xMinYMin meet" x="15" y="-118"/>
<text text-anchor="start" x="30" y="-109.2" font-family="Helvetica,sans-Serif" font-size="11.00">id</text>
<polygon fill="none" stroke="black" points="108,-101 108,-123 214,-123 214,-101 108,-101"/>
<text text-anchor="start" x="111" y="-109.2" font-family="Helvetica,sans-Serif" font-size="11.00">int2[5]</text>
<polygon fill="none" stroke="black" points="10,-79 10,-101 108,-101 108,-79 10,-79"/>
<text text-anchor="start" x="30" y="-87.2" font-family="Helvetica,sans-Serif" font-size="11.00">naam</text>
<polygon fill="none" stroke="black" points="108,-79 108,-101 214,-101 214,-79 108,-79"/>
<text text-anchor="start" x="111" y="-87.2" font-family="Helvetica,sans-Serif" font-size="11.00">text[2147483647]</text>
<polygon fill="none" stroke="black" points="10,-57 10,-79 108,-79 108,-57 10,-57"/>
<text text-anchor="start" x="30" y="-65.2" font-family="Helvetica,sans-Serif" font-size="11.00">omschrijving</text>
<polygon fill="none" stroke="black" points="108,-57 108,-79 214,-79 214,-57 108,-57"/>
<text text-anchor="start" x="111" y="-65.2" font-family="Helvetica,sans-Serif" font-size="11.00">text[2147483647]</text>
<polygon fill="#ffffff" stroke="transparent" points="10,-39 10,-57 65,-57 65,-39 10,-39"/>
<polygon fill="none" stroke="black" points="10,-39 10,-57 65,-57 65,-39 10,-39"/>
<text text-anchor="start" x="13" y="-45.2" font-family="Helvetica,sans-Serif" font-size="11.00">&lt; 0</text>
<polygon fill="#ffffff" stroke="transparent" points="65,-39 65,-57 108,-57 108,-39 65,-39"/>
<polygon fill="none" stroke="black" points="65,-39 65,-57 108,-57 108,-39 65,-39"/>
<text text-anchor="start" x="97" y="-45.2" font-family="Helvetica,sans-Serif" font-size="11.00"> &#160;</text>
<polygon fill="#ffffff" stroke="transparent" points="108,-39 108,-57 214,-57 214,-39 108,-39"/>
<polygon fill="none" stroke="black" points="108,-39 108,-57 214,-57 214,-39 108,-39"/>
<text text-anchor="start" x="191" y="-45.2" font-family="Helvetica,sans-Serif" font-size="11.00">1 &gt;</text>
<polygon fill="none" stroke="black" stroke-width="2" points="9,-38 9,-146 215,-146 215,-38 9,-38"/>
</a>
</g>
</g>
<!-- object&#45;&gt;object_type -->
<g id="edge5" class="edge">
<title>object:w&#45;&gt;object_type:e</title>
<path fill="none" stroke="black" d="M250.63,-138.08C238.24,-129.95 234.9,-112 215,-112"/>
<polygon fill="black" stroke="black" points="256.8,-139.82 263.52,-145.46 260.65,-140.91 264.5,-142 264.5,-142 264.5,-142 260.65,-140.91 265.48,-138.54 256.8,-139.82 256.8,-139.82"/>
<ellipse fill="none" stroke="black" cx="253.72" cy="-138.95" rx="3.2" ry="3.2"/>
</g>
<!-- label -->
<g id="node3" class="node">
<title>label</title>
<g id="a_node3"><a xlink:href="../../tables/label.html" xlink:title="label" target="_top">
<polygon fill="#ffffff" stroke="transparent" points="474.5,-282 474.5,-340 556.5,-340 556.5,-282 474.5,-282"/>
<polygon fill="#f5f5f5" stroke="transparent" points="474.5,-318 474.5,-340 556.5,-340 556.5,-318 474.5,-318"/>
<polygon fill="none" stroke="black" points="474.5,-318 474.5,-340 556.5,-340 556.5,-318 474.5,-318"/>
<text text-anchor="start" x="479.5" y="-327.2" font-family="Helvetica,sans-Serif" font-weight="bold" font-size="11.00">label</text>
<text text-anchor="start" x="514.5" y="-326.2" font-family="Helvetica,sans-Serif" font-size="11.00">[table]</text>
<polygon fill="none" stroke="black" points="474.5,-300 474.5,-318 556.5,-318 556.5,-300 474.5,-300"/>
<text text-anchor="start" x="477.5" y="-306.2" font-family="Helvetica,sans-Serif" font-size="11.00">...</text>
<polygon fill="#ffffff" stroke="transparent" points="474.5,-282 474.5,-300 514.5,-300 514.5,-282 474.5,-282"/>
<polygon fill="none" stroke="black" points="474.5,-282 474.5,-300 514.5,-300 514.5,-282 474.5,-282"/>
<text text-anchor="start" x="477.5" y="-288.2" font-family="Helvetica,sans-Serif" font-size="11.00">&lt; 2</text>
<polygon fill="#ffffff" stroke="transparent" points="514.5,-282 514.5,-300 535.5,-300 535.5,-282 514.5,-282"/>
<polygon fill="none" stroke="black" points="514.5,-282 514.5,-300 535.5,-300 535.5,-282 514.5,-282"/>
<text text-anchor="start" x="524.5" y="-288.2" font-family="Helvetica,sans-Serif" font-size="11.00"> &#160;</text>
<polygon fill="#ffffff" stroke="transparent" points="535.5,-282 535.5,-300 556.5,-300 556.5,-282 535.5,-282"/>
<polygon fill="none" stroke="black" points="535.5,-282 535.5,-300 556.5,-300 556.5,-282 535.5,-282"/>
<text text-anchor="start" x="545.5" y="-288.2" font-family="Helvetica,sans-Serif" font-size="11.00"> &#160;</text>
</a>
</g>
</g>
<!-- label&#45;&gt;object -->
<g id="edge2" class="edge">
<title>label:w&#45;&gt;object:e</title>
<path fill="none" stroke="black" d="M459.5,-305.39C449.52,-298.84 447.39,-284.52 435,-272 416.98,-253.78 421.13,-230 395.5,-230"/>
<polygon fill="black" stroke="black" points="465.75,-307 472.6,-312.49 469.63,-308 473.5,-309 473.5,-309 473.5,-309 469.63,-308 474.4,-305.51 465.75,-307 465.75,-307"/>
<ellipse fill="none" stroke="black" cx="462.66" cy="-306.2" rx="3.2" ry="3.2"/>
</g>
<!-- maatregel -->
<g id="node4" class="node">
<title>maatregel</title>
<g id="a_node4"><a xlink:href="../../tables/maatregel.html" xlink:title="maatregel" target="_top">
<polygon fill="#ffffff" stroke="transparent" points="458,-203 458,-261 573,-261 573,-203 458,-203"/>
<polygon fill="#f5f5f5" stroke="transparent" points="458.5,-239 458.5,-261 573.5,-261 573.5,-239 458.5,-239"/>
<polygon fill="none" stroke="black" points="458.5,-239 458.5,-261 573.5,-261 573.5,-239 458.5,-239"/>
<text text-anchor="start" x="463.5" y="-248.2" font-family="Helvetica,sans-Serif" font-weight="bold" font-size="11.00">maatregel</text>
<text text-anchor="start" x="531.5" y="-247.2" font-family="Helvetica,sans-Serif" font-size="11.00">[table]</text>
<polygon fill="none" stroke="black" points="458.5,-221 458.5,-239 573.5,-239 573.5,-221 458.5,-221"/>
<text text-anchor="start" x="461.5" y="-227.2" font-family="Helvetica,sans-Serif" font-size="11.00">...</text>
<polygon fill="#ffffff" stroke="transparent" points="458.5,-203 458.5,-221 514.5,-221 514.5,-203 458.5,-203"/>
<polygon fill="none" stroke="black" points="458.5,-203 458.5,-221 514.5,-221 514.5,-203 458.5,-203"/>
<text text-anchor="start" x="461.5" y="-209.2" font-family="Helvetica,sans-Serif" font-size="11.00">&lt; 2</text>
<polygon fill="#ffffff" stroke="transparent" points="514.5,-203 514.5,-221 543.5,-221 543.5,-203 514.5,-203"/>
<polygon fill="none" stroke="black" points="514.5,-203 514.5,-221 543.5,-221 543.5,-203 514.5,-203"/>
<text text-anchor="start" x="532.5" y="-209.2" font-family="Helvetica,sans-Serif" font-size="11.00"> &#160;</text>
<polygon fill="#ffffff" stroke="transparent" points="543.5,-203 543.5,-221 573.5,-221 573.5,-203 543.5,-203"/>
<polygon fill="none" stroke="black" points="543.5,-203 543.5,-221 573.5,-221 573.5,-203 543.5,-203"/>
<text text-anchor="start" x="562.5" y="-209.2" font-family="Helvetica,sans-Serif" font-size="11.00"> &#160;</text>
</a>
</g>
</g>
<!-- maatregel&#45;&gt;object -->
<g id="edge3" class="edge">
<title>maatregel:w&#45;&gt;object:e</title>
<path fill="none" stroke="black" d="M442.92,-230C426.29,-230 417.46,-230 395.5,-230"/>
<polygon fill="black" stroke="black" points="449.5,-230 457.5,-233.6 453.5,-230 457.5,-230 457.5,-230 457.5,-230 453.5,-230 457.5,-226.4 449.5,-230 449.5,-230"/>
<ellipse fill="none" stroke="black" cx="446.3" cy="-230" rx="3.2" ry="3.2"/>
</g>
<!-- sector -->
<g id="node7" class="node">
<title>sector</title>
<g id="a_node7"><a xlink:href="../../tables/sector.html" xlink:title="sector" target="_top">
<polygon fill="#ffffff" stroke="transparent" points="470,-124 470,-182 561,-182 561,-124 470,-124"/>
<polygon fill="#f5f5f5" stroke="transparent" points="470.5,-160 470.5,-182 561.5,-182 561.5,-160 470.5,-160"/>
<polygon fill="none" stroke="black" points="470.5,-160 470.5,-182 561.5,-182 561.5,-160 470.5,-160"/>
<text text-anchor="start" x="475.5" y="-169.2" font-family="Helvetica,sans-Serif" font-weight="bold" font-size="11.00">sector</text>
<text text-anchor="start" x="519.5" y="-168.2" font-family="Helvetica,sans-Serif" font-size="11.00">[table]</text>
<polygon fill="none" stroke="black" points="470.5,-142 470.5,-160 561.5,-160 561.5,-142 470.5,-142"/>
<text text-anchor="start" x="473.5" y="-148.2" font-family="Helvetica,sans-Serif" font-size="11.00">...</text>
<polygon fill="#ffffff" stroke="transparent" points="470.5,-124 470.5,-142 514.5,-142 514.5,-124 470.5,-124"/>
<polygon fill="none" stroke="black" points="470.5,-124 470.5,-142 514.5,-142 514.5,-124 470.5,-124"/>
<text text-anchor="start" x="473.5" y="-130.2" font-family="Helvetica,sans-Serif" font-size="11.00">&lt; 2</text>
<polygon fill="#ffffff" stroke="transparent" points="514.5,-124 514.5,-142 537.5,-142 537.5,-124 514.5,-124"/>
<polygon fill="none" stroke="black" points="514.5,-124 514.5,-142 537.5,-142 537.5,-124 514.5,-124"/>
<text text-anchor="start" x="526.5" y="-130.2" font-family="Helvetica,sans-Serif" font-size="11.00"> &#160;</text>
<polygon fill="#ffffff" stroke="transparent" points="537.5,-124 537.5,-142 561.5,-142 561.5,-124 537.5,-124"/>
<polygon fill="none" stroke="black" points="537.5,-124 537.5,-142 561.5,-142 561.5,-124 537.5,-124"/>
<text text-anchor="start" x="550.5" y="-130.2" font-family="Helvetica,sans-Serif" font-size="11.00"> &#160;</text>
</a>
</g>
</g>
<!-- sector&#45;&gt;object -->
<g id="edge6" class="edge">
<title>sector:w&#45;&gt;object:e</title>
<path fill="none" stroke="black" d="M455.26,-154C425.63,-168.43 437.97,-230 395.5,-230"/>
<polygon fill="black" stroke="black" points="461.67,-152.65 470.24,-154.52 465.59,-151.82 469.5,-151 469.5,-151 469.5,-151 465.59,-151.82 468.76,-147.48 461.67,-152.65 461.67,-152.65"/>
<ellipse fill="none" stroke="black" cx="458.54" cy="-153.31" rx="3.2" ry="3.2"/>
</g>
<!-- voorziening -->
<g id="node8" class="node">
<title>voorziening</title>
<g id="a_node8"><a xlink:href="../../tables/voorziening.html" xlink:title="voorziening" target="_top">
<polygon fill="#ffffff" stroke="transparent" points="453.5,-45 453.5,-103 577.5,-103 577.5,-45 453.5,-45"/>
<polygon fill="#f5f5f5" stroke="transparent" points="453.5,-81 453.5,-103 577.5,-103 577.5,-81 453.5,-81"/>
<polygon fill="none" stroke="black" points="453.5,-81 453.5,-103 577.5,-103 577.5,-81 453.5,-81"/>
<text text-anchor="start" x="458.5" y="-90.2" font-family="Helvetica,sans-Serif" font-weight="bold" font-size="11.00">voorziening</text>
<text text-anchor="start" x="535.5" y="-89.2" font-family="Helvetica,sans-Serif" font-size="11.00">[table]</text>
<polygon fill="none" stroke="black" points="453.5,-63 453.5,-81 577.5,-81 577.5,-63 453.5,-63"/>
<text text-anchor="start" x="456.5" y="-69.2" font-family="Helvetica,sans-Serif" font-size="11.00">...</text>
<polygon fill="#ffffff" stroke="transparent" points="453.5,-45 453.5,-63 514.5,-63 514.5,-45 453.5,-45"/>
<polygon fill="none" stroke="black" points="453.5,-45 453.5,-63 514.5,-63 514.5,-45 453.5,-45"/>
<text text-anchor="start" x="456.5" y="-51.2" font-family="Helvetica,sans-Serif" font-size="11.00">&lt; 2</text>
<polygon fill="#ffffff" stroke="transparent" points="514.5,-45 514.5,-63 545.5,-63 545.5,-45 514.5,-45"/>
<polygon fill="none" stroke="black" points="514.5,-45 514.5,-63 545.5,-63 545.5,-45 514.5,-45"/>
<text text-anchor="start" x="534.5" y="-51.2" font-family="Helvetica,sans-Serif" font-size="11.00"> &#160;</text>
<polygon fill="#ffffff" stroke="transparent" points="545.5,-45 545.5,-63 577.5,-63 577.5,-45 545.5,-45"/>
<polygon fill="none" stroke="black" points="545.5,-45 545.5,-63 577.5,-63 577.5,-45 545.5,-45"/>
<text text-anchor="start" x="566.5" y="-51.2" font-family="Helvetica,sans-Serif" font-size="11.00"> &#160;</text>
</a>
</g>
</g>
<!-- voorziening&#45;&gt;object -->
<g id="edge7" class="edge">
<title>voorziening:w&#45;&gt;object:e</title>
<path fill="none" stroke="black" d="M438.2,-74.61C390.94,-95.15 464.47,-230 395.5,-230"/>
<polygon fill="black" stroke="black" points="444.63,-73.44 453.15,-75.54 448.57,-72.72 452.5,-72 452.5,-72 452.5,-72 448.57,-72.72 451.85,-68.46 444.63,-73.44 444.63,-73.44"/>
<ellipse fill="none" stroke="black" cx="441.48" cy="-74.01" rx="3.2" ry="3.2"/>
</g>
</g>
</svg>
