<?xml version="1.0" encoding="UTF-8" standalone="no"?>
<!DOCTYPE svg PUBLIC "-//W3C//DTD SVG 1.1//EN"
 "http://www.w3.org/Graphics/SVG/1.1/DTD/svg11.dtd">
<!-- Generated by graphviz version 2.40.1 (20161225.0304)
 -->
<!-- Title: twoDegreesRelationshipsDiagram Pages: 1 -->
<svg width="582pt" height="645pt"
 viewBox="0.00 0.00 582.00 644.70" xmlns="http://www.w3.org/2000/svg" xmlns:xlink="http://www.w3.org/1999/xlink">
<g id="graph0" class="graph" transform="scale(1 1) rotate(0) translate(4 640.7)">
<title>twoDegreesRelationshipsDiagram</title>
<polygon fill="#ffffff" stroke="transparent" points="-4,4 -4,-640.7 578,-640.7 578,4 -4,4"/>
<text text-anchor="middle" x="72.4936" y="-7.3" font-family="Helvetica,sans-Serif" font-size="11.00" fill="#000000">Generated by SchemaSpy</text>
<!-- bereikbaarheid -->
<g id="node1" class="node">
<title>bereikbaarheid</title>
<g id="a_node1"><a xlink:href="../../tables/bereikbaarheid.html" xlink:title="bereikbaarheid" target="_top">
<polygon fill="#ffffff" stroke="transparent" points="388,-571.7 388,-632.7 512,-632.7 512,-571.7 388,-571.7"/>
<polygon fill="#f5f5f5" stroke="transparent" points="388,-609.2 388,-632.2 512,-632.2 512,-609.2 388,-609.2"/>
<polygon fill="none" stroke="#000000" points="388,-609.2 388,-632.2 512,-632.2 512,-609.2 388,-609.2"/>
<text text-anchor="start" x="393" y="-617.8" font-family="Helvetica,sans-Serif" font-weight="bold" font-size="11.00" fill="#000000">bereikbaarheid</text>
<text text-anchor="start" x="477.5219" y="-617.3" font-family="Helvetica,sans-Serif" font-size="11.00" fill="#000000">[table]</text>
<polygon fill="none" stroke="#000000" points="388,-590.2 388,-609.2 512,-609.2 512,-590.2 388,-590.2"/>
<text text-anchor="start" x="391" y="-596.3" font-family="Helvetica,sans-Serif" font-size="11.00" fill="#000000">...</text>
<polygon fill="#ffffff" stroke="transparent" points="388,-571.2 388,-590.2 448,-590.2 448,-571.2 388,-571.2"/>
<polygon fill="none" stroke="#000000" points="388,-571.2 388,-590.2 448,-590.2 448,-571.2 388,-571.2"/>
<text text-anchor="start" x="391" y="-577.3" font-family="Helvetica,sans-Serif" font-size="11.00" fill="#000000">&lt; 2</text>
<polygon fill="#ffffff" stroke="transparent" points="448,-571.2 448,-590.2 480,-590.2 480,-571.2 448,-571.2"/>
<polygon fill="none" stroke="#000000" points="448,-571.2 448,-590.2 480,-590.2 480,-571.2 448,-571.2"/>
<text text-anchor="start" x="470.8862" y="-577.3" font-family="Helvetica,sans-Serif" font-size="11.00" fill="#000000"> &#160;</text>
<polygon fill="#ffffff" stroke="transparent" points="480,-571.2 480,-590.2 512,-590.2 512,-571.2 480,-571.2"/>
<polygon fill="none" stroke="#000000" points="480,-571.2 480,-590.2 512,-590.2 512,-571.2 480,-571.2"/>
<text text-anchor="start" x="502.8862" y="-577.3" font-family="Helvetica,sans-Serif" font-size="11.00" fill="#000000"> &#160;</text>
</a>
</g>
</g>
<!-- object -->
<g id="node2" class="node">
<title>object</title>
<g id="a_node2"><a xlink:href="../../tables/object.html" xlink:title="object" target="_top">
<polygon fill="#ffffff" stroke="transparent" points="162,-298.7 162,-469.7 285,-469.7 285,-298.7 162,-298.7"/>
<polygon fill="#f5f5f5" stroke="transparent" points="162.5,-446.2 162.5,-469.2 285.5,-469.2 285.5,-446.2 162.5,-446.2"/>
<polygon fill="none" stroke="#000000" points="162.5,-446.2 162.5,-469.2 285.5,-469.2 285.5,-446.2 162.5,-446.2"/>
<text text-anchor="start" x="167.5" y="-454.8" font-family="Helvetica,sans-Serif" font-weight="bold" font-size="11.00" fill="#000000">object</text>
<text text-anchor="start" x="250.5437" y="-454.3" font-family="Helvetica,sans-Serif" font-size="11.00" fill="#000000">[table]</text>
<polygon fill="none" stroke="#000000" points="162.5,-424.2 162.5,-446.2 285.5,-446.2 285.5,-424.2 162.5,-424.2"/>
<image xlink:href="../../images/primaryKeys.png" width="11px" height="12px" preserveAspectRatio="xMinYMin meet" x="167.5" y="-441.2"/>
<text text-anchor="start" x="182.5" y="-431.3" font-family="Helvetica,sans-Serif" font-size="11.00" fill="#000000">uuid</text>
<polygon fill="#ffffff" stroke="transparent" points="162.5,-402.2 162.5,-424.2 285.5,-424.2 285.5,-402.2 162.5,-402.2"/>
<polygon fill="none" stroke="#000000" points="162.5,-402.2 162.5,-424.2 285.5,-424.2 285.5,-402.2 162.5,-402.2"/>
<text text-anchor="start" x="182.5" y="-409.3" font-family="Helvetica,sans-Serif" font-size="11.00" fill="#000000">geom</text>
<polygon fill="#ffffff" stroke="transparent" points="162.5,-380.2 162.5,-402.2 285.5,-402.2 285.5,-380.2 162.5,-380.2"/>
<polygon fill="none" stroke="#000000" points="162.5,-380.2 162.5,-402.2 285.5,-402.2 285.5,-380.2 162.5,-380.2"/>
<text text-anchor="start" x="182.5" y="-387.3" font-family="Helvetica,sans-Serif" font-size="11.00" fill="#000000">revisie_frequentie</text>
<polygon fill="#ffffff" stroke="transparent" points="162.5,-358.2 162.5,-380.2 285.5,-380.2 285.5,-358.2 162.5,-358.2"/>
<polygon fill="none" stroke="#000000" points="162.5,-358.2 162.5,-380.2 285.5,-380.2 285.5,-358.2 162.5,-358.2"/>
<image xlink:href="../../images/foreignKeys.png" width="11px" height="12px" preserveAspectRatio="xMinYMin meet" x="167.5" y="-375.2"/>
<text text-anchor="start" x="182.5" y="-365.3" font-family="Helvetica,sans-Serif" font-size="11.00" fill="#000000">fase_id</text>
<polygon fill="#ffffff" stroke="transparent" points="162.5,-336.2 162.5,-358.2 285.5,-358.2 285.5,-336.2 162.5,-336.2"/>
<polygon fill="none" stroke="#000000" points="162.5,-336.2 162.5,-358.2 285.5,-358.2 285.5,-336.2 162.5,-336.2"/>
<image xlink:href="../../images/foreignKeys.png" width="11px" height="12px" preserveAspectRatio="xMinYMin meet" x="167.5" y="-353.2"/>
<text text-anchor="start" x="182.5" y="-343.3" font-family="Helvetica,sans-Serif" font-size="11.00" fill="#000000">object_type_id</text>
<polygon fill="none" stroke="#000000" points="162.5,-317.2 162.5,-336.2 285.5,-336.2 285.5,-317.2 162.5,-317.2"/>
<text text-anchor="start" x="165.5" y="-323.3" font-family="Helvetica,sans-Serif" font-size="11.00" fill="#000000">...</text>
<polygon fill="#ffffff" stroke="transparent" points="162.5,-298.2 162.5,-317.2 217.5,-317.2 217.5,-298.2 162.5,-298.2"/>
<polygon fill="none" stroke="#000000" points="162.5,-298.2 162.5,-317.2 217.5,-317.2 217.5,-298.2 162.5,-298.2"/>
<text text-anchor="start" x="165.5" y="-304.3" font-family="Helvetica,sans-Serif" font-size="11.00" fill="#000000">&lt; 2</text>
<polygon fill="#ffffff" stroke="transparent" points="217.5,-298.2 217.5,-317.2 246.5,-317.2 246.5,-298.2 217.5,-298.2"/>
<polygon fill="none" stroke="#000000" points="217.5,-298.2 217.5,-317.2 246.5,-317.2 246.5,-298.2 217.5,-298.2"/>
<text text-anchor="start" x="237.3862" y="-304.3" font-family="Helvetica,sans-Serif" font-size="11.00" fill="#000000"> &#160;</text>
<polygon fill="#ffffff" stroke="transparent" points="246.5,-298.2 246.5,-317.2 285.5,-317.2 285.5,-298.2 246.5,-298.2"/>
<polygon fill="none" stroke="#000000" points="246.5,-298.2 246.5,-317.2 285.5,-317.2 285.5,-298.2 246.5,-298.2"/>
<text text-anchor="start" x="266.9053" y="-304.3" font-family="Helvetica,sans-Serif" font-size="11.00" fill="#000000">5 &gt;</text>
</a>
</g>
</g>
<!-- bereikbaarheid&#45;&gt;object -->
<g id="edge1" class="edge">
<title>bereikbaarheid:w&#45;&gt;object:e</title>
<path fill="none" stroke="#000000" d="M373.4717,-598.1335C352.1283,-594.6098 342.6137,-582.3447 326,-561.2 289.6586,-514.9474 344.3218,-435.2 285.5,-435.2"/>
<polygon fill="#000000" stroke="#000000" points="380.0215,-598.6143 387.7364,-602.7903 384.0107,-598.9071 388,-599.2 388,-599.2 388,-599.2 384.0107,-598.9071 388.2636,-595.6097 380.0215,-598.6143 380.0215,-598.6143"/>
<ellipse fill="none" stroke="#000000" cx="376.8301" cy="-598.38" rx="3.2" ry="3.2"/>
</g>
<!-- roi.fase -->
<g id="node5" class="node">
<title>roi.fase</title>
<g id="a_node5"><a xlink:href="../../../roi/tables/fase.html" xlink:title="roi.fase" target="_top">
<polygon fill="#ffffff" stroke="transparent" points="20,-371.7 20,-432.7 101,-432.7 101,-371.7 20,-371.7"/>
<polygon fill="#f5f5f5" stroke="transparent" points="20.5,-409.2 20.5,-432.2 101.5,-432.2 101.5,-409.2 20.5,-409.2"/>
<polygon fill="none" stroke="#000000" points="20.5,-409.2 20.5,-432.2 101.5,-432.2 101.5,-409.2 20.5,-409.2"/>
<text text-anchor="start" x="25.5" y="-417.8" font-family="Helvetica,sans-Serif" font-weight="bold" font-size="11.00" fill="#000000">roi.fase</text>
<text text-anchor="start" x="67.0219" y="-417.3" font-family="Helvetica,sans-Serif" font-size="11.00" fill="#000000">[table]</text>
<polygon fill="none" stroke="#000000" points="20.5,-390.2 20.5,-409.2 101.5,-409.2 101.5,-390.2 20.5,-390.2"/>
<text text-anchor="start" x="23.5" y="-396.3" font-family="Helvetica,sans-Serif" font-size="11.00" fill="#000000">...</text>
<polygon fill="#ffffff" stroke="transparent" points="20.5,-371.2 20.5,-390.2 50.5,-390.2 50.5,-371.2 20.5,-371.2"/>
<polygon fill="none" stroke="#000000" points="20.5,-371.2 20.5,-390.2 50.5,-390.2 50.5,-371.2 20.5,-371.2"/>
<text text-anchor="start" x="23.5" y="-377.3" font-family="Helvetica,sans-Serif" font-size="11.00" fill="#000000"> &#160;</text>
<polygon fill="#ffffff" stroke="transparent" points="50.5,-371.2 50.5,-390.2 71.5,-390.2 71.5,-371.2 50.5,-371.2"/>
<polygon fill="none" stroke="#000000" points="50.5,-371.2 50.5,-390.2 71.5,-390.2 71.5,-371.2 50.5,-371.2"/>
<text text-anchor="start" x="62.3862" y="-377.3" font-family="Helvetica,sans-Serif" font-size="11.00" fill="#000000"> &#160;</text>
<polygon fill="#ffffff" stroke="transparent" points="71.5,-371.2 71.5,-390.2 101.5,-390.2 101.5,-371.2 71.5,-371.2"/>
<polygon fill="none" stroke="#000000" points="71.5,-371.2 71.5,-390.2 101.5,-390.2 101.5,-371.2 71.5,-371.2"/>
<text text-anchor="start" x="82.9053" y="-377.3" font-family="Helvetica,sans-Serif" font-size="11.00" fill="#000000">1 &gt;</text>
</a>
</g>
</g>
<!-- object&#45;&gt;roi.fase -->
<g id="edge4" class="edge">
<title>object:w&#45;&gt;roi.fase:e</title>
<path fill="none" stroke="#000000" d="M148.2406,-371.9686C131.03,-379.3953 126.0476,-399.2 101.5,-399.2"/>
<polygon fill="#000000" stroke="#000000" points="154.6467,-370.7248 163.1862,-372.734 158.5733,-369.9624 162.5,-369.2 162.5,-369.2 162.5,-369.2 158.5733,-369.9624 161.8138,-365.666 154.6467,-370.7248 154.6467,-370.7248"/>
<ellipse fill="none" stroke="#000000" cx="151.5053" cy="-371.3348" rx="3.2" ry="3.2"/>
</g>
<!-- object_type -->
<g id="node6" class="node">
<title>object_type</title>
<g id="a_node6"><a xlink:href="../../tables/object_type.html" xlink:title="object_type" target="_top">
<polygon fill="#ffffff" stroke="transparent" points="8,-289.7 8,-350.7 113,-350.7 113,-289.7 8,-289.7"/>
<polygon fill="#f5f5f5" stroke="transparent" points="8.5,-327.2 8.5,-350.2 113.5,-350.2 113.5,-327.2 8.5,-327.2"/>
<polygon fill="none" stroke="#000000" points="8.5,-327.2 8.5,-350.2 113.5,-350.2 113.5,-327.2 8.5,-327.2"/>
<text text-anchor="start" x="13.5" y="-335.8" font-family="Helvetica,sans-Serif" font-weight="bold" font-size="11.00" fill="#000000">object_type</text>
<text text-anchor="start" x="79.0219" y="-335.3" font-family="Helvetica,sans-Serif" font-size="11.00" fill="#000000">[table]</text>
<polygon fill="none" stroke="#000000" points="8.5,-308.2 8.5,-327.2 113.5,-327.2 113.5,-308.2 8.5,-308.2"/>
<text text-anchor="start" x="11.5" y="-314.3" font-family="Helvetica,sans-Serif" font-size="11.00" fill="#000000">...</text>
<polygon fill="#ffffff" stroke="transparent" points="8.5,-289.2 8.5,-308.2 50.5,-308.2 50.5,-289.2 8.5,-289.2"/>
<polygon fill="none" stroke="#000000" points="8.5,-289.2 8.5,-308.2 50.5,-308.2 50.5,-289.2 8.5,-289.2"/>
<text text-anchor="start" x="11.5" y="-295.3" font-family="Helvetica,sans-Serif" font-size="11.00" fill="#000000"> &#160;</text>
<polygon fill="#ffffff" stroke="transparent" points="50.5,-289.2 50.5,-308.2 77.5,-308.2 77.5,-289.2 50.5,-289.2"/>
<polygon fill="none" stroke="#000000" points="50.5,-289.2 50.5,-308.2 77.5,-308.2 77.5,-289.2 50.5,-289.2"/>
<text text-anchor="start" x="68.3862" y="-295.3" font-family="Helvetica,sans-Serif" font-size="11.00" fill="#000000"> &#160;</text>
<polygon fill="#ffffff" stroke="transparent" points="77.5,-289.2 77.5,-308.2 113.5,-308.2 113.5,-289.2 77.5,-289.2"/>
<polygon fill="none" stroke="#000000" points="77.5,-289.2 77.5,-308.2 113.5,-308.2 113.5,-289.2 77.5,-289.2"/>
<text text-anchor="start" x="94.9053" y="-295.3" font-family="Helvetica,sans-Serif" font-size="11.00" fill="#000000">1 &gt;</text>
</a>
</g>
</g>
<!-- object&#45;&gt;object_type -->
<g id="edge5" class="edge">
<title>object:w&#45;&gt;object_type:e</title>
<path fill="none" stroke="#000000" d="M148.384,-343.0286C136.4189,-334.7854 133.0504,-317.2 113.5,-317.2"/>
<polygon fill="#000000" stroke="#000000" points="154.828,-344.9328 161.4798,-350.6524 158.664,-346.0664 162.5,-347.2 162.5,-347.2 162.5,-347.2 158.664,-346.0664 163.5202,-343.7476 154.828,-344.9328 154.828,-344.9328"/>
<ellipse fill="none" stroke="#000000" cx="151.7591" cy="-344.026" rx="3.2" ry="3.2"/>
</g>
<!-- label -->
<g id="node3" class="node">
<title>label</title>
<g id="a_node3"><a xlink:href="../../tables/label.html" xlink:title="label" target="_top">
<polygon fill="#ffffff" stroke="transparent" points="417,-489.7 417,-550.7 483,-550.7 483,-489.7 417,-489.7"/>
<polygon fill="#f5f5f5" stroke="transparent" points="417,-527.2 417,-550.2 483,-550.2 483,-527.2 417,-527.2"/>
<polygon fill="none" stroke="#000000" points="417,-527.2 417,-550.2 483,-550.2 483,-527.2 417,-527.2"/>
<text text-anchor="start" x="421.8868" y="-535.8" font-family="Helvetica,sans-Serif" font-weight="bold" font-size="11.00" fill="#000000">label</text>
<text text-anchor="start" x="448.5219" y="-535.3" font-family="Helvetica,sans-Serif" font-size="11.00" fill="#000000">[table]</text>
<polygon fill="none" stroke="#000000" points="417,-508.2 417,-527.2 483,-527.2 483,-508.2 417,-508.2"/>
<text text-anchor="start" x="420" y="-514.3" font-family="Helvetica,sans-Serif" font-size="11.00" fill="#000000">...</text>
<polygon fill="#ffffff" stroke="transparent" points="417,-489.2 417,-508.2 448,-508.2 448,-489.2 417,-489.2"/>
<polygon fill="none" stroke="#000000" points="417,-489.2 417,-508.2 448,-508.2 448,-489.2 417,-489.2"/>
<text text-anchor="start" x="420" y="-495.3" font-family="Helvetica,sans-Serif" font-size="11.00" fill="#000000">&lt; 2</text>
<polygon fill="#ffffff" stroke="transparent" points="448,-489.2 448,-508.2 465,-508.2 465,-489.2 448,-489.2"/>
<polygon fill="none" stroke="#000000" points="448,-489.2 448,-508.2 465,-508.2 465,-489.2 448,-489.2"/>
<text text-anchor="start" x="455.8862" y="-495.3" font-family="Helvetica,sans-Serif" font-size="11.00" fill="#000000"> &#160;</text>
<polygon fill="#ffffff" stroke="transparent" points="465,-489.2 465,-508.2 483,-508.2 483,-489.2 465,-489.2"/>
<polygon fill="none" stroke="#000000" points="465,-489.2 465,-508.2 483,-508.2 483,-489.2 465,-489.2"/>
<text text-anchor="start" x="473.8862" y="-495.3" font-family="Helvetica,sans-Serif" font-size="11.00" fill="#000000"> &#160;</text>
</a>
</g>
</g>
<!-- label&#45;&gt;object -->
<g id="edge2" class="edge">
<title>label:w&#45;&gt;object:e</title>
<path fill="none" stroke="#000000" d="M402.4082,-516.6357C370.079,-513.9077 357.5481,-501.3051 326,-479.2 304.233,-463.9483 312.0786,-435.2 285.5,-435.2"/>
<polygon fill="#000000" stroke="#000000" points="409.006,-516.8908 416.8609,-520.7973 413.003,-517.0454 417,-517.2 417,-517.2 417,-517.2 413.003,-517.0454 417.1391,-513.6027 409.006,-516.8908 409.006,-516.8908"/>
<ellipse fill="none" stroke="#000000" cx="405.8084" cy="-516.7671" rx="3.2" ry="3.2"/>
</g>
<!-- maatregel -->
<g id="node4" class="node">
<title>maatregel</title>
<g id="a_node4"><a xlink:href="../../tables/maatregel.html" xlink:title="maatregel" target="_top">
<polygon fill="#ffffff" stroke="transparent" points="402.5,-407.7 402.5,-468.7 497.5,-468.7 497.5,-407.7 402.5,-407.7"/>
<polygon fill="#f5f5f5" stroke="transparent" points="403,-445.2 403,-468.2 498,-468.2 498,-445.2 403,-445.2"/>
<polygon fill="none" stroke="#000000" points="403,-445.2 403,-468.2 498,-468.2 498,-445.2 403,-445.2"/>
<text text-anchor="start" x="408" y="-453.8" font-family="Helvetica,sans-Serif" font-weight="bold" font-size="11.00" fill="#000000">maatregel</text>
<text text-anchor="start" x="463.5219" y="-453.3" font-family="Helvetica,sans-Serif" font-size="11.00" fill="#000000">[table]</text>
<polygon fill="none" stroke="#000000" points="403,-426.2 403,-445.2 498,-445.2 498,-426.2 403,-426.2"/>
<text text-anchor="start" x="406" y="-432.3" font-family="Helvetica,sans-Serif" font-size="11.00" fill="#000000">...</text>
<polygon fill="#ffffff" stroke="transparent" points="403,-407.2 403,-426.2 449,-426.2 449,-407.2 403,-407.2"/>
<polygon fill="none" stroke="#000000" points="403,-407.2 403,-426.2 449,-426.2 449,-407.2 403,-407.2"/>
<text text-anchor="start" x="406" y="-413.3" font-family="Helvetica,sans-Serif" font-size="11.00" fill="#000000">&lt; 2</text>
<polygon fill="#ffffff" stroke="transparent" points="449,-407.2 449,-426.2 473,-426.2 473,-407.2 449,-407.2"/>
<polygon fill="none" stroke="#000000" points="449,-407.2 449,-426.2 473,-426.2 473,-407.2 449,-407.2"/>
<text text-anchor="start" x="463.8862" y="-413.3" font-family="Helvetica,sans-Serif" font-size="11.00" fill="#000000"> &#160;</text>
<polygon fill="#ffffff" stroke="transparent" points="473,-407.2 473,-426.2 498,-426.2 498,-407.2 473,-407.2"/>
<polygon fill="none" stroke="#000000" points="473,-407.2 473,-426.2 498,-426.2 498,-407.2 473,-407.2"/>
<text text-anchor="start" x="488.8862" y="-413.3" font-family="Helvetica,sans-Serif" font-size="11.00" fill="#000000"> &#160;</text>
</a>
</g>
</g>
<!-- maatregel&#45;&gt;object -->
<g id="edge3" class="edge">
<title>maatregel:w&#45;&gt;object:e</title>
<path fill="none" stroke="#000000" d="M388.483,-435.2C347.7883,-435.2 332.5204,-435.2 285.5,-435.2"/>
<polygon fill="#000000" stroke="#000000" points="395,-435.2001 403,-438.8 399,-435.2 403,-435.2 403,-435.2 403,-435.2 399,-435.2 403,-431.6 395,-435.2001 395,-435.2001"/>
<ellipse fill="none" stroke="#000000" cx="391.8" cy="-435.2001" rx="3.2" ry="3.2"/>
</g>
<!-- sector -->
<g id="node7" class="node">
<title>sector</title>
<g id="a_node7"><a xlink:href="../../tables/sector.html" xlink:title="sector" target="_top">
<polygon fill="#ffffff" stroke="transparent" points="334,-38.2 334,-304.2 566,-304.2 566,-38.2 334,-38.2"/>
<polygon fill="#f5f5f5" stroke="transparent" points="336,-279.2 336,-302.2 564,-302.2 564,-279.2 336,-279.2"/>
<polygon fill="none" stroke="#000000" points="336,-279.2 336,-302.2 564,-302.2 564,-279.2 336,-279.2"/>
<text text-anchor="start" x="341" y="-287.8" font-family="Helvetica,sans-Serif" font-weight="bold" font-size="11.00" fill="#000000">sector</text>
<text text-anchor="start" x="529.0437" y="-287.3" font-family="Helvetica,sans-Serif" font-size="11.00" fill="#000000">[table]</text>
<polygon fill="none" stroke="#000000" points="336,-257.2 336,-279.2 445,-279.2 445,-257.2 336,-257.2"/>
<image xlink:href="../../images/primaryKeys.png" width="11px" height="12px" preserveAspectRatio="xMinYMin meet" x="341" y="-274.2"/>
<text text-anchor="start" x="356" y="-264.3" font-family="Helvetica,sans-Serif" font-size="11.00" fill="#000000">uuid</text>
<polygon fill="none" stroke="#000000" points="445,-257.2 445,-279.2 564,-279.2 564,-257.2 445,-257.2"/>
<text text-anchor="start" x="448" y="-264.9" font-family="Helvetica,sans-Serif" font-size="11.00" fill="#000000">uuid[2147483647]</text>
<polygon fill="#ffffff" stroke="transparent" points="336,-235.2 336,-257.2 445,-257.2 445,-235.2 336,-235.2"/>
<polygon fill="none" stroke="#000000" points="336,-235.2 336,-257.2 445,-257.2 445,-235.2 336,-235.2"/>
<text text-anchor="start" x="356" y="-242.3" font-family="Helvetica,sans-Serif" font-size="11.00" fill="#000000">geom</text>
<polygon fill="none" stroke="#000000" points="445,-235.2 445,-257.2 564,-257.2 564,-235.2 445,-235.2"/>
<text text-anchor="start" x="447.9485" y="-242.9" font-family="Helvetica,sans-Serif" font-size="11.00" fill="#000000">geometry[2147483647]</text>
<polygon fill="none" stroke="#000000" points="336,-213.2 336,-235.2 445,-235.2 445,-213.2 336,-213.2"/>
<text text-anchor="start" x="356" y="-220.3" font-family="Helvetica,sans-Serif" font-size="11.00" fill="#000000">datumtijd</text>
<polygon fill="none" stroke="#000000" points="445,-213.2 445,-235.2 564,-235.2 564,-213.2 445,-213.2"/>
<text text-anchor="start" x="448" y="-220.9" font-family="Helvetica,sans-Serif" font-size="11.00" fill="#000000">timestamptz[35,6]</text>
<polygon fill="none" stroke="#000000" points="336,-191.2 336,-213.2 445,-213.2 445,-191.2 336,-191.2"/>
<text text-anchor="start" x="356" y="-198.3" font-family="Helvetica,sans-Serif" font-size="11.00" fill="#000000">gebruiker</text>
<polygon fill="none" stroke="#000000" points="445,-191.2 445,-213.2 564,-213.2 564,-191.2 445,-191.2"/>
<text text-anchor="start" x="448" y="-198.9" font-family="Helvetica,sans-Serif" font-size="11.00" fill="#000000">varchar[255]</text>
<polygon fill="none" stroke="#000000" points="336,-169.2 336,-191.2 445,-191.2 445,-169.2 336,-169.2"/>
<text text-anchor="start" x="356" y="-176.3" font-family="Helvetica,sans-Serif" font-size="11.00" fill="#000000">label</text>
<polygon fill="none" stroke="#000000" points="445,-169.2 445,-191.2 564,-191.2 564,-169.2 445,-169.2"/>
<text text-anchor="start" x="448" y="-176.9" font-family="Helvetica,sans-Serif" font-size="11.00" fill="#000000">text[2147483647]</text>
<polygon fill="none" stroke="#000000" points="336,-147.2 336,-169.2 445,-169.2 445,-147.2 336,-147.2"/>
<text text-anchor="start" x="356" y="-154.3" font-family="Helvetica,sans-Serif" font-size="11.00" fill="#000000">rotatie</text>
<polygon fill="none" stroke="#000000" points="445,-147.2 445,-169.2 564,-169.2 564,-147.2 445,-147.2"/>
<text text-anchor="start" x="448" y="-154.9" font-family="Helvetica,sans-Serif" font-size="11.00" fill="#000000">int4[10]</text>
<polygon fill="none" stroke="#000000" points="336,-125.2 336,-147.2 445,-147.2 445,-125.2 336,-125.2"/>
<text text-anchor="start" x="356" y="-132.3" font-family="Helvetica,sans-Serif" font-size="11.00" fill="#000000">bijzonderheden</text>
<polygon fill="none" stroke="#000000" points="445,-125.2 445,-147.2 564,-147.2 564,-125.2 445,-125.2"/>
<text text-anchor="start" x="448" y="-132.9" font-family="Helvetica,sans-Serif" font-size="11.00" fill="#000000">text[2147483647]</text>
<polygon fill="none" stroke="#000000" points="336,-103.2 336,-125.2 445,-125.2 445,-103.2 336,-103.2"/>
<text text-anchor="start" x="356" y="-110.3" font-family="Helvetica,sans-Serif" font-size="11.00" fill="#000000">plusinfo</text>
<polygon fill="none" stroke="#000000" points="445,-103.2 445,-125.2 564,-125.2 564,-103.2 445,-103.2"/>
<text text-anchor="start" x="448" y="-110.9" font-family="Helvetica,sans-Serif" font-size="11.00" fill="#000000">jsonb[2147483647]</text>
<polygon fill="#ffffff" stroke="transparent" points="336,-81.2 336,-103.2 445,-103.2 445,-81.2 336,-81.2"/>
<polygon fill="none" stroke="#000000" points="336,-81.2 336,-103.2 445,-103.2 445,-81.2 336,-81.2"/>
<image xlink:href="../../images/foreignKeys.png" width="11px" height="12px" preserveAspectRatio="xMinYMin meet" x="341" y="-98.2"/>
<text text-anchor="start" x="356" y="-88.3" font-family="Helvetica,sans-Serif" font-size="11.00" fill="#000000">object_uuid</text>
<polygon fill="none" stroke="#000000" points="445,-81.2 445,-103.2 564,-103.2 564,-81.2 445,-81.2"/>
<text text-anchor="start" x="448" y="-88.9" font-family="Helvetica,sans-Serif" font-size="11.00" fill="#000000">uuid[2147483647]</text>
<polygon fill="none" stroke="#000000" points="336,-59.2 336,-81.2 445,-81.2 445,-59.2 336,-59.2"/>
<image xlink:href="../../images/foreignKeys.png" width="11px" height="12px" preserveAspectRatio="xMinYMin meet" x="341" y="-76.2"/>
<text text-anchor="start" x="356" y="-66.3" font-family="Helvetica,sans-Serif" font-size="11.00" fill="#000000">zone_id</text>
<polygon fill="none" stroke="#000000" points="445,-59.2 445,-81.2 564,-81.2 564,-59.2 445,-59.2"/>
<text text-anchor="start" x="448" y="-66.9" font-family="Helvetica,sans-Serif" font-size="11.00" fill="#000000">int2[5]</text>
<polygon fill="#ffffff" stroke="transparent" points="336,-40.2 336,-59.2 395,-59.2 395,-40.2 336,-40.2"/>
<polygon fill="none" stroke="#000000" points="336,-40.2 336,-59.2 395,-59.2 395,-40.2 336,-40.2"/>
<text text-anchor="start" x="339" y="-46.3" font-family="Helvetica,sans-Serif" font-size="11.00" fill="#000000">&lt; 2</text>
<polygon fill="#ffffff" stroke="transparent" points="395,-40.2 395,-59.2 445,-59.2 445,-40.2 395,-40.2"/>
<polygon fill="none" stroke="#000000" points="395,-40.2 395,-59.2 445,-59.2 445,-40.2 395,-40.2"/>
<text text-anchor="start" x="435.8862" y="-46.3" font-family="Helvetica,sans-Serif" font-size="11.00" fill="#000000"> &#160;</text>
<polygon fill="#ffffff" stroke="transparent" points="445,-40.2 445,-59.2 564,-59.2 564,-40.2 445,-40.2"/>
<polygon fill="none" stroke="#000000" points="445,-40.2 445,-59.2 564,-59.2 564,-40.2 445,-40.2"/>
<text text-anchor="start" x="545.4053" y="-46.3" font-family="Helvetica,sans-Serif" font-size="11.00" fill="#000000">0 &gt;</text>
<polygon fill="none" stroke="#000000" stroke-width="2" points="335,-39.2 335,-303.2 565,-303.2 565,-39.2 335,-39.2"/>
</a>
</g>
</g>
<!-- sector&#45;&gt;object -->
<g id="edge6" class="edge">
<title>sector:w&#45;&gt;object:e</title>
<path fill="none" stroke="#000000" d="M322.302,-97.0488C272.6301,-138.7386 357.1268,-435.2 285.5,-435.2"/>
<polygon fill="#000000" stroke="#000000" points="328.4585,-94.8695 337.2013,-95.5937 332.2293,-93.5348 336,-92.2 336,-92.2 336,-92.2 332.2293,-93.5348 334.7987,-88.8063 328.4585,-94.8695 328.4585,-94.8695"/>
<ellipse fill="none" stroke="#000000" cx="325.4419" cy="-95.9373" rx="3.2" ry="3.2"/>
</g>
<!-- roi.zone -->
<g id="node8" class="node">
<title>roi.zone</title>
<g id="a_node8"><a xlink:href="../../../roi/tables/zone.html" xlink:title="roi.zone" target="_top">
<polygon fill="#ffffff" stroke="transparent" points="181,-39.7 181,-100.7 266,-100.7 266,-39.7 181,-39.7"/>
<polygon fill="#f5f5f5" stroke="transparent" points="181.5,-77.2 181.5,-100.2 266.5,-100.2 266.5,-77.2 181.5,-77.2"/>
<polygon fill="none" stroke="#000000" points="181.5,-77.2 181.5,-100.2 266.5,-100.2 266.5,-77.2 181.5,-77.2"/>
<text text-anchor="start" x="186.5" y="-85.8" font-family="Helvetica,sans-Serif" font-weight="bold" font-size="11.00" fill="#000000">roi.zone</text>
<text text-anchor="start" x="232.0219" y="-85.3" font-family="Helvetica,sans-Serif" font-size="11.00" fill="#000000">[table]</text>
<polygon fill="none" stroke="#000000" points="181.5,-58.2 181.5,-77.2 266.5,-77.2 266.5,-58.2 181.5,-58.2"/>
<text text-anchor="start" x="184.5" y="-64.3" font-family="Helvetica,sans-Serif" font-size="11.00" fill="#000000">...</text>
<polygon fill="#ffffff" stroke="transparent" points="181.5,-39.2 181.5,-58.2 213.5,-58.2 213.5,-39.2 181.5,-39.2"/>
<polygon fill="none" stroke="#000000" points="181.5,-39.2 181.5,-58.2 213.5,-58.2 213.5,-39.2 181.5,-39.2"/>
<text text-anchor="start" x="184.5" y="-45.3" font-family="Helvetica,sans-Serif" font-size="11.00" fill="#000000"> &#160;</text>
<polygon fill="#ffffff" stroke="transparent" points="213.5,-39.2 213.5,-58.2 235.5,-58.2 235.5,-39.2 213.5,-39.2"/>
<polygon fill="none" stroke="#000000" points="213.5,-39.2 213.5,-58.2 235.5,-58.2 235.5,-39.2 213.5,-39.2"/>
<text text-anchor="start" x="226.3862" y="-45.3" font-family="Helvetica,sans-Serif" font-size="11.00" fill="#000000"> &#160;</text>
<polygon fill="#ffffff" stroke="transparent" points="235.5,-39.2 235.5,-58.2 266.5,-58.2 266.5,-39.2 235.5,-39.2"/>
<polygon fill="none" stroke="#000000" points="235.5,-39.2 235.5,-58.2 266.5,-58.2 266.5,-39.2 235.5,-39.2"/>
<text text-anchor="start" x="247.9053" y="-45.3" font-family="Helvetica,sans-Serif" font-size="11.00" fill="#000000">1 &gt;</text>
</a>
</g>
</g>
<!-- sector&#45;&gt;roi.zone -->
<g id="edge7" class="edge">
<title>sector:w&#45;&gt;roi.zone:e</title>
<path fill="none" stroke="#000000" d="M321.5135,-70.2C305.5117,-70.2 288.9932,-70.2 274.1822,-70.2"/>
<polygon fill="#000000" stroke="#000000" points="328,-70.2001 336,-73.8 332,-70.2 336,-70.2 336,-70.2 336,-70.2 332,-70.2 336,-66.6 328,-70.2001 328,-70.2001"/>
<ellipse fill="none" stroke="#000000" cx="324.8" cy="-70.2001" rx="3.2" ry="3.2"/>
</g>
<!-- voorziening -->
<g id="node9" class="node">
<title>voorziening</title>
<g id="a_node9"><a xlink:href="../../tables/voorziening.html" xlink:title="voorziening" target="_top">
<polygon fill="#ffffff" stroke="transparent" points="397,-325.7 397,-386.7 503,-386.7 503,-325.7 397,-325.7"/>
<polygon fill="#f5f5f5" stroke="transparent" points="397,-363.2 397,-386.2 503,-386.2 503,-363.2 397,-363.2"/>
<polygon fill="none" stroke="#000000" points="397,-363.2 397,-386.2 503,-386.2 503,-363.2 397,-363.2"/>
<text text-anchor="start" x="402" y="-371.8" font-family="Helvetica,sans-Serif" font-weight="bold" font-size="11.00" fill="#000000">voorziening</text>
<text text-anchor="start" x="468.5219" y="-371.3" font-family="Helvetica,sans-Serif" font-size="11.00" fill="#000000">[table]</text>
<polygon fill="none" stroke="#000000" points="397,-344.2 397,-363.2 503,-363.2 503,-344.2 397,-344.2"/>
<text text-anchor="start" x="400" y="-350.3" font-family="Helvetica,sans-Serif" font-size="11.00" fill="#000000">...</text>
<polygon fill="#ffffff" stroke="transparent" points="397,-325.2 397,-344.2 448,-344.2 448,-325.2 397,-325.2"/>
<polygon fill="none" stroke="#000000" points="397,-325.2 397,-344.2 448,-344.2 448,-325.2 397,-325.2"/>
<text text-anchor="start" x="400" y="-331.3" font-family="Helvetica,sans-Serif" font-size="11.00" fill="#000000">&lt; 2</text>
<polygon fill="#ffffff" stroke="transparent" points="448,-325.2 448,-344.2 475,-344.2 475,-325.2 448,-325.2"/>
<polygon fill="none" stroke="#000000" points="448,-325.2 448,-344.2 475,-344.2 475,-325.2 448,-325.2"/>
<text text-anchor="start" x="465.8862" y="-331.3" font-family="Helvetica,sans-Serif" font-size="11.00" fill="#000000"> &#160;</text>
<polygon fill="#ffffff" stroke="transparent" points="475,-325.2 475,-344.2 503,-344.2 503,-325.2 475,-325.2"/>
<polygon fill="none" stroke="#000000" points="475,-325.2 475,-344.2 503,-344.2 503,-325.2 475,-325.2"/>
<text text-anchor="start" x="493.8862" y="-331.3" font-family="Helvetica,sans-Serif" font-size="11.00" fill="#000000"> &#160;</text>
</a>
</g>
</g>
<!-- voorziening&#45;&gt;object -->
<g id="edge8" class="edge">
<title>voorziening:w&#45;&gt;object:e</title>
<path fill="none" stroke="#000000" d="M382.4414,-354.5491C358.0132,-359.5821 351.0866,-377.9632 326,-397.2 306.4131,-412.2196 310.1827,-435.2 285.5,-435.2"/>
<polygon fill="#000000" stroke="#000000" points="389.0341,-353.9382 397.3322,-356.7846 393.0171,-353.5691 397,-353.2 397,-353.2 397,-353.2 393.0171,-353.5691 396.6678,-349.6154 389.0341,-353.9382 389.0341,-353.9382"/>
<ellipse fill="none" stroke="#000000" cx="385.8478" cy="-354.2335" rx="3.2" ry="3.2"/>
</g>
</g>
</svg>
