<?xml version="1.0" encoding="UTF-8" standalone="no"?>
<!DOCTYPE svg PUBLIC "-//W3C//DTD SVG 1.1//EN"
 "http://www.w3.org/Graphics/SVG/1.1/DTD/svg11.dtd">
<!-- Generated by graphviz version 2.40.1 (20161225.0304)
 -->
<!-- Title: oneDegreeRelationshipsDiagram Pages: 1 -->
<svg width="428pt" height="398pt"
 viewBox="0.00 0.00 428.00 397.70" xmlns="http://www.w3.org/2000/svg" xmlns:xlink="http://www.w3.org/1999/xlink">
<g id="graph0" class="graph" transform="scale(1 1) rotate(0) translate(4 393.7)">
<title>oneDegreeRelationshipsDiagram</title>
<polygon fill="#ffffff" stroke="transparent" points="-4,4 -4,-393.7 424,-393.7 424,4 -4,4"/>
<text text-anchor="middle" x="72.4936" y="-7.3" font-family="Helvetica,sans-Serif" font-size="11.00" fill="#000000">Generated by SchemaSpy</text>
<!-- voorziening -->
<g id="node1" class="node">
<title>voorziening</title>
<g id="a_node1"><a xlink:href="../../tables/voorziening.html" xlink:title="voorziening" target="_top">
<polygon fill="#ffffff" stroke="transparent" points="180,-119.7 180,-385.7 412,-385.7 412,-119.7 180,-119.7"/>
<polygon fill="#f5f5f5" stroke="transparent" points="182,-360.7 182,-383.7 410,-383.7 410,-360.7 182,-360.7"/>
<polygon fill="none" stroke="#000000" points="182,-360.7 182,-383.7 410,-383.7 410,-360.7 182,-360.7"/>
<text text-anchor="start" x="187" y="-369.3" font-family="Helvetica,sans-Serif" font-weight="bold" font-size="11.00" fill="#000000">voorziening</text>
<text text-anchor="start" x="375.0437" y="-368.8" font-family="Helvetica,sans-Serif" font-size="11.00" fill="#000000">[table]</text>
<polygon fill="none" stroke="#000000" points="182,-338.7 182,-360.7 291,-360.7 291,-338.7 182,-338.7"/>
<image xlink:href="../../images/primaryKeys.png" width="11px" height="12px" preserveAspectRatio="xMinYMin meet" x="187" y="-355.7"/>
<text text-anchor="start" x="202" y="-345.8" font-family="Helvetica,sans-Serif" font-size="11.00" fill="#000000">uuid</text>
<polygon fill="none" stroke="#000000" points="291,-338.7 291,-360.7 410,-360.7 410,-338.7 291,-338.7"/>
<text text-anchor="start" x="294" y="-346.4" font-family="Helvetica,sans-Serif" font-size="11.00" fill="#000000">uuid[2147483647]</text>
<polygon fill="#ffffff" stroke="transparent" points="182,-316.7 182,-338.7 291,-338.7 291,-316.7 182,-316.7"/>
<polygon fill="none" stroke="#000000" points="182,-316.7 182,-338.7 291,-338.7 291,-316.7 182,-316.7"/>
<text text-anchor="start" x="202" y="-323.8" font-family="Helvetica,sans-Serif" font-size="11.00" fill="#000000">geom</text>
<polygon fill="none" stroke="#000000" points="291,-316.7 291,-338.7 410,-338.7 410,-316.7 291,-316.7"/>
<text text-anchor="start" x="293.9485" y="-324.4" font-family="Helvetica,sans-Serif" font-size="11.00" fill="#000000">geometry[2147483647]</text>
<polygon fill="none" stroke="#000000" points="182,-294.7 182,-316.7 291,-316.7 291,-294.7 182,-294.7"/>
<text text-anchor="start" x="202" y="-301.8" font-family="Helvetica,sans-Serif" font-size="11.00" fill="#000000">datumtijd</text>
<polygon fill="none" stroke="#000000" points="291,-294.7 291,-316.7 410,-316.7 410,-294.7 291,-294.7"/>
<text text-anchor="start" x="294" y="-302.4" font-family="Helvetica,sans-Serif" font-size="11.00" fill="#000000">timestamptz[35,6]</text>
<polygon fill="none" stroke="#000000" points="182,-272.7 182,-294.7 291,-294.7 291,-272.7 182,-272.7"/>
<text text-anchor="start" x="202" y="-279.8" font-family="Helvetica,sans-Serif" font-size="11.00" fill="#000000">gebruiker</text>
<polygon fill="none" stroke="#000000" points="291,-272.7 291,-294.7 410,-294.7 410,-272.7 291,-272.7"/>
<text text-anchor="start" x="294" y="-280.4" font-family="Helvetica,sans-Serif" font-size="11.00" fill="#000000">varchar[255]</text>
<polygon fill="none" stroke="#000000" points="182,-250.7 182,-272.7 291,-272.7 291,-250.7 182,-250.7"/>
<text text-anchor="start" x="202" y="-257.8" font-family="Helvetica,sans-Serif" font-size="11.00" fill="#000000">label</text>
<polygon fill="none" stroke="#000000" points="291,-250.7 291,-272.7 410,-272.7 410,-250.7 291,-250.7"/>
<text text-anchor="start" x="294" y="-258.4" font-family="Helvetica,sans-Serif" font-size="11.00" fill="#000000">text[2147483647]</text>
<polygon fill="none" stroke="#000000" points="182,-228.7 182,-250.7 291,-250.7 291,-228.7 182,-228.7"/>
<text text-anchor="start" x="202" y="-235.8" font-family="Helvetica,sans-Serif" font-size="11.00" fill="#000000">rotatie</text>
<polygon fill="none" stroke="#000000" points="291,-228.7 291,-250.7 410,-250.7 410,-228.7 291,-228.7"/>
<text text-anchor="start" x="294" y="-236.4" font-family="Helvetica,sans-Serif" font-size="11.00" fill="#000000">int4[10]</text>
<polygon fill="none" stroke="#000000" points="182,-206.7 182,-228.7 291,-228.7 291,-206.7 182,-206.7"/>
<text text-anchor="start" x="202" y="-213.8" font-family="Helvetica,sans-Serif" font-size="11.00" fill="#000000">bijzonderheden</text>
<polygon fill="none" stroke="#000000" points="291,-206.7 291,-228.7 410,-228.7 410,-206.7 291,-206.7"/>
<text text-anchor="start" x="294" y="-214.4" font-family="Helvetica,sans-Serif" font-size="11.00" fill="#000000">text[2147483647]</text>
<polygon fill="none" stroke="#000000" points="182,-184.7 182,-206.7 291,-206.7 291,-184.7 182,-184.7"/>
<text text-anchor="start" x="202" y="-191.8" font-family="Helvetica,sans-Serif" font-size="11.00" fill="#000000">plusinfo</text>
<polygon fill="none" stroke="#000000" points="291,-184.7 291,-206.7 410,-206.7 410,-184.7 291,-184.7"/>
<text text-anchor="start" x="294" y="-192.4" font-family="Helvetica,sans-Serif" font-size="11.00" fill="#000000">jsonb[2147483647]</text>
<polygon fill="#ffffff" stroke="transparent" points="182,-162.7 182,-184.7 291,-184.7 291,-162.7 182,-162.7"/>
<polygon fill="none" stroke="#000000" points="182,-162.7 182,-184.7 291,-184.7 291,-162.7 182,-162.7"/>
<image xlink:href="../../images/foreignKeys.png" width="11px" height="12px" preserveAspectRatio="xMinYMin meet" x="187" y="-179.7"/>
<text text-anchor="start" x="202" y="-169.8" font-family="Helvetica,sans-Serif" font-size="11.00" fill="#000000">object_uuid</text>
<polygon fill="none" stroke="#000000" points="291,-162.7 291,-184.7 410,-184.7 410,-162.7 291,-162.7"/>
<text text-anchor="start" x="294" y="-170.4" font-family="Helvetica,sans-Serif" font-size="11.00" fill="#000000">uuid[2147483647]</text>
<polygon fill="none" stroke="#000000" points="182,-140.7 182,-162.7 291,-162.7 291,-140.7 182,-140.7"/>
<image xlink:href="../../images/foreignKeys.png" width="11px" height="12px" preserveAspectRatio="xMinYMin meet" x="187" y="-157.7"/>
<text text-anchor="start" x="202" y="-147.8" font-family="Helvetica,sans-Serif" font-size="11.00" fill="#000000">symbool_id</text>
<polygon fill="none" stroke="#000000" points="291,-140.7 291,-162.7 410,-162.7 410,-140.7 291,-140.7"/>
<text text-anchor="start" x="294" y="-148.4" font-family="Helvetica,sans-Serif" font-size="11.00" fill="#000000">int4[10]</text>
<polygon fill="#ffffff" stroke="transparent" points="182,-121.7 182,-140.7 241,-140.7 241,-121.7 182,-121.7"/>
<polygon fill="none" stroke="#000000" points="182,-121.7 182,-140.7 241,-140.7 241,-121.7 182,-121.7"/>
<text text-anchor="start" x="185" y="-127.8" font-family="Helvetica,sans-Serif" font-size="11.00" fill="#000000">&lt; 2</text>
<polygon fill="#ffffff" stroke="transparent" points="241,-121.7 241,-140.7 291,-140.7 291,-121.7 241,-121.7"/>
<polygon fill="none" stroke="#000000" points="241,-121.7 241,-140.7 291,-140.7 291,-121.7 241,-121.7"/>
<text text-anchor="start" x="281.8862" y="-127.8" font-family="Helvetica,sans-Serif" font-size="11.00" fill="#000000"> &#160;</text>
<polygon fill="#ffffff" stroke="transparent" points="291,-121.7 291,-140.7 410,-140.7 410,-121.7 291,-121.7"/>
<polygon fill="none" stroke="#000000" points="291,-121.7 291,-140.7 410,-140.7 410,-121.7 291,-121.7"/>
<text text-anchor="start" x="391.4053" y="-127.8" font-family="Helvetica,sans-Serif" font-size="11.00" fill="#000000">0 &gt;</text>
<polygon fill="none" stroke="#000000" stroke-width="2" points="181,-120.7 181,-384.7 411,-384.7 411,-120.7 181,-120.7"/>
</a>
</g>
</g>
<!-- object -->
<g id="node2" class="node">
<title>object</title>
<g id="a_node2"><a xlink:href="../../tables/object.html" xlink:title="object" target="_top">
<polygon fill="#ffffff" stroke="transparent" points="8,-120.2 8,-291.2 131,-291.2 131,-120.2 8,-120.2"/>
<polygon fill="#f5f5f5" stroke="transparent" points="8.5,-267.7 8.5,-290.7 131.5,-290.7 131.5,-267.7 8.5,-267.7"/>
<polygon fill="none" stroke="#000000" points="8.5,-267.7 8.5,-290.7 131.5,-290.7 131.5,-267.7 8.5,-267.7"/>
<text text-anchor="start" x="13.5" y="-276.3" font-family="Helvetica,sans-Serif" font-weight="bold" font-size="11.00" fill="#000000">object</text>
<text text-anchor="start" x="96.5437" y="-275.8" font-family="Helvetica,sans-Serif" font-size="11.00" fill="#000000">[table]</text>
<polygon fill="none" stroke="#000000" points="8.5,-245.7 8.5,-267.7 131.5,-267.7 131.5,-245.7 8.5,-245.7"/>
<image xlink:href="../../images/primaryKeys.png" width="11px" height="12px" preserveAspectRatio="xMinYMin meet" x="13.5" y="-262.7"/>
<text text-anchor="start" x="28.5" y="-252.8" font-family="Helvetica,sans-Serif" font-size="11.00" fill="#000000">uuid</text>
<polygon fill="#ffffff" stroke="transparent" points="8.5,-223.7 8.5,-245.7 131.5,-245.7 131.5,-223.7 8.5,-223.7"/>
<polygon fill="none" stroke="#000000" points="8.5,-223.7 8.5,-245.7 131.5,-245.7 131.5,-223.7 8.5,-223.7"/>
<text text-anchor="start" x="28.5" y="-230.8" font-family="Helvetica,sans-Serif" font-size="11.00" fill="#000000">geom</text>
<polygon fill="#ffffff" stroke="transparent" points="8.5,-201.7 8.5,-223.7 131.5,-223.7 131.5,-201.7 8.5,-201.7"/>
<polygon fill="none" stroke="#000000" points="8.5,-201.7 8.5,-223.7 131.5,-223.7 131.5,-201.7 8.5,-201.7"/>
<text text-anchor="start" x="28.5" y="-208.8" font-family="Helvetica,sans-Serif" font-size="11.00" fill="#000000">revisie_frequentie</text>
<polygon fill="#ffffff" stroke="transparent" points="8.5,-179.7 8.5,-201.7 131.5,-201.7 131.5,-179.7 8.5,-179.7"/>
<polygon fill="none" stroke="#000000" points="8.5,-179.7 8.5,-201.7 131.5,-201.7 131.5,-179.7 8.5,-179.7"/>
<image xlink:href="../../images/foreignKeys.png" width="11px" height="12px" preserveAspectRatio="xMinYMin meet" x="13.5" y="-196.7"/>
<text text-anchor="start" x="28.5" y="-186.8" font-family="Helvetica,sans-Serif" font-size="11.00" fill="#000000">fase_id</text>
<polygon fill="#ffffff" stroke="transparent" points="8.5,-157.7 8.5,-179.7 131.5,-179.7 131.5,-157.7 8.5,-157.7"/>
<polygon fill="none" stroke="#000000" points="8.5,-157.7 8.5,-179.7 131.5,-179.7 131.5,-157.7 8.5,-157.7"/>
<image xlink:href="../../images/foreignKeys.png" width="11px" height="12px" preserveAspectRatio="xMinYMin meet" x="13.5" y="-174.7"/>
<text text-anchor="start" x="28.5" y="-164.8" font-family="Helvetica,sans-Serif" font-size="11.00" fill="#000000">object_type_id</text>
<polygon fill="none" stroke="#000000" points="8.5,-138.7 8.5,-157.7 131.5,-157.7 131.5,-138.7 8.5,-138.7"/>
<text text-anchor="start" x="11.5" y="-144.8" font-family="Helvetica,sans-Serif" font-size="11.00" fill="#000000">...</text>
<polygon fill="#ffffff" stroke="transparent" points="8.5,-119.7 8.5,-138.7 63.5,-138.7 63.5,-119.7 8.5,-119.7"/>
<polygon fill="none" stroke="#000000" points="8.5,-119.7 8.5,-138.7 63.5,-138.7 63.5,-119.7 8.5,-119.7"/>
<text text-anchor="start" x="11.5" y="-125.8" font-family="Helvetica,sans-Serif" font-size="11.00" fill="#000000">&lt; 2</text>
<polygon fill="#ffffff" stroke="transparent" points="63.5,-119.7 63.5,-138.7 92.5,-138.7 92.5,-119.7 63.5,-119.7"/>
<polygon fill="none" stroke="#000000" points="63.5,-119.7 63.5,-138.7 92.5,-138.7 92.5,-119.7 63.5,-119.7"/>
<text text-anchor="start" x="83.3862" y="-125.8" font-family="Helvetica,sans-Serif" font-size="11.00" fill="#000000"> &#160;</text>
<polygon fill="#ffffff" stroke="transparent" points="92.5,-119.7 92.5,-138.7 131.5,-138.7 131.5,-119.7 92.5,-119.7"/>
<polygon fill="none" stroke="#000000" points="92.5,-119.7 92.5,-138.7 131.5,-138.7 131.5,-119.7 92.5,-119.7"/>
<text text-anchor="start" x="112.9053" y="-125.8" font-family="Helvetica,sans-Serif" font-size="11.00" fill="#000000">5 &gt;</text>
</a>
</g>
</g>
<!-- voorziening&#45;&gt;object -->
<g id="edge1" class="edge">
<title>voorziening:w&#45;&gt;object:e</title>
<path fill="none" stroke="#000000" d="M168.0329,-178.1624C147.3424,-195.4024 168.6081,-256.7 131.5,-256.7"/>
<polygon fill="#000000" stroke="#000000" points="174.3795,-176.1348 183.0956,-177.1292 178.1897,-174.9174 182,-173.7 182,-173.7 182,-173.7 178.1897,-174.9174 180.9044,-170.2708 174.3795,-176.1348 174.3795,-176.1348"/>
<ellipse fill="none" stroke="#000000" cx="171.3313" cy="-177.1087" rx="3.2" ry="3.2"/>
</g>
<!-- roi.symbool -->
<g id="node3" class="node">
<title>roi.symbool</title>
<g id="a_node3"><a xlink:href="../../../roi/tables/symbool.html" xlink:title="roi.symbool" target="_top">
<polygon fill="#ffffff" stroke="transparent" points="16,-38.2 16,-99.2 123,-99.2 123,-38.2 16,-38.2"/>
<polygon fill="#f5f5f5" stroke="transparent" points="16.5,-75.7 16.5,-98.7 123.5,-98.7 123.5,-75.7 16.5,-75.7"/>
<polygon fill="none" stroke="#000000" points="16.5,-75.7 16.5,-98.7 123.5,-98.7 123.5,-75.7 16.5,-75.7"/>
<text text-anchor="start" x="21.5" y="-84.3" font-family="Helvetica,sans-Serif" font-weight="bold" font-size="11.00" fill="#000000">roi.symbool</text>
<text text-anchor="start" x="89.0219" y="-83.8" font-family="Helvetica,sans-Serif" font-size="11.00" fill="#000000">[table]</text>
<polygon fill="none" stroke="#000000" points="16.5,-56.7 16.5,-75.7 123.5,-75.7 123.5,-56.7 16.5,-56.7"/>
<text text-anchor="start" x="19.5" y="-62.8" font-family="Helvetica,sans-Serif" font-size="11.00" fill="#000000">...</text>
<polygon fill="#ffffff" stroke="transparent" points="16.5,-37.7 16.5,-56.7 59.5,-56.7 59.5,-37.7 16.5,-37.7"/>
<polygon fill="none" stroke="#000000" points="16.5,-37.7 16.5,-56.7 59.5,-56.7 59.5,-37.7 16.5,-37.7"/>
<text text-anchor="start" x="19.5" y="-43.8" font-family="Helvetica,sans-Serif" font-size="11.00" fill="#000000"> &#160;</text>
<polygon fill="#ffffff" stroke="transparent" points="59.5,-37.7 59.5,-56.7 86.5,-56.7 86.5,-37.7 59.5,-37.7"/>
<polygon fill="none" stroke="#000000" points="59.5,-37.7 59.5,-56.7 86.5,-56.7 86.5,-37.7 59.5,-37.7"/>
<text text-anchor="start" x="77.3862" y="-43.8" font-family="Helvetica,sans-Serif" font-size="11.00" fill="#000000"> &#160;</text>
<polygon fill="#ffffff" stroke="transparent" points="86.5,-37.7 86.5,-56.7 123.5,-56.7 123.5,-37.7 86.5,-37.7"/>
<polygon fill="none" stroke="#000000" points="86.5,-37.7 86.5,-56.7 123.5,-56.7 123.5,-37.7 86.5,-37.7"/>
<text text-anchor="start" x="104.9053" y="-43.8" font-family="Helvetica,sans-Serif" font-size="11.00" fill="#000000">1 &gt;</text>
</a>
</g>
</g>
<!-- voorziening&#45;&gt;roi.symbool -->
<g id="edge2" class="edge">
<title>voorziening:w&#45;&gt;roi.symbool:e</title>
<path fill="none" stroke="#000000" d="M168.0431,-148.1432C156.1765,-140.5153 155.4074,-122.2588 139,-109.7 136.2189,-107.5713 133.3182,-105.4673 130.3478,-103.4035"/>
<polygon fill="#000000" stroke="#000000" points="174.2478,-149.7244 181.111,-155.1885 178.1239,-150.7122 182,-151.7 182,-151.7 182,-151.7 178.1239,-150.7122 182.889,-148.2115 174.2478,-149.7244 174.2478,-149.7244"/>
<ellipse fill="none" stroke="#000000" cx="171.1469" cy="-148.9341" rx="3.2" ry="3.2"/>
</g>
</g>
</svg>
