<?xml version="1.0" encoding="UTF-8" standalone="no"?>
<!DOCTYPE svg PUBLIC "-//W3C//DTD SVG 1.1//EN"
 "http://www.w3.org/Graphics/SVG/1.1/DTD/svg11.dtd">
<!-- Generated by graphviz version 2.50.0 (0)
 -->
<!-- Title: twoDegreesRelationshipsDiagram Pages: 1 -->
<svg width="628pt" height="629pt"
 viewBox="0.00 0.00 628.00 629.00" xmlns="http://www.w3.org/2000/svg" xmlns:xlink="http://www.w3.org/1999/xlink">
<g id="graph0" class="graph" transform="scale(1 1) rotate(0) translate(4 625)">
<title>twoDegreesRelationshipsDiagram</title>
<polygon fill="#ffffff" stroke="transparent" points="-4,4 -4,-625 624,-625 624,4 -4,4"/>
<text text-anchor="middle" x="79.5" y="-7.2" font-family="Helvetica,sans-Serif" font-size="11.00">Generated by SchemaSpy</text>
<!-- bereikbaarheid -->
<g id="node1" class="node">
<title>bereikbaarheid</title>
<g id="a_node1"><a xlink:href="../../tables/bereikbaarheid.html" xlink:title="bereikbaarheid" target="_top">
<polygon fill="#ffffff" stroke="transparent" points="412.5,-559 412.5,-617 557.5,-617 557.5,-559 412.5,-559"/>
<polygon fill="#f5f5f5" stroke="transparent" points="413,-595 413,-617 558,-617 558,-595 413,-595"/>
<polygon fill="none" stroke="black" points="413,-595 413,-617 558,-617 558,-595 413,-595"/>
<text text-anchor="start" x="418" y="-604.2" font-family="Helvetica,sans-Serif" font-weight="bold" font-size="11.00">bereikbaarheid</text>
<text text-anchor="start" x="516" y="-603.2" font-family="Helvetica,sans-Serif" font-size="11.00">[table]</text>
<polygon fill="none" stroke="black" points="413,-577 413,-595 558,-595 558,-577 413,-577"/>
<text text-anchor="start" x="416" y="-583.2" font-family="Helvetica,sans-Serif" font-size="11.00">...</text>
<polygon fill="#ffffff" stroke="transparent" points="413,-559 413,-577 484,-577 484,-559 413,-559"/>
<polygon fill="none" stroke="black" points="413,-559 413,-577 484,-577 484,-559 413,-559"/>
<text text-anchor="start" x="416" y="-565.2" font-family="Helvetica,sans-Serif" font-size="11.00">&lt; 2</text>
<polygon fill="#ffffff" stroke="transparent" points="484,-559 484,-577 521,-577 521,-559 484,-559"/>
<polygon fill="none" stroke="black" points="484,-559 484,-577 521,-577 521,-559 484,-559"/>
<text text-anchor="start" x="510" y="-565.2" font-family="Helvetica,sans-Serif" font-size="11.00"> &#160;</text>
<polygon fill="#ffffff" stroke="transparent" points="521,-559 521,-577 558,-577 558,-559 521,-559"/>
<polygon fill="none" stroke="black" points="521,-559 521,-577 558,-577 558,-559 521,-559"/>
<text text-anchor="start" x="547" y="-565.2" font-family="Helvetica,sans-Serif" font-size="11.00"> &#160;</text>
</a>
</g>
</g>
<!-- object -->
<g id="node2" class="node">
<title>object</title>
<g id="a_node2"><a xlink:href="../../tables/object.html" xlink:title="object" target="_top">
<polygon fill="#ffffff" stroke="transparent" points="180,-293 180,-461 309,-461 309,-293 180,-293"/>
<polygon fill="#f5f5f5" stroke="transparent" points="180.5,-439 180.5,-461 309.5,-461 309.5,-439 180.5,-439"/>
<polygon fill="none" stroke="black" points="180.5,-439 180.5,-461 309.5,-461 309.5,-439 180.5,-439"/>
<text text-anchor="start" x="185.5" y="-448.2" font-family="Helvetica,sans-Serif" font-weight="bold" font-size="11.00">object</text>
<text text-anchor="start" x="267.5" y="-447.2" font-family="Helvetica,sans-Serif" font-size="11.00">[table]</text>
<polygon fill="none" stroke="black" points="180.5,-417 180.5,-439 309.5,-439 309.5,-417 180.5,-417"/>
<image xlink:href="../../images/primaryKeys.png" width="11px" height="12px" preserveAspectRatio="xMinYMin meet" x="185.5" y="-434"/>
<text text-anchor="start" x="200.5" y="-425.2" font-family="Helvetica,sans-Serif" font-size="11.00">uuid</text>
<polygon fill="#ffffff" stroke="transparent" points="180.5,-395 180.5,-417 309.5,-417 309.5,-395 180.5,-395"/>
<polygon fill="none" stroke="black" points="180.5,-395 180.5,-417 309.5,-417 309.5,-395 180.5,-395"/>
<text text-anchor="start" x="200.5" y="-403.2" font-family="Helvetica,sans-Serif" font-size="11.00">geom</text>
<polygon fill="#ffffff" stroke="transparent" points="180.5,-373 180.5,-395 309.5,-395 309.5,-373 180.5,-373"/>
<polygon fill="none" stroke="black" points="180.5,-373 180.5,-395 309.5,-395 309.5,-373 180.5,-373"/>
<text text-anchor="start" x="200.5" y="-381.2" font-family="Helvetica,sans-Serif" font-size="11.00">revisie_frequentie</text>
<polygon fill="#ffffff" stroke="transparent" points="180.5,-351 180.5,-373 309.5,-373 309.5,-351 180.5,-351"/>
<polygon fill="none" stroke="black" points="180.5,-351 180.5,-373 309.5,-373 309.5,-351 180.5,-351"/>
<image xlink:href="../../images/foreignKeys.png" width="11px" height="12px" preserveAspectRatio="xMinYMin meet" x="185.5" y="-368"/>
<text text-anchor="start" x="200.5" y="-359.2" font-family="Helvetica,sans-Serif" font-size="11.00">fase_id</text>
<polygon fill="#ffffff" stroke="transparent" points="180.5,-329 180.5,-351 309.5,-351 309.5,-329 180.5,-329"/>
<polygon fill="none" stroke="black" points="180.5,-329 180.5,-351 309.5,-351 309.5,-329 180.5,-329"/>
<image xlink:href="../../images/foreignKeys.png" width="11px" height="12px" preserveAspectRatio="xMinYMin meet" x="185.5" y="-346"/>
<text text-anchor="start" x="200.5" y="-337.2" font-family="Helvetica,sans-Serif" font-size="11.00">object_type_id</text>
<polygon fill="none" stroke="black" points="180.5,-311 180.5,-329 309.5,-329 309.5,-311 180.5,-311"/>
<text text-anchor="start" x="183.5" y="-317.2" font-family="Helvetica,sans-Serif" font-size="11.00">...</text>
<polygon fill="#ffffff" stroke="transparent" points="180.5,-293 180.5,-311 237.5,-311 237.5,-293 180.5,-293"/>
<polygon fill="none" stroke="black" points="180.5,-293 180.5,-311 237.5,-311 237.5,-293 180.5,-293"/>
<text text-anchor="start" x="183.5" y="-299.2" font-family="Helvetica,sans-Serif" font-size="11.00">&lt; 2</text>
<polygon fill="#ffffff" stroke="transparent" points="237.5,-293 237.5,-311 267.5,-311 267.5,-293 237.5,-293"/>
<polygon fill="none" stroke="black" points="237.5,-293 237.5,-311 267.5,-311 267.5,-293 237.5,-293"/>
<text text-anchor="start" x="256.5" y="-299.2" font-family="Helvetica,sans-Serif" font-size="11.00"> &#160;</text>
<polygon fill="#ffffff" stroke="transparent" points="267.5,-293 267.5,-311 309.5,-311 309.5,-293 267.5,-293"/>
<polygon fill="none" stroke="black" points="267.5,-293 267.5,-311 309.5,-311 309.5,-293 267.5,-293"/>
<text text-anchor="start" x="286.5" y="-299.2" font-family="Helvetica,sans-Serif" font-size="11.00">5 &gt;</text>
</a>
</g>
</g>
<!-- bereikbaarheid&#45;&gt;object -->
<g id="edge1" class="edge">
<title>bereikbaarheid:w&#45;&gt;object:e</title>
<path fill="none" stroke="black" d="M397.56,-584.98C376.31,-581.62 366.67,-569.86 350,-549 314.69,-504.8 367.07,-428 310.5,-428"/>
<polygon fill="black" stroke="black" points="404.02,-585.44 411.75,-589.59 408.01,-585.72 412,-586 412,-586 412,-586 408.01,-585.72 412.25,-582.41 404.02,-585.44 404.02,-585.44"/>
<ellipse fill="none" stroke="black" cx="400.83" cy="-585.21" rx="3.2" ry="3.2"/>
</g>
<!-- roi.fase -->
<g id="node5" class="node">
<title>roi.fase</title>
<g id="a_node5"><a xlink:href="../../../roi/tables/fase.html" xlink:title="roi.fase" target="_top">
<polygon fill="#ffffff" stroke="transparent" points="20,-363 20,-421 119,-421 119,-363 20,-363"/>
<polygon fill="#f5f5f5" stroke="transparent" points="20.5,-399 20.5,-421 119.5,-421 119.5,-399 20.5,-399"/>
<polygon fill="none" stroke="black" points="20.5,-399 20.5,-421 119.5,-421 119.5,-399 20.5,-399"/>
<text text-anchor="start" x="25.5" y="-408.2" font-family="Helvetica,sans-Serif" font-weight="bold" font-size="11.00">roi.fase</text>
<text text-anchor="start" x="77.5" y="-407.2" font-family="Helvetica,sans-Serif" font-size="11.00">[table]</text>
<polygon fill="none" stroke="black" points="20.5,-381 20.5,-399 119.5,-399 119.5,-381 20.5,-381"/>
<text text-anchor="start" x="23.5" y="-387.2" font-family="Helvetica,sans-Serif" font-size="11.00">...</text>
<polygon fill="#ffffff" stroke="transparent" points="20.5,-363 20.5,-381 56.5,-381 56.5,-363 20.5,-363"/>
<polygon fill="none" stroke="black" points="20.5,-363 20.5,-381 56.5,-381 56.5,-363 20.5,-363"/>
<text text-anchor="start" x="23.5" y="-369.2" font-family="Helvetica,sans-Serif" font-size="11.00"> &#160;</text>
<polygon fill="#ffffff" stroke="transparent" points="56.5,-363 56.5,-381 81.5,-381 81.5,-363 56.5,-363"/>
<polygon fill="none" stroke="black" points="56.5,-363 56.5,-381 81.5,-381 81.5,-363 56.5,-363"/>
<text text-anchor="start" x="70.5" y="-369.2" font-family="Helvetica,sans-Serif" font-size="11.00"> &#160;</text>
<polygon fill="#ffffff" stroke="transparent" points="81.5,-363 81.5,-381 119.5,-381 119.5,-363 81.5,-363"/>
<polygon fill="none" stroke="black" points="81.5,-363 81.5,-381 119.5,-381 119.5,-363 81.5,-363"/>
<text text-anchor="start" x="96.5" y="-369.2" font-family="Helvetica,sans-Serif" font-size="11.00">1 &gt;</text>
</a>
</g>
</g>
<!-- object&#45;&gt;roi.fase -->
<g id="edge4" class="edge">
<title>object:w&#45;&gt;roi.fase:e</title>
<path fill="none" stroke="black" d="M165.29,-364.79C149.03,-371.87 143.86,-390 120.5,-390"/>
<polygon fill="black" stroke="black" points="171.65,-363.54 180.19,-365.53 175.57,-362.77 179.5,-362 179.5,-362 179.5,-362 175.57,-362.77 178.81,-358.47 171.65,-363.54 171.65,-363.54"/>
<ellipse fill="none" stroke="black" cx="168.51" cy="-364.16" rx="3.2" ry="3.2"/>
</g>
<!-- object_type -->
<g id="node6" class="node">
<title>object_type</title>
<g id="a_node6"><a xlink:href="../../tables/object_type.html" xlink:title="object_type" target="_top">
<polygon fill="#ffffff" stroke="transparent" points="8,-284 8,-342 131,-342 131,-284 8,-284"/>
<polygon fill="#f5f5f5" stroke="transparent" points="8.5,-320 8.5,-342 131.5,-342 131.5,-320 8.5,-320"/>
<polygon fill="none" stroke="black" points="8.5,-320 8.5,-342 131.5,-342 131.5,-320 8.5,-320"/>
<text text-anchor="start" x="13.5" y="-329.2" font-family="Helvetica,sans-Serif" font-weight="bold" font-size="11.00">object_type</text>
<text text-anchor="start" x="89.5" y="-328.2" font-family="Helvetica,sans-Serif" font-size="11.00">[table]</text>
<polygon fill="none" stroke="black" points="8.5,-302 8.5,-320 131.5,-320 131.5,-302 8.5,-302"/>
<text text-anchor="start" x="11.5" y="-308.2" font-family="Helvetica,sans-Serif" font-size="11.00">...</text>
<polygon fill="#ffffff" stroke="transparent" points="8.5,-284 8.5,-302 56.5,-302 56.5,-284 8.5,-284"/>
<polygon fill="none" stroke="black" points="8.5,-284 8.5,-302 56.5,-302 56.5,-284 8.5,-284"/>
<text text-anchor="start" x="11.5" y="-290.2" font-family="Helvetica,sans-Serif" font-size="11.00"> &#160;</text>
<polygon fill="#ffffff" stroke="transparent" points="56.5,-284 56.5,-302 87.5,-302 87.5,-284 56.5,-284"/>
<polygon fill="none" stroke="black" points="56.5,-284 56.5,-302 87.5,-302 87.5,-284 56.5,-284"/>
<text text-anchor="start" x="76.5" y="-290.2" font-family="Helvetica,sans-Serif" font-size="11.00"> &#160;</text>
<polygon fill="#ffffff" stroke="transparent" points="87.5,-284 87.5,-302 131.5,-302 131.5,-284 87.5,-284"/>
<polygon fill="none" stroke="black" points="87.5,-284 87.5,-302 131.5,-302 131.5,-284 87.5,-284"/>
<text text-anchor="start" x="108.5" y="-290.2" font-family="Helvetica,sans-Serif" font-size="11.00">1 &gt;</text>
</a>
</g>
</g>
<!-- object&#45;&gt;object_type -->
<g id="edge5" class="edge">
<title>object:w&#45;&gt;object_type:e</title>
<path fill="none" stroke="black" d="M165.6,-335.72C154.41,-327.65 151.1,-311 132.5,-311"/>
<polygon fill="black" stroke="black" points="171.85,-337.65 178.44,-343.44 175.68,-338.82 179.5,-340 179.5,-340 179.5,-340 175.68,-338.82 180.56,-336.56 171.85,-337.65 171.85,-337.65"/>
<ellipse fill="none" stroke="black" cx="168.8" cy="-336.71" rx="3.2" ry="3.2"/>
</g>
<!-- label -->
<g id="node3" class="node">
<title>label</title>
<g id="a_node3"><a xlink:href="../../tables/label.html" xlink:title="label" target="_top">
<polygon fill="#ffffff" stroke="transparent" points="444,-480 444,-538 526,-538 526,-480 444,-480"/>
<polygon fill="#f5f5f5" stroke="transparent" points="444,-516 444,-538 526,-538 526,-516 444,-516"/>
<polygon fill="none" stroke="black" points="444,-516 444,-538 526,-538 526,-516 444,-516"/>
<text text-anchor="start" x="449" y="-525.2" font-family="Helvetica,sans-Serif" font-weight="bold" font-size="11.00">label</text>
<text text-anchor="start" x="484" y="-524.2" font-family="Helvetica,sans-Serif" font-size="11.00">[table]</text>
<polygon fill="none" stroke="black" points="444,-498 444,-516 526,-516 526,-498 444,-498"/>
<text text-anchor="start" x="447" y="-504.2" font-family="Helvetica,sans-Serif" font-size="11.00">...</text>
<polygon fill="#ffffff" stroke="transparent" points="444,-480 444,-498 484,-498 484,-480 444,-480"/>
<polygon fill="none" stroke="black" points="444,-480 444,-498 484,-498 484,-480 444,-480"/>
<text text-anchor="start" x="447" y="-486.2" font-family="Helvetica,sans-Serif" font-size="11.00">&lt; 2</text>
<polygon fill="#ffffff" stroke="transparent" points="484,-480 484,-498 505,-498 505,-480 484,-480"/>
<polygon fill="none" stroke="black" points="484,-480 484,-498 505,-498 505,-480 484,-480"/>
<text text-anchor="start" x="494" y="-486.2" font-family="Helvetica,sans-Serif" font-size="11.00"> &#160;</text>
<polygon fill="#ffffff" stroke="transparent" points="505,-480 505,-498 526,-498 526,-480 505,-480"/>
<polygon fill="none" stroke="black" points="505,-480 505,-498 526,-498 526,-480 505,-480"/>
<text text-anchor="start" x="515" y="-486.2" font-family="Helvetica,sans-Serif" font-size="11.00"> &#160;</text>
</a>
</g>
</g>
<!-- label&#45;&gt;object -->
<g id="edge2" class="edge">
<title>label:w&#45;&gt;object:e</title>
<path fill="none" stroke="black" d="M428.18,-506.47C395.31,-503.91 382.33,-491.99 350,-470 328.81,-455.59 336.13,-428 310.5,-428"/>
<polygon fill="black" stroke="black" points="435.01,-506.71 442.87,-510.6 439,-506.86 443,-507 443,-507 443,-507 439,-506.86 443.13,-503.4 435.01,-506.71 435.01,-506.71"/>
<ellipse fill="none" stroke="black" cx="431.81" cy="-506.6" rx="3.2" ry="3.2"/>
</g>
<!-- maatregel -->
<g id="node4" class="node">
<title>maatregel</title>
<g id="a_node4"><a xlink:href="../../tables/maatregel.html" xlink:title="maatregel" target="_top">
<polygon fill="#ffffff" stroke="transparent" points="427.5,-401 427.5,-459 542.5,-459 542.5,-401 427.5,-401"/>
<polygon fill="#f5f5f5" stroke="transparent" points="428,-437 428,-459 543,-459 543,-437 428,-437"/>
<polygon fill="none" stroke="black" points="428,-437 428,-459 543,-459 543,-437 428,-437"/>
<text text-anchor="start" x="433" y="-446.2" font-family="Helvetica,sans-Serif" font-weight="bold" font-size="11.00">maatregel</text>
<text text-anchor="start" x="501" y="-445.2" font-family="Helvetica,sans-Serif" font-size="11.00">[table]</text>
<polygon fill="none" stroke="black" points="428,-419 428,-437 543,-437 543,-419 428,-419"/>
<text text-anchor="start" x="431" y="-425.2" font-family="Helvetica,sans-Serif" font-size="11.00">...</text>
<polygon fill="#ffffff" stroke="transparent" points="428,-401 428,-419 484,-419 484,-401 428,-401"/>
<polygon fill="none" stroke="black" points="428,-401 428,-419 484,-419 484,-401 428,-401"/>
<text text-anchor="start" x="431" y="-407.2" font-family="Helvetica,sans-Serif" font-size="11.00">&lt; 2</text>
<polygon fill="#ffffff" stroke="transparent" points="484,-401 484,-419 513,-419 513,-401 484,-401"/>
<polygon fill="none" stroke="black" points="484,-401 484,-419 513,-419 513,-401 484,-401"/>
<text text-anchor="start" x="502" y="-407.2" font-family="Helvetica,sans-Serif" font-size="11.00"> &#160;</text>
<polygon fill="#ffffff" stroke="transparent" points="513,-401 513,-419 543,-419 543,-401 513,-401"/>
<polygon fill="none" stroke="black" points="513,-401 513,-419 543,-419 543,-401 513,-401"/>
<text text-anchor="start" x="532" y="-407.2" font-family="Helvetica,sans-Serif" font-size="11.00"> &#160;</text>
</a>
</g>
</g>
<!-- maatregel&#45;&gt;object -->
<g id="edge3" class="edge">
<title>maatregel:w&#45;&gt;object:e</title>
<path fill="none" stroke="black" d="M412.34,-428C372.19,-428 357.02,-428 310.5,-428"/>
<polygon fill="black" stroke="black" points="419,-428 427,-431.6 423,-428 427,-428 427,-428 427,-428 423,-428 427,-424.4 419,-428 419,-428"/>
<ellipse fill="none" stroke="black" cx="415.8" cy="-428" rx="3.2" ry="3.2"/>
</g>
<!-- sector -->
<g id="node7" class="node">
<title>sector</title>
<g id="a_node7"><a xlink:href="../../tables/sector.html" xlink:title="sector" target="_top">
<polygon fill="#ffffff" stroke="transparent" points="439.5,-322 439.5,-380 530.5,-380 530.5,-322 439.5,-322"/>
<polygon fill="#f5f5f5" stroke="transparent" points="440,-358 440,-380 531,-380 531,-358 440,-358"/>
<polygon fill="none" stroke="black" points="440,-358 440,-380 531,-380 531,-358 440,-358"/>
<text text-anchor="start" x="445" y="-367.2" font-family="Helvetica,sans-Serif" font-weight="bold" font-size="11.00">sector</text>
<text text-anchor="start" x="489" y="-366.2" font-family="Helvetica,sans-Serif" font-size="11.00">[table]</text>
<polygon fill="none" stroke="black" points="440,-340 440,-358 531,-358 531,-340 440,-340"/>
<text text-anchor="start" x="443" y="-346.2" font-family="Helvetica,sans-Serif" font-size="11.00">...</text>
<polygon fill="#ffffff" stroke="transparent" points="440,-322 440,-340 484,-340 484,-322 440,-322"/>
<polygon fill="none" stroke="black" points="440,-322 440,-340 484,-340 484,-322 440,-322"/>
<text text-anchor="start" x="443" y="-328.2" font-family="Helvetica,sans-Serif" font-size="11.00">&lt; 2</text>
<polygon fill="#ffffff" stroke="transparent" points="484,-322 484,-340 507,-340 507,-322 484,-322"/>
<polygon fill="none" stroke="black" points="484,-322 484,-340 507,-340 507,-322 484,-322"/>
<text text-anchor="start" x="496" y="-328.2" font-family="Helvetica,sans-Serif" font-size="11.00"> &#160;</text>
<polygon fill="#ffffff" stroke="transparent" points="507,-322 507,-340 531,-340 531,-322 507,-322"/>
<polygon fill="none" stroke="black" points="507,-322 507,-340 531,-340 531,-322 507,-322"/>
<text text-anchor="start" x="520" y="-328.2" font-family="Helvetica,sans-Serif" font-size="11.00"> &#160;</text>
</a>
</g>
</g>
<!-- sector&#45;&gt;object -->
<g id="edge6" class="edge">
<title>sector:w&#45;&gt;object:e</title>
<path fill="none" stroke="black" d="M424.53,-349.75C392.66,-353.32 381.8,-369.39 350,-391 330.1,-404.52 334.55,-428 310.5,-428"/>
<polygon fill="black" stroke="black" points="431.01,-349.41 439.19,-352.6 435.01,-349.21 439,-349 439,-349 439,-349 435.01,-349.21 438.81,-345.4 431.01,-349.41 431.01,-349.41"/>
<ellipse fill="none" stroke="black" cx="427.81" cy="-349.58" rx="3.2" ry="3.2"/>
</g>
<!-- voorziening -->
<g id="node8" class="node">
<title>voorziening</title>
<g id="a_node8"><a xlink:href="../../tables/voorziening.html" xlink:title="voorziening" target="_top">
<polygon fill="#ffffff" stroke="transparent" points="358,-37 358,-301 612,-301 612,-37 358,-37"/>
<polygon fill="#f5f5f5" stroke="transparent" points="360,-277 360,-299 610,-299 610,-277 360,-277"/>
<polygon fill="none" stroke="black" points="360,-277 360,-299 610,-299 610,-277 360,-277"/>
<text text-anchor="start" x="365" y="-286.2" font-family="Helvetica,sans-Serif" font-weight="bold" font-size="11.00">voorziening</text>
<text text-anchor="start" x="568" y="-285.2" font-family="Helvetica,sans-Serif" font-size="11.00">[table]</text>
<polygon fill="none" stroke="black" points="360,-255 360,-277 474,-277 474,-255 360,-255"/>
<image xlink:href="../../images/primaryKeys.png" width="11px" height="12px" preserveAspectRatio="xMinYMin meet" x="365" y="-272"/>
<text text-anchor="start" x="380" y="-263.2" font-family="Helvetica,sans-Serif" font-size="11.00">uuid</text>
<polygon fill="none" stroke="black" points="474,-255 474,-277 610,-277 610,-255 474,-255"/>
<text text-anchor="start" x="477" y="-263.2" font-family="Helvetica,sans-Serif" font-size="11.00">uuid[2147483647]</text>
<polygon fill="#ffffff" stroke="transparent" points="360,-233 360,-255 474,-255 474,-233 360,-233"/>
<polygon fill="none" stroke="black" points="360,-233 360,-255 474,-255 474,-233 360,-233"/>
<text text-anchor="start" x="380" y="-241.2" font-family="Helvetica,sans-Serif" font-size="11.00">geom</text>
<polygon fill="none" stroke="black" points="474,-233 474,-255 610,-255 610,-233 474,-233"/>
<text text-anchor="start" x="477" y="-241.2" font-family="Helvetica,sans-Serif" font-size="11.00">geometry[2147483647]</text>
<polygon fill="none" stroke="black" points="360,-211 360,-233 474,-233 474,-211 360,-211"/>
<text text-anchor="start" x="380" y="-219.2" font-family="Helvetica,sans-Serif" font-size="11.00">datumtijd</text>
<polygon fill="none" stroke="black" points="474,-211 474,-233 610,-233 610,-211 474,-211"/>
<text text-anchor="start" x="477" y="-219.2" font-family="Helvetica,sans-Serif" font-size="11.00">timestamptz[35,6]</text>
<polygon fill="none" stroke="black" points="360,-189 360,-211 474,-211 474,-189 360,-189"/>
<text text-anchor="start" x="380" y="-197.2" font-family="Helvetica,sans-Serif" font-size="11.00">gebruiker</text>
<polygon fill="none" stroke="black" points="474,-189 474,-211 610,-211 610,-189 474,-189"/>
<text text-anchor="start" x="477" y="-197.2" font-family="Helvetica,sans-Serif" font-size="11.00">varchar[255]</text>
<polygon fill="none" stroke="black" points="360,-167 360,-189 474,-189 474,-167 360,-167"/>
<text text-anchor="start" x="380" y="-175.2" font-family="Helvetica,sans-Serif" font-size="11.00">label</text>
<polygon fill="none" stroke="black" points="474,-167 474,-189 610,-189 610,-167 474,-167"/>
<text text-anchor="start" x="477" y="-175.2" font-family="Helvetica,sans-Serif" font-size="11.00">text[2147483647]</text>
<polygon fill="none" stroke="black" points="360,-145 360,-167 474,-167 474,-145 360,-145"/>
<text text-anchor="start" x="380" y="-153.2" font-family="Helvetica,sans-Serif" font-size="11.00">rotatie</text>
<polygon fill="none" stroke="black" points="474,-145 474,-167 610,-167 610,-145 474,-145"/>
<text text-anchor="start" x="477" y="-153.2" font-family="Helvetica,sans-Serif" font-size="11.00">int4[10]</text>
<polygon fill="none" stroke="black" points="360,-123 360,-145 474,-145 474,-123 360,-123"/>
<text text-anchor="start" x="380" y="-131.2" font-family="Helvetica,sans-Serif" font-size="11.00">bijzonderheden</text>
<polygon fill="none" stroke="black" points="474,-123 474,-145 610,-145 610,-123 474,-123"/>
<text text-anchor="start" x="477" y="-131.2" font-family="Helvetica,sans-Serif" font-size="11.00">text[2147483647]</text>
<polygon fill="none" stroke="black" points="360,-101 360,-123 474,-123 474,-101 360,-101"/>
<text text-anchor="start" x="380" y="-109.2" font-family="Helvetica,sans-Serif" font-size="11.00">plusinfo</text>
<polygon fill="none" stroke="black" points="474,-101 474,-123 610,-123 610,-101 474,-101"/>
<text text-anchor="start" x="477" y="-109.2" font-family="Helvetica,sans-Serif" font-size="11.00">jsonb[2147483647]</text>
<polygon fill="#ffffff" stroke="transparent" points="360,-79 360,-101 474,-101 474,-79 360,-79"/>
<polygon fill="none" stroke="black" points="360,-79 360,-101 474,-101 474,-79 360,-79"/>
<image xlink:href="../../images/foreignKeys.png" width="11px" height="12px" preserveAspectRatio="xMinYMin meet" x="365" y="-96"/>
<text text-anchor="start" x="380" y="-87.2" font-family="Helvetica,sans-Serif" font-size="11.00">object_uuid</text>
<polygon fill="none" stroke="black" points="474,-79 474,-101 610,-101 610,-79 474,-79"/>
<text text-anchor="start" x="477" y="-87.2" font-family="Helvetica,sans-Serif" font-size="11.00">uuid[2147483647]</text>
<polygon fill="none" stroke="black" points="360,-57 360,-79 474,-79 474,-57 360,-57"/>
<image xlink:href="../../images/foreignKeys.png" width="11px" height="12px" preserveAspectRatio="xMinYMin meet" x="365" y="-74"/>
<text text-anchor="start" x="380" y="-65.2" font-family="Helvetica,sans-Serif" font-size="11.00">symbool_id</text>
<polygon fill="none" stroke="black" points="474,-57 474,-79 610,-79 610,-57 474,-57"/>
<text text-anchor="start" x="477" y="-65.2" font-family="Helvetica,sans-Serif" font-size="11.00">int4[10]</text>
<polygon fill="#ffffff" stroke="transparent" points="360,-39 360,-57 423,-57 423,-39 360,-39"/>
<polygon fill="none" stroke="black" points="360,-39 360,-57 423,-57 423,-39 360,-39"/>
<text text-anchor="start" x="363" y="-45.2" font-family="Helvetica,sans-Serif" font-size="11.00">&lt; 2</text>
<polygon fill="#ffffff" stroke="transparent" points="423,-39 423,-57 474,-57 474,-39 423,-39"/>
<polygon fill="none" stroke="black" points="423,-39 423,-57 474,-57 474,-39 423,-39"/>
<text text-anchor="start" x="463" y="-45.2" font-family="Helvetica,sans-Serif" font-size="11.00"> &#160;</text>
<polygon fill="#ffffff" stroke="transparent" points="474,-39 474,-57 610,-57 610,-39 474,-39"/>
<polygon fill="none" stroke="black" points="474,-39 474,-57 610,-57 610,-39 474,-39"/>
<text text-anchor="start" x="587" y="-45.2" font-family="Helvetica,sans-Serif" font-size="11.00">0 &gt;</text>
<polygon fill="none" stroke="black" stroke-width="2" points="359,-38 359,-300 611,-300 611,-38 359,-38"/>
</a>
</g>
</g>
<!-- voorziening&#45;&gt;object -->
<g id="edge7" class="edge">
<title>voorziening:w&#45;&gt;object:e</title>
<path fill="none" stroke="black" d="M345.22,-95.04C297.11,-137.09 380.9,-428 310.5,-428"/>
<polygon fill="black" stroke="black" points="351.49,-92.75 360.24,-93.38 355.24,-91.37 359,-90 359,-90 359,-90 355.24,-91.37 357.76,-86.62 351.49,-92.75 351.49,-92.75"/>
<ellipse fill="none" stroke="black" cx="348.48" cy="-93.85" rx="3.2" ry="3.2"/>
</g>
<!-- roi.symbool -->
<g id="node9" class="node">
<title>roi.symbool</title>
<g id="a_node9"><a xlink:href="../../../roi/tables/symbool.html" xlink:title="roi.symbool" target="_top">
<polygon fill="#ffffff" stroke="transparent" points="182.5,-39 182.5,-97 306.5,-97 306.5,-39 182.5,-39"/>
<polygon fill="#f5f5f5" stroke="transparent" points="182.5,-75 182.5,-97 306.5,-97 306.5,-75 182.5,-75"/>
<polygon fill="none" stroke="black" points="182.5,-75 182.5,-97 306.5,-97 306.5,-75 182.5,-75"/>
<text text-anchor="start" x="187.5" y="-84.2" font-family="Helvetica,sans-Serif" font-weight="bold" font-size="11.00">roi.symbool</text>
<text text-anchor="start" x="264.5" y="-83.2" font-family="Helvetica,sans-Serif" font-size="11.00">[table]</text>
<polygon fill="none" stroke="black" points="182.5,-57 182.5,-75 306.5,-75 306.5,-57 182.5,-57"/>
<text text-anchor="start" x="185.5" y="-63.2" font-family="Helvetica,sans-Serif" font-size="11.00">...</text>
<polygon fill="#ffffff" stroke="transparent" points="182.5,-39 182.5,-57 231.5,-57 231.5,-39 182.5,-39"/>
<polygon fill="none" stroke="black" points="182.5,-39 182.5,-57 231.5,-57 231.5,-39 182.5,-39"/>
<text text-anchor="start" x="185.5" y="-45.2" font-family="Helvetica,sans-Serif" font-size="11.00"> &#160;</text>
<polygon fill="#ffffff" stroke="transparent" points="231.5,-39 231.5,-57 262.5,-57 262.5,-39 231.5,-39"/>
<polygon fill="none" stroke="black" points="231.5,-39 231.5,-57 262.5,-57 262.5,-39 231.5,-39"/>
<text text-anchor="start" x="251.5" y="-45.2" font-family="Helvetica,sans-Serif" font-size="11.00"> &#160;</text>
<polygon fill="#ffffff" stroke="transparent" points="262.5,-39 262.5,-57 306.5,-57 306.5,-39 262.5,-39"/>
<polygon fill="none" stroke="black" points="262.5,-39 262.5,-57 306.5,-57 306.5,-39 262.5,-39"/>
<text text-anchor="start" x="283.5" y="-45.2" font-family="Helvetica,sans-Serif" font-size="11.00">1 &gt;</text>
</a>
</g>
</g>
<!-- voorziening&#45;&gt;roi.symbool -->
<g id="edge8" class="edge">
<title>voorziening:w&#45;&gt;roi.symbool:e</title>
<path fill="none" stroke="black" d="M344.57,-68C334.58,-68 324.39,-68 314.52,-68"/>
<polygon fill="black" stroke="black" points="351,-68 359,-71.6 355,-68 359,-68 359,-68 359,-68 355,-68 359,-64.4 351,-68 351,-68"/>
<ellipse fill="none" stroke="black" cx="347.8" cy="-68" rx="3.2" ry="3.2"/>
</g>
</g>
</svg>
