<?xml version="1.0" encoding="UTF-8" standalone="no"?>
<!DOCTYPE svg PUBLIC "-//W3C//DTD SVG 1.1//EN"
 "http://www.w3.org/Graphics/SVG/1.1/DTD/svg11.dtd">
<!-- Generated by graphviz version 2.50.0 (0)
 -->
<!-- Title: gt_pk_metadata Pages: 1 -->
<svg width="216pt" height="192pt"
 viewBox="0.00 0.00 216.00 192.00" xmlns="http://www.w3.org/2000/svg" xmlns:xlink="http://www.w3.org/1999/xlink">
<g id="graph0" class="graph" transform="scale(1 1) rotate(0) translate(4 188)">
<title>gt_pk_metadata</title>
<polygon fill="#ffffff" stroke="transparent" points="-4,4 -4,-188 212,-188 212,4 -4,4"/>
<!-- gt_pk_metadata -->
<g id="node1" class="node">
<title>gt_pk_metadata</title>
<g id="a_node1"><a xlink:href="../../tables/gt_pk_metadata.html" xlink:title="gt_pk_metadata" target="_top">
<polygon fill="#ffffff" stroke="transparent" points="8,-4 8,-180 200,-180 200,-4 8,-4"/>
<polygon fill="#f5f5f5" stroke="transparent" points="10,-156 10,-178 198,-178 198,-156 10,-156"/>
<polygon fill="none" stroke="black" points="10,-156 10,-178 198,-178 198,-156 10,-156"/>
<text text-anchor="start" x="15" y="-165.2" font-family="Helvetica,sans-Serif" font-weight="bold" font-size="11.00">gt_pk_metadata</text>
<text text-anchor="start" x="156" y="-164.2" font-family="Helvetica,sans-Serif" font-size="11.00">[table]</text>
<polygon fill="#ffffff" stroke="transparent" points="10,-134 10,-156 127,-156 127,-134 10,-134"/>
<polygon fill="none" stroke="black" points="10,-134 10,-156 127,-156 127,-134 10,-134"/>
<text text-anchor="start" x="30" y="-142.2" font-family="Helvetica,sans-Serif" font-size="11.00">table_schema</text>
<polygon fill="none" stroke="black" points="127,-134 127,-156 198,-156 198,-134 127,-134"/>
<text text-anchor="start" x="130" y="-142.2" font-family="Helvetica,sans-Serif" font-size="11.00">varchar[32]</text>
<polygon fill="#ffffff" stroke="transparent" points="10,-112 10,-134 127,-134 127,-112 10,-112"/>
<polygon fill="none" stroke="black" points="10,-112 10,-134 127,-134 127,-112 10,-112"/>
<text text-anchor="start" x="30" y="-120.2" font-family="Helvetica,sans-Serif" font-size="11.00">table_name</text>
<polygon fill="none" stroke="black" points="127,-112 127,-134 198,-134 198,-112 127,-112"/>
<text text-anchor="start" x="130" y="-120.2" font-family="Helvetica,sans-Serif" font-size="11.00">varchar[64]</text>
<polygon fill="#ffffff" stroke="transparent" points="10,-90 10,-112 127,-112 127,-90 10,-90"/>
<polygon fill="none" stroke="black" points="10,-90 10,-112 127,-112 127,-90 10,-90"/>
<text text-anchor="start" x="30" y="-98.2" font-family="Helvetica,sans-Serif" font-size="11.00">pk_column</text>
<polygon fill="none" stroke="black" points="127,-90 127,-112 198,-112 198,-90 127,-90"/>
<text text-anchor="start" x="130" y="-98.2" font-family="Helvetica,sans-Serif" font-size="11.00">varchar[32]</text>
<polygon fill="none" stroke="black" points="10,-68 10,-90 127,-90 127,-68 10,-68"/>
<text text-anchor="start" x="30" y="-76.2" font-family="Helvetica,sans-Serif" font-size="11.00">pk_column_idx</text>
<polygon fill="none" stroke="black" points="127,-68 127,-90 198,-90 198,-68 127,-68"/>
<text text-anchor="start" x="130" y="-76.2" font-family="Helvetica,sans-Serif" font-size="11.00">int4[10]</text>
<polygon fill="none" stroke="black" points="10,-46 10,-68 127,-68 127,-46 10,-46"/>
<text text-anchor="start" x="30" y="-54.2" font-family="Helvetica,sans-Serif" font-size="11.00">pk_policy</text>
<polygon fill="none" stroke="black" points="127,-46 127,-68 198,-68 198,-46 127,-46"/>
<text text-anchor="start" x="130" y="-54.2" font-family="Helvetica,sans-Serif" font-size="11.00">varchar[32]</text>
<polygon fill="none" stroke="black" points="10,-24 10,-46 127,-46 127,-24 10,-24"/>
<text text-anchor="start" x="30" y="-32.2" font-family="Helvetica,sans-Serif" font-size="11.00">pk_sequence</text>
<polygon fill="none" stroke="black" points="127,-24 127,-46 198,-46 198,-24 127,-24"/>
<text text-anchor="start" x="130" y="-32.2" font-family="Helvetica,sans-Serif" font-size="11.00">varchar[64]</text>
<polygon fill="#ffffff" stroke="transparent" points="10,-6 10,-24 74,-24 74,-6 10,-6"/>
<polygon fill="none" stroke="black" points="10,-6 10,-24 74,-24 74,-6 10,-6"/>
<text text-anchor="start" x="13" y="-12.2" font-family="Helvetica,sans-Serif" font-size="11.00">&lt; 0</text>
<polygon fill="#ffffff" stroke="transparent" points="74,-6 74,-24 127,-24 127,-6 74,-6"/>
<polygon fill="none" stroke="black" points="74,-6 74,-24 127,-24 127,-6 74,-6"/>
<text text-anchor="start" x="116" y="-12.2" font-family="Helvetica,sans-Serif" font-size="11.00"> &#160;</text>
<polygon fill="#ffffff" stroke="transparent" points="127,-6 127,-24 198,-24 198,-6 127,-6"/>
<polygon fill="none" stroke="black" points="127,-6 127,-24 198,-24 198,-6 127,-6"/>
<text text-anchor="start" x="175" y="-12.2" font-family="Helvetica,sans-Serif" font-size="11.00">0 &gt;</text>
<polygon fill="none" stroke="black" stroke-width="2" points="9,-5 9,-179 199,-179 199,-5 9,-5"/>
</a>
</g>
</g>
</g>
</svg>
