<?xml version="1.0" encoding="UTF-8" standalone="no"?>
<!DOCTYPE svg PUBLIC "-//W3C//DTD SVG 1.1//EN"
 "http://www.w3.org/Graphics/SVG/1.1/DTD/svg11.dtd">
<!-- Generated by graphviz version 2.40.1 (20161225.0304)
 -->
<!-- Title: orphans Pages: 1 -->
<svg width="201pt" height="194pt"
 viewBox="0.00 0.00 201.00 194.00" xmlns="http://www.w3.org/2000/svg" xmlns:xlink="http://www.w3.org/1999/xlink">
<g id="graph0" class="graph" transform="scale(1 1) rotate(0) translate(4 190)">
<title>orphans</title>
<polygon fill="#ffffff" stroke="transparent" points="-4,4 -4,-190 197,-190 197,4 -4,4"/>
<!-- gt_pk_metadata -->
<g id="node1" class="node">
<title>gt_pk_metadata</title>
<g id="a_node1"><a xlink:href="../../tables/gt_pk_metadata.html" xlink:title="gt_pk_metadata" target="_top">
<polygon fill="#ffffff" stroke="transparent" points="8,-4 8,-182 185,-182 185,-4 8,-4"/>
<polygon fill="#f5f5f5" stroke="transparent" points="10.5,-157 10.5,-180 183.5,-180 183.5,-157 10.5,-157"/>
<polygon fill="none" stroke="#000000" points="10.5,-157 10.5,-180 183.5,-180 183.5,-157 10.5,-157"/>
<text text-anchor="start" x="15.5" y="-165.6" font-family="Helvetica,sans-Serif" font-weight="bold" font-size="11.00" fill="#000000">gt_pk_metadata</text>
<text text-anchor="start" x="148.5437" y="-165.1" font-family="Helvetica,sans-Serif" font-size="11.00" fill="#000000">[table]</text>
<polygon fill="#ffffff" stroke="transparent" points="10.5,-135 10.5,-157 122.5,-157 122.5,-135 10.5,-135"/>
<polygon fill="none" stroke="#000000" points="10.5,-135 10.5,-157 122.5,-157 122.5,-135 10.5,-135"/>
<text text-anchor="start" x="30.5" y="-142.1" font-family="Helvetica,sans-Serif" font-size="11.00" fill="#000000">table_schema</text>
<polygon fill="none" stroke="#000000" points="122.5,-135 122.5,-157 183.5,-157 183.5,-135 122.5,-135"/>
<text text-anchor="start" x="125.494" y="-142.7" font-family="Helvetica,sans-Serif" font-size="11.00" fill="#000000">varchar[32]</text>
<polygon fill="#ffffff" stroke="transparent" points="10.5,-113 10.5,-135 122.5,-135 122.5,-113 10.5,-113"/>
<polygon fill="none" stroke="#000000" points="10.5,-113 10.5,-135 122.5,-135 122.5,-113 10.5,-113"/>
<text text-anchor="start" x="30.5" y="-120.1" font-family="Helvetica,sans-Serif" font-size="11.00" fill="#000000">table_name</text>
<polygon fill="none" stroke="#000000" points="122.5,-113 122.5,-135 183.5,-135 183.5,-113 122.5,-113"/>
<text text-anchor="start" x="125.494" y="-120.7" font-family="Helvetica,sans-Serif" font-size="11.00" fill="#000000">varchar[64]</text>
<polygon fill="#ffffff" stroke="transparent" points="10.5,-91 10.5,-113 122.5,-113 122.5,-91 10.5,-91"/>
<polygon fill="none" stroke="#000000" points="10.5,-91 10.5,-113 122.5,-113 122.5,-91 10.5,-91"/>
<text text-anchor="start" x="30.5" y="-98.1" font-family="Helvetica,sans-Serif" font-size="11.00" fill="#000000">pk_column</text>
<polygon fill="none" stroke="#000000" points="122.5,-91 122.5,-113 183.5,-113 183.5,-91 122.5,-91"/>
<text text-anchor="start" x="125.494" y="-98.7" font-family="Helvetica,sans-Serif" font-size="11.00" fill="#000000">varchar[32]</text>
<polygon fill="none" stroke="#000000" points="10.5,-69 10.5,-91 122.5,-91 122.5,-69 10.5,-69"/>
<text text-anchor="start" x="30.5" y="-76.1" font-family="Helvetica,sans-Serif" font-size="11.00" fill="#000000">pk_column_idx</text>
<polygon fill="none" stroke="#000000" points="122.5,-69 122.5,-91 183.5,-91 183.5,-69 122.5,-69"/>
<text text-anchor="start" x="125.5" y="-76.7" font-family="Helvetica,sans-Serif" font-size="11.00" fill="#000000">int4[10]</text>
<polygon fill="none" stroke="#000000" points="10.5,-47 10.5,-69 122.5,-69 122.5,-47 10.5,-47"/>
<text text-anchor="start" x="30.5" y="-54.1" font-family="Helvetica,sans-Serif" font-size="11.00" fill="#000000">pk_policy</text>
<polygon fill="none" stroke="#000000" points="122.5,-47 122.5,-69 183.5,-69 183.5,-47 122.5,-47"/>
<text text-anchor="start" x="125.494" y="-54.7" font-family="Helvetica,sans-Serif" font-size="11.00" fill="#000000">varchar[32]</text>
<polygon fill="none" stroke="#000000" points="10.5,-25 10.5,-47 122.5,-47 122.5,-25 10.5,-25"/>
<text text-anchor="start" x="30.5" y="-32.1" font-family="Helvetica,sans-Serif" font-size="11.00" fill="#000000">pk_sequence</text>
<polygon fill="none" stroke="#000000" points="122.5,-25 122.5,-47 183.5,-47 183.5,-25 122.5,-25"/>
<text text-anchor="start" x="125.494" y="-32.7" font-family="Helvetica,sans-Serif" font-size="11.00" fill="#000000">varchar[64]</text>
<polygon fill="#ffffff" stroke="transparent" points="10.5,-6 10.5,-25 70.5,-25 70.5,-6 10.5,-6"/>
<polygon fill="none" stroke="#000000" points="10.5,-6 10.5,-25 70.5,-25 70.5,-6 10.5,-6"/>
<text text-anchor="start" x="13.5" y="-12.1" font-family="Helvetica,sans-Serif" font-size="11.00" fill="#000000">&lt; 0</text>
<polygon fill="#ffffff" stroke="transparent" points="70.5,-6 70.5,-25 122.5,-25 122.5,-6 70.5,-6"/>
<polygon fill="none" stroke="#000000" points="70.5,-6 70.5,-25 122.5,-25 122.5,-6 70.5,-6"/>
<text text-anchor="start" x="113.3862" y="-12.1" font-family="Helvetica,sans-Serif" font-size="11.00" fill="#000000"> &#160;</text>
<polygon fill="#ffffff" stroke="transparent" points="122.5,-6 122.5,-25 183.5,-25 183.5,-6 122.5,-6"/>
<polygon fill="none" stroke="#000000" points="122.5,-6 122.5,-25 183.5,-25 183.5,-6 122.5,-6"/>
<text text-anchor="start" x="164.9053" y="-12.1" font-family="Helvetica,sans-Serif" font-size="11.00" fill="#000000">0 &gt;</text>
<polygon fill="none" stroke="#000000" stroke-width="2" points="9,-5 9,-181 184,-181 184,-5 9,-5"/>
</a>
</g>
</g>
</g>
</svg>
