<?xml version="1.0" encoding="UTF-8" standalone="no"?>
<!DOCTYPE svg PUBLIC "-//W3C//DTD SVG 1.1//EN"
 "http://www.w3.org/Graphics/SVG/1.1/DTD/svg11.dtd">
<!-- Generated by graphviz version 2.50.0 (0)
 -->
<!-- Title: twoDegreesRelationshipsDiagram Pages: 1 -->
<svg width="637pt" height="752pt"
 viewBox="0.00 0.00 637.00 752.00" xmlns="http://www.w3.org/2000/svg" xmlns:xlink="http://www.w3.org/1999/xlink">
<g id="graph0" class="graph" transform="scale(1 1) rotate(0) translate(4 748)">
<title>twoDegreesRelationshipsDiagram</title>
<polygon fill="#ffffff" stroke="transparent" points="-4,4 -4,-748 633,-748 633,4 -4,4"/>
<text text-anchor="middle" x="79.5" y="-7.2" font-family="Helvetica,sans-Serif" font-size="11.00">Generated by SchemaSpy</text>
<!-- bereikbaarheid -->
<g id="node1" class="node">
<title>bereikbaarheid</title>
<g id="a_node1"><a xlink:href="../../tables/bereikbaarheid.html" xlink:title="bereikbaarheid" target="_top">
<polygon fill="#ffffff" stroke="transparent" points="367,-432 367,-740 621,-740 621,-432 367,-432"/>
<polygon fill="#f5f5f5" stroke="transparent" points="369,-716 369,-738 619,-738 619,-716 369,-716"/>
<polygon fill="none" stroke="black" points="369,-716 369,-738 619,-738 619,-716 369,-716"/>
<text text-anchor="start" x="374" y="-725.2" font-family="Helvetica,sans-Serif" font-weight="bold" font-size="11.00">bereikbaarheid</text>
<text text-anchor="start" x="577" y="-724.2" font-family="Helvetica,sans-Serif" font-size="11.00">[table]</text>
<polygon fill="none" stroke="black" points="369,-694 369,-716 483,-716 483,-694 369,-694"/>
<image xlink:href="../../images/primaryKeys.png" width="11px" height="12px" preserveAspectRatio="xMinYMin meet" x="374" y="-711"/>
<text text-anchor="start" x="389" y="-702.2" font-family="Helvetica,sans-Serif" font-size="11.00">uuid</text>
<polygon fill="none" stroke="black" points="483,-694 483,-716 619,-716 619,-694 483,-694"/>
<text text-anchor="start" x="486" y="-702.2" font-family="Helvetica,sans-Serif" font-size="11.00">uuid[2147483647]</text>
<polygon fill="#ffffff" stroke="transparent" points="369,-672 369,-694 483,-694 483,-672 369,-672"/>
<polygon fill="none" stroke="black" points="369,-672 369,-694 483,-694 483,-672 369,-672"/>
<text text-anchor="start" x="389" y="-680.2" font-family="Helvetica,sans-Serif" font-size="11.00">geom</text>
<polygon fill="none" stroke="black" points="483,-672 483,-694 619,-694 619,-672 483,-672"/>
<text text-anchor="start" x="486" y="-680.2" font-family="Helvetica,sans-Serif" font-size="11.00">geometry[2147483647]</text>
<polygon fill="none" stroke="black" points="369,-650 369,-672 483,-672 483,-650 369,-650"/>
<text text-anchor="start" x="389" y="-658.2" font-family="Helvetica,sans-Serif" font-size="11.00">datumtijd</text>
<polygon fill="none" stroke="black" points="483,-650 483,-672 619,-672 619,-650 483,-650"/>
<text text-anchor="start" x="486" y="-658.2" font-family="Helvetica,sans-Serif" font-size="11.00">timestamptz[35,6]</text>
<polygon fill="none" stroke="black" points="369,-628 369,-650 483,-650 483,-628 369,-628"/>
<text text-anchor="start" x="389" y="-636.2" font-family="Helvetica,sans-Serif" font-size="11.00">gebruiker</text>
<polygon fill="none" stroke="black" points="483,-628 483,-650 619,-650 619,-628 483,-628"/>
<text text-anchor="start" x="486" y="-636.2" font-family="Helvetica,sans-Serif" font-size="11.00">varchar[255]</text>
<polygon fill="none" stroke="black" points="369,-606 369,-628 483,-628 483,-606 369,-606"/>
<text text-anchor="start" x="389" y="-614.2" font-family="Helvetica,sans-Serif" font-size="11.00">label</text>
<polygon fill="none" stroke="black" points="483,-606 483,-628 619,-628 619,-606 483,-606"/>
<text text-anchor="start" x="486" y="-614.2" font-family="Helvetica,sans-Serif" font-size="11.00">text[2147483647]</text>
<polygon fill="none" stroke="black" points="369,-584 369,-606 483,-606 483,-584 369,-584"/>
<text text-anchor="start" x="389" y="-592.2" font-family="Helvetica,sans-Serif" font-size="11.00">rotatie</text>
<polygon fill="none" stroke="black" points="483,-584 483,-606 619,-606 619,-584 483,-584"/>
<text text-anchor="start" x="486" y="-592.2" font-family="Helvetica,sans-Serif" font-size="11.00">int4[10]</text>
<polygon fill="none" stroke="black" points="369,-562 369,-584 483,-584 483,-562 369,-562"/>
<text text-anchor="start" x="389" y="-570.2" font-family="Helvetica,sans-Serif" font-size="11.00">bijzonderheden</text>
<polygon fill="none" stroke="black" points="483,-562 483,-584 619,-584 619,-562 483,-562"/>
<text text-anchor="start" x="486" y="-570.2" font-family="Helvetica,sans-Serif" font-size="11.00">text[2147483647]</text>
<polygon fill="none" stroke="black" points="369,-540 369,-562 483,-562 483,-540 369,-540"/>
<text text-anchor="start" x="389" y="-548.2" font-family="Helvetica,sans-Serif" font-size="11.00">plusinfo</text>
<polygon fill="none" stroke="black" points="483,-540 483,-562 619,-562 619,-540 483,-540"/>
<text text-anchor="start" x="486" y="-548.2" font-family="Helvetica,sans-Serif" font-size="11.00">jsonb[2147483647]</text>
<polygon fill="#ffffff" stroke="transparent" points="369,-518 369,-540 483,-540 483,-518 369,-518"/>
<polygon fill="none" stroke="black" points="369,-518 369,-540 483,-540 483,-518 369,-518"/>
<image xlink:href="../../images/foreignKeys.png" width="11px" height="12px" preserveAspectRatio="xMinYMin meet" x="374" y="-535"/>
<text text-anchor="start" x="389" y="-526.2" font-family="Helvetica,sans-Serif" font-size="11.00">object_uuid</text>
<polygon fill="none" stroke="black" points="483,-518 483,-540 619,-540 619,-518 483,-518"/>
<text text-anchor="start" x="486" y="-526.2" font-family="Helvetica,sans-Serif" font-size="11.00">uuid[2147483647]</text>
<polygon fill="none" stroke="black" points="369,-496 369,-518 483,-518 483,-496 369,-496"/>
<image xlink:href="../../images/foreignKeys.png" width="11px" height="12px" preserveAspectRatio="xMinYMin meet" x="374" y="-513"/>
<text text-anchor="start" x="389" y="-504.2" font-family="Helvetica,sans-Serif" font-size="11.00">verbinding_id</text>
<polygon fill="none" stroke="black" points="483,-496 483,-518 619,-518 619,-496 483,-496"/>
<text text-anchor="start" x="486" y="-504.2" font-family="Helvetica,sans-Serif" font-size="11.00">int2[5]</text>
<polygon fill="none" stroke="black" points="369,-474 369,-496 483,-496 483,-474 369,-474"/>
<text text-anchor="start" x="389" y="-482.2" font-family="Helvetica,sans-Serif" font-size="11.00">obstakels</text>
<polygon fill="none" stroke="black" points="483,-474 483,-496 619,-496 619,-474 483,-474"/>
<text text-anchor="start" x="486" y="-482.2" font-family="Helvetica,sans-Serif" font-size="11.00">varchar[50]</text>
<polygon fill="none" stroke="black" points="369,-452 369,-474 483,-474 483,-452 369,-452"/>
<text text-anchor="start" x="389" y="-460.2" font-family="Helvetica,sans-Serif" font-size="11.00">wegafzetting</text>
<polygon fill="none" stroke="black" points="483,-452 483,-474 619,-474 619,-452 483,-452"/>
<text text-anchor="start" x="486" y="-460.2" font-family="Helvetica,sans-Serif" font-size="11.00">varchar[50]</text>
<polygon fill="#ffffff" stroke="transparent" points="369,-434 369,-452 432,-452 432,-434 369,-434"/>
<polygon fill="none" stroke="black" points="369,-434 369,-452 432,-452 432,-434 369,-434"/>
<text text-anchor="start" x="372" y="-440.2" font-family="Helvetica,sans-Serif" font-size="11.00">&lt; 2</text>
<polygon fill="#ffffff" stroke="transparent" points="432,-434 432,-452 483,-452 483,-434 432,-434"/>
<polygon fill="none" stroke="black" points="432,-434 432,-452 483,-452 483,-434 432,-434"/>
<text text-anchor="start" x="472" y="-440.2" font-family="Helvetica,sans-Serif" font-size="11.00"> &#160;</text>
<polygon fill="#ffffff" stroke="transparent" points="483,-434 483,-452 619,-452 619,-434 483,-434"/>
<polygon fill="none" stroke="black" points="483,-434 483,-452 619,-452 619,-434 483,-434"/>
<text text-anchor="start" x="596" y="-440.2" font-family="Helvetica,sans-Serif" font-size="11.00">0 &gt;</text>
<polygon fill="none" stroke="black" stroke-width="2" points="368,-433 368,-739 620,-739 620,-433 368,-433"/>
</a>
</g>
</g>
<!-- object -->
<g id="node2" class="node">
<title>object</title>
<g id="a_node2"><a xlink:href="../../tables/object.html" xlink:title="object" target="_top">
<polygon fill="#ffffff" stroke="transparent" points="183.5,-105 183.5,-295 314.5,-295 314.5,-105 183.5,-105"/>
<polygon fill="#f5f5f5" stroke="transparent" points="184,-273 184,-295 315,-295 315,-273 184,-273"/>
<polygon fill="none" stroke="black" points="184,-273 184,-295 315,-295 315,-273 184,-273"/>
<text text-anchor="start" x="189" y="-282.2" font-family="Helvetica,sans-Serif" font-weight="bold" font-size="11.00">object</text>
<text text-anchor="start" x="273" y="-281.2" font-family="Helvetica,sans-Serif" font-size="11.00">[table]</text>
<polygon fill="none" stroke="black" points="184,-251 184,-273 315,-273 315,-251 184,-251"/>
<image xlink:href="../../images/primaryKeys.png" width="11px" height="12px" preserveAspectRatio="xMinYMin meet" x="189" y="-268"/>
<text text-anchor="start" x="204" y="-259.2" font-family="Helvetica,sans-Serif" font-size="11.00">uuid</text>
<polygon fill="#ffffff" stroke="transparent" points="184,-229 184,-251 315,-251 315,-229 184,-229"/>
<polygon fill="none" stroke="black" points="184,-229 184,-251 315,-251 315,-229 184,-229"/>
<text text-anchor="start" x="204" y="-237.2" font-family="Helvetica,sans-Serif" font-size="11.00">geom</text>
<polygon fill="#ffffff" stroke="transparent" points="184,-207 184,-229 315,-229 315,-207 184,-207"/>
<polygon fill="none" stroke="black" points="184,-207 184,-229 315,-229 315,-207 184,-207"/>
<text text-anchor="start" x="204" y="-215.2" font-family="Helvetica,sans-Serif" font-size="11.00">revisie_frequentie</text>
<polygon fill="#ffffff" stroke="transparent" points="184,-185 184,-207 315,-207 315,-185 184,-185"/>
<polygon fill="none" stroke="black" points="184,-185 184,-207 315,-207 315,-185 184,-185"/>
<image xlink:href="../../images/foreignKeys.png" width="11px" height="12px" preserveAspectRatio="xMinYMin meet" x="189" y="-202"/>
<text text-anchor="start" x="204" y="-193.2" font-family="Helvetica,sans-Serif" font-size="11.00">fase_id</text>
<polygon fill="#ffffff" stroke="transparent" points="184,-163 184,-185 315,-185 315,-163 184,-163"/>
<polygon fill="none" stroke="black" points="184,-163 184,-185 315,-185 315,-163 184,-163"/>
<image xlink:href="../../images/foreignKeys.png" width="11px" height="12px" preserveAspectRatio="xMinYMin meet" x="189" y="-180"/>
<text text-anchor="start" x="204" y="-171.2" font-family="Helvetica,sans-Serif" font-size="11.00">object_type_id</text>
<polygon fill="#ffffff" stroke="transparent" points="184,-141 184,-163 315,-163 315,-141 184,-141"/>
<polygon fill="none" stroke="black" points="184,-141 184,-163 315,-163 315,-141 184,-141"/>
<text text-anchor="start" x="204" y="-149.2" font-family="Helvetica,sans-Serif" font-size="11.00">periode</text>
<polygon fill="none" stroke="black" points="184,-123 184,-141 315,-141 315,-123 184,-123"/>
<text text-anchor="start" x="187" y="-129.2" font-family="Helvetica,sans-Serif" font-size="11.00">...</text>
<polygon fill="#ffffff" stroke="transparent" points="184,-105 184,-123 242,-123 242,-105 184,-105"/>
<polygon fill="none" stroke="black" points="184,-105 184,-123 242,-123 242,-105 184,-105"/>
<text text-anchor="start" x="187" y="-111.2" font-family="Helvetica,sans-Serif" font-size="11.00">&lt; 2</text>
<polygon fill="#ffffff" stroke="transparent" points="242,-105 242,-123 272,-123 272,-105 242,-105"/>
<polygon fill="none" stroke="black" points="242,-105 242,-123 272,-123 272,-105 242,-105"/>
<text text-anchor="start" x="261" y="-111.2" font-family="Helvetica,sans-Serif" font-size="11.00"> &#160;</text>
<polygon fill="#ffffff" stroke="transparent" points="272,-105 272,-123 315,-123 315,-105 272,-105"/>
<polygon fill="none" stroke="black" points="272,-105 272,-123 315,-123 315,-105 272,-105"/>
<text text-anchor="start" x="292" y="-111.2" font-family="Helvetica,sans-Serif" font-size="11.00">6 &gt;</text>
</a>
</g>
</g>
<!-- bereikbaarheid&#45;&gt;object -->
<g id="edge1" class="edge">
<title>bereikbaarheid:w&#45;&gt;object:e</title>
<path fill="none" stroke="black" d="M354.65,-522.92C318.89,-483.18 371.02,-262 316,-262"/>
<polygon fill="black" stroke="black" points="360.72,-525.68 366.51,-532.28 364.36,-527.34 368,-529 368,-529 368,-529 364.36,-527.34 369.49,-525.72 360.72,-525.68 360.72,-525.68"/>
<ellipse fill="none" stroke="black" cx="357.81" cy="-524.36" rx="3.2" ry="3.2"/>
</g>
<!-- roi.verbinding -->
<g id="node3" class="node">
<title>roi.verbinding</title>
<g id="a_node3"><a xlink:href="../../../roi/tables/verbinding.html" xlink:title="roi.verbinding" target="_top">
<polygon fill="#ffffff" stroke="transparent" points="180,-478 180,-536 318,-536 318,-478 180,-478"/>
<polygon fill="#f5f5f5" stroke="transparent" points="180,-514 180,-536 318,-536 318,-514 180,-514"/>
<polygon fill="none" stroke="black" points="180,-514 180,-536 318,-536 318,-514 180,-514"/>
<text text-anchor="start" x="185" y="-523.2" font-family="Helvetica,sans-Serif" font-weight="bold" font-size="11.00">roi.verbinding</text>
<text text-anchor="start" x="276" y="-522.2" font-family="Helvetica,sans-Serif" font-size="11.00">[table]</text>
<polygon fill="none" stroke="black" points="180,-496 180,-514 318,-514 318,-496 180,-496"/>
<text text-anchor="start" x="183" y="-502.2" font-family="Helvetica,sans-Serif" font-size="11.00">...</text>
<polygon fill="#ffffff" stroke="transparent" points="180,-478 180,-496 236,-496 236,-478 180,-478"/>
<polygon fill="none" stroke="black" points="180,-478 180,-496 236,-496 236,-478 180,-478"/>
<text text-anchor="start" x="183" y="-484.2" font-family="Helvetica,sans-Serif" font-size="11.00"> &#160;</text>
<polygon fill="#ffffff" stroke="transparent" points="236,-478 236,-496 271,-496 271,-478 236,-478"/>
<polygon fill="none" stroke="black" points="236,-478 236,-496 271,-496 271,-478 236,-478"/>
<text text-anchor="start" x="260" y="-484.2" font-family="Helvetica,sans-Serif" font-size="11.00"> &#160;</text>
<polygon fill="#ffffff" stroke="transparent" points="271,-478 271,-496 318,-496 318,-478 271,-478"/>
<polygon fill="none" stroke="black" points="271,-478 271,-496 318,-496 318,-478 271,-478"/>
<text text-anchor="start" x="295" y="-484.2" font-family="Helvetica,sans-Serif" font-size="11.00">1 &gt;</text>
</a>
</g>
</g>
<!-- bereikbaarheid&#45;&gt;roi.verbinding -->
<g id="edge2" class="edge">
<title>bereikbaarheid:w&#45;&gt;roi.verbinding:e</title>
<path fill="none" stroke="black" d="M353.48,-507C344.42,-507 335.19,-507 326.17,-507"/>
<polygon fill="black" stroke="black" points="360,-507 368,-510.6 364,-507 368,-507 368,-507 368,-507 364,-507 368,-503.4 360,-507 360,-507"/>
<ellipse fill="none" stroke="black" cx="356.8" cy="-507" rx="3.2" ry="3.2"/>
</g>
<!-- roi.fase -->
<g id="node5" class="node">
<title>roi.fase</title>
<g id="a_node5"><a xlink:href="../../../roi/tables/fase.html" xlink:title="roi.fase" target="_top">
<polygon fill="#ffffff" stroke="transparent" points="20,-198 20,-256 119,-256 119,-198 20,-198"/>
<polygon fill="#f5f5f5" stroke="transparent" points="20.5,-234 20.5,-256 119.5,-256 119.5,-234 20.5,-234"/>
<polygon fill="none" stroke="black" points="20.5,-234 20.5,-256 119.5,-256 119.5,-234 20.5,-234"/>
<text text-anchor="start" x="25.5" y="-243.2" font-family="Helvetica,sans-Serif" font-weight="bold" font-size="11.00">roi.fase</text>
<text text-anchor="start" x="77.5" y="-242.2" font-family="Helvetica,sans-Serif" font-size="11.00">[table]</text>
<polygon fill="none" stroke="black" points="20.5,-216 20.5,-234 119.5,-234 119.5,-216 20.5,-216"/>
<text text-anchor="start" x="23.5" y="-222.2" font-family="Helvetica,sans-Serif" font-size="11.00">...</text>
<polygon fill="#ffffff" stroke="transparent" points="20.5,-198 20.5,-216 56.5,-216 56.5,-198 20.5,-198"/>
<polygon fill="none" stroke="black" points="20.5,-198 20.5,-216 56.5,-216 56.5,-198 20.5,-198"/>
<text text-anchor="start" x="23.5" y="-204.2" font-family="Helvetica,sans-Serif" font-size="11.00"> &#160;</text>
<polygon fill="#ffffff" stroke="transparent" points="56.5,-198 56.5,-216 81.5,-216 81.5,-198 56.5,-198"/>
<polygon fill="none" stroke="black" points="56.5,-198 56.5,-216 81.5,-216 81.5,-198 56.5,-198"/>
<text text-anchor="start" x="70.5" y="-204.2" font-family="Helvetica,sans-Serif" font-size="11.00"> &#160;</text>
<polygon fill="#ffffff" stroke="transparent" points="81.5,-198 81.5,-216 119.5,-216 119.5,-198 81.5,-198"/>
<polygon fill="none" stroke="black" points="81.5,-198 81.5,-216 119.5,-216 119.5,-198 81.5,-198"/>
<text text-anchor="start" x="96.5" y="-204.2" font-family="Helvetica,sans-Serif" font-size="11.00">1 &gt;</text>
</a>
</g>
</g>
<!-- object&#45;&gt;roi.fase -->
<g id="edge4" class="edge">
<title>object:w&#45;&gt;roi.fase:e</title>
<path fill="none" stroke="black" d="M168.74,-198.57C150.93,-205.67 145.5,-225 120.5,-225"/>
<polygon fill="black" stroke="black" points="175.13,-197.42 183.64,-199.54 179.06,-196.71 183,-196 183,-196 183,-196 179.06,-196.71 182.36,-192.46 175.13,-197.42 175.13,-197.42"/>
<ellipse fill="none" stroke="black" cx="171.98" cy="-197.99" rx="3.2" ry="3.2"/>
</g>
<!-- object_type -->
<g id="node6" class="node">
<title>object_type</title>
<g id="a_node6"><a xlink:href="../../tables/object_type.html" xlink:title="object_type" target="_top">
<polygon fill="#ffffff" stroke="transparent" points="8,-119 8,-177 131,-177 131,-119 8,-119"/>
<polygon fill="#f5f5f5" stroke="transparent" points="8.5,-155 8.5,-177 131.5,-177 131.5,-155 8.5,-155"/>
<polygon fill="none" stroke="black" points="8.5,-155 8.5,-177 131.5,-177 131.5,-155 8.5,-155"/>
<text text-anchor="start" x="13.5" y="-164.2" font-family="Helvetica,sans-Serif" font-weight="bold" font-size="11.00">object_type</text>
<text text-anchor="start" x="89.5" y="-163.2" font-family="Helvetica,sans-Serif" font-size="11.00">[table]</text>
<polygon fill="none" stroke="black" points="8.5,-137 8.5,-155 131.5,-155 131.5,-137 8.5,-137"/>
<text text-anchor="start" x="11.5" y="-143.2" font-family="Helvetica,sans-Serif" font-size="11.00">...</text>
<polygon fill="#ffffff" stroke="transparent" points="8.5,-119 8.5,-137 56.5,-137 56.5,-119 8.5,-119"/>
<polygon fill="none" stroke="black" points="8.5,-119 8.5,-137 56.5,-137 56.5,-119 8.5,-119"/>
<text text-anchor="start" x="11.5" y="-125.2" font-family="Helvetica,sans-Serif" font-size="11.00"> &#160;</text>
<polygon fill="#ffffff" stroke="transparent" points="56.5,-119 56.5,-137 87.5,-137 87.5,-119 56.5,-119"/>
<polygon fill="none" stroke="black" points="56.5,-119 56.5,-137 87.5,-137 87.5,-119 56.5,-119"/>
<text text-anchor="start" x="76.5" y="-125.2" font-family="Helvetica,sans-Serif" font-size="11.00"> &#160;</text>
<polygon fill="#ffffff" stroke="transparent" points="87.5,-119 87.5,-137 131.5,-137 131.5,-119 87.5,-119"/>
<polygon fill="none" stroke="black" points="87.5,-119 87.5,-137 131.5,-137 131.5,-119 87.5,-119"/>
<text text-anchor="start" x="108.5" y="-125.2" font-family="Helvetica,sans-Serif" font-size="11.00">1 &gt;</text>
</a>
</g>
</g>
<!-- object&#45;&gt;object_type -->
<g id="edge5" class="edge">
<title>object:w&#45;&gt;object_type:e</title>
<path fill="none" stroke="black" d="M169.02,-170.34C156.35,-162.75 152.35,-146 132.5,-146"/>
<polygon fill="black" stroke="black" points="175.26,-171.97 182.09,-177.48 179.13,-172.99 183,-174 183,-174 183,-174 179.13,-172.99 183.91,-170.52 175.26,-171.97 175.26,-171.97"/>
<ellipse fill="none" stroke="black" cx="172.17" cy="-171.16" rx="3.2" ry="3.2"/>
</g>
<!-- label -->
<g id="node4" class="node">
<title>label</title>
<g id="a_node4"><a xlink:href="../../tables/label.html" xlink:title="label" target="_top">
<polygon fill="#ffffff" stroke="transparent" points="453,-116 453,-174 535,-174 535,-116 453,-116"/>
<polygon fill="#f5f5f5" stroke="transparent" points="453,-152 453,-174 535,-174 535,-152 453,-152"/>
<polygon fill="none" stroke="black" points="453,-152 453,-174 535,-174 535,-152 453,-152"/>
<text text-anchor="start" x="458" y="-161.2" font-family="Helvetica,sans-Serif" font-weight="bold" font-size="11.00">label</text>
<text text-anchor="start" x="493" y="-160.2" font-family="Helvetica,sans-Serif" font-size="11.00">[table]</text>
<polygon fill="none" stroke="black" points="453,-134 453,-152 535,-152 535,-134 453,-134"/>
<text text-anchor="start" x="456" y="-140.2" font-family="Helvetica,sans-Serif" font-size="11.00">...</text>
<polygon fill="#ffffff" stroke="transparent" points="453,-116 453,-134 493,-134 493,-116 453,-116"/>
<polygon fill="none" stroke="black" points="453,-116 453,-134 493,-134 493,-116 453,-116"/>
<text text-anchor="start" x="456" y="-122.2" font-family="Helvetica,sans-Serif" font-size="11.00">&lt; 2</text>
<polygon fill="#ffffff" stroke="transparent" points="493,-116 493,-134 514,-134 514,-116 493,-116"/>
<polygon fill="none" stroke="black" points="493,-116 493,-134 514,-134 514,-116 493,-116"/>
<text text-anchor="start" x="503" y="-122.2" font-family="Helvetica,sans-Serif" font-size="11.00"> &#160;</text>
<polygon fill="#ffffff" stroke="transparent" points="514,-116 514,-134 535,-134 535,-116 514,-116"/>
<polygon fill="none" stroke="black" points="514,-116 514,-134 535,-134 535,-116 514,-116"/>
<text text-anchor="start" x="524" y="-122.2" font-family="Helvetica,sans-Serif" font-size="11.00"> &#160;</text>
</a>
</g>
</g>
<!-- label&#45;&gt;object -->
<g id="edge3" class="edge">
<title>label:w&#45;&gt;object:e</title>
<path fill="none" stroke="black" d="M437.26,-143.48C403.05,-145.92 388.49,-157.92 359,-185 330.13,-211.51 355.2,-262 316,-262"/>
<polygon fill="black" stroke="black" points="444,-143.26 452.12,-146.6 448,-143.13 452,-143 452,-143 452,-143 448,-143.13 451.88,-139.4 444,-143.26 444,-143.26"/>
<ellipse fill="none" stroke="black" cx="440.81" cy="-143.36" rx="3.2" ry="3.2"/>
</g>
<!-- opstelplaats -->
<g id="node7" class="node">
<title>opstelplaats</title>
<g id="a_node7"><a xlink:href="../../tables/opstelplaats.html" xlink:title="opstelplaats" target="_top">
<polygon fill="#ffffff" stroke="transparent" points="430,-37 430,-95 558,-95 558,-37 430,-37"/>
<polygon fill="#f5f5f5" stroke="transparent" points="430,-73 430,-95 558,-95 558,-73 430,-73"/>
<polygon fill="none" stroke="black" points="430,-73 430,-95 558,-95 558,-73 430,-73"/>
<text text-anchor="start" x="435" y="-82.2" font-family="Helvetica,sans-Serif" font-weight="bold" font-size="11.00">opstelplaats</text>
<text text-anchor="start" x="516" y="-81.2" font-family="Helvetica,sans-Serif" font-size="11.00">[table]</text>
<polygon fill="none" stroke="black" points="430,-55 430,-73 558,-73 558,-55 430,-55"/>
<text text-anchor="start" x="433" y="-61.2" font-family="Helvetica,sans-Serif" font-size="11.00">...</text>
<polygon fill="#ffffff" stroke="transparent" points="430,-37 430,-55 493,-55 493,-37 430,-37"/>
<polygon fill="none" stroke="black" points="430,-37 430,-55 493,-55 493,-37 430,-37"/>
<text text-anchor="start" x="433" y="-43.2" font-family="Helvetica,sans-Serif" font-size="11.00">&lt; 2</text>
<polygon fill="#ffffff" stroke="transparent" points="493,-37 493,-55 525,-55 525,-37 493,-37"/>
<polygon fill="none" stroke="black" points="493,-37 493,-55 525,-55 525,-37 493,-37"/>
<text text-anchor="start" x="514" y="-43.2" font-family="Helvetica,sans-Serif" font-size="11.00"> &#160;</text>
<polygon fill="#ffffff" stroke="transparent" points="525,-37 525,-55 558,-55 558,-37 525,-37"/>
<polygon fill="none" stroke="black" points="525,-37 525,-55 558,-55 558,-37 525,-37"/>
<text text-anchor="start" x="547" y="-43.2" font-family="Helvetica,sans-Serif" font-size="11.00"> &#160;</text>
</a>
</g>
</g>
<!-- opstelplaats&#45;&gt;object -->
<g id="edge6" class="edge">
<title>opstelplaats:w&#45;&gt;object:e</title>
<path fill="none" stroke="black" d="M414.42,-64.83C389.16,-68.04 377.68,-80.63 359,-105 314.98,-162.41 388.35,-262 316,-262"/>
<polygon fill="black" stroke="black" points="421.01,-64.46 429.21,-67.59 425.01,-64.23 429,-64 429,-64 429,-64 425.01,-64.23 428.79,-60.41 421.01,-64.46 421.01,-64.46"/>
<ellipse fill="none" stroke="black" cx="417.82" cy="-64.64" rx="3.2" ry="3.2"/>
</g>
<!-- risico -->
<g id="node8" class="node">
<title>risico</title>
<g id="a_node8"><a xlink:href="../../tables/risico.html" xlink:title="risico" target="_top">
<polygon fill="#ffffff" stroke="transparent" points="451.5,-353 451.5,-411 536.5,-411 536.5,-353 451.5,-353"/>
<polygon fill="#f5f5f5" stroke="transparent" points="452,-389 452,-411 537,-411 537,-389 452,-389"/>
<polygon fill="none" stroke="black" points="452,-389 452,-411 537,-411 537,-389 452,-389"/>
<text text-anchor="start" x="457" y="-398.2" font-family="Helvetica,sans-Serif" font-weight="bold" font-size="11.00">risico</text>
<text text-anchor="start" x="495" y="-397.2" font-family="Helvetica,sans-Serif" font-size="11.00">[table]</text>
<polygon fill="none" stroke="black" points="452,-371 452,-389 537,-389 537,-371 452,-371"/>
<text text-anchor="start" x="455" y="-377.2" font-family="Helvetica,sans-Serif" font-size="11.00">...</text>
<polygon fill="#ffffff" stroke="transparent" points="452,-353 452,-371 493,-371 493,-353 452,-353"/>
<polygon fill="none" stroke="black" points="452,-353 452,-371 493,-371 493,-353 452,-353"/>
<text text-anchor="start" x="455" y="-359.2" font-family="Helvetica,sans-Serif" font-size="11.00">&lt; 1</text>
<polygon fill="#ffffff" stroke="transparent" points="493,-353 493,-371 515,-371 515,-353 493,-353"/>
<polygon fill="none" stroke="black" points="493,-353 493,-371 515,-371 515,-353 493,-353"/>
<text text-anchor="start" x="504" y="-359.2" font-family="Helvetica,sans-Serif" font-size="11.00"> &#160;</text>
<polygon fill="#ffffff" stroke="transparent" points="515,-353 515,-371 537,-371 537,-353 515,-353"/>
<polygon fill="none" stroke="black" points="515,-353 515,-371 537,-371 537,-353 515,-353"/>
<text text-anchor="start" x="526" y="-359.2" font-family="Helvetica,sans-Serif" font-size="11.00"> &#160;</text>
</a>
</g>
</g>
<!-- risico&#45;&gt;object -->
<g id="edge7" class="edge">
<title>risico:w&#45;&gt;object:e</title>
<path fill="none" stroke="black" d="M436.18,-379.64C403,-377.86 387.8,-368.91 359,-343 328.7,-315.74 356.76,-262 316,-262"/>
<polygon fill="black" stroke="black" points="443,-379.81 450.91,-383.6 447,-379.9 451,-380 451,-380 451,-380 447,-379.9 451.09,-376.4 443,-379.81 443,-379.81"/>
<ellipse fill="none" stroke="black" cx="439.8" cy="-379.73" rx="3.2" ry="3.2"/>
</g>
<!-- sector -->
<g id="node9" class="node">
<title>sector</title>
<g id="a_node9"><a xlink:href="../../tables/sector.html" xlink:title="sector" target="_top">
<polygon fill="#ffffff" stroke="transparent" points="448.5,-274 448.5,-332 539.5,-332 539.5,-274 448.5,-274"/>
<polygon fill="#f5f5f5" stroke="transparent" points="449,-310 449,-332 540,-332 540,-310 449,-310"/>
<polygon fill="none" stroke="black" points="449,-310 449,-332 540,-332 540,-310 449,-310"/>
<text text-anchor="start" x="454" y="-319.2" font-family="Helvetica,sans-Serif" font-weight="bold" font-size="11.00">sector</text>
<text text-anchor="start" x="498" y="-318.2" font-family="Helvetica,sans-Serif" font-size="11.00">[table]</text>
<polygon fill="none" stroke="black" points="449,-292 449,-310 540,-310 540,-292 449,-292"/>
<text text-anchor="start" x="452" y="-298.2" font-family="Helvetica,sans-Serif" font-size="11.00">...</text>
<polygon fill="#ffffff" stroke="transparent" points="449,-274 449,-292 493,-292 493,-274 449,-274"/>
<polygon fill="none" stroke="black" points="449,-274 449,-292 493,-292 493,-274 449,-274"/>
<text text-anchor="start" x="452" y="-280.2" font-family="Helvetica,sans-Serif" font-size="11.00">&lt; 2</text>
<polygon fill="#ffffff" stroke="transparent" points="493,-274 493,-292 516,-292 516,-274 493,-274"/>
<polygon fill="none" stroke="black" points="493,-274 493,-292 516,-292 516,-274 493,-274"/>
<text text-anchor="start" x="505" y="-280.2" font-family="Helvetica,sans-Serif" font-size="11.00"> &#160;</text>
<polygon fill="#ffffff" stroke="transparent" points="516,-274 516,-292 540,-292 540,-274 516,-274"/>
<polygon fill="none" stroke="black" points="516,-274 516,-292 540,-292 540,-274 516,-274"/>
<text text-anchor="start" x="529" y="-280.2" font-family="Helvetica,sans-Serif" font-size="11.00"> &#160;</text>
</a>
</g>
</g>
<!-- sector&#45;&gt;object -->
<g id="edge8" class="edge">
<title>sector:w&#45;&gt;object:e</title>
<path fill="none" stroke="black" d="M433.62,-300.22C384.84,-294.72 372.04,-262 316,-262"/>
<polygon fill="black" stroke="black" points="440.01,-300.57 447.81,-304.59 444.01,-300.78 448,-301 448,-301 448,-301 444.01,-300.78 448.19,-297.41 440.01,-300.57 440.01,-300.57"/>
<ellipse fill="none" stroke="black" cx="436.82" cy="-300.39" rx="3.2" ry="3.2"/>
</g>
<!-- voorziening -->
<g id="node10" class="node">
<title>voorziening</title>
<g id="a_node10"><a xlink:href="../../tables/voorziening.html" xlink:title="voorziening" target="_top">
<polygon fill="#ffffff" stroke="transparent" points="432,-195 432,-253 556,-253 556,-195 432,-195"/>
<polygon fill="#f5f5f5" stroke="transparent" points="432,-231 432,-253 556,-253 556,-231 432,-231"/>
<polygon fill="none" stroke="black" points="432,-231 432,-253 556,-253 556,-231 432,-231"/>
<text text-anchor="start" x="437" y="-240.2" font-family="Helvetica,sans-Serif" font-weight="bold" font-size="11.00">voorziening</text>
<text text-anchor="start" x="514" y="-239.2" font-family="Helvetica,sans-Serif" font-size="11.00">[table]</text>
<polygon fill="none" stroke="black" points="432,-213 432,-231 556,-231 556,-213 432,-213"/>
<text text-anchor="start" x="435" y="-219.2" font-family="Helvetica,sans-Serif" font-size="11.00">...</text>
<polygon fill="#ffffff" stroke="transparent" points="432,-195 432,-213 493,-213 493,-195 432,-195"/>
<polygon fill="none" stroke="black" points="432,-195 432,-213 493,-213 493,-195 432,-195"/>
<text text-anchor="start" x="435" y="-201.2" font-family="Helvetica,sans-Serif" font-size="11.00">&lt; 2</text>
<polygon fill="#ffffff" stroke="transparent" points="493,-195 493,-213 524,-213 524,-195 493,-195"/>
<polygon fill="none" stroke="black" points="493,-195 493,-213 524,-213 524,-195 493,-195"/>
<text text-anchor="start" x="513" y="-201.2" font-family="Helvetica,sans-Serif" font-size="11.00"> &#160;</text>
<polygon fill="#ffffff" stroke="transparent" points="524,-195 524,-213 556,-213 556,-195 524,-195"/>
<polygon fill="none" stroke="black" points="524,-195 524,-213 556,-213 556,-195 524,-195"/>
<text text-anchor="start" x="545" y="-201.2" font-family="Helvetica,sans-Serif" font-size="11.00"> &#160;</text>
</a>
</g>
</g>
<!-- voorziening&#45;&gt;object -->
<g id="edge9" class="edge">
<title>voorziening:w&#45;&gt;object:e</title>
<path fill="none" stroke="black" d="M416.41,-223.07C375.11,-229.43 364.83,-262 316,-262"/>
<polygon fill="black" stroke="black" points="423.02,-222.59 431.26,-225.59 427.01,-222.29 431,-222 431,-222 431,-222 427.01,-222.29 430.74,-218.41 423.02,-222.59 423.02,-222.59"/>
<ellipse fill="none" stroke="black" cx="419.83" cy="-222.82" rx="3.2" ry="3.2"/>
</g>
</g>
</svg>
