<?xml version="1.0" encoding="UTF-8" standalone="no"?>
<!DOCTYPE svg PUBLIC "-//W3C//DTD SVG 1.1//EN"
 "http://www.w3.org/Graphics/SVG/1.1/DTD/svg11.dtd">
<!-- Generated by graphviz version 2.50.0 (0)
 -->
<!-- Title: oneDegreeRelationshipsDiagram Pages: 1 -->
<svg width="465pt" height="403pt"
 viewBox="0.00 0.00 465.00 403.00" xmlns="http://www.w3.org/2000/svg" xmlns:xlink="http://www.w3.org/1999/xlink">
<g id="graph0" class="graph" transform="scale(1 1) rotate(0) translate(4 399)">
<title>oneDegreeRelationshipsDiagram</title>
<polygon fill="#ffffff" stroke="transparent" points="-4,4 -4,-399 461,-399 461,4 -4,4"/>
<text text-anchor="middle" x="79.5" y="-7.2" font-family="Helvetica,sans-Serif" font-size="11.00">Generated by SchemaSpy</text>
<!-- bereikbaarheid -->
<g id="node1" class="node">
<title>bereikbaarheid</title>
<g id="a_node1"><a xlink:href="../../tables/bereikbaarheid.html" xlink:title="bereikbaarheid" target="_top">
<polygon fill="#ffffff" stroke="transparent" points="195,-83 195,-391 449,-391 449,-83 195,-83"/>
<polygon fill="#f5f5f5" stroke="transparent" points="197,-367 197,-389 447,-389 447,-367 197,-367"/>
<polygon fill="none" stroke="black" points="197,-367 197,-389 447,-389 447,-367 197,-367"/>
<text text-anchor="start" x="202" y="-376.2" font-family="Helvetica,sans-Serif" font-weight="bold" font-size="11.00">bereikbaarheid</text>
<text text-anchor="start" x="405" y="-375.2" font-family="Helvetica,sans-Serif" font-size="11.00">[table]</text>
<polygon fill="none" stroke="black" points="197,-345 197,-367 311,-367 311,-345 197,-345"/>
<image xlink:href="../../images/primaryKeys.png" width="11px" height="12px" preserveAspectRatio="xMinYMin meet" x="202" y="-362"/>
<text text-anchor="start" x="217" y="-353.2" font-family="Helvetica,sans-Serif" font-size="11.00">uuid</text>
<polygon fill="none" stroke="black" points="311,-345 311,-367 447,-367 447,-345 311,-345"/>
<text text-anchor="start" x="314" y="-353.2" font-family="Helvetica,sans-Serif" font-size="11.00">uuid[2147483647]</text>
<polygon fill="#ffffff" stroke="transparent" points="197,-323 197,-345 311,-345 311,-323 197,-323"/>
<polygon fill="none" stroke="black" points="197,-323 197,-345 311,-345 311,-323 197,-323"/>
<text text-anchor="start" x="217" y="-331.2" font-family="Helvetica,sans-Serif" font-size="11.00">geom</text>
<polygon fill="none" stroke="black" points="311,-323 311,-345 447,-345 447,-323 311,-323"/>
<text text-anchor="start" x="314" y="-331.2" font-family="Helvetica,sans-Serif" font-size="11.00">geometry[2147483647]</text>
<polygon fill="none" stroke="black" points="197,-301 197,-323 311,-323 311,-301 197,-301"/>
<text text-anchor="start" x="217" y="-309.2" font-family="Helvetica,sans-Serif" font-size="11.00">datumtijd</text>
<polygon fill="none" stroke="black" points="311,-301 311,-323 447,-323 447,-301 311,-301"/>
<text text-anchor="start" x="314" y="-309.2" font-family="Helvetica,sans-Serif" font-size="11.00">timestamptz[35,6]</text>
<polygon fill="none" stroke="black" points="197,-279 197,-301 311,-301 311,-279 197,-279"/>
<text text-anchor="start" x="217" y="-287.2" font-family="Helvetica,sans-Serif" font-size="11.00">gebruiker</text>
<polygon fill="none" stroke="black" points="311,-279 311,-301 447,-301 447,-279 311,-279"/>
<text text-anchor="start" x="314" y="-287.2" font-family="Helvetica,sans-Serif" font-size="11.00">varchar[255]</text>
<polygon fill="none" stroke="black" points="197,-257 197,-279 311,-279 311,-257 197,-257"/>
<text text-anchor="start" x="217" y="-265.2" font-family="Helvetica,sans-Serif" font-size="11.00">label</text>
<polygon fill="none" stroke="black" points="311,-257 311,-279 447,-279 447,-257 311,-257"/>
<text text-anchor="start" x="314" y="-265.2" font-family="Helvetica,sans-Serif" font-size="11.00">text[2147483647]</text>
<polygon fill="none" stroke="black" points="197,-235 197,-257 311,-257 311,-235 197,-235"/>
<text text-anchor="start" x="217" y="-243.2" font-family="Helvetica,sans-Serif" font-size="11.00">rotatie</text>
<polygon fill="none" stroke="black" points="311,-235 311,-257 447,-257 447,-235 311,-235"/>
<text text-anchor="start" x="314" y="-243.2" font-family="Helvetica,sans-Serif" font-size="11.00">int4[10]</text>
<polygon fill="none" stroke="black" points="197,-213 197,-235 311,-235 311,-213 197,-213"/>
<text text-anchor="start" x="217" y="-221.2" font-family="Helvetica,sans-Serif" font-size="11.00">bijzonderheden</text>
<polygon fill="none" stroke="black" points="311,-213 311,-235 447,-235 447,-213 311,-213"/>
<text text-anchor="start" x="314" y="-221.2" font-family="Helvetica,sans-Serif" font-size="11.00">text[2147483647]</text>
<polygon fill="none" stroke="black" points="197,-191 197,-213 311,-213 311,-191 197,-191"/>
<text text-anchor="start" x="217" y="-199.2" font-family="Helvetica,sans-Serif" font-size="11.00">plusinfo</text>
<polygon fill="none" stroke="black" points="311,-191 311,-213 447,-213 447,-191 311,-191"/>
<text text-anchor="start" x="314" y="-199.2" font-family="Helvetica,sans-Serif" font-size="11.00">jsonb[2147483647]</text>
<polygon fill="#ffffff" stroke="transparent" points="197,-169 197,-191 311,-191 311,-169 197,-169"/>
<polygon fill="none" stroke="black" points="197,-169 197,-191 311,-191 311,-169 197,-169"/>
<image xlink:href="../../images/foreignKeys.png" width="11px" height="12px" preserveAspectRatio="xMinYMin meet" x="202" y="-186"/>
<text text-anchor="start" x="217" y="-177.2" font-family="Helvetica,sans-Serif" font-size="11.00">object_uuid</text>
<polygon fill="none" stroke="black" points="311,-169 311,-191 447,-191 447,-169 311,-169"/>
<text text-anchor="start" x="314" y="-177.2" font-family="Helvetica,sans-Serif" font-size="11.00">uuid[2147483647]</text>
<polygon fill="none" stroke="black" points="197,-147 197,-169 311,-169 311,-147 197,-147"/>
<image xlink:href="../../images/foreignKeys.png" width="11px" height="12px" preserveAspectRatio="xMinYMin meet" x="202" y="-164"/>
<text text-anchor="start" x="217" y="-155.2" font-family="Helvetica,sans-Serif" font-size="11.00">verbinding_id</text>
<polygon fill="none" stroke="black" points="311,-147 311,-169 447,-169 447,-147 311,-147"/>
<text text-anchor="start" x="314" y="-155.2" font-family="Helvetica,sans-Serif" font-size="11.00">int2[5]</text>
<polygon fill="none" stroke="black" points="197,-125 197,-147 311,-147 311,-125 197,-125"/>
<text text-anchor="start" x="217" y="-133.2" font-family="Helvetica,sans-Serif" font-size="11.00">obstakels</text>
<polygon fill="none" stroke="black" points="311,-125 311,-147 447,-147 447,-125 311,-125"/>
<text text-anchor="start" x="314" y="-133.2" font-family="Helvetica,sans-Serif" font-size="11.00">varchar[50]</text>
<polygon fill="none" stroke="black" points="197,-103 197,-125 311,-125 311,-103 197,-103"/>
<text text-anchor="start" x="217" y="-111.2" font-family="Helvetica,sans-Serif" font-size="11.00">wegafzetting</text>
<polygon fill="none" stroke="black" points="311,-103 311,-125 447,-125 447,-103 311,-103"/>
<text text-anchor="start" x="314" y="-111.2" font-family="Helvetica,sans-Serif" font-size="11.00">varchar[50]</text>
<polygon fill="#ffffff" stroke="transparent" points="197,-85 197,-103 260,-103 260,-85 197,-85"/>
<polygon fill="none" stroke="black" points="197,-85 197,-103 260,-103 260,-85 197,-85"/>
<text text-anchor="start" x="200" y="-91.2" font-family="Helvetica,sans-Serif" font-size="11.00">&lt; 2</text>
<polygon fill="#ffffff" stroke="transparent" points="260,-85 260,-103 311,-103 311,-85 260,-85"/>
<polygon fill="none" stroke="black" points="260,-85 260,-103 311,-103 311,-85 260,-85"/>
<text text-anchor="start" x="300" y="-91.2" font-family="Helvetica,sans-Serif" font-size="11.00"> &#160;</text>
<polygon fill="#ffffff" stroke="transparent" points="311,-85 311,-103 447,-103 447,-85 311,-85"/>
<polygon fill="none" stroke="black" points="311,-85 311,-103 447,-103 447,-85 311,-85"/>
<text text-anchor="start" x="424" y="-91.2" font-family="Helvetica,sans-Serif" font-size="11.00">0 &gt;</text>
<polygon fill="none" stroke="black" stroke-width="2" points="196,-84 196,-390 448,-390 448,-84 196,-84"/>
</a>
</g>
</g>
<!-- object -->
<g id="node2" class="node">
<title>object</title>
<g id="a_node2"><a xlink:href="../../tables/object.html" xlink:title="object" target="_top">
<polygon fill="#ffffff" stroke="transparent" points="11.5,-116 11.5,-306 142.5,-306 142.5,-116 11.5,-116"/>
<polygon fill="#f5f5f5" stroke="transparent" points="12,-284 12,-306 143,-306 143,-284 12,-284"/>
<polygon fill="none" stroke="black" points="12,-284 12,-306 143,-306 143,-284 12,-284"/>
<text text-anchor="start" x="17" y="-293.2" font-family="Helvetica,sans-Serif" font-weight="bold" font-size="11.00">object</text>
<text text-anchor="start" x="101" y="-292.2" font-family="Helvetica,sans-Serif" font-size="11.00">[table]</text>
<polygon fill="none" stroke="black" points="12,-262 12,-284 143,-284 143,-262 12,-262"/>
<image xlink:href="../../images/primaryKeys.png" width="11px" height="12px" preserveAspectRatio="xMinYMin meet" x="17" y="-279"/>
<text text-anchor="start" x="32" y="-270.2" font-family="Helvetica,sans-Serif" font-size="11.00">uuid</text>
<polygon fill="#ffffff" stroke="transparent" points="12,-240 12,-262 143,-262 143,-240 12,-240"/>
<polygon fill="none" stroke="black" points="12,-240 12,-262 143,-262 143,-240 12,-240"/>
<text text-anchor="start" x="32" y="-248.2" font-family="Helvetica,sans-Serif" font-size="11.00">geom</text>
<polygon fill="#ffffff" stroke="transparent" points="12,-218 12,-240 143,-240 143,-218 12,-218"/>
<polygon fill="none" stroke="black" points="12,-218 12,-240 143,-240 143,-218 12,-218"/>
<text text-anchor="start" x="32" y="-226.2" font-family="Helvetica,sans-Serif" font-size="11.00">revisie_frequentie</text>
<polygon fill="#ffffff" stroke="transparent" points="12,-196 12,-218 143,-218 143,-196 12,-196"/>
<polygon fill="none" stroke="black" points="12,-196 12,-218 143,-218 143,-196 12,-196"/>
<image xlink:href="../../images/foreignKeys.png" width="11px" height="12px" preserveAspectRatio="xMinYMin meet" x="17" y="-213"/>
<text text-anchor="start" x="32" y="-204.2" font-family="Helvetica,sans-Serif" font-size="11.00">fase_id</text>
<polygon fill="#ffffff" stroke="transparent" points="12,-174 12,-196 143,-196 143,-174 12,-174"/>
<polygon fill="none" stroke="black" points="12,-174 12,-196 143,-196 143,-174 12,-174"/>
<image xlink:href="../../images/foreignKeys.png" width="11px" height="12px" preserveAspectRatio="xMinYMin meet" x="17" y="-191"/>
<text text-anchor="start" x="32" y="-182.2" font-family="Helvetica,sans-Serif" font-size="11.00">object_type_id</text>
<polygon fill="#ffffff" stroke="transparent" points="12,-152 12,-174 143,-174 143,-152 12,-152"/>
<polygon fill="none" stroke="black" points="12,-152 12,-174 143,-174 143,-152 12,-152"/>
<text text-anchor="start" x="32" y="-160.2" font-family="Helvetica,sans-Serif" font-size="11.00">periode</text>
<polygon fill="none" stroke="black" points="12,-134 12,-152 143,-152 143,-134 12,-134"/>
<text text-anchor="start" x="15" y="-140.2" font-family="Helvetica,sans-Serif" font-size="11.00">...</text>
<polygon fill="#ffffff" stroke="transparent" points="12,-116 12,-134 70,-134 70,-116 12,-116"/>
<polygon fill="none" stroke="black" points="12,-116 12,-134 70,-134 70,-116 12,-116"/>
<text text-anchor="start" x="15" y="-122.2" font-family="Helvetica,sans-Serif" font-size="11.00">&lt; 2</text>
<polygon fill="#ffffff" stroke="transparent" points="70,-116 70,-134 100,-134 100,-116 70,-116"/>
<polygon fill="none" stroke="black" points="70,-116 70,-134 100,-134 100,-116 70,-116"/>
<text text-anchor="start" x="89" y="-122.2" font-family="Helvetica,sans-Serif" font-size="11.00"> &#160;</text>
<polygon fill="#ffffff" stroke="transparent" points="100,-116 100,-134 143,-134 143,-116 100,-116"/>
<polygon fill="none" stroke="black" points="100,-116 100,-134 143,-134 143,-116 100,-116"/>
<text text-anchor="start" x="120" y="-122.2" font-family="Helvetica,sans-Serif" font-size="11.00">6 &gt;</text>
</a>
</g>
</g>
<!-- bereikbaarheid&#45;&gt;object -->
<g id="edge1" class="edge">
<title>bereikbaarheid:w&#45;&gt;object:e</title>
<path fill="none" stroke="black" d="M182.11,-184C157.91,-201.8 185.44,-273 144,-273"/>
<polygon fill="black" stroke="black" points="188.31,-182.21 197,-183.46 192.16,-181.11 196,-180 196,-180 196,-180 192.16,-181.11 195,-176.54 188.31,-182.21 188.31,-182.21"/>
<ellipse fill="none" stroke="black" cx="185.24" cy="-183.1" rx="3.2" ry="3.2"/>
</g>
<!-- roi.verbinding -->
<g id="node3" class="node">
<title>roi.verbinding</title>
<g id="a_node3"><a xlink:href="../../../roi/tables/verbinding.html" xlink:title="roi.verbinding" target="_top">
<polygon fill="#ffffff" stroke="transparent" points="8,-37 8,-95 146,-95 146,-37 8,-37"/>
<polygon fill="#f5f5f5" stroke="transparent" points="8,-73 8,-95 146,-95 146,-73 8,-73"/>
<polygon fill="none" stroke="black" points="8,-73 8,-95 146,-95 146,-73 8,-73"/>
<text text-anchor="start" x="13" y="-82.2" font-family="Helvetica,sans-Serif" font-weight="bold" font-size="11.00">roi.verbinding</text>
<text text-anchor="start" x="104" y="-81.2" font-family="Helvetica,sans-Serif" font-size="11.00">[table]</text>
<polygon fill="none" stroke="black" points="8,-55 8,-73 146,-73 146,-55 8,-55"/>
<text text-anchor="start" x="11" y="-61.2" font-family="Helvetica,sans-Serif" font-size="11.00">...</text>
<polygon fill="#ffffff" stroke="transparent" points="8,-37 8,-55 64,-55 64,-37 8,-37"/>
<polygon fill="none" stroke="black" points="8,-37 8,-55 64,-55 64,-37 8,-37"/>
<text text-anchor="start" x="11" y="-43.2" font-family="Helvetica,sans-Serif" font-size="11.00"> &#160;</text>
<polygon fill="#ffffff" stroke="transparent" points="64,-37 64,-55 99,-55 99,-37 64,-37"/>
<polygon fill="none" stroke="black" points="64,-37 64,-55 99,-55 99,-37 64,-37"/>
<text text-anchor="start" x="88" y="-43.2" font-family="Helvetica,sans-Serif" font-size="11.00"> &#160;</text>
<polygon fill="#ffffff" stroke="transparent" points="99,-37 99,-55 146,-55 146,-37 99,-37"/>
<polygon fill="none" stroke="black" points="99,-37 99,-55 146,-55 146,-37 99,-37"/>
<text text-anchor="start" x="123" y="-43.2" font-family="Helvetica,sans-Serif" font-size="11.00">1 &gt;</text>
</a>
</g>
</g>
<!-- bereikbaarheid&#45;&gt;roi.verbinding -->
<g id="edge2" class="edge">
<title>bereikbaarheid:w&#45;&gt;roi.verbinding:e</title>
<path fill="none" stroke="black" d="M181.89,-154.02C169.29,-144.66 172.11,-120.88 154,-106 151.12,-103.63 148.08,-101.35 144.93,-99.15"/>
<polygon fill="black" stroke="black" points="188.3,-155.83 195.02,-161.46 192.15,-156.91 196,-158 196,-158 196,-158 192.15,-156.91 196.98,-154.54 188.3,-155.83 188.3,-155.83"/>
<ellipse fill="none" stroke="black" cx="185.22" cy="-154.96" rx="3.2" ry="3.2"/>
</g>
</g>
</svg>
