<?xml version="1.0" encoding="UTF-8" standalone="no"?>
<!DOCTYPE svg PUBLIC "-//W3C//DTD SVG 1.1//EN"
 "http://www.w3.org/Graphics/SVG/1.1/DTD/svg11.dtd">
<!-- Generated by graphviz version 2.40.1 (20161225.0304)
 -->
<!-- Title: twoDegreesRelationshipsDiagram Pages: 1 -->
<svg width="583pt" height="771pt"
 viewBox="0.00 0.00 583.00 770.70" xmlns="http://www.w3.org/2000/svg" xmlns:xlink="http://www.w3.org/1999/xlink">
<g id="graph0" class="graph" transform="scale(1 1) rotate(0) translate(4 766.7)">
<title>twoDegreesRelationshipsDiagram</title>
<polygon fill="#ffffff" stroke="transparent" points="-4,4 -4,-766.7 579,-766.7 579,4 -4,4"/>
<text text-anchor="middle" x="72.4936" y="-7.3" font-family="Helvetica,sans-Serif" font-size="11.00" fill="#000000">Generated by SchemaSpy</text>
<!-- bereikbaarheid -->
<g id="node1" class="node">
<title>bereikbaarheid</title>
<g id="a_node1"><a xlink:href="../../tables/bereikbaarheid.html" xlink:title="bereikbaarheid" target="_top">
<polygon fill="#ffffff" stroke="transparent" points="335,-448.7 335,-758.7 567,-758.7 567,-448.7 335,-448.7"/>
<polygon fill="#f5f5f5" stroke="transparent" points="337,-733.7 337,-756.7 565,-756.7 565,-733.7 337,-733.7"/>
<polygon fill="none" stroke="#000000" points="337,-733.7 337,-756.7 565,-756.7 565,-733.7 337,-733.7"/>
<text text-anchor="start" x="342" y="-742.3" font-family="Helvetica,sans-Serif" font-weight="bold" font-size="11.00" fill="#000000">bereikbaarheid</text>
<text text-anchor="start" x="530.0437" y="-741.8" font-family="Helvetica,sans-Serif" font-size="11.00" fill="#000000">[table]</text>
<polygon fill="none" stroke="#000000" points="337,-711.7 337,-733.7 446,-733.7 446,-711.7 337,-711.7"/>
<image xlink:href="../../images/primaryKeys.png" width="11px" height="12px" preserveAspectRatio="xMinYMin meet" x="342" y="-728.7"/>
<text text-anchor="start" x="357" y="-718.8" font-family="Helvetica,sans-Serif" font-size="11.00" fill="#000000">uuid</text>
<polygon fill="none" stroke="#000000" points="446,-711.7 446,-733.7 565,-733.7 565,-711.7 446,-711.7"/>
<text text-anchor="start" x="449" y="-719.4" font-family="Helvetica,sans-Serif" font-size="11.00" fill="#000000">uuid[2147483647]</text>
<polygon fill="#ffffff" stroke="transparent" points="337,-689.7 337,-711.7 446,-711.7 446,-689.7 337,-689.7"/>
<polygon fill="none" stroke="#000000" points="337,-689.7 337,-711.7 446,-711.7 446,-689.7 337,-689.7"/>
<text text-anchor="start" x="357" y="-696.8" font-family="Helvetica,sans-Serif" font-size="11.00" fill="#000000">geom</text>
<polygon fill="none" stroke="#000000" points="446,-689.7 446,-711.7 565,-711.7 565,-689.7 446,-689.7"/>
<text text-anchor="start" x="448.9485" y="-697.4" font-family="Helvetica,sans-Serif" font-size="11.00" fill="#000000">geometry[2147483647]</text>
<polygon fill="none" stroke="#000000" points="337,-667.7 337,-689.7 446,-689.7 446,-667.7 337,-667.7"/>
<text text-anchor="start" x="357" y="-674.8" font-family="Helvetica,sans-Serif" font-size="11.00" fill="#000000">datumtijd</text>
<polygon fill="none" stroke="#000000" points="446,-667.7 446,-689.7 565,-689.7 565,-667.7 446,-667.7"/>
<text text-anchor="start" x="449" y="-675.4" font-family="Helvetica,sans-Serif" font-size="11.00" fill="#000000">timestamptz[35,6]</text>
<polygon fill="none" stroke="#000000" points="337,-645.7 337,-667.7 446,-667.7 446,-645.7 337,-645.7"/>
<text text-anchor="start" x="357" y="-652.8" font-family="Helvetica,sans-Serif" font-size="11.00" fill="#000000">gebruiker</text>
<polygon fill="none" stroke="#000000" points="446,-645.7 446,-667.7 565,-667.7 565,-645.7 446,-645.7"/>
<text text-anchor="start" x="449" y="-653.4" font-family="Helvetica,sans-Serif" font-size="11.00" fill="#000000">varchar[255]</text>
<polygon fill="none" stroke="#000000" points="337,-623.7 337,-645.7 446,-645.7 446,-623.7 337,-623.7"/>
<text text-anchor="start" x="357" y="-630.8" font-family="Helvetica,sans-Serif" font-size="11.00" fill="#000000">label</text>
<polygon fill="none" stroke="#000000" points="446,-623.7 446,-645.7 565,-645.7 565,-623.7 446,-623.7"/>
<text text-anchor="start" x="449" y="-631.4" font-family="Helvetica,sans-Serif" font-size="11.00" fill="#000000">text[2147483647]</text>
<polygon fill="none" stroke="#000000" points="337,-601.7 337,-623.7 446,-623.7 446,-601.7 337,-601.7"/>
<text text-anchor="start" x="357" y="-608.8" font-family="Helvetica,sans-Serif" font-size="11.00" fill="#000000">rotatie</text>
<polygon fill="none" stroke="#000000" points="446,-601.7 446,-623.7 565,-623.7 565,-601.7 446,-601.7"/>
<text text-anchor="start" x="449" y="-609.4" font-family="Helvetica,sans-Serif" font-size="11.00" fill="#000000">int4[10]</text>
<polygon fill="none" stroke="#000000" points="337,-579.7 337,-601.7 446,-601.7 446,-579.7 337,-579.7"/>
<text text-anchor="start" x="357" y="-586.8" font-family="Helvetica,sans-Serif" font-size="11.00" fill="#000000">bijzonderheden</text>
<polygon fill="none" stroke="#000000" points="446,-579.7 446,-601.7 565,-601.7 565,-579.7 446,-579.7"/>
<text text-anchor="start" x="449" y="-587.4" font-family="Helvetica,sans-Serif" font-size="11.00" fill="#000000">text[2147483647]</text>
<polygon fill="none" stroke="#000000" points="337,-557.7 337,-579.7 446,-579.7 446,-557.7 337,-557.7"/>
<text text-anchor="start" x="357" y="-564.8" font-family="Helvetica,sans-Serif" font-size="11.00" fill="#000000">plusinfo</text>
<polygon fill="none" stroke="#000000" points="446,-557.7 446,-579.7 565,-579.7 565,-557.7 446,-557.7"/>
<text text-anchor="start" x="449" y="-565.4" font-family="Helvetica,sans-Serif" font-size="11.00" fill="#000000">jsonb[2147483647]</text>
<polygon fill="#ffffff" stroke="transparent" points="337,-535.7 337,-557.7 446,-557.7 446,-535.7 337,-535.7"/>
<polygon fill="none" stroke="#000000" points="337,-535.7 337,-557.7 446,-557.7 446,-535.7 337,-535.7"/>
<image xlink:href="../../images/foreignKeys.png" width="11px" height="12px" preserveAspectRatio="xMinYMin meet" x="342" y="-552.7"/>
<text text-anchor="start" x="357" y="-542.8" font-family="Helvetica,sans-Serif" font-size="11.00" fill="#000000">object_uuid</text>
<polygon fill="none" stroke="#000000" points="446,-535.7 446,-557.7 565,-557.7 565,-535.7 446,-535.7"/>
<text text-anchor="start" x="449" y="-543.4" font-family="Helvetica,sans-Serif" font-size="11.00" fill="#000000">uuid[2147483647]</text>
<polygon fill="none" stroke="#000000" points="337,-513.7 337,-535.7 446,-535.7 446,-513.7 337,-513.7"/>
<image xlink:href="../../images/foreignKeys.png" width="11px" height="12px" preserveAspectRatio="xMinYMin meet" x="342" y="-530.7"/>
<text text-anchor="start" x="357" y="-520.8" font-family="Helvetica,sans-Serif" font-size="11.00" fill="#000000">verbinding_id</text>
<polygon fill="none" stroke="#000000" points="446,-513.7 446,-535.7 565,-535.7 565,-513.7 446,-513.7"/>
<text text-anchor="start" x="449" y="-521.4" font-family="Helvetica,sans-Serif" font-size="11.00" fill="#000000">int2[5]</text>
<polygon fill="none" stroke="#000000" points="337,-491.7 337,-513.7 446,-513.7 446,-491.7 337,-491.7"/>
<text text-anchor="start" x="357" y="-498.8" font-family="Helvetica,sans-Serif" font-size="11.00" fill="#000000">obstakels</text>
<polygon fill="none" stroke="#000000" points="446,-491.7 446,-513.7 565,-513.7 565,-491.7 446,-491.7"/>
<text text-anchor="start" x="449" y="-499.4" font-family="Helvetica,sans-Serif" font-size="11.00" fill="#000000">varchar[50]</text>
<polygon fill="none" stroke="#000000" points="337,-469.7 337,-491.7 446,-491.7 446,-469.7 337,-469.7"/>
<text text-anchor="start" x="357" y="-476.8" font-family="Helvetica,sans-Serif" font-size="11.00" fill="#000000">wegafzetting</text>
<polygon fill="none" stroke="#000000" points="446,-469.7 446,-491.7 565,-491.7 565,-469.7 446,-469.7"/>
<text text-anchor="start" x="449" y="-477.4" font-family="Helvetica,sans-Serif" font-size="11.00" fill="#000000">varchar[50]</text>
<polygon fill="#ffffff" stroke="transparent" points="337,-450.7 337,-469.7 396,-469.7 396,-450.7 337,-450.7"/>
<polygon fill="none" stroke="#000000" points="337,-450.7 337,-469.7 396,-469.7 396,-450.7 337,-450.7"/>
<text text-anchor="start" x="340" y="-456.8" font-family="Helvetica,sans-Serif" font-size="11.00" fill="#000000">&lt; 2</text>
<polygon fill="#ffffff" stroke="transparent" points="396,-450.7 396,-469.7 446,-469.7 446,-450.7 396,-450.7"/>
<polygon fill="none" stroke="#000000" points="396,-450.7 396,-469.7 446,-469.7 446,-450.7 396,-450.7"/>
<text text-anchor="start" x="436.8862" y="-456.8" font-family="Helvetica,sans-Serif" font-size="11.00" fill="#000000"> &#160;</text>
<polygon fill="#ffffff" stroke="transparent" points="446,-450.7 446,-469.7 565,-469.7 565,-450.7 446,-450.7"/>
<polygon fill="none" stroke="#000000" points="446,-450.7 446,-469.7 565,-469.7 565,-450.7 446,-450.7"/>
<text text-anchor="start" x="546.4053" y="-456.8" font-family="Helvetica,sans-Serif" font-size="11.00" fill="#000000">0 &gt;</text>
<polygon fill="none" stroke="#000000" stroke-width="2" points="336,-449.7 336,-757.7 566,-757.7 566,-449.7 336,-449.7"/>
</a>
</g>
</g>
<!-- object -->
<g id="node2" class="node">
<title>object</title>
<g id="a_node2"><a xlink:href="../../tables/object.html" xlink:title="object" target="_top">
<polygon fill="#ffffff" stroke="transparent" points="162,-112.2 162,-305.2 286,-305.2 286,-112.2 162,-112.2"/>
<polygon fill="#f5f5f5" stroke="transparent" points="162,-281.7 162,-304.7 286,-304.7 286,-281.7 162,-281.7"/>
<polygon fill="none" stroke="#000000" points="162,-281.7 162,-304.7 286,-304.7 286,-281.7 162,-281.7"/>
<text text-anchor="start" x="167" y="-290.3" font-family="Helvetica,sans-Serif" font-weight="bold" font-size="11.00" fill="#000000">object</text>
<text text-anchor="start" x="251.0437" y="-289.8" font-family="Helvetica,sans-Serif" font-size="11.00" fill="#000000">[table]</text>
<polygon fill="none" stroke="#000000" points="162,-259.7 162,-281.7 286,-281.7 286,-259.7 162,-259.7"/>
<image xlink:href="../../images/primaryKeys.png" width="11px" height="12px" preserveAspectRatio="xMinYMin meet" x="167" y="-276.7"/>
<text text-anchor="start" x="182" y="-266.8" font-family="Helvetica,sans-Serif" font-size="11.00" fill="#000000">uuid</text>
<polygon fill="#ffffff" stroke="transparent" points="162,-237.7 162,-259.7 286,-259.7 286,-237.7 162,-237.7"/>
<polygon fill="none" stroke="#000000" points="162,-237.7 162,-259.7 286,-259.7 286,-237.7 162,-237.7"/>
<text text-anchor="start" x="182" y="-244.8" font-family="Helvetica,sans-Serif" font-size="11.00" fill="#000000">geom</text>
<polygon fill="#ffffff" stroke="transparent" points="162,-215.7 162,-237.7 286,-237.7 286,-215.7 162,-215.7"/>
<polygon fill="none" stroke="#000000" points="162,-215.7 162,-237.7 286,-237.7 286,-215.7 162,-215.7"/>
<text text-anchor="start" x="182" y="-222.8" font-family="Helvetica,sans-Serif" font-size="11.00" fill="#000000">revisie_frequentie</text>
<polygon fill="#ffffff" stroke="transparent" points="162,-193.7 162,-215.7 286,-215.7 286,-193.7 162,-193.7"/>
<polygon fill="none" stroke="#000000" points="162,-193.7 162,-215.7 286,-215.7 286,-193.7 162,-193.7"/>
<image xlink:href="../../images/foreignKeys.png" width="11px" height="12px" preserveAspectRatio="xMinYMin meet" x="167" y="-210.7"/>
<text text-anchor="start" x="182" y="-200.8" font-family="Helvetica,sans-Serif" font-size="11.00" fill="#000000">fase_id</text>
<polygon fill="#ffffff" stroke="transparent" points="162,-171.7 162,-193.7 286,-193.7 286,-171.7 162,-171.7"/>
<polygon fill="none" stroke="#000000" points="162,-171.7 162,-193.7 286,-193.7 286,-171.7 162,-171.7"/>
<image xlink:href="../../images/foreignKeys.png" width="11px" height="12px" preserveAspectRatio="xMinYMin meet" x="167" y="-188.7"/>
<text text-anchor="start" x="182" y="-178.8" font-family="Helvetica,sans-Serif" font-size="11.00" fill="#000000">object_type_id</text>
<polygon fill="#ffffff" stroke="transparent" points="162,-149.7 162,-171.7 286,-171.7 286,-149.7 162,-149.7"/>
<polygon fill="none" stroke="#000000" points="162,-149.7 162,-171.7 286,-171.7 286,-149.7 162,-149.7"/>
<text text-anchor="start" x="182" y="-156.8" font-family="Helvetica,sans-Serif" font-size="11.00" fill="#000000">periode</text>
<polygon fill="none" stroke="#000000" points="162,-130.7 162,-149.7 286,-149.7 286,-130.7 162,-130.7"/>
<text text-anchor="start" x="165" y="-136.8" font-family="Helvetica,sans-Serif" font-size="11.00" fill="#000000">...</text>
<polygon fill="#ffffff" stroke="transparent" points="162,-111.7 162,-130.7 218,-130.7 218,-111.7 162,-111.7"/>
<polygon fill="none" stroke="#000000" points="162,-111.7 162,-130.7 218,-130.7 218,-111.7 162,-111.7"/>
<text text-anchor="start" x="165" y="-117.8" font-family="Helvetica,sans-Serif" font-size="11.00" fill="#000000">&lt; 2</text>
<polygon fill="#ffffff" stroke="transparent" points="218,-111.7 218,-130.7 247,-130.7 247,-111.7 218,-111.7"/>
<polygon fill="none" stroke="#000000" points="218,-111.7 218,-130.7 247,-130.7 247,-111.7 218,-111.7"/>
<text text-anchor="start" x="237.8862" y="-117.8" font-family="Helvetica,sans-Serif" font-size="11.00" fill="#000000"> &#160;</text>
<polygon fill="#ffffff" stroke="transparent" points="247,-111.7 247,-130.7 286,-130.7 286,-111.7 247,-111.7"/>
<polygon fill="none" stroke="#000000" points="247,-111.7 247,-130.7 286,-130.7 286,-111.7 247,-111.7"/>
<text text-anchor="start" x="267.4053" y="-117.8" font-family="Helvetica,sans-Serif" font-size="11.00" fill="#000000">6 &gt;</text>
</a>
</g>
</g>
<!-- bereikbaarheid&#45;&gt;object -->
<g id="edge1" class="edge">
<title>bereikbaarheid:w&#45;&gt;object:e</title>
<path fill="none" stroke="#000000" d="M323.7628,-540.9353C286.2977,-501.3008 343.0116,-270.7 286,-270.7"/>
<polygon fill="#000000" stroke="#000000" points="329.6653,-543.5058 335.5626,-550.0006 333.3327,-545.1029 337,-546.7 337,-546.7 337,-546.7 333.3327,-545.1029 338.4374,-543.3994 329.6653,-543.5058 329.6653,-543.5058"/>
<ellipse fill="none" stroke="#000000" cx="326.7315" cy="-542.2281" rx="3.2" ry="3.2"/>
</g>
<!-- roi.verbinding -->
<g id="node3" class="node">
<title>roi.verbinding</title>
<g id="a_node3"><a xlink:href="../../../roi/tables/verbinding.html" xlink:title="roi.verbinding" target="_top">
<polygon fill="#ffffff" stroke="transparent" points="164.5,-494.2 164.5,-555.2 283.5,-555.2 283.5,-494.2 164.5,-494.2"/>
<polygon fill="#f5f5f5" stroke="transparent" points="165,-531.7 165,-554.7 284,-554.7 284,-531.7 165,-531.7"/>
<polygon fill="none" stroke="#000000" points="165,-531.7 165,-554.7 284,-554.7 284,-531.7 165,-531.7"/>
<text text-anchor="start" x="170" y="-540.3" font-family="Helvetica,sans-Serif" font-weight="bold" font-size="11.00" fill="#000000">roi.verbinding</text>
<text text-anchor="start" x="249.5219" y="-539.8" font-family="Helvetica,sans-Serif" font-size="11.00" fill="#000000">[table]</text>
<polygon fill="none" stroke="#000000" points="165,-512.7 165,-531.7 284,-531.7 284,-512.7 165,-512.7"/>
<text text-anchor="start" x="168" y="-518.8" font-family="Helvetica,sans-Serif" font-size="11.00" fill="#000000">...</text>
<polygon fill="#ffffff" stroke="transparent" points="165,-493.7 165,-512.7 214,-512.7 214,-493.7 165,-493.7"/>
<polygon fill="none" stroke="#000000" points="165,-493.7 165,-512.7 214,-512.7 214,-493.7 165,-493.7"/>
<text text-anchor="start" x="168" y="-499.8" font-family="Helvetica,sans-Serif" font-size="11.00" fill="#000000"> &#160;</text>
<polygon fill="#ffffff" stroke="transparent" points="214,-493.7 214,-512.7 244,-512.7 244,-493.7 214,-493.7"/>
<polygon fill="none" stroke="#000000" points="214,-493.7 214,-512.7 244,-512.7 244,-493.7 214,-493.7"/>
<text text-anchor="start" x="234.8862" y="-499.8" font-family="Helvetica,sans-Serif" font-size="11.00" fill="#000000"> &#160;</text>
<polygon fill="#ffffff" stroke="transparent" points="244,-493.7 244,-512.7 284,-512.7 284,-493.7 244,-493.7"/>
<polygon fill="none" stroke="#000000" points="244,-493.7 244,-512.7 284,-512.7 284,-493.7 244,-493.7"/>
<text text-anchor="start" x="265.4053" y="-499.8" font-family="Helvetica,sans-Serif" font-size="11.00" fill="#000000">1 &gt;</text>
</a>
</g>
</g>
<!-- bereikbaarheid&#45;&gt;roi.verbinding -->
<g id="edge2" class="edge">
<title>bereikbaarheid:w&#45;&gt;roi.verbinding:e</title>
<path fill="none" stroke="#000000" d="M322.5918,-524.7C312.254,-524.7 301.6987,-524.7 291.5207,-524.7"/>
<polygon fill="#000000" stroke="#000000" points="329,-524.7001 337,-528.3 333,-524.7 337,-524.7 337,-524.7 337,-524.7 333,-524.7 337,-521.1 329,-524.7001 329,-524.7001"/>
<ellipse fill="none" stroke="#000000" cx="325.8" cy="-524.7001" rx="3.2" ry="3.2"/>
</g>
<!-- roi.fase -->
<g id="node5" class="node">
<title>roi.fase</title>
<g id="a_node5"><a xlink:href="../../../roi/tables/fase.html" xlink:title="roi.fase" target="_top">
<polygon fill="#ffffff" stroke="transparent" points="20,-207.2 20,-268.2 101,-268.2 101,-207.2 20,-207.2"/>
<polygon fill="#f5f5f5" stroke="transparent" points="20.5,-244.7 20.5,-267.7 101.5,-267.7 101.5,-244.7 20.5,-244.7"/>
<polygon fill="none" stroke="#000000" points="20.5,-244.7 20.5,-267.7 101.5,-267.7 101.5,-244.7 20.5,-244.7"/>
<text text-anchor="start" x="25.5" y="-253.3" font-family="Helvetica,sans-Serif" font-weight="bold" font-size="11.00" fill="#000000">roi.fase</text>
<text text-anchor="start" x="67.0219" y="-252.8" font-family="Helvetica,sans-Serif" font-size="11.00" fill="#000000">[table]</text>
<polygon fill="none" stroke="#000000" points="20.5,-225.7 20.5,-244.7 101.5,-244.7 101.5,-225.7 20.5,-225.7"/>
<text text-anchor="start" x="23.5" y="-231.8" font-family="Helvetica,sans-Serif" font-size="11.00" fill="#000000">...</text>
<polygon fill="#ffffff" stroke="transparent" points="20.5,-206.7 20.5,-225.7 50.5,-225.7 50.5,-206.7 20.5,-206.7"/>
<polygon fill="none" stroke="#000000" points="20.5,-206.7 20.5,-225.7 50.5,-225.7 50.5,-206.7 20.5,-206.7"/>
<text text-anchor="start" x="23.5" y="-212.8" font-family="Helvetica,sans-Serif" font-size="11.00" fill="#000000"> &#160;</text>
<polygon fill="#ffffff" stroke="transparent" points="50.5,-206.7 50.5,-225.7 71.5,-225.7 71.5,-206.7 50.5,-206.7"/>
<polygon fill="none" stroke="#000000" points="50.5,-206.7 50.5,-225.7 71.5,-225.7 71.5,-206.7 50.5,-206.7"/>
<text text-anchor="start" x="62.3862" y="-212.8" font-family="Helvetica,sans-Serif" font-size="11.00" fill="#000000"> &#160;</text>
<polygon fill="#ffffff" stroke="transparent" points="71.5,-206.7 71.5,-225.7 101.5,-225.7 101.5,-206.7 71.5,-206.7"/>
<polygon fill="none" stroke="#000000" points="71.5,-206.7 71.5,-225.7 101.5,-225.7 101.5,-206.7 71.5,-206.7"/>
<text text-anchor="start" x="82.9053" y="-212.8" font-family="Helvetica,sans-Serif" font-size="11.00" fill="#000000">1 &gt;</text>
</a>
</g>
</g>
<!-- object&#45;&gt;roi.fase -->
<g id="edge4" class="edge">
<title>object:w&#45;&gt;roi.fase:e</title>
<path fill="none" stroke="#000000" d="M147.8437,-207.4686C130.7707,-214.8953 125.8857,-234.7 101.5,-234.7"/>
<polygon fill="#000000" stroke="#000000" points="154.1487,-206.2355 162.691,-208.2331 158.0744,-205.4678 162,-204.7 162,-204.7 162,-204.7 158.0744,-205.4678 161.309,-201.1669 154.1487,-206.2355 154.1487,-206.2355"/>
<ellipse fill="none" stroke="#000000" cx="151.0082" cy="-206.8497" rx="3.2" ry="3.2"/>
</g>
<!-- object_type -->
<g id="node6" class="node">
<title>object_type</title>
<g id="a_node6"><a xlink:href="../../tables/object_type.html" xlink:title="object_type" target="_top">
<polygon fill="#ffffff" stroke="transparent" points="8,-125.2 8,-186.2 113,-186.2 113,-125.2 8,-125.2"/>
<polygon fill="#f5f5f5" stroke="transparent" points="8.5,-162.7 8.5,-185.7 113.5,-185.7 113.5,-162.7 8.5,-162.7"/>
<polygon fill="none" stroke="#000000" points="8.5,-162.7 8.5,-185.7 113.5,-185.7 113.5,-162.7 8.5,-162.7"/>
<text text-anchor="start" x="13.5" y="-171.3" font-family="Helvetica,sans-Serif" font-weight="bold" font-size="11.00" fill="#000000">object_type</text>
<text text-anchor="start" x="79.0219" y="-170.8" font-family="Helvetica,sans-Serif" font-size="11.00" fill="#000000">[table]</text>
<polygon fill="none" stroke="#000000" points="8.5,-143.7 8.5,-162.7 113.5,-162.7 113.5,-143.7 8.5,-143.7"/>
<text text-anchor="start" x="11.5" y="-149.8" font-family="Helvetica,sans-Serif" font-size="11.00" fill="#000000">...</text>
<polygon fill="#ffffff" stroke="transparent" points="8.5,-124.7 8.5,-143.7 50.5,-143.7 50.5,-124.7 8.5,-124.7"/>
<polygon fill="none" stroke="#000000" points="8.5,-124.7 8.5,-143.7 50.5,-143.7 50.5,-124.7 8.5,-124.7"/>
<text text-anchor="start" x="11.5" y="-130.8" font-family="Helvetica,sans-Serif" font-size="11.00" fill="#000000"> &#160;</text>
<polygon fill="#ffffff" stroke="transparent" points="50.5,-124.7 50.5,-143.7 77.5,-143.7 77.5,-124.7 50.5,-124.7"/>
<polygon fill="none" stroke="#000000" points="50.5,-124.7 50.5,-143.7 77.5,-143.7 77.5,-124.7 50.5,-124.7"/>
<text text-anchor="start" x="68.3862" y="-130.8" font-family="Helvetica,sans-Serif" font-size="11.00" fill="#000000"> &#160;</text>
<polygon fill="#ffffff" stroke="transparent" points="77.5,-124.7 77.5,-143.7 113.5,-143.7 113.5,-124.7 77.5,-124.7"/>
<polygon fill="none" stroke="#000000" points="77.5,-124.7 77.5,-143.7 113.5,-143.7 113.5,-124.7 77.5,-124.7"/>
<text text-anchor="start" x="94.9053" y="-130.8" font-family="Helvetica,sans-Serif" font-size="11.00" fill="#000000">1 &gt;</text>
</a>
</g>
</g>
<!-- object&#45;&gt;object_type -->
<g id="edge5" class="edge">
<title>object:w&#45;&gt;object_type:e</title>
<path fill="none" stroke="#000000" d="M148.0076,-178.5286C136.1688,-170.2854 132.9055,-152.7 113.5,-152.7"/>
<polygon fill="#000000" stroke="#000000" points="154.3334,-180.4144 160.9715,-186.15 158.1667,-181.5572 162,-182.7 162,-182.7 162,-182.7 158.1667,-181.5572 163.0285,-179.25 154.3334,-180.4144 154.3334,-180.4144"/>
<ellipse fill="none" stroke="#000000" cx="151.2668" cy="-179.5002" rx="3.2" ry="3.2"/>
</g>
<!-- label -->
<g id="node4" class="node">
<title>label</title>
<g id="a_node4"><a xlink:href="../../tables/label.html" xlink:title="label" target="_top">
<polygon fill="#ffffff" stroke="transparent" points="418,-120.2 418,-181.2 484,-181.2 484,-120.2 418,-120.2"/>
<polygon fill="#f5f5f5" stroke="transparent" points="418,-157.7 418,-180.7 484,-180.7 484,-157.7 418,-157.7"/>
<polygon fill="none" stroke="#000000" points="418,-157.7 418,-180.7 484,-180.7 484,-157.7 418,-157.7"/>
<text text-anchor="start" x="422.8868" y="-166.3" font-family="Helvetica,sans-Serif" font-weight="bold" font-size="11.00" fill="#000000">label</text>
<text text-anchor="start" x="449.5219" y="-165.8" font-family="Helvetica,sans-Serif" font-size="11.00" fill="#000000">[table]</text>
<polygon fill="none" stroke="#000000" points="418,-138.7 418,-157.7 484,-157.7 484,-138.7 418,-138.7"/>
<text text-anchor="start" x="421" y="-144.8" font-family="Helvetica,sans-Serif" font-size="11.00" fill="#000000">...</text>
<polygon fill="#ffffff" stroke="transparent" points="418,-119.7 418,-138.7 449,-138.7 449,-119.7 418,-119.7"/>
<polygon fill="none" stroke="#000000" points="418,-119.7 418,-138.7 449,-138.7 449,-119.7 418,-119.7"/>
<text text-anchor="start" x="421" y="-125.8" font-family="Helvetica,sans-Serif" font-size="11.00" fill="#000000">&lt; 2</text>
<polygon fill="#ffffff" stroke="transparent" points="449,-119.7 449,-138.7 466,-138.7 466,-119.7 449,-119.7"/>
<polygon fill="none" stroke="#000000" points="449,-119.7 449,-138.7 466,-138.7 466,-119.7 449,-119.7"/>
<text text-anchor="start" x="456.8862" y="-125.8" font-family="Helvetica,sans-Serif" font-size="11.00" fill="#000000"> &#160;</text>
<polygon fill="#ffffff" stroke="transparent" points="466,-119.7 466,-138.7 484,-138.7 484,-119.7 466,-119.7"/>
<polygon fill="none" stroke="#000000" points="466,-119.7 466,-138.7 484,-138.7 484,-119.7 466,-119.7"/>
<text text-anchor="start" x="474.8862" y="-125.8" font-family="Helvetica,sans-Serif" font-size="11.00" fill="#000000"> &#160;</text>
</a>
</g>
</g>
<!-- label&#45;&gt;object -->
<g id="edge3" class="edge">
<title>label:w&#45;&gt;object:e</title>
<path fill="none" stroke="#000000" d="M403.4065,-148.2323C369.5748,-150.9294 355.4382,-164.0568 327,-191.7 298.6346,-219.2725 325.5581,-270.7 286,-270.7"/>
<polygon fill="#000000" stroke="#000000" points="410.0053,-147.9916 418.1312,-151.2976 414.0027,-147.8458 418,-147.7 418,-147.7 418,-147.7 414.0027,-147.8458 417.8688,-144.1024 410.0053,-147.9916 410.0053,-147.9916"/>
<ellipse fill="none" stroke="#000000" cx="406.8074" cy="-148.1083" rx="3.2" ry="3.2"/>
</g>
<!-- opstelplaats -->
<g id="node7" class="node">
<title>opstelplaats</title>
<g id="a_node7"><a xlink:href="../../tables/opstelplaats.html" xlink:title="opstelplaats" target="_top">
<polygon fill="#ffffff" stroke="transparent" points="396.5,-38.2 396.5,-99.2 505.5,-99.2 505.5,-38.2 396.5,-38.2"/>
<polygon fill="#f5f5f5" stroke="transparent" points="397,-75.7 397,-98.7 506,-98.7 506,-75.7 397,-75.7"/>
<polygon fill="none" stroke="#000000" points="397,-75.7 397,-98.7 506,-98.7 506,-75.7 397,-75.7"/>
<text text-anchor="start" x="402" y="-84.3" font-family="Helvetica,sans-Serif" font-weight="bold" font-size="11.00" fill="#000000">opstelplaats</text>
<text text-anchor="start" x="471.5219" y="-83.8" font-family="Helvetica,sans-Serif" font-size="11.00" fill="#000000">[table]</text>
<polygon fill="none" stroke="#000000" points="397,-56.7 397,-75.7 506,-75.7 506,-56.7 397,-56.7"/>
<text text-anchor="start" x="400" y="-62.8" font-family="Helvetica,sans-Serif" font-size="11.00" fill="#000000">...</text>
<polygon fill="#ffffff" stroke="transparent" points="397,-37.7 397,-56.7 450,-56.7 450,-37.7 397,-37.7"/>
<polygon fill="none" stroke="#000000" points="397,-37.7 397,-56.7 450,-56.7 450,-37.7 397,-37.7"/>
<text text-anchor="start" x="400" y="-43.8" font-family="Helvetica,sans-Serif" font-size="11.00" fill="#000000">&lt; 2</text>
<polygon fill="#ffffff" stroke="transparent" points="450,-37.7 450,-56.7 478,-56.7 478,-37.7 450,-37.7"/>
<polygon fill="none" stroke="#000000" points="450,-37.7 450,-56.7 478,-56.7 478,-37.7 450,-37.7"/>
<text text-anchor="start" x="468.8862" y="-43.8" font-family="Helvetica,sans-Serif" font-size="11.00" fill="#000000"> &#160;</text>
<polygon fill="#ffffff" stroke="transparent" points="478,-37.7 478,-56.7 506,-56.7 506,-37.7 478,-37.7"/>
<polygon fill="none" stroke="#000000" points="478,-37.7 478,-56.7 506,-56.7 506,-37.7 478,-37.7"/>
<text text-anchor="start" x="496.8862" y="-43.8" font-family="Helvetica,sans-Serif" font-size="11.00" fill="#000000"> &#160;</text>
</a>
</g>
</g>
<!-- opstelplaats&#45;&gt;object -->
<g id="edge6" class="edge">
<title>opstelplaats:w&#45;&gt;object:e</title>
<path fill="none" stroke="#000000" d="M382.5354,-66.5993C356.6854,-70.1545 345.5073,-84.2898 327,-109.7 283.528,-169.3861 359.8393,-270.7 286,-270.7"/>
<polygon fill="#000000" stroke="#000000" points="389.0154,-66.1965 397.2234,-69.2931 393.0077,-65.9482 397,-65.7 397,-65.7 397,-65.7 393.0077,-65.9482 396.7766,-62.1069 389.0154,-66.1965 389.0154,-66.1965"/>
<ellipse fill="none" stroke="#000000" cx="385.8216" cy="-66.3951" rx="3.2" ry="3.2"/>
</g>
<!-- risico -->
<g id="node8" class="node">
<title>risico</title>
<g id="a_node8"><a xlink:href="../../tables/risico.html" xlink:title="risico" target="_top">
<polygon fill="#ffffff" stroke="transparent" points="415.5,-366.2 415.5,-427.2 486.5,-427.2 486.5,-366.2 415.5,-366.2"/>
<polygon fill="#f5f5f5" stroke="transparent" points="416,-403.7 416,-426.7 487,-426.7 487,-403.7 416,-403.7"/>
<polygon fill="none" stroke="#000000" points="416,-403.7 416,-426.7 487,-426.7 487,-403.7 416,-403.7"/>
<text text-anchor="start" x="421" y="-412.3" font-family="Helvetica,sans-Serif" font-weight="bold" font-size="11.00" fill="#000000">risico</text>
<text text-anchor="start" x="452.5219" y="-411.8" font-family="Helvetica,sans-Serif" font-size="11.00" fill="#000000">[table]</text>
<polygon fill="none" stroke="#000000" points="416,-384.7 416,-403.7 487,-403.7 487,-384.7 416,-384.7"/>
<text text-anchor="start" x="419" y="-390.8" font-family="Helvetica,sans-Serif" font-size="11.00" fill="#000000">...</text>
<polygon fill="#ffffff" stroke="transparent" points="416,-365.7 416,-384.7 450,-384.7 450,-365.7 416,-365.7"/>
<polygon fill="none" stroke="#000000" points="416,-365.7 416,-384.7 450,-384.7 450,-365.7 416,-365.7"/>
<text text-anchor="start" x="419" y="-371.8" font-family="Helvetica,sans-Serif" font-size="11.00" fill="#000000">&lt; 2</text>
<polygon fill="#ffffff" stroke="transparent" points="450,-365.7 450,-384.7 468,-384.7 468,-365.7 450,-365.7"/>
<polygon fill="none" stroke="#000000" points="450,-365.7 450,-384.7 468,-384.7 468,-365.7 450,-365.7"/>
<text text-anchor="start" x="458.8862" y="-371.8" font-family="Helvetica,sans-Serif" font-size="11.00" fill="#000000"> &#160;</text>
<polygon fill="#ffffff" stroke="transparent" points="468,-365.7 468,-384.7 487,-384.7 487,-365.7 468,-365.7"/>
<polygon fill="none" stroke="#000000" points="468,-365.7 468,-384.7 487,-384.7 487,-365.7 468,-365.7"/>
<text text-anchor="start" x="477.8862" y="-371.8" font-family="Helvetica,sans-Serif" font-size="11.00" fill="#000000"> &#160;</text>
</a>
</g>
</g>
<!-- risico&#45;&gt;object -->
<g id="edge7" class="edge">
<title>risico:w&#45;&gt;object:e</title>
<path fill="none" stroke="#000000" d="M401.5336,-393.3119C369.1465,-391.3775 354.3363,-381.8096 327,-355.7 296.6691,-326.7302 327.9429,-270.7 286,-270.7"/>
<polygon fill="#000000" stroke="#000000" points="408.0029,-393.4854 415.9034,-397.2987 412.0014,-393.5927 416,-393.7 416,-393.7 416,-393.7 412.0014,-393.5927 416.0966,-390.1013 408.0029,-393.4854 408.0029,-393.4854"/>
<ellipse fill="none" stroke="#000000" cx="404.804" cy="-393.3995" rx="3.2" ry="3.2"/>
</g>
<!-- sector -->
<g id="node9" class="node">
<title>sector</title>
<g id="a_node9"><a xlink:href="../../tables/sector.html" xlink:title="sector" target="_top">
<polygon fill="#ffffff" stroke="transparent" points="413.5,-284.2 413.5,-345.2 488.5,-345.2 488.5,-284.2 413.5,-284.2"/>
<polygon fill="#f5f5f5" stroke="transparent" points="414,-321.7 414,-344.7 489,-344.7 489,-321.7 414,-321.7"/>
<polygon fill="none" stroke="#000000" points="414,-321.7 414,-344.7 489,-344.7 489,-321.7 414,-321.7"/>
<text text-anchor="start" x="419" y="-330.3" font-family="Helvetica,sans-Serif" font-weight="bold" font-size="11.00" fill="#000000">sector</text>
<text text-anchor="start" x="454.5219" y="-329.8" font-family="Helvetica,sans-Serif" font-size="11.00" fill="#000000">[table]</text>
<polygon fill="none" stroke="#000000" points="414,-302.7 414,-321.7 489,-321.7 489,-302.7 414,-302.7"/>
<text text-anchor="start" x="417" y="-308.8" font-family="Helvetica,sans-Serif" font-size="11.00" fill="#000000">...</text>
<polygon fill="#ffffff" stroke="transparent" points="414,-283.7 414,-302.7 450,-302.7 450,-283.7 414,-283.7"/>
<polygon fill="none" stroke="#000000" points="414,-283.7 414,-302.7 450,-302.7 450,-283.7 414,-283.7"/>
<text text-anchor="start" x="417" y="-289.8" font-family="Helvetica,sans-Serif" font-size="11.00" fill="#000000">&lt; 2</text>
<polygon fill="#ffffff" stroke="transparent" points="450,-283.7 450,-302.7 469,-302.7 469,-283.7 450,-283.7"/>
<polygon fill="none" stroke="#000000" points="450,-283.7 450,-302.7 469,-302.7 469,-283.7 450,-283.7"/>
<text text-anchor="start" x="459.8862" y="-289.8" font-family="Helvetica,sans-Serif" font-size="11.00" fill="#000000"> &#160;</text>
<polygon fill="#ffffff" stroke="transparent" points="469,-283.7 469,-302.7 489,-302.7 489,-283.7 469,-283.7"/>
<polygon fill="none" stroke="#000000" points="469,-283.7 469,-302.7 489,-302.7 489,-283.7 469,-283.7"/>
<text text-anchor="start" x="479.8862" y="-289.8" font-family="Helvetica,sans-Serif" font-size="11.00" fill="#000000"> &#160;</text>
</a>
</g>
</g>
<!-- sector&#45;&gt;object -->
<g id="edge8" class="edge">
<title>sector:w&#45;&gt;object:e</title>
<path fill="none" stroke="#000000" d="M399.3665,-310.8055C352.3693,-304.8097 340.4858,-270.7 286,-270.7"/>
<polygon fill="#000000" stroke="#000000" points="406.0149,-311.2119 413.7803,-315.2933 410.0075,-311.4559 414,-311.7 414,-311.7 414,-311.7 410.0075,-311.4559 414.2197,-308.1067 406.0149,-311.2119 406.0149,-311.2119"/>
<ellipse fill="none" stroke="#000000" cx="402.8209" cy="-311.0166" rx="3.2" ry="3.2"/>
</g>
<!-- voorziening -->
<g id="node10" class="node">
<title>voorziening</title>
<g id="a_node10"><a xlink:href="../../tables/voorziening.html" xlink:title="voorziening" target="_top">
<polygon fill="#ffffff" stroke="transparent" points="398,-202.2 398,-263.2 504,-263.2 504,-202.2 398,-202.2"/>
<polygon fill="#f5f5f5" stroke="transparent" points="398,-239.7 398,-262.7 504,-262.7 504,-239.7 398,-239.7"/>
<polygon fill="none" stroke="#000000" points="398,-239.7 398,-262.7 504,-262.7 504,-239.7 398,-239.7"/>
<text text-anchor="start" x="403" y="-248.3" font-family="Helvetica,sans-Serif" font-weight="bold" font-size="11.00" fill="#000000">voorziening</text>
<text text-anchor="start" x="469.5219" y="-247.8" font-family="Helvetica,sans-Serif" font-size="11.00" fill="#000000">[table]</text>
<polygon fill="none" stroke="#000000" points="398,-220.7 398,-239.7 504,-239.7 504,-220.7 398,-220.7"/>
<text text-anchor="start" x="401" y="-226.8" font-family="Helvetica,sans-Serif" font-size="11.00" fill="#000000">...</text>
<polygon fill="#ffffff" stroke="transparent" points="398,-201.7 398,-220.7 449,-220.7 449,-201.7 398,-201.7"/>
<polygon fill="none" stroke="#000000" points="398,-201.7 398,-220.7 449,-220.7 449,-201.7 398,-201.7"/>
<text text-anchor="start" x="401" y="-207.8" font-family="Helvetica,sans-Serif" font-size="11.00" fill="#000000">&lt; 2</text>
<polygon fill="#ffffff" stroke="transparent" points="449,-201.7 449,-220.7 476,-220.7 476,-201.7 449,-201.7"/>
<polygon fill="none" stroke="#000000" points="449,-201.7 449,-220.7 476,-220.7 476,-201.7 449,-201.7"/>
<text text-anchor="start" x="466.8862" y="-207.8" font-family="Helvetica,sans-Serif" font-size="11.00" fill="#000000"> &#160;</text>
<polygon fill="#ffffff" stroke="transparent" points="476,-201.7 476,-220.7 504,-220.7 504,-201.7 476,-201.7"/>
<polygon fill="none" stroke="#000000" points="476,-201.7 476,-220.7 504,-220.7 504,-201.7 476,-201.7"/>
<text text-anchor="start" x="494.8862" y="-207.8" font-family="Helvetica,sans-Serif" font-size="11.00" fill="#000000"> &#160;</text>
</a>
</g>
</g>
<!-- voorziening&#45;&gt;object -->
<g id="edge9" class="edge">
<title>voorziening:w&#45;&gt;object:e</title>
<path fill="none" stroke="#000000" d="M383.4664,-230.8394C343.3331,-237.4612 333.7281,-270.7 286,-270.7"/>
<polygon fill="#000000" stroke="#000000" points="390.0245,-230.3253 398.2814,-233.289 394.0122,-230.0126 398,-229.7 398,-229.7 398,-229.7 394.0122,-230.0126 397.7186,-226.111 390.0245,-230.3253 390.0245,-230.3253"/>
<ellipse fill="none" stroke="#000000" cx="386.8343" cy="-230.5754" rx="3.2" ry="3.2"/>
</g>
</g>
</svg>
