<?xml version="1.0" encoding="UTF-8" standalone="no"?>
<!DOCTYPE svg PUBLIC "-//W3C//DTD SVG 1.1//EN"
 "http://www.w3.org/Graphics/SVG/1.1/DTD/svg11.dtd">
<!-- Generated by graphviz version 2.50.0 (0)
 -->
<!-- Title: oneDegreeRelationshipsDiagram Pages: 1 -->
<svg width="459pt" height="403pt"
 viewBox="0.00 0.00 459.00 403.00" xmlns="http://www.w3.org/2000/svg" xmlns:xlink="http://www.w3.org/1999/xlink">
<g id="graph0" class="graph" transform="scale(1 1) rotate(0) translate(4 399)">
<title>oneDegreeRelationshipsDiagram</title>
<polygon fill="#ffffff" stroke="transparent" points="-4,4 -4,-399 455,-399 455,4 -4,4"/>
<text text-anchor="middle" x="79.5" y="-7.2" font-family="Helvetica,sans-Serif" font-size="11.00">Generated by SchemaSpy</text>
<!-- label -->
<g id="node1" class="node">
<title>label</title>
<g id="a_node1"><a xlink:href="../../tables/label.html" xlink:title="label" target="_top">
<polygon fill="#ffffff" stroke="transparent" points="189,-127 189,-391 443,-391 443,-127 189,-127"/>
<polygon fill="#f5f5f5" stroke="transparent" points="191,-367 191,-389 441,-389 441,-367 191,-367"/>
<polygon fill="none" stroke="black" points="191,-367 191,-389 441,-389 441,-367 191,-367"/>
<text text-anchor="start" x="196" y="-376.2" font-family="Helvetica,sans-Serif" font-weight="bold" font-size="11.00">label</text>
<text text-anchor="start" x="399" y="-375.2" font-family="Helvetica,sans-Serif" font-size="11.00">[table]</text>
<polygon fill="none" stroke="black" points="191,-345 191,-367 305,-367 305,-345 191,-345"/>
<image xlink:href="../../images/primaryKeys.png" width="11px" height="12px" preserveAspectRatio="xMinYMin meet" x="196" y="-362"/>
<text text-anchor="start" x="211" y="-353.2" font-family="Helvetica,sans-Serif" font-size="11.00">uuid</text>
<polygon fill="none" stroke="black" points="305,-345 305,-367 441,-367 441,-345 305,-345"/>
<text text-anchor="start" x="308" y="-353.2" font-family="Helvetica,sans-Serif" font-size="11.00">uuid[2147483647]</text>
<polygon fill="#ffffff" stroke="transparent" points="191,-323 191,-345 305,-345 305,-323 191,-323"/>
<polygon fill="none" stroke="black" points="191,-323 191,-345 305,-345 305,-323 191,-323"/>
<text text-anchor="start" x="211" y="-331.2" font-family="Helvetica,sans-Serif" font-size="11.00">geom</text>
<polygon fill="none" stroke="black" points="305,-323 305,-345 441,-345 441,-323 305,-323"/>
<text text-anchor="start" x="308" y="-331.2" font-family="Helvetica,sans-Serif" font-size="11.00">geometry[2147483647]</text>
<polygon fill="none" stroke="black" points="191,-301 191,-323 305,-323 305,-301 191,-301"/>
<text text-anchor="start" x="211" y="-309.2" font-family="Helvetica,sans-Serif" font-size="11.00">datumtijd</text>
<polygon fill="none" stroke="black" points="305,-301 305,-323 441,-323 441,-301 305,-301"/>
<text text-anchor="start" x="308" y="-309.2" font-family="Helvetica,sans-Serif" font-size="11.00">timestamptz[35,6]</text>
<polygon fill="none" stroke="black" points="191,-279 191,-301 305,-301 305,-279 191,-279"/>
<text text-anchor="start" x="211" y="-287.2" font-family="Helvetica,sans-Serif" font-size="11.00">gebruiker</text>
<polygon fill="none" stroke="black" points="305,-279 305,-301 441,-301 441,-279 305,-279"/>
<text text-anchor="start" x="308" y="-287.2" font-family="Helvetica,sans-Serif" font-size="11.00">varchar[255]</text>
<polygon fill="none" stroke="black" points="191,-257 191,-279 305,-279 305,-257 191,-257"/>
<text text-anchor="start" x="211" y="-265.2" font-family="Helvetica,sans-Serif" font-size="11.00">label</text>
<polygon fill="none" stroke="black" points="305,-257 305,-279 441,-279 441,-257 305,-257"/>
<text text-anchor="start" x="308" y="-265.2" font-family="Helvetica,sans-Serif" font-size="11.00">text[2147483647]</text>
<polygon fill="none" stroke="black" points="191,-235 191,-257 305,-257 305,-235 191,-235"/>
<text text-anchor="start" x="211" y="-243.2" font-family="Helvetica,sans-Serif" font-size="11.00">rotatie</text>
<polygon fill="none" stroke="black" points="305,-235 305,-257 441,-257 441,-235 305,-235"/>
<text text-anchor="start" x="308" y="-243.2" font-family="Helvetica,sans-Serif" font-size="11.00">int4[10]</text>
<polygon fill="none" stroke="black" points="191,-213 191,-235 305,-235 305,-213 191,-213"/>
<text text-anchor="start" x="211" y="-221.2" font-family="Helvetica,sans-Serif" font-size="11.00">bijzonderheden</text>
<polygon fill="none" stroke="black" points="305,-213 305,-235 441,-235 441,-213 305,-213"/>
<text text-anchor="start" x="308" y="-221.2" font-family="Helvetica,sans-Serif" font-size="11.00">text[2147483647]</text>
<polygon fill="none" stroke="black" points="191,-191 191,-213 305,-213 305,-191 191,-191"/>
<text text-anchor="start" x="211" y="-199.2" font-family="Helvetica,sans-Serif" font-size="11.00">plusinfo</text>
<polygon fill="none" stroke="black" points="305,-191 305,-213 441,-213 441,-191 305,-191"/>
<text text-anchor="start" x="308" y="-199.2" font-family="Helvetica,sans-Serif" font-size="11.00">jsonb[2147483647]</text>
<polygon fill="#ffffff" stroke="transparent" points="191,-169 191,-191 305,-191 305,-169 191,-169"/>
<polygon fill="none" stroke="black" points="191,-169 191,-191 305,-191 305,-169 191,-169"/>
<image xlink:href="../../images/foreignKeys.png" width="11px" height="12px" preserveAspectRatio="xMinYMin meet" x="196" y="-186"/>
<text text-anchor="start" x="211" y="-177.2" font-family="Helvetica,sans-Serif" font-size="11.00">object_uuid</text>
<polygon fill="none" stroke="black" points="305,-169 305,-191 441,-191 441,-169 305,-169"/>
<text text-anchor="start" x="308" y="-177.2" font-family="Helvetica,sans-Serif" font-size="11.00">uuid[2147483647]</text>
<polygon fill="none" stroke="black" points="191,-147 191,-169 305,-169 305,-147 191,-147"/>
<image xlink:href="../../images/foreignKeys.png" width="11px" height="12px" preserveAspectRatio="xMinYMin meet" x="196" y="-164"/>
<text text-anchor="start" x="211" y="-155.2" font-family="Helvetica,sans-Serif" font-size="11.00">annotatie_id</text>
<polygon fill="none" stroke="black" points="305,-147 305,-169 441,-169 441,-147 305,-147"/>
<text text-anchor="start" x="308" y="-155.2" font-family="Helvetica,sans-Serif" font-size="11.00">int2[5]</text>
<polygon fill="#ffffff" stroke="transparent" points="191,-129 191,-147 254,-147 254,-129 191,-129"/>
<polygon fill="none" stroke="black" points="191,-129 191,-147 254,-147 254,-129 191,-129"/>
<text text-anchor="start" x="194" y="-135.2" font-family="Helvetica,sans-Serif" font-size="11.00">&lt; 2</text>
<polygon fill="#ffffff" stroke="transparent" points="254,-129 254,-147 305,-147 305,-129 254,-129"/>
<polygon fill="none" stroke="black" points="254,-129 254,-147 305,-147 305,-129 254,-129"/>
<text text-anchor="start" x="294" y="-135.2" font-family="Helvetica,sans-Serif" font-size="11.00"> &#160;</text>
<polygon fill="#ffffff" stroke="transparent" points="305,-129 305,-147 441,-147 441,-129 305,-129"/>
<polygon fill="none" stroke="black" points="305,-129 305,-147 441,-147 441,-129 305,-129"/>
<text text-anchor="start" x="418" y="-135.2" font-family="Helvetica,sans-Serif" font-size="11.00">0 &gt;</text>
<polygon fill="none" stroke="black" stroke-width="2" points="190,-128 190,-390 442,-390 442,-128 190,-128"/>
</a>
</g>
</g>
<!-- roi.annotatie -->
<g id="node2" class="node">
<title>roi.annotatie</title>
<g id="a_node2"><a xlink:href="../../../roi/tables/annotatie.html" xlink:title="roi.annotatie" target="_top">
<polygon fill="#ffffff" stroke="transparent" points="8,-37 8,-95 140,-95 140,-37 8,-37"/>
<polygon fill="#f5f5f5" stroke="transparent" points="8,-73 8,-95 140,-95 140,-73 8,-73"/>
<polygon fill="none" stroke="black" points="8,-73 8,-95 140,-95 140,-73 8,-73"/>
<text text-anchor="start" x="13" y="-82.2" font-family="Helvetica,sans-Serif" font-weight="bold" font-size="11.00">roi.annotatie</text>
<text text-anchor="start" x="98" y="-81.2" font-family="Helvetica,sans-Serif" font-size="11.00">[table]</text>
<polygon fill="none" stroke="black" points="8,-55 8,-73 140,-73 140,-55 8,-55"/>
<text text-anchor="start" x="11" y="-61.2" font-family="Helvetica,sans-Serif" font-size="11.00">...</text>
<polygon fill="#ffffff" stroke="transparent" points="8,-37 8,-55 61,-55 61,-37 8,-37"/>
<polygon fill="none" stroke="black" points="8,-37 8,-55 61,-55 61,-37 8,-37"/>
<text text-anchor="start" x="11" y="-43.2" font-family="Helvetica,sans-Serif" font-size="11.00"> &#160;</text>
<polygon fill="#ffffff" stroke="transparent" points="61,-37 61,-55 94,-55 94,-37 61,-37"/>
<polygon fill="none" stroke="black" points="61,-37 61,-55 94,-55 94,-37 61,-37"/>
<text text-anchor="start" x="83" y="-43.2" font-family="Helvetica,sans-Serif" font-size="11.00"> &#160;</text>
<polygon fill="#ffffff" stroke="transparent" points="94,-37 94,-55 140,-55 140,-37 94,-37"/>
<polygon fill="none" stroke="black" points="94,-37 94,-55 140,-55 140,-37 94,-37"/>
<text text-anchor="start" x="117" y="-43.2" font-family="Helvetica,sans-Serif" font-size="11.00">1 &gt;</text>
</a>
</g>
</g>
<!-- label&#45;&gt;roi.annotatie -->
<g id="edge1" class="edge">
<title>label:w&#45;&gt;roi.annotatie:e</title>
<path fill="none" stroke="black" d="M175.77,-153.95C163.12,-144.41 166.2,-120.2 148,-105 145.57,-102.97 143.02,-101.01 140.39,-99.11"/>
<polygon fill="black" stroke="black" points="182.31,-155.81 189.01,-161.46 186.15,-156.9 190,-158 190,-158 190,-158 186.15,-156.9 190.99,-154.54 182.31,-155.81 182.31,-155.81"/>
<ellipse fill="none" stroke="black" cx="179.23" cy="-154.93" rx="3.2" ry="3.2"/>
</g>
<!-- object -->
<g id="node3" class="node">
<title>object</title>
<g id="a_node3"><a xlink:href="../../tables/object.html" xlink:title="object" target="_top">
<polygon fill="#ffffff" stroke="transparent" points="8.5,-116 8.5,-306 139.5,-306 139.5,-116 8.5,-116"/>
<polygon fill="#f5f5f5" stroke="transparent" points="9,-284 9,-306 140,-306 140,-284 9,-284"/>
<polygon fill="none" stroke="black" points="9,-284 9,-306 140,-306 140,-284 9,-284"/>
<text text-anchor="start" x="14" y="-293.2" font-family="Helvetica,sans-Serif" font-weight="bold" font-size="11.00">object</text>
<text text-anchor="start" x="98" y="-292.2" font-family="Helvetica,sans-Serif" font-size="11.00">[table]</text>
<polygon fill="none" stroke="black" points="9,-262 9,-284 140,-284 140,-262 9,-262"/>
<image xlink:href="../../images/primaryKeys.png" width="11px" height="12px" preserveAspectRatio="xMinYMin meet" x="14" y="-279"/>
<text text-anchor="start" x="29" y="-270.2" font-family="Helvetica,sans-Serif" font-size="11.00">uuid</text>
<polygon fill="#ffffff" stroke="transparent" points="9,-240 9,-262 140,-262 140,-240 9,-240"/>
<polygon fill="none" stroke="black" points="9,-240 9,-262 140,-262 140,-240 9,-240"/>
<text text-anchor="start" x="29" y="-248.2" font-family="Helvetica,sans-Serif" font-size="11.00">geom</text>
<polygon fill="#ffffff" stroke="transparent" points="9,-218 9,-240 140,-240 140,-218 9,-218"/>
<polygon fill="none" stroke="black" points="9,-218 9,-240 140,-240 140,-218 9,-218"/>
<text text-anchor="start" x="29" y="-226.2" font-family="Helvetica,sans-Serif" font-size="11.00">revisie_frequentie</text>
<polygon fill="#ffffff" stroke="transparent" points="9,-196 9,-218 140,-218 140,-196 9,-196"/>
<polygon fill="none" stroke="black" points="9,-196 9,-218 140,-218 140,-196 9,-196"/>
<image xlink:href="../../images/foreignKeys.png" width="11px" height="12px" preserveAspectRatio="xMinYMin meet" x="14" y="-213"/>
<text text-anchor="start" x="29" y="-204.2" font-family="Helvetica,sans-Serif" font-size="11.00">fase_id</text>
<polygon fill="#ffffff" stroke="transparent" points="9,-174 9,-196 140,-196 140,-174 9,-174"/>
<polygon fill="none" stroke="black" points="9,-174 9,-196 140,-196 140,-174 9,-174"/>
<image xlink:href="../../images/foreignKeys.png" width="11px" height="12px" preserveAspectRatio="xMinYMin meet" x="14" y="-191"/>
<text text-anchor="start" x="29" y="-182.2" font-family="Helvetica,sans-Serif" font-size="11.00">object_type_id</text>
<polygon fill="#ffffff" stroke="transparent" points="9,-152 9,-174 140,-174 140,-152 9,-152"/>
<polygon fill="none" stroke="black" points="9,-152 9,-174 140,-174 140,-152 9,-152"/>
<text text-anchor="start" x="29" y="-160.2" font-family="Helvetica,sans-Serif" font-size="11.00">periode</text>
<polygon fill="none" stroke="black" points="9,-134 9,-152 140,-152 140,-134 9,-134"/>
<text text-anchor="start" x="12" y="-140.2" font-family="Helvetica,sans-Serif" font-size="11.00">...</text>
<polygon fill="#ffffff" stroke="transparent" points="9,-116 9,-134 67,-134 67,-116 9,-116"/>
<polygon fill="none" stroke="black" points="9,-116 9,-134 67,-134 67,-116 9,-116"/>
<text text-anchor="start" x="12" y="-122.2" font-family="Helvetica,sans-Serif" font-size="11.00">&lt; 2</text>
<polygon fill="#ffffff" stroke="transparent" points="67,-116 67,-134 97,-134 97,-116 67,-116"/>
<polygon fill="none" stroke="black" points="67,-116 67,-134 97,-134 97,-116 67,-116"/>
<text text-anchor="start" x="86" y="-122.2" font-family="Helvetica,sans-Serif" font-size="11.00"> &#160;</text>
<polygon fill="#ffffff" stroke="transparent" points="97,-116 97,-134 140,-134 140,-116 97,-116"/>
<polygon fill="none" stroke="black" points="97,-116 97,-134 140,-134 140,-116 97,-116"/>
<text text-anchor="start" x="117" y="-122.2" font-family="Helvetica,sans-Serif" font-size="11.00">6 &gt;</text>
</a>
</g>
</g>
<!-- label&#45;&gt;object -->
<g id="edge2" class="edge">
<title>label:w&#45;&gt;object:e</title>
<path fill="none" stroke="black" d="M176.09,-184.24C153.22,-202.43 181.7,-273 141,-273"/>
<polygon fill="black" stroke="black" points="182.35,-182.33 191.05,-183.44 186.17,-181.17 190,-180 190,-180 190,-180 186.17,-181.17 188.95,-176.56 182.35,-182.33 182.35,-182.33"/>
<ellipse fill="none" stroke="black" cx="179.29" cy="-183.26" rx="3.2" ry="3.2"/>
</g>
</g>
</svg>
