<?xml version="1.0" encoding="UTF-8" standalone="no"?>
<!DOCTYPE svg PUBLIC "-//W3C//DTD SVG 1.1//EN"
 "http://www.w3.org/Graphics/SVG/1.1/DTD/svg11.dtd">
<!-- Generated by graphviz version 2.50.0 (0)
 -->
<!-- Title: twoDegreesRelationshipsDiagram Pages: 1 -->
<svg width="631pt" height="708pt"
 viewBox="0.00 0.00 631.00 708.00" xmlns="http://www.w3.org/2000/svg" xmlns:xlink="http://www.w3.org/1999/xlink">
<g id="graph0" class="graph" transform="scale(1 1) rotate(0) translate(4 704)">
<title>twoDegreesRelationshipsDiagram</title>
<polygon fill="#ffffff" stroke="transparent" points="-4,4 -4,-704 627,-704 627,4 -4,4"/>
<text text-anchor="middle" x="79.5" y="-7.2" font-family="Helvetica,sans-Serif" font-size="11.00">Generated by SchemaSpy</text>
<!-- bereikbaarheid -->
<g id="node1" class="node">
<title>bereikbaarheid</title>
<g id="a_node1"><a xlink:href="../../tables/bereikbaarheid.html" xlink:title="bereikbaarheid" target="_top">
<polygon fill="#ffffff" stroke="transparent" points="415.5,-638 415.5,-696 560.5,-696 560.5,-638 415.5,-638"/>
<polygon fill="#f5f5f5" stroke="transparent" points="416,-674 416,-696 561,-696 561,-674 416,-674"/>
<polygon fill="none" stroke="black" points="416,-674 416,-696 561,-696 561,-674 416,-674"/>
<text text-anchor="start" x="421" y="-683.2" font-family="Helvetica,sans-Serif" font-weight="bold" font-size="11.00">bereikbaarheid</text>
<text text-anchor="start" x="519" y="-682.2" font-family="Helvetica,sans-Serif" font-size="11.00">[table]</text>
<polygon fill="none" stroke="black" points="416,-656 416,-674 561,-674 561,-656 416,-656"/>
<text text-anchor="start" x="419" y="-662.2" font-family="Helvetica,sans-Serif" font-size="11.00">...</text>
<polygon fill="#ffffff" stroke="transparent" points="416,-638 416,-656 487,-656 487,-638 416,-638"/>
<polygon fill="none" stroke="black" points="416,-638 416,-656 487,-656 487,-638 416,-638"/>
<text text-anchor="start" x="419" y="-644.2" font-family="Helvetica,sans-Serif" font-size="11.00">&lt; 2</text>
<polygon fill="#ffffff" stroke="transparent" points="487,-638 487,-656 524,-656 524,-638 487,-638"/>
<polygon fill="none" stroke="black" points="487,-638 487,-656 524,-656 524,-638 487,-638"/>
<text text-anchor="start" x="513" y="-644.2" font-family="Helvetica,sans-Serif" font-size="11.00"> &#160;</text>
<polygon fill="#ffffff" stroke="transparent" points="524,-638 524,-656 561,-656 561,-638 524,-638"/>
<polygon fill="none" stroke="black" points="524,-638 524,-656 561,-656 561,-638 524,-638"/>
<text text-anchor="start" x="550" y="-644.2" font-family="Helvetica,sans-Serif" font-size="11.00"> &#160;</text>
</a>
</g>
</g>
<!-- object -->
<g id="node2" class="node">
<title>object</title>
<g id="a_node2"><a xlink:href="../../tables/object.html" xlink:title="object" target="_top">
<polygon fill="#ffffff" stroke="transparent" points="180.5,-310 180.5,-500 311.5,-500 311.5,-310 180.5,-310"/>
<polygon fill="#f5f5f5" stroke="transparent" points="181,-478 181,-500 312,-500 312,-478 181,-478"/>
<polygon fill="none" stroke="black" points="181,-478 181,-500 312,-500 312,-478 181,-478"/>
<text text-anchor="start" x="186" y="-487.2" font-family="Helvetica,sans-Serif" font-weight="bold" font-size="11.00">object</text>
<text text-anchor="start" x="270" y="-486.2" font-family="Helvetica,sans-Serif" font-size="11.00">[table]</text>
<polygon fill="none" stroke="black" points="181,-456 181,-478 312,-478 312,-456 181,-456"/>
<image xlink:href="../../images/primaryKeys.png" width="11px" height="12px" preserveAspectRatio="xMinYMin meet" x="186" y="-473"/>
<text text-anchor="start" x="201" y="-464.2" font-family="Helvetica,sans-Serif" font-size="11.00">uuid</text>
<polygon fill="#ffffff" stroke="transparent" points="181,-434 181,-456 312,-456 312,-434 181,-434"/>
<polygon fill="none" stroke="black" points="181,-434 181,-456 312,-456 312,-434 181,-434"/>
<text text-anchor="start" x="201" y="-442.2" font-family="Helvetica,sans-Serif" font-size="11.00">geom</text>
<polygon fill="#ffffff" stroke="transparent" points="181,-412 181,-434 312,-434 312,-412 181,-412"/>
<polygon fill="none" stroke="black" points="181,-412 181,-434 312,-434 312,-412 181,-412"/>
<text text-anchor="start" x="201" y="-420.2" font-family="Helvetica,sans-Serif" font-size="11.00">revisie_frequentie</text>
<polygon fill="#ffffff" stroke="transparent" points="181,-390 181,-412 312,-412 312,-390 181,-390"/>
<polygon fill="none" stroke="black" points="181,-390 181,-412 312,-412 312,-390 181,-390"/>
<image xlink:href="../../images/foreignKeys.png" width="11px" height="12px" preserveAspectRatio="xMinYMin meet" x="186" y="-407"/>
<text text-anchor="start" x="201" y="-398.2" font-family="Helvetica,sans-Serif" font-size="11.00">fase_id</text>
<polygon fill="#ffffff" stroke="transparent" points="181,-368 181,-390 312,-390 312,-368 181,-368"/>
<polygon fill="none" stroke="black" points="181,-368 181,-390 312,-390 312,-368 181,-368"/>
<image xlink:href="../../images/foreignKeys.png" width="11px" height="12px" preserveAspectRatio="xMinYMin meet" x="186" y="-385"/>
<text text-anchor="start" x="201" y="-376.2" font-family="Helvetica,sans-Serif" font-size="11.00">object_type_id</text>
<polygon fill="#ffffff" stroke="transparent" points="181,-346 181,-368 312,-368 312,-346 181,-346"/>
<polygon fill="none" stroke="black" points="181,-346 181,-368 312,-368 312,-346 181,-346"/>
<text text-anchor="start" x="201" y="-354.2" font-family="Helvetica,sans-Serif" font-size="11.00">periode</text>
<polygon fill="none" stroke="black" points="181,-328 181,-346 312,-346 312,-328 181,-328"/>
<text text-anchor="start" x="184" y="-334.2" font-family="Helvetica,sans-Serif" font-size="11.00">...</text>
<polygon fill="#ffffff" stroke="transparent" points="181,-310 181,-328 239,-328 239,-310 181,-310"/>
<polygon fill="none" stroke="black" points="181,-310 181,-328 239,-328 239,-310 181,-310"/>
<text text-anchor="start" x="184" y="-316.2" font-family="Helvetica,sans-Serif" font-size="11.00">&lt; 2</text>
<polygon fill="#ffffff" stroke="transparent" points="239,-310 239,-328 269,-328 269,-310 239,-310"/>
<polygon fill="none" stroke="black" points="239,-310 239,-328 269,-328 269,-310 239,-310"/>
<text text-anchor="start" x="258" y="-316.2" font-family="Helvetica,sans-Serif" font-size="11.00"> &#160;</text>
<polygon fill="#ffffff" stroke="transparent" points="269,-310 269,-328 312,-328 312,-310 269,-310"/>
<polygon fill="none" stroke="black" points="269,-310 269,-328 312,-328 312,-310 269,-310"/>
<text text-anchor="start" x="289" y="-316.2" font-family="Helvetica,sans-Serif" font-size="11.00">6 &gt;</text>
</a>
</g>
</g>
<!-- bereikbaarheid&#45;&gt;object -->
<g id="edge1" class="edge">
<title>bereikbaarheid:w&#45;&gt;object:e</title>
<path fill="none" stroke="black" d="M400.49,-664.03C379.05,-660.82 368.9,-649.45 353,-628 309.08,-568.78 386.73,-467 313,-467"/>
<polygon fill="black" stroke="black" points="407.02,-664.47 414.76,-668.59 411.01,-664.73 415,-665 415,-665 415,-665 411.01,-664.73 415.24,-661.41 407.02,-664.47 407.02,-664.47"/>
<ellipse fill="none" stroke="black" cx="403.82" cy="-664.26" rx="3.2" ry="3.2"/>
</g>
<!-- roi.fase -->
<g id="node5" class="node">
<title>roi.fase</title>
<g id="a_node5"><a xlink:href="../../../roi/tables/fase.html" xlink:title="roi.fase" target="_top">
<polygon fill="#ffffff" stroke="transparent" points="20,-402 20,-460 119,-460 119,-402 20,-402"/>
<polygon fill="#f5f5f5" stroke="transparent" points="20.5,-438 20.5,-460 119.5,-460 119.5,-438 20.5,-438"/>
<polygon fill="none" stroke="black" points="20.5,-438 20.5,-460 119.5,-460 119.5,-438 20.5,-438"/>
<text text-anchor="start" x="25.5" y="-447.2" font-family="Helvetica,sans-Serif" font-weight="bold" font-size="11.00">roi.fase</text>
<text text-anchor="start" x="77.5" y="-446.2" font-family="Helvetica,sans-Serif" font-size="11.00">[table]</text>
<polygon fill="none" stroke="black" points="20.5,-420 20.5,-438 119.5,-438 119.5,-420 20.5,-420"/>
<text text-anchor="start" x="23.5" y="-426.2" font-family="Helvetica,sans-Serif" font-size="11.00">...</text>
<polygon fill="#ffffff" stroke="transparent" points="20.5,-402 20.5,-420 56.5,-420 56.5,-402 20.5,-402"/>
<polygon fill="none" stroke="black" points="20.5,-402 20.5,-420 56.5,-420 56.5,-402 20.5,-402"/>
<text text-anchor="start" x="23.5" y="-408.2" font-family="Helvetica,sans-Serif" font-size="11.00"> &#160;</text>
<polygon fill="#ffffff" stroke="transparent" points="56.5,-402 56.5,-420 81.5,-420 81.5,-402 56.5,-402"/>
<polygon fill="none" stroke="black" points="56.5,-402 56.5,-420 81.5,-420 81.5,-402 56.5,-402"/>
<text text-anchor="start" x="70.5" y="-408.2" font-family="Helvetica,sans-Serif" font-size="11.00"> &#160;</text>
<polygon fill="#ffffff" stroke="transparent" points="81.5,-402 81.5,-420 119.5,-420 119.5,-402 81.5,-402"/>
<polygon fill="none" stroke="black" points="81.5,-402 81.5,-420 119.5,-420 119.5,-402 81.5,-402"/>
<text text-anchor="start" x="96.5" y="-408.2" font-family="Helvetica,sans-Serif" font-size="11.00">1 &gt;</text>
</a>
</g>
</g>
<!-- object&#45;&gt;roi.fase -->
<g id="edge4" class="edge">
<title>object:w&#45;&gt;roi.fase:e</title>
<path fill="none" stroke="black" d="M165.68,-403.79C149.29,-410.87 144.02,-429 120.5,-429"/>
<polygon fill="black" stroke="black" points="172.15,-402.53 180.69,-404.53 176.07,-401.76 180,-401 180,-401 180,-401 176.07,-401.76 179.31,-397.47 172.15,-402.53 172.15,-402.53"/>
<ellipse fill="none" stroke="black" cx="169.01" cy="-403.14" rx="3.2" ry="3.2"/>
</g>
<!-- object_type -->
<g id="node6" class="node">
<title>object_type</title>
<g id="a_node6"><a xlink:href="../../tables/object_type.html" xlink:title="object_type" target="_top">
<polygon fill="#ffffff" stroke="transparent" points="8,-323 8,-381 131,-381 131,-323 8,-323"/>
<polygon fill="#f5f5f5" stroke="transparent" points="8.5,-359 8.5,-381 131.5,-381 131.5,-359 8.5,-359"/>
<polygon fill="none" stroke="black" points="8.5,-359 8.5,-381 131.5,-381 131.5,-359 8.5,-359"/>
<text text-anchor="start" x="13.5" y="-368.2" font-family="Helvetica,sans-Serif" font-weight="bold" font-size="11.00">object_type</text>
<text text-anchor="start" x="89.5" y="-367.2" font-family="Helvetica,sans-Serif" font-size="11.00">[table]</text>
<polygon fill="none" stroke="black" points="8.5,-341 8.5,-359 131.5,-359 131.5,-341 8.5,-341"/>
<text text-anchor="start" x="11.5" y="-347.2" font-family="Helvetica,sans-Serif" font-size="11.00">...</text>
<polygon fill="#ffffff" stroke="transparent" points="8.5,-323 8.5,-341 56.5,-341 56.5,-323 8.5,-323"/>
<polygon fill="none" stroke="black" points="8.5,-323 8.5,-341 56.5,-341 56.5,-323 8.5,-323"/>
<text text-anchor="start" x="11.5" y="-329.2" font-family="Helvetica,sans-Serif" font-size="11.00"> &#160;</text>
<polygon fill="#ffffff" stroke="transparent" points="56.5,-323 56.5,-341 87.5,-341 87.5,-323 56.5,-323"/>
<polygon fill="none" stroke="black" points="56.5,-323 56.5,-341 87.5,-341 87.5,-323 56.5,-323"/>
<text text-anchor="start" x="76.5" y="-329.2" font-family="Helvetica,sans-Serif" font-size="11.00"> &#160;</text>
<polygon fill="#ffffff" stroke="transparent" points="87.5,-323 87.5,-341 131.5,-341 131.5,-323 87.5,-323"/>
<polygon fill="none" stroke="black" points="87.5,-323 87.5,-341 131.5,-341 131.5,-323 87.5,-323"/>
<text text-anchor="start" x="108.5" y="-329.2" font-family="Helvetica,sans-Serif" font-size="11.00">1 &gt;</text>
</a>
</g>
</g>
<!-- object&#45;&gt;object_type -->
<g id="edge5" class="edge">
<title>object:w&#45;&gt;object_type:e</title>
<path fill="none" stroke="black" d="M165.97,-374.72C154.65,-366.65 151.24,-350 132.5,-350"/>
<polygon fill="black" stroke="black" points="172.35,-376.67 178.95,-382.44 176.17,-377.83 180,-379 180,-379 180,-379 176.17,-377.83 181.05,-375.56 172.35,-376.67 172.35,-376.67"/>
<ellipse fill="none" stroke="black" cx="169.29" cy="-375.73" rx="3.2" ry="3.2"/>
</g>
<!-- label -->
<g id="node3" class="node">
<title>label</title>
<g id="a_node3"><a xlink:href="../../tables/label.html" xlink:title="label" target="_top">
<polygon fill="#ffffff" stroke="transparent" points="361,-37 361,-301 615,-301 615,-37 361,-37"/>
<polygon fill="#f5f5f5" stroke="transparent" points="363,-277 363,-299 613,-299 613,-277 363,-277"/>
<polygon fill="none" stroke="black" points="363,-277 363,-299 613,-299 613,-277 363,-277"/>
<text text-anchor="start" x="368" y="-286.2" font-family="Helvetica,sans-Serif" font-weight="bold" font-size="11.00">label</text>
<text text-anchor="start" x="571" y="-285.2" font-family="Helvetica,sans-Serif" font-size="11.00">[table]</text>
<polygon fill="none" stroke="black" points="363,-255 363,-277 477,-277 477,-255 363,-255"/>
<image xlink:href="../../images/primaryKeys.png" width="11px" height="12px" preserveAspectRatio="xMinYMin meet" x="368" y="-272"/>
<text text-anchor="start" x="383" y="-263.2" font-family="Helvetica,sans-Serif" font-size="11.00">uuid</text>
<polygon fill="none" stroke="black" points="477,-255 477,-277 613,-277 613,-255 477,-255"/>
<text text-anchor="start" x="480" y="-263.2" font-family="Helvetica,sans-Serif" font-size="11.00">uuid[2147483647]</text>
<polygon fill="#ffffff" stroke="transparent" points="363,-233 363,-255 477,-255 477,-233 363,-233"/>
<polygon fill="none" stroke="black" points="363,-233 363,-255 477,-255 477,-233 363,-233"/>
<text text-anchor="start" x="383" y="-241.2" font-family="Helvetica,sans-Serif" font-size="11.00">geom</text>
<polygon fill="none" stroke="black" points="477,-233 477,-255 613,-255 613,-233 477,-233"/>
<text text-anchor="start" x="480" y="-241.2" font-family="Helvetica,sans-Serif" font-size="11.00">geometry[2147483647]</text>
<polygon fill="none" stroke="black" points="363,-211 363,-233 477,-233 477,-211 363,-211"/>
<text text-anchor="start" x="383" y="-219.2" font-family="Helvetica,sans-Serif" font-size="11.00">datumtijd</text>
<polygon fill="none" stroke="black" points="477,-211 477,-233 613,-233 613,-211 477,-211"/>
<text text-anchor="start" x="480" y="-219.2" font-family="Helvetica,sans-Serif" font-size="11.00">timestamptz[35,6]</text>
<polygon fill="none" stroke="black" points="363,-189 363,-211 477,-211 477,-189 363,-189"/>
<text text-anchor="start" x="383" y="-197.2" font-family="Helvetica,sans-Serif" font-size="11.00">gebruiker</text>
<polygon fill="none" stroke="black" points="477,-189 477,-211 613,-211 613,-189 477,-189"/>
<text text-anchor="start" x="480" y="-197.2" font-family="Helvetica,sans-Serif" font-size="11.00">varchar[255]</text>
<polygon fill="none" stroke="black" points="363,-167 363,-189 477,-189 477,-167 363,-167"/>
<text text-anchor="start" x="383" y="-175.2" font-family="Helvetica,sans-Serif" font-size="11.00">label</text>
<polygon fill="none" stroke="black" points="477,-167 477,-189 613,-189 613,-167 477,-167"/>
<text text-anchor="start" x="480" y="-175.2" font-family="Helvetica,sans-Serif" font-size="11.00">text[2147483647]</text>
<polygon fill="none" stroke="black" points="363,-145 363,-167 477,-167 477,-145 363,-145"/>
<text text-anchor="start" x="383" y="-153.2" font-family="Helvetica,sans-Serif" font-size="11.00">rotatie</text>
<polygon fill="none" stroke="black" points="477,-145 477,-167 613,-167 613,-145 477,-145"/>
<text text-anchor="start" x="480" y="-153.2" font-family="Helvetica,sans-Serif" font-size="11.00">int4[10]</text>
<polygon fill="none" stroke="black" points="363,-123 363,-145 477,-145 477,-123 363,-123"/>
<text text-anchor="start" x="383" y="-131.2" font-family="Helvetica,sans-Serif" font-size="11.00">bijzonderheden</text>
<polygon fill="none" stroke="black" points="477,-123 477,-145 613,-145 613,-123 477,-123"/>
<text text-anchor="start" x="480" y="-131.2" font-family="Helvetica,sans-Serif" font-size="11.00">text[2147483647]</text>
<polygon fill="none" stroke="black" points="363,-101 363,-123 477,-123 477,-101 363,-101"/>
<text text-anchor="start" x="383" y="-109.2" font-family="Helvetica,sans-Serif" font-size="11.00">plusinfo</text>
<polygon fill="none" stroke="black" points="477,-101 477,-123 613,-123 613,-101 477,-101"/>
<text text-anchor="start" x="480" y="-109.2" font-family="Helvetica,sans-Serif" font-size="11.00">jsonb[2147483647]</text>
<polygon fill="#ffffff" stroke="transparent" points="363,-79 363,-101 477,-101 477,-79 363,-79"/>
<polygon fill="none" stroke="black" points="363,-79 363,-101 477,-101 477,-79 363,-79"/>
<image xlink:href="../../images/foreignKeys.png" width="11px" height="12px" preserveAspectRatio="xMinYMin meet" x="368" y="-96"/>
<text text-anchor="start" x="383" y="-87.2" font-family="Helvetica,sans-Serif" font-size="11.00">object_uuid</text>
<polygon fill="none" stroke="black" points="477,-79 477,-101 613,-101 613,-79 477,-79"/>
<text text-anchor="start" x="480" y="-87.2" font-family="Helvetica,sans-Serif" font-size="11.00">uuid[2147483647]</text>
<polygon fill="none" stroke="black" points="363,-57 363,-79 477,-79 477,-57 363,-57"/>
<image xlink:href="../../images/foreignKeys.png" width="11px" height="12px" preserveAspectRatio="xMinYMin meet" x="368" y="-74"/>
<text text-anchor="start" x="383" y="-65.2" font-family="Helvetica,sans-Serif" font-size="11.00">annotatie_id</text>
<polygon fill="none" stroke="black" points="477,-57 477,-79 613,-79 613,-57 477,-57"/>
<text text-anchor="start" x="480" y="-65.2" font-family="Helvetica,sans-Serif" font-size="11.00">int2[5]</text>
<polygon fill="#ffffff" stroke="transparent" points="363,-39 363,-57 426,-57 426,-39 363,-39"/>
<polygon fill="none" stroke="black" points="363,-39 363,-57 426,-57 426,-39 363,-39"/>
<text text-anchor="start" x="366" y="-45.2" font-family="Helvetica,sans-Serif" font-size="11.00">&lt; 2</text>
<polygon fill="#ffffff" stroke="transparent" points="426,-39 426,-57 477,-57 477,-39 426,-39"/>
<polygon fill="none" stroke="black" points="426,-39 426,-57 477,-57 477,-39 426,-39"/>
<text text-anchor="start" x="466" y="-45.2" font-family="Helvetica,sans-Serif" font-size="11.00"> &#160;</text>
<polygon fill="#ffffff" stroke="transparent" points="477,-39 477,-57 613,-57 613,-39 477,-39"/>
<polygon fill="none" stroke="black" points="477,-39 477,-57 613,-57 613,-39 477,-39"/>
<text text-anchor="start" x="590" y="-45.2" font-family="Helvetica,sans-Serif" font-size="11.00">0 &gt;</text>
<polygon fill="none" stroke="black" stroke-width="2" points="362,-38 362,-300 614,-300 614,-38 362,-38"/>
</a>
</g>
</g>
<!-- label&#45;&gt;object -->
<g id="edge3" class="edge">
<title>label:w&#45;&gt;object:e</title>
<path fill="none" stroke="black" d="M348.1,-94.5C292.13,-137.03 392.04,-467 313,-467"/>
<polygon fill="black" stroke="black" points="354.39,-92.46 363.11,-93.43 358.19,-91.23 362,-90 362,-90 362,-90 358.19,-91.23 360.89,-86.57 354.39,-92.46 354.39,-92.46"/>
<ellipse fill="none" stroke="black" cx="351.34" cy="-93.45" rx="3.2" ry="3.2"/>
</g>
<!-- roi.annotatie -->
<g id="node4" class="node">
<title>roi.annotatie</title>
<g id="a_node4"><a xlink:href="../../../roi/tables/annotatie.html" xlink:title="roi.annotatie" target="_top">
<polygon fill="#ffffff" stroke="transparent" points="180,-39 180,-97 312,-97 312,-39 180,-39"/>
<polygon fill="#f5f5f5" stroke="transparent" points="180,-75 180,-97 312,-97 312,-75 180,-75"/>
<polygon fill="none" stroke="black" points="180,-75 180,-97 312,-97 312,-75 180,-75"/>
<text text-anchor="start" x="185" y="-84.2" font-family="Helvetica,sans-Serif" font-weight="bold" font-size="11.00">roi.annotatie</text>
<text text-anchor="start" x="270" y="-83.2" font-family="Helvetica,sans-Serif" font-size="11.00">[table]</text>
<polygon fill="none" stroke="black" points="180,-57 180,-75 312,-75 312,-57 180,-57"/>
<text text-anchor="start" x="183" y="-63.2" font-family="Helvetica,sans-Serif" font-size="11.00">...</text>
<polygon fill="#ffffff" stroke="transparent" points="180,-39 180,-57 233,-57 233,-39 180,-39"/>
<polygon fill="none" stroke="black" points="180,-39 180,-57 233,-57 233,-39 180,-39"/>
<text text-anchor="start" x="183" y="-45.2" font-family="Helvetica,sans-Serif" font-size="11.00"> &#160;</text>
<polygon fill="#ffffff" stroke="transparent" points="233,-39 233,-57 266,-57 266,-39 233,-39"/>
<polygon fill="none" stroke="black" points="233,-39 233,-57 266,-57 266,-39 233,-39"/>
<text text-anchor="start" x="255" y="-45.2" font-family="Helvetica,sans-Serif" font-size="11.00"> &#160;</text>
<polygon fill="#ffffff" stroke="transparent" points="266,-39 266,-57 312,-57 312,-39 266,-39"/>
<polygon fill="none" stroke="black" points="266,-39 266,-57 312,-57 312,-39 266,-39"/>
<text text-anchor="start" x="289" y="-45.2" font-family="Helvetica,sans-Serif" font-size="11.00">1 &gt;</text>
</a>
</g>
</g>
<!-- label&#45;&gt;roi.annotatie -->
<g id="edge2" class="edge">
<title>label:w&#45;&gt;roi.annotatie:e</title>
<path fill="none" stroke="black" d="M347.41,-68C338.31,-68 329.04,-68 320,-68"/>
<polygon fill="black" stroke="black" points="354,-68 362,-71.6 358,-68 362,-68 362,-68 362,-68 358,-68 362,-64.4 354,-68 354,-68"/>
<ellipse fill="none" stroke="black" cx="350.8" cy="-68" rx="3.2" ry="3.2"/>
</g>
<!-- opstelplaats -->
<g id="node7" class="node">
<title>opstelplaats</title>
<g id="a_node7"><a xlink:href="../../tables/opstelplaats.html" xlink:title="opstelplaats" target="_top">
<polygon fill="#ffffff" stroke="transparent" points="424,-559 424,-617 552,-617 552,-559 424,-559"/>
<polygon fill="#f5f5f5" stroke="transparent" points="424,-595 424,-617 552,-617 552,-595 424,-595"/>
<polygon fill="none" stroke="black" points="424,-595 424,-617 552,-617 552,-595 424,-595"/>
<text text-anchor="start" x="429" y="-604.2" font-family="Helvetica,sans-Serif" font-weight="bold" font-size="11.00">opstelplaats</text>
<text text-anchor="start" x="510" y="-603.2" font-family="Helvetica,sans-Serif" font-size="11.00">[table]</text>
<polygon fill="none" stroke="black" points="424,-577 424,-595 552,-595 552,-577 424,-577"/>
<text text-anchor="start" x="427" y="-583.2" font-family="Helvetica,sans-Serif" font-size="11.00">...</text>
<polygon fill="#ffffff" stroke="transparent" points="424,-559 424,-577 487,-577 487,-559 424,-559"/>
<polygon fill="none" stroke="black" points="424,-559 424,-577 487,-577 487,-559 424,-559"/>
<text text-anchor="start" x="427" y="-565.2" font-family="Helvetica,sans-Serif" font-size="11.00">&lt; 2</text>
<polygon fill="#ffffff" stroke="transparent" points="487,-559 487,-577 519,-577 519,-559 487,-559"/>
<polygon fill="none" stroke="black" points="487,-559 487,-577 519,-577 519,-559 487,-559"/>
<text text-anchor="start" x="508" y="-565.2" font-family="Helvetica,sans-Serif" font-size="11.00"> &#160;</text>
<polygon fill="#ffffff" stroke="transparent" points="519,-559 519,-577 552,-577 552,-559 519,-559"/>
<polygon fill="none" stroke="black" points="519,-559 519,-577 552,-577 552,-559 519,-559"/>
<text text-anchor="start" x="541" y="-565.2" font-family="Helvetica,sans-Serif" font-size="11.00"> &#160;</text>
</a>
</g>
</g>
<!-- opstelplaats&#45;&gt;object -->
<g id="edge6" class="edge">
<title>opstelplaats:w&#45;&gt;object:e</title>
<path fill="none" stroke="black" d="M408.51,-585.18C384.33,-582.12 373.75,-570.43 353,-549 324.8,-519.87 353.55,-467 313,-467"/>
<polygon fill="black" stroke="black" points="415.01,-585.55 422.8,-589.59 419.01,-585.77 423,-586 423,-586 423,-586 419.01,-585.77 423.2,-582.41 415.01,-585.55 415.01,-585.55"/>
<ellipse fill="none" stroke="black" cx="411.82" cy="-585.37" rx="3.2" ry="3.2"/>
</g>
<!-- risico -->
<g id="node8" class="node">
<title>risico</title>
<g id="a_node8"><a xlink:href="../../tables/risico.html" xlink:title="risico" target="_top">
<polygon fill="#ffffff" stroke="transparent" points="445.5,-480 445.5,-538 530.5,-538 530.5,-480 445.5,-480"/>
<polygon fill="#f5f5f5" stroke="transparent" points="446,-516 446,-538 531,-538 531,-516 446,-516"/>
<polygon fill="none" stroke="black" points="446,-516 446,-538 531,-538 531,-516 446,-516"/>
<text text-anchor="start" x="451" y="-525.2" font-family="Helvetica,sans-Serif" font-weight="bold" font-size="11.00">risico</text>
<text text-anchor="start" x="489" y="-524.2" font-family="Helvetica,sans-Serif" font-size="11.00">[table]</text>
<polygon fill="none" stroke="black" points="446,-498 446,-516 531,-516 531,-498 446,-498"/>
<text text-anchor="start" x="449" y="-504.2" font-family="Helvetica,sans-Serif" font-size="11.00">...</text>
<polygon fill="#ffffff" stroke="transparent" points="446,-480 446,-498 487,-498 487,-480 446,-480"/>
<polygon fill="none" stroke="black" points="446,-480 446,-498 487,-498 487,-480 446,-480"/>
<text text-anchor="start" x="449" y="-486.2" font-family="Helvetica,sans-Serif" font-size="11.00">&lt; 1</text>
<polygon fill="#ffffff" stroke="transparent" points="487,-480 487,-498 509,-498 509,-480 487,-480"/>
<polygon fill="none" stroke="black" points="487,-480 487,-498 509,-498 509,-480 487,-480"/>
<text text-anchor="start" x="498" y="-486.2" font-family="Helvetica,sans-Serif" font-size="11.00"> &#160;</text>
<polygon fill="#ffffff" stroke="transparent" points="509,-480 509,-498 531,-498 531,-480 509,-480"/>
<polygon fill="none" stroke="black" points="509,-480 509,-498 531,-498 531,-480 509,-480"/>
<text text-anchor="start" x="520" y="-486.2" font-family="Helvetica,sans-Serif" font-size="11.00"> &#160;</text>
</a>
</g>
</g>
<!-- risico&#45;&gt;object -->
<g id="edge7" class="edge">
<title>risico:w&#45;&gt;object:e</title>
<path fill="none" stroke="black" d="M430.59,-506.2C381.75,-500.56 369.15,-467 313,-467"/>
<polygon fill="black" stroke="black" points="437.01,-506.56 444.8,-510.59 441.01,-506.78 445,-507 445,-507 445,-507 441.01,-506.78 445.2,-503.41 437.01,-506.56 437.01,-506.56"/>
<ellipse fill="none" stroke="black" cx="433.82" cy="-506.38" rx="3.2" ry="3.2"/>
</g>
<!-- sector -->
<g id="node9" class="node">
<title>sector</title>
<g id="a_node9"><a xlink:href="../../tables/sector.html" xlink:title="sector" target="_top">
<polygon fill="#ffffff" stroke="transparent" points="442.5,-401 442.5,-459 533.5,-459 533.5,-401 442.5,-401"/>
<polygon fill="#f5f5f5" stroke="transparent" points="443,-437 443,-459 534,-459 534,-437 443,-437"/>
<polygon fill="none" stroke="black" points="443,-437 443,-459 534,-459 534,-437 443,-437"/>
<text text-anchor="start" x="448" y="-446.2" font-family="Helvetica,sans-Serif" font-weight="bold" font-size="11.00">sector</text>
<text text-anchor="start" x="492" y="-445.2" font-family="Helvetica,sans-Serif" font-size="11.00">[table]</text>
<polygon fill="none" stroke="black" points="443,-419 443,-437 534,-437 534,-419 443,-419"/>
<text text-anchor="start" x="446" y="-425.2" font-family="Helvetica,sans-Serif" font-size="11.00">...</text>
<polygon fill="#ffffff" stroke="transparent" points="443,-401 443,-419 487,-419 487,-401 443,-401"/>
<polygon fill="none" stroke="black" points="443,-401 443,-419 487,-419 487,-401 443,-401"/>
<text text-anchor="start" x="446" y="-407.2" font-family="Helvetica,sans-Serif" font-size="11.00">&lt; 2</text>
<polygon fill="#ffffff" stroke="transparent" points="487,-401 487,-419 510,-419 510,-401 487,-401"/>
<polygon fill="none" stroke="black" points="487,-401 487,-419 510,-419 510,-401 487,-401"/>
<text text-anchor="start" x="499" y="-407.2" font-family="Helvetica,sans-Serif" font-size="11.00"> &#160;</text>
<polygon fill="#ffffff" stroke="transparent" points="510,-401 510,-419 534,-419 534,-401 510,-401"/>
<polygon fill="none" stroke="black" points="510,-401 510,-419 534,-419 534,-401 510,-401"/>
<text text-anchor="start" x="523" y="-407.2" font-family="Helvetica,sans-Serif" font-size="11.00"> &#160;</text>
</a>
</g>
</g>
<!-- sector&#45;&gt;object -->
<g id="edge8" class="edge">
<title>sector:w&#45;&gt;object:e</title>
<path fill="none" stroke="black" d="M427.62,-428.81C380.15,-434.42 367.75,-467 313,-467"/>
<polygon fill="black" stroke="black" points="434.01,-428.45 442.2,-431.59 438.01,-428.23 442,-428 442,-428 442,-428 438.01,-428.23 441.8,-424.41 434.01,-428.45 434.01,-428.45"/>
<ellipse fill="none" stroke="black" cx="430.82" cy="-428.63" rx="3.2" ry="3.2"/>
</g>
<!-- voorziening -->
<g id="node10" class="node">
<title>voorziening</title>
<g id="a_node10"><a xlink:href="../../tables/voorziening.html" xlink:title="voorziening" target="_top">
<polygon fill="#ffffff" stroke="transparent" points="426,-322 426,-380 550,-380 550,-322 426,-322"/>
<polygon fill="#f5f5f5" stroke="transparent" points="426,-358 426,-380 550,-380 550,-358 426,-358"/>
<polygon fill="none" stroke="black" points="426,-358 426,-380 550,-380 550,-358 426,-358"/>
<text text-anchor="start" x="431" y="-367.2" font-family="Helvetica,sans-Serif" font-weight="bold" font-size="11.00">voorziening</text>
<text text-anchor="start" x="508" y="-366.2" font-family="Helvetica,sans-Serif" font-size="11.00">[table]</text>
<polygon fill="none" stroke="black" points="426,-340 426,-358 550,-358 550,-340 426,-340"/>
<text text-anchor="start" x="429" y="-346.2" font-family="Helvetica,sans-Serif" font-size="11.00">...</text>
<polygon fill="#ffffff" stroke="transparent" points="426,-322 426,-340 487,-340 487,-322 426,-322"/>
<polygon fill="none" stroke="black" points="426,-322 426,-340 487,-340 487,-322 426,-322"/>
<text text-anchor="start" x="429" y="-328.2" font-family="Helvetica,sans-Serif" font-size="11.00">&lt; 2</text>
<polygon fill="#ffffff" stroke="transparent" points="487,-322 487,-340 518,-340 518,-322 487,-322"/>
<polygon fill="none" stroke="black" points="487,-322 487,-340 518,-340 518,-322 487,-322"/>
<text text-anchor="start" x="507" y="-328.2" font-family="Helvetica,sans-Serif" font-size="11.00"> &#160;</text>
<polygon fill="#ffffff" stroke="transparent" points="518,-322 518,-340 550,-340 550,-322 518,-322"/>
<polygon fill="none" stroke="black" points="518,-322 518,-340 550,-340 550,-322 518,-322"/>
<text text-anchor="start" x="539" y="-328.2" font-family="Helvetica,sans-Serif" font-size="11.00"> &#160;</text>
</a>
</g>
</g>
<!-- voorziening&#45;&gt;object -->
<g id="edge9" class="edge">
<title>voorziening:w&#45;&gt;object:e</title>
<path fill="none" stroke="black" d="M410.54,-349.94C384.91,-353.65 374.92,-368.11 353,-391 326.6,-418.57 351.17,-467 313,-467"/>
<polygon fill="black" stroke="black" points="417.02,-349.52 425.23,-352.59 421.01,-349.26 425,-349 425,-349 425,-349 421.01,-349.26 424.77,-345.41 417.02,-349.52 417.02,-349.52"/>
<ellipse fill="none" stroke="black" cx="413.82" cy="-349.73" rx="3.2" ry="3.2"/>
</g>
</g>
</svg>
