<?xml version="1.0" encoding="UTF-8" standalone="no"?>
<!DOCTYPE svg PUBLIC "-//W3C//DTD SVG 1.1//EN"
 "http://www.w3.org/Graphics/SVG/1.1/DTD/svg11.dtd">
<!-- Generated by graphviz version 2.50.0 (0)
 -->
<!-- Title: twoDegreesRelationshipsDiagram Pages: 1 -->
<svg width="606pt" height="502pt"
 viewBox="0.00 0.00 606.00 502.00" xmlns="http://www.w3.org/2000/svg" xmlns:xlink="http://www.w3.org/1999/xlink">
<g id="graph0" class="graph" transform="scale(1 1) rotate(0) translate(4 498)">
<title>twoDegreesRelationshipsDiagram</title>
<polygon fill="#ffffff" stroke="transparent" points="-4,4 -4,-498 602,-498 602,4 -4,4"/>
<text text-anchor="middle" x="79.5" y="-7.2" font-family="Helvetica,sans-Serif" font-size="11.00">Generated by SchemaSpy</text>
<!-- bereikbaarheid -->
<g id="node1" class="node">
<title>bereikbaarheid</title>
<g id="a_node1"><a xlink:href="../../tables/bereikbaarheid.html" xlink:title="bereikbaarheid" target="_top">
<polygon fill="#ffffff" stroke="transparent" points="445,-432 445,-490 590,-490 590,-432 445,-432"/>
<polygon fill="#f5f5f5" stroke="transparent" points="445.5,-468 445.5,-490 590.5,-490 590.5,-468 445.5,-468"/>
<polygon fill="none" stroke="black" points="445.5,-468 445.5,-490 590.5,-490 590.5,-468 445.5,-468"/>
<text text-anchor="start" x="450.5" y="-477.2" font-family="Helvetica,sans-Serif" font-weight="bold" font-size="11.00">bereikbaarheid</text>
<text text-anchor="start" x="548.5" y="-476.2" font-family="Helvetica,sans-Serif" font-size="11.00">[table]</text>
<polygon fill="none" stroke="black" points="445.5,-450 445.5,-468 590.5,-468 590.5,-450 445.5,-450"/>
<text text-anchor="start" x="448.5" y="-456.2" font-family="Helvetica,sans-Serif" font-size="11.00">...</text>
<polygon fill="#ffffff" stroke="transparent" points="445.5,-432 445.5,-450 516.5,-450 516.5,-432 445.5,-432"/>
<polygon fill="none" stroke="black" points="445.5,-432 445.5,-450 516.5,-450 516.5,-432 445.5,-432"/>
<text text-anchor="start" x="448.5" y="-438.2" font-family="Helvetica,sans-Serif" font-size="11.00">&lt; 2</text>
<polygon fill="#ffffff" stroke="transparent" points="516.5,-432 516.5,-450 553.5,-450 553.5,-432 516.5,-432"/>
<polygon fill="none" stroke="black" points="516.5,-432 516.5,-450 553.5,-450 553.5,-432 516.5,-432"/>
<text text-anchor="start" x="542.5" y="-438.2" font-family="Helvetica,sans-Serif" font-size="11.00"> &#160;</text>
<polygon fill="#ffffff" stroke="transparent" points="553.5,-432 553.5,-450 590.5,-450 590.5,-432 553.5,-432"/>
<polygon fill="none" stroke="black" points="553.5,-432 553.5,-450 590.5,-450 590.5,-432 553.5,-432"/>
<text text-anchor="start" x="579.5" y="-438.2" font-family="Helvetica,sans-Serif" font-size="11.00"> &#160;</text>
</a>
</g>
</g>
<!-- object -->
<g id="node2" class="node">
<title>object</title>
<g id="a_node2"><a xlink:href="../../tables/object.html" xlink:title="object" target="_top">
<polygon fill="#ffffff" stroke="transparent" points="265,-104 265,-294 396,-294 396,-104 265,-104"/>
<polygon fill="#f5f5f5" stroke="transparent" points="265.5,-272 265.5,-294 396.5,-294 396.5,-272 265.5,-272"/>
<polygon fill="none" stroke="black" points="265.5,-272 265.5,-294 396.5,-294 396.5,-272 265.5,-272"/>
<text text-anchor="start" x="270.5" y="-281.2" font-family="Helvetica,sans-Serif" font-weight="bold" font-size="11.00">object</text>
<text text-anchor="start" x="354.5" y="-280.2" font-family="Helvetica,sans-Serif" font-size="11.00">[table]</text>
<polygon fill="none" stroke="black" points="265.5,-250 265.5,-272 396.5,-272 396.5,-250 265.5,-250"/>
<image xlink:href="../../images/primaryKeys.png" width="11px" height="12px" preserveAspectRatio="xMinYMin meet" x="270.5" y="-267"/>
<text text-anchor="start" x="285.5" y="-258.2" font-family="Helvetica,sans-Serif" font-size="11.00">uuid</text>
<polygon fill="#ffffff" stroke="transparent" points="265.5,-228 265.5,-250 396.5,-250 396.5,-228 265.5,-228"/>
<polygon fill="none" stroke="black" points="265.5,-228 265.5,-250 396.5,-250 396.5,-228 265.5,-228"/>
<text text-anchor="start" x="285.5" y="-236.2" font-family="Helvetica,sans-Serif" font-size="11.00">geom</text>
<polygon fill="#ffffff" stroke="transparent" points="265.5,-206 265.5,-228 396.5,-228 396.5,-206 265.5,-206"/>
<polygon fill="none" stroke="black" points="265.5,-206 265.5,-228 396.5,-228 396.5,-206 265.5,-206"/>
<text text-anchor="start" x="285.5" y="-214.2" font-family="Helvetica,sans-Serif" font-size="11.00">revisie_frequentie</text>
<polygon fill="#ffffff" stroke="transparent" points="265.5,-184 265.5,-206 396.5,-206 396.5,-184 265.5,-184"/>
<polygon fill="none" stroke="black" points="265.5,-184 265.5,-206 396.5,-206 396.5,-184 265.5,-184"/>
<image xlink:href="../../images/foreignKeys.png" width="11px" height="12px" preserveAspectRatio="xMinYMin meet" x="270.5" y="-201"/>
<text text-anchor="start" x="285.5" y="-192.2" font-family="Helvetica,sans-Serif" font-size="11.00">fase_id</text>
<polygon fill="#ffffff" stroke="transparent" points="265.5,-162 265.5,-184 396.5,-184 396.5,-162 265.5,-162"/>
<polygon fill="none" stroke="black" points="265.5,-162 265.5,-184 396.5,-184 396.5,-162 265.5,-162"/>
<image xlink:href="../../images/foreignKeys.png" width="11px" height="12px" preserveAspectRatio="xMinYMin meet" x="270.5" y="-179"/>
<text text-anchor="start" x="285.5" y="-170.2" font-family="Helvetica,sans-Serif" font-size="11.00">object_type_id</text>
<polygon fill="#ffffff" stroke="transparent" points="265.5,-140 265.5,-162 396.5,-162 396.5,-140 265.5,-140"/>
<polygon fill="none" stroke="black" points="265.5,-140 265.5,-162 396.5,-162 396.5,-140 265.5,-140"/>
<text text-anchor="start" x="285.5" y="-148.2" font-family="Helvetica,sans-Serif" font-size="11.00">periode</text>
<polygon fill="none" stroke="black" points="265.5,-122 265.5,-140 396.5,-140 396.5,-122 265.5,-122"/>
<text text-anchor="start" x="268.5" y="-128.2" font-family="Helvetica,sans-Serif" font-size="11.00">...</text>
<polygon fill="#ffffff" stroke="transparent" points="265.5,-104 265.5,-122 323.5,-122 323.5,-104 265.5,-104"/>
<polygon fill="none" stroke="black" points="265.5,-104 265.5,-122 323.5,-122 323.5,-104 265.5,-104"/>
<text text-anchor="start" x="268.5" y="-110.2" font-family="Helvetica,sans-Serif" font-size="11.00">&lt; 2</text>
<polygon fill="#ffffff" stroke="transparent" points="323.5,-104 323.5,-122 353.5,-122 353.5,-104 323.5,-104"/>
<polygon fill="none" stroke="black" points="323.5,-104 323.5,-122 353.5,-122 353.5,-104 323.5,-104"/>
<text text-anchor="start" x="342.5" y="-110.2" font-family="Helvetica,sans-Serif" font-size="11.00"> &#160;</text>
<polygon fill="#ffffff" stroke="transparent" points="353.5,-104 353.5,-122 396.5,-122 396.5,-104 353.5,-104"/>
<polygon fill="none" stroke="black" points="353.5,-104 353.5,-122 396.5,-122 396.5,-104 353.5,-104"/>
<text text-anchor="start" x="373.5" y="-110.2" font-family="Helvetica,sans-Serif" font-size="11.00">6 &gt;</text>
</a>
</g>
</g>
<!-- bereikbaarheid&#45;&gt;object -->
<g id="edge1" class="edge">
<title>bereikbaarheid:w&#45;&gt;object:e</title>
<path fill="none" stroke="black" d="M430.06,-456.78C369.91,-435.02 482.29,-261 397.5,-261"/>
<polygon fill="black" stroke="black" points="436.59,-457.78 443.95,-462.56 440.55,-458.39 444.5,-459 444.5,-459 444.5,-459 440.55,-458.39 445.05,-455.44 436.59,-457.78 436.59,-457.78"/>
<ellipse fill="none" stroke="black" cx="433.43" cy="-457.3" rx="3.2" ry="3.2"/>
</g>
<!-- roi.fase -->
<g id="node4" class="node">
<title>roi.fase</title>
<g id="a_node4"><a xlink:href="../../../roi/tables/fase.html" xlink:title="roi.fase" target="_top">
<polygon fill="#ffffff" stroke="transparent" points="62.5,-199 62.5,-257 161.5,-257 161.5,-199 62.5,-199"/>
<polygon fill="#f5f5f5" stroke="transparent" points="63,-235 63,-257 162,-257 162,-235 63,-235"/>
<polygon fill="none" stroke="black" points="63,-235 63,-257 162,-257 162,-235 63,-235"/>
<text text-anchor="start" x="68" y="-244.2" font-family="Helvetica,sans-Serif" font-weight="bold" font-size="11.00">roi.fase</text>
<text text-anchor="start" x="120" y="-243.2" font-family="Helvetica,sans-Serif" font-size="11.00">[table]</text>
<polygon fill="none" stroke="black" points="63,-217 63,-235 162,-235 162,-217 63,-217"/>
<text text-anchor="start" x="66" y="-223.2" font-family="Helvetica,sans-Serif" font-size="11.00">...</text>
<polygon fill="#ffffff" stroke="transparent" points="63,-199 63,-217 99,-217 99,-199 63,-199"/>
<polygon fill="none" stroke="black" points="63,-199 63,-217 99,-217 99,-199 63,-199"/>
<text text-anchor="start" x="66" y="-205.2" font-family="Helvetica,sans-Serif" font-size="11.00"> &#160;</text>
<polygon fill="#ffffff" stroke="transparent" points="99,-199 99,-217 124,-217 124,-199 99,-199"/>
<polygon fill="none" stroke="black" points="99,-199 99,-217 124,-217 124,-199 99,-199"/>
<text text-anchor="start" x="113" y="-205.2" font-family="Helvetica,sans-Serif" font-size="11.00"> &#160;</text>
<polygon fill="#ffffff" stroke="transparent" points="124,-199 124,-217 162,-217 162,-199 124,-199"/>
<polygon fill="none" stroke="black" points="124,-199 124,-217 162,-217 162,-199 124,-199"/>
<text text-anchor="start" x="139" y="-205.2" font-family="Helvetica,sans-Serif" font-size="11.00">1 &gt;</text>
</a>
</g>
</g>
<!-- object&#45;&gt;roi.fase -->
<g id="edge3" class="edge">
<title>object:w&#45;&gt;roi.fase:e</title>
<path fill="none" stroke="black" d="M249.89,-196.1C215.2,-201.63 204.82,-226 163,-226"/>
<polygon fill="black" stroke="black" points="256.52,-195.6 264.77,-198.59 260.51,-195.3 264.5,-195 264.5,-195 264.5,-195 260.51,-195.3 264.23,-191.41 256.52,-195.6 256.52,-195.6"/>
<ellipse fill="none" stroke="black" cx="253.33" cy="-195.84" rx="3.2" ry="3.2"/>
</g>
<!-- object_type -->
<g id="node5" class="node">
<title>object_type</title>
<g id="a_node5"><a xlink:href="../../tables/object_type.html" xlink:title="object_type" target="_top">
<polygon fill="#ffffff" stroke="transparent" points="8,-68 8,-178 216,-178 216,-68 8,-68"/>
<polygon fill="#f5f5f5" stroke="transparent" points="10,-154 10,-176 214,-176 214,-154 10,-154"/>
<polygon fill="none" stroke="black" points="10,-154 10,-176 214,-176 214,-154 10,-154"/>
<text text-anchor="start" x="15" y="-163.2" font-family="Helvetica,sans-Serif" font-weight="bold" font-size="11.00">object_type</text>
<text text-anchor="start" x="172" y="-162.2" font-family="Helvetica,sans-Serif" font-size="11.00">[table]</text>
<polygon fill="none" stroke="black" points="10,-132 10,-154 108,-154 108,-132 10,-132"/>
<image xlink:href="../../images/primaryKeys.png" width="11px" height="12px" preserveAspectRatio="xMinYMin meet" x="15" y="-149"/>
<text text-anchor="start" x="30" y="-140.2" font-family="Helvetica,sans-Serif" font-size="11.00">id</text>
<polygon fill="none" stroke="black" points="108,-132 108,-154 214,-154 214,-132 108,-132"/>
<text text-anchor="start" x="111" y="-140.2" font-family="Helvetica,sans-Serif" font-size="11.00">int2[5]</text>
<polygon fill="none" stroke="black" points="10,-110 10,-132 108,-132 108,-110 10,-110"/>
<text text-anchor="start" x="30" y="-118.2" font-family="Helvetica,sans-Serif" font-size="11.00">naam</text>
<polygon fill="none" stroke="black" points="108,-110 108,-132 214,-132 214,-110 108,-110"/>
<text text-anchor="start" x="111" y="-118.2" font-family="Helvetica,sans-Serif" font-size="11.00">text[2147483647]</text>
<polygon fill="none" stroke="black" points="10,-88 10,-110 108,-110 108,-88 10,-88"/>
<text text-anchor="start" x="30" y="-96.2" font-family="Helvetica,sans-Serif" font-size="11.00">omschrijving</text>
<polygon fill="none" stroke="black" points="108,-88 108,-110 214,-110 214,-88 108,-88"/>
<text text-anchor="start" x="111" y="-96.2" font-family="Helvetica,sans-Serif" font-size="11.00">text[2147483647]</text>
<polygon fill="#ffffff" stroke="transparent" points="10,-70 10,-88 65,-88 65,-70 10,-70"/>
<polygon fill="none" stroke="black" points="10,-70 10,-88 65,-88 65,-70 10,-70"/>
<text text-anchor="start" x="13" y="-76.2" font-family="Helvetica,sans-Serif" font-size="11.00">&lt; 0</text>
<polygon fill="#ffffff" stroke="transparent" points="65,-70 65,-88 108,-88 108,-70 65,-70"/>
<polygon fill="none" stroke="black" points="65,-70 65,-88 108,-88 108,-70 65,-70"/>
<text text-anchor="start" x="97" y="-76.2" font-family="Helvetica,sans-Serif" font-size="11.00"> &#160;</text>
<polygon fill="#ffffff" stroke="transparent" points="108,-70 108,-88 214,-88 214,-70 108,-70"/>
<polygon fill="none" stroke="black" points="108,-70 108,-88 214,-88 214,-70 108,-70"/>
<text text-anchor="start" x="191" y="-76.2" font-family="Helvetica,sans-Serif" font-size="11.00">1 &gt;</text>
<polygon fill="none" stroke="black" stroke-width="2" points="9,-69 9,-177 215,-177 215,-69 9,-69"/>
</a>
</g>
</g>
<!-- object&#45;&gt;object_type -->
<g id="edge4" class="edge">
<title>object:w&#45;&gt;object_type:e</title>
<path fill="none" stroke="black" d="M250.63,-169.08C238.24,-160.95 234.9,-143 215,-143"/>
<polygon fill="black" stroke="black" points="256.8,-170.82 263.52,-176.46 260.65,-171.91 264.5,-173 264.5,-173 264.5,-173 260.65,-171.91 265.48,-169.54 256.8,-170.82 256.8,-170.82"/>
<ellipse fill="none" stroke="black" cx="253.72" cy="-169.95" rx="3.2" ry="3.2"/>
</g>
<!-- label -->
<g id="node3" class="node">
<title>label</title>
<g id="a_node3"><a xlink:href="../../tables/label.html" xlink:title="label" target="_top">
<polygon fill="#ffffff" stroke="transparent" points="476.5,-353 476.5,-411 558.5,-411 558.5,-353 476.5,-353"/>
<polygon fill="#f5f5f5" stroke="transparent" points="476.5,-389 476.5,-411 558.5,-411 558.5,-389 476.5,-389"/>
<polygon fill="none" stroke="black" points="476.5,-389 476.5,-411 558.5,-411 558.5,-389 476.5,-389"/>
<text text-anchor="start" x="481.5" y="-398.2" font-family="Helvetica,sans-Serif" font-weight="bold" font-size="11.00">label</text>
<text text-anchor="start" x="516.5" y="-397.2" font-family="Helvetica,sans-Serif" font-size="11.00">[table]</text>
<polygon fill="none" stroke="black" points="476.5,-371 476.5,-389 558.5,-389 558.5,-371 476.5,-371"/>
<text text-anchor="start" x="479.5" y="-377.2" font-family="Helvetica,sans-Serif" font-size="11.00">...</text>
<polygon fill="#ffffff" stroke="transparent" points="476.5,-353 476.5,-371 516.5,-371 516.5,-353 476.5,-353"/>
<polygon fill="none" stroke="black" points="476.5,-353 476.5,-371 516.5,-371 516.5,-353 476.5,-353"/>
<text text-anchor="start" x="479.5" y="-359.2" font-family="Helvetica,sans-Serif" font-size="11.00">&lt; 2</text>
<polygon fill="#ffffff" stroke="transparent" points="516.5,-353 516.5,-371 537.5,-371 537.5,-353 516.5,-353"/>
<polygon fill="none" stroke="black" points="516.5,-353 516.5,-371 537.5,-371 537.5,-353 516.5,-353"/>
<text text-anchor="start" x="526.5" y="-359.2" font-family="Helvetica,sans-Serif" font-size="11.00"> &#160;</text>
<polygon fill="#ffffff" stroke="transparent" points="537.5,-353 537.5,-371 558.5,-371 558.5,-353 537.5,-353"/>
<polygon fill="none" stroke="black" points="537.5,-353 537.5,-371 558.5,-371 558.5,-353 537.5,-353"/>
<text text-anchor="start" x="547.5" y="-359.2" font-family="Helvetica,sans-Serif" font-size="11.00"> &#160;</text>
</a>
</g>
</g>
<!-- label&#45;&gt;object -->
<g id="edge2" class="edge">
<title>label:w&#45;&gt;object:e</title>
<path fill="none" stroke="black" d="M461.43,-376.92C450.53,-371.02 447.44,-357.41 437,-343 413.26,-310.24 437.95,-261 397.5,-261"/>
<polygon fill="black" stroke="black" points="467.68,-378.29 474.73,-383.52 471.59,-379.14 475.5,-380 475.5,-380 475.5,-380 471.59,-379.14 476.27,-376.48 467.68,-378.29 467.68,-378.29"/>
<ellipse fill="none" stroke="black" cx="464.56" cy="-377.61" rx="3.2" ry="3.2"/>
</g>
<!-- opstelplaats -->
<g id="node6" class="node">
<title>opstelplaats</title>
<g id="a_node6"><a xlink:href="../../tables/opstelplaats.html" xlink:title="opstelplaats" target="_top">
<polygon fill="#ffffff" stroke="transparent" points="453.5,-274 453.5,-332 581.5,-332 581.5,-274 453.5,-274"/>
<polygon fill="#f5f5f5" stroke="transparent" points="453.5,-310 453.5,-332 581.5,-332 581.5,-310 453.5,-310"/>
<polygon fill="none" stroke="black" points="453.5,-310 453.5,-332 581.5,-332 581.5,-310 453.5,-310"/>
<text text-anchor="start" x="458.5" y="-319.2" font-family="Helvetica,sans-Serif" font-weight="bold" font-size="11.00">opstelplaats</text>
<text text-anchor="start" x="539.5" y="-318.2" font-family="Helvetica,sans-Serif" font-size="11.00">[table]</text>
<polygon fill="none" stroke="black" points="453.5,-292 453.5,-310 581.5,-310 581.5,-292 453.5,-292"/>
<text text-anchor="start" x="456.5" y="-298.2" font-family="Helvetica,sans-Serif" font-size="11.00">...</text>
<polygon fill="#ffffff" stroke="transparent" points="453.5,-274 453.5,-292 516.5,-292 516.5,-274 453.5,-274"/>
<polygon fill="none" stroke="black" points="453.5,-274 453.5,-292 516.5,-292 516.5,-274 453.5,-274"/>
<text text-anchor="start" x="456.5" y="-280.2" font-family="Helvetica,sans-Serif" font-size="11.00">&lt; 2</text>
<polygon fill="#ffffff" stroke="transparent" points="516.5,-274 516.5,-292 548.5,-292 548.5,-274 516.5,-274"/>
<polygon fill="none" stroke="black" points="516.5,-274 516.5,-292 548.5,-292 548.5,-274 516.5,-274"/>
<text text-anchor="start" x="537.5" y="-280.2" font-family="Helvetica,sans-Serif" font-size="11.00"> &#160;</text>
<polygon fill="#ffffff" stroke="transparent" points="548.5,-274 548.5,-292 581.5,-292 581.5,-274 548.5,-274"/>
<polygon fill="none" stroke="black" points="548.5,-274 548.5,-292 581.5,-292 581.5,-274 548.5,-274"/>
<text text-anchor="start" x="570.5" y="-280.2" font-family="Helvetica,sans-Serif" font-size="11.00"> &#160;</text>
</a>
</g>
</g>
<!-- opstelplaats&#45;&gt;object -->
<g id="edge5" class="edge">
<title>opstelplaats:w&#45;&gt;object:e</title>
<path fill="none" stroke="black" d="M438.34,-297.02C423.04,-286.9 421.82,-261 397.5,-261"/>
<polygon fill="black" stroke="black" points="444.8,-298.83 451.53,-304.47 448.65,-299.92 452.5,-301 452.5,-301 452.5,-301 448.65,-299.92 453.47,-297.53 444.8,-298.83 444.8,-298.83"/>
<ellipse fill="none" stroke="black" cx="441.72" cy="-297.97" rx="3.2" ry="3.2"/>
</g>
<!-- risico -->
<g id="node7" class="node">
<title>risico</title>
<g id="a_node7"><a xlink:href="../../tables/risico.html" xlink:title="risico" target="_top">
<polygon fill="#ffffff" stroke="transparent" points="475,-195 475,-253 560,-253 560,-195 475,-195"/>
<polygon fill="#f5f5f5" stroke="transparent" points="475.5,-231 475.5,-253 560.5,-253 560.5,-231 475.5,-231"/>
<polygon fill="none" stroke="black" points="475.5,-231 475.5,-253 560.5,-253 560.5,-231 475.5,-231"/>
<text text-anchor="start" x="480.5" y="-240.2" font-family="Helvetica,sans-Serif" font-weight="bold" font-size="11.00">risico</text>
<text text-anchor="start" x="518.5" y="-239.2" font-family="Helvetica,sans-Serif" font-size="11.00">[table]</text>
<polygon fill="none" stroke="black" points="475.5,-213 475.5,-231 560.5,-231 560.5,-213 475.5,-213"/>
<text text-anchor="start" x="478.5" y="-219.2" font-family="Helvetica,sans-Serif" font-size="11.00">...</text>
<polygon fill="#ffffff" stroke="transparent" points="475.5,-195 475.5,-213 516.5,-213 516.5,-195 475.5,-195"/>
<polygon fill="none" stroke="black" points="475.5,-195 475.5,-213 516.5,-213 516.5,-195 475.5,-195"/>
<text text-anchor="start" x="478.5" y="-201.2" font-family="Helvetica,sans-Serif" font-size="11.00">&lt; 1</text>
<polygon fill="#ffffff" stroke="transparent" points="516.5,-195 516.5,-213 538.5,-213 538.5,-195 516.5,-195"/>
<polygon fill="none" stroke="black" points="516.5,-195 516.5,-213 538.5,-213 538.5,-195 516.5,-195"/>
<text text-anchor="start" x="527.5" y="-201.2" font-family="Helvetica,sans-Serif" font-size="11.00"> &#160;</text>
<polygon fill="#ffffff" stroke="transparent" points="538.5,-195 538.5,-213 560.5,-213 560.5,-195 538.5,-195"/>
<polygon fill="none" stroke="black" points="538.5,-195 538.5,-213 560.5,-213 560.5,-195 538.5,-195"/>
<text text-anchor="start" x="549.5" y="-201.2" font-family="Helvetica,sans-Serif" font-size="11.00"> &#160;</text>
</a>
</g>
</g>
<!-- risico&#45;&gt;object -->
<g id="edge6" class="edge">
<title>risico:w&#45;&gt;object:e</title>
<path fill="none" stroke="black" d="M460.02,-224.21C435.26,-232.46 430.32,-261 397.5,-261"/>
<polygon fill="black" stroke="black" points="466.59,-223.21 475.04,-225.56 470.55,-222.6 474.5,-222 474.5,-222 474.5,-222 470.55,-222.6 473.96,-218.44 466.59,-223.21 466.59,-223.21"/>
<ellipse fill="none" stroke="black" cx="463.43" cy="-223.69" rx="3.2" ry="3.2"/>
</g>
<!-- sector -->
<g id="node8" class="node">
<title>sector</title>
<g id="a_node8"><a xlink:href="../../tables/sector.html" xlink:title="sector" target="_top">
<polygon fill="#ffffff" stroke="transparent" points="472,-116 472,-174 563,-174 563,-116 472,-116"/>
<polygon fill="#f5f5f5" stroke="transparent" points="472.5,-152 472.5,-174 563.5,-174 563.5,-152 472.5,-152"/>
<polygon fill="none" stroke="black" points="472.5,-152 472.5,-174 563.5,-174 563.5,-152 472.5,-152"/>
<text text-anchor="start" x="477.5" y="-161.2" font-family="Helvetica,sans-Serif" font-weight="bold" font-size="11.00">sector</text>
<text text-anchor="start" x="521.5" y="-160.2" font-family="Helvetica,sans-Serif" font-size="11.00">[table]</text>
<polygon fill="none" stroke="black" points="472.5,-134 472.5,-152 563.5,-152 563.5,-134 472.5,-134"/>
<text text-anchor="start" x="475.5" y="-140.2" font-family="Helvetica,sans-Serif" font-size="11.00">...</text>
<polygon fill="#ffffff" stroke="transparent" points="472.5,-116 472.5,-134 516.5,-134 516.5,-116 472.5,-116"/>
<polygon fill="none" stroke="black" points="472.5,-116 472.5,-134 516.5,-134 516.5,-116 472.5,-116"/>
<text text-anchor="start" x="475.5" y="-122.2" font-family="Helvetica,sans-Serif" font-size="11.00">&lt; 2</text>
<polygon fill="#ffffff" stroke="transparent" points="516.5,-116 516.5,-134 539.5,-134 539.5,-116 516.5,-116"/>
<polygon fill="none" stroke="black" points="516.5,-116 516.5,-134 539.5,-134 539.5,-116 516.5,-116"/>
<text text-anchor="start" x="528.5" y="-122.2" font-family="Helvetica,sans-Serif" font-size="11.00"> &#160;</text>
<polygon fill="#ffffff" stroke="transparent" points="539.5,-116 539.5,-134 563.5,-134 563.5,-116 539.5,-116"/>
<polygon fill="none" stroke="black" points="539.5,-116 539.5,-134 563.5,-134 563.5,-116 539.5,-116"/>
<text text-anchor="start" x="552.5" y="-122.2" font-family="Helvetica,sans-Serif" font-size="11.00"> &#160;</text>
</a>
</g>
</g>
<!-- sector&#45;&gt;object -->
<g id="edge7" class="edge">
<title>sector:w&#45;&gt;object:e</title>
<path fill="none" stroke="black" d="M457.1,-145.8C417.8,-163.67 453.72,-261 397.5,-261"/>
<polygon fill="black" stroke="black" points="463.65,-144.53 472.19,-146.53 467.57,-143.76 471.5,-143 471.5,-143 471.5,-143 467.57,-143.76 470.81,-139.47 463.65,-144.53 463.65,-144.53"/>
<ellipse fill="none" stroke="black" cx="460.51" cy="-145.14" rx="3.2" ry="3.2"/>
</g>
<!-- voorziening -->
<g id="node9" class="node">
<title>voorziening</title>
<g id="a_node9"><a xlink:href="../../tables/voorziening.html" xlink:title="voorziening" target="_top">
<polygon fill="#ffffff" stroke="transparent" points="455.5,-37 455.5,-95 579.5,-95 579.5,-37 455.5,-37"/>
<polygon fill="#f5f5f5" stroke="transparent" points="455.5,-73 455.5,-95 579.5,-95 579.5,-73 455.5,-73"/>
<polygon fill="none" stroke="black" points="455.5,-73 455.5,-95 579.5,-95 579.5,-73 455.5,-73"/>
<text text-anchor="start" x="460.5" y="-82.2" font-family="Helvetica,sans-Serif" font-weight="bold" font-size="11.00">voorziening</text>
<text text-anchor="start" x="537.5" y="-81.2" font-family="Helvetica,sans-Serif" font-size="11.00">[table]</text>
<polygon fill="none" stroke="black" points="455.5,-55 455.5,-73 579.5,-73 579.5,-55 455.5,-55"/>
<text text-anchor="start" x="458.5" y="-61.2" font-family="Helvetica,sans-Serif" font-size="11.00">...</text>
<polygon fill="#ffffff" stroke="transparent" points="455.5,-37 455.5,-55 516.5,-55 516.5,-37 455.5,-37"/>
<polygon fill="none" stroke="black" points="455.5,-37 455.5,-55 516.5,-55 516.5,-37 455.5,-37"/>
<text text-anchor="start" x="458.5" y="-43.2" font-family="Helvetica,sans-Serif" font-size="11.00">&lt; 2</text>
<polygon fill="#ffffff" stroke="transparent" points="516.5,-37 516.5,-55 547.5,-55 547.5,-37 516.5,-37"/>
<polygon fill="none" stroke="black" points="516.5,-37 516.5,-55 547.5,-55 547.5,-37 516.5,-37"/>
<text text-anchor="start" x="536.5" y="-43.2" font-family="Helvetica,sans-Serif" font-size="11.00"> &#160;</text>
<polygon fill="#ffffff" stroke="transparent" points="547.5,-37 547.5,-55 579.5,-55 579.5,-37 547.5,-37"/>
<polygon fill="none" stroke="black" points="547.5,-37 547.5,-55 579.5,-55 579.5,-37 547.5,-37"/>
<text text-anchor="start" x="568.5" y="-43.2" font-family="Helvetica,sans-Serif" font-size="11.00"> &#160;</text>
</a>
</g>
</g>
<!-- voorziening&#45;&gt;object -->
<g id="edge8" class="edge">
<title>voorziening:w&#45;&gt;object:e</title>
<path fill="none" stroke="black" d="M440.23,-66.08C377.73,-87.13 483.13,-261 397.5,-261"/>
<polygon fill="black" stroke="black" points="446.58,-65.15 455.02,-67.56 450.54,-64.58 454.5,-64 454.5,-64 454.5,-64 450.54,-64.58 453.98,-60.44 446.58,-65.15 446.58,-65.15"/>
<ellipse fill="none" stroke="black" cx="443.42" cy="-65.61" rx="3.2" ry="3.2"/>
</g>
</g>
</svg>
