<?xml version="1.0" encoding="UTF-8" standalone="no"?>
<!DOCTYPE svg PUBLIC "-//W3C//DTD SVG 1.1//EN"
 "http://www.w3.org/Graphics/SVG/1.1/DTD/svg11.dtd">
<!-- Generated by graphviz version 2.50.0 (0)
 -->
<!-- Title: oneDegreeRelationshipsDiagram Pages: 1 -->
<svg width="688pt" height="1081pt"
 viewBox="0.00 0.00 688.00 1081.00" xmlns="http://www.w3.org/2000/svg" xmlns:xlink="http://www.w3.org/1999/xlink">
<g id="graph0" class="graph" transform="scale(1 1) rotate(0) translate(4 1077)">
<title>oneDegreeRelationshipsDiagram</title>
<polygon fill="#ffffff" stroke="transparent" points="-4,4 -4,-1077 684,-1077 684,4 -4,4"/>
<text text-anchor="middle" x="79.5" y="-7.2" font-family="Helvetica,sans-Serif" font-size="11.00">Generated by SchemaSpy</text>
<!-- bereikbaarheid -->
<g id="node1" class="node">
<title>bereikbaarheid</title>
<g id="a_node1"><a xlink:href="../../tables/bereikbaarheid.html" xlink:title="bereikbaarheid" target="_top">
<polygon fill="#ffffff" stroke="transparent" points="527,-923 527,-1069 672,-1069 672,-923 527,-923"/>
<polygon fill="#f5f5f5" stroke="transparent" points="527.5,-1047 527.5,-1069 672.5,-1069 672.5,-1047 527.5,-1047"/>
<polygon fill="none" stroke="black" points="527.5,-1047 527.5,-1069 672.5,-1069 672.5,-1047 527.5,-1047"/>
<text text-anchor="start" x="532.5" y="-1056.2" font-family="Helvetica,sans-Serif" font-weight="bold" font-size="11.00">bereikbaarheid</text>
<text text-anchor="start" x="630.5" y="-1055.2" font-family="Helvetica,sans-Serif" font-size="11.00">[table]</text>
<polygon fill="none" stroke="black" points="527.5,-1025 527.5,-1047 672.5,-1047 672.5,-1025 527.5,-1025"/>
<image xlink:href="../../images/primaryKeys.png" width="11px" height="12px" preserveAspectRatio="xMinYMin meet" x="532.5" y="-1042"/>
<text text-anchor="start" x="563.5" y="-1033.2" font-family="Helvetica,sans-Serif" font-size="11.00">uuid</text>
<polygon fill="#ffffff" stroke="transparent" points="527.5,-1003 527.5,-1025 672.5,-1025 672.5,-1003 527.5,-1003"/>
<polygon fill="none" stroke="black" points="527.5,-1003 527.5,-1025 672.5,-1025 672.5,-1003 527.5,-1003"/>
<text text-anchor="start" x="563.5" y="-1011.2" font-family="Helvetica,sans-Serif" font-size="11.00">geom</text>
<polygon fill="#ffffff" stroke="transparent" points="527.5,-981 527.5,-1003 672.5,-1003 672.5,-981 527.5,-981"/>
<polygon fill="none" stroke="black" points="527.5,-981 527.5,-1003 672.5,-1003 672.5,-981 527.5,-981"/>
<image xlink:href="../../images/foreignKeys.png" width="11px" height="12px" preserveAspectRatio="xMinYMin meet" x="532.5" y="-998"/>
<text text-anchor="start" x="563.5" y="-989.2" font-family="Helvetica,sans-Serif" font-size="11.00">object_uuid</text>
<polygon fill="none" stroke="black" points="527.5,-959 527.5,-981 672.5,-981 672.5,-959 527.5,-959"/>
<image xlink:href="../../images/foreignKeys.png" width="11px" height="12px" preserveAspectRatio="xMinYMin meet" x="532.5" y="-976"/>
<text text-anchor="start" x="563.5" y="-967.2" font-family="Helvetica,sans-Serif" font-size="11.00">verbinding_id</text>
<polygon fill="none" stroke="black" points="527.5,-941 527.5,-959 672.5,-959 672.5,-941 527.5,-941"/>
<text text-anchor="start" x="530.5" y="-947.2" font-family="Helvetica,sans-Serif" font-size="11.00">...</text>
<polygon fill="#ffffff" stroke="transparent" points="527.5,-923 527.5,-941 598.5,-941 598.5,-923 527.5,-923"/>
<polygon fill="none" stroke="black" points="527.5,-923 527.5,-941 598.5,-941 598.5,-923 527.5,-923"/>
<text text-anchor="start" x="530.5" y="-929.2" font-family="Helvetica,sans-Serif" font-size="11.00">&lt; 2</text>
<polygon fill="#ffffff" stroke="transparent" points="598.5,-923 598.5,-941 635.5,-941 635.5,-923 598.5,-923"/>
<polygon fill="none" stroke="black" points="598.5,-923 598.5,-941 635.5,-941 635.5,-923 598.5,-923"/>
<text text-anchor="start" x="624.5" y="-929.2" font-family="Helvetica,sans-Serif" font-size="11.00"> &#160;</text>
<polygon fill="#ffffff" stroke="transparent" points="635.5,-923 635.5,-941 672.5,-941 672.5,-923 635.5,-923"/>
<polygon fill="none" stroke="black" points="635.5,-923 635.5,-941 672.5,-941 672.5,-923 635.5,-923"/>
<text text-anchor="start" x="661.5" y="-929.2" font-family="Helvetica,sans-Serif" font-size="11.00"> &#160;</text>
</a>
</g>
</g>
<!-- object -->
<g id="node2" class="node">
<title>object</title>
<g id="a_node2"><a xlink:href="../../tables/object.html" xlink:title="object" target="_top">
<polygon fill="#ffffff" stroke="transparent" points="180,-37 180,-609 478,-609 478,-37 180,-37"/>
<polygon fill="#f5f5f5" stroke="transparent" points="182,-585 182,-607 476,-607 476,-585 182,-585"/>
<polygon fill="none" stroke="black" points="182,-585 182,-607 476,-607 476,-585 182,-585"/>
<text text-anchor="start" x="187" y="-594.2" font-family="Helvetica,sans-Serif" font-weight="bold" font-size="11.00">object</text>
<text text-anchor="start" x="434" y="-593.2" font-family="Helvetica,sans-Serif" font-size="11.00">[table]</text>
<polygon fill="none" stroke="black" points="182,-563 182,-585 313,-585 313,-563 182,-563"/>
<image xlink:href="../../images/primaryKeys.png" width="11px" height="12px" preserveAspectRatio="xMinYMin meet" x="187" y="-580"/>
<text text-anchor="start" x="202" y="-571.2" font-family="Helvetica,sans-Serif" font-size="11.00">uuid</text>
<polygon fill="none" stroke="black" points="313,-563 313,-585 476,-585 476,-563 313,-563"/>
<text text-anchor="start" x="316" y="-571.2" font-family="Helvetica,sans-Serif" font-size="11.00">uuid[2147483647]</text>
<polygon fill="#ffffff" stroke="transparent" points="182,-541 182,-563 313,-563 313,-541 182,-541"/>
<polygon fill="none" stroke="black" points="182,-541 182,-563 313,-563 313,-541 182,-541"/>
<text text-anchor="start" x="202" y="-549.2" font-family="Helvetica,sans-Serif" font-size="11.00">geom</text>
<polygon fill="none" stroke="black" points="313,-541 313,-563 476,-563 476,-541 313,-541"/>
<text text-anchor="start" x="316" y="-549.2" font-family="Helvetica,sans-Serif" font-size="11.00">geometry[2147483647]</text>
<polygon fill="none" stroke="black" points="182,-519 182,-541 313,-541 313,-519 182,-519"/>
<text text-anchor="start" x="202" y="-527.2" font-family="Helvetica,sans-Serif" font-size="11.00">datumtijd</text>
<polygon fill="none" stroke="black" points="313,-519 313,-541 476,-541 476,-519 313,-519"/>
<text text-anchor="start" x="316" y="-527.2" font-family="Helvetica,sans-Serif" font-size="11.00">timestamptz[35,6]</text>
<polygon fill="none" stroke="black" points="182,-497 182,-519 313,-519 313,-497 182,-497"/>
<text text-anchor="start" x="202" y="-505.2" font-family="Helvetica,sans-Serif" font-size="11.00">gebruiker</text>
<polygon fill="none" stroke="black" points="313,-497 313,-519 476,-519 476,-497 313,-497"/>
<text text-anchor="start" x="316" y="-505.2" font-family="Helvetica,sans-Serif" font-size="11.00">varchar[255]</text>
<polygon fill="#ffffff" stroke="transparent" points="182,-475 182,-497 313,-497 313,-475 182,-475"/>
<polygon fill="none" stroke="black" points="182,-475 182,-497 313,-497 313,-475 182,-475"/>
<text text-anchor="start" x="202" y="-483.2" font-family="Helvetica,sans-Serif" font-size="11.00">revisie_frequentie</text>
<polygon fill="none" stroke="black" points="313,-475 313,-497 476,-497 476,-475 313,-475"/>
<text text-anchor="start" x="316" y="-483.2" font-family="Helvetica,sans-Serif" font-size="11.00">int2[5]</text>
<polygon fill="none" stroke="black" points="182,-453 182,-475 313,-475 313,-453 182,-453"/>
<text text-anchor="start" x="202" y="-461.2" font-family="Helvetica,sans-Serif" font-size="11.00">formelenaam</text>
<polygon fill="none" stroke="black" points="313,-453 313,-475 476,-475 476,-453 313,-453"/>
<text text-anchor="start" x="316" y="-461.2" font-family="Helvetica,sans-Serif" font-size="11.00">text[2147483647]</text>
<polygon fill="none" stroke="black" points="182,-431 182,-453 313,-453 313,-431 182,-431"/>
<text text-anchor="start" x="202" y="-439.2" font-family="Helvetica,sans-Serif" font-size="11.00">code</text>
<polygon fill="none" stroke="black" points="313,-431 313,-453 476,-453 476,-431 313,-431"/>
<text text-anchor="start" x="316" y="-439.2" font-family="Helvetica,sans-Serif" font-size="11.00">text[2147483647]</text>
<polygon fill="none" stroke="black" points="182,-409 182,-431 313,-431 313,-409 182,-409"/>
<text text-anchor="start" x="202" y="-417.2" font-family="Helvetica,sans-Serif" font-size="11.00">adres</text>
<polygon fill="none" stroke="black" points="313,-409 313,-431 476,-431 476,-409 313,-409"/>
<text text-anchor="start" x="316" y="-417.2" font-family="Helvetica,sans-Serif" font-size="11.00">text[2147483647]</text>
<polygon fill="none" stroke="black" points="182,-387 182,-409 313,-409 313,-387 182,-387"/>
<text text-anchor="start" x="202" y="-395.2" font-family="Helvetica,sans-Serif" font-size="11.00">bijzonderheden</text>
<polygon fill="none" stroke="black" points="313,-387 313,-409 476,-409 476,-387 313,-387"/>
<text text-anchor="start" x="316" y="-395.2" font-family="Helvetica,sans-Serif" font-size="11.00">text[2147483647]</text>
<polygon fill="none" stroke="black" points="182,-365 182,-387 313,-387 313,-365 182,-365"/>
<text text-anchor="start" x="202" y="-373.2" font-family="Helvetica,sans-Serif" font-size="11.00">plusinfo</text>
<polygon fill="none" stroke="black" points="313,-365 313,-387 476,-387 476,-365 313,-365"/>
<text text-anchor="start" x="316" y="-373.2" font-family="Helvetica,sans-Serif" font-size="11.00">jsonb[2147483647]</text>
<polygon fill="#ffffff" stroke="transparent" points="182,-343 182,-365 313,-365 313,-343 182,-343"/>
<polygon fill="none" stroke="black" points="182,-343 182,-365 313,-365 313,-343 182,-343"/>
<image xlink:href="../../images/foreignKeys.png" width="11px" height="12px" preserveAspectRatio="xMinYMin meet" x="187" y="-360"/>
<text text-anchor="start" x="202" y="-351.2" font-family="Helvetica,sans-Serif" font-size="11.00">fase_id</text>
<polygon fill="none" stroke="black" points="313,-343 313,-365 476,-365 476,-343 313,-343"/>
<text text-anchor="start" x="316" y="-351.2" font-family="Helvetica,sans-Serif" font-size="11.00">int2[5]</text>
<polygon fill="#ffffff" stroke="transparent" points="182,-321 182,-343 313,-343 313,-321 182,-321"/>
<polygon fill="none" stroke="black" points="182,-321 182,-343 313,-343 313,-321 182,-321"/>
<image xlink:href="../../images/foreignKeys.png" width="11px" height="12px" preserveAspectRatio="xMinYMin meet" x="187" y="-338"/>
<text text-anchor="start" x="202" y="-329.2" font-family="Helvetica,sans-Serif" font-size="11.00">object_type_id</text>
<polygon fill="none" stroke="black" points="313,-321 313,-343 476,-343 476,-321 313,-321"/>
<text text-anchor="start" x="316" y="-329.2" font-family="Helvetica,sans-Serif" font-size="11.00">int2[5]</text>
<polygon fill="#ffffff" stroke="transparent" points="182,-299 182,-321 313,-321 313,-299 182,-299"/>
<polygon fill="none" stroke="black" points="182,-299 182,-321 313,-321 313,-299 182,-299"/>
<text text-anchor="start" x="202" y="-307.2" font-family="Helvetica,sans-Serif" font-size="11.00">periode</text>
<polygon fill="none" stroke="black" points="313,-299 313,-321 476,-321 476,-299 313,-299"/>
<text text-anchor="start" x="316" y="-307.2" font-family="Helvetica,sans-Serif" font-size="11.00">tstzmultirange[2147483647]</text>
<polygon fill="none" stroke="black" points="182,-277 182,-299 313,-299 313,-277 182,-277"/>
<text text-anchor="start" x="202" y="-285.2" font-family="Helvetica,sans-Serif" font-size="11.00">datumtijd_start</text>
<polygon fill="none" stroke="black" points="313,-277 313,-299 476,-299 476,-277 313,-277"/>
<text text-anchor="start" x="316" y="-285.2" font-family="Helvetica,sans-Serif" font-size="11.00">timestamptz[35,6]</text>
<polygon fill="none" stroke="black" points="182,-255 182,-277 313,-277 313,-255 182,-255"/>
<text text-anchor="start" x="202" y="-263.2" font-family="Helvetica,sans-Serif" font-size="11.00">datumtijd_eind</text>
<polygon fill="none" stroke="black" points="313,-255 313,-277 476,-277 476,-255 313,-255"/>
<text text-anchor="start" x="316" y="-263.2" font-family="Helvetica,sans-Serif" font-size="11.00">timestamptz[35,6]</text>
<polygon fill="none" stroke="black" points="182,-233 182,-255 313,-255 313,-233 182,-233"/>
<text text-anchor="start" x="202" y="-241.2" font-family="Helvetica,sans-Serif" font-size="11.00">herhaling_interval</text>
<polygon fill="none" stroke="black" points="313,-233 313,-255 476,-255 476,-233 313,-233"/>
<text text-anchor="start" x="316" y="-241.2" font-family="Helvetica,sans-Serif" font-size="11.00">interval[49,6]</text>
<polygon fill="none" stroke="black" points="182,-211 182,-233 313,-233 313,-211 182,-211"/>
<text text-anchor="start" x="202" y="-219.2" font-family="Helvetica,sans-Serif" font-size="11.00">herhaling_eind</text>
<polygon fill="none" stroke="black" points="313,-211 313,-233 476,-233 476,-211 313,-211"/>
<text text-anchor="start" x="316" y="-219.2" font-family="Helvetica,sans-Serif" font-size="11.00">timestamptz[35,6]</text>
<polygon fill="none" stroke="black" points="182,-189 182,-211 313,-211 313,-189 182,-189"/>
<text text-anchor="start" x="202" y="-197.2" font-family="Helvetica,sans-Serif" font-size="11.00">contact_functie</text>
<polygon fill="none" stroke="black" points="313,-189 313,-211 476,-211 476,-189 313,-189"/>
<text text-anchor="start" x="316" y="-197.2" font-family="Helvetica,sans-Serif" font-size="11.00">text[2147483647]</text>
<polygon fill="none" stroke="black" points="182,-167 182,-189 313,-189 313,-167 182,-167"/>
<text text-anchor="start" x="202" y="-175.2" font-family="Helvetica,sans-Serif" font-size="11.00">contact_telefoon</text>
<polygon fill="none" stroke="black" points="313,-167 313,-189 476,-189 476,-167 313,-167"/>
<text text-anchor="start" x="316" y="-175.2" font-family="Helvetica,sans-Serif" font-size="11.00">int8[19]</text>
<polygon fill="none" stroke="black" points="182,-145 182,-167 313,-167 313,-145 182,-145"/>
<text text-anchor="start" x="202" y="-153.2" font-family="Helvetica,sans-Serif" font-size="11.00">bhv_aanwezig</text>
<polygon fill="none" stroke="black" points="313,-145 313,-167 476,-167 476,-145 313,-145"/>
<text text-anchor="start" x="316" y="-153.2" font-family="Helvetica,sans-Serif" font-size="11.00">text[2147483647]</text>
<polygon fill="none" stroke="black" points="182,-123 182,-145 313,-145 313,-123 182,-123"/>
<text text-anchor="start" x="202" y="-131.2" font-family="Helvetica,sans-Serif" font-size="11.00">bhv_ademlucht</text>
<polygon fill="none" stroke="black" points="313,-123 313,-145 476,-145 476,-123 313,-123"/>
<text text-anchor="start" x="316" y="-131.2" font-family="Helvetica,sans-Serif" font-size="11.00">text[2147483647]</text>
<polygon fill="none" stroke="black" points="182,-101 182,-123 313,-123 313,-101 182,-101"/>
<text text-anchor="start" x="202" y="-109.2" font-family="Helvetica,sans-Serif" font-size="11.00">bhv_dagen</text>
<polygon fill="none" stroke="black" points="313,-101 313,-123 476,-123 476,-101 313,-101"/>
<text text-anchor="start" x="316" y="-109.2" font-family="Helvetica,sans-Serif" font-size="11.00">text[2147483647]</text>
<polygon fill="none" stroke="black" points="182,-79 182,-101 313,-101 313,-79 182,-79"/>
<text text-anchor="start" x="202" y="-87.2" font-family="Helvetica,sans-Serif" font-size="11.00">bhv_tijden</text>
<polygon fill="none" stroke="black" points="313,-79 313,-101 476,-101 476,-79 313,-79"/>
<text text-anchor="start" x="316" y="-87.2" font-family="Helvetica,sans-Serif" font-size="11.00">text[2147483647]</text>
<polygon fill="none" stroke="black" points="182,-57 182,-79 313,-79 313,-57 182,-57"/>
<text text-anchor="start" x="202" y="-65.2" font-family="Helvetica,sans-Serif" font-size="11.00">bhv_telefoon</text>
<polygon fill="none" stroke="black" points="313,-57 313,-79 476,-79 476,-57 313,-57"/>
<text text-anchor="start" x="316" y="-65.2" font-family="Helvetica,sans-Serif" font-size="11.00">int8[19]</text>
<polygon fill="#ffffff" stroke="transparent" points="182,-39 182,-57 253,-57 253,-39 182,-39"/>
<polygon fill="none" stroke="black" points="182,-39 182,-57 253,-57 253,-39 182,-39"/>
<text text-anchor="start" x="185" y="-45.2" font-family="Helvetica,sans-Serif" font-size="11.00">&lt; 2</text>
<polygon fill="#ffffff" stroke="transparent" points="253,-39 253,-57 313,-57 313,-39 253,-39"/>
<polygon fill="none" stroke="black" points="253,-39 253,-57 313,-57 313,-39 253,-39"/>
<text text-anchor="start" x="302" y="-45.2" font-family="Helvetica,sans-Serif" font-size="11.00"> &#160;</text>
<polygon fill="#ffffff" stroke="transparent" points="313,-39 313,-57 476,-57 476,-39 313,-39"/>
<polygon fill="none" stroke="black" points="313,-39 313,-57 476,-57 476,-39 313,-39"/>
<text text-anchor="start" x="453" y="-45.2" font-family="Helvetica,sans-Serif" font-size="11.00">6 &gt;</text>
<polygon fill="none" stroke="black" stroke-width="2" points="181,-38 181,-608 477,-608 477,-38 181,-38"/>
</a>
</g>
</g>
<!-- bereikbaarheid&#45;&gt;object -->
<g id="edge1" class="edge">
<title>bereikbaarheid:w&#45;&gt;object:e</title>
<path fill="none" stroke="black" d="M512.35,-987.86C448.29,-944.45 565.06,-574 477,-574"/>
<polygon fill="black" stroke="black" points="518.82,-989.76 525.49,-995.46 522.66,-990.88 526.5,-992 526.5,-992 526.5,-992 522.66,-990.88 527.51,-988.54 518.82,-989.76 518.82,-989.76"/>
<ellipse fill="none" stroke="black" cx="515.75" cy="-988.86" rx="3.2" ry="3.2"/>
</g>
<!-- roi.fase -->
<g id="node4" class="node">
<title>roi.fase</title>
<g id="a_node4"><a xlink:href="../../../roi/tables/fase.html" xlink:title="roi.fase" target="_top">
<polygon fill="#ffffff" stroke="transparent" points="20,-356 20,-414 119,-414 119,-356 20,-356"/>
<polygon fill="#f5f5f5" stroke="transparent" points="20.5,-392 20.5,-414 119.5,-414 119.5,-392 20.5,-392"/>
<polygon fill="none" stroke="black" points="20.5,-392 20.5,-414 119.5,-414 119.5,-392 20.5,-392"/>
<text text-anchor="start" x="25.5" y="-401.2" font-family="Helvetica,sans-Serif" font-weight="bold" font-size="11.00">roi.fase</text>
<text text-anchor="start" x="77.5" y="-400.2" font-family="Helvetica,sans-Serif" font-size="11.00">[table]</text>
<polygon fill="none" stroke="black" points="20.5,-374 20.5,-392 119.5,-392 119.5,-374 20.5,-374"/>
<text text-anchor="start" x="23.5" y="-380.2" font-family="Helvetica,sans-Serif" font-size="11.00">...</text>
<polygon fill="#ffffff" stroke="transparent" points="20.5,-356 20.5,-374 56.5,-374 56.5,-356 20.5,-356"/>
<polygon fill="none" stroke="black" points="20.5,-356 20.5,-374 56.5,-374 56.5,-356 20.5,-356"/>
<text text-anchor="start" x="23.5" y="-362.2" font-family="Helvetica,sans-Serif" font-size="11.00"> &#160;</text>
<polygon fill="#ffffff" stroke="transparent" points="56.5,-356 56.5,-374 81.5,-374 81.5,-356 56.5,-356"/>
<polygon fill="none" stroke="black" points="56.5,-356 56.5,-374 81.5,-374 81.5,-356 56.5,-356"/>
<text text-anchor="start" x="70.5" y="-362.2" font-family="Helvetica,sans-Serif" font-size="11.00"> &#160;</text>
<polygon fill="#ffffff" stroke="transparent" points="81.5,-356 81.5,-374 119.5,-374 119.5,-356 81.5,-356"/>
<polygon fill="none" stroke="black" points="81.5,-356 81.5,-374 119.5,-374 119.5,-356 81.5,-356"/>
<text text-anchor="start" x="96.5" y="-362.2" font-family="Helvetica,sans-Serif" font-size="11.00">1 &gt;</text>
</a>
</g>
</g>
<!-- object&#45;&gt;roi.fase -->
<g id="edge3" class="edge">
<title>object:w&#45;&gt;roi.fase:e</title>
<path fill="none" stroke="black" d="M166.54,-354.76C153.12,-356.12 139.55,-359.15 127.01,-362.8"/>
<polygon fill="black" stroke="black" points="173.01,-354.42 181.19,-357.6 177.01,-354.21 181,-354 181,-354 181,-354 177.01,-354.21 180.81,-350.4 173.01,-354.42 173.01,-354.42"/>
<ellipse fill="none" stroke="black" cx="169.82" cy="-354.59" rx="3.2" ry="3.2"/>
</g>
<!-- object_type -->
<g id="node5" class="node">
<title>object_type</title>
<g id="a_node5"><a xlink:href="../../tables/object_type.html" xlink:title="object_type" target="_top">
<polygon fill="#ffffff" stroke="transparent" points="8,-255 8,-335 131,-335 131,-255 8,-255"/>
<polygon fill="#f5f5f5" stroke="transparent" points="8.5,-313 8.5,-335 131.5,-335 131.5,-313 8.5,-313"/>
<polygon fill="none" stroke="black" points="8.5,-313 8.5,-335 131.5,-335 131.5,-313 8.5,-313"/>
<text text-anchor="start" x="13.5" y="-322.2" font-family="Helvetica,sans-Serif" font-weight="bold" font-size="11.00">object_type</text>
<text text-anchor="start" x="89.5" y="-321.2" font-family="Helvetica,sans-Serif" font-size="11.00">[table]</text>
<polygon fill="none" stroke="black" points="8.5,-291 8.5,-313 131.5,-313 131.5,-291 8.5,-291"/>
<image xlink:href="../../images/primaryKeys.png" width="11px" height="12px" preserveAspectRatio="xMinYMin meet" x="13.5" y="-308"/>
<text text-anchor="start" x="41.5" y="-299.2" font-family="Helvetica,sans-Serif" font-size="11.00">id</text>
<polygon fill="none" stroke="black" points="8.5,-273 8.5,-291 131.5,-291 131.5,-273 8.5,-273"/>
<text text-anchor="start" x="11.5" y="-279.2" font-family="Helvetica,sans-Serif" font-size="11.00">...</text>
<polygon fill="#ffffff" stroke="transparent" points="8.5,-255 8.5,-273 56.5,-273 56.5,-255 8.5,-255"/>
<polygon fill="none" stroke="black" points="8.5,-255 8.5,-273 56.5,-273 56.5,-255 8.5,-255"/>
<text text-anchor="start" x="11.5" y="-261.2" font-family="Helvetica,sans-Serif" font-size="11.00"> &#160;</text>
<polygon fill="#ffffff" stroke="transparent" points="56.5,-255 56.5,-273 87.5,-273 87.5,-255 56.5,-255"/>
<polygon fill="none" stroke="black" points="56.5,-255 56.5,-273 87.5,-273 87.5,-255 56.5,-255"/>
<text text-anchor="start" x="76.5" y="-261.2" font-family="Helvetica,sans-Serif" font-size="11.00"> &#160;</text>
<polygon fill="#ffffff" stroke="transparent" points="87.5,-255 87.5,-273 131.5,-273 131.5,-255 87.5,-255"/>
<polygon fill="none" stroke="black" points="87.5,-255 87.5,-273 131.5,-273 131.5,-255 87.5,-255"/>
<text text-anchor="start" x="108.5" y="-261.2" font-family="Helvetica,sans-Serif" font-size="11.00">1 &gt;</text>
</a>
</g>
</g>
<!-- object&#45;&gt;object_type -->
<g id="edge4" class="edge">
<title>object:w&#45;&gt;object_type:e</title>
<path fill="none" stroke="black" d="M167.01,-327.83C155.17,-319.59 151.91,-302 132.5,-302"/>
<polygon fill="black" stroke="black" points="173.33,-329.71 179.97,-335.45 177.17,-330.86 181,-332 181,-332 181,-332 177.17,-330.86 182.03,-328.55 173.33,-329.71 173.33,-329.71"/>
<ellipse fill="none" stroke="black" cx="170.27" cy="-328.8" rx="3.2" ry="3.2"/>
</g>
<!-- label -->
<g id="node3" class="node">
<title>label</title>
<g id="a_node3"><a xlink:href="../../tables/label.html" xlink:title="label" target="_top">
<polygon fill="#ffffff" stroke="transparent" points="542.5,-756 542.5,-902 656.5,-902 656.5,-756 542.5,-756"/>
<polygon fill="#f5f5f5" stroke="transparent" points="542.5,-880 542.5,-902 656.5,-902 656.5,-880 542.5,-880"/>
<polygon fill="none" stroke="black" points="542.5,-880 542.5,-902 656.5,-902 656.5,-880 542.5,-880"/>
<text text-anchor="start" x="547.5" y="-889.2" font-family="Helvetica,sans-Serif" font-weight="bold" font-size="11.00">label</text>
<text text-anchor="start" x="614.5" y="-888.2" font-family="Helvetica,sans-Serif" font-size="11.00">[table]</text>
<polygon fill="none" stroke="black" points="542.5,-858 542.5,-880 656.5,-880 656.5,-858 542.5,-858"/>
<image xlink:href="../../images/primaryKeys.png" width="11px" height="12px" preserveAspectRatio="xMinYMin meet" x="547.5" y="-875"/>
<text text-anchor="start" x="562.5" y="-866.2" font-family="Helvetica,sans-Serif" font-size="11.00">uuid</text>
<polygon fill="#ffffff" stroke="transparent" points="542.5,-836 542.5,-858 656.5,-858 656.5,-836 542.5,-836"/>
<polygon fill="none" stroke="black" points="542.5,-836 542.5,-858 656.5,-858 656.5,-836 542.5,-836"/>
<text text-anchor="start" x="562.5" y="-844.2" font-family="Helvetica,sans-Serif" font-size="11.00">geom</text>
<polygon fill="#ffffff" stroke="transparent" points="542.5,-814 542.5,-836 656.5,-836 656.5,-814 542.5,-814"/>
<polygon fill="none" stroke="black" points="542.5,-814 542.5,-836 656.5,-836 656.5,-814 542.5,-814"/>
<image xlink:href="../../images/foreignKeys.png" width="11px" height="12px" preserveAspectRatio="xMinYMin meet" x="547.5" y="-831"/>
<text text-anchor="start" x="562.5" y="-822.2" font-family="Helvetica,sans-Serif" font-size="11.00">object_uuid</text>
<polygon fill="none" stroke="black" points="542.5,-792 542.5,-814 656.5,-814 656.5,-792 542.5,-792"/>
<image xlink:href="../../images/foreignKeys.png" width="11px" height="12px" preserveAspectRatio="xMinYMin meet" x="547.5" y="-809"/>
<text text-anchor="start" x="562.5" y="-800.2" font-family="Helvetica,sans-Serif" font-size="11.00">annotatie_id</text>
<polygon fill="none" stroke="black" points="542.5,-774 542.5,-792 656.5,-792 656.5,-774 542.5,-774"/>
<text text-anchor="start" x="545.5" y="-780.2" font-family="Helvetica,sans-Serif" font-size="11.00">...</text>
<polygon fill="#ffffff" stroke="transparent" points="542.5,-756 542.5,-774 598.5,-774 598.5,-756 542.5,-756"/>
<polygon fill="none" stroke="black" points="542.5,-756 542.5,-774 598.5,-774 598.5,-756 542.5,-756"/>
<text text-anchor="start" x="545.5" y="-762.2" font-family="Helvetica,sans-Serif" font-size="11.00">&lt; 2</text>
<polygon fill="#ffffff" stroke="transparent" points="598.5,-756 598.5,-774 627.5,-774 627.5,-756 598.5,-756"/>
<polygon fill="none" stroke="black" points="598.5,-756 598.5,-774 627.5,-774 627.5,-756 598.5,-756"/>
<text text-anchor="start" x="616.5" y="-762.2" font-family="Helvetica,sans-Serif" font-size="11.00"> &#160;</text>
<polygon fill="#ffffff" stroke="transparent" points="627.5,-756 627.5,-774 656.5,-774 656.5,-756 627.5,-756"/>
<polygon fill="none" stroke="black" points="627.5,-756 627.5,-774 656.5,-774 656.5,-756 627.5,-756"/>
<text text-anchor="start" x="645.5" y="-762.2" font-family="Helvetica,sans-Serif" font-size="11.00"> &#160;</text>
</a>
</g>
</g>
<!-- label&#45;&gt;object -->
<g id="edge2" class="edge">
<title>label:w&#45;&gt;object:e</title>
<path fill="none" stroke="black" d="M527.98,-818.8C492.46,-780.14 529.19,-574 477,-574"/>
<polygon fill="black" stroke="black" points="534.23,-821.66 540,-828.27 537.86,-823.33 541.5,-825 541.5,-825 541.5,-825 537.86,-823.33 543,-821.73 534.23,-821.66 534.23,-821.66"/>
<ellipse fill="none" stroke="black" cx="531.32" cy="-820.33" rx="3.2" ry="3.2"/>
</g>
<!-- opstelplaats -->
<g id="node6" class="node">
<title>opstelplaats</title>
<g id="a_node6"><a xlink:href="../../tables/opstelplaats.html" xlink:title="opstelplaats" target="_top">
<polygon fill="#ffffff" stroke="transparent" points="535.5,-589 535.5,-735 663.5,-735 663.5,-589 535.5,-589"/>
<polygon fill="#f5f5f5" stroke="transparent" points="535.5,-713 535.5,-735 663.5,-735 663.5,-713 535.5,-713"/>
<polygon fill="none" stroke="black" points="535.5,-713 535.5,-735 663.5,-735 663.5,-713 535.5,-713"/>
<text text-anchor="start" x="540.5" y="-722.2" font-family="Helvetica,sans-Serif" font-weight="bold" font-size="11.00">opstelplaats</text>
<text text-anchor="start" x="621.5" y="-721.2" font-family="Helvetica,sans-Serif" font-size="11.00">[table]</text>
<polygon fill="none" stroke="black" points="535.5,-691 535.5,-713 663.5,-713 663.5,-691 535.5,-691"/>
<image xlink:href="../../images/primaryKeys.png" width="11px" height="12px" preserveAspectRatio="xMinYMin meet" x="540.5" y="-708"/>
<text text-anchor="start" x="562.5" y="-699.2" font-family="Helvetica,sans-Serif" font-size="11.00">uuid</text>
<polygon fill="#ffffff" stroke="transparent" points="535.5,-669 535.5,-691 663.5,-691 663.5,-669 535.5,-669"/>
<polygon fill="none" stroke="black" points="535.5,-669 535.5,-691 663.5,-691 663.5,-669 535.5,-669"/>
<text text-anchor="start" x="562.5" y="-677.2" font-family="Helvetica,sans-Serif" font-size="11.00">geom</text>
<polygon fill="#ffffff" stroke="transparent" points="535.5,-647 535.5,-669 663.5,-669 663.5,-647 535.5,-647"/>
<polygon fill="none" stroke="black" points="535.5,-647 535.5,-669 663.5,-669 663.5,-647 535.5,-647"/>
<image xlink:href="../../images/foreignKeys.png" width="11px" height="12px" preserveAspectRatio="xMinYMin meet" x="540.5" y="-664"/>
<text text-anchor="start" x="562.5" y="-655.2" font-family="Helvetica,sans-Serif" font-size="11.00">object_uuid</text>
<polygon fill="none" stroke="black" points="535.5,-625 535.5,-647 663.5,-647 663.5,-625 535.5,-625"/>
<image xlink:href="../../images/foreignKeys.png" width="11px" height="12px" preserveAspectRatio="xMinYMin meet" x="540.5" y="-642"/>
<text text-anchor="start" x="562.5" y="-633.2" font-family="Helvetica,sans-Serif" font-size="11.00">voertuig_id</text>
<polygon fill="none" stroke="black" points="535.5,-607 535.5,-625 663.5,-625 663.5,-607 535.5,-607"/>
<text text-anchor="start" x="538.5" y="-613.2" font-family="Helvetica,sans-Serif" font-size="11.00">...</text>
<polygon fill="#ffffff" stroke="transparent" points="535.5,-589 535.5,-607 598.5,-607 598.5,-589 535.5,-589"/>
<polygon fill="none" stroke="black" points="535.5,-589 535.5,-607 598.5,-607 598.5,-589 535.5,-589"/>
<text text-anchor="start" x="538.5" y="-595.2" font-family="Helvetica,sans-Serif" font-size="11.00">&lt; 2</text>
<polygon fill="#ffffff" stroke="transparent" points="598.5,-589 598.5,-607 630.5,-607 630.5,-589 598.5,-589"/>
<polygon fill="none" stroke="black" points="598.5,-589 598.5,-607 630.5,-607 630.5,-589 598.5,-589"/>
<text text-anchor="start" x="619.5" y="-595.2" font-family="Helvetica,sans-Serif" font-size="11.00"> &#160;</text>
<polygon fill="#ffffff" stroke="transparent" points="630.5,-589 630.5,-607 663.5,-607 663.5,-589 630.5,-589"/>
<polygon fill="none" stroke="black" points="630.5,-589 630.5,-607 663.5,-607 663.5,-589 630.5,-589"/>
<text text-anchor="start" x="652.5" y="-595.2" font-family="Helvetica,sans-Serif" font-size="11.00"> &#160;</text>
</a>
</g>
</g>
<!-- opstelplaats&#45;&gt;object -->
<g id="edge5" class="edge">
<title>opstelplaats:w&#45;&gt;object:e</title>
<path fill="none" stroke="black" d="M520.57,-654.17C496.46,-637.74 516.41,-574 477,-574"/>
<polygon fill="black" stroke="black" points="526.79,-655.88 533.55,-661.47 530.64,-656.94 534.5,-658 534.5,-658 534.5,-658 530.64,-656.94 535.45,-654.53 526.79,-655.88 526.79,-655.88"/>
<ellipse fill="none" stroke="black" cx="523.7" cy="-655.03" rx="3.2" ry="3.2"/>
</g>
<!-- risico -->
<g id="node7" class="node">
<title>risico</title>
<g id="a_node7"><a xlink:href="../../tables/risico.html" xlink:title="risico" target="_top">
<polygon fill="#ffffff" stroke="transparent" points="542.5,-444 542.5,-568 656.5,-568 656.5,-444 542.5,-444"/>
<polygon fill="#f5f5f5" stroke="transparent" points="542.5,-546 542.5,-568 656.5,-568 656.5,-546 542.5,-546"/>
<polygon fill="none" stroke="black" points="542.5,-546 542.5,-568 656.5,-568 656.5,-546 542.5,-546"/>
<text text-anchor="start" x="547.5" y="-555.2" font-family="Helvetica,sans-Serif" font-weight="bold" font-size="11.00">risico</text>
<text text-anchor="start" x="614.5" y="-554.2" font-family="Helvetica,sans-Serif" font-size="11.00">[table]</text>
<polygon fill="none" stroke="black" points="542.5,-524 542.5,-546 656.5,-546 656.5,-524 542.5,-524"/>
<image xlink:href="../../images/primaryKeys.png" width="11px" height="12px" preserveAspectRatio="xMinYMin meet" x="547.5" y="-541"/>
<text text-anchor="start" x="562.5" y="-532.2" font-family="Helvetica,sans-Serif" font-size="11.00">uuid</text>
<polygon fill="#ffffff" stroke="transparent" points="542.5,-502 542.5,-524 656.5,-524 656.5,-502 542.5,-502"/>
<polygon fill="none" stroke="black" points="542.5,-502 542.5,-524 656.5,-524 656.5,-502 542.5,-502"/>
<text text-anchor="start" x="562.5" y="-510.2" font-family="Helvetica,sans-Serif" font-size="11.00">geom</text>
<polygon fill="#ffffff" stroke="transparent" points="542.5,-480 542.5,-502 656.5,-502 656.5,-480 542.5,-480"/>
<polygon fill="none" stroke="black" points="542.5,-480 542.5,-502 656.5,-502 656.5,-480 542.5,-480"/>
<image xlink:href="../../images/foreignKeys.png" width="11px" height="12px" preserveAspectRatio="xMinYMin meet" x="547.5" y="-497"/>
<text text-anchor="start" x="562.5" y="-488.2" font-family="Helvetica,sans-Serif" font-size="11.00">object_uuid</text>
<polygon fill="none" stroke="black" points="542.5,-462 542.5,-480 656.5,-480 656.5,-462 542.5,-462"/>
<text text-anchor="start" x="545.5" y="-468.2" font-family="Helvetica,sans-Serif" font-size="11.00">...</text>
<polygon fill="#ffffff" stroke="transparent" points="542.5,-444 542.5,-462 598.5,-462 598.5,-444 542.5,-444"/>
<polygon fill="none" stroke="black" points="542.5,-444 542.5,-462 598.5,-462 598.5,-444 542.5,-444"/>
<text text-anchor="start" x="545.5" y="-450.2" font-family="Helvetica,sans-Serif" font-size="11.00">&lt; 1</text>
<polygon fill="#ffffff" stroke="transparent" points="598.5,-444 598.5,-462 627.5,-462 627.5,-444 598.5,-444"/>
<polygon fill="none" stroke="black" points="598.5,-444 598.5,-462 627.5,-462 627.5,-444 598.5,-444"/>
<text text-anchor="start" x="616.5" y="-450.2" font-family="Helvetica,sans-Serif" font-size="11.00"> &#160;</text>
<polygon fill="#ffffff" stroke="transparent" points="627.5,-444 627.5,-462 656.5,-462 656.5,-444 627.5,-444"/>
<polygon fill="none" stroke="black" points="627.5,-444 627.5,-462 656.5,-462 656.5,-444 627.5,-444"/>
<text text-anchor="start" x="645.5" y="-450.2" font-family="Helvetica,sans-Serif" font-size="11.00"> &#160;</text>
</a>
</g>
</g>
<!-- risico&#45;&gt;object -->
<g id="edge6" class="edge">
<title>risico:w&#45;&gt;object:e</title>
<path fill="none" stroke="black" d="M527.23,-494.57C500.83,-510.45 517.88,-574 477,-574"/>
<polygon fill="black" stroke="black" points="533.74,-492.94 542.37,-494.49 537.62,-491.97 541.5,-491 541.5,-491 541.5,-491 537.62,-491.97 540.63,-487.51 533.74,-492.94 533.74,-492.94"/>
<ellipse fill="none" stroke="black" cx="530.63" cy="-493.72" rx="3.2" ry="3.2"/>
</g>
<!-- sector -->
<g id="node8" class="node">
<title>sector</title>
<g id="a_node8"><a xlink:href="../../tables/sector.html" xlink:title="sector" target="_top">
<polygon fill="#ffffff" stroke="transparent" points="542.5,-277 542.5,-423 656.5,-423 656.5,-277 542.5,-277"/>
<polygon fill="#f5f5f5" stroke="transparent" points="542.5,-401 542.5,-423 656.5,-423 656.5,-401 542.5,-401"/>
<polygon fill="none" stroke="black" points="542.5,-401 542.5,-423 656.5,-423 656.5,-401 542.5,-401"/>
<text text-anchor="start" x="547.5" y="-410.2" font-family="Helvetica,sans-Serif" font-weight="bold" font-size="11.00">sector</text>
<text text-anchor="start" x="614.5" y="-409.2" font-family="Helvetica,sans-Serif" font-size="11.00">[table]</text>
<polygon fill="none" stroke="black" points="542.5,-379 542.5,-401 656.5,-401 656.5,-379 542.5,-379"/>
<image xlink:href="../../images/primaryKeys.png" width="11px" height="12px" preserveAspectRatio="xMinYMin meet" x="547.5" y="-396"/>
<text text-anchor="start" x="562.5" y="-387.2" font-family="Helvetica,sans-Serif" font-size="11.00">uuid</text>
<polygon fill="#ffffff" stroke="transparent" points="542.5,-357 542.5,-379 656.5,-379 656.5,-357 542.5,-357"/>
<polygon fill="none" stroke="black" points="542.5,-357 542.5,-379 656.5,-379 656.5,-357 542.5,-357"/>
<text text-anchor="start" x="562.5" y="-365.2" font-family="Helvetica,sans-Serif" font-size="11.00">geom</text>
<polygon fill="#ffffff" stroke="transparent" points="542.5,-335 542.5,-357 656.5,-357 656.5,-335 542.5,-335"/>
<polygon fill="none" stroke="black" points="542.5,-335 542.5,-357 656.5,-357 656.5,-335 542.5,-335"/>
<image xlink:href="../../images/foreignKeys.png" width="11px" height="12px" preserveAspectRatio="xMinYMin meet" x="547.5" y="-352"/>
<text text-anchor="start" x="562.5" y="-343.2" font-family="Helvetica,sans-Serif" font-size="11.00">object_uuid</text>
<polygon fill="none" stroke="black" points="542.5,-313 542.5,-335 656.5,-335 656.5,-313 542.5,-313"/>
<image xlink:href="../../images/foreignKeys.png" width="11px" height="12px" preserveAspectRatio="xMinYMin meet" x="547.5" y="-330"/>
<text text-anchor="start" x="562.5" y="-321.2" font-family="Helvetica,sans-Serif" font-size="11.00">zone_id</text>
<polygon fill="none" stroke="black" points="542.5,-295 542.5,-313 656.5,-313 656.5,-295 542.5,-295"/>
<text text-anchor="start" x="545.5" y="-301.2" font-family="Helvetica,sans-Serif" font-size="11.00">...</text>
<polygon fill="#ffffff" stroke="transparent" points="542.5,-277 542.5,-295 598.5,-295 598.5,-277 542.5,-277"/>
<polygon fill="none" stroke="black" points="542.5,-277 542.5,-295 598.5,-295 598.5,-277 542.5,-277"/>
<text text-anchor="start" x="545.5" y="-283.2" font-family="Helvetica,sans-Serif" font-size="11.00">&lt; 2</text>
<polygon fill="#ffffff" stroke="transparent" points="598.5,-277 598.5,-295 627.5,-295 627.5,-277 598.5,-277"/>
<polygon fill="none" stroke="black" points="598.5,-277 598.5,-295 627.5,-295 627.5,-277 598.5,-277"/>
<text text-anchor="start" x="616.5" y="-283.2" font-family="Helvetica,sans-Serif" font-size="11.00"> &#160;</text>
<polygon fill="#ffffff" stroke="transparent" points="627.5,-277 627.5,-295 656.5,-295 656.5,-277 627.5,-277"/>
<polygon fill="none" stroke="black" points="627.5,-277 627.5,-295 656.5,-295 656.5,-277 627.5,-277"/>
<text text-anchor="start" x="645.5" y="-283.2" font-family="Helvetica,sans-Serif" font-size="11.00"> &#160;</text>
</a>
</g>
</g>
<!-- sector&#45;&gt;object -->
<g id="edge7" class="edge">
<title>sector:w&#45;&gt;object:e</title>
<path fill="none" stroke="black" d="M526.86,-347.84C450.9,-369.41 576.76,-574 477,-574"/>
<polygon fill="black" stroke="black" points="533.56,-347 541.95,-349.57 537.53,-346.5 541.5,-346 541.5,-346 541.5,-346 537.53,-346.5 541.05,-342.43 533.56,-347 533.56,-347"/>
<ellipse fill="none" stroke="black" cx="530.39" cy="-347.39" rx="3.2" ry="3.2"/>
</g>
<!-- voorziening -->
<g id="node9" class="node">
<title>voorziening</title>
<g id="a_node9"><a xlink:href="../../tables/voorziening.html" xlink:title="voorziening" target="_top">
<polygon fill="#ffffff" stroke="transparent" points="537.5,-110 537.5,-256 661.5,-256 661.5,-110 537.5,-110"/>
<polygon fill="#f5f5f5" stroke="transparent" points="537.5,-234 537.5,-256 661.5,-256 661.5,-234 537.5,-234"/>
<polygon fill="none" stroke="black" points="537.5,-234 537.5,-256 661.5,-256 661.5,-234 537.5,-234"/>
<text text-anchor="start" x="542.5" y="-243.2" font-family="Helvetica,sans-Serif" font-weight="bold" font-size="11.00">voorziening</text>
<text text-anchor="start" x="619.5" y="-242.2" font-family="Helvetica,sans-Serif" font-size="11.00">[table]</text>
<polygon fill="none" stroke="black" points="537.5,-212 537.5,-234 661.5,-234 661.5,-212 537.5,-212"/>
<image xlink:href="../../images/primaryKeys.png" width="11px" height="12px" preserveAspectRatio="xMinYMin meet" x="542.5" y="-229"/>
<text text-anchor="start" x="562.5" y="-220.2" font-family="Helvetica,sans-Serif" font-size="11.00">uuid</text>
<polygon fill="#ffffff" stroke="transparent" points="537.5,-190 537.5,-212 661.5,-212 661.5,-190 537.5,-190"/>
<polygon fill="none" stroke="black" points="537.5,-190 537.5,-212 661.5,-212 661.5,-190 537.5,-190"/>
<text text-anchor="start" x="562.5" y="-198.2" font-family="Helvetica,sans-Serif" font-size="11.00">geom</text>
<polygon fill="#ffffff" stroke="transparent" points="537.5,-168 537.5,-190 661.5,-190 661.5,-168 537.5,-168"/>
<polygon fill="none" stroke="black" points="537.5,-168 537.5,-190 661.5,-190 661.5,-168 537.5,-168"/>
<image xlink:href="../../images/foreignKeys.png" width="11px" height="12px" preserveAspectRatio="xMinYMin meet" x="542.5" y="-185"/>
<text text-anchor="start" x="562.5" y="-176.2" font-family="Helvetica,sans-Serif" font-size="11.00">object_uuid</text>
<polygon fill="none" stroke="black" points="537.5,-146 537.5,-168 661.5,-168 661.5,-146 537.5,-146"/>
<image xlink:href="../../images/foreignKeys.png" width="11px" height="12px" preserveAspectRatio="xMinYMin meet" x="542.5" y="-163"/>
<text text-anchor="start" x="562.5" y="-154.2" font-family="Helvetica,sans-Serif" font-size="11.00">symbool_id</text>
<polygon fill="none" stroke="black" points="537.5,-128 537.5,-146 661.5,-146 661.5,-128 537.5,-128"/>
<text text-anchor="start" x="540.5" y="-134.2" font-family="Helvetica,sans-Serif" font-size="11.00">...</text>
<polygon fill="#ffffff" stroke="transparent" points="537.5,-110 537.5,-128 598.5,-128 598.5,-110 537.5,-110"/>
<polygon fill="none" stroke="black" points="537.5,-110 537.5,-128 598.5,-128 598.5,-110 537.5,-110"/>
<text text-anchor="start" x="540.5" y="-116.2" font-family="Helvetica,sans-Serif" font-size="11.00">&lt; 2</text>
<polygon fill="#ffffff" stroke="transparent" points="598.5,-110 598.5,-128 629.5,-128 629.5,-110 598.5,-110"/>
<polygon fill="none" stroke="black" points="598.5,-110 598.5,-128 629.5,-128 629.5,-110 598.5,-110"/>
<text text-anchor="start" x="618.5" y="-116.2" font-family="Helvetica,sans-Serif" font-size="11.00"> &#160;</text>
<polygon fill="#ffffff" stroke="transparent" points="629.5,-110 629.5,-128 661.5,-128 661.5,-110 629.5,-110"/>
<polygon fill="none" stroke="black" points="629.5,-110 629.5,-128 661.5,-128 661.5,-110 629.5,-110"/>
<text text-anchor="start" x="650.5" y="-116.2" font-family="Helvetica,sans-Serif" font-size="11.00"> &#160;</text>
</a>
</g>
</g>
<!-- voorziening&#45;&gt;object -->
<g id="edge8" class="edge">
<title>voorziening:w&#45;&gt;object:e</title>
<path fill="none" stroke="black" d="M522.56,-183.17C461.27,-225.38 560.39,-574 477,-574"/>
<polygon fill="black" stroke="black" points="528.84,-181.29 537.53,-182.45 532.67,-180.15 536.5,-179 536.5,-179 536.5,-179 532.67,-180.15 535.47,-175.55 528.84,-181.29 528.84,-181.29"/>
<ellipse fill="none" stroke="black" cx="525.77" cy="-182.21" rx="3.2" ry="3.2"/>
</g>
</g>
</svg>
