<?xml version="1.0" encoding="UTF-8" standalone="no"?>
<!DOCTYPE svg PUBLIC "-//W3C//DTD SVG 1.1//EN"
 "http://www.w3.org/Graphics/SVG/1.1/DTD/svg11.dtd">
<!-- Generated by graphviz version 2.40.1 (20161225.0304)
 -->
<!-- Title: twoDegreesRelationshipsDiagram Pages: 1 -->
<svg width="559pt" height="521pt"
 viewBox="0.00 0.00 559.00 521.20" xmlns="http://www.w3.org/2000/svg" xmlns:xlink="http://www.w3.org/1999/xlink">
<g id="graph0" class="graph" transform="scale(1 1) rotate(0) translate(4 517.2)">
<title>twoDegreesRelationshipsDiagram</title>
<polygon fill="#ffffff" stroke="transparent" points="-4,4 -4,-517.2 555,-517.2 555,4 -4,4"/>
<text text-anchor="middle" x="72.4936" y="-7.3" font-family="Helvetica,sans-Serif" font-size="11.00" fill="#000000">Generated by SchemaSpy</text>
<!-- bereikbaarheid -->
<g id="node1" class="node">
<title>bereikbaarheid</title>
<g id="a_node1"><a xlink:href="../../tables/bereikbaarheid.html" xlink:title="bereikbaarheid" target="_top">
<polygon fill="#ffffff" stroke="transparent" points="419,-448.2 419,-509.2 543,-509.2 543,-448.2 419,-448.2"/>
<polygon fill="#f5f5f5" stroke="transparent" points="419,-485.7 419,-508.7 543,-508.7 543,-485.7 419,-485.7"/>
<polygon fill="none" stroke="#000000" points="419,-485.7 419,-508.7 543,-508.7 543,-485.7 419,-485.7"/>
<text text-anchor="start" x="424" y="-494.3" font-family="Helvetica,sans-Serif" font-weight="bold" font-size="11.00" fill="#000000">bereikbaarheid</text>
<text text-anchor="start" x="508.5219" y="-493.8" font-family="Helvetica,sans-Serif" font-size="11.00" fill="#000000">[table]</text>
<polygon fill="none" stroke="#000000" points="419,-466.7 419,-485.7 543,-485.7 543,-466.7 419,-466.7"/>
<text text-anchor="start" x="422" y="-472.8" font-family="Helvetica,sans-Serif" font-size="11.00" fill="#000000">...</text>
<polygon fill="#ffffff" stroke="transparent" points="419,-447.7 419,-466.7 479,-466.7 479,-447.7 419,-447.7"/>
<polygon fill="none" stroke="#000000" points="419,-447.7 419,-466.7 479,-466.7 479,-447.7 419,-447.7"/>
<text text-anchor="start" x="422" y="-453.8" font-family="Helvetica,sans-Serif" font-size="11.00" fill="#000000">&lt; 2</text>
<polygon fill="#ffffff" stroke="transparent" points="479,-447.7 479,-466.7 511,-466.7 511,-447.7 479,-447.7"/>
<polygon fill="none" stroke="#000000" points="479,-447.7 479,-466.7 511,-466.7 511,-447.7 479,-447.7"/>
<text text-anchor="start" x="501.8862" y="-453.8" font-family="Helvetica,sans-Serif" font-size="11.00" fill="#000000"> &#160;</text>
<polygon fill="#ffffff" stroke="transparent" points="511,-447.7 511,-466.7 543,-466.7 543,-447.7 511,-447.7"/>
<polygon fill="none" stroke="#000000" points="511,-447.7 511,-466.7 543,-466.7 543,-447.7 511,-447.7"/>
<text text-anchor="start" x="533.8862" y="-453.8" font-family="Helvetica,sans-Serif" font-size="11.00" fill="#000000"> &#160;</text>
</a>
</g>
</g>
<!-- object -->
<g id="node2" class="node">
<title>object</title>
<g id="a_node2"><a xlink:href="../../tables/object.html" xlink:title="object" target="_top">
<polygon fill="#ffffff" stroke="transparent" points="246,-112.2 246,-305.2 370,-305.2 370,-112.2 246,-112.2"/>
<polygon fill="#f5f5f5" stroke="transparent" points="246,-281.7 246,-304.7 370,-304.7 370,-281.7 246,-281.7"/>
<polygon fill="none" stroke="#000000" points="246,-281.7 246,-304.7 370,-304.7 370,-281.7 246,-281.7"/>
<text text-anchor="start" x="251" y="-290.3" font-family="Helvetica,sans-Serif" font-weight="bold" font-size="11.00" fill="#000000">object</text>
<text text-anchor="start" x="335.0437" y="-289.8" font-family="Helvetica,sans-Serif" font-size="11.00" fill="#000000">[table]</text>
<polygon fill="none" stroke="#000000" points="246,-259.7 246,-281.7 370,-281.7 370,-259.7 246,-259.7"/>
<image xlink:href="../../images/primaryKeys.png" width="11px" height="12px" preserveAspectRatio="xMinYMin meet" x="251" y="-276.7"/>
<text text-anchor="start" x="266" y="-266.8" font-family="Helvetica,sans-Serif" font-size="11.00" fill="#000000">uuid</text>
<polygon fill="#ffffff" stroke="transparent" points="246,-237.7 246,-259.7 370,-259.7 370,-237.7 246,-237.7"/>
<polygon fill="none" stroke="#000000" points="246,-237.7 246,-259.7 370,-259.7 370,-237.7 246,-237.7"/>
<text text-anchor="start" x="266" y="-244.8" font-family="Helvetica,sans-Serif" font-size="11.00" fill="#000000">geom</text>
<polygon fill="#ffffff" stroke="transparent" points="246,-215.7 246,-237.7 370,-237.7 370,-215.7 246,-215.7"/>
<polygon fill="none" stroke="#000000" points="246,-215.7 246,-237.7 370,-237.7 370,-215.7 246,-215.7"/>
<text text-anchor="start" x="266" y="-222.8" font-family="Helvetica,sans-Serif" font-size="11.00" fill="#000000">revisie_frequentie</text>
<polygon fill="#ffffff" stroke="transparent" points="246,-193.7 246,-215.7 370,-215.7 370,-193.7 246,-193.7"/>
<polygon fill="none" stroke="#000000" points="246,-193.7 246,-215.7 370,-215.7 370,-193.7 246,-193.7"/>
<image xlink:href="../../images/foreignKeys.png" width="11px" height="12px" preserveAspectRatio="xMinYMin meet" x="251" y="-210.7"/>
<text text-anchor="start" x="266" y="-200.8" font-family="Helvetica,sans-Serif" font-size="11.00" fill="#000000">fase_id</text>
<polygon fill="#ffffff" stroke="transparent" points="246,-171.7 246,-193.7 370,-193.7 370,-171.7 246,-171.7"/>
<polygon fill="none" stroke="#000000" points="246,-171.7 246,-193.7 370,-193.7 370,-171.7 246,-171.7"/>
<image xlink:href="../../images/foreignKeys.png" width="11px" height="12px" preserveAspectRatio="xMinYMin meet" x="251" y="-188.7"/>
<text text-anchor="start" x="266" y="-178.8" font-family="Helvetica,sans-Serif" font-size="11.00" fill="#000000">object_type_id</text>
<polygon fill="#ffffff" stroke="transparent" points="246,-149.7 246,-171.7 370,-171.7 370,-149.7 246,-149.7"/>
<polygon fill="none" stroke="#000000" points="246,-149.7 246,-171.7 370,-171.7 370,-149.7 246,-149.7"/>
<text text-anchor="start" x="266" y="-156.8" font-family="Helvetica,sans-Serif" font-size="11.00" fill="#000000">periode</text>
<polygon fill="none" stroke="#000000" points="246,-130.7 246,-149.7 370,-149.7 370,-130.7 246,-130.7"/>
<text text-anchor="start" x="249" y="-136.8" font-family="Helvetica,sans-Serif" font-size="11.00" fill="#000000">...</text>
<polygon fill="#ffffff" stroke="transparent" points="246,-111.7 246,-130.7 302,-130.7 302,-111.7 246,-111.7"/>
<polygon fill="none" stroke="#000000" points="246,-111.7 246,-130.7 302,-130.7 302,-111.7 246,-111.7"/>
<text text-anchor="start" x="249" y="-117.8" font-family="Helvetica,sans-Serif" font-size="11.00" fill="#000000">&lt; 2</text>
<polygon fill="#ffffff" stroke="transparent" points="302,-111.7 302,-130.7 331,-130.7 331,-111.7 302,-111.7"/>
<polygon fill="none" stroke="#000000" points="302,-111.7 302,-130.7 331,-130.7 331,-111.7 302,-111.7"/>
<text text-anchor="start" x="321.8862" y="-117.8" font-family="Helvetica,sans-Serif" font-size="11.00" fill="#000000"> &#160;</text>
<polygon fill="#ffffff" stroke="transparent" points="331,-111.7 331,-130.7 370,-130.7 370,-111.7 331,-111.7"/>
<polygon fill="none" stroke="#000000" points="331,-111.7 331,-130.7 370,-130.7 370,-111.7 331,-111.7"/>
<text text-anchor="start" x="351.4053" y="-117.8" font-family="Helvetica,sans-Serif" font-size="11.00" fill="#000000">6 &gt;</text>
</a>
</g>
</g>
<!-- bereikbaarheid&#45;&gt;object -->
<g id="edge1" class="edge">
<title>bereikbaarheid:w&#45;&gt;object:e</title>
<path fill="none" stroke="#000000" d="M404.4332,-473.5365C341.2257,-451.6273 458.0058,-270.7 370,-270.7"/>
<polygon fill="#000000" stroke="#000000" points="411.0868,-474.5246 418.4711,-479.2609 415.0434,-475.1123 419,-475.7 419,-475.7 419,-475.7 415.0434,-475.1123 419.5289,-472.1391 411.0868,-474.5246 411.0868,-474.5246"/>
<ellipse fill="none" stroke="#000000" cx="407.9215" cy="-474.0545" rx="3.2" ry="3.2"/>
</g>
<!-- roi.fase -->
<g id="node4" class="node">
<title>roi.fase</title>
<g id="a_node4"><a xlink:href="../../../roi/tables/fase.html" xlink:title="roi.fase" target="_top">
<polygon fill="#ffffff" stroke="transparent" points="62,-209.2 62,-270.2 143,-270.2 143,-209.2 62,-209.2"/>
<polygon fill="#f5f5f5" stroke="transparent" points="62.5,-246.7 62.5,-269.7 143.5,-269.7 143.5,-246.7 62.5,-246.7"/>
<polygon fill="none" stroke="#000000" points="62.5,-246.7 62.5,-269.7 143.5,-269.7 143.5,-246.7 62.5,-246.7"/>
<text text-anchor="start" x="67.5" y="-255.3" font-family="Helvetica,sans-Serif" font-weight="bold" font-size="11.00" fill="#000000">roi.fase</text>
<text text-anchor="start" x="109.0219" y="-254.8" font-family="Helvetica,sans-Serif" font-size="11.00" fill="#000000">[table]</text>
<polygon fill="none" stroke="#000000" points="62.5,-227.7 62.5,-246.7 143.5,-246.7 143.5,-227.7 62.5,-227.7"/>
<text text-anchor="start" x="65.5" y="-233.8" font-family="Helvetica,sans-Serif" font-size="11.00" fill="#000000">...</text>
<polygon fill="#ffffff" stroke="transparent" points="62.5,-208.7 62.5,-227.7 92.5,-227.7 92.5,-208.7 62.5,-208.7"/>
<polygon fill="none" stroke="#000000" points="62.5,-208.7 62.5,-227.7 92.5,-227.7 92.5,-208.7 62.5,-208.7"/>
<text text-anchor="start" x="65.5" y="-214.8" font-family="Helvetica,sans-Serif" font-size="11.00" fill="#000000"> &#160;</text>
<polygon fill="#ffffff" stroke="transparent" points="92.5,-208.7 92.5,-227.7 113.5,-227.7 113.5,-208.7 92.5,-208.7"/>
<polygon fill="none" stroke="#000000" points="92.5,-208.7 92.5,-227.7 113.5,-227.7 113.5,-208.7 92.5,-208.7"/>
<text text-anchor="start" x="104.3862" y="-214.8" font-family="Helvetica,sans-Serif" font-size="11.00" fill="#000000"> &#160;</text>
<polygon fill="#ffffff" stroke="transparent" points="113.5,-208.7 113.5,-227.7 143.5,-227.7 143.5,-208.7 113.5,-208.7"/>
<polygon fill="none" stroke="#000000" points="113.5,-208.7 113.5,-227.7 143.5,-227.7 143.5,-208.7 113.5,-208.7"/>
<text text-anchor="start" x="124.9053" y="-214.8" font-family="Helvetica,sans-Serif" font-size="11.00" fill="#000000">1 &gt;</text>
</a>
</g>
</g>
<!-- object&#45;&gt;roi.fase -->
<g id="edge3" class="edge">
<title>object:w&#45;&gt;roi.fase:e</title>
<path fill="none" stroke="#000000" d="M231.2288,-205.8389C196.1564,-211.5394 185.8178,-236.7 143.5,-236.7"/>
<polygon fill="#000000" stroke="#000000" points="238.0237,-205.315 246.2768,-208.2893 242.0118,-205.0075 246,-204.7 246,-204.7 246,-204.7 242.0118,-205.0075 245.7232,-201.1107 238.0237,-205.315 238.0237,-205.315"/>
<ellipse fill="none" stroke="#000000" cx="234.8331" cy="-205.5611" rx="3.2" ry="3.2"/>
</g>
<!-- object_type -->
<g id="node5" class="node">
<title>object_type</title>
<g id="a_node5"><a xlink:href="../../tables/object_type.html" xlink:title="object_type" target="_top">
<polygon fill="#ffffff" stroke="transparent" points="8,-75.7 8,-187.7 197,-187.7 197,-75.7 8,-75.7"/>
<polygon fill="#f5f5f5" stroke="transparent" points="10.5,-162.7 10.5,-185.7 195.5,-185.7 195.5,-162.7 10.5,-162.7"/>
<polygon fill="none" stroke="#000000" points="10.5,-162.7 10.5,-185.7 195.5,-185.7 195.5,-162.7 10.5,-162.7"/>
<text text-anchor="start" x="15.5" y="-171.3" font-family="Helvetica,sans-Serif" font-weight="bold" font-size="11.00" fill="#000000">object_type</text>
<text text-anchor="start" x="160.5437" y="-170.8" font-family="Helvetica,sans-Serif" font-size="11.00" fill="#000000">[table]</text>
<polygon fill="none" stroke="#000000" points="10.5,-140.7 10.5,-162.7 105.5,-162.7 105.5,-140.7 10.5,-140.7"/>
<image xlink:href="../../images/primaryKeys.png" width="11px" height="12px" preserveAspectRatio="xMinYMin meet" x="15.5" y="-157.7"/>
<text text-anchor="start" x="30.5" y="-147.8" font-family="Helvetica,sans-Serif" font-size="11.00" fill="#000000">id</text>
<polygon fill="none" stroke="#000000" points="105.5,-140.7 105.5,-162.7 195.5,-162.7 195.5,-140.7 105.5,-140.7"/>
<text text-anchor="start" x="108.5" y="-148.4" font-family="Helvetica,sans-Serif" font-size="11.00" fill="#000000">int2[5]</text>
<polygon fill="none" stroke="#000000" points="10.5,-118.7 10.5,-140.7 105.5,-140.7 105.5,-118.7 10.5,-118.7"/>
<text text-anchor="start" x="30.5" y="-125.8" font-family="Helvetica,sans-Serif" font-size="11.00" fill="#000000">naam</text>
<polygon fill="none" stroke="#000000" points="105.5,-118.7 105.5,-140.7 195.5,-140.7 195.5,-118.7 105.5,-118.7"/>
<text text-anchor="start" x="108.0042" y="-126.4" font-family="Helvetica,sans-Serif" font-size="11.00" fill="#000000">text[2147483647]</text>
<polygon fill="none" stroke="#000000" points="10.5,-96.7 10.5,-118.7 105.5,-118.7 105.5,-96.7 10.5,-96.7"/>
<text text-anchor="start" x="30.5" y="-103.8" font-family="Helvetica,sans-Serif" font-size="11.00" fill="#000000">omschrijving</text>
<polygon fill="none" stroke="#000000" points="105.5,-96.7 105.5,-118.7 195.5,-118.7 195.5,-96.7 105.5,-96.7"/>
<text text-anchor="start" x="108.0042" y="-104.4" font-family="Helvetica,sans-Serif" font-size="11.00" fill="#000000">text[2147483647]</text>
<polygon fill="#ffffff" stroke="transparent" points="10.5,-77.7 10.5,-96.7 62.5,-96.7 62.5,-77.7 10.5,-77.7"/>
<polygon fill="none" stroke="#000000" points="10.5,-77.7 10.5,-96.7 62.5,-96.7 62.5,-77.7 10.5,-77.7"/>
<text text-anchor="start" x="13.5" y="-83.8" font-family="Helvetica,sans-Serif" font-size="11.00" fill="#000000">&lt; 0</text>
<polygon fill="#ffffff" stroke="transparent" points="62.5,-77.7 62.5,-96.7 105.5,-96.7 105.5,-77.7 62.5,-77.7"/>
<polygon fill="none" stroke="#000000" points="62.5,-77.7 62.5,-96.7 105.5,-96.7 105.5,-77.7 62.5,-77.7"/>
<text text-anchor="start" x="96.3862" y="-83.8" font-family="Helvetica,sans-Serif" font-size="11.00" fill="#000000"> &#160;</text>
<polygon fill="#ffffff" stroke="transparent" points="105.5,-77.7 105.5,-96.7 195.5,-96.7 195.5,-77.7 105.5,-77.7"/>
<polygon fill="none" stroke="#000000" points="105.5,-77.7 105.5,-96.7 195.5,-96.7 195.5,-77.7 105.5,-77.7"/>
<text text-anchor="start" x="176.9053" y="-83.8" font-family="Helvetica,sans-Serif" font-size="11.00" fill="#000000">1 &gt;</text>
<polygon fill="none" stroke="#000000" stroke-width="2" points="9,-76.7 9,-186.7 196,-186.7 196,-76.7 9,-76.7"/>
</a>
</g>
</g>
<!-- object&#45;&gt;object_type -->
<g id="edge4" class="edge">
<title>object:w&#45;&gt;object_type:e</title>
<path fill="none" stroke="#000000" d="M231.8267,-178.6473C219.1849,-170.2444 215.8692,-151.7 195.5,-151.7"/>
<polygon fill="#000000" stroke="#000000" points="238.3083,-180.5006 245.0103,-186.1613 242.1541,-181.6003 246,-182.7 246,-182.7 246,-182.7 242.1541,-181.6003 246.9897,-179.2387 238.3083,-180.5006 238.3083,-180.5006"/>
<ellipse fill="none" stroke="#000000" cx="235.2316" cy="-179.6208" rx="3.2" ry="3.2"/>
</g>
<!-- label -->
<g id="node3" class="node">
<title>label</title>
<g id="a_node3"><a xlink:href="../../tables/label.html" xlink:title="label" target="_top">
<polygon fill="#ffffff" stroke="transparent" points="448,-366.2 448,-427.2 514,-427.2 514,-366.2 448,-366.2"/>
<polygon fill="#f5f5f5" stroke="transparent" points="448,-403.7 448,-426.7 514,-426.7 514,-403.7 448,-403.7"/>
<polygon fill="none" stroke="#000000" points="448,-403.7 448,-426.7 514,-426.7 514,-403.7 448,-403.7"/>
<text text-anchor="start" x="452.8868" y="-412.3" font-family="Helvetica,sans-Serif" font-weight="bold" font-size="11.00" fill="#000000">label</text>
<text text-anchor="start" x="479.5219" y="-411.8" font-family="Helvetica,sans-Serif" font-size="11.00" fill="#000000">[table]</text>
<polygon fill="none" stroke="#000000" points="448,-384.7 448,-403.7 514,-403.7 514,-384.7 448,-384.7"/>
<text text-anchor="start" x="451" y="-390.8" font-family="Helvetica,sans-Serif" font-size="11.00" fill="#000000">...</text>
<polygon fill="#ffffff" stroke="transparent" points="448,-365.7 448,-384.7 479,-384.7 479,-365.7 448,-365.7"/>
<polygon fill="none" stroke="#000000" points="448,-365.7 448,-384.7 479,-384.7 479,-365.7 448,-365.7"/>
<text text-anchor="start" x="451" y="-371.8" font-family="Helvetica,sans-Serif" font-size="11.00" fill="#000000">&lt; 2</text>
<polygon fill="#ffffff" stroke="transparent" points="479,-365.7 479,-384.7 496,-384.7 496,-365.7 479,-365.7"/>
<polygon fill="none" stroke="#000000" points="479,-365.7 479,-384.7 496,-384.7 496,-365.7 479,-365.7"/>
<text text-anchor="start" x="486.8862" y="-371.8" font-family="Helvetica,sans-Serif" font-size="11.00" fill="#000000"> &#160;</text>
<polygon fill="#ffffff" stroke="transparent" points="496,-365.7 496,-384.7 514,-384.7 514,-365.7 496,-365.7"/>
<polygon fill="none" stroke="#000000" points="496,-365.7 496,-384.7 514,-384.7 514,-365.7 496,-365.7"/>
<text text-anchor="start" x="504.8862" y="-371.8" font-family="Helvetica,sans-Serif" font-size="11.00" fill="#000000"> &#160;</text>
</a>
</g>
</g>
<!-- label&#45;&gt;object -->
<g id="edge2" class="edge">
<title>label:w&#45;&gt;object:e</title>
<path fill="none" stroke="#000000" d="M433.848,-390.283C423.5698,-384.0221 421.0331,-370.0323 411,-355.7 386.9465,-321.3395 411.9429,-270.7 370,-270.7"/>
<polygon fill="#000000" stroke="#000000" points="440.2235,-391.8223 447.155,-397.1994 444.1117,-392.7611 448,-393.7 448,-393.7 448,-393.7 444.1117,-392.7611 448.845,-390.2006 440.2235,-391.8223 440.2235,-391.8223"/>
<ellipse fill="none" stroke="#000000" cx="437.1129" cy="-391.0712" rx="3.2" ry="3.2"/>
</g>
<!-- opstelplaats -->
<g id="node6" class="node">
<title>opstelplaats</title>
<g id="a_node6"><a xlink:href="../../tables/opstelplaats.html" xlink:title="opstelplaats" target="_top">
<polygon fill="#ffffff" stroke="transparent" points="426.5,-284.2 426.5,-345.2 535.5,-345.2 535.5,-284.2 426.5,-284.2"/>
<polygon fill="#f5f5f5" stroke="transparent" points="427,-321.7 427,-344.7 536,-344.7 536,-321.7 427,-321.7"/>
<polygon fill="none" stroke="#000000" points="427,-321.7 427,-344.7 536,-344.7 536,-321.7 427,-321.7"/>
<text text-anchor="start" x="432" y="-330.3" font-family="Helvetica,sans-Serif" font-weight="bold" font-size="11.00" fill="#000000">opstelplaats</text>
<text text-anchor="start" x="501.5219" y="-329.8" font-family="Helvetica,sans-Serif" font-size="11.00" fill="#000000">[table]</text>
<polygon fill="none" stroke="#000000" points="427,-302.7 427,-321.7 536,-321.7 536,-302.7 427,-302.7"/>
<text text-anchor="start" x="430" y="-308.8" font-family="Helvetica,sans-Serif" font-size="11.00" fill="#000000">...</text>
<polygon fill="#ffffff" stroke="transparent" points="427,-283.7 427,-302.7 480,-302.7 480,-283.7 427,-283.7"/>
<polygon fill="none" stroke="#000000" points="427,-283.7 427,-302.7 480,-302.7 480,-283.7 427,-283.7"/>
<text text-anchor="start" x="430" y="-289.8" font-family="Helvetica,sans-Serif" font-size="11.00" fill="#000000">&lt; 2</text>
<polygon fill="#ffffff" stroke="transparent" points="480,-283.7 480,-302.7 508,-302.7 508,-283.7 480,-283.7"/>
<polygon fill="none" stroke="#000000" points="480,-283.7 480,-302.7 508,-302.7 508,-283.7 480,-283.7"/>
<text text-anchor="start" x="498.8862" y="-289.8" font-family="Helvetica,sans-Serif" font-size="11.00" fill="#000000"> &#160;</text>
<polygon fill="#ffffff" stroke="transparent" points="508,-283.7 508,-302.7 536,-302.7 536,-283.7 508,-283.7"/>
<polygon fill="none" stroke="#000000" points="508,-283.7 508,-302.7 536,-302.7 536,-283.7 508,-283.7"/>
<text text-anchor="start" x="526.8862" y="-289.8" font-family="Helvetica,sans-Serif" font-size="11.00" fill="#000000"> &#160;</text>
</a>
</g>
</g>
<!-- opstelplaats&#45;&gt;object -->
<g id="edge5" class="edge">
<title>opstelplaats:w&#45;&gt;object:e</title>
<path fill="none" stroke="#000000" d="M412.8259,-307.9163C396.5361,-297.7664 395.355,-270.7 370,-270.7"/>
<polygon fill="#000000" stroke="#000000" points="419.2707,-309.6367 426.0715,-315.1782 423.1353,-310.6683 427,-311.7 427,-311.7 427,-311.7 423.1353,-310.6683 427.9285,-308.2218 419.2707,-309.6367 419.2707,-309.6367"/>
<ellipse fill="none" stroke="#000000" cx="416.1789" cy="-308.8113" rx="3.2" ry="3.2"/>
</g>
<!-- risico -->
<g id="node7" class="node">
<title>risico</title>
<g id="a_node7"><a xlink:href="../../tables/risico.html" xlink:title="risico" target="_top">
<polygon fill="#ffffff" stroke="transparent" points="445.5,-202.2 445.5,-263.2 516.5,-263.2 516.5,-202.2 445.5,-202.2"/>
<polygon fill="#f5f5f5" stroke="transparent" points="446,-239.7 446,-262.7 517,-262.7 517,-239.7 446,-239.7"/>
<polygon fill="none" stroke="#000000" points="446,-239.7 446,-262.7 517,-262.7 517,-239.7 446,-239.7"/>
<text text-anchor="start" x="451" y="-248.3" font-family="Helvetica,sans-Serif" font-weight="bold" font-size="11.00" fill="#000000">risico</text>
<text text-anchor="start" x="482.5219" y="-247.8" font-family="Helvetica,sans-Serif" font-size="11.00" fill="#000000">[table]</text>
<polygon fill="none" stroke="#000000" points="446,-220.7 446,-239.7 517,-239.7 517,-220.7 446,-220.7"/>
<text text-anchor="start" x="449" y="-226.8" font-family="Helvetica,sans-Serif" font-size="11.00" fill="#000000">...</text>
<polygon fill="#ffffff" stroke="transparent" points="446,-201.7 446,-220.7 480,-220.7 480,-201.7 446,-201.7"/>
<polygon fill="none" stroke="#000000" points="446,-201.7 446,-220.7 480,-220.7 480,-201.7 446,-201.7"/>
<text text-anchor="start" x="449" y="-207.8" font-family="Helvetica,sans-Serif" font-size="11.00" fill="#000000">&lt; 2</text>
<polygon fill="#ffffff" stroke="transparent" points="480,-201.7 480,-220.7 498,-220.7 498,-201.7 480,-201.7"/>
<polygon fill="none" stroke="#000000" points="480,-201.7 480,-220.7 498,-220.7 498,-201.7 480,-201.7"/>
<text text-anchor="start" x="488.8862" y="-207.8" font-family="Helvetica,sans-Serif" font-size="11.00" fill="#000000"> &#160;</text>
<polygon fill="#ffffff" stroke="transparent" points="498,-201.7 498,-220.7 517,-220.7 517,-201.7 498,-201.7"/>
<polygon fill="none" stroke="#000000" points="498,-201.7 498,-220.7 517,-220.7 517,-201.7 498,-201.7"/>
<text text-anchor="start" x="507.8862" y="-207.8" font-family="Helvetica,sans-Serif" font-size="11.00" fill="#000000"> &#160;</text>
</a>
</g>
</g>
<!-- risico&#45;&gt;object -->
<g id="edge6" class="edge">
<title>risico:w&#45;&gt;object:e</title>
<path fill="none" stroke="#000000" d="M431.5753,-232.0218C407.0223,-240.6951 402.8325,-270.7 370,-270.7"/>
<polygon fill="#000000" stroke="#000000" points="438.1017,-230.9714 446.5721,-233.2543 442.0508,-230.3357 446,-229.7 446,-229.7 446,-229.7 442.0508,-230.3357 445.4279,-226.1457 438.1017,-230.9714 438.1017,-230.9714"/>
<ellipse fill="none" stroke="#000000" cx="434.9423" cy="-231.4799" rx="3.2" ry="3.2"/>
</g>
<!-- sector -->
<g id="node8" class="node">
<title>sector</title>
<g id="a_node8"><a xlink:href="../../tables/sector.html" xlink:title="sector" target="_top">
<polygon fill="#ffffff" stroke="transparent" points="443.5,-120.2 443.5,-181.2 518.5,-181.2 518.5,-120.2 443.5,-120.2"/>
<polygon fill="#f5f5f5" stroke="transparent" points="444,-157.7 444,-180.7 519,-180.7 519,-157.7 444,-157.7"/>
<polygon fill="none" stroke="#000000" points="444,-157.7 444,-180.7 519,-180.7 519,-157.7 444,-157.7"/>
<text text-anchor="start" x="449" y="-166.3" font-family="Helvetica,sans-Serif" font-weight="bold" font-size="11.00" fill="#000000">sector</text>
<text text-anchor="start" x="484.5219" y="-165.8" font-family="Helvetica,sans-Serif" font-size="11.00" fill="#000000">[table]</text>
<polygon fill="none" stroke="#000000" points="444,-138.7 444,-157.7 519,-157.7 519,-138.7 444,-138.7"/>
<text text-anchor="start" x="447" y="-144.8" font-family="Helvetica,sans-Serif" font-size="11.00" fill="#000000">...</text>
<polygon fill="#ffffff" stroke="transparent" points="444,-119.7 444,-138.7 480,-138.7 480,-119.7 444,-119.7"/>
<polygon fill="none" stroke="#000000" points="444,-119.7 444,-138.7 480,-138.7 480,-119.7 444,-119.7"/>
<text text-anchor="start" x="447" y="-125.8" font-family="Helvetica,sans-Serif" font-size="11.00" fill="#000000">&lt; 2</text>
<polygon fill="#ffffff" stroke="transparent" points="480,-119.7 480,-138.7 499,-138.7 499,-119.7 480,-119.7"/>
<polygon fill="none" stroke="#000000" points="480,-119.7 480,-138.7 499,-138.7 499,-119.7 480,-119.7"/>
<text text-anchor="start" x="489.8862" y="-125.8" font-family="Helvetica,sans-Serif" font-size="11.00" fill="#000000"> &#160;</text>
<polygon fill="#ffffff" stroke="transparent" points="499,-119.7 499,-138.7 519,-138.7 519,-119.7 499,-119.7"/>
<polygon fill="none" stroke="#000000" points="499,-119.7 499,-138.7 519,-138.7 519,-119.7 499,-119.7"/>
<text text-anchor="start" x="509.8862" y="-125.8" font-family="Helvetica,sans-Serif" font-size="11.00" fill="#000000"> &#160;</text>
</a>
</g>
</g>
<!-- sector&#45;&gt;object -->
<g id="edge7" class="edge">
<title>sector:w&#45;&gt;object:e</title>
<path fill="none" stroke="#000000" d="M429.7395,-150.3834C388.7167,-168.3709 428.1903,-270.7 370,-270.7"/>
<polygon fill="#000000" stroke="#000000" points="436.138,-149.1795 444.6658,-151.2379 440.069,-148.4397 444,-147.7 444,-147.7 444,-147.7 440.069,-148.4397 443.3342,-144.1621 436.138,-149.1795 436.138,-149.1795"/>
<ellipse fill="none" stroke="#000000" cx="432.9932" cy="-149.7712" rx="3.2" ry="3.2"/>
</g>
<!-- voorziening -->
<g id="node9" class="node">
<title>voorziening</title>
<g id="a_node9"><a xlink:href="../../tables/voorziening.html" xlink:title="voorziening" target="_top">
<polygon fill="#ffffff" stroke="transparent" points="428,-38.2 428,-99.2 534,-99.2 534,-38.2 428,-38.2"/>
<polygon fill="#f5f5f5" stroke="transparent" points="428,-75.7 428,-98.7 534,-98.7 534,-75.7 428,-75.7"/>
<polygon fill="none" stroke="#000000" points="428,-75.7 428,-98.7 534,-98.7 534,-75.7 428,-75.7"/>
<text text-anchor="start" x="433" y="-84.3" font-family="Helvetica,sans-Serif" font-weight="bold" font-size="11.00" fill="#000000">voorziening</text>
<text text-anchor="start" x="499.5219" y="-83.8" font-family="Helvetica,sans-Serif" font-size="11.00" fill="#000000">[table]</text>
<polygon fill="none" stroke="#000000" points="428,-56.7 428,-75.7 534,-75.7 534,-56.7 428,-56.7"/>
<text text-anchor="start" x="431" y="-62.8" font-family="Helvetica,sans-Serif" font-size="11.00" fill="#000000">...</text>
<polygon fill="#ffffff" stroke="transparent" points="428,-37.7 428,-56.7 479,-56.7 479,-37.7 428,-37.7"/>
<polygon fill="none" stroke="#000000" points="428,-37.7 428,-56.7 479,-56.7 479,-37.7 428,-37.7"/>
<text text-anchor="start" x="431" y="-43.8" font-family="Helvetica,sans-Serif" font-size="11.00" fill="#000000">&lt; 2</text>
<polygon fill="#ffffff" stroke="transparent" points="479,-37.7 479,-56.7 506,-56.7 506,-37.7 479,-37.7"/>
<polygon fill="none" stroke="#000000" points="479,-37.7 479,-56.7 506,-56.7 506,-37.7 479,-37.7"/>
<text text-anchor="start" x="496.8862" y="-43.8" font-family="Helvetica,sans-Serif" font-size="11.00" fill="#000000"> &#160;</text>
<polygon fill="#ffffff" stroke="transparent" points="506,-37.7 506,-56.7 534,-56.7 534,-37.7 506,-37.7"/>
<polygon fill="none" stroke="#000000" points="506,-37.7 506,-56.7 534,-56.7 534,-37.7 506,-37.7"/>
<text text-anchor="start" x="524.8862" y="-43.8" font-family="Helvetica,sans-Serif" font-size="11.00" fill="#000000"> &#160;</text>
</a>
</g>
</g>
<!-- voorziening&#45;&gt;object -->
<g id="edge8" class="edge">
<title>voorziening:w&#45;&gt;object:e</title>
<path fill="none" stroke="#000000" d="M413.5931,-67.729C347.9319,-89.0196 459.1394,-270.7 370,-270.7"/>
<polygon fill="#000000" stroke="#000000" points="420.0782,-66.8157 428.5021,-69.2648 424.0391,-66.2578 428,-65.7 428,-65.7 428,-65.7 424.0391,-66.2578 427.4979,-62.1352 420.0782,-66.8157 420.0782,-66.8157"/>
<ellipse fill="none" stroke="#000000" cx="416.9094" cy="-67.262" rx="3.2" ry="3.2"/>
</g>
</g>
</svg>
