<?xml version="1.0" encoding="UTF-8" standalone="no"?>
<!DOCTYPE svg PUBLIC "-//W3C//DTD SVG 1.1//EN"
 "http://www.w3.org/Graphics/SVG/1.1/DTD/svg11.dtd">
<!-- Generated by graphviz version 2.40.1 (20161225.0304)
 -->
<!-- Title: oneDegreeRelationshipsDiagram Pages: 1 -->
<svg width="620pt" height="1092pt"
 viewBox="0.00 0.00 620.00 1091.70" xmlns="http://www.w3.org/2000/svg" xmlns:xlink="http://www.w3.org/1999/xlink">
<g id="graph0" class="graph" transform="scale(1 1) rotate(0) translate(4 1087.7)">
<title>oneDegreeRelationshipsDiagram</title>
<polygon fill="#ffffff" stroke="transparent" points="-4,4 -4,-1087.7 616,-1087.7 616,4 -4,4"/>
<text text-anchor="middle" x="72.4936" y="-7.3" font-family="Helvetica,sans-Serif" font-size="11.00" fill="#000000">Generated by SchemaSpy</text>
<!-- bereikbaarheid -->
<g id="node1" class="node">
<title>bereikbaarheid</title>
<g id="a_node1"><a xlink:href="../../tables/bereikbaarheid.html" xlink:title="bereikbaarheid" target="_top">
<polygon fill="#ffffff" stroke="transparent" points="480,-930.7 480,-1079.7 604,-1079.7 604,-930.7 480,-930.7"/>
<polygon fill="#f5f5f5" stroke="transparent" points="480,-1056.2 480,-1079.2 604,-1079.2 604,-1056.2 480,-1056.2"/>
<polygon fill="none" stroke="#000000" points="480,-1056.2 480,-1079.2 604,-1079.2 604,-1056.2 480,-1056.2"/>
<text text-anchor="start" x="485" y="-1064.8" font-family="Helvetica,sans-Serif" font-weight="bold" font-size="11.00" fill="#000000">bereikbaarheid</text>
<text text-anchor="start" x="569.5219" y="-1064.3" font-family="Helvetica,sans-Serif" font-size="11.00" fill="#000000">[table]</text>
<polygon fill="none" stroke="#000000" points="480,-1034.2 480,-1056.2 604,-1056.2 604,-1034.2 480,-1034.2"/>
<image xlink:href="../../images/primaryKeys.png" width="11px" height="12px" preserveAspectRatio="xMinYMin meet" x="485" y="-1051.2"/>
<text text-anchor="start" x="508" y="-1041.3" font-family="Helvetica,sans-Serif" font-size="11.00" fill="#000000">uuid</text>
<polygon fill="#ffffff" stroke="transparent" points="480,-1012.2 480,-1034.2 604,-1034.2 604,-1012.2 480,-1012.2"/>
<polygon fill="none" stroke="#000000" points="480,-1012.2 480,-1034.2 604,-1034.2 604,-1012.2 480,-1012.2"/>
<text text-anchor="start" x="508" y="-1019.3" font-family="Helvetica,sans-Serif" font-size="11.00" fill="#000000">geom</text>
<polygon fill="#ffffff" stroke="transparent" points="480,-990.2 480,-1012.2 604,-1012.2 604,-990.2 480,-990.2"/>
<polygon fill="none" stroke="#000000" points="480,-990.2 480,-1012.2 604,-1012.2 604,-990.2 480,-990.2"/>
<image xlink:href="../../images/foreignKeys.png" width="11px" height="12px" preserveAspectRatio="xMinYMin meet" x="485" y="-1007.2"/>
<text text-anchor="start" x="508" y="-997.3" font-family="Helvetica,sans-Serif" font-size="11.00" fill="#000000">object_uuid</text>
<polygon fill="none" stroke="#000000" points="480,-968.2 480,-990.2 604,-990.2 604,-968.2 480,-968.2"/>
<image xlink:href="../../images/foreignKeys.png" width="11px" height="12px" preserveAspectRatio="xMinYMin meet" x="485" y="-985.2"/>
<text text-anchor="start" x="508" y="-975.3" font-family="Helvetica,sans-Serif" font-size="11.00" fill="#000000">verbinding_id</text>
<polygon fill="none" stroke="#000000" points="480,-949.2 480,-968.2 604,-968.2 604,-949.2 480,-949.2"/>
<text text-anchor="start" x="483" y="-955.3" font-family="Helvetica,sans-Serif" font-size="11.00" fill="#000000">...</text>
<polygon fill="#ffffff" stroke="transparent" points="480,-930.2 480,-949.2 540,-949.2 540,-930.2 480,-930.2"/>
<polygon fill="none" stroke="#000000" points="480,-930.2 480,-949.2 540,-949.2 540,-930.2 480,-930.2"/>
<text text-anchor="start" x="483" y="-936.3" font-family="Helvetica,sans-Serif" font-size="11.00" fill="#000000">&lt; 2</text>
<polygon fill="#ffffff" stroke="transparent" points="540,-930.2 540,-949.2 572,-949.2 572,-930.2 540,-930.2"/>
<polygon fill="none" stroke="#000000" points="540,-930.2 540,-949.2 572,-949.2 572,-930.2 540,-930.2"/>
<text text-anchor="start" x="562.8862" y="-936.3" font-family="Helvetica,sans-Serif" font-size="11.00" fill="#000000"> &#160;</text>
<polygon fill="#ffffff" stroke="transparent" points="572,-930.2 572,-949.2 604,-949.2 604,-930.2 572,-930.2"/>
<polygon fill="none" stroke="#000000" points="572,-930.2 572,-949.2 604,-949.2 604,-930.2 572,-930.2"/>
<text text-anchor="start" x="594.8862" y="-936.3" font-family="Helvetica,sans-Serif" font-size="11.00" fill="#000000"> &#160;</text>
</a>
</g>
</g>
<!-- object -->
<g id="node2" class="node">
<title>object</title>
<g id="a_node2"><a xlink:href="../../tables/object.html" xlink:title="object" target="_top">
<polygon fill="#ffffff" stroke="transparent" points="162,-38.2 162,-612.2 431,-612.2 431,-38.2 162,-38.2"/>
<polygon fill="#f5f5f5" stroke="transparent" points="164.5,-587.2 164.5,-610.2 429.5,-610.2 429.5,-587.2 164.5,-587.2"/>
<polygon fill="none" stroke="#000000" points="164.5,-587.2 164.5,-610.2 429.5,-610.2 429.5,-587.2 164.5,-587.2"/>
<text text-anchor="start" x="169.5" y="-595.8" font-family="Helvetica,sans-Serif" font-weight="bold" font-size="11.00" fill="#000000">object</text>
<text text-anchor="start" x="394.5437" y="-595.3" font-family="Helvetica,sans-Serif" font-size="11.00" fill="#000000">[table]</text>
<polygon fill="none" stroke="#000000" points="164.5,-565.2 164.5,-587.2 288.5,-587.2 288.5,-565.2 164.5,-565.2"/>
<image xlink:href="../../images/primaryKeys.png" width="11px" height="12px" preserveAspectRatio="xMinYMin meet" x="169.5" y="-582.2"/>
<text text-anchor="start" x="184.5" y="-572.3" font-family="Helvetica,sans-Serif" font-size="11.00" fill="#000000">uuid</text>
<polygon fill="none" stroke="#000000" points="288.5,-565.2 288.5,-587.2 429.5,-587.2 429.5,-565.2 288.5,-565.2"/>
<text text-anchor="start" x="291.5" y="-572.9" font-family="Helvetica,sans-Serif" font-size="11.00" fill="#000000">uuid[2147483647]</text>
<polygon fill="#ffffff" stroke="transparent" points="164.5,-543.2 164.5,-565.2 288.5,-565.2 288.5,-543.2 164.5,-543.2"/>
<polygon fill="none" stroke="#000000" points="164.5,-543.2 164.5,-565.2 288.5,-565.2 288.5,-543.2 164.5,-543.2"/>
<text text-anchor="start" x="184.5" y="-550.3" font-family="Helvetica,sans-Serif" font-size="11.00" fill="#000000">geom</text>
<polygon fill="none" stroke="#000000" points="288.5,-543.2 288.5,-565.2 429.5,-565.2 429.5,-543.2 288.5,-543.2"/>
<text text-anchor="start" x="291.5" y="-550.9" font-family="Helvetica,sans-Serif" font-size="11.00" fill="#000000">geometry[2147483647]</text>
<polygon fill="none" stroke="#000000" points="164.5,-521.2 164.5,-543.2 288.5,-543.2 288.5,-521.2 164.5,-521.2"/>
<text text-anchor="start" x="184.5" y="-528.3" font-family="Helvetica,sans-Serif" font-size="11.00" fill="#000000">datumtijd</text>
<polygon fill="none" stroke="#000000" points="288.5,-521.2 288.5,-543.2 429.5,-543.2 429.5,-521.2 288.5,-521.2"/>
<text text-anchor="start" x="291.5" y="-528.9" font-family="Helvetica,sans-Serif" font-size="11.00" fill="#000000">timestamptz[35,6]</text>
<polygon fill="none" stroke="#000000" points="164.5,-499.2 164.5,-521.2 288.5,-521.2 288.5,-499.2 164.5,-499.2"/>
<text text-anchor="start" x="184.5" y="-506.3" font-family="Helvetica,sans-Serif" font-size="11.00" fill="#000000">gebruiker</text>
<polygon fill="none" stroke="#000000" points="288.5,-499.2 288.5,-521.2 429.5,-521.2 429.5,-499.2 288.5,-499.2"/>
<text text-anchor="start" x="291.5" y="-506.9" font-family="Helvetica,sans-Serif" font-size="11.00" fill="#000000">varchar[255]</text>
<polygon fill="#ffffff" stroke="transparent" points="164.5,-477.2 164.5,-499.2 288.5,-499.2 288.5,-477.2 164.5,-477.2"/>
<polygon fill="none" stroke="#000000" points="164.5,-477.2 164.5,-499.2 288.5,-499.2 288.5,-477.2 164.5,-477.2"/>
<text text-anchor="start" x="184.5" y="-484.3" font-family="Helvetica,sans-Serif" font-size="11.00" fill="#000000">revisie_frequentie</text>
<polygon fill="none" stroke="#000000" points="288.5,-477.2 288.5,-499.2 429.5,-499.2 429.5,-477.2 288.5,-477.2"/>
<text text-anchor="start" x="291.5" y="-484.9" font-family="Helvetica,sans-Serif" font-size="11.00" fill="#000000">int2[5]</text>
<polygon fill="none" stroke="#000000" points="164.5,-455.2 164.5,-477.2 288.5,-477.2 288.5,-455.2 164.5,-455.2"/>
<text text-anchor="start" x="184.5" y="-462.3" font-family="Helvetica,sans-Serif" font-size="11.00" fill="#000000">formelenaam</text>
<polygon fill="none" stroke="#000000" points="288.5,-455.2 288.5,-477.2 429.5,-477.2 429.5,-455.2 288.5,-455.2"/>
<text text-anchor="start" x="291.5" y="-462.9" font-family="Helvetica,sans-Serif" font-size="11.00" fill="#000000">text[2147483647]</text>
<polygon fill="none" stroke="#000000" points="164.5,-433.2 164.5,-455.2 288.5,-455.2 288.5,-433.2 164.5,-433.2"/>
<text text-anchor="start" x="184.5" y="-440.3" font-family="Helvetica,sans-Serif" font-size="11.00" fill="#000000">code</text>
<polygon fill="none" stroke="#000000" points="288.5,-433.2 288.5,-455.2 429.5,-455.2 429.5,-433.2 288.5,-433.2"/>
<text text-anchor="start" x="291.5" y="-440.9" font-family="Helvetica,sans-Serif" font-size="11.00" fill="#000000">text[2147483647]</text>
<polygon fill="none" stroke="#000000" points="164.5,-411.2 164.5,-433.2 288.5,-433.2 288.5,-411.2 164.5,-411.2"/>
<text text-anchor="start" x="184.5" y="-418.3" font-family="Helvetica,sans-Serif" font-size="11.00" fill="#000000">adres</text>
<polygon fill="none" stroke="#000000" points="288.5,-411.2 288.5,-433.2 429.5,-433.2 429.5,-411.2 288.5,-411.2"/>
<text text-anchor="start" x="291.5" y="-418.9" font-family="Helvetica,sans-Serif" font-size="11.00" fill="#000000">text[2147483647]</text>
<polygon fill="none" stroke="#000000" points="164.5,-389.2 164.5,-411.2 288.5,-411.2 288.5,-389.2 164.5,-389.2"/>
<text text-anchor="start" x="184.5" y="-396.3" font-family="Helvetica,sans-Serif" font-size="11.00" fill="#000000">bijzonderheden</text>
<polygon fill="none" stroke="#000000" points="288.5,-389.2 288.5,-411.2 429.5,-411.2 429.5,-389.2 288.5,-389.2"/>
<text text-anchor="start" x="291.5" y="-396.9" font-family="Helvetica,sans-Serif" font-size="11.00" fill="#000000">text[2147483647]</text>
<polygon fill="none" stroke="#000000" points="164.5,-367.2 164.5,-389.2 288.5,-389.2 288.5,-367.2 164.5,-367.2"/>
<text text-anchor="start" x="184.5" y="-374.3" font-family="Helvetica,sans-Serif" font-size="11.00" fill="#000000">plusinfo</text>
<polygon fill="none" stroke="#000000" points="288.5,-367.2 288.5,-389.2 429.5,-389.2 429.5,-367.2 288.5,-367.2"/>
<text text-anchor="start" x="291.5" y="-374.9" font-family="Helvetica,sans-Serif" font-size="11.00" fill="#000000">jsonb[2147483647]</text>
<polygon fill="#ffffff" stroke="transparent" points="164.5,-345.2 164.5,-367.2 288.5,-367.2 288.5,-345.2 164.5,-345.2"/>
<polygon fill="none" stroke="#000000" points="164.5,-345.2 164.5,-367.2 288.5,-367.2 288.5,-345.2 164.5,-345.2"/>
<image xlink:href="../../images/foreignKeys.png" width="11px" height="12px" preserveAspectRatio="xMinYMin meet" x="169.5" y="-362.2"/>
<text text-anchor="start" x="184.5" y="-352.3" font-family="Helvetica,sans-Serif" font-size="11.00" fill="#000000">fase_id</text>
<polygon fill="none" stroke="#000000" points="288.5,-345.2 288.5,-367.2 429.5,-367.2 429.5,-345.2 288.5,-345.2"/>
<text text-anchor="start" x="291.5" y="-352.9" font-family="Helvetica,sans-Serif" font-size="11.00" fill="#000000">int2[5]</text>
<polygon fill="#ffffff" stroke="transparent" points="164.5,-323.2 164.5,-345.2 288.5,-345.2 288.5,-323.2 164.5,-323.2"/>
<polygon fill="none" stroke="#000000" points="164.5,-323.2 164.5,-345.2 288.5,-345.2 288.5,-323.2 164.5,-323.2"/>
<image xlink:href="../../images/foreignKeys.png" width="11px" height="12px" preserveAspectRatio="xMinYMin meet" x="169.5" y="-340.2"/>
<text text-anchor="start" x="184.5" y="-330.3" font-family="Helvetica,sans-Serif" font-size="11.00" fill="#000000">object_type_id</text>
<polygon fill="none" stroke="#000000" points="288.5,-323.2 288.5,-345.2 429.5,-345.2 429.5,-323.2 288.5,-323.2"/>
<text text-anchor="start" x="291.5" y="-330.9" font-family="Helvetica,sans-Serif" font-size="11.00" fill="#000000">int2[5]</text>
<polygon fill="#ffffff" stroke="transparent" points="164.5,-301.2 164.5,-323.2 288.5,-323.2 288.5,-301.2 164.5,-301.2"/>
<polygon fill="none" stroke="#000000" points="164.5,-301.2 164.5,-323.2 288.5,-323.2 288.5,-301.2 164.5,-301.2"/>
<text text-anchor="start" x="184.5" y="-308.3" font-family="Helvetica,sans-Serif" font-size="11.00" fill="#000000">periode</text>
<polygon fill="none" stroke="#000000" points="288.5,-301.2 288.5,-323.2 429.5,-323.2 429.5,-301.2 288.5,-301.2"/>
<text text-anchor="start" x="291.1432" y="-308.9" font-family="Helvetica,sans-Serif" font-size="11.00" fill="#000000">tstzmultirange[2147483647]</text>
<polygon fill="none" stroke="#000000" points="164.5,-279.2 164.5,-301.2 288.5,-301.2 288.5,-279.2 164.5,-279.2"/>
<text text-anchor="start" x="184.5" y="-286.3" font-family="Helvetica,sans-Serif" font-size="11.00" fill="#000000">datumtijd_start</text>
<polygon fill="none" stroke="#000000" points="288.5,-279.2 288.5,-301.2 429.5,-301.2 429.5,-279.2 288.5,-279.2"/>
<text text-anchor="start" x="291.5" y="-286.9" font-family="Helvetica,sans-Serif" font-size="11.00" fill="#000000">timestamptz[35,6]</text>
<polygon fill="none" stroke="#000000" points="164.5,-257.2 164.5,-279.2 288.5,-279.2 288.5,-257.2 164.5,-257.2"/>
<text text-anchor="start" x="184.5" y="-264.3" font-family="Helvetica,sans-Serif" font-size="11.00" fill="#000000">datumtijd_eind</text>
<polygon fill="none" stroke="#000000" points="288.5,-257.2 288.5,-279.2 429.5,-279.2 429.5,-257.2 288.5,-257.2"/>
<text text-anchor="start" x="291.5" y="-264.9" font-family="Helvetica,sans-Serif" font-size="11.00" fill="#000000">timestamptz[35,6]</text>
<polygon fill="none" stroke="#000000" points="164.5,-235.2 164.5,-257.2 288.5,-257.2 288.5,-235.2 164.5,-235.2"/>
<text text-anchor="start" x="184.5" y="-242.3" font-family="Helvetica,sans-Serif" font-size="11.00" fill="#000000">herhaling_interval</text>
<polygon fill="none" stroke="#000000" points="288.5,-235.2 288.5,-257.2 429.5,-257.2 429.5,-235.2 288.5,-235.2"/>
<text text-anchor="start" x="291.5" y="-242.9" font-family="Helvetica,sans-Serif" font-size="11.00" fill="#000000">interval[49,6]</text>
<polygon fill="none" stroke="#000000" points="164.5,-213.2 164.5,-235.2 288.5,-235.2 288.5,-213.2 164.5,-213.2"/>
<text text-anchor="start" x="184.5" y="-220.3" font-family="Helvetica,sans-Serif" font-size="11.00" fill="#000000">herhaling_eind</text>
<polygon fill="none" stroke="#000000" points="288.5,-213.2 288.5,-235.2 429.5,-235.2 429.5,-213.2 288.5,-213.2"/>
<text text-anchor="start" x="291.5" y="-220.9" font-family="Helvetica,sans-Serif" font-size="11.00" fill="#000000">timestamptz[35,6]</text>
<polygon fill="none" stroke="#000000" points="164.5,-191.2 164.5,-213.2 288.5,-213.2 288.5,-191.2 164.5,-191.2"/>
<text text-anchor="start" x="184.5" y="-198.3" font-family="Helvetica,sans-Serif" font-size="11.00" fill="#000000">contact_functie</text>
<polygon fill="none" stroke="#000000" points="288.5,-191.2 288.5,-213.2 429.5,-213.2 429.5,-191.2 288.5,-191.2"/>
<text text-anchor="start" x="291.5" y="-198.9" font-family="Helvetica,sans-Serif" font-size="11.00" fill="#000000">text[2147483647]</text>
<polygon fill="none" stroke="#000000" points="164.5,-169.2 164.5,-191.2 288.5,-191.2 288.5,-169.2 164.5,-169.2"/>
<text text-anchor="start" x="184.5" y="-176.3" font-family="Helvetica,sans-Serif" font-size="11.00" fill="#000000">contact_telefoon</text>
<polygon fill="none" stroke="#000000" points="288.5,-169.2 288.5,-191.2 429.5,-191.2 429.5,-169.2 288.5,-169.2"/>
<text text-anchor="start" x="291.5" y="-176.9" font-family="Helvetica,sans-Serif" font-size="11.00" fill="#000000">int8[19]</text>
<polygon fill="none" stroke="#000000" points="164.5,-147.2 164.5,-169.2 288.5,-169.2 288.5,-147.2 164.5,-147.2"/>
<text text-anchor="start" x="184.5" y="-154.3" font-family="Helvetica,sans-Serif" font-size="11.00" fill="#000000">bhv_aanwezig</text>
<polygon fill="none" stroke="#000000" points="288.5,-147.2 288.5,-169.2 429.5,-169.2 429.5,-147.2 288.5,-147.2"/>
<text text-anchor="start" x="291.5" y="-154.9" font-family="Helvetica,sans-Serif" font-size="11.00" fill="#000000">text[2147483647]</text>
<polygon fill="none" stroke="#000000" points="164.5,-125.2 164.5,-147.2 288.5,-147.2 288.5,-125.2 164.5,-125.2"/>
<text text-anchor="start" x="184.5" y="-132.3" font-family="Helvetica,sans-Serif" font-size="11.00" fill="#000000">bhv_ademlucht</text>
<polygon fill="none" stroke="#000000" points="288.5,-125.2 288.5,-147.2 429.5,-147.2 429.5,-125.2 288.5,-125.2"/>
<text text-anchor="start" x="291.5" y="-132.9" font-family="Helvetica,sans-Serif" font-size="11.00" fill="#000000">text[2147483647]</text>
<polygon fill="none" stroke="#000000" points="164.5,-103.2 164.5,-125.2 288.5,-125.2 288.5,-103.2 164.5,-103.2"/>
<text text-anchor="start" x="184.5" y="-110.3" font-family="Helvetica,sans-Serif" font-size="11.00" fill="#000000">bhv_dagen</text>
<polygon fill="none" stroke="#000000" points="288.5,-103.2 288.5,-125.2 429.5,-125.2 429.5,-103.2 288.5,-103.2"/>
<text text-anchor="start" x="291.5" y="-110.9" font-family="Helvetica,sans-Serif" font-size="11.00" fill="#000000">text[2147483647]</text>
<polygon fill="none" stroke="#000000" points="164.5,-81.2 164.5,-103.2 288.5,-103.2 288.5,-81.2 164.5,-81.2"/>
<text text-anchor="start" x="184.5" y="-88.3" font-family="Helvetica,sans-Serif" font-size="11.00" fill="#000000">bhv_tijden</text>
<polygon fill="none" stroke="#000000" points="288.5,-81.2 288.5,-103.2 429.5,-103.2 429.5,-81.2 288.5,-81.2"/>
<text text-anchor="start" x="291.5" y="-88.9" font-family="Helvetica,sans-Serif" font-size="11.00" fill="#000000">text[2147483647]</text>
<polygon fill="none" stroke="#000000" points="164.5,-59.2 164.5,-81.2 288.5,-81.2 288.5,-59.2 164.5,-59.2"/>
<text text-anchor="start" x="184.5" y="-66.3" font-family="Helvetica,sans-Serif" font-size="11.00" fill="#000000">bhv_telefoon</text>
<polygon fill="none" stroke="#000000" points="288.5,-59.2 288.5,-81.2 429.5,-81.2 429.5,-59.2 288.5,-59.2"/>
<text text-anchor="start" x="291.5" y="-66.9" font-family="Helvetica,sans-Serif" font-size="11.00" fill="#000000">int8[19]</text>
<polygon fill="#ffffff" stroke="transparent" points="164.5,-40.2 164.5,-59.2 230.5,-59.2 230.5,-40.2 164.5,-40.2"/>
<polygon fill="none" stroke="#000000" points="164.5,-40.2 164.5,-59.2 230.5,-59.2 230.5,-40.2 164.5,-40.2"/>
<text text-anchor="start" x="167.5" y="-46.3" font-family="Helvetica,sans-Serif" font-size="11.00" fill="#000000">&lt; 2</text>
<polygon fill="#ffffff" stroke="transparent" points="230.5,-40.2 230.5,-59.2 288.5,-59.2 288.5,-40.2 230.5,-40.2"/>
<polygon fill="none" stroke="#000000" points="230.5,-40.2 230.5,-59.2 288.5,-59.2 288.5,-40.2 230.5,-40.2"/>
<text text-anchor="start" x="279.3862" y="-46.3" font-family="Helvetica,sans-Serif" font-size="11.00" fill="#000000"> &#160;</text>
<polygon fill="#ffffff" stroke="transparent" points="288.5,-40.2 288.5,-59.2 429.5,-59.2 429.5,-40.2 288.5,-40.2"/>
<polygon fill="none" stroke="#000000" points="288.5,-40.2 288.5,-59.2 429.5,-59.2 429.5,-40.2 288.5,-40.2"/>
<text text-anchor="start" x="410.9053" y="-46.3" font-family="Helvetica,sans-Serif" font-size="11.00" fill="#000000">6 &gt;</text>
<polygon fill="none" stroke="#000000" stroke-width="2" points="163,-39.2 163,-611.2 430,-611.2 430,-39.2 163,-39.2"/>
</a>
</g>
</g>
<!-- bereikbaarheid&#45;&gt;object -->
<g id="edge1" class="edge">
<title>bereikbaarheid:w&#45;&gt;object:e</title>
<path fill="none" stroke="#000000" d="M466.0137,-997.2641C399.9652,-954.4189 519.2218,-576.2 429.5,-576.2"/>
<polygon fill="#000000" stroke="#000000" points="472.2991,-999.0328 479.0248,-1004.6654 476.1496,-1000.1164 480,-1001.2 480,-1001.2 480,-1001.2 476.1496,-1000.1164 480.9752,-997.7346 472.2991,-999.0328 472.2991,-999.0328"/>
<ellipse fill="none" stroke="#000000" cx="469.2188" cy="-998.166" rx="3.2" ry="3.2"/>
</g>
<!-- roi.fase -->
<g id="node4" class="node">
<title>roi.fase</title>
<g id="a_node4"><a xlink:href="../../../roi/tables/fase.html" xlink:title="roi.fase" target="_top">
<polygon fill="#ffffff" stroke="transparent" points="20,-357.7 20,-418.7 101,-418.7 101,-357.7 20,-357.7"/>
<polygon fill="#f5f5f5" stroke="transparent" points="20.5,-395.2 20.5,-418.2 101.5,-418.2 101.5,-395.2 20.5,-395.2"/>
<polygon fill="none" stroke="#000000" points="20.5,-395.2 20.5,-418.2 101.5,-418.2 101.5,-395.2 20.5,-395.2"/>
<text text-anchor="start" x="25.5" y="-403.8" font-family="Helvetica,sans-Serif" font-weight="bold" font-size="11.00" fill="#000000">roi.fase</text>
<text text-anchor="start" x="67.0219" y="-403.3" font-family="Helvetica,sans-Serif" font-size="11.00" fill="#000000">[table]</text>
<polygon fill="none" stroke="#000000" points="20.5,-376.2 20.5,-395.2 101.5,-395.2 101.5,-376.2 20.5,-376.2"/>
<text text-anchor="start" x="23.5" y="-382.3" font-family="Helvetica,sans-Serif" font-size="11.00" fill="#000000">...</text>
<polygon fill="#ffffff" stroke="transparent" points="20.5,-357.2 20.5,-376.2 50.5,-376.2 50.5,-357.2 20.5,-357.2"/>
<polygon fill="none" stroke="#000000" points="20.5,-357.2 20.5,-376.2 50.5,-376.2 50.5,-357.2 20.5,-357.2"/>
<text text-anchor="start" x="23.5" y="-363.3" font-family="Helvetica,sans-Serif" font-size="11.00" fill="#000000"> &#160;</text>
<polygon fill="#ffffff" stroke="transparent" points="50.5,-357.2 50.5,-376.2 71.5,-376.2 71.5,-357.2 50.5,-357.2"/>
<polygon fill="none" stroke="#000000" points="50.5,-357.2 50.5,-376.2 71.5,-376.2 71.5,-357.2 50.5,-357.2"/>
<text text-anchor="start" x="62.3862" y="-363.3" font-family="Helvetica,sans-Serif" font-size="11.00" fill="#000000"> &#160;</text>
<polygon fill="#ffffff" stroke="transparent" points="71.5,-357.2 71.5,-376.2 101.5,-376.2 101.5,-357.2 71.5,-357.2"/>
<polygon fill="none" stroke="#000000" points="71.5,-357.2 71.5,-376.2 101.5,-376.2 101.5,-357.2 71.5,-357.2"/>
<text text-anchor="start" x="82.9053" y="-363.3" font-family="Helvetica,sans-Serif" font-size="11.00" fill="#000000">1 &gt;</text>
</a>
</g>
</g>
<!-- object&#45;&gt;roi.fase -->
<g id="edge3" class="edge">
<title>object:w&#45;&gt;roi.fase:e</title>
<path fill="none" stroke="#000000" d="M149.9548,-357.0822C135.9089,-358.7153 121.7785,-362.4403 109.0286,-366.7667"/>
<polygon fill="#000000" stroke="#000000" points="156.5147,-356.6844 164.718,-359.7934 160.5073,-356.4422 164.5,-356.2 164.5,-356.2 164.5,-356.2 160.5073,-356.4422 164.282,-352.6066 156.5147,-356.6844 156.5147,-356.6844"/>
<ellipse fill="none" stroke="#000000" cx="153.3205" cy="-356.8781" rx="3.2" ry="3.2"/>
</g>
<!-- object_type -->
<g id="node5" class="node">
<title>object_type</title>
<g id="a_node5"><a xlink:href="../../tables/object_type.html" xlink:title="object_type" target="_top">
<polygon fill="#ffffff" stroke="transparent" points="8,-253.7 8,-336.7 113,-336.7 113,-253.7 8,-253.7"/>
<polygon fill="#f5f5f5" stroke="transparent" points="8.5,-313.2 8.5,-336.2 113.5,-336.2 113.5,-313.2 8.5,-313.2"/>
<polygon fill="none" stroke="#000000" points="8.5,-313.2 8.5,-336.2 113.5,-336.2 113.5,-313.2 8.5,-313.2"/>
<text text-anchor="start" x="13.5" y="-321.8" font-family="Helvetica,sans-Serif" font-weight="bold" font-size="11.00" fill="#000000">object_type</text>
<text text-anchor="start" x="79.0219" y="-321.3" font-family="Helvetica,sans-Serif" font-size="11.00" fill="#000000">[table]</text>
<polygon fill="none" stroke="#000000" points="8.5,-291.2 8.5,-313.2 113.5,-313.2 113.5,-291.2 8.5,-291.2"/>
<image xlink:href="../../images/primaryKeys.png" width="11px" height="12px" preserveAspectRatio="xMinYMin meet" x="13.5" y="-308.2"/>
<text text-anchor="start" x="33.5" y="-298.3" font-family="Helvetica,sans-Serif" font-size="11.00" fill="#000000">id</text>
<polygon fill="none" stroke="#000000" points="8.5,-272.2 8.5,-291.2 113.5,-291.2 113.5,-272.2 8.5,-272.2"/>
<text text-anchor="start" x="11.5" y="-278.3" font-family="Helvetica,sans-Serif" font-size="11.00" fill="#000000">...</text>
<polygon fill="#ffffff" stroke="transparent" points="8.5,-253.2 8.5,-272.2 50.5,-272.2 50.5,-253.2 8.5,-253.2"/>
<polygon fill="none" stroke="#000000" points="8.5,-253.2 8.5,-272.2 50.5,-272.2 50.5,-253.2 8.5,-253.2"/>
<text text-anchor="start" x="11.5" y="-259.3" font-family="Helvetica,sans-Serif" font-size="11.00" fill="#000000"> &#160;</text>
<polygon fill="#ffffff" stroke="transparent" points="50.5,-253.2 50.5,-272.2 77.5,-272.2 77.5,-253.2 50.5,-253.2"/>
<polygon fill="none" stroke="#000000" points="50.5,-253.2 50.5,-272.2 77.5,-272.2 77.5,-253.2 50.5,-253.2"/>
<text text-anchor="start" x="68.3862" y="-259.3" font-family="Helvetica,sans-Serif" font-size="11.00" fill="#000000"> &#160;</text>
<polygon fill="#ffffff" stroke="transparent" points="77.5,-253.2 77.5,-272.2 113.5,-272.2 113.5,-253.2 77.5,-253.2"/>
<polygon fill="none" stroke="#000000" points="77.5,-253.2 77.5,-272.2 113.5,-272.2 113.5,-253.2 77.5,-253.2"/>
<text text-anchor="start" x="94.9053" y="-259.3" font-family="Helvetica,sans-Serif" font-size="11.00" fill="#000000">1 &gt;</text>
</a>
</g>
</g>
<!-- object&#45;&gt;object_type -->
<g id="edge4" class="edge">
<title>object:w&#45;&gt;object_type:e</title>
<path fill="none" stroke="#000000" d="M150.5293,-330.2762C137.4416,-321.7313 134.4055,-302.2 113.5,-302.2"/>
<polygon fill="#000000" stroke="#000000" points="156.798,-332.0368 163.5265,-337.6659 160.649,-333.1184 164.5,-334.2 164.5,-334.2 164.5,-334.2 160.649,-333.1184 165.4735,-330.7341 156.798,-332.0368 156.798,-332.0368"/>
<ellipse fill="none" stroke="#000000" cx="153.7172" cy="-331.1715" rx="3.2" ry="3.2"/>
</g>
<!-- label -->
<g id="node3" class="node">
<title>label</title>
<g id="a_node3"><a xlink:href="../../tables/label.html" xlink:title="label" target="_top">
<polygon fill="#ffffff" stroke="transparent" points="487.5,-760.7 487.5,-909.7 596.5,-909.7 596.5,-760.7 487.5,-760.7"/>
<polygon fill="#f5f5f5" stroke="transparent" points="488,-886.2 488,-909.2 597,-909.2 597,-886.2 488,-886.2"/>
<polygon fill="none" stroke="#000000" points="488,-886.2 488,-909.2 597,-909.2 597,-886.2 488,-886.2"/>
<text text-anchor="start" x="492.8868" y="-894.8" font-family="Helvetica,sans-Serif" font-weight="bold" font-size="11.00" fill="#000000">label</text>
<text text-anchor="start" x="562.0437" y="-894.3" font-family="Helvetica,sans-Serif" font-size="11.00" fill="#000000">[table]</text>
<polygon fill="none" stroke="#000000" points="488,-864.2 488,-886.2 597,-886.2 597,-864.2 488,-864.2"/>
<image xlink:href="../../images/primaryKeys.png" width="11px" height="12px" preserveAspectRatio="xMinYMin meet" x="493" y="-881.2"/>
<text text-anchor="start" x="508" y="-871.3" font-family="Helvetica,sans-Serif" font-size="11.00" fill="#000000">uuid</text>
<polygon fill="#ffffff" stroke="transparent" points="488,-842.2 488,-864.2 597,-864.2 597,-842.2 488,-842.2"/>
<polygon fill="none" stroke="#000000" points="488,-842.2 488,-864.2 597,-864.2 597,-842.2 488,-842.2"/>
<text text-anchor="start" x="508" y="-849.3" font-family="Helvetica,sans-Serif" font-size="11.00" fill="#000000">geom</text>
<polygon fill="#ffffff" stroke="transparent" points="488,-820.2 488,-842.2 597,-842.2 597,-820.2 488,-820.2"/>
<polygon fill="none" stroke="#000000" points="488,-820.2 488,-842.2 597,-842.2 597,-820.2 488,-820.2"/>
<image xlink:href="../../images/foreignKeys.png" width="11px" height="12px" preserveAspectRatio="xMinYMin meet" x="493" y="-837.2"/>
<text text-anchor="start" x="508" y="-827.3" font-family="Helvetica,sans-Serif" font-size="11.00" fill="#000000">object_uuid</text>
<polygon fill="none" stroke="#000000" points="488,-798.2 488,-820.2 597,-820.2 597,-798.2 488,-798.2"/>
<image xlink:href="../../images/foreignKeys.png" width="11px" height="12px" preserveAspectRatio="xMinYMin meet" x="493" y="-815.2"/>
<text text-anchor="start" x="508" y="-805.3" font-family="Helvetica,sans-Serif" font-size="11.00" fill="#000000">annotatie_id</text>
<polygon fill="none" stroke="#000000" points="488,-779.2 488,-798.2 597,-798.2 597,-779.2 488,-779.2"/>
<text text-anchor="start" x="491" y="-785.3" font-family="Helvetica,sans-Serif" font-size="11.00" fill="#000000">...</text>
<polygon fill="#ffffff" stroke="transparent" points="488,-760.2 488,-779.2 541,-779.2 541,-760.2 488,-760.2"/>
<polygon fill="none" stroke="#000000" points="488,-760.2 488,-779.2 541,-779.2 541,-760.2 488,-760.2"/>
<text text-anchor="start" x="491" y="-766.3" font-family="Helvetica,sans-Serif" font-size="11.00" fill="#000000">&lt; 2</text>
<polygon fill="#ffffff" stroke="transparent" points="541,-760.2 541,-779.2 569,-779.2 569,-760.2 541,-760.2"/>
<polygon fill="none" stroke="#000000" points="541,-760.2 541,-779.2 569,-779.2 569,-760.2 541,-760.2"/>
<text text-anchor="start" x="559.8862" y="-766.3" font-family="Helvetica,sans-Serif" font-size="11.00" fill="#000000"> &#160;</text>
<polygon fill="#ffffff" stroke="transparent" points="569,-760.2 569,-779.2 597,-779.2 597,-760.2 569,-760.2"/>
<polygon fill="none" stroke="#000000" points="569,-760.2 569,-779.2 597,-779.2 597,-760.2 569,-760.2"/>
<text text-anchor="start" x="587.8862" y="-766.3" font-family="Helvetica,sans-Serif" font-size="11.00" fill="#000000"> &#160;</text>
</a>
</g>
</g>
<!-- label&#45;&gt;object -->
<g id="edge2" class="edge">
<title>label:w&#45;&gt;object:e</title>
<path fill="none" stroke="#000000" d="M473.5025,-829.5716C387.4023,-807.8541 540.3269,-576.2 429.5,-576.2"/>
<polygon fill="#000000" stroke="#000000" points="480.05,-830.307 487.5981,-834.7775 484.025,-830.7535 488,-831.2 488,-831.2 488,-831.2 484.025,-830.7535 488.4019,-827.6225 480.05,-830.307 480.05,-830.307"/>
<ellipse fill="none" stroke="#000000" cx="476.87" cy="-829.9498" rx="3.2" ry="3.2"/>
</g>
<!-- opstelplaats -->
<g id="node6" class="node">
<title>opstelplaats</title>
<g id="a_node6"><a xlink:href="../../tables/opstelplaats.html" xlink:title="opstelplaats" target="_top">
<polygon fill="#ffffff" stroke="transparent" points="487.5,-590.7 487.5,-739.7 596.5,-739.7 596.5,-590.7 487.5,-590.7"/>
<polygon fill="#f5f5f5" stroke="transparent" points="488,-716.2 488,-739.2 597,-739.2 597,-716.2 488,-716.2"/>
<polygon fill="none" stroke="#000000" points="488,-716.2 488,-739.2 597,-739.2 597,-716.2 488,-716.2"/>
<text text-anchor="start" x="493" y="-724.8" font-family="Helvetica,sans-Serif" font-weight="bold" font-size="11.00" fill="#000000">opstelplaats</text>
<text text-anchor="start" x="562.5219" y="-724.3" font-family="Helvetica,sans-Serif" font-size="11.00" fill="#000000">[table]</text>
<polygon fill="none" stroke="#000000" points="488,-694.2 488,-716.2 597,-716.2 597,-694.2 488,-694.2"/>
<image xlink:href="../../images/primaryKeys.png" width="11px" height="12px" preserveAspectRatio="xMinYMin meet" x="493" y="-711.2"/>
<text text-anchor="start" x="508" y="-701.3" font-family="Helvetica,sans-Serif" font-size="11.00" fill="#000000">uuid</text>
<polygon fill="#ffffff" stroke="transparent" points="488,-672.2 488,-694.2 597,-694.2 597,-672.2 488,-672.2"/>
<polygon fill="none" stroke="#000000" points="488,-672.2 488,-694.2 597,-694.2 597,-672.2 488,-672.2"/>
<text text-anchor="start" x="508" y="-679.3" font-family="Helvetica,sans-Serif" font-size="11.00" fill="#000000">geom</text>
<polygon fill="#ffffff" stroke="transparent" points="488,-650.2 488,-672.2 597,-672.2 597,-650.2 488,-650.2"/>
<polygon fill="none" stroke="#000000" points="488,-650.2 488,-672.2 597,-672.2 597,-650.2 488,-650.2"/>
<image xlink:href="../../images/foreignKeys.png" width="11px" height="12px" preserveAspectRatio="xMinYMin meet" x="493" y="-667.2"/>
<text text-anchor="start" x="508" y="-657.3" font-family="Helvetica,sans-Serif" font-size="11.00" fill="#000000">object_uuid</text>
<polygon fill="none" stroke="#000000" points="488,-628.2 488,-650.2 597,-650.2 597,-628.2 488,-628.2"/>
<image xlink:href="../../images/foreignKeys.png" width="11px" height="12px" preserveAspectRatio="xMinYMin meet" x="493" y="-645.2"/>
<text text-anchor="start" x="508" y="-635.3" font-family="Helvetica,sans-Serif" font-size="11.00" fill="#000000">voertuig_id</text>
<polygon fill="none" stroke="#000000" points="488,-609.2 488,-628.2 597,-628.2 597,-609.2 488,-609.2"/>
<text text-anchor="start" x="491" y="-615.3" font-family="Helvetica,sans-Serif" font-size="11.00" fill="#000000">...</text>
<polygon fill="#ffffff" stroke="transparent" points="488,-590.2 488,-609.2 541,-609.2 541,-590.2 488,-590.2"/>
<polygon fill="none" stroke="#000000" points="488,-590.2 488,-609.2 541,-609.2 541,-590.2 488,-590.2"/>
<text text-anchor="start" x="491" y="-596.3" font-family="Helvetica,sans-Serif" font-size="11.00" fill="#000000">&lt; 2</text>
<polygon fill="#ffffff" stroke="transparent" points="541,-590.2 541,-609.2 569,-609.2 569,-590.2 541,-590.2"/>
<polygon fill="none" stroke="#000000" points="541,-590.2 541,-609.2 569,-609.2 569,-590.2 541,-590.2"/>
<text text-anchor="start" x="559.8862" y="-596.3" font-family="Helvetica,sans-Serif" font-size="11.00" fill="#000000"> &#160;</text>
<polygon fill="#ffffff" stroke="transparent" points="569,-590.2 569,-609.2 597,-609.2 597,-590.2 569,-590.2"/>
<polygon fill="none" stroke="#000000" points="569,-590.2 569,-609.2 597,-609.2 597,-590.2 569,-590.2"/>
<text text-anchor="start" x="587.8862" y="-596.3" font-family="Helvetica,sans-Serif" font-size="11.00" fill="#000000"> &#160;</text>
</a>
</g>
</g>
<!-- opstelplaats&#45;&gt;object -->
<g id="edge5" class="edge">
<title>opstelplaats:w&#45;&gt;object:e</title>
<path fill="none" stroke="#000000" d="M473.8684,-657.3269C449.3904,-640.6984 469.4486,-576.2 429.5,-576.2"/>
<polygon fill="#000000" stroke="#000000" points="480.2845,-659.0853 487.0484,-664.672 484.1423,-660.1427 488,-661.2 488,-661.2 488,-661.2 484.1423,-660.1427 488.9516,-657.728 480.2845,-659.0853 480.2845,-659.0853"/>
<ellipse fill="none" stroke="#000000" cx="477.1984" cy="-658.2395" rx="3.2" ry="3.2"/>
</g>
<!-- risico -->
<g id="node7" class="node">
<title>risico</title>
<g id="a_node7"><a xlink:href="../../tables/risico.html" xlink:title="risico" target="_top">
<polygon fill="#ffffff" stroke="transparent" points="487.5,-420.7 487.5,-569.7 596.5,-569.7 596.5,-420.7 487.5,-420.7"/>
<polygon fill="#f5f5f5" stroke="transparent" points="488,-546.2 488,-569.2 597,-569.2 597,-546.2 488,-546.2"/>
<polygon fill="none" stroke="#000000" points="488,-546.2 488,-569.2 597,-569.2 597,-546.2 488,-546.2"/>
<text text-anchor="start" x="493" y="-554.8" font-family="Helvetica,sans-Serif" font-weight="bold" font-size="11.00" fill="#000000">risico</text>
<text text-anchor="start" x="562.0437" y="-554.3" font-family="Helvetica,sans-Serif" font-size="11.00" fill="#000000">[table]</text>
<polygon fill="none" stroke="#000000" points="488,-524.2 488,-546.2 597,-546.2 597,-524.2 488,-524.2"/>
<image xlink:href="../../images/primaryKeys.png" width="11px" height="12px" preserveAspectRatio="xMinYMin meet" x="493" y="-541.2"/>
<text text-anchor="start" x="508" y="-531.3" font-family="Helvetica,sans-Serif" font-size="11.00" fill="#000000">uuid</text>
<polygon fill="#ffffff" stroke="transparent" points="488,-502.2 488,-524.2 597,-524.2 597,-502.2 488,-502.2"/>
<polygon fill="none" stroke="#000000" points="488,-502.2 488,-524.2 597,-524.2 597,-502.2 488,-502.2"/>
<text text-anchor="start" x="508" y="-509.3" font-family="Helvetica,sans-Serif" font-size="11.00" fill="#000000">geom</text>
<polygon fill="#ffffff" stroke="transparent" points="488,-480.2 488,-502.2 597,-502.2 597,-480.2 488,-480.2"/>
<polygon fill="none" stroke="#000000" points="488,-480.2 488,-502.2 597,-502.2 597,-480.2 488,-480.2"/>
<image xlink:href="../../images/foreignKeys.png" width="11px" height="12px" preserveAspectRatio="xMinYMin meet" x="493" y="-497.2"/>
<text text-anchor="start" x="508" y="-487.3" font-family="Helvetica,sans-Serif" font-size="11.00" fill="#000000">object_uuid</text>
<polygon fill="none" stroke="#000000" points="488,-458.2 488,-480.2 597,-480.2 597,-458.2 488,-458.2"/>
<image xlink:href="../../images/foreignKeys.png" width="11px" height="12px" preserveAspectRatio="xMinYMin meet" x="493" y="-475.2"/>
<text text-anchor="start" x="508" y="-465.3" font-family="Helvetica,sans-Serif" font-size="11.00" fill="#000000">dreiging_id</text>
<polygon fill="none" stroke="#000000" points="488,-439.2 488,-458.2 597,-458.2 597,-439.2 488,-439.2"/>
<text text-anchor="start" x="491" y="-445.3" font-family="Helvetica,sans-Serif" font-size="11.00" fill="#000000">...</text>
<polygon fill="#ffffff" stroke="transparent" points="488,-420.2 488,-439.2 541,-439.2 541,-420.2 488,-420.2"/>
<polygon fill="none" stroke="#000000" points="488,-420.2 488,-439.2 541,-439.2 541,-420.2 488,-420.2"/>
<text text-anchor="start" x="491" y="-426.3" font-family="Helvetica,sans-Serif" font-size="11.00" fill="#000000">&lt; 2</text>
<polygon fill="#ffffff" stroke="transparent" points="541,-420.2 541,-439.2 569,-439.2 569,-420.2 541,-420.2"/>
<polygon fill="none" stroke="#000000" points="541,-420.2 541,-439.2 569,-439.2 569,-420.2 541,-420.2"/>
<text text-anchor="start" x="559.8862" y="-426.3" font-family="Helvetica,sans-Serif" font-size="11.00" fill="#000000"> &#160;</text>
<polygon fill="#ffffff" stroke="transparent" points="569,-420.2 569,-439.2 597,-439.2 597,-420.2 569,-420.2"/>
<polygon fill="none" stroke="#000000" points="569,-420.2 569,-439.2 597,-439.2 597,-420.2 569,-420.2"/>
<text text-anchor="start" x="587.8862" y="-426.3" font-family="Helvetica,sans-Serif" font-size="11.00" fill="#000000"> &#160;</text>
</a>
</g>
</g>
<!-- risico&#45;&gt;object -->
<g id="edge6" class="edge">
<title>risico:w&#45;&gt;object:e</title>
<path fill="none" stroke="#000000" d="M473.8684,-495.0731C449.3904,-511.7016 469.4486,-576.2 429.5,-576.2"/>
<polygon fill="#000000" stroke="#000000" points="480.2845,-493.3147 488.9516,-494.672 484.1423,-492.2573 488,-491.2 488,-491.2 488,-491.2 484.1423,-492.2573 487.0484,-487.728 480.2845,-493.3147 480.2845,-493.3147"/>
<ellipse fill="none" stroke="#000000" cx="477.1984" cy="-494.1605" rx="3.2" ry="3.2"/>
</g>
<!-- sector -->
<g id="node8" class="node">
<title>sector</title>
<g id="a_node8"><a xlink:href="../../tables/sector.html" xlink:title="sector" target="_top">
<polygon fill="#ffffff" stroke="transparent" points="487.5,-250.7 487.5,-399.7 596.5,-399.7 596.5,-250.7 487.5,-250.7"/>
<polygon fill="#f5f5f5" stroke="transparent" points="488,-376.2 488,-399.2 597,-399.2 597,-376.2 488,-376.2"/>
<polygon fill="none" stroke="#000000" points="488,-376.2 488,-399.2 597,-399.2 597,-376.2 488,-376.2"/>
<text text-anchor="start" x="493" y="-384.8" font-family="Helvetica,sans-Serif" font-weight="bold" font-size="11.00" fill="#000000">sector</text>
<text text-anchor="start" x="562.0437" y="-384.3" font-family="Helvetica,sans-Serif" font-size="11.00" fill="#000000">[table]</text>
<polygon fill="none" stroke="#000000" points="488,-354.2 488,-376.2 597,-376.2 597,-354.2 488,-354.2"/>
<image xlink:href="../../images/primaryKeys.png" width="11px" height="12px" preserveAspectRatio="xMinYMin meet" x="493" y="-371.2"/>
<text text-anchor="start" x="508" y="-361.3" font-family="Helvetica,sans-Serif" font-size="11.00" fill="#000000">uuid</text>
<polygon fill="#ffffff" stroke="transparent" points="488,-332.2 488,-354.2 597,-354.2 597,-332.2 488,-332.2"/>
<polygon fill="none" stroke="#000000" points="488,-332.2 488,-354.2 597,-354.2 597,-332.2 488,-332.2"/>
<text text-anchor="start" x="508" y="-339.3" font-family="Helvetica,sans-Serif" font-size="11.00" fill="#000000">geom</text>
<polygon fill="#ffffff" stroke="transparent" points="488,-310.2 488,-332.2 597,-332.2 597,-310.2 488,-310.2"/>
<polygon fill="none" stroke="#000000" points="488,-310.2 488,-332.2 597,-332.2 597,-310.2 488,-310.2"/>
<image xlink:href="../../images/foreignKeys.png" width="11px" height="12px" preserveAspectRatio="xMinYMin meet" x="493" y="-327.2"/>
<text text-anchor="start" x="508" y="-317.3" font-family="Helvetica,sans-Serif" font-size="11.00" fill="#000000">object_uuid</text>
<polygon fill="none" stroke="#000000" points="488,-288.2 488,-310.2 597,-310.2 597,-288.2 488,-288.2"/>
<image xlink:href="../../images/foreignKeys.png" width="11px" height="12px" preserveAspectRatio="xMinYMin meet" x="493" y="-305.2"/>
<text text-anchor="start" x="508" y="-295.3" font-family="Helvetica,sans-Serif" font-size="11.00" fill="#000000">zone_id</text>
<polygon fill="none" stroke="#000000" points="488,-269.2 488,-288.2 597,-288.2 597,-269.2 488,-269.2"/>
<text text-anchor="start" x="491" y="-275.3" font-family="Helvetica,sans-Serif" font-size="11.00" fill="#000000">...</text>
<polygon fill="#ffffff" stroke="transparent" points="488,-250.2 488,-269.2 541,-269.2 541,-250.2 488,-250.2"/>
<polygon fill="none" stroke="#000000" points="488,-250.2 488,-269.2 541,-269.2 541,-250.2 488,-250.2"/>
<text text-anchor="start" x="491" y="-256.3" font-family="Helvetica,sans-Serif" font-size="11.00" fill="#000000">&lt; 2</text>
<polygon fill="#ffffff" stroke="transparent" points="541,-250.2 541,-269.2 569,-269.2 569,-250.2 541,-250.2"/>
<polygon fill="none" stroke="#000000" points="541,-250.2 541,-269.2 569,-269.2 569,-250.2 541,-250.2"/>
<text text-anchor="start" x="559.8862" y="-256.3" font-family="Helvetica,sans-Serif" font-size="11.00" fill="#000000"> &#160;</text>
<polygon fill="#ffffff" stroke="transparent" points="569,-250.2 569,-269.2 597,-269.2 597,-250.2 569,-250.2"/>
<polygon fill="none" stroke="#000000" points="569,-250.2 569,-269.2 597,-269.2 597,-250.2 569,-250.2"/>
<text text-anchor="start" x="587.8862" y="-256.3" font-family="Helvetica,sans-Serif" font-size="11.00" fill="#000000"> &#160;</text>
</a>
</g>
</g>
<!-- sector&#45;&gt;object -->
<g id="edge7" class="edge">
<title>sector:w&#45;&gt;object:e</title>
<path fill="none" stroke="#000000" d="M473.5025,-322.8284C387.4023,-344.5459 540.3269,-576.2 429.5,-576.2"/>
<polygon fill="#000000" stroke="#000000" points="480.05,-322.093 488.4019,-324.7775 484.025,-321.6465 488,-321.2 488,-321.2 488,-321.2 484.025,-321.6465 487.5981,-317.6225 480.05,-322.093 480.05,-322.093"/>
<ellipse fill="none" stroke="#000000" cx="476.87" cy="-322.4502" rx="3.2" ry="3.2"/>
</g>
<!-- voorziening -->
<g id="node9" class="node">
<title>voorziening</title>
<g id="a_node9"><a xlink:href="../../tables/voorziening.html" xlink:title="voorziening" target="_top">
<polygon fill="#ffffff" stroke="transparent" points="487.5,-80.7 487.5,-229.7 596.5,-229.7 596.5,-80.7 487.5,-80.7"/>
<polygon fill="#f5f5f5" stroke="transparent" points="488,-206.2 488,-229.2 597,-229.2 597,-206.2 488,-206.2"/>
<polygon fill="none" stroke="#000000" points="488,-206.2 488,-229.2 597,-229.2 597,-206.2 488,-206.2"/>
<text text-anchor="start" x="493" y="-214.8" font-family="Helvetica,sans-Serif" font-weight="bold" font-size="11.00" fill="#000000">voorziening</text>
<text text-anchor="start" x="562.0437" y="-214.3" font-family="Helvetica,sans-Serif" font-size="11.00" fill="#000000">[table]</text>
<polygon fill="none" stroke="#000000" points="488,-184.2 488,-206.2 597,-206.2 597,-184.2 488,-184.2"/>
<image xlink:href="../../images/primaryKeys.png" width="11px" height="12px" preserveAspectRatio="xMinYMin meet" x="493" y="-201.2"/>
<text text-anchor="start" x="508" y="-191.3" font-family="Helvetica,sans-Serif" font-size="11.00" fill="#000000">uuid</text>
<polygon fill="#ffffff" stroke="transparent" points="488,-162.2 488,-184.2 597,-184.2 597,-162.2 488,-162.2"/>
<polygon fill="none" stroke="#000000" points="488,-162.2 488,-184.2 597,-184.2 597,-162.2 488,-162.2"/>
<text text-anchor="start" x="508" y="-169.3" font-family="Helvetica,sans-Serif" font-size="11.00" fill="#000000">geom</text>
<polygon fill="#ffffff" stroke="transparent" points="488,-140.2 488,-162.2 597,-162.2 597,-140.2 488,-140.2"/>
<polygon fill="none" stroke="#000000" points="488,-140.2 488,-162.2 597,-162.2 597,-140.2 488,-140.2"/>
<image xlink:href="../../images/foreignKeys.png" width="11px" height="12px" preserveAspectRatio="xMinYMin meet" x="493" y="-157.2"/>
<text text-anchor="start" x="508" y="-147.3" font-family="Helvetica,sans-Serif" font-size="11.00" fill="#000000">object_uuid</text>
<polygon fill="none" stroke="#000000" points="488,-118.2 488,-140.2 597,-140.2 597,-118.2 488,-118.2"/>
<image xlink:href="../../images/foreignKeys.png" width="11px" height="12px" preserveAspectRatio="xMinYMin meet" x="493" y="-135.2"/>
<text text-anchor="start" x="508" y="-125.3" font-family="Helvetica,sans-Serif" font-size="11.00" fill="#000000">symbool_id</text>
<polygon fill="none" stroke="#000000" points="488,-99.2 488,-118.2 597,-118.2 597,-99.2 488,-99.2"/>
<text text-anchor="start" x="491" y="-105.3" font-family="Helvetica,sans-Serif" font-size="11.00" fill="#000000">...</text>
<polygon fill="#ffffff" stroke="transparent" points="488,-80.2 488,-99.2 541,-99.2 541,-80.2 488,-80.2"/>
<polygon fill="none" stroke="#000000" points="488,-80.2 488,-99.2 541,-99.2 541,-80.2 488,-80.2"/>
<text text-anchor="start" x="491" y="-86.3" font-family="Helvetica,sans-Serif" font-size="11.00" fill="#000000">&lt; 2</text>
<polygon fill="#ffffff" stroke="transparent" points="541,-80.2 541,-99.2 569,-99.2 569,-80.2 541,-80.2"/>
<polygon fill="none" stroke="#000000" points="541,-80.2 541,-99.2 569,-99.2 569,-80.2 541,-80.2"/>
<text text-anchor="start" x="559.8862" y="-86.3" font-family="Helvetica,sans-Serif" font-size="11.00" fill="#000000"> &#160;</text>
<polygon fill="#ffffff" stroke="transparent" points="569,-80.2 569,-99.2 597,-99.2 597,-80.2 569,-80.2"/>
<polygon fill="none" stroke="#000000" points="569,-80.2 569,-99.2 597,-99.2 597,-80.2 569,-80.2"/>
<text text-anchor="start" x="587.8862" y="-86.3" font-family="Helvetica,sans-Serif" font-size="11.00" fill="#000000"> &#160;</text>
</a>
</g>
</g>
<!-- voorziening&#45;&gt;object -->
<g id="edge8" class="edge">
<title>voorziening:w&#45;&gt;object:e</title>
<path fill="none" stroke="#000000" d="M473.9074,-155.1359C406.9075,-197.9811 519.4351,-576.2 429.5,-576.2"/>
<polygon fill="#000000" stroke="#000000" points="480.2949,-153.352 488.9684,-154.6673 484.1474,-152.276 488,-151.2 488,-151.2 488,-151.2 484.1474,-152.276 487.0316,-147.7327 480.2949,-153.352 480.2949,-153.352"/>
<ellipse fill="none" stroke="#000000" cx="477.2128" cy="-154.2128" rx="3.2" ry="3.2"/>
</g>
</g>
</svg>
