<?xml version="1.0" encoding="UTF-8" standalone="no"?>
<!DOCTYPE svg PUBLIC "-//W3C//DTD SVG 1.1//EN"
 "http://www.w3.org/Graphics/SVG/1.1/DTD/svg11.dtd">
<!-- Generated by graphviz version 2.50.0 (0)
 -->
<!-- Title: twoDegreesRelationshipsDiagram Pages: 1 -->
<svg width="630pt" height="708pt"
 viewBox="0.00 0.00 630.00 708.00" xmlns="http://www.w3.org/2000/svg" xmlns:xlink="http://www.w3.org/1999/xlink">
<g id="graph0" class="graph" transform="scale(1 1) rotate(0) translate(4 704)">
<title>twoDegreesRelationshipsDiagram</title>
<polygon fill="#ffffff" stroke="transparent" points="-4,4 -4,-704 626,-704 626,4 -4,4"/>
<text text-anchor="middle" x="79.5" y="-7.2" font-family="Helvetica,sans-Serif" font-size="11.00">Generated by SchemaSpy</text>
<!-- bereikbaarheid -->
<g id="node1" class="node">
<title>bereikbaarheid</title>
<g id="a_node1"><a xlink:href="../../tables/bereikbaarheid.html" xlink:title="bereikbaarheid" target="_top">
<polygon fill="#ffffff" stroke="transparent" points="414.5,-638 414.5,-696 559.5,-696 559.5,-638 414.5,-638"/>
<polygon fill="#f5f5f5" stroke="transparent" points="415,-674 415,-696 560,-696 560,-674 415,-674"/>
<polygon fill="none" stroke="black" points="415,-674 415,-696 560,-696 560,-674 415,-674"/>
<text text-anchor="start" x="420" y="-683.2" font-family="Helvetica,sans-Serif" font-weight="bold" font-size="11.00">bereikbaarheid</text>
<text text-anchor="start" x="518" y="-682.2" font-family="Helvetica,sans-Serif" font-size="11.00">[table]</text>
<polygon fill="none" stroke="black" points="415,-656 415,-674 560,-674 560,-656 415,-656"/>
<text text-anchor="start" x="418" y="-662.2" font-family="Helvetica,sans-Serif" font-size="11.00">...</text>
<polygon fill="#ffffff" stroke="transparent" points="415,-638 415,-656 486,-656 486,-638 415,-638"/>
<polygon fill="none" stroke="black" points="415,-638 415,-656 486,-656 486,-638 415,-638"/>
<text text-anchor="start" x="418" y="-644.2" font-family="Helvetica,sans-Serif" font-size="11.00">&lt; 2</text>
<polygon fill="#ffffff" stroke="transparent" points="486,-638 486,-656 523,-656 523,-638 486,-638"/>
<polygon fill="none" stroke="black" points="486,-638 486,-656 523,-656 523,-638 486,-638"/>
<text text-anchor="start" x="512" y="-644.2" font-family="Helvetica,sans-Serif" font-size="11.00"> &#160;</text>
<polygon fill="#ffffff" stroke="transparent" points="523,-638 523,-656 560,-656 560,-638 523,-638"/>
<polygon fill="none" stroke="black" points="523,-638 523,-656 560,-656 560,-638 523,-638"/>
<text text-anchor="start" x="549" y="-644.2" font-family="Helvetica,sans-Serif" font-size="11.00"> &#160;</text>
</a>
</g>
</g>
<!-- object -->
<g id="node2" class="node">
<title>object</title>
<g id="a_node2"><a xlink:href="../../tables/object.html" xlink:title="object" target="_top">
<polygon fill="#ffffff" stroke="transparent" points="180,-310 180,-500 311,-500 311,-310 180,-310"/>
<polygon fill="#f5f5f5" stroke="transparent" points="180.5,-478 180.5,-500 311.5,-500 311.5,-478 180.5,-478"/>
<polygon fill="none" stroke="black" points="180.5,-478 180.5,-500 311.5,-500 311.5,-478 180.5,-478"/>
<text text-anchor="start" x="185.5" y="-487.2" font-family="Helvetica,sans-Serif" font-weight="bold" font-size="11.00">object</text>
<text text-anchor="start" x="269.5" y="-486.2" font-family="Helvetica,sans-Serif" font-size="11.00">[table]</text>
<polygon fill="none" stroke="black" points="180.5,-456 180.5,-478 311.5,-478 311.5,-456 180.5,-456"/>
<image xlink:href="../../images/primaryKeys.png" width="11px" height="12px" preserveAspectRatio="xMinYMin meet" x="185.5" y="-473"/>
<text text-anchor="start" x="200.5" y="-464.2" font-family="Helvetica,sans-Serif" font-size="11.00">uuid</text>
<polygon fill="#ffffff" stroke="transparent" points="180.5,-434 180.5,-456 311.5,-456 311.5,-434 180.5,-434"/>
<polygon fill="none" stroke="black" points="180.5,-434 180.5,-456 311.5,-456 311.5,-434 180.5,-434"/>
<text text-anchor="start" x="200.5" y="-442.2" font-family="Helvetica,sans-Serif" font-size="11.00">geom</text>
<polygon fill="#ffffff" stroke="transparent" points="180.5,-412 180.5,-434 311.5,-434 311.5,-412 180.5,-412"/>
<polygon fill="none" stroke="black" points="180.5,-412 180.5,-434 311.5,-434 311.5,-412 180.5,-412"/>
<text text-anchor="start" x="200.5" y="-420.2" font-family="Helvetica,sans-Serif" font-size="11.00">revisie_frequentie</text>
<polygon fill="#ffffff" stroke="transparent" points="180.5,-390 180.5,-412 311.5,-412 311.5,-390 180.5,-390"/>
<polygon fill="none" stroke="black" points="180.5,-390 180.5,-412 311.5,-412 311.5,-390 180.5,-390"/>
<image xlink:href="../../images/foreignKeys.png" width="11px" height="12px" preserveAspectRatio="xMinYMin meet" x="185.5" y="-407"/>
<text text-anchor="start" x="200.5" y="-398.2" font-family="Helvetica,sans-Serif" font-size="11.00">fase_id</text>
<polygon fill="#ffffff" stroke="transparent" points="180.5,-368 180.5,-390 311.5,-390 311.5,-368 180.5,-368"/>
<polygon fill="none" stroke="black" points="180.5,-368 180.5,-390 311.5,-390 311.5,-368 180.5,-368"/>
<image xlink:href="../../images/foreignKeys.png" width="11px" height="12px" preserveAspectRatio="xMinYMin meet" x="185.5" y="-385"/>
<text text-anchor="start" x="200.5" y="-376.2" font-family="Helvetica,sans-Serif" font-size="11.00">object_type_id</text>
<polygon fill="#ffffff" stroke="transparent" points="180.5,-346 180.5,-368 311.5,-368 311.5,-346 180.5,-346"/>
<polygon fill="none" stroke="black" points="180.5,-346 180.5,-368 311.5,-368 311.5,-346 180.5,-346"/>
<text text-anchor="start" x="200.5" y="-354.2" font-family="Helvetica,sans-Serif" font-size="11.00">periode</text>
<polygon fill="none" stroke="black" points="180.5,-328 180.5,-346 311.5,-346 311.5,-328 180.5,-328"/>
<text text-anchor="start" x="183.5" y="-334.2" font-family="Helvetica,sans-Serif" font-size="11.00">...</text>
<polygon fill="#ffffff" stroke="transparent" points="180.5,-310 180.5,-328 238.5,-328 238.5,-310 180.5,-310"/>
<polygon fill="none" stroke="black" points="180.5,-310 180.5,-328 238.5,-328 238.5,-310 180.5,-310"/>
<text text-anchor="start" x="183.5" y="-316.2" font-family="Helvetica,sans-Serif" font-size="11.00">&lt; 2</text>
<polygon fill="#ffffff" stroke="transparent" points="238.5,-310 238.5,-328 268.5,-328 268.5,-310 238.5,-310"/>
<polygon fill="none" stroke="black" points="238.5,-310 238.5,-328 268.5,-328 268.5,-310 238.5,-310"/>
<text text-anchor="start" x="257.5" y="-316.2" font-family="Helvetica,sans-Serif" font-size="11.00"> &#160;</text>
<polygon fill="#ffffff" stroke="transparent" points="268.5,-310 268.5,-328 311.5,-328 311.5,-310 268.5,-310"/>
<polygon fill="none" stroke="black" points="268.5,-310 268.5,-328 311.5,-328 311.5,-310 268.5,-310"/>
<text text-anchor="start" x="288.5" y="-316.2" font-family="Helvetica,sans-Serif" font-size="11.00">6 &gt;</text>
</a>
</g>
</g>
<!-- bereikbaarheid&#45;&gt;object -->
<g id="edge1" class="edge">
<title>bereikbaarheid:w&#45;&gt;object:e</title>
<path fill="none" stroke="black" d="M399.49,-664.04C378.04,-660.83 367.87,-649.47 352,-628 308.2,-568.76 386.18,-467 312.5,-467"/>
<polygon fill="black" stroke="black" points="406.02,-664.47 413.76,-668.59 410.01,-664.73 414,-665 414,-665 414,-665 410.01,-664.73 414.24,-661.41 406.02,-664.47 406.02,-664.47"/>
<ellipse fill="none" stroke="black" cx="402.82" cy="-664.26" rx="3.2" ry="3.2"/>
</g>
<!-- roi.fase -->
<g id="node4" class="node">
<title>roi.fase</title>
<g id="a_node4"><a xlink:href="../../../roi/tables/fase.html" xlink:title="roi.fase" target="_top">
<polygon fill="#ffffff" stroke="transparent" points="20,-402 20,-460 119,-460 119,-402 20,-402"/>
<polygon fill="#f5f5f5" stroke="transparent" points="20.5,-438 20.5,-460 119.5,-460 119.5,-438 20.5,-438"/>
<polygon fill="none" stroke="black" points="20.5,-438 20.5,-460 119.5,-460 119.5,-438 20.5,-438"/>
<text text-anchor="start" x="25.5" y="-447.2" font-family="Helvetica,sans-Serif" font-weight="bold" font-size="11.00">roi.fase</text>
<text text-anchor="start" x="77.5" y="-446.2" font-family="Helvetica,sans-Serif" font-size="11.00">[table]</text>
<polygon fill="none" stroke="black" points="20.5,-420 20.5,-438 119.5,-438 119.5,-420 20.5,-420"/>
<text text-anchor="start" x="23.5" y="-426.2" font-family="Helvetica,sans-Serif" font-size="11.00">...</text>
<polygon fill="#ffffff" stroke="transparent" points="20.5,-402 20.5,-420 56.5,-420 56.5,-402 20.5,-402"/>
<polygon fill="none" stroke="black" points="20.5,-402 20.5,-420 56.5,-420 56.5,-402 20.5,-402"/>
<text text-anchor="start" x="23.5" y="-408.2" font-family="Helvetica,sans-Serif" font-size="11.00"> &#160;</text>
<polygon fill="#ffffff" stroke="transparent" points="56.5,-402 56.5,-420 81.5,-420 81.5,-402 56.5,-402"/>
<polygon fill="none" stroke="black" points="56.5,-402 56.5,-420 81.5,-420 81.5,-402 56.5,-402"/>
<text text-anchor="start" x="70.5" y="-408.2" font-family="Helvetica,sans-Serif" font-size="11.00"> &#160;</text>
<polygon fill="#ffffff" stroke="transparent" points="81.5,-402 81.5,-420 119.5,-420 119.5,-402 81.5,-402"/>
<polygon fill="none" stroke="black" points="81.5,-402 81.5,-420 119.5,-420 119.5,-402 81.5,-402"/>
<text text-anchor="start" x="96.5" y="-408.2" font-family="Helvetica,sans-Serif" font-size="11.00">1 &gt;</text>
</a>
</g>
</g>
<!-- object&#45;&gt;roi.fase -->
<g id="edge3" class="edge">
<title>object:w&#45;&gt;roi.fase:e</title>
<path fill="none" stroke="black" d="M165.29,-403.79C149.03,-410.87 143.86,-429 120.5,-429"/>
<polygon fill="black" stroke="black" points="171.65,-402.54 180.19,-404.53 175.57,-401.77 179.5,-401 179.5,-401 179.5,-401 175.57,-401.77 178.81,-397.47 171.65,-402.54 171.65,-402.54"/>
<ellipse fill="none" stroke="black" cx="168.51" cy="-403.16" rx="3.2" ry="3.2"/>
</g>
<!-- object_type -->
<g id="node5" class="node">
<title>object_type</title>
<g id="a_node5"><a xlink:href="../../tables/object_type.html" xlink:title="object_type" target="_top">
<polygon fill="#ffffff" stroke="transparent" points="8,-323 8,-381 131,-381 131,-323 8,-323"/>
<polygon fill="#f5f5f5" stroke="transparent" points="8.5,-359 8.5,-381 131.5,-381 131.5,-359 8.5,-359"/>
<polygon fill="none" stroke="black" points="8.5,-359 8.5,-381 131.5,-381 131.5,-359 8.5,-359"/>
<text text-anchor="start" x="13.5" y="-368.2" font-family="Helvetica,sans-Serif" font-weight="bold" font-size="11.00">object_type</text>
<text text-anchor="start" x="89.5" y="-367.2" font-family="Helvetica,sans-Serif" font-size="11.00">[table]</text>
<polygon fill="none" stroke="black" points="8.5,-341 8.5,-359 131.5,-359 131.5,-341 8.5,-341"/>
<text text-anchor="start" x="11.5" y="-347.2" font-family="Helvetica,sans-Serif" font-size="11.00">...</text>
<polygon fill="#ffffff" stroke="transparent" points="8.5,-323 8.5,-341 56.5,-341 56.5,-323 8.5,-323"/>
<polygon fill="none" stroke="black" points="8.5,-323 8.5,-341 56.5,-341 56.5,-323 8.5,-323"/>
<text text-anchor="start" x="11.5" y="-329.2" font-family="Helvetica,sans-Serif" font-size="11.00"> &#160;</text>
<polygon fill="#ffffff" stroke="transparent" points="56.5,-323 56.5,-341 87.5,-341 87.5,-323 56.5,-323"/>
<polygon fill="none" stroke="black" points="56.5,-323 56.5,-341 87.5,-341 87.5,-323 56.5,-323"/>
<text text-anchor="start" x="76.5" y="-329.2" font-family="Helvetica,sans-Serif" font-size="11.00"> &#160;</text>
<polygon fill="#ffffff" stroke="transparent" points="87.5,-323 87.5,-341 131.5,-341 131.5,-323 87.5,-323"/>
<polygon fill="none" stroke="black" points="87.5,-323 87.5,-341 131.5,-341 131.5,-323 87.5,-323"/>
<text text-anchor="start" x="108.5" y="-329.2" font-family="Helvetica,sans-Serif" font-size="11.00">1 &gt;</text>
</a>
</g>
</g>
<!-- object&#45;&gt;object_type -->
<g id="edge4" class="edge">
<title>object:w&#45;&gt;object_type:e</title>
<path fill="none" stroke="black" d="M165.6,-374.72C154.41,-366.65 151.1,-350 132.5,-350"/>
<polygon fill="black" stroke="black" points="171.85,-376.65 178.44,-382.44 175.68,-377.82 179.5,-379 179.5,-379 179.5,-379 175.68,-377.82 180.56,-375.56 171.85,-376.65 171.85,-376.65"/>
<ellipse fill="none" stroke="black" cx="168.8" cy="-375.71" rx="3.2" ry="3.2"/>
</g>
<!-- label -->
<g id="node3" class="node">
<title>label</title>
<g id="a_node3"><a xlink:href="../../tables/label.html" xlink:title="label" target="_top">
<polygon fill="#ffffff" stroke="transparent" points="446,-559 446,-617 528,-617 528,-559 446,-559"/>
<polygon fill="#f5f5f5" stroke="transparent" points="446,-595 446,-617 528,-617 528,-595 446,-595"/>
<polygon fill="none" stroke="black" points="446,-595 446,-617 528,-617 528,-595 446,-595"/>
<text text-anchor="start" x="451" y="-604.2" font-family="Helvetica,sans-Serif" font-weight="bold" font-size="11.00">label</text>
<text text-anchor="start" x="486" y="-603.2" font-family="Helvetica,sans-Serif" font-size="11.00">[table]</text>
<polygon fill="none" stroke="black" points="446,-577 446,-595 528,-595 528,-577 446,-577"/>
<text text-anchor="start" x="449" y="-583.2" font-family="Helvetica,sans-Serif" font-size="11.00">...</text>
<polygon fill="#ffffff" stroke="transparent" points="446,-559 446,-577 486,-577 486,-559 446,-559"/>
<polygon fill="none" stroke="black" points="446,-559 446,-577 486,-577 486,-559 446,-559"/>
<text text-anchor="start" x="449" y="-565.2" font-family="Helvetica,sans-Serif" font-size="11.00">&lt; 2</text>
<polygon fill="#ffffff" stroke="transparent" points="486,-559 486,-577 507,-577 507,-559 486,-559"/>
<polygon fill="none" stroke="black" points="486,-559 486,-577 507,-577 507,-559 486,-559"/>
<text text-anchor="start" x="496" y="-565.2" font-family="Helvetica,sans-Serif" font-size="11.00"> &#160;</text>
<polygon fill="#ffffff" stroke="transparent" points="507,-559 507,-577 528,-577 528,-559 507,-559"/>
<polygon fill="none" stroke="black" points="507,-559 507,-577 528,-577 528,-559 507,-559"/>
<text text-anchor="start" x="517" y="-565.2" font-family="Helvetica,sans-Serif" font-size="11.00"> &#160;</text>
</a>
</g>
</g>
<!-- label&#45;&gt;object -->
<g id="edge2" class="edge">
<title>label:w&#45;&gt;object:e</title>
<path fill="none" stroke="black" d="M430.46,-585.7C396.54,-584.11 380.73,-575.78 352,-549 322.41,-521.42 352.95,-467 312.5,-467"/>
<polygon fill="black" stroke="black" points="437,-585.83 444.93,-589.6 441,-585.92 445,-586 445,-586 445,-586 441,-585.92 445.07,-582.4 437,-585.83 437,-585.83"/>
<ellipse fill="none" stroke="black" cx="433.8" cy="-585.77" rx="3.2" ry="3.2"/>
</g>
<!-- opstelplaats -->
<g id="node6" class="node">
<title>opstelplaats</title>
<g id="a_node6"><a xlink:href="../../tables/opstelplaats.html" xlink:title="opstelplaats" target="_top">
<polygon fill="#ffffff" stroke="transparent" points="360,-37 360,-301 614,-301 614,-37 360,-37"/>
<polygon fill="#f5f5f5" stroke="transparent" points="362,-277 362,-299 612,-299 612,-277 362,-277"/>
<polygon fill="none" stroke="black" points="362,-277 362,-299 612,-299 612,-277 362,-277"/>
<text text-anchor="start" x="367" y="-286.2" font-family="Helvetica,sans-Serif" font-weight="bold" font-size="11.00">opstelplaats</text>
<text text-anchor="start" x="570" y="-285.2" font-family="Helvetica,sans-Serif" font-size="11.00">[table]</text>
<polygon fill="none" stroke="black" points="362,-255 362,-277 476,-277 476,-255 362,-255"/>
<image xlink:href="../../images/primaryKeys.png" width="11px" height="12px" preserveAspectRatio="xMinYMin meet" x="367" y="-272"/>
<text text-anchor="start" x="382" y="-263.2" font-family="Helvetica,sans-Serif" font-size="11.00">uuid</text>
<polygon fill="none" stroke="black" points="476,-255 476,-277 612,-277 612,-255 476,-255"/>
<text text-anchor="start" x="479" y="-263.2" font-family="Helvetica,sans-Serif" font-size="11.00">uuid[2147483647]</text>
<polygon fill="#ffffff" stroke="transparent" points="362,-233 362,-255 476,-255 476,-233 362,-233"/>
<polygon fill="none" stroke="black" points="362,-233 362,-255 476,-255 476,-233 362,-233"/>
<text text-anchor="start" x="382" y="-241.2" font-family="Helvetica,sans-Serif" font-size="11.00">geom</text>
<polygon fill="none" stroke="black" points="476,-233 476,-255 612,-255 612,-233 476,-233"/>
<text text-anchor="start" x="479" y="-241.2" font-family="Helvetica,sans-Serif" font-size="11.00">geometry[2147483647]</text>
<polygon fill="none" stroke="black" points="362,-211 362,-233 476,-233 476,-211 362,-211"/>
<text text-anchor="start" x="382" y="-219.2" font-family="Helvetica,sans-Serif" font-size="11.00">datumtijd</text>
<polygon fill="none" stroke="black" points="476,-211 476,-233 612,-233 612,-211 476,-211"/>
<text text-anchor="start" x="479" y="-219.2" font-family="Helvetica,sans-Serif" font-size="11.00">timestamptz[35,6]</text>
<polygon fill="none" stroke="black" points="362,-189 362,-211 476,-211 476,-189 362,-189"/>
<text text-anchor="start" x="382" y="-197.2" font-family="Helvetica,sans-Serif" font-size="11.00">gebruiker</text>
<polygon fill="none" stroke="black" points="476,-189 476,-211 612,-211 612,-189 476,-189"/>
<text text-anchor="start" x="479" y="-197.2" font-family="Helvetica,sans-Serif" font-size="11.00">varchar[255]</text>
<polygon fill="none" stroke="black" points="362,-167 362,-189 476,-189 476,-167 362,-167"/>
<text text-anchor="start" x="382" y="-175.2" font-family="Helvetica,sans-Serif" font-size="11.00">label</text>
<polygon fill="none" stroke="black" points="476,-167 476,-189 612,-189 612,-167 476,-167"/>
<text text-anchor="start" x="479" y="-175.2" font-family="Helvetica,sans-Serif" font-size="11.00">text[2147483647]</text>
<polygon fill="none" stroke="black" points="362,-145 362,-167 476,-167 476,-145 362,-145"/>
<text text-anchor="start" x="382" y="-153.2" font-family="Helvetica,sans-Serif" font-size="11.00">rotatie</text>
<polygon fill="none" stroke="black" points="476,-145 476,-167 612,-167 612,-145 476,-145"/>
<text text-anchor="start" x="479" y="-153.2" font-family="Helvetica,sans-Serif" font-size="11.00">int4[10]</text>
<polygon fill="none" stroke="black" points="362,-123 362,-145 476,-145 476,-123 362,-123"/>
<text text-anchor="start" x="382" y="-131.2" font-family="Helvetica,sans-Serif" font-size="11.00">bijzonderheden</text>
<polygon fill="none" stroke="black" points="476,-123 476,-145 612,-145 612,-123 476,-123"/>
<text text-anchor="start" x="479" y="-131.2" font-family="Helvetica,sans-Serif" font-size="11.00">text[2147483647]</text>
<polygon fill="none" stroke="black" points="362,-101 362,-123 476,-123 476,-101 362,-101"/>
<text text-anchor="start" x="382" y="-109.2" font-family="Helvetica,sans-Serif" font-size="11.00">plusinfo</text>
<polygon fill="none" stroke="black" points="476,-101 476,-123 612,-123 612,-101 476,-101"/>
<text text-anchor="start" x="479" y="-109.2" font-family="Helvetica,sans-Serif" font-size="11.00">jsonb[2147483647]</text>
<polygon fill="#ffffff" stroke="transparent" points="362,-79 362,-101 476,-101 476,-79 362,-79"/>
<polygon fill="none" stroke="black" points="362,-79 362,-101 476,-101 476,-79 362,-79"/>
<image xlink:href="../../images/foreignKeys.png" width="11px" height="12px" preserveAspectRatio="xMinYMin meet" x="367" y="-96"/>
<text text-anchor="start" x="382" y="-87.2" font-family="Helvetica,sans-Serif" font-size="11.00">object_uuid</text>
<polygon fill="none" stroke="black" points="476,-79 476,-101 612,-101 612,-79 476,-79"/>
<text text-anchor="start" x="479" y="-87.2" font-family="Helvetica,sans-Serif" font-size="11.00">uuid[2147483647]</text>
<polygon fill="none" stroke="black" points="362,-57 362,-79 476,-79 476,-57 362,-57"/>
<image xlink:href="../../images/foreignKeys.png" width="11px" height="12px" preserveAspectRatio="xMinYMin meet" x="367" y="-74"/>
<text text-anchor="start" x="382" y="-65.2" font-family="Helvetica,sans-Serif" font-size="11.00">voertuig_id</text>
<polygon fill="none" stroke="black" points="476,-57 476,-79 612,-79 612,-57 476,-57"/>
<text text-anchor="start" x="479" y="-65.2" font-family="Helvetica,sans-Serif" font-size="11.00">int4[10]</text>
<polygon fill="#ffffff" stroke="transparent" points="362,-39 362,-57 425,-57 425,-39 362,-39"/>
<polygon fill="none" stroke="black" points="362,-39 362,-57 425,-57 425,-39 362,-39"/>
<text text-anchor="start" x="365" y="-45.2" font-family="Helvetica,sans-Serif" font-size="11.00">&lt; 2</text>
<polygon fill="#ffffff" stroke="transparent" points="425,-39 425,-57 476,-57 476,-39 425,-39"/>
<polygon fill="none" stroke="black" points="425,-39 425,-57 476,-57 476,-39 425,-39"/>
<text text-anchor="start" x="465" y="-45.2" font-family="Helvetica,sans-Serif" font-size="11.00"> &#160;</text>
<polygon fill="#ffffff" stroke="transparent" points="476,-39 476,-57 612,-57 612,-39 476,-39"/>
<polygon fill="none" stroke="black" points="476,-39 476,-57 612,-57 612,-39 476,-39"/>
<text text-anchor="start" x="589" y="-45.2" font-family="Helvetica,sans-Serif" font-size="11.00">0 &gt;</text>
<polygon fill="none" stroke="black" stroke-width="2" points="361,-38 361,-300 613,-300 613,-38 361,-38"/>
</a>
</g>
</g>
<!-- opstelplaats&#45;&gt;object -->
<g id="edge5" class="edge">
<title>opstelplaats:w&#45;&gt;object:e</title>
<path fill="none" stroke="black" d="M347.11,-94.5C291.21,-137.03 391.52,-467 312.5,-467"/>
<polygon fill="black" stroke="black" points="353.39,-92.46 362.11,-93.42 357.19,-91.23 361,-90 361,-90 361,-90 357.19,-91.23 359.89,-86.58 353.39,-92.46 353.39,-92.46"/>
<ellipse fill="none" stroke="black" cx="350.34" cy="-93.45" rx="3.2" ry="3.2"/>
</g>
<!-- roi.voertuig -->
<g id="node7" class="node">
<title>roi.voertuig</title>
<g id="a_node7"><a xlink:href="../../../roi/tables/voertuig.html" xlink:title="roi.voertuig" target="_top">
<polygon fill="#ffffff" stroke="transparent" points="183.5,-39 183.5,-97 307.5,-97 307.5,-39 183.5,-39"/>
<polygon fill="#f5f5f5" stroke="transparent" points="183.5,-75 183.5,-97 307.5,-97 307.5,-75 183.5,-75"/>
<polygon fill="none" stroke="black" points="183.5,-75 183.5,-97 307.5,-97 307.5,-75 183.5,-75"/>
<text text-anchor="start" x="188.5" y="-84.2" font-family="Helvetica,sans-Serif" font-weight="bold" font-size="11.00">roi.voertuig</text>
<text text-anchor="start" x="265.5" y="-83.2" font-family="Helvetica,sans-Serif" font-size="11.00">[table]</text>
<polygon fill="none" stroke="black" points="183.5,-57 183.5,-75 307.5,-75 307.5,-57 183.5,-57"/>
<text text-anchor="start" x="186.5" y="-63.2" font-family="Helvetica,sans-Serif" font-size="11.00">...</text>
<polygon fill="#ffffff" stroke="transparent" points="183.5,-39 183.5,-57 232.5,-57 232.5,-39 183.5,-39"/>
<polygon fill="none" stroke="black" points="183.5,-39 183.5,-57 232.5,-57 232.5,-39 183.5,-39"/>
<text text-anchor="start" x="186.5" y="-45.2" font-family="Helvetica,sans-Serif" font-size="11.00"> &#160;</text>
<polygon fill="#ffffff" stroke="transparent" points="232.5,-39 232.5,-57 263.5,-57 263.5,-39 232.5,-39"/>
<polygon fill="none" stroke="black" points="232.5,-39 232.5,-57 263.5,-57 263.5,-39 232.5,-39"/>
<text text-anchor="start" x="252.5" y="-45.2" font-family="Helvetica,sans-Serif" font-size="11.00"> &#160;</text>
<polygon fill="#ffffff" stroke="transparent" points="263.5,-39 263.5,-57 307.5,-57 307.5,-39 263.5,-39"/>
<polygon fill="none" stroke="black" points="263.5,-39 263.5,-57 307.5,-57 307.5,-39 263.5,-39"/>
<text text-anchor="start" x="284.5" y="-45.2" font-family="Helvetica,sans-Serif" font-size="11.00">1 &gt;</text>
</a>
</g>
</g>
<!-- opstelplaats&#45;&gt;roi.voertuig -->
<g id="edge6" class="edge">
<title>opstelplaats:w&#45;&gt;roi.voertuig:e</title>
<path fill="none" stroke="black" d="M346.6,-68C336.27,-68 325.71,-68 315.52,-68"/>
<polygon fill="black" stroke="black" points="353,-68 361,-71.6 357,-68 361,-68 361,-68 361,-68 357,-68 361,-64.4 353,-68 353,-68"/>
<ellipse fill="none" stroke="black" cx="349.8" cy="-68" rx="3.2" ry="3.2"/>
</g>
<!-- risico -->
<g id="node8" class="node">
<title>risico</title>
<g id="a_node8"><a xlink:href="../../tables/risico.html" xlink:title="risico" target="_top">
<polygon fill="#ffffff" stroke="transparent" points="444.5,-480 444.5,-538 529.5,-538 529.5,-480 444.5,-480"/>
<polygon fill="#f5f5f5" stroke="transparent" points="445,-516 445,-538 530,-538 530,-516 445,-516"/>
<polygon fill="none" stroke="black" points="445,-516 445,-538 530,-538 530,-516 445,-516"/>
<text text-anchor="start" x="450" y="-525.2" font-family="Helvetica,sans-Serif" font-weight="bold" font-size="11.00">risico</text>
<text text-anchor="start" x="488" y="-524.2" font-family="Helvetica,sans-Serif" font-size="11.00">[table]</text>
<polygon fill="none" stroke="black" points="445,-498 445,-516 530,-516 530,-498 445,-498"/>
<text text-anchor="start" x="448" y="-504.2" font-family="Helvetica,sans-Serif" font-size="11.00">...</text>
<polygon fill="#ffffff" stroke="transparent" points="445,-480 445,-498 486,-498 486,-480 445,-480"/>
<polygon fill="none" stroke="black" points="445,-480 445,-498 486,-498 486,-480 445,-480"/>
<text text-anchor="start" x="448" y="-486.2" font-family="Helvetica,sans-Serif" font-size="11.00">&lt; 1</text>
<polygon fill="#ffffff" stroke="transparent" points="486,-480 486,-498 508,-498 508,-480 486,-480"/>
<polygon fill="none" stroke="black" points="486,-480 486,-498 508,-498 508,-480 486,-480"/>
<text text-anchor="start" x="497" y="-486.2" font-family="Helvetica,sans-Serif" font-size="11.00"> &#160;</text>
<polygon fill="#ffffff" stroke="transparent" points="508,-480 508,-498 530,-498 530,-480 508,-480"/>
<polygon fill="none" stroke="black" points="508,-480 508,-498 530,-498 530,-480 508,-480"/>
<text text-anchor="start" x="519" y="-486.2" font-family="Helvetica,sans-Serif" font-size="11.00"> &#160;</text>
</a>
</g>
</g>
<!-- risico&#45;&gt;object -->
<g id="edge7" class="edge">
<title>risico:w&#45;&gt;object:e</title>
<path fill="none" stroke="black" d="M429.33,-506.16C380.93,-500.42 368.34,-467 312.5,-467"/>
<polygon fill="black" stroke="black" points="436.01,-506.55 443.8,-510.59 440.01,-506.77 444,-507 444,-507 444,-507 440.01,-506.77 444.2,-503.41 436.01,-506.55 436.01,-506.55"/>
<ellipse fill="none" stroke="black" cx="432.82" cy="-506.36" rx="3.2" ry="3.2"/>
</g>
<!-- sector -->
<g id="node9" class="node">
<title>sector</title>
<g id="a_node9"><a xlink:href="../../tables/sector.html" xlink:title="sector" target="_top">
<polygon fill="#ffffff" stroke="transparent" points="441.5,-401 441.5,-459 532.5,-459 532.5,-401 441.5,-401"/>
<polygon fill="#f5f5f5" stroke="transparent" points="442,-437 442,-459 533,-459 533,-437 442,-437"/>
<polygon fill="none" stroke="black" points="442,-437 442,-459 533,-459 533,-437 442,-437"/>
<text text-anchor="start" x="447" y="-446.2" font-family="Helvetica,sans-Serif" font-weight="bold" font-size="11.00">sector</text>
<text text-anchor="start" x="491" y="-445.2" font-family="Helvetica,sans-Serif" font-size="11.00">[table]</text>
<polygon fill="none" stroke="black" points="442,-419 442,-437 533,-437 533,-419 442,-419"/>
<text text-anchor="start" x="445" y="-425.2" font-family="Helvetica,sans-Serif" font-size="11.00">...</text>
<polygon fill="#ffffff" stroke="transparent" points="442,-401 442,-419 486,-419 486,-401 442,-401"/>
<polygon fill="none" stroke="black" points="442,-401 442,-419 486,-419 486,-401 442,-401"/>
<text text-anchor="start" x="445" y="-407.2" font-family="Helvetica,sans-Serif" font-size="11.00">&lt; 2</text>
<polygon fill="#ffffff" stroke="transparent" points="486,-401 486,-419 509,-419 509,-401 486,-401"/>
<polygon fill="none" stroke="black" points="486,-401 486,-419 509,-419 509,-401 486,-401"/>
<text text-anchor="start" x="498" y="-407.2" font-family="Helvetica,sans-Serif" font-size="11.00"> &#160;</text>
<polygon fill="#ffffff" stroke="transparent" points="509,-401 509,-419 533,-419 533,-401 509,-401"/>
<polygon fill="none" stroke="black" points="509,-401 509,-419 533,-419 533,-401 509,-401"/>
<text text-anchor="start" x="522" y="-407.2" font-family="Helvetica,sans-Serif" font-size="11.00"> &#160;</text>
</a>
</g>
</g>
<!-- sector&#45;&gt;object -->
<g id="edge8" class="edge">
<title>sector:w&#45;&gt;object:e</title>
<path fill="none" stroke="black" d="M426.37,-428.85C379.32,-434.55 366.94,-467 312.5,-467"/>
<polygon fill="black" stroke="black" points="433.01,-428.46 441.21,-431.59 437.01,-428.23 441,-428 441,-428 441,-428 437.01,-428.23 440.79,-424.41 433.01,-428.46 433.01,-428.46"/>
<ellipse fill="none" stroke="black" cx="429.82" cy="-428.65" rx="3.2" ry="3.2"/>
</g>
<!-- voorziening -->
<g id="node10" class="node">
<title>voorziening</title>
<g id="a_node10"><a xlink:href="../../tables/voorziening.html" xlink:title="voorziening" target="_top">
<polygon fill="#ffffff" stroke="transparent" points="425,-322 425,-380 549,-380 549,-322 425,-322"/>
<polygon fill="#f5f5f5" stroke="transparent" points="425,-358 425,-380 549,-380 549,-358 425,-358"/>
<polygon fill="none" stroke="black" points="425,-358 425,-380 549,-380 549,-358 425,-358"/>
<text text-anchor="start" x="430" y="-367.2" font-family="Helvetica,sans-Serif" font-weight="bold" font-size="11.00">voorziening</text>
<text text-anchor="start" x="507" y="-366.2" font-family="Helvetica,sans-Serif" font-size="11.00">[table]</text>
<polygon fill="none" stroke="black" points="425,-340 425,-358 549,-358 549,-340 425,-340"/>
<text text-anchor="start" x="428" y="-346.2" font-family="Helvetica,sans-Serif" font-size="11.00">...</text>
<polygon fill="#ffffff" stroke="transparent" points="425,-322 425,-340 486,-340 486,-322 425,-322"/>
<polygon fill="none" stroke="black" points="425,-322 425,-340 486,-340 486,-322 425,-322"/>
<text text-anchor="start" x="428" y="-328.2" font-family="Helvetica,sans-Serif" font-size="11.00">&lt; 2</text>
<polygon fill="#ffffff" stroke="transparent" points="486,-322 486,-340 517,-340 517,-322 486,-322"/>
<polygon fill="none" stroke="black" points="486,-322 486,-340 517,-340 517,-322 486,-322"/>
<text text-anchor="start" x="506" y="-328.2" font-family="Helvetica,sans-Serif" font-size="11.00"> &#160;</text>
<polygon fill="#ffffff" stroke="transparent" points="517,-322 517,-340 549,-340 549,-322 517,-322"/>
<polygon fill="none" stroke="black" points="517,-322 517,-340 549,-340 549,-322 517,-322"/>
<text text-anchor="start" x="538" y="-328.2" font-family="Helvetica,sans-Serif" font-size="11.00"> &#160;</text>
</a>
</g>
</g>
<!-- voorziening&#45;&gt;object -->
<g id="edge9" class="edge">
<title>voorziening:w&#45;&gt;object:e</title>
<path fill="none" stroke="black" d="M409.54,-349.94C383.9,-353.63 373.86,-368.05 352,-391 325.75,-418.57 350.57,-467 312.5,-467"/>
<polygon fill="black" stroke="black" points="416.02,-349.52 424.23,-352.59 420.01,-349.26 424,-349 424,-349 424,-349 420.01,-349.26 423.77,-345.41 416.02,-349.52 416.02,-349.52"/>
<ellipse fill="none" stroke="black" cx="412.82" cy="-349.73" rx="3.2" ry="3.2"/>
</g>
</g>
</svg>
