<?xml version="1.0" encoding="UTF-8" standalone="no"?>
<!DOCTYPE svg PUBLIC "-//W3C//DTD SVG 1.1//EN"
 "http://www.w3.org/Graphics/SVG/1.1/DTD/svg11.dtd">
<!-- Generated by graphviz version 2.40.1 (20161225.0304)
 -->
<!-- Title: oneDegreeRelationshipsDiagram Pages: 1 -->
<svg width="429pt" height="409pt"
 viewBox="0.00 0.00 429.00 408.70" xmlns="http://www.w3.org/2000/svg" xmlns:xlink="http://www.w3.org/1999/xlink">
<g id="graph0" class="graph" transform="scale(1 1) rotate(0) translate(4 404.7)">
<title>oneDegreeRelationshipsDiagram</title>
<polygon fill="#ffffff" stroke="transparent" points="-4,4 -4,-404.7 425,-404.7 425,4 -4,4"/>
<text text-anchor="middle" x="72.4936" y="-7.3" font-family="Helvetica,sans-Serif" font-size="11.00" fill="#000000">Generated by SchemaSpy</text>
<!-- risico -->
<g id="node1" class="node">
<title>risico</title>
<g id="a_node1"><a xlink:href="../../tables/risico.html" xlink:title="risico" target="_top">
<polygon fill="#ffffff" stroke="transparent" points="181,-130.7 181,-396.7 413,-396.7 413,-130.7 181,-130.7"/>
<polygon fill="#f5f5f5" stroke="transparent" points="183,-371.7 183,-394.7 411,-394.7 411,-371.7 183,-371.7"/>
<polygon fill="none" stroke="#000000" points="183,-371.7 183,-394.7 411,-394.7 411,-371.7 183,-371.7"/>
<text text-anchor="start" x="188" y="-380.3" font-family="Helvetica,sans-Serif" font-weight="bold" font-size="11.00" fill="#000000">risico</text>
<text text-anchor="start" x="376.0437" y="-379.8" font-family="Helvetica,sans-Serif" font-size="11.00" fill="#000000">[table]</text>
<polygon fill="none" stroke="#000000" points="183,-349.7 183,-371.7 292,-371.7 292,-349.7 183,-349.7"/>
<image xlink:href="../../images/primaryKeys.png" width="11px" height="12px" preserveAspectRatio="xMinYMin meet" x="188" y="-366.7"/>
<text text-anchor="start" x="203" y="-356.8" font-family="Helvetica,sans-Serif" font-size="11.00" fill="#000000">uuid</text>
<polygon fill="none" stroke="#000000" points="292,-349.7 292,-371.7 411,-371.7 411,-349.7 292,-349.7"/>
<text text-anchor="start" x="295" y="-357.4" font-family="Helvetica,sans-Serif" font-size="11.00" fill="#000000">uuid[2147483647]</text>
<polygon fill="#ffffff" stroke="transparent" points="183,-327.7 183,-349.7 292,-349.7 292,-327.7 183,-327.7"/>
<polygon fill="none" stroke="#000000" points="183,-327.7 183,-349.7 292,-349.7 292,-327.7 183,-327.7"/>
<text text-anchor="start" x="203" y="-334.8" font-family="Helvetica,sans-Serif" font-size="11.00" fill="#000000">geom</text>
<polygon fill="none" stroke="#000000" points="292,-327.7 292,-349.7 411,-349.7 411,-327.7 292,-327.7"/>
<text text-anchor="start" x="294.9485" y="-335.4" font-family="Helvetica,sans-Serif" font-size="11.00" fill="#000000">geometry[2147483647]</text>
<polygon fill="none" stroke="#000000" points="183,-305.7 183,-327.7 292,-327.7 292,-305.7 183,-305.7"/>
<text text-anchor="start" x="203" y="-312.8" font-family="Helvetica,sans-Serif" font-size="11.00" fill="#000000">datumtijd</text>
<polygon fill="none" stroke="#000000" points="292,-305.7 292,-327.7 411,-327.7 411,-305.7 292,-305.7"/>
<text text-anchor="start" x="295" y="-313.4" font-family="Helvetica,sans-Serif" font-size="11.00" fill="#000000">timestamptz[35,6]</text>
<polygon fill="none" stroke="#000000" points="183,-283.7 183,-305.7 292,-305.7 292,-283.7 183,-283.7"/>
<text text-anchor="start" x="203" y="-290.8" font-family="Helvetica,sans-Serif" font-size="11.00" fill="#000000">gebruiker</text>
<polygon fill="none" stroke="#000000" points="292,-283.7 292,-305.7 411,-305.7 411,-283.7 292,-283.7"/>
<text text-anchor="start" x="295" y="-291.4" font-family="Helvetica,sans-Serif" font-size="11.00" fill="#000000">varchar[255]</text>
<polygon fill="none" stroke="#000000" points="183,-261.7 183,-283.7 292,-283.7 292,-261.7 183,-261.7"/>
<text text-anchor="start" x="203" y="-268.8" font-family="Helvetica,sans-Serif" font-size="11.00" fill="#000000">label</text>
<polygon fill="none" stroke="#000000" points="292,-261.7 292,-283.7 411,-283.7 411,-261.7 292,-261.7"/>
<text text-anchor="start" x="295" y="-269.4" font-family="Helvetica,sans-Serif" font-size="11.00" fill="#000000">text[2147483647]</text>
<polygon fill="none" stroke="#000000" points="183,-239.7 183,-261.7 292,-261.7 292,-239.7 183,-239.7"/>
<text text-anchor="start" x="203" y="-246.8" font-family="Helvetica,sans-Serif" font-size="11.00" fill="#000000">rotatie</text>
<polygon fill="none" stroke="#000000" points="292,-239.7 292,-261.7 411,-261.7 411,-239.7 292,-239.7"/>
<text text-anchor="start" x="295" y="-247.4" font-family="Helvetica,sans-Serif" font-size="11.00" fill="#000000">int4[10]</text>
<polygon fill="none" stroke="#000000" points="183,-217.7 183,-239.7 292,-239.7 292,-217.7 183,-217.7"/>
<text text-anchor="start" x="203" y="-224.8" font-family="Helvetica,sans-Serif" font-size="11.00" fill="#000000">bijzonderheden</text>
<polygon fill="none" stroke="#000000" points="292,-217.7 292,-239.7 411,-239.7 411,-217.7 292,-217.7"/>
<text text-anchor="start" x="295" y="-225.4" font-family="Helvetica,sans-Serif" font-size="11.00" fill="#000000">text[2147483647]</text>
<polygon fill="none" stroke="#000000" points="183,-195.7 183,-217.7 292,-217.7 292,-195.7 183,-195.7"/>
<text text-anchor="start" x="203" y="-202.8" font-family="Helvetica,sans-Serif" font-size="11.00" fill="#000000">plusinfo</text>
<polygon fill="none" stroke="#000000" points="292,-195.7 292,-217.7 411,-217.7 411,-195.7 292,-195.7"/>
<text text-anchor="start" x="295" y="-203.4" font-family="Helvetica,sans-Serif" font-size="11.00" fill="#000000">jsonb[2147483647]</text>
<polygon fill="#ffffff" stroke="transparent" points="183,-173.7 183,-195.7 292,-195.7 292,-173.7 183,-173.7"/>
<polygon fill="none" stroke="#000000" points="183,-173.7 183,-195.7 292,-195.7 292,-173.7 183,-173.7"/>
<image xlink:href="../../images/foreignKeys.png" width="11px" height="12px" preserveAspectRatio="xMinYMin meet" x="188" y="-190.7"/>
<text text-anchor="start" x="203" y="-180.8" font-family="Helvetica,sans-Serif" font-size="11.00" fill="#000000">object_uuid</text>
<polygon fill="none" stroke="#000000" points="292,-173.7 292,-195.7 411,-195.7 411,-173.7 292,-173.7"/>
<text text-anchor="start" x="295" y="-181.4" font-family="Helvetica,sans-Serif" font-size="11.00" fill="#000000">uuid[2147483647]</text>
<polygon fill="none" stroke="#000000" points="183,-151.7 183,-173.7 292,-173.7 292,-151.7 183,-151.7"/>
<image xlink:href="../../images/foreignKeys.png" width="11px" height="12px" preserveAspectRatio="xMinYMin meet" x="188" y="-168.7"/>
<text text-anchor="start" x="203" y="-158.8" font-family="Helvetica,sans-Serif" font-size="11.00" fill="#000000">dreiging_id</text>
<polygon fill="none" stroke="#000000" points="292,-151.7 292,-173.7 411,-173.7 411,-151.7 292,-151.7"/>
<text text-anchor="start" x="295" y="-159.4" font-family="Helvetica,sans-Serif" font-size="11.00" fill="#000000">int2[5]</text>
<polygon fill="#ffffff" stroke="transparent" points="183,-132.7 183,-151.7 242,-151.7 242,-132.7 183,-132.7"/>
<polygon fill="none" stroke="#000000" points="183,-132.7 183,-151.7 242,-151.7 242,-132.7 183,-132.7"/>
<text text-anchor="start" x="186" y="-138.8" font-family="Helvetica,sans-Serif" font-size="11.00" fill="#000000">&lt; 2</text>
<polygon fill="#ffffff" stroke="transparent" points="242,-132.7 242,-151.7 292,-151.7 292,-132.7 242,-132.7"/>
<polygon fill="none" stroke="#000000" points="242,-132.7 242,-151.7 292,-151.7 292,-132.7 242,-132.7"/>
<text text-anchor="start" x="282.8862" y="-138.8" font-family="Helvetica,sans-Serif" font-size="11.00" fill="#000000"> &#160;</text>
<polygon fill="#ffffff" stroke="transparent" points="292,-132.7 292,-151.7 411,-151.7 411,-132.7 292,-132.7"/>
<polygon fill="none" stroke="#000000" points="292,-132.7 292,-151.7 411,-151.7 411,-132.7 292,-132.7"/>
<text text-anchor="start" x="392.4053" y="-138.8" font-family="Helvetica,sans-Serif" font-size="11.00" fill="#000000">0 &gt;</text>
<polygon fill="none" stroke="#000000" stroke-width="2" points="182,-131.7 182,-395.7 412,-395.7 412,-131.7 182,-131.7"/>
</a>
</g>
</g>
<!-- roi.dreiging -->
<g id="node2" class="node">
<title>roi.dreiging</title>
<g id="a_node2"><a xlink:href="../../../roi/tables/dreiging.html" xlink:title="roi.dreiging" target="_top">
<polygon fill="#ffffff" stroke="transparent" points="17.5,-38.2 17.5,-99.2 122.5,-99.2 122.5,-38.2 17.5,-38.2"/>
<polygon fill="#f5f5f5" stroke="transparent" points="18,-75.7 18,-98.7 123,-98.7 123,-75.7 18,-75.7"/>
<polygon fill="none" stroke="#000000" points="18,-75.7 18,-98.7 123,-98.7 123,-75.7 18,-75.7"/>
<text text-anchor="start" x="23" y="-84.3" font-family="Helvetica,sans-Serif" font-weight="bold" font-size="11.00" fill="#000000">roi.dreiging</text>
<text text-anchor="start" x="88.5219" y="-83.8" font-family="Helvetica,sans-Serif" font-size="11.00" fill="#000000">[table]</text>
<polygon fill="none" stroke="#000000" points="18,-56.7 18,-75.7 123,-75.7 123,-56.7 18,-56.7"/>
<text text-anchor="start" x="21" y="-62.8" font-family="Helvetica,sans-Serif" font-size="11.00" fill="#000000">...</text>
<polygon fill="#ffffff" stroke="transparent" points="18,-37.7 18,-56.7 60,-56.7 60,-37.7 18,-37.7"/>
<polygon fill="none" stroke="#000000" points="18,-37.7 18,-56.7 60,-56.7 60,-37.7 18,-37.7"/>
<text text-anchor="start" x="21" y="-43.8" font-family="Helvetica,sans-Serif" font-size="11.00" fill="#000000"> &#160;</text>
<polygon fill="#ffffff" stroke="transparent" points="60,-37.7 60,-56.7 87,-56.7 87,-37.7 60,-37.7"/>
<polygon fill="none" stroke="#000000" points="60,-37.7 60,-56.7 87,-56.7 87,-37.7 60,-37.7"/>
<text text-anchor="start" x="77.8862" y="-43.8" font-family="Helvetica,sans-Serif" font-size="11.00" fill="#000000"> &#160;</text>
<polygon fill="#ffffff" stroke="transparent" points="87,-37.7 87,-56.7 123,-56.7 123,-37.7 87,-37.7"/>
<polygon fill="none" stroke="#000000" points="87,-37.7 87,-56.7 123,-56.7 123,-37.7 87,-37.7"/>
<text text-anchor="start" x="104.4053" y="-43.8" font-family="Helvetica,sans-Serif" font-size="11.00" fill="#000000">1 &gt;</text>
</a>
</g>
</g>
<!-- risico&#45;&gt;roi.dreiging -->
<g id="edge1" class="edge">
<title>risico:w&#45;&gt;roi.dreiging:e</title>
<path fill="none" stroke="#000000" d="M168.9305,-158.9772C155.4936,-149.7528 158.3385,-125.4471 140,-109.7 137.0082,-107.1309 133.8334,-104.6334 130.5515,-102.2224"/>
<polygon fill="#000000" stroke="#000000" points="175.2661,-160.6536 182.0791,-166.1802 179.1331,-161.6768 183,-162.7 183,-162.7 183,-162.7 179.1331,-161.6768 183.9209,-159.2198 175.2661,-160.6536 175.2661,-160.6536"/>
<ellipse fill="none" stroke="#000000" cx="172.1726" cy="-159.835" rx="3.2" ry="3.2"/>
</g>
<!-- object -->
<g id="node3" class="node">
<title>object</title>
<g id="a_node3"><a xlink:href="../../tables/object.html" xlink:title="object" target="_top">
<polygon fill="#ffffff" stroke="transparent" points="8,-120.2 8,-313.2 132,-313.2 132,-120.2 8,-120.2"/>
<polygon fill="#f5f5f5" stroke="transparent" points="8,-289.7 8,-312.7 132,-312.7 132,-289.7 8,-289.7"/>
<polygon fill="none" stroke="#000000" points="8,-289.7 8,-312.7 132,-312.7 132,-289.7 8,-289.7"/>
<text text-anchor="start" x="13" y="-298.3" font-family="Helvetica,sans-Serif" font-weight="bold" font-size="11.00" fill="#000000">object</text>
<text text-anchor="start" x="97.0437" y="-297.8" font-family="Helvetica,sans-Serif" font-size="11.00" fill="#000000">[table]</text>
<polygon fill="none" stroke="#000000" points="8,-267.7 8,-289.7 132,-289.7 132,-267.7 8,-267.7"/>
<image xlink:href="../../images/primaryKeys.png" width="11px" height="12px" preserveAspectRatio="xMinYMin meet" x="13" y="-284.7"/>
<text text-anchor="start" x="28" y="-274.8" font-family="Helvetica,sans-Serif" font-size="11.00" fill="#000000">uuid</text>
<polygon fill="#ffffff" stroke="transparent" points="8,-245.7 8,-267.7 132,-267.7 132,-245.7 8,-245.7"/>
<polygon fill="none" stroke="#000000" points="8,-245.7 8,-267.7 132,-267.7 132,-245.7 8,-245.7"/>
<text text-anchor="start" x="28" y="-252.8" font-family="Helvetica,sans-Serif" font-size="11.00" fill="#000000">geom</text>
<polygon fill="#ffffff" stroke="transparent" points="8,-223.7 8,-245.7 132,-245.7 132,-223.7 8,-223.7"/>
<polygon fill="none" stroke="#000000" points="8,-223.7 8,-245.7 132,-245.7 132,-223.7 8,-223.7"/>
<text text-anchor="start" x="28" y="-230.8" font-family="Helvetica,sans-Serif" font-size="11.00" fill="#000000">revisie_frequentie</text>
<polygon fill="#ffffff" stroke="transparent" points="8,-201.7 8,-223.7 132,-223.7 132,-201.7 8,-201.7"/>
<polygon fill="none" stroke="#000000" points="8,-201.7 8,-223.7 132,-223.7 132,-201.7 8,-201.7"/>
<image xlink:href="../../images/foreignKeys.png" width="11px" height="12px" preserveAspectRatio="xMinYMin meet" x="13" y="-218.7"/>
<text text-anchor="start" x="28" y="-208.8" font-family="Helvetica,sans-Serif" font-size="11.00" fill="#000000">fase_id</text>
<polygon fill="#ffffff" stroke="transparent" points="8,-179.7 8,-201.7 132,-201.7 132,-179.7 8,-179.7"/>
<polygon fill="none" stroke="#000000" points="8,-179.7 8,-201.7 132,-201.7 132,-179.7 8,-179.7"/>
<image xlink:href="../../images/foreignKeys.png" width="11px" height="12px" preserveAspectRatio="xMinYMin meet" x="13" y="-196.7"/>
<text text-anchor="start" x="28" y="-186.8" font-family="Helvetica,sans-Serif" font-size="11.00" fill="#000000">object_type_id</text>
<polygon fill="#ffffff" stroke="transparent" points="8,-157.7 8,-179.7 132,-179.7 132,-157.7 8,-157.7"/>
<polygon fill="none" stroke="#000000" points="8,-157.7 8,-179.7 132,-179.7 132,-157.7 8,-157.7"/>
<text text-anchor="start" x="28" y="-164.8" font-family="Helvetica,sans-Serif" font-size="11.00" fill="#000000">periode</text>
<polygon fill="none" stroke="#000000" points="8,-138.7 8,-157.7 132,-157.7 132,-138.7 8,-138.7"/>
<text text-anchor="start" x="11" y="-144.8" font-family="Helvetica,sans-Serif" font-size="11.00" fill="#000000">...</text>
<polygon fill="#ffffff" stroke="transparent" points="8,-119.7 8,-138.7 64,-138.7 64,-119.7 8,-119.7"/>
<polygon fill="none" stroke="#000000" points="8,-119.7 8,-138.7 64,-138.7 64,-119.7 8,-119.7"/>
<text text-anchor="start" x="11" y="-125.8" font-family="Helvetica,sans-Serif" font-size="11.00" fill="#000000">&lt; 2</text>
<polygon fill="#ffffff" stroke="transparent" points="64,-119.7 64,-138.7 93,-138.7 93,-119.7 64,-119.7"/>
<polygon fill="none" stroke="#000000" points="64,-119.7 64,-138.7 93,-138.7 93,-119.7 64,-119.7"/>
<text text-anchor="start" x="83.8862" y="-125.8" font-family="Helvetica,sans-Serif" font-size="11.00" fill="#000000"> &#160;</text>
<polygon fill="#ffffff" stroke="transparent" points="93,-119.7 93,-138.7 132,-138.7 132,-119.7 93,-119.7"/>
<polygon fill="none" stroke="#000000" points="93,-119.7 93,-138.7 132,-138.7 132,-119.7 93,-119.7"/>
<text text-anchor="start" x="113.4053" y="-125.8" font-family="Helvetica,sans-Serif" font-size="11.00" fill="#000000">6 &gt;</text>
</a>
</g>
</g>
<!-- risico&#45;&gt;object -->
<g id="edge2" class="edge">
<title>risico:w&#45;&gt;object:e</title>
<path fill="none" stroke="#000000" d="M169.1116,-188.7391C145.0536,-206.7313 173.5893,-278.7 132,-278.7"/>
<polygon fill="#000000" stroke="#000000" points="175.3183,-186.9341 184.0053,-188.1568 179.1591,-185.817 183,-184.7 183,-184.7 183,-184.7 179.1591,-185.817 181.9947,-181.2432 175.3183,-186.9341 175.3183,-186.9341"/>
<ellipse fill="none" stroke="#000000" cx="172.2456" cy="-187.8277" rx="3.2" ry="3.2"/>
</g>
</g>
</svg>
