<?xml version="1.0" encoding="UTF-8" standalone="no"?>
<!DOCTYPE svg PUBLIC "-//W3C//DTD SVG 1.1//EN"
 "http://www.w3.org/Graphics/SVG/1.1/DTD/svg11.dtd">
<!-- Generated by graphviz version 2.50.0 (0)
 -->
<!-- Title: oneDegreeRelationshipsDiagram Pages: 1 -->
<svg width="458pt" height="417pt"
 viewBox="0.00 0.00 458.00 417.00" xmlns="http://www.w3.org/2000/svg" xmlns:xlink="http://www.w3.org/1999/xlink">
<g id="graph0" class="graph" transform="scale(1 1) rotate(0) translate(4 413)">
<title>oneDegreeRelationshipsDiagram</title>
<polygon fill="#ffffff" stroke="transparent" points="-4,4 -4,-413 454,-413 454,4 -4,4"/>
<text text-anchor="middle" x="79.5" y="-7.2" font-family="Helvetica,sans-Serif" font-size="11.00">Generated by SchemaSpy</text>
<!-- risico -->
<g id="node1" class="node">
<title>risico</title>
<g id="a_node1"><a xlink:href="../../tables/risico.html" xlink:title="risico" target="_top">
<polygon fill="#ffffff" stroke="transparent" points="188,-163 188,-405 442,-405 442,-163 188,-163"/>
<polygon fill="#f5f5f5" stroke="transparent" points="190,-381 190,-403 440,-403 440,-381 190,-381"/>
<polygon fill="none" stroke="black" points="190,-381 190,-403 440,-403 440,-381 190,-381"/>
<text text-anchor="start" x="195" y="-390.2" font-family="Helvetica,sans-Serif" font-weight="bold" font-size="11.00">risico</text>
<text text-anchor="start" x="398" y="-389.2" font-family="Helvetica,sans-Serif" font-size="11.00">[table]</text>
<polygon fill="none" stroke="black" points="190,-359 190,-381 304,-381 304,-359 190,-359"/>
<image xlink:href="../../images/primaryKeys.png" width="11px" height="12px" preserveAspectRatio="xMinYMin meet" x="195" y="-376"/>
<text text-anchor="start" x="210" y="-367.2" font-family="Helvetica,sans-Serif" font-size="11.00">uuid</text>
<polygon fill="none" stroke="black" points="304,-359 304,-381 440,-381 440,-359 304,-359"/>
<text text-anchor="start" x="307" y="-367.2" font-family="Helvetica,sans-Serif" font-size="11.00">uuid[2147483647]</text>
<polygon fill="#ffffff" stroke="transparent" points="190,-337 190,-359 304,-359 304,-337 190,-337"/>
<polygon fill="none" stroke="black" points="190,-337 190,-359 304,-359 304,-337 190,-337"/>
<text text-anchor="start" x="210" y="-345.2" font-family="Helvetica,sans-Serif" font-size="11.00">geom</text>
<polygon fill="none" stroke="black" points="304,-337 304,-359 440,-359 440,-337 304,-337"/>
<text text-anchor="start" x="307" y="-345.2" font-family="Helvetica,sans-Serif" font-size="11.00">geometry[2147483647]</text>
<polygon fill="none" stroke="black" points="190,-315 190,-337 304,-337 304,-315 190,-315"/>
<text text-anchor="start" x="210" y="-323.2" font-family="Helvetica,sans-Serif" font-size="11.00">datumtijd</text>
<polygon fill="none" stroke="black" points="304,-315 304,-337 440,-337 440,-315 304,-315"/>
<text text-anchor="start" x="307" y="-323.2" font-family="Helvetica,sans-Serif" font-size="11.00">timestamptz[35,6]</text>
<polygon fill="none" stroke="black" points="190,-293 190,-315 304,-315 304,-293 190,-293"/>
<text text-anchor="start" x="210" y="-301.2" font-family="Helvetica,sans-Serif" font-size="11.00">gebruiker</text>
<polygon fill="none" stroke="black" points="304,-293 304,-315 440,-315 440,-293 304,-293"/>
<text text-anchor="start" x="307" y="-301.2" font-family="Helvetica,sans-Serif" font-size="11.00">varchar[255]</text>
<polygon fill="none" stroke="black" points="190,-271 190,-293 304,-293 304,-271 190,-271"/>
<text text-anchor="start" x="210" y="-279.2" font-family="Helvetica,sans-Serif" font-size="11.00">label</text>
<polygon fill="none" stroke="black" points="304,-271 304,-293 440,-293 440,-271 304,-271"/>
<text text-anchor="start" x="307" y="-279.2" font-family="Helvetica,sans-Serif" font-size="11.00">text[2147483647]</text>
<polygon fill="none" stroke="black" points="190,-249 190,-271 304,-271 304,-249 190,-249"/>
<text text-anchor="start" x="210" y="-257.2" font-family="Helvetica,sans-Serif" font-size="11.00">rotatie</text>
<polygon fill="none" stroke="black" points="304,-249 304,-271 440,-271 440,-249 304,-249"/>
<text text-anchor="start" x="307" y="-257.2" font-family="Helvetica,sans-Serif" font-size="11.00">int4[10]</text>
<polygon fill="none" stroke="black" points="190,-227 190,-249 304,-249 304,-227 190,-227"/>
<text text-anchor="start" x="210" y="-235.2" font-family="Helvetica,sans-Serif" font-size="11.00">bijzonderheden</text>
<polygon fill="none" stroke="black" points="304,-227 304,-249 440,-249 440,-227 304,-227"/>
<text text-anchor="start" x="307" y="-235.2" font-family="Helvetica,sans-Serif" font-size="11.00">text[2147483647]</text>
<polygon fill="none" stroke="black" points="190,-205 190,-227 304,-227 304,-205 190,-205"/>
<text text-anchor="start" x="210" y="-213.2" font-family="Helvetica,sans-Serif" font-size="11.00">plusinfo</text>
<polygon fill="none" stroke="black" points="304,-205 304,-227 440,-227 440,-205 304,-205"/>
<text text-anchor="start" x="307" y="-213.2" font-family="Helvetica,sans-Serif" font-size="11.00">jsonb[2147483647]</text>
<polygon fill="#ffffff" stroke="transparent" points="190,-183 190,-205 304,-205 304,-183 190,-183"/>
<polygon fill="none" stroke="black" points="190,-183 190,-205 304,-205 304,-183 190,-183"/>
<image xlink:href="../../images/foreignKeys.png" width="11px" height="12px" preserveAspectRatio="xMinYMin meet" x="195" y="-200"/>
<text text-anchor="start" x="210" y="-191.2" font-family="Helvetica,sans-Serif" font-size="11.00">object_uuid</text>
<polygon fill="none" stroke="black" points="304,-183 304,-205 440,-205 440,-183 304,-183"/>
<text text-anchor="start" x="307" y="-191.2" font-family="Helvetica,sans-Serif" font-size="11.00">uuid[2147483647]</text>
<polygon fill="#ffffff" stroke="transparent" points="190,-165 190,-183 253,-183 253,-165 190,-165"/>
<polygon fill="none" stroke="black" points="190,-165 190,-183 253,-183 253,-165 190,-165"/>
<text text-anchor="start" x="193" y="-171.2" font-family="Helvetica,sans-Serif" font-size="11.00">&lt; 1</text>
<polygon fill="#ffffff" stroke="transparent" points="253,-165 253,-183 304,-183 304,-165 253,-165"/>
<polygon fill="none" stroke="black" points="253,-165 253,-183 304,-183 304,-165 253,-165"/>
<text text-anchor="start" x="293" y="-171.2" font-family="Helvetica,sans-Serif" font-size="11.00"> &#160;</text>
<polygon fill="#ffffff" stroke="transparent" points="304,-165 304,-183 440,-183 440,-165 304,-165"/>
<polygon fill="none" stroke="black" points="304,-165 304,-183 440,-183 440,-165 304,-165"/>
<text text-anchor="start" x="417" y="-171.2" font-family="Helvetica,sans-Serif" font-size="11.00">0 &gt;</text>
<polygon fill="none" stroke="black" stroke-width="2" points="189,-164 189,-404 441,-404 441,-164 189,-164"/>
</a>
</g>
</g>
<!-- object -->
<g id="node2" class="node">
<title>object</title>
<g id="a_node2"><a xlink:href="../../tables/object.html" xlink:title="object" target="_top">
<polygon fill="#ffffff" stroke="transparent" points="8,-37 8,-227 139,-227 139,-37 8,-37"/>
<polygon fill="#f5f5f5" stroke="transparent" points="8.5,-205 8.5,-227 139.5,-227 139.5,-205 8.5,-205"/>
<polygon fill="none" stroke="black" points="8.5,-205 8.5,-227 139.5,-227 139.5,-205 8.5,-205"/>
<text text-anchor="start" x="13.5" y="-214.2" font-family="Helvetica,sans-Serif" font-weight="bold" font-size="11.00">object</text>
<text text-anchor="start" x="97.5" y="-213.2" font-family="Helvetica,sans-Serif" font-size="11.00">[table]</text>
<polygon fill="none" stroke="black" points="8.5,-183 8.5,-205 139.5,-205 139.5,-183 8.5,-183"/>
<image xlink:href="../../images/primaryKeys.png" width="11px" height="12px" preserveAspectRatio="xMinYMin meet" x="13.5" y="-200"/>
<text text-anchor="start" x="28.5" y="-191.2" font-family="Helvetica,sans-Serif" font-size="11.00">uuid</text>
<polygon fill="#ffffff" stroke="transparent" points="8.5,-161 8.5,-183 139.5,-183 139.5,-161 8.5,-161"/>
<polygon fill="none" stroke="black" points="8.5,-161 8.5,-183 139.5,-183 139.5,-161 8.5,-161"/>
<text text-anchor="start" x="28.5" y="-169.2" font-family="Helvetica,sans-Serif" font-size="11.00">geom</text>
<polygon fill="#ffffff" stroke="transparent" points="8.5,-139 8.5,-161 139.5,-161 139.5,-139 8.5,-139"/>
<polygon fill="none" stroke="black" points="8.5,-139 8.5,-161 139.5,-161 139.5,-139 8.5,-139"/>
<text text-anchor="start" x="28.5" y="-147.2" font-family="Helvetica,sans-Serif" font-size="11.00">revisie_frequentie</text>
<polygon fill="#ffffff" stroke="transparent" points="8.5,-117 8.5,-139 139.5,-139 139.5,-117 8.5,-117"/>
<polygon fill="none" stroke="black" points="8.5,-117 8.5,-139 139.5,-139 139.5,-117 8.5,-117"/>
<image xlink:href="../../images/foreignKeys.png" width="11px" height="12px" preserveAspectRatio="xMinYMin meet" x="13.5" y="-134"/>
<text text-anchor="start" x="28.5" y="-125.2" font-family="Helvetica,sans-Serif" font-size="11.00">fase_id</text>
<polygon fill="#ffffff" stroke="transparent" points="8.5,-95 8.5,-117 139.5,-117 139.5,-95 8.5,-95"/>
<polygon fill="none" stroke="black" points="8.5,-95 8.5,-117 139.5,-117 139.5,-95 8.5,-95"/>
<image xlink:href="../../images/foreignKeys.png" width="11px" height="12px" preserveAspectRatio="xMinYMin meet" x="13.5" y="-112"/>
<text text-anchor="start" x="28.5" y="-103.2" font-family="Helvetica,sans-Serif" font-size="11.00">object_type_id</text>
<polygon fill="#ffffff" stroke="transparent" points="8.5,-73 8.5,-95 139.5,-95 139.5,-73 8.5,-73"/>
<polygon fill="none" stroke="black" points="8.5,-73 8.5,-95 139.5,-95 139.5,-73 8.5,-73"/>
<text text-anchor="start" x="28.5" y="-81.2" font-family="Helvetica,sans-Serif" font-size="11.00">periode</text>
<polygon fill="none" stroke="black" points="8.5,-55 8.5,-73 139.5,-73 139.5,-55 8.5,-55"/>
<text text-anchor="start" x="11.5" y="-61.2" font-family="Helvetica,sans-Serif" font-size="11.00">...</text>
<polygon fill="#ffffff" stroke="transparent" points="8.5,-37 8.5,-55 66.5,-55 66.5,-37 8.5,-37"/>
<polygon fill="none" stroke="black" points="8.5,-37 8.5,-55 66.5,-55 66.5,-37 8.5,-37"/>
<text text-anchor="start" x="11.5" y="-43.2" font-family="Helvetica,sans-Serif" font-size="11.00">&lt; 2</text>
<polygon fill="#ffffff" stroke="transparent" points="66.5,-37 66.5,-55 96.5,-55 96.5,-37 66.5,-37"/>
<polygon fill="none" stroke="black" points="66.5,-37 66.5,-55 96.5,-55 96.5,-37 66.5,-37"/>
<text text-anchor="start" x="85.5" y="-43.2" font-family="Helvetica,sans-Serif" font-size="11.00"> &#160;</text>
<polygon fill="#ffffff" stroke="transparent" points="96.5,-37 96.5,-55 139.5,-55 139.5,-37 96.5,-37"/>
<polygon fill="none" stroke="black" points="96.5,-37 96.5,-55 139.5,-55 139.5,-37 96.5,-37"/>
<text text-anchor="start" x="116.5" y="-43.2" font-family="Helvetica,sans-Serif" font-size="11.00">6 &gt;</text>
</a>
</g>
</g>
<!-- risico&#45;&gt;object -->
<g id="edge1" class="edge">
<title>risico:w&#45;&gt;object:e</title>
<path fill="none" stroke="black" d="M174.28,-194C163.29,-194 156.16,-194 140.5,-194"/>
<polygon fill="black" stroke="black" points="181,-194 189,-197.6 185,-194 189,-194 189,-194 189,-194 185,-194 189,-190.4 181,-194 181,-194"/>
<ellipse fill="none" stroke="black" cx="177.8" cy="-194" rx="3.2" ry="3.2"/>
</g>
</g>
</svg>
