<?xml version="1.0" encoding="UTF-8" standalone="no"?>
<!DOCTYPE svg PUBLIC "-//W3C//DTD SVG 1.1//EN"
 "http://www.w3.org/Graphics/SVG/1.1/DTD/svg11.dtd">
<!-- Generated by graphviz version 2.40.1 (20161225.0304)
 -->
<!-- Title: twoDegreesRelationshipsDiagram Pages: 1 -->
<svg width="583pt" height="727pt"
 viewBox="0.00 0.00 583.00 726.70" xmlns="http://www.w3.org/2000/svg" xmlns:xlink="http://www.w3.org/1999/xlink">
<g id="graph0" class="graph" transform="scale(1 1) rotate(0) translate(4 722.7)">
<title>twoDegreesRelationshipsDiagram</title>
<polygon fill="#ffffff" stroke="transparent" points="-4,4 -4,-722.7 579,-722.7 579,4 -4,4"/>
<text text-anchor="middle" x="72.4936" y="-7.3" font-family="Helvetica,sans-Serif" font-size="11.00" fill="#000000">Generated by SchemaSpy</text>
<!-- bereikbaarheid -->
<g id="node1" class="node">
<title>bereikbaarheid</title>
<g id="a_node1"><a xlink:href="../../tables/bereikbaarheid.html" xlink:title="bereikbaarheid" target="_top">
<polygon fill="#ffffff" stroke="transparent" points="389,-653.7 389,-714.7 513,-714.7 513,-653.7 389,-653.7"/>
<polygon fill="#f5f5f5" stroke="transparent" points="389,-691.2 389,-714.2 513,-714.2 513,-691.2 389,-691.2"/>
<polygon fill="none" stroke="#000000" points="389,-691.2 389,-714.2 513,-714.2 513,-691.2 389,-691.2"/>
<text text-anchor="start" x="394" y="-699.8" font-family="Helvetica,sans-Serif" font-weight="bold" font-size="11.00" fill="#000000">bereikbaarheid</text>
<text text-anchor="start" x="478.5219" y="-699.3" font-family="Helvetica,sans-Serif" font-size="11.00" fill="#000000">[table]</text>
<polygon fill="none" stroke="#000000" points="389,-672.2 389,-691.2 513,-691.2 513,-672.2 389,-672.2"/>
<text text-anchor="start" x="392" y="-678.3" font-family="Helvetica,sans-Serif" font-size="11.00" fill="#000000">...</text>
<polygon fill="#ffffff" stroke="transparent" points="389,-653.2 389,-672.2 449,-672.2 449,-653.2 389,-653.2"/>
<polygon fill="none" stroke="#000000" points="389,-653.2 389,-672.2 449,-672.2 449,-653.2 389,-653.2"/>
<text text-anchor="start" x="392" y="-659.3" font-family="Helvetica,sans-Serif" font-size="11.00" fill="#000000">&lt; 2</text>
<polygon fill="#ffffff" stroke="transparent" points="449,-653.2 449,-672.2 481,-672.2 481,-653.2 449,-653.2"/>
<polygon fill="none" stroke="#000000" points="449,-653.2 449,-672.2 481,-672.2 481,-653.2 449,-653.2"/>
<text text-anchor="start" x="471.8862" y="-659.3" font-family="Helvetica,sans-Serif" font-size="11.00" fill="#000000"> &#160;</text>
<polygon fill="#ffffff" stroke="transparent" points="481,-653.2 481,-672.2 513,-672.2 513,-653.2 481,-653.2"/>
<polygon fill="none" stroke="#000000" points="481,-653.2 481,-672.2 513,-672.2 513,-653.2 481,-653.2"/>
<text text-anchor="start" x="503.8862" y="-659.3" font-family="Helvetica,sans-Serif" font-size="11.00" fill="#000000"> &#160;</text>
</a>
</g>
</g>
<!-- object -->
<g id="node2" class="node">
<title>object</title>
<g id="a_node2"><a xlink:href="../../tables/object.html" xlink:title="object" target="_top">
<polygon fill="#ffffff" stroke="transparent" points="162,-317.7 162,-510.7 286,-510.7 286,-317.7 162,-317.7"/>
<polygon fill="#f5f5f5" stroke="transparent" points="162,-487.2 162,-510.2 286,-510.2 286,-487.2 162,-487.2"/>
<polygon fill="none" stroke="#000000" points="162,-487.2 162,-510.2 286,-510.2 286,-487.2 162,-487.2"/>
<text text-anchor="start" x="167" y="-495.8" font-family="Helvetica,sans-Serif" font-weight="bold" font-size="11.00" fill="#000000">object</text>
<text text-anchor="start" x="251.0437" y="-495.3" font-family="Helvetica,sans-Serif" font-size="11.00" fill="#000000">[table]</text>
<polygon fill="none" stroke="#000000" points="162,-465.2 162,-487.2 286,-487.2 286,-465.2 162,-465.2"/>
<image xlink:href="../../images/primaryKeys.png" width="11px" height="12px" preserveAspectRatio="xMinYMin meet" x="167" y="-482.2"/>
<text text-anchor="start" x="182" y="-472.3" font-family="Helvetica,sans-Serif" font-size="11.00" fill="#000000">uuid</text>
<polygon fill="#ffffff" stroke="transparent" points="162,-443.2 162,-465.2 286,-465.2 286,-443.2 162,-443.2"/>
<polygon fill="none" stroke="#000000" points="162,-443.2 162,-465.2 286,-465.2 286,-443.2 162,-443.2"/>
<text text-anchor="start" x="182" y="-450.3" font-family="Helvetica,sans-Serif" font-size="11.00" fill="#000000">geom</text>
<polygon fill="#ffffff" stroke="transparent" points="162,-421.2 162,-443.2 286,-443.2 286,-421.2 162,-421.2"/>
<polygon fill="none" stroke="#000000" points="162,-421.2 162,-443.2 286,-443.2 286,-421.2 162,-421.2"/>
<text text-anchor="start" x="182" y="-428.3" font-family="Helvetica,sans-Serif" font-size="11.00" fill="#000000">revisie_frequentie</text>
<polygon fill="#ffffff" stroke="transparent" points="162,-399.2 162,-421.2 286,-421.2 286,-399.2 162,-399.2"/>
<polygon fill="none" stroke="#000000" points="162,-399.2 162,-421.2 286,-421.2 286,-399.2 162,-399.2"/>
<image xlink:href="../../images/foreignKeys.png" width="11px" height="12px" preserveAspectRatio="xMinYMin meet" x="167" y="-416.2"/>
<text text-anchor="start" x="182" y="-406.3" font-family="Helvetica,sans-Serif" font-size="11.00" fill="#000000">fase_id</text>
<polygon fill="#ffffff" stroke="transparent" points="162,-377.2 162,-399.2 286,-399.2 286,-377.2 162,-377.2"/>
<polygon fill="none" stroke="#000000" points="162,-377.2 162,-399.2 286,-399.2 286,-377.2 162,-377.2"/>
<image xlink:href="../../images/foreignKeys.png" width="11px" height="12px" preserveAspectRatio="xMinYMin meet" x="167" y="-394.2"/>
<text text-anchor="start" x="182" y="-384.3" font-family="Helvetica,sans-Serif" font-size="11.00" fill="#000000">object_type_id</text>
<polygon fill="#ffffff" stroke="transparent" points="162,-355.2 162,-377.2 286,-377.2 286,-355.2 162,-355.2"/>
<polygon fill="none" stroke="#000000" points="162,-355.2 162,-377.2 286,-377.2 286,-355.2 162,-355.2"/>
<text text-anchor="start" x="182" y="-362.3" font-family="Helvetica,sans-Serif" font-size="11.00" fill="#000000">periode</text>
<polygon fill="none" stroke="#000000" points="162,-336.2 162,-355.2 286,-355.2 286,-336.2 162,-336.2"/>
<text text-anchor="start" x="165" y="-342.3" font-family="Helvetica,sans-Serif" font-size="11.00" fill="#000000">...</text>
<polygon fill="#ffffff" stroke="transparent" points="162,-317.2 162,-336.2 218,-336.2 218,-317.2 162,-317.2"/>
<polygon fill="none" stroke="#000000" points="162,-317.2 162,-336.2 218,-336.2 218,-317.2 162,-317.2"/>
<text text-anchor="start" x="165" y="-323.3" font-family="Helvetica,sans-Serif" font-size="11.00" fill="#000000">&lt; 2</text>
<polygon fill="#ffffff" stroke="transparent" points="218,-317.2 218,-336.2 247,-336.2 247,-317.2 218,-317.2"/>
<polygon fill="none" stroke="#000000" points="218,-317.2 218,-336.2 247,-336.2 247,-317.2 218,-317.2"/>
<text text-anchor="start" x="237.8862" y="-323.3" font-family="Helvetica,sans-Serif" font-size="11.00" fill="#000000"> &#160;</text>
<polygon fill="#ffffff" stroke="transparent" points="247,-317.2 247,-336.2 286,-336.2 286,-317.2 247,-317.2"/>
<polygon fill="none" stroke="#000000" points="247,-317.2 247,-336.2 286,-336.2 286,-317.2 247,-317.2"/>
<text text-anchor="start" x="267.4053" y="-323.3" font-family="Helvetica,sans-Serif" font-size="11.00" fill="#000000">6 &gt;</text>
</a>
</g>
</g>
<!-- bereikbaarheid&#45;&gt;object -->
<g id="edge1" class="edge">
<title>bereikbaarheid:w&#45;&gt;object:e</title>
<path fill="none" stroke="#000000" d="M374.408,-680.1818C352.8754,-676.8014 342.8609,-664.9151 327,-643.2 281.9216,-581.4835 362.4264,-476.2 286,-476.2"/>
<polygon fill="#000000" stroke="#000000" points="381.0194,-680.6431 388.7494,-684.7913 385.0097,-680.9215 389,-681.2 389,-681.2 389,-681.2 385.0097,-680.9215 389.2506,-677.6087 381.0194,-680.6431 381.0194,-680.6431"/>
<ellipse fill="none" stroke="#000000" cx="377.8272" cy="-680.4203" rx="3.2" ry="3.2"/>
</g>
<!-- roi.fase -->
<g id="node4" class="node">
<title>roi.fase</title>
<g id="a_node4"><a xlink:href="../../../roi/tables/fase.html" xlink:title="roi.fase" target="_top">
<polygon fill="#ffffff" stroke="transparent" points="20,-412.7 20,-473.7 101,-473.7 101,-412.7 20,-412.7"/>
<polygon fill="#f5f5f5" stroke="transparent" points="20.5,-450.2 20.5,-473.2 101.5,-473.2 101.5,-450.2 20.5,-450.2"/>
<polygon fill="none" stroke="#000000" points="20.5,-450.2 20.5,-473.2 101.5,-473.2 101.5,-450.2 20.5,-450.2"/>
<text text-anchor="start" x="25.5" y="-458.8" font-family="Helvetica,sans-Serif" font-weight="bold" font-size="11.00" fill="#000000">roi.fase</text>
<text text-anchor="start" x="67.0219" y="-458.3" font-family="Helvetica,sans-Serif" font-size="11.00" fill="#000000">[table]</text>
<polygon fill="none" stroke="#000000" points="20.5,-431.2 20.5,-450.2 101.5,-450.2 101.5,-431.2 20.5,-431.2"/>
<text text-anchor="start" x="23.5" y="-437.3" font-family="Helvetica,sans-Serif" font-size="11.00" fill="#000000">...</text>
<polygon fill="#ffffff" stroke="transparent" points="20.5,-412.2 20.5,-431.2 50.5,-431.2 50.5,-412.2 20.5,-412.2"/>
<polygon fill="none" stroke="#000000" points="20.5,-412.2 20.5,-431.2 50.5,-431.2 50.5,-412.2 20.5,-412.2"/>
<text text-anchor="start" x="23.5" y="-418.3" font-family="Helvetica,sans-Serif" font-size="11.00" fill="#000000"> &#160;</text>
<polygon fill="#ffffff" stroke="transparent" points="50.5,-412.2 50.5,-431.2 71.5,-431.2 71.5,-412.2 50.5,-412.2"/>
<polygon fill="none" stroke="#000000" points="50.5,-412.2 50.5,-431.2 71.5,-431.2 71.5,-412.2 50.5,-412.2"/>
<text text-anchor="start" x="62.3862" y="-418.3" font-family="Helvetica,sans-Serif" font-size="11.00" fill="#000000"> &#160;</text>
<polygon fill="#ffffff" stroke="transparent" points="71.5,-412.2 71.5,-431.2 101.5,-431.2 101.5,-412.2 71.5,-412.2"/>
<polygon fill="none" stroke="#000000" points="71.5,-412.2 71.5,-431.2 101.5,-431.2 101.5,-412.2 71.5,-412.2"/>
<text text-anchor="start" x="82.9053" y="-418.3" font-family="Helvetica,sans-Serif" font-size="11.00" fill="#000000">1 &gt;</text>
</a>
</g>
</g>
<!-- object&#45;&gt;roi.fase -->
<g id="edge3" class="edge">
<title>object:w&#45;&gt;roi.fase:e</title>
<path fill="none" stroke="#000000" d="M147.8437,-412.9686C130.7707,-420.3953 125.8857,-440.2 101.5,-440.2"/>
<polygon fill="#000000" stroke="#000000" points="154.1487,-411.7355 162.691,-413.7331 158.0744,-410.9678 162,-410.2 162,-410.2 162,-410.2 158.0744,-410.9678 161.309,-406.6669 154.1487,-411.7355 154.1487,-411.7355"/>
<ellipse fill="none" stroke="#000000" cx="151.0082" cy="-412.3497" rx="3.2" ry="3.2"/>
</g>
<!-- object_type -->
<g id="node5" class="node">
<title>object_type</title>
<g id="a_node5"><a xlink:href="../../tables/object_type.html" xlink:title="object_type" target="_top">
<polygon fill="#ffffff" stroke="transparent" points="8,-330.7 8,-391.7 113,-391.7 113,-330.7 8,-330.7"/>
<polygon fill="#f5f5f5" stroke="transparent" points="8.5,-368.2 8.5,-391.2 113.5,-391.2 113.5,-368.2 8.5,-368.2"/>
<polygon fill="none" stroke="#000000" points="8.5,-368.2 8.5,-391.2 113.5,-391.2 113.5,-368.2 8.5,-368.2"/>
<text text-anchor="start" x="13.5" y="-376.8" font-family="Helvetica,sans-Serif" font-weight="bold" font-size="11.00" fill="#000000">object_type</text>
<text text-anchor="start" x="79.0219" y="-376.3" font-family="Helvetica,sans-Serif" font-size="11.00" fill="#000000">[table]</text>
<polygon fill="none" stroke="#000000" points="8.5,-349.2 8.5,-368.2 113.5,-368.2 113.5,-349.2 8.5,-349.2"/>
<text text-anchor="start" x="11.5" y="-355.3" font-family="Helvetica,sans-Serif" font-size="11.00" fill="#000000">...</text>
<polygon fill="#ffffff" stroke="transparent" points="8.5,-330.2 8.5,-349.2 50.5,-349.2 50.5,-330.2 8.5,-330.2"/>
<polygon fill="none" stroke="#000000" points="8.5,-330.2 8.5,-349.2 50.5,-349.2 50.5,-330.2 8.5,-330.2"/>
<text text-anchor="start" x="11.5" y="-336.3" font-family="Helvetica,sans-Serif" font-size="11.00" fill="#000000"> &#160;</text>
<polygon fill="#ffffff" stroke="transparent" points="50.5,-330.2 50.5,-349.2 77.5,-349.2 77.5,-330.2 50.5,-330.2"/>
<polygon fill="none" stroke="#000000" points="50.5,-330.2 50.5,-349.2 77.5,-349.2 77.5,-330.2 50.5,-330.2"/>
<text text-anchor="start" x="68.3862" y="-336.3" font-family="Helvetica,sans-Serif" font-size="11.00" fill="#000000"> &#160;</text>
<polygon fill="#ffffff" stroke="transparent" points="77.5,-330.2 77.5,-349.2 113.5,-349.2 113.5,-330.2 77.5,-330.2"/>
<polygon fill="none" stroke="#000000" points="77.5,-330.2 77.5,-349.2 113.5,-349.2 113.5,-330.2 77.5,-330.2"/>
<text text-anchor="start" x="94.9053" y="-336.3" font-family="Helvetica,sans-Serif" font-size="11.00" fill="#000000">1 &gt;</text>
</a>
</g>
</g>
<!-- object&#45;&gt;object_type -->
<g id="edge4" class="edge">
<title>object:w&#45;&gt;object_type:e</title>
<path fill="none" stroke="#000000" d="M148.0076,-384.0286C136.1688,-375.7854 132.9055,-358.2 113.5,-358.2"/>
<polygon fill="#000000" stroke="#000000" points="154.3334,-385.9144 160.9715,-391.65 158.1667,-387.0572 162,-388.2 162,-388.2 162,-388.2 158.1667,-387.0572 163.0285,-384.75 154.3334,-385.9144 154.3334,-385.9144"/>
<ellipse fill="none" stroke="#000000" cx="151.2668" cy="-385.0002" rx="3.2" ry="3.2"/>
</g>
<!-- label -->
<g id="node3" class="node">
<title>label</title>
<g id="a_node3"><a xlink:href="../../tables/label.html" xlink:title="label" target="_top">
<polygon fill="#ffffff" stroke="transparent" points="418,-571.7 418,-632.7 484,-632.7 484,-571.7 418,-571.7"/>
<polygon fill="#f5f5f5" stroke="transparent" points="418,-609.2 418,-632.2 484,-632.2 484,-609.2 418,-609.2"/>
<polygon fill="none" stroke="#000000" points="418,-609.2 418,-632.2 484,-632.2 484,-609.2 418,-609.2"/>
<text text-anchor="start" x="422.8868" y="-617.8" font-family="Helvetica,sans-Serif" font-weight="bold" font-size="11.00" fill="#000000">label</text>
<text text-anchor="start" x="449.5219" y="-617.3" font-family="Helvetica,sans-Serif" font-size="11.00" fill="#000000">[table]</text>
<polygon fill="none" stroke="#000000" points="418,-590.2 418,-609.2 484,-609.2 484,-590.2 418,-590.2"/>
<text text-anchor="start" x="421" y="-596.3" font-family="Helvetica,sans-Serif" font-size="11.00" fill="#000000">...</text>
<polygon fill="#ffffff" stroke="transparent" points="418,-571.2 418,-590.2 449,-590.2 449,-571.2 418,-571.2"/>
<polygon fill="none" stroke="#000000" points="418,-571.2 418,-590.2 449,-590.2 449,-571.2 418,-571.2"/>
<text text-anchor="start" x="421" y="-577.3" font-family="Helvetica,sans-Serif" font-size="11.00" fill="#000000">&lt; 2</text>
<polygon fill="#ffffff" stroke="transparent" points="449,-571.2 449,-590.2 466,-590.2 466,-571.2 449,-571.2"/>
<polygon fill="none" stroke="#000000" points="449,-571.2 449,-590.2 466,-590.2 466,-571.2 449,-571.2"/>
<text text-anchor="start" x="456.8862" y="-577.3" font-family="Helvetica,sans-Serif" font-size="11.00" fill="#000000"> &#160;</text>
<polygon fill="#ffffff" stroke="transparent" points="466,-571.2 466,-590.2 484,-590.2 484,-571.2 466,-571.2"/>
<polygon fill="none" stroke="#000000" points="466,-571.2 466,-590.2 484,-590.2 484,-571.2 466,-571.2"/>
<text text-anchor="start" x="474.8862" y="-577.3" font-family="Helvetica,sans-Serif" font-size="11.00" fill="#000000"> &#160;</text>
</a>
</g>
</g>
<!-- label&#45;&gt;object -->
<g id="edge2" class="edge">
<title>label:w&#45;&gt;object:e</title>
<path fill="none" stroke="#000000" d="M403.2505,-598.8289C370.2106,-596.971 354.9625,-587.6956 327,-561.2 296.554,-532.3512 327.9429,-476.2 286,-476.2"/>
<polygon fill="#000000" stroke="#000000" points="410.0025,-598.9987 417.9094,-602.7989 414.0013,-599.0994 418,-599.2 418,-599.2 418,-599.2 414.0013,-599.0994 418.0906,-595.6011 410.0025,-598.9987 410.0025,-598.9987"/>
<ellipse fill="none" stroke="#000000" cx="406.8035" cy="-598.9182" rx="3.2" ry="3.2"/>
</g>
<!-- opstelplaats -->
<g id="node6" class="node">
<title>opstelplaats</title>
<g id="a_node6"><a xlink:href="../../tables/opstelplaats.html" xlink:title="opstelplaats" target="_top">
<polygon fill="#ffffff" stroke="transparent" points="396.5,-489.7 396.5,-550.7 505.5,-550.7 505.5,-489.7 396.5,-489.7"/>
<polygon fill="#f5f5f5" stroke="transparent" points="397,-527.2 397,-550.2 506,-550.2 506,-527.2 397,-527.2"/>
<polygon fill="none" stroke="#000000" points="397,-527.2 397,-550.2 506,-550.2 506,-527.2 397,-527.2"/>
<text text-anchor="start" x="402" y="-535.8" font-family="Helvetica,sans-Serif" font-weight="bold" font-size="11.00" fill="#000000">opstelplaats</text>
<text text-anchor="start" x="471.5219" y="-535.3" font-family="Helvetica,sans-Serif" font-size="11.00" fill="#000000">[table]</text>
<polygon fill="none" stroke="#000000" points="397,-508.2 397,-527.2 506,-527.2 506,-508.2 397,-508.2"/>
<text text-anchor="start" x="400" y="-514.3" font-family="Helvetica,sans-Serif" font-size="11.00" fill="#000000">...</text>
<polygon fill="#ffffff" stroke="transparent" points="397,-489.2 397,-508.2 450,-508.2 450,-489.2 397,-489.2"/>
<polygon fill="none" stroke="#000000" points="397,-489.2 397,-508.2 450,-508.2 450,-489.2 397,-489.2"/>
<text text-anchor="start" x="400" y="-495.3" font-family="Helvetica,sans-Serif" font-size="11.00" fill="#000000">&lt; 2</text>
<polygon fill="#ffffff" stroke="transparent" points="450,-489.2 450,-508.2 478,-508.2 478,-489.2 450,-489.2"/>
<polygon fill="none" stroke="#000000" points="450,-489.2 450,-508.2 478,-508.2 478,-489.2 450,-489.2"/>
<text text-anchor="start" x="468.8862" y="-495.3" font-family="Helvetica,sans-Serif" font-size="11.00" fill="#000000"> &#160;</text>
<polygon fill="#ffffff" stroke="transparent" points="478,-489.2 478,-508.2 506,-508.2 506,-489.2 478,-489.2"/>
<polygon fill="none" stroke="#000000" points="478,-489.2 478,-508.2 506,-508.2 506,-489.2 478,-489.2"/>
<text text-anchor="start" x="496.8862" y="-495.3" font-family="Helvetica,sans-Serif" font-size="11.00" fill="#000000"> &#160;</text>
</a>
</g>
</g>
<!-- opstelplaats&#45;&gt;object -->
<g id="edge5" class="edge">
<title>opstelplaats:w&#45;&gt;object:e</title>
<path fill="none" stroke="#000000" d="M382.5841,-516.0606C342.7858,-509.4388 333.3526,-476.2 286,-476.2"/>
<polygon fill="#000000" stroke="#000000" points="389.0249,-516.5696 396.7163,-520.7888 393.0124,-516.8848 397,-517.2 397,-517.2 397,-517.2 393.0124,-516.8848 397.2837,-513.6112 389.0249,-516.5696 389.0249,-516.5696"/>
<ellipse fill="none" stroke="#000000" cx="385.8348" cy="-516.3175" rx="3.2" ry="3.2"/>
</g>
<!-- risico -->
<g id="node7" class="node">
<title>risico</title>
<g id="a_node7"><a xlink:href="../../tables/risico.html" xlink:title="risico" target="_top">
<polygon fill="#ffffff" stroke="transparent" points="335,-38.2 335,-304.2 567,-304.2 567,-38.2 335,-38.2"/>
<polygon fill="#f5f5f5" stroke="transparent" points="337,-279.2 337,-302.2 565,-302.2 565,-279.2 337,-279.2"/>
<polygon fill="none" stroke="#000000" points="337,-279.2 337,-302.2 565,-302.2 565,-279.2 337,-279.2"/>
<text text-anchor="start" x="342" y="-287.8" font-family="Helvetica,sans-Serif" font-weight="bold" font-size="11.00" fill="#000000">risico</text>
<text text-anchor="start" x="530.0437" y="-287.3" font-family="Helvetica,sans-Serif" font-size="11.00" fill="#000000">[table]</text>
<polygon fill="none" stroke="#000000" points="337,-257.2 337,-279.2 446,-279.2 446,-257.2 337,-257.2"/>
<image xlink:href="../../images/primaryKeys.png" width="11px" height="12px" preserveAspectRatio="xMinYMin meet" x="342" y="-274.2"/>
<text text-anchor="start" x="357" y="-264.3" font-family="Helvetica,sans-Serif" font-size="11.00" fill="#000000">uuid</text>
<polygon fill="none" stroke="#000000" points="446,-257.2 446,-279.2 565,-279.2 565,-257.2 446,-257.2"/>
<text text-anchor="start" x="449" y="-264.9" font-family="Helvetica,sans-Serif" font-size="11.00" fill="#000000">uuid[2147483647]</text>
<polygon fill="#ffffff" stroke="transparent" points="337,-235.2 337,-257.2 446,-257.2 446,-235.2 337,-235.2"/>
<polygon fill="none" stroke="#000000" points="337,-235.2 337,-257.2 446,-257.2 446,-235.2 337,-235.2"/>
<text text-anchor="start" x="357" y="-242.3" font-family="Helvetica,sans-Serif" font-size="11.00" fill="#000000">geom</text>
<polygon fill="none" stroke="#000000" points="446,-235.2 446,-257.2 565,-257.2 565,-235.2 446,-235.2"/>
<text text-anchor="start" x="448.9485" y="-242.9" font-family="Helvetica,sans-Serif" font-size="11.00" fill="#000000">geometry[2147483647]</text>
<polygon fill="none" stroke="#000000" points="337,-213.2 337,-235.2 446,-235.2 446,-213.2 337,-213.2"/>
<text text-anchor="start" x="357" y="-220.3" font-family="Helvetica,sans-Serif" font-size="11.00" fill="#000000">datumtijd</text>
<polygon fill="none" stroke="#000000" points="446,-213.2 446,-235.2 565,-235.2 565,-213.2 446,-213.2"/>
<text text-anchor="start" x="449" y="-220.9" font-family="Helvetica,sans-Serif" font-size="11.00" fill="#000000">timestamptz[35,6]</text>
<polygon fill="none" stroke="#000000" points="337,-191.2 337,-213.2 446,-213.2 446,-191.2 337,-191.2"/>
<text text-anchor="start" x="357" y="-198.3" font-family="Helvetica,sans-Serif" font-size="11.00" fill="#000000">gebruiker</text>
<polygon fill="none" stroke="#000000" points="446,-191.2 446,-213.2 565,-213.2 565,-191.2 446,-191.2"/>
<text text-anchor="start" x="449" y="-198.9" font-family="Helvetica,sans-Serif" font-size="11.00" fill="#000000">varchar[255]</text>
<polygon fill="none" stroke="#000000" points="337,-169.2 337,-191.2 446,-191.2 446,-169.2 337,-169.2"/>
<text text-anchor="start" x="357" y="-176.3" font-family="Helvetica,sans-Serif" font-size="11.00" fill="#000000">label</text>
<polygon fill="none" stroke="#000000" points="446,-169.2 446,-191.2 565,-191.2 565,-169.2 446,-169.2"/>
<text text-anchor="start" x="449" y="-176.9" font-family="Helvetica,sans-Serif" font-size="11.00" fill="#000000">text[2147483647]</text>
<polygon fill="none" stroke="#000000" points="337,-147.2 337,-169.2 446,-169.2 446,-147.2 337,-147.2"/>
<text text-anchor="start" x="357" y="-154.3" font-family="Helvetica,sans-Serif" font-size="11.00" fill="#000000">rotatie</text>
<polygon fill="none" stroke="#000000" points="446,-147.2 446,-169.2 565,-169.2 565,-147.2 446,-147.2"/>
<text text-anchor="start" x="449" y="-154.9" font-family="Helvetica,sans-Serif" font-size="11.00" fill="#000000">int4[10]</text>
<polygon fill="none" stroke="#000000" points="337,-125.2 337,-147.2 446,-147.2 446,-125.2 337,-125.2"/>
<text text-anchor="start" x="357" y="-132.3" font-family="Helvetica,sans-Serif" font-size="11.00" fill="#000000">bijzonderheden</text>
<polygon fill="none" stroke="#000000" points="446,-125.2 446,-147.2 565,-147.2 565,-125.2 446,-125.2"/>
<text text-anchor="start" x="449" y="-132.9" font-family="Helvetica,sans-Serif" font-size="11.00" fill="#000000">text[2147483647]</text>
<polygon fill="none" stroke="#000000" points="337,-103.2 337,-125.2 446,-125.2 446,-103.2 337,-103.2"/>
<text text-anchor="start" x="357" y="-110.3" font-family="Helvetica,sans-Serif" font-size="11.00" fill="#000000">plusinfo</text>
<polygon fill="none" stroke="#000000" points="446,-103.2 446,-125.2 565,-125.2 565,-103.2 446,-103.2"/>
<text text-anchor="start" x="449" y="-110.9" font-family="Helvetica,sans-Serif" font-size="11.00" fill="#000000">jsonb[2147483647]</text>
<polygon fill="#ffffff" stroke="transparent" points="337,-81.2 337,-103.2 446,-103.2 446,-81.2 337,-81.2"/>
<polygon fill="none" stroke="#000000" points="337,-81.2 337,-103.2 446,-103.2 446,-81.2 337,-81.2"/>
<image xlink:href="../../images/foreignKeys.png" width="11px" height="12px" preserveAspectRatio="xMinYMin meet" x="342" y="-98.2"/>
<text text-anchor="start" x="357" y="-88.3" font-family="Helvetica,sans-Serif" font-size="11.00" fill="#000000">object_uuid</text>
<polygon fill="none" stroke="#000000" points="446,-81.2 446,-103.2 565,-103.2 565,-81.2 446,-81.2"/>
<text text-anchor="start" x="449" y="-88.9" font-family="Helvetica,sans-Serif" font-size="11.00" fill="#000000">uuid[2147483647]</text>
<polygon fill="none" stroke="#000000" points="337,-59.2 337,-81.2 446,-81.2 446,-59.2 337,-59.2"/>
<image xlink:href="../../images/foreignKeys.png" width="11px" height="12px" preserveAspectRatio="xMinYMin meet" x="342" y="-76.2"/>
<text text-anchor="start" x="357" y="-66.3" font-family="Helvetica,sans-Serif" font-size="11.00" fill="#000000">dreiging_id</text>
<polygon fill="none" stroke="#000000" points="446,-59.2 446,-81.2 565,-81.2 565,-59.2 446,-59.2"/>
<text text-anchor="start" x="449" y="-66.9" font-family="Helvetica,sans-Serif" font-size="11.00" fill="#000000">int2[5]</text>
<polygon fill="#ffffff" stroke="transparent" points="337,-40.2 337,-59.2 396,-59.2 396,-40.2 337,-40.2"/>
<polygon fill="none" stroke="#000000" points="337,-40.2 337,-59.2 396,-59.2 396,-40.2 337,-40.2"/>
<text text-anchor="start" x="340" y="-46.3" font-family="Helvetica,sans-Serif" font-size="11.00" fill="#000000">&lt; 2</text>
<polygon fill="#ffffff" stroke="transparent" points="396,-40.2 396,-59.2 446,-59.2 446,-40.2 396,-40.2"/>
<polygon fill="none" stroke="#000000" points="396,-40.2 396,-59.2 446,-59.2 446,-40.2 396,-40.2"/>
<text text-anchor="start" x="436.8862" y="-46.3" font-family="Helvetica,sans-Serif" font-size="11.00" fill="#000000"> &#160;</text>
<polygon fill="#ffffff" stroke="transparent" points="446,-40.2 446,-59.2 565,-59.2 565,-40.2 446,-40.2"/>
<polygon fill="none" stroke="#000000" points="446,-40.2 446,-59.2 565,-59.2 565,-40.2 446,-40.2"/>
<text text-anchor="start" x="546.4053" y="-46.3" font-family="Helvetica,sans-Serif" font-size="11.00" fill="#000000">0 &gt;</text>
<polygon fill="none" stroke="#000000" stroke-width="2" points="336,-39.2 336,-303.2 566,-303.2 566,-39.2 336,-39.2"/>
</a>
</g>
</g>
<!-- risico&#45;&gt;object -->
<g id="edge7" class="edge">
<title>risico:w&#45;&gt;object:e</title>
<path fill="none" stroke="#000000" d="M323.187,-96.5125C265.2535,-138.7 366.7025,-476.2 286,-476.2"/>
<polygon fill="#000000" stroke="#000000" points="329.3635,-94.5842 338.0729,-95.6364 333.1818,-93.3921 337,-92.2 337,-92.2 337,-92.2 333.1818,-93.3921 335.9271,-88.7636 329.3635,-94.5842 329.3635,-94.5842"/>
<ellipse fill="none" stroke="#000000" cx="326.3089" cy="-95.5379" rx="3.2" ry="3.2"/>
</g>
<!-- roi.dreiging -->
<g id="node8" class="node">
<title>roi.dreiging</title>
<g id="a_node8"><a xlink:href="../../../roi/tables/dreiging.html" xlink:title="roi.dreiging" target="_top">
<polygon fill="#ffffff" stroke="transparent" points="171.5,-39.7 171.5,-100.7 276.5,-100.7 276.5,-39.7 171.5,-39.7"/>
<polygon fill="#f5f5f5" stroke="transparent" points="172,-77.2 172,-100.2 277,-100.2 277,-77.2 172,-77.2"/>
<polygon fill="none" stroke="#000000" points="172,-77.2 172,-100.2 277,-100.2 277,-77.2 172,-77.2"/>
<text text-anchor="start" x="177" y="-85.8" font-family="Helvetica,sans-Serif" font-weight="bold" font-size="11.00" fill="#000000">roi.dreiging</text>
<text text-anchor="start" x="242.5219" y="-85.3" font-family="Helvetica,sans-Serif" font-size="11.00" fill="#000000">[table]</text>
<polygon fill="none" stroke="#000000" points="172,-58.2 172,-77.2 277,-77.2 277,-58.2 172,-58.2"/>
<text text-anchor="start" x="175" y="-64.3" font-family="Helvetica,sans-Serif" font-size="11.00" fill="#000000">...</text>
<polygon fill="#ffffff" stroke="transparent" points="172,-39.2 172,-58.2 214,-58.2 214,-39.2 172,-39.2"/>
<polygon fill="none" stroke="#000000" points="172,-39.2 172,-58.2 214,-58.2 214,-39.2 172,-39.2"/>
<text text-anchor="start" x="175" y="-45.3" font-family="Helvetica,sans-Serif" font-size="11.00" fill="#000000"> &#160;</text>
<polygon fill="#ffffff" stroke="transparent" points="214,-39.2 214,-58.2 241,-58.2 241,-39.2 214,-39.2"/>
<polygon fill="none" stroke="#000000" points="214,-39.2 214,-58.2 241,-58.2 241,-39.2 214,-39.2"/>
<text text-anchor="start" x="231.8862" y="-45.3" font-family="Helvetica,sans-Serif" font-size="11.00" fill="#000000"> &#160;</text>
<polygon fill="#ffffff" stroke="transparent" points="241,-39.2 241,-58.2 277,-58.2 277,-39.2 241,-39.2"/>
<polygon fill="none" stroke="#000000" points="241,-39.2 241,-58.2 277,-58.2 277,-39.2 241,-39.2"/>
<text text-anchor="start" x="258.4053" y="-45.3" font-family="Helvetica,sans-Serif" font-size="11.00" fill="#000000">1 &gt;</text>
</a>
</g>
</g>
<!-- risico&#45;&gt;roi.dreiging -->
<g id="edge6" class="edge">
<title>risico:w&#45;&gt;roi.dreiging:e</title>
<path fill="none" stroke="#000000" d="M322.4064,-70.2C309.7951,-70.2 296.8656,-70.2 284.6969,-70.2"/>
<polygon fill="#000000" stroke="#000000" points="329,-70.2001 337,-73.8 333,-70.2 337,-70.2 337,-70.2 337,-70.2 333,-70.2 337,-66.6 329,-70.2001 329,-70.2001"/>
<ellipse fill="none" stroke="#000000" cx="325.8" cy="-70.2001" rx="3.2" ry="3.2"/>
</g>
<!-- sector -->
<g id="node9" class="node">
<title>sector</title>
<g id="a_node9"><a xlink:href="../../tables/sector.html" xlink:title="sector" target="_top">
<polygon fill="#ffffff" stroke="transparent" points="413.5,-407.7 413.5,-468.7 488.5,-468.7 488.5,-407.7 413.5,-407.7"/>
<polygon fill="#f5f5f5" stroke="transparent" points="414,-445.2 414,-468.2 489,-468.2 489,-445.2 414,-445.2"/>
<polygon fill="none" stroke="#000000" points="414,-445.2 414,-468.2 489,-468.2 489,-445.2 414,-445.2"/>
<text text-anchor="start" x="419" y="-453.8" font-family="Helvetica,sans-Serif" font-weight="bold" font-size="11.00" fill="#000000">sector</text>
<text text-anchor="start" x="454.5219" y="-453.3" font-family="Helvetica,sans-Serif" font-size="11.00" fill="#000000">[table]</text>
<polygon fill="none" stroke="#000000" points="414,-426.2 414,-445.2 489,-445.2 489,-426.2 414,-426.2"/>
<text text-anchor="start" x="417" y="-432.3" font-family="Helvetica,sans-Serif" font-size="11.00" fill="#000000">...</text>
<polygon fill="#ffffff" stroke="transparent" points="414,-407.2 414,-426.2 450,-426.2 450,-407.2 414,-407.2"/>
<polygon fill="none" stroke="#000000" points="414,-407.2 414,-426.2 450,-426.2 450,-407.2 414,-407.2"/>
<text text-anchor="start" x="417" y="-413.3" font-family="Helvetica,sans-Serif" font-size="11.00" fill="#000000">&lt; 2</text>
<polygon fill="#ffffff" stroke="transparent" points="450,-407.2 450,-426.2 469,-426.2 469,-407.2 450,-407.2"/>
<polygon fill="none" stroke="#000000" points="450,-407.2 450,-426.2 469,-426.2 469,-407.2 450,-407.2"/>
<text text-anchor="start" x="459.8862" y="-413.3" font-family="Helvetica,sans-Serif" font-size="11.00" fill="#000000"> &#160;</text>
<polygon fill="#ffffff" stroke="transparent" points="469,-407.2 469,-426.2 489,-426.2 489,-407.2 469,-407.2"/>
<polygon fill="none" stroke="#000000" points="469,-407.2 469,-426.2 489,-426.2 489,-407.2 469,-407.2"/>
<text text-anchor="start" x="479.8862" y="-413.3" font-family="Helvetica,sans-Serif" font-size="11.00" fill="#000000"> &#160;</text>
</a>
</g>
</g>
<!-- sector&#45;&gt;object -->
<g id="edge8" class="edge">
<title>sector:w&#45;&gt;object:e</title>
<path fill="none" stroke="#000000" d="M399.3665,-436.0945C352.3693,-442.0903 340.4858,-476.2 286,-476.2"/>
<polygon fill="#000000" stroke="#000000" points="406.0149,-435.6881 414.2197,-438.7933 410.0075,-435.4441 414,-435.2 414,-435.2 414,-435.2 410.0075,-435.4441 413.7803,-431.6067 406.0149,-435.6881 406.0149,-435.6881"/>
<ellipse fill="none" stroke="#000000" cx="402.8209" cy="-435.8834" rx="3.2" ry="3.2"/>
</g>
<!-- voorziening -->
<g id="node10" class="node">
<title>voorziening</title>
<g id="a_node10"><a xlink:href="../../tables/voorziening.html" xlink:title="voorziening" target="_top">
<polygon fill="#ffffff" stroke="transparent" points="398,-325.7 398,-386.7 504,-386.7 504,-325.7 398,-325.7"/>
<polygon fill="#f5f5f5" stroke="transparent" points="398,-363.2 398,-386.2 504,-386.2 504,-363.2 398,-363.2"/>
<polygon fill="none" stroke="#000000" points="398,-363.2 398,-386.2 504,-386.2 504,-363.2 398,-363.2"/>
<text text-anchor="start" x="403" y="-371.8" font-family="Helvetica,sans-Serif" font-weight="bold" font-size="11.00" fill="#000000">voorziening</text>
<text text-anchor="start" x="469.5219" y="-371.3" font-family="Helvetica,sans-Serif" font-size="11.00" fill="#000000">[table]</text>
<polygon fill="none" stroke="#000000" points="398,-344.2 398,-363.2 504,-363.2 504,-344.2 398,-344.2"/>
<text text-anchor="start" x="401" y="-350.3" font-family="Helvetica,sans-Serif" font-size="11.00" fill="#000000">...</text>
<polygon fill="#ffffff" stroke="transparent" points="398,-325.2 398,-344.2 449,-344.2 449,-325.2 398,-325.2"/>
<polygon fill="none" stroke="#000000" points="398,-325.2 398,-344.2 449,-344.2 449,-325.2 398,-325.2"/>
<text text-anchor="start" x="401" y="-331.3" font-family="Helvetica,sans-Serif" font-size="11.00" fill="#000000">&lt; 2</text>
<polygon fill="#ffffff" stroke="transparent" points="449,-325.2 449,-344.2 476,-344.2 476,-325.2 449,-325.2"/>
<polygon fill="none" stroke="#000000" points="449,-325.2 449,-344.2 476,-344.2 476,-325.2 449,-325.2"/>
<text text-anchor="start" x="466.8862" y="-331.3" font-family="Helvetica,sans-Serif" font-size="11.00" fill="#000000"> &#160;</text>
<polygon fill="#ffffff" stroke="transparent" points="476,-325.2 476,-344.2 504,-344.2 504,-325.2 476,-325.2"/>
<polygon fill="none" stroke="#000000" points="476,-325.2 476,-344.2 504,-344.2 504,-325.2 476,-325.2"/>
<text text-anchor="start" x="494.8862" y="-331.3" font-family="Helvetica,sans-Serif" font-size="11.00" fill="#000000"> &#160;</text>
</a>
</g>
</g>
<!-- voorziening&#45;&gt;object -->
<g id="edge9" class="edge">
<title>voorziening:w&#45;&gt;object:e</title>
<path fill="none" stroke="#000000" d="M383.5521,-354.2319C358.0313,-358.2662 348.5863,-373.9059 327,-397.2 300.1121,-426.2152 325.5581,-476.2 286,-476.2"/>
<polygon fill="#000000" stroke="#000000" points="390.0203,-353.77 398.2565,-356.7909 394.0102,-353.485 398,-353.2 398,-353.2 398,-353.2 394.0102,-353.485 397.7435,-349.6091 390.0203,-353.77 390.0203,-353.77"/>
<ellipse fill="none" stroke="#000000" cx="386.8285" cy="-353.998" rx="3.2" ry="3.2"/>
</g>
</g>
</svg>
