<?xml version="1.0" encoding="UTF-8" standalone="no"?>
<!DOCTYPE svg PUBLIC "-//W3C//DTD SVG 1.1//EN"
 "http://www.w3.org/Graphics/SVG/1.1/DTD/svg11.dtd">
<!-- Generated by graphviz version 2.50.0 (0)
 -->
<!-- Title: twoDegreesRelationshipsDiagram Pages: 1 -->
<svg width="630pt" height="686pt"
 viewBox="0.00 0.00 630.00 686.00" xmlns="http://www.w3.org/2000/svg" xmlns:xlink="http://www.w3.org/1999/xlink">
<g id="graph0" class="graph" transform="scale(1 1) rotate(0) translate(4 682)">
<title>twoDegreesRelationshipsDiagram</title>
<polygon fill="#ffffff" stroke="transparent" points="-4,4 -4,-682 626,-682 626,4 -4,4"/>
<text text-anchor="middle" x="79.5" y="-7.2" font-family="Helvetica,sans-Serif" font-size="11.00">Generated by SchemaSpy</text>
<!-- bereikbaarheid -->
<g id="node1" class="node">
<title>bereikbaarheid</title>
<g id="a_node1"><a xlink:href="../../tables/bereikbaarheid.html" xlink:title="bereikbaarheid" target="_top">
<polygon fill="#ffffff" stroke="transparent" points="414.5,-616 414.5,-674 559.5,-674 559.5,-616 414.5,-616"/>
<polygon fill="#f5f5f5" stroke="transparent" points="415,-652 415,-674 560,-674 560,-652 415,-652"/>
<polygon fill="none" stroke="black" points="415,-652 415,-674 560,-674 560,-652 415,-652"/>
<text text-anchor="start" x="420" y="-661.2" font-family="Helvetica,sans-Serif" font-weight="bold" font-size="11.00">bereikbaarheid</text>
<text text-anchor="start" x="518" y="-660.2" font-family="Helvetica,sans-Serif" font-size="11.00">[table]</text>
<polygon fill="none" stroke="black" points="415,-634 415,-652 560,-652 560,-634 415,-634"/>
<text text-anchor="start" x="418" y="-640.2" font-family="Helvetica,sans-Serif" font-size="11.00">...</text>
<polygon fill="#ffffff" stroke="transparent" points="415,-616 415,-634 486,-634 486,-616 415,-616"/>
<polygon fill="none" stroke="black" points="415,-616 415,-634 486,-634 486,-616 415,-616"/>
<text text-anchor="start" x="418" y="-622.2" font-family="Helvetica,sans-Serif" font-size="11.00">&lt; 2</text>
<polygon fill="#ffffff" stroke="transparent" points="486,-616 486,-634 523,-634 523,-616 486,-616"/>
<polygon fill="none" stroke="black" points="486,-616 486,-634 523,-634 523,-616 486,-616"/>
<text text-anchor="start" x="512" y="-622.2" font-family="Helvetica,sans-Serif" font-size="11.00"> &#160;</text>
<polygon fill="#ffffff" stroke="transparent" points="523,-616 523,-634 560,-634 560,-616 523,-616"/>
<polygon fill="none" stroke="black" points="523,-616 523,-634 560,-634 560,-616 523,-616"/>
<text text-anchor="start" x="549" y="-622.2" font-family="Helvetica,sans-Serif" font-size="11.00"> &#160;</text>
</a>
</g>
</g>
<!-- object -->
<g id="node2" class="node">
<title>object</title>
<g id="a_node2"><a xlink:href="../../tables/object.html" xlink:title="object" target="_top">
<polygon fill="#ffffff" stroke="transparent" points="180,-198 180,-388 311,-388 311,-198 180,-198"/>
<polygon fill="#f5f5f5" stroke="transparent" points="180.5,-366 180.5,-388 311.5,-388 311.5,-366 180.5,-366"/>
<polygon fill="none" stroke="black" points="180.5,-366 180.5,-388 311.5,-388 311.5,-366 180.5,-366"/>
<text text-anchor="start" x="185.5" y="-375.2" font-family="Helvetica,sans-Serif" font-weight="bold" font-size="11.00">object</text>
<text text-anchor="start" x="269.5" y="-374.2" font-family="Helvetica,sans-Serif" font-size="11.00">[table]</text>
<polygon fill="none" stroke="black" points="180.5,-344 180.5,-366 311.5,-366 311.5,-344 180.5,-344"/>
<image xlink:href="../../images/primaryKeys.png" width="11px" height="12px" preserveAspectRatio="xMinYMin meet" x="185.5" y="-361"/>
<text text-anchor="start" x="200.5" y="-352.2" font-family="Helvetica,sans-Serif" font-size="11.00">uuid</text>
<polygon fill="#ffffff" stroke="transparent" points="180.5,-322 180.5,-344 311.5,-344 311.5,-322 180.5,-322"/>
<polygon fill="none" stroke="black" points="180.5,-322 180.5,-344 311.5,-344 311.5,-322 180.5,-322"/>
<text text-anchor="start" x="200.5" y="-330.2" font-family="Helvetica,sans-Serif" font-size="11.00">geom</text>
<polygon fill="#ffffff" stroke="transparent" points="180.5,-300 180.5,-322 311.5,-322 311.5,-300 180.5,-300"/>
<polygon fill="none" stroke="black" points="180.5,-300 180.5,-322 311.5,-322 311.5,-300 180.5,-300"/>
<text text-anchor="start" x="200.5" y="-308.2" font-family="Helvetica,sans-Serif" font-size="11.00">revisie_frequentie</text>
<polygon fill="#ffffff" stroke="transparent" points="180.5,-278 180.5,-300 311.5,-300 311.5,-278 180.5,-278"/>
<polygon fill="none" stroke="black" points="180.5,-278 180.5,-300 311.5,-300 311.5,-278 180.5,-278"/>
<image xlink:href="../../images/foreignKeys.png" width="11px" height="12px" preserveAspectRatio="xMinYMin meet" x="185.5" y="-295"/>
<text text-anchor="start" x="200.5" y="-286.2" font-family="Helvetica,sans-Serif" font-size="11.00">fase_id</text>
<polygon fill="#ffffff" stroke="transparent" points="180.5,-256 180.5,-278 311.5,-278 311.5,-256 180.5,-256"/>
<polygon fill="none" stroke="black" points="180.5,-256 180.5,-278 311.5,-278 311.5,-256 180.5,-256"/>
<image xlink:href="../../images/foreignKeys.png" width="11px" height="12px" preserveAspectRatio="xMinYMin meet" x="185.5" y="-273"/>
<text text-anchor="start" x="200.5" y="-264.2" font-family="Helvetica,sans-Serif" font-size="11.00">object_type_id</text>
<polygon fill="#ffffff" stroke="transparent" points="180.5,-234 180.5,-256 311.5,-256 311.5,-234 180.5,-234"/>
<polygon fill="none" stroke="black" points="180.5,-234 180.5,-256 311.5,-256 311.5,-234 180.5,-234"/>
<text text-anchor="start" x="200.5" y="-242.2" font-family="Helvetica,sans-Serif" font-size="11.00">periode</text>
<polygon fill="none" stroke="black" points="180.5,-216 180.5,-234 311.5,-234 311.5,-216 180.5,-216"/>
<text text-anchor="start" x="183.5" y="-222.2" font-family="Helvetica,sans-Serif" font-size="11.00">...</text>
<polygon fill="#ffffff" stroke="transparent" points="180.5,-198 180.5,-216 238.5,-216 238.5,-198 180.5,-198"/>
<polygon fill="none" stroke="black" points="180.5,-198 180.5,-216 238.5,-216 238.5,-198 180.5,-198"/>
<text text-anchor="start" x="183.5" y="-204.2" font-family="Helvetica,sans-Serif" font-size="11.00">&lt; 2</text>
<polygon fill="#ffffff" stroke="transparent" points="238.5,-198 238.5,-216 268.5,-216 268.5,-198 238.5,-198"/>
<polygon fill="none" stroke="black" points="238.5,-198 238.5,-216 268.5,-216 268.5,-198 238.5,-198"/>
<text text-anchor="start" x="257.5" y="-204.2" font-family="Helvetica,sans-Serif" font-size="11.00"> &#160;</text>
<polygon fill="#ffffff" stroke="transparent" points="268.5,-198 268.5,-216 311.5,-216 311.5,-198 268.5,-198"/>
<polygon fill="none" stroke="black" points="268.5,-198 268.5,-216 311.5,-216 311.5,-198 268.5,-198"/>
<text text-anchor="start" x="288.5" y="-204.2" font-family="Helvetica,sans-Serif" font-size="11.00">6 &gt;</text>
</a>
</g>
</g>
<!-- bereikbaarheid&#45;&gt;object -->
<g id="edge1" class="edge">
<title>bereikbaarheid:w&#45;&gt;object:e</title>
<path fill="none" stroke="black" d="M399.41,-642.09C377.73,-639.05 366.95,-628.12 352,-606 320.38,-559.22 368.96,-355 312.5,-355"/>
<polygon fill="black" stroke="black" points="406.02,-642.5 413.78,-646.59 410.01,-642.75 414,-643 414,-643 414,-643 410.01,-642.75 414.22,-639.41 406.02,-642.5 406.02,-642.5"/>
<ellipse fill="none" stroke="black" cx="402.82" cy="-642.3" rx="3.2" ry="3.2"/>
</g>
<!-- roi.fase -->
<g id="node4" class="node">
<title>roi.fase</title>
<g id="a_node4"><a xlink:href="../../../roi/tables/fase.html" xlink:title="roi.fase" target="_top">
<polygon fill="#ffffff" stroke="transparent" points="20,-291 20,-349 119,-349 119,-291 20,-291"/>
<polygon fill="#f5f5f5" stroke="transparent" points="20.5,-327 20.5,-349 119.5,-349 119.5,-327 20.5,-327"/>
<polygon fill="none" stroke="black" points="20.5,-327 20.5,-349 119.5,-349 119.5,-327 20.5,-327"/>
<text text-anchor="start" x="25.5" y="-336.2" font-family="Helvetica,sans-Serif" font-weight="bold" font-size="11.00">roi.fase</text>
<text text-anchor="start" x="77.5" y="-335.2" font-family="Helvetica,sans-Serif" font-size="11.00">[table]</text>
<polygon fill="none" stroke="black" points="20.5,-309 20.5,-327 119.5,-327 119.5,-309 20.5,-309"/>
<text text-anchor="start" x="23.5" y="-315.2" font-family="Helvetica,sans-Serif" font-size="11.00">...</text>
<polygon fill="#ffffff" stroke="transparent" points="20.5,-291 20.5,-309 56.5,-309 56.5,-291 20.5,-291"/>
<polygon fill="none" stroke="black" points="20.5,-291 20.5,-309 56.5,-309 56.5,-291 20.5,-291"/>
<text text-anchor="start" x="23.5" y="-297.2" font-family="Helvetica,sans-Serif" font-size="11.00"> &#160;</text>
<polygon fill="#ffffff" stroke="transparent" points="56.5,-291 56.5,-309 81.5,-309 81.5,-291 56.5,-291"/>
<polygon fill="none" stroke="black" points="56.5,-291 56.5,-309 81.5,-309 81.5,-291 56.5,-291"/>
<text text-anchor="start" x="70.5" y="-297.2" font-family="Helvetica,sans-Serif" font-size="11.00"> &#160;</text>
<polygon fill="#ffffff" stroke="transparent" points="81.5,-291 81.5,-309 119.5,-309 119.5,-291 81.5,-291"/>
<polygon fill="none" stroke="black" points="81.5,-291 81.5,-309 119.5,-309 119.5,-291 81.5,-291"/>
<text text-anchor="start" x="96.5" y="-297.2" font-family="Helvetica,sans-Serif" font-size="11.00">1 &gt;</text>
</a>
</g>
</g>
<!-- object&#45;&gt;roi.fase -->
<g id="edge3" class="edge">
<title>object:w&#45;&gt;roi.fase:e</title>
<path fill="none" stroke="black" d="M165.23,-291.89C148.97,-299.22 144.01,-318 120.5,-318"/>
<polygon fill="black" stroke="black" points="171.66,-290.59 180.21,-292.53 175.58,-289.79 179.5,-289 179.5,-289 179.5,-289 175.58,-289.79 178.79,-285.47 171.66,-290.59 171.66,-290.59"/>
<ellipse fill="none" stroke="black" cx="168.52" cy="-291.22" rx="3.2" ry="3.2"/>
</g>
<!-- object_type -->
<g id="node5" class="node">
<title>object_type</title>
<g id="a_node5"><a xlink:href="../../tables/object_type.html" xlink:title="object_type" target="_top">
<polygon fill="#ffffff" stroke="transparent" points="8,-212 8,-270 131,-270 131,-212 8,-212"/>
<polygon fill="#f5f5f5" stroke="transparent" points="8.5,-248 8.5,-270 131.5,-270 131.5,-248 8.5,-248"/>
<polygon fill="none" stroke="black" points="8.5,-248 8.5,-270 131.5,-270 131.5,-248 8.5,-248"/>
<text text-anchor="start" x="13.5" y="-257.2" font-family="Helvetica,sans-Serif" font-weight="bold" font-size="11.00">object_type</text>
<text text-anchor="start" x="89.5" y="-256.2" font-family="Helvetica,sans-Serif" font-size="11.00">[table]</text>
<polygon fill="none" stroke="black" points="8.5,-230 8.5,-248 131.5,-248 131.5,-230 8.5,-230"/>
<text text-anchor="start" x="11.5" y="-236.2" font-family="Helvetica,sans-Serif" font-size="11.00">...</text>
<polygon fill="#ffffff" stroke="transparent" points="8.5,-212 8.5,-230 56.5,-230 56.5,-212 8.5,-212"/>
<polygon fill="none" stroke="black" points="8.5,-212 8.5,-230 56.5,-230 56.5,-212 8.5,-212"/>
<text text-anchor="start" x="11.5" y="-218.2" font-family="Helvetica,sans-Serif" font-size="11.00"> &#160;</text>
<polygon fill="#ffffff" stroke="transparent" points="56.5,-212 56.5,-230 87.5,-230 87.5,-212 56.5,-212"/>
<polygon fill="none" stroke="black" points="56.5,-212 56.5,-230 87.5,-230 87.5,-212 56.5,-212"/>
<text text-anchor="start" x="76.5" y="-218.2" font-family="Helvetica,sans-Serif" font-size="11.00"> &#160;</text>
<polygon fill="#ffffff" stroke="transparent" points="87.5,-212 87.5,-230 131.5,-230 131.5,-212 87.5,-212"/>
<polygon fill="none" stroke="black" points="87.5,-212 87.5,-230 131.5,-230 131.5,-212 87.5,-212"/>
<text text-anchor="start" x="108.5" y="-218.2" font-family="Helvetica,sans-Serif" font-size="11.00">1 &gt;</text>
</a>
</g>
</g>
<!-- object&#45;&gt;object_type -->
<g id="edge4" class="edge">
<title>object:w&#45;&gt;object_type:e</title>
<path fill="none" stroke="black" d="M165.66,-262.87C154.45,-255.08 150.93,-239 132.5,-239"/>
<polygon fill="black" stroke="black" points="171.83,-264.71 178.47,-270.45 175.67,-265.86 179.5,-267 179.5,-267 179.5,-267 175.67,-265.86 180.53,-263.55 171.83,-264.71 171.83,-264.71"/>
<ellipse fill="none" stroke="black" cx="168.77" cy="-263.8" rx="3.2" ry="3.2"/>
</g>
<!-- label -->
<g id="node3" class="node">
<title>label</title>
<g id="a_node3"><a xlink:href="../../tables/label.html" xlink:title="label" target="_top">
<polygon fill="#ffffff" stroke="transparent" points="446,-537 446,-595 528,-595 528,-537 446,-537"/>
<polygon fill="#f5f5f5" stroke="transparent" points="446,-573 446,-595 528,-595 528,-573 446,-573"/>
<polygon fill="none" stroke="black" points="446,-573 446,-595 528,-595 528,-573 446,-573"/>
<text text-anchor="start" x="451" y="-582.2" font-family="Helvetica,sans-Serif" font-weight="bold" font-size="11.00">label</text>
<text text-anchor="start" x="486" y="-581.2" font-family="Helvetica,sans-Serif" font-size="11.00">[table]</text>
<polygon fill="none" stroke="black" points="446,-555 446,-573 528,-573 528,-555 446,-555"/>
<text text-anchor="start" x="449" y="-561.2" font-family="Helvetica,sans-Serif" font-size="11.00">...</text>
<polygon fill="#ffffff" stroke="transparent" points="446,-537 446,-555 486,-555 486,-537 446,-537"/>
<polygon fill="none" stroke="black" points="446,-537 446,-555 486,-555 486,-537 446,-537"/>
<text text-anchor="start" x="449" y="-543.2" font-family="Helvetica,sans-Serif" font-size="11.00">&lt; 2</text>
<polygon fill="#ffffff" stroke="transparent" points="486,-537 486,-555 507,-555 507,-537 486,-537"/>
<polygon fill="none" stroke="black" points="486,-537 486,-555 507,-555 507,-537 486,-537"/>
<text text-anchor="start" x="496" y="-543.2" font-family="Helvetica,sans-Serif" font-size="11.00"> &#160;</text>
<polygon fill="#ffffff" stroke="transparent" points="507,-537 507,-555 528,-555 528,-537 507,-537"/>
<polygon fill="none" stroke="black" points="507,-537 507,-555 528,-555 528,-537 507,-537"/>
<text text-anchor="start" x="517" y="-543.2" font-family="Helvetica,sans-Serif" font-size="11.00"> &#160;</text>
</a>
</g>
</g>
<!-- label&#45;&gt;object -->
<g id="edge2" class="edge">
<title>label:w&#45;&gt;object:e</title>
<path fill="none" stroke="black" d="M430.33,-563.82C395.8,-562.82 377.57,-556.81 352,-527 300.94,-467.46 390.93,-355 312.5,-355"/>
<polygon fill="black" stroke="black" points="437,-563.9 444.96,-567.6 441,-563.95 445,-564 445,-564 445,-564 441,-563.95 445.04,-560.4 437,-563.9 437,-563.9"/>
<ellipse fill="none" stroke="black" cx="433.8" cy="-563.86" rx="3.2" ry="3.2"/>
</g>
<!-- opstelplaats -->
<g id="node6" class="node">
<title>opstelplaats</title>
<g id="a_node6"><a xlink:href="../../tables/opstelplaats.html" xlink:title="opstelplaats" target="_top">
<polygon fill="#ffffff" stroke="transparent" points="423,-458 423,-516 551,-516 551,-458 423,-458"/>
<polygon fill="#f5f5f5" stroke="transparent" points="423,-494 423,-516 551,-516 551,-494 423,-494"/>
<polygon fill="none" stroke="black" points="423,-494 423,-516 551,-516 551,-494 423,-494"/>
<text text-anchor="start" x="428" y="-503.2" font-family="Helvetica,sans-Serif" font-weight="bold" font-size="11.00">opstelplaats</text>
<text text-anchor="start" x="509" y="-502.2" font-family="Helvetica,sans-Serif" font-size="11.00">[table]</text>
<polygon fill="none" stroke="black" points="423,-476 423,-494 551,-494 551,-476 423,-476"/>
<text text-anchor="start" x="426" y="-482.2" font-family="Helvetica,sans-Serif" font-size="11.00">...</text>
<polygon fill="#ffffff" stroke="transparent" points="423,-458 423,-476 486,-476 486,-458 423,-458"/>
<polygon fill="none" stroke="black" points="423,-458 423,-476 486,-476 486,-458 423,-458"/>
<text text-anchor="start" x="426" y="-464.2" font-family="Helvetica,sans-Serif" font-size="11.00">&lt; 2</text>
<polygon fill="#ffffff" stroke="transparent" points="486,-458 486,-476 518,-476 518,-458 486,-458"/>
<polygon fill="none" stroke="black" points="486,-458 486,-476 518,-476 518,-458 486,-458"/>
<text text-anchor="start" x="507" y="-464.2" font-family="Helvetica,sans-Serif" font-size="11.00"> &#160;</text>
<polygon fill="#ffffff" stroke="transparent" points="518,-458 518,-476 551,-476 551,-458 518,-458"/>
<polygon fill="none" stroke="black" points="518,-458 518,-476 551,-476 551,-458 518,-458"/>
<text text-anchor="start" x="540" y="-464.2" font-family="Helvetica,sans-Serif" font-size="11.00"> &#160;</text>
</a>
</g>
</g>
<!-- opstelplaats&#45;&gt;object -->
<g id="edge5" class="edge">
<title>opstelplaats:w&#45;&gt;object:e</title>
<path fill="none" stroke="black" d="M407.47,-484.21C383.16,-481.28 372.18,-469.97 352,-448 321.62,-414.93 357.41,-355 312.5,-355"/>
<polygon fill="black" stroke="black" points="414.01,-484.57 421.81,-488.59 418.01,-484.78 422,-485 422,-485 422,-485 418.01,-484.78 422.19,-481.41 414.01,-484.57 414.01,-484.57"/>
<ellipse fill="none" stroke="black" cx="410.82" cy="-484.4" rx="3.2" ry="3.2"/>
</g>
<!-- risico -->
<g id="node7" class="node">
<title>risico</title>
<g id="a_node7"><a xlink:href="../../tables/risico.html" xlink:title="risico" target="_top">
<polygon fill="#ffffff" stroke="transparent" points="360,-195 360,-437 614,-437 614,-195 360,-195"/>
<polygon fill="#f5f5f5" stroke="transparent" points="362,-413 362,-435 612,-435 612,-413 362,-413"/>
<polygon fill="none" stroke="black" points="362,-413 362,-435 612,-435 612,-413 362,-413"/>
<text text-anchor="start" x="367" y="-422.2" font-family="Helvetica,sans-Serif" font-weight="bold" font-size="11.00">risico</text>
<text text-anchor="start" x="570" y="-421.2" font-family="Helvetica,sans-Serif" font-size="11.00">[table]</text>
<polygon fill="none" stroke="black" points="362,-391 362,-413 476,-413 476,-391 362,-391"/>
<image xlink:href="../../images/primaryKeys.png" width="11px" height="12px" preserveAspectRatio="xMinYMin meet" x="367" y="-408"/>
<text text-anchor="start" x="382" y="-399.2" font-family="Helvetica,sans-Serif" font-size="11.00">uuid</text>
<polygon fill="none" stroke="black" points="476,-391 476,-413 612,-413 612,-391 476,-391"/>
<text text-anchor="start" x="479" y="-399.2" font-family="Helvetica,sans-Serif" font-size="11.00">uuid[2147483647]</text>
<polygon fill="#ffffff" stroke="transparent" points="362,-369 362,-391 476,-391 476,-369 362,-369"/>
<polygon fill="none" stroke="black" points="362,-369 362,-391 476,-391 476,-369 362,-369"/>
<text text-anchor="start" x="382" y="-377.2" font-family="Helvetica,sans-Serif" font-size="11.00">geom</text>
<polygon fill="none" stroke="black" points="476,-369 476,-391 612,-391 612,-369 476,-369"/>
<text text-anchor="start" x="479" y="-377.2" font-family="Helvetica,sans-Serif" font-size="11.00">geometry[2147483647]</text>
<polygon fill="none" stroke="black" points="362,-347 362,-369 476,-369 476,-347 362,-347"/>
<text text-anchor="start" x="382" y="-355.2" font-family="Helvetica,sans-Serif" font-size="11.00">datumtijd</text>
<polygon fill="none" stroke="black" points="476,-347 476,-369 612,-369 612,-347 476,-347"/>
<text text-anchor="start" x="479" y="-355.2" font-family="Helvetica,sans-Serif" font-size="11.00">timestamptz[35,6]</text>
<polygon fill="none" stroke="black" points="362,-325 362,-347 476,-347 476,-325 362,-325"/>
<text text-anchor="start" x="382" y="-333.2" font-family="Helvetica,sans-Serif" font-size="11.00">gebruiker</text>
<polygon fill="none" stroke="black" points="476,-325 476,-347 612,-347 612,-325 476,-325"/>
<text text-anchor="start" x="479" y="-333.2" font-family="Helvetica,sans-Serif" font-size="11.00">varchar[255]</text>
<polygon fill="none" stroke="black" points="362,-303 362,-325 476,-325 476,-303 362,-303"/>
<text text-anchor="start" x="382" y="-311.2" font-family="Helvetica,sans-Serif" font-size="11.00">label</text>
<polygon fill="none" stroke="black" points="476,-303 476,-325 612,-325 612,-303 476,-303"/>
<text text-anchor="start" x="479" y="-311.2" font-family="Helvetica,sans-Serif" font-size="11.00">text[2147483647]</text>
<polygon fill="none" stroke="black" points="362,-281 362,-303 476,-303 476,-281 362,-281"/>
<text text-anchor="start" x="382" y="-289.2" font-family="Helvetica,sans-Serif" font-size="11.00">rotatie</text>
<polygon fill="none" stroke="black" points="476,-281 476,-303 612,-303 612,-281 476,-281"/>
<text text-anchor="start" x="479" y="-289.2" font-family="Helvetica,sans-Serif" font-size="11.00">int4[10]</text>
<polygon fill="none" stroke="black" points="362,-259 362,-281 476,-281 476,-259 362,-259"/>
<text text-anchor="start" x="382" y="-267.2" font-family="Helvetica,sans-Serif" font-size="11.00">bijzonderheden</text>
<polygon fill="none" stroke="black" points="476,-259 476,-281 612,-281 612,-259 476,-259"/>
<text text-anchor="start" x="479" y="-267.2" font-family="Helvetica,sans-Serif" font-size="11.00">text[2147483647]</text>
<polygon fill="none" stroke="black" points="362,-237 362,-259 476,-259 476,-237 362,-237"/>
<text text-anchor="start" x="382" y="-245.2" font-family="Helvetica,sans-Serif" font-size="11.00">plusinfo</text>
<polygon fill="none" stroke="black" points="476,-237 476,-259 612,-259 612,-237 476,-237"/>
<text text-anchor="start" x="479" y="-245.2" font-family="Helvetica,sans-Serif" font-size="11.00">jsonb[2147483647]</text>
<polygon fill="#ffffff" stroke="transparent" points="362,-215 362,-237 476,-237 476,-215 362,-215"/>
<polygon fill="none" stroke="black" points="362,-215 362,-237 476,-237 476,-215 362,-215"/>
<image xlink:href="../../images/foreignKeys.png" width="11px" height="12px" preserveAspectRatio="xMinYMin meet" x="367" y="-232"/>
<text text-anchor="start" x="382" y="-223.2" font-family="Helvetica,sans-Serif" font-size="11.00">object_uuid</text>
<polygon fill="none" stroke="black" points="476,-215 476,-237 612,-237 612,-215 476,-215"/>
<text text-anchor="start" x="479" y="-223.2" font-family="Helvetica,sans-Serif" font-size="11.00">uuid[2147483647]</text>
<polygon fill="#ffffff" stroke="transparent" points="362,-197 362,-215 425,-215 425,-197 362,-197"/>
<polygon fill="none" stroke="black" points="362,-197 362,-215 425,-215 425,-197 362,-197"/>
<text text-anchor="start" x="365" y="-203.2" font-family="Helvetica,sans-Serif" font-size="11.00">&lt; 1</text>
<polygon fill="#ffffff" stroke="transparent" points="425,-197 425,-215 476,-215 476,-197 425,-197"/>
<polygon fill="none" stroke="black" points="425,-197 425,-215 476,-215 476,-197 425,-197"/>
<text text-anchor="start" x="465" y="-203.2" font-family="Helvetica,sans-Serif" font-size="11.00"> &#160;</text>
<polygon fill="#ffffff" stroke="transparent" points="476,-197 476,-215 612,-215 612,-197 476,-197"/>
<polygon fill="none" stroke="black" points="476,-197 476,-215 612,-215 612,-197 476,-197"/>
<text text-anchor="start" x="589" y="-203.2" font-family="Helvetica,sans-Serif" font-size="11.00">0 &gt;</text>
<polygon fill="none" stroke="black" stroke-width="2" points="361,-196 361,-436 613,-436 613,-196 361,-196"/>
</a>
</g>
</g>
<!-- risico&#45;&gt;object -->
<g id="edge6" class="edge">
<title>risico:w&#45;&gt;object:e</title>
<path fill="none" stroke="black" d="M346.67,-229.45C312.91,-249.97 367.77,-355 312.5,-355"/>
<polygon fill="black" stroke="black" points="353.22,-227.87 361.84,-229.5 357.11,-226.94 361,-226 361,-226 361,-226 357.11,-226.94 360.16,-222.5 353.22,-227.87 353.22,-227.87"/>
<ellipse fill="none" stroke="black" cx="350.11" cy="-228.62" rx="3.2" ry="3.2"/>
</g>
<!-- sector -->
<g id="node8" class="node">
<title>sector</title>
<g id="a_node8"><a xlink:href="../../tables/sector.html" xlink:title="sector" target="_top">
<polygon fill="#ffffff" stroke="transparent" points="441.5,-116 441.5,-174 532.5,-174 532.5,-116 441.5,-116"/>
<polygon fill="#f5f5f5" stroke="transparent" points="442,-152 442,-174 533,-174 533,-152 442,-152"/>
<polygon fill="none" stroke="black" points="442,-152 442,-174 533,-174 533,-152 442,-152"/>
<text text-anchor="start" x="447" y="-161.2" font-family="Helvetica,sans-Serif" font-weight="bold" font-size="11.00">sector</text>
<text text-anchor="start" x="491" y="-160.2" font-family="Helvetica,sans-Serif" font-size="11.00">[table]</text>
<polygon fill="none" stroke="black" points="442,-134 442,-152 533,-152 533,-134 442,-134"/>
<text text-anchor="start" x="445" y="-140.2" font-family="Helvetica,sans-Serif" font-size="11.00">...</text>
<polygon fill="#ffffff" stroke="transparent" points="442,-116 442,-134 486,-134 486,-116 442,-116"/>
<polygon fill="none" stroke="black" points="442,-116 442,-134 486,-134 486,-116 442,-116"/>
<text text-anchor="start" x="445" y="-122.2" font-family="Helvetica,sans-Serif" font-size="11.00">&lt; 2</text>
<polygon fill="#ffffff" stroke="transparent" points="486,-116 486,-134 509,-134 509,-116 486,-116"/>
<polygon fill="none" stroke="black" points="486,-116 486,-134 509,-134 509,-116 486,-116"/>
<text text-anchor="start" x="498" y="-122.2" font-family="Helvetica,sans-Serif" font-size="11.00"> &#160;</text>
<polygon fill="#ffffff" stroke="transparent" points="509,-116 509,-134 533,-134 533,-116 509,-116"/>
<polygon fill="none" stroke="black" points="509,-116 509,-134 533,-134 533,-116 509,-116"/>
<text text-anchor="start" x="522" y="-122.2" font-family="Helvetica,sans-Serif" font-size="11.00"> &#160;</text>
</a>
</g>
</g>
<!-- sector&#45;&gt;object -->
<g id="edge7" class="edge">
<title>sector:w&#45;&gt;object:e</title>
<path fill="none" stroke="black" d="M426.19,-143.38C392.81,-145.31 376.14,-155.09 352,-185 303.28,-245.36 390.07,-355 312.5,-355"/>
<polygon fill="black" stroke="black" points="433,-143.21 441.09,-146.6 437,-143.1 441,-143 441,-143 441,-143 437,-143.1 440.91,-139.4 433,-143.21 433,-143.21"/>
<ellipse fill="none" stroke="black" cx="429.8" cy="-143.29" rx="3.2" ry="3.2"/>
</g>
<!-- voorziening -->
<g id="node9" class="node">
<title>voorziening</title>
<g id="a_node9"><a xlink:href="../../tables/voorziening.html" xlink:title="voorziening" target="_top">
<polygon fill="#ffffff" stroke="transparent" points="425,-37 425,-95 549,-95 549,-37 425,-37"/>
<polygon fill="#f5f5f5" stroke="transparent" points="425,-73 425,-95 549,-95 549,-73 425,-73"/>
<polygon fill="none" stroke="black" points="425,-73 425,-95 549,-95 549,-73 425,-73"/>
<text text-anchor="start" x="430" y="-82.2" font-family="Helvetica,sans-Serif" font-weight="bold" font-size="11.00">voorziening</text>
<text text-anchor="start" x="507" y="-81.2" font-family="Helvetica,sans-Serif" font-size="11.00">[table]</text>
<polygon fill="none" stroke="black" points="425,-55 425,-73 549,-73 549,-55 425,-55"/>
<text text-anchor="start" x="428" y="-61.2" font-family="Helvetica,sans-Serif" font-size="11.00">...</text>
<polygon fill="#ffffff" stroke="transparent" points="425,-37 425,-55 486,-55 486,-37 425,-37"/>
<polygon fill="none" stroke="black" points="425,-37 425,-55 486,-55 486,-37 425,-37"/>
<text text-anchor="start" x="428" y="-43.2" font-family="Helvetica,sans-Serif" font-size="11.00">&lt; 2</text>
<polygon fill="#ffffff" stroke="transparent" points="486,-37 486,-55 517,-55 517,-37 486,-37"/>
<polygon fill="none" stroke="black" points="486,-37 486,-55 517,-55 517,-37 486,-37"/>
<text text-anchor="start" x="506" y="-43.2" font-family="Helvetica,sans-Serif" font-size="11.00"> &#160;</text>
<polygon fill="#ffffff" stroke="transparent" points="517,-37 517,-55 549,-55 549,-37 517,-37"/>
<polygon fill="none" stroke="black" points="517,-37 517,-55 549,-55 549,-37 517,-37"/>
<text text-anchor="start" x="538" y="-43.2" font-family="Helvetica,sans-Serif" font-size="11.00"> &#160;</text>
</a>
</g>
</g>
<!-- voorziening&#45;&gt;object -->
<g id="edge8" class="edge">
<title>voorziening:w&#45;&gt;object:e</title>
<path fill="none" stroke="black" d="M409.29,-64.74C382.75,-67.7 369.9,-79.84 352,-106 320.36,-152.24 368.53,-355 312.5,-355"/>
<polygon fill="black" stroke="black" points="416.01,-64.4 424.18,-67.6 420.01,-64.2 424,-64 424,-64 424,-64 420.01,-64.2 423.82,-60.4 416.01,-64.4 416.01,-64.4"/>
<ellipse fill="none" stroke="black" cx="412.81" cy="-64.56" rx="3.2" ry="3.2"/>
</g>
</g>
</svg>
