<?xml version="1.0" encoding="UTF-8" standalone="no"?>
<!DOCTYPE svg PUBLIC "-//W3C//DTD SVG 1.1//EN"
 "http://www.w3.org/Graphics/SVG/1.1/DTD/svg11.dtd">
<!-- Generated by graphviz version 2.50.0 (0)
 -->
<!-- Title: oneDegreeRelationshipsDiagram Pages: 1 -->
<svg width="458pt" height="403pt"
 viewBox="0.00 0.00 458.00 403.00" xmlns="http://www.w3.org/2000/svg" xmlns:xlink="http://www.w3.org/1999/xlink">
<g id="graph0" class="graph" transform="scale(1 1) rotate(0) translate(4 399)">
<title>oneDegreeRelationshipsDiagram</title>
<polygon fill="#ffffff" stroke="transparent" points="-4,4 -4,-399 454,-399 454,4 -4,4"/>
<text text-anchor="middle" x="79.5" y="-7.2" font-family="Helvetica,sans-Serif" font-size="11.00">Generated by SchemaSpy</text>
<!-- sector -->
<g id="node1" class="node">
<title>sector</title>
<g id="a_node1"><a xlink:href="../../tables/sector.html" xlink:title="sector" target="_top">
<polygon fill="#ffffff" stroke="transparent" points="188,-127 188,-391 442,-391 442,-127 188,-127"/>
<polygon fill="#f5f5f5" stroke="transparent" points="190,-367 190,-389 440,-389 440,-367 190,-367"/>
<polygon fill="none" stroke="black" points="190,-367 190,-389 440,-389 440,-367 190,-367"/>
<text text-anchor="start" x="195" y="-376.2" font-family="Helvetica,sans-Serif" font-weight="bold" font-size="11.00">sector</text>
<text text-anchor="start" x="398" y="-375.2" font-family="Helvetica,sans-Serif" font-size="11.00">[table]</text>
<polygon fill="none" stroke="black" points="190,-345 190,-367 304,-367 304,-345 190,-345"/>
<image xlink:href="../../images/primaryKeys.png" width="11px" height="12px" preserveAspectRatio="xMinYMin meet" x="195" y="-362"/>
<text text-anchor="start" x="210" y="-353.2" font-family="Helvetica,sans-Serif" font-size="11.00">uuid</text>
<polygon fill="none" stroke="black" points="304,-345 304,-367 440,-367 440,-345 304,-345"/>
<text text-anchor="start" x="307" y="-353.2" font-family="Helvetica,sans-Serif" font-size="11.00">uuid[2147483647]</text>
<polygon fill="#ffffff" stroke="transparent" points="190,-323 190,-345 304,-345 304,-323 190,-323"/>
<polygon fill="none" stroke="black" points="190,-323 190,-345 304,-345 304,-323 190,-323"/>
<text text-anchor="start" x="210" y="-331.2" font-family="Helvetica,sans-Serif" font-size="11.00">geom</text>
<polygon fill="none" stroke="black" points="304,-323 304,-345 440,-345 440,-323 304,-323"/>
<text text-anchor="start" x="307" y="-331.2" font-family="Helvetica,sans-Serif" font-size="11.00">geometry[2147483647]</text>
<polygon fill="none" stroke="black" points="190,-301 190,-323 304,-323 304,-301 190,-301"/>
<text text-anchor="start" x="210" y="-309.2" font-family="Helvetica,sans-Serif" font-size="11.00">datumtijd</text>
<polygon fill="none" stroke="black" points="304,-301 304,-323 440,-323 440,-301 304,-301"/>
<text text-anchor="start" x="307" y="-309.2" font-family="Helvetica,sans-Serif" font-size="11.00">timestamptz[35,6]</text>
<polygon fill="none" stroke="black" points="190,-279 190,-301 304,-301 304,-279 190,-279"/>
<text text-anchor="start" x="210" y="-287.2" font-family="Helvetica,sans-Serif" font-size="11.00">gebruiker</text>
<polygon fill="none" stroke="black" points="304,-279 304,-301 440,-301 440,-279 304,-279"/>
<text text-anchor="start" x="307" y="-287.2" font-family="Helvetica,sans-Serif" font-size="11.00">varchar[255]</text>
<polygon fill="none" stroke="black" points="190,-257 190,-279 304,-279 304,-257 190,-257"/>
<text text-anchor="start" x="210" y="-265.2" font-family="Helvetica,sans-Serif" font-size="11.00">label</text>
<polygon fill="none" stroke="black" points="304,-257 304,-279 440,-279 440,-257 304,-257"/>
<text text-anchor="start" x="307" y="-265.2" font-family="Helvetica,sans-Serif" font-size="11.00">text[2147483647]</text>
<polygon fill="none" stroke="black" points="190,-235 190,-257 304,-257 304,-235 190,-235"/>
<text text-anchor="start" x="210" y="-243.2" font-family="Helvetica,sans-Serif" font-size="11.00">rotatie</text>
<polygon fill="none" stroke="black" points="304,-235 304,-257 440,-257 440,-235 304,-235"/>
<text text-anchor="start" x="307" y="-243.2" font-family="Helvetica,sans-Serif" font-size="11.00">int4[10]</text>
<polygon fill="none" stroke="black" points="190,-213 190,-235 304,-235 304,-213 190,-213"/>
<text text-anchor="start" x="210" y="-221.2" font-family="Helvetica,sans-Serif" font-size="11.00">bijzonderheden</text>
<polygon fill="none" stroke="black" points="304,-213 304,-235 440,-235 440,-213 304,-213"/>
<text text-anchor="start" x="307" y="-221.2" font-family="Helvetica,sans-Serif" font-size="11.00">text[2147483647]</text>
<polygon fill="none" stroke="black" points="190,-191 190,-213 304,-213 304,-191 190,-191"/>
<text text-anchor="start" x="210" y="-199.2" font-family="Helvetica,sans-Serif" font-size="11.00">plusinfo</text>
<polygon fill="none" stroke="black" points="304,-191 304,-213 440,-213 440,-191 304,-191"/>
<text text-anchor="start" x="307" y="-199.2" font-family="Helvetica,sans-Serif" font-size="11.00">jsonb[2147483647]</text>
<polygon fill="#ffffff" stroke="transparent" points="190,-169 190,-191 304,-191 304,-169 190,-169"/>
<polygon fill="none" stroke="black" points="190,-169 190,-191 304,-191 304,-169 190,-169"/>
<image xlink:href="../../images/foreignKeys.png" width="11px" height="12px" preserveAspectRatio="xMinYMin meet" x="195" y="-186"/>
<text text-anchor="start" x="210" y="-177.2" font-family="Helvetica,sans-Serif" font-size="11.00">object_uuid</text>
<polygon fill="none" stroke="black" points="304,-169 304,-191 440,-191 440,-169 304,-169"/>
<text text-anchor="start" x="307" y="-177.2" font-family="Helvetica,sans-Serif" font-size="11.00">uuid[2147483647]</text>
<polygon fill="none" stroke="black" points="190,-147 190,-169 304,-169 304,-147 190,-147"/>
<image xlink:href="../../images/foreignKeys.png" width="11px" height="12px" preserveAspectRatio="xMinYMin meet" x="195" y="-164"/>
<text text-anchor="start" x="210" y="-155.2" font-family="Helvetica,sans-Serif" font-size="11.00">zone_id</text>
<polygon fill="none" stroke="black" points="304,-147 304,-169 440,-169 440,-147 304,-147"/>
<text text-anchor="start" x="307" y="-155.2" font-family="Helvetica,sans-Serif" font-size="11.00">int2[5]</text>
<polygon fill="#ffffff" stroke="transparent" points="190,-129 190,-147 253,-147 253,-129 190,-129"/>
<polygon fill="none" stroke="black" points="190,-129 190,-147 253,-147 253,-129 190,-129"/>
<text text-anchor="start" x="193" y="-135.2" font-family="Helvetica,sans-Serif" font-size="11.00">&lt; 2</text>
<polygon fill="#ffffff" stroke="transparent" points="253,-129 253,-147 304,-147 304,-129 253,-129"/>
<polygon fill="none" stroke="black" points="253,-129 253,-147 304,-147 304,-129 253,-129"/>
<text text-anchor="start" x="293" y="-135.2" font-family="Helvetica,sans-Serif" font-size="11.00"> &#160;</text>
<polygon fill="#ffffff" stroke="transparent" points="304,-129 304,-147 440,-147 440,-129 304,-129"/>
<polygon fill="none" stroke="black" points="304,-129 304,-147 440,-147 440,-129 304,-129"/>
<text text-anchor="start" x="417" y="-135.2" font-family="Helvetica,sans-Serif" font-size="11.00">0 &gt;</text>
<polygon fill="none" stroke="black" stroke-width="2" points="189,-128 189,-390 441,-390 441,-128 189,-128"/>
</a>
</g>
</g>
<!-- object -->
<g id="node2" class="node">
<title>object</title>
<g id="a_node2"><a xlink:href="../../tables/object.html" xlink:title="object" target="_top">
<polygon fill="#ffffff" stroke="transparent" points="8,-116 8,-306 139,-306 139,-116 8,-116"/>
<polygon fill="#f5f5f5" stroke="transparent" points="8.5,-284 8.5,-306 139.5,-306 139.5,-284 8.5,-284"/>
<polygon fill="none" stroke="black" points="8.5,-284 8.5,-306 139.5,-306 139.5,-284 8.5,-284"/>
<text text-anchor="start" x="13.5" y="-293.2" font-family="Helvetica,sans-Serif" font-weight="bold" font-size="11.00">object</text>
<text text-anchor="start" x="97.5" y="-292.2" font-family="Helvetica,sans-Serif" font-size="11.00">[table]</text>
<polygon fill="none" stroke="black" points="8.5,-262 8.5,-284 139.5,-284 139.5,-262 8.5,-262"/>
<image xlink:href="../../images/primaryKeys.png" width="11px" height="12px" preserveAspectRatio="xMinYMin meet" x="13.5" y="-279"/>
<text text-anchor="start" x="28.5" y="-270.2" font-family="Helvetica,sans-Serif" font-size="11.00">uuid</text>
<polygon fill="#ffffff" stroke="transparent" points="8.5,-240 8.5,-262 139.5,-262 139.5,-240 8.5,-240"/>
<polygon fill="none" stroke="black" points="8.5,-240 8.5,-262 139.5,-262 139.5,-240 8.5,-240"/>
<text text-anchor="start" x="28.5" y="-248.2" font-family="Helvetica,sans-Serif" font-size="11.00">geom</text>
<polygon fill="#ffffff" stroke="transparent" points="8.5,-218 8.5,-240 139.5,-240 139.5,-218 8.5,-218"/>
<polygon fill="none" stroke="black" points="8.5,-218 8.5,-240 139.5,-240 139.5,-218 8.5,-218"/>
<text text-anchor="start" x="28.5" y="-226.2" font-family="Helvetica,sans-Serif" font-size="11.00">revisie_frequentie</text>
<polygon fill="#ffffff" stroke="transparent" points="8.5,-196 8.5,-218 139.5,-218 139.5,-196 8.5,-196"/>
<polygon fill="none" stroke="black" points="8.5,-196 8.5,-218 139.5,-218 139.5,-196 8.5,-196"/>
<image xlink:href="../../images/foreignKeys.png" width="11px" height="12px" preserveAspectRatio="xMinYMin meet" x="13.5" y="-213"/>
<text text-anchor="start" x="28.5" y="-204.2" font-family="Helvetica,sans-Serif" font-size="11.00">fase_id</text>
<polygon fill="#ffffff" stroke="transparent" points="8.5,-174 8.5,-196 139.5,-196 139.5,-174 8.5,-174"/>
<polygon fill="none" stroke="black" points="8.5,-174 8.5,-196 139.5,-196 139.5,-174 8.5,-174"/>
<image xlink:href="../../images/foreignKeys.png" width="11px" height="12px" preserveAspectRatio="xMinYMin meet" x="13.5" y="-191"/>
<text text-anchor="start" x="28.5" y="-182.2" font-family="Helvetica,sans-Serif" font-size="11.00">object_type_id</text>
<polygon fill="#ffffff" stroke="transparent" points="8.5,-152 8.5,-174 139.5,-174 139.5,-152 8.5,-152"/>
<polygon fill="none" stroke="black" points="8.5,-152 8.5,-174 139.5,-174 139.5,-152 8.5,-152"/>
<text text-anchor="start" x="28.5" y="-160.2" font-family="Helvetica,sans-Serif" font-size="11.00">periode</text>
<polygon fill="none" stroke="black" points="8.5,-134 8.5,-152 139.5,-152 139.5,-134 8.5,-134"/>
<text text-anchor="start" x="11.5" y="-140.2" font-family="Helvetica,sans-Serif" font-size="11.00">...</text>
<polygon fill="#ffffff" stroke="transparent" points="8.5,-116 8.5,-134 66.5,-134 66.5,-116 8.5,-116"/>
<polygon fill="none" stroke="black" points="8.5,-116 8.5,-134 66.5,-134 66.5,-116 8.5,-116"/>
<text text-anchor="start" x="11.5" y="-122.2" font-family="Helvetica,sans-Serif" font-size="11.00">&lt; 2</text>
<polygon fill="#ffffff" stroke="transparent" points="66.5,-116 66.5,-134 96.5,-134 96.5,-116 66.5,-116"/>
<polygon fill="none" stroke="black" points="66.5,-116 66.5,-134 96.5,-134 96.5,-116 66.5,-116"/>
<text text-anchor="start" x="85.5" y="-122.2" font-family="Helvetica,sans-Serif" font-size="11.00"> &#160;</text>
<polygon fill="#ffffff" stroke="transparent" points="96.5,-116 96.5,-134 139.5,-134 139.5,-116 96.5,-116"/>
<polygon fill="none" stroke="black" points="96.5,-116 96.5,-134 139.5,-134 139.5,-116 96.5,-116"/>
<text text-anchor="start" x="116.5" y="-122.2" font-family="Helvetica,sans-Serif" font-size="11.00">6 &gt;</text>
</a>
</g>
</g>
<!-- sector&#45;&gt;object -->
<g id="edge1" class="edge">
<title>sector:w&#45;&gt;object:e</title>
<path fill="none" stroke="black" d="M175.14,-184.24C152.4,-202.43 181.11,-273 140.5,-273"/>
<polygon fill="black" stroke="black" points="181.35,-182.34 190.05,-183.44 185.17,-181.17 189,-180 189,-180 189,-180 185.17,-181.17 187.95,-176.56 181.35,-182.34 181.35,-182.34"/>
<ellipse fill="none" stroke="black" cx="178.29" cy="-183.27" rx="3.2" ry="3.2"/>
</g>
<!-- roi.zone -->
<g id="node3" class="node">
<title>roi.zone</title>
<g id="a_node3"><a xlink:href="../../../roi/tables/zone.html" xlink:title="roi.zone" target="_top">
<polygon fill="#ffffff" stroke="transparent" points="22.5,-37 22.5,-95 124.5,-95 124.5,-37 22.5,-37"/>
<polygon fill="#f5f5f5" stroke="transparent" points="22.5,-73 22.5,-95 124.5,-95 124.5,-73 22.5,-73"/>
<polygon fill="none" stroke="black" points="22.5,-73 22.5,-95 124.5,-95 124.5,-73 22.5,-73"/>
<text text-anchor="start" x="27.5" y="-82.2" font-family="Helvetica,sans-Serif" font-weight="bold" font-size="11.00">roi.zone</text>
<text text-anchor="start" x="82.5" y="-81.2" font-family="Helvetica,sans-Serif" font-size="11.00">[table]</text>
<polygon fill="none" stroke="black" points="22.5,-55 22.5,-73 124.5,-73 124.5,-55 22.5,-55"/>
<text text-anchor="start" x="25.5" y="-61.2" font-family="Helvetica,sans-Serif" font-size="11.00">...</text>
<polygon fill="#ffffff" stroke="transparent" points="22.5,-37 22.5,-55 60.5,-55 60.5,-37 22.5,-37"/>
<polygon fill="none" stroke="black" points="22.5,-37 22.5,-55 60.5,-55 60.5,-37 22.5,-37"/>
<text text-anchor="start" x="25.5" y="-43.2" font-family="Helvetica,sans-Serif" font-size="11.00"> &#160;</text>
<polygon fill="#ffffff" stroke="transparent" points="60.5,-37 60.5,-55 86.5,-55 86.5,-37 60.5,-37"/>
<polygon fill="none" stroke="black" points="60.5,-37 60.5,-55 86.5,-55 86.5,-37 60.5,-37"/>
<text text-anchor="start" x="75.5" y="-43.2" font-family="Helvetica,sans-Serif" font-size="11.00"> &#160;</text>
<polygon fill="#ffffff" stroke="transparent" points="86.5,-37 86.5,-55 124.5,-55 124.5,-37 86.5,-37"/>
<polygon fill="none" stroke="black" points="86.5,-37 86.5,-55 124.5,-55 124.5,-37 86.5,-37"/>
<text text-anchor="start" x="101.5" y="-43.2" font-family="Helvetica,sans-Serif" font-size="11.00">1 &gt;</text>
</a>
</g>
</g>
<!-- sector&#45;&gt;roi.zone -->
<g id="edge2" class="edge">
<title>sector:w&#45;&gt;roi.zone:e</title>
<path fill="none" stroke="black" d="M174.87,-154.05C162.23,-144.73 164.96,-121.06 147,-106 142.59,-102.31 137.79,-98.79 132.83,-95.48"/>
<polygon fill="black" stroke="black" points="181.3,-155.84 188.03,-161.47 185.15,-156.92 189,-158 189,-158 189,-158 185.15,-156.92 189.97,-154.53 181.3,-155.84 181.3,-155.84"/>
<ellipse fill="none" stroke="black" cx="178.21" cy="-154.98" rx="3.2" ry="3.2"/>
</g>
</g>
</svg>
